<?xml version="1.0" encoding="UTF-8" standalone="no"?>
<!DOCTYPE svg PUBLIC "-//W3C//DTD SVG 1.1//EN"
 "http://www.w3.org/Graphics/SVG/1.1/DTD/svg11.dtd">
<!-- Generated by graphviz version 2.38.0 (20140413.2041)
 -->
<!-- Title: /home/travis/build/AliceO2Group/AliceO2/DataFormats/Detectors/TPC/test/testClusterHardware.cxx Pages: 1 -->
<svg width="423pt" height="184pt"
 viewBox="0.00 0.00 422.50 184.00" xmlns="http://www.w3.org/2000/svg" xmlns:xlink="http://www.w3.org/1999/xlink">
<g id="graph0" class="graph" transform="scale(1 1) rotate(0) translate(4 180)">
<title>/home/travis/build/AliceO2Group/AliceO2/DataFormats/Detectors/TPC/test/testClusterHardware.cxx</title>
<!-- Node1 -->
<g id="node1" class="node"><title>Node1</title>
<polygon fill="#bfbfbf" stroke="black" points="180,-123.5 180,-175.5 351,-175.5 351,-123.5 180,-123.5"/>
<text text-anchor="start" x="188" y="-163.5" font-family="Helvetica,sans-Serif" font-size="10.00">/home/travis/build</text>
<text text-anchor="start" x="188" y="-152.5" font-family="Helvetica,sans-Serif" font-size="10.00">/AliceO2Group/AliceO2</text>
<text text-anchor="start" x="188" y="-141.5" font-family="Helvetica,sans-Serif" font-size="10.00">/DataFormats/Detectors</text>
<text text-anchor="middle" x="265.5" y="-130.5" font-family="Helvetica,sans-Serif" font-size="10.00">/TPC/test/testClusterHardware.cxx</text>
</g>
<!-- Node2 -->
<g id="node2" class="node"><title>Node2</title>
<g id="a_node2"><a xlink:href="../../d3/dc4/ClusterHardware_8h.html" target="_top" xlink:title="Class of a TPC cluster as produced by the hardware cluster finder (needs a postprocessing step to con...">
<polygon fill="none" stroke="black" points="0,-56.5 0,-86.5 137,-86.5 137,-56.5 0,-56.5"/>
<text text-anchor="start" x="8" y="-74.5" font-family="Helvetica,sans-Serif" font-size="10.00">../include/DataFormatsTPC</text>
<text text-anchor="middle" x="68.5" y="-63.5" font-family="Helvetica,sans-Serif" font-size="10.00">/ClusterHardware.h</text>
</a>
</g>
</g>
<!-- Node1&#45;&gt;Node2 -->
<g id="edge1" class="edge"><title>Node1&#45;&gt;Node2</title>
<path fill="none" stroke="midnightblue" d="M200.449,-123.404C172.325,-112.554 140.073,-100.112 114.495,-90.2442"/>
<polygon fill="midnightblue" stroke="midnightblue" points="115.631,-86.9311 105.041,-86.5971 113.111,-93.4619 115.631,-86.9311"/>
</g>
<!-- Node4 -->
<g id="node4" class="node"><title>Node4</title>
<polygon fill="none" stroke="#bfbfbf" points="155,-62 155,-81 274,-81 274,-62 155,-62"/>
<text text-anchor="middle" x="214.5" y="-69" font-family="Helvetica,sans-Serif" font-size="10.00">boost/test/unit_test.hpp</text>
</g>
<!-- Node1&#45;&gt;Node4 -->
<g id="edge3" class="edge"><title>Node1&#45;&gt;Node4</title>
<path fill="none" stroke="midnightblue" d="M248.518,-123.193C241.14,-112.198 232.687,-99.6017 226.053,-89.7158"/>
<polygon fill="midnightblue" stroke="midnightblue" points="228.823,-87.5623 220.344,-81.2089 223.01,-91.4629 228.823,-87.5623"/>
</g>
<!-- Node5 -->
<g id="node5" class="node"><title>Node5</title>
<polygon fill="none" stroke="#bfbfbf" points="292.5,-62 292.5,-81 342.5,-81 342.5,-62 292.5,-62"/>
<text text-anchor="middle" x="317.5" y="-69" font-family="Helvetica,sans-Serif" font-size="10.00">iomanip</text>
</g>
<!-- Node1&#45;&gt;Node5 -->
<g id="edge4" class="edge"><title>Node1&#45;&gt;Node5</title>
<path fill="none" stroke="midnightblue" d="M282.815,-123.193C290.338,-112.198 298.957,-99.6017 305.721,-89.7158"/>
<polygon fill="midnightblue" stroke="midnightblue" points="308.783,-91.4384 311.541,-81.2089 303.006,-87.4856 308.783,-91.4384"/>
</g>
<!-- Node6 -->
<g id="node6" class="node"><title>Node6</title>
<polygon fill="none" stroke="#bfbfbf" points="360.5,-62 360.5,-81 414.5,-81 414.5,-62 360.5,-62"/>
<text text-anchor="middle" x="387.5" y="-69" font-family="Helvetica,sans-Serif" font-size="10.00">iostream</text>
</g>
<!-- Node1&#45;&gt;Node6 -->
<g id="edge5" class="edge"><title>Node1&#45;&gt;Node6</title>
<path fill="none" stroke="midnightblue" d="M305.785,-123.404C325.396,-111.188 348.248,-96.9524 364.791,-86.6467"/>
<polygon fill="midnightblue" stroke="midnightblue" points="367.093,-89.3362 373.73,-81.0779 363.392,-83.3947 367.093,-89.3362"/>
</g>
<!-- Node3 -->
<g id="node3" class="node"><title>Node3</title>
<polygon fill="none" stroke="#bfbfbf" points="45.5,-0.5 45.5,-19.5 91.5,-19.5 91.5,-0.5 45.5,-0.5"/>
<text text-anchor="middle" x="68.5" y="-7.5" font-family="Helvetica,sans-Serif" font-size="10.00">cstdint</text>
</g>
<!-- Node2&#45;&gt;Node3 -->
<g id="edge2" class="edge"><title>Node2&#45;&gt;Node3</title>
<path fill="none" stroke="midnightblue" d="M68.5,-56.3993C68.5,-48.4664 68.5,-38.458 68.5,-29.8583"/>
<polygon fill="midnightblue" stroke="midnightblue" points="72.0001,-29.6577 68.5,-19.6578 65.0001,-29.6578 72.0001,-29.6577"/>
</g>
</g>
</svg>
