<?xml version="1.0" encoding="UTF-8" standalone="no"?>
<!DOCTYPE svg PUBLIC "-//W3C//DTD SVG 1.1//EN"
 "http://www.w3.org/Graphics/SVG/1.1/DTD/svg11.dtd">
<!-- Generated by graphviz version 2.38.0 (20140413.2041)
 -->
<!-- Title: /home/travis/build/AliceO2Group/AliceO2/Framework/Core/src/InputSpec.cxx Pages: 1 -->
<svg width="2443pt" height="419pt"
 viewBox="0.00 0.00 2443.00 419.00" xmlns="http://www.w3.org/2000/svg" xmlns:xlink="http://www.w3.org/1999/xlink">
<g id="graph0" class="graph" transform="scale(1 1) rotate(0) translate(4 415)">
<title>/home/travis/build/AliceO2Group/AliceO2/Framework/Core/src/InputSpec.cxx</title>
<!-- Node1 -->
<g id="node1" class="node"><title>Node1</title>
<polygon fill="#bfbfbf" stroke="black" points="700.5,-369.5 700.5,-410.5 875.5,-410.5 875.5,-369.5 700.5,-369.5"/>
<text text-anchor="start" x="708.5" y="-398.5" font-family="Helvetica,sans-Serif" font-size="10.00">/home/travis/build</text>
<text text-anchor="start" x="708.5" y="-387.5" font-family="Helvetica,sans-Serif" font-size="10.00">/AliceO2Group/AliceO2</text>
<text text-anchor="middle" x="788" y="-376.5" font-family="Helvetica,sans-Serif" font-size="10.00">/Framework/Core/src/InputSpec.cxx</text>
</g>
<!-- Node2 -->
<g id="node2" class="node"><title>Node2</title>
<g id="a_node2"><a xlink:href="../../d5/d3f/InputSpec_8h.html" target="_top" xlink:title="Framework/InputSpec.h">
<polygon fill="none" stroke="black" points="638.5,-257.5 638.5,-276.5 759.5,-276.5 759.5,-257.5 638.5,-257.5"/>
<text text-anchor="middle" x="699" y="-264.5" font-family="Helvetica,sans-Serif" font-size="10.00">Framework/InputSpec.h</text>
</a>
</g>
</g>
<!-- Node1&#45;&gt;Node2 -->
<g id="edge1" class="edge"><title>Node1&#45;&gt;Node2</title>
<path fill="none" stroke="midnightblue" d="M773.503,-369.29C756.186,-345.747 727.523,-306.779 711.261,-284.669"/>
<polygon fill="midnightblue" stroke="midnightblue" points="714.052,-282.557 705.307,-276.575 708.413,-286.704 714.052,-282.557"/>
</g>
<!-- Node35 -->
<g id="node35" class="node"><title>Node35</title>
<polygon fill="none" stroke="#bfbfbf" points="804,-129 804,-148 850,-148 850,-129 804,-129"/>
<text text-anchor="middle" x="827" y="-136" font-family="Helvetica,sans-Serif" font-size="10.00">variant</text>
</g>
<!-- Node1&#45;&gt;Node35 -->
<g id="edge65" class="edge"><title>Node1&#45;&gt;Node35</title>
<path fill="none" stroke="midnightblue" d="M788.053,-369.492C788.548,-333.502 791.492,-254.448 807,-190 809.689,-178.823 814.353,-166.84 818.5,-157.352"/>
<polygon fill="midnightblue" stroke="midnightblue" points="821.712,-158.744 822.68,-148.193 815.344,-155.837 821.712,-158.744"/>
</g>
<!-- Node38 -->
<g id="node38" class="node"><title>Node38</title>
<g id="a_node38"><a xlink:href="../../d6/d68/DataSpecUtils_8h.html" target="_top" xlink:title="Framework/DataSpecUtils.h">
<polygon fill="none" stroke="black" points="839,-313.5 839,-332.5 979,-332.5 979,-313.5 839,-313.5"/>
<text text-anchor="middle" x="909" y="-320.5" font-family="Helvetica,sans-Serif" font-size="10.00">Framework/DataSpecUtils.h</text>
</a>
</g>
</g>
<!-- Node1&#45;&gt;Node38 -->
<g id="edge52" class="edge"><title>Node1&#45;&gt;Node38</title>
<path fill="none" stroke="midnightblue" d="M824.304,-369.498C843.569,-359.149 866.753,-346.695 883.991,-337.435"/>
<polygon fill="midnightblue" stroke="midnightblue" points="885.74,-340.468 892.893,-332.652 882.427,-334.302 885.74,-340.468"/>
</g>
<!-- Node3 -->
<g id="node3" class="node"><title>Node3</title>
<g id="a_node3"><a xlink:href="../../dc/dca/Lifetime_8h.html" target="_top" xlink:title="Framework/Lifetime.h">
<polygon fill="none" stroke="black" points="1014.5,-129 1014.5,-148 1125.5,-148 1125.5,-129 1014.5,-129"/>
<text text-anchor="middle" x="1070" y="-136" font-family="Helvetica,sans-Serif" font-size="10.00">Framework/Lifetime.h</text>
</a>
</g>
</g>
<!-- Node2&#45;&gt;Node3 -->
<g id="edge2" class="edge"><title>Node2&#45;&gt;Node3</title>
<path fill="none" stroke="midnightblue" d="M759.551,-262.626C812.34,-257.988 890.089,-246.999 953,-221 958.306,-218.807 1017.39,-176.976 1049.5,-154.12"/>
<polygon fill="midnightblue" stroke="midnightblue" points="1051.66,-156.877 1057.78,-148.225 1047.6,-151.176 1051.66,-156.877"/>
</g>
<!-- Node4 -->
<g id="node4" class="node"><title>Node4</title>
<g id="a_node4"><a xlink:href="../../d0/d1b/ConcreteDataMatcher_8h.html" target="_top" xlink:title="Framework/ConcreteDataMatcher.h">
<polygon fill="none" stroke="black" points="612.5,-129 612.5,-148 785.5,-148 785.5,-129 612.5,-129"/>
<text text-anchor="middle" x="699" y="-136" font-family="Helvetica,sans-Serif" font-size="10.00">Framework/ConcreteDataMatcher.h</text>
</a>
</g>
</g>
<!-- Node2&#45;&gt;Node4 -->
<g id="edge3" class="edge"><title>Node2&#45;&gt;Node4</title>
<path fill="none" stroke="midnightblue" d="M699,-257.305C699,-236.994 699,-186.053 699,-158.277"/>
<polygon fill="midnightblue" stroke="midnightblue" points="702.5,-158.256 699,-148.256 695.5,-158.256 702.5,-158.256"/>
</g>
<!-- Node12 -->
<g id="node12" class="node"><title>Node12</title>
<polygon fill="none" stroke="#bfbfbf" points="485.5,-6 485.5,-25 526.5,-25 526.5,-6 485.5,-6"/>
<text text-anchor="middle" x="506" y="-13" font-family="Helvetica,sans-Serif" font-size="10.00">string</text>
</g>
<!-- Node2&#45;&gt;Node12 -->
<g id="edge49" class="edge"><title>Node2&#45;&gt;Node12</title>
<path fill="none" stroke="midnightblue" d="M690.992,-257.239C674.135,-238.674 633.992,-193.81 603,-154 570.234,-111.913 534.866,-59.9192 517.274,-33.5573"/>
<polygon fill="midnightblue" stroke="midnightblue" points="520.085,-31.4624 511.635,-25.0705 514.254,-35.3365 520.085,-31.4624"/>
</g>
<!-- Node16 -->
<g id="node16" class="node"><title>Node16</title>
<g id="a_node16"><a xlink:href="../../d3/da3/DataDescriptorMatcher_8h.html" target="_top" xlink:title="Framework/DataDescriptor\lMatcher.h">
<polygon fill="none" stroke="black" points="348,-190.5 348,-220.5 482,-220.5 482,-190.5 348,-190.5"/>
<text text-anchor="start" x="356" y="-208.5" font-family="Helvetica,sans-Serif" font-size="10.00">Framework/DataDescriptor</text>
<text text-anchor="middle" x="415" y="-197.5" font-family="Helvetica,sans-Serif" font-size="10.00">Matcher.h</text>
</a>
</g>
</g>
<!-- Node2&#45;&gt;Node16 -->
<g id="edge15" class="edge"><title>Node2&#45;&gt;Node16</title>
<path fill="none" stroke="midnightblue" d="M658.31,-257.475C614.993,-248.4 545.432,-233.826 491.76,-222.582"/>
<polygon fill="midnightblue" stroke="midnightblue" points="492.438,-219.148 481.933,-220.523 491.003,-225.999 492.438,-219.148"/>
</g>
<!-- Node2&#45;&gt;Node35 -->
<g id="edge51" class="edge"><title>Node2&#45;&gt;Node35</title>
<path fill="none" stroke="midnightblue" d="M707.24,-257.481C720.958,-243.336 749.407,-214.166 774,-190 785.992,-178.217 799.742,-165.127 810.231,-155.227"/>
<polygon fill="midnightblue" stroke="midnightblue" points="812.651,-157.756 817.534,-148.353 807.853,-152.659 812.651,-157.756"/>
</g>
<!-- Node37 -->
<g id="node37" class="node"><title>Node37</title>
<polygon fill="none" stroke="#bfbfbf" points="504,-196 504,-215 556,-215 556,-196 504,-196"/>
<text text-anchor="middle" x="530" y="-203" font-family="Helvetica,sans-Serif" font-size="10.00">ostream</text>
</g>
<!-- Node2&#45;&gt;Node37 -->
<g id="edge50" class="edge"><title>Node2&#45;&gt;Node37</title>
<path fill="none" stroke="midnightblue" d="M674.239,-257.462C648.245,-248.476 606.204,-233.876 570,-221 567.769,-220.206 565.469,-219.384 563.152,-218.553"/>
<polygon fill="midnightblue" stroke="midnightblue" points="564.267,-215.234 553.672,-215.135 561.892,-221.819 564.267,-215.234"/>
</g>
<!-- Node5 -->
<g id="node5" class="node"><title>Node5</title>
<g id="a_node5"><a xlink:href="../../dc/dcd/DataHeader_8h.html" target="_top" xlink:title="Headers/DataHeader.h">
<polygon fill="none" stroke="black" points="639.5,-67.5 639.5,-86.5 756.5,-86.5 756.5,-67.5 639.5,-67.5"/>
<text text-anchor="middle" x="698" y="-74.5" font-family="Helvetica,sans-Serif" font-size="10.00">Headers/DataHeader.h</text>
</a>
</g>
</g>
<!-- Node4&#45;&gt;Node5 -->
<g id="edge4" class="edge"><title>Node4&#45;&gt;Node5</title>
<path fill="none" stroke="midnightblue" d="M698.857,-128.975C698.716,-120.58 698.495,-107.481 698.314,-96.6631"/>
<polygon fill="midnightblue" stroke="midnightblue" points="701.811,-96.4488 698.143,-86.5091 694.812,-96.5665 701.811,-96.4488"/>
</g>
<!-- Node6 -->
<g id="node6" class="node"><title>Node6</title>
<polygon fill="none" stroke="#bfbfbf" points="0,-6 0,-25 46,-25 46,-6 0,-6"/>
<text text-anchor="middle" x="23" y="-13" font-family="Helvetica,sans-Serif" font-size="10.00">cstdint</text>
</g>
<!-- Node5&#45;&gt;Node6 -->
<g id="edge5" class="edge"><title>Node5&#45;&gt;Node6</title>
<path fill="none" stroke="midnightblue" d="M639.212,-71.3755C540.966,-63.5711 337.212,-47.061 165,-31 127.806,-27.5312 85.1789,-23.1199 56.4134,-20.0789"/>
<polygon fill="midnightblue" stroke="midnightblue" points="56.4212,-16.5601 46.1076,-18.9853 55.6824,-23.521 56.4212,-16.5601"/>
</g>
<!-- Node7 -->
<g id="node7" class="node"><title>Node7</title>
<polygon fill="none" stroke="#bfbfbf" points="346,-6 346,-25 398,-25 398,-6 346,-6"/>
<text text-anchor="middle" x="372" y="-13" font-family="Helvetica,sans-Serif" font-size="10.00">memory</text>
</g>
<!-- Node5&#45;&gt;Node7 -->
<g id="edge6" class="edge"><title>Node5&#45;&gt;Node7</title>
<path fill="none" stroke="midnightblue" d="M639.402,-70.8826C580.232,-64.793 486.6,-52.6198 408,-31 405.499,-30.312 402.936,-29.503 400.386,-28.625"/>
<polygon fill="midnightblue" stroke="midnightblue" points="401.368,-25.2551 390.776,-25.0061 398.901,-31.8059 401.368,-25.2551"/>
</g>
<!-- Node8 -->
<g id="node8" class="node"><title>Node8</title>
<polygon fill="none" stroke="#bfbfbf" points="417.5,-6 417.5,-25 466.5,-25 466.5,-6 417.5,-6"/>
<text text-anchor="middle" x="442" y="-13" font-family="Helvetica,sans-Serif" font-size="10.00">cassert</text>
</g>
<!-- Node5&#45;&gt;Node8 -->
<g id="edge7" class="edge"><title>Node5&#45;&gt;Node8</title>
<path fill="none" stroke="midnightblue" d="M639.224,-67.4315C593.997,-60.0391 530.261,-47.8774 476,-31 473.859,-30.3341 471.669,-29.5799 469.484,-28.7739"/>
<polygon fill="midnightblue" stroke="midnightblue" points="470.68,-25.4829 460.095,-25.0219 468.082,-31.983 470.68,-25.4829"/>
</g>
<!-- Node9 -->
<g id="node9" class="node"><title>Node9</title>
<polygon fill="none" stroke="#bfbfbf" points="822,-6 822,-25 868,-25 868,-6 822,-6"/>
<text text-anchor="middle" x="845" y="-13" font-family="Helvetica,sans-Serif" font-size="10.00">cstring</text>
</g>
<!-- Node5&#45;&gt;Node9 -->
<g id="edge8" class="edge"><title>Node5&#45;&gt;Node9</title>
<path fill="none" stroke="midnightblue" d="M720.382,-67.4542C743.443,-58.5819 780.38,-44.1818 812,-31 813.408,-30.4131 814.847,-29.8064 816.298,-29.1892"/>
<polygon fill="midnightblue" stroke="midnightblue" points="818.067,-32.2377 825.858,-25.0579 815.29,-25.812 818.067,-32.2377"/>
</g>
<!-- Node10 -->
<g id="node10" class="node"><title>Node10</title>
<polygon fill="none" stroke="#bfbfbf" points="670,-6 670,-25 726,-25 726,-6 670,-6"/>
<text text-anchor="middle" x="698" y="-13" font-family="Helvetica,sans-Serif" font-size="10.00">algorithm</text>
</g>
<!-- Node5&#45;&gt;Node10 -->
<g id="edge9" class="edge"><title>Node5&#45;&gt;Node10</title>
<path fill="none" stroke="midnightblue" d="M698,-67.4751C698,-59.0803 698,-45.9806 698,-35.1631"/>
<polygon fill="midnightblue" stroke="midnightblue" points="701.5,-35.0091 698,-25.0091 694.5,-35.0091 701.5,-35.0091"/>
</g>
<!-- Node11 -->
<g id="node11" class="node"><title>Node11</title>
<polygon fill="none" stroke="#bfbfbf" points="744.5,-6 744.5,-25 803.5,-25 803.5,-6 744.5,-6"/>
<text text-anchor="middle" x="774" y="-13" font-family="Helvetica,sans-Serif" font-size="10.00">stdexcept</text>
</g>
<!-- Node5&#45;&gt;Node11 -->
<g id="edge10" class="edge"><title>Node5&#45;&gt;Node11</title>
<path fill="none" stroke="midnightblue" d="M708.889,-67.4751C720.966,-58.0199 740.667,-42.5961 755.24,-31.1871"/>
<polygon fill="midnightblue" stroke="midnightblue" points="757.415,-33.9295 763.131,-25.0091 753.1,-28.4177 757.415,-33.9295"/>
</g>
<!-- Node5&#45;&gt;Node12 -->
<g id="edge11" class="edge"><title>Node5&#45;&gt;Node12</title>
<path fill="none" stroke="midnightblue" d="M658.784,-67.4385C625.333,-59.6026 576.248,-46.8331 535,-31 533.621,-30.4705 532.219,-29.8971 530.815,-29.2944"/>
<polygon fill="midnightblue" stroke="midnightblue" points="532.246,-26.1003 521.704,-25.0464 529.288,-32.4445 532.246,-26.1003"/>
</g>
<!-- Node13 -->
<g id="node13" class="node"><title>Node13</title>
<polygon fill="none" stroke="#bfbfbf" points="544.5,-6 544.5,-25 589.5,-25 589.5,-6 544.5,-6"/>
<text text-anchor="middle" x="567" y="-13" font-family="Helvetica,sans-Serif" font-size="10.00">climits</text>
</g>
<!-- Node5&#45;&gt;Node13 -->
<g id="edge12" class="edge"><title>Node5&#45;&gt;Node13</title>
<path fill="none" stroke="midnightblue" d="M679.231,-67.4751C657.149,-57.4455 620.281,-40.7002 594.861,-29.1546"/>
<polygon fill="midnightblue" stroke="midnightblue" points="596.287,-25.9579 585.734,-25.0091 593.392,-32.3313 596.287,-25.9579"/>
</g>
<!-- Node14 -->
<g id="node14" class="node"><title>Node14</title>
<g id="a_node14"><a xlink:href="../../d7/df8/Types_8h.html" target="_top" xlink:title="MemoryResources/Types.h">
<polygon fill="none" stroke="black" points="886.5,-6 886.5,-25 1023.5,-25 1023.5,-6 886.5,-6"/>
<text text-anchor="middle" x="955" y="-13" font-family="Helvetica,sans-Serif" font-size="10.00">MemoryResources/Types.h</text>
</a>
</g>
</g>
<!-- Node5&#45;&gt;Node14 -->
<g id="edge13" class="edge"><title>Node5&#45;&gt;Node14</title>
<path fill="none" stroke="midnightblue" d="M734.822,-67.4751C780.529,-56.8932 858.525,-38.8356 908.366,-27.2966"/>
<polygon fill="midnightblue" stroke="midnightblue" points="909.294,-30.6745 918.246,-25.0091 907.715,-23.8549 909.294,-30.6745"/>
</g>
<!-- Node15 -->
<g id="node15" class="node"><title>Node15</title>
<polygon fill="none" stroke="#bfbfbf" points="608,-6 608,-25 652,-25 652,-6 608,-6"/>
<text text-anchor="middle" x="630" y="-13" font-family="Helvetica,sans-Serif" font-size="10.00">cerrno</text>
</g>
<!-- Node5&#45;&gt;Node15 -->
<g id="edge14" class="edge"><title>Node5&#45;&gt;Node15</title>
<path fill="none" stroke="midnightblue" d="M688.257,-67.4751C677.653,-58.1966 660.481,-43.1706 647.521,-31.831"/>
<polygon fill="midnightblue" stroke="midnightblue" points="649.555,-28.9601 639.725,-25.0091 644.946,-34.2282 649.555,-28.9601"/>
</g>
<!-- Node16&#45;&gt;Node4 -->
<g id="edge16" class="edge"><title>Node16&#45;&gt;Node4</title>
<path fill="none" stroke="midnightblue" d="M476.274,-190.476C528.947,-178.421 603.811,-161.286 651.899,-150.28"/>
<polygon fill="midnightblue" stroke="midnightblue" points="652.769,-153.672 661.736,-148.029 651.207,-146.848 652.769,-153.672"/>
</g>
<!-- Node16&#45;&gt;Node5 -->
<g id="edge23" class="edge"><title>Node16&#45;&gt;Node5</title>
<path fill="none" stroke="midnightblue" d="M446.367,-190.479C501.778,-165.71 616.156,-114.584 669.475,-90.7504"/>
<polygon fill="midnightblue" stroke="midnightblue" points="670.992,-93.9065 678.693,-86.6303 668.135,-87.5159 670.992,-93.9065"/>
</g>
<!-- Node16&#45;&gt;Node6 -->
<g id="edge43" class="edge"><title>Node16&#45;&gt;Node6</title>
<path fill="none" stroke="midnightblue" d="M347.61,-204.435C253.283,-202.862 88.7223,-194.229 47,-154 14.8142,-122.966 16.5562,-65.241 20.0393,-35.4202"/>
<polygon fill="midnightblue" stroke="midnightblue" points="23.5569,-35.5293 21.4432,-25.1475 16.6213,-34.5814 23.5569,-35.5293"/>
</g>
<!-- Node16&#45;&gt;Node12 -->
<g id="edge45" class="edge"><title>Node16&#45;&gt;Node12</title>
<path fill="none" stroke="midnightblue" d="M447.238,-190.379C462.417,-182.029 479.284,-169.936 489,-154 511.779,-116.635 510.767,-62.9329 508.275,-34.9861"/>
<polygon fill="midnightblue" stroke="midnightblue" points="511.752,-34.5874 507.219,-25.0115 504.791,-35.3245 511.752,-34.5874"/>
</g>
<!-- Node17 -->
<g id="node17" class="node"><title>Node17</title>
<g id="a_node17"><a xlink:href="../../d6/dc9/DataProcessingHeader_8h.html" target="_top" xlink:title="Framework/DataProcessing\lHeader.h">
<polygon fill="none" stroke="black" points="342,-123.5 342,-153.5 480,-153.5 480,-123.5 342,-123.5"/>
<text text-anchor="start" x="350" y="-141.5" font-family="Helvetica,sans-Serif" font-size="10.00">Framework/DataProcessing</text>
<text text-anchor="middle" x="411" y="-130.5" font-family="Helvetica,sans-Serif" font-size="10.00">Header.h</text>
</a>
</g>
</g>
<!-- Node16&#45;&gt;Node17 -->
<g id="edge17" class="edge"><title>Node16&#45;&gt;Node17</title>
<path fill="none" stroke="midnightblue" d="M414.132,-190.396C413.65,-182.56 413.037,-172.596 412.481,-163.565"/>
<polygon fill="midnightblue" stroke="midnightblue" points="415.974,-163.343 411.866,-153.577 408.987,-163.773 415.974,-163.343"/>
</g>
<!-- Node19 -->
<g id="node19" class="node"><title>Node19</title>
<g id="a_node19"><a xlink:href="../../d4/d00/Headers_2include_2Headers_2Stack_8h.html" target="_top" xlink:title="Headers/Stack.h">
<polygon fill="none" stroke="black" points="906,-129 906,-148 996,-148 996,-129 906,-129"/>
<text text-anchor="middle" x="951" y="-136" font-family="Helvetica,sans-Serif" font-size="10.00">Headers/Stack.h</text>
</a>
</g>
</g>
<!-- Node16&#45;&gt;Node19 -->
<g id="edge24" class="edge"><title>Node16&#45;&gt;Node19</title>
<path fill="none" stroke="midnightblue" d="M482.156,-191.922C486.497,-191.235 490.806,-190.586 495,-190 656,-167.485 697.752,-174.663 859,-154 870.903,-152.475 883.638,-150.615 895.72,-148.743"/>
<polygon fill="midnightblue" stroke="midnightblue" points="896.35,-152.187 905.684,-147.175 895.261,-145.272 896.35,-152.187"/>
</g>
<!-- Node27 -->
<g id="node27" class="node"><title>Node27</title>
<polygon fill="none" stroke="#bfbfbf" points="174,-6 174,-25 218,-25 218,-6 174,-6"/>
<text text-anchor="middle" x="196" y="-13" font-family="Helvetica,sans-Serif" font-size="10.00">vector</text>
</g>
<!-- Node16&#45;&gt;Node27 -->
<g id="edge47" class="edge"><title>Node16&#45;&gt;Node27</title>
<path fill="none" stroke="midnightblue" d="M347.683,-204.929C255.532,-203.916 97.3577,-195.912 61,-154 19.1936,-105.806 114.595,-53.11 165.977,-29.3651"/>
<polygon fill="midnightblue" stroke="midnightblue" points="167.644,-32.4525 175.315,-25.1439 164.761,-26.074 167.644,-32.4525"/>
</g>
<!-- Node33 -->
<g id="node33" class="node"><title>Node33</title>
<polygon fill="none" stroke="#bfbfbf" points="70,-129 70,-148 108,-148 108,-129 70,-129"/>
<text text-anchor="middle" x="89" y="-136" font-family="Helvetica,sans-Serif" font-size="10.00">array</text>
</g>
<!-- Node16&#45;&gt;Node33 -->
<g id="edge42" class="edge"><title>Node16&#45;&gt;Node33</title>
<path fill="none" stroke="midnightblue" d="M347.869,-199.11C286.507,-192.79 193.883,-179.722 117,-154 115.572,-153.522 114.128,-152.98 112.688,-152.392"/>
<polygon fill="midnightblue" stroke="midnightblue" points="113.987,-149.136 103.446,-148.063 111.017,-155.475 113.987,-149.136"/>
</g>
<!-- Node34 -->
<g id="node34" class="node"><title>Node34</title>
<polygon fill="none" stroke="#bfbfbf" points="126.5,-129 126.5,-148 171.5,-148 171.5,-129 126.5,-129"/>
<text text-anchor="middle" x="149" y="-136" font-family="Helvetica,sans-Serif" font-size="10.00">iosfwd</text>
</g>
<!-- Node16&#45;&gt;Node34 -->
<g id="edge44" class="edge"><title>Node16&#45;&gt;Node34</title>
<path fill="none" stroke="midnightblue" d="M347.928,-193.94C300.59,-185.544 236.052,-172.183 181,-154 179.132,-153.383 177.227,-152.692 175.324,-151.954"/>
<polygon fill="midnightblue" stroke="midnightblue" points="176.577,-148.684 166.003,-148.014 173.851,-155.131 176.577,-148.684"/>
</g>
<!-- Node16&#45;&gt;Node35 -->
<g id="edge46" class="edge"><title>Node16&#45;&gt;Node35</title>
<path fill="none" stroke="midnightblue" d="M482.171,-192.026C486.508,-191.313 490.813,-190.631 495,-190 627.354,-170.056 664.891,-189.303 794,-154 796.292,-153.373 798.63,-152.614 800.95,-151.774"/>
<polygon fill="midnightblue" stroke="midnightblue" points="802.272,-155.015 810.221,-148.01 799.639,-148.529 802.272,-155.015"/>
</g>
<!-- Node36 -->
<g id="node36" class="node"><title>Node36</title>
<polygon fill="none" stroke="#bfbfbf" points="190,-129 190,-148 324,-148 324,-129 190,-129"/>
<text text-anchor="middle" x="257" y="-136" font-family="Helvetica,sans-Serif" font-size="10.00">DataDescriptorMatcher.inc</text>
</g>
<!-- Node16&#45;&gt;Node36 -->
<g id="edge48" class="edge"><title>Node16&#45;&gt;Node36</title>
<path fill="none" stroke="midnightblue" d="M380.716,-190.396C352.871,-178.941 313.974,-162.938 287.268,-151.952"/>
<polygon fill="midnightblue" stroke="midnightblue" points="288.258,-148.575 277.679,-148.007 285.595,-155.048 288.258,-148.575"/>
</g>
<!-- Node17&#45;&gt;Node5 -->
<g id="edge18" class="edge"><title>Node17&#45;&gt;Node5</title>
<path fill="none" stroke="midnightblue" d="M478.652,-123.475C530.219,-112.784 600.125,-98.2912 647.032,-88.5666"/>
<polygon fill="midnightblue" stroke="midnightblue" points="647.888,-91.9636 656.969,-86.5064 646.467,-85.1093 647.888,-91.9636"/>
</g>
<!-- Node17&#45;&gt;Node6 -->
<g id="edge19" class="edge"><title>Node17&#45;&gt;Node6</title>
<path fill="none" stroke="midnightblue" d="M365.732,-123.383C286.823,-98.7748 125.869,-48.5803 56.2815,-26.879"/>
<polygon fill="midnightblue" stroke="midnightblue" points="56.8991,-23.4054 46.3105,-23.7695 54.8151,-30.088 56.8991,-23.4054"/>
</g>
<!-- Node17&#45;&gt;Node7 -->
<g id="edge21" class="edge"><title>Node17&#45;&gt;Node7</title>
<path fill="none" stroke="midnightblue" d="M406.373,-123.145C399.269,-101.104 385.681,-58.9474 377.886,-34.7626"/>
<polygon fill="midnightblue" stroke="midnightblue" points="381.156,-33.4963 374.756,-25.0522 374.493,-35.6437 381.156,-33.4963"/>
</g>
<!-- Node17&#45;&gt;Node8 -->
<g id="edge22" class="edge"><title>Node17&#45;&gt;Node8</title>
<path fill="none" stroke="midnightblue" d="M413.918,-123.389C416.937,-109.109 421.916,-86.4272 427,-67 429.826,-56.1999 433.368,-44.218 436.299,-34.6367"/>
<polygon fill="midnightblue" stroke="midnightblue" points="439.66,-35.618 439.28,-25.0299 432.974,-33.5436 439.66,-35.618"/>
</g>
<!-- Node18 -->
<g id="node18" class="node"><title>Node18</title>
<polygon fill="none" stroke="#bfbfbf" points="436.5,-67.5 436.5,-86.5 479.5,-86.5 479.5,-67.5 436.5,-67.5"/>
<text text-anchor="middle" x="458" y="-74.5" font-family="Helvetica,sans-Serif" font-size="10.00">cstdio</text>
</g>
<!-- Node17&#45;&gt;Node18 -->
<g id="edge20" class="edge"><title>Node17&#45;&gt;Node18</title>
<path fill="none" stroke="midnightblue" d="M422.138,-123.399C428.968,-114.753 437.745,-103.642 444.906,-94.576"/>
<polygon fill="midnightblue" stroke="midnightblue" points="447.709,-96.6745 451.161,-86.6578 442.216,-92.3354 447.709,-96.6745"/>
</g>
<!-- Node19&#45;&gt;Node5 -->
<g id="edge41" class="edge"><title>Node19&#45;&gt;Node5</title>
<path fill="none" stroke="midnightblue" d="M916.7,-128.99C908.605,-127.004 900.002,-124.911 892,-123 842.039,-111.067 784.728,-97.8284 745.425,-88.8188"/>
<polygon fill="midnightblue" stroke="midnightblue" points="746.117,-85.3866 735.588,-86.5658 744.554,-92.2099 746.117,-85.3866"/>
</g>
<!-- Node20 -->
<g id="node20" class="node"><title>Node20</title>
<g id="a_node20"><a xlink:href="../../dc/d03/MemoryResources_8h.html" target="_top" xlink:title="MemoryResources/MemoryResources.h">
<polygon fill="none" stroke="black" points="1356.5,-67.5 1356.5,-86.5 1549.5,-86.5 1549.5,-67.5 1356.5,-67.5"/>
<text text-anchor="middle" x="1453" y="-74.5" font-family="Helvetica,sans-Serif" font-size="10.00">MemoryResources/MemoryResources.h</text>
</a>
</g>
</g>
<!-- Node19&#45;&gt;Node20 -->
<g id="edge25" class="edge"><title>Node19&#45;&gt;Node20</title>
<path fill="none" stroke="midnightblue" d="M979.388,-128.951C987.591,-126.734 996.598,-124.54 1005,-123 1120.61,-101.816 1254.97,-89.9928 1346.16,-83.8422"/>
<polygon fill="midnightblue" stroke="midnightblue" points="1346.49,-87.3285 1356.24,-83.1742 1346.03,-80.3438 1346.49,-87.3285"/>
</g>
<!-- Node20&#45;&gt;Node9 -->
<g id="edge30" class="edge"><title>Node20&#45;&gt;Node9</title>
<path fill="none" stroke="midnightblue" d="M1356.29,-72.4975C1216.45,-66.7424 964.915,-53.6085 877,-31 874.792,-30.4322 872.547,-29.7212 870.322,-28.9208"/>
<polygon fill="midnightblue" stroke="midnightblue" points="871.459,-25.6033 860.881,-25.0073 868.779,-32.0698 871.459,-25.6033"/>
</g>
<!-- Node20&#45;&gt;Node12 -->
<g id="edge31" class="edge"><title>Node20&#45;&gt;Node12</title>
<path fill="none" stroke="midnightblue" d="M1356.13,-76.2837C1152.81,-76.0597 687.713,-71.0229 535,-31 533.278,-30.5487 531.539,-29.9876 529.813,-29.3508"/>
<polygon fill="midnightblue" stroke="midnightblue" points="530.847,-25.9801 520.288,-25.1115 528.001,-32.3753 530.847,-25.9801"/>
</g>
<!-- Node20&#45;&gt;Node14 -->
<g id="edge40" class="edge"><title>Node20&#45;&gt;Node14</title>
<path fill="none" stroke="midnightblue" d="M1356.4,-67.7813C1271.1,-60.0168 1143.48,-47.1623 1033,-31 1024.86,-29.8093 1016.27,-28.3851 1007.89,-26.9011"/>
<polygon fill="midnightblue" stroke="midnightblue" points="1008.28,-23.4139 997.814,-25.0729 1007.03,-30.3015 1008.28,-23.4139"/>
</g>
<!-- Node21 -->
<g id="node21" class="node"><title>Node21</title>
<polygon fill="none" stroke="#bfbfbf" points="1042,-0.5 1042,-30.5 1142,-30.5 1142,-0.5 1042,-0.5"/>
<text text-anchor="start" x="1050" y="-18.5" font-family="Helvetica,sans-Serif" font-size="10.00">boost/container/flat</text>
<text text-anchor="middle" x="1092" y="-7.5" font-family="Helvetica,sans-Serif" font-size="10.00">_map.hpp</text>
</g>
<!-- Node20&#45;&gt;Node21 -->
<g id="edge26" class="edge"><title>Node20&#45;&gt;Node21</title>
<path fill="none" stroke="midnightblue" d="M1383.11,-67.4626C1324.04,-59.8171 1236.99,-47.5481 1152.2,-31.1293"/>
<polygon fill="midnightblue" stroke="midnightblue" points="1152.63,-27.6465 1142.14,-29.1595 1151.28,-34.516 1152.63,-27.6465"/>
</g>
<!-- Node22 -->
<g id="node22" class="node"><title>Node22</title>
<polygon fill="none" stroke="#bfbfbf" points="1160,-0.5 1160,-30.5 1276,-30.5 1276,-0.5 1160,-0.5"/>
<text text-anchor="start" x="1168" y="-18.5" font-family="Helvetica,sans-Serif" font-size="10.00">boost/container/pmr</text>
<text text-anchor="middle" x="1218" y="-7.5" font-family="Helvetica,sans-Serif" font-size="10.00">/memory_resource.hpp</text>
</g>
<!-- Node20&#45;&gt;Node22 -->
<g id="edge27" class="edge"><title>Node20&#45;&gt;Node22</title>
<path fill="none" stroke="midnightblue" d="M1419.33,-67.4751C1383.93,-58.5129 1327.36,-44.1885 1283.18,-33.0032"/>
<polygon fill="midnightblue" stroke="midnightblue" points="1283.94,-29.5846 1273.38,-30.523 1282.22,-36.3704 1283.94,-29.5846"/>
</g>
<!-- Node23 -->
<g id="node23" class="node"><title>Node23</title>
<polygon fill="none" stroke="#bfbfbf" points="1294,-0.5 1294,-30.5 1450,-30.5 1450,-0.5 1294,-0.5"/>
<text text-anchor="start" x="1302" y="-18.5" font-family="Helvetica,sans-Serif" font-size="10.00">boost/container/pmr</text>
<text text-anchor="middle" x="1372" y="-7.5" font-family="Helvetica,sans-Serif" font-size="10.00">/monotonic_buffer_resource.hpp</text>
</g>
<!-- Node20&#45;&gt;Node23 -->
<g id="edge28" class="edge"><title>Node20&#45;&gt;Node23</title>
<path fill="none" stroke="midnightblue" d="M1441.39,-67.4751C1430.42,-59.4167 1413.55,-47.0229 1399.19,-36.4741"/>
<polygon fill="midnightblue" stroke="midnightblue" points="1401.22,-33.6224 1391.09,-30.523 1397.08,-39.2639 1401.22,-33.6224"/>
</g>
<!-- Node24 -->
<g id="node24" class="node"><title>Node24</title>
<polygon fill="none" stroke="#bfbfbf" points="1468.5,-0.5 1468.5,-30.5 1601.5,-30.5 1601.5,-0.5 1468.5,-0.5"/>
<text text-anchor="start" x="1476.5" y="-18.5" font-family="Helvetica,sans-Serif" font-size="10.00">boost/container/pmr</text>
<text text-anchor="middle" x="1535" y="-7.5" font-family="Helvetica,sans-Serif" font-size="10.00">/polymorphic_allocator.hpp</text>
</g>
<!-- Node20&#45;&gt;Node24 -->
<g id="edge29" class="edge"><title>Node20&#45;&gt;Node24</title>
<path fill="none" stroke="midnightblue" d="M1464.75,-67.4751C1475.85,-59.4167 1492.93,-47.0229 1507.47,-36.4741"/>
<polygon fill="midnightblue" stroke="midnightblue" points="1509.64,-39.2287 1515.67,-30.523 1505.52,-33.5631 1509.64,-39.2287"/>
</g>
<!-- Node25 -->
<g id="node25" class="node"><title>Node25</title>
<polygon fill="none" stroke="#bfbfbf" points="1620,-6 1620,-25 1682,-25 1682,-6 1620,-6"/>
<text text-anchor="middle" x="1651" y="-13" font-family="Helvetica,sans-Serif" font-size="10.00">type_traits</text>
</g>
<!-- Node20&#45;&gt;Node25 -->
<g id="edge32" class="edge"><title>Node20&#45;&gt;Node25</title>
<path fill="none" stroke="midnightblue" d="M1485.58,-67.4399C1517.67,-58.8404 1567.98,-44.9032 1611,-31 1613.55,-30.1765 1616.18,-29.2955 1618.81,-28.3897"/>
<polygon fill="midnightblue" stroke="midnightblue" points="1619.98,-31.6873 1628.25,-25.0599 1617.66,-25.086 1619.98,-31.6873"/>
</g>
<!-- Node26 -->
<g id="node26" class="node"><title>Node26</title>
<polygon fill="none" stroke="#bfbfbf" points="1700,-6 1700,-25 1740,-25 1740,-6 1700,-6"/>
<text text-anchor="middle" x="1720" y="-13" font-family="Helvetica,sans-Serif" font-size="10.00">utility</text>
</g>
<!-- Node20&#45;&gt;Node26 -->
<g id="edge33" class="edge"><title>Node20&#45;&gt;Node26</title>
<path fill="none" stroke="midnightblue" d="M1526.46,-67.4641C1574.2,-60.6203 1637.31,-49.1073 1691,-31 1692.43,-30.5166 1693.89,-29.9749 1695.34,-29.3924"/>
<polygon fill="midnightblue" stroke="midnightblue" points="1697.03,-32.4668 1704.69,-25.1438 1694.14,-26.0938 1697.03,-32.4668"/>
</g>
<!-- Node20&#45;&gt;Node27 -->
<g id="edge34" class="edge"><title>Node20&#45;&gt;Node27</title>
<path fill="none" stroke="midnightblue" d="M1356.23,-74.1224C1162.53,-69.9167 713.431,-57.9187 337,-31 299.782,-28.3385 257.187,-23.7429 228.641,-20.4381"/>
<polygon fill="midnightblue" stroke="midnightblue" points="228.769,-16.9292 218.429,-19.2414 227.954,-23.8816 228.769,-16.9292"/>
</g>
<!-- Node28 -->
<g id="node28" class="node"><title>Node28</title>
<polygon fill="none" stroke="#bfbfbf" points="1758.5,-6 1758.5,-25 1841.5,-25 1841.5,-6 1758.5,-6"/>
<text text-anchor="middle" x="1800" y="-13" font-family="Helvetica,sans-Serif" font-size="10.00">unordered_map</text>
</g>
<!-- Node20&#45;&gt;Node28 -->
<g id="edge35" class="edge"><title>Node20&#45;&gt;Node28</title>
<path fill="none" stroke="midnightblue" d="M1526.15,-67.4898C1586.34,-59.8633 1673.7,-47.3605 1749,-31 1753.42,-30.0396 1758.02,-28.9137 1762.57,-27.7211"/>
<polygon fill="midnightblue" stroke="midnightblue" points="1763.65,-31.0567 1772.37,-25.0423 1761.8,-24.3047 1763.65,-31.0567"/>
</g>
<!-- Node29 -->
<g id="node29" class="node"><title>Node29</title>
<polygon fill="none" stroke="#bfbfbf" points="1859.5,-6 1859.5,-25 1956.5,-25 1956.5,-6 1859.5,-6"/>
<text text-anchor="middle" x="1908" y="-13" font-family="Helvetica,sans-Serif" font-size="10.00">FairMQMessage.h</text>
</g>
<!-- Node20&#45;&gt;Node29 -->
<g id="edge36" class="edge"><title>Node20&#45;&gt;Node29</title>
<path fill="none" stroke="midnightblue" d="M1549.64,-68.789C1630.58,-61.8632 1748.91,-49.6668 1851,-31 1856.46,-30.0014 1862.17,-28.7728 1867.79,-27.457"/>
<polygon fill="midnightblue" stroke="midnightblue" points="1868.82,-30.8068 1877.7,-25.0253 1867.15,-24.0083 1868.82,-30.8068"/>
</g>
<!-- Node30 -->
<g id="node30" class="node"><title>Node30</title>
<polygon fill="none" stroke="#bfbfbf" points="1974.5,-6 1974.5,-25 2105.5,-25 2105.5,-6 1974.5,-6"/>
<text text-anchor="middle" x="2040" y="-13" font-family="Helvetica,sans-Serif" font-size="10.00">FairMQTransportFactory.h</text>
</g>
<!-- Node20&#45;&gt;Node30 -->
<g id="edge37" class="edge"><title>Node20&#45;&gt;Node30</title>
<path fill="none" stroke="midnightblue" d="M1549.79,-70.578C1653.19,-64.0704 1821.71,-51.4069 1966,-31 1974.02,-29.8661 1982.48,-28.4337 1990.71,-26.9132"/>
<polygon fill="midnightblue" stroke="midnightblue" points="1991.41,-30.3423 2000.57,-25.029 1990.1,-23.4665 1991.41,-30.3423"/>
</g>
<!-- Node31 -->
<g id="node31" class="node"><title>Node31</title>
<polygon fill="none" stroke="#bfbfbf" points="2123.5,-6 2123.5,-25 2260.5,-25 2260.5,-6 2123.5,-6"/>
<text text-anchor="middle" x="2192" y="-13" font-family="Helvetica,sans-Serif" font-size="10.00">fairmq/MemoryResources.h</text>
</g>
<!-- Node20&#45;&gt;Node31 -->
<g id="edge38" class="edge"><title>Node20&#45;&gt;Node31</title>
<path fill="none" stroke="midnightblue" d="M1549.55,-73.0147C1678.77,-68.2033 1914.89,-56.5521 2115,-31 2123.73,-29.8859 2132.96,-28.4094 2141.88,-26.8248"/>
<polygon fill="midnightblue" stroke="midnightblue" points="2142.58,-30.2549 2151.78,-25.0033 2141.31,-23.3704 2142.58,-30.2549"/>
</g>
<!-- Node32 -->
<g id="node32" class="node"><title>Node32</title>
<polygon fill="none" stroke="#bfbfbf" points="2279,-6 2279,-25 2435,-25 2435,-6 2279,-6"/>
<text text-anchor="middle" x="2357" y="-13" font-family="Helvetica,sans-Serif" font-size="10.00">fairmq/MemoryResourceTools.h</text>
</g>
<!-- Node20&#45;&gt;Node32 -->
<g id="edge39" class="edge"><title>Node20&#45;&gt;Node32</title>
<path fill="none" stroke="midnightblue" d="M1549.81,-74.1152C1703.06,-70.3565 2010.73,-59.6579 2270,-31 2280.27,-29.8654 2291.16,-28.3221 2301.64,-26.6644"/>
<polygon fill="midnightblue" stroke="midnightblue" points="2302.22,-30.1158 2311.53,-25.0495 2301.09,-23.2073 2302.22,-30.1158"/>
</g>
<!-- Node38&#45;&gt;Node2 -->
<g id="edge58" class="edge"><title>Node38&#45;&gt;Node2</title>
<path fill="none" stroke="midnightblue" d="M875.725,-313.444C839.552,-304.142 781.623,-289.246 742.019,-279.062"/>
<polygon fill="midnightblue" stroke="midnightblue" points="742.676,-275.617 732.119,-276.516 740.933,-282.397 742.676,-275.617"/>
</g>
<!-- Node38&#45;&gt;Node5 -->
<g id="edge59" class="edge"><title>Node38&#45;&gt;Node5</title>
<path fill="none" stroke="midnightblue" d="M936.5,-313.419C1014.7,-287.717 1227.86,-207.872 1151,-123 1125.74,-95.1079 887.352,-83.8108 766.925,-79.8541"/>
<polygon fill="midnightblue" stroke="midnightblue" points="766.811,-76.3487 756.704,-79.5266 766.587,-83.3451 766.811,-76.3487"/>
</g>
<!-- Node39 -->
<g id="node39" class="node"><title>Node39</title>
<g id="a_node39"><a xlink:href="../../db/d2d/OutputSpec_8h.html" target="_top" xlink:title="Framework/OutputSpec.h">
<polygon fill="none" stroke="black" points="816,-196 816,-215 944,-215 944,-196 816,-196"/>
<text text-anchor="middle" x="880" y="-203" font-family="Helvetica,sans-Serif" font-size="10.00">Framework/OutputSpec.h</text>
</a>
</g>
</g>
<!-- Node38&#45;&gt;Node39 -->
<g id="edge53" class="edge"><title>Node38&#45;&gt;Node39</title>
<path fill="none" stroke="midnightblue" d="M906.82,-313.319C902.139,-294.673 891.033,-250.443 884.678,-225.132"/>
<polygon fill="midnightblue" stroke="midnightblue" points="888.035,-224.129 882.205,-215.282 881.246,-225.833 888.035,-224.129"/>
</g>
<!-- Node40 -->
<g id="node40" class="node"><title>Node40</title>
<g id="a_node40"><a xlink:href="../../d3/ddf/Output_8h.html" target="_top" xlink:title="Framework/Output.h">
<polygon fill="none" stroke="black" points="1009,-196 1009,-215 1115,-215 1115,-196 1009,-196"/>
<text text-anchor="middle" x="1062" y="-203" font-family="Helvetica,sans-Serif" font-size="10.00">Framework/Output.h</text>
</a>
</g>
</g>
<!-- Node38&#45;&gt;Node40 -->
<g id="edge60" class="edge"><title>Node38&#45;&gt;Node40</title>
<path fill="none" stroke="midnightblue" d="M920.5,-313.319C946.417,-293.753 1009.65,-246.017 1042.09,-221.53"/>
<polygon fill="midnightblue" stroke="midnightblue" points="1044.49,-224.1 1050.37,-215.282 1040.28,-218.514 1044.49,-224.1"/>
</g>
<!-- Node41 -->
<g id="node41" class="node"><title>Node41</title>
<polygon fill="none" stroke="#bfbfbf" points="908,-257.5 908,-276.5 958,-276.5 958,-257.5 908,-257.5"/>
<text text-anchor="middle" x="933" y="-264.5" font-family="Helvetica,sans-Serif" font-size="10.00">optional</text>
</g>
<!-- Node38&#45;&gt;Node41 -->
<g id="edge64" class="edge"><title>Node38&#45;&gt;Node41</title>
<path fill="none" stroke="midnightblue" d="M912.963,-313.083C916.213,-305.77 920.919,-295.181 924.954,-286.103"/>
<polygon fill="midnightblue" stroke="midnightblue" points="928.248,-287.311 929.111,-276.751 921.851,-284.468 928.248,-287.311"/>
</g>
<!-- Node39&#45;&gt;Node3 -->
<g id="edge55" class="edge"><title>Node39&#45;&gt;Node3</title>
<path fill="none" stroke="midnightblue" d="M905.231,-195.869C938.682,-184.424 997.857,-164.181 1035.44,-151.322"/>
<polygon fill="midnightblue" stroke="midnightblue" points="1036.64,-154.612 1044.97,-148.064 1034.37,-147.989 1036.64,-154.612"/>
</g>
<!-- Node39&#45;&gt;Node4 -->
<g id="edge56" class="edge"><title>Node39&#45;&gt;Node4</title>
<path fill="none" stroke="midnightblue" d="M855.965,-195.869C824.233,-184.473 768.205,-164.353 732.379,-151.487"/>
<polygon fill="midnightblue" stroke="midnightblue" points="733.441,-148.15 722.847,-148.064 731.075,-154.738 733.441,-148.15"/>
</g>
<!-- Node39&#45;&gt;Node5 -->
<g id="edge54" class="edge"><title>Node39&#45;&gt;Node5</title>
<path fill="none" stroke="midnightblue" d="M880.396,-195.782C880.65,-179.236 878.736,-143.143 859,-123 834.99,-98.4957 798.826,-87.0265 766.852,-81.7791"/>
<polygon fill="midnightblue" stroke="midnightblue" points="767.04,-78.2694 756.638,-80.2854 766.027,-85.1958 767.04,-78.2694"/>
</g>
<!-- Node39&#45;&gt;Node35 -->
<g id="edge57" class="edge"><title>Node39&#45;&gt;Node35</title>
<path fill="none" stroke="midnightblue" d="M872.852,-195.734C864.587,-185.598 850.801,-168.69 840.499,-156.056"/>
<polygon fill="midnightblue" stroke="midnightblue" points="843.067,-153.666 834.035,-148.127 837.641,-158.089 843.067,-153.666"/>
</g>
<!-- Node40&#45;&gt;Node3 -->
<g id="edge62" class="edge"><title>Node40&#45;&gt;Node3</title>
<path fill="none" stroke="midnightblue" d="M1063.08,-195.734C1064.25,-186.183 1066.17,-170.618 1067.69,-158.283"/>
<polygon fill="midnightblue" stroke="midnightblue" points="1071.19,-158.48 1068.94,-148.127 1064.24,-157.625 1071.19,-158.48"/>
</g>
<!-- Node40&#45;&gt;Node5 -->
<g id="edge61" class="edge"><title>Node40&#45;&gt;Node5</title>
<path fill="none" stroke="midnightblue" d="M1079.57,-195.882C1107.8,-180.955 1157.78,-149.355 1134,-123 1109.91,-96.296 883.641,-84.4922 766.93,-80.1445"/>
<polygon fill="midnightblue" stroke="midnightblue" points="766.791,-76.6372 756.671,-79.771 766.537,-83.6325 766.791,-76.6372"/>
</g>
<!-- Node40&#45;&gt;Node19 -->
<g id="edge63" class="edge"><title>Node40&#45;&gt;Node19</title>
<path fill="none" stroke="midnightblue" d="M1047.03,-195.734C1028.39,-184.818 996.337,-166.049 974.431,-153.221"/>
<polygon fill="midnightblue" stroke="midnightblue" points="976.131,-150.16 965.733,-148.127 972.593,-156.201 976.131,-150.16"/>
</g>
</g>
</svg>
