<?xml version="1.0" encoding="UTF-8" standalone="no"?>
<!DOCTYPE svg PUBLIC "-//W3C//DTD SVG 1.1//EN"
 "http://www.w3.org/Graphics/SVG/1.1/DTD/svg11.dtd">
<!-- Generated by graphviz version 2.38.0 (20140413.2041)
 -->
<!-- Title: /home/travis/build/AliceO2Group/AliceO2/Framework/Core/include/Framework/ChannelConfigurationPolicyHelpers.h Pages: 1 -->
<svg width="220pt" height="184pt"
 viewBox="0.00 0.00 220.00 184.00" xmlns="http://www.w3.org/2000/svg" xmlns:xlink="http://www.w3.org/1999/xlink">
<g id="graph0" class="graph" transform="scale(1 1) rotate(0) translate(4 180)">
<title>/home/travis/build/AliceO2Group/AliceO2/Framework/Core/include/Framework/ChannelConfigurationPolicyHelpers.h</title>
<!-- Node1 -->
<g id="node1" class="node"><title>Node1</title>
<polygon fill="#bfbfbf" stroke="black" points="42,-112.5 42,-175.5 207,-175.5 207,-112.5 42,-112.5"/>
<text text-anchor="start" x="50" y="-163.5" font-family="Helvetica,sans-Serif" font-size="10.00">/home/travis/build</text>
<text text-anchor="start" x="50" y="-152.5" font-family="Helvetica,sans-Serif" font-size="10.00">/AliceO2Group/AliceO2</text>
<text text-anchor="start" x="50" y="-141.5" font-family="Helvetica,sans-Serif" font-size="10.00">/Framework/Core/include</text>
<text text-anchor="start" x="50" y="-130.5" font-family="Helvetica,sans-Serif" font-size="10.00">/Framework/ChannelConfiguration</text>
<text text-anchor="middle" x="124.5" y="-119.5" font-family="Helvetica,sans-Serif" font-size="10.00">PolicyHelpers.h</text>
</g>
<!-- Node2 -->
<g id="node2" class="node"><title>Node2</title>
<g id="a_node2"><a xlink:href="../../d6/d72/ChannelSpec_8h.html" target="_top" xlink:title="Framework/ChannelSpec.h">
<polygon fill="none" stroke="black" points="0,-56.5 0,-75.5 135,-75.5 135,-56.5 0,-56.5"/>
<text text-anchor="middle" x="67.5" y="-63.5" font-family="Helvetica,sans-Serif" font-size="10.00">Framework/ChannelSpec.h</text>
</a>
</g>
</g>
<!-- Node1&#45;&gt;Node2 -->
<g id="edge1" class="edge"><title>Node1&#45;&gt;Node2</title>
<path fill="none" stroke="midnightblue" d="M101.316,-112.088C94.0728,-102.43 86.3547,-92.1397 80.1236,-83.8315"/>
<polygon fill="midnightblue" stroke="midnightblue" points="82.8387,-81.6182 74.0386,-75.7182 77.2387,-85.8182 82.8387,-81.6182"/>
</g>
<!-- Node4 -->
<g id="node4" class="node"><title>Node4</title>
<polygon fill="none" stroke="#bfbfbf" points="153,-56.5 153,-75.5 212,-75.5 212,-56.5 153,-56.5"/>
<text text-anchor="middle" x="182.5" y="-63.5" font-family="Helvetica,sans-Serif" font-size="10.00">functional</text>
</g>
<!-- Node1&#45;&gt;Node4 -->
<g id="edge3" class="edge"><title>Node1&#45;&gt;Node4</title>
<path fill="none" stroke="midnightblue" d="M148.091,-112.088C155.461,-102.43 163.314,-92.1397 169.655,-83.8315"/>
<polygon fill="midnightblue" stroke="midnightblue" points="172.562,-85.7911 175.847,-75.7182 166.998,-81.5443 172.562,-85.7911"/>
</g>
<!-- Node3 -->
<g id="node3" class="node"><title>Node3</title>
<polygon fill="none" stroke="#bfbfbf" points="47,-0.5 47,-19.5 88,-19.5 88,-0.5 47,-0.5"/>
<text text-anchor="middle" x="67.5" y="-7.5" font-family="Helvetica,sans-Serif" font-size="10.00">string</text>
</g>
<!-- Node2&#45;&gt;Node3 -->
<g id="edge2" class="edge"><title>Node2&#45;&gt;Node3</title>
<path fill="none" stroke="midnightblue" d="M67.5,-56.083C67.5,-49.0059 67.5,-38.8611 67.5,-29.9865"/>
<polygon fill="midnightblue" stroke="midnightblue" points="71.0001,-29.751 67.5,-19.7511 64.0001,-29.7511 71.0001,-29.751"/>
</g>
</g>
</svg>
