<?xml version="1.0" encoding="UTF-8" standalone="no"?>
<!DOCTYPE svg PUBLIC "-//W3C//DTD SVG 1.1//EN"
 "http://www.w3.org/Graphics/SVG/1.1/DTD/svg11.dtd">
<!-- Generated by graphviz version 2.38.0 (20140413.2041)
 -->
<!-- Title: /home/travis/build/AliceO2Group/AliceO2/Detectors/CPV/base/include/CPVBase/Digit.h Pages: 1 -->
<svg width="399pt" height="339pt"
 viewBox="0.00 0.00 398.50 339.00" xmlns="http://www.w3.org/2000/svg" xmlns:xlink="http://www.w3.org/1999/xlink">
<g id="graph0" class="graph" transform="scale(1 1) rotate(0) translate(4 335)">
<title>/home/travis/build/AliceO2Group/AliceO2/Detectors/CPV/base/include/CPVBase/Digit.h</title>
<!-- Node1 -->
<g id="node1" class="node"><title>Node1</title>
<polygon fill="#bfbfbf" stroke="black" points="73.5,-278.5 73.5,-330.5 217.5,-330.5 217.5,-278.5 73.5,-278.5"/>
<text text-anchor="start" x="81.5" y="-318.5" font-family="Helvetica,sans-Serif" font-size="10.00">/home/travis/build</text>
<text text-anchor="start" x="81.5" y="-307.5" font-family="Helvetica,sans-Serif" font-size="10.00">/AliceO2Group/AliceO2</text>
<text text-anchor="start" x="81.5" y="-296.5" font-family="Helvetica,sans-Serif" font-size="10.00">/Detectors/CPV/base/include</text>
<text text-anchor="middle" x="145.5" y="-285.5" font-family="Helvetica,sans-Serif" font-size="10.00">/CPVBase/Digit.h</text>
</g>
<!-- Node2 -->
<g id="node2" class="node"><title>Node2</title>
<g id="a_node2"><a xlink:href="../../d9/da9/Detectors_2CPV_2base_2src_2Digit_8cxx.html" target="_top" xlink:title="/home/travis/build\l/AliceO2Group/AliceO2\l/Detectors/CPV/base/src\l/Digit.cxx">
<polygon fill="none" stroke="black" points="0,-189.5 0,-241.5 127,-241.5 127,-189.5 0,-189.5"/>
<text text-anchor="start" x="8" y="-229.5" font-family="Helvetica,sans-Serif" font-size="10.00">/home/travis/build</text>
<text text-anchor="start" x="8" y="-218.5" font-family="Helvetica,sans-Serif" font-size="10.00">/AliceO2Group/AliceO2</text>
<text text-anchor="start" x="8" y="-207.5" font-family="Helvetica,sans-Serif" font-size="10.00">/Detectors/CPV/base/src</text>
<text text-anchor="middle" x="63.5" y="-196.5" font-family="Helvetica,sans-Serif" font-size="10.00">/Digit.cxx</text>
</a>
</g>
</g>
<!-- Node1&#45;&gt;Node2 -->
<g id="edge1" class="edge"><title>Node1&#45;&gt;Node2</title>
<path fill="none" stroke="midnightblue" d="M114.67,-270.79C105.564,-261.129 95.7436,-250.71 87.1645,-241.607"/>
<polygon fill="midnightblue" stroke="midnightblue" points="112.376,-273.459 121.782,-278.336 117.47,-268.658 112.376,-273.459"/>
</g>
<!-- Node3 -->
<g id="node3" class="node"><title>Node3</title>
<g id="a_node3"><a xlink:href="../../d4/d37/CPV_2simulation_2include_2CPVSimulation_2Digitizer_8h.html" target="_top" xlink:title="/home/travis/build\l/AliceO2Group/AliceO2\l/Detectors/CPV/simulation\l/include/CPVSimulation/Digitizer.h">
<polygon fill="none" stroke="black" points="145,-189.5 145,-241.5 312,-241.5 312,-189.5 145,-189.5"/>
<text text-anchor="start" x="153" y="-229.5" font-family="Helvetica,sans-Serif" font-size="10.00">/home/travis/build</text>
<text text-anchor="start" x="153" y="-218.5" font-family="Helvetica,sans-Serif" font-size="10.00">/AliceO2Group/AliceO2</text>
<text text-anchor="start" x="153" y="-207.5" font-family="Helvetica,sans-Serif" font-size="10.00">/Detectors/CPV/simulation</text>
<text text-anchor="middle" x="228.5" y="-196.5" font-family="Helvetica,sans-Serif" font-size="10.00">/include/CPVSimulation/Digitizer.h</text>
</a>
</g>
</g>
<!-- Node1&#45;&gt;Node3 -->
<g id="edge2" class="edge"><title>Node1&#45;&gt;Node3</title>
<path fill="none" stroke="midnightblue" d="M176.432,-271.077C185.726,-261.335 195.777,-250.8 204.547,-241.607"/>
<polygon fill="midnightblue" stroke="midnightblue" points="173.877,-268.685 169.507,-278.336 178.942,-273.517 173.877,-268.685"/>
</g>
<!-- Node4 -->
<g id="node4" class="node"><title>Node4</title>
<g id="a_node4"><a xlink:href="../../d7/dff/CPV_2simulation_2include_2CPVSimulation_2DigitizerTask_8h.html" target="_top" xlink:title="/home/travis/build\l/AliceO2Group/AliceO2\l/Detectors/CPV/simulation\l/include/CPVSimulation/Digitizer\lTask.h">
<polygon fill="none" stroke="black" points="42,-89.5 42,-152.5 201,-152.5 201,-89.5 42,-89.5"/>
<text text-anchor="start" x="50" y="-140.5" font-family="Helvetica,sans-Serif" font-size="10.00">/home/travis/build</text>
<text text-anchor="start" x="50" y="-129.5" font-family="Helvetica,sans-Serif" font-size="10.00">/AliceO2Group/AliceO2</text>
<text text-anchor="start" x="50" y="-118.5" font-family="Helvetica,sans-Serif" font-size="10.00">/Detectors/CPV/simulation</text>
<text text-anchor="start" x="50" y="-107.5" font-family="Helvetica,sans-Serif" font-size="10.00">/include/CPVSimulation/Digitizer</text>
<text text-anchor="middle" x="121.5" y="-96.5" font-family="Helvetica,sans-Serif" font-size="10.00">Task.h</text>
</a>
</g>
</g>
<!-- Node3&#45;&gt;Node4 -->
<g id="edge3" class="edge"><title>Node3&#45;&gt;Node4</title>
<path fill="none" stroke="midnightblue" d="M191.927,-182.883C180.624,-173.112 168.197,-162.369 156.969,-152.663"/>
<polygon fill="midnightblue" stroke="midnightblue" points="189.69,-185.576 199.544,-189.468 194.268,-180.28 189.69,-185.576"/>
</g>
<!-- Node5 -->
<g id="node5" class="node"><title>Node5</title>
<g id="a_node5"><a xlink:href="../../de/de0/CPV_2simulation_2src_2DigitizerTask_8cxx.html" target="_top" xlink:title="/home/travis/build\l/AliceO2Group/AliceO2\l/Detectors/CPV/simulation\l/src/DigitizerTask.cxx">
<polygon fill="none" stroke="black" points="107.5,-0.5 107.5,-52.5 241.5,-52.5 241.5,-0.5 107.5,-0.5"/>
<text text-anchor="start" x="115.5" y="-40.5" font-family="Helvetica,sans-Serif" font-size="10.00">/home/travis/build</text>
<text text-anchor="start" x="115.5" y="-29.5" font-family="Helvetica,sans-Serif" font-size="10.00">/AliceO2Group/AliceO2</text>
<text text-anchor="start" x="115.5" y="-18.5" font-family="Helvetica,sans-Serif" font-size="10.00">/Detectors/CPV/simulation</text>
<text text-anchor="middle" x="174.5" y="-7.5" font-family="Helvetica,sans-Serif" font-size="10.00">/src/DigitizerTask.cxx</text>
</a>
</g>
</g>
<!-- Node3&#45;&gt;Node5 -->
<g id="edge6" class="edge"><title>Node3&#45;&gt;Node5</title>
<path fill="none" stroke="midnightblue" d="M226.629,-179.323C224.444,-153.697 219.717,-118.461 209.5,-89 205.112,-76.3485 198.116,-63.3212 191.528,-52.5318"/>
<polygon fill="midnightblue" stroke="midnightblue" points="223.142,-179.624 227.395,-189.327 230.121,-179.089 223.142,-179.624"/>
</g>
<!-- Node6 -->
<g id="node6" class="node"><title>Node6</title>
<g id="a_node6"><a xlink:href="../../d3/d11/CPV_2simulation_2src_2Digitizer_8cxx.html" target="_top" xlink:title="/home/travis/build\l/AliceO2Group/AliceO2\l/Detectors/CPV/simulation\l/src/Digitizer.cxx">
<polygon fill="none" stroke="black" points="256.5,-95 256.5,-147 390.5,-147 390.5,-95 256.5,-95"/>
<text text-anchor="start" x="264.5" y="-135" font-family="Helvetica,sans-Serif" font-size="10.00">/home/travis/build</text>
<text text-anchor="start" x="264.5" y="-124" font-family="Helvetica,sans-Serif" font-size="10.00">/AliceO2Group/AliceO2</text>
<text text-anchor="start" x="264.5" y="-113" font-family="Helvetica,sans-Serif" font-size="10.00">/Detectors/CPV/simulation</text>
<text text-anchor="middle" x="323.5" y="-102" font-family="Helvetica,sans-Serif" font-size="10.00">/src/Digitizer.cxx</text>
</a>
</g>
</g>
<!-- Node3&#45;&gt;Node6 -->
<g id="edge5" class="edge"><title>Node3&#45;&gt;Node6</title>
<path fill="none" stroke="midnightblue" d="M261.933,-181.947C273.631,-170.557 286.58,-157.948 297.572,-147.245"/>
<polygon fill="midnightblue" stroke="midnightblue" points="259.182,-179.74 254.459,-189.224 264.066,-184.755 259.182,-179.74"/>
</g>
<!-- Node4&#45;&gt;Node5 -->
<g id="edge4" class="edge"><title>Node4&#45;&gt;Node5</title>
<path fill="none" stroke="midnightblue" d="M144.08,-80.5907C149.481,-71.1657 155.103,-61.3532 160.024,-52.7655"/>
<polygon fill="midnightblue" stroke="midnightblue" points="140.936,-79.039 139.001,-89.4557 147.009,-82.5191 140.936,-79.039"/>
</g>
</g>
</svg>
