<?xml version="1.0" encoding="UTF-8" standalone="no"?>
<!DOCTYPE svg PUBLIC "-//W3C//DTD SVG 1.1//EN"
 "http://www.w3.org/Graphics/SVG/1.1/DTD/svg11.dtd">
<!-- Generated by graphviz version 2.38.0 (20140413.2041)
 -->
<!-- Title: /home/travis/build/AliceO2Group/AliceO2/Common/Field/include/Field/MagFieldFast.h Pages: 1 -->
<svg width="3969pt" height="317pt"
 viewBox="0.00 0.00 3968.50 317.00" xmlns="http://www.w3.org/2000/svg" xmlns:xlink="http://www.w3.org/1999/xlink">
<g id="graph0" class="graph" transform="scale(1 1) rotate(0) translate(4 313)">
<title>/home/travis/build/AliceO2Group/AliceO2/Common/Field/include/Field/MagFieldFast.h</title>
<!-- Node1 -->
<g id="node1" class="node"><title>Node1</title>
<polygon fill="#bfbfbf" stroke="black" points="452,-256.5 452,-308.5 570,-308.5 570,-256.5 452,-256.5"/>
<text text-anchor="start" x="460" y="-296.5" font-family="Helvetica,sans-Serif" font-size="10.00">/home/travis/build</text>
<text text-anchor="start" x="460" y="-285.5" font-family="Helvetica,sans-Serif" font-size="10.00">/AliceO2Group/AliceO2</text>
<text text-anchor="start" x="460" y="-274.5" font-family="Helvetica,sans-Serif" font-size="10.00">/Common/Field/include</text>
<text text-anchor="middle" x="511" y="-263.5" font-family="Helvetica,sans-Serif" font-size="10.00">/Field/MagFieldFast.h</text>
</g>
<!-- Node2 -->
<g id="node2" class="node"><title>Node2</title>
<g id="a_node2"><a xlink:href="../../db/d4b/MagneticField_8h.html" target="_top" xlink:title="Definition of the MagF class. ">
<polygon fill="none" stroke="black" points="1733,-167.5 1733,-219.5 1851,-219.5 1851,-167.5 1733,-167.5"/>
<text text-anchor="start" x="1741" y="-207.5" font-family="Helvetica,sans-Serif" font-size="10.00">/home/travis/build</text>
<text text-anchor="start" x="1741" y="-196.5" font-family="Helvetica,sans-Serif" font-size="10.00">/AliceO2Group/AliceO2</text>
<text text-anchor="start" x="1741" y="-185.5" font-family="Helvetica,sans-Serif" font-size="10.00">/Common/Field/include</text>
<text text-anchor="middle" x="1792" y="-174.5" font-family="Helvetica,sans-Serif" font-size="10.00">/Field/MagneticField.h</text>
</a>
</g>
</g>
<!-- Node1&#45;&gt;Node2 -->
<g id="edge1" class="edge"><title>Node1&#45;&gt;Node2</title>
<path fill="none" stroke="midnightblue" d="M580.301,-276.793C806.6,-261.424 1521.45,-212.874 1732.68,-198.529"/>
<polygon fill="midnightblue" stroke="midnightblue" points="579.956,-273.309 570.216,-277.478 580.43,-280.293 579.956,-273.309"/>
</g>
<!-- Node7 -->
<g id="node7" class="node"><title>Node7</title>
<g id="a_node7"><a xlink:href="../../d6/dda/testMagneticField_8cxx.html" target="_top" xlink:title="/home/travis/build\l/AliceO2Group/AliceO2\l/Common/Field/test/testMagnetic\lField.cxx">
<polygon fill="none" stroke="black" points="0,-78.5 0,-130.5 162,-130.5 162,-78.5 0,-78.5"/>
<text text-anchor="start" x="8" y="-118.5" font-family="Helvetica,sans-Serif" font-size="10.00">/home/travis/build</text>
<text text-anchor="start" x="8" y="-107.5" font-family="Helvetica,sans-Serif" font-size="10.00">/AliceO2Group/AliceO2</text>
<text text-anchor="start" x="8" y="-96.5" font-family="Helvetica,sans-Serif" font-size="10.00">/Common/Field/test/testMagnetic</text>
<text text-anchor="middle" x="81" y="-85.5" font-family="Helvetica,sans-Serif" font-size="10.00">Field.cxx</text>
</a>
</g>
</g>
<!-- Node1&#45;&gt;Node7 -->
<g id="edge28" class="edge"><title>Node1&#45;&gt;Node7</title>
<path fill="none" stroke="midnightblue" d="M442.307,-256.132C413.394,-245.271 379.456,-232.281 349,-220 275.562,-190.387 191.756,-154.19 137.704,-130.525"/>
<polygon fill="midnightblue" stroke="midnightblue" points="441.315,-259.498 451.907,-259.729 443.772,-252.943 441.315,-259.498"/>
</g>
<!-- Node9 -->
<g id="node9" class="node"><title>Node9</title>
<g id="a_node9"><a xlink:href="../../d8/dee/Propagator_8cxx.html" target="_top" xlink:title="/home/travis/build\l/AliceO2Group/AliceO2\l/Detectors/Base/src/Propagator.cxx">
<polygon fill="none" stroke="black" points="180.5,-84 180.5,-125 353.5,-125 353.5,-84 180.5,-84"/>
<text text-anchor="start" x="188.5" y="-113" font-family="Helvetica,sans-Serif" font-size="10.00">/home/travis/build</text>
<text text-anchor="start" x="188.5" y="-102" font-family="Helvetica,sans-Serif" font-size="10.00">/AliceO2Group/AliceO2</text>
<text text-anchor="middle" x="267" y="-91" font-family="Helvetica,sans-Serif" font-size="10.00">/Detectors/Base/src/Propagator.cxx</text>
</a>
</g>
</g>
<!-- Node1&#45;&gt;Node9 -->
<g id="edge29" class="edge"><title>Node1&#45;&gt;Node9</title>
<path fill="none" stroke="midnightblue" d="M467.907,-250.417C417.66,-214.173 336.136,-155.368 294.051,-125.012"/>
<polygon fill="midnightblue" stroke="midnightblue" points="466.142,-253.459 476.3,-256.47 470.237,-247.782 466.142,-253.459"/>
</g>
<!-- Node11 -->
<g id="node11" class="node"><title>Node11</title>
<g id="a_node11"><a xlink:href="../../db/d6a/MatchTOF_8cxx.html" target="_top" xlink:title="/home/travis/build\l/AliceO2Group/AliceO2\l/Detectors/GlobalTracking\l/src/MatchTOF.cxx">
<polygon fill="none" stroke="black" points="371.5,-78.5 371.5,-130.5 502.5,-130.5 502.5,-78.5 371.5,-78.5"/>
<text text-anchor="start" x="379.5" y="-118.5" font-family="Helvetica,sans-Serif" font-size="10.00">/home/travis/build</text>
<text text-anchor="start" x="379.5" y="-107.5" font-family="Helvetica,sans-Serif" font-size="10.00">/AliceO2Group/AliceO2</text>
<text text-anchor="start" x="379.5" y="-96.5" font-family="Helvetica,sans-Serif" font-size="10.00">/Detectors/GlobalTracking</text>
<text text-anchor="middle" x="437" y="-85.5" font-family="Helvetica,sans-Serif" font-size="10.00">/src/MatchTOF.cxx</text>
</a>
</g>
</g>
<!-- Node1&#45;&gt;Node11 -->
<g id="edge30" class="edge"><title>Node1&#45;&gt;Node11</title>
<path fill="none" stroke="midnightblue" d="M496.364,-246.69C481.98,-212.478 460.377,-161.1 447.583,-130.67"/>
<polygon fill="midnightblue" stroke="midnightblue" points="493.295,-248.422 500.398,-256.283 499.748,-245.709 493.295,-248.422"/>
</g>
<!-- Node12 -->
<g id="node12" class="node"><title>Node12</title>
<g id="a_node12"><a xlink:href="../../dc/d59/MatchTPCITS_8cxx.html" target="_top" xlink:title="/home/travis/build\l/AliceO2Group/AliceO2\l/Detectors/GlobalTracking\l/src/MatchTPCITS.cxx">
<polygon fill="none" stroke="black" points="520.5,-78.5 520.5,-130.5 651.5,-130.5 651.5,-78.5 520.5,-78.5"/>
<text text-anchor="start" x="528.5" y="-118.5" font-family="Helvetica,sans-Serif" font-size="10.00">/home/travis/build</text>
<text text-anchor="start" x="528.5" y="-107.5" font-family="Helvetica,sans-Serif" font-size="10.00">/AliceO2Group/AliceO2</text>
<text text-anchor="start" x="528.5" y="-96.5" font-family="Helvetica,sans-Serif" font-size="10.00">/Detectors/GlobalTracking</text>
<text text-anchor="middle" x="586" y="-85.5" font-family="Helvetica,sans-Serif" font-size="10.00">/src/MatchTPCITS.cxx</text>
</a>
</g>
</g>
<!-- Node1&#45;&gt;Node12 -->
<g id="edge31" class="edge"><title>Node1&#45;&gt;Node12</title>
<path fill="none" stroke="midnightblue" d="M525.834,-246.69C540.413,-212.478 562.307,-161.1 575.274,-130.67"/>
<polygon fill="midnightblue" stroke="midnightblue" points="522.446,-245.712 521.746,-256.283 528.886,-248.456 522.446,-245.712"/>
</g>
<!-- Node27 -->
<g id="node27" class="node"><title>Node27</title>
<g id="a_node27"><a xlink:href="../../d7/dd5/MagFieldFast_8cxx.html" target="_top" xlink:title="Implementation of the fast magnetic field parametrization MagFieldFast. ">
<polygon fill="none" stroke="black" points="1869.5,-173 1869.5,-214 2050.5,-214 2050.5,-173 1869.5,-173"/>
<text text-anchor="start" x="1877.5" y="-202" font-family="Helvetica,sans-Serif" font-size="10.00">/home/travis/build</text>
<text text-anchor="start" x="1877.5" y="-191" font-family="Helvetica,sans-Serif" font-size="10.00">/AliceO2Group/AliceO2</text>
<text text-anchor="middle" x="1960" y="-180" font-family="Helvetica,sans-Serif" font-size="10.00">/Common/Field/src/MagFieldFast.cxx</text>
</a>
</g>
</g>
<!-- Node1&#45;&gt;Node27 -->
<g id="edge27" class="edge"><title>Node1&#45;&gt;Node27</title>
<path fill="none" stroke="midnightblue" d="M580.631,-280.203C820.184,-275.448 1609.37,-257.269 1860,-220 1870.1,-218.498 1880.66,-216.401 1890.98,-214.047"/>
<polygon fill="midnightblue" stroke="midnightblue" points="580.244,-276.71 570.315,-280.406 580.382,-283.709 580.244,-276.71"/>
</g>
<!-- Node3 -->
<g id="node3" class="node"><title>Node3</title>
<g id="a_node3"><a xlink:href="../../da/d34/MagFieldFact_8h.html" target="_top" xlink:title="Definition of the MagFieldFact: factory for ALIDE mag. field from MagFieldParam. ">
<polygon fill="none" stroke="black" points="1995,-78.5 1995,-130.5 2113,-130.5 2113,-78.5 1995,-78.5"/>
<text text-anchor="start" x="2003" y="-118.5" font-family="Helvetica,sans-Serif" font-size="10.00">/home/travis/build</text>
<text text-anchor="start" x="2003" y="-107.5" font-family="Helvetica,sans-Serif" font-size="10.00">/AliceO2Group/AliceO2</text>
<text text-anchor="start" x="2003" y="-96.5" font-family="Helvetica,sans-Serif" font-size="10.00">/Common/Field/include</text>
<text text-anchor="middle" x="2054" y="-85.5" font-family="Helvetica,sans-Serif" font-size="10.00">/Field/MagFieldFact.h</text>
</a>
</g>
</g>
<!-- Node2&#45;&gt;Node3 -->
<g id="edge2" class="edge"><title>Node2&#45;&gt;Node3</title>
<path fill="none" stroke="midnightblue" d="M1861,-166.754C1914.88,-148.993 1930.53,-147.312 1981,-131 1985.47,-129.555 1990.08,-128.028 1994.72,-126.47"/>
<polygon fill="midnightblue" stroke="midnightblue" points="1859.63,-163.521 1851.25,-170.004 1861.84,-170.162 1859.63,-163.521"/>
</g>
<!-- Node4 -->
<g id="node4" class="node"><title>Node4</title>
<g id="a_node4"><a xlink:href="../../d0/dec/MagFieldFact_8cxx.html" target="_top" xlink:title="/home/travis/build\l/AliceO2Group/AliceO2\l/Common/Field/src/MagFieldFact.cxx">
<polygon fill="none" stroke="black" points="1919.5,-0.5 1919.5,-41.5 2100.5,-41.5 2100.5,-0.5 1919.5,-0.5"/>
<text text-anchor="start" x="1927.5" y="-29.5" font-family="Helvetica,sans-Serif" font-size="10.00">/home/travis/build</text>
<text text-anchor="start" x="1927.5" y="-18.5" font-family="Helvetica,sans-Serif" font-size="10.00">/AliceO2Group/AliceO2</text>
<text text-anchor="middle" x="2010" y="-7.5" font-family="Helvetica,sans-Serif" font-size="10.00">/Common/Field/src/MagFieldFact.cxx</text>
</a>
</g>
</g>
<!-- Node2&#45;&gt;Node4 -->
<g id="edge4" class="edge"><title>Node2&#45;&gt;Node4</title>
<path fill="none" stroke="midnightblue" d="M1860.53,-166.465C1900.3,-151.162 1943.3,-134.197 1947,-131 1961.89,-118.144 1986.99,-69.479 2000.58,-41.717"/>
<polygon fill="midnightblue" stroke="midnightblue" points="1859.13,-163.254 1851.05,-170.106 1861.64,-169.789 1859.13,-163.254"/>
</g>
<!-- Node5 -->
<g id="node5" class="node"><title>Node5</title>
<g id="a_node5"><a xlink:href="../../df/d54/MagFieldParam_8cxx.html" target="_top" xlink:title="Implementation of the MagFieldParam class. ">
<polygon fill="none" stroke="black" points="2131,-84 2131,-125 2321,-125 2321,-84 2131,-84"/>
<text text-anchor="start" x="2139" y="-113" font-family="Helvetica,sans-Serif" font-size="10.00">/home/travis/build</text>
<text text-anchor="start" x="2139" y="-102" font-family="Helvetica,sans-Serif" font-size="10.00">/AliceO2Group/AliceO2</text>
<text text-anchor="middle" x="2226" y="-91" font-family="Helvetica,sans-Serif" font-size="10.00">/Common/Field/src/MagFieldParam.cxx</text>
</a>
</g>
</g>
<!-- Node2&#45;&gt;Node5 -->
<g id="edge5" class="edge"><title>Node2&#45;&gt;Node5</title>
<path fill="none" stroke="midnightblue" d="M1860.97,-166.995C1975.8,-138.971 2009.7,-152.423 2122,-131 2131.22,-129.241 2140.85,-127.183 2150.37,-125.014"/>
<polygon fill="midnightblue" stroke="midnightblue" points="1859.95,-163.642 1851.09,-169.458 1861.64,-170.435 1859.95,-163.642"/>
</g>
<!-- Node6 -->
<g id="node6" class="node"><title>Node6</title>
<g id="a_node6"><a xlink:href="../../d2/d78/MagneticField_8cxx.html" target="_top" xlink:title="/home/travis/build\l/AliceO2Group/AliceO2\l/Common/Field/src/MagneticField.cxx">
<polygon fill="none" stroke="black" points="2339,-84 2339,-125 2521,-125 2521,-84 2339,-84"/>
<text text-anchor="start" x="2347" y="-113" font-family="Helvetica,sans-Serif" font-size="10.00">/home/travis/build</text>
<text text-anchor="start" x="2347" y="-102" font-family="Helvetica,sans-Serif" font-size="10.00">/AliceO2Group/AliceO2</text>
<text text-anchor="middle" x="2430" y="-91" font-family="Helvetica,sans-Serif" font-size="10.00">/Common/Field/src/MagneticField.cxx</text>
</a>
</g>
</g>
<!-- Node2&#45;&gt;Node6 -->
<g id="edge6" class="edge"><title>Node2&#45;&gt;Node6</title>
<path fill="none" stroke="midnightblue" d="M1860.94,-167.081C2066.43,-123.102 2126.51,-164.479 2330,-131 2339.72,-129.4 2349.88,-127.311 2359.85,-125.016"/>
<polygon fill="midnightblue" stroke="midnightblue" points="1860.06,-163.689 1851.04,-169.24 1861.56,-170.528 1860.06,-163.689"/>
</g>
<!-- Node2&#45;&gt;Node7 -->
<g id="edge7" class="edge"><title>Node2&#45;&gt;Node7</title>
<path fill="none" stroke="midnightblue" d="M1722.71,-192.065C1453.51,-190.036 476.87,-179.423 171,-131 168.113,-130.543 165.187,-130.024 162.241,-129.454"/>
<polygon fill="midnightblue" stroke="midnightblue" points="1722.72,-195.565 1732.75,-192.139 1722.77,-188.565 1722.72,-195.565"/>
</g>
<!-- Node8 -->
<g id="node8" class="node"><title>Node8</title>
<g id="a_node8"><a xlink:href="../../d3/dee/Base_2src_2Detector_8cxx.html" target="_top" xlink:title="/home/travis/build\l/AliceO2Group/AliceO2\l/Detectors/Base/src/Detector.cxx">
<polygon fill="none" stroke="black" points="2539,-84 2539,-125 2703,-125 2703,-84 2539,-84"/>
<text text-anchor="start" x="2547" y="-113" font-family="Helvetica,sans-Serif" font-size="10.00">/home/travis/build</text>
<text text-anchor="start" x="2547" y="-102" font-family="Helvetica,sans-Serif" font-size="10.00">/AliceO2Group/AliceO2</text>
<text text-anchor="middle" x="2621" y="-91" font-family="Helvetica,sans-Serif" font-size="10.00">/Detectors/Base/src/Detector.cxx</text>
</a>
</g>
</g>
<!-- Node2&#45;&gt;Node8 -->
<g id="edge8" class="edge"><title>Node2&#45;&gt;Node8</title>
<path fill="none" stroke="midnightblue" d="M1861.08,-167.078C2153.8,-107.575 2239.07,-178.979 2530,-131 2539.23,-129.478 2548.86,-127.37 2558.25,-125.012"/>
<polygon fill="midnightblue" stroke="midnightblue" points="1860.11,-163.705 1851.02,-169.157 1861.52,-170.56 1860.11,-163.705"/>
</g>
<!-- Node2&#45;&gt;Node9 -->
<g id="edge9" class="edge"><title>Node2&#45;&gt;Node9</title>
<path fill="none" stroke="midnightblue" d="M1722.4,-191.527C1473.61,-187.732 628.946,-172.058 362,-131 352.295,-129.507 342.157,-127.399 332.27,-125.026"/>
<polygon fill="midnightblue" stroke="midnightblue" points="1722.7,-195.031 1732.75,-191.683 1722.81,-188.032 1722.7,-195.031"/>
</g>
<!-- Node10 -->
<g id="node10" class="node"><title>Node10</title>
<g id="a_node10"><a xlink:href="../../d3/d0f/FIT_2FDD_2simulation_2src_2Detector_8cxx.html" target="_top" xlink:title="/home/travis/build\l/AliceO2Group/AliceO2\l/Detectors/FIT/FDD/simulation\l/src/Detector.cxx">
<polygon fill="none" stroke="black" points="2721,-78.5 2721,-130.5 2873,-130.5 2873,-78.5 2721,-78.5"/>
<text text-anchor="start" x="2729" y="-118.5" font-family="Helvetica,sans-Serif" font-size="10.00">/home/travis/build</text>
<text text-anchor="start" x="2729" y="-107.5" font-family="Helvetica,sans-Serif" font-size="10.00">/AliceO2Group/AliceO2</text>
<text text-anchor="start" x="2729" y="-96.5" font-family="Helvetica,sans-Serif" font-size="10.00">/Detectors/FIT/FDD/simulation</text>
<text text-anchor="middle" x="2797" y="-85.5" font-family="Helvetica,sans-Serif" font-size="10.00">/src/Detector.cxx</text>
</a>
</g>
</g>
<!-- Node2&#45;&gt;Node10 -->
<g id="edge10" class="edge"><title>Node2&#45;&gt;Node10</title>
<path fill="none" stroke="midnightblue" d="M1860.98,-167.111C2233.31,-93.3055 2341.54,-193.388 2712,-131 2714.89,-130.514 2717.81,-129.959 2720.76,-129.35"/>
<polygon fill="midnightblue" stroke="midnightblue" points="1860.13,-163.712 1851.01,-169.115 1861.51,-170.575 1860.13,-163.712"/>
</g>
<!-- Node2&#45;&gt;Node11 -->
<g id="edge11" class="edge"><title>Node2&#45;&gt;Node11</title>
<path fill="none" stroke="midnightblue" d="M1722.66,-191.757C1491.16,-188.874 746.258,-176.223 511,-131 508.198,-130.461 505.357,-129.839 502.504,-129.152"/>
<polygon fill="midnightblue" stroke="midnightblue" points="1722.93,-195.261 1732.97,-191.884 1723.01,-188.261 1722.93,-195.261"/>
</g>
<!-- Node2&#45;&gt;Node12 -->
<g id="edge12" class="edge"><title>Node2&#45;&gt;Node12</title>
<path fill="none" stroke="midnightblue" d="M1722.52,-191.246C1509.1,-186.995 865.134,-171.103 660,-131 657.199,-130.452 654.36,-129.823 651.508,-129.129"/>
<polygon fill="midnightblue" stroke="midnightblue" points="1722.59,-194.747 1732.65,-191.445 1722.73,-187.749 1722.59,-194.747"/>
</g>
<!-- Node13 -->
<g id="node13" class="node"><title>Node13</title>
<g id="a_node13"><a xlink:href="../../d7/dca/CookedTracker_8cxx.html" target="_top" xlink:title="Implementation of the &quot;Cooked Matrix&quot; ITS tracker. ">
<polygon fill="none" stroke="black" points="2891,-78.5 2891,-130.5 3077,-130.5 3077,-78.5 2891,-78.5"/>
<text text-anchor="start" x="2899" y="-118.5" font-family="Helvetica,sans-Serif" font-size="10.00">/home/travis/build</text>
<text text-anchor="start" x="2899" y="-107.5" font-family="Helvetica,sans-Serif" font-size="10.00">/AliceO2Group/AliceO2</text>
<text text-anchor="start" x="2899" y="-96.5" font-family="Helvetica,sans-Serif" font-size="10.00">/Detectors/ITSMFT/ITS</text>
<text text-anchor="middle" x="2984" y="-85.5" font-family="Helvetica,sans-Serif" font-size="10.00">/reconstruction/src/CookedTracker.cxx</text>
</a>
</g>
</g>
<!-- Node2&#45;&gt;Node13 -->
<g id="edge13" class="edge"><title>Node2&#45;&gt;Node13</title>
<path fill="none" stroke="midnightblue" d="M1860.95,-167.122C2307.58,-79.7407 2435.25,-194.001 2882,-131 2884.89,-130.592 2887.82,-130.136 2890.77,-129.638"/>
<polygon fill="midnightblue" stroke="midnightblue" points="1860.14,-163.714 1851.01,-169.09 1861.5,-170.581 1860.14,-163.714"/>
</g>
<!-- Node14 -->
<g id="node14" class="node"><title>Node14</title>
<g id="a_node14"><a xlink:href="../../d6/dbc/CookedTrackerSpec_8cxx.html" target="_top" xlink:title="/home/travis/build\l/AliceO2Group/AliceO2\l/Detectors/ITSMFT/ITS\l/workflow/src/CookedTrackerSpec.cxx">
<polygon fill="none" stroke="black" points="3095,-78.5 3095,-130.5 3281,-130.5 3281,-78.5 3095,-78.5"/>
<text text-anchor="start" x="3103" y="-118.5" font-family="Helvetica,sans-Serif" font-size="10.00">/home/travis/build</text>
<text text-anchor="start" x="3103" y="-107.5" font-family="Helvetica,sans-Serif" font-size="10.00">/AliceO2Group/AliceO2</text>
<text text-anchor="start" x="3103" y="-96.5" font-family="Helvetica,sans-Serif" font-size="10.00">/Detectors/ITSMFT/ITS</text>
<text text-anchor="middle" x="3188" y="-85.5" font-family="Helvetica,sans-Serif" font-size="10.00">/workflow/src/CookedTrackerSpec.cxx</text>
</a>
</g>
</g>
<!-- Node2&#45;&gt;Node14 -->
<g id="edge14" class="edge"><title>Node2&#45;&gt;Node14</title>
<path fill="none" stroke="midnightblue" d="M1860.89,-167.192C2143.53,-115.686 2819.16,-167.833 3086,-131 3088.89,-130.601 3091.82,-130.152 3094.77,-129.661"/>
<polygon fill="midnightblue" stroke="midnightblue" points="1860.18,-163.765 1851,-169.068 1861.48,-170.642 1860.18,-163.765"/>
</g>
<!-- Node15 -->
<g id="node15" class="node"><title>Node15</title>
<g id="a_node15"><a xlink:href="../../de/d95/ITSMFT_2ITS_2workflow_2src_2TrackerSpec_8cxx.html" target="_top" xlink:title="/home/travis/build\l/AliceO2Group/AliceO2\l/Detectors/ITSMFT/ITS\l/workflow/src/TrackerSpec.cxx">
<polygon fill="none" stroke="black" points="3299,-78.5 3299,-130.5 3451,-130.5 3451,-78.5 3299,-78.5"/>
<text text-anchor="start" x="3307" y="-118.5" font-family="Helvetica,sans-Serif" font-size="10.00">/home/travis/build</text>
<text text-anchor="start" x="3307" y="-107.5" font-family="Helvetica,sans-Serif" font-size="10.00">/AliceO2Group/AliceO2</text>
<text text-anchor="start" x="3307" y="-96.5" font-family="Helvetica,sans-Serif" font-size="10.00">/Detectors/ITSMFT/ITS</text>
<text text-anchor="middle" x="3375" y="-85.5" font-family="Helvetica,sans-Serif" font-size="10.00">/workflow/src/TrackerSpec.cxx</text>
</a>
</g>
</g>
<!-- Node2&#45;&gt;Node15 -->
<g id="edge15" class="edge"><title>Node2&#45;&gt;Node15</title>
<path fill="none" stroke="midnightblue" d="M1861.03,-167.167C2188.48,-107.871 2979.32,-180.601 3290,-131 3292.89,-130.539 3295.82,-130.005 3298.77,-129.413"/>
<polygon fill="midnightblue" stroke="midnightblue" points="1860.18,-163.765 1851,-169.053 1861.48,-170.644 1860.18,-163.765"/>
</g>
<!-- Node16 -->
<g id="node16" class="node"><title>Node16</title>
<g id="a_node16"><a xlink:href="../../d0/d6b/ITSMFT_2MFT_2simulation_2src_2Detector_8cxx.html" target="_top" xlink:title="/home/travis/build\l/AliceO2Group/AliceO2\l/Detectors/ITSMFT/MFT\l/simulation/src/Detector.cxx">
<polygon fill="none" stroke="black" points="3469,-78.5 3469,-130.5 3609,-130.5 3609,-78.5 3469,-78.5"/>
<text text-anchor="start" x="3477" y="-118.5" font-family="Helvetica,sans-Serif" font-size="10.00">/home/travis/build</text>
<text text-anchor="start" x="3477" y="-107.5" font-family="Helvetica,sans-Serif" font-size="10.00">/AliceO2Group/AliceO2</text>
<text text-anchor="start" x="3477" y="-96.5" font-family="Helvetica,sans-Serif" font-size="10.00">/Detectors/ITSMFT/MFT</text>
<text text-anchor="middle" x="3539" y="-85.5" font-family="Helvetica,sans-Serif" font-size="10.00">/simulation/src/Detector.cxx</text>
</a>
</g>
</g>
<!-- Node2&#45;&gt;Node16 -->
<g id="edge16" class="edge"><title>Node2&#45;&gt;Node16</title>
<path fill="none" stroke="midnightblue" d="M1861.47,-167.057C2225.86,-101.281 3112.58,-189.694 3460,-131 3462.84,-130.52 3465.72,-129.959 3468.62,-129.333"/>
<polygon fill="midnightblue" stroke="midnightblue" points="1860.56,-163.667 1851.38,-168.946 1861.85,-170.548 1860.56,-163.667"/>
</g>
<!-- Node17 -->
<g id="node17" class="node"><title>Node17</title>
<g id="a_node17"><a xlink:href="../../d1/dd0/ITSMFT_2MFT_2workflow_2src_2TrackerSpec_8cxx.html" target="_top" xlink:title="/home/travis/build\l/AliceO2Group/AliceO2\l/Detectors/ITSMFT/MFT\l/workflow/src/TrackerSpec.cxx">
<polygon fill="none" stroke="black" points="3627,-78.5 3627,-130.5 3779,-130.5 3779,-78.5 3627,-78.5"/>
<text text-anchor="start" x="3635" y="-118.5" font-family="Helvetica,sans-Serif" font-size="10.00">/home/travis/build</text>
<text text-anchor="start" x="3635" y="-107.5" font-family="Helvetica,sans-Serif" font-size="10.00">/AliceO2Group/AliceO2</text>
<text text-anchor="start" x="3635" y="-96.5" font-family="Helvetica,sans-Serif" font-size="10.00">/Detectors/ITSMFT/MFT</text>
<text text-anchor="middle" x="3703" y="-85.5" font-family="Helvetica,sans-Serif" font-size="10.00">/workflow/src/TrackerSpec.cxx</text>
</a>
</g>
</g>
<!-- Node2&#45;&gt;Node17 -->
<g id="edge17" class="edge"><title>Node2&#45;&gt;Node17</title>
<path fill="none" stroke="midnightblue" d="M1861.27,-167.092C2260.11,-94.9702 3235.2,-191.193 3618,-131 3620.89,-130.545 3623.82,-130.018 3626.77,-129.43"/>
<polygon fill="midnightblue" stroke="midnightblue" points="1860.56,-163.663 1851.37,-168.939 1861.85,-170.545 1860.56,-163.663"/>
</g>
<!-- Node18 -->
<g id="node18" class="node"><title>Node18</title>
<g id="a_node18"><a xlink:href="../../d1/d8b/TrackFinder_8cxx.html" target="_top" xlink:title="Implementation of a class to reconstruct tracks. ">
<polygon fill="none" stroke="black" points="3797.5,-78.5 3797.5,-130.5 3960.5,-130.5 3960.5,-78.5 3797.5,-78.5"/>
<text text-anchor="start" x="3805.5" y="-118.5" font-family="Helvetica,sans-Serif" font-size="10.00">/home/travis/build</text>
<text text-anchor="start" x="3805.5" y="-107.5" font-family="Helvetica,sans-Serif" font-size="10.00">/AliceO2Group/AliceO2</text>
<text text-anchor="start" x="3805.5" y="-96.5" font-family="Helvetica,sans-Serif" font-size="10.00">/Detectors/MUON/MCH/Tracking</text>
<text text-anchor="middle" x="3879" y="-85.5" font-family="Helvetica,sans-Serif" font-size="10.00">/src/TrackFinder.cxx</text>
</a>
</g>
</g>
<!-- Node2&#45;&gt;Node18 -->
<g id="edge18" class="edge"><title>Node2&#45;&gt;Node18</title>
<path fill="none" stroke="midnightblue" d="M1861.24,-167.096C2297.27,-88.2144 3367.24,-192.845 3788,-131 3791.08,-130.547 3794.21,-130.02 3797.36,-129.434"/>
<polygon fill="midnightblue" stroke="midnightblue" points="1860.56,-163.661 1851.37,-168.933 1861.84,-170.543 1860.56,-163.661"/>
</g>
<!-- Node19 -->
<g id="node19" class="node"><title>Node19</title>
<g id="a_node19"><a xlink:href="../../d6/d6d/TrackFinderOriginal_8cxx.html" target="_top" xlink:title="Implementation of a class to reconstruct tracks with the original algorithm. ">
<polygon fill="none" stroke="black" points="669.5,-78.5 669.5,-130.5 832.5,-130.5 832.5,-78.5 669.5,-78.5"/>
<text text-anchor="start" x="677.5" y="-118.5" font-family="Helvetica,sans-Serif" font-size="10.00">/home/travis/build</text>
<text text-anchor="start" x="677.5" y="-107.5" font-family="Helvetica,sans-Serif" font-size="10.00">/AliceO2Group/AliceO2</text>
<text text-anchor="start" x="677.5" y="-96.5" font-family="Helvetica,sans-Serif" font-size="10.00">/Detectors/MUON/MCH/Tracking</text>
<text text-anchor="middle" x="751" y="-85.5" font-family="Helvetica,sans-Serif" font-size="10.00">/src/TrackFinderOriginal.cxx</text>
</a>
</g>
</g>
<!-- Node2&#45;&gt;Node19 -->
<g id="edge19" class="edge"><title>Node2&#45;&gt;Node19</title>
<path fill="none" stroke="midnightblue" d="M1722.74,-193.011C1565.03,-193.091 1167.48,-187.156 841,-131 838.279,-130.532 835.523,-130.014 832.748,-129.454"/>
<polygon fill="midnightblue" stroke="midnightblue" points="1722.79,-196.511 1732.78,-192.997 1722.78,-189.511 1722.79,-196.511"/>
</g>
<!-- Node20 -->
<g id="node20" class="node"><title>Node20</title>
<g id="a_node20"><a xlink:href="../../d9/d47/TrackFitter_8cxx.html" target="_top" xlink:title="Implementation of a class to fit a track to a set of clusters. ">
<polygon fill="none" stroke="black" points="850.5,-78.5 850.5,-130.5 1013.5,-130.5 1013.5,-78.5 850.5,-78.5"/>
<text text-anchor="start" x="858.5" y="-118.5" font-family="Helvetica,sans-Serif" font-size="10.00">/home/travis/build</text>
<text text-anchor="start" x="858.5" y="-107.5" font-family="Helvetica,sans-Serif" font-size="10.00">/AliceO2Group/AliceO2</text>
<text text-anchor="start" x="858.5" y="-96.5" font-family="Helvetica,sans-Serif" font-size="10.00">/Detectors/MUON/MCH/Tracking</text>
<text text-anchor="middle" x="932" y="-85.5" font-family="Helvetica,sans-Serif" font-size="10.00">/src/TrackFitter.cxx</text>
</a>
</g>
</g>
<!-- Node2&#45;&gt;Node20 -->
<g id="edge20" class="edge"><title>Node2&#45;&gt;Node20</title>
<path fill="none" stroke="midnightblue" d="M1722.41,-191.428C1586.8,-188.352 1278.08,-176.497 1023,-131 1019.93,-130.453 1016.82,-129.846 1013.68,-129.192"/>
<polygon fill="midnightblue" stroke="midnightblue" points="1722.58,-194.933 1732.65,-191.651 1722.73,-187.934 1722.58,-194.933"/>
</g>
<!-- Node21 -->
<g id="node21" class="node"><title>Node21</title>
<g id="a_node21"><a xlink:href="../../de/da5/FrameStructure_8cxx.html" target="_top" xlink:title="/home/travis/build\l/AliceO2Group/AliceO2\l/Detectors/Passive/src\l/FrameStructure.cxx">
<polygon fill="none" stroke="black" points="1032,-78.5 1032,-130.5 1150,-130.5 1150,-78.5 1032,-78.5"/>
<text text-anchor="start" x="1040" y="-118.5" font-family="Helvetica,sans-Serif" font-size="10.00">/home/travis/build</text>
<text text-anchor="start" x="1040" y="-107.5" font-family="Helvetica,sans-Serif" font-size="10.00">/AliceO2Group/AliceO2</text>
<text text-anchor="start" x="1040" y="-96.5" font-family="Helvetica,sans-Serif" font-size="10.00">/Detectors/Passive/src</text>
<text text-anchor="middle" x="1091" y="-85.5" font-family="Helvetica,sans-Serif" font-size="10.00">/FrameStructure.cxx</text>
</a>
</g>
</g>
<!-- Node2&#45;&gt;Node21 -->
<g id="edge21" class="edge"><title>Node2&#45;&gt;Node21</title>
<path fill="none" stroke="midnightblue" d="M1722.41,-191.662C1604.82,-188.936 1359.99,-177.596 1159,-131 1156.05,-130.317 1153.06,-129.537 1150.06,-128.686"/>
<polygon fill="midnightblue" stroke="midnightblue" points="1722.63,-195.167 1732.7,-191.886 1722.78,-188.169 1722.63,-195.167"/>
</g>
<!-- Node22 -->
<g id="node22" class="node"><title>Node22</title>
<g id="a_node22"><a xlink:href="../../da/d8e/SpaceCharge_8cxx.html" target="_top" xlink:title="Implementation of the interface for the ALICE TPC space&#45;charge distortions calculations. ">
<polygon fill="none" stroke="black" points="1168.5,-78.5 1168.5,-130.5 1301.5,-130.5 1301.5,-78.5 1168.5,-78.5"/>
<text text-anchor="start" x="1176.5" y="-118.5" font-family="Helvetica,sans-Serif" font-size="10.00">/home/travis/build</text>
<text text-anchor="start" x="1176.5" y="-107.5" font-family="Helvetica,sans-Serif" font-size="10.00">/AliceO2Group/AliceO2</text>
<text text-anchor="start" x="1176.5" y="-96.5" font-family="Helvetica,sans-Serif" font-size="10.00">/Detectors/TPC/simulation</text>
<text text-anchor="middle" x="1235" y="-85.5" font-family="Helvetica,sans-Serif" font-size="10.00">/src/SpaceCharge.cxx</text>
</a>
</g>
</g>
<!-- Node2&#45;&gt;Node22 -->
<g id="edge22" class="edge"><title>Node2&#45;&gt;Node22</title>
<path fill="none" stroke="midnightblue" d="M1722.6,-187.928C1628.42,-180.752 1455.34,-164.104 1311,-131 1307.88,-130.284 1304.71,-129.492 1301.52,-128.641"/>
<polygon fill="midnightblue" stroke="midnightblue" points="1722.62,-191.439 1732.85,-188.696 1723.14,-184.459 1722.62,-191.439"/>
</g>
<!-- Node23 -->
<g id="node23" class="node"><title>Node23</title>
<g id="a_node23"><a xlink:href="../../d8/dd6/TRDCommonParam_8cxx.html" target="_top" xlink:title="/home/travis/build\l/AliceO2Group/AliceO2\l/Detectors/TRD/base/src\l/TRDCommonParam.cxx">
<polygon fill="none" stroke="black" points="1320,-78.5 1320,-130.5 1448,-130.5 1448,-78.5 1320,-78.5"/>
<text text-anchor="start" x="1328" y="-118.5" font-family="Helvetica,sans-Serif" font-size="10.00">/home/travis/build</text>
<text text-anchor="start" x="1328" y="-107.5" font-family="Helvetica,sans-Serif" font-size="10.00">/AliceO2Group/AliceO2</text>
<text text-anchor="start" x="1328" y="-96.5" font-family="Helvetica,sans-Serif" font-size="10.00">/Detectors/TRD/base/src</text>
<text text-anchor="middle" x="1384" y="-85.5" font-family="Helvetica,sans-Serif" font-size="10.00">/TRDCommonParam.cxx</text>
</a>
</g>
</g>
<!-- Node2&#45;&gt;Node23 -->
<g id="edge23" class="edge"><title>Node2&#45;&gt;Node23</title>
<path fill="none" stroke="midnightblue" d="M1722.8,-182.992C1654.58,-172.871 1547.66,-155.003 1457,-131 1454.14,-130.244 1451.24,-129.43 1448.32,-128.573"/>
<polygon fill="midnightblue" stroke="midnightblue" points="1722.59,-186.498 1732.99,-184.489 1723.61,-179.573 1722.59,-186.498"/>
</g>
<!-- Node24 -->
<g id="node24" class="node"><title>Node24</title>
<g id="a_node24"><a xlink:href="../../dc/d6e/testTRDDiffusionCoefficient_8cxx.html" target="_top" xlink:title="This task tests the Diffusion Coefficient module of the TRD digitization. ">
<polygon fill="none" stroke="black" points="1466,-78.5 1466,-130.5 1628,-130.5 1628,-78.5 1466,-78.5"/>
<text text-anchor="start" x="1474" y="-118.5" font-family="Helvetica,sans-Serif" font-size="10.00">/home/travis/build</text>
<text text-anchor="start" x="1474" y="-107.5" font-family="Helvetica,sans-Serif" font-size="10.00">/AliceO2Group/AliceO2</text>
<text text-anchor="start" x="1474" y="-96.5" font-family="Helvetica,sans-Serif" font-size="10.00">/Detectors/TRD/base/test</text>
<text text-anchor="middle" x="1547" y="-85.5" font-family="Helvetica,sans-Serif" font-size="10.00">/testTRDDiffusionCoefficient.cxx</text>
</a>
</g>
</g>
<!-- Node2&#45;&gt;Node24 -->
<g id="edge24" class="edge"><title>Node2&#45;&gt;Node24</title>
<path fill="none" stroke="midnightblue" d="M1723.13,-168.043C1690.15,-156.332 1650.71,-142.327 1617.52,-130.542"/>
<polygon fill="midnightblue" stroke="midnightblue" points="1722.1,-171.392 1732.69,-171.44 1724.44,-164.795 1722.1,-171.392"/>
</g>
<!-- Node25 -->
<g id="node25" class="node"><title>Node25</title>
<g id="a_node25"><a xlink:href="../../dd/d2b/o2__sim__its__ALP3_8cxx.html" target="_top" xlink:title="/home/travis/build\l/AliceO2Group/AliceO2\l/Framework/TestWorkflows\l/src/o2_sim_its_ALP3.cxx">
<polygon fill="none" stroke="black" points="1646.5,-78.5 1646.5,-130.5 1783.5,-130.5 1783.5,-78.5 1646.5,-78.5"/>
<text text-anchor="start" x="1654.5" y="-118.5" font-family="Helvetica,sans-Serif" font-size="10.00">/home/travis/build</text>
<text text-anchor="start" x="1654.5" y="-107.5" font-family="Helvetica,sans-Serif" font-size="10.00">/AliceO2Group/AliceO2</text>
<text text-anchor="start" x="1654.5" y="-96.5" font-family="Helvetica,sans-Serif" font-size="10.00">/Framework/TestWorkflows</text>
<text text-anchor="middle" x="1715" y="-85.5" font-family="Helvetica,sans-Serif" font-size="10.00">/src/o2_sim_its_ALP3.cxx</text>
</a>
</g>
</g>
<!-- Node2&#45;&gt;Node25 -->
<g id="edge25" class="edge"><title>Node2&#45;&gt;Node25</title>
<path fill="none" stroke="midnightblue" d="M1763.05,-159.79C1754.5,-150.129 1745.28,-139.71 1737.22,-130.607"/>
<polygon fill="midnightblue" stroke="midnightblue" points="1760.48,-162.167 1769.73,-167.336 1765.72,-157.528 1760.48,-162.167"/>
</g>
<!-- Node26 -->
<g id="node26" class="node"><title>Node26</title>
<g id="a_node26"><a xlink:href="../../d7/d11/o2__sim__tpc_8cxx.html" target="_top" xlink:title="/home/travis/build\l/AliceO2Group/AliceO2\l/Framework/TestWorkflows\l/src/o2_sim_tpc.cxx">
<polygon fill="none" stroke="black" points="1801.5,-78.5 1801.5,-130.5 1938.5,-130.5 1938.5,-78.5 1801.5,-78.5"/>
<text text-anchor="start" x="1809.5" y="-118.5" font-family="Helvetica,sans-Serif" font-size="10.00">/home/travis/build</text>
<text text-anchor="start" x="1809.5" y="-107.5" font-family="Helvetica,sans-Serif" font-size="10.00">/AliceO2Group/AliceO2</text>
<text text-anchor="start" x="1809.5" y="-96.5" font-family="Helvetica,sans-Serif" font-size="10.00">/Framework/TestWorkflows</text>
<text text-anchor="middle" x="1870" y="-85.5" font-family="Helvetica,sans-Serif" font-size="10.00">/src/o2_sim_tpc.cxx</text>
</a>
</g>
</g>
<!-- Node2&#45;&gt;Node26 -->
<g id="edge26" class="edge"><title>Node2&#45;&gt;Node26</title>
<path fill="none" stroke="midnightblue" d="M1821.33,-159.79C1829.99,-150.129 1839.33,-139.71 1847.49,-130.607"/>
<polygon fill="midnightblue" stroke="midnightblue" points="1818.63,-157.554 1814.56,-167.336 1823.84,-162.227 1818.63,-157.554"/>
</g>
<!-- Node3&#45;&gt;Node4 -->
<g id="edge3" class="edge"><title>Node3&#45;&gt;Node4</title>
<path fill="none" stroke="midnightblue" d="M2035.55,-69.3185C2030.45,-59.8709 2025.08,-49.9395 2020.6,-41.6282"/>
<polygon fill="midnightblue" stroke="midnightblue" points="2032.49,-71.0229 2040.32,-78.1596 2038.65,-67.6974 2032.49,-71.0229"/>
</g>
</g>
</svg>
