<?xml version="1.0" encoding="UTF-8" standalone="no"?>
<!DOCTYPE svg PUBLIC "-//W3C//DTD SVG 1.1//EN"
 "http://www.w3.org/Graphics/SVG/1.1/DTD/svg11.dtd">
<!-- Generated by graphviz version 2.38.0 (20140413.2041)
 -->
<!-- Title: o2::header::DataIdentifier Pages: 1 -->
<!--zoomable 777 -->
<svg id="main" version="1.1" xmlns="http://www.w3.org/2000/svg" xmlns:xlink="http://www.w3.org/1999/xlink" xml:space="preserve" onload="init(evt)">
<style type="text/css"><![CDATA[
.edge:hover path { stroke: red; }
.edge:hover polygon { stroke: red; fill: red; }
]]></style>
<script type="text/javascript"><![CDATA[
var edges = document.getElementsByTagName('g');
if (edges && edges.length) {
  for (var i=0;i<edges.length;i++) {
    if (edges[i].id.substr(0,4)=='edge') {
      edges[i].setAttribute('class','edge');
    }
  }
}
]]></script>
        <defs>
                <circle id="rim" cx="0" cy="0" r="7"/>
                <circle id="rim2" cx="0" cy="0" r="3.5"/>
                <g id="zoomPlus">
                        <use xlink:href="#rim" fill="#404040">
                                <set attributeName="fill" to="#808080" begin="zoomplus.mouseover" end="zoomplus.mouseout"/>
                        </use>
                        <path d="M-4,0h8M0,-4v8" fill="none" stroke="white" stroke-width="1.5" pointer-events="none"/>
                </g>
                <g id="zoomMin">
                        <use xlink:href="#rim" fill="#404040">
                                <set attributeName="fill" to="#808080" begin="zoomminus.mouseover" end="zoomminus.mouseout"/>
                        </use>
                        <path d="M-4,0h8" fill="none" stroke="white" stroke-width="1.5" pointer-events="none"/>
                </g>
                <g id="dirArrow">
                        <path fill="none" stroke="white" stroke-width="1.5" d="M0,-3.0v7 M-2.5,-0.5L0,-3.0L2.5,-0.5"/>
                </g>
               <g id="resetDef">
                       <use xlink:href="#rim2" fill="#404040">
                               <set attributeName="fill" to="#808080" begin="reset.mouseover" end="reset.mouseout"/>
                       </use>
               </g>
        </defs>

<script type="text/javascript">
var viewWidth = 638;
var viewHeight = 777;
var sectionId = 'dynsection-0';
</script>
<script xlink:href="../../svgpan.js"/>
<svg id="graph" class="graph">
<g id="viewport">
<title>o2::header::DataIdentifier</title>
<!-- Node1 -->
<g id="node1" class="node"><title>Node1</title>
<polygon fill="#bfbfbf" stroke="black" points="185.476,-0.5 185.476,-101.5 312.476,-101.5 312.476,-0.5 185.476,-0.5"/>
<text text-anchor="middle" x="248.976" y="-89.5" font-family="Helvetica,sans-Serif" font-size="10.00">o2::header::DataIdentifier</text>
<polyline fill="none" stroke="black" points="185.476,-82.5 312.476,-82.5 "/>
<text text-anchor="middle" x="248.976" y="-70.5" font-family="Helvetica,sans-Serif" font-size="10.00"> </text>
<polyline fill="none" stroke="black" points="185.476,-63.5 312.476,-63.5 "/>
<text text-anchor="start" x="193.476" y="-51.5" font-family="Helvetica,sans-Serif" font-size="10.00">+ DataIdentifier()</text>
<text text-anchor="start" x="193.476" y="-40.5" font-family="Helvetica,sans-Serif" font-size="10.00">+ DataIdentifier()</text>
<text text-anchor="start" x="193.476" y="-29.5" font-family="Helvetica,sans-Serif" font-size="10.00">+ DataIdentifier()</text>
<text text-anchor="start" x="193.476" y="-18.5" font-family="Helvetica,sans-Serif" font-size="10.00">+ operator==()</text>
<text text-anchor="start" x="193.476" y="-7.5" font-family="Helvetica,sans-Serif" font-size="10.00">+ print()</text>
</g>
<!-- Node2 -->
<g id="node2" class="node"><title>Node2</title>
<g id="a_node2"><a xlink:href="../../d9/db3/structo2_1_1header_1_1Descriptor.html" target="_top" xlink:title="{o2::header::Descriptor\l\&lt; gSizeDataOriginString,\l printDataOrigin \&gt;\n||+ Descriptor()\l+ Descriptor()\l+ Descriptor()\l+ Descriptor()\l+ operator=()\l+ operator ItgType()\l+ runtimeInit()\l+ operator==()\l+ operator==()\l+ operator\&lt;()\l+ operator!=()\l+ operator!=()\l+ as()\l+ print()\l}">
<polygon fill="none" stroke="black" points="50.4758,-149.5 50.4758,-371.5 175.476,-371.5 175.476,-149.5 50.4758,-149.5"/>
<text text-anchor="start" x="58.4758" y="-359.5" font-family="Helvetica,sans-Serif" font-size="10.00">o2::header::Descriptor</text>
<text text-anchor="start" x="58.4758" y="-348.5" font-family="Helvetica,sans-Serif" font-size="10.00">&lt; gSizeDataOriginString,</text>
<text text-anchor="middle" x="112.976" y="-337.5" font-family="Helvetica,sans-Serif" font-size="10.00"> printDataOrigin &gt;</text>
<polyline fill="none" stroke="black" points="50.4758,-330.5 175.476,-330.5 "/>
<text text-anchor="middle" x="112.976" y="-318.5" font-family="Helvetica,sans-Serif" font-size="10.00"> </text>
<polyline fill="none" stroke="black" points="50.4758,-311.5 175.476,-311.5 "/>
<text text-anchor="start" x="58.4758" y="-299.5" font-family="Helvetica,sans-Serif" font-size="10.00">+ Descriptor()</text>
<text text-anchor="start" x="58.4758" y="-288.5" font-family="Helvetica,sans-Serif" font-size="10.00">+ Descriptor()</text>
<text text-anchor="start" x="58.4758" y="-277.5" font-family="Helvetica,sans-Serif" font-size="10.00">+ Descriptor()</text>
<text text-anchor="start" x="58.4758" y="-266.5" font-family="Helvetica,sans-Serif" font-size="10.00">+ Descriptor()</text>
<text text-anchor="start" x="58.4758" y="-255.5" font-family="Helvetica,sans-Serif" font-size="10.00">+ operator=()</text>
<text text-anchor="start" x="58.4758" y="-244.5" font-family="Helvetica,sans-Serif" font-size="10.00">+ operator ItgType()</text>
<text text-anchor="start" x="58.4758" y="-233.5" font-family="Helvetica,sans-Serif" font-size="10.00">+ runtimeInit()</text>
<text text-anchor="start" x="58.4758" y="-222.5" font-family="Helvetica,sans-Serif" font-size="10.00">+ operator==()</text>
<text text-anchor="start" x="58.4758" y="-211.5" font-family="Helvetica,sans-Serif" font-size="10.00">+ operator==()</text>
<text text-anchor="start" x="58.4758" y="-200.5" font-family="Helvetica,sans-Serif" font-size="10.00">+ operator&lt;()</text>
<text text-anchor="start" x="58.4758" y="-189.5" font-family="Helvetica,sans-Serif" font-size="10.00">+ operator!=()</text>
<text text-anchor="start" x="58.4758" y="-178.5" font-family="Helvetica,sans-Serif" font-size="10.00">+ operator!=()</text>
<text text-anchor="start" x="58.4758" y="-167.5" font-family="Helvetica,sans-Serif" font-size="10.00">+ as()</text>
<text text-anchor="start" x="58.4758" y="-156.5" font-family="Helvetica,sans-Serif" font-size="10.00">+ print()</text>
</a>
</g>
</g>
<!-- Node2&#45;&gt;Node1 -->
<g id="edge1" class="edge"><title>Node2&#45;&gt;Node1</title>
<path fill="none" stroke="#404040" d="M175.602,-163.949C187.211,-146.237 199.03,-128.204 209.695,-111.933"/>
<polygon fill="none" stroke="#404040" points="209.944,-111.552 209.888,-104.341 216.522,-101.515 216.579,-108.726 209.944,-111.552"/>
<text text-anchor="middle" x="228.976" y="-123" font-family="Helvetica,sans-Serif" font-size="10.00"> +dataOrigin</text>
</g>
<!-- Node3 -->
<g id="node3" class="node"><title>Node3</title>
<polygon fill="none" stroke="#bfbfbf" points="61.9758,-711.5 61.9758,-768.5 99.9758,-768.5 99.9758,-711.5 61.9758,-711.5"/>
<text text-anchor="middle" x="80.9758" y="-756.5" font-family="Helvetica,sans-Serif" font-size="10.00">Type</text>
<polyline fill="none" stroke="#bfbfbf" points="61.9758,-749.5 99.9758,-749.5 "/>
<text text-anchor="middle" x="80.9758" y="-737.5" font-family="Helvetica,sans-Serif" font-size="10.00"> </text>
<polyline fill="none" stroke="#bfbfbf" points="61.9758,-730.5 99.9758,-730.5 "/>
<text text-anchor="middle" x="80.9758" y="-718.5" font-family="Helvetica,sans-Serif" font-size="10.00"> </text>
</g>
<!-- Node3&#45;&gt;Node2 -->
<g id="edge2" class="edge"><title>Node3&#45;&gt;Node2</title>
<path fill="none" stroke="#404040" d="M61.9148,-717.309C46.9628,-698.754 27.3304,-670.584 18.9758,-642 -7.458,-551.562 -4.73941,-521.189 18.9758,-430 24.7195,-407.914 34.063,-385.651 44.6836,-364.868"/>
<polygon fill="none" stroke="#404040" points="44.742,-364.757 44.004,-357.584 50.3416,-354.144 51.0796,-361.317 44.742,-364.757"/>
<text text-anchor="middle" x="28.9758" y="-533.5" font-family="Helvetica,sans-Serif" font-size="10.00"> +itg</text>
</g>
<!-- Node7 -->
<g id="node7" class="node"><title>Node7</title>
<g id="a_node7"><a xlink:href="../../d9/db3/structo2_1_1header_1_1Descriptor.html" target="_top" xlink:title="{o2::header::Descriptor\l\&lt; N, PrinterPolicy \&gt;\n||+ Descriptor()\l+ Descriptor()\l+ Descriptor()\l+ operator=()\l+ operator ItgType()\l+ Descriptor()\l+ runtimeInit()\l+ operator==()\l+ operator\&lt;()\l+ operator!=()\l+ operator==()\l+ operator!=()\l+ as()\l+ print()\l}">
<polygon fill="none" stroke="black" points="213.476,-430.5 213.476,-641.5 326.476,-641.5 326.476,-430.5 213.476,-430.5"/>
<text text-anchor="start" x="221.476" y="-629.5" font-family="Helvetica,sans-Serif" font-size="10.00">o2::header::Descriptor</text>
<text text-anchor="middle" x="269.976" y="-618.5" font-family="Helvetica,sans-Serif" font-size="10.00">&lt; N, PrinterPolicy &gt;</text>
<polyline fill="none" stroke="black" points="213.476,-611.5 326.476,-611.5 "/>
<text text-anchor="middle" x="269.976" y="-599.5" font-family="Helvetica,sans-Serif" font-size="10.00"> </text>
<polyline fill="none" stroke="black" points="213.476,-592.5 326.476,-592.5 "/>
<text text-anchor="start" x="221.476" y="-580.5" font-family="Helvetica,sans-Serif" font-size="10.00">+ Descriptor()</text>
<text text-anchor="start" x="221.476" y="-569.5" font-family="Helvetica,sans-Serif" font-size="10.00">+ Descriptor()</text>
<text text-anchor="start" x="221.476" y="-558.5" font-family="Helvetica,sans-Serif" font-size="10.00">+ Descriptor()</text>
<text text-anchor="start" x="221.476" y="-547.5" font-family="Helvetica,sans-Serif" font-size="10.00">+ operator=()</text>
<text text-anchor="start" x="221.476" y="-536.5" font-family="Helvetica,sans-Serif" font-size="10.00">+ operator ItgType()</text>
<text text-anchor="start" x="221.476" y="-525.5" font-family="Helvetica,sans-Serif" font-size="10.00">+ Descriptor()</text>
<text text-anchor="start" x="221.476" y="-514.5" font-family="Helvetica,sans-Serif" font-size="10.00">+ runtimeInit()</text>
<text text-anchor="start" x="221.476" y="-503.5" font-family="Helvetica,sans-Serif" font-size="10.00">+ operator==()</text>
<text text-anchor="start" x="221.476" y="-492.5" font-family="Helvetica,sans-Serif" font-size="10.00">+ operator&lt;()</text>
<text text-anchor="start" x="221.476" y="-481.5" font-family="Helvetica,sans-Serif" font-size="10.00">+ operator!=()</text>
<text text-anchor="start" x="221.476" y="-470.5" font-family="Helvetica,sans-Serif" font-size="10.00">+ operator==()</text>
<text text-anchor="start" x="221.476" y="-459.5" font-family="Helvetica,sans-Serif" font-size="10.00">+ operator!=()</text>
<text text-anchor="start" x="221.476" y="-448.5" font-family="Helvetica,sans-Serif" font-size="10.00">+ as()</text>
<text text-anchor="start" x="221.476" y="-437.5" font-family="Helvetica,sans-Serif" font-size="10.00">+ print()</text>
</a>
</g>
</g>
<!-- Node3&#45;&gt;Node7 -->
<g id="edge7" class="edge"><title>Node3&#45;&gt;Node7</title>
<path fill="none" stroke="#404040" d="M100.298,-720.102C117.794,-703.424 144.635,-678.896 169.976,-660 182.137,-650.932 188.042,-652.515 198.976,-642 201.162,-639.898 203.318,-637.718 205.441,-635.474"/>
<polygon fill="none" stroke="#404040" points="205.448,-635.467 206.479,-628.33 213.463,-626.537 212.432,-633.674 205.448,-635.467"/>
<text text-anchor="middle" x="179.976" y="-674" font-family="Helvetica,sans-Serif" font-size="10.00"> +itg</text>
</g>
<!-- Node8 -->
<g id="node8" class="node"><title>Node8</title>
<g id="a_node8"><a xlink:href="../../d9/db3/structo2_1_1header_1_1Descriptor.html" target="_top" xlink:title="{o2::header::Descriptor\l\&lt; gSizeDataDescriptionString,\l printDataDescription \&gt;\n||+ Descriptor()\l+ Descriptor()\l+ Descriptor()\l+ Descriptor()\l+ operator=()\l+ operator ItgType()\l+ runtimeInit()\l+ operator==()\l+ operator==()\l+ operator\&lt;()\l+ operator!=()\l+ operator!=()\l+ as()\l+ print()\l}">
<polygon fill="none" stroke="black" points="252.476,-149.5 252.476,-371.5 401.476,-371.5 401.476,-149.5 252.476,-149.5"/>
<text text-anchor="start" x="260.476" y="-359.5" font-family="Helvetica,sans-Serif" font-size="10.00">o2::header::Descriptor</text>
<text text-anchor="start" x="260.476" y="-348.5" font-family="Helvetica,sans-Serif" font-size="10.00">&lt; gSizeDataDescriptionString,</text>
<text text-anchor="middle" x="326.976" y="-337.5" font-family="Helvetica,sans-Serif" font-size="10.00"> printDataDescription &gt;</text>
<polyline fill="none" stroke="black" points="252.476,-330.5 401.476,-330.5 "/>
<text text-anchor="middle" x="326.976" y="-318.5" font-family="Helvetica,sans-Serif" font-size="10.00"> </text>
<polyline fill="none" stroke="black" points="252.476,-311.5 401.476,-311.5 "/>
<text text-anchor="start" x="260.476" y="-299.5" font-family="Helvetica,sans-Serif" font-size="10.00">+ Descriptor()</text>
<text text-anchor="start" x="260.476" y="-288.5" font-family="Helvetica,sans-Serif" font-size="10.00">+ Descriptor()</text>
<text text-anchor="start" x="260.476" y="-277.5" font-family="Helvetica,sans-Serif" font-size="10.00">+ Descriptor()</text>
<text text-anchor="start" x="260.476" y="-266.5" font-family="Helvetica,sans-Serif" font-size="10.00">+ Descriptor()</text>
<text text-anchor="start" x="260.476" y="-255.5" font-family="Helvetica,sans-Serif" font-size="10.00">+ operator=()</text>
<text text-anchor="start" x="260.476" y="-244.5" font-family="Helvetica,sans-Serif" font-size="10.00">+ operator ItgType()</text>
<text text-anchor="start" x="260.476" y="-233.5" font-family="Helvetica,sans-Serif" font-size="10.00">+ runtimeInit()</text>
<text text-anchor="start" x="260.476" y="-222.5" font-family="Helvetica,sans-Serif" font-size="10.00">+ operator==()</text>
<text text-anchor="start" x="260.476" y="-211.5" font-family="Helvetica,sans-Serif" font-size="10.00">+ operator==()</text>
<text text-anchor="start" x="260.476" y="-200.5" font-family="Helvetica,sans-Serif" font-size="10.00">+ operator&lt;()</text>
<text text-anchor="start" x="260.476" y="-189.5" font-family="Helvetica,sans-Serif" font-size="10.00">+ operator!=()</text>
<text text-anchor="start" x="260.476" y="-178.5" font-family="Helvetica,sans-Serif" font-size="10.00">+ operator!=()</text>
<text text-anchor="start" x="260.476" y="-167.5" font-family="Helvetica,sans-Serif" font-size="10.00">+ as()</text>
<text text-anchor="start" x="260.476" y="-156.5" font-family="Helvetica,sans-Serif" font-size="10.00">+ print()</text>
</a>
</g>
</g>
<!-- Node3&#45;&gt;Node8 -->
<g id="edge12" class="edge"><title>Node3&#45;&gt;Node8</title>
<path fill="none" stroke="#404040" d="M85.3519,-711.314C97.1414,-637.412 129.327,-440.383 138.976,-430 160.258,-407.099 180.795,-429.086 206.976,-412 216.716,-405.643 230.031,-391.616 244.258,-374.56"/>
<polygon fill="none" stroke="#404040" points="244.641,-374.091 245.343,-366.914 252.238,-364.802 251.536,-371.979 244.641,-374.091"/>
<text text-anchor="middle" x="148.976" y="-533.5" font-family="Helvetica,sans-Serif" font-size="10.00"> +itg</text>
</g>
<!-- Node4 -->
<g id="node4" class="node"><title>Node4</title>
<polygon fill="none" stroke="#bfbfbf" points="156.476,-711.5 156.476,-768.5 191.476,-768.5 191.476,-711.5 156.476,-711.5"/>
<text text-anchor="middle" x="173.976" y="-756.5" font-family="Helvetica,sans-Serif" font-size="10.00">char</text>
<polyline fill="none" stroke="#bfbfbf" points="156.476,-749.5 191.476,-749.5 "/>
<text text-anchor="middle" x="173.976" y="-737.5" font-family="Helvetica,sans-Serif" font-size="10.00"> </text>
<polyline fill="none" stroke="#bfbfbf" points="156.476,-730.5 191.476,-730.5 "/>
<text text-anchor="middle" x="173.976" y="-718.5" font-family="Helvetica,sans-Serif" font-size="10.00"> </text>
</g>
<!-- Node4&#45;&gt;Node2 -->
<g id="edge3" class="edge"><title>Node4&#45;&gt;Node2</title>
<path fill="none" stroke="#404040" d="M166.51,-711.291C160.579,-694.257 150.628,-673.233 134.976,-660 113.715,-642.025 91.5948,-664.336 74.9758,-642 45.3505,-602.183 63.2917,-479.086 83.3432,-383.569"/>
<polygon fill="none" stroke="#404040" points="83.3568,-383.505 80.6963,-376.802 85.8599,-371.769 88.5204,-378.471 83.3568,-383.505"/>
<text text-anchor="middle" x="85.4758" y="-533.5" font-family="Helvetica,sans-Serif" font-size="10.00"> +str</text>
</g>
<!-- Node4&#45;&gt;Node7 -->
<g id="edge8" class="edge"><title>Node4&#45;&gt;Node7</title>
<path fill="none" stroke="#404040" d="M185.372,-711.398C191.791,-696.145 200.082,-676.913 207.976,-660 209.106,-657.579 210.255,-655.135 211.42,-652.675"/>
<polygon fill="none" stroke="#404040" points="211.441,-652.631 210.419,-645.492 216.616,-641.804 217.637,-648.942 211.441,-652.631"/>
<text text-anchor="middle" x="218.476" y="-674" font-family="Helvetica,sans-Serif" font-size="10.00"> +str</text>
</g>
<!-- Node4&#45;&gt;Node8 -->
<g id="edge13" class="edge"><title>Node4&#45;&gt;Node8</title>
<path fill="none" stroke="#404040" d="M170.929,-711.393C164.099,-644.144 150.577,-474.125 182.976,-430 197.45,-410.287 215.923,-427.334 234.976,-412 245.972,-403.15 255.991,-392.607 265.029,-381.269"/>
<polygon fill="none" stroke="#404040" points="265.131,-381.134 265.575,-373.937 272.389,-371.578 271.946,-378.775 265.131,-381.134"/>
<text text-anchor="middle" x="193.476" y="-533.5" font-family="Helvetica,sans-Serif" font-size="10.00"> +str</text>
</g>
<!-- Node5 -->
<g id="node5" class="node"><title>Node5</title>
<polygon fill="none" stroke="#bfbfbf" points="355.476,-711.5 355.476,-768.5 384.476,-768.5 384.476,-711.5 355.476,-711.5"/>
<text text-anchor="middle" x="369.976" y="-756.5" font-family="Helvetica,sans-Serif" font-size="10.00">int</text>
<polyline fill="none" stroke="#bfbfbf" points="355.476,-749.5 384.476,-749.5 "/>
<text text-anchor="middle" x="369.976" y="-737.5" font-family="Helvetica,sans-Serif" font-size="10.00"> </text>
<polyline fill="none" stroke="#bfbfbf" points="355.476,-730.5 384.476,-730.5 "/>
<text text-anchor="middle" x="369.976" y="-718.5" font-family="Helvetica,sans-Serif" font-size="10.00"> </text>
</g>
<!-- Node5&#45;&gt;Node2 -->
<g id="edge4" class="edge"><title>Node5&#45;&gt;Node2</title>
<path fill="none" stroke="#404040" d="M369.848,-711.214C369.071,-644.341 364.181,-476.527 334.976,-430 322.127,-409.53 262.454,-386.307 242.976,-372 223.574,-357.75 203.389,-341.411 184.874,-325.746"/>
<polygon fill="none" stroke="#404040" points="184.776,-325.662 177.615,-324.814 175.644,-317.877 182.805,-318.726 184.776,-325.662"/>
<text text-anchor="middle" x="393.476" y="-544.5" font-family="Helvetica,sans-Serif" font-size="10.00"> +arraySize</text>
<text text-anchor="middle" x="393.476" y="-533.5" font-family="Helvetica,sans-Serif" font-size="10.00">+size</text>
<text text-anchor="middle" x="393.476" y="-522.5" font-family="Helvetica,sans-Serif" font-size="10.00">+bitcount</text>
</g>
<!-- Node5&#45;&gt;Node7 -->
<g id="edge9" class="edge"><title>Node5&#45;&gt;Node7</title>
<path fill="none" stroke="#404040" d="M355.191,-738.282C329.13,-736.123 275.549,-727.49 251.976,-693 244.004,-681.336 239.997,-668.002 238.676,-654.152"/>
<polygon fill="none" stroke="#404040" points="238.665,-653.867 234.424,-648.036 238.175,-641.877 242.417,-647.709 238.665,-653.867"/>
<text text-anchor="middle" x="277.476" y="-685" font-family="Helvetica,sans-Serif" font-size="10.00"> +arraySize</text>
<text text-anchor="middle" x="277.476" y="-674" font-family="Helvetica,sans-Serif" font-size="10.00">+size</text>
<text text-anchor="middle" x="277.476" y="-663" font-family="Helvetica,sans-Serif" font-size="10.00">+bitcount</text>
</g>
<!-- Node5&#45;&gt;Node8 -->
<g id="edge14" class="edge"><title>Node5&#45;&gt;Node8</title>
<path fill="none" stroke="#404040" d="M384.727,-719.777C387.355,-716.729 390.158,-713.696 392.976,-711 429.906,-675.666 462.118,-687.715 484.976,-642 527.113,-557.725 519.331,-517.735 484.976,-430 469.604,-390.745 440.214,-355.315 410.91,-327.189"/>
<polygon fill="none" stroke="#404040" points="410.597,-326.897 403.483,-325.719 401.834,-318.699 408.948,-319.877 410.597,-326.897"/>
<text text-anchor="middle" x="538.476" y="-544.5" font-family="Helvetica,sans-Serif" font-size="10.00"> +arraySize</text>
<text text-anchor="middle" x="538.476" y="-533.5" font-family="Helvetica,sans-Serif" font-size="10.00">+size</text>
<text text-anchor="middle" x="538.476" y="-522.5" font-family="Helvetica,sans-Serif" font-size="10.00">+bitcount</text>
</g>
<!-- Node6 -->
<g id="node6" class="node"><title>Node6</title>
<polygon fill="none" stroke="#bfbfbf" points="402.476,-711.5 402.476,-768.5 499.476,-768.5 499.476,-711.5 402.476,-711.5"/>
<text text-anchor="middle" x="450.976" y="-756.5" font-family="Helvetica,sans-Serif" font-size="10.00">anonymous:+@24</text>
<polyline fill="none" stroke="#bfbfbf" points="402.476,-749.5 499.476,-749.5 "/>
<text text-anchor="middle" x="450.976" y="-737.5" font-family="Helvetica,sans-Serif" font-size="10.00"> </text>
<polyline fill="none" stroke="#bfbfbf" points="402.476,-730.5 499.476,-730.5 "/>
<text text-anchor="middle" x="450.976" y="-718.5" font-family="Helvetica,sans-Serif" font-size="10.00"> </text>
</g>
<!-- Node6&#45;&gt;Node2 -->
<g id="edge5" class="edge"><title>Node6&#45;&gt;Node2</title>
<path fill="none" stroke="#404040" d="M450.291,-711.427C448.256,-639.638 441.215,-451.036 422.976,-430 400.236,-403.773 379.229,-424.833 346.976,-412 328.843,-404.785 326.984,-397.519 308.976,-390 280.918,-378.285 269.869,-386.185 242.976,-372 222.673,-361.291 202.75,-346.94 184.837,-332.134"/>
<polygon fill="none" stroke="#404040" points="184.82,-332.12 177.656,-331.296 175.661,-324.366 182.825,-325.19 184.82,-332.12"/>
<text text-anchor="middle" x="463.476" y="-533.5" font-family="Helvetica,sans-Serif" font-size="10.00"> +@24</text>
</g>
<!-- Node6&#45;&gt;Node7 -->
<g id="edge10" class="edge"><title>Node6&#45;&gt;Node7</title>
<path fill="none" stroke="#404040" d="M415.192,-711.364C392.59,-692.996 363.508,-667.62 340.976,-642 338.694,-639.405 336.425,-636.734 334.175,-634.004"/>
<polygon fill="none" stroke="#404040" points="334.1,-633.91 327.231,-631.716 326.614,-624.531 333.483,-626.725 334.1,-633.91"/>
<text text-anchor="middle" x="408.476" y="-674" font-family="Helvetica,sans-Serif" font-size="10.00"> +@24</text>
</g>
<!-- Node6&#45;&gt;Node8 -->
<g id="edge15" class="edge"><title>Node6&#45;&gt;Node8</title>
<path fill="none" stroke="#404040" d="M499.606,-712.838C525.045,-696.247 553.78,-672.208 567.976,-642 608.048,-556.724 611.512,-513.561 567.976,-430 535.412,-367.498 467.888,-323.406 412.578,-296.044"/>
<polygon fill="none" stroke="#404040" points="412.501,-296.008 405.359,-297.004 401.693,-290.795 408.835,-289.798 412.501,-296.008"/>
<text text-anchor="middle" x="614.476" y="-533.5" font-family="Helvetica,sans-Serif" font-size="10.00"> +@24</text>
</g>
<!-- Node7&#45;&gt;Node2 -->
<g id="edge6" class="edge"><title>Node7&#45;&gt;Node2</title>
<path fill="none" stroke="orange" d="M205.365,-435.027C203.281,-433.271 201.151,-431.592 198.976,-430 176.162,-413.311 156.704,-433.172 137.976,-412 127.797,-400.494 120.948,-386.476 116.441,-371.675"/>
<polygon fill="orange" stroke="orange" points="203.426,-437.995 213.172,-442.15 208.144,-432.825 203.426,-437.995"/>
<text text-anchor="start" x="137.976" y="-404" font-family="Helvetica,sans-Serif" font-size="10.00"> &lt; gSizeDataOriginString,</text>
<text text-anchor="middle" x="193.976" y="-393" font-family="Helvetica,sans-Serif" font-size="10.00"> printDataOrigin &gt;</text>
</g>
<!-- Node7&#45;&gt;Node8 -->
<g id="edge16" class="edge"><title>Node7&#45;&gt;Node8</title>
<path fill="none" stroke="orange" d="M301.09,-420.6C301.741,-417.708 302.37,-414.838 302.976,-412 305.735,-399.062 308.332,-385.436 310.725,-371.886"/>
<polygon fill="orange" stroke="orange" points="297.644,-419.969 298.805,-430.5 304.464,-421.543 297.644,-419.969"/>
<text text-anchor="start" x="307.976" y="-404" font-family="Helvetica,sans-Serif" font-size="10.00"> &lt; gSizeDataDescriptionString,</text>
<text text-anchor="middle" x="375.976" y="-393" font-family="Helvetica,sans-Serif" font-size="10.00"> printDataDescription &gt;</text>
</g>
<!-- Node8&#45;&gt;Node1 -->
<g id="edge11" class="edge"><title>Node8&#45;&gt;Node1</title>
<path fill="none" stroke="#404040" d="M285.578,-149.371C280.923,-136.988 276.314,-124.727 272.017,-113.297"/>
<polygon fill="none" stroke="#404040" points="271.887,-112.948 266.031,-108.74 267.664,-101.716 273.52,-105.925 271.887,-112.948"/>
<text text-anchor="middle" x="315.976" y="-123" font-family="Helvetica,sans-Serif" font-size="10.00"> +dataDescription</text>
</g>
</g>
</svg>
        <g id="navigator" transform="translate(0 0)" fill="#404254">
                <rect fill="#f2f5e9" fill-opacity="0.5" stroke="#606060" stroke-width=".5" x="0" y="0" width="60" height="60"/>
                <use id="zoomplus" xlink:href="#zoomPlus" x="17" y="9" onmousedown="handleZoom(evt,'in')"/>
                <use id="zoomminus" xlink:href="#zoomMin" x="42" y="9" onmousedown="handleZoom(evt,'out')"/>
                <use id="reset" xlink:href="#resetDef" x="30" y="36" onmousedown="handleReset()"/>
                <g id="arrowUp" xlink:href="#dirArrow" transform="translate(30 24)" onmousedown="handlePan(0,-1)">
                  <use xlink:href="#rim" fill="#404040">
                        <set attributeName="fill" to="#808080" begin="arrowUp.mouseover" end="arrowUp.mouseout"/>
                  </use>
                  <path fill="none" stroke="white" stroke-width="1.5" d="M0,-3.0v7 M-2.5,-0.5L0,-3.0L2.5,-0.5"/>
                </g>
                <g id="arrowRight" xlink:href="#dirArrow" transform="rotate(90) translate(36 -43)" onmousedown="handlePan(1,0)">
                  <use xlink:href="#rim" fill="#404040">
                        <set attributeName="fill" to="#808080" begin="arrowRight.mouseover" end="arrowRight.mouseout"/>
                  </use>
                  <path fill="none" stroke="white" stroke-width="1.5" d="M0,-3.0v7 M-2.5,-0.5L0,-3.0L2.5,-0.5"/>
                </g>
                <g id="arrowDown" xlink:href="#dirArrow" transform="rotate(180) translate(-30 -48)" onmousedown="handlePan(0,1)">
                  <use xlink:href="#rim" fill="#404040">
                        <set attributeName="fill" to="#808080" begin="arrowDown.mouseover" end="arrowDown.mouseout"/>
                  </use>
                  <path fill="none" stroke="white" stroke-width="1.5" d="M0,-3.0v7 M-2.5,-0.5L0,-3.0L2.5,-0.5"/>
                </g>
                <g id="arrowLeft" xlink:href="#dirArrow" transform="rotate(270) translate(-36 17)" onmousedown="handlePan(-1,0)">
                  <use xlink:href="#rim" fill="#404040">
                        <set attributeName="fill" to="#808080" begin="arrowLeft.mouseover" end="arrowLeft.mouseout"/>
                  </use>
                  <path fill="none" stroke="white" stroke-width="1.5" d="M0,-3.0v7 M-2.5,-0.5L0,-3.0L2.5,-0.5"/>
                </g>
        </g>
        <svg viewBox="0 0 15 15" width="100%" height="30px" preserveAspectRatio="xMaxYMin meet">
         <g id="arrow_out" transform="scale(0.3 0.3)">
          <a xlink:href="structo2_1_1header_1_1DataIdentifier__coll__graph_org.svg" target="_base">
           <rect id="button" ry="5" rx="5" y="6" x="6" height="38" width="38"
                fill="#f2f5e9" fill-opacity="0.5" stroke="#606060" stroke-width="1.0"/>
           <path id="arrow"
             d="M 11.500037,31.436501 C 11.940474,20.09759 22.043105,11.32322 32.158766,21.979434 L 37.068811,17.246167 C 37.068811,17.246167 37.088388,32 37.088388,32 L 22.160133,31.978069 C 22.160133,31.978069 26.997745,27.140456 26.997745,27.140456 C 18.528582,18.264221 13.291696,25.230495 11.500037,31.436501 z"
             style="fill:#404040;"/>
          </a>
         </g>
        </svg>
</svg>
