<?xml version="1.0" encoding="UTF-8" standalone="no"?>
<!DOCTYPE svg PUBLIC "-//W3C//DTD SVG 1.1//EN"
 "http://www.w3.org/Graphics/SVG/1.1/DTD/svg11.dtd">
<!-- Generated by graphviz version 2.38.0 (20140413.2041)
 -->
<!-- Title: /home/travis/build/AliceO2Group/AliceO2/Framework/Core/include/Framework/Expressions.h Pages: 1 -->
<svg width="1192pt" height="173pt"
 viewBox="0.00 0.00 1191.50 173.00" xmlns="http://www.w3.org/2000/svg" xmlns:xlink="http://www.w3.org/1999/xlink">
<g id="graph0" class="graph" transform="scale(1 1) rotate(0) translate(4 169)">
<title>/home/travis/build/AliceO2Group/AliceO2/Framework/Core/include/Framework/Expressions.h</title>
<!-- Node1 -->
<g id="node1" class="node"><title>Node1</title>
<polygon fill="#bfbfbf" stroke="black" points="656.5,-112.5 656.5,-164.5 790.5,-164.5 790.5,-112.5 656.5,-112.5"/>
<text text-anchor="start" x="664.5" y="-152.5" font-family="Helvetica,sans-Serif" font-size="10.00">/home/travis/build</text>
<text text-anchor="start" x="664.5" y="-141.5" font-family="Helvetica,sans-Serif" font-size="10.00">/AliceO2Group/AliceO2</text>
<text text-anchor="start" x="664.5" y="-130.5" font-family="Helvetica,sans-Serif" font-size="10.00">/Framework/Core/include</text>
<text text-anchor="middle" x="723.5" y="-119.5" font-family="Helvetica,sans-Serif" font-size="10.00">/Framework/Expressions.h</text>
</g>
<!-- Node2 -->
<g id="node2" class="node"><title>Node2</title>
<g id="a_node2"><a xlink:href="../../dd/dc2/BasicOps_8h.html" target="_top" xlink:title="Framework/BasicOps.h">
<polygon fill="none" stroke="black" points="0,-56.5 0,-75.5 119,-75.5 119,-56.5 0,-56.5"/>
<text text-anchor="middle" x="59.5" y="-63.5" font-family="Helvetica,sans-Serif" font-size="10.00">Framework/BasicOps.h</text>
</a>
</g>
</g>
<!-- Node1&#45;&gt;Node2 -->
<g id="edge1" class="edge"><title>Node1&#45;&gt;Node2</title>
<path fill="none" stroke="midnightblue" d="M656.066,-131.122C547.517,-120.724 327.055,-99.0672 129.321,-76.0687"/>
<polygon fill="midnightblue" stroke="midnightblue" points="129.665,-72.5852 119.327,-74.9029 128.854,-79.5381 129.665,-72.5852"/>
</g>
<!-- Node3 -->
<g id="node3" class="node"><title>Node3</title>
<g id="a_node3"><a xlink:href="../../d9/de8/CompilerBuiltins_8h.html" target="_top" xlink:title="Framework/CompilerBuiltins.h">
<polygon fill="none" stroke="black" points="137.5,-56.5 137.5,-75.5 285.5,-75.5 285.5,-56.5 137.5,-56.5"/>
<text text-anchor="middle" x="211.5" y="-63.5" font-family="Helvetica,sans-Serif" font-size="10.00">Framework/CompilerBuiltins.h</text>
</a>
</g>
</g>
<!-- Node1&#45;&gt;Node3 -->
<g id="edge2" class="edge"><title>Node1&#45;&gt;Node3</title>
<path fill="none" stroke="midnightblue" d="M656.302,-128.247C559.777,-114.956 382.62,-90.5625 283.5,-76.914"/>
<polygon fill="midnightblue" stroke="midnightblue" points="283.954,-73.4436 273.57,-75.5467 282.999,-80.3782 283.954,-73.4436"/>
</g>
<!-- Node4 -->
<g id="node4" class="node"><title>Node4</title>
<g id="a_node4"><a xlink:href="../../de/d9b/FunctionalHelpers_8h.html" target="_top" xlink:title="Framework/FunctionalHelpers.h">
<polygon fill="none" stroke="black" points="304,-56.5 304,-75.5 459,-75.5 459,-56.5 304,-56.5"/>
<text text-anchor="middle" x="381.5" y="-63.5" font-family="Helvetica,sans-Serif" font-size="10.00">Framework/FunctionalHelpers.h</text>
</a>
</g>
</g>
<!-- Node1&#45;&gt;Node4 -->
<g id="edge3" class="edge"><title>Node1&#45;&gt;Node4</title>
<path fill="none" stroke="midnightblue" d="M656.34,-123.656C590.874,-110.161 492.73,-89.929 433.148,-77.6468"/>
<polygon fill="midnightblue" stroke="midnightblue" points="433.709,-74.189 423.209,-75.5979 432.296,-81.0448 433.709,-74.189"/>
</g>
<!-- Node6 -->
<g id="node6" class="node"><title>Node6</title>
<polygon fill="none" stroke="#bfbfbf" points="477,-56.5 477,-75.5 548,-75.5 548,-56.5 477,-56.5"/>
<text text-anchor="middle" x="512.5" y="-63.5" font-family="Helvetica,sans-Serif" font-size="10.00">arrow/type.h</text>
</g>
<!-- Node1&#45;&gt;Node6 -->
<g id="edge5" class="edge"><title>Node1&#45;&gt;Node6</title>
<path fill="none" stroke="midnightblue" d="M656.448,-115.096C620.395,-103.05 577.401,-88.6851 547.844,-78.8094"/>
<polygon fill="midnightblue" stroke="midnightblue" points="548.577,-75.3641 537.984,-75.5146 546.359,-82.0033 548.577,-75.3641"/>
</g>
<!-- Node7 -->
<g id="node7" class="node"><title>Node7</title>
<polygon fill="none" stroke="#bfbfbf" points="566,-56.5 566,-75.5 639,-75.5 639,-56.5 566,-56.5"/>
<text text-anchor="middle" x="602.5" y="-63.5" font-family="Helvetica,sans-Serif" font-size="10.00">arrow/table.h</text>
</g>
<!-- Node1&#45;&gt;Node7 -->
<g id="edge6" class="edge"><title>Node1&#45;&gt;Node7</title>
<path fill="none" stroke="midnightblue" d="M680.499,-112.446C662.161,-101.761 641.476,-89.709 626.017,-80.7021"/>
<polygon fill="midnightblue" stroke="midnightblue" points="627.537,-77.5372 617.135,-75.527 624.013,-83.5854 627.537,-77.5372"/>
</g>
<!-- Node8 -->
<g id="node8" class="node"><title>Node8</title>
<polygon fill="none" stroke="#bfbfbf" points="657,-56.5 657,-75.5 790,-75.5 790,-56.5 657,-56.5"/>
<text text-anchor="middle" x="723.5" y="-63.5" font-family="Helvetica,sans-Serif" font-size="10.00">gandiva/selection_vector.h</text>
</g>
<!-- Node1&#45;&gt;Node8 -->
<g id="edge7" class="edge"><title>Node1&#45;&gt;Node8</title>
<path fill="none" stroke="midnightblue" d="M723.5,-112.446C723.5,-103.73 723.5,-94.1045 723.5,-85.9641"/>
<polygon fill="midnightblue" stroke="midnightblue" points="727,-85.6954 723.5,-75.6955 720,-85.6955 727,-85.6954"/>
</g>
<!-- Node9 -->
<g id="node9" class="node"><title>Node9</title>
<polygon fill="none" stroke="#bfbfbf" points="808,-56.5 808,-75.5 891,-75.5 891,-56.5 808,-56.5"/>
<text text-anchor="middle" x="849.5" y="-63.5" font-family="Helvetica,sans-Serif" font-size="10.00">gandiva/node.h</text>
</g>
<!-- Node1&#45;&gt;Node9 -->
<g id="edge8" class="edge"><title>Node1&#45;&gt;Node9</title>
<path fill="none" stroke="midnightblue" d="M768.278,-112.446C787.554,-101.66 809.32,-89.4814 825.465,-80.448"/>
<polygon fill="midnightblue" stroke="midnightblue" points="827.242,-83.4643 834.26,-75.527 823.824,-77.3555 827.242,-83.4643"/>
</g>
<!-- Node10 -->
<g id="node10" class="node"><title>Node10</title>
<polygon fill="none" stroke="#bfbfbf" points="909.5,-56.5 909.5,-75.5 989.5,-75.5 989.5,-56.5 909.5,-56.5"/>
<text text-anchor="middle" x="949.5" y="-63.5" font-family="Helvetica,sans-Serif" font-size="10.00">gandiva/filter.h</text>
</g>
<!-- Node1&#45;&gt;Node10 -->
<g id="edge9" class="edge"><title>Node1&#45;&gt;Node10</title>
<path fill="none" stroke="midnightblue" d="M790.696,-116.539C830.551,-104.106 879.558,-88.8182 912.501,-78.5417"/>
<polygon fill="midnightblue" stroke="midnightblue" points="913.677,-81.8413 922.181,-75.522 911.593,-75.1588 913.677,-81.8413"/>
</g>
<!-- Node11 -->
<g id="node11" class="node"><title>Node11</title>
<polygon fill="none" stroke="#bfbfbf" points="1007.5,-56.5 1007.5,-75.5 1053.5,-75.5 1053.5,-56.5 1007.5,-56.5"/>
<text text-anchor="middle" x="1030.5" y="-63.5" font-family="Helvetica,sans-Serif" font-size="10.00">variant</text>
</g>
<!-- Node1&#45;&gt;Node11 -->
<g id="edge10" class="edge"><title>Node1&#45;&gt;Node11</title>
<path fill="none" stroke="midnightblue" d="M790.704,-123.534C844.24,-112.164 921.303,-95.2554 997.674,-76.1075"/>
<polygon fill="midnightblue" stroke="midnightblue" points="998.627,-79.4769 1007.47,-73.6386 996.916,-72.6893 998.627,-79.4769"/>
</g>
<!-- Node12 -->
<g id="node12" class="node"><title>Node12</title>
<polygon fill="none" stroke="#bfbfbf" points="1072,-56.5 1072,-75.5 1113,-75.5 1113,-56.5 1072,-56.5"/>
<text text-anchor="middle" x="1092.5" y="-63.5" font-family="Helvetica,sans-Serif" font-size="10.00">string</text>
</g>
<!-- Node1&#45;&gt;Node12 -->
<g id="edge11" class="edge"><title>Node1&#45;&gt;Node12</title>
<path fill="none" stroke="midnightblue" d="M790.536,-127.61C857.043,-117.285 961.97,-99.6163 1061.96,-75.893"/>
<polygon fill="midnightblue" stroke="midnightblue" points="1063.02,-79.2377 1071.93,-73.503 1061.39,-72.4306 1063.02,-79.2377"/>
</g>
<!-- Node13 -->
<g id="node13" class="node"><title>Node13</title>
<polygon fill="none" stroke="#bfbfbf" points="1131.5,-56.5 1131.5,-75.5 1183.5,-75.5 1183.5,-56.5 1131.5,-56.5"/>
<text text-anchor="middle" x="1157.5" y="-63.5" font-family="Helvetica,sans-Serif" font-size="10.00">memory</text>
</g>
<!-- Node1&#45;&gt;Node13 -->
<g id="edge12" class="edge"><title>Node1&#45;&gt;Node13</title>
<path fill="none" stroke="midnightblue" d="M790.574,-129.22C868.052,-119.194 999.479,-100.769 1121.32,-76.0815"/>
<polygon fill="midnightblue" stroke="midnightblue" points="1122.1,-79.4945 1131.19,-74.062 1120.69,-72.6364 1122.1,-79.4945"/>
</g>
<!-- Node5 -->
<g id="node5" class="node"><title>Node5</title>
<polygon fill="none" stroke="#bfbfbf" points="352,-0.5 352,-19.5 411,-19.5 411,-0.5 352,-0.5"/>
<text text-anchor="middle" x="381.5" y="-7.5" font-family="Helvetica,sans-Serif" font-size="10.00">functional</text>
</g>
<!-- Node4&#45;&gt;Node5 -->
<g id="edge4" class="edge"><title>Node4&#45;&gt;Node5</title>
<path fill="none" stroke="midnightblue" d="M381.5,-56.083C381.5,-49.0059 381.5,-38.8611 381.5,-29.9865"/>
<polygon fill="midnightblue" stroke="midnightblue" points="385,-29.751 381.5,-19.7511 378,-29.7511 385,-29.751"/>
</g>
</g>
</svg>
