<?xml version="1.0" encoding="UTF-8" standalone="no"?>
<!DOCTYPE svg PUBLIC "-//W3C//DTD SVG 1.1//EN"
 "http://www.w3.org/Graphics/SVG/1.1/DTD/svg11.dtd">
<!-- Generated by graphviz version 2.38.0 (20140413.2041)
 -->
<!-- Title: /home/travis/build/AliceO2Group/AliceO2/Detectors/TRD/base/include/TRDBase/CalOnlineGainTables.h Pages: 1 -->
<svg width="2142pt" height="497pt"
 viewBox="0.00 0.00 2142.40 497.00" xmlns="http://www.w3.org/2000/svg" xmlns:xlink="http://www.w3.org/1999/xlink">
<g id="graph0" class="graph" transform="scale(1 1) rotate(0) translate(4 493)">
<title>/home/travis/build/AliceO2Group/AliceO2/Detectors/TRD/base/include/TRDBase/CalOnlineGainTables.h</title>
<!-- Node1 -->
<g id="node1" class="node"><title>Node1</title>
<polygon fill="#bfbfbf" stroke="black" points="1593.9,-436.5 1593.9,-488.5 1760.9,-488.5 1760.9,-436.5 1593.9,-436.5"/>
<text text-anchor="start" x="1601.9" y="-476.5" font-family="Helvetica,sans-Serif" font-size="10.00">/home/travis/build</text>
<text text-anchor="start" x="1601.9" y="-465.5" font-family="Helvetica,sans-Serif" font-size="10.00">/AliceO2Group/AliceO2</text>
<text text-anchor="start" x="1601.9" y="-454.5" font-family="Helvetica,sans-Serif" font-size="10.00">/Detectors/TRD/base/include</text>
<text text-anchor="middle" x="1677.4" y="-443.5" font-family="Helvetica,sans-Serif" font-size="10.00">/TRDBase/CalOnlineGainTables.h</text>
</g>
<!-- Node2 -->
<g id="node2" class="node"><title>Node2</title>
<polygon fill="none" stroke="#bfbfbf" points="1650.4,-118 1650.4,-137 1688.4,-137 1688.4,-118 1650.4,-118"/>
<text text-anchor="middle" x="1669.4" y="-125" font-family="Helvetica,sans-Serif" font-size="10.00">array</text>
</g>
<!-- Node1&#45;&gt;Node2 -->
<g id="edge1" class="edge"><title>Node1&#45;&gt;Node2</title>
<path fill="none" stroke="midnightblue" d="M1651.14,-436.344C1630.15,-414.283 1602.33,-380.157 1590.4,-344 1565.66,-268.997 1626.58,-180.955 1655.36,-145.024"/>
<polygon fill="midnightblue" stroke="midnightblue" points="1658.26,-147 1661.91,-137.052 1652.85,-142.556 1658.26,-147"/>
</g>
<!-- Node3 -->
<g id="node3" class="node"><title>Node3</title>
<g id="a_node3"><a xlink:href="../../dd/d07/TRDGeometry_8h.html" target="_top" xlink:title="TRDBase/TRDGeometry.h">
<polygon fill="none" stroke="black" points="1715.9,-380.5 1715.9,-399.5 1850.9,-399.5 1850.9,-380.5 1715.9,-380.5"/>
<text text-anchor="middle" x="1783.4" y="-387.5" font-family="Helvetica,sans-Serif" font-size="10.00">TRDBase/TRDGeometry.h</text>
</a>
</g>
</g>
<!-- Node1&#45;&gt;Node3 -->
<g id="edge2" class="edge"><title>Node1&#45;&gt;Node3</title>
<path fill="none" stroke="midnightblue" d="M1715.07,-436.446C1730.83,-425.963 1748.57,-414.163 1762.03,-405.215"/>
<polygon fill="midnightblue" stroke="midnightblue" points="1764.19,-407.979 1770.58,-399.527 1760.32,-402.151 1764.19,-407.979"/>
</g>
<!-- Node4 -->
<g id="node4" class="node"><title>Node4</title>
<g id="a_node4"><a xlink:href="../../d8/dad/TRDGeometryBase_8h.html" target="_top" xlink:title="TRDBase/TRDGeometryBase.h">
<polygon fill="none" stroke="black" points="117.401,-319 117.401,-338 275.401,-338 275.401,-319 117.401,-319"/>
<text text-anchor="middle" x="196.401" y="-326" font-family="Helvetica,sans-Serif" font-size="10.00">TRDBase/TRDGeometryBase.h</text>
</a>
</g>
</g>
<!-- Node3&#45;&gt;Node4 -->
<g id="edge3" class="edge"><title>Node3&#45;&gt;Node4</title>
<path fill="none" stroke="midnightblue" d="M1715.72,-386.462C1462.67,-376.975 572.136,-343.587 285.793,-332.851"/>
<polygon fill="midnightblue" stroke="midnightblue" points="285.58,-329.341 275.456,-332.464 285.318,-336.336 285.58,-329.341"/>
</g>
<!-- Node12 -->
<g id="node12" class="node"><title>Node12</title>
<g id="a_node12"><a xlink:href="../../d4/d20/DetMatrixCache_8h.html" target="_top" xlink:title="DetectorsCommonDataFormats\l/DetMatrixCache.h">
<polygon fill="none" stroke="black" points="1599.4,-313.5 1599.4,-343.5 1755.4,-343.5 1755.4,-313.5 1599.4,-313.5"/>
<text text-anchor="start" x="1607.4" y="-331.5" font-family="Helvetica,sans-Serif" font-size="10.00">DetectorsCommonDataFormats</text>
<text text-anchor="middle" x="1677.4" y="-320.5" font-family="Helvetica,sans-Serif" font-size="10.00">/DetMatrixCache.h</text>
</a>
</g>
</g>
<!-- Node3&#45;&gt;Node12 -->
<g id="edge13" class="edge"><title>Node3&#45;&gt;Node12</title>
<path fill="none" stroke="midnightblue" d="M1768.21,-380.475C1753.39,-372.153 1730.33,-359.207 1711.15,-348.445"/>
<polygon fill="midnightblue" stroke="midnightblue" points="1712.82,-345.366 1702.38,-343.523 1709.39,-351.47 1712.82,-345.366"/>
</g>
<!-- Node16 -->
<g id="node16" class="node"><title>Node16</title>
<polygon fill="none" stroke="#bfbfbf" points="1904.4,-252 1904.4,-271 1948.4,-271 1948.4,-252 1904.4,-252"/>
<text text-anchor="middle" x="1926.4" y="-259" font-family="Helvetica,sans-Serif" font-size="10.00">vector</text>
</g>
<!-- Node3&#45;&gt;Node16 -->
<g id="edge50" class="edge"><title>Node3&#45;&gt;Node16</title>
<path fill="none" stroke="midnightblue" d="M1851.2,-385.991C1881.09,-380.864 1913.63,-369.274 1932.4,-344 1945.91,-325.804 1940.23,-298.581 1934.04,-280.683"/>
<polygon fill="midnightblue" stroke="midnightblue" points="1937.23,-279.222 1930.38,-271.134 1930.69,-281.724 1937.23,-279.222"/>
</g>
<!-- Node17 -->
<g id="node17" class="node"><title>Node17</title>
<g id="a_node17"><a xlink:href="../../d6/d31/DetID_8h.html" target="_top" xlink:title="DetectorsCommonDataFormats\l/DetID.h">
<polygon fill="none" stroke="black" points="1705.4,-246.5 1705.4,-276.5 1861.4,-276.5 1861.4,-246.5 1705.4,-246.5"/>
<text text-anchor="start" x="1713.4" y="-264.5" font-family="Helvetica,sans-Serif" font-size="10.00">DetectorsCommonDataFormats</text>
<text text-anchor="middle" x="1783.4" y="-253.5" font-family="Helvetica,sans-Serif" font-size="10.00">/DetID.h</text>
</a>
</g>
</g>
<!-- Node3&#45;&gt;Node17 -->
<g id="edge48" class="edge"><title>Node3&#45;&gt;Node17</title>
<path fill="none" stroke="midnightblue" d="M1783.4,-380.305C1783.4,-361.298 1783.4,-315.47 1783.4,-286.9"/>
<polygon fill="midnightblue" stroke="midnightblue" points="1786.9,-286.888 1783.4,-276.888 1779.9,-286.888 1786.9,-286.888"/>
</g>
<!-- Node38 -->
<g id="node38" class="node"><title>Node38</title>
<polygon fill="none" stroke="#bfbfbf" points="1811.9,-319 1811.9,-338 1852.9,-338 1852.9,-319 1811.9,-319"/>
<text text-anchor="middle" x="1832.4" y="-326" font-family="Helvetica,sans-Serif" font-size="10.00">string</text>
</g>
<!-- Node3&#45;&gt;Node38 -->
<g id="edge49" class="edge"><title>Node3&#45;&gt;Node38</title>
<path fill="none" stroke="midnightblue" d="M1790.42,-380.475C1797.84,-371.462 1809.73,-357.025 1818.97,-345.812"/>
<polygon fill="midnightblue" stroke="midnightblue" points="1821.74,-347.953 1825.39,-338.009 1816.34,-343.503 1821.74,-347.953"/>
</g>
<!-- Node39 -->
<g id="node39" class="node"><title>Node39</title>
<polygon fill="none" stroke="#bfbfbf" points="1871.4,-319 1871.4,-338 1923.4,-338 1923.4,-319 1871.4,-319"/>
<text text-anchor="middle" x="1897.4" y="-326" font-family="Helvetica,sans-Serif" font-size="10.00">memory</text>
</g>
<!-- Node3&#45;&gt;Node39 -->
<g id="edge51" class="edge"><title>Node3&#45;&gt;Node39</title>
<path fill="none" stroke="midnightblue" d="M1799.73,-380.475C1818.61,-370.622 1849.91,-354.288 1871.98,-342.77"/>
<polygon fill="midnightblue" stroke="midnightblue" points="1873.85,-345.739 1881.1,-338.009 1870.61,-339.533 1873.85,-345.739"/>
</g>
<!-- Node5 -->
<g id="node5" class="node"><title>Node5</title>
<g id="a_node5"><a xlink:href="../../df/d21/GPUCommonDef_8h.html" target="_top" xlink:title="GPUCommonDef.h">
<polygon fill="none" stroke="black" points="848.401,-56.5 848.401,-75.5 950.401,-75.5 950.401,-56.5 848.401,-56.5"/>
<text text-anchor="middle" x="899.401" y="-63.5" font-family="Helvetica,sans-Serif" font-size="10.00">GPUCommonDef.h</text>
</a>
</g>
</g>
<!-- Node4&#45;&gt;Node5 -->
<g id="edge4" class="edge"><title>Node4&#45;&gt;Node5</title>
<path fill="none" stroke="midnightblue" d="M117.354,-321.783C87.3446,-315.297 55.9566,-302.362 37.4014,-277 9.97619,-239.514 -38.3767,-198.538 55.4014,-112 84.1072,-85.5104 649.099,-71.9524 838.279,-68.1421"/>
<polygon fill="midnightblue" stroke="midnightblue" points="838.406,-71.6404 848.334,-67.9416 838.266,-64.6417 838.406,-71.6404"/>
</g>
<!-- Node8 -->
<g id="node8" class="node"><title>Node8</title>
<g id="a_node8"><a xlink:href="../../da/d32/TRDCommonParam_8h.html" target="_top" xlink:title="TRDBase/TRDCommonParam.h">
<polygon fill="none" stroke="black" points="198.901,-252 198.901,-271 359.901,-271 359.901,-252 198.901,-252"/>
<text text-anchor="middle" x="279.401" y="-259" font-family="Helvetica,sans-Serif" font-size="10.00">TRDBase/TRDCommonParam.h</text>
</a>
</g>
</g>
<!-- Node4&#45;&gt;Node8 -->
<g id="edge7" class="edge"><title>Node4&#45;&gt;Node8</title>
<path fill="none" stroke="midnightblue" d="M207.595,-318.734C221.036,-308.208 243.802,-290.379 260.098,-277.617"/>
<polygon fill="midnightblue" stroke="midnightblue" points="262.67,-280.049 268.385,-271.127 258.354,-274.537 262.67,-280.049"/>
</g>
<!-- Node11 -->
<g id="node11" class="node"><title>Node11</title>
<g id="a_node11"><a xlink:href="../../de/df3/TRDPadPlane_8h.html" target="_top" xlink:title="TRDBase/TRDPadPlane.h">
<polygon fill="none" stroke="black" points="46.4014,-252 46.4014,-271 180.401,-271 180.401,-252 46.4014,-252"/>
<text text-anchor="middle" x="113.401" y="-259" font-family="Helvetica,sans-Serif" font-size="10.00">TRDBase/TRDPadPlane.h</text>
</a>
</g>
</g>
<!-- Node4&#45;&gt;Node11 -->
<g id="edge10" class="edge"><title>Node4&#45;&gt;Node11</title>
<path fill="none" stroke="midnightblue" d="M185.208,-318.734C171.767,-308.208 149.001,-290.379 132.705,-277.617"/>
<polygon fill="midnightblue" stroke="midnightblue" points="134.449,-274.537 124.418,-271.127 130.133,-280.049 134.449,-274.537"/>
</g>
<!-- Node6 -->
<g id="node6" class="node"><title>Node6</title>
<g id="a_node6"><a xlink:href="../../d5/d93/GPUCommonDefSettings_8h.html" target="_top" xlink:title="GPUCommonDefSettings.h">
<polygon fill="none" stroke="black" points="757.401,-0.5 757.401,-19.5 895.401,-19.5 895.401,-0.5 757.401,-0.5"/>
<text text-anchor="middle" x="826.401" y="-7.5" font-family="Helvetica,sans-Serif" font-size="10.00">GPUCommonDefSettings.h</text>
</a>
</g>
</g>
<!-- Node5&#45;&gt;Node6 -->
<g id="edge5" class="edge"><title>Node5&#45;&gt;Node6</title>
<path fill="none" stroke="midnightblue" d="M887.673,-56.324C876.564,-48.1066 859.659,-35.6017 846.418,-25.8069"/>
<polygon fill="midnightblue" stroke="midnightblue" points="848.464,-22.9671 838.343,-19.8339 844.302,-28.5948 848.464,-22.9671"/>
</g>
<!-- Node7 -->
<g id="node7" class="node"><title>Node7</title>
<g id="a_node7"><a xlink:href="../../da/d5a/GPUCommonDefAPI_8h.html" target="_top" xlink:title="GPUCommonDefAPI.h">
<polygon fill="none" stroke="black" points="913.901,-0.5 913.901,-19.5 1032.9,-19.5 1032.9,-0.5 913.901,-0.5"/>
<text text-anchor="middle" x="973.401" y="-7.5" font-family="Helvetica,sans-Serif" font-size="10.00">GPUCommonDefAPI.h</text>
</a>
</g>
</g>
<!-- Node5&#45;&gt;Node7 -->
<g id="edge6" class="edge"><title>Node5&#45;&gt;Node7</title>
<path fill="none" stroke="midnightblue" d="M911.291,-56.324C922.552,-48.1066 939.688,-35.6017 953.111,-25.8069"/>
<polygon fill="midnightblue" stroke="midnightblue" points="955.281,-28.5559 961.296,-19.8339 951.155,-22.9014 955.281,-28.5559"/>
</g>
<!-- Node9 -->
<g id="node9" class="node"><title>Node9</title>
<g id="a_node9"><a xlink:href="../../d2/d45/GPUCommonRtypes_8h.html" target="_top" xlink:title="GPUCommonRtypes.h">
<polygon fill="none" stroke="black" points="84.4014,-185 84.4014,-204 202.401,-204 202.401,-185 84.4014,-185"/>
<text text-anchor="middle" x="143.401" y="-192" font-family="Helvetica,sans-Serif" font-size="10.00">GPUCommonRtypes.h</text>
</a>
</g>
</g>
<!-- Node8&#45;&gt;Node9 -->
<g id="edge8" class="edge"><title>Node8&#45;&gt;Node9</title>
<path fill="none" stroke="midnightblue" d="M261.342,-251.869C238.175,-240.796 197.773,-221.486 170.806,-208.598"/>
<polygon fill="midnightblue" stroke="midnightblue" points="172.068,-205.322 161.536,-204.167 169.049,-211.637 172.068,-205.322"/>
</g>
<!-- Node10 -->
<g id="node10" class="node"><title>Node10</title>
<polygon fill="none" stroke="#bfbfbf" points="448.401,-118 448.401,-137 504.401,-137 504.401,-118 448.401,-118"/>
<text text-anchor="middle" x="476.401" y="-125" font-family="Helvetica,sans-Serif" font-size="10.00">Rtypes.h</text>
</g>
<!-- Node9&#45;&gt;Node10 -->
<g id="edge9" class="edge"><title>Node9&#45;&gt;Node10</title>
<path fill="none" stroke="midnightblue" d="M181.809,-184.935C191.45,-182.889 201.788,-180.783 211.401,-179 312.271,-160.296 340.395,-169.874 439.401,-143 441.996,-142.296 444.658,-141.47 447.307,-140.576"/>
<polygon fill="midnightblue" stroke="midnightblue" points="448.513,-143.861 456.698,-137.134 446.104,-137.289 448.513,-143.861"/>
</g>
<!-- Node11&#45;&gt;Node5 -->
<g id="edge12" class="edge"><title>Node11&#45;&gt;Node5</title>
<path fill="none" stroke="midnightblue" d="M104.073,-251.893C94.7562,-242.603 81.0357,-226.858 75.4014,-210 61.5952,-168.69 45.4544,-143.627 75.4014,-112 101.55,-84.3847 651.33,-71.6194 838.01,-68.0697"/>
<polygon fill="midnightblue" stroke="midnightblue" points="838.27,-71.5656 848.203,-67.8783 838.139,-64.5668 838.27,-71.5656"/>
</g>
<!-- Node11&#45;&gt;Node9 -->
<g id="edge11" class="edge"><title>Node11&#45;&gt;Node9</title>
<path fill="none" stroke="midnightblue" d="M117.447,-251.734C121.946,-241.988 129.333,-225.981 135.079,-213.532"/>
<polygon fill="midnightblue" stroke="midnightblue" points="138.407,-214.674 139.42,-204.127 132.051,-211.74 138.407,-214.674"/>
</g>
<!-- Node12&#45;&gt;Node2 -->
<g id="edge18" class="edge"><title>Node12&#45;&gt;Node2</title>
<path fill="none" stroke="midnightblue" d="M1676.83,-313.188C1675.41,-277.986 1671.76,-187.172 1670.17,-147.508"/>
<polygon fill="midnightblue" stroke="midnightblue" points="1673.66,-147.211 1669.76,-137.36 1666.66,-147.493 1673.66,-147.211"/>
</g>
<!-- Node12&#45;&gt;Node9 -->
<g id="edge17" class="edge"><title>Node12&#45;&gt;Node9</title>
<path fill="none" stroke="midnightblue" d="M1599.13,-326.225C1428.44,-322.871 1010.04,-311.534 661.401,-277 460.182,-257.068 410.377,-245.991 211.401,-210 205.009,-208.844 198.3,-207.533 191.689,-206.184"/>
<polygon fill="midnightblue" stroke="midnightblue" points="191.945,-202.662 181.441,-204.048 190.517,-209.515 191.945,-202.662"/>
</g>
<!-- Node13 -->
<g id="node13" class="node"><title>Node13</title>
<g id="a_node13"><a xlink:href="../../df/d5b/GPUCommonLogger_8h.html" target="_top" xlink:title="GPUCommonLogger.h">
<polygon fill="none" stroke="black" points="1442.4,-252 1442.4,-271 1558.4,-271 1558.4,-252 1442.4,-252"/>
<text text-anchor="middle" x="1500.4" y="-259" font-family="Helvetica,sans-Serif" font-size="10.00">GPUCommonLogger.h</text>
</a>
</g>
</g>
<!-- Node12&#45;&gt;Node13 -->
<g id="edge14" class="edge"><title>Node12&#45;&gt;Node13</title>
<path fill="none" stroke="midnightblue" d="M1639,-313.396C1607.39,-301.789 1563.07,-285.515 1533.13,-274.519"/>
<polygon fill="midnightblue" stroke="midnightblue" points="1534.16,-271.169 1523.57,-271.007 1531.75,-277.74 1534.16,-271.169"/>
</g>
<!-- Node12&#45;&gt;Node16 -->
<g id="edge19" class="edge"><title>Node12&#45;&gt;Node16</title>
<path fill="none" stroke="midnightblue" d="M1731.12,-313.476C1780.94,-300.471 1853.4,-281.555 1894.61,-270.799"/>
<polygon fill="midnightblue" stroke="midnightblue" points="1895.59,-274.161 1904.38,-268.248 1893.82,-267.388 1895.59,-274.161"/>
</g>
<!-- Node12&#45;&gt;Node17 -->
<g id="edge20" class="edge"><title>Node12&#45;&gt;Node17</title>
<path fill="none" stroke="midnightblue" d="M1700.4,-313.396C1715.4,-304.197 1735.19,-292.066 1751.68,-281.955"/>
<polygon fill="midnightblue" stroke="midnightblue" points="1753.75,-284.788 1760.45,-276.577 1750.09,-278.82 1753.75,-284.788"/>
</g>
<!-- Node27 -->
<g id="node27" class="node"><title>Node27</title>
<g id="a_node27"><a xlink:href="../../dd/d76/Cartesian3D_8h.html" target="_top" xlink:title="MathUtils/Cartesian3D.h">
<polygon fill="none" stroke="black" points="670.901,-252 670.901,-271 795.901,-271 795.901,-252 670.901,-252"/>
<text text-anchor="middle" x="733.401" y="-259" font-family="Helvetica,sans-Serif" font-size="10.00">MathUtils/Cartesian3D.h</text>
</a>
</g>
</g>
<!-- Node12&#45;&gt;Node27 -->
<g id="edge36" class="edge"><title>Node12&#45;&gt;Node27</title>
<path fill="none" stroke="midnightblue" d="M1599.35,-322.125C1419.93,-309.772 980.236,-279.496 806.115,-267.507"/>
<polygon fill="midnightblue" stroke="midnightblue" points="806.247,-264.008 796.03,-266.812 805.766,-270.991 806.247,-264.008"/>
</g>
<!-- Node14 -->
<g id="node14" class="node"><title>Node14</title>
<polygon fill="none" stroke="#bfbfbf" points="1504.4,-185 1504.4,-204 1558.4,-204 1558.4,-185 1504.4,-185"/>
<text text-anchor="middle" x="1531.4" y="-192" font-family="Helvetica,sans-Serif" font-size="10.00">iostream</text>
</g>
<!-- Node13&#45;&gt;Node14 -->
<g id="edge15" class="edge"><title>Node13&#45;&gt;Node14</title>
<path fill="none" stroke="midnightblue" d="M1504.58,-251.734C1509.28,-241.89 1517.02,-225.66 1522.98,-213.159"/>
<polygon fill="midnightblue" stroke="midnightblue" points="1526.14,-214.66 1527.29,-204.127 1519.82,-211.647 1526.14,-214.66"/>
</g>
<!-- Node15 -->
<g id="node15" class="node"><title>Node15</title>
<polygon fill="none" stroke="#bfbfbf" points="1442.9,-185 1442.9,-204 1485.9,-204 1485.9,-185 1442.9,-185"/>
<text text-anchor="middle" x="1464.4" y="-192" font-family="Helvetica,sans-Serif" font-size="10.00">cstdio</text>
</g>
<!-- Node13&#45;&gt;Node15 -->
<g id="edge16" class="edge"><title>Node13&#45;&gt;Node15</title>
<path fill="none" stroke="midnightblue" d="M1495.55,-251.734C1490.09,-241.89 1481.11,-225.66 1474.18,-213.159"/>
<polygon fill="midnightblue" stroke="midnightblue" points="1477.09,-211.179 1469.18,-204.127 1470.96,-214.571 1477.09,-211.179"/>
</g>
<!-- Node17&#45;&gt;Node2 -->
<g id="edge22" class="edge"><title>Node17&#45;&gt;Node2</title>
<path fill="none" stroke="midnightblue" d="M1761.94,-246.474C1748.69,-237.152 1731.91,-224.071 1719.4,-210 1701.8,-190.189 1686.7,-163.387 1677.83,-146.021"/>
<polygon fill="midnightblue" stroke="midnightblue" points="1680.94,-144.411 1673.36,-137.011 1674.67,-147.524 1680.94,-144.411"/>
</g>
<!-- Node17&#45;&gt;Node10 -->
<g id="edge21" class="edge"><title>Node17&#45;&gt;Node10</title>
<path fill="none" stroke="midnightblue" d="M1754.92,-246.429C1714.41,-227.189 1637.27,-193.42 1567.4,-179 1359.92,-136.18 683.396,-129.636 514.75,-128.665"/>
<polygon fill="midnightblue" stroke="midnightblue" points="514.629,-125.164 504.61,-128.61 514.591,-132.164 514.629,-125.164"/>
</g>
<!-- Node18 -->
<g id="node18" class="node"><title>Node18</title>
<polygon fill="none" stroke="#bfbfbf" points="1728.9,-185 1728.9,-204 1769.9,-204 1769.9,-185 1728.9,-185"/>
<text text-anchor="middle" x="1749.4" y="-192" font-family="Helvetica,sans-Serif" font-size="10.00">bitset</text>
</g>
<!-- Node17&#45;&gt;Node18 -->
<g id="edge23" class="edge"><title>Node17&#45;&gt;Node18</title>
<path fill="none" stroke="midnightblue" d="M1776.02,-246.396C1770.93,-236.662 1764.12,-223.646 1758.67,-213.214"/>
<polygon fill="midnightblue" stroke="midnightblue" points="1761.69,-211.433 1753.95,-204.195 1755.48,-214.678 1761.69,-211.433"/>
</g>
<!-- Node19 -->
<g id="node19" class="node"><title>Node19</title>
<polygon fill="none" stroke="#bfbfbf" points="1787.9,-185 1787.9,-204 1836.9,-204 1836.9,-185 1787.9,-185"/>
<text text-anchor="middle" x="1812.4" y="-192" font-family="Helvetica,sans-Serif" font-size="10.00">cassert</text>
</g>
<!-- Node17&#45;&gt;Node19 -->
<g id="edge24" class="edge"><title>Node17&#45;&gt;Node19</title>
<path fill="none" stroke="midnightblue" d="M1789.69,-246.396C1793.99,-236.763 1799.72,-223.914 1804.35,-213.537"/>
<polygon fill="midnightblue" stroke="midnightblue" points="1807.64,-214.753 1808.52,-204.195 1801.25,-211.901 1807.64,-214.753"/>
</g>
<!-- Node20 -->
<g id="node20" class="node"><title>Node20</title>
<polygon fill="none" stroke="#bfbfbf" points="1855.4,-185 1855.4,-204 1901.4,-204 1901.4,-185 1855.4,-185"/>
<text text-anchor="middle" x="1878.4" y="-192" font-family="Helvetica,sans-Serif" font-size="10.00">cstdint</text>
</g>
<!-- Node17&#45;&gt;Node20 -->
<g id="edge25" class="edge"><title>Node17&#45;&gt;Node20</title>
<path fill="none" stroke="midnightblue" d="M1804.01,-246.396C1819.8,-235.597 1841.49,-220.756 1857.37,-209.887"/>
<polygon fill="midnightblue" stroke="midnightblue" points="1859.69,-212.542 1865.97,-204.007 1855.74,-206.765 1859.69,-212.542"/>
</g>
<!-- Node21 -->
<g id="node21" class="node"><title>Node21</title>
<polygon fill="none" stroke="#bfbfbf" points="1919.4,-185 1919.4,-204 1981.4,-204 1981.4,-185 1919.4,-185"/>
<text text-anchor="middle" x="1950.4" y="-192" font-family="Helvetica,sans-Serif" font-size="10.00">type_traits</text>
</g>
<!-- Node17&#45;&gt;Node21 -->
<g id="edge26" class="edge"><title>Node17&#45;&gt;Node21</title>
<path fill="none" stroke="midnightblue" d="M1819.64,-246.396C1849.33,-234.84 1890.91,-218.656 1919.15,-207.663"/>
<polygon fill="midnightblue" stroke="midnightblue" points="1920.5,-210.896 1928.54,-204.007 1917.96,-204.373 1920.5,-210.896"/>
</g>
<!-- Node22 -->
<g id="node22" class="node"><title>Node22</title>
<g id="a_node22"><a xlink:href="../../d9/d52/Common_2MathUtils_2include_2MathUtils_2Utils_8h.html" target="_top" xlink:title="MathUtils/Utils.h">
<polygon fill="none" stroke="black" points="1999.4,-185 1999.4,-204 2089.4,-204 2089.4,-185 1999.4,-185"/>
<text text-anchor="middle" x="2044.4" y="-192" font-family="Helvetica,sans-Serif" font-size="10.00">MathUtils/Utils.h</text>
</a>
</g>
</g>
<!-- Node17&#45;&gt;Node22 -->
<g id="edge27" class="edge"><title>Node17&#45;&gt;Node22</title>
<path fill="none" stroke="midnightblue" d="M1842.38,-246.494C1883.85,-236.553 1940.59,-222.761 1990.4,-210 1994.53,-208.943 1998.82,-207.822 2003.11,-206.691"/>
<polygon fill="midnightblue" stroke="midnightblue" points="2004.26,-210.008 2013.02,-204.056 2002.46,-203.243 2004.26,-210.008"/>
</g>
<!-- Node22&#45;&gt;Node2 -->
<g id="edge28" class="edge"><title>Node22&#45;&gt;Node2</title>
<path fill="none" stroke="midnightblue" d="M2015.13,-184.925C2007.16,-182.785 1998.49,-180.637 1990.4,-179 1875.63,-155.771 1844.46,-164.781 1729.4,-143 1719.16,-141.062 1708.05,-138.505 1698.2,-136.078"/>
<polygon fill="midnightblue" stroke="midnightblue" points="1699.03,-132.679 1688.48,-133.627 1697.32,-139.466 1699.03,-132.679"/>
</g>
<!-- Node22&#45;&gt;Node5 -->
<g id="edge30" class="edge"><title>Node22&#45;&gt;Node5</title>
<path fill="none" stroke="midnightblue" d="M2014.54,-184.934C2006.72,-182.842 1998.27,-180.715 1990.4,-179 1896.16,-158.471 1869.35,-168.754 1776.4,-143 1740.05,-132.929 1734.25,-120.052 1697.4,-112 1557.21,-81.3648 1122.64,-70.8579 960.885,-67.952"/>
<polygon fill="midnightblue" stroke="midnightblue" points="960.692,-64.4481 950.632,-67.7714 960.568,-71.4471 960.692,-64.4481"/>
</g>
<!-- Node23 -->
<g id="node23" class="node"><title>Node23</title>
<polygon fill="none" stroke="#bfbfbf" points="2090.4,-56.5 2090.4,-75.5 2134.4,-75.5 2134.4,-56.5 2090.4,-56.5"/>
<text text-anchor="middle" x="2112.4" y="-63.5" font-family="Helvetica,sans-Serif" font-size="10.00">cmath</text>
</g>
<!-- Node22&#45;&gt;Node23 -->
<g id="edge29" class="edge"><title>Node22&#45;&gt;Node23</title>
<path fill="none" stroke="midnightblue" d="M2058.4,-184.959C2071.52,-176.159 2090.54,-161.184 2100.4,-143 2110.03,-125.235 2112.47,-101.926 2112.86,-85.8291"/>
<polygon fill="midnightblue" stroke="midnightblue" points="2116.35,-85.5615 2112.84,-75.5651 2109.35,-85.5687 2116.35,-85.5615"/>
</g>
<!-- Node24 -->
<g id="node24" class="node"><title>Node24</title>
<g id="a_node24"><a xlink:href="../../d6/da2/GPUCommonMath_8h.html" target="_top" xlink:title="GPUCommonMath.h">
<polygon fill="none" stroke="black" points="1983.4,-118 1983.4,-137 2091.4,-137 2091.4,-118 1983.4,-118"/>
<text text-anchor="middle" x="2037.4" y="-125" font-family="Helvetica,sans-Serif" font-size="10.00">GPUCommonMath.h</text>
</a>
</g>
</g>
<!-- Node22&#45;&gt;Node24 -->
<g id="edge31" class="edge"><title>Node22&#45;&gt;Node24</title>
<path fill="none" stroke="midnightblue" d="M2043.46,-184.734C2042.43,-175.183 2040.75,-159.618 2039.42,-147.283"/>
<polygon fill="midnightblue" stroke="midnightblue" points="2042.88,-146.695 2038.33,-137.127 2035.92,-147.445 2042.88,-146.695"/>
</g>
<!-- Node26 -->
<g id="node26" class="node"><title>Node26</title>
<g id="a_node26"><a xlink:href="../../d6/d84/MathConstants_8h.html" target="_top" xlink:title="useful math constants ">
<polygon fill="none" stroke="black" points="1785.9,-118 1785.9,-137 1964.9,-137 1964.9,-118 1785.9,-118"/>
<text text-anchor="middle" x="1875.4" y="-125" font-family="Helvetica,sans-Serif" font-size="10.00">CommonConstants/MathConstants.h</text>
</a>
</g>
</g>
<!-- Node22&#45;&gt;Node26 -->
<g id="edge35" class="edge"><title>Node22&#45;&gt;Node26</title>
<path fill="none" stroke="midnightblue" d="M2021.96,-184.869C1992.58,-173.571 1940.91,-153.696 1907.43,-140.818"/>
<polygon fill="midnightblue" stroke="midnightblue" points="1908.26,-137.387 1897.67,-137.064 1905.74,-143.92 1908.26,-137.387"/>
</g>
<!-- Node24&#45;&gt;Node5 -->
<g id="edge32" class="edge"><title>Node24&#45;&gt;Node5</title>
<path fill="none" stroke="midnightblue" d="M2005.56,-117.971C1995.65,-115.641 1984.63,-113.38 1974.4,-112 1776.28,-85.2863 1157.95,-71.7851 960.593,-68.0773"/>
<polygon fill="midnightblue" stroke="midnightblue" points="960.472,-64.5745 950.409,-67.8876 960.342,-71.5733 960.472,-64.5745"/>
</g>
<!-- Node24&#45;&gt;Node23 -->
<g id="edge33" class="edge"><title>Node24&#45;&gt;Node23</title>
<path fill="none" stroke="midnightblue" d="M2048.15,-117.975C2059.95,-108.608 2079.14,-93.3839 2093.48,-82.0081"/>
<polygon fill="midnightblue" stroke="midnightblue" points="2096.02,-84.4661 2101.68,-75.5091 2091.67,-78.9822 2096.02,-84.4661"/>
</g>
<!-- Node25 -->
<g id="node25" class="node"><title>Node25</title>
<polygon fill="none" stroke="#bfbfbf" points="2009.4,-56.5 2009.4,-75.5 2065.4,-75.5 2065.4,-56.5 2009.4,-56.5"/>
<text text-anchor="middle" x="2037.4" y="-63.5" font-family="Helvetica,sans-Serif" font-size="10.00">algorithm</text>
</g>
<!-- Node24&#45;&gt;Node25 -->
<g id="edge34" class="edge"><title>Node24&#45;&gt;Node25</title>
<path fill="none" stroke="midnightblue" d="M2037.4,-117.975C2037.4,-109.58 2037.4,-96.4806 2037.4,-85.6631"/>
<polygon fill="midnightblue" stroke="midnightblue" points="2040.9,-85.5091 2037.4,-75.5091 2033.9,-85.5091 2040.9,-85.5091"/>
</g>
<!-- Node27&#45;&gt;Node10 -->
<g id="edge42" class="edge"><title>Node27&#45;&gt;Node10</title>
<path fill="none" stroke="midnightblue" d="M670.578,-255.566C577.311,-247.597 411.232,-230.675 393.401,-210 371.073,-184.11 414.571,-156.822 446.6,-141.306"/>
<polygon fill="midnightblue" stroke="midnightblue" points="448.095,-144.47 455.675,-137.068 445.133,-138.128 448.095,-144.47"/>
</g>
<!-- Node28 -->
<g id="node28" class="node"><title>Node28</title>
<polygon fill="none" stroke="#bfbfbf" points="559.901,-179.5 559.901,-209.5 710.901,-209.5 710.901,-179.5 559.901,-179.5"/>
<text text-anchor="start" x="567.901" y="-197.5" font-family="Helvetica,sans-Serif" font-size="10.00">Math/GenVector/Displacement</text>
<text text-anchor="middle" x="635.401" y="-186.5" font-family="Helvetica,sans-Serif" font-size="10.00">Vector3D.h</text>
</g>
<!-- Node27&#45;&gt;Node28 -->
<g id="edge37" class="edge"><title>Node27&#45;&gt;Node28</title>
<path fill="none" stroke="midnightblue" d="M720.185,-251.734C706.176,-242.443 683.589,-227.461 665.249,-215.297"/>
<polygon fill="midnightblue" stroke="midnightblue" points="666.911,-212.2 656.643,-209.589 663.042,-218.033 666.911,-212.2"/>
</g>
<!-- Node29 -->
<g id="node29" class="node"><title>Node29</title>
<polygon fill="none" stroke="#bfbfbf" points="729.401,-185 729.401,-204 905.401,-204 905.401,-185 729.401,-185"/>
<text text-anchor="middle" x="817.401" y="-192" font-family="Helvetica,sans-Serif" font-size="10.00">Math/GenVector/PositionVector3D.h</text>
</g>
<!-- Node27&#45;&gt;Node29 -->
<g id="edge38" class="edge"><title>Node27&#45;&gt;Node29</title>
<path fill="none" stroke="midnightblue" d="M744.73,-251.734C758.458,-241.111 781.8,-223.049 798.321,-210.264"/>
<polygon fill="midnightblue" stroke="midnightblue" points="800.485,-213.015 806.252,-204.127 796.202,-207.479 800.485,-213.015"/>
</g>
<!-- Node30 -->
<g id="node30" class="node"><title>Node30</title>
<polygon fill="none" stroke="#bfbfbf" points="922.901,-185 922.901,-204 1071.9,-204 1071.9,-185 922.901,-185"/>
<text text-anchor="middle" x="997.401" y="-192" font-family="Helvetica,sans-Serif" font-size="10.00">Math/GenVector/Rotation3D.h</text>
</g>
<!-- Node27&#45;&gt;Node30 -->
<g id="edge39" class="edge"><title>Node27&#45;&gt;Node30</title>
<path fill="none" stroke="midnightblue" d="M768.186,-251.936C815.572,-240.268 900.465,-219.367 952.575,-206.537"/>
<polygon fill="midnightblue" stroke="midnightblue" points="953.666,-209.873 962.539,-204.083 951.993,-203.076 953.666,-209.873"/>
</g>
<!-- Node31 -->
<g id="node31" class="node"><title>Node31</title>
<polygon fill="none" stroke="#bfbfbf" points="1090.4,-185 1090.4,-204 1246.4,-204 1246.4,-185 1090.4,-185"/>
<text text-anchor="middle" x="1168.4" y="-192" font-family="Helvetica,sans-Serif" font-size="10.00">Math/GenVector/Transform3D.h</text>
</g>
<!-- Node27&#45;&gt;Node31 -->
<g id="edge40" class="edge"><title>Node27&#45;&gt;Node31</title>
<path fill="none" stroke="midnightblue" d="M794.256,-251.996C863.582,-242.227 980.238,-225.539 1080.4,-210 1089.18,-208.638 1098.45,-207.157 1107.55,-205.68"/>
<polygon fill="midnightblue" stroke="midnightblue" points="1108.4,-209.087 1117.71,-204.02 1107.27,-202.179 1108.4,-209.087"/>
</g>
<!-- Node32 -->
<g id="node32" class="node"><title>Node32</title>
<polygon fill="none" stroke="#bfbfbf" points="1264.4,-185 1264.4,-204 1424.4,-204 1424.4,-185 1264.4,-185"/>
<text text-anchor="middle" x="1344.4" y="-192" font-family="Helvetica,sans-Serif" font-size="10.00">Math/GenVector/Translation3D.h</text>
</g>
<!-- Node27&#45;&gt;Node32 -->
<g id="edge41" class="edge"><title>Node27&#45;&gt;Node32</title>
<path fill="none" stroke="midnightblue" d="M796.224,-255.75C894.423,-248.027 1090.17,-231.43 1255.4,-210 1265.18,-208.732 1275.54,-207.209 1285.6,-205.635"/>
<polygon fill="midnightblue" stroke="midnightblue" points="1286.2,-209.083 1295.52,-204.051 1285.09,-202.171 1286.2,-209.083"/>
</g>
<!-- Node33 -->
<g id="node33" class="node"><title>Node33</title>
<polygon fill="none" stroke="#bfbfbf" points="402.401,-185 402.401,-204 478.401,-204 478.401,-185 402.401,-185"/>
<text text-anchor="middle" x="440.401" y="-192" font-family="Helvetica,sans-Serif" font-size="10.00">TGeoMatrix.h</text>
</g>
<!-- Node27&#45;&gt;Node33 -->
<g id="edge43" class="edge"><title>Node27&#45;&gt;Node33</title>
<path fill="none" stroke="midnightblue" d="M685.006,-251.997C635.167,-242.906 555.399,-227.425 487.401,-210 483.798,-209.077 480.06,-208.048 476.337,-206.976"/>
<polygon fill="midnightblue" stroke="midnightblue" points="477.206,-203.583 466.623,-204.081 475.207,-210.291 477.206,-203.583"/>
</g>
<!-- Node34 -->
<g id="node34" class="node"><title>Node34</title>
<polygon fill="none" stroke="#bfbfbf" points="496.901,-185 496.901,-204 541.901,-204 541.901,-185 496.901,-185"/>
<text text-anchor="middle" x="519.401" y="-192" font-family="Helvetica,sans-Serif" font-size="10.00">iosfwd</text>
</g>
<!-- Node27&#45;&gt;Node34 -->
<g id="edge44" class="edge"><title>Node27&#45;&gt;Node34</title>
<path fill="none" stroke="midnightblue" d="M695.314,-251.971C657.884,-243.129 599.412,-228.079 550.401,-210 548.792,-209.406 547.151,-208.762 545.506,-208.086"/>
<polygon fill="midnightblue" stroke="midnightblue" points="546.8,-204.831 536.237,-204.002 543.977,-211.237 546.8,-204.831"/>
</g>
<!-- Node35 -->
<g id="node35" class="node"><title>Node35</title>
<g id="a_node35"><a xlink:href="../../d2/dd0/Cartesian2D_8h.html" target="_top" xlink:title="MathUtils/Cartesian2D.h">
<polygon fill="none" stroke="black" points="220.901,-185 220.901,-204 345.901,-204 345.901,-185 220.901,-185"/>
<text text-anchor="middle" x="283.401" y="-192" font-family="Helvetica,sans-Serif" font-size="10.00">MathUtils/Cartesian2D.h</text>
</a>
</g>
</g>
<!-- Node27&#45;&gt;Node35 -->
<g id="edge45" class="edge"><title>Node27&#45;&gt;Node35</title>
<path fill="none" stroke="midnightblue" d="M670.888,-253.036C596.68,-243.945 469.261,-227.607 360.401,-210 352.659,-208.748 344.498,-207.324 336.501,-205.87"/>
<polygon fill="midnightblue" stroke="midnightblue" points="336.97,-202.397 326.501,-204.022 335.698,-209.281 336.97,-202.397"/>
</g>
<!-- Node36 -->
<g id="node36" class="node"><title>Node36</title>
<polygon fill="none" stroke="#bfbfbf" points="84.9014,-112.5 84.9014,-142.5 235.901,-142.5 235.901,-112.5 84.9014,-112.5"/>
<text text-anchor="start" x="92.9014" y="-130.5" font-family="Helvetica,sans-Serif" font-size="10.00">Math/GenVector/Displacement</text>
<text text-anchor="middle" x="160.401" y="-119.5" font-family="Helvetica,sans-Serif" font-size="10.00">Vector2D.h</text>
</g>
<!-- Node35&#45;&gt;Node36 -->
<g id="edge46" class="edge"><title>Node35&#45;&gt;Node36</title>
<path fill="none" stroke="midnightblue" d="M267.068,-184.869C249.069,-175.357 219.565,-159.765 196.145,-147.389"/>
<polygon fill="midnightblue" stroke="midnightblue" points="197.657,-144.229 187.181,-142.652 194.387,-150.418 197.657,-144.229"/>
</g>
<!-- Node37 -->
<g id="node37" class="node"><title>Node37</title>
<polygon fill="none" stroke="#bfbfbf" points="254.401,-118 254.401,-137 430.401,-137 430.401,-118 254.401,-118"/>
<text text-anchor="middle" x="342.401" y="-125" font-family="Helvetica,sans-Serif" font-size="10.00">Math/GenVector/PositionVector2D.h</text>
</g>
<!-- Node35&#45;&gt;Node37 -->
<g id="edge47" class="edge"><title>Node35&#45;&gt;Node37</title>
<path fill="none" stroke="midnightblue" d="M291.358,-184.734C300.647,-174.5 316.202,-157.364 327.704,-144.692"/>
<polygon fill="midnightblue" stroke="midnightblue" points="330.441,-146.884 334.57,-137.127 325.258,-142.179 330.441,-146.884"/>
</g>
</g>
</svg>
