<?xml version="1.0" encoding="UTF-8" standalone="no"?>
<!DOCTYPE svg PUBLIC "-//W3C//DTD SVG 1.1//EN"
 "http://www.w3.org/Graphics/SVG/1.1/DTD/svg11.dtd">
<!-- Generated by graphviz version 2.38.0 (20140413.2041)
 -->
<!-- Title: /home/travis/build/AliceO2Group/AliceO2/Detectors/TRD/base/src/TrapConfig.cxx Pages: 1 -->
<!--zoomable 497 -->
<svg id="main" version="1.1" xmlns="http://www.w3.org/2000/svg" xmlns:xlink="http://www.w3.org/1999/xlink" xml:space="preserve" onload="init(evt)">
<style type="text/css"><![CDATA[
.edge:hover path { stroke: red; }
.edge:hover polygon { stroke: red; fill: red; }
]]></style>
<script type="text/javascript"><![CDATA[
var edges = document.getElementsByTagName('g');
if (edges && edges.length) {
  for (var i=0;i<edges.length;i++) {
    if (edges[i].id.substr(0,4)=='edge') {
      edges[i].setAttribute('class','edge');
    }
  }
}
]]></script>
        <defs>
                <circle id="rim" cx="0" cy="0" r="7"/>
                <circle id="rim2" cx="0" cy="0" r="3.5"/>
                <g id="zoomPlus">
                        <use xlink:href="#rim" fill="#404040">
                                <set attributeName="fill" to="#808080" begin="zoomplus.mouseover" end="zoomplus.mouseout"/>
                        </use>
                        <path d="M-4,0h8M0,-4v8" fill="none" stroke="white" stroke-width="1.5" pointer-events="none"/>
                </g>
                <g id="zoomMin">
                        <use xlink:href="#rim" fill="#404040">
                                <set attributeName="fill" to="#808080" begin="zoomminus.mouseover" end="zoomminus.mouseout"/>
                        </use>
                        <path d="M-4,0h8" fill="none" stroke="white" stroke-width="1.5" pointer-events="none"/>
                </g>
                <g id="dirArrow">
                        <path fill="none" stroke="white" stroke-width="1.5" d="M0,-3.0v7 M-2.5,-0.5L0,-3.0L2.5,-0.5"/>
                </g>
               <g id="resetDef">
                       <use xlink:href="#rim2" fill="#404040">
                               <set attributeName="fill" to="#808080" begin="reset.mouseover" end="reset.mouseout"/>
                       </use>
               </g>
        </defs>

<script type="text/javascript">
var viewWidth = 2449;
var viewHeight = 497;
var sectionId = 'dynsection-0';
</script>
<script xlink:href="../../svgpan.js"/>
<svg id="graph" class="graph">
<g id="viewport">
<title>/home/travis/build/AliceO2Group/AliceO2/Detectors/TRD/base/src/TrapConfig.cxx</title>
<!-- Node1 -->
<g id="node1" class="node"><title>Node1</title>
<polygon fill="#bfbfbf" stroke="black" points="2030.91,-436.5 2030.91,-488.5 2157.91,-488.5 2157.91,-436.5 2030.91,-436.5"/>
<text text-anchor="start" x="2038.91" y="-476.5" font-family="Helvetica,sans-Serif" font-size="10.00">/home/travis/build</text>
<text text-anchor="start" x="2038.91" y="-465.5" font-family="Helvetica,sans-Serif" font-size="10.00">/AliceO2Group/AliceO2</text>
<text text-anchor="start" x="2038.91" y="-454.5" font-family="Helvetica,sans-Serif" font-size="10.00">/Detectors/TRD/base/src</text>
<text text-anchor="middle" x="2094.41" y="-443.5" font-family="Helvetica,sans-Serif" font-size="10.00">/TrapConfig.cxx</text>
</g>
<!-- Node2 -->
<g id="node2" class="node"><title>Node2</title>
<g id="a_node2"><a xlink:href="../../dd/d07/TRDGeometry_8h.html" target="_top" xlink:title="TRDBase/TRDGeometry.h">
<polygon fill="none" stroke="black" points="1631.91,-380.5 1631.91,-399.5 1766.91,-399.5 1766.91,-380.5 1631.91,-380.5"/>
<text text-anchor="middle" x="1699.41" y="-387.5" font-family="Helvetica,sans-Serif" font-size="10.00">TRDBase/TRDGeometry.h</text>
</a>
</g>
</g>
<!-- Node1&#45;&gt;Node2 -->
<g id="edge1" class="edge"><title>Node1&#45;&gt;Node2</title>
<path fill="none" stroke="midnightblue" d="M2030.5,-450.095C1954.8,-436.584 1829.81,-414.275 1756.99,-401.277"/>
<polygon fill="midnightblue" stroke="midnightblue" points="1757.53,-397.819 1747.07,-399.507 1756.3,-404.71 1757.53,-397.819"/>
</g>
<!-- Node13 -->
<g id="node13" class="node"><title>Node13</title>
<polygon fill="none" stroke="#bfbfbf" points="2114.41,-185 2114.41,-204 2168.41,-204 2168.41,-185 2114.41,-185"/>
<text text-anchor="middle" x="2141.41" y="-192" font-family="Helvetica,sans-Serif" font-size="10.00">iostream</text>
</g>
<!-- Node1&#45;&gt;Node13 -->
<g id="edge64" class="edge"><title>Node1&#45;&gt;Node13</title>
<path fill="none" stroke="midnightblue" d="M2139.34,-436.373C2170.75,-416.018 2210.21,-384.16 2228.41,-344 2251.61,-292.784 2193.69,-236.621 2161.37,-210.46"/>
<polygon fill="midnightblue" stroke="midnightblue" points="2163.42,-207.619 2153.4,-204.19 2159.1,-213.122 2163.42,-207.619"/>
</g>
<!-- Node15 -->
<g id="node15" class="node"><title>Node15</title>
<polygon fill="none" stroke="#bfbfbf" points="1700.41,-118 1700.41,-137 1738.41,-137 1738.41,-118 1700.41,-118"/>
<text text-anchor="middle" x="1719.41" y="-125" font-family="Helvetica,sans-Serif" font-size="10.00">array</text>
</g>
<!-- Node1&#45;&gt;Node15 -->
<g id="edge66" class="edge"><title>Node1&#45;&gt;Node15</title>
<path fill="none" stroke="midnightblue" d="M2030.68,-454.704C1964.17,-443.835 1863.08,-415.809 1815.41,-344 1769.07,-274.207 1905.65,-294.965 1918.41,-277 1943.62,-241.482 1945.93,-212.759 1918.41,-179 1868.23,-117.454 1817.35,-171.95 1743.41,-143 1742.53,-142.658 1741.66,-142.286 1740.78,-141.89"/>
<polygon fill="midnightblue" stroke="midnightblue" points="1742.16,-138.659 1731.69,-137.02 1738.85,-144.829 1742.16,-138.659"/>
</g>
<!-- Node40 -->
<g id="node40" class="node"><title>Node40</title>
<g id="a_node40"><a xlink:href="../../d2/d36/FeeParam_8h.html" target="_top" xlink:title="TRDBase/FeeParam.h">
<polygon fill="none" stroke="black" points="1346.41,-252 1346.41,-271 1462.41,-271 1462.41,-252 1346.41,-252"/>
<text text-anchor="middle" x="1404.41" y="-259" font-family="Helvetica,sans-Serif" font-size="10.00">TRDBase/FeeParam.h</text>
</a>
</g>
</g>
<!-- Node1&#45;&gt;Node40 -->
<g id="edge51" class="edge"><title>Node1&#45;&gt;Node40</title>
<path fill="none" stroke="midnightblue" d="M2030.62,-459.54C1938.82,-455.3 1764.93,-441.945 1623.41,-400 1568.13,-383.619 1555.24,-374.636 1506.41,-344 1474.32,-323.869 1440.65,-295.288 1421.15,-277.869"/>
<polygon fill="midnightblue" stroke="midnightblue" points="1423.47,-275.249 1413.7,-271.145 1418.78,-280.444 1423.47,-275.249"/>
</g>
<!-- Node41 -->
<g id="node41" class="node"><title>Node41</title>
<g id="a_node41"><a xlink:href="../../d8/dbb/TrapConfig_8h.html" target="_top" xlink:title="TRDBase/TrapConfig.h">
<polygon fill="none" stroke="black" points="1979.91,-380.5 1979.91,-399.5 2098.91,-399.5 2098.91,-380.5 1979.91,-380.5"/>
<text text-anchor="middle" x="2039.41" y="-387.5" font-family="Helvetica,sans-Serif" font-size="10.00">TRDBase/TrapConfig.h</text>
</a>
</g>
</g>
<!-- Node1&#45;&gt;Node41 -->
<g id="edge54" class="edge"><title>Node1&#45;&gt;Node41</title>
<path fill="none" stroke="midnightblue" d="M2074.86,-436.446C2067.44,-426.929 2059.16,-416.327 2052.48,-407.758"/>
<polygon fill="midnightblue" stroke="midnightblue" points="2055.1,-405.427 2046.19,-399.695 2049.58,-409.733 2055.1,-405.427"/>
</g>
<!-- Node43 -->
<g id="node43" class="node"><title>Node43</title>
<polygon fill="none" stroke="#bfbfbf" points="2169.41,-319 2169.41,-338 2219.41,-338 2219.41,-319 2169.41,-319"/>
<text text-anchor="middle" x="2194.41" y="-326" font-family="Helvetica,sans-Serif" font-size="10.00">fstream</text>
</g>
<!-- Node1&#45;&gt;Node43 -->
<g id="edge63" class="edge"><title>Node1&#45;&gt;Node43</title>
<path fill="none" stroke="midnightblue" d="M2113.45,-436.361C2133.56,-409.815 2164.69,-368.728 2181.9,-346.012"/>
<polygon fill="midnightblue" stroke="midnightblue" points="2184.71,-348.099 2187.96,-338.014 2179.13,-343.871 2184.71,-348.099"/>
</g>
<!-- Node45 -->
<g id="node45" class="node"><title>Node45</title>
<polygon fill="none" stroke="#bfbfbf" points="2275.91,-380.5 2275.91,-399.5 2372.91,-399.5 2372.91,-380.5 2275.91,-380.5"/>
<text text-anchor="middle" x="2324.41" y="-387.5" font-family="Helvetica,sans-Serif" font-size="10.00">fairlogger/Logger.h</text>
</g>
<!-- Node1&#45;&gt;Node45 -->
<g id="edge62" class="edge"><title>Node1&#45;&gt;Node45</title>
<path fill="none" stroke="midnightblue" d="M2158.17,-441.955C2199.55,-429.271 2252.06,-413.176 2286.87,-402.506"/>
<polygon fill="midnightblue" stroke="midnightblue" points="2288.1,-405.79 2296.63,-399.513 2286.05,-399.097 2288.1,-405.79"/>
</g>
<!-- Node46 -->
<g id="node46" class="node"><title>Node46</title>
<polygon fill="none" stroke="#bfbfbf" points="2391.41,-380.5 2391.41,-399.5 2441.41,-399.5 2441.41,-380.5 2391.41,-380.5"/>
<text text-anchor="middle" x="2416.41" y="-387.5" font-family="Helvetica,sans-Serif" font-size="10.00">iomanip</text>
</g>
<!-- Node1&#45;&gt;Node46 -->
<g id="edge65" class="edge"><title>Node1&#45;&gt;Node46</title>
<path fill="none" stroke="midnightblue" d="M2158.09,-448.822C2214.36,-437.411 2298.84,-419.767 2381.39,-400.158"/>
<polygon fill="midnightblue" stroke="midnightblue" points="2382.28,-403.547 2391.19,-397.82 2380.65,-396.738 2382.28,-403.547"/>
</g>
<!-- Node3 -->
<g id="node3" class="node"><title>Node3</title>
<g id="a_node3"><a xlink:href="../../d8/dad/TRDGeometryBase_8h.html" target="_top" xlink:title="TRDBase/TRDGeometryBase.h">
<polygon fill="none" stroke="black" points="117.406,-319 117.406,-338 275.406,-338 275.406,-319 117.406,-319"/>
<text text-anchor="middle" x="196.406" y="-326" font-family="Helvetica,sans-Serif" font-size="10.00">TRDBase/TRDGeometryBase.h</text>
</a>
</g>
</g>
<!-- Node2&#45;&gt;Node3 -->
<g id="edge2" class="edge"><title>Node2&#45;&gt;Node3</title>
<path fill="none" stroke="midnightblue" d="M1631.91,-386.328C1389.26,-376.722 561.13,-343.938 286.047,-333.049"/>
<polygon fill="midnightblue" stroke="midnightblue" points="285.843,-329.538 275.713,-332.64 285.566,-336.532 285.843,-329.538"/>
</g>
<!-- Node11 -->
<g id="node11" class="node"><title>Node11</title>
<g id="a_node11"><a xlink:href="../../d4/d20/DetMatrixCache_8h.html" target="_top" xlink:title="DetectorsCommonDataFormats\l/DetMatrixCache.h">
<polygon fill="none" stroke="black" points="1515.41,-313.5 1515.41,-343.5 1671.41,-343.5 1671.41,-313.5 1515.41,-313.5"/>
<text text-anchor="start" x="1523.41" y="-331.5" font-family="Helvetica,sans-Serif" font-size="10.00">DetectorsCommonDataFormats</text>
<text text-anchor="middle" x="1593.41" y="-320.5" font-family="Helvetica,sans-Serif" font-size="10.00">/DetMatrixCache.h</text>
</a>
</g>
</g>
<!-- Node2&#45;&gt;Node11 -->
<g id="edge12" class="edge"><title>Node2&#45;&gt;Node11</title>
<path fill="none" stroke="midnightblue" d="M1684.22,-380.475C1669.39,-372.153 1646.33,-359.207 1627.16,-348.445"/>
<polygon fill="midnightblue" stroke="midnightblue" points="1628.82,-345.366 1618.39,-343.523 1625.4,-351.47 1628.82,-345.366"/>
</g>
<!-- Node16 -->
<g id="node16" class="node"><title>Node16</title>
<polygon fill="none" stroke="#bfbfbf" points="1865.41,-252 1865.41,-271 1909.41,-271 1909.41,-252 1865.41,-252"/>
<text text-anchor="middle" x="1887.41" y="-259" font-family="Helvetica,sans-Serif" font-size="10.00">vector</text>
</g>
<!-- Node2&#45;&gt;Node16 -->
<g id="edge49" class="edge"><title>Node2&#45;&gt;Node16</title>
<path fill="none" stroke="midnightblue" d="M1707.3,-380.098C1721.14,-364.87 1751.21,-333.485 1781.41,-313 1784.95,-310.599 1829.41,-289.64 1859.61,-275.489"/>
<polygon fill="midnightblue" stroke="midnightblue" points="1861.27,-278.575 1868.84,-271.166 1858.3,-272.236 1861.27,-278.575"/>
</g>
<!-- Node17 -->
<g id="node17" class="node"><title>Node17</title>
<g id="a_node17"><a xlink:href="../../d6/d31/DetID_8h.html" target="_top" xlink:title="DetectorsCommonDataFormats\l/DetID.h">
<polygon fill="none" stroke="black" points="1557.41,-246.5 1557.41,-276.5 1713.41,-276.5 1713.41,-246.5 1557.41,-246.5"/>
<text text-anchor="start" x="1565.41" y="-264.5" font-family="Helvetica,sans-Serif" font-size="10.00">DetectorsCommonDataFormats</text>
<text text-anchor="middle" x="1635.41" y="-253.5" font-family="Helvetica,sans-Serif" font-size="10.00">/DetID.h</text>
</a>
</g>
</g>
<!-- Node2&#45;&gt;Node17 -->
<g id="edge47" class="edge"><title>Node2&#45;&gt;Node17</title>
<path fill="none" stroke="midnightblue" d="M1698.57,-380.076C1696.9,-365.35 1692.23,-335.363 1680.41,-313 1674.86,-302.509 1666.68,-292.43 1658.81,-284.074"/>
<polygon fill="midnightblue" stroke="midnightblue" points="1661.27,-281.583 1651.75,-276.922 1656.28,-286.499 1661.27,-281.583"/>
</g>
<!-- Node38 -->
<g id="node38" class="node"><title>Node38</title>
<polygon fill="none" stroke="#bfbfbf" points="1823.91,-319 1823.91,-338 1864.91,-338 1864.91,-319 1823.91,-319"/>
<text text-anchor="middle" x="1844.41" y="-326" font-family="Helvetica,sans-Serif" font-size="10.00">string</text>
</g>
<!-- Node2&#45;&gt;Node38 -->
<g id="edge48" class="edge"><title>Node2&#45;&gt;Node38</title>
<path fill="none" stroke="midnightblue" d="M1720.18,-380.475C1744.84,-370.357 1786.15,-353.405 1814.31,-341.851"/>
<polygon fill="midnightblue" stroke="midnightblue" points="1815.75,-345.043 1823.67,-338.009 1813.09,-338.567 1815.75,-345.043"/>
</g>
<!-- Node39 -->
<g id="node39" class="node"><title>Node39</title>
<polygon fill="none" stroke="#bfbfbf" points="1883.41,-319 1883.41,-338 1935.41,-338 1935.41,-319 1883.41,-319"/>
<text text-anchor="middle" x="1909.41" y="-326" font-family="Helvetica,sans-Serif" font-size="10.00">memory</text>
</g>
<!-- Node2&#45;&gt;Node39 -->
<g id="edge50" class="edge"><title>Node2&#45;&gt;Node39</title>
<path fill="none" stroke="midnightblue" d="M1739.14,-380.469C1774.91,-372.39 1828.73,-359.249 1874.41,-344 1876.32,-343.36 1878.29,-342.664 1880.26,-341.935"/>
<polygon fill="midnightblue" stroke="midnightblue" points="1881.94,-345.034 1889.97,-338.123 1879.38,-338.518 1881.94,-345.034"/>
</g>
<!-- Node4 -->
<g id="node4" class="node"><title>Node4</title>
<g id="a_node4"><a xlink:href="../../df/d21/GPUCommonDef_8h.html" target="_top" xlink:title="GPUCommonDef.h">
<polygon fill="none" stroke="black" points="852.406,-56.5 852.406,-75.5 954.406,-75.5 954.406,-56.5 852.406,-56.5"/>
<text text-anchor="middle" x="903.406" y="-63.5" font-family="Helvetica,sans-Serif" font-size="10.00">GPUCommonDef.h</text>
</a>
</g>
</g>
<!-- Node3&#45;&gt;Node4 -->
<g id="edge3" class="edge"><title>Node3&#45;&gt;Node4</title>
<path fill="none" stroke="midnightblue" d="M117.359,-321.783C87.3493,-315.297 55.9613,-302.362 37.4061,-277 9.97876,-239.511 -38.3815,-198.525 55.4061,-112 84.251,-85.3888 651.918,-71.9115 841.995,-68.1318"/>
<polygon fill="midnightblue" stroke="midnightblue" points="842.168,-71.6291 852.097,-67.933 842.03,-64.6305 842.168,-71.6291"/>
</g>
<!-- Node7 -->
<g id="node7" class="node"><title>Node7</title>
<g id="a_node7"><a xlink:href="../../da/d32/TRDCommonParam_8h.html" target="_top" xlink:title="TRDBase/TRDCommonParam.h">
<polygon fill="none" stroke="black" points="198.906,-252 198.906,-271 359.906,-271 359.906,-252 198.906,-252"/>
<text text-anchor="middle" x="279.406" y="-259" font-family="Helvetica,sans-Serif" font-size="10.00">TRDBase/TRDCommonParam.h</text>
</a>
</g>
</g>
<!-- Node3&#45;&gt;Node7 -->
<g id="edge6" class="edge"><title>Node3&#45;&gt;Node7</title>
<path fill="none" stroke="midnightblue" d="M207.6,-318.734C221.04,-308.208 243.806,-290.379 260.102,-277.617"/>
<polygon fill="midnightblue" stroke="midnightblue" points="262.675,-280.049 268.39,-271.127 258.359,-274.537 262.675,-280.049"/>
</g>
<!-- Node10 -->
<g id="node10" class="node"><title>Node10</title>
<g id="a_node10"><a xlink:href="../../de/df3/TRDPadPlane_8h.html" target="_top" xlink:title="TRDBase/TRDPadPlane.h">
<polygon fill="none" stroke="black" points="46.4061,-252 46.4061,-271 180.406,-271 180.406,-252 46.4061,-252"/>
<text text-anchor="middle" x="113.406" y="-259" font-family="Helvetica,sans-Serif" font-size="10.00">TRDBase/TRDPadPlane.h</text>
</a>
</g>
</g>
<!-- Node3&#45;&gt;Node10 -->
<g id="edge9" class="edge"><title>Node3&#45;&gt;Node10</title>
<path fill="none" stroke="midnightblue" d="M185.212,-318.734C171.772,-308.208 149.006,-290.379 132.71,-277.617"/>
<polygon fill="midnightblue" stroke="midnightblue" points="134.454,-274.537 124.423,-271.127 130.138,-280.049 134.454,-274.537"/>
</g>
<!-- Node5 -->
<g id="node5" class="node"><title>Node5</title>
<g id="a_node5"><a xlink:href="../../d5/d93/GPUCommonDefSettings_8h.html" target="_top" xlink:title="GPUCommonDefSettings.h">
<polygon fill="none" stroke="black" points="761.406,-0.5 761.406,-19.5 899.406,-19.5 899.406,-0.5 761.406,-0.5"/>
<text text-anchor="middle" x="830.406" y="-7.5" font-family="Helvetica,sans-Serif" font-size="10.00">GPUCommonDefSettings.h</text>
</a>
</g>
</g>
<!-- Node4&#45;&gt;Node5 -->
<g id="edge4" class="edge"><title>Node4&#45;&gt;Node5</title>
<path fill="none" stroke="midnightblue" d="M891.677,-56.324C880.569,-48.1066 863.664,-35.6017 850.423,-25.8069"/>
<polygon fill="midnightblue" stroke="midnightblue" points="852.469,-22.9671 842.348,-19.8339 848.306,-28.5948 852.469,-22.9671"/>
</g>
<!-- Node6 -->
<g id="node6" class="node"><title>Node6</title>
<g id="a_node6"><a xlink:href="../../da/d5a/GPUCommonDefAPI_8h.html" target="_top" xlink:title="GPUCommonDefAPI.h">
<polygon fill="none" stroke="black" points="917.906,-0.5 917.906,-19.5 1036.91,-19.5 1036.91,-0.5 917.906,-0.5"/>
<text text-anchor="middle" x="977.406" y="-7.5" font-family="Helvetica,sans-Serif" font-size="10.00">GPUCommonDefAPI.h</text>
</a>
</g>
</g>
<!-- Node4&#45;&gt;Node6 -->
<g id="edge5" class="edge"><title>Node4&#45;&gt;Node6</title>
<path fill="none" stroke="midnightblue" d="M915.296,-56.324C926.556,-48.1066 943.693,-35.6017 957.115,-25.8069"/>
<polygon fill="midnightblue" stroke="midnightblue" points="959.286,-28.5559 965.3,-19.8339 955.159,-22.9014 959.286,-28.5559"/>
</g>
<!-- Node8 -->
<g id="node8" class="node"><title>Node8</title>
<g id="a_node8"><a xlink:href="../../d2/d45/GPUCommonRtypes_8h.html" target="_top" xlink:title="GPUCommonRtypes.h">
<polygon fill="none" stroke="black" points="84.4061,-185 84.4061,-204 202.406,-204 202.406,-185 84.4061,-185"/>
<text text-anchor="middle" x="143.406" y="-192" font-family="Helvetica,sans-Serif" font-size="10.00">GPUCommonRtypes.h</text>
</a>
</g>
</g>
<!-- Node7&#45;&gt;Node8 -->
<g id="edge7" class="edge"><title>Node7&#45;&gt;Node8</title>
<path fill="none" stroke="midnightblue" d="M261.346,-251.869C238.18,-240.796 197.777,-221.486 170.811,-208.598"/>
<polygon fill="midnightblue" stroke="midnightblue" points="172.072,-205.322 161.541,-204.167 169.054,-211.637 172.072,-205.322"/>
</g>
<!-- Node9 -->
<g id="node9" class="node"><title>Node9</title>
<polygon fill="none" stroke="#bfbfbf" points="448.406,-118 448.406,-137 504.406,-137 504.406,-118 448.406,-118"/>
<text text-anchor="middle" x="476.406" y="-125" font-family="Helvetica,sans-Serif" font-size="10.00">Rtypes.h</text>
</g>
<!-- Node8&#45;&gt;Node9 -->
<g id="edge8" class="edge"><title>Node8&#45;&gt;Node9</title>
<path fill="none" stroke="midnightblue" d="M181.814,-184.935C191.455,-182.889 201.793,-180.783 211.406,-179 312.275,-160.296 340.4,-169.874 439.406,-143 442.001,-142.296 444.663,-141.47 447.312,-140.576"/>
<polygon fill="midnightblue" stroke="midnightblue" points="448.518,-143.861 456.703,-137.134 446.109,-137.289 448.518,-143.861"/>
</g>
<!-- Node10&#45;&gt;Node4 -->
<g id="edge11" class="edge"><title>Node10&#45;&gt;Node4</title>
<path fill="none" stroke="midnightblue" d="M104.077,-251.893C94.761,-242.603 81.0404,-226.858 75.4061,-210 61.6,-168.69 45.455,-143.623 75.4061,-112 101.7,-84.2385 654.77,-71.5604 842.042,-68.0523"/>
<polygon fill="midnightblue" stroke="midnightblue" points="842.331,-71.5476 852.265,-67.8631 842.202,-64.5488 842.331,-71.5476"/>
</g>
<!-- Node10&#45;&gt;Node8 -->
<g id="edge10" class="edge"><title>Node10&#45;&gt;Node8</title>
<path fill="none" stroke="midnightblue" d="M117.452,-251.734C121.95,-241.988 129.338,-225.981 135.084,-213.532"/>
<polygon fill="midnightblue" stroke="midnightblue" points="138.412,-214.674 139.424,-204.127 132.056,-211.74 138.412,-214.674"/>
</g>
<!-- Node11&#45;&gt;Node8 -->
<g id="edge16" class="edge"><title>Node11&#45;&gt;Node8</title>
<path fill="none" stroke="midnightblue" d="M1515.33,-325.14C1304,-317.83 703.541,-290.958 211.406,-210 204.604,-208.881 197.452,-207.54 190.446,-206.131"/>
<polygon fill="midnightblue" stroke="midnightblue" points="190.845,-202.639 180.343,-204.037 189.424,-209.493 190.845,-202.639"/>
</g>
<!-- Node12 -->
<g id="node12" class="node"><title>Node12</title>
<g id="a_node12"><a xlink:href="../../df/d5b/GPUCommonLogger_8h.html" target="_top" xlink:title="GPUCommonLogger.h">
<polygon fill="none" stroke="black" points="1731.41,-252 1731.41,-271 1847.41,-271 1847.41,-252 1731.41,-252"/>
<text text-anchor="middle" x="1789.41" y="-259" font-family="Helvetica,sans-Serif" font-size="10.00">GPUCommonLogger.h</text>
</a>
</g>
</g>
<!-- Node11&#45;&gt;Node12 -->
<g id="edge13" class="edge"><title>Node11&#45;&gt;Node12</title>
<path fill="none" stroke="midnightblue" d="M1635.94,-313.396C1671.24,-301.688 1720.86,-285.231 1754.02,-274.234"/>
<polygon fill="midnightblue" stroke="midnightblue" points="1755.36,-277.477 1763.75,-271.007 1753.16,-270.833 1755.36,-277.477"/>
</g>
<!-- Node11&#45;&gt;Node15 -->
<g id="edge17" class="edge"><title>Node11&#45;&gt;Node15</title>
<path fill="none" stroke="midnightblue" d="M1575.46,-313.18C1565.46,-304.026 1553.95,-291.225 1548.41,-277 1532.6,-236.412 1521.3,-213.87 1547.41,-179 1564.59,-156.05 1646.12,-139.978 1690.48,-132.771"/>
<polygon fill="midnightblue" stroke="midnightblue" points="1691.05,-136.224 1700.38,-131.209 1689.96,-129.31 1691.05,-136.224"/>
</g>
<!-- Node11&#45;&gt;Node16 -->
<g id="edge18" class="edge"><title>Node11&#45;&gt;Node16</title>
<path fill="none" stroke="midnightblue" d="M1671.49,-317.69C1724.5,-309.779 1795.71,-296.686 1856.41,-277 1858.08,-276.458 1859.78,-275.848 1861.47,-275.193"/>
<polygon fill="midnightblue" stroke="midnightblue" points="1863.18,-278.27 1870.98,-271.105 1860.41,-271.839 1863.18,-278.27"/>
</g>
<!-- Node11&#45;&gt;Node17 -->
<g id="edge19" class="edge"><title>Node11&#45;&gt;Node17</title>
<path fill="none" stroke="midnightblue" d="M1602.52,-313.396C1607.86,-305.134 1614.73,-294.507 1620.8,-285.102"/>
<polygon fill="midnightblue" stroke="midnightblue" points="1623.82,-286.875 1626.31,-276.577 1617.94,-283.076 1623.82,-286.875"/>
</g>
<!-- Node27 -->
<g id="node27" class="node"><title>Node27</title>
<g id="a_node27"><a xlink:href="../../dd/d76/Cartesian3D_8h.html" target="_top" xlink:title="MathUtils/Cartesian3D.h">
<polygon fill="none" stroke="black" points="795.906,-252 795.906,-271 920.906,-271 920.906,-252 795.906,-252"/>
<text text-anchor="middle" x="858.406" y="-259" font-family="Helvetica,sans-Serif" font-size="10.00">MathUtils/Cartesian3D.h</text>
</a>
</g>
</g>
<!-- Node11&#45;&gt;Node27 -->
<g id="edge35" class="edge"><title>Node11&#45;&gt;Node27</title>
<path fill="none" stroke="midnightblue" d="M1515.1,-320.575C1371.92,-307.913 1069.92,-281.205 931.054,-268.925"/>
<polygon fill="midnightblue" stroke="midnightblue" points="931.209,-265.425 920.94,-268.03 930.593,-272.398 931.209,-265.425"/>
</g>
<!-- Node12&#45;&gt;Node13 -->
<g id="edge14" class="edge"><title>Node12&#45;&gt;Node13</title>
<path fill="none" stroke="midnightblue" d="M1827.61,-251.943C1837.01,-249.917 1847.06,-247.819 1856.41,-246 1948.5,-228.074 1972.08,-226.681 2064.41,-210 2077.37,-207.657 2091.55,-205.011 2104.17,-202.626"/>
<polygon fill="midnightblue" stroke="midnightblue" points="2105.17,-206 2114.34,-200.698 2103.86,-199.122 2105.17,-206"/>
</g>
<!-- Node14 -->
<g id="node14" class="node"><title>Node14</title>
<polygon fill="none" stroke="#bfbfbf" points="1865.91,-185 1865.91,-204 1908.91,-204 1908.91,-185 1865.91,-185"/>
<text text-anchor="middle" x="1887.41" y="-192" font-family="Helvetica,sans-Serif" font-size="10.00">cstdio</text>
</g>
<!-- Node12&#45;&gt;Node14 -->
<g id="edge15" class="edge"><title>Node12&#45;&gt;Node14</title>
<path fill="none" stroke="midnightblue" d="M1802.62,-251.734C1818.86,-240.964 1846.62,-222.55 1865.94,-209.739"/>
<polygon fill="midnightblue" stroke="midnightblue" points="1868,-212.571 1874.4,-204.127 1864.13,-206.738 1868,-212.571"/>
</g>
<!-- Node17&#45;&gt;Node9 -->
<g id="edge20" class="edge"><title>Node17&#45;&gt;Node9</title>
<path fill="none" stroke="midnightblue" d="M1608.88,-246.469C1571.11,-227.278 1499.12,-193.565 1433.41,-179 1253.78,-139.189 670.231,-130.474 514.759,-128.839"/>
<polygon fill="midnightblue" stroke="midnightblue" points="514.765,-125.339 504.73,-128.737 514.694,-132.339 514.765,-125.339"/>
</g>
<!-- Node17&#45;&gt;Node15 -->
<g id="edge21" class="edge"><title>Node17&#45;&gt;Node15</title>
<path fill="none" stroke="midnightblue" d="M1701.19,-246.414C1750.6,-235.169 1810.99,-219.735 1818.41,-210 1826.75,-199.038 1825.6,-190.749 1818.41,-179 1814.33,-172.34 1775.81,-153.904 1748.04,-141.252"/>
<polygon fill="midnightblue" stroke="midnightblue" points="1749.3,-137.979 1738.74,-137.047 1746.41,-144.357 1749.3,-137.979"/>
</g>
<!-- Node18 -->
<g id="node18" class="node"><title>Node18</title>
<polygon fill="none" stroke="#bfbfbf" points="1700.91,-185 1700.91,-204 1741.91,-204 1741.91,-185 1700.91,-185"/>
<text text-anchor="middle" x="1721.41" y="-192" font-family="Helvetica,sans-Serif" font-size="10.00">bitset</text>
</g>
<!-- Node17&#45;&gt;Node18 -->
<g id="edge22" class="edge"><title>Node17&#45;&gt;Node18</title>
<path fill="none" stroke="midnightblue" d="M1654.07,-246.396C1668.14,-235.759 1687.4,-221.203 1701.72,-210.381"/>
<polygon fill="midnightblue" stroke="midnightblue" points="1704.04,-213.016 1709.9,-204.195 1699.81,-207.432 1704.04,-213.016"/>
</g>
<!-- Node19 -->
<g id="node19" class="node"><title>Node19</title>
<polygon fill="none" stroke="#bfbfbf" points="1759.91,-185 1759.91,-204 1808.91,-204 1808.91,-185 1759.91,-185"/>
<text text-anchor="middle" x="1784.41" y="-192" font-family="Helvetica,sans-Serif" font-size="10.00">cassert</text>
</g>
<!-- Node17&#45;&gt;Node19 -->
<g id="edge23" class="edge"><title>Node17&#45;&gt;Node19</title>
<path fill="none" stroke="midnightblue" d="M1667.92,-246.38C1691.18,-236.27 1723.23,-222.322 1751.41,-210 1752.77,-209.404 1754.16,-208.795 1755.57,-208.178"/>
<polygon fill="midnightblue" stroke="midnightblue" points="1757.12,-211.321 1764.87,-204.098 1754.3,-204.911 1757.12,-211.321"/>
</g>
<!-- Node20 -->
<g id="node20" class="node"><title>Node20</title>
<polygon fill="none" stroke="#bfbfbf" points="1556.41,-185 1556.41,-204 1602.41,-204 1602.41,-185 1556.41,-185"/>
<text text-anchor="middle" x="1579.41" y="-192" font-family="Helvetica,sans-Serif" font-size="10.00">cstdint</text>
</g>
<!-- Node17&#45;&gt;Node20 -->
<g id="edge24" class="edge"><title>Node17&#45;&gt;Node20</title>
<path fill="none" stroke="midnightblue" d="M1623.25,-246.396C1614.52,-236.261 1602.73,-222.567 1593.57,-211.937"/>
<polygon fill="midnightblue" stroke="midnightblue" points="1596.08,-209.486 1586.9,-204.195 1590.77,-214.055 1596.08,-209.486"/>
</g>
<!-- Node21 -->
<g id="node21" class="node"><title>Node21</title>
<polygon fill="none" stroke="#bfbfbf" points="1620.41,-185 1620.41,-204 1682.41,-204 1682.41,-185 1620.41,-185"/>
<text text-anchor="middle" x="1651.41" y="-192" font-family="Helvetica,sans-Serif" font-size="10.00">type_traits</text>
</g>
<!-- Node17&#45;&gt;Node21 -->
<g id="edge25" class="edge"><title>Node17&#45;&gt;Node21</title>
<path fill="none" stroke="midnightblue" d="M1638.88,-246.396C1641.2,-236.963 1644.28,-224.448 1646.81,-214.189"/>
<polygon fill="midnightblue" stroke="midnightblue" points="1650.27,-214.741 1649.27,-204.195 1643.48,-213.068 1650.27,-214.741"/>
</g>
<!-- Node22 -->
<g id="node22" class="node"><title>Node22</title>
<g id="a_node22"><a xlink:href="../../d9/d52/Common_2MathUtils_2include_2MathUtils_2Utils_8h.html" target="_top" xlink:title="MathUtils/Utils.h">
<polygon fill="none" stroke="black" points="1965.41,-185 1965.41,-204 2055.41,-204 2055.41,-185 1965.41,-185"/>
<text text-anchor="middle" x="2010.41" y="-192" font-family="Helvetica,sans-Serif" font-size="10.00">MathUtils/Utils.h</text>
</a>
</g>
</g>
<!-- Node17&#45;&gt;Node22 -->
<g id="edge26" class="edge"><title>Node17&#45;&gt;Node22</title>
<path fill="none" stroke="midnightblue" d="M1713.56,-246.953C1785.89,-234.415 1891.6,-216.094 1955.41,-205.032"/>
<polygon fill="midnightblue" stroke="midnightblue" points="1956.03,-208.478 1965.28,-203.321 1954.83,-201.581 1956.03,-208.478"/>
</g>
<!-- Node22&#45;&gt;Node4 -->
<g id="edge29" class="edge"><title>Node22&#45;&gt;Node4</title>
<path fill="none" stroke="midnightblue" d="M1976.44,-184.983C1968.25,-182.977 1959.52,-180.878 1951.41,-179 1877.85,-161.99 1853.42,-175.764 1785.41,-143 1765.77,-133.541 1767.74,-119.857 1747.41,-112 1675.07,-84.0454 1146.68,-71.5737 964.755,-68.0763"/>
<polygon fill="midnightblue" stroke="midnightblue" points="964.622,-64.5733 954.557,-67.8827 964.489,-71.572 964.622,-64.5733"/>
</g>
<!-- Node22&#45;&gt;Node15 -->
<g id="edge27" class="edge"><title>Node22&#45;&gt;Node15</title>
<path fill="none" stroke="midnightblue" d="M1977.1,-184.933C1968.74,-182.886 1959.76,-180.781 1951.41,-179 1863.5,-160.266 1838.36,-169.259 1752.41,-143 1750.48,-142.41 1748.51,-141.739 1746.54,-141.016"/>
<polygon fill="midnightblue" stroke="midnightblue" points="1747.51,-137.631 1736.93,-137.11 1744.87,-144.116 1747.51,-137.631"/>
</g>
<!-- Node23 -->
<g id="node23" class="node"><title>Node23</title>
<polygon fill="none" stroke="#bfbfbf" points="2000.41,-56.5 2000.41,-75.5 2044.41,-75.5 2044.41,-56.5 2000.41,-56.5"/>
<text text-anchor="middle" x="2022.41" y="-63.5" font-family="Helvetica,sans-Serif" font-size="10.00">cmath</text>
</g>
<!-- Node22&#45;&gt;Node23 -->
<g id="edge28" class="edge"><title>Node22&#45;&gt;Node23</title>
<path fill="none" stroke="midnightblue" d="M2047.72,-184.884C2069.81,-177.659 2096,-164.883 2109.41,-143 2116.6,-131.251 2116.57,-123.769 2109.41,-112 2097.51,-92.4554 2074.09,-81.0248 2054.54,-74.578"/>
<polygon fill="midnightblue" stroke="midnightblue" points="2055.34,-71.1629 2044.75,-71.6444 2053.33,-77.8682 2055.34,-71.1629"/>
</g>
<!-- Node24 -->
<g id="node24" class="node"><title>Node24</title>
<g id="a_node24"><a xlink:href="../../d6/da2/GPUCommonMath_8h.html" target="_top" xlink:title="GPUCommonMath.h">
<polygon fill="none" stroke="black" points="1794.41,-118 1794.41,-137 1902.41,-137 1902.41,-118 1794.41,-118"/>
<text text-anchor="middle" x="1848.41" y="-125" font-family="Helvetica,sans-Serif" font-size="10.00">GPUCommonMath.h</text>
</a>
</g>
</g>
<!-- Node22&#45;&gt;Node24 -->
<g id="edge30" class="edge"><title>Node22&#45;&gt;Node24</title>
<path fill="none" stroke="midnightblue" d="M1988.89,-184.869C1960.74,-173.571 1911.2,-153.696 1879.11,-140.818"/>
<polygon fill="midnightblue" stroke="midnightblue" points="1880.33,-137.539 1869.75,-137.064 1877.73,-144.036 1880.33,-137.539"/>
</g>
<!-- Node26 -->
<g id="node26" class="node"><title>Node26</title>
<g id="a_node26"><a xlink:href="../../d6/d84/MathConstants_8h.html" target="_top" xlink:title="useful math constants ">
<polygon fill="none" stroke="black" points="1920.91,-118 1920.91,-137 2099.91,-137 2099.91,-118 1920.91,-118"/>
<text text-anchor="middle" x="2010.41" y="-125" font-family="Helvetica,sans-Serif" font-size="10.00">CommonConstants/MathConstants.h</text>
</a>
</g>
</g>
<!-- Node22&#45;&gt;Node26 -->
<g id="edge34" class="edge"><title>Node22&#45;&gt;Node26</title>
<path fill="none" stroke="midnightblue" d="M2010.41,-184.734C2010.41,-175.183 2010.41,-159.618 2010.41,-147.283"/>
<polygon fill="midnightblue" stroke="midnightblue" points="2013.91,-147.127 2010.41,-137.127 2006.91,-147.127 2013.91,-147.127"/>
</g>
<!-- Node24&#45;&gt;Node4 -->
<g id="edge31" class="edge"><title>Node24&#45;&gt;Node4</title>
<path fill="none" stroke="midnightblue" d="M1813.65,-117.978C1803.04,-115.677 1791.3,-113.431 1780.41,-112 1476.26,-72.0265 1108.43,-67.0905 964.922,-66.8085"/>
<polygon fill="midnightblue" stroke="midnightblue" points="964.578,-63.3082 954.574,-66.7956 964.57,-70.3082 964.578,-63.3082"/>
</g>
<!-- Node24&#45;&gt;Node23 -->
<g id="edge32" class="edge"><title>Node24&#45;&gt;Node23</title>
<path fill="none" stroke="midnightblue" d="M1873.34,-117.975C1904.16,-107.433 1956.69,-89.4726 1990.45,-77.9283"/>
<polygon fill="midnightblue" stroke="midnightblue" points="1991.95,-81.1142 2000.28,-74.5669 1989.68,-74.4908 1991.95,-81.1142"/>
</g>
<!-- Node25 -->
<g id="node25" class="node"><title>Node25</title>
<polygon fill="none" stroke="#bfbfbf" points="1820.41,-56.5 1820.41,-75.5 1876.41,-75.5 1876.41,-56.5 1820.41,-56.5"/>
<text text-anchor="middle" x="1848.41" y="-63.5" font-family="Helvetica,sans-Serif" font-size="10.00">algorithm</text>
</g>
<!-- Node24&#45;&gt;Node25 -->
<g id="edge33" class="edge"><title>Node24&#45;&gt;Node25</title>
<path fill="none" stroke="midnightblue" d="M1848.41,-117.975C1848.41,-109.58 1848.41,-96.4806 1848.41,-85.6631"/>
<polygon fill="midnightblue" stroke="midnightblue" points="1851.91,-85.5091 1848.41,-75.5091 1844.91,-85.5091 1851.91,-85.5091"/>
</g>
<!-- Node27&#45;&gt;Node9 -->
<g id="edge41" class="edge"><title>Node27&#45;&gt;Node9</title>
<path fill="none" stroke="midnightblue" d="M795.822,-258.264C675.15,-253.307 419.81,-239.427 393.406,-210 370.512,-184.485 414.47,-156.975 446.691,-141.333"/>
<polygon fill="midnightblue" stroke="midnightblue" points="448.242,-144.471 455.814,-137.061 445.273,-138.132 448.242,-144.471"/>
</g>
<!-- Node28 -->
<g id="node28" class="node"><title>Node28</title>
<polygon fill="none" stroke="#bfbfbf" points="848.906,-179.5 848.906,-209.5 999.906,-209.5 999.906,-179.5 848.906,-179.5"/>
<text text-anchor="start" x="856.906" y="-197.5" font-family="Helvetica,sans-Serif" font-size="10.00">Math/GenVector/Displacement</text>
<text text-anchor="middle" x="924.406" y="-186.5" font-family="Helvetica,sans-Serif" font-size="10.00">Vector3D.h</text>
</g>
<!-- Node27&#45;&gt;Node28 -->
<g id="edge36" class="edge"><title>Node27&#45;&gt;Node28</title>
<path fill="none" stroke="midnightblue" d="M867.307,-251.734C876.398,-242.78 890.855,-228.543 902.946,-216.635"/>
<polygon fill="midnightblue" stroke="midnightblue" points="905.431,-219.1 910.1,-209.589 900.52,-214.112 905.431,-219.1"/>
</g>
<!-- Node29 -->
<g id="node29" class="node"><title>Node29</title>
<polygon fill="none" stroke="#bfbfbf" points="1018.41,-185 1018.41,-204 1194.41,-204 1194.41,-185 1018.41,-185"/>
<text text-anchor="middle" x="1106.41" y="-192" font-family="Helvetica,sans-Serif" font-size="10.00">Math/GenVector/PositionVector3D.h</text>
</g>
<!-- Node27&#45;&gt;Node29 -->
<g id="edge37" class="edge"><title>Node27&#45;&gt;Node29</title>
<path fill="none" stroke="midnightblue" d="M891.083,-251.936C935.412,-240.317 1014.68,-219.541 1063.68,-206.698"/>
<polygon fill="midnightblue" stroke="midnightblue" points="1064.87,-210.004 1073.66,-204.083 1063.1,-203.233 1064.87,-210.004"/>
</g>
<!-- Node30 -->
<g id="node30" class="node"><title>Node30</title>
<polygon fill="none" stroke="#bfbfbf" points="1211.91,-185 1211.91,-204 1360.91,-204 1360.91,-185 1211.91,-185"/>
<text text-anchor="middle" x="1286.41" y="-192" font-family="Helvetica,sans-Serif" font-size="10.00">Math/GenVector/Rotation3D.h</text>
</g>
<!-- Node27&#45;&gt;Node30 -->
<g id="edge38" class="edge"><title>Node27&#45;&gt;Node30</title>
<path fill="none" stroke="midnightblue" d="M920.183,-251.981C989.278,-242.332 1104.49,-225.877 1203.41,-210 1211.71,-208.667 1220.47,-207.201 1229.07,-205.73"/>
<polygon fill="midnightblue" stroke="midnightblue" points="1229.78,-209.158 1239.04,-204.007 1228.59,-202.26 1229.78,-209.158"/>
</g>
<!-- Node31 -->
<g id="node31" class="node"><title>Node31</title>
<polygon fill="none" stroke="#bfbfbf" points="402.406,-185 402.406,-204 558.406,-204 558.406,-185 402.406,-185"/>
<text text-anchor="middle" x="480.406" y="-192" font-family="Helvetica,sans-Serif" font-size="10.00">Math/GenVector/Transform3D.h</text>
</g>
<!-- Node27&#45;&gt;Node31 -->
<g id="edge39" class="edge"><title>Node27&#45;&gt;Node31</title>
<path fill="none" stroke="midnightblue" d="M808.601,-251.936C739.384,-240.033 614.278,-218.52 540.134,-205.771"/>
<polygon fill="midnightblue" stroke="midnightblue" points="540.47,-202.277 530.021,-204.032 539.284,-209.176 540.47,-202.277"/>
</g>
<!-- Node32 -->
<g id="node32" class="node"><title>Node32</title>
<polygon fill="none" stroke="#bfbfbf" points="576.406,-185 576.406,-204 736.406,-204 736.406,-185 576.406,-185"/>
<text text-anchor="middle" x="656.406" y="-192" font-family="Helvetica,sans-Serif" font-size="10.00">Math/GenVector/Translation3D.h</text>
</g>
<!-- Node27&#45;&gt;Node32 -->
<g id="edge40" class="edge"><title>Node27&#45;&gt;Node32</title>
<path fill="none" stroke="midnightblue" d="M831.582,-251.869C795.866,-240.376 732.57,-220.008 692.637,-207.159"/>
<polygon fill="midnightblue" stroke="midnightblue" points="693.611,-203.795 683.019,-204.064 691.467,-210.459 693.611,-203.795"/>
</g>
<!-- Node33 -->
<g id="node33" class="node"><title>Node33</title>
<polygon fill="none" stroke="#bfbfbf" points="754.406,-185 754.406,-204 830.406,-204 830.406,-185 754.406,-185"/>
<text text-anchor="middle" x="792.406" y="-192" font-family="Helvetica,sans-Serif" font-size="10.00">TGeoMatrix.h</text>
</g>
<!-- Node27&#45;&gt;Node33 -->
<g id="edge42" class="edge"><title>Node27&#45;&gt;Node33</title>
<path fill="none" stroke="midnightblue" d="M849.505,-251.734C839.015,-241.403 821.382,-224.037 808.481,-211.332"/>
<polygon fill="midnightblue" stroke="midnightblue" points="810.747,-208.651 801.166,-204.127 805.835,-213.638 810.747,-208.651"/>
</g>
<!-- Node34 -->
<g id="node34" class="node"><title>Node34</title>
<polygon fill="none" stroke="#bfbfbf" points="1378.91,-185 1378.91,-204 1423.91,-204 1423.91,-185 1378.91,-185"/>
<text text-anchor="middle" x="1401.41" y="-192" font-family="Helvetica,sans-Serif" font-size="10.00">iosfwd</text>
</g>
<!-- Node27&#45;&gt;Node34 -->
<g id="edge43" class="edge"><title>Node27&#45;&gt;Node34</title>
<path fill="none" stroke="midnightblue" d="M921.11,-261.078C1018.88,-260.483 1212.78,-253.27 1370.41,-210 1372.34,-209.469 1374.3,-208.826 1376.25,-208.11"/>
<polygon fill="midnightblue" stroke="midnightblue" points="1377.87,-211.225 1385.71,-204.098 1375.14,-204.781 1377.87,-211.225"/>
</g>
<!-- Node35 -->
<g id="node35" class="node"><title>Node35</title>
<g id="a_node35"><a xlink:href="../../d2/dd0/Cartesian2D_8h.html" target="_top" xlink:title="MathUtils/Cartesian2D.h">
<polygon fill="none" stroke="black" points="220.906,-185 220.906,-204 345.906,-204 345.906,-185 220.906,-185"/>
<text text-anchor="middle" x="283.406" y="-192" font-family="Helvetica,sans-Serif" font-size="10.00">MathUtils/Cartesian2D.h</text>
</a>
</g>
</g>
<!-- Node27&#45;&gt;Node35 -->
<g id="edge44" class="edge"><title>Node27&#45;&gt;Node35</title>
<path fill="none" stroke="midnightblue" d="M795.697,-255.863C701.077,-248.477 516.294,-232.54 360.406,-210 352.27,-208.824 343.685,-207.395 335.316,-205.898"/>
<polygon fill="midnightblue" stroke="midnightblue" points="335.727,-202.415 325.259,-204.051 334.462,-209.3 335.727,-202.415"/>
</g>
<!-- Node36 -->
<g id="node36" class="node"><title>Node36</title>
<polygon fill="none" stroke="#bfbfbf" points="84.9061,-112.5 84.9061,-142.5 235.906,-142.5 235.906,-112.5 84.9061,-112.5"/>
<text text-anchor="start" x="92.9061" y="-130.5" font-family="Helvetica,sans-Serif" font-size="10.00">Math/GenVector/Displacement</text>
<text text-anchor="middle" x="160.406" y="-119.5" font-family="Helvetica,sans-Serif" font-size="10.00">Vector2D.h</text>
</g>
<!-- Node35&#45;&gt;Node36 -->
<g id="edge45" class="edge"><title>Node35&#45;&gt;Node36</title>
<path fill="none" stroke="midnightblue" d="M267.073,-184.869C249.073,-175.357 219.57,-159.765 196.149,-147.389"/>
<polygon fill="midnightblue" stroke="midnightblue" points="197.662,-144.229 187.185,-142.652 194.391,-150.418 197.662,-144.229"/>
</g>
<!-- Node37 -->
<g id="node37" class="node"><title>Node37</title>
<polygon fill="none" stroke="#bfbfbf" points="254.406,-118 254.406,-137 430.406,-137 430.406,-118 254.406,-118"/>
<text text-anchor="middle" x="342.406" y="-125" font-family="Helvetica,sans-Serif" font-size="10.00">Math/GenVector/PositionVector2D.h</text>
</g>
<!-- Node35&#45;&gt;Node37 -->
<g id="edge46" class="edge"><title>Node35&#45;&gt;Node37</title>
<path fill="none" stroke="midnightblue" d="M291.363,-184.734C300.652,-174.5 316.206,-157.364 327.708,-144.692"/>
<polygon fill="midnightblue" stroke="midnightblue" points="330.446,-146.884 334.575,-137.127 325.263,-142.179 330.446,-146.884"/>
</g>
<!-- Node40&#45;&gt;Node15 -->
<g id="edge53" class="edge"><title>Node40&#45;&gt;Node15</title>
<path fill="none" stroke="midnightblue" d="M1409.3,-251.972C1419.46,-235.097 1444.57,-197.486 1476.41,-179 1545.55,-138.855 1642.12,-130.375 1690.03,-128.748"/>
<polygon fill="midnightblue" stroke="midnightblue" points="1690.4,-132.239 1700.31,-128.48 1690.22,-125.242 1690.4,-132.239"/>
</g>
<!-- Node40&#45;&gt;Node34 -->
<g id="edge52" class="edge"><title>Node40&#45;&gt;Node34</title>
<path fill="none" stroke="midnightblue" d="M1404,-251.734C1403.56,-242.183 1402.84,-226.618 1402.27,-214.283"/>
<polygon fill="midnightblue" stroke="midnightblue" points="1405.76,-213.955 1401.8,-204.127 1398.77,-214.278 1405.76,-213.955"/>
</g>
<!-- Node41&#45;&gt;Node13 -->
<g id="edge58" class="edge"><title>Node41&#45;&gt;Node13</title>
<path fill="none" stroke="midnightblue" d="M2069.53,-380.427C2087.83,-373.6 2109.99,-362.12 2122.41,-344 2149.63,-304.262 2147.39,-244.235 2144.09,-214.119"/>
<polygon fill="midnightblue" stroke="midnightblue" points="2147.55,-213.628 2142.82,-204.147 2140.61,-214.507 2147.55,-213.628"/>
</g>
<!-- Node41&#45;&gt;Node16 -->
<g id="edge56" class="edge"><title>Node41&#45;&gt;Node16</title>
<path fill="none" stroke="midnightblue" d="M2027.94,-380.17C2016.35,-371.193 1997.98,-356.82 1982.41,-344 1954.93,-321.384 1923.73,-294.351 1904.82,-277.808"/>
<polygon fill="midnightblue" stroke="midnightblue" points="1907.1,-275.16 1897.28,-271.201 1902.49,-280.424 1907.1,-275.16"/>
</g>
<!-- Node41&#45;&gt;Node38 -->
<g id="edge55" class="edge"><title>Node41&#45;&gt;Node38</title>
<path fill="none" stroke="midnightblue" d="M2000.09,-380.433C1966.26,-372.552 1916.39,-359.72 1874.41,-344 1872.98,-343.468 1871.54,-342.892 1870.09,-342.287"/>
<polygon fill="midnightblue" stroke="midnightblue" points="1871.23,-338.961 1860.67,-338.034 1868.35,-345.341 1871.23,-338.961"/>
</g>
<!-- Node41&#45;&gt;Node39 -->
<g id="edge57" class="edge"><title>Node41&#45;&gt;Node39</title>
<path fill="none" stroke="midnightblue" d="M2020.78,-380.475C1998.96,-370.49 1962.6,-353.848 1937.39,-342.307"/>
<polygon fill="midnightblue" stroke="midnightblue" points="1938.55,-338.988 1928,-338.009 1935.63,-345.353 1938.55,-338.988"/>
</g>
<!-- Node42 -->
<g id="node42" class="node"><title>Node42</title>
<polygon fill="none" stroke="#bfbfbf" points="2061.41,-319 2061.41,-338 2113.41,-338 2113.41,-319 2061.41,-319"/>
<text text-anchor="middle" x="2087.41" y="-326" font-family="Helvetica,sans-Serif" font-size="10.00">ostream</text>
</g>
<!-- Node41&#45;&gt;Node42 -->
<g id="edge59" class="edge"><title>Node41&#45;&gt;Node42</title>
<path fill="none" stroke="midnightblue" d="M2046.28,-380.475C2053.55,-371.462 2065.2,-357.025 2074.25,-345.812"/>
<polygon fill="midnightblue" stroke="midnightblue" points="2076.99,-347.99 2080.54,-338.009 2071.54,-343.595 2076.99,-347.99"/>
</g>
<!-- Node41&#45;&gt;Node43 -->
<g id="edge60" class="edge"><title>Node41&#45;&gt;Node43</title>
<path fill="none" stroke="midnightblue" d="M2061.61,-380.475C2088.09,-370.313 2132.52,-353.256 2162.63,-341.7"/>
<polygon fill="midnightblue" stroke="midnightblue" points="2164.16,-344.86 2172.24,-338.009 2161.65,-338.325 2164.16,-344.86"/>
</g>
<!-- Node44 -->
<g id="node44" class="node"><title>Node44</title>
<polygon fill="none" stroke="#bfbfbf" points="1991.41,-319 1991.41,-338 2043.41,-338 2043.41,-319 1991.41,-319"/>
<text text-anchor="middle" x="2017.41" y="-326" font-family="Helvetica,sans-Serif" font-size="10.00">sstream</text>
</g>
<!-- Node41&#45;&gt;Node44 -->
<g id="edge61" class="edge"><title>Node41&#45;&gt;Node44</title>
<path fill="none" stroke="midnightblue" d="M2036.25,-380.475C2033.08,-371.904 2028.1,-358.427 2024.06,-347.483"/>
<polygon fill="midnightblue" stroke="midnightblue" points="2027.3,-346.175 2020.55,-338.009 2020.74,-348.602 2027.3,-346.175"/>
</g>
</g>
</svg>
        <g id="navigator" transform="translate(0 0)" fill="#404254">
                <rect fill="#f2f5e9" fill-opacity="0.5" stroke="#606060" stroke-width=".5" x="0" y="0" width="60" height="60"/>
                <use id="zoomplus" xlink:href="#zoomPlus" x="17" y="9" onmousedown="handleZoom(evt,'in')"/>
                <use id="zoomminus" xlink:href="#zoomMin" x="42" y="9" onmousedown="handleZoom(evt,'out')"/>
                <use id="reset" xlink:href="#resetDef" x="30" y="36" onmousedown="handleReset()"/>
                <g id="arrowUp" xlink:href="#dirArrow" transform="translate(30 24)" onmousedown="handlePan(0,-1)">
                  <use xlink:href="#rim" fill="#404040">
                        <set attributeName="fill" to="#808080" begin="arrowUp.mouseover" end="arrowUp.mouseout"/>
                  </use>
                  <path fill="none" stroke="white" stroke-width="1.5" d="M0,-3.0v7 M-2.5,-0.5L0,-3.0L2.5,-0.5"/>
                </g>
                <g id="arrowRight" xlink:href="#dirArrow" transform="rotate(90) translate(36 -43)" onmousedown="handlePan(1,0)">
                  <use xlink:href="#rim" fill="#404040">
                        <set attributeName="fill" to="#808080" begin="arrowRight.mouseover" end="arrowRight.mouseout"/>
                  </use>
                  <path fill="none" stroke="white" stroke-width="1.5" d="M0,-3.0v7 M-2.5,-0.5L0,-3.0L2.5,-0.5"/>
                </g>
                <g id="arrowDown" xlink:href="#dirArrow" transform="rotate(180) translate(-30 -48)" onmousedown="handlePan(0,1)">
                  <use xlink:href="#rim" fill="#404040">
                        <set attributeName="fill" to="#808080" begin="arrowDown.mouseover" end="arrowDown.mouseout"/>
                  </use>
                  <path fill="none" stroke="white" stroke-width="1.5" d="M0,-3.0v7 M-2.5,-0.5L0,-3.0L2.5,-0.5"/>
                </g>
                <g id="arrowLeft" xlink:href="#dirArrow" transform="rotate(270) translate(-36 17)" onmousedown="handlePan(-1,0)">
                  <use xlink:href="#rim" fill="#404040">
                        <set attributeName="fill" to="#808080" begin="arrowLeft.mouseover" end="arrowLeft.mouseout"/>
                  </use>
                  <path fill="none" stroke="white" stroke-width="1.5" d="M0,-3.0v7 M-2.5,-0.5L0,-3.0L2.5,-0.5"/>
                </g>
        </g>
        <svg viewBox="0 0 15 15" width="100%" height="30px" preserveAspectRatio="xMaxYMin meet">
         <g id="arrow_out" transform="scale(0.3 0.3)">
          <a xlink:href="TrapConfig_8cxx__incl_org.svg" target="_base">
           <rect id="button" ry="5" rx="5" y="6" x="6" height="38" width="38"
                fill="#f2f5e9" fill-opacity="0.5" stroke="#606060" stroke-width="1.0"/>
           <path id="arrow"
             d="M 11.500037,31.436501 C 11.940474,20.09759 22.043105,11.32322 32.158766,21.979434 L 37.068811,17.246167 C 37.068811,17.246167 37.088388,32 37.088388,32 L 22.160133,31.978069 C 22.160133,31.978069 26.997745,27.140456 26.997745,27.140456 C 18.528582,18.264221 13.291696,25.230495 11.500037,31.436501 z"
             style="fill:#404040;"/>
          </a>
         </g>
        </svg>
</svg>
