<?xml version="1.0" encoding="UTF-8" standalone="no"?>
<!DOCTYPE svg PUBLIC "-//W3C//DTD SVG 1.1//EN"
 "http://www.w3.org/Graphics/SVG/1.1/DTD/svg11.dtd">
<!-- Generated by graphviz version 2.38.0 (20140413.2041)
 -->
<!-- Title: /home/travis/build/AliceO2Group/AliceO2/Utilities/DataFlow/src/TimeframeValidationTool.cxx Pages: 1 -->
<svg width="730pt" height="173pt"
 viewBox="0.00 0.00 729.50 173.00" xmlns="http://www.w3.org/2000/svg" xmlns:xlink="http://www.w3.org/1999/xlink">
<g id="graph0" class="graph" transform="scale(1 1) rotate(0) translate(4 169)">
<title>/home/travis/build/AliceO2Group/AliceO2/Utilities/DataFlow/src/TimeframeValidationTool.cxx</title>
<!-- Node1 -->
<g id="node1" class="node"><title>Node1</title>
<polygon fill="#bfbfbf" stroke="black" points="363.5,-112.5 363.5,-164.5 509.5,-164.5 509.5,-112.5 363.5,-112.5"/>
<text text-anchor="start" x="371.5" y="-152.5" font-family="Helvetica,sans-Serif" font-size="10.00">/home/travis/build</text>
<text text-anchor="start" x="371.5" y="-141.5" font-family="Helvetica,sans-Serif" font-size="10.00">/AliceO2Group/AliceO2</text>
<text text-anchor="start" x="371.5" y="-130.5" font-family="Helvetica,sans-Serif" font-size="10.00">/Utilities/DataFlow/src</text>
<text text-anchor="middle" x="436.5" y="-119.5" font-family="Helvetica,sans-Serif" font-size="10.00">/TimeframeValidationTool.cxx</text>
</g>
<!-- Node2 -->
<g id="node2" class="node"><title>Node2</title>
<g id="a_node2"><a xlink:href="../../dd/ddb/TimeframeParser_8h.html" target="_top" xlink:title="DataFlow/TimeframeParser.h">
<polygon fill="none" stroke="black" points="0,-56.5 0,-75.5 145,-75.5 145,-56.5 0,-56.5"/>
<text text-anchor="middle" x="72.5" y="-63.5" font-family="Helvetica,sans-Serif" font-size="10.00">DataFlow/TimeframeParser.h</text>
</a>
</g>
</g>
<!-- Node1&#45;&gt;Node2 -->
<g id="edge1" class="edge"><title>Node1&#45;&gt;Node2</title>
<path fill="none" stroke="midnightblue" d="M363.277,-123.318C293.267,-109.758 189.337,-89.6292 126.542,-77.4668"/>
<polygon fill="midnightblue" stroke="midnightblue" points="126.932,-73.9776 116.449,-75.5122 125.601,-80.8499 126.932,-73.9776"/>
</g>
<!-- Node5 -->
<g id="node5" class="node"><title>Node5</title>
<polygon fill="none" stroke="#bfbfbf" points="163.5,-56.5 163.5,-75.5 273.5,-75.5 273.5,-56.5 163.5,-56.5"/>
<text text-anchor="middle" x="218.5" y="-63.5" font-family="Helvetica,sans-Serif" font-size="10.00">fairmq/FairMQParts.h</text>
</g>
<!-- Node1&#45;&gt;Node5 -->
<g id="edge4" class="edge"><title>Node1&#45;&gt;Node5</title>
<path fill="none" stroke="midnightblue" d="M363.303,-113.828C326.789,-102.02 284.245,-88.2616 254.762,-78.7269"/>
<polygon fill="midnightblue" stroke="midnightblue" points="255.501,-75.2876 244.91,-75.5407 253.347,-81.948 255.501,-75.2876"/>
</g>
<!-- Node6 -->
<g id="node6" class="node"><title>Node6</title>
<polygon fill="none" stroke="#bfbfbf" points="291.5,-56.5 291.5,-75.5 335.5,-75.5 335.5,-56.5 291.5,-56.5"/>
<text text-anchor="middle" x="313.5" y="-63.5" font-family="Helvetica,sans-Serif" font-size="10.00">vector</text>
</g>
<!-- Node1&#45;&gt;Node6 -->
<g id="edge5" class="edge"><title>Node1&#45;&gt;Node6</title>
<path fill="none" stroke="midnightblue" d="M392.788,-112.446C374.147,-101.761 353.12,-89.709 337.406,-80.7021"/>
<polygon fill="midnightblue" stroke="midnightblue" points="338.793,-77.4632 328.377,-75.527 335.312,-83.5364 338.793,-77.4632"/>
</g>
<!-- Node7 -->
<g id="node7" class="node"><title>Node7</title>
<polygon fill="none" stroke="#bfbfbf" points="354,-56.5 354,-75.5 395,-75.5 395,-56.5 354,-56.5"/>
<text text-anchor="middle" x="374.5" y="-63.5" font-family="Helvetica,sans-Serif" font-size="10.00">string</text>
</g>
<!-- Node1&#45;&gt;Node7 -->
<g id="edge6" class="edge"><title>Node1&#45;&gt;Node7</title>
<path fill="none" stroke="midnightblue" d="M414.467,-112.446C405.921,-102.728 396.38,-91.8797 388.764,-83.2196"/>
<polygon fill="midnightblue" stroke="midnightblue" points="391.379,-80.8934 382.147,-75.6955 386.123,-85.5161 391.379,-80.8934"/>
</g>
<!-- Node8 -->
<g id="node8" class="node"><title>Node8</title>
<polygon fill="none" stroke="#bfbfbf" points="413.5,-56.5 413.5,-75.5 459.5,-75.5 459.5,-56.5 413.5,-56.5"/>
<text text-anchor="middle" x="436.5" y="-63.5" font-family="Helvetica,sans-Serif" font-size="10.00">cctype</text>
</g>
<!-- Node1&#45;&gt;Node8 -->
<g id="edge7" class="edge"><title>Node1&#45;&gt;Node8</title>
<path fill="none" stroke="midnightblue" d="M436.5,-112.446C436.5,-103.73 436.5,-94.1045 436.5,-85.9641"/>
<polygon fill="midnightblue" stroke="midnightblue" points="440,-85.6954 436.5,-75.6955 433,-85.6955 440,-85.6954"/>
</g>
<!-- Node9 -->
<g id="node9" class="node"><title>Node9</title>
<polygon fill="none" stroke="#bfbfbf" points="478,-56.5 478,-75.5 521,-75.5 521,-56.5 478,-56.5"/>
<text text-anchor="middle" x="499.5" y="-63.5" font-family="Helvetica,sans-Serif" font-size="10.00">cstdio</text>
</g>
<!-- Node1&#45;&gt;Node9 -->
<g id="edge8" class="edge"><title>Node1&#45;&gt;Node9</title>
<path fill="none" stroke="midnightblue" d="M458.889,-112.446C467.573,-102.728 477.267,-91.8797 485.006,-83.2196"/>
<polygon fill="midnightblue" stroke="midnightblue" points="487.676,-85.4842 491.73,-75.6955 482.456,-80.8199 487.676,-85.4842"/>
</g>
<!-- Node10 -->
<g id="node10" class="node"><title>Node10</title>
<polygon fill="none" stroke="#bfbfbf" points="539,-56.5 539,-75.5 584,-75.5 584,-56.5 539,-56.5"/>
<text text-anchor="middle" x="561.5" y="-63.5" font-family="Helvetica,sans-Serif" font-size="10.00">cstdlib</text>
</g>
<!-- Node1&#45;&gt;Node10 -->
<g id="edge9" class="edge"><title>Node1&#45;&gt;Node10</title>
<path fill="none" stroke="midnightblue" d="M480.922,-112.446C500.046,-101.66 521.639,-89.4814 537.656,-80.448"/>
<polygon fill="midnightblue" stroke="midnightblue" points="539.39,-83.4881 546.381,-75.527 535.952,-77.391 539.39,-83.4881"/>
</g>
<!-- Node11 -->
<g id="node11" class="node"><title>Node11</title>
<polygon fill="none" stroke="#bfbfbf" points="602,-56.5 602,-75.5 653,-75.5 653,-56.5 602,-56.5"/>
<text text-anchor="middle" x="627.5" y="-63.5" font-family="Helvetica,sans-Serif" font-size="10.00">unistd.h</text>
</g>
<!-- Node1&#45;&gt;Node11 -->
<g id="edge10" class="edge"><title>Node1&#45;&gt;Node11</title>
<path fill="none" stroke="midnightblue" d="M504.377,-112.446C535.1,-101.106 569.995,-88.2257 594.771,-79.0805"/>
<polygon fill="midnightblue" stroke="midnightblue" points="596.229,-82.2733 604.399,-75.527 593.805,-75.7063 596.229,-82.2733"/>
</g>
<!-- Node12 -->
<g id="node12" class="node"><title>Node12</title>
<polygon fill="none" stroke="#bfbfbf" points="671.5,-56.5 671.5,-75.5 721.5,-75.5 721.5,-56.5 671.5,-56.5"/>
<text text-anchor="middle" x="696.5" y="-63.5" font-family="Helvetica,sans-Serif" font-size="10.00">fstream</text>
</g>
<!-- Node1&#45;&gt;Node12 -->
<g id="edge11" class="edge"><title>Node1&#45;&gt;Node12</title>
<path fill="none" stroke="midnightblue" d="M509.616,-117.674C559.39,-104.178 623.022,-86.9239 661.722,-76.4303"/>
<polygon fill="midnightblue" stroke="midnightblue" points="662.736,-79.7817 671.471,-73.7866 660.904,-73.0257 662.736,-79.7817"/>
</g>
<!-- Node3 -->
<g id="node3" class="node"><title>Node3</title>
<polygon fill="none" stroke="#bfbfbf" points="15,-0.5 15,-19.5 60,-19.5 60,-0.5 15,-0.5"/>
<text text-anchor="middle" x="37.5" y="-7.5" font-family="Helvetica,sans-Serif" font-size="10.00">iosfwd</text>
</g>
<!-- Node2&#45;&gt;Node3 -->
<g id="edge2" class="edge"><title>Node2&#45;&gt;Node3</title>
<path fill="none" stroke="midnightblue" d="M66.7205,-56.083C61.8276,-48.5341 54.6726,-37.4948 48.6674,-28.2298"/>
<polygon fill="midnightblue" stroke="midnightblue" points="51.548,-26.239 43.172,-19.7511 45.674,-30.0463 51.548,-26.239"/>
</g>
<!-- Node4 -->
<g id="node4" class="node"><title>Node4</title>
<polygon fill="none" stroke="#bfbfbf" points="78,-0.5 78,-19.5 137,-19.5 137,-0.5 78,-0.5"/>
<text text-anchor="middle" x="107.5" y="-7.5" font-family="Helvetica,sans-Serif" font-size="10.00">functional</text>
</g>
<!-- Node2&#45;&gt;Node4 -->
<g id="edge3" class="edge"><title>Node2&#45;&gt;Node4</title>
<path fill="none" stroke="midnightblue" d="M78.2795,-56.083C83.1724,-48.5341 90.3274,-37.4948 96.3326,-28.2298"/>
<polygon fill="midnightblue" stroke="midnightblue" points="99.326,-30.0463 101.828,-19.7511 93.452,-26.239 99.326,-30.0463"/>
</g>
</g>
</svg>
