<?xml version="1.0" encoding="UTF-8" standalone="no"?>
<!DOCTYPE svg PUBLIC "-//W3C//DTD SVG 1.1//EN"
 "http://www.w3.org/Graphics/SVG/1.1/DTD/svg11.dtd">
<!-- Generated by graphviz version 2.38.0 (20140413.2041)
 -->
<!-- Title: o2::utils::TreeStream::TreeDataElement Pages: 1 -->
<svg width="213pt" height="182pt"
 viewBox="0.00 0.00 213.00 182.00" xmlns="http://www.w3.org/2000/svg" xmlns:xlink="http://www.w3.org/1999/xlink">
<g id="graph0" class="graph" transform="scale(1 1) rotate(0) translate(4 178)">
<title>o2::utils::TreeStream::TreeDataElement</title>
<!-- Node1 -->
<g id="node1" class="node"><title>Node1</title>
<polygon fill="#bfbfbf" stroke="black" points="42.5,-0.5 42.5,-68.5 150.5,-68.5 150.5,-0.5 42.5,-0.5"/>
<text text-anchor="start" x="50.5" y="-56.5" font-family="Helvetica,sans-Serif" font-size="10.00">o2::utils::TreeStream</text>
<text text-anchor="middle" x="96.5" y="-45.5" font-family="Helvetica,sans-Serif" font-size="10.00">::TreeDataElement</text>
<polyline fill="none" stroke="black" points="42.5,-38.5 150.5,-38.5 "/>
<text text-anchor="middle" x="96.5" y="-26.5" font-family="Helvetica,sans-Serif" font-size="10.00"> </text>
<polyline fill="none" stroke="black" points="42.5,-19.5 150.5,-19.5 "/>
<text text-anchor="middle" x="96.5" y="-7.5" font-family="Helvetica,sans-Serif" font-size="10.00"> </text>
</g>
<!-- Node2 -->
<g id="node2" class="node"><title>Node2</title>
<polygon fill="none" stroke="#bfbfbf" points="0,-116.5 0,-173.5 35,-173.5 35,-116.5 0,-116.5"/>
<text text-anchor="middle" x="17.5" y="-161.5" font-family="Helvetica,sans-Serif" font-size="10.00">char</text>
<polyline fill="none" stroke="#bfbfbf" points="0,-154.5 35,-154.5 "/>
<text text-anchor="middle" x="17.5" y="-142.5" font-family="Helvetica,sans-Serif" font-size="10.00"> </text>
<polyline fill="none" stroke="#bfbfbf" points="0,-135.5 35,-135.5 "/>
<text text-anchor="middle" x="17.5" y="-123.5" font-family="Helvetica,sans-Serif" font-size="10.00"> </text>
</g>
<!-- Node2&#45;&gt;Node1 -->
<g id="edge1" class="edge"><title>Node2&#45;&gt;Node1</title>
<path fill="none" stroke="#404040" d="M22.2517,-116.477C24.8166,-106.623 28.6946,-95.7889 34.5,-87 36.6594,-83.7308 39.0882,-80.5606 41.7015,-77.507"/>
<polygon fill="none" stroke="#404040" points="41.7692,-77.4354 42.9823,-70.327 50.0105,-68.7129 48.7973,-75.8212 41.7692,-77.4354"/>
<text text-anchor="middle" x="48.5" y="-90" font-family="Helvetica,sans-Serif" font-size="10.00"> +type</text>
</g>
<!-- Node3 -->
<g id="node3" class="node"><title>Node3</title>
<polygon fill="none" stroke="#bfbfbf" points="54,-116.5 54,-173.5 83,-173.5 83,-116.5 54,-116.5"/>
<text text-anchor="middle" x="68.5" y="-161.5" font-family="Helvetica,sans-Serif" font-size="10.00">int</text>
<polyline fill="none" stroke="#bfbfbf" points="54,-154.5 83,-154.5 "/>
<text text-anchor="middle" x="68.5" y="-142.5" font-family="Helvetica,sans-Serif" font-size="10.00"> </text>
<polyline fill="none" stroke="#bfbfbf" points="54,-135.5 83,-135.5 "/>
<text text-anchor="middle" x="68.5" y="-123.5" font-family="Helvetica,sans-Serif" font-size="10.00"> </text>
</g>
<!-- Node3&#45;&gt;Node1 -->
<g id="edge2" class="edge"><title>Node3&#45;&gt;Node1</title>
<path fill="none" stroke="#404040" d="M66.4281,-116.403C66.3889,-106.953 67.0984,-96.3974 69.5,-87 70.1151,-84.593 70.8615,-82.1728 71.7082,-79.7643"/>
<polygon fill="none" stroke="#404040" points="71.7083,-79.764 70.2996,-72.6918 76.2859,-68.6714 77.6947,-75.7436 71.7083,-79.764"/>
<text text-anchor="middle" x="86.5" y="-90" font-family="Helvetica,sans-Serif" font-size="10.00"> +name</text>
</g>
<!-- Node4 -->
<g id="node4" class="node"><title>Node4</title>
<polygon fill="none" stroke="#bfbfbf" points="105,-116.5 105,-173.5 146,-173.5 146,-116.5 105,-116.5"/>
<text text-anchor="middle" x="125.5" y="-161.5" font-family="Helvetica,sans-Serif" font-size="10.00">const</text>
<polyline fill="none" stroke="#bfbfbf" points="105,-154.5 146,-154.5 "/>
<text text-anchor="middle" x="125.5" y="-142.5" font-family="Helvetica,sans-Serif" font-size="10.00"> </text>
<polyline fill="none" stroke="#bfbfbf" points="105,-135.5 146,-135.5 "/>
<text text-anchor="middle" x="125.5" y="-123.5" font-family="Helvetica,sans-Serif" font-size="10.00"> </text>
</g>
<!-- Node4&#45;&gt;Node1 -->
<g id="edge3" class="edge"><title>Node4&#45;&gt;Node1</title>
<path fill="none" stroke="#404040" d="M118.107,-116.34C115.187,-105.416 111.756,-92.5798 108.499,-80.3935"/>
<polygon fill="none" stroke="#404040" points="108.424,-80.1116 103.01,-75.348 105.325,-68.5186 110.739,-73.2822 108.424,-80.1116"/>
<text text-anchor="middle" x="123.5" y="-90" font-family="Helvetica,sans-Serif" font-size="10.00"> +cls</text>
</g>
<!-- Node5 -->
<g id="node5" class="node"><title>Node5</title>
<polygon fill="none" stroke="#bfbfbf" points="164,-116.5 164,-173.5 205,-173.5 205,-116.5 164,-116.5"/>
<text text-anchor="middle" x="184.5" y="-161.5" font-family="Helvetica,sans-Serif" font-size="10.00">void *</text>
<polyline fill="none" stroke="#bfbfbf" points="164,-154.5 205,-154.5 "/>
<text text-anchor="middle" x="184.5" y="-142.5" font-family="Helvetica,sans-Serif" font-size="10.00"> </text>
<polyline fill="none" stroke="#bfbfbf" points="164,-135.5 205,-135.5 "/>
<text text-anchor="middle" x="184.5" y="-123.5" font-family="Helvetica,sans-Serif" font-size="10.00"> </text>
</g>
<!-- Node5&#45;&gt;Node1 -->
<g id="edge4" class="edge"><title>Node5&#45;&gt;Node1</title>
<path fill="none" stroke="#404040" d="M163.919,-118.44C155.986,-108.603 146.832,-97.2703 138.5,-87 136.176,-84.1357 133.778,-81.1837 131.36,-78.2105"/>
<polygon fill="none" stroke="#404040" points="131.213,-78.0299 124.323,-75.9022 123.637,-68.7238 130.527,-70.8515 131.213,-78.0299"/>
<text text-anchor="middle" x="157" y="-90" font-family="Helvetica,sans-Serif" font-size="10.00"> +ptr</text>
</g>
</g>
</svg>
