<?xml version="1.0" encoding="UTF-8" standalone="no"?>
<!DOCTYPE svg PUBLIC "-//W3C//DTD SVG 1.1//EN"
 "http://www.w3.org/Graphics/SVG/1.1/DTD/svg11.dtd">
<!-- Generated by graphviz version 2.38.0 (20140413.2041)
 -->
<!-- Title: /home/travis/build/AliceO2Group/AliceO2/GPU/GPUTracking/gpucf/src/gpucf/common/log.h Pages: 1 -->
<!--zoomable 561 -->
<svg id="main" version="1.1" xmlns="http://www.w3.org/2000/svg" xmlns:xlink="http://www.w3.org/1999/xlink" xml:space="preserve" onload="init(evt)">
<style type="text/css"><![CDATA[
.edge:hover path { stroke: red; }
.edge:hover polygon { stroke: red; fill: red; }
]]></style>
<script type="text/javascript"><![CDATA[
var edges = document.getElementsByTagName('g');
if (edges && edges.length) {
  for (var i=0;i<edges.length;i++) {
    if (edges[i].id.substr(0,4)=='edge') {
      edges[i].setAttribute('class','edge');
    }
  }
}
]]></script>
        <defs>
                <circle id="rim" cx="0" cy="0" r="7"/>
                <circle id="rim2" cx="0" cy="0" r="3.5"/>
                <g id="zoomPlus">
                        <use xlink:href="#rim" fill="#404040">
                                <set attributeName="fill" to="#808080" begin="zoomplus.mouseover" end="zoomplus.mouseout"/>
                        </use>
                        <path d="M-4,0h8M0,-4v8" fill="none" stroke="white" stroke-width="1.5" pointer-events="none"/>
                </g>
                <g id="zoomMin">
                        <use xlink:href="#rim" fill="#404040">
                                <set attributeName="fill" to="#808080" begin="zoomminus.mouseover" end="zoomminus.mouseout"/>
                        </use>
                        <path d="M-4,0h8" fill="none" stroke="white" stroke-width="1.5" pointer-events="none"/>
                </g>
                <g id="dirArrow">
                        <path fill="none" stroke="white" stroke-width="1.5" d="M0,-3.0v7 M-2.5,-0.5L0,-3.0L2.5,-0.5"/>
                </g>
               <g id="resetDef">
                       <use xlink:href="#rim2" fill="#404040">
                               <set attributeName="fill" to="#808080" begin="reset.mouseover" end="reset.mouseout"/>
                       </use>
               </g>
        </defs>

<script type="text/javascript">
var viewWidth = 911;
var viewHeight = 561;
var sectionId = 'dynsection-1';
</script>
<script xlink:href="../../svgpan.js"/>
<svg id="graph" class="graph">
<g id="viewport">
<title>/home/travis/build/AliceO2Group/AliceO2/GPU/GPUTracking/gpucf/src/gpucf/common/log.h</title>
<!-- Node1 -->
<g id="node1" class="node"><title>Node1</title>
<polygon fill="#bfbfbf" stroke="black" points="376.5,-500.5 376.5,-552.5 507.5,-552.5 507.5,-500.5 376.5,-500.5"/>
<text text-anchor="start" x="384.5" y="-540.5" font-family="Helvetica,sans-Serif" font-size="10.00">/home/travis/build</text>
<text text-anchor="start" x="384.5" y="-529.5" font-family="Helvetica,sans-Serif" font-size="10.00">/AliceO2Group/AliceO2</text>
<text text-anchor="start" x="384.5" y="-518.5" font-family="Helvetica,sans-Serif" font-size="10.00">/GPU/GPUTracking/gpucf</text>
<text text-anchor="middle" x="442" y="-507.5" font-family="Helvetica,sans-Serif" font-size="10.00">/src/gpucf/common/log.h</text>
</g>
<!-- Node2 -->
<g id="node2" class="node"><title>Node2</title>
<g id="a_node2"><a xlink:href="../../dc/dd3/ClusterToCPU_8h.html" target="_top" xlink:title="/home/travis/build\l/AliceO2Group/AliceO2\l/GPU/GPUTracking/gpucf\l/src/gpucf/algorithms/steps\l/ClusterToCPU.h">
<polygon fill="none" stroke="black" points="271.5,-400.5 271.5,-463.5 406.5,-463.5 406.5,-400.5 271.5,-400.5"/>
<text text-anchor="start" x="279.5" y="-451.5" font-family="Helvetica,sans-Serif" font-size="10.00">/home/travis/build</text>
<text text-anchor="start" x="279.5" y="-440.5" font-family="Helvetica,sans-Serif" font-size="10.00">/AliceO2Group/AliceO2</text>
<text text-anchor="start" x="279.5" y="-429.5" font-family="Helvetica,sans-Serif" font-size="10.00">/GPU/GPUTracking/gpucf</text>
<text text-anchor="start" x="279.5" y="-418.5" font-family="Helvetica,sans-Serif" font-size="10.00">/src/gpucf/algorithms/steps</text>
<text text-anchor="middle" x="339" y="-407.5" font-family="Helvetica,sans-Serif" font-size="10.00">/ClusterToCPU.h</text>
</a>
</g>
</g>
<!-- Node1&#45;&gt;Node2 -->
<g id="edge1" class="edge"><title>Node1&#45;&gt;Node2</title>
<path fill="none" stroke="midnightblue" d="M406.48,-493.601C395.684,-483.905 383.847,-473.275 373.143,-463.663"/>
<polygon fill="midnightblue" stroke="midnightblue" points="404.348,-496.391 414.127,-500.468 409.025,-491.182 404.348,-496.391"/>
</g>
<!-- Node8 -->
<g id="node8" class="node"><title>Node8</title>
<g id="a_node8"><a xlink:href="../../df/d79/Map_8h.html" target="_top" xlink:title="/home/travis/build\l/AliceO2Group/AliceO2\l/GPU/GPUTracking/gpucf\l/src/gpucf/common/Map.h">
<polygon fill="none" stroke="black" points="480.5,-406 480.5,-458 611.5,-458 611.5,-406 480.5,-406"/>
<text text-anchor="start" x="488.5" y="-446" font-family="Helvetica,sans-Serif" font-size="10.00">/home/travis/build</text>
<text text-anchor="start" x="488.5" y="-435" font-family="Helvetica,sans-Serif" font-size="10.00">/AliceO2Group/AliceO2</text>
<text text-anchor="start" x="488.5" y="-424" font-family="Helvetica,sans-Serif" font-size="10.00">/GPU/GPUTracking/gpucf</text>
<text text-anchor="middle" x="546" y="-413" font-family="Helvetica,sans-Serif" font-size="10.00">/src/gpucf/common/Map.h</text>
</a>
</g>
</g>
<!-- Node1&#45;&gt;Node8 -->
<g id="edge7" class="edge"><title>Node1&#45;&gt;Node8</title>
<path fill="none" stroke="midnightblue" d="M477.664,-493.779C490.789,-482.106 505.46,-469.057 517.834,-458.052"/>
<polygon fill="midnightblue" stroke="midnightblue" points="475.29,-491.207 470.144,-500.468 479.942,-496.438 475.29,-491.207"/>
</g>
<!-- Node3 -->
<g id="node3" class="node"><title>Node3</title>
<g id="a_node3"><a xlink:href="../../d3/d45/steps_8h.html" target="_top" xlink:title="/home/travis/build\l/AliceO2Group/AliceO2\l/GPU/GPUTracking/gpucf\l/src/gpucf/algorithms/steps\l/steps.h">
<polygon fill="none" stroke="black" points="132.5,-300.5 132.5,-363.5 267.5,-363.5 267.5,-300.5 132.5,-300.5"/>
<text text-anchor="start" x="140.5" y="-351.5" font-family="Helvetica,sans-Serif" font-size="10.00">/home/travis/build</text>
<text text-anchor="start" x="140.5" y="-340.5" font-family="Helvetica,sans-Serif" font-size="10.00">/AliceO2Group/AliceO2</text>
<text text-anchor="start" x="140.5" y="-329.5" font-family="Helvetica,sans-Serif" font-size="10.00">/GPU/GPUTracking/gpucf</text>
<text text-anchor="start" x="140.5" y="-318.5" font-family="Helvetica,sans-Serif" font-size="10.00">/src/gpucf/algorithms/steps</text>
<text text-anchor="middle" x="200" y="-307.5" font-family="Helvetica,sans-Serif" font-size="10.00">/steps.h</text>
</a>
</g>
</g>
<!-- Node2&#45;&gt;Node3 -->
<g id="edge2" class="edge"><title>Node2&#45;&gt;Node3</title>
<path fill="none" stroke="midnightblue" d="M287.085,-394.398C272.717,-384.268 257.276,-373.382 243.444,-363.63"/>
<polygon fill="midnightblue" stroke="midnightblue" points="285.211,-397.359 295.401,-400.261 289.245,-391.638 285.211,-397.359"/>
</g>
<!-- Node4 -->
<g id="node4" class="node"><title>Node4</title>
<g id="a_node4"><a xlink:href="../../d4/d99/ClusterFinder_8h.html" target="_top" xlink:title="/home/travis/build\l/AliceO2Group/AliceO2\l/GPU/GPUTracking/gpucf\l/src/gpucf/algorithms/ClusterFinder.h">
<polygon fill="none" stroke="black" points="59,-206 59,-258 237,-258 237,-206 59,-206"/>
<text text-anchor="start" x="67" y="-246" font-family="Helvetica,sans-Serif" font-size="10.00">/home/travis/build</text>
<text text-anchor="start" x="67" y="-235" font-family="Helvetica,sans-Serif" font-size="10.00">/AliceO2Group/AliceO2</text>
<text text-anchor="start" x="67" y="-224" font-family="Helvetica,sans-Serif" font-size="10.00">/GPU/GPUTracking/gpucf</text>
<text text-anchor="middle" x="148" y="-213" font-family="Helvetica,sans-Serif" font-size="10.00">/src/gpucf/algorithms/ClusterFinder.h</text>
</a>
</g>
</g>
<!-- Node3&#45;&gt;Node4 -->
<g id="edge3" class="edge"><title>Node3&#45;&gt;Node4</title>
<path fill="none" stroke="midnightblue" d="M178.999,-291.421C173.02,-280.154 166.676,-268.196 161.294,-258.054"/>
<polygon fill="midnightblue" stroke="midnightblue" points="175.911,-293.068 183.69,-300.261 182.094,-289.787 175.911,-293.068"/>
</g>
<!-- Node5 -->
<g id="node5" class="node"><title>Node5</title>
<g id="a_node5"><a xlink:href="../../d9/d79/ClusterFinderProfiler_8h.html" target="_top" xlink:title="/home/travis/build\l/AliceO2Group/AliceO2\l/GPU/GPUTracking/gpucf\l/src/gpucf/algorithms/ClusterFinder\lProfiler.h">
<polygon fill="none" stroke="black" points="0,-100.5 0,-163.5 170,-163.5 170,-100.5 0,-100.5"/>
<text text-anchor="start" x="8" y="-151.5" font-family="Helvetica,sans-Serif" font-size="10.00">/home/travis/build</text>
<text text-anchor="start" x="8" y="-140.5" font-family="Helvetica,sans-Serif" font-size="10.00">/AliceO2Group/AliceO2</text>
<text text-anchor="start" x="8" y="-129.5" font-family="Helvetica,sans-Serif" font-size="10.00">/GPU/GPUTracking/gpucf</text>
<text text-anchor="start" x="8" y="-118.5" font-family="Helvetica,sans-Serif" font-size="10.00">/src/gpucf/algorithms/ClusterFinder</text>
<text text-anchor="middle" x="85" y="-107.5" font-family="Helvetica,sans-Serif" font-size="10.00">Profiler.h</text>
</a>
</g>
</g>
<!-- Node4&#45;&gt;Node5 -->
<g id="edge4" class="edge"><title>Node4&#45;&gt;Node5</title>
<path fill="none" stroke="midnightblue" d="M126.347,-197.317C119.346,-186.427 111.624,-174.415 104.767,-163.749"/>
<polygon fill="midnightblue" stroke="midnightblue" points="123.424,-199.243 131.776,-205.763 129.312,-195.458 123.424,-199.243"/>
</g>
<!-- Node6 -->
<g id="node6" class="node"><title>Node6</title>
<g id="a_node6"><a xlink:href="../../da/dac/ClusterFinderTest_8h.html" target="_top" xlink:title="/home/travis/build\l/AliceO2Group/AliceO2\l/GPU/GPUTracking/gpucf\l/src/gpucf/algorithms/ClusterFinder\lTest.h">
<polygon fill="none" stroke="black" points="259,-0.5 259,-63.5 429,-63.5 429,-0.5 259,-0.5"/>
<text text-anchor="start" x="267" y="-51.5" font-family="Helvetica,sans-Serif" font-size="10.00">/home/travis/build</text>
<text text-anchor="start" x="267" y="-40.5" font-family="Helvetica,sans-Serif" font-size="10.00">/AliceO2Group/AliceO2</text>
<text text-anchor="start" x="267" y="-29.5" font-family="Helvetica,sans-Serif" font-size="10.00">/GPU/GPUTracking/gpucf</text>
<text text-anchor="start" x="267" y="-18.5" font-family="Helvetica,sans-Serif" font-size="10.00">/src/gpucf/algorithms/ClusterFinder</text>
<text text-anchor="middle" x="344" y="-7.5" font-family="Helvetica,sans-Serif" font-size="10.00">Test.h</text>
</a>
</g>
</g>
<!-- Node4&#45;&gt;Node6 -->
<g id="edge5" class="edge"><title>Node4&#45;&gt;Node6</title>
<path fill="none" stroke="midnightblue" d="M164.472,-196.704C182.081,-160.475 208.486,-107.539 216,-100 230.519,-85.4316 248.869,-73.3219 267.107,-63.5905"/>
<polygon fill="midnightblue" stroke="midnightblue" points="161.193,-195.446 159.982,-205.971 167.492,-198.498 161.193,-195.446"/>
</g>
<!-- Node7 -->
<g id="node7" class="node"><title>Node7</title>
<g id="a_node7"><a xlink:href="../../db/d65/PeakCountTest_8h.html" target="_top" xlink:title="/home/travis/build\l/AliceO2Group/AliceO2\l/GPU/GPUTracking/gpucf\l/src/gpucf/debug/PeakCountTest.h">
<polygon fill="none" stroke="black" points="225.5,-106 225.5,-158 394.5,-158 394.5,-106 225.5,-106"/>
<text text-anchor="start" x="233.5" y="-146" font-family="Helvetica,sans-Serif" font-size="10.00">/home/travis/build</text>
<text text-anchor="start" x="233.5" y="-135" font-family="Helvetica,sans-Serif" font-size="10.00">/AliceO2Group/AliceO2</text>
<text text-anchor="start" x="233.5" y="-124" font-family="Helvetica,sans-Serif" font-size="10.00">/GPU/GPUTracking/gpucf</text>
<text text-anchor="middle" x="310" y="-113" font-family="Helvetica,sans-Serif" font-size="10.00">/src/gpucf/debug/PeakCountTest.h</text>
</a>
</g>
</g>
<!-- Node4&#45;&gt;Node7 -->
<g id="edge6" class="edge"><title>Node4&#45;&gt;Node7</title>
<path fill="none" stroke="midnightblue" d="M198.456,-200.477C220.935,-186.879 247.091,-171.056 268.422,-158.152"/>
<polygon fill="midnightblue" stroke="midnightblue" points="196.464,-197.592 189.719,-205.763 200.087,-203.581 196.464,-197.592"/>
</g>
<!-- Node9 -->
<g id="node9" class="node"><title>Node9</title>
<g id="a_node9"><a xlink:href="../../dc/da7/cpu_8h.html" target="_top" xlink:title="/home/travis/build\l/AliceO2Group/AliceO2\l/GPU/GPUTracking/gpucf\l/src/gpucf/algorithms/cpu.h">
<polygon fill="none" stroke="black" points="767.5,-306 767.5,-358 902.5,-358 902.5,-306 767.5,-306"/>
<text text-anchor="start" x="775.5" y="-346" font-family="Helvetica,sans-Serif" font-size="10.00">/home/travis/build</text>
<text text-anchor="start" x="775.5" y="-335" font-family="Helvetica,sans-Serif" font-size="10.00">/AliceO2Group/AliceO2</text>
<text text-anchor="start" x="775.5" y="-324" font-family="Helvetica,sans-Serif" font-size="10.00">/GPU/GPUTracking/gpucf</text>
<text text-anchor="middle" x="835" y="-313" font-family="Helvetica,sans-Serif" font-size="10.00">/src/gpucf/algorithms/cpu.h</text>
</a>
</g>
</g>
<!-- Node8&#45;&gt;Node9 -->
<g id="edge8" class="edge"><title>Node8&#45;&gt;Node9</title>
<path fill="none" stroke="midnightblue" d="M621.33,-407.583C660.713,-395.098 709.624,-379.209 753,-364 758.314,-362.137 763.805,-360.165 769.31,-358.154"/>
<polygon fill="midnightblue" stroke="midnightblue" points="620.011,-404.33 611.532,-410.682 622.122,-411.004 620.011,-404.33"/>
</g>
<!-- Node10 -->
<g id="node10" class="node"><title>Node10</title>
<g id="a_node10"><a xlink:href="../../df/d2f/ReferenceClusterFinder_8h.html" target="_top" xlink:title="/home/travis/build\l/AliceO2Group/AliceO2\l/GPU/GPUTracking/gpucf\l/src/gpucf/algorithms/Reference\lClusterFinder.h">
<polygon fill="none" stroke="black" points="413,-100.5 413,-163.5 569,-163.5 569,-100.5 413,-100.5"/>
<text text-anchor="start" x="421" y="-151.5" font-family="Helvetica,sans-Serif" font-size="10.00">/home/travis/build</text>
<text text-anchor="start" x="421" y="-140.5" font-family="Helvetica,sans-Serif" font-size="10.00">/AliceO2Group/AliceO2</text>
<text text-anchor="start" x="421" y="-129.5" font-family="Helvetica,sans-Serif" font-size="10.00">/GPU/GPUTracking/gpucf</text>
<text text-anchor="start" x="421" y="-118.5" font-family="Helvetica,sans-Serif" font-size="10.00">/src/gpucf/algorithms/Reference</text>
<text text-anchor="middle" x="491" y="-107.5" font-family="Helvetica,sans-Serif" font-size="10.00">ClusterFinder.h</text>
</a>
</g>
</g>
<!-- Node8&#45;&gt;Node10 -->
<g id="edge9" class="edge"><title>Node8&#45;&gt;Node10</title>
<path fill="none" stroke="midnightblue" d="M621.679,-416.907C652.807,-407.225 686.339,-391.017 707,-364 751.416,-305.919 763.846,-258.512 720,-200 701.618,-175.47 627.952,-156.909 569.068,-145.615"/>
<polygon fill="midnightblue" stroke="midnightblue" points="620.295,-413.665 611.676,-419.827 622.257,-420.385 620.295,-413.665"/>
</g>
<!-- Node11 -->
<g id="node11" class="node"><title>Node11</title>
<g id="a_node11"><a xlink:href="../../d0/db2/DigitDrawer_8h.html" target="_top" xlink:title="/home/travis/build\l/AliceO2Group/AliceO2\l/GPU/GPUTracking/gpucf\l/src/gpucf/debug/DigitDrawer.h">
<polygon fill="none" stroke="black" points="388,-306 388,-358 540,-358 540,-306 388,-306"/>
<text text-anchor="start" x="396" y="-346" font-family="Helvetica,sans-Serif" font-size="10.00">/home/travis/build</text>
<text text-anchor="start" x="396" y="-335" font-family="Helvetica,sans-Serif" font-size="10.00">/AliceO2Group/AliceO2</text>
<text text-anchor="start" x="396" y="-324" font-family="Helvetica,sans-Serif" font-size="10.00">/GPU/GPUTracking/gpucf</text>
<text text-anchor="middle" x="464" y="-313" font-family="Helvetica,sans-Serif" font-size="10.00">/src/gpucf/debug/DigitDrawer.h</text>
</a>
</g>
</g>
<!-- Node8&#45;&gt;Node11 -->
<g id="edge11" class="edge"><title>Node8&#45;&gt;Node11</title>
<path fill="none" stroke="midnightblue" d="M518.325,-397.925C507.451,-384.93 495.174,-370.257 485.045,-358.152"/>
<polygon fill="midnightblue" stroke="midnightblue" points="515.781,-400.339 524.883,-405.763 521.15,-395.847 515.781,-400.339"/>
</g>
<!-- Node12 -->
<g id="node12" class="node"><title>Node12</title>
<g id="a_node12"><a xlink:href="../../d6/d91/debug_2utils_8h.html" target="_top" xlink:title="/home/travis/build\l/AliceO2Group/AliceO2\l/GPU/GPUTracking/gpucf\l/src/gpucf/debug/utils.h">
<polygon fill="none" stroke="black" points="255.5,-206 255.5,-258 386.5,-258 386.5,-206 255.5,-206"/>
<text text-anchor="start" x="263.5" y="-246" font-family="Helvetica,sans-Serif" font-size="10.00">/home/travis/build</text>
<text text-anchor="start" x="263.5" y="-235" font-family="Helvetica,sans-Serif" font-size="10.00">/AliceO2Group/AliceO2</text>
<text text-anchor="start" x="263.5" y="-224" font-family="Helvetica,sans-Serif" font-size="10.00">/GPU/GPUTracking/gpucf</text>
<text text-anchor="middle" x="321" y="-213" font-family="Helvetica,sans-Serif" font-size="10.00">/src/gpucf/debug/utils.h</text>
</a>
</g>
</g>
<!-- Node8&#45;&gt;Node12 -->
<g id="edge12" class="edge"><title>Node8&#45;&gt;Node12</title>
<path fill="none" stroke="midnightblue" d="M470.754,-414.296C439.235,-404.14 404.155,-388.283 379,-364 348.847,-334.892 333.26,-287.349 326.128,-258.249"/>
<polygon fill="midnightblue" stroke="midnightblue" points="469.819,-417.671 480.406,-417.269 471.879,-410.981 469.819,-417.671"/>
</g>
<!-- Node13 -->
<g id="node13" class="node"><title>Node13</title>
<g id="a_node13"><a xlink:href="../../d7/d98/NoiseSuppression_8h.html" target="_top" xlink:title="/home/travis/build\l/AliceO2Group/AliceO2\l/GPU/GPUTracking/gpucf\l/src/gpucf/noisesuppression\l/NoiseSuppression.h">
<polygon fill="none" stroke="black" points="558.5,-300.5 558.5,-363.5 697.5,-363.5 697.5,-300.5 558.5,-300.5"/>
<text text-anchor="start" x="566.5" y="-351.5" font-family="Helvetica,sans-Serif" font-size="10.00">/home/travis/build</text>
<text text-anchor="start" x="566.5" y="-340.5" font-family="Helvetica,sans-Serif" font-size="10.00">/AliceO2Group/AliceO2</text>
<text text-anchor="start" x="566.5" y="-329.5" font-family="Helvetica,sans-Serif" font-size="10.00">/GPU/GPUTracking/gpucf</text>
<text text-anchor="start" x="566.5" y="-318.5" font-family="Helvetica,sans-Serif" font-size="10.00">/src/gpucf/noisesuppression</text>
<text text-anchor="middle" x="628" y="-307.5" font-family="Helvetica,sans-Serif" font-size="10.00">/NoiseSuppression.h</text>
</a>
</g>
</g>
<!-- Node8&#45;&gt;Node13 -->
<g id="edge14" class="edge"><title>Node8&#45;&gt;Node13</title>
<path fill="none" stroke="midnightblue" d="M573.644,-397.963C582.897,-386.903 593.17,-374.627 602.271,-363.749"/>
<polygon fill="midnightblue" stroke="midnightblue" points="570.85,-395.847 567.117,-405.763 576.219,-400.339 570.85,-395.847"/>
</g>
<!-- Node10&#45;&gt;Node6 -->
<g id="edge10" class="edge"><title>Node10&#45;&gt;Node6</title>
<path fill="none" stroke="midnightblue" d="M436.523,-94.6822C421.208,-84.4719 404.709,-73.4727 389.945,-63.6299"/>
<polygon fill="midnightblue" stroke="midnightblue" points="434.63,-97.6262 444.892,-100.261 438.513,-91.8018 434.63,-97.6262"/>
</g>
<!-- Node12&#45;&gt;Node7 -->
<g id="edge13" class="edge"><title>Node12&#45;&gt;Node7</title>
<path fill="none" stroke="midnightblue" d="M317.038,-195.703C315.643,-183.277 314.105,-169.572 312.823,-158.152"/>
<polygon fill="midnightblue" stroke="midnightblue" points="313.574,-196.215 318.167,-205.763 320.53,-195.435 313.574,-196.215"/>
</g>
<!-- Node14 -->
<g id="node14" class="node"><title>Node14</title>
<g id="a_node14"><a xlink:href="../../d6/dc2/NoiseSuppressionOverArea_8h.html" target="_top" xlink:title="/home/travis/build\l/AliceO2Group/AliceO2\l/GPU/GPUTracking/gpucf\l/src/gpucf/noisesuppression\l/NoiseSuppressionOverArea.h">
<polygon fill="none" stroke="black" points="404.5,-200.5 404.5,-263.5 553.5,-263.5 553.5,-200.5 404.5,-200.5"/>
<text text-anchor="start" x="412.5" y="-251.5" font-family="Helvetica,sans-Serif" font-size="10.00">/home/travis/build</text>
<text text-anchor="start" x="412.5" y="-240.5" font-family="Helvetica,sans-Serif" font-size="10.00">/AliceO2Group/AliceO2</text>
<text text-anchor="start" x="412.5" y="-229.5" font-family="Helvetica,sans-Serif" font-size="10.00">/GPU/GPUTracking/gpucf</text>
<text text-anchor="start" x="412.5" y="-218.5" font-family="Helvetica,sans-Serif" font-size="10.00">/src/gpucf/noisesuppression</text>
<text text-anchor="middle" x="479" y="-207.5" font-family="Helvetica,sans-Serif" font-size="10.00">/NoiseSuppressionOverArea.h</text>
</a>
</g>
</g>
<!-- Node13&#45;&gt;Node14 -->
<g id="edge15" class="edge"><title>Node13&#45;&gt;Node14</title>
<path fill="none" stroke="midnightblue" d="M572.782,-294.682C557.258,-284.472 540.535,-273.473 525.57,-263.63"/>
<polygon fill="midnightblue" stroke="midnightblue" points="570.986,-297.69 581.264,-300.261 574.833,-291.842 570.986,-297.69"/>
</g>
<!-- Node15 -->
<g id="node15" class="node"><title>Node15</title>
<g id="a_node15"><a xlink:href="../../de/d4d/NoNoiseSuppression_8h.html" target="_top" xlink:title="/home/travis/build\l/AliceO2Group/AliceO2\l/GPU/GPUTracking/gpucf\l/src/gpucf/noisesuppression\l/NoNoiseSuppression.h">
<polygon fill="none" stroke="black" points="571.5,-200.5 571.5,-263.5 710.5,-263.5 710.5,-200.5 571.5,-200.5"/>
<text text-anchor="start" x="579.5" y="-251.5" font-family="Helvetica,sans-Serif" font-size="10.00">/home/travis/build</text>
<text text-anchor="start" x="579.5" y="-240.5" font-family="Helvetica,sans-Serif" font-size="10.00">/AliceO2Group/AliceO2</text>
<text text-anchor="start" x="579.5" y="-229.5" font-family="Helvetica,sans-Serif" font-size="10.00">/GPU/GPUTracking/gpucf</text>
<text text-anchor="start" x="579.5" y="-218.5" font-family="Helvetica,sans-Serif" font-size="10.00">/src/gpucf/noisesuppression</text>
<text text-anchor="middle" x="641" y="-207.5" font-family="Helvetica,sans-Serif" font-size="10.00">/NoNoiseSuppression.h</text>
</a>
</g>
</g>
<!-- Node13&#45;&gt;Node15 -->
<g id="edge17" class="edge"><title>Node13&#45;&gt;Node15</title>
<path fill="none" stroke="midnightblue" d="M633.426,-290.099C634.601,-281.238 635.825,-272.015 636.937,-263.63"/>
<polygon fill="midnightblue" stroke="midnightblue" points="629.923,-289.888 632.078,-300.261 636.862,-290.808 629.923,-289.888"/>
</g>
<!-- Node14&#45;&gt;Node10 -->
<g id="edge16" class="edge"><title>Node14&#45;&gt;Node10</title>
<path fill="none" stroke="midnightblue" d="M484.008,-190.099C485.093,-181.238 486.223,-172.015 487.249,-163.63"/>
<polygon fill="midnightblue" stroke="midnightblue" points="480.505,-189.91 482.764,-200.261 487.454,-190.761 480.505,-189.91"/>
</g>
</g>
</svg>
        <g id="navigator" transform="translate(0 0)" fill="#404254">
                <rect fill="#f2f5e9" fill-opacity="0.5" stroke="#606060" stroke-width=".5" x="0" y="0" width="60" height="60"/>
                <use id="zoomplus" xlink:href="#zoomPlus" x="17" y="9" onmousedown="handleZoom(evt,'in')"/>
                <use id="zoomminus" xlink:href="#zoomMin" x="42" y="9" onmousedown="handleZoom(evt,'out')"/>
                <use id="reset" xlink:href="#resetDef" x="30" y="36" onmousedown="handleReset()"/>
                <g id="arrowUp" xlink:href="#dirArrow" transform="translate(30 24)" onmousedown="handlePan(0,-1)">
                  <use xlink:href="#rim" fill="#404040">
                        <set attributeName="fill" to="#808080" begin="arrowUp.mouseover" end="arrowUp.mouseout"/>
                  </use>
                  <path fill="none" stroke="white" stroke-width="1.5" d="M0,-3.0v7 M-2.5,-0.5L0,-3.0L2.5,-0.5"/>
                </g>
                <g id="arrowRight" xlink:href="#dirArrow" transform="rotate(90) translate(36 -43)" onmousedown="handlePan(1,0)">
                  <use xlink:href="#rim" fill="#404040">
                        <set attributeName="fill" to="#808080" begin="arrowRight.mouseover" end="arrowRight.mouseout"/>
                  </use>
                  <path fill="none" stroke="white" stroke-width="1.5" d="M0,-3.0v7 M-2.5,-0.5L0,-3.0L2.5,-0.5"/>
                </g>
                <g id="arrowDown" xlink:href="#dirArrow" transform="rotate(180) translate(-30 -48)" onmousedown="handlePan(0,1)">
                  <use xlink:href="#rim" fill="#404040">
                        <set attributeName="fill" to="#808080" begin="arrowDown.mouseover" end="arrowDown.mouseout"/>
                  </use>
                  <path fill="none" stroke="white" stroke-width="1.5" d="M0,-3.0v7 M-2.5,-0.5L0,-3.0L2.5,-0.5"/>
                </g>
                <g id="arrowLeft" xlink:href="#dirArrow" transform="rotate(270) translate(-36 17)" onmousedown="handlePan(-1,0)">
                  <use xlink:href="#rim" fill="#404040">
                        <set attributeName="fill" to="#808080" begin="arrowLeft.mouseover" end="arrowLeft.mouseout"/>
                  </use>
                  <path fill="none" stroke="white" stroke-width="1.5" d="M0,-3.0v7 M-2.5,-0.5L0,-3.0L2.5,-0.5"/>
                </g>
        </g>
        <svg viewBox="0 0 15 15" width="100%" height="30px" preserveAspectRatio="xMaxYMin meet">
         <g id="arrow_out" transform="scale(0.3 0.3)">
          <a xlink:href="log_8h__dep__incl_org.svg" target="_base">
           <rect id="button" ry="5" rx="5" y="6" x="6" height="38" width="38"
                fill="#f2f5e9" fill-opacity="0.5" stroke="#606060" stroke-width="1.0"/>
           <path id="arrow"
             d="M 11.500037,31.436501 C 11.940474,20.09759 22.043105,11.32322 32.158766,21.979434 L 37.068811,17.246167 C 37.068811,17.246167 37.088388,32 37.088388,32 L 22.160133,31.978069 C 22.160133,31.978069 26.997745,27.140456 26.997745,27.140456 C 18.528582,18.264221 13.291696,25.230495 11.500037,31.436501 z"
             style="fill:#404040;"/>
          </a>
         </g>
        </svg>
</svg>
