<?xml version="1.0" encoding="UTF-8" standalone="no"?>
<!DOCTYPE svg PUBLIC "-//W3C//DTD SVG 1.1//EN"
 "http://www.w3.org/Graphics/SVG/1.1/DTD/svg11.dtd">
<!-- Generated by graphviz version 2.38.0 (20140413.2041)
 -->
<!-- Title: o2::event_visualisation::Options Pages: 1 -->
<svg width="157pt" height="204pt"
 viewBox="0.00 0.00 157.00 204.00" xmlns="http://www.w3.org/2000/svg" xmlns:xlink="http://www.w3.org/1999/xlink">
<g id="graph0" class="graph" transform="scale(1 1) rotate(0) translate(4 200)">
<title>o2::event_visualisation::Options</title>
<!-- Node1 -->
<g id="node1" class="node"><title>Node1</title>
<polygon fill="#bfbfbf" stroke="black" points="-7.10543e-15,-0.5 -7.10543e-15,-68.5 116,-68.5 116,-0.5 -7.10543e-15,-0.5"/>
<text text-anchor="start" x="8" y="-56.5" font-family="Helvetica,sans-Serif" font-size="10.00">o2::event_visualisation</text>
<text text-anchor="middle" x="58" y="-45.5" font-family="Helvetica,sans-Serif" font-size="10.00">::Options</text>
<polyline fill="none" stroke="black" points="-7.10543e-15,-38.5 116,-38.5 "/>
<text text-anchor="middle" x="58" y="-26.5" font-family="Helvetica,sans-Serif" font-size="10.00"> </text>
<polyline fill="none" stroke="black" points="-7.10543e-15,-19.5 116,-19.5 "/>
<text text-anchor="middle" x="58" y="-7.5" font-family="Helvetica,sans-Serif" font-size="10.00"> </text>
</g>
<!-- Node2 -->
<g id="node2" class="node"><title>Node2</title>
<polygon fill="none" stroke="#bfbfbf" points="7.5,-138.5 7.5,-195.5 36.5,-195.5 36.5,-138.5 7.5,-138.5"/>
<text text-anchor="middle" x="22" y="-183.5" font-family="Helvetica,sans-Serif" font-size="10.00">int</text>
<polyline fill="none" stroke="#bfbfbf" points="7.5,-176.5 36.5,-176.5 "/>
<text text-anchor="middle" x="22" y="-164.5" font-family="Helvetica,sans-Serif" font-size="10.00"> </text>
<polyline fill="none" stroke="#bfbfbf" points="7.5,-157.5 36.5,-157.5 "/>
<text text-anchor="middle" x="22" y="-145.5" font-family="Helvetica,sans-Serif" font-size="10.00"> </text>
</g>
<!-- Node2&#45;&gt;Node1 -->
<g id="edge1" class="edge"><title>Node2&#45;&gt;Node1</title>
<path fill="none" stroke="#404040" d="M18.4995,-138.328C17.4904,-122.881 17.8137,-103.486 23,-87 23.8039,-84.4445 24.7802,-81.9012 25.8878,-79.3917"/>
<polygon fill="none" stroke="#404040" points="25.9252,-79.3198 25.1429,-72.1512 31.4592,-68.672 32.2414,-75.8405 25.9252,-79.3198"/>
<text text-anchor="middle" x="47.5" y="-101" font-family="Helvetica,sans-Serif" font-size="10.00"> +fileName</text>
</g>
<!-- Node3 -->
<g id="node3" class="node"><title>Node3</title>
<polygon fill="none" stroke="#bfbfbf" points="76.5,-138.5 76.5,-195.5 111.5,-195.5 111.5,-138.5 76.5,-138.5"/>
<text text-anchor="middle" x="94" y="-183.5" font-family="Helvetica,sans-Serif" font-size="10.00">bool</text>
<polyline fill="none" stroke="#bfbfbf" points="76.5,-176.5 111.5,-176.5 "/>
<text text-anchor="middle" x="94" y="-164.5" font-family="Helvetica,sans-Serif" font-size="10.00"> </text>
<polyline fill="none" stroke="#bfbfbf" points="76.5,-157.5 111.5,-157.5 "/>
<text text-anchor="middle" x="94" y="-145.5" font-family="Helvetica,sans-Serif" font-size="10.00"> </text>
</g>
<!-- Node3&#45;&gt;Node1 -->
<g id="edge2" class="edge"><title>Node3&#45;&gt;Node1</title>
<path fill="none" stroke="#404040" d="M86.3653,-138.324C81.7163,-121.471 75.6678,-99.5456 70.351,-80.2723"/>
<polygon fill="none" stroke="#404040" points="70.3454,-80.2517 64.8938,-75.5315 67.1542,-68.6838 72.6057,-73.404 70.3454,-80.2517"/>
<text text-anchor="middle" x="114.5" y="-112" font-family="Helvetica,sans-Serif" font-size="10.00"> +vsd</text>
<text text-anchor="middle" x="114.5" y="-101" font-family="Helvetica,sans-Serif" font-size="10.00">+itc</text>
<text text-anchor="middle" x="114.5" y="-90" font-family="Helvetica,sans-Serif" font-size="10.00">+randomTracks</text>
</g>
</g>
</svg>
