<?xml version="1.0" encoding="UTF-8" standalone="no"?>
<!DOCTYPE svg PUBLIC "-//W3C//DTD SVG 1.1//EN"
 "http://www.w3.org/Graphics/SVG/1.1/DTD/svg11.dtd">
<!-- Generated by graphviz version 2.38.0 (20140413.2041)
 -->
<!-- Title: GPUCA_NAMESPACE::gpu::GPUCommonMath Pages: 1 -->
<svg width="270pt" height="534pt"
 viewBox="0.00 0.00 270.00 534.00" xmlns="http://www.w3.org/2000/svg" xmlns:xlink="http://www.w3.org/1999/xlink">
<g id="graph0" class="graph" transform="scale(1 1) rotate(0) translate(4 530)">
<title>GPUCA_NAMESPACE::gpu::GPUCommonMath</title>
<!-- Node1 -->
<g id="node1" class="node"><title>Node1</title>
<polygon fill="#bfbfbf" stroke="black" points="56,-0.5 56,-387.5 199,-387.5 199,-0.5 56,-0.5"/>
<text text-anchor="start" x="64" y="-375.5" font-family="Helvetica,sans-Serif" font-size="10.00">GPUCA_NAMESPACE::gpu</text>
<text text-anchor="middle" x="127.5" y="-364.5" font-family="Helvetica,sans-Serif" font-size="10.00">::GPUCommonMath</text>
<polyline fill="none" stroke="black" points="56,-357.5 199,-357.5 "/>
<text text-anchor="middle" x="127.5" y="-345.5" font-family="Helvetica,sans-Serif" font-size="10.00"> </text>
<polyline fill="none" stroke="black" points="56,-338.5 199,-338.5 "/>
<text text-anchor="start" x="64" y="-326.5" font-family="Helvetica,sans-Serif" font-size="10.00">+ GPUhdni()</text>
<text text-anchor="start" x="64" y="-315.5" font-family="Helvetica,sans-Serif" font-size="10.00">+ GPUhd()</text>
<text text-anchor="start" x="64" y="-304.5" font-family="Helvetica,sans-Serif" font-size="10.00">+ GPUhd()</text>
<text text-anchor="start" x="64" y="-293.5" font-family="Helvetica,sans-Serif" font-size="10.00">+ GPUhd()</text>
<text text-anchor="start" x="64" y="-282.5" font-family="Helvetica,sans-Serif" font-size="10.00">+ GPUhd()</text>
<text text-anchor="start" x="64" y="-271.5" font-family="Helvetica,sans-Serif" font-size="10.00">+ GPUhdni()</text>
<text text-anchor="start" x="64" y="-260.5" font-family="Helvetica,sans-Serif" font-size="10.00">+ GPUhd()</text>
<text text-anchor="start" x="64" y="-249.5" font-family="Helvetica,sans-Serif" font-size="10.00">+ GPUhdni()</text>
<text text-anchor="start" x="64" y="-238.5" font-family="Helvetica,sans-Serif" font-size="10.00">+ GPUhdni()</text>
<text text-anchor="start" x="64" y="-227.5" font-family="Helvetica,sans-Serif" font-size="10.00">+ GPUhdni()</text>
<text text-anchor="start" x="64" y="-216.5" font-family="Helvetica,sans-Serif" font-size="10.00">+ GPUhdni()</text>
<text text-anchor="start" x="64" y="-205.5" font-family="Helvetica,sans-Serif" font-size="10.00">+ GPUhdni()</text>
<text text-anchor="start" x="64" y="-194.5" font-family="Helvetica,sans-Serif" font-size="10.00">+ GPUhdni()</text>
<text text-anchor="start" x="64" y="-183.5" font-family="Helvetica,sans-Serif" font-size="10.00">+ GPUhdni()</text>
<text text-anchor="start" x="64" y="-172.5" font-family="Helvetica,sans-Serif" font-size="10.00">+ GPUhdni()</text>
<text text-anchor="start" x="64" y="-161.5" font-family="Helvetica,sans-Serif" font-size="10.00">+ GPUhdni()</text>
<text text-anchor="start" x="64" y="-150.5" font-family="Helvetica,sans-Serif" font-size="10.00">+ GPUhdni()</text>
<text text-anchor="start" x="64" y="-139.5" font-family="Helvetica,sans-Serif" font-size="10.00">+ GPUhdni()</text>
<text text-anchor="start" x="64" y="-128.5" font-family="Helvetica,sans-Serif" font-size="10.00">+ GPUhdni()</text>
<text text-anchor="start" x="64" y="-117.5" font-family="Helvetica,sans-Serif" font-size="10.00">+ GPUhdni()</text>
<text text-anchor="start" x="64" y="-106.5" font-family="Helvetica,sans-Serif" font-size="10.00">+ GPUd()</text>
<text text-anchor="start" x="64" y="-95.5" font-family="Helvetica,sans-Serif" font-size="10.00">+ GPUd()</text>
<text text-anchor="start" x="64" y="-84.5" font-family="Helvetica,sans-Serif" font-size="10.00">+ GPUd()</text>
<text text-anchor="start" x="64" y="-73.5" font-family="Helvetica,sans-Serif" font-size="10.00">+ GPUd()</text>
<text text-anchor="start" x="64" y="-62.5" font-family="Helvetica,sans-Serif" font-size="10.00">+ GPUd()</text>
<text text-anchor="start" x="64" y="-51.5" font-family="Helvetica,sans-Serif" font-size="10.00">+ GPUd()</text>
<text text-anchor="start" x="64" y="-40.5" font-family="Helvetica,sans-Serif" font-size="10.00">+ GPUd()</text>
<text text-anchor="start" x="64" y="-29.5" font-family="Helvetica,sans-Serif" font-size="10.00">+ GPUd()</text>
<text text-anchor="start" x="64" y="-18.5" font-family="Helvetica,sans-Serif" font-size="10.00">+ GPUd()</text>
<text text-anchor="start" x="64" y="-7.5" font-family="Helvetica,sans-Serif" font-size="10.00">+ GPUd()</text>
</g>
<!-- Node2 -->
<g id="node2" class="node"><title>Node2</title>
<g id="a_node2"><a xlink:href="../../d4/dc3/classfloat.html" target="_top" xlink:title="{float\n||}">
<polygon fill="none" stroke="black" points="0,-468.5 0,-525.5 35,-525.5 35,-468.5 0,-468.5"/>
<text text-anchor="middle" x="17.5" y="-513.5" font-family="Helvetica,sans-Serif" font-size="10.00">float</text>
<polyline fill="none" stroke="black" points="0,-506.5 35,-506.5 "/>
<text text-anchor="middle" x="17.5" y="-494.5" font-family="Helvetica,sans-Serif" font-size="10.00"> </text>
<polyline fill="none" stroke="black" points="0,-487.5 35,-487.5 "/>
<text text-anchor="middle" x="17.5" y="-475.5" font-family="Helvetica,sans-Serif" font-size="10.00"> </text>
</a>
</g>
</g>
<!-- Node2&#45;&gt;Node1 -->
<g id="edge1" class="edge"><title>Node2&#45;&gt;Node1</title>
<path fill="none" stroke="#404040" d="M27.5534,-468.49C33.9861,-450.888 42.98,-426.278 52.9605,-398.967"/>
<polygon fill="none" stroke="#404040" points="53.0188,-398.807 51.3213,-391.799 57.1378,-387.536 58.8353,-394.545 53.0188,-398.807"/>
<text text-anchor="middle" x="58" y="-436.5" font-family="Helvetica,sans-Serif" font-size="10.00"> +b</text>
<text text-anchor="middle" x="58" y="-425.5" font-family="Helvetica,sans-Serif" font-size="10.00">+x</text>
<text text-anchor="middle" x="58" y="-414.5" font-family="Helvetica,sans-Serif" font-size="10.00">+y</text>
</g>
<!-- Node3 -->
<g id="node3" class="node"><title>Node3</title>
<polygon fill="none" stroke="#bfbfbf" points="53,-468.5 53,-525.5 82,-525.5 82,-468.5 53,-468.5"/>
<text text-anchor="middle" x="67.5" y="-513.5" font-family="Helvetica,sans-Serif" font-size="10.00">int</text>
<polyline fill="none" stroke="#bfbfbf" points="53,-506.5 82,-506.5 "/>
<text text-anchor="middle" x="67.5" y="-494.5" font-family="Helvetica,sans-Serif" font-size="10.00"> </text>
<polyline fill="none" stroke="#bfbfbf" points="53,-487.5 82,-487.5 "/>
<text text-anchor="middle" x="67.5" y="-475.5" font-family="Helvetica,sans-Serif" font-size="10.00"> </text>
</g>
<!-- Node3&#45;&gt;Node1 -->
<g id="edge2" class="edge"><title>Node3&#45;&gt;Node1</title>
<path fill="none" stroke="#404040" d="M72.9837,-468.49C76.4768,-450.966 81.3546,-426.496 86.7695,-399.331"/>
<polygon fill="none" stroke="#404040" points="86.7747,-399.305 84.0248,-392.639 89.1206,-387.536 91.8705,-394.203 86.7747,-399.305"/>
<text text-anchor="middle" x="93" y="-425.5" font-family="Helvetica,sans-Serif" font-size="10.00"> +b</text>
</g>
<!-- Node4 -->
<g id="node4" class="node"><title>Node4</title>
<polygon fill="none" stroke="#bfbfbf" points="99.5,-468.5 99.5,-525.5 155.5,-525.5 155.5,-468.5 99.5,-468.5"/>
<text text-anchor="middle" x="127.5" y="-513.5" font-family="Helvetica,sans-Serif" font-size="10.00">unsigned</text>
<polyline fill="none" stroke="#bfbfbf" points="99.5,-506.5 155.5,-506.5 "/>
<text text-anchor="middle" x="127.5" y="-494.5" font-family="Helvetica,sans-Serif" font-size="10.00"> </text>
<polyline fill="none" stroke="#bfbfbf" points="99.5,-487.5 155.5,-487.5 "/>
<text text-anchor="middle" x="127.5" y="-475.5" font-family="Helvetica,sans-Serif" font-size="10.00"> </text>
</g>
<!-- Node4&#45;&gt;Node1 -->
<g id="edge3" class="edge"><title>Node4&#45;&gt;Node1</title>
<path fill="none" stroke="#404040" d="M127.5,-468.49C127.5,-451.044 127.5,-426.714 127.5,-399.695"/>
<polygon fill="none" stroke="#404040" points="127.5,-399.536 123.5,-393.536 127.5,-387.536 131.5,-393.536 127.5,-399.536"/>
<text text-anchor="middle" x="138.5" y="-425.5" font-family="Helvetica,sans-Serif" font-size="10.00"> +val</text>
</g>
<!-- Node5 -->
<g id="node5" class="node"><title>Node5</title>
<polygon fill="none" stroke="#bfbfbf" points="174,-468.5 174,-525.5 215,-525.5 215,-468.5 174,-468.5"/>
<text text-anchor="middle" x="194.5" y="-513.5" font-family="Helvetica,sans-Serif" font-size="10.00">const</text>
<polyline fill="none" stroke="#bfbfbf" points="174,-506.5 215,-506.5 "/>
<text text-anchor="middle" x="194.5" y="-494.5" font-family="Helvetica,sans-Serif" font-size="10.00"> </text>
<polyline fill="none" stroke="#bfbfbf" points="174,-487.5 215,-487.5 "/>
<text text-anchor="middle" x="194.5" y="-475.5" font-family="Helvetica,sans-Serif" font-size="10.00"> </text>
</g>
<!-- Node5&#45;&gt;Node1 -->
<g id="edge4" class="edge"><title>Node5&#45;&gt;Node1</title>
<path fill="none" stroke="#404040" d="M188.377,-468.49C184.476,-450.966 179.029,-426.496 172.982,-399.331"/>
<polygon fill="none" stroke="#404040" points="172.964,-399.25 167.756,-394.262 170.357,-387.536 175.565,-392.524 172.964,-399.25"/>
<text text-anchor="middle" x="191" y="-425.5" font-family="Helvetica,sans-Serif" font-size="10.00"> +y</text>
</g>
<!-- Node6 -->
<g id="node6" class="node"><title>Node6</title>
<polygon fill="none" stroke="#bfbfbf" points="233,-468.5 233,-525.5 262,-525.5 262,-468.5 233,-468.5"/>
<text text-anchor="middle" x="247.5" y="-513.5" font-family="Helvetica,sans-Serif" font-size="10.00">T</text>
<polyline fill="none" stroke="#bfbfbf" points="233,-506.5 262,-506.5 "/>
<text text-anchor="middle" x="247.5" y="-494.5" font-family="Helvetica,sans-Serif" font-size="10.00"> </text>
<polyline fill="none" stroke="#bfbfbf" points="233,-487.5 262,-487.5 "/>
<text text-anchor="middle" x="247.5" y="-475.5" font-family="Helvetica,sans-Serif" font-size="10.00"> </text>
</g>
<!-- Node6&#45;&gt;Node1 -->
<g id="edge5" class="edge"><title>Node6&#45;&gt;Node1</title>
<path fill="none" stroke="#404040" d="M236.533,-468.49C228.433,-448.173 216.611,-418.52 203.708,-386.155"/>
<polygon fill="none" stroke="#404040" points="203.547,-385.752 197.61,-381.66 199.103,-374.605 205.041,-378.697 203.547,-385.752"/>
<text text-anchor="middle" x="241.5" y="-442" font-family="Helvetica,sans-Serif" font-size="10.00"> +refY</text>
<text text-anchor="middle" x="241.5" y="-431" font-family="Helvetica,sans-Serif" font-size="10.00">+r</text>
<text text-anchor="middle" x="241.5" y="-420" font-family="Helvetica,sans-Serif" font-size="10.00">+y</text>
<text text-anchor="middle" x="241.5" y="-409" font-family="Helvetica,sans-Serif" font-size="10.00">+refX</text>
</g>
</g>
</svg>
