<?xml version="1.0" encoding="UTF-8" standalone="no"?>
<!DOCTYPE svg PUBLIC "-//W3C//DTD SVG 1.1//EN"
 "http://www.w3.org/Graphics/SVG/1.1/DTD/svg11.dtd">
<!-- Generated by graphviz version 2.38.0 (20140413.2041)
 -->
<!-- Title: ImGuiColumnData Pages: 1 -->
<!--zoomable 744 -->
<svg id="main" version="1.1" xmlns="http://www.w3.org/2000/svg" xmlns:xlink="http://www.w3.org/1999/xlink" xml:space="preserve" onload="init(evt)">
<style type="text/css"><![CDATA[
.edge:hover path { stroke: red; }
.edge:hover polygon { stroke: red; fill: red; }
]]></style>
<script type="text/javascript"><![CDATA[
var edges = document.getElementsByTagName('g');
if (edges && edges.length) {
  for (var i=0;i<edges.length;i++) {
    if (edges[i].id.substr(0,4)=='edge') {
      edges[i].setAttribute('class','edge');
    }
  }
}
]]></script>
        <defs>
                <circle id="rim" cx="0" cy="0" r="7"/>
                <circle id="rim2" cx="0" cy="0" r="3.5"/>
                <g id="zoomPlus">
                        <use xlink:href="#rim" fill="#404040">
                                <set attributeName="fill" to="#808080" begin="zoomplus.mouseover" end="zoomplus.mouseout"/>
                        </use>
                        <path d="M-4,0h8M0,-4v8" fill="none" stroke="white" stroke-width="1.5" pointer-events="none"/>
                </g>
                <g id="zoomMin">
                        <use xlink:href="#rim" fill="#404040">
                                <set attributeName="fill" to="#808080" begin="zoomminus.mouseover" end="zoomminus.mouseout"/>
                        </use>
                        <path d="M-4,0h8" fill="none" stroke="white" stroke-width="1.5" pointer-events="none"/>
                </g>
                <g id="dirArrow">
                        <path fill="none" stroke="white" stroke-width="1.5" d="M0,-3.0v7 M-2.5,-0.5L0,-3.0L2.5,-0.5"/>
                </g>
               <g id="resetDef">
                       <use xlink:href="#rim2" fill="#404040">
                               <set attributeName="fill" to="#808080" begin="reset.mouseover" end="reset.mouseout"/>
                       </use>
               </g>
        </defs>

<script type="text/javascript">
var viewWidth = 211;
var viewHeight = 744;
var sectionId = 'dynsection-0';
</script>
<script xlink:href="../../svgpan.js"/>
<svg id="graph" class="graph">
<g id="viewport">
<title>ImGuiColumnData</title>
<!-- Node1 -->
<g id="node1" class="node"><title>Node1</title>
<polygon fill="#bfbfbf" stroke="black" points="55.9627,-0.5 55.9627,-57.5 168.963,-57.5 168.963,-0.5 55.9627,-0.5"/>
<text text-anchor="middle" x="112.463" y="-45.5" font-family="Helvetica,sans-Serif" font-size="10.00">ImGuiColumnData</text>
<polyline fill="none" stroke="black" points="55.9627,-38.5 168.963,-38.5 "/>
<text text-anchor="middle" x="112.463" y="-26.5" font-family="Helvetica,sans-Serif" font-size="10.00"> </text>
<polyline fill="none" stroke="black" points="55.9627,-19.5 168.963,-19.5 "/>
<text text-anchor="start" x="63.9627" y="-7.5" font-family="Helvetica,sans-Serif" font-size="10.00">+ ImGuiColumnData()</text>
</g>
<!-- Node2 -->
<g id="node2" class="node"><title>Node2</title>
<g id="a_node2"><a xlink:href="../../de/d50/structImRect.html" target="_top" xlink:title="{ImRect\n||+ ImRect()\l+ ImRect()\l+ ImRect()\l+ ImRect()\l+ GetCenter()\l+ GetSize()\l+ GetWidth()\l+ GetHeight()\l+ GetTL()\l+ GetTR()\l+ GetBL()\l+ GetBR()\l+ Contains()\l+ Contains()\l+ Overlaps()\l+ Add()\l+ Add()\l+ Expand()\l+ Expand()\l+ Translate()\l+ ClipWith()\l+ ClipWithFull()\l+ Floor()\l+ IsInverted()\l}">
<polygon fill="none" stroke="black" points="69.9627,-105.5 69.9627,-415.5 154.963,-415.5 154.963,-105.5 69.9627,-105.5"/>
<text text-anchor="middle" x="112.463" y="-403.5" font-family="Helvetica,sans-Serif" font-size="10.00">ImRect</text>
<polyline fill="none" stroke="black" points="69.9627,-396.5 154.963,-396.5 "/>
<text text-anchor="middle" x="112.463" y="-384.5" font-family="Helvetica,sans-Serif" font-size="10.00"> </text>
<polyline fill="none" stroke="black" points="69.9627,-377.5 154.963,-377.5 "/>
<text text-anchor="start" x="77.9627" y="-365.5" font-family="Helvetica,sans-Serif" font-size="10.00">+ ImRect()</text>
<text text-anchor="start" x="77.9627" y="-354.5" font-family="Helvetica,sans-Serif" font-size="10.00">+ ImRect()</text>
<text text-anchor="start" x="77.9627" y="-343.5" font-family="Helvetica,sans-Serif" font-size="10.00">+ ImRect()</text>
<text text-anchor="start" x="77.9627" y="-332.5" font-family="Helvetica,sans-Serif" font-size="10.00">+ ImRect()</text>
<text text-anchor="start" x="77.9627" y="-321.5" font-family="Helvetica,sans-Serif" font-size="10.00">+ GetCenter()</text>
<text text-anchor="start" x="77.9627" y="-310.5" font-family="Helvetica,sans-Serif" font-size="10.00">+ GetSize()</text>
<text text-anchor="start" x="77.9627" y="-299.5" font-family="Helvetica,sans-Serif" font-size="10.00">+ GetWidth()</text>
<text text-anchor="start" x="77.9627" y="-288.5" font-family="Helvetica,sans-Serif" font-size="10.00">+ GetHeight()</text>
<text text-anchor="start" x="77.9627" y="-277.5" font-family="Helvetica,sans-Serif" font-size="10.00">+ GetTL()</text>
<text text-anchor="start" x="77.9627" y="-266.5" font-family="Helvetica,sans-Serif" font-size="10.00">+ GetTR()</text>
<text text-anchor="start" x="77.9627" y="-255.5" font-family="Helvetica,sans-Serif" font-size="10.00">+ GetBL()</text>
<text text-anchor="start" x="77.9627" y="-244.5" font-family="Helvetica,sans-Serif" font-size="10.00">+ GetBR()</text>
<text text-anchor="start" x="77.9627" y="-233.5" font-family="Helvetica,sans-Serif" font-size="10.00">+ Contains()</text>
<text text-anchor="start" x="77.9627" y="-222.5" font-family="Helvetica,sans-Serif" font-size="10.00">+ Contains()</text>
<text text-anchor="start" x="77.9627" y="-211.5" font-family="Helvetica,sans-Serif" font-size="10.00">+ Overlaps()</text>
<text text-anchor="start" x="77.9627" y="-200.5" font-family="Helvetica,sans-Serif" font-size="10.00">+ Add()</text>
<text text-anchor="start" x="77.9627" y="-189.5" font-family="Helvetica,sans-Serif" font-size="10.00">+ Add()</text>
<text text-anchor="start" x="77.9627" y="-178.5" font-family="Helvetica,sans-Serif" font-size="10.00">+ Expand()</text>
<text text-anchor="start" x="77.9627" y="-167.5" font-family="Helvetica,sans-Serif" font-size="10.00">+ Expand()</text>
<text text-anchor="start" x="77.9627" y="-156.5" font-family="Helvetica,sans-Serif" font-size="10.00">+ Translate()</text>
<text text-anchor="start" x="77.9627" y="-145.5" font-family="Helvetica,sans-Serif" font-size="10.00">+ ClipWith()</text>
<text text-anchor="start" x="77.9627" y="-134.5" font-family="Helvetica,sans-Serif" font-size="10.00">+ ClipWithFull()</text>
<text text-anchor="start" x="77.9627" y="-123.5" font-family="Helvetica,sans-Serif" font-size="10.00">+ Floor()</text>
<text text-anchor="start" x="77.9627" y="-112.5" font-family="Helvetica,sans-Serif" font-size="10.00">+ IsInverted()</text>
</a>
</g>
</g>
<!-- Node2&#45;&gt;Node1 -->
<g id="edge1" class="edge"><title>Node2&#45;&gt;Node1</title>
<path fill="none" stroke="#404040" d="M112.463,-105.465C112.463,-92.6225 112.463,-80.5268 112.463,-69.9377"/>
<polygon fill="none" stroke="#404040" points="112.463,-69.8197 108.463,-63.8197 112.463,-57.8197 116.463,-63.8196 112.463,-69.8197"/>
<text text-anchor="middle" x="136.463" y="-79" font-family="Helvetica,sans-Serif" font-size="10.00"> +ClipRect</text>
</g>
<!-- Node3 -->
<g id="node3" class="node"><title>Node3</title>
<g id="a_node3"><a xlink:href="../../d3/dc2/structImVec2.html" target="_top" xlink:title="{ImVec2\n||+ ImVec2()\l+ ImVec2()\l+ operator[]()\l+ ImVec2()\l+ ImVec2()\l+ operator[]()\l+ ImVec2()\l+ ImVec2()\l+ operator[]()\l}">
<polygon fill="none" stroke="black" points="72.9627,-474.5 72.9627,-619.5 145.963,-619.5 145.963,-474.5 72.9627,-474.5"/>
<text text-anchor="middle" x="109.463" y="-607.5" font-family="Helvetica,sans-Serif" font-size="10.00">ImVec2</text>
<polyline fill="none" stroke="black" points="72.9627,-600.5 145.963,-600.5 "/>
<text text-anchor="middle" x="109.463" y="-588.5" font-family="Helvetica,sans-Serif" font-size="10.00"> </text>
<polyline fill="none" stroke="black" points="72.9627,-581.5 145.963,-581.5 "/>
<text text-anchor="start" x="80.9627" y="-569.5" font-family="Helvetica,sans-Serif" font-size="10.00">+ ImVec2()</text>
<text text-anchor="start" x="80.9627" y="-558.5" font-family="Helvetica,sans-Serif" font-size="10.00">+ ImVec2()</text>
<text text-anchor="start" x="80.9627" y="-547.5" font-family="Helvetica,sans-Serif" font-size="10.00">+ operator[]()</text>
<text text-anchor="start" x="80.9627" y="-536.5" font-family="Helvetica,sans-Serif" font-size="10.00">+ ImVec2()</text>
<text text-anchor="start" x="80.9627" y="-525.5" font-family="Helvetica,sans-Serif" font-size="10.00">+ ImVec2()</text>
<text text-anchor="start" x="80.9627" y="-514.5" font-family="Helvetica,sans-Serif" font-size="10.00">+ operator[]()</text>
<text text-anchor="start" x="80.9627" y="-503.5" font-family="Helvetica,sans-Serif" font-size="10.00">+ ImVec2()</text>
<text text-anchor="start" x="80.9627" y="-492.5" font-family="Helvetica,sans-Serif" font-size="10.00">+ ImVec2()</text>
<text text-anchor="start" x="80.9627" y="-481.5" font-family="Helvetica,sans-Serif" font-size="10.00">+ operator[]()</text>
</a>
</g>
</g>
<!-- Node3&#45;&gt;Node2 -->
<g id="edge2" class="edge"><title>Node3&#45;&gt;Node2</title>
<path fill="none" stroke="#404040" d="M123.357,-474.429C124.208,-468.214 124.933,-462.007 125.463,-456 126.273,-446.815 126.763,-437.382 126.993,-427.857"/>
<polygon fill="none" stroke="#404040" points="126.994,-427.755 123.072,-421.704 127.149,-415.756 131.071,-421.807 126.994,-427.755"/>
<text text-anchor="middle" x="139.963" y="-448" font-family="Helvetica,sans-Serif" font-size="10.00"> +Min</text>
<text text-anchor="middle" x="139.963" y="-437" font-family="Helvetica,sans-Serif" font-size="10.00">+Max</text>
</g>
<!-- Node4 -->
<g id="node4" class="node"><title>Node4</title>
<g id="a_node4"><a xlink:href="../../d4/dc3/classfloat.html" target="_top" xlink:title="{float\n||}">
<polygon fill="none" stroke="black" points="22.9627,-678.5 22.9627,-735.5 57.9627,-735.5 57.9627,-678.5 22.9627,-678.5"/>
<text text-anchor="middle" x="40.4627" y="-723.5" font-family="Helvetica,sans-Serif" font-size="10.00">float</text>
<polyline fill="none" stroke="black" points="22.9627,-716.5 57.9627,-716.5 "/>
<text text-anchor="middle" x="40.4627" y="-704.5" font-family="Helvetica,sans-Serif" font-size="10.00"> </text>
<polyline fill="none" stroke="black" points="22.9627,-697.5 57.9627,-697.5 "/>
<text text-anchor="middle" x="40.4627" y="-685.5" font-family="Helvetica,sans-Serif" font-size="10.00"> </text>
</a>
</g>
</g>
<!-- Node4&#45;&gt;Node1 -->
<g id="edge4" class="edge"><title>Node4&#45;&gt;Node1</title>
<path fill="none" stroke="#404040" d="M35.1668,-678.394C26.6537,-632.463 10.2901,-537.353 4.46266,-456 -6.82411,-298.431 0.780731,-251.265 60.4627,-105 65.7331,-92.0835 73.5293,-79.18 81.4904,-67.8086"/>
<polygon fill="none" stroke="#404040" points="81.6969,-67.5261 82.0097,-60.3218 88.7802,-57.8397 88.4674,-65.044 81.6969,-67.5261"/>
<text text-anchor="middle" x="62.9627" y="-448" font-family="Helvetica,sans-Serif" font-size="10.00"> +OffsetNorm</text>
<text text-anchor="middle" x="62.9627" y="-437" font-family="Helvetica,sans-Serif" font-size="10.00">+OffsetNormBeforeResize</text>
</g>
<!-- Node4&#45;&gt;Node3 -->
<g id="edge3" class="edge"><title>Node4&#45;&gt;Node3</title>
<path fill="none" stroke="#404040" d="M52.4815,-678.479C58.3411,-665.061 65.7331,-648.134 73.2344,-630.958"/>
<polygon fill="none" stroke="#404040" points="73.3619,-630.665 72.0975,-623.566 78.1645,-619.668 79.4289,-626.768 73.3619,-630.665"/>
<text text-anchor="middle" x="76.9627" y="-652" font-family="Helvetica,sans-Serif" font-size="10.00"> +x</text>
<text text-anchor="middle" x="76.9627" y="-641" font-family="Helvetica,sans-Serif" font-size="10.00">+y</text>
</g>
<!-- Node5 -->
<g id="node5" class="node"><title>Node5</title>
<polygon fill="none" stroke="#bfbfbf" points="172.963,-232 172.963,-289 201.963,-289 201.963,-232 172.963,-232"/>
<text text-anchor="middle" x="187.463" y="-277" font-family="Helvetica,sans-Serif" font-size="10.00">int</text>
<polyline fill="none" stroke="#bfbfbf" points="172.963,-270 201.963,-270 "/>
<text text-anchor="middle" x="187.463" y="-258" font-family="Helvetica,sans-Serif" font-size="10.00"> </text>
<polyline fill="none" stroke="#bfbfbf" points="172.963,-251 201.963,-251 "/>
<text text-anchor="middle" x="187.463" y="-239" font-family="Helvetica,sans-Serif" font-size="10.00"> </text>
</g>
<!-- Node5&#45;&gt;Node1 -->
<g id="edge5" class="edge"><title>Node5&#45;&gt;Node1</title>
<path fill="none" stroke="#404040" d="M189.839,-231.901C191.824,-194.353 190.913,-126.117 164.463,-76 162.746,-72.7471 160.7,-69.6162 158.427,-66.6242"/>
<polygon fill="none" stroke="#404040" points="158.41,-66.6054 151.452,-64.7136 150.522,-57.5627 157.48,-59.4545 158.41,-66.6054"/>
<text text-anchor="middle" x="186.463" y="-79" font-family="Helvetica,sans-Serif" font-size="10.00"> +Flags</text>
</g>
</g>
</svg>
        <g id="navigator" transform="translate(0 0)" fill="#404254">
                <rect fill="#f2f5e9" fill-opacity="0.5" stroke="#606060" stroke-width=".5" x="0" y="0" width="60" height="60"/>
                <use id="zoomplus" xlink:href="#zoomPlus" x="17" y="9" onmousedown="handleZoom(evt,'in')"/>
                <use id="zoomminus" xlink:href="#zoomMin" x="42" y="9" onmousedown="handleZoom(evt,'out')"/>
                <use id="reset" xlink:href="#resetDef" x="30" y="36" onmousedown="handleReset()"/>
                <g id="arrowUp" xlink:href="#dirArrow" transform="translate(30 24)" onmousedown="handlePan(0,-1)">
                  <use xlink:href="#rim" fill="#404040">
                        <set attributeName="fill" to="#808080" begin="arrowUp.mouseover" end="arrowUp.mouseout"/>
                  </use>
                  <path fill="none" stroke="white" stroke-width="1.5" d="M0,-3.0v7 M-2.5,-0.5L0,-3.0L2.5,-0.5"/>
                </g>
                <g id="arrowRight" xlink:href="#dirArrow" transform="rotate(90) translate(36 -43)" onmousedown="handlePan(1,0)">
                  <use xlink:href="#rim" fill="#404040">
                        <set attributeName="fill" to="#808080" begin="arrowRight.mouseover" end="arrowRight.mouseout"/>
                  </use>
                  <path fill="none" stroke="white" stroke-width="1.5" d="M0,-3.0v7 M-2.5,-0.5L0,-3.0L2.5,-0.5"/>
                </g>
                <g id="arrowDown" xlink:href="#dirArrow" transform="rotate(180) translate(-30 -48)" onmousedown="handlePan(0,1)">
                  <use xlink:href="#rim" fill="#404040">
                        <set attributeName="fill" to="#808080" begin="arrowDown.mouseover" end="arrowDown.mouseout"/>
                  </use>
                  <path fill="none" stroke="white" stroke-width="1.5" d="M0,-3.0v7 M-2.5,-0.5L0,-3.0L2.5,-0.5"/>
                </g>
                <g id="arrowLeft" xlink:href="#dirArrow" transform="rotate(270) translate(-36 17)" onmousedown="handlePan(-1,0)">
                  <use xlink:href="#rim" fill="#404040">
                        <set attributeName="fill" to="#808080" begin="arrowLeft.mouseover" end="arrowLeft.mouseout"/>
                  </use>
                  <path fill="none" stroke="white" stroke-width="1.5" d="M0,-3.0v7 M-2.5,-0.5L0,-3.0L2.5,-0.5"/>
                </g>
        </g>
        <svg viewBox="0 0 15 15" width="100%" height="30px" preserveAspectRatio="xMaxYMin meet">
         <g id="arrow_out" transform="scale(0.3 0.3)">
          <a xlink:href="structImGuiColumnData__coll__graph_org.svg" target="_base">
           <rect id="button" ry="5" rx="5" y="6" x="6" height="38" width="38"
                fill="#f2f5e9" fill-opacity="0.5" stroke="#606060" stroke-width="1.0"/>
           <path id="arrow"
             d="M 11.500037,31.436501 C 11.940474,20.09759 22.043105,11.32322 32.158766,21.979434 L 37.068811,17.246167 C 37.068811,17.246167 37.088388,32 37.088388,32 L 22.160133,31.978069 C 22.160133,31.978069 26.997745,27.140456 26.997745,27.140456 C 18.528582,18.264221 13.291696,25.230495 11.500037,31.436501 z"
             style="fill:#404040;"/>
          </a>
         </g>
        </svg>
</svg>
