<?xml version="1.0" encoding="UTF-8" standalone="no"?>
<!DOCTYPE svg PUBLIC "-//W3C//DTD SVG 1.1//EN"
 "http://www.w3.org/Graphics/SVG/1.1/DTD/svg11.dtd">
<!-- Generated by graphviz version 2.38.0 (20140413.2041)
 -->
<!-- Title: XYZ Pages: 1 -->
<svg width="44pt" height="193pt"
 viewBox="0.00 0.00 44.00 193.00" xmlns="http://www.w3.org/2000/svg" xmlns:xlink="http://www.w3.org/1999/xlink">
<g id="graph0" class="graph" transform="scale(1 1) rotate(0) translate(4 189)">
<title>XYZ</title>
<!-- Node1 -->
<g id="node1" class="node"><title>Node1</title>
<polygon fill="#bfbfbf" stroke="black" points="0,-0.5 0,-57.5 36,-57.5 36,-0.5 0,-0.5"/>
<text text-anchor="middle" x="18" y="-45.5" font-family="Helvetica,sans-Serif" font-size="10.00">XYZ</text>
<polyline fill="none" stroke="black" points="0,-38.5 36,-38.5 "/>
<text text-anchor="middle" x="18" y="-26.5" font-family="Helvetica,sans-Serif" font-size="10.00"> </text>
<polyline fill="none" stroke="black" points="0,-19.5 36,-19.5 "/>
<text text-anchor="middle" x="18" y="-7.5" font-family="Helvetica,sans-Serif" font-size="10.00"> </text>
</g>
<!-- Node2 -->
<g id="node2" class="node"><title>Node2</title>
<g id="a_node2"><a xlink:href="../../d4/dc3/classfloat.html" target="_top" xlink:title="{float\n||}">
<polygon fill="none" stroke="black" points="0.5,-127.5 0.5,-184.5 35.5,-184.5 35.5,-127.5 0.5,-127.5"/>
<text text-anchor="middle" x="18" y="-172.5" font-family="Helvetica,sans-Serif" font-size="10.00">float</text>
<polyline fill="none" stroke="black" points="0.5,-165.5 35.5,-165.5 "/>
<text text-anchor="middle" x="18" y="-153.5" font-family="Helvetica,sans-Serif" font-size="10.00"> </text>
<polyline fill="none" stroke="black" points="0.5,-146.5 35.5,-146.5 "/>
<text text-anchor="middle" x="18" y="-134.5" font-family="Helvetica,sans-Serif" font-size="10.00"> </text>
</a>
</g>
</g>
<!-- Node2&#45;&gt;Node1 -->
<g id="edge1" class="edge"><title>Node2&#45;&gt;Node1</title>
<path fill="none" stroke="#404040" d="M18,-127.258C18,-110.347 18,-88.457 18,-69.7276"/>
<polygon fill="none" stroke="#404040" points="18.0001,-69.664 14,-63.664 18,-57.664 22,-63.664 18.0001,-69.664"/>
<text text-anchor="middle" x="25.5" y="-101" font-family="Helvetica,sans-Serif" font-size="10.00"> +x</text>
<text text-anchor="middle" x="25.5" y="-90" font-family="Helvetica,sans-Serif" font-size="10.00">+y</text>
<text text-anchor="middle" x="25.5" y="-79" font-family="Helvetica,sans-Serif" font-size="10.00">+z</text>
</g>
</g>
</svg>
