<?xml version="1.0" encoding="UTF-8" standalone="no"?>
<!DOCTYPE svg PUBLIC "-//W3C//DTD SVG 1.1//EN"
 "http://www.w3.org/Graphics/SVG/1.1/DTD/svg11.dtd">
<!-- Generated by graphviz version 2.38.0 (20140413.2041)
 -->
<!-- Title: /home/travis/build/AliceO2Group/AliceO2/GPU/GPUTracking/Base/GPUParam.cxx Pages: 1 -->
<!--zoomable 397 -->
<svg id="main" version="1.1" xmlns="http://www.w3.org/2000/svg" xmlns:xlink="http://www.w3.org/1999/xlink" xml:space="preserve" onload="init(evt)">
<style type="text/css"><![CDATA[
.edge:hover path { stroke: red; }
.edge:hover polygon { stroke: red; fill: red; }
]]></style>
<script type="text/javascript"><![CDATA[
var edges = document.getElementsByTagName('g');
if (edges && edges.length) {
  for (var i=0;i<edges.length;i++) {
    if (edges[i].id.substr(0,4)=='edge') {
      edges[i].setAttribute('class','edge');
    }
  }
}
]]></script>
        <defs>
                <circle id="rim" cx="0" cy="0" r="7"/>
                <circle id="rim2" cx="0" cy="0" r="3.5"/>
                <g id="zoomPlus">
                        <use xlink:href="#rim" fill="#404040">
                                <set attributeName="fill" to="#808080" begin="zoomplus.mouseover" end="zoomplus.mouseout"/>
                        </use>
                        <path d="M-4,0h8M0,-4v8" fill="none" stroke="white" stroke-width="1.5" pointer-events="none"/>
                </g>
                <g id="zoomMin">
                        <use xlink:href="#rim" fill="#404040">
                                <set attributeName="fill" to="#808080" begin="zoomminus.mouseover" end="zoomminus.mouseout"/>
                        </use>
                        <path d="M-4,0h8" fill="none" stroke="white" stroke-width="1.5" pointer-events="none"/>
                </g>
                <g id="dirArrow">
                        <path fill="none" stroke="white" stroke-width="1.5" d="M0,-3.0v7 M-2.5,-0.5L0,-3.0L2.5,-0.5"/>
                </g>
               <g id="resetDef">
                       <use xlink:href="#rim2" fill="#404040">
                               <set attributeName="fill" to="#808080" begin="reset.mouseover" end="reset.mouseout"/>
                       </use>
               </g>
        </defs>

<script type="text/javascript">
var viewWidth = 1054;
var viewHeight = 397;
var sectionId = 'dynsection-0';
</script>
<script xlink:href="../../svgpan.js"/>
<svg id="graph" class="graph">
<g id="viewport">
<title>/home/travis/build/AliceO2Group/AliceO2/GPU/GPUTracking/Base/GPUParam.cxx</title>
<!-- Node1 -->
<g id="node1" class="node"><title>Node1</title>
<polygon fill="#bfbfbf" stroke="black" points="332,-336.5 332,-388.5 461,-388.5 461,-336.5 332,-336.5"/>
<text text-anchor="start" x="340" y="-376.5" font-family="Helvetica,sans-Serif" font-size="10.00">/home/travis/build</text>
<text text-anchor="start" x="340" y="-365.5" font-family="Helvetica,sans-Serif" font-size="10.00">/AliceO2Group/AliceO2</text>
<text text-anchor="start" x="340" y="-354.5" font-family="Helvetica,sans-Serif" font-size="10.00">/GPU/GPUTracking/Base</text>
<text text-anchor="middle" x="396.5" y="-343.5" font-family="Helvetica,sans-Serif" font-size="10.00">/GPUParam.cxx</text>
</g>
<!-- Node2 -->
<g id="node2" class="node"><title>Node2</title>
<g id="a_node2"><a xlink:href="../../df/d13/GPUParam_8h.html" target="_top" xlink:title="GPUParam.h">
<polygon fill="none" stroke="black" points="432,-280.5 432,-299.5 507,-299.5 507,-280.5 432,-280.5"/>
<text text-anchor="middle" x="469.5" y="-287.5" font-family="Helvetica,sans-Serif" font-size="10.00">GPUParam.h</text>
</a>
</g>
</g>
<!-- Node1&#45;&gt;Node2 -->
<g id="edge1" class="edge"><title>Node1&#45;&gt;Node2</title>
<path fill="none" stroke="midnightblue" d="M422.443,-336.446C432.712,-326.528 444.202,-315.432 453.257,-306.687"/>
<polygon fill="midnightblue" stroke="midnightblue" points="455.734,-309.16 460.496,-299.695 450.872,-304.125 455.734,-309.16"/>
</g>
<!-- Node6 -->
<g id="node6" class="node"><title>Node6</title>
<g id="a_node6"><a xlink:href="../../d6/da2/GPUCommonMath_8h.html" target="_top" xlink:title="GPUCommonMath.h">
<polygon fill="none" stroke="black" points="345.5,-168.5 345.5,-187.5 453.5,-187.5 453.5,-168.5 345.5,-168.5"/>
<text text-anchor="middle" x="399.5" y="-175.5" font-family="Helvetica,sans-Serif" font-size="10.00">GPUCommonMath.h</text>
</a>
</g>
</g>
<!-- Node1&#45;&gt;Node6 -->
<g id="edge24" class="edge"><title>Node1&#45;&gt;Node6</title>
<path fill="none" stroke="midnightblue" d="M396.917,-336.124C397.528,-298.977 398.651,-230.642 399.192,-197.711"/>
<polygon fill="midnightblue" stroke="midnightblue" points="402.693,-197.705 399.358,-187.649 395.694,-197.59 402.693,-197.705"/>
</g>
<!-- Node9 -->
<g id="node9" class="node"><title>Node9</title>
<g id="a_node9"><a xlink:href="../../d2/d6d/GPUDef_8h.html" target="_top" xlink:title="GPUDef.h">
<polygon fill="none" stroke="black" points="643.5,-112.5 643.5,-131.5 705.5,-131.5 705.5,-112.5 643.5,-112.5"/>
<text text-anchor="middle" x="674.5" y="-119.5" font-family="Helvetica,sans-Serif" font-size="10.00">GPUDef.h</text>
</a>
</g>
</g>
<!-- Node1&#45;&gt;Node9 -->
<g id="edge23" class="edge"><title>Node1&#45;&gt;Node9</title>
<path fill="none" stroke="midnightblue" d="M461.111,-350.353C557.136,-332.321 730.136,-293.702 766.5,-244 795.23,-204.732 734.855,-159.263 698.822,-136.894"/>
<polygon fill="midnightblue" stroke="midnightblue" points="700.625,-133.894 690.255,-131.722 697.007,-139.886 700.625,-133.894"/>
</g>
<!-- Node19 -->
<g id="node19" class="node"><title>Node19</title>
<g id="a_node19"><a xlink:href="../../d2/d7d/GPUTPCGMPolynomialFieldManager_8h.html" target="_top" xlink:title="GPUTPCGMPolynomialFieldManager.h">
<polygon fill="none" stroke="black" points="106,-224.5 106,-243.5 295,-243.5 295,-224.5 106,-224.5"/>
<text text-anchor="middle" x="200.5" y="-231.5" font-family="Helvetica,sans-Serif" font-size="10.00">GPUTPCGMPolynomialFieldManager.h</text>
</a>
</g>
</g>
<!-- Node1&#45;&gt;Node19 -->
<g id="edge25" class="edge"><title>Node1&#45;&gt;Node19</title>
<path fill="none" stroke="midnightblue" d="M357.308,-336.205C316.84,-310.087 255.142,-270.267 222.512,-249.207"/>
<polygon fill="midnightblue" stroke="midnightblue" points="224.047,-246.032 213.747,-243.55 220.251,-251.913 224.047,-246.032"/>
</g>
<!-- Node20 -->
<g id="node20" class="node"><title>Node20</title>
<g id="a_node20"><a xlink:href="../../d4/dc5/GPUDataTypes_8h.html" target="_top" xlink:title="GPUDataTypes.h">
<polygon fill="none" stroke="black" points="30,-280.5 30,-299.5 125,-299.5 125,-280.5 30,-280.5"/>
<text text-anchor="middle" x="77.5" y="-287.5" font-family="Helvetica,sans-Serif" font-size="10.00">GPUDataTypes.h</text>
</a>
</g>
</g>
<!-- Node1&#45;&gt;Node20 -->
<g id="edge27" class="edge"><title>Node1&#45;&gt;Node20</title>
<path fill="none" stroke="midnightblue" d="M331.946,-347.233C271.103,-333.787 181.279,-313.935 126.231,-301.77"/>
<polygon fill="midnightblue" stroke="midnightblue" points="126.891,-298.331 116.371,-299.591 125.38,-305.166 126.891,-298.331"/>
</g>
<!-- Node22 -->
<g id="node22" class="node"><title>Node22</title>
<polygon fill="none" stroke="#bfbfbf" points="813.5,-280.5 813.5,-299.5 859.5,-299.5 859.5,-280.5 813.5,-280.5"/>
<text text-anchor="middle" x="836.5" y="-287.5" font-family="Helvetica,sans-Serif" font-size="10.00">cstring</text>
</g>
<!-- Node1&#45;&gt;Node22 -->
<g id="edge30" class="edge"><title>Node1&#45;&gt;Node22</title>
<path fill="none" stroke="midnightblue" d="M461.014,-353.419C540.843,-343.015 680.769,-323.453 799.5,-300 800.777,-299.748 802.076,-299.481 803.387,-299.204"/>
<polygon fill="midnightblue" stroke="midnightblue" points="804.491,-302.543 813.476,-296.929 802.951,-295.714 804.491,-302.543"/>
</g>
<!-- Node3 -->
<g id="node3" class="node"><title>Node3</title>
<g id="a_node3"><a xlink:href="../../df/d21/GPUCommonDef_8h.html" target="_top" xlink:title="GPUCommonDef.h">
<polygon fill="none" stroke="black" points="278.5,-56.5 278.5,-75.5 380.5,-75.5 380.5,-56.5 278.5,-56.5"/>
<text text-anchor="middle" x="329.5" y="-63.5" font-family="Helvetica,sans-Serif" font-size="10.00">GPUCommonDef.h</text>
</a>
</g>
</g>
<!-- Node2&#45;&gt;Node3 -->
<g id="edge2" class="edge"><title>Node2&#45;&gt;Node3</title>
<path fill="none" stroke="midnightblue" d="M448.871,-280.45C417.945,-266.372 360.624,-235.094 336.5,-188 319.688,-155.18 322.613,-110.592 326.131,-85.7272"/>
<polygon fill="midnightblue" stroke="midnightblue" points="329.64,-85.9517 327.772,-75.5229 322.729,-84.8407 329.64,-85.9517"/>
</g>
<!-- Node2&#45;&gt;Node6 -->
<g id="edge5" class="edge"><title>Node2&#45;&gt;Node6</title>
<path fill="none" stroke="midnightblue" d="M455.854,-280.254C444.301,-272.172 428.126,-259.148 418.5,-244 409.534,-229.891 404.666,-211.403 402.111,-197.753"/>
<polygon fill="midnightblue" stroke="midnightblue" points="405.524,-196.937 400.468,-187.627 398.614,-198.058 405.524,-196.937"/>
</g>
<!-- Node2&#45;&gt;Node9 -->
<g id="edge9" class="edge"><title>Node2&#45;&gt;Node9</title>
<path fill="none" stroke="midnightblue" d="M483.696,-280.412C497.731,-271.737 519.636,-257.694 537.5,-244 583.206,-208.962 632.961,-162.791 658.053,-138.881"/>
<polygon fill="midnightblue" stroke="midnightblue" points="660.775,-141.12 665.575,-131.675 655.933,-136.065 660.775,-141.12"/>
</g>
<!-- Node15 -->
<g id="node15" class="node"><title>Node15</title>
<g id="a_node15"><a xlink:href="../../dd/dc6/GPUSettings_8h.html" target="_top" xlink:title="GPUSettings.h">
<polygon fill="none" stroke="black" points="428,-224.5 428,-243.5 511,-243.5 511,-224.5 428,-224.5"/>
<text text-anchor="middle" x="469.5" y="-231.5" font-family="Helvetica,sans-Serif" font-size="10.00">GPUSettings.h</text>
</a>
</g>
</g>
<!-- Node2&#45;&gt;Node15 -->
<g id="edge16" class="edge"><title>Node2&#45;&gt;Node15</title>
<path fill="none" stroke="midnightblue" d="M469.5,-280.083C469.5,-273.006 469.5,-262.861 469.5,-253.986"/>
<polygon fill="midnightblue" stroke="midnightblue" points="473,-253.751 469.5,-243.751 466,-253.751 473,-253.751"/>
</g>
<!-- Node16 -->
<g id="node16" class="node"><title>Node16</title>
<g id="a_node16"><a xlink:href="../../d6/d1b/GPUTPCGeometry_8h.html" target="_top" xlink:title="GPUTPCGeometry.h">
<polygon fill="none" stroke="black" points="471.5,-168.5 471.5,-187.5 581.5,-187.5 581.5,-168.5 471.5,-168.5"/>
<text text-anchor="middle" x="526.5" y="-175.5" font-family="Helvetica,sans-Serif" font-size="10.00">GPUTPCGeometry.h</text>
</a>
</g>
</g>
<!-- Node2&#45;&gt;Node16 -->
<g id="edge18" class="edge"><title>Node2&#45;&gt;Node16</title>
<path fill="none" stroke="midnightblue" d="M484.016,-280.266C495.73,-272.366 511.525,-259.597 519.5,-244 526.847,-229.631 528.192,-211.172 527.936,-197.598"/>
<polygon fill="midnightblue" stroke="midnightblue" points="531.428,-197.359 527.441,-187.543 524.437,-197.703 531.428,-197.359"/>
</g>
<!-- Node17 -->
<g id="node17" class="node"><title>Node17</title>
<g id="a_node17"><a xlink:href="../../d9/d9c/GPUTPCGMPolynomialField_8h.html" target="_top" xlink:title="GPUTPCGMPolynomialField.h">
<polygon fill="none" stroke="black" points="605.5,-224.5 605.5,-243.5 757.5,-243.5 757.5,-224.5 605.5,-224.5"/>
<text text-anchor="middle" x="681.5" y="-231.5" font-family="Helvetica,sans-Serif" font-size="10.00">GPUTPCGMPolynomialField.h</text>
</a>
</g>
</g>
<!-- Node2&#45;&gt;Node17 -->
<g id="edge20" class="edge"><title>Node2&#45;&gt;Node17</title>
<path fill="none" stroke="midnightblue" d="M503.092,-280.444C539.687,-271.122 598.338,-256.183 638.326,-245.997"/>
<polygon fill="midnightblue" stroke="midnightblue" points="639.239,-249.377 648.065,-243.516 637.511,-242.593 639.239,-249.377"/>
</g>
<!-- Node4 -->
<g id="node4" class="node"><title>Node4</title>
<g id="a_node4"><a xlink:href="../../d5/d93/GPUCommonDefSettings_8h.html" target="_top" xlink:title="GPUCommonDefSettings.h">
<polygon fill="none" stroke="black" points="187.5,-0.5 187.5,-19.5 325.5,-19.5 325.5,-0.5 187.5,-0.5"/>
<text text-anchor="middle" x="256.5" y="-7.5" font-family="Helvetica,sans-Serif" font-size="10.00">GPUCommonDefSettings.h</text>
</a>
</g>
</g>
<!-- Node3&#45;&gt;Node4 -->
<g id="edge3" class="edge"><title>Node3&#45;&gt;Node4</title>
<path fill="none" stroke="midnightblue" d="M317.771,-56.324C306.663,-48.1066 289.758,-35.6017 276.517,-25.8069"/>
<polygon fill="midnightblue" stroke="midnightblue" points="278.563,-22.9671 268.442,-19.8339 274.4,-28.5948 278.563,-22.9671"/>
</g>
<!-- Node5 -->
<g id="node5" class="node"><title>Node5</title>
<g id="a_node5"><a xlink:href="../../da/d5a/GPUCommonDefAPI_8h.html" target="_top" xlink:title="GPUCommonDefAPI.h">
<polygon fill="none" stroke="black" points="344,-0.5 344,-19.5 463,-19.5 463,-0.5 344,-0.5"/>
<text text-anchor="middle" x="403.5" y="-7.5" font-family="Helvetica,sans-Serif" font-size="10.00">GPUCommonDefAPI.h</text>
</a>
</g>
</g>
<!-- Node3&#45;&gt;Node5 -->
<g id="edge4" class="edge"><title>Node3&#45;&gt;Node5</title>
<path fill="none" stroke="midnightblue" d="M341.389,-56.324C352.65,-48.1066 369.787,-35.6017 383.209,-25.8069"/>
<polygon fill="midnightblue" stroke="midnightblue" points="385.38,-28.5559 391.394,-19.8339 381.253,-22.9014 385.38,-28.5559"/>
</g>
<!-- Node6&#45;&gt;Node3 -->
<g id="edge6" class="edge"><title>Node6&#45;&gt;Node3</title>
<path fill="none" stroke="midnightblue" d="M394.007,-168.368C382.506,-150.296 355.703,-108.176 340.514,-84.3074"/>
<polygon fill="midnightblue" stroke="midnightblue" points="343.289,-82.149 334.967,-75.5914 337.383,-85.9071 343.289,-82.149"/>
</g>
<!-- Node7 -->
<g id="node7" class="node"><title>Node7</title>
<polygon fill="none" stroke="#bfbfbf" points="383.5,-112.5 383.5,-131.5 427.5,-131.5 427.5,-112.5 383.5,-112.5"/>
<text text-anchor="middle" x="405.5" y="-119.5" font-family="Helvetica,sans-Serif" font-size="10.00">cmath</text>
</g>
<!-- Node6&#45;&gt;Node7 -->
<g id="edge7" class="edge"><title>Node6&#45;&gt;Node7</title>
<path fill="none" stroke="midnightblue" d="M400.491,-168.083C401.286,-160.927 402.429,-150.635 403.423,-141.691"/>
<polygon fill="midnightblue" stroke="midnightblue" points="406.902,-142.076 404.528,-131.751 399.945,-141.303 406.902,-142.076"/>
</g>
<!-- Node8 -->
<g id="node8" class="node"><title>Node8</title>
<polygon fill="none" stroke="#bfbfbf" points="445.5,-112.5 445.5,-131.5 501.5,-131.5 501.5,-112.5 445.5,-112.5"/>
<text text-anchor="middle" x="473.5" y="-119.5" font-family="Helvetica,sans-Serif" font-size="10.00">algorithm</text>
</g>
<!-- Node6&#45;&gt;Node8 -->
<g id="edge8" class="edge"><title>Node6&#45;&gt;Node8</title>
<path fill="none" stroke="midnightblue" d="M411.389,-168.324C422.65,-160.107 439.787,-147.602 453.209,-137.807"/>
<polygon fill="midnightblue" stroke="midnightblue" points="455.38,-140.556 461.394,-131.834 451.253,-134.901 455.38,-140.556"/>
</g>
<!-- Node9&#45;&gt;Node3 -->
<g id="edge10" class="edge"><title>Node9&#45;&gt;Node3</title>
<path fill="none" stroke="midnightblue" d="M643.275,-116.113C586.324,-107.199 464.648,-88.1535 390.668,-76.5741"/>
<polygon fill="midnightblue" stroke="midnightblue" points="390.978,-73.0802 380.557,-74.9916 389.896,-79.996 390.978,-73.0802"/>
</g>
<!-- Node10 -->
<g id="node10" class="node"><title>Node10</title>
<g id="a_node10"><a xlink:href="../../d2/d37/GPUDefConstantsAndSettings_8h.html" target="_top" xlink:title="GPUDefConstantsAndSettings.h">
<polygon fill="none" stroke="black" points="422,-56.5 422,-75.5 583,-75.5 583,-56.5 422,-56.5"/>
<text text-anchor="middle" x="502.5" y="-63.5" font-family="Helvetica,sans-Serif" font-size="10.00">GPUDefConstantsAndSettings.h</text>
</a>
</g>
</g>
<!-- Node9&#45;&gt;Node10 -->
<g id="edge11" class="edge"><title>Node9&#45;&gt;Node10</title>
<path fill="none" stroke="midnightblue" d="M647.246,-112.444C618.059,-103.28 571.579,-88.6876 539.191,-78.5192"/>
<polygon fill="midnightblue" stroke="midnightblue" points="540.216,-75.1726 529.626,-75.5164 538.119,-81.8512 540.216,-75.1726"/>
</g>
<!-- Node11 -->
<g id="node11" class="node"><title>Node11</title>
<g id="a_node11"><a xlink:href="../../dc/de9/GPUDefGPUParameters_8h.html" target="_top" xlink:title="GPUDefGPUParameters.h">
<polygon fill="none" stroke="black" points="601.5,-56.5 601.5,-75.5 735.5,-75.5 735.5,-56.5 601.5,-56.5"/>
<text text-anchor="middle" x="668.5" y="-63.5" font-family="Helvetica,sans-Serif" font-size="10.00">GPUDefGPUParameters.h</text>
</a>
</g>
</g>
<!-- Node9&#45;&gt;Node11 -->
<g id="edge12" class="edge"><title>Node9&#45;&gt;Node11</title>
<path fill="none" stroke="midnightblue" d="M673.509,-112.083C672.714,-104.927 671.571,-94.6353 670.577,-85.6911"/>
<polygon fill="midnightblue" stroke="midnightblue" points="674.055,-85.3034 669.472,-75.7511 667.098,-86.0765 674.055,-85.3034"/>
</g>
<!-- Node12 -->
<g id="node12" class="node"><title>Node12</title>
<g id="a_node12"><a xlink:href="../../d3/d4c/GPUDefOpenCL12Templates_8h.html" target="_top" xlink:title="GPUDefOpenCL12Templates.h">
<polygon fill="none" stroke="black" points="754,-56.5 754,-75.5 909,-75.5 909,-56.5 754,-56.5"/>
<text text-anchor="middle" x="831.5" y="-63.5" font-family="Helvetica,sans-Serif" font-size="10.00">GPUDefOpenCL12Templates.h</text>
</a>
</g>
</g>
<!-- Node9&#45;&gt;Node12 -->
<g id="edge13" class="edge"><title>Node9&#45;&gt;Node12</title>
<path fill="none" stroke="midnightblue" d="M699.377,-112.444C725.789,-103.359 767.715,-88.9388 797.242,-78.7831"/>
<polygon fill="midnightblue" stroke="midnightblue" points="798.421,-82.0787 806.739,-75.5164 796.145,-75.4593 798.421,-82.0787"/>
</g>
<!-- Node13 -->
<g id="node13" class="node"><title>Node13</title>
<g id="a_node13"><a xlink:href="../../d2/d45/GPUCommonRtypes_8h.html" target="_top" xlink:title="GPUCommonRtypes.h">
<polygon fill="none" stroke="black" points="927.5,-56.5 927.5,-75.5 1045.5,-75.5 1045.5,-56.5 927.5,-56.5"/>
<text text-anchor="middle" x="986.5" y="-63.5" font-family="Helvetica,sans-Serif" font-size="10.00">GPUCommonRtypes.h</text>
</a>
</g>
</g>
<!-- Node9&#45;&gt;Node13 -->
<g id="edge14" class="edge"><title>Node9&#45;&gt;Node13</title>
<path fill="none" stroke="midnightblue" d="M705.556,-115.625C757.057,-106.711 860.986,-88.7236 926.982,-77.3011"/>
<polygon fill="midnightblue" stroke="midnightblue" points="927.978,-80.6809 937.235,-75.5267 926.784,-73.7834 927.978,-80.6809"/>
</g>
<!-- Node14 -->
<g id="node14" class="node"><title>Node14</title>
<polygon fill="none" stroke="#bfbfbf" points="958.5,-0.5 958.5,-19.5 1014.5,-19.5 1014.5,-0.5 958.5,-0.5"/>
<text text-anchor="middle" x="986.5" y="-7.5" font-family="Helvetica,sans-Serif" font-size="10.00">Rtypes.h</text>
</g>
<!-- Node13&#45;&gt;Node14 -->
<g id="edge15" class="edge"><title>Node13&#45;&gt;Node14</title>
<path fill="none" stroke="midnightblue" d="M986.5,-56.083C986.5,-49.0059 986.5,-38.8611 986.5,-29.9865"/>
<polygon fill="midnightblue" stroke="midnightblue" points="990,-29.751 986.5,-19.7511 983,-29.7511 990,-29.751"/>
</g>
<!-- Node15&#45;&gt;Node6 -->
<g id="edge17" class="edge"><title>Node15&#45;&gt;Node6</title>
<path fill="none" stroke="midnightblue" d="M458.253,-224.324C447.703,-216.185 431.699,-203.839 419.058,-194.087"/>
<polygon fill="midnightblue" stroke="midnightblue" points="421.007,-191.171 410.951,-187.834 416.731,-196.713 421.007,-191.171"/>
</g>
<!-- Node16&#45;&gt;Node3 -->
<g id="edge19" class="edge"><title>Node16&#45;&gt;Node3</title>
<path fill="none" stroke="midnightblue" d="M526.999,-168.06C527.261,-154.094 525.603,-127.138 510.5,-112 493.703,-95.1642 436.59,-82.8333 390.958,-75.3804"/>
<polygon fill="midnightblue" stroke="midnightblue" points="391.248,-71.8828 380.823,-73.7733 390.152,-78.7964 391.248,-71.8828"/>
</g>
<!-- Node18 -->
<g id="node18" class="node"><title>Node18</title>
<g id="a_node18"><a xlink:href="../../da/dab/GPUTPCDef_8h.html" target="_top" xlink:title="GPUTPCDef.h">
<polygon fill="none" stroke="black" points="639,-168.5 639,-187.5 722,-187.5 722,-168.5 639,-168.5"/>
<text text-anchor="middle" x="680.5" y="-175.5" font-family="Helvetica,sans-Serif" font-size="10.00">GPUTPCDef.h</text>
</a>
</g>
</g>
<!-- Node17&#45;&gt;Node18 -->
<g id="edge21" class="edge"><title>Node17&#45;&gt;Node18</title>
<path fill="none" stroke="midnightblue" d="M681.335,-224.083C681.204,-217.006 681.016,-206.861 680.852,-197.986"/>
<polygon fill="midnightblue" stroke="midnightblue" points="684.347,-197.685 680.662,-187.751 677.348,-197.814 684.347,-197.685"/>
</g>
<!-- Node18&#45;&gt;Node9 -->
<g id="edge22" class="edge"><title>Node18&#45;&gt;Node9</title>
<path fill="none" stroke="midnightblue" d="M679.509,-168.083C678.714,-160.927 677.571,-150.635 676.577,-141.691"/>
<polygon fill="midnightblue" stroke="midnightblue" points="680.055,-141.303 675.472,-131.751 673.098,-142.076 680.055,-141.303"/>
</g>
<!-- Node19&#45;&gt;Node3 -->
<g id="edge26" class="edge"><title>Node19&#45;&gt;Node3</title>
<path fill="none" stroke="midnightblue" d="M207.436,-224.075C228.093,-197.493 289.449,-118.538 316.473,-83.7633"/>
<polygon fill="midnightblue" stroke="midnightblue" points="319.469,-85.6119 322.842,-75.5681 313.942,-81.3166 319.469,-85.6119"/>
</g>
<!-- Node20&#45;&gt;Node3 -->
<g id="edge28" class="edge"><title>Node20&#45;&gt;Node3</title>
<path fill="none" stroke="midnightblue" d="M78.18,-280.177C79.5976,-266.841 83.8743,-241.276 96.5,-224 149.925,-150.898 248.377,-101.263 298.469,-79.4976"/>
<polygon fill="midnightblue" stroke="midnightblue" points="299.986,-82.6559 307.815,-75.5175 297.243,-76.2156 299.986,-82.6559"/>
</g>
<!-- Node21 -->
<g id="node21" class="node"><title>Node21</title>
<polygon fill="none" stroke="#bfbfbf" points="0,-224.5 0,-243.5 49,-243.5 49,-224.5 0,-224.5"/>
<text text-anchor="middle" x="24.5" y="-231.5" font-family="Helvetica,sans-Serif" font-size="10.00">cstddef</text>
</g>
<!-- Node20&#45;&gt;Node21 -->
<g id="edge29" class="edge"><title>Node20&#45;&gt;Node21</title>
<path fill="none" stroke="midnightblue" d="M68.7481,-280.083C61.0303,-272.22 49.5953,-260.569 40.2835,-251.081"/>
<polygon fill="midnightblue" stroke="midnightblue" points="42.5916,-248.436 33.089,-243.751 37.5958,-253.34 42.5916,-248.436"/>
</g>
</g>
</svg>
        <g id="navigator" transform="translate(0 0)" fill="#404254">
                <rect fill="#f2f5e9" fill-opacity="0.5" stroke="#606060" stroke-width=".5" x="0" y="0" width="60" height="60"/>
                <use id="zoomplus" xlink:href="#zoomPlus" x="17" y="9" onmousedown="handleZoom(evt,'in')"/>
                <use id="zoomminus" xlink:href="#zoomMin" x="42" y="9" onmousedown="handleZoom(evt,'out')"/>
                <use id="reset" xlink:href="#resetDef" x="30" y="36" onmousedown="handleReset()"/>
                <g id="arrowUp" xlink:href="#dirArrow" transform="translate(30 24)" onmousedown="handlePan(0,-1)">
                  <use xlink:href="#rim" fill="#404040">
                        <set attributeName="fill" to="#808080" begin="arrowUp.mouseover" end="arrowUp.mouseout"/>
                  </use>
                  <path fill="none" stroke="white" stroke-width="1.5" d="M0,-3.0v7 M-2.5,-0.5L0,-3.0L2.5,-0.5"/>
                </g>
                <g id="arrowRight" xlink:href="#dirArrow" transform="rotate(90) translate(36 -43)" onmousedown="handlePan(1,0)">
                  <use xlink:href="#rim" fill="#404040">
                        <set attributeName="fill" to="#808080" begin="arrowRight.mouseover" end="arrowRight.mouseout"/>
                  </use>
                  <path fill="none" stroke="white" stroke-width="1.5" d="M0,-3.0v7 M-2.5,-0.5L0,-3.0L2.5,-0.5"/>
                </g>
                <g id="arrowDown" xlink:href="#dirArrow" transform="rotate(180) translate(-30 -48)" onmousedown="handlePan(0,1)">
                  <use xlink:href="#rim" fill="#404040">
                        <set attributeName="fill" to="#808080" begin="arrowDown.mouseover" end="arrowDown.mouseout"/>
                  </use>
                  <path fill="none" stroke="white" stroke-width="1.5" d="M0,-3.0v7 M-2.5,-0.5L0,-3.0L2.5,-0.5"/>
                </g>
                <g id="arrowLeft" xlink:href="#dirArrow" transform="rotate(270) translate(-36 17)" onmousedown="handlePan(-1,0)">
                  <use xlink:href="#rim" fill="#404040">
                        <set attributeName="fill" to="#808080" begin="arrowLeft.mouseover" end="arrowLeft.mouseout"/>
                  </use>
                  <path fill="none" stroke="white" stroke-width="1.5" d="M0,-3.0v7 M-2.5,-0.5L0,-3.0L2.5,-0.5"/>
                </g>
        </g>
        <svg viewBox="0 0 15 15" width="100%" height="30px" preserveAspectRatio="xMaxYMin meet">
         <g id="arrow_out" transform="scale(0.3 0.3)">
          <a xlink:href="GPUParam_8cxx__incl_org.svg" target="_base">
           <rect id="button" ry="5" rx="5" y="6" x="6" height="38" width="38"
                fill="#f2f5e9" fill-opacity="0.5" stroke="#606060" stroke-width="1.0"/>
           <path id="arrow"
             d="M 11.500037,31.436501 C 11.940474,20.09759 22.043105,11.32322 32.158766,21.979434 L 37.068811,17.246167 C 37.068811,17.246167 37.088388,32 37.088388,32 L 22.160133,31.978069 C 22.160133,31.978069 26.997745,27.140456 26.997745,27.140456 C 18.528582,18.264221 13.291696,25.230495 11.500037,31.436501 z"
             style="fill:#404040;"/>
          </a>
         </g>
        </svg>
</svg>
