<?xml version="1.0" encoding="UTF-8" standalone="no"?>
<!DOCTYPE svg PUBLIC "-//W3C//DTD SVG 1.1//EN"
 "http://www.w3.org/Graphics/SVG/1.1/DTD/svg11.dtd">
<!-- Generated by graphviz version 2.38.0 (20140413.2041)
 -->
<!-- Title: o2::itsmft::RawDecodingStat Pages: 1 -->
<svg width="367pt" height="270pt"
 viewBox="0.00 0.00 367.00 270.00" xmlns="http://www.w3.org/2000/svg" xmlns:xlink="http://www.w3.org/1999/xlink">
<g id="graph0" class="graph" transform="scale(1 1) rotate(0) translate(4 266)">
<title>o2::itsmft::RawDecodingStat</title>
<!-- Node1 -->
<g id="node1" class="node"><title>Node1</title>
<polygon fill="#bfbfbf" stroke="black" points="74,-0.5 74,-90.5 217,-90.5 217,-0.5 74,-0.5"/>
<text text-anchor="middle" x="145.5" y="-78.5" font-family="Helvetica,sans-Serif" font-size="10.00">o2::itsmft::RawDecodingStat</text>
<polyline fill="none" stroke="black" points="74,-71.5 217,-71.5 "/>
<text text-anchor="middle" x="145.5" y="-59.5" font-family="Helvetica,sans-Serif" font-size="10.00"> </text>
<polyline fill="none" stroke="black" points="74,-52.5 217,-52.5 "/>
<text text-anchor="start" x="82" y="-40.5" font-family="Helvetica,sans-Serif" font-size="10.00">+ RawDecodingStat()</text>
<text text-anchor="start" x="82" y="-29.5" font-family="Helvetica,sans-Serif" font-size="10.00">+ clear()</text>
<text text-anchor="start" x="82" y="-18.5" font-family="Helvetica,sans-Serif" font-size="10.00">+ print()</text>
<text text-anchor="start" x="82" y="-7.5" font-family="Helvetica,sans-Serif" font-size="10.00">+ ClassDefNV()</text>
</g>
<!-- Node2 -->
<g id="node2" class="node"><title>Node2</title>
<polygon fill="none" stroke="#bfbfbf" points="0,-199 0,-256 51,-256 51,-199 0,-199"/>
<text text-anchor="middle" x="25.5" y="-244" font-family="Helvetica,sans-Serif" font-size="10.00">uint64_t</text>
<polyline fill="none" stroke="#bfbfbf" points="0,-237 51,-237 "/>
<text text-anchor="middle" x="25.5" y="-225" font-family="Helvetica,sans-Serif" font-size="10.00"> </text>
<polyline fill="none" stroke="#bfbfbf" points="0,-218 51,-218 "/>
<text text-anchor="middle" x="25.5" y="-206" font-family="Helvetica,sans-Serif" font-size="10.00"> </text>
</g>
<!-- Node2&#45;&gt;Node1 -->
<g id="edge1" class="edge"><title>Node2&#45;&gt;Node1</title>
<path fill="none" stroke="#404040" d="M23.7411,-198.994C23.4645,-173.58 26.6055,-135.814 44.5,-109 49.9116,-100.891 56.7691,-93.6457 64.3538,-87.2213"/>
<polygon fill="none" stroke="#404040" points="64.4424,-87.1525 66.7258,-80.3125 73.9179,-79.7894 71.6345,-86.6295 64.4424,-87.1525"/>
<text text-anchor="middle" x="93" y="-167" font-family="Helvetica,sans-Serif" font-size="10.00"> +nTriggersProcessed</text>
<text text-anchor="middle" x="93" y="-156" font-family="Helvetica,sans-Serif" font-size="10.00">+nRUsProcessed</text>
<text text-anchor="middle" x="93" y="-145" font-family="Helvetica,sans-Serif" font-size="10.00">+nHitsDecoded</text>
<text text-anchor="middle" x="93" y="-134" font-family="Helvetica,sans-Serif" font-size="10.00">+nNonEmptyChips</text>
<text text-anchor="middle" x="93" y="-123" font-family="Helvetica,sans-Serif" font-size="10.00">+nBytesProcessed</text>
<text text-anchor="middle" x="93" y="-112" font-family="Helvetica,sans-Serif" font-size="10.00">+nPagesProcessed</text>
</g>
<!-- Node3 -->
<g id="node3" class="node"><title>Node3</title>
<polygon fill="none" stroke="#bfbfbf" points="75.5,-199 75.5,-256 215.5,-256 215.5,-199 75.5,-199"/>
<text text-anchor="middle" x="145.5" y="-244" font-family="Helvetica,sans-Serif" font-size="10.00">array&lt; int, NErrorsDefined &gt;</text>
<polyline fill="none" stroke="#bfbfbf" points="75.5,-237 215.5,-237 "/>
<text text-anchor="middle" x="145.5" y="-225" font-family="Helvetica,sans-Serif" font-size="10.00"> </text>
<polyline fill="none" stroke="#bfbfbf" points="75.5,-218 215.5,-218 "/>
<text text-anchor="middle" x="145.5" y="-206" font-family="Helvetica,sans-Serif" font-size="10.00"> </text>
</g>
<!-- Node3&#45;&gt;Node1 -->
<g id="edge2" class="edge"><title>Node3&#45;&gt;Node1</title>
<path fill="none" stroke="#404040" d="M145.5,-198.769C145.5,-173.348 145.5,-134.926 145.5,-103.038"/>
<polygon fill="none" stroke="#404040" points="145.5,-102.731 141.5,-96.7311 145.5,-90.731 149.5,-96.731 145.5,-102.731"/>
<text text-anchor="middle" x="176" y="-139.5" font-family="Helvetica,sans-Serif" font-size="10.00"> +errorCounts</text>
</g>
<!-- Node4 -->
<g id="node4" class="node"><title>Node4</title>
<polygon fill="none" stroke="#bfbfbf" points="234,-193.5 234,-261.5 359,-261.5 359,-193.5 234,-193.5"/>
<text text-anchor="start" x="242" y="-249.5" font-family="Helvetica,sans-Serif" font-size="10.00">array&lt; std::string</text>
<text text-anchor="middle" x="296.5" y="-238.5" font-family="Helvetica,sans-Serif" font-size="10.00">_view, NErrorsDefined &gt;</text>
<polyline fill="none" stroke="#bfbfbf" points="234,-231.5 359,-231.5 "/>
<text text-anchor="middle" x="296.5" y="-219.5" font-family="Helvetica,sans-Serif" font-size="10.00"> </text>
<polyline fill="none" stroke="#bfbfbf" points="234,-212.5 359,-212.5 "/>
<text text-anchor="middle" x="296.5" y="-200.5" font-family="Helvetica,sans-Serif" font-size="10.00"> </text>
</g>
<!-- Node4&#45;&gt;Node1 -->
<g id="edge3" class="edge"><title>Node4&#45;&gt;Node1</title>
<path fill="none" stroke="#404040" d="M274.583,-193.428C258.003,-169.221 234.127,-136.025 210.5,-109 207.737,-105.84 204.84,-102.656 201.867,-99.4883"/>
<polygon fill="none" stroke="#404040" points="201.663,-99.2769 194.62,-97.7321 193.336,-90.6361 200.38,-92.1808 201.663,-99.2769"/>
<text text-anchor="middle" x="288.5" y="-139.5" font-family="Helvetica,sans-Serif" font-size="10.00"> +ErrNames</text>
</g>
</g>
</svg>
