<?xml version="1.0" encoding="UTF-8" standalone="no"?>
<!DOCTYPE svg PUBLIC "-//W3C//DTD SVG 1.1//EN"
 "http://www.w3.org/Graphics/SVG/1.1/DTD/svg11.dtd">
<!-- Generated by graphviz version 2.38.0 (20140413.2041)
 -->
<!-- Title: /home/travis/build/AliceO2Group/AliceO2/GPU/GPUTracking/Merger/GPUTPCGMPropagator.cxx Pages: 1 -->
<!--zoomable 464 -->
<svg id="main" version="1.1" xmlns="http://www.w3.org/2000/svg" xmlns:xlink="http://www.w3.org/1999/xlink" xml:space="preserve" onload="init(evt)">
<style type="text/css"><![CDATA[
.edge:hover path { stroke: red; }
.edge:hover polygon { stroke: red; fill: red; }
]]></style>
<script type="text/javascript"><![CDATA[
var edges = document.getElementsByTagName('g');
if (edges && edges.length) {
  for (var i=0;i<edges.length;i++) {
    if (edges[i].id.substr(0,4)=='edge') {
      edges[i].setAttribute('class','edge');
    }
  }
}
]]></script>
        <defs>
                <circle id="rim" cx="0" cy="0" r="7"/>
                <circle id="rim2" cx="0" cy="0" r="3.5"/>
                <g id="zoomPlus">
                        <use xlink:href="#rim" fill="#404040">
                                <set attributeName="fill" to="#808080" begin="zoomplus.mouseover" end="zoomplus.mouseout"/>
                        </use>
                        <path d="M-4,0h8M0,-4v8" fill="none" stroke="white" stroke-width="1.5" pointer-events="none"/>
                </g>
                <g id="zoomMin">
                        <use xlink:href="#rim" fill="#404040">
                                <set attributeName="fill" to="#808080" begin="zoomminus.mouseover" end="zoomminus.mouseout"/>
                        </use>
                        <path d="M-4,0h8" fill="none" stroke="white" stroke-width="1.5" pointer-events="none"/>
                </g>
                <g id="dirArrow">
                        <path fill="none" stroke="white" stroke-width="1.5" d="M0,-3.0v7 M-2.5,-0.5L0,-3.0L2.5,-0.5"/>
                </g>
               <g id="resetDef">
                       <use xlink:href="#rim2" fill="#404040">
                               <set attributeName="fill" to="#808080" begin="reset.mouseover" end="reset.mouseout"/>
                       </use>
               </g>
        </defs>

<script type="text/javascript">
var viewWidth = 1208;
var viewHeight = 464;
var sectionId = 'dynsection-0';
</script>
<script xlink:href="../../svgpan.js"/>
<svg id="graph" class="graph">
<g id="viewport">
<title>/home/travis/build/AliceO2Group/AliceO2/GPU/GPUTracking/Merger/GPUTPCGMPropagator.cxx</title>
<!-- Node1 -->
<g id="node1" class="node"><title>Node1</title>
<polygon fill="#bfbfbf" stroke="black" points="730.5,-403.5 730.5,-455.5 873.5,-455.5 873.5,-403.5 730.5,-403.5"/>
<text text-anchor="start" x="738.5" y="-443.5" font-family="Helvetica,sans-Serif" font-size="10.00">/home/travis/build</text>
<text text-anchor="start" x="738.5" y="-432.5" font-family="Helvetica,sans-Serif" font-size="10.00">/AliceO2Group/AliceO2</text>
<text text-anchor="start" x="738.5" y="-421.5" font-family="Helvetica,sans-Serif" font-size="10.00">/GPU/GPUTracking/Merger</text>
<text text-anchor="middle" x="802" y="-410.5" font-family="Helvetica,sans-Serif" font-size="10.00">/GPUTPCGMPropagator.cxx</text>
</g>
<!-- Node2 -->
<g id="node2" class="node"><title>Node2</title>
<g id="a_node2"><a xlink:href="../../d0/dd8/GPUTPCGMPropagator_8h.html" target="_top" xlink:title="GPUTPCGMPropagator.h">
<polygon fill="none" stroke="black" points="691,-347.5 691,-366.5 821,-366.5 821,-347.5 691,-347.5"/>
<text text-anchor="middle" x="756" y="-354.5" font-family="Helvetica,sans-Serif" font-size="10.00">GPUTPCGMPropagator.h</text>
</a>
</g>
</g>
<!-- Node1&#45;&gt;Node2 -->
<g id="edge1" class="edge"><title>Node1&#45;&gt;Node2</title>
<path fill="none" stroke="midnightblue" d="M785.653,-403.446C779.574,-394.129 772.816,-383.772 767.289,-375.302"/>
<polygon fill="midnightblue" stroke="midnightblue" points="770.069,-373.158 761.674,-366.695 764.207,-376.983 770.069,-373.158"/>
</g>
<!-- Node7 -->
<g id="node7" class="node"><title>Node7</title>
<g id="a_node7"><a xlink:href="../../d6/d37/GPUTPCGMPhysicalTrackModel_8h.html" target="_top" xlink:title="GPUTPCGMPhysicalTrackModel.h">
<polygon fill="none" stroke="black" points="877.5,-286 877.5,-305 1048.5,-305 1048.5,-286 877.5,-286"/>
<text text-anchor="middle" x="963" y="-293" font-family="Helvetica,sans-Serif" font-size="10.00">GPUTPCGMPhysicalTrackModel.h</text>
</a>
</g>
</g>
<!-- Node1&#45;&gt;Node7 -->
<g id="edge27" class="edge"><title>Node1&#45;&gt;Node7</title>
<path fill="none" stroke="midnightblue" d="M832.662,-403.361C865.757,-376.227 917.38,-333.903 944.666,-311.532"/>
<polygon fill="midnightblue" stroke="midnightblue" points="947.101,-314.061 952.615,-305.014 942.663,-308.648 947.101,-314.061"/>
</g>
<!-- Node16 -->
<g id="node16" class="node"><title>Node16</title>
<g id="a_node16"><a xlink:href="../../d3/dcc/GPUTPCGMMergedTrackHit_8h.html" target="_top" xlink:title="GPUTPCGMMergedTrackHit.h">
<polygon fill="none" stroke="black" points="770,-168.5 770,-187.5 922,-187.5 922,-168.5 770,-168.5"/>
<text text-anchor="middle" x="846" y="-175.5" font-family="Helvetica,sans-Serif" font-size="10.00">GPUTPCGMMergedTrackHit.h</text>
</a>
</g>
</g>
<!-- Node1&#45;&gt;Node16 -->
<g id="edge37" class="edge"><title>Node1&#45;&gt;Node16</title>
<path fill="none" stroke="midnightblue" d="M815.744,-403.488C821.102,-392.594 826.731,-379.484 830,-367 845.734,-306.905 846.937,-232.678 846.504,-198.234"/>
<polygon fill="midnightblue" stroke="midnightblue" points="849.995,-197.729 846.303,-187.798 842.996,-197.864 849.995,-197.729"/>
</g>
<!-- Node18 -->
<g id="node18" class="node"><title>Node18</title>
<polygon fill="none" stroke="#bfbfbf" points="275,-112.5 275,-131.5 319,-131.5 319,-112.5 275,-112.5"/>
<text text-anchor="middle" x="297" y="-119.5" font-family="Helvetica,sans-Serif" font-size="10.00">cmath</text>
</g>
<!-- Node1&#45;&gt;Node18 -->
<g id="edge45" class="edge"><title>Node1&#45;&gt;Node18</title>
<path fill="none" stroke="midnightblue" d="M730.384,-424.423C592.577,-414.609 304,-383.652 304,-296.5 304,-296.5 304,-296.5 304,-233 304,-200.883 300.991,-163.598 298.919,-141.726"/>
<polygon fill="midnightblue" stroke="midnightblue" points="302.38,-141.154 297.915,-131.546 295.413,-141.841 302.38,-141.154"/>
</g>
<!-- Node23 -->
<g id="node23" class="node"><title>Node23</title>
<g id="a_node23"><a xlink:href="../../df/d13/GPUParam_8h.html" target="_top" xlink:title="GPUParam.h">
<polygon fill="none" stroke="black" points="467.5,-286 467.5,-305 542.5,-305 542.5,-286 467.5,-286"/>
<text text-anchor="middle" x="505" y="-293" font-family="Helvetica,sans-Serif" font-size="10.00">GPUParam.h</text>
</a>
</g>
</g>
<!-- Node1&#45;&gt;Node23 -->
<g id="edge28" class="edge"><title>Node1&#45;&gt;Node23</title>
<path fill="none" stroke="midnightblue" d="M745.437,-403.361C682.14,-375.229 582.101,-330.767 533.451,-309.145"/>
<polygon fill="midnightblue" stroke="midnightblue" points="534.716,-305.877 524.157,-305.014 531.873,-312.274 534.716,-305.877"/>
</g>
<!-- Node26 -->
<g id="node26" class="node"><title>Node26</title>
<g id="a_node26"><a xlink:href="../../d5/d5c/GPUO2DataTypes_8h.html" target="_top" xlink:title="GPUO2DataTypes.h">
<polygon fill="none" stroke="black" points="1031.5,-224.5 1031.5,-243.5 1138.5,-243.5 1138.5,-224.5 1031.5,-224.5"/>
<text text-anchor="middle" x="1085" y="-231.5" font-family="Helvetica,sans-Serif" font-size="10.00">GPUO2DataTypes.h</text>
</a>
</g>
</g>
<!-- Node1&#45;&gt;Node26 -->
<g id="edge38" class="edge"><title>Node1&#45;&gt;Node26</title>
<path fill="none" stroke="midnightblue" d="M873.717,-411.696C930.459,-394.975 1008.04,-363.982 1057,-311 1071.73,-295.058 1078.88,-270.706 1082.23,-253.884"/>
<polygon fill="midnightblue" stroke="midnightblue" points="1085.75,-254.086 1083.99,-243.637 1078.85,-252.9 1085.75,-254.086"/>
</g>
<!-- Node3 -->
<g id="node3" class="node"><title>Node3</title>
<g id="a_node3"><a xlink:href="../../df/d21/GPUCommonDef_8h.html" target="_top" xlink:title="GPUCommonDef.h">
<polygon fill="none" stroke="black" points="658,-56.5 658,-75.5 760,-75.5 760,-56.5 658,-56.5"/>
<text text-anchor="middle" x="709" y="-63.5" font-family="Helvetica,sans-Serif" font-size="10.00">GPUCommonDef.h</text>
</a>
</g>
</g>
<!-- Node2&#45;&gt;Node3 -->
<g id="edge2" class="edge"><title>Node2&#45;&gt;Node3</title>
<path fill="none" stroke="midnightblue" d="M763.673,-347.459C770.779,-338.927 780.854,-325.088 785,-311 788.89,-297.783 786.334,-293.713 785,-280 782.544,-254.755 781.332,-248.282 774,-224 765.731,-196.615 732.687,-120.618 717.15,-85.3796"/>
<polygon fill="midnightblue" stroke="midnightblue" points="720.183,-83.5818 712.938,-75.851 713.78,-86.4122 720.183,-83.5818"/>
</g>
<!-- Node6 -->
<g id="node6" class="node"><title>Node6</title>
<g id="a_node6"><a xlink:href="../../d0/d79/GPUTPCGMOfflineStatisticalErrors_8h.html" target="_top" xlink:title="GPUTPCGMOfflineStatistical\lErrors.h">
<polygon fill="none" stroke="black" points="599,-280.5 599,-310.5 745,-310.5 745,-280.5 599,-280.5"/>
<text text-anchor="start" x="607" y="-298.5" font-family="Helvetica,sans-Serif" font-size="10.00">GPUTPCGMOfflineStatistical</text>
<text text-anchor="middle" x="672" y="-287.5" font-family="Helvetica,sans-Serif" font-size="10.00">Errors.h</text>
</a>
</g>
</g>
<!-- Node2&#45;&gt;Node6 -->
<g id="edge5" class="edge"><title>Node2&#45;&gt;Node6</title>
<path fill="none" stroke="midnightblue" d="M743.965,-347.475C732.588,-339.417 715.091,-327.023 700.199,-316.474"/>
<polygon fill="midnightblue" stroke="midnightblue" points="701.98,-313.447 691.797,-310.523 697.934,-319.159 701.98,-313.447"/>
</g>
<!-- Node2&#45;&gt;Node7 -->
<g id="edge6" class="edge"><title>Node2&#45;&gt;Node7</title>
<path fill="none" stroke="midnightblue" d="M785.658,-347.475C821.934,-337.048 883.464,-319.362 923.664,-307.807"/>
<polygon fill="midnightblue" stroke="midnightblue" points="924.753,-311.135 933.397,-305.009 922.819,-304.408 924.753,-311.135"/>
</g>
<!-- Node17 -->
<g id="node17" class="node"><title>Node17</title>
<g id="a_node17"><a xlink:href="../../d6/da2/GPUCommonMath_8h.html" target="_top" xlink:title="GPUCommonMath.h">
<polygon fill="none" stroke="black" points="391,-168.5 391,-187.5 499,-187.5 499,-168.5 391,-168.5"/>
<text text-anchor="middle" x="445" y="-175.5" font-family="Helvetica,sans-Serif" font-size="10.00">GPUCommonMath.h</text>
</a>
</g>
</g>
<!-- Node2&#45;&gt;Node17 -->
<g id="edge26" class="edge"><title>Node2&#45;&gt;Node17</title>
<path fill="none" stroke="midnightblue" d="M759.249,-347.261C767.292,-323.951 785.307,-259.647 754,-224 738.101,-205.897 595.275,-191.236 509.471,-183.967"/>
<polygon fill="midnightblue" stroke="midnightblue" points="509.559,-180.462 499.303,-183.117 508.976,-187.437 509.559,-180.462"/>
</g>
<!-- Node22 -->
<g id="node22" class="node"><title>Node22</title>
<g id="a_node22"><a xlink:href="../../d9/d9c/GPUTPCGMPolynomialField_8h.html" target="_top" xlink:title="GPUTPCGMPolynomialField.h">
<polygon fill="none" stroke="black" points="593,-224.5 593,-243.5 745,-243.5 745,-224.5 593,-224.5"/>
<text text-anchor="middle" x="669" y="-231.5" font-family="Helvetica,sans-Serif" font-size="10.00">GPUTPCGMPolynomialField.h</text>
</a>
</g>
</g>
<!-- Node2&#45;&gt;Node22 -->
<g id="edge24" class="edge"><title>Node2&#45;&gt;Node22</title>
<path fill="none" stroke="midnightblue" d="M695.544,-347.425C653.6,-340.095 603.017,-328.016 590,-311 581.629,-300.057 583.076,-291.912 590,-280 598.736,-264.97 614.578,-254.543 629.795,-247.54"/>
<polygon fill="midnightblue" stroke="midnightblue" points="631.262,-250.72 639.119,-243.613 628.545,-244.269 631.262,-250.72"/>
</g>
<!-- Node4 -->
<g id="node4" class="node"><title>Node4</title>
<g id="a_node4"><a xlink:href="../../d5/d93/GPUCommonDefSettings_8h.html" target="_top" xlink:title="GPUCommonDefSettings.h">
<polygon fill="none" stroke="black" points="713,-0.5 713,-19.5 851,-19.5 851,-0.5 713,-0.5"/>
<text text-anchor="middle" x="782" y="-7.5" font-family="Helvetica,sans-Serif" font-size="10.00">GPUCommonDefSettings.h</text>
</a>
</g>
</g>
<!-- Node3&#45;&gt;Node4 -->
<g id="edge3" class="edge"><title>Node3&#45;&gt;Node4</title>
<path fill="none" stroke="midnightblue" d="M720.729,-56.324C731.837,-48.1066 748.742,-35.6017 761.983,-25.8069"/>
<polygon fill="midnightblue" stroke="midnightblue" points="764.1,-28.5948 770.058,-19.8339 759.937,-22.9671 764.1,-28.5948"/>
</g>
<!-- Node5 -->
<g id="node5" class="node"><title>Node5</title>
<g id="a_node5"><a xlink:href="../../da/d5a/GPUCommonDefAPI_8h.html" target="_top" xlink:title="GPUCommonDefAPI.h">
<polygon fill="none" stroke="black" points="575.5,-0.5 575.5,-19.5 694.5,-19.5 694.5,-0.5 575.5,-0.5"/>
<text text-anchor="middle" x="635" y="-7.5" font-family="Helvetica,sans-Serif" font-size="10.00">GPUCommonDefAPI.h</text>
</a>
</g>
</g>
<!-- Node3&#45;&gt;Node5 -->
<g id="edge4" class="edge"><title>Node3&#45;&gt;Node5</title>
<path fill="none" stroke="midnightblue" d="M697.111,-56.324C685.85,-48.1066 668.713,-35.6017 655.291,-25.8069"/>
<polygon fill="midnightblue" stroke="midnightblue" points="657.247,-22.9014 647.106,-19.8339 653.12,-28.5559 657.247,-22.9014"/>
</g>
<!-- Node8 -->
<g id="node8" class="node"><title>Node8</title>
<g id="a_node8"><a xlink:href="../../d8/d33/GPUTPCGMTrackParam_8h.html" target="_top" xlink:title="GPUTPCGMTrackParam.h">
<polygon fill="none" stroke="black" points="877,-224.5 877,-243.5 1013,-243.5 1013,-224.5 877,-224.5"/>
<text text-anchor="middle" x="945" y="-231.5" font-family="Helvetica,sans-Serif" font-size="10.00">GPUTPCGMTrackParam.h</text>
</a>
</g>
</g>
<!-- Node7&#45;&gt;Node8 -->
<g id="edge7" class="edge"><title>Node7&#45;&gt;Node8</title>
<path fill="none" stroke="midnightblue" d="M960.421,-285.975C957.855,-277.492 953.835,-264.204 950.543,-253.322"/>
<polygon fill="midnightblue" stroke="midnightblue" points="953.82,-252.067 947.574,-243.509 947.12,-254.094 953.82,-252.067"/>
</g>
<!-- Node9 -->
<g id="node9" class="node"><title>Node9</title>
<g id="a_node9"><a xlink:href="../../da/dab/GPUTPCDef_8h.html" target="_top" xlink:title="GPUTPCDef.h">
<polygon fill="none" stroke="black" points="627.5,-168.5 627.5,-187.5 710.5,-187.5 710.5,-168.5 627.5,-168.5"/>
<text text-anchor="middle" x="669" y="-175.5" font-family="Helvetica,sans-Serif" font-size="10.00">GPUTPCDef.h</text>
</a>
</g>
</g>
<!-- Node8&#45;&gt;Node9 -->
<g id="edge8" class="edge"><title>Node8&#45;&gt;Node9</title>
<path fill="none" stroke="midnightblue" d="M901.267,-224.444C852.247,-214.853 772.828,-199.314 720.755,-189.126"/>
<polygon fill="midnightblue" stroke="midnightblue" points="721.208,-185.648 710.722,-187.163 719.864,-192.518 721.208,-185.648"/>
</g>
<!-- Node8&#45;&gt;Node16 -->
<g id="edge16" class="edge"><title>Node8&#45;&gt;Node16</title>
<path fill="none" stroke="midnightblue" d="M929.094,-224.324C913.362,-215.743 889.058,-202.486 870.791,-192.522"/>
<polygon fill="midnightblue" stroke="midnightblue" points="872.322,-189.37 861.867,-187.655 868.97,-195.516 872.322,-189.37"/>
</g>
<!-- Node8&#45;&gt;Node17 -->
<g id="edge18" class="edge"><title>Node8&#45;&gt;Node17</title>
<path fill="none" stroke="midnightblue" d="M876.787,-225.633C779.968,-215.177 603.966,-196.168 509.323,-185.947"/>
<polygon fill="midnightblue" stroke="midnightblue" points="509.627,-182.459 499.309,-184.865 508.875,-189.419 509.627,-182.459"/>
</g>
<!-- Node20 -->
<g id="node20" class="node"><title>Node20</title>
<g id="a_node20"><a xlink:href="../../d3/d1f/GPUdEdxInfo_8h.html" target="_top" xlink:title="GPUdEdxInfo.h">
<polygon fill="none" stroke="black" points="978,-168.5 978,-187.5 1064,-187.5 1064,-168.5 978,-168.5"/>
<text text-anchor="middle" x="1021" y="-175.5" font-family="Helvetica,sans-Serif" font-size="10.00">GPUdEdxInfo.h</text>
</a>
</g>
</g>
<!-- Node8&#45;&gt;Node20 -->
<g id="edge22" class="edge"><title>Node8&#45;&gt;Node20</title>
<path fill="none" stroke="midnightblue" d="M957.211,-224.324C968.776,-216.107 986.375,-203.602 1000.16,-193.807"/>
<polygon fill="midnightblue" stroke="midnightblue" points="1002.44,-196.479 1008.57,-187.834 998.388,-190.773 1002.44,-196.479"/>
</g>
<!-- Node21 -->
<g id="node21" class="node"><title>Node21</title>
<polygon fill="none" stroke="#bfbfbf" points="963.5,-56.5 963.5,-75.5 1012.5,-75.5 1012.5,-56.5 963.5,-56.5"/>
<text text-anchor="middle" x="988" y="-63.5" font-family="Helvetica,sans-Serif" font-size="10.00">cstddef</text>
</g>
<!-- Node8&#45;&gt;Node21 -->
<g id="edge23" class="edge"><title>Node8&#45;&gt;Node21</title>
<path fill="none" stroke="midnightblue" d="M946.099,-224.343C948.78,-204.276 956.375,-153.154 969,-112 971.798,-102.879 975.806,-93.0843 979.42,-84.9693"/>
<polygon fill="midnightblue" stroke="midnightblue" points="982.655,-86.3122 983.667,-75.7658 976.299,-83.3794 982.655,-86.3122"/>
</g>
<!-- Node10 -->
<g id="node10" class="node"><title>Node10</title>
<g id="a_node10"><a xlink:href="../../d2/d6d/GPUDef_8h.html" target="_top" xlink:title="GPUDef.h">
<polygon fill="none" stroke="black" points="337,-112.5 337,-131.5 399,-131.5 399,-112.5 337,-112.5"/>
<text text-anchor="middle" x="368" y="-119.5" font-family="Helvetica,sans-Serif" font-size="10.00">GPUDef.h</text>
</a>
</g>
</g>
<!-- Node9&#45;&gt;Node10 -->
<g id="edge9" class="edge"><title>Node9&#45;&gt;Node10</title>
<path fill="none" stroke="midnightblue" d="M627.293,-170.476C577.633,-162.561 491.962,-148.442 409.223,-132.168"/>
<polygon fill="midnightblue" stroke="midnightblue" points="409.9,-128.734 399.411,-130.225 408.541,-135.601 409.9,-128.734"/>
</g>
<!-- Node10&#45;&gt;Node3 -->
<g id="edge10" class="edge"><title>Node10&#45;&gt;Node3</title>
<path fill="none" stroke="midnightblue" d="M399.398,-113.708C402.301,-113.103 405.201,-112.523 408,-112 490.606,-96.5532 586.753,-82.9304 647.729,-74.8275"/>
<polygon fill="midnightblue" stroke="midnightblue" points="648.494,-78.257 657.949,-73.4773 647.577,-71.3173 648.494,-78.257"/>
</g>
<!-- Node11 -->
<g id="node11" class="node"><title>Node11</title>
<g id="a_node11"><a xlink:href="../../d2/d37/GPUDefConstantsAndSettings_8h.html" target="_top" xlink:title="GPUDefConstantsAndSettings.h">
<polygon fill="none" stroke="black" points="462.5,-56.5 462.5,-75.5 623.5,-75.5 623.5,-56.5 462.5,-56.5"/>
<text text-anchor="middle" x="543" y="-63.5" font-family="Helvetica,sans-Serif" font-size="10.00">GPUDefConstantsAndSettings.h</text>
</a>
</g>
</g>
<!-- Node10&#45;&gt;Node11 -->
<g id="edge11" class="edge"><title>Node10&#45;&gt;Node11</title>
<path fill="none" stroke="midnightblue" d="M395.729,-112.444C425.426,-103.28 472.716,-88.6876 505.669,-78.5192"/>
<polygon fill="midnightblue" stroke="midnightblue" points="506.877,-81.8094 515.4,-75.5164 504.813,-75.1206 506.877,-81.8094"/>
</g>
<!-- Node12 -->
<g id="node12" class="node"><title>Node12</title>
<g id="a_node12"><a xlink:href="../../dc/de9/GPUDefGPUParameters_8h.html" target="_top" xlink:title="GPUDefGPUParameters.h">
<polygon fill="none" stroke="black" points="0,-56.5 0,-75.5 134,-75.5 134,-56.5 0,-56.5"/>
<text text-anchor="middle" x="67" y="-63.5" font-family="Helvetica,sans-Serif" font-size="10.00">GPUDefGPUParameters.h</text>
</a>
</g>
</g>
<!-- Node10&#45;&gt;Node12 -->
<g id="edge12" class="edge"><title>Node10&#45;&gt;Node12</title>
<path fill="none" stroke="midnightblue" d="M336.589,-113.775C333.689,-113.156 330.793,-112.555 328,-112 261.056,-98.7066 183.997,-85.7002 131.059,-77.117"/>
<polygon fill="midnightblue" stroke="midnightblue" points="131.563,-73.6532 121.133,-75.5137 130.447,-80.5637 131.563,-73.6532"/>
</g>
<!-- Node13 -->
<g id="node13" class="node"><title>Node13</title>
<g id="a_node13"><a xlink:href="../../d3/d4c/GPUDefOpenCL12Templates_8h.html" target="_top" xlink:title="GPUDefOpenCL12Templates.h">
<polygon fill="none" stroke="black" points="152.5,-56.5 152.5,-75.5 307.5,-75.5 307.5,-56.5 152.5,-56.5"/>
<text text-anchor="middle" x="230" y="-63.5" font-family="Helvetica,sans-Serif" font-size="10.00">GPUDefOpenCL12Templates.h</text>
</a>
</g>
</g>
<!-- Node10&#45;&gt;Node13 -->
<g id="edge13" class="edge"><title>Node10&#45;&gt;Node13</title>
<path fill="none" stroke="midnightblue" d="M346.133,-112.444C323.221,-103.478 287.025,-89.314 261.134,-79.1827"/>
<polygon fill="midnightblue" stroke="midnightblue" points="262.352,-75.9011 251.764,-75.5164 259.801,-82.4198 262.352,-75.9011"/>
</g>
<!-- Node14 -->
<g id="node14" class="node"><title>Node14</title>
<g id="a_node14"><a xlink:href="../../d2/d45/GPUCommonRtypes_8h.html" target="_top" xlink:title="GPUCommonRtypes.h">
<polygon fill="none" stroke="black" points="326,-56.5 326,-75.5 444,-75.5 444,-56.5 326,-56.5"/>
<text text-anchor="middle" x="385" y="-63.5" font-family="Helvetica,sans-Serif" font-size="10.00">GPUCommonRtypes.h</text>
</a>
</g>
</g>
<!-- Node10&#45;&gt;Node14 -->
<g id="edge14" class="edge"><title>Node10&#45;&gt;Node14</title>
<path fill="none" stroke="midnightblue" d="M370.807,-112.083C373.085,-104.849 376.371,-94.4087 379.208,-85.3968"/>
<polygon fill="midnightblue" stroke="midnightblue" points="382.581,-86.3406 382.245,-75.7511 375.904,-84.2385 382.581,-86.3406"/>
</g>
<!-- Node15 -->
<g id="node15" class="node"><title>Node15</title>
<polygon fill="none" stroke="#bfbfbf" points="357,-0.5 357,-19.5 413,-19.5 413,-0.5 357,-0.5"/>
<text text-anchor="middle" x="385" y="-7.5" font-family="Helvetica,sans-Serif" font-size="10.00">Rtypes.h</text>
</g>
<!-- Node14&#45;&gt;Node15 -->
<g id="edge15" class="edge"><title>Node14&#45;&gt;Node15</title>
<path fill="none" stroke="midnightblue" d="M385,-56.083C385,-49.0059 385,-38.8611 385,-29.9865"/>
<polygon fill="midnightblue" stroke="midnightblue" points="388.5,-29.751 385,-19.7511 381.5,-29.7511 388.5,-29.751"/>
</g>
<!-- Node16&#45;&gt;Node3 -->
<g id="edge17" class="edge"><title>Node16&#45;&gt;Node3</title>
<path fill="none" stroke="midnightblue" d="M835.25,-168.368C812.041,-149.733 756.99,-105.532 727.849,-82.1338"/>
<polygon fill="midnightblue" stroke="midnightblue" points="729.689,-79.1231 719.7,-75.5914 725.307,-84.5814 729.689,-79.1231"/>
</g>
<!-- Node17&#45;&gt;Node3 -->
<g id="edge19" class="edge"><title>Node17&#45;&gt;Node3</title>
<path fill="none" stroke="midnightblue" d="M452.987,-168.4C466.467,-154.412 495.191,-126.809 525,-112 563.496,-92.8748 610.65,-81.5483 647.585,-75.0426"/>
<polygon fill="midnightblue" stroke="midnightblue" points="648.437,-78.4483 657.715,-73.333 647.272,-71.5459 648.437,-78.4483"/>
</g>
<!-- Node17&#45;&gt;Node18 -->
<g id="edge20" class="edge"><title>Node17&#45;&gt;Node18</title>
<path fill="none" stroke="midnightblue" d="M421.549,-168.444C396.577,-159.332 356.894,-144.853 329.047,-134.693"/>
<polygon fill="midnightblue" stroke="midnightblue" points="329.966,-131.303 319.373,-131.163 327.567,-137.879 329.966,-131.303"/>
</g>
<!-- Node19 -->
<g id="node19" class="node"><title>Node19</title>
<polygon fill="none" stroke="#bfbfbf" points="417,-112.5 417,-131.5 473,-131.5 473,-112.5 417,-112.5"/>
<text text-anchor="middle" x="445" y="-119.5" font-family="Helvetica,sans-Serif" font-size="10.00">algorithm</text>
</g>
<!-- Node17&#45;&gt;Node19 -->
<g id="edge21" class="edge"><title>Node17&#45;&gt;Node19</title>
<path fill="none" stroke="midnightblue" d="M445,-168.083C445,-161.006 445,-150.861 445,-141.986"/>
<polygon fill="midnightblue" stroke="midnightblue" points="448.5,-141.751 445,-131.751 441.5,-141.751 448.5,-141.751"/>
</g>
<!-- Node22&#45;&gt;Node9 -->
<g id="edge25" class="edge"><title>Node22&#45;&gt;Node9</title>
<path fill="none" stroke="midnightblue" d="M669,-224.083C669,-217.006 669,-206.861 669,-197.986"/>
<polygon fill="midnightblue" stroke="midnightblue" points="672.5,-197.751 669,-187.751 665.5,-197.751 672.5,-197.751"/>
</g>
<!-- Node23&#45;&gt;Node3 -->
<g id="edge29" class="edge"><title>Node23&#45;&gt;Node3</title>
<path fill="none" stroke="midnightblue" d="M505.871,-285.845C509.242,-256.914 524.01,-162.545 577,-112 596.248,-93.6404 623.286,-82.7512 647.883,-76.3018"/>
<polygon fill="midnightblue" stroke="midnightblue" points="648.988,-79.6355 657.884,-73.881 647.341,-72.8319 648.988,-79.6355"/>
</g>
<!-- Node23&#45;&gt;Node10 -->
<g id="edge31" class="edge"><title>Node23&#45;&gt;Node10</title>
<path fill="none" stroke="midnightblue" d="M470.395,-285.956C447.142,-278.522 417.479,-265.479 399,-244 373.868,-214.788 368.689,-167.827 367.873,-141.835"/>
<polygon fill="midnightblue" stroke="midnightblue" points="371.372,-141.753 367.746,-131.798 364.373,-141.841 371.372,-141.753"/>
</g>
<!-- Node23&#45;&gt;Node17 -->
<g id="edge30" class="edge"><title>Node23&#45;&gt;Node17</title>
<path fill="none" stroke="midnightblue" d="M467.681,-285.884C445.601,-278.659 419.403,-265.883 406,-244 395.619,-227.051 411.061,-207.476 425.47,-194.274"/>
<polygon fill="midnightblue" stroke="midnightblue" points="427.882,-196.816 433.198,-187.652 423.327,-191.501 427.882,-196.816"/>
</g>
<!-- Node23&#45;&gt;Node22 -->
<g id="edge36" class="edge"><title>Node23&#45;&gt;Node22</title>
<path fill="none" stroke="midnightblue" d="M528.497,-285.975C556.629,-275.769 603.929,-258.608 635.789,-247.049"/>
<polygon fill="midnightblue" stroke="midnightblue" points="637.34,-250.21 645.546,-243.509 634.952,-243.63 637.34,-250.21"/>
</g>
<!-- Node24 -->
<g id="node24" class="node"><title>Node24</title>
<g id="a_node24"><a xlink:href="../../dd/dc6/GPUSettings_8h.html" target="_top" xlink:title="GPUSettings.h">
<polygon fill="none" stroke="black" points="415.5,-224.5 415.5,-243.5 498.5,-243.5 498.5,-224.5 415.5,-224.5"/>
<text text-anchor="middle" x="457" y="-231.5" font-family="Helvetica,sans-Serif" font-size="10.00">GPUSettings.h</text>
</a>
</g>
</g>
<!-- Node23&#45;&gt;Node24 -->
<g id="edge32" class="edge"><title>Node23&#45;&gt;Node24</title>
<path fill="none" stroke="midnightblue" d="M498.123,-285.975C490.851,-276.962 479.205,-262.525 470.159,-251.312"/>
<polygon fill="midnightblue" stroke="midnightblue" points="472.867,-249.095 463.864,-243.509 467.419,-253.49 472.867,-249.095"/>
</g>
<!-- Node25 -->
<g id="node25" class="node"><title>Node25</title>
<g id="a_node25"><a xlink:href="../../d6/d1b/GPUTPCGeometry_8h.html" target="_top" xlink:title="GPUTPCGeometry.h">
<polygon fill="none" stroke="black" points="586,-112.5 586,-131.5 696,-131.5 696,-112.5 586,-112.5"/>
<text text-anchor="middle" x="641" y="-119.5" font-family="Helvetica,sans-Serif" font-size="10.00">GPUTPCGeometry.h</text>
</a>
</g>
</g>
<!-- Node23&#45;&gt;Node25 -->
<g id="edge34" class="edge"><title>Node23&#45;&gt;Node25</title>
<path fill="none" stroke="midnightblue" d="M511.931,-285.76C533.488,-258.576 599.599,-175.208 627.911,-139.506"/>
<polygon fill="midnightblue" stroke="midnightblue" points="630.773,-141.529 634.244,-131.519 625.288,-137.18 630.773,-141.529"/>
</g>
<!-- Node24&#45;&gt;Node17 -->
<g id="edge33" class="edge"><title>Node24&#45;&gt;Node17</title>
<path fill="none" stroke="midnightblue" d="M455.018,-224.083C453.428,-216.927 451.141,-206.635 449.154,-197.691"/>
<polygon fill="midnightblue" stroke="midnightblue" points="452.531,-196.754 446.945,-187.751 445.697,-198.272 452.531,-196.754"/>
</g>
<!-- Node25&#45;&gt;Node3 -->
<g id="edge35" class="edge"><title>Node25&#45;&gt;Node3</title>
<path fill="none" stroke="midnightblue" d="M651.925,-112.324C662.175,-104.185 677.721,-91.8395 690.001,-82.0874"/>
<polygon fill="midnightblue" stroke="midnightblue" points="692.221,-84.7937 697.876,-75.8339 687.868,-79.3119 692.221,-84.7937"/>
</g>
<!-- Node26&#45;&gt;Node20 -->
<g id="edge44" class="edge"><title>Node26&#45;&gt;Node20</title>
<path fill="none" stroke="midnightblue" d="M1074.72,-224.324C1065.16,-216.263 1050.72,-204.077 1039.22,-194.369"/>
<polygon fill="midnightblue" stroke="midnightblue" points="1041.37,-191.608 1031.47,-187.834 1036.86,-196.958 1041.37,-191.608"/>
</g>
<!-- Node27 -->
<g id="node27" class="node"><title>Node27</title>
<g id="a_node27"><a xlink:href="../../da/d28/GPUO2FakeClasses_8h.html" target="_top" xlink:title="GPUO2FakeClasses.h">
<polygon fill="none" stroke="black" points="1082.5,-168.5 1082.5,-187.5 1199.5,-187.5 1199.5,-168.5 1082.5,-168.5"/>
<text text-anchor="middle" x="1141" y="-175.5" font-family="Helvetica,sans-Serif" font-size="10.00">GPUO2FakeClasses.h</text>
</a>
</g>
</g>
<!-- Node26&#45;&gt;Node27 -->
<g id="edge39" class="edge"><title>Node26&#45;&gt;Node27</title>
<path fill="none" stroke="midnightblue" d="M1094,-224.324C1102.19,-216.42 1114.51,-204.548 1124.47,-194.938"/>
<polygon fill="midnightblue" stroke="midnightblue" points="1127.07,-197.295 1131.84,-187.834 1122.21,-192.256 1127.07,-197.295"/>
</g>
<!-- Node27&#45;&gt;Node3 -->
<g id="edge40" class="edge"><title>Node27&#45;&gt;Node3</title>
<path fill="none" stroke="midnightblue" d="M1107.46,-168.46C1029.94,-148.722 838.426,-99.9557 752.245,-78.0115"/>
<polygon fill="midnightblue" stroke="midnightblue" points="753.072,-74.6104 742.517,-75.5345 751.345,-81.394 753.072,-74.6104"/>
</g>
<!-- Node28 -->
<g id="node28" class="node"><title>Node28</title>
<g id="a_node28"><a xlink:href="../../d4/dc5/GPUDataTypes_8h.html" target="_top" xlink:title="GPUDataTypes.h">
<polygon fill="none" stroke="black" points="978.5,-112.5 978.5,-131.5 1073.5,-131.5 1073.5,-112.5 978.5,-112.5"/>
<text text-anchor="middle" x="1026" y="-119.5" font-family="Helvetica,sans-Serif" font-size="10.00">GPUDataTypes.h</text>
</a>
</g>
</g>
<!-- Node27&#45;&gt;Node28 -->
<g id="edge41" class="edge"><title>Node27&#45;&gt;Node28</title>
<path fill="none" stroke="midnightblue" d="M1122.78,-168.444C1104.1,-159.675 1074.84,-145.935 1053.38,-135.858"/>
<polygon fill="midnightblue" stroke="midnightblue" points="1054.68,-132.599 1044.14,-131.516 1051.7,-138.935 1054.68,-132.599"/>
</g>
<!-- Node28&#45;&gt;Node3 -->
<g id="edge42" class="edge"><title>Node28&#45;&gt;Node3</title>
<path fill="none" stroke="midnightblue" d="M978.199,-112.857C922.362,-103.346 829.917,-87.5979 769.226,-77.2593"/>
<polygon fill="midnightblue" stroke="midnightblue" points="769.471,-73.7507 759.025,-75.5216 768.295,-80.6513 769.471,-73.7507"/>
</g>
<!-- Node28&#45;&gt;Node21 -->
<g id="edge43" class="edge"><title>Node28&#45;&gt;Node21</title>
<path fill="none" stroke="midnightblue" d="M1019.73,-112.083C1014.36,-104.455 1006.48,-93.2645 999.921,-83.9408"/>
<polygon fill="midnightblue" stroke="midnightblue" points="1002.78,-81.9149 994.158,-75.7511 997.051,-85.9434 1002.78,-81.9149"/>
</g>
</g>
</svg>
        <g id="navigator" transform="translate(0 0)" fill="#404254">
                <rect fill="#f2f5e9" fill-opacity="0.5" stroke="#606060" stroke-width=".5" x="0" y="0" width="60" height="60"/>
                <use id="zoomplus" xlink:href="#zoomPlus" x="17" y="9" onmousedown="handleZoom(evt,'in')"/>
                <use id="zoomminus" xlink:href="#zoomMin" x="42" y="9" onmousedown="handleZoom(evt,'out')"/>
                <use id="reset" xlink:href="#resetDef" x="30" y="36" onmousedown="handleReset()"/>
                <g id="arrowUp" xlink:href="#dirArrow" transform="translate(30 24)" onmousedown="handlePan(0,-1)">
                  <use xlink:href="#rim" fill="#404040">
                        <set attributeName="fill" to="#808080" begin="arrowUp.mouseover" end="arrowUp.mouseout"/>
                  </use>
                  <path fill="none" stroke="white" stroke-width="1.5" d="M0,-3.0v7 M-2.5,-0.5L0,-3.0L2.5,-0.5"/>
                </g>
                <g id="arrowRight" xlink:href="#dirArrow" transform="rotate(90) translate(36 -43)" onmousedown="handlePan(1,0)">
                  <use xlink:href="#rim" fill="#404040">
                        <set attributeName="fill" to="#808080" begin="arrowRight.mouseover" end="arrowRight.mouseout"/>
                  </use>
                  <path fill="none" stroke="white" stroke-width="1.5" d="M0,-3.0v7 M-2.5,-0.5L0,-3.0L2.5,-0.5"/>
                </g>
                <g id="arrowDown" xlink:href="#dirArrow" transform="rotate(180) translate(-30 -48)" onmousedown="handlePan(0,1)">
                  <use xlink:href="#rim" fill="#404040">
                        <set attributeName="fill" to="#808080" begin="arrowDown.mouseover" end="arrowDown.mouseout"/>
                  </use>
                  <path fill="none" stroke="white" stroke-width="1.5" d="M0,-3.0v7 M-2.5,-0.5L0,-3.0L2.5,-0.5"/>
                </g>
                <g id="arrowLeft" xlink:href="#dirArrow" transform="rotate(270) translate(-36 17)" onmousedown="handlePan(-1,0)">
                  <use xlink:href="#rim" fill="#404040">
                        <set attributeName="fill" to="#808080" begin="arrowLeft.mouseover" end="arrowLeft.mouseout"/>
                  </use>
                  <path fill="none" stroke="white" stroke-width="1.5" d="M0,-3.0v7 M-2.5,-0.5L0,-3.0L2.5,-0.5"/>
                </g>
        </g>
        <svg viewBox="0 0 15 15" width="100%" height="30px" preserveAspectRatio="xMaxYMin meet">
         <g id="arrow_out" transform="scale(0.3 0.3)">
          <a xlink:href="GPUTPCGMPropagator_8cxx__incl_org.svg" target="_base">
           <rect id="button" ry="5" rx="5" y="6" x="6" height="38" width="38"
                fill="#f2f5e9" fill-opacity="0.5" stroke="#606060" stroke-width="1.0"/>
           <path id="arrow"
             d="M 11.500037,31.436501 C 11.940474,20.09759 22.043105,11.32322 32.158766,21.979434 L 37.068811,17.246167 C 37.068811,17.246167 37.088388,32 37.088388,32 L 22.160133,31.978069 C 22.160133,31.978069 26.997745,27.140456 26.997745,27.140456 C 18.528582,18.264221 13.291696,25.230495 11.500037,31.436501 z"
             style="fill:#404040;"/>
          </a>
         </g>
        </svg>
</svg>
