<?xml version="1.0" encoding="UTF-8" standalone="no"?>
<!DOCTYPE svg PUBLIC "-//W3C//DTD SVG 1.1//EN"
 "http://www.w3.org/Graphics/SVG/1.1/DTD/svg11.dtd">
<!-- Generated by graphviz version 2.38.0 (20140413.2041)
 -->
<!-- Title: o2::tpc::ClusterGroupHeader Pages: 1 -->
<svg width="155pt" height="298pt"
 viewBox="0.00 0.00 155.00 298.00" xmlns="http://www.w3.org/2000/svg" xmlns:xlink="http://www.w3.org/1999/xlink">
<g id="graph0" class="graph" transform="scale(1 1) rotate(0) translate(4 294)">
<title>o2::tpc::ClusterGroupHeader</title>
<!-- Node1 -->
<g id="node1" class="node"><title>Node1</title>
<polygon fill="#bfbfbf" stroke="black" points="2.5,-116.5 2.5,-173.5 144.5,-173.5 144.5,-116.5 2.5,-116.5"/>
<text text-anchor="middle" x="73.5" y="-161.5" font-family="Helvetica,sans-Serif" font-size="10.00">o2::tpc::ClusterGroupHeader</text>
<polyline fill="none" stroke="black" points="2.5,-154.5 144.5,-154.5 "/>
<text text-anchor="start" x="10.5" y="-142.5" font-family="Helvetica,sans-Serif" font-size="10.00">+ nClusters</text>
<polyline fill="none" stroke="black" points="2.5,-135.5 144.5,-135.5 "/>
<text text-anchor="start" x="10.5" y="-123.5" font-family="Helvetica,sans-Serif" font-size="10.00">+ ClusterGroupHeader()</text>
</g>
<!-- Node3 -->
<g id="node3" class="node"><title>Node3</title>
<g id="a_node3"><a xlink:href="../../d0/d1b/structo2_1_1tpc_1_1ClusterNativeBuffer.html" target="_top" xlink:title="{o2::tpc::ClusterNativeBuffer\n|+ clusters\l|+ getFlatSize()\l+ data()\l+ data()\l}">
<polygon fill="none" stroke="black" points="4,-0.5 4,-79.5 143,-79.5 143,-0.5 4,-0.5"/>
<text text-anchor="middle" x="73.5" y="-67.5" font-family="Helvetica,sans-Serif" font-size="10.00">o2::tpc::ClusterNativeBuffer</text>
<polyline fill="none" stroke="black" points="4,-60.5 143,-60.5 "/>
<text text-anchor="start" x="12" y="-48.5" font-family="Helvetica,sans-Serif" font-size="10.00">+ clusters</text>
<polyline fill="none" stroke="black" points="4,-41.5 143,-41.5 "/>
<text text-anchor="start" x="12" y="-29.5" font-family="Helvetica,sans-Serif" font-size="10.00">+ getFlatSize()</text>
<text text-anchor="start" x="12" y="-18.5" font-family="Helvetica,sans-Serif" font-size="10.00">+ data()</text>
<text text-anchor="start" x="12" y="-7.5" font-family="Helvetica,sans-Serif" font-size="10.00">+ data()</text>
</a>
</g>
</g>
<!-- Node1&#45;&gt;Node3 -->
<g id="edge2" class="edge"><title>Node1&#45;&gt;Node3</title>
<path fill="none" stroke="midnightblue" d="M73.5,-106.156C73.5,-97.4733 73.5,-88.2318 73.5,-79.5205"/>
<polygon fill="none" stroke="midnightblue" points="70.0001,-106.398 73.5,-116.398 77.0001,-106.398 70.0001,-106.398"/>
</g>
<!-- Node2 -->
<g id="node2" class="node"><title>Node2</title>
<g id="a_node2"><a xlink:href="../../d6/de9/structo2_1_1tpc_1_1ClusterGroupAttribute.html" target="_top" xlink:title="{o2::tpc::ClusterGroupAttribute\n|+ sector\l+ globalPadRow\l|+ set()\l+ getSubSpecification()\l}">
<polygon fill="none" stroke="black" points="0,-210.5 0,-289.5 147,-289.5 147,-210.5 0,-210.5"/>
<text text-anchor="middle" x="73.5" y="-277.5" font-family="Helvetica,sans-Serif" font-size="10.00">o2::tpc::ClusterGroupAttribute</text>
<polyline fill="none" stroke="black" points="0,-270.5 147,-270.5 "/>
<text text-anchor="start" x="8" y="-258.5" font-family="Helvetica,sans-Serif" font-size="10.00">+ sector</text>
<text text-anchor="start" x="8" y="-247.5" font-family="Helvetica,sans-Serif" font-size="10.00">+ globalPadRow</text>
<polyline fill="none" stroke="black" points="0,-240.5 147,-240.5 "/>
<text text-anchor="start" x="8" y="-228.5" font-family="Helvetica,sans-Serif" font-size="10.00">+ set()</text>
<text text-anchor="start" x="8" y="-217.5" font-family="Helvetica,sans-Serif" font-size="10.00">+ getSubSpecification()</text>
</a>
</g>
</g>
<!-- Node2&#45;&gt;Node1 -->
<g id="edge1" class="edge"><title>Node2&#45;&gt;Node1</title>
<path fill="none" stroke="midnightblue" d="M73.5,-200.163C73.5,-191.04 73.5,-181.806 73.5,-173.61"/>
<polygon fill="none" stroke="midnightblue" points="70.0001,-200.354 73.5,-210.354 77.0001,-200.354 70.0001,-200.354"/>
</g>
</g>
</svg>
