<?xml version="1.0" encoding="UTF-8" standalone="no"?>
<!DOCTYPE svg PUBLIC "-//W3C//DTD SVG 1.1//EN"
 "http://www.w3.org/Graphics/SVG/1.1/DTD/svg11.dtd">
<!-- Generated by graphviz version 2.38.0 (20140413.2041)
 -->
<!-- Title: /home/travis/build/AliceO2Group/AliceO2/Detectors/ITSMFT/ITS/tracking/src/Graph.cxx Pages: 1 -->
<svg width="677pt" height="173pt"
 viewBox="0.00 0.00 677.00 173.00" xmlns="http://www.w3.org/2000/svg" xmlns:xlink="http://www.w3.org/1999/xlink">
<g id="graph0" class="graph" transform="scale(1 1) rotate(0) translate(4 169)">
<title>/home/travis/build/AliceO2Group/AliceO2/Detectors/ITSMFT/ITS/tracking/src/Graph.cxx</title>
<!-- Node1 -->
<g id="node1" class="node"><title>Node1</title>
<polygon fill="#bfbfbf" stroke="black" points="309,-112.5 309,-164.5 429,-164.5 429,-112.5 309,-112.5"/>
<text text-anchor="start" x="317" y="-152.5" font-family="Helvetica,sans-Serif" font-size="10.00">/home/travis/build</text>
<text text-anchor="start" x="317" y="-141.5" font-family="Helvetica,sans-Serif" font-size="10.00">/AliceO2Group/AliceO2</text>
<text text-anchor="start" x="317" y="-130.5" font-family="Helvetica,sans-Serif" font-size="10.00">/Detectors/ITSMFT/ITS</text>
<text text-anchor="middle" x="369" y="-119.5" font-family="Helvetica,sans-Serif" font-size="10.00">/tracking/src/Graph.cxx</text>
</g>
<!-- Node2 -->
<g id="node2" class="node"><title>Node2</title>
<g id="a_node2"><a xlink:href="../../d7/d16/Graph_8h.html" target="_top" xlink:title="ITStracking/Graph.h">
<polygon fill="none" stroke="black" points="317,-56.5 317,-75.5 421,-75.5 421,-56.5 317,-56.5"/>
<text text-anchor="middle" x="369" y="-63.5" font-family="Helvetica,sans-Serif" font-size="10.00">ITStracking/Graph.h</text>
</a>
</g>
</g>
<!-- Node1&#45;&gt;Node2 -->
<g id="edge1" class="edge"><title>Node1&#45;&gt;Node2</title>
<path fill="none" stroke="midnightblue" d="M369,-112.446C369,-103.73 369,-94.1045 369,-85.9641"/>
<polygon fill="midnightblue" stroke="midnightblue" points="372.5,-85.6954 369,-75.6955 365.5,-85.6955 372.5,-85.6954"/>
</g>
<!-- Node3 -->
<g id="node3" class="node"><title>Node3</title>
<polygon fill="none" stroke="#bfbfbf" points="0,-0.5 0,-19.5 38,-19.5 38,-0.5 0,-0.5"/>
<text text-anchor="middle" x="19" y="-7.5" font-family="Helvetica,sans-Serif" font-size="10.00">array</text>
</g>
<!-- Node2&#45;&gt;Node3 -->
<g id="edge2" class="edge"><title>Node2&#45;&gt;Node3</title>
<path fill="none" stroke="midnightblue" d="M316.915,-60.5043C254.891,-54.5352 148.115,-42.317 48.1232,-19.9105"/>
<polygon fill="midnightblue" stroke="midnightblue" points="48.6865,-16.4491 38.1586,-17.638 47.1301,-23.2739 48.6865,-16.4491"/>
</g>
<!-- Node4 -->
<g id="node4" class="node"><title>Node4</title>
<polygon fill="none" stroke="#bfbfbf" points="56,-0.5 56,-19.5 100,-19.5 100,-0.5 56,-0.5"/>
<text text-anchor="middle" x="78" y="-7.5" font-family="Helvetica,sans-Serif" font-size="10.00">cmath</text>
</g>
<!-- Node2&#45;&gt;Node4 -->
<g id="edge3" class="edge"><title>Node2&#45;&gt;Node4</title>
<path fill="none" stroke="midnightblue" d="M316.863,-57.7198C266.288,-50.2669 187.231,-37.5875 110.15,-20.0628"/>
<polygon fill="midnightblue" stroke="midnightblue" points="110.804,-16.6217 100.273,-17.7876 109.232,-23.4431 110.804,-16.6217"/>
</g>
<!-- Node5 -->
<g id="node5" class="node"><title>Node5</title>
<polygon fill="none" stroke="#bfbfbf" points="118.5,-0.5 118.5,-19.5 213.5,-19.5 213.5,-0.5 118.5,-0.5"/>
<text text-anchor="middle" x="166" y="-7.5" font-family="Helvetica,sans-Serif" font-size="10.00">condition_variable</text>
</g>
<!-- Node2&#45;&gt;Node5 -->
<g id="edge4" class="edge"><title>Node2&#45;&gt;Node5</title>
<path fill="none" stroke="midnightblue" d="M336.834,-56.4435C301.941,-47.1616 246.107,-32.3093 207.829,-22.127"/>
<polygon fill="midnightblue" stroke="midnightblue" points="208.579,-18.7048 198.015,-19.5164 206.78,-25.4696 208.579,-18.7048"/>
</g>
<!-- Node6 -->
<g id="node6" class="node"><title>Node6</title>
<polygon fill="none" stroke="#bfbfbf" points="231.5,-0.5 231.5,-19.5 290.5,-19.5 290.5,-0.5 231.5,-0.5"/>
<text text-anchor="middle" x="261" y="-7.5" font-family="Helvetica,sans-Serif" font-size="10.00">functional</text>
</g>
<!-- Node2&#45;&gt;Node6 -->
<g id="edge5" class="edge"><title>Node2&#45;&gt;Node6</title>
<path fill="none" stroke="midnightblue" d="M351.648,-56.324C334.328,-47.6641 307.485,-34.2424 287.498,-24.249"/>
<polygon fill="midnightblue" stroke="midnightblue" points="288.819,-20.9962 278.309,-19.6545 285.688,-27.2572 288.819,-20.9962"/>
</g>
<!-- Node7 -->
<g id="node7" class="node"><title>Node7</title>
<polygon fill="none" stroke="#bfbfbf" points="309,-0.5 309,-19.5 363,-19.5 363,-0.5 309,-0.5"/>
<text text-anchor="middle" x="336" y="-7.5" font-family="Helvetica,sans-Serif" font-size="10.00">iostream</text>
</g>
<!-- Node2&#45;&gt;Node7 -->
<g id="edge6" class="edge"><title>Node2&#45;&gt;Node7</title>
<path fill="none" stroke="midnightblue" d="M363.551,-56.083C358.986,-48.6127 352.332,-37.7244 346.707,-28.5199"/>
<polygon fill="midnightblue" stroke="midnightblue" points="349.549,-26.4588 341.348,-19.7511 343.576,-30.109 349.549,-26.4588"/>
</g>
<!-- Node8 -->
<g id="node8" class="node"><title>Node8</title>
<polygon fill="none" stroke="#bfbfbf" points="381,-0.5 381,-19.5 425,-19.5 425,-0.5 381,-0.5"/>
<text text-anchor="middle" x="403" y="-7.5" font-family="Helvetica,sans-Serif" font-size="10.00">mutex</text>
</g>
<!-- Node2&#45;&gt;Node8 -->
<g id="edge7" class="edge"><title>Node2&#45;&gt;Node8</title>
<path fill="none" stroke="midnightblue" d="M374.614,-56.083C379.367,-48.5341 386.318,-37.4948 392.152,-28.2298"/>
<polygon fill="midnightblue" stroke="midnightblue" points="395.124,-30.0783 397.49,-19.7511 389.2,-26.3486 395.124,-30.0783"/>
</g>
<!-- Node9 -->
<g id="node9" class="node"><title>Node9</title>
<polygon fill="none" stroke="#bfbfbf" points="443.5,-0.5 443.5,-19.5 486.5,-19.5 486.5,-0.5 443.5,-0.5"/>
<text text-anchor="middle" x="465" y="-7.5" font-family="Helvetica,sans-Serif" font-size="10.00">queue</text>
</g>
<!-- Node2&#45;&gt;Node9 -->
<g id="edge8" class="edge"><title>Node2&#45;&gt;Node9</title>
<path fill="none" stroke="midnightblue" d="M384.424,-56.324C399.54,-47.8215 422.815,-34.7288 440.471,-24.7975"/>
<polygon fill="midnightblue" stroke="midnightblue" points="442.614,-27.6077 449.614,-19.6545 439.183,-21.5066 442.614,-27.6077"/>
</g>
<!-- Node10 -->
<g id="node10" class="node"><title>Node10</title>
<polygon fill="none" stroke="#bfbfbf" points="505,-0.5 505,-19.5 549,-19.5 549,-0.5 505,-0.5"/>
<text text-anchor="middle" x="527" y="-7.5" font-family="Helvetica,sans-Serif" font-size="10.00">thread</text>
</g>
<!-- Node2&#45;&gt;Node10 -->
<g id="edge9" class="edge"><title>Node2&#45;&gt;Node10</title>
<path fill="none" stroke="midnightblue" d="M394.036,-56.4435C421.476,-47.0652 465.555,-32.0001 495.367,-21.8112"/>
<polygon fill="midnightblue" stroke="midnightblue" points="496.555,-25.104 504.886,-18.558 494.291,-18.4802 496.555,-25.104"/>
</g>
<!-- Node11 -->
<g id="node11" class="node"><title>Node11</title>
<polygon fill="none" stroke="#bfbfbf" points="567,-0.5 567,-19.5 607,-19.5 607,-0.5 567,-0.5"/>
<text text-anchor="middle" x="587" y="-7.5" font-family="Helvetica,sans-Serif" font-size="10.00">utility</text>
</g>
<!-- Node2&#45;&gt;Node11 -->
<g id="edge10" class="edge"><title>Node2&#45;&gt;Node11</title>
<path fill="none" stroke="midnightblue" d="M408.288,-56.4544C444.555,-48.3865 500.108,-35.5759 556.903,-20.1682"/>
<polygon fill="midnightblue" stroke="midnightblue" points="558.048,-23.4838 566.769,-17.4685 556.2,-16.732 558.048,-23.4838"/>
</g>
<!-- Node12 -->
<g id="node12" class="node"><title>Node12</title>
<polygon fill="none" stroke="#bfbfbf" points="625,-0.5 625,-19.5 669,-19.5 669,-0.5 625,-0.5"/>
<text text-anchor="middle" x="647" y="-7.5" font-family="Helvetica,sans-Serif" font-size="10.00">vector</text>
</g>
<!-- Node2&#45;&gt;Node12 -->
<g id="edge11" class="edge"><title>Node2&#45;&gt;Node12</title>
<path fill="none" stroke="midnightblue" d="M421.363,-57.0565C469.326,-49.422 542.456,-36.8836 614.557,-20.1523"/>
<polygon fill="midnightblue" stroke="midnightblue" points="615.787,-23.4587 624.721,-17.7637 614.186,-16.6443 615.787,-23.4587"/>
</g>
</g>
</svg>
