<?xml version="1.0" encoding="UTF-8" standalone="no"?>
<!DOCTYPE svg PUBLIC "-//W3C//DTD SVG 1.1//EN"
 "http://www.w3.org/Graphics/SVG/1.1/DTD/svg11.dtd">
<!-- Generated by graphviz version 2.38.0 (20140413.2041)
 -->
<!-- Title: /home/travis/build/AliceO2Group/AliceO2/Generators/src/Pythia6Generator.cxx Pages: 1 -->
<svg width="407pt" height="162pt"
 viewBox="0.00 0.00 406.50 162.00" xmlns="http://www.w3.org/2000/svg" xmlns:xlink="http://www.w3.org/1999/xlink">
<g id="graph0" class="graph" transform="scale(1 1) rotate(0) translate(4 158)">
<title>/home/travis/build/AliceO2Group/AliceO2/Generators/src/Pythia6Generator.cxx</title>
<!-- Node1 -->
<g id="node1" class="node"><title>Node1</title>
<polygon fill="#bfbfbf" stroke="black" points="99.5,-112.5 99.5,-153.5 281.5,-153.5 281.5,-112.5 99.5,-112.5"/>
<text text-anchor="start" x="107.5" y="-141.5" font-family="Helvetica,sans-Serif" font-size="10.00">/home/travis/build</text>
<text text-anchor="start" x="107.5" y="-130.5" font-family="Helvetica,sans-Serif" font-size="10.00">/AliceO2Group/AliceO2</text>
<text text-anchor="middle" x="190.5" y="-119.5" font-family="Helvetica,sans-Serif" font-size="10.00">/Generators/src/Pythia6Generator.cxx</text>
</g>
<!-- Node2 -->
<g id="node2" class="node"><title>Node2</title>
<g id="a_node2"><a xlink:href="../../d7/d0e/Pythia6Generator_8h.html" target="_top" xlink:title="Generators/Pythia6Generator.h">
<polygon fill="none" stroke="black" points="38.5,-56.5 38.5,-75.5 190.5,-75.5 190.5,-56.5 38.5,-56.5"/>
<text text-anchor="middle" x="114.5" y="-63.5" font-family="Helvetica,sans-Serif" font-size="10.00">Generators/Pythia6Generator.h</text>
</a>
</g>
</g>
<!-- Node1&#45;&gt;Node2 -->
<g id="edge1" class="edge"><title>Node1&#45;&gt;Node2</title>
<path fill="none" stroke="midnightblue" d="M167.697,-112.498C156.381,-102.82 142.913,-91.3002 132.359,-82.274"/>
<polygon fill="midnightblue" stroke="midnightblue" points="134.491,-79.4923 124.617,-75.6525 129.942,-84.8121 134.491,-79.4923"/>
</g>
<!-- Node3 -->
<g id="node3" class="node"><title>Node3</title>
<polygon fill="none" stroke="#bfbfbf" points="0,-0.5 0,-19.5 43,-19.5 43,-0.5 0,-0.5"/>
<text text-anchor="middle" x="21.5" y="-7.5" font-family="Helvetica,sans-Serif" font-size="10.00">cstdio</text>
</g>
<!-- Node1&#45;&gt;Node3 -->
<g id="edge7" class="edge"><title>Node1&#45;&gt;Node3</title>
<path fill="none" stroke="midnightblue" d="M99.2545,-118.977C73.045,-110.801 46.883,-97.5286 29.5,-76 19.1296,-63.1564 17.949,-43.974 18.8699,-29.7739"/>
<polygon fill="midnightblue" stroke="midnightblue" points="22.3674,-29.9792 19.9237,-19.67 15.4052,-29.253 22.3674,-29.9792"/>
</g>
<!-- Node6 -->
<g id="node6" class="node"><title>Node6</title>
<polygon fill="none" stroke="#bfbfbf" points="208.5,-56.5 208.5,-75.5 326.5,-75.5 326.5,-56.5 208.5,-56.5"/>
<text text-anchor="middle" x="267.5" y="-63.5" font-family="Helvetica,sans-Serif" font-size="10.00">FairPrimaryGenerator.h</text>
</g>
<!-- Node1&#45;&gt;Node6 -->
<g id="edge5" class="edge"><title>Node1&#45;&gt;Node6</title>
<path fill="none" stroke="midnightblue" d="M213.603,-112.498C225.068,-102.82 238.714,-91.3002 249.406,-82.274"/>
<polygon fill="midnightblue" stroke="midnightblue" points="251.866,-84.7775 257.25,-75.6525 247.351,-79.4286 251.866,-84.7775"/>
</g>
<!-- Node7 -->
<g id="node7" class="node"><title>Node7</title>
<polygon fill="none" stroke="#bfbfbf" points="344.5,-56.5 344.5,-75.5 398.5,-75.5 398.5,-56.5 344.5,-56.5"/>
<text text-anchor="middle" x="371.5" y="-63.5" font-family="Helvetica,sans-Serif" font-size="10.00">iostream</text>
</g>
<!-- Node1&#45;&gt;Node7 -->
<g id="edge6" class="edge"><title>Node1&#45;&gt;Node7</title>
<path fill="none" stroke="midnightblue" d="M244.806,-112.498C275.092,-101.622 311.852,-88.4206 337.958,-79.0455"/>
<polygon fill="midnightblue" stroke="midnightblue" points="339.178,-82.3264 347.406,-75.6525 336.812,-75.7384 339.178,-82.3264"/>
</g>
<!-- Node2&#45;&gt;Node3 -->
<g id="edge2" class="edge"><title>Node2&#45;&gt;Node3</title>
<path fill="none" stroke="midnightblue" d="M99.5579,-56.324C84.9148,-47.8215 62.3663,-34.7288 45.2623,-24.7975"/>
<polygon fill="midnightblue" stroke="midnightblue" points="46.8104,-21.6491 36.405,-19.6545 43.2954,-27.7027 46.8104,-21.6491"/>
</g>
<!-- Node4 -->
<g id="node4" class="node"><title>Node4</title>
<polygon fill="none" stroke="#bfbfbf" points="66.5,-0.5 66.5,-19.5 150.5,-19.5 150.5,-0.5 66.5,-0.5"/>
<text text-anchor="middle" x="108.5" y="-7.5" font-family="Helvetica,sans-Serif" font-size="10.00">FairGenerator.h</text>
</g>
<!-- Node2&#45;&gt;Node4 -->
<g id="edge3" class="edge"><title>Node2&#45;&gt;Node4</title>
<path fill="none" stroke="midnightblue" d="M113.509,-56.083C112.714,-48.9272 111.571,-38.6353 110.577,-29.6911"/>
<polygon fill="midnightblue" stroke="midnightblue" points="114.055,-29.3034 109.472,-19.7511 107.098,-30.0765 114.055,-29.3034"/>
</g>
<!-- Node5 -->
<g id="node5" class="node"><title>Node5</title>
<polygon fill="none" stroke="#bfbfbf" points="168.5,-0.5 168.5,-19.5 224.5,-19.5 224.5,-0.5 168.5,-0.5"/>
<text text-anchor="middle" x="196.5" y="-7.5" font-family="Helvetica,sans-Serif" font-size="10.00">Rtypes.h</text>
</g>
<!-- Node2&#45;&gt;Node5 -->
<g id="edge4" class="edge"><title>Node2&#45;&gt;Node5</title>
<path fill="none" stroke="midnightblue" d="M127.675,-56.324C140.347,-47.979 159.733,-35.2122 174.706,-25.3524"/>
<polygon fill="midnightblue" stroke="midnightblue" points="176.931,-28.0776 183.358,-19.6545 173.081,-22.2313 176.931,-28.0776"/>
</g>
</g>
</svg>
