<?xml version="1.0" encoding="UTF-8" standalone="no"?>
<!DOCTYPE svg PUBLIC "-//W3C//DTD SVG 1.1//EN"
 "http://www.w3.org/Graphics/SVG/1.1/DTD/svg11.dtd">
<!-- Generated by graphviz version 2.38.0 (20140413.2041)
 -->
<!-- Title: /home/travis/build/AliceO2Group/AliceO2/EventVisualisation/Base/include/EventVisualisationBase/ConfigurationManager.h Pages: 1 -->
<svg width="1213pt" height="161pt"
 viewBox="0.00 0.00 1212.50 161.00" xmlns="http://www.w3.org/2000/svg" xmlns:xlink="http://www.w3.org/1999/xlink">
<g id="graph0" class="graph" transform="scale(1 1) rotate(0) translate(4 157)">
<title>/home/travis/build/AliceO2Group/AliceO2/EventVisualisation/Base/include/EventVisualisationBase/ConfigurationManager.h</title>
<!-- Node1 -->
<g id="node1" class="node"><title>Node1</title>
<polygon fill="#bfbfbf" stroke="black" points="557.5,-89.5 557.5,-152.5 714.5,-152.5 714.5,-89.5 557.5,-89.5"/>
<text text-anchor="start" x="565.5" y="-140.5" font-family="Helvetica,sans-Serif" font-size="10.00">/home/travis/build</text>
<text text-anchor="start" x="565.5" y="-129.5" font-family="Helvetica,sans-Serif" font-size="10.00">/AliceO2Group/AliceO2</text>
<text text-anchor="start" x="565.5" y="-118.5" font-family="Helvetica,sans-Serif" font-size="10.00">/EventVisualisation/Base</text>
<text text-anchor="start" x="565.5" y="-107.5" font-family="Helvetica,sans-Serif" font-size="10.00">/include/EventVisualisationBase</text>
<text text-anchor="middle" x="636" y="-96.5" font-family="Helvetica,sans-Serif" font-size="10.00">/ConfigurationManager.h</text>
</g>
<!-- Node2 -->
<g id="node2" class="node"><title>Node2</title>
<g id="a_node2"><a xlink:href="../../d6/d94/ConfigurationManager_8cxx.html" target="_top" xlink:title="/home/travis/build\l/AliceO2Group/AliceO2\l/EventVisualisation/Base\l/src/ConfigurationManager.cxx">
<polygon fill="none" stroke="black" points="0,-0.5 0,-52.5 150,-52.5 150,-0.5 0,-0.5"/>
<text text-anchor="start" x="8" y="-40.5" font-family="Helvetica,sans-Serif" font-size="10.00">/home/travis/build</text>
<text text-anchor="start" x="8" y="-29.5" font-family="Helvetica,sans-Serif" font-size="10.00">/AliceO2Group/AliceO2</text>
<text text-anchor="start" x="8" y="-18.5" font-family="Helvetica,sans-Serif" font-size="10.00">/EventVisualisation/Base</text>
<text text-anchor="middle" x="75" y="-7.5" font-family="Helvetica,sans-Serif" font-size="10.00">/src/ConfigurationManager.cxx</text>
</a>
</g>
</g>
<!-- Node1&#45;&gt;Node2 -->
<g id="edge1" class="edge"><title>Node1&#45;&gt;Node2</title>
<path fill="none" stroke="midnightblue" d="M547.262,-111.698C450.919,-101.721 292.883,-82.5369 159,-53 156.172,-52.3762 153.302,-51.7045 150.41,-50.9954"/>
<polygon fill="midnightblue" stroke="midnightblue" points="546.95,-115.185 557.255,-112.723 547.664,-108.221 546.95,-115.185"/>
</g>
<!-- Node3 -->
<g id="node3" class="node"><title>Node3</title>
<g id="a_node3"><a xlink:href="../../d5/d90/EventVisualisation_2Base_2src_2GeometryManager_8cxx.html" target="_top" xlink:title="/home/travis/build\l/AliceO2Group/AliceO2\l/EventVisualisation/Base\l/src/GeometryManager.cxx">
<polygon fill="none" stroke="black" points="168.5,-0.5 168.5,-52.5 303.5,-52.5 303.5,-0.5 168.5,-0.5"/>
<text text-anchor="start" x="176.5" y="-40.5" font-family="Helvetica,sans-Serif" font-size="10.00">/home/travis/build</text>
<text text-anchor="start" x="176.5" y="-29.5" font-family="Helvetica,sans-Serif" font-size="10.00">/AliceO2Group/AliceO2</text>
<text text-anchor="start" x="176.5" y="-18.5" font-family="Helvetica,sans-Serif" font-size="10.00">/EventVisualisation/Base</text>
<text text-anchor="middle" x="236" y="-7.5" font-family="Helvetica,sans-Serif" font-size="10.00">/src/GeometryManager.cxx</text>
</a>
</g>
</g>
<!-- Node1&#45;&gt;Node3 -->
<g id="edge2" class="edge"><title>Node1&#45;&gt;Node3</title>
<path fill="none" stroke="midnightblue" d="M547.566,-104.503C482.286,-92.3763 391.524,-74.0713 313,-53 310.008,-52.1971 306.961,-51.3438 303.892,-50.4548"/>
<polygon fill="midnightblue" stroke="midnightblue" points="546.943,-107.947 557.412,-106.322 548.214,-101.064 546.943,-107.947"/>
</g>
<!-- Node4 -->
<g id="node4" class="node"><title>Node4</title>
<g id="a_node4"><a xlink:href="../../d5/df5/DataInterpreterTPC_8cxx.html" target="_top" xlink:title="converting TPC data to Event Visualisation primitives ">
<polygon fill="none" stroke="black" points="322,-0.5 322,-52.5 468,-52.5 468,-0.5 322,-0.5"/>
<text text-anchor="start" x="330" y="-40.5" font-family="Helvetica,sans-Serif" font-size="10.00">/home/travis/build</text>
<text text-anchor="start" x="330" y="-29.5" font-family="Helvetica,sans-Serif" font-size="10.00">/AliceO2Group/AliceO2</text>
<text text-anchor="start" x="330" y="-18.5" font-family="Helvetica,sans-Serif" font-size="10.00">/EventVisualisation/Detectors</text>
<text text-anchor="middle" x="395" y="-7.5" font-family="Helvetica,sans-Serif" font-size="10.00">/src/DataInterpreterTPC.cxx</text>
</a>
</g>
</g>
<!-- Node1&#45;&gt;Node4 -->
<g id="edge3" class="edge"><title>Node1&#45;&gt;Node4</title>
<path fill="none" stroke="midnightblue" d="M547.713,-86.1139C518.752,-74.9982 487.112,-62.8541 460.18,-52.5173"/>
<polygon fill="midnightblue" stroke="midnightblue" points="546.831,-89.5243 557.421,-89.84 549.339,-82.9891 546.831,-89.5243"/>
</g>
<!-- Node5 -->
<g id="node5" class="node"><title>Node5</title>
<g id="a_node5"><a xlink:href="../../de/df8/DataInterpreterVSD_8cxx.html" target="_top" xlink:title="converting VSD data to Event Visualisation primitives ">
<polygon fill="none" stroke="black" points="486,-0.5 486,-52.5 632,-52.5 632,-0.5 486,-0.5"/>
<text text-anchor="start" x="494" y="-40.5" font-family="Helvetica,sans-Serif" font-size="10.00">/home/travis/build</text>
<text text-anchor="start" x="494" y="-29.5" font-family="Helvetica,sans-Serif" font-size="10.00">/AliceO2Group/AliceO2</text>
<text text-anchor="start" x="494" y="-18.5" font-family="Helvetica,sans-Serif" font-size="10.00">/EventVisualisation/Detectors</text>
<text text-anchor="middle" x="559" y="-7.5" font-family="Helvetica,sans-Serif" font-size="10.00">/src/DataInterpreterVSD.cxx</text>
</a>
</g>
</g>
<!-- Node1&#45;&gt;Node5 -->
<g id="edge4" class="edge"><title>Node1&#45;&gt;Node5</title>
<path fill="none" stroke="midnightblue" d="M604.163,-81.7546C596.024,-71.9771 587.475,-61.7073 580.032,-52.7655"/>
<polygon fill="midnightblue" stroke="midnightblue" points="601.486,-84.0093 610.574,-89.4557 606.866,-79.5308 601.486,-84.0093"/>
</g>
<!-- Node6 -->
<g id="node6" class="node"><title>Node6</title>
<g id="a_node6"><a xlink:href="../../dd/d21/EventManager_8cxx.html" target="_top" xlink:title="/home/travis/build\l/AliceO2Group/AliceO2\l/EventVisualisation/View\l/src/EventManager.cxx">
<polygon fill="none" stroke="black" points="650.5,-0.5 650.5,-52.5 775.5,-52.5 775.5,-0.5 650.5,-0.5"/>
<text text-anchor="start" x="658.5" y="-40.5" font-family="Helvetica,sans-Serif" font-size="10.00">/home/travis/build</text>
<text text-anchor="start" x="658.5" y="-29.5" font-family="Helvetica,sans-Serif" font-size="10.00">/AliceO2Group/AliceO2</text>
<text text-anchor="start" x="658.5" y="-18.5" font-family="Helvetica,sans-Serif" font-size="10.00">/EventVisualisation/View</text>
<text text-anchor="middle" x="713" y="-7.5" font-family="Helvetica,sans-Serif" font-size="10.00">/src/EventManager.cxx</text>
</a>
</g>
</g>
<!-- Node1&#45;&gt;Node6 -->
<g id="edge5" class="edge"><title>Node1&#45;&gt;Node6</title>
<path fill="none" stroke="midnightblue" d="M667.837,-81.7546C675.976,-71.9771 684.525,-61.7073 691.968,-52.7655"/>
<polygon fill="midnightblue" stroke="midnightblue" points="665.134,-79.5308 661.426,-89.4557 670.514,-84.0093 665.134,-79.5308"/>
</g>
<!-- Node7 -->
<g id="node7" class="node"><title>Node7</title>
<g id="a_node7"><a xlink:href="../../df/d2a/Initializer_8cxx.html" target="_top" xlink:title="/home/travis/build\l/AliceO2Group/AliceO2\l/EventVisualisation/View\l/src/Initializer.cxx">
<polygon fill="none" stroke="black" points="793.5,-0.5 793.5,-52.5 918.5,-52.5 918.5,-0.5 793.5,-0.5"/>
<text text-anchor="start" x="801.5" y="-40.5" font-family="Helvetica,sans-Serif" font-size="10.00">/home/travis/build</text>
<text text-anchor="start" x="801.5" y="-29.5" font-family="Helvetica,sans-Serif" font-size="10.00">/AliceO2Group/AliceO2</text>
<text text-anchor="start" x="801.5" y="-18.5" font-family="Helvetica,sans-Serif" font-size="10.00">/EventVisualisation/View</text>
<text text-anchor="middle" x="856" y="-7.5" font-family="Helvetica,sans-Serif" font-size="10.00">/src/Initializer.cxx</text>
</a>
</g>
</g>
<!-- Node1&#45;&gt;Node7 -->
<g id="edge6" class="edge"><title>Node1&#45;&gt;Node7</title>
<path fill="none" stroke="midnightblue" d="M718.092,-85.484C744.035,-74.576 772.196,-62.7356 796.266,-52.6152"/>
<polygon fill="midnightblue" stroke="midnightblue" points="716.508,-82.3533 708.646,-89.4557 719.221,-88.8062 716.508,-82.3533"/>
</g>
<!-- Node8 -->
<g id="node8" class="node"><title>Node8</title>
<g id="a_node8"><a xlink:href="../../d5/d40/main_8cxx.html" target="_top" xlink:title="/home/travis/build\l/AliceO2Group/AliceO2\l/EventVisualisation/View\l/src/main.cxx">
<polygon fill="none" stroke="black" points="936.5,-0.5 936.5,-52.5 1061.5,-52.5 1061.5,-0.5 936.5,-0.5"/>
<text text-anchor="start" x="944.5" y="-40.5" font-family="Helvetica,sans-Serif" font-size="10.00">/home/travis/build</text>
<text text-anchor="start" x="944.5" y="-29.5" font-family="Helvetica,sans-Serif" font-size="10.00">/AliceO2Group/AliceO2</text>
<text text-anchor="start" x="944.5" y="-18.5" font-family="Helvetica,sans-Serif" font-size="10.00">/EventVisualisation/View</text>
<text text-anchor="middle" x="999" y="-7.5" font-family="Helvetica,sans-Serif" font-size="10.00">/src/main.cxx</text>
</a>
</g>
</g>
<!-- Node1&#45;&gt;Node8 -->
<g id="edge7" class="edge"><title>Node1&#45;&gt;Node8</title>
<path fill="none" stroke="midnightblue" d="M724.644,-102.533C782.896,-90.3523 860.53,-72.78 928,-53 930.765,-52.1894 933.579,-51.3298 936.414,-50.4356"/>
<polygon fill="midnightblue" stroke="midnightblue" points="723.813,-99.1309 714.735,-104.592 725.238,-105.984 723.813,-99.1309"/>
</g>
<!-- Node9 -->
<g id="node9" class="node"><title>Node9</title>
<g id="a_node9"><a xlink:href="../../da/d7a/MultiView_8cxx.html" target="_top" xlink:title="/home/travis/build\l/AliceO2Group/AliceO2\l/EventVisualisation/View\l/src/MultiView.cxx">
<polygon fill="none" stroke="black" points="1079.5,-0.5 1079.5,-52.5 1204.5,-52.5 1204.5,-0.5 1079.5,-0.5"/>
<text text-anchor="start" x="1087.5" y="-40.5" font-family="Helvetica,sans-Serif" font-size="10.00">/home/travis/build</text>
<text text-anchor="start" x="1087.5" y="-29.5" font-family="Helvetica,sans-Serif" font-size="10.00">/AliceO2Group/AliceO2</text>
<text text-anchor="start" x="1087.5" y="-18.5" font-family="Helvetica,sans-Serif" font-size="10.00">/EventVisualisation/View</text>
<text text-anchor="middle" x="1142" y="-7.5" font-family="Helvetica,sans-Serif" font-size="10.00">/src/MultiView.cxx</text>
</a>
</g>
</g>
<!-- Node1&#45;&gt;Node9 -->
<g id="edge8" class="edge"><title>Node1&#45;&gt;Node9</title>
<path fill="none" stroke="midnightblue" d="M724.715,-111.384C813.333,-101.602 952.982,-82.986 1071,-53 1073.79,-52.2904 1076.63,-51.5145 1079.48,-50.6889"/>
<polygon fill="midnightblue" stroke="midnightblue" points="724.263,-107.913 714.701,-112.476 725.021,-114.872 724.263,-107.913"/>
</g>
</g>
</svg>
