<?xml version="1.0" encoding="UTF-8" standalone="no"?>
<!DOCTYPE svg PUBLIC "-//W3C//DTD SVG 1.1//EN"
 "http://www.w3.org/Graphics/SVG/1.1/DTD/svg11.dtd">
<!-- Generated by graphviz version 2.38.0 (20140413.2041)
 -->
<!-- Title: o2::framework::Output Pages: 1 -->
<svg width="669pt" height="788pt"
 viewBox="0.00 0.00 668.50 788.00" xmlns="http://www.w3.org/2000/svg" xmlns:xlink="http://www.w3.org/1999/xlink">
<g id="graph0" class="graph" transform="scale(1 1) rotate(0) translate(4 784)">
<title>o2::framework::Output</title>
<!-- Node1 -->
<g id="node1" class="node"><title>Node1</title>
<polygon fill="#bfbfbf" stroke="black" points="194.5,-0.5 194.5,-112.5 308.5,-112.5 308.5,-0.5 194.5,-0.5"/>
<text text-anchor="middle" x="251.5" y="-100.5" font-family="Helvetica,sans-Serif" font-size="10.00">o2::framework::Output</text>
<polyline fill="none" stroke="black" points="194.5,-93.5 308.5,-93.5 "/>
<text text-anchor="middle" x="251.5" y="-81.5" font-family="Helvetica,sans-Serif" font-size="10.00"> </text>
<polyline fill="none" stroke="black" points="194.5,-74.5 308.5,-74.5 "/>
<text text-anchor="start" x="202.5" y="-62.5" font-family="Helvetica,sans-Serif" font-size="10.00">+ Output()</text>
<text text-anchor="start" x="202.5" y="-51.5" font-family="Helvetica,sans-Serif" font-size="10.00">+ Output()</text>
<text text-anchor="start" x="202.5" y="-40.5" font-family="Helvetica,sans-Serif" font-size="10.00">+ Output()</text>
<text text-anchor="start" x="202.5" y="-29.5" font-family="Helvetica,sans-Serif" font-size="10.00">+ Output()</text>
<text text-anchor="start" x="202.5" y="-18.5" font-family="Helvetica,sans-Serif" font-size="10.00">+ Output()</text>
<text text-anchor="start" x="202.5" y="-7.5" font-family="Helvetica,sans-Serif" font-size="10.00">+ operator==()</text>
</g>
<!-- Node2 -->
<g id="node2" class="node"><title>Node2</title>
<polygon fill="none" stroke="#bfbfbf" points="0,-243 0,-300 51,-300 51,-243 0,-243"/>
<text text-anchor="middle" x="25.5" y="-288" font-family="Helvetica,sans-Serif" font-size="10.00">uint32_t</text>
<polyline fill="none" stroke="#bfbfbf" points="0,-281 51,-281 "/>
<text text-anchor="middle" x="25.5" y="-269" font-family="Helvetica,sans-Serif" font-size="10.00"> </text>
<polyline fill="none" stroke="#bfbfbf" points="0,-262 51,-262 "/>
<text text-anchor="middle" x="25.5" y="-250" font-family="Helvetica,sans-Serif" font-size="10.00"> </text>
</g>
<!-- Node2&#45;&gt;Node1 -->
<g id="edge1" class="edge"><title>Node2&#45;&gt;Node1</title>
<path fill="none" stroke="#404040" d="M28.0958,-242.738C31.6358,-218.537 39.9649,-183.695 59.5,-160 91.3579,-121.358 141.693,-95.2538 182.833,-79.0626"/>
<polygon fill="none" stroke="#404040" points="182.952,-79.0176 187.141,-73.1477 194.17,-74.7566 189.981,-80.6264 182.952,-79.0176"/>
<text text-anchor="middle" x="113.5" y="-134" font-family="Helvetica,sans-Serif" font-size="10.00"> +subSpec</text>
</g>
<!-- Node3 -->
<g id="node3" class="node"><title>Node3</title>
<g id="a_node3"><a xlink:href="../../d9/db3/structo2_1_1header_1_1Descriptor.html" target="_top" xlink:title="{o2::header::Descriptor\l\&lt; gSizeDataOriginString,\l printDataOrigin \&gt;\n||+ Descriptor()\l+ Descriptor()\l+ Descriptor()\l+ Descriptor()\l+ operator=()\l+ operator ItgType()\l+ runtimeInit()\l+ operator==()\l+ operator==()\l+ operator\&lt;()\l+ operator!=()\l+ operator!=()\l+ as()\l+ print()\l}">
<polygon fill="none" stroke="black" points="69,-160.5 69,-382.5 194,-382.5 194,-160.5 69,-160.5"/>
<text text-anchor="start" x="77" y="-370.5" font-family="Helvetica,sans-Serif" font-size="10.00">o2::header::Descriptor</text>
<text text-anchor="start" x="77" y="-359.5" font-family="Helvetica,sans-Serif" font-size="10.00">&lt; gSizeDataOriginString,</text>
<text text-anchor="middle" x="131.5" y="-348.5" font-family="Helvetica,sans-Serif" font-size="10.00"> printDataOrigin &gt;</text>
<polyline fill="none" stroke="black" points="69,-341.5 194,-341.5 "/>
<text text-anchor="middle" x="131.5" y="-329.5" font-family="Helvetica,sans-Serif" font-size="10.00"> </text>
<polyline fill="none" stroke="black" points="69,-322.5 194,-322.5 "/>
<text text-anchor="start" x="77" y="-310.5" font-family="Helvetica,sans-Serif" font-size="10.00">+ Descriptor()</text>
<text text-anchor="start" x="77" y="-299.5" font-family="Helvetica,sans-Serif" font-size="10.00">+ Descriptor()</text>
<text text-anchor="start" x="77" y="-288.5" font-family="Helvetica,sans-Serif" font-size="10.00">+ Descriptor()</text>
<text text-anchor="start" x="77" y="-277.5" font-family="Helvetica,sans-Serif" font-size="10.00">+ Descriptor()</text>
<text text-anchor="start" x="77" y="-266.5" font-family="Helvetica,sans-Serif" font-size="10.00">+ operator=()</text>
<text text-anchor="start" x="77" y="-255.5" font-family="Helvetica,sans-Serif" font-size="10.00">+ operator ItgType()</text>
<text text-anchor="start" x="77" y="-244.5" font-family="Helvetica,sans-Serif" font-size="10.00">+ runtimeInit()</text>
<text text-anchor="start" x="77" y="-233.5" font-family="Helvetica,sans-Serif" font-size="10.00">+ operator==()</text>
<text text-anchor="start" x="77" y="-222.5" font-family="Helvetica,sans-Serif" font-size="10.00">+ operator==()</text>
<text text-anchor="start" x="77" y="-211.5" font-family="Helvetica,sans-Serif" font-size="10.00">+ operator&lt;()</text>
<text text-anchor="start" x="77" y="-200.5" font-family="Helvetica,sans-Serif" font-size="10.00">+ operator!=()</text>
<text text-anchor="start" x="77" y="-189.5" font-family="Helvetica,sans-Serif" font-size="10.00">+ operator!=()</text>
<text text-anchor="start" x="77" y="-178.5" font-family="Helvetica,sans-Serif" font-size="10.00">+ as()</text>
<text text-anchor="start" x="77" y="-167.5" font-family="Helvetica,sans-Serif" font-size="10.00">+ print()</text>
</a>
</g>
</g>
<!-- Node3&#45;&gt;Node1 -->
<g id="edge2" class="edge"><title>Node3&#45;&gt;Node1</title>
<path fill="none" stroke="#404040" d="M193.609,-160.257C200.746,-147.588 207.843,-134.991 214.496,-123.182"/>
<polygon fill="none" stroke="#404040" points="214.579,-123.035 214.039,-115.844 220.469,-112.58 221.009,-119.771 214.579,-123.035"/>
<text text-anchor="middle" x="226" y="-134" font-family="Helvetica,sans-Serif" font-size="10.00"> +origin</text>
</g>
<!-- Node4 -->
<g id="node4" class="node"><title>Node4</title>
<polygon fill="none" stroke="#bfbfbf" points="89.5,-722.5 89.5,-779.5 127.5,-779.5 127.5,-722.5 89.5,-722.5"/>
<text text-anchor="middle" x="108.5" y="-767.5" font-family="Helvetica,sans-Serif" font-size="10.00">Type</text>
<polyline fill="none" stroke="#bfbfbf" points="89.5,-760.5 127.5,-760.5 "/>
<text text-anchor="middle" x="108.5" y="-748.5" font-family="Helvetica,sans-Serif" font-size="10.00"> </text>
<polyline fill="none" stroke="#bfbfbf" points="89.5,-741.5 127.5,-741.5 "/>
<text text-anchor="middle" x="108.5" y="-729.5" font-family="Helvetica,sans-Serif" font-size="10.00"> </text>
</g>
<!-- Node4&#45;&gt;Node3 -->
<g id="edge3" class="edge"><title>Node4&#45;&gt;Node3</title>
<path fill="none" stroke="#404040" d="M89.4391,-728.309C74.4871,-709.754 54.8546,-681.584 46.5,-653 20.0662,-562.562 24.6892,-532.663 46.5,-441 50.6063,-423.743 56.7775,-406.248 63.9565,-389.389"/>
<polygon fill="none" stroke="#404040" points="63.9575,-389.387 62.7242,-382.282 68.8082,-378.411 70.0415,-385.516 63.9575,-389.387"/>
<text text-anchor="middle" x="56.5" y="-544.5" font-family="Helvetica,sans-Serif" font-size="10.00"> +itg</text>
</g>
<!-- Node8 -->
<g id="node8" class="node"><title>Node8</title>
<g id="a_node8"><a xlink:href="../../d9/db3/structo2_1_1header_1_1Descriptor.html" target="_top" xlink:title="{o2::header::Descriptor\l\&lt; N, PrinterPolicy \&gt;\n||+ Descriptor()\l+ Descriptor()\l+ Descriptor()\l+ operator=()\l+ operator ItgType()\l+ Descriptor()\l+ runtimeInit()\l+ operator==()\l+ operator\&lt;()\l+ operator!=()\l+ operator==()\l+ operator!=()\l+ as()\l+ print()\l}">
<polygon fill="none" stroke="black" points="241,-441.5 241,-652.5 354,-652.5 354,-441.5 241,-441.5"/>
<text text-anchor="start" x="249" y="-640.5" font-family="Helvetica,sans-Serif" font-size="10.00">o2::header::Descriptor</text>
<text text-anchor="middle" x="297.5" y="-629.5" font-family="Helvetica,sans-Serif" font-size="10.00">&lt; N, PrinterPolicy &gt;</text>
<polyline fill="none" stroke="black" points="241,-622.5 354,-622.5 "/>
<text text-anchor="middle" x="297.5" y="-610.5" font-family="Helvetica,sans-Serif" font-size="10.00"> </text>
<polyline fill="none" stroke="black" points="241,-603.5 354,-603.5 "/>
<text text-anchor="start" x="249" y="-591.5" font-family="Helvetica,sans-Serif" font-size="10.00">+ Descriptor()</text>
<text text-anchor="start" x="249" y="-580.5" font-family="Helvetica,sans-Serif" font-size="10.00">+ Descriptor()</text>
<text text-anchor="start" x="249" y="-569.5" font-family="Helvetica,sans-Serif" font-size="10.00">+ Descriptor()</text>
<text text-anchor="start" x="249" y="-558.5" font-family="Helvetica,sans-Serif" font-size="10.00">+ operator=()</text>
<text text-anchor="start" x="249" y="-547.5" font-family="Helvetica,sans-Serif" font-size="10.00">+ operator ItgType()</text>
<text text-anchor="start" x="249" y="-536.5" font-family="Helvetica,sans-Serif" font-size="10.00">+ Descriptor()</text>
<text text-anchor="start" x="249" y="-525.5" font-family="Helvetica,sans-Serif" font-size="10.00">+ runtimeInit()</text>
<text text-anchor="start" x="249" y="-514.5" font-family="Helvetica,sans-Serif" font-size="10.00">+ operator==()</text>
<text text-anchor="start" x="249" y="-503.5" font-family="Helvetica,sans-Serif" font-size="10.00">+ operator&lt;()</text>
<text text-anchor="start" x="249" y="-492.5" font-family="Helvetica,sans-Serif" font-size="10.00">+ operator!=()</text>
<text text-anchor="start" x="249" y="-481.5" font-family="Helvetica,sans-Serif" font-size="10.00">+ operator==()</text>
<text text-anchor="start" x="249" y="-470.5" font-family="Helvetica,sans-Serif" font-size="10.00">+ operator!=()</text>
<text text-anchor="start" x="249" y="-459.5" font-family="Helvetica,sans-Serif" font-size="10.00">+ as()</text>
<text text-anchor="start" x="249" y="-448.5" font-family="Helvetica,sans-Serif" font-size="10.00">+ print()</text>
</a>
</g>
</g>
<!-- Node4&#45;&gt;Node8 -->
<g id="edge8" class="edge"><title>Node4&#45;&gt;Node8</title>
<path fill="none" stroke="#404040" d="M127.822,-731.102C145.318,-714.424 172.159,-689.896 197.5,-671 209.661,-661.932 215.566,-663.515 226.5,-653 228.686,-650.898 230.842,-648.718 232.966,-646.474"/>
<polygon fill="none" stroke="#404040" points="232.972,-646.467 234.003,-639.33 240.988,-637.537 239.957,-644.674 232.972,-646.467"/>
<text text-anchor="middle" x="207.5" y="-685" font-family="Helvetica,sans-Serif" font-size="10.00"> +itg</text>
</g>
<!-- Node10 -->
<g id="node10" class="node"><title>Node10</title>
<g id="a_node10"><a xlink:href="../../d9/db3/structo2_1_1header_1_1Descriptor.html" target="_top" xlink:title="{o2::header::Descriptor\l\&lt; gSizeDataDescriptionString,\l printDataDescription \&gt;\n||+ Descriptor()\l+ Descriptor()\l+ Descriptor()\l+ Descriptor()\l+ operator=()\l+ operator ItgType()\l+ runtimeInit()\l+ operator==()\l+ operator==()\l+ operator\&lt;()\l+ operator!=()\l+ operator!=()\l+ as()\l+ print()\l}">
<polygon fill="none" stroke="black" points="309,-160.5 309,-382.5 458,-382.5 458,-160.5 309,-160.5"/>
<text text-anchor="start" x="317" y="-370.5" font-family="Helvetica,sans-Serif" font-size="10.00">o2::header::Descriptor</text>
<text text-anchor="start" x="317" y="-359.5" font-family="Helvetica,sans-Serif" font-size="10.00">&lt; gSizeDataDescriptionString,</text>
<text text-anchor="middle" x="383.5" y="-348.5" font-family="Helvetica,sans-Serif" font-size="10.00"> printDataDescription &gt;</text>
<polyline fill="none" stroke="black" points="309,-341.5 458,-341.5 "/>
<text text-anchor="middle" x="383.5" y="-329.5" font-family="Helvetica,sans-Serif" font-size="10.00"> </text>
<polyline fill="none" stroke="black" points="309,-322.5 458,-322.5 "/>
<text text-anchor="start" x="317" y="-310.5" font-family="Helvetica,sans-Serif" font-size="10.00">+ Descriptor()</text>
<text text-anchor="start" x="317" y="-299.5" font-family="Helvetica,sans-Serif" font-size="10.00">+ Descriptor()</text>
<text text-anchor="start" x="317" y="-288.5" font-family="Helvetica,sans-Serif" font-size="10.00">+ Descriptor()</text>
<text text-anchor="start" x="317" y="-277.5" font-family="Helvetica,sans-Serif" font-size="10.00">+ Descriptor()</text>
<text text-anchor="start" x="317" y="-266.5" font-family="Helvetica,sans-Serif" font-size="10.00">+ operator=()</text>
<text text-anchor="start" x="317" y="-255.5" font-family="Helvetica,sans-Serif" font-size="10.00">+ operator ItgType()</text>
<text text-anchor="start" x="317" y="-244.5" font-family="Helvetica,sans-Serif" font-size="10.00">+ runtimeInit()</text>
<text text-anchor="start" x="317" y="-233.5" font-family="Helvetica,sans-Serif" font-size="10.00">+ operator==()</text>
<text text-anchor="start" x="317" y="-222.5" font-family="Helvetica,sans-Serif" font-size="10.00">+ operator==()</text>
<text text-anchor="start" x="317" y="-211.5" font-family="Helvetica,sans-Serif" font-size="10.00">+ operator&lt;()</text>
<text text-anchor="start" x="317" y="-200.5" font-family="Helvetica,sans-Serif" font-size="10.00">+ operator!=()</text>
<text text-anchor="start" x="317" y="-189.5" font-family="Helvetica,sans-Serif" font-size="10.00">+ operator!=()</text>
<text text-anchor="start" x="317" y="-178.5" font-family="Helvetica,sans-Serif" font-size="10.00">+ as()</text>
<text text-anchor="start" x="317" y="-167.5" font-family="Helvetica,sans-Serif" font-size="10.00">+ print()</text>
</a>
</g>
</g>
<!-- Node4&#45;&gt;Node10 -->
<g id="edge14" class="edge"><title>Node4&#45;&gt;Node10</title>
<path fill="none" stroke="#404040" d="M112.876,-722.314C124.666,-648.412 156.851,-451.383 166.5,-441 187.782,-418.099 206.52,-436.946 234.5,-423 248.664,-415.94 249.086,-409.398 262.5,-401 278,-391.296 285.359,-394.595 299.5,-383 299.599,-382.919 299.698,-382.838 299.797,-382.756"/>
<polygon fill="none" stroke="#404040" points="299.828,-382.729 301.697,-375.764 308.845,-374.811 306.976,-381.776 299.828,-382.729"/>
<text text-anchor="middle" x="176.5" y="-544.5" font-family="Helvetica,sans-Serif" font-size="10.00"> +itg</text>
</g>
<!-- Node5 -->
<g id="node5" class="node"><title>Node5</title>
<polygon fill="none" stroke="#bfbfbf" points="184,-722.5 184,-779.5 219,-779.5 219,-722.5 184,-722.5"/>
<text text-anchor="middle" x="201.5" y="-767.5" font-family="Helvetica,sans-Serif" font-size="10.00">char</text>
<polyline fill="none" stroke="#bfbfbf" points="184,-760.5 219,-760.5 "/>
<text text-anchor="middle" x="201.5" y="-748.5" font-family="Helvetica,sans-Serif" font-size="10.00"> </text>
<polyline fill="none" stroke="#bfbfbf" points="184,-741.5 219,-741.5 "/>
<text text-anchor="middle" x="201.5" y="-729.5" font-family="Helvetica,sans-Serif" font-size="10.00"> </text>
</g>
<!-- Node5&#45;&gt;Node3 -->
<g id="edge4" class="edge"><title>Node5&#45;&gt;Node3</title>
<path fill="none" stroke="#404040" d="M194.034,-722.291C188.104,-705.257 178.152,-684.233 162.5,-671 141.239,-653.025 119.119,-675.336 102.5,-653 72.9359,-613.265 87.7969,-490.154 105.275,-394.611"/>
<polygon fill="none" stroke="#404040" points="105.276,-394.605 102.442,-387.974 107.473,-382.808 110.307,-389.439 105.276,-394.605"/>
<text text-anchor="middle" x="113" y="-544.5" font-family="Helvetica,sans-Serif" font-size="10.00"> +str</text>
</g>
<!-- Node5&#45;&gt;Node8 -->
<g id="edge9" class="edge"><title>Node5&#45;&gt;Node8</title>
<path fill="none" stroke="#404040" d="M212.897,-722.398C219.315,-707.145 227.607,-687.913 235.5,-671 236.63,-668.579 237.779,-666.135 238.944,-663.675"/>
<polygon fill="none" stroke="#404040" points="238.965,-663.631 237.944,-656.492 244.14,-652.804 245.162,-659.942 238.965,-663.631"/>
<text text-anchor="middle" x="246" y="-685" font-family="Helvetica,sans-Serif" font-size="10.00"> +str</text>
</g>
<!-- Node5&#45;&gt;Node10 -->
<g id="edge15" class="edge"><title>Node5&#45;&gt;Node10</title>
<path fill="none" stroke="#404040" d="M198.453,-722.393C191.623,-655.144 178.102,-485.125 210.5,-441 224.974,-421.287 242.027,-436.378 262.5,-423 276.05,-414.146 288.793,-403.278 300.552,-391.471"/>
<polygon fill="none" stroke="#404040" points="300.633,-391.386 301.897,-384.287 308.937,-382.724 307.673,-389.823 300.633,-391.386"/>
<text text-anchor="middle" x="221" y="-544.5" font-family="Helvetica,sans-Serif" font-size="10.00"> +str</text>
</g>
<!-- Node6 -->
<g id="node6" class="node"><title>Node6</title>
<polygon fill="none" stroke="#bfbfbf" points="383,-722.5 383,-779.5 412,-779.5 412,-722.5 383,-722.5"/>
<text text-anchor="middle" x="397.5" y="-767.5" font-family="Helvetica,sans-Serif" font-size="10.00">int</text>
<polyline fill="none" stroke="#bfbfbf" points="383,-760.5 412,-760.5 "/>
<text text-anchor="middle" x="397.5" y="-748.5" font-family="Helvetica,sans-Serif" font-size="10.00"> </text>
<polyline fill="none" stroke="#bfbfbf" points="383,-741.5 412,-741.5 "/>
<text text-anchor="middle" x="397.5" y="-729.5" font-family="Helvetica,sans-Serif" font-size="10.00"> </text>
</g>
<!-- Node6&#45;&gt;Node3 -->
<g id="edge5" class="edge"><title>Node6&#45;&gt;Node3</title>
<path fill="none" stroke="#404040" d="M397.713,-722.481C397.716,-655.431 394.478,-485.833 362.5,-441 338.488,-407.336 317.483,-414.789 278.5,-401 246.182,-389.569 231.51,-402.762 203.5,-383 203.398,-382.928 203.295,-382.855 203.193,-382.783"/>
<polygon fill="none" stroke="#404040" points="203.416,-382.96 196.229,-382.368 194.011,-375.507 201.198,-376.098 203.416,-382.96"/>
<text text-anchor="middle" x="422" y="-555.5" font-family="Helvetica,sans-Serif" font-size="10.00"> +arraySize</text>
<text text-anchor="middle" x="422" y="-544.5" font-family="Helvetica,sans-Serif" font-size="10.00">+size</text>
<text text-anchor="middle" x="422" y="-533.5" font-family="Helvetica,sans-Serif" font-size="10.00">+bitcount</text>
</g>
<!-- Node6&#45;&gt;Node8 -->
<g id="edge10" class="edge"><title>Node6&#45;&gt;Node8</title>
<path fill="none" stroke="#404040" d="M382.715,-749.282C356.654,-747.123 303.073,-738.49 279.5,-704 271.528,-692.336 267.521,-679.002 266.201,-665.152"/>
<polygon fill="none" stroke="#404040" points="266.189,-664.867 261.948,-659.036 265.7,-652.877 269.941,-658.709 266.189,-664.867"/>
<text text-anchor="middle" x="305" y="-696" font-family="Helvetica,sans-Serif" font-size="10.00"> +arraySize</text>
<text text-anchor="middle" x="305" y="-685" font-family="Helvetica,sans-Serif" font-size="10.00">+size</text>
<text text-anchor="middle" x="305" y="-674" font-family="Helvetica,sans-Serif" font-size="10.00">+bitcount</text>
</g>
<!-- Node6&#45;&gt;Node10 -->
<g id="edge16" class="edge"><title>Node6&#45;&gt;Node10</title>
<path fill="none" stroke="#404040" d="M412.251,-730.777C414.88,-727.729 417.682,-724.696 420.5,-722 457.43,-686.666 489.642,-698.715 512.5,-653 554.637,-568.725 541.571,-530.625 512.5,-441 505.725,-420.113 497.256,-418.116 483.5,-401 476.795,-392.657 474.299,-391.267 467.5,-383 466.912,-382.285 466.322,-381.566 465.731,-380.844"/>
<polygon fill="none" stroke="#404040" points="465.556,-380.627 458.671,-378.482 458.003,-371.302 464.888,-373.447 465.556,-380.627"/>
<text text-anchor="middle" x="565" y="-555.5" font-family="Helvetica,sans-Serif" font-size="10.00"> +arraySize</text>
<text text-anchor="middle" x="565" y="-544.5" font-family="Helvetica,sans-Serif" font-size="10.00">+size</text>
<text text-anchor="middle" x="565" y="-533.5" font-family="Helvetica,sans-Serif" font-size="10.00">+bitcount</text>
</g>
<!-- Node7 -->
<g id="node7" class="node"><title>Node7</title>
<polygon fill="none" stroke="#bfbfbf" points="430,-722.5 430,-779.5 527,-779.5 527,-722.5 430,-722.5"/>
<text text-anchor="middle" x="478.5" y="-767.5" font-family="Helvetica,sans-Serif" font-size="10.00">anonymous:+@24</text>
<polyline fill="none" stroke="#bfbfbf" points="430,-760.5 527,-760.5 "/>
<text text-anchor="middle" x="478.5" y="-748.5" font-family="Helvetica,sans-Serif" font-size="10.00"> </text>
<polyline fill="none" stroke="#bfbfbf" points="430,-741.5 527,-741.5 "/>
<text text-anchor="middle" x="478.5" y="-729.5" font-family="Helvetica,sans-Serif" font-size="10.00"> </text>
</g>
<!-- Node7&#45;&gt;Node3 -->
<g id="edge6" class="edge"><title>Node7&#45;&gt;Node3</title>
<path fill="none" stroke="#404040" d="M477.911,-722.426C476.125,-650.636 469.731,-462.033 451.5,-441 428.481,-414.443 407.752,-434.379 374.5,-423 352.297,-415.402 349.004,-407.655 326.5,-401 276.934,-386.342 253.185,-409.423 204.46,-382.436"/>
<polygon fill="none" stroke="#404040" points="204.283,-382.329 197.079,-382.645 194.017,-376.116 201.221,-375.801 204.283,-382.329"/>
<text text-anchor="middle" x="491" y="-544.5" font-family="Helvetica,sans-Serif" font-size="10.00"> +@24</text>
</g>
<!-- Node7&#45;&gt;Node8 -->
<g id="edge11" class="edge"><title>Node7&#45;&gt;Node8</title>
<path fill="none" stroke="#404040" d="M442.716,-722.364C420.114,-703.996 391.032,-678.62 368.5,-653 366.218,-650.405 363.949,-647.734 361.699,-645.004"/>
<polygon fill="none" stroke="#404040" points="361.624,-644.91 354.755,-642.716 354.138,-635.531 361.007,-637.725 361.624,-644.91"/>
<text text-anchor="middle" x="436" y="-685" font-family="Helvetica,sans-Serif" font-size="10.00"> +@24</text>
</g>
<!-- Node7&#45;&gt;Node10 -->
<g id="edge17" class="edge"><title>Node7&#45;&gt;Node10</title>
<path fill="none" stroke="#404040" d="M527.025,-723.546C552.176,-706.933 580.495,-682.967 594.5,-653 634.393,-567.64 645.339,-520.33 594.5,-441 577.759,-414.878 491.784,-402.311 467.5,-383 467.4,-382.92 467.3,-382.84 467.2,-382.761"/>
<polygon fill="none" stroke="#404040" points="467.172,-382.737 460.013,-381.876 458.054,-374.936 465.213,-375.797 467.172,-382.737"/>
<text text-anchor="middle" x="645" y="-544.5" font-family="Helvetica,sans-Serif" font-size="10.00"> +@24</text>
</g>
<!-- Node8&#45;&gt;Node3 -->
<g id="edge7" class="edge"><title>Node8&#45;&gt;Node3</title>
<path fill="none" stroke="orange" d="M232.88,-446.04C230.799,-444.281 228.672,-442.597 226.5,-441 204.067,-424.511 185.557,-443.296 166.5,-423 155.758,-411.56 148.098,-397.489 142.672,-382.587"/>
<polygon fill="orange" stroke="orange" points="230.937,-449.007 240.677,-453.177 235.663,-443.843 230.937,-449.007"/>
<text text-anchor="start" x="166.5" y="-415" font-family="Helvetica,sans-Serif" font-size="10.00"> &lt; gSizeDataOriginString,</text>
<text text-anchor="middle" x="222.5" y="-404" font-family="Helvetica,sans-Serif" font-size="10.00"> printDataOrigin &gt;</text>
</g>
<!-- Node8&#45;&gt;Node10 -->
<g id="edge18" class="edge"><title>Node8&#45;&gt;Node10</title>
<path fill="none" stroke="orange" d="M333.508,-431.485C338.563,-415.41 343.75,-398.914 348.78,-382.918"/>
<polygon fill="orange" stroke="orange" points="330.042,-430.841 330.381,-441.431 336.72,-432.941 330.042,-430.841"/>
<text text-anchor="start" x="343.5" y="-415" font-family="Helvetica,sans-Serif" font-size="10.00"> &lt; gSizeDataDescriptionString,</text>
<text text-anchor="middle" x="411.5" y="-404" font-family="Helvetica,sans-Serif" font-size="10.00"> printDataDescription &gt;</text>
</g>
<!-- Node9 -->
<g id="node9" class="node"><title>Node9</title>
<polygon fill="none" stroke="#bfbfbf" points="212.5,-243 212.5,-300 290.5,-300 290.5,-243 212.5,-243"/>
<text text-anchor="middle" x="251.5" y="-288" font-family="Helvetica,sans-Serif" font-size="10.00">enum Lifetime</text>
<polyline fill="none" stroke="#bfbfbf" points="212.5,-281 290.5,-281 "/>
<text text-anchor="middle" x="251.5" y="-269" font-family="Helvetica,sans-Serif" font-size="10.00"> </text>
<polyline fill="none" stroke="#bfbfbf" points="212.5,-262 290.5,-262 "/>
<text text-anchor="middle" x="251.5" y="-250" font-family="Helvetica,sans-Serif" font-size="10.00"> </text>
</g>
<!-- Node9&#45;&gt;Node1 -->
<g id="edge12" class="edge"><title>Node9&#45;&gt;Node1</title>
<path fill="none" stroke="#404040" d="M251.5,-242.654C251.5,-212.915 251.5,-164.69 251.5,-124.912"/>
<polygon fill="none" stroke="#404040" points="251.5,-124.868 247.5,-118.868 251.5,-112.868 255.5,-118.868 251.5,-124.868"/>
<text text-anchor="middle" x="272" y="-134" font-family="Helvetica,sans-Serif" font-size="10.00"> +lifetime</text>
</g>
<!-- Node10&#45;&gt;Node1 -->
<g id="edge13" class="edge"><title>Node10&#45;&gt;Node1</title>
<path fill="none" stroke="#404040" d="M315.18,-160.257C307.249,-147.459 299.363,-134.734 291.981,-122.821"/>
<polygon fill="none" stroke="#404040" points="291.955,-122.78 285.395,-119.787 285.634,-112.58 292.195,-115.573 291.955,-122.78"/>
<text text-anchor="middle" x="331" y="-134" font-family="Helvetica,sans-Serif" font-size="10.00"> +description</text>
</g>
<!-- Node11 -->
<g id="node11" class="node"><title>Node11</title>
<g id="a_node11"><a xlink:href="../../d0/d66/structo2_1_1header_1_1Stack.html" target="_top" xlink:title="a move&#45;only header stack with serialized headers This is the flat buffer where all the headers in a m...">
<polygon fill="none" stroke="black" points="476.5,-160.5 476.5,-382.5 570.5,-382.5 570.5,-160.5 476.5,-160.5"/>
<text text-anchor="middle" x="523.5" y="-370.5" font-family="Helvetica,sans-Serif" font-size="10.00">o2::header::Stack</text>
<polyline fill="none" stroke="black" points="476.5,-363.5 570.5,-363.5 "/>
<text text-anchor="middle" x="523.5" y="-351.5" font-family="Helvetica,sans-Serif" font-size="10.00"> </text>
<polyline fill="none" stroke="black" points="476.5,-344.5 570.5,-344.5 "/>
<text text-anchor="start" x="484.5" y="-332.5" font-family="Helvetica,sans-Serif" font-size="10.00">+ Stack()</text>
<text text-anchor="start" x="484.5" y="-321.5" font-family="Helvetica,sans-Serif" font-size="10.00">+ Stack()</text>
<text text-anchor="start" x="484.5" y="-310.5" font-family="Helvetica,sans-Serif" font-size="10.00">+ Stack()</text>
<text text-anchor="start" x="484.5" y="-299.5" font-family="Helvetica,sans-Serif" font-size="10.00">+ operator=()</text>
<text text-anchor="start" x="484.5" y="-288.5" font-family="Helvetica,sans-Serif" font-size="10.00">+ operator=()</text>
<text text-anchor="start" x="484.5" y="-277.5" font-family="Helvetica,sans-Serif" font-size="10.00">+ data()</text>
<text text-anchor="start" x="484.5" y="-266.5" font-family="Helvetica,sans-Serif" font-size="10.00">+ size()</text>
<text text-anchor="start" x="484.5" y="-255.5" font-family="Helvetica,sans-Serif" font-size="10.00">+ get_allocator()</text>
<text text-anchor="start" x="484.5" y="-244.5" font-family="Helvetica,sans-Serif" font-size="10.00">+ first()</text>
<text text-anchor="start" x="484.5" y="-233.5" font-family="Helvetica,sans-Serif" font-size="10.00">+ Stack()</text>
<text text-anchor="start" x="484.5" y="-222.5" font-family="Helvetica,sans-Serif" font-size="10.00">+ Stack()</text>
<text text-anchor="start" x="484.5" y="-211.5" font-family="Helvetica,sans-Serif" font-size="10.00">+ firstHeader()</text>
<text text-anchor="start" x="484.5" y="-200.5" font-family="Helvetica,sans-Serif" font-size="10.00">+ lastHeader()</text>
<text text-anchor="start" x="484.5" y="-189.5" font-family="Helvetica,sans-Serif" font-size="10.00">+ calculateSize()</text>
<text text-anchor="start" x="484.5" y="-178.5" font-family="Helvetica,sans-Serif" font-size="10.00">+ calculateSize()</text>
<text text-anchor="start" x="484.5" y="-167.5" font-family="Helvetica,sans-Serif" font-size="10.00">+ calculateSize()</text>
</a>
</g>
</g>
<!-- Node11&#45;&gt;Node1 -->
<g id="edge19" class="edge"><title>Node11&#45;&gt;Node1</title>
<path fill="none" stroke="#404040" d="M476.448,-170.847C473.303,-167.019 469.988,-163.38 466.5,-160 425.438,-120.206 366.005,-93.4955 320.028,-77.3449"/>
<polygon fill="none" stroke="#404040" points="320.006,-77.3376 313.036,-79.1872 308.648,-73.4649 315.618,-71.6153 320.006,-77.3376"/>
<text text-anchor="middle" x="474" y="-134" font-family="Helvetica,sans-Serif" font-size="10.00"> +metaHeader</text>
</g>
</g>
</svg>
