<?xml version="1.0" encoding="UTF-8" standalone="no"?>
<!DOCTYPE svg PUBLIC "-//W3C//DTD SVG 1.1//EN"
 "http://www.w3.org/Graphics/SVG/1.1/DTD/svg11.dtd">
<!-- Generated by graphviz version 2.38.0 (20140413.2041)
 -->
<!-- Title: /home/travis/build/AliceO2Group/AliceO2/Detectors/EMCAL/base/include/EMCALBase/Mapper.h Pages: 1 -->
<svg width="875pt" height="173pt"
 viewBox="0.00 0.00 875.00 173.00" xmlns="http://www.w3.org/2000/svg" xmlns:xlink="http://www.w3.org/1999/xlink">
<g id="graph0" class="graph" transform="scale(1 1) rotate(0) translate(4 169)">
<title>/home/travis/build/AliceO2Group/AliceO2/Detectors/EMCAL/base/include/EMCALBase/Mapper.h</title>
<!-- Node1 -->
<g id="node1" class="node"><title>Node1</title>
<polygon fill="#bfbfbf" stroke="black" points="314,-112.5 314,-164.5 468,-164.5 468,-112.5 314,-112.5"/>
<text text-anchor="start" x="322" y="-152.5" font-family="Helvetica,sans-Serif" font-size="10.00">/home/travis/build</text>
<text text-anchor="start" x="322" y="-141.5" font-family="Helvetica,sans-Serif" font-size="10.00">/AliceO2Group/AliceO2</text>
<text text-anchor="start" x="322" y="-130.5" font-family="Helvetica,sans-Serif" font-size="10.00">/Detectors/EMCAL/base</text>
<text text-anchor="middle" x="391" y="-119.5" font-family="Helvetica,sans-Serif" font-size="10.00">/include/EMCALBase/Mapper.h</text>
</g>
<!-- Node2 -->
<g id="node2" class="node"><title>Node2</title>
<polygon fill="none" stroke="#bfbfbf" points="0,-56.5 0,-75.5 38,-75.5 38,-56.5 0,-56.5"/>
<text text-anchor="middle" x="19" y="-63.5" font-family="Helvetica,sans-Serif" font-size="10.00">array</text>
</g>
<!-- Node1&#45;&gt;Node2 -->
<g id="edge1" class="edge"><title>Node1&#45;&gt;Node2</title>
<path fill="none" stroke="midnightblue" d="M313.872,-125.467C244.91,-114.244 141.253,-96.2268 52,-76 50.7295,-75.7121 49.4344,-75.4074 48.1282,-75.091"/>
<polygon fill="midnightblue" stroke="midnightblue" points="48.6809,-71.6193 38.1243,-72.5178 46.9371,-78.3986 48.6809,-71.6193"/>
</g>
<!-- Node3 -->
<g id="node3" class="node"><title>Node3</title>
<polygon fill="none" stroke="#bfbfbf" points="45,-0.5 45,-19.5 91,-19.5 91,-0.5 45,-0.5"/>
<text text-anchor="middle" x="68" y="-7.5" font-family="Helvetica,sans-Serif" font-size="10.00">cstdint</text>
</g>
<!-- Node1&#45;&gt;Node3 -->
<g id="edge2" class="edge"><title>Node1&#45;&gt;Node3</title>
<path fill="none" stroke="midnightblue" d="M313.784,-135.17C254.729,-130.072 173.586,-115.612 114,-76 96.6012,-64.4335 83.7139,-43.8712 76.0749,-28.9649"/>
<polygon fill="midnightblue" stroke="midnightblue" points="79.1217,-27.2244 71.6339,-19.7289 72.8131,-30.2579 79.1217,-27.2244"/>
</g>
<!-- Node4 -->
<g id="node4" class="node"><title>Node4</title>
<polygon fill="none" stroke="#bfbfbf" points="112.5,-0.5 112.5,-19.5 171.5,-19.5 171.5,-0.5 112.5,-0.5"/>
<text text-anchor="middle" x="142" y="-7.5" font-family="Helvetica,sans-Serif" font-size="10.00">exception</text>
</g>
<!-- Node1&#45;&gt;Node4 -->
<g id="edge3" class="edge"><title>Node1&#45;&gt;Node4</title>
<path fill="none" stroke="midnightblue" d="M313.911,-130.371C243.382,-122.064 146.533,-105.545 123,-76 111.944,-62.1194 120.53,-42.011 129.44,-27.8439"/>
<polygon fill="midnightblue" stroke="midnightblue" points="132.379,-29.7464 135.138,-19.5172 126.602,-25.793 132.379,-29.7464"/>
</g>
<!-- Node5 -->
<g id="node5" class="node"><title>Node5</title>
<polygon fill="none" stroke="#bfbfbf" points="390.5,-56.5 390.5,-75.5 449.5,-75.5 449.5,-56.5 390.5,-56.5"/>
<text text-anchor="middle" x="420" y="-63.5" font-family="Helvetica,sans-Serif" font-size="10.00">functional</text>
</g>
<!-- Node1&#45;&gt;Node5 -->
<g id="edge4" class="edge"><title>Node1&#45;&gt;Node5</title>
<path fill="none" stroke="midnightblue" d="M401.306,-112.446C405.015,-103.43 409.124,-93.4396 412.543,-85.1274"/>
<polygon fill="midnightblue" stroke="midnightblue" points="415.856,-86.2751 416.423,-75.6955 409.382,-83.6121 415.856,-86.2751"/>
</g>
<!-- Node6 -->
<g id="node6" class="node"><title>Node6</title>
<polygon fill="none" stroke="#bfbfbf" points="211.5,-0.5 211.5,-19.5 256.5,-19.5 256.5,-0.5 211.5,-0.5"/>
<text text-anchor="middle" x="234" y="-7.5" font-family="Helvetica,sans-Serif" font-size="10.00">iosfwd</text>
</g>
<!-- Node1&#45;&gt;Node6 -->
<g id="edge5" class="edge"><title>Node1&#45;&gt;Node6</title>
<path fill="none" stroke="midnightblue" d="M366.94,-112.266C350.299,-95.4399 327.233,-73.3165 305,-56 290.077,-44.3773 272.066,-32.9888 257.918,-24.5765"/>
<polygon fill="midnightblue" stroke="midnightblue" points="259.649,-21.5343 249.251,-19.5057 256.115,-27.5763 259.649,-21.5343"/>
</g>
<!-- Node7 -->
<g id="node7" class="node"><title>Node7</title>
<polygon fill="none" stroke="#bfbfbf" points="467.5,-56.5 467.5,-75.5 550.5,-75.5 550.5,-56.5 467.5,-56.5"/>
<text text-anchor="middle" x="509" y="-63.5" font-family="Helvetica,sans-Serif" font-size="10.00">unordered_map</text>
</g>
<!-- Node1&#45;&gt;Node7 -->
<g id="edge6" class="edge"><title>Node1&#45;&gt;Node7</title>
<path fill="none" stroke="midnightblue" d="M432.935,-112.446C450.818,-101.761 470.991,-89.709 486.066,-80.7021"/>
<polygon fill="midnightblue" stroke="midnightblue" points="487.938,-83.6605 494.728,-75.527 484.348,-77.6513 487.938,-83.6605"/>
</g>
<!-- Node8 -->
<g id="node8" class="node"><title>Node8</title>
<polygon fill="none" stroke="#bfbfbf" points="569,-56.5 569,-75.5 621,-75.5 621,-56.5 569,-56.5"/>
<text text-anchor="middle" x="595" y="-63.5" font-family="Helvetica,sans-Serif" font-size="10.00">sstream</text>
</g>
<!-- Node1&#45;&gt;Node8 -->
<g id="edge7" class="edge"><title>Node1&#45;&gt;Node8</title>
<path fill="none" stroke="midnightblue" d="M463.497,-112.446C496.602,-101.005 534.244,-87.9966 560.747,-78.8375"/>
<polygon fill="midnightblue" stroke="midnightblue" points="562.018,-82.1014 570.326,-75.527 559.731,-75.4853 562.018,-82.1014"/>
</g>
<!-- Node9 -->
<g id="node9" class="node"><title>Node9</title>
<polygon fill="none" stroke="#bfbfbf" points="639.5,-56.5 639.5,-75.5 680.5,-75.5 680.5,-56.5 639.5,-56.5"/>
<text text-anchor="middle" x="660" y="-63.5" font-family="Helvetica,sans-Serif" font-size="10.00">string</text>
</g>
<!-- Node1&#45;&gt;Node9 -->
<g id="edge8" class="edge"><title>Node1&#45;&gt;Node9</title>
<path fill="none" stroke="midnightblue" d="M468.166,-118.468C512.609,-107.312 569.738,-92.6467 629.39,-76.0876"/>
<polygon fill="midnightblue" stroke="midnightblue" points="630.681,-79.3612 639.374,-73.3047 628.802,-72.6182 630.681,-79.3612"/>
</g>
<!-- Node10 -->
<g id="node10" class="node"><title>Node10</title>
<polygon fill="none" stroke="#bfbfbf" points="699,-56.5 699,-75.5 769,-75.5 769,-56.5 699,-56.5"/>
<text text-anchor="middle" x="734" y="-63.5" font-family="Helvetica,sans-Serif" font-size="10.00">fmt/format.h</text>
</g>
<!-- Node1&#45;&gt;Node10 -->
<g id="edge9" class="edge"><title>Node1&#45;&gt;Node10</title>
<path fill="none" stroke="midnightblue" d="M468.404,-121.591C536.297,-107.636 632.686,-87.824 688.744,-76.3019"/>
<polygon fill="midnightblue" stroke="midnightblue" points="689.635,-79.692 698.726,-74.2503 688.226,-72.8353 689.635,-79.692"/>
</g>
<!-- Node11 -->
<g id="node11" class="node"><title>Node11</title>
<polygon fill="none" stroke="#bfbfbf" points="787,-56.5 787,-75.5 867,-75.5 867,-56.5 787,-56.5"/>
<text text-anchor="middle" x="827" y="-63.5" font-family="Helvetica,sans-Serif" font-size="10.00">RStringView.h</text>
</g>
<!-- Node1&#45;&gt;Node11 -->
<g id="edge10" class="edge"><title>Node1&#45;&gt;Node11</title>
<path fill="none" stroke="midnightblue" d="M468.188,-125.793C544.149,-114.144 663.707,-95.4694 777.013,-76.1378"/>
<polygon fill="midnightblue" stroke="midnightblue" points="777.636,-79.5821 786.903,-74.4459 776.456,-72.6823 777.636,-79.5821"/>
</g>
<!-- Node12 -->
<g id="node12" class="node"><title>Node12</title>
<polygon fill="none" stroke="#bfbfbf" points="314,-0.5 314,-19.5 370,-19.5 370,-0.5 314,-0.5"/>
<text text-anchor="middle" x="342" y="-7.5" font-family="Helvetica,sans-Serif" font-size="10.00">Rtypes.h</text>
</g>
<!-- Node1&#45;&gt;Node12 -->
<g id="edge11" class="edge"><title>Node1&#45;&gt;Node12</title>
<path fill="none" stroke="midnightblue" d="M381.202,-112.205C371.649,-87.5439 357.365,-50.6674 348.934,-28.9013"/>
<polygon fill="midnightblue" stroke="midnightblue" points="352.188,-27.6104 345.312,-19.5497 345.66,-30.1388 352.188,-27.6104"/>
</g>
<!-- Node13 -->
<g id="node13" class="node"><title>Node13</title>
<g id="a_node13"><a xlink:href="../../dd/dda/DataFormats_2Detectors_2EMCAL_2include_2DataFormatsEMCAL_2Constants_8h.html" target="_top" xlink:title="DataFormatsEMCAL/Constants.h">
<polygon fill="none" stroke="black" points="132,-56.5 132,-75.5 296,-75.5 296,-56.5 132,-56.5"/>
<text text-anchor="middle" x="214" y="-63.5" font-family="Helvetica,sans-Serif" font-size="10.00">DataFormatsEMCAL/Constants.h</text>
</a>
</g>
</g>
<!-- Node1&#45;&gt;Node13 -->
<g id="edge12" class="edge"><title>Node1&#45;&gt;Node13</title>
<path fill="none" stroke="midnightblue" d="M328.098,-112.446C299.881,-101.207 267.865,-88.4546 244.944,-79.3253"/>
<polygon fill="midnightblue" stroke="midnightblue" points="245.993,-75.9758 235.408,-75.527 243.403,-82.4789 245.993,-75.9758"/>
</g>
<!-- Node13&#45;&gt;Node3 -->
<g id="edge16" class="edge"><title>Node13&#45;&gt;Node3</title>
<path fill="none" stroke="midnightblue" d="M190.866,-56.4435C166.518,-47.4381 127.993,-33.1891 100.577,-23.049"/>
<polygon fill="midnightblue" stroke="midnightblue" points="101.619,-19.7028 91.0259,-19.5164 99.1908,-26.2681 101.619,-19.7028"/>
</g>
<!-- Node13&#45;&gt;Node4 -->
<g id="edge15" class="edge"><title>Node13&#45;&gt;Node4</title>
<path fill="none" stroke="midnightblue" d="M202.432,-56.324C191.58,-48.1849 175.119,-35.8395 162.117,-26.0874"/>
<polygon fill="midnightblue" stroke="midnightblue" points="163.879,-23.0339 153.779,-19.8339 159.679,-28.6339 163.879,-23.0339"/>
</g>
<!-- Node13&#45;&gt;Node6 -->
<g id="edge14" class="edge"><title>Node13&#45;&gt;Node6</title>
<path fill="none" stroke="midnightblue" d="M217.303,-56.083C219.982,-48.8486 223.849,-38.4087 227.186,-29.3968"/>
<polygon fill="midnightblue" stroke="midnightblue" points="230.568,-30.3442 230.759,-19.7511 224.004,-27.9129 230.568,-30.3442"/>
</g>
<!-- Node13&#45;&gt;Node12 -->
<g id="edge13" class="edge"><title>Node13&#45;&gt;Node12</title>
<path fill="none" stroke="midnightblue" d="M234.282,-56.4435C255.347,-47.5566 288.517,-33.5632 312.486,-23.4514"/>
<polygon fill="midnightblue" stroke="midnightblue" points="313.96,-26.6283 321.813,-19.5164 311.239,-20.1787 313.96,-26.6283"/>
</g>
</g>
</svg>
