<?xml version="1.0" encoding="UTF-8" standalone="no"?>
<!DOCTYPE svg PUBLIC "-//W3C//DTD SVG 1.1//EN"
 "http://www.w3.org/Graphics/SVG/1.1/DTD/svg11.dtd">
<!-- Generated by graphviz version 2.38.0 (20140413.2041)
 -->
<!-- Title: /home/travis/build/AliceO2Group/AliceO2/run/o2sim.cxx Pages: 1 -->
<svg width="422pt" height="162pt"
 viewBox="0.00 0.00 421.50 162.00" xmlns="http://www.w3.org/2000/svg" xmlns:xlink="http://www.w3.org/1999/xlink">
<g id="graph0" class="graph" transform="scale(1 1) rotate(0) translate(4 158)">
<title>/home/travis/build/AliceO2Group/AliceO2/run/o2sim.cxx</title>
<!-- Node1 -->
<g id="node1" class="node"><title>Node1</title>
<polygon fill="#bfbfbf" stroke="black" points="169,-112.5 169,-153.5 287,-153.5 287,-112.5 169,-112.5"/>
<text text-anchor="start" x="177" y="-141.5" font-family="Helvetica,sans-Serif" font-size="10.00">/home/travis/build</text>
<text text-anchor="start" x="177" y="-130.5" font-family="Helvetica,sans-Serif" font-size="10.00">/AliceO2Group/AliceO2</text>
<text text-anchor="middle" x="228" y="-119.5" font-family="Helvetica,sans-Serif" font-size="10.00">/run/o2sim.cxx</text>
</g>
<!-- Node2 -->
<g id="node2" class="node"><title>Node2</title>
<polygon fill="none" stroke="#bfbfbf" points="0,-56.5 0,-75.5 92,-75.5 92,-56.5 0,-56.5"/>
<text text-anchor="middle" x="46" y="-63.5" font-family="Helvetica,sans-Serif" font-size="10.00">../macro/o2sim.C</text>
</g>
<!-- Node1&#45;&gt;Node2 -->
<g id="edge1" class="edge"><title>Node1&#45;&gt;Node2</title>
<path fill="none" stroke="midnightblue" d="M173.394,-112.498C142.941,-101.622 105.978,-88.4206 79.7273,-79.0455"/>
<polygon fill="midnightblue" stroke="midnightblue" points="80.8216,-75.7198 70.227,-75.6525 78.4672,-82.312 80.8216,-75.7198"/>
</g>
<!-- Node3 -->
<g id="node3" class="node"><title>Node3</title>
<g id="a_node3"><a xlink:href="../../d4/dee/SimConfig_8h.html" target="_top" xlink:title="SimConfig/SimConfig.h">
<polygon fill="none" stroke="black" points="110.5,-56.5 110.5,-75.5 229.5,-75.5 229.5,-56.5 110.5,-56.5"/>
<text text-anchor="middle" x="170" y="-63.5" font-family="Helvetica,sans-Serif" font-size="10.00">SimConfig/SimConfig.h</text>
</a>
</g>
</g>
<!-- Node1&#45;&gt;Node3 -->
<g id="edge2" class="edge"><title>Node1&#45;&gt;Node3</title>
<path fill="none" stroke="midnightblue" d="M210.598,-112.498C202.304,-103.203 192.495,-92.2097 184.596,-83.3579"/>
<polygon fill="midnightblue" stroke="midnightblue" points="186.99,-80.7837 177.721,-75.6525 181.767,-85.4442 186.99,-80.7837"/>
</g>
<!-- Node6 -->
<g id="node6" class="node"><title>Node6</title>
<polygon fill="none" stroke="#bfbfbf" points="247.5,-56.5 247.5,-75.5 324.5,-75.5 324.5,-56.5 247.5,-56.5"/>
<text text-anchor="middle" x="286" y="-63.5" font-family="Helvetica,sans-Serif" font-size="10.00">TStopwatch.h</text>
</g>
<!-- Node1&#45;&gt;Node6 -->
<g id="edge5" class="edge"><title>Node1&#45;&gt;Node6</title>
<path fill="none" stroke="midnightblue" d="M245.402,-112.498C253.696,-103.203 263.505,-92.2097 271.404,-83.3579"/>
<polygon fill="midnightblue" stroke="midnightblue" points="274.233,-85.4442 278.279,-75.6525 269.01,-80.7837 274.233,-85.4442"/>
</g>
<!-- Node7 -->
<g id="node7" class="node"><title>Node7</title>
<polygon fill="none" stroke="#bfbfbf" points="342.5,-56.5 342.5,-75.5 413.5,-75.5 413.5,-56.5 342.5,-56.5"/>
<text text-anchor="middle" x="378" y="-63.5" font-family="Helvetica,sans-Serif" font-size="10.00">FairLogger.h</text>
</g>
<!-- Node1&#45;&gt;Node7 -->
<g id="edge6" class="edge"><title>Node1&#45;&gt;Node7</title>
<path fill="none" stroke="midnightblue" d="M273.005,-112.498C297.551,-101.861 327.228,-89.001 348.76,-79.6705"/>
<polygon fill="midnightblue" stroke="midnightblue" points="350.249,-82.8401 358.033,-75.6525 347.466,-76.4172 350.249,-82.8401"/>
</g>
<!-- Node4 -->
<g id="node4" class="node"><title>Node4</title>
<polygon fill="none" stroke="#bfbfbf" points="85,-0.5 85,-19.5 141,-19.5 141,-0.5 85,-0.5"/>
<text text-anchor="middle" x="113" y="-7.5" font-family="Helvetica,sans-Serif" font-size="10.00">Rtypes.h</text>
</g>
<!-- Node3&#45;&gt;Node4 -->
<g id="edge3" class="edge"><title>Node3&#45;&gt;Node4</title>
<path fill="none" stroke="midnightblue" d="M160.842,-56.324C152.499,-48.4196 139.968,-36.5482 129.823,-26.9377"/>
<polygon fill="midnightblue" stroke="midnightblue" points="131.991,-24.1705 122.325,-19.8339 127.177,-29.2522 131.991,-24.1705"/>
</g>
<!-- Node5 -->
<g id="node5" class="node"><title>Node5</title>
<polygon fill="none" stroke="#bfbfbf" points="159,-0.5 159,-19.5 293,-19.5 293,-0.5 159,-0.5"/>
<text text-anchor="middle" x="226" y="-7.5" font-family="Helvetica,sans-Serif" font-size="10.00">boost/program_options.hpp</text>
</g>
<!-- Node3&#45;&gt;Node5 -->
<g id="edge4" class="edge"><title>Node3&#45;&gt;Node5</title>
<path fill="none" stroke="midnightblue" d="M178.997,-56.324C187.194,-48.4196 199.506,-36.5482 209.472,-26.9377"/>
<polygon fill="midnightblue" stroke="midnightblue" points="212.07,-29.2947 216.839,-19.8339 207.211,-24.2558 212.07,-29.2947"/>
</g>
</g>
</svg>
