<?xml version="1.0" encoding="UTF-8" standalone="no"?>
<!DOCTYPE svg PUBLIC "-//W3C//DTD SVG 1.1//EN"
 "http://www.w3.org/Graphics/SVG/1.1/DTD/svg11.dtd">
<!-- Generated by graphviz version 2.38.0 (20140413.2041)
 -->
<!-- Title: /home/travis/build/AliceO2Group/AliceO2/Detectors/FIT/FDD/simulation/src Pages: 1 -->
<svg width="193pt" height="295pt"
 viewBox="0.00 0.00 193.08 295.00" xmlns="http://www.w3.org/2000/svg" xmlns:xlink="http://www.w3.org/1999/xlink">
<g id="graph0" class="graph" transform="scale(1 1) rotate(0) translate(4 291)">
<title>/home/travis/build/AliceO2Group/AliceO2/Detectors/FIT/FDD/simulation/src</title>
<g id="clust1" class="cluster"><title>clusterdir_f0fa586345106a7c1715ccd7aa13aaee</title>
<g id="a_clust1"><a xlink:href="dir_f0fa586345106a7c1715ccd7aa13aaee.html" target="_top" xlink:title="simulation">
<polygon fill="#ddddee" stroke="black" points="76,-208 76,-279 146,-279 146,-208 76,-208"/>
<text text-anchor="middle" x="111" y="-267" font-family="Helvetica,sans-Serif" font-size="10.00">simulation</text>
</a>
</g>
</g>
<!-- dir_9f2f79ca7be5af085ed9b57fc482ece6 -->
<g id="node1" class="node"><title>dir_9f2f79ca7be5af085ed9b57fc482ece6</title>
<g id="a_node1"><a xlink:href="dir_9f2f79ca7be5af085ed9b57fc482ece6.html" target="_top" xlink:title="src">
<polygon fill="#eeeeff" stroke="black" points="138,-252 84,-252 84,-216 138,-216 138,-252"/>
<text text-anchor="middle" x="111" y="-231.5" font-family="Helvetica,sans-Serif" font-size="10.00">src</text>
</a>
</g>
</g>
<!-- dir_1ea4f5023fc6129dbdfa67598ac85edc -->
<g id="node2" class="node"><title>dir_1ea4f5023fc6129dbdfa67598ac85edc</title>
<g id="a_node2"><a xlink:href="dir_1ea4f5023fc6129dbdfa67598ac85edc.html" target="_top" xlink:title="include">
<polygon fill="none" stroke="red" points="111,-180 57,-180 57,-144 111,-144 111,-180"/>
<text text-anchor="middle" x="84" y="-159.5" font-family="Helvetica,sans-Serif" font-size="10.00">include</text>
</a>
</g>
</g>
<!-- dir_9f2f79ca7be5af085ed9b57fc482ece6&#45;&gt;dir_1ea4f5023fc6129dbdfa67598ac85edc -->
<g id="edge4" class="edge"><title>dir_9f2f79ca7be5af085ed9b57fc482ece6&#45;&gt;dir_1ea4f5023fc6129dbdfa67598ac85edc</title>
<path fill="none" stroke="black" d="M104.326,-215.697C101.285,-207.813 97.6173,-198.304 94.2393,-189.546"/>
<polygon fill="black" stroke="black" points="97.4617,-188.175 90.5974,-180.104 90.9307,-190.694 97.4617,-188.175"/>
<g id="a_edge4&#45;headlabel"><a xlink:href="dir_000297_000265.html" target="_top" xlink:title="2">
<text text-anchor="middle" x="101.404" y="-188.007" font-family="Helvetica,sans-Serif" font-size="10.00">2</text>
</a>
</g>
</g>
<!-- dir_4ab6b4cc6a7edbff49100e9123df213f -->
<g id="node3" class="node"><title>dir_4ab6b4cc6a7edbff49100e9123df213f</title>
<g id="a_node3"><a xlink:href="dir_4ab6b4cc6a7edbff49100e9123df213f.html" target="_top" xlink:title="Common">
<polygon fill="none" stroke="red" points="56,-108 0,-108 0,-72 56,-72 56,-108"/>
<text text-anchor="middle" x="28" y="-87.5" font-family="Helvetica,sans-Serif" font-size="10.00">Common</text>
</a>
</g>
</g>
<!-- dir_9f2f79ca7be5af085ed9b57fc482ece6&#45;&gt;dir_4ab6b4cc6a7edbff49100e9123df213f -->
<g id="edge5" class="edge"><title>dir_9f2f79ca7be5af085ed9b57fc482ece6&#45;&gt;dir_4ab6b4cc6a7edbff49100e9123df213f</title>
<path fill="none" stroke="black" d="M83.7744,-216.197C71.0697,-207.008 56.8354,-194.534 48,-180 36.6531,-161.335 31.7275,-136.947 29.5977,-118.421"/>
<polygon fill="black" stroke="black" points="33.0646,-117.905 28.6393,-108.278 26.0956,-118.563 33.0646,-117.905"/>
<g id="a_edge5&#45;headlabel"><a xlink:href="dir_000297_000012.html" target="_top" xlink:title="2">
<text text-anchor="middle" x="36.2293" y="-118.716" font-family="Helvetica,sans-Serif" font-size="10.00">2</text>
</a>
</g>
</g>
<!-- dir_e3378330628bb5a530079636b74abbc9 -->
<g id="node4" class="node"><title>dir_e3378330628bb5a530079636b74abbc9</title>
<g id="a_node4"><a xlink:href="dir_e3378330628bb5a530079636b74abbc9.html" target="_top" xlink:title="base">
<polygon fill="none" stroke="red" points="166,-108 112,-108 112,-72 166,-72 166,-108"/>
<text text-anchor="middle" x="139" y="-87.5" font-family="Helvetica,sans-Serif" font-size="10.00">base</text>
</a>
</g>
</g>
<!-- dir_9f2f79ca7be5af085ed9b57fc482ece6&#45;&gt;dir_e3378330628bb5a530079636b74abbc9 -->
<g id="edge6" class="edge"><title>dir_9f2f79ca7be5af085ed9b57fc482ece6&#45;&gt;dir_e3378330628bb5a530079636b74abbc9</title>
<path fill="none" stroke="black" d="M114.377,-215.871C119.171,-191.564 127.993,-146.819 133.673,-118.013"/>
<polygon fill="black" stroke="black" points="137.11,-118.677 135.611,-108.189 130.242,-117.323 137.11,-118.677"/>
<g id="a_edge6&#45;headlabel"><a xlink:href="dir_000297_000310.html" target="_top" xlink:title="1">
<text text-anchor="middle" x="139.2" y="-120.253" font-family="Helvetica,sans-Serif" font-size="10.00">1</text>
</a>
</g>
</g>
<!-- dir_2171f7ec022c5423887b07c69b2f5b48 -->
<g id="node5" class="node"><title>dir_2171f7ec022c5423887b07c69b2f5b48</title>
<g id="a_node5"><a xlink:href="dir_2171f7ec022c5423887b07c69b2f5b48.html" target="_top" xlink:title="DataFormats">
<polygon fill="none" stroke="red" points="93,-36 19,-36 19,-0 93,-0 93,-36"/>
<text text-anchor="middle" x="56" y="-15.5" font-family="Helvetica,sans-Serif" font-size="10.00">DataFormats</text>
</a>
</g>
</g>
<!-- dir_9f2f79ca7be5af085ed9b57fc482ece6&#45;&gt;dir_2171f7ec022c5423887b07c69b2f5b48 -->
<g id="edge7" class="edge"><title>dir_9f2f79ca7be5af085ed9b57fc482ece6&#45;&gt;dir_2171f7ec022c5423887b07c69b2f5b48</title>
<path fill="none" stroke="black" d="M127.774,-215.972C155.794,-185.4 206.123,-119.932 175,-72 159.055,-47.4435 128.804,-34.1696 102.794,-27.047"/>
<polygon fill="black" stroke="black" points="103.623,-23.6465 93.0718,-24.6077 101.919,-30.4361 103.623,-23.6465"/>
<g id="a_edge7&#45;headlabel"><a xlink:href="dir_000297_000055.html" target="_top" xlink:title="4">
<text text-anchor="middle" x="107.8" y="-19.2673" font-family="Helvetica,sans-Serif" font-size="10.00">4</text>
</a>
</g>
</g>
<!-- dir_1ea4f5023fc6129dbdfa67598ac85edc&#45;&gt;dir_4ab6b4cc6a7edbff49100e9123df213f -->
<g id="edge1" class="edge"><title>dir_1ea4f5023fc6129dbdfa67598ac85edc&#45;&gt;dir_4ab6b4cc6a7edbff49100e9123df213f</title>
<path fill="none" stroke="black" d="M70.1573,-143.697C63.5115,-135.389 55.4216,-125.277 48.1126,-116.141"/>
<polygon fill="black" stroke="black" points="50.6635,-113.727 41.6835,-108.104 45.1974,-118.099 50.6635,-113.727"/>
<g id="a_edge1&#45;headlabel"><a xlink:href="dir_000265_000012.html" target="_top" xlink:title="1">
<text text-anchor="middle" x="55.1261" y="-112.26" font-family="Helvetica,sans-Serif" font-size="10.00">1</text>
</a>
</g>
</g>
<!-- dir_1ea4f5023fc6129dbdfa67598ac85edc&#45;&gt;dir_e3378330628bb5a530079636b74abbc9 -->
<g id="edge2" class="edge"><title>dir_1ea4f5023fc6129dbdfa67598ac85edc&#45;&gt;dir_e3378330628bb5a530079636b74abbc9</title>
<path fill="none" stroke="black" d="M97.5955,-143.697C104.123,-135.389 112.068,-125.277 119.247,-116.141"/>
<polygon fill="black" stroke="black" points="122.135,-118.13 125.561,-108.104 116.631,-113.805 122.135,-118.13"/>
<g id="a_edge2&#45;headlabel"><a xlink:href="dir_000265_000310.html" target="_top" xlink:title="1">
<text text-anchor="middle" x="122.147" y="-120.211" font-family="Helvetica,sans-Serif" font-size="10.00">1</text>
</a>
</g>
</g>
<!-- dir_1ea4f5023fc6129dbdfa67598ac85edc&#45;&gt;dir_2171f7ec022c5423887b07c69b2f5b48 -->
<g id="edge3" class="edge"><title>dir_1ea4f5023fc6129dbdfa67598ac85edc&#45;&gt;dir_2171f7ec022c5423887b07c69b2f5b48</title>
<path fill="none" stroke="black" d="M80.6225,-143.871C75.8294,-119.564 67.0065,-74.8187 61.3266,-46.0132"/>
<polygon fill="black" stroke="black" points="64.758,-45.3232 59.3894,-36.1893 57.8902,-46.6775 64.758,-45.3232"/>
<g id="a_edge3&#45;headlabel"><a xlink:href="dir_000265_000055.html" target="_top" xlink:title="7">
<text text-anchor="middle" x="68.2389" y="-45.8007" font-family="Helvetica,sans-Serif" font-size="10.00">7</text>
</a>
</g>
</g>
<!-- dir_4ab6b4cc6a7edbff49100e9123df213f&#45;&gt;dir_2171f7ec022c5423887b07c69b2f5b48 -->
<g id="edge8" class="edge"><title>dir_4ab6b4cc6a7edbff49100e9123df213f&#45;&gt;dir_2171f7ec022c5423887b07c69b2f5b48</title>
<path fill="none" stroke="black" d="M29.0056,-71.6966C31.371,-63.7284 35.0079,-54.0995 38.9348,-45.2641"/>
<polygon fill="black" stroke="black" points="42.1552,-46.6411 43.2632,-36.1043 35.8262,-43.6503 42.1552,-46.6411"/>
<g id="a_edge8&#45;headlabel"><a xlink:href="dir_000012_000055.html" target="_top" xlink:title="5">
<text text-anchor="middle" x="43.1866" y="-48.6041" font-family="Helvetica,sans-Serif" font-size="10.00">5</text>
</a>
</g>
</g>
<!-- dir_2171f7ec022c5423887b07c69b2f5b48&#45;&gt;dir_4ab6b4cc6a7edbff49100e9123df213f -->
<g id="edge9" class="edge"><title>dir_2171f7ec022c5423887b07c69b2f5b48&#45;&gt;dir_4ab6b4cc6a7edbff49100e9123df213f</title>
<path fill="none" stroke="black" d="M55.0533,-36.1043C52.7092,-44.0447 49.0854,-53.6661 45.1634,-62.5146"/>
<polygon fill="black" stroke="black" points="41.9333,-61.1586 40.8371,-71.6966 48.2656,-64.1423 41.9333,-61.1586"/>
<g id="a_edge9&#45;headlabel"><a xlink:href="dir_000055_000012.html" target="_top" xlink:title="28">
<text text-anchor="middle" x="40.8969" y="-54.1967" font-family="Helvetica,sans-Serif" font-size="10.00">28</text>
</a>
</g>
</g>
</g>
</svg>
