<?xml version="1.0" encoding="UTF-8" standalone="no"?>
<!DOCTYPE svg PUBLIC "-//W3C//DTD SVG 1.1//EN"
 "http://www.w3.org/Graphics/SVG/1.1/DTD/svg11.dtd">
<!-- Generated by graphviz version 2.38.0 (20140413.2041)
 -->
<!-- Title: /home/travis/build/AliceO2Group/AliceO2/Detectors/TRD/simulation/src Pages: 1 -->
<svg width="256pt" height="439pt"
 viewBox="0.00 0.00 256.35 439.00" xmlns="http://www.w3.org/2000/svg" xmlns:xlink="http://www.w3.org/1999/xlink">
<g id="graph0" class="graph" transform="scale(1 1) rotate(0) translate(4 435)">
<title>/home/travis/build/AliceO2Group/AliceO2/Detectors/TRD/simulation/src</title>
<g id="clust1" class="cluster"><title>clusterdir_5cb2a8e9fdbe67a11efb4176f60bf3d6</title>
<g id="a_clust1"><a xlink:href="dir_5cb2a8e9fdbe67a11efb4176f60bf3d6.html" target="_top" xlink:title="simulation">
<polygon fill="#ddddee" stroke="black" points="88,-352 88,-423 158,-423 158,-352 88,-352"/>
<text text-anchor="middle" x="123" y="-411" font-family="Helvetica,sans-Serif" font-size="10.00">simulation</text>
</a>
</g>
</g>
<!-- dir_41d98617f9e68bb8925b5f8794afb89b -->
<g id="node1" class="node"><title>dir_41d98617f9e68bb8925b5f8794afb89b</title>
<g id="a_node1"><a xlink:href="dir_41d98617f9e68bb8925b5f8794afb89b.html" target="_top" xlink:title="src">
<polygon fill="#eeeeff" stroke="black" points="150,-396 96,-396 96,-360 150,-360 150,-396"/>
<text text-anchor="middle" x="123" y="-375.5" font-family="Helvetica,sans-Serif" font-size="10.00">src</text>
</a>
</g>
</g>
<!-- dir_4ab6b4cc6a7edbff49100e9123df213f -->
<g id="node2" class="node"><title>dir_4ab6b4cc6a7edbff49100e9123df213f</title>
<g id="a_node2"><a xlink:href="dir_4ab6b4cc6a7edbff49100e9123df213f.html" target="_top" xlink:title="Common">
<polygon fill="none" stroke="red" points="236,-180 180,-180 180,-144 236,-144 236,-180"/>
<text text-anchor="middle" x="208" y="-159.5" font-family="Helvetica,sans-Serif" font-size="10.00">Common</text>
</a>
</g>
</g>
<!-- dir_41d98617f9e68bb8925b5f8794afb89b&#45;&gt;dir_4ab6b4cc6a7edbff49100e9123df213f -->
<g id="edge4" class="edge"><title>dir_41d98617f9e68bb8925b5f8794afb89b&#45;&gt;dir_4ab6b4cc6a7edbff49100e9123df213f</title>
<path fill="none" stroke="black" d="M149.426,-359.878C179.216,-338.735 225.744,-299.662 243,-252 248.447,-236.956 247.603,-231.324 243,-216 240.08,-206.281 234.737,-196.7 229.089,-188.415"/>
<polygon fill="black" stroke="black" points="231.896,-186.324 223.183,-180.297 226.236,-190.442 231.896,-186.324"/>
<g id="a_edge4&#45;headlabel"><a xlink:href="dir_000306_000012.html" target="_top" xlink:title="1">
<text text-anchor="middle" x="236.307" y="-185.06" font-family="Helvetica,sans-Serif" font-size="10.00">1</text>
</a>
</g>
</g>
<!-- dir_37c90836491b695b472bf98d1be8336b -->
<g id="node3" class="node"><title>dir_37c90836491b695b472bf98d1be8336b</title>
<g id="a_node3"><a xlink:href="dir_37c90836491b695b472bf98d1be8336b.html" target="_top" xlink:title="Base">
<polygon fill="none" stroke="red" points="170,-36 116,-36 116,-0 170,-0 170,-36"/>
<text text-anchor="middle" x="143" y="-15.5" font-family="Helvetica,sans-Serif" font-size="10.00">Base</text>
</a>
</g>
</g>
<!-- dir_41d98617f9e68bb8925b5f8794afb89b&#45;&gt;dir_37c90836491b695b472bf98d1be8336b -->
<g id="edge5" class="edge"><title>dir_41d98617f9e68bb8925b5f8794afb89b&#45;&gt;dir_37c90836491b695b472bf98d1be8336b</title>
<path fill="none" stroke="black" d="M95.7023,-361.654C59.4655,-339.029 0,-293.055 0,-235 0,-235 0,-235 0,-161 0,-100.861 64.4682,-57.4637 106.832,-35.4383"/>
<polygon fill="black" stroke="black" points="108.411,-38.5623 115.766,-30.937 105.261,-32.3109 108.411,-38.5623"/>
<g id="a_edge5&#45;headlabel"><a xlink:href="dir_000306_000256.html" target="_top" xlink:title="1">
<text text-anchor="middle" x="106.478" y="-40.2152" font-family="Helvetica,sans-Serif" font-size="10.00">1</text>
</a>
</g>
</g>
<!-- dir_09bf7f7c4011a5ccc426492db4dd0891 -->
<g id="node4" class="node"><title>dir_09bf7f7c4011a5ccc426492db4dd0891</title>
<g id="a_node4"><a xlink:href="dir_09bf7f7c4011a5ccc426492db4dd0891.html" target="_top" xlink:title="base">
<polygon fill="none" stroke="red" points="234,-252 180,-252 180,-216 234,-216 234,-252"/>
<text text-anchor="middle" x="207" y="-231.5" font-family="Helvetica,sans-Serif" font-size="10.00">base</text>
</a>
</g>
</g>
<!-- dir_41d98617f9e68bb8925b5f8794afb89b&#45;&gt;dir_09bf7f7c4011a5ccc426492db4dd0891 -->
<g id="edge6" class="edge"><title>dir_41d98617f9e68bb8925b5f8794afb89b&#45;&gt;dir_09bf7f7c4011a5ccc426492db4dd0891</title>
<path fill="none" stroke="black" d="M135.458,-359.628C142.611,-349.42 151.611,-336.17 159,-324 171.53,-303.362 184.45,-279.212 193.726,-261.279"/>
<polygon fill="black" stroke="black" points="197.026,-262.514 198.478,-252.019 190.798,-259.318 197.026,-262.514"/>
<g id="a_edge6&#45;headlabel"><a xlink:href="dir_000306_000144.html" target="_top" xlink:title="6">
<text text-anchor="middle" x="197.911" y="-264.508" font-family="Helvetica,sans-Serif" font-size="10.00">6</text>
</a>
</g>
</g>
<!-- dir_5036081dbf3ad3ea0cfa218a95bb99de -->
<g id="node5" class="node"><title>dir_5036081dbf3ad3ea0cfa218a95bb99de</title>
<g id="a_node5"><a xlink:href="dir_5036081dbf3ad3ea0cfa218a95bb99de.html" target="_top" xlink:title="include">
<polygon fill="none" stroke="red" points="150,-324 96,-324 96,-288 150,-288 150,-324"/>
<text text-anchor="middle" x="123" y="-303.5" font-family="Helvetica,sans-Serif" font-size="10.00">include</text>
</a>
</g>
</g>
<!-- dir_41d98617f9e68bb8925b5f8794afb89b&#45;&gt;dir_5036081dbf3ad3ea0cfa218a95bb99de -->
<g id="edge7" class="edge"><title>dir_41d98617f9e68bb8925b5f8794afb89b&#45;&gt;dir_5036081dbf3ad3ea0cfa218a95bb99de</title>
<path fill="none" stroke="black" d="M123,-359.697C123,-351.983 123,-342.712 123,-334.112"/>
<polygon fill="black" stroke="black" points="126.5,-334.104 123,-324.104 119.5,-334.104 126.5,-334.104"/>
<g id="a_edge7&#45;headlabel"><a xlink:href="dir_000306_000288.html" target="_top" xlink:title="6">
<text text-anchor="middle" x="129.339" y="-335.199" font-family="Helvetica,sans-Serif" font-size="10.00">6</text>
</a>
</g>
</g>
<!-- dir_2171f7ec022c5423887b07c69b2f5b48 -->
<g id="node6" class="node"><title>dir_2171f7ec022c5423887b07c69b2f5b48</title>
<g id="a_node6"><a xlink:href="dir_2171f7ec022c5423887b07c69b2f5b48.html" target="_top" xlink:title="DataFormats">
<polygon fill="none" stroke="red" points="180,-108 106,-108 106,-72 180,-72 180,-108"/>
<text text-anchor="middle" x="143" y="-87.5" font-family="Helvetica,sans-Serif" font-size="10.00">DataFormats</text>
</a>
</g>
</g>
<!-- dir_41d98617f9e68bb8925b5f8794afb89b&#45;&gt;dir_2171f7ec022c5423887b07c69b2f5b48 -->
<g id="edge8" class="edge"><title>dir_41d98617f9e68bb8925b5f8794afb89b&#45;&gt;dir_2171f7ec022c5423887b07c69b2f5b48</title>
<path fill="none" stroke="black" d="M107.39,-359.774C99.6271,-350.03 91.0541,-337.184 87,-324 82.2972,-308.707 84.7914,-303.847 87,-288 95.7034,-225.552 119.219,-155.094 132.85,-117.687"/>
<polygon fill="black" stroke="black" points="136.23,-118.64 136.412,-108.046 129.663,-116.213 136.23,-118.64"/>
<g id="a_edge8&#45;headlabel"><a xlink:href="dir_000306_000055.html" target="_top" xlink:title="1">
<text text-anchor="middle" x="137.647" y="-120.495" font-family="Helvetica,sans-Serif" font-size="10.00">1</text>
</a>
</g>
</g>
<!-- dir_4ab6b4cc6a7edbff49100e9123df213f&#45;&gt;dir_2171f7ec022c5423887b07c69b2f5b48 -->
<g id="edge1" class="edge"><title>dir_4ab6b4cc6a7edbff49100e9123df213f&#45;&gt;dir_2171f7ec022c5423887b07c69b2f5b48</title>
<path fill="none" stroke="black" d="M186.017,-143.697C177.359,-135.305 167.664,-125.07 159.594,-115.861"/>
<polygon fill="black" stroke="black" points="162.136,-113.448 152.988,-108.104 156.807,-117.987 162.136,-113.448"/>
<g id="a_edge1&#45;headlabel"><a xlink:href="dir_000012_000055.html" target="_top" xlink:title="5">
<text text-anchor="middle" x="166.628" y="-111.844" font-family="Helvetica,sans-Serif" font-size="10.00">5</text>
</a>
</g>
</g>
<!-- dir_37c90836491b695b472bf98d1be8336b&#45;&gt;dir_4ab6b4cc6a7edbff49100e9123df213f -->
<g id="edge2" class="edge"><title>dir_37c90836491b695b472bf98d1be8336b&#45;&gt;dir_4ab6b4cc6a7edbff49100e9123df213f</title>
<path fill="none" stroke="black" d="M162.164,-36.4281C171.609,-46.0375 182.367,-58.6979 189,-72 198.666,-91.3839 203.428,-115.531 205.767,-133.78"/>
<polygon fill="black" stroke="black" points="202.293,-134.213 206.882,-143.763 209.25,-133.436 202.293,-134.213"/>
<g id="a_edge2&#45;headlabel"><a xlink:href="dir_000256_000012.html" target="_top" xlink:title="16">
<text text-anchor="middle" x="199.072" y="-128.456" font-family="Helvetica,sans-Serif" font-size="10.00">16</text>
</a>
</g>
</g>
<!-- dir_37c90836491b695b472bf98d1be8336b&#45;&gt;dir_2171f7ec022c5423887b07c69b2f5b48 -->
<g id="edge3" class="edge"><title>dir_37c90836491b695b472bf98d1be8336b&#45;&gt;dir_2171f7ec022c5423887b07c69b2f5b48</title>
<path fill="none" stroke="black" d="M148.895,-36.1043C149.701,-43.7913 149.937,-53.0537 149.604,-61.6651"/>
<polygon fill="black" stroke="black" points="146.109,-61.4805 148.916,-71.6966 153.092,-61.9597 146.109,-61.4805"/>
<g id="a_edge3&#45;headlabel"><a xlink:href="dir_000256_000055.html" target="_top" xlink:title="7">
<text text-anchor="middle" x="143.522" y="-55.2" font-family="Helvetica,sans-Serif" font-size="10.00">7</text>
</a>
</g>
</g>
<!-- dir_09bf7f7c4011a5ccc426492db4dd0891&#45;&gt;dir_4ab6b4cc6a7edbff49100e9123df213f -->
<g id="edge9" class="edge"><title>dir_09bf7f7c4011a5ccc426492db4dd0891&#45;&gt;dir_4ab6b4cc6a7edbff49100e9123df213f</title>
<path fill="none" stroke="black" d="M207.247,-215.697C207.357,-207.983 207.49,-198.712 207.613,-190.112"/>
<polygon fill="black" stroke="black" points="211.112,-190.153 207.756,-180.104 204.113,-190.053 211.112,-190.153"/>
<g id="a_edge9&#45;headlabel"><a xlink:href="dir_000144_000012.html" target="_top" xlink:title="3">
<text text-anchor="middle" x="213.9" y="-191.288" font-family="Helvetica,sans-Serif" font-size="10.00">3</text>
</a>
</g>
</g>
<!-- dir_09bf7f7c4011a5ccc426492db4dd0891&#45;&gt;dir_37c90836491b695b472bf98d1be8336b -->
<g id="edge10" class="edge"><title>dir_09bf7f7c4011a5ccc426492db4dd0891&#45;&gt;dir_37c90836491b695b472bf98d1be8336b</title>
<path fill="none" stroke="black" d="M223.463,-215.919C231.654,-206.218 240.704,-193.366 245,-180 249.896,-164.768 248.589,-159.592 245,-144 237.019,-109.326 232.29,-99.7333 210,-72 201.041,-60.8534 189.326,-50.5847 178.202,-42.1139"/>
<polygon fill="black" stroke="black" points="180,-39.0923 169.866,-36.0019 175.861,-44.7375 180,-39.0923"/>
<g id="a_edge10&#45;headlabel"><a xlink:href="dir_000144_000256.html" target="_top" xlink:title="2">
<text text-anchor="middle" x="184.578" y="-36.428" font-family="Helvetica,sans-Serif" font-size="10.00">2</text>
</a>
</g>
</g>
<!-- dir_09bf7f7c4011a5ccc426492db4dd0891&#45;&gt;dir_2171f7ec022c5423887b07c69b2f5b48 -->
<g id="edge11" class="edge"><title>dir_09bf7f7c4011a5ccc426492db4dd0891&#45;&gt;dir_2171f7ec022c5423887b07c69b2f5b48</title>
<path fill="none" stroke="black" d="M193.301,-215.639C185.922,-205.652 177.105,-192.616 171,-180 161.385,-160.133 154.073,-136.201 149.336,-118.16"/>
<polygon fill="black" stroke="black" points="152.687,-117.133 146.847,-108.294 145.9,-118.846 152.687,-117.133"/>
<g id="a_edge11&#45;headlabel"><a xlink:href="dir_000144_000055.html" target="_top" xlink:title="5">
<text text-anchor="middle" x="156.32" y="-117.424" font-family="Helvetica,sans-Serif" font-size="10.00">5</text>
</a>
</g>
</g>
<!-- dir_5036081dbf3ad3ea0cfa218a95bb99de&#45;&gt;dir_4ab6b4cc6a7edbff49100e9123df213f -->
<g id="edge12" class="edge"><title>dir_5036081dbf3ad3ea0cfa218a95bb99de&#45;&gt;dir_4ab6b4cc6a7edbff49100e9123df213f</title>
<path fill="none" stroke="black" d="M131.46,-287.944C140.637,-269.784 155.994,-240.365 171,-216 176.65,-206.827 183.265,-197.081 189.328,-188.481"/>
<polygon fill="black" stroke="black" points="192.187,-190.5 195.15,-180.327 186.49,-186.432 192.187,-190.5"/>
<g id="a_edge12&#45;headlabel"><a xlink:href="dir_000288_000012.html" target="_top" xlink:title="4">
<text text-anchor="middle" x="192.409" y="-192.575" font-family="Helvetica,sans-Serif" font-size="10.00">4</text>
</a>
</g>
</g>
<!-- dir_5036081dbf3ad3ea0cfa218a95bb99de&#45;&gt;dir_37c90836491b695b472bf98d1be8336b -->
<g id="edge13" class="edge"><title>dir_5036081dbf3ad3ea0cfa218a95bb99de&#45;&gt;dir_37c90836491b695b472bf98d1be8336b</title>
<path fill="none" stroke="black" d="M115.952,-287.97C100.73,-248.57 68.3786,-148.642 97,-72 100.876,-61.6206 107.803,-51.9274 115.124,-43.7427"/>
<polygon fill="black" stroke="black" points="117.784,-46.0256 122.177,-36.3845 112.731,-41.1816 117.784,-46.0256"/>
<g id="a_edge13&#45;headlabel"><a xlink:href="dir_000288_000256.html" target="_top" xlink:title="1">
<text text-anchor="middle" x="117.346" y="-48.0853" font-family="Helvetica,sans-Serif" font-size="10.00">1</text>
</a>
</g>
</g>
<!-- dir_5036081dbf3ad3ea0cfa218a95bb99de&#45;&gt;dir_09bf7f7c4011a5ccc426492db4dd0891 -->
<g id="edge14" class="edge"><title>dir_5036081dbf3ad3ea0cfa218a95bb99de&#45;&gt;dir_09bf7f7c4011a5ccc426492db4dd0891</title>
<path fill="none" stroke="black" d="M143.764,-287.697C154.241,-278.965 167.111,-268.24 178.5,-258.75"/>
<polygon fill="black" stroke="black" points="181.033,-261.195 186.475,-252.104 176.552,-255.817 181.033,-261.195"/>
<g id="a_edge14&#45;headlabel"><a xlink:href="dir_000288_000144.html" target="_top" xlink:title="5">
<text text-anchor="middle" x="180.089" y="-263.177" font-family="Helvetica,sans-Serif" font-size="10.00">5</text>
</a>
</g>
</g>
<!-- dir_5036081dbf3ad3ea0cfa218a95bb99de&#45;&gt;dir_2171f7ec022c5423887b07c69b2f5b48 -->
<g id="edge15" class="edge"><title>dir_5036081dbf3ad3ea0cfa218a95bb99de&#45;&gt;dir_2171f7ec022c5423887b07c69b2f5b48</title>
<path fill="none" stroke="black" d="M124.603,-287.849C128.062,-250.832 136.254,-163.181 140.441,-118.386"/>
<polygon fill="black" stroke="black" points="143.944,-118.515 141.389,-108.232 136.974,-117.863 143.944,-118.515"/>
<g id="a_edge15&#45;headlabel"><a xlink:href="dir_000288_000055.html" target="_top" xlink:title="2">
<text text-anchor="middle" x="146.436" y="-119.858" font-family="Helvetica,sans-Serif" font-size="10.00">2</text>
</a>
</g>
</g>
<!-- dir_2171f7ec022c5423887b07c69b2f5b48&#45;&gt;dir_4ab6b4cc6a7edbff49100e9123df213f -->
<g id="edge16" class="edge"><title>dir_2171f7ec022c5423887b07c69b2f5b48&#45;&gt;dir_4ab6b4cc6a7edbff49100e9123df213f</title>
<path fill="none" stroke="black" d="M164.778,-108.104C173.419,-116.467 183.119,-126.694 191.214,-135.92"/>
<polygon fill="black" stroke="black" points="188.696,-138.36 197.848,-143.697 194.021,-133.817 188.696,-138.36"/>
<g id="a_edge16&#45;headlabel"><a xlink:href="dir_000055_000012.html" target="_top" xlink:title="28">
<text text-anchor="middle" x="184.203" y="-134.968" font-family="Helvetica,sans-Serif" font-size="10.00">28</text>
</a>
</g>
</g>
<!-- dir_2171f7ec022c5423887b07c69b2f5b48&#45;&gt;dir_37c90836491b695b472bf98d1be8336b -->
<g id="edge17" class="edge"><title>dir_2171f7ec022c5423887b07c69b2f5b48&#45;&gt;dir_37c90836491b695b472bf98d1be8336b</title>
<path fill="none" stroke="black" d="M137.084,-71.6966C136.289,-63.9827 136.062,-54.7125 136.405,-46.1124"/>
<polygon fill="black" stroke="black" points="139.898,-46.3243 137.105,-36.1043 132.915,-45.8356 139.898,-46.3243"/>
<g id="a_edge17&#45;headlabel"><a xlink:href="dir_000055_000256.html" target="_top" xlink:title="1">
<text text-anchor="middle" x="142.48" y="-47.6083" font-family="Helvetica,sans-Serif" font-size="10.00">1</text>
</a>
</g>
</g>
</g>
</svg>
