<?xml version="1.0" encoding="UTF-8" standalone="no"?>
<!DOCTYPE svg PUBLIC "-//W3C//DTD SVG 1.1//EN"
 "http://www.w3.org/Graphics/SVG/1.1/DTD/svg11.dtd">
<!-- Generated by graphviz version 2.38.0 (20140413.2041)
 -->
<!-- Title: /home/travis/build/AliceO2Group/AliceO2/Detectors/Base/include Pages: 1 -->
<svg width="266pt" height="250pt"
 viewBox="0.00 0.00 266.00 249.51" xmlns="http://www.w3.org/2000/svg" xmlns:xlink="http://www.w3.org/1999/xlink">
<g id="graph0" class="graph" transform="scale(1 1) rotate(0) translate(4 245.514)">
<title>/home/travis/build/AliceO2Group/AliceO2/Detectors/Base/include</title>
<g id="clust1" class="cluster"><title>clusterdir_37c90836491b695b472bf98d1be8336b</title>
<g id="a_clust1"><a xlink:href="dir_37c90836491b695b472bf98d1be8336b.html" target="_top" xlink:title="Base">
<polygon fill="#ddddee" stroke="black" points="8,-128 8,-215 194,-215 194,-128 8,-128"/>
<text text-anchor="middle" x="101" y="-203" font-family="Helvetica,sans-Serif" font-size="10.00">Base</text>
</a>
</g>
</g>
<g id="clust2" class="cluster"><title>clusterdir_548839eeca1931d32df07653a7903e44</title>
<g id="a_clust2"><a xlink:href="dir_548839eeca1931d32df07653a7903e44.html" target="_top">
<polygon fill="#eeeeff" stroke="black" points="16,-136 16,-188 186,-188 186,-136 16,-136"/>
</a>
</g>
</g>
<!-- dir_548839eeca1931d32df07653a7903e44 -->
<g id="node1" class="node"><title>dir_548839eeca1931d32df07653a7903e44</title>
<text text-anchor="middle" x="151" y="-159.5" font-family="Helvetica,sans-Serif" font-size="10.00">include</text>
</g>
<!-- dir_ebd881cb3be9af9de1e2db4daa6c5c6f -->
<g id="node2" class="node"><title>dir_ebd881cb3be9af9de1e2db4daa6c5c6f</title>
<g id="a_node2"><a xlink:href="dir_ebd881cb3be9af9de1e2db4daa6c5c6f.html" target="_top" xlink:title="DetectorsBase">
<polygon fill="white" stroke="black" points="106,-180 24,-180 24,-144 106,-144 106,-180"/>
<text text-anchor="middle" x="65" y="-159.5" font-family="Helvetica,sans-Serif" font-size="10.00">DetectorsBase</text>
</a>
</g>
</g>
<!-- dir_4ab6b4cc6a7edbff49100e9123df213f -->
<g id="node3" class="node"><title>dir_4ab6b4cc6a7edbff49100e9123df213f</title>
<g id="a_node3"><a xlink:href="dir_4ab6b4cc6a7edbff49100e9123df213f.html" target="_top" xlink:title="Common">
<polygon fill="none" stroke="red" points="258,-180 202,-180 202,-144 258,-144 258,-180"/>
<text text-anchor="middle" x="230" y="-159.5" font-family="Helvetica,sans-Serif" font-size="10.00">Common</text>
</a>
</g>
</g>
<!-- dir_ebd881cb3be9af9de1e2db4daa6c5c6f&#45;&gt;dir_4ab6b4cc6a7edbff49100e9123df213f -->
<g id="edge8" class="edge"><title>dir_ebd881cb3be9af9de1e2db4daa6c5c6f&#45;&gt;dir_4ab6b4cc6a7edbff49100e9123df213f</title>
<path fill="none" stroke="black" d="M74.0565,-180.193C83.7581,-197.408 100.931,-222.175 124,-233 146.934,-243.761 158.569,-244.774 181,-233 198.461,-223.835 210.923,-205.315 218.909,-189.488"/>
<polygon fill="black" stroke="black" points="222.239,-190.63 223.308,-180.089 215.899,-187.662 222.239,-190.63"/>
<g id="a_edge8&#45;headlabel"><a xlink:href="dir_000258_000012.html" target="_top" xlink:title="8">
<text text-anchor="middle" x="223.287" y="-192.589" font-family="Helvetica,sans-Serif" font-size="10.00">8</text>
</a>
</g>
</g>
<!-- dir_f511f1e9c03c071966ae594f00bbc5e0 -->
<g id="node4" class="node"><title>dir_f511f1e9c03c071966ae594f00bbc5e0</title>
<g id="a_node4"><a xlink:href="dir_f511f1e9c03c071966ae594f00bbc5e0.html" target="_top" xlink:title="GPU">
<polygon fill="none" stroke="red" points="193,-108 139,-108 139,-72 193,-72 193,-108"/>
<text text-anchor="middle" x="166" y="-87.5" font-family="Helvetica,sans-Serif" font-size="10.00">GPU</text>
</a>
</g>
</g>
<!-- dir_ebd881cb3be9af9de1e2db4daa6c5c6f&#45;&gt;dir_f511f1e9c03c071966ae594f00bbc5e0 -->
<g id="edge9" class="edge"><title>dir_ebd881cb3be9af9de1e2db4daa6c5c6f&#45;&gt;dir_f511f1e9c03c071966ae594f00bbc5e0</title>
<path fill="none" stroke="black" d="M89.7074,-143.876C102.669,-134.893 118.728,-123.763 132.765,-114.034"/>
<polygon fill="black" stroke="black" points="134.972,-116.763 141.198,-108.19 130.985,-111.009 134.972,-116.763"/>
<g id="a_edge9&#45;headlabel"><a xlink:href="dir_000258_000095.html" target="_top" xlink:title="11">
<text text-anchor="middle" x="133.635" y="-118.644" font-family="Helvetica,sans-Serif" font-size="10.00">11</text>
</a>
</g>
</g>
<!-- dir_2171f7ec022c5423887b07c69b2f5b48 -->
<g id="node5" class="node"><title>dir_2171f7ec022c5423887b07c69b2f5b48</title>
<g id="a_node5"><a xlink:href="dir_2171f7ec022c5423887b07c69b2f5b48.html" target="_top" xlink:title="DataFormats">
<polygon fill="none" stroke="red" points="203,-36 129,-36 129,-0 203,-0 203,-36"/>
<text text-anchor="middle" x="166" y="-15.5" font-family="Helvetica,sans-Serif" font-size="10.00">DataFormats</text>
</a>
</g>
</g>
<!-- dir_ebd881cb3be9af9de1e2db4daa6c5c6f&#45;&gt;dir_2171f7ec022c5423887b07c69b2f5b48 -->
<g id="edge10" class="edge"><title>dir_ebd881cb3be9af9de1e2db4daa6c5c6f&#45;&gt;dir_2171f7ec022c5423887b07c69b2f5b48</title>
<path fill="none" stroke="black" d="M68.8786,-143.965C73.7969,-125.03 83.6635,-94.198 100,-72 108.26,-60.7763 119.457,-50.5954 130.281,-42.2247"/>
<polygon fill="black" stroke="black" points="132.478,-44.9532 138.431,-36.1892 128.312,-39.3278 132.478,-44.9532"/>
<g id="a_edge10&#45;headlabel"><a xlink:href="dir_000258_000055.html" target="_top" xlink:title="4">
<text text-anchor="middle" x="131.279" y="-46.8742" font-family="Helvetica,sans-Serif" font-size="10.00">4</text>
</a>
</g>
</g>
<!-- dir_4ab6b4cc6a7edbff49100e9123df213f&#45;&gt;dir_f511f1e9c03c071966ae594f00bbc5e0 -->
<g id="edge1" class="edge"><title>dir_4ab6b4cc6a7edbff49100e9123df213f&#45;&gt;dir_f511f1e9c03c071966ae594f00bbc5e0</title>
<path fill="none" stroke="black" d="M208.264,-143.697C199.726,-135.305 190.177,-125.07 182.239,-115.861"/>
<polygon fill="black" stroke="black" points="184.847,-113.524 175.743,-108.104 179.48,-118.018 184.847,-113.524"/>
<g id="a_edge1&#45;headlabel"><a xlink:href="dir_000012_000095.html" target="_top" xlink:title="2">
<text text-anchor="middle" x="189.331" y="-111.957" font-family="Helvetica,sans-Serif" font-size="10.00">2</text>
</a>
</g>
</g>
<!-- dir_4ab6b4cc6a7edbff49100e9123df213f&#45;&gt;dir_2171f7ec022c5423887b07c69b2f5b48 -->
<g id="edge2" class="edge"><title>dir_4ab6b4cc6a7edbff49100e9123df213f&#45;&gt;dir_2171f7ec022c5423887b07c69b2f5b48</title>
<path fill="none" stroke="black" d="M219.476,-143.706C212.708,-125.349 204.502,-95.7659 193,-72 188.516,-62.7354 182.571,-53.2439 177.231,-44.9"/>
<polygon fill="black" stroke="black" points="180.107,-42.9014 171.772,-36.3613 174.209,-46.6719 180.107,-42.9014"/>
<g id="a_edge2&#45;headlabel"><a xlink:href="dir_000012_000055.html" target="_top" xlink:title="5">
<text text-anchor="middle" x="184.435" y="-41.9006" font-family="Helvetica,sans-Serif" font-size="10.00">5</text>
</a>
</g>
</g>
<!-- dir_f511f1e9c03c071966ae594f00bbc5e0&#45;&gt;dir_4ab6b4cc6a7edbff49100e9123df213f -->
<g id="edge3" class="edge"><title>dir_f511f1e9c03c071966ae594f00bbc5e0&#45;&gt;dir_4ab6b4cc6a7edbff49100e9123df213f</title>
<path fill="none" stroke="black" d="M187.533,-108.104C196.055,-116.467 205.609,-126.694 213.572,-135.92"/>
<polygon fill="black" stroke="black" points="210.987,-138.284 220.095,-143.697 216.351,-133.786 210.987,-138.284"/>
<g id="a_edge3&#45;headlabel"><a xlink:href="dir_000095_000012.html" target="_top" xlink:title="1">
<text text-anchor="middle" x="206.502" y="-134.855" font-family="Helvetica,sans-Serif" font-size="10.00">1</text>
</a>
</g>
</g>
<!-- dir_f511f1e9c03c071966ae594f00bbc5e0&#45;&gt;dir_2171f7ec022c5423887b07c69b2f5b48 -->
<g id="edge4" class="edge"><title>dir_f511f1e9c03c071966ae594f00bbc5e0&#45;&gt;dir_2171f7ec022c5423887b07c69b2f5b48</title>
<path fill="none" stroke="black" d="M160.084,-71.6966C159.289,-63.9827 159.062,-54.7125 159.405,-46.1124"/>
<polygon fill="black" stroke="black" points="162.898,-46.3243 160.105,-36.1043 155.915,-45.8356 162.898,-46.3243"/>
<g id="a_edge4&#45;headlabel"><a xlink:href="dir_000095_000055.html" target="_top" xlink:title="3">
<text text-anchor="middle" x="165.48" y="-47.6083" font-family="Helvetica,sans-Serif" font-size="10.00">3</text>
</a>
</g>
</g>
<!-- dir_2171f7ec022c5423887b07c69b2f5b48&#45;&gt;dir_ebd881cb3be9af9de1e2db4daa6c5c6f -->
<g id="edge7" class="edge"><title>dir_2171f7ec022c5423887b07c69b2f5b48&#45;&gt;dir_ebd881cb3be9af9de1e2db4daa6c5c6f</title>
<path fill="none" stroke="black" d="M153.774,-36.1893C136.157,-60.9582 103.511,-106.856 83.0958,-135.558"/>
<polygon fill="black" stroke="black" points="80.1269,-133.694 77.183,-143.871 85.8312,-137.751 80.1269,-133.694"/>
<g id="a_edge7&#45;headlabel"><a xlink:href="dir_000055_000258.html" target="_top" xlink:title="1">
<text text-anchor="middle" x="79.8967" y="-126.619" font-family="Helvetica,sans-Serif" font-size="10.00">1</text>
</a>
</g>
</g>
<!-- dir_2171f7ec022c5423887b07c69b2f5b48&#45;&gt;dir_4ab6b4cc6a7edbff49100e9123df213f -->
<g id="edge5" class="edge"><title>dir_2171f7ec022c5423887b07c69b2f5b48&#45;&gt;dir_4ab6b4cc6a7edbff49100e9123df213f</title>
<path fill="none" stroke="black" d="M187.625,-36.3613C196.078,-46.3481 204.895,-59.3844 211,-72 220.57,-91.774 227.858,-115.575 231.259,-133.587"/>
<polygon fill="black" stroke="black" points="227.837,-134.362 232.83,-143.706 234.754,-133.288 227.837,-134.362"/>
<g id="a_edge5&#45;headlabel"><a xlink:href="dir_000055_000012.html" target="_top" xlink:title="28">
<text text-anchor="middle" x="224.48" y="-128.745" font-family="Helvetica,sans-Serif" font-size="10.00">28</text>
</a>
</g>
</g>
<!-- dir_2171f7ec022c5423887b07c69b2f5b48&#45;&gt;dir_f511f1e9c03c071966ae594f00bbc5e0 -->
<g id="edge6" class="edge"><title>dir_2171f7ec022c5423887b07c69b2f5b48&#45;&gt;dir_f511f1e9c03c071966ae594f00bbc5e0</title>
<path fill="none" stroke="black" d="M171.895,-36.1043C172.701,-43.7913 172.937,-53.0537 172.604,-61.6651"/>
<polygon fill="black" stroke="black" points="169.109,-61.4805 171.916,-71.6966 176.092,-61.9597 169.109,-61.4805"/>
<g id="a_edge6&#45;headlabel"><a xlink:href="dir_000055_000095.html" target="_top" xlink:title="9">
<text text-anchor="middle" x="166.522" y="-55.2" font-family="Helvetica,sans-Serif" font-size="10.00">9</text>
</a>
</g>
</g>
</g>
</svg>
