<?xml version="1.0" encoding="UTF-8" standalone="no"?>
<!DOCTYPE svg PUBLIC "-//W3C//DTD SVG 1.1//EN"
 "http://www.w3.org/Graphics/SVG/1.1/DTD/svg11.dtd">
<!-- Generated by graphviz version 2.38.0 (20140413.2041)
 -->
<!-- Title: /home/travis/build/AliceO2Group/AliceO2/Examples/Ex4 Pages: 1 -->
<svg width="326pt" height="231pt"
 viewBox="0.00 0.00 325.98 231.00" xmlns="http://www.w3.org/2000/svg" xmlns:xlink="http://www.w3.org/1999/xlink">
<g id="graph0" class="graph" transform="scale(1 1) rotate(0) translate(4 227)">
<title>/home/travis/build/AliceO2Group/AliceO2/Examples/Ex4</title>
<g id="clust1" class="cluster"><title>clusterdir_03680f297d755c096b0a1ead13ee12b7</title>
<g id="a_clust1"><a xlink:href="dir_03680f297d755c096b0a1ead13ee12b7.html" target="_top" xlink:title="Examples">
<polygon fill="#ddddee" stroke="black" points="8,-56 8,-215 238,-215 238,-56 8,-56"/>
<text text-anchor="middle" x="123" y="-203" font-family="Helvetica,sans-Serif" font-size="10.00">Examples</text>
</a>
</g>
</g>
<g id="clust2" class="cluster"><title>clusterdir_ea1c2409bec89057a2ca816ce631bb9c</title>
<g id="a_clust2"><a xlink:href="dir_ea1c2409bec89057a2ca816ce631bb9c.html" target="_top">
<polygon fill="#eeeeff" stroke="black" points="16,-64 16,-188 230,-188 230,-64 16,-64"/>
</a>
</g>
</g>
<!-- dir_ea1c2409bec89057a2ca816ce631bb9c -->
<g id="node1" class="node"><title>dir_ea1c2409bec89057a2ca816ce631bb9c</title>
<text text-anchor="middle" x="195" y="-159.5" font-family="Helvetica,sans-Serif" font-size="10.00">Ex4</text>
</g>
<!-- dir_31d92464da447c2fc071b66ae2f7dc9e -->
<g id="node2" class="node"><title>dir_31d92464da447c2fc071b66ae2f7dc9e</title>
<g id="a_node2"><a xlink:href="dir_31d92464da447c2fc071b66ae2f7dc9e.html" target="_top" xlink:title="include">
<polygon fill="white" stroke="red" points="106,-108 52,-108 52,-72 106,-72 106,-108"/>
<text text-anchor="middle" x="79" y="-87.5" font-family="Helvetica,sans-Serif" font-size="10.00">include</text>
</a>
</g>
</g>
<!-- dir_51ebce8878ad805d853ce156da54233c -->
<g id="node3" class="node"><title>dir_51ebce8878ad805d853ce156da54233c</title>
<g id="a_node3"><a xlink:href="dir_51ebce8878ad805d853ce156da54233c.html" target="_top" xlink:title="src">
<polygon fill="white" stroke="black" points="78,-180 24,-180 24,-144 78,-144 78,-180"/>
<text text-anchor="middle" x="51" y="-159.5" font-family="Helvetica,sans-Serif" font-size="10.00">src</text>
</a>
</g>
</g>
<!-- dir_51ebce8878ad805d853ce156da54233c&#45;&gt;dir_31d92464da447c2fc071b66ae2f7dc9e -->
<g id="edge5" class="edge"><title>dir_51ebce8878ad805d853ce156da54233c&#45;&gt;dir_31d92464da447c2fc071b66ae2f7dc9e</title>
<path fill="none" stroke="black" d="M57.9214,-143.697C61.0747,-135.813 64.8783,-126.304 68.3814,-117.546"/>
<polygon fill="black" stroke="black" points="71.694,-118.689 72.1583,-108.104 65.1946,-116.089 71.694,-118.689"/>
<g id="a_edge5&#45;headlabel"><a xlink:href="dir_000538_000533.html" target="_top" xlink:title="2">
<text text-anchor="middle" x="72.9952" y="-120.581" font-family="Helvetica,sans-Serif" font-size="10.00">2</text>
</a>
</g>
</g>
<!-- dir_796c6520f78513947d27220245881da4 -->
<g id="node5" class="node"><title>dir_796c6520f78513947d27220245881da4</title>
<g id="a_node5"><a xlink:href="dir_796c6520f78513947d27220245881da4.html" target="_top" xlink:title="Ex2">
<polygon fill="none" stroke="red" points="300,-36 246,-36 246,-0 300,-0 300,-36"/>
<text text-anchor="middle" x="273" y="-15.5" font-family="Helvetica,sans-Serif" font-size="10.00">Ex2</text>
</a>
</g>
</g>
<!-- dir_51ebce8878ad805d853ce156da54233c&#45;&gt;dir_796c6520f78513947d27220245881da4 -->
<g id="edge4" class="edge"><title>dir_51ebce8878ad805d853ce156da54233c&#45;&gt;dir_796c6520f78513947d27220245881da4</title>
<path fill="none" stroke="black" d="M77.7784,-143.871C117.781,-118.284 193.186,-70.0521 237.663,-41.6028"/>
<polygon fill="black" stroke="black" points="239.588,-44.5261 246.127,-36.1893 235.817,-38.6293 239.588,-44.5261"/>
<g id="a_edge4&#45;headlabel"><a xlink:href="dir_000538_000526.html" target="_top" xlink:title="1">
<text text-anchor="middle" x="238.09" y="-46.3548" font-family="Helvetica,sans-Serif" font-size="10.00">1</text>
</a>
</g>
</g>
<!-- dir_85570e636746d5649ccd8168aece12f6 -->
<g id="node6" class="node"><title>dir_85570e636746d5649ccd8168aece12f6</title>
<g id="a_node6"><a xlink:href="dir_85570e636746d5649ccd8168aece12f6.html" target="_top" xlink:title="Ex3">
<polygon fill="none" stroke="red" points="300,-108 246,-108 246,-72 300,-72 300,-108"/>
<text text-anchor="middle" x="273" y="-87.5" font-family="Helvetica,sans-Serif" font-size="10.00">Ex3</text>
</a>
</g>
</g>
<!-- dir_51ebce8878ad805d853ce156da54233c&#45;&gt;dir_85570e636746d5649ccd8168aece12f6 -->
<g id="edge6" class="edge"><title>dir_51ebce8878ad805d853ce156da54233c&#45;&gt;dir_85570e636746d5649ccd8168aece12f6</title>
<path fill="none" stroke="black" d="M78.2778,-147.425C81.189,-146.185 84.1336,-145.016 87,-144 150.398,-121.526 170.271,-129.517 234,-108 234.857,-107.711 235.722,-107.41 236.591,-107.1"/>
<polygon fill="black" stroke="black" points="237.884,-110.353 245.958,-103.493 235.368,-103.82 237.884,-110.353"/>
<g id="a_edge6&#45;headlabel"><a xlink:href="dir_000538_000529.html" target="_top" xlink:title="1">
<text text-anchor="middle" x="235.549" y="-111.794" font-family="Helvetica,sans-Serif" font-size="10.00">1</text>
</a>
</g>
</g>
<!-- dir_dc2b6b19fd8868975b9f8054bd88c22f -->
<g id="node4" class="node"><title>dir_dc2b6b19fd8868975b9f8054bd88c22f</title>
<g id="a_node4"><a xlink:href="dir_dc2b6b19fd8868975b9f8054bd88c22f.html" target="_top" xlink:title="test">
<polygon fill="white" stroke="black" points="150,-180 96,-180 96,-144 150,-144 150,-180"/>
<text text-anchor="middle" x="123" y="-159.5" font-family="Helvetica,sans-Serif" font-size="10.00">test</text>
</a>
</g>
</g>
<!-- dir_dc2b6b19fd8868975b9f8054bd88c22f&#45;&gt;dir_31d92464da447c2fc071b66ae2f7dc9e -->
<g id="edge2" class="edge"><title>dir_dc2b6b19fd8868975b9f8054bd88c22f&#45;&gt;dir_31d92464da447c2fc071b66ae2f7dc9e</title>
<path fill="none" stroke="black" d="M112.124,-143.697C107.008,-135.559 100.805,-125.689 95.1551,-116.701"/>
<polygon fill="black" stroke="black" points="98.0363,-114.708 89.7513,-108.104 92.1098,-118.433 98.0363,-114.708"/>
<g id="a_edge2&#45;headlabel"><a xlink:href="dir_000541_000533.html" target="_top" xlink:title="2">
<text text-anchor="middle" x="102.353" y="-113.74" font-family="Helvetica,sans-Serif" font-size="10.00">2</text>
</a>
</g>
</g>
<!-- dir_dc2b6b19fd8868975b9f8054bd88c22f&#45;&gt;dir_796c6520f78513947d27220245881da4 -->
<g id="edge1" class="edge"><title>dir_dc2b6b19fd8868975b9f8054bd88c22f&#45;&gt;dir_796c6520f78513947d27220245881da4</title>
<path fill="none" stroke="black" d="M150.273,-147.411C153.185,-146.174 156.131,-145.01 159,-144 223.672,-121.242 266.553,-161.84 309,-108 323.309,-89.851 317.698,-77.412 309,-56 307.245,-51.6796 304.716,-47.5869 301.801,-43.808"/>
<polygon fill="black" stroke="black" points="304.2,-41.2376 294.951,-36.0695 298.958,-45.8773 304.2,-41.2376"/>
<g id="a_edge1&#45;headlabel"><a xlink:href="dir_000541_000526.html" target="_top" xlink:title="1">
<text text-anchor="middle" x="308.708" y="-39.5473" font-family="Helvetica,sans-Serif" font-size="10.00">1</text>
</a>
</g>
</g>
<!-- dir_dc2b6b19fd8868975b9f8054bd88c22f&#45;&gt;dir_85570e636746d5649ccd8168aece12f6 -->
<g id="edge3" class="edge"><title>dir_dc2b6b19fd8868975b9f8054bd88c22f&#45;&gt;dir_85570e636746d5649ccd8168aece12f6</title>
<path fill="none" stroke="black" d="M150.119,-148.173C153.114,-146.762 156.121,-145.349 159,-144 184.94,-131.845 214.247,-118.223 236.65,-107.832"/>
<polygon fill="black" stroke="black" points="238.199,-110.972 245.799,-103.591 235.254,-104.621 238.199,-110.972"/>
<g id="a_edge3&#45;headlabel"><a xlink:href="dir_000541_000529.html" target="_top" xlink:title="1">
<text text-anchor="middle" x="236.132" y="-112.56" font-family="Helvetica,sans-Serif" font-size="10.00">1</text>
</a>
</g>
</g>
<!-- dir_85570e636746d5649ccd8168aece12f6&#45;&gt;dir_796c6520f78513947d27220245881da4 -->
<g id="edge7" class="edge"><title>dir_85570e636746d5649ccd8168aece12f6&#45;&gt;dir_796c6520f78513947d27220245881da4</title>
<path fill="none" stroke="black" d="M273,-71.6966C273,-63.9827 273,-54.7125 273,-46.1124"/>
<polygon fill="black" stroke="black" points="276.5,-46.1043 273,-36.1043 269.5,-46.1044 276.5,-46.1043"/>
<g id="a_edge7&#45;headlabel"><a xlink:href="dir_000529_000526.html" target="_top" xlink:title="1">
<text text-anchor="middle" x="279.339" y="-47.199" font-family="Helvetica,sans-Serif" font-size="10.00">1</text>
</a>
</g>
</g>
</g>
</svg>
