<?xml version="1.0" encoding="UTF-8" standalone="no"?>
<!DOCTYPE svg PUBLIC "-//W3C//DTD SVG 1.1//EN"
 "http://www.w3.org/Graphics/SVG/1.1/DTD/svg11.dtd">
<!-- Generated by graphviz version 2.38.0 (20140413.2041)
 -->
<!-- Title: /home/travis/build/AliceO2Group/AliceO2/Generators Pages: 1 -->
<svg width="178pt" height="276pt"
 viewBox="0.00 0.00 178.00 276.00" xmlns="http://www.w3.org/2000/svg" xmlns:xlink="http://www.w3.org/1999/xlink">
<g id="graph0" class="graph" transform="scale(1 1) rotate(0) translate(4 272)">
<title>/home/travis/build/AliceO2Group/AliceO2/Generators</title>
<g id="clust1" class="cluster"><title>clusterdir_0b342c6c6b7d2278121a0bb9c4985063</title>
<g id="a_clust1"><a xlink:href="dir_0b342c6c6b7d2278121a0bb9c4985063.html" target="_top">
<polygon fill="#eeeeff" stroke="black" points="8,-136 8,-260 162,-260 162,-136 8,-136"/>
</a>
</g>
</g>
<!-- dir_0b342c6c6b7d2278121a0bb9c4985063 -->
<g id="node1" class="node"><title>dir_0b342c6c6b7d2278121a0bb9c4985063</title>
<text text-anchor="middle" x="121" y="-231.5" font-family="Helvetica,sans-Serif" font-size="10.00">Generators</text>
</g>
<!-- dir_dc16c1a7f621fbfbc9e5d9a781b7ebe8 -->
<g id="node2" class="node"><title>dir_dc16c1a7f621fbfbc9e5d9a781b7ebe8</title>
<g id="a_node2"><a xlink:href="dir_dc16c1a7f621fbfbc9e5d9a781b7ebe8.html" target="_top" xlink:title="include">
<polygon fill="white" stroke="red" points="70,-180 16,-180 16,-144 70,-144 70,-180"/>
<text text-anchor="middle" x="43" y="-159.5" font-family="Helvetica,sans-Serif" font-size="10.00">include</text>
</a>
</g>
</g>
<!-- dir_4ab6b4cc6a7edbff49100e9123df213f -->
<g id="node4" class="node"><title>dir_4ab6b4cc6a7edbff49100e9123df213f</title>
<g id="a_node4"><a xlink:href="dir_4ab6b4cc6a7edbff49100e9123df213f.html" target="_top" xlink:title="Common">
<polygon fill="none" stroke="red" points="108,-108 52,-108 52,-72 108,-72 108,-108"/>
<text text-anchor="middle" x="80" y="-87.5" font-family="Helvetica,sans-Serif" font-size="10.00">Common</text>
</a>
</g>
</g>
<!-- dir_dc16c1a7f621fbfbc9e5d9a781b7ebe8&#45;&gt;dir_4ab6b4cc6a7edbff49100e9123df213f -->
<g id="edge5" class="edge"><title>dir_dc16c1a7f621fbfbc9e5d9a781b7ebe8&#45;&gt;dir_4ab6b4cc6a7edbff49100e9123df213f</title>
<path fill="none" stroke="black" d="M52.1461,-143.697C56.4026,-135.644 61.5558,-125.894 66.2664,-116.982"/>
<polygon fill="black" stroke="black" points="69.3803,-118.581 70.9591,-108.104 63.1917,-115.31 69.3803,-118.581"/>
<g id="a_edge5&#45;headlabel"><a xlink:href="dir_000585_000012.html" target="_top" xlink:title="6">
<text text-anchor="middle" x="70.2108" y="-120.586" font-family="Helvetica,sans-Serif" font-size="10.00">6</text>
</a>
</g>
</g>
<!-- dir_a843049037bef15f6bb8ca700bc7dfa2 -->
<g id="node3" class="node"><title>dir_a843049037bef15f6bb8ca700bc7dfa2</title>
<g id="a_node3"><a xlink:href="dir_a843049037bef15f6bb8ca700bc7dfa2.html" target="_top" xlink:title="src">
<polygon fill="white" stroke="black" points="70,-252 16,-252 16,-216 70,-216 70,-252"/>
<text text-anchor="middle" x="43" y="-231.5" font-family="Helvetica,sans-Serif" font-size="10.00">src</text>
</a>
</g>
</g>
<!-- dir_a843049037bef15f6bb8ca700bc7dfa2&#45;&gt;dir_dc16c1a7f621fbfbc9e5d9a781b7ebe8 -->
<g id="edge3" class="edge"><title>dir_a843049037bef15f6bb8ca700bc7dfa2&#45;&gt;dir_dc16c1a7f621fbfbc9e5d9a781b7ebe8</title>
<path fill="none" stroke="black" d="M43,-215.697C43,-207.983 43,-198.712 43,-190.112"/>
<polygon fill="black" stroke="black" points="46.5001,-190.104 43,-180.104 39.5001,-190.104 46.5001,-190.104"/>
<g id="a_edge3&#45;headlabel"><a xlink:href="dir_000587_000585.html" target="_top" xlink:title="16">
<text text-anchor="middle" x="49.3393" y="-191.199" font-family="Helvetica,sans-Serif" font-size="10.00">16</text>
</a>
</g>
</g>
<!-- dir_a843049037bef15f6bb8ca700bc7dfa2&#45;&gt;dir_4ab6b4cc6a7edbff49100e9123df213f -->
<g id="edge2" class="edge"><title>dir_a843049037bef15f6bb8ca700bc7dfa2&#45;&gt;dir_4ab6b4cc6a7edbff49100e9123df213f</title>
<path fill="none" stroke="black" d="M58.5509,-215.755C66.2966,-206.007 74.8719,-193.161 79,-180 85.2721,-160.004 85.1793,-136.216 83.7052,-118.266"/>
<polygon fill="black" stroke="black" points="87.1744,-117.784 82.6845,-108.188 80.21,-118.49 87.1744,-117.784"/>
<g id="a_edge2&#45;headlabel"><a xlink:href="dir_000587_000012.html" target="_top" xlink:title="1">
<text text-anchor="middle" x="90.3613" y="-118.575" font-family="Helvetica,sans-Serif" font-size="10.00">1</text>
</a>
</g>
</g>
<!-- dir_2171f7ec022c5423887b07c69b2f5b48 -->
<g id="node5" class="node"><title>dir_2171f7ec022c5423887b07c69b2f5b48</title>
<g id="a_node5"><a xlink:href="dir_2171f7ec022c5423887b07c69b2f5b48.html" target="_top" xlink:title="DataFormats">
<polygon fill="none" stroke="red" points="117,-36 43,-36 43,-0 117,-0 117,-36"/>
<text text-anchor="middle" x="80" y="-15.5" font-family="Helvetica,sans-Serif" font-size="10.00">DataFormats</text>
</a>
</g>
</g>
<!-- dir_a843049037bef15f6bb8ca700bc7dfa2&#45;&gt;dir_2171f7ec022c5423887b07c69b2f5b48 -->
<g id="edge4" class="edge"><title>dir_a843049037bef15f6bb8ca700bc7dfa2&#45;&gt;dir_2171f7ec022c5423887b07c69b2f5b48</title>
<path fill="none" stroke="black" d="M64.7135,-215.866C75.4954,-206.338 87.9115,-193.66 96,-180 112.983,-151.318 112.286,-140.998 117,-108 119.263,-92.1608 121.801,-87.2629 117,-72 113.901,-62.1483 108.249,-52.5302 102.279,-44.2511"/>
<polygon fill="black" stroke="black" points="104.914,-41.9371 96.0369,-36.1544 99.3707,-46.2111 104.914,-41.9371"/>
<g id="a_edge4&#45;headlabel"><a xlink:href="dir_000587_000055.html" target="_top" xlink:title="1">
<text text-anchor="middle" x="109.358" y="-40.5503" font-family="Helvetica,sans-Serif" font-size="10.00">1</text>
</a>
</g>
</g>
<!-- dir_4ab6b4cc6a7edbff49100e9123df213f&#45;&gt;dir_2171f7ec022c5423887b07c69b2f5b48 -->
<g id="edge1" class="edge"><title>dir_4ab6b4cc6a7edbff49100e9123df213f&#45;&gt;dir_2171f7ec022c5423887b07c69b2f5b48</title>
<path fill="none" stroke="black" d="M74.0843,-71.6966C73.2886,-63.9827 73.0621,-54.7125 73.4047,-46.1124"/>
<polygon fill="black" stroke="black" points="76.8984,-46.3243 74.105,-36.1043 69.9154,-45.8356 76.8984,-46.3243"/>
<g id="a_edge1&#45;headlabel"><a xlink:href="dir_000012_000055.html" target="_top" xlink:title="5">
<text text-anchor="middle" x="79.4799" y="-47.6083" font-family="Helvetica,sans-Serif" font-size="10.00">5</text>
</a>
</g>
</g>
<!-- dir_2171f7ec022c5423887b07c69b2f5b48&#45;&gt;dir_4ab6b4cc6a7edbff49100e9123df213f -->
<g id="edge6" class="edge"><title>dir_2171f7ec022c5423887b07c69b2f5b48&#45;&gt;dir_4ab6b4cc6a7edbff49100e9123df213f</title>
<path fill="none" stroke="black" d="M85.895,-36.1043C86.7005,-43.7913 86.9369,-53.0537 86.604,-61.6651"/>
<polygon fill="black" stroke="black" points="83.1085,-61.4805 85.9157,-71.6966 90.0921,-61.9597 83.1085,-61.4805"/>
<g id="a_edge6&#45;headlabel"><a xlink:href="dir_000055_000012.html" target="_top" xlink:title="28">
<text text-anchor="middle" x="80.5219" y="-55.2" font-family="Helvetica,sans-Serif" font-size="10.00">28</text>
</a>
</g>
</g>
</g>
</svg>
