<?xml version="1.0" encoding="UTF-8" standalone="no"?>
<!DOCTYPE svg PUBLIC "-//W3C//DTD SVG 1.1//EN"
 "http://www.w3.org/Graphics/SVG/1.1/DTD/svg11.dtd">
<!-- Generated by graphviz version 2.38.0 (20140413.2041)
 -->
<!-- Title: /home/travis/build/AliceO2Group/AliceO2/Detectors/MUON/MCH/Simulation Pages: 1 -->
<svg width="360pt" height="375pt"
 viewBox="0.00 0.00 360.36 375.00" xmlns="http://www.w3.org/2000/svg" xmlns:xlink="http://www.w3.org/1999/xlink">
<g id="graph0" class="graph" transform="scale(1 1) rotate(0) translate(4 371)">
<title>/home/travis/build/AliceO2Group/AliceO2/Detectors/MUON/MCH/Simulation</title>
<g id="clust1" class="cluster"><title>clusterdir_061f7088060f41729027f6c2fce0273e</title>
<g id="a_clust1"><a xlink:href="dir_061f7088060f41729027f6c2fce0273e.html" target="_top" xlink:title="MCH">
<polygon fill="#ddddee" stroke="black" points="8,-200 8,-359 246,-359 246,-200 8,-200"/>
<text text-anchor="middle" x="127" y="-347" font-family="Helvetica,sans-Serif" font-size="10.00">MCH</text>
</a>
</g>
</g>
<g id="clust2" class="cluster"><title>clusterdir_e4cb5181a3c884468a78a261ced84e7b</title>
<g id="a_clust2"><a xlink:href="dir_e4cb5181a3c884468a78a261ced84e7b.html" target="_top">
<polygon fill="#eeeeff" stroke="black" points="16,-208 16,-332 238,-332 238,-208 16,-208"/>
</a>
</g>
</g>
<!-- dir_e4cb5181a3c884468a78a261ced84e7b -->
<g id="node1" class="node"><title>dir_e4cb5181a3c884468a78a261ced84e7b</title>
<text text-anchor="middle" x="199" y="-303.5" font-family="Helvetica,sans-Serif" font-size="10.00">Simulation</text>
</g>
<!-- dir_3dca47489aa3153ac3c60c079f5f624d -->
<g id="node2" class="node"><title>dir_3dca47489aa3153ac3c60c079f5f624d</title>
<g id="a_node2"><a xlink:href="dir_3dca47489aa3153ac3c60c079f5f624d.html" target="_top" xlink:title="include">
<polygon fill="white" stroke="red" points="150,-252 96,-252 96,-216 150,-216 150,-252"/>
<text text-anchor="middle" x="123" y="-231.5" font-family="Helvetica,sans-Serif" font-size="10.00">include</text>
</a>
</g>
</g>
<!-- dir_4ab6b4cc6a7edbff49100e9123df213f -->
<g id="node5" class="node"><title>dir_4ab6b4cc6a7edbff49100e9123df213f</title>
<g id="a_node5"><a xlink:href="dir_4ab6b4cc6a7edbff49100e9123df213f.html" target="_top" xlink:title="Common">
<polygon fill="none" stroke="red" points="156,-180 100,-180 100,-144 156,-144 156,-180"/>
<text text-anchor="middle" x="128" y="-159.5" font-family="Helvetica,sans-Serif" font-size="10.00">Common</text>
</a>
</g>
</g>
<!-- dir_3dca47489aa3153ac3c60c079f5f624d&#45;&gt;dir_4ab6b4cc6a7edbff49100e9123df213f -->
<g id="edge11" class="edge"><title>dir_3dca47489aa3153ac3c60c079f5f624d&#45;&gt;dir_4ab6b4cc6a7edbff49100e9123df213f</title>
<path fill="none" stroke="black" d="M124.236,-215.697C124.787,-207.983 125.449,-198.712 126.063,-190.112"/>
<polygon fill="black" stroke="black" points="129.557,-190.328 126.778,-180.104 122.575,-189.83 129.557,-190.328"/>
<g id="a_edge11&#45;headlabel"><a xlink:href="dir_000130_000012.html" target="_top" xlink:title="2">
<text text-anchor="middle" x="132.133" y="-191.616" font-family="Helvetica,sans-Serif" font-size="10.00">2</text>
</a>
</g>
</g>
<!-- dir_37c90836491b695b472bf98d1be8336b -->
<g id="node6" class="node"><title>dir_37c90836491b695b472bf98d1be8336b</title>
<g id="a_node6"><a xlink:href="dir_37c90836491b695b472bf98d1be8336b.html" target="_top" xlink:title="Base">
<polygon fill="none" stroke="red" points="215,-36 161,-36 161,-0 215,-0 215,-36"/>
<text text-anchor="middle" x="188" y="-15.5" font-family="Helvetica,sans-Serif" font-size="10.00">Base</text>
</a>
</g>
</g>
<!-- dir_3dca47489aa3153ac3c60c079f5f624d&#45;&gt;dir_37c90836491b695b472bf98d1be8336b -->
<g id="edge12" class="edge"><title>dir_3dca47489aa3153ac3c60c079f5f624d&#45;&gt;dir_37c90836491b695b472bf98d1be8336b</title>
<path fill="none" stroke="black" d="M109.436,-215.972C102.442,-206.09 94.6332,-193.047 91,-180 86.7077,-164.586 87.238,-159.551 91,-144 99.4594,-109.031 105.913,-100.401 128,-72 136.281,-61.3517 146.907,-51.1596 156.909,-42.6082"/>
<polygon fill="black" stroke="black" points="159.27,-45.1977 164.741,-36.1246 154.806,-39.8057 159.27,-45.1977"/>
<g id="a_edge12&#45;headlabel"><a xlink:href="dir_000130_000256.html" target="_top" xlink:title="1">
<text text-anchor="middle" x="158.312" y="-47.177" font-family="Helvetica,sans-Serif" font-size="10.00">1</text>
</a>
</g>
</g>
<!-- dir_2171f7ec022c5423887b07c69b2f5b48 -->
<g id="node7" class="node"><title>dir_2171f7ec022c5423887b07c69b2f5b48</title>
<g id="a_node7"><a xlink:href="dir_2171f7ec022c5423887b07c69b2f5b48.html" target="_top" xlink:title="DataFormats">
<polygon fill="none" stroke="red" points="225,-108 151,-108 151,-72 225,-72 225,-108"/>
<text text-anchor="middle" x="188" y="-87.5" font-family="Helvetica,sans-Serif" font-size="10.00">DataFormats</text>
</a>
</g>
</g>
<!-- dir_3dca47489aa3153ac3c60c079f5f624d&#45;&gt;dir_2171f7ec022c5423887b07c69b2f5b48 -->
<g id="edge13" class="edge"><title>dir_3dca47489aa3153ac3c60c079f5f624d&#45;&gt;dir_2171f7ec022c5423887b07c69b2f5b48</title>
<path fill="none" stroke="black" d="M139.813,-215.655C148.461,-205.877 158.517,-193.035 165,-180 174.743,-160.41 180.646,-136.278 184.029,-118.087"/>
<polygon fill="black" stroke="black" points="187.494,-118.59 185.739,-108.142 180.595,-117.404 187.494,-118.59"/>
<g id="a_edge13&#45;headlabel"><a xlink:href="dir_000130_000055.html" target="_top" xlink:title="4">
<text text-anchor="middle" x="189.683" y="-120.114" font-family="Helvetica,sans-Serif" font-size="10.00">4</text>
</a>
</g>
</g>
<!-- dir_8e864c1c886fb9a88af672544595837b -->
<g id="node3" class="node"><title>dir_8e864c1c886fb9a88af672544595837b</title>
<g id="a_node3"><a xlink:href="dir_8e864c1c886fb9a88af672544595837b.html" target="_top" xlink:title="src">
<polygon fill="white" stroke="black" points="150,-324 96,-324 96,-288 150,-288 150,-324"/>
<text text-anchor="middle" x="123" y="-303.5" font-family="Helvetica,sans-Serif" font-size="10.00">src</text>
</a>
</g>
</g>
<!-- dir_8e864c1c886fb9a88af672544595837b&#45;&gt;dir_3dca47489aa3153ac3c60c079f5f624d -->
<g id="edge5" class="edge"><title>dir_8e864c1c886fb9a88af672544595837b&#45;&gt;dir_3dca47489aa3153ac3c60c079f5f624d</title>
<path fill="none" stroke="black" d="M123,-287.697C123,-279.983 123,-270.712 123,-262.112"/>
<polygon fill="black" stroke="black" points="126.5,-262.104 123,-252.104 119.5,-262.104 126.5,-262.104"/>
<g id="a_edge5&#45;headlabel"><a xlink:href="dir_000162_000130.html" target="_top" xlink:title="12">
<text text-anchor="middle" x="129.339" y="-263.199" font-family="Helvetica,sans-Serif" font-size="10.00">12</text>
</a>
</g>
</g>
<!-- dir_8e864c1c886fb9a88af672544595837b&#45;&gt;dir_37c90836491b695b472bf98d1be8336b -->
<g id="edge4" class="edge"><title>dir_8e864c1c886fb9a88af672544595837b&#45;&gt;dir_37c90836491b695b472bf98d1be8336b</title>
<path fill="none" stroke="black" d="M150.238,-291.308C153.157,-290.091 156.114,-288.959 159,-288 235.179,-262.678 285.206,-314.165 336,-252 394.234,-180.729 281.795,-85.258 221.99,-42.0099"/>
<polygon fill="black" stroke="black" points="223.75,-38.9669 213.574,-36.017 219.69,-44.6688 223.75,-38.9669"/>
<g id="a_edge4&#45;headlabel"><a xlink:href="dir_000162_000256.html" target="_top" xlink:title="4">
<text text-anchor="middle" x="228.325" y="-36.2393" font-family="Helvetica,sans-Serif" font-size="10.00">4</text>
</a>
</g>
</g>
<!-- dir_8e864c1c886fb9a88af672544595837b&#45;&gt;dir_2171f7ec022c5423887b07c69b2f5b48 -->
<g id="edge6" class="edge"><title>dir_8e864c1c886fb9a88af672544595837b&#45;&gt;dir_2171f7ec022c5423887b07c69b2f5b48</title>
<path fill="none" stroke="black" d="M150.261,-291.377C153.176,-290.147 156.125,-288.993 159,-288 227.075,-264.485 272.084,-308.301 317,-252 356.509,-202.476 279.838,-144.528 228.671,-113.439"/>
<polygon fill="black" stroke="black" points="230.145,-110.243 219.762,-108.137 226.565,-116.258 230.145,-110.243"/>
<g id="a_edge6&#45;headlabel"><a xlink:href="dir_000162_000055.html" target="_top" xlink:title="3">
<text text-anchor="middle" x="234.686" y="-107.141" font-family="Helvetica,sans-Serif" font-size="10.00">3</text>
</a>
</g>
</g>
<!-- dir_b098e3604916eca5f90f2bb1c75b7880 -->
<g id="node8" class="node"><title>dir_b098e3604916eca5f90f2bb1c75b7880</title>
<g id="a_node8"><a xlink:href="dir_b098e3604916eca5f90f2bb1c75b7880.html" target="_top" xlink:title="Mapping">
<polygon fill="none" stroke="red" points="308,-252 254,-252 254,-216 308,-216 308,-252"/>
<text text-anchor="middle" x="281" y="-231.5" font-family="Helvetica,sans-Serif" font-size="10.00">Mapping</text>
</a>
</g>
</g>
<!-- dir_8e864c1c886fb9a88af672544595837b&#45;&gt;dir_b098e3604916eca5f90f2bb1c75b7880 -->
<g id="edge7" class="edge"><title>dir_8e864c1c886fb9a88af672544595837b&#45;&gt;dir_b098e3604916eca5f90f2bb1c75b7880</title>
<path fill="none" stroke="black" d="M150.084,-292.097C153.086,-290.701 156.104,-289.312 159,-288 195.629,-271.413 205.126,-268.034 242,-252 242.83,-251.639 243.669,-251.274 244.516,-250.906"/>
<polygon fill="black" stroke="black" points="245.956,-254.096 253.728,-246.895 243.162,-247.678 245.956,-254.096"/>
<g id="a_edge7&#45;headlabel"><a xlink:href="dir_000162_000439.html" target="_top" xlink:title="1">
<text text-anchor="middle" x="243.793" y="-255.634" font-family="Helvetica,sans-Serif" font-size="10.00">1</text>
</a>
</g>
</g>
<!-- dir_0d15e0d3244eac0561a315e6de8ee079 -->
<g id="node4" class="node"><title>dir_0d15e0d3244eac0561a315e6de8ee079</title>
<g id="a_node4"><a xlink:href="dir_0d15e0d3244eac0561a315e6de8ee079.html" target="_top" xlink:title="test">
<polygon fill="white" stroke="black" points="78,-324 24,-324 24,-288 78,-288 78,-324"/>
<text text-anchor="middle" x="51" y="-303.5" font-family="Helvetica,sans-Serif" font-size="10.00">test</text>
</a>
</g>
</g>
<!-- dir_0d15e0d3244eac0561a315e6de8ee079&#45;&gt;dir_3dca47489aa3153ac3c60c079f5f624d -->
<g id="edge1" class="edge"><title>dir_0d15e0d3244eac0561a315e6de8ee079&#45;&gt;dir_3dca47489aa3153ac3c60c079f5f624d</title>
<path fill="none" stroke="black" d="M68.7978,-287.697C77.604,-279.135 88.3821,-268.656 98.0011,-259.304"/>
<polygon fill="black" stroke="black" points="100.677,-261.585 105.407,-252.104 95.7972,-256.566 100.677,-261.585"/>
<g id="a_edge1&#45;headlabel"><a xlink:href="dir_000466_000130.html" target="_top" xlink:title="11">
<text text-anchor="middle" x="100.079" y="-263.626" font-family="Helvetica,sans-Serif" font-size="10.00">11</text>
</a>
</g>
</g>
<!-- dir_0d15e0d3244eac0561a315e6de8ee079&#45;&gt;dir_2171f7ec022c5423887b07c69b2f5b48 -->
<g id="edge2" class="edge"><title>dir_0d15e0d3244eac0561a315e6de8ee079&#45;&gt;dir_2171f7ec022c5423887b07c69b2f5b48</title>
<path fill="none" stroke="black" d="M78.0408,-292.031C109.537,-276.881 157.496,-253.658 159,-252 192.373,-215.205 193.681,-153.534 191.16,-118.155"/>
<polygon fill="black" stroke="black" points="194.637,-117.736 190.286,-108.076 187.663,-118.341 194.637,-117.736"/>
<g id="a_edge2&#45;headlabel"><a xlink:href="dir_000466_000055.html" target="_top" xlink:title="4">
<text text-anchor="middle" x="197.776" y="-118.572" font-family="Helvetica,sans-Serif" font-size="10.00">4</text>
</a>
</g>
</g>
<!-- dir_0d15e0d3244eac0561a315e6de8ee079&#45;&gt;dir_b098e3604916eca5f90f2bb1c75b7880 -->
<g id="edge3" class="edge"><title>dir_0d15e0d3244eac0561a315e6de8ee079&#45;&gt;dir_b098e3604916eca5f90f2bb1c75b7880</title>
<path fill="none" stroke="black" d="M78.2655,-291.389C81.179,-290.157 84.1276,-288.999 87,-288 153.798,-264.769 174.86,-274.223 242,-252 242.859,-251.716 243.725,-251.42 244.596,-251.114"/>
<polygon fill="black" stroke="black" points="245.877,-254.371 253.972,-247.536 243.381,-247.831 245.877,-254.371"/>
<g id="a_edge3&#45;headlabel"><a xlink:href="dir_000466_000439.html" target="_top" xlink:title="2">
<text text-anchor="middle" x="243.531" y="-255.805" font-family="Helvetica,sans-Serif" font-size="10.00">2</text>
</a>
</g>
</g>
<!-- dir_4ab6b4cc6a7edbff49100e9123df213f&#45;&gt;dir_2171f7ec022c5423887b07c69b2f5b48 -->
<g id="edge8" class="edge"><title>dir_4ab6b4cc6a7edbff49100e9123df213f&#45;&gt;dir_2171f7ec022c5423887b07c69b2f5b48</title>
<path fill="none" stroke="black" d="M136.916,-143.697C143.307,-135.22 151.997,-124.864 160.452,-115.583"/>
<polygon fill="black" stroke="black" points="163.171,-117.799 167.444,-108.104 158.058,-113.019 163.171,-117.799"/>
<g id="a_edge8&#45;headlabel"><a xlink:href="dir_000012_000055.html" target="_top" xlink:title="5">
<text text-anchor="middle" x="162.79" y="-119.864" font-family="Helvetica,sans-Serif" font-size="10.00">5</text>
</a>
</g>
</g>
<!-- dir_37c90836491b695b472bf98d1be8336b&#45;&gt;dir_4ab6b4cc6a7edbff49100e9123df213f -->
<g id="edge9" class="edge"><title>dir_37c90836491b695b472bf98d1be8336b&#45;&gt;dir_4ab6b4cc6a7edbff49100e9123df213f</title>
<path fill="none" stroke="black" d="M168.537,-36.2841C159.011,-45.8541 148.27,-58.5227 142,-72 132.998,-91.3517 129.615,-115.36 128.418,-133.562"/>
<polygon fill="black" stroke="black" points="124.911,-133.635 127.933,-143.79 131.903,-133.967 124.911,-133.635"/>
<g id="a_edge9&#45;headlabel"><a xlink:href="dir_000256_000012.html" target="_top" xlink:title="16">
<text text-anchor="middle" x="122.245" y="-127.41" font-family="Helvetica,sans-Serif" font-size="10.00">16</text>
</a>
</g>
</g>
<!-- dir_37c90836491b695b472bf98d1be8336b&#45;&gt;dir_2171f7ec022c5423887b07c69b2f5b48 -->
<g id="edge10" class="edge"><title>dir_37c90836491b695b472bf98d1be8336b&#45;&gt;dir_2171f7ec022c5423887b07c69b2f5b48</title>
<path fill="none" stroke="black" d="M193.895,-36.1043C194.701,-43.7913 194.937,-53.0537 194.604,-61.6651"/>
<polygon fill="black" stroke="black" points="191.109,-61.4805 193.916,-71.6966 198.092,-61.9597 191.109,-61.4805"/>
<g id="a_edge10&#45;headlabel"><a xlink:href="dir_000256_000055.html" target="_top" xlink:title="7">
<text text-anchor="middle" x="188.522" y="-55.2" font-family="Helvetica,sans-Serif" font-size="10.00">7</text>
</a>
</g>
</g>
<!-- dir_2171f7ec022c5423887b07c69b2f5b48&#45;&gt;dir_4ab6b4cc6a7edbff49100e9123df213f -->
<g id="edge14" class="edge"><title>dir_2171f7ec022c5423887b07c69b2f5b48&#45;&gt;dir_4ab6b4cc6a7edbff49100e9123df213f</title>
<path fill="none" stroke="black" d="M179.234,-108.104C172.879,-116.552 164.206,-126.901 155.747,-136.199"/>
<polygon fill="black" stroke="black" points="153.013,-133.998 148.747,-143.697 158.13,-138.775 153.013,-133.998"/>
<g id="a_edge14&#45;headlabel"><a xlink:href="dir_000055_000012.html" target="_top" xlink:title="28">
<text text-anchor="middle" x="153.39" y="-126.933" font-family="Helvetica,sans-Serif" font-size="10.00">28</text>
</a>
</g>
</g>
<!-- dir_2171f7ec022c5423887b07c69b2f5b48&#45;&gt;dir_37c90836491b695b472bf98d1be8336b -->
<g id="edge15" class="edge"><title>dir_2171f7ec022c5423887b07c69b2f5b48&#45;&gt;dir_37c90836491b695b472bf98d1be8336b</title>
<path fill="none" stroke="black" d="M182.084,-71.6966C181.289,-63.9827 181.062,-54.7125 181.405,-46.1124"/>
<polygon fill="black" stroke="black" points="184.898,-46.3243 182.105,-36.1043 177.915,-45.8356 184.898,-46.3243"/>
<g id="a_edge15&#45;headlabel"><a xlink:href="dir_000055_000256.html" target="_top" xlink:title="1">
<text text-anchor="middle" x="187.48" y="-47.6083" font-family="Helvetica,sans-Serif" font-size="10.00">1</text>
</a>
</g>
</g>
</g>
</svg>
