<?xml version="1.0" encoding="UTF-8" standalone="no"?>
<!DOCTYPE svg PUBLIC "-//W3C//DTD SVG 1.1//EN"
 "http://www.w3.org/Graphics/SVG/1.1/DTD/svg11.dtd">
<!-- Generated by graphviz version 2.38.0 (20140413.2041)
 -->
<!-- Title: /home/travis/build/AliceO2Group/AliceO2/Detectors/TRD/base/src Pages: 1 -->
<svg width="238pt" height="367pt"
 viewBox="0.00 0.00 238.00 367.00" xmlns="http://www.w3.org/2000/svg" xmlns:xlink="http://www.w3.org/1999/xlink">
<g id="graph0" class="graph" transform="scale(1 1) rotate(0) translate(4 363)">
<title>/home/travis/build/AliceO2Group/AliceO2/Detectors/TRD/base/src</title>
<g id="clust1" class="cluster"><title>clusterdir_09bf7f7c4011a5ccc426492db4dd0891</title>
<g id="a_clust1"><a xlink:href="dir_09bf7f7c4011a5ccc426492db4dd0891.html" target="_top" xlink:title="base">
<polygon fill="#ddddee" stroke="black" points="75,-280 75,-351 145,-351 145,-280 75,-280"/>
<text text-anchor="middle" x="110" y="-339" font-family="Helvetica,sans-Serif" font-size="10.00">base</text>
</a>
</g>
</g>
<!-- dir_bc3f0ff1fdf26bec79f7d00840858de9 -->
<g id="node1" class="node"><title>dir_bc3f0ff1fdf26bec79f7d00840858de9</title>
<g id="a_node1"><a xlink:href="dir_bc3f0ff1fdf26bec79f7d00840858de9.html" target="_top" xlink:title="src">
<polygon fill="#eeeeff" stroke="black" points="137,-324 83,-324 83,-288 137,-288 137,-324"/>
<text text-anchor="middle" x="110" y="-303.5" font-family="Helvetica,sans-Serif" font-size="10.00">src</text>
</a>
</g>
</g>
<!-- dir_8b3cc3395a6e7eccd58a8c5fa5ac689e -->
<g id="node2" class="node"><title>dir_8b3cc3395a6e7eccd58a8c5fa5ac689e</title>
<g id="a_node2"><a xlink:href="dir_8b3cc3395a6e7eccd58a8c5fa5ac689e.html" target="_top" xlink:title="include">
<polygon fill="none" stroke="red" points="82,-252 28,-252 28,-216 82,-216 82,-252"/>
<text text-anchor="middle" x="55" y="-231.5" font-family="Helvetica,sans-Serif" font-size="10.00">include</text>
</a>
</g>
</g>
<!-- dir_bc3f0ff1fdf26bec79f7d00840858de9&#45;&gt;dir_8b3cc3395a6e7eccd58a8c5fa5ac689e -->
<g id="edge4" class="edge"><title>dir_bc3f0ff1fdf26bec79f7d00840858de9&#45;&gt;dir_8b3cc3395a6e7eccd58a8c5fa5ac689e</title>
<path fill="none" stroke="black" d="M96.4045,-287.697C89.8773,-279.389 81.932,-269.277 74.7534,-260.141"/>
<polygon fill="black" stroke="black" points="77.3695,-257.805 68.4391,-252.104 71.8653,-262.13 77.3695,-257.805"/>
<g id="a_edge4&#45;headlabel"><a xlink:href="dir_000166_000145.html" target="_top" xlink:title="52">
<text text-anchor="middle" x="81.8229" y="-256.377" font-family="Helvetica,sans-Serif" font-size="10.00">52</text>
</a>
</g>
</g>
<!-- dir_4ab6b4cc6a7edbff49100e9123df213f -->
<g id="node3" class="node"><title>dir_4ab6b4cc6a7edbff49100e9123df213f</title>
<g id="a_node3"><a xlink:href="dir_4ab6b4cc6a7edbff49100e9123df213f.html" target="_top" xlink:title="Common">
<polygon fill="none" stroke="red" points="121,-36 65,-36 65,-0 121,-0 121,-36"/>
<text text-anchor="middle" x="93" y="-15.5" font-family="Helvetica,sans-Serif" font-size="10.00">Common</text>
</a>
</g>
</g>
<!-- dir_bc3f0ff1fdf26bec79f7d00840858de9&#45;&gt;dir_4ab6b4cc6a7edbff49100e9123df213f -->
<g id="edge5" class="edge"><title>dir_bc3f0ff1fdf26bec79f7d00840858de9&#45;&gt;dir_4ab6b4cc6a7edbff49100e9123df213f</title>
<path fill="none" stroke="black" d="M115.664,-287.862C127.716,-248.649 152.918,-149.78 129,-72 125.991,-62.2153 120.493,-52.6161 114.684,-44.3336"/>
<polygon fill="black" stroke="black" points="117.407,-42.1306 108.61,-36.2264 111.805,-46.3279 117.407,-42.1306"/>
<g id="a_edge5&#45;headlabel"><a xlink:href="dir_000166_000012.html" target="_top" xlink:title="2">
<text text-anchor="middle" x="121.835" y="-40.8048" font-family="Helvetica,sans-Serif" font-size="10.00">2</text>
</a>
</g>
</g>
<!-- dir_6af676bf18881990e4083e191d0e63e0 -->
<g id="node4" class="node"><title>dir_6af676bf18881990e4083e191d0e63e0</title>
<g id="a_node4"><a xlink:href="dir_6af676bf18881990e4083e191d0e63e0.html" target="_top" xlink:title="CCDB">
<polygon fill="none" stroke="red" points="230,-252 176,-252 176,-216 230,-216 230,-252"/>
<text text-anchor="middle" x="203" y="-231.5" font-family="Helvetica,sans-Serif" font-size="10.00">CCDB</text>
</a>
</g>
</g>
<!-- dir_bc3f0ff1fdf26bec79f7d00840858de9&#45;&gt;dir_6af676bf18881990e4083e191d0e63e0 -->
<g id="edge6" class="edge"><title>dir_bc3f0ff1fdf26bec79f7d00840858de9&#45;&gt;dir_6af676bf18881990e4083e191d0e63e0</title>
<path fill="none" stroke="black" d="M132.989,-287.697C144.814,-278.796 159.392,-267.823 172.179,-258.199"/>
<polygon fill="black" stroke="black" points="174.391,-260.915 180.276,-252.104 170.181,-255.322 174.391,-260.915"/>
<g id="a_edge6&#45;headlabel"><a xlink:href="dir_000166_000004.html" target="_top" xlink:title="1">
<text text-anchor="middle" x="173.226" y="-262.845" font-family="Helvetica,sans-Serif" font-size="10.00">1</text>
</a>
</g>
</g>
<!-- dir_37c90836491b695b472bf98d1be8336b -->
<g id="node5" class="node"><title>dir_37c90836491b695b472bf98d1be8336b</title>
<g id="a_node5"><a xlink:href="dir_37c90836491b695b472bf98d1be8336b.html" target="_top" xlink:title="Base">
<polygon fill="none" stroke="red" points="120,-108 66,-108 66,-72 120,-72 120,-108"/>
<text text-anchor="middle" x="93" y="-87.5" font-family="Helvetica,sans-Serif" font-size="10.00">Base</text>
</a>
</g>
</g>
<!-- dir_bc3f0ff1fdf26bec79f7d00840858de9&#45;&gt;dir_37c90836491b695b472bf98d1be8336b -->
<g id="edge7" class="edge"><title>dir_bc3f0ff1fdf26bec79f7d00840858de9&#45;&gt;dir_37c90836491b695b472bf98d1be8336b</title>
<path fill="none" stroke="black" d="M108.638,-287.849C105.697,-250.832 98.734,-163.181 95.1755,-118.386"/>
<polygon fill="black" stroke="black" points="98.6499,-117.924 94.3689,-108.232 91.6719,-118.478 98.6499,-117.924"/>
<g id="a_edge7&#45;headlabel"><a xlink:href="dir_000166_000256.html" target="_top" xlink:title="2">
<text text-anchor="middle" x="101.765" y="-118.782" font-family="Helvetica,sans-Serif" font-size="10.00">2</text>
</a>
</g>
</g>
<!-- dir_2171f7ec022c5423887b07c69b2f5b48 -->
<g id="node6" class="node"><title>dir_2171f7ec022c5423887b07c69b2f5b48</title>
<g id="a_node6"><a xlink:href="dir_2171f7ec022c5423887b07c69b2f5b48.html" target="_top" xlink:title="DataFormats">
<polygon fill="none" stroke="red" points="74,-180 0,-180 0,-144 74,-144 74,-180"/>
<text text-anchor="middle" x="37" y="-159.5" font-family="Helvetica,sans-Serif" font-size="10.00">DataFormats</text>
</a>
</g>
</g>
<!-- dir_bc3f0ff1fdf26bec79f7d00840858de9&#45;&gt;dir_2171f7ec022c5423887b07c69b2f5b48 -->
<g id="edge8" class="edge"><title>dir_bc3f0ff1fdf26bec79f7d00840858de9&#45;&gt;dir_2171f7ec022c5423887b07c69b2f5b48</title>
<path fill="none" stroke="black" d="M82.7119,-297.341C61.1758,-289.697 32.5759,-275.618 19,-252 7.9614,-232.797 14.4625,-207.862 22.575,-189.273"/>
<polygon fill="black" stroke="black" points="25.7578,-190.729 26.8798,-180.194 19.4328,-187.73 25.7578,-190.729"/>
<g id="a_edge8&#45;headlabel"><a xlink:href="dir_000166_000055.html" target="_top" xlink:title="2">
<text text-anchor="middle" x="26.7833" y="-192.694" font-family="Helvetica,sans-Serif" font-size="10.00">2</text>
</a>
</g>
</g>
<!-- dir_8b3cc3395a6e7eccd58a8c5fa5ac689e&#45;&gt;dir_2171f7ec022c5423887b07c69b2f5b48 -->
<g id="edge1" class="edge"><title>dir_8b3cc3395a6e7eccd58a8c5fa5ac689e&#45;&gt;dir_2171f7ec022c5423887b07c69b2f5b48</title>
<path fill="none" stroke="black" d="M50.5506,-215.697C48.5452,-207.898 46.1308,-198.509 43.8989,-189.829"/>
<polygon fill="black" stroke="black" points="47.2785,-188.918 41.3983,-180.104 40.499,-190.661 47.2785,-188.918"/>
<g id="a_edge1&#45;headlabel"><a xlink:href="dir_000145_000055.html" target="_top" xlink:title="3">
<text text-anchor="middle" x="50.9234" y="-189.192" font-family="Helvetica,sans-Serif" font-size="10.00">3</text>
</a>
</g>
</g>
<!-- dir_4ab6b4cc6a7edbff49100e9123df213f&#45;&gt;dir_2171f7ec022c5423887b07c69b2f5b48 -->
<g id="edge2" class="edge"><title>dir_4ab6b4cc6a7edbff49100e9123df213f&#45;&gt;dir_2171f7ec022c5423887b07c69b2f5b48</title>
<path fill="none" stroke="black" d="M86.8156,-36.1721C80.3799,-46.0997 71.5719,-59.1398 66,-72 57.4212,-91.8002 52.3087,-115.736 48.0458,-133.796"/>
<polygon fill="black" stroke="black" points="44.6059,-133.128 45.6143,-143.675 51.403,-134.801 44.6059,-133.128"/>
<g id="a_edge2&#45;headlabel"><a xlink:href="dir_000012_000055.html" target="_top" xlink:title="5">
<text text-anchor="middle" x="42.7079" y="-126.459" font-family="Helvetica,sans-Serif" font-size="10.00">5</text>
</a>
</g>
</g>
<!-- dir_6af676bf18881990e4083e191d0e63e0&#45;&gt;dir_4ab6b4cc6a7edbff49100e9123df213f -->
<g id="edge3" class="edge"><title>dir_6af676bf18881990e4083e191d0e63e0&#45;&gt;dir_4ab6b4cc6a7edbff49100e9123df213f</title>
<path fill="none" stroke="black" d="M202.242,-215.539C200.131,-184.282 192.151,-117.763 162,-72 153.774,-59.5156 141.595,-48.7623 129.749,-40.2678"/>
<polygon fill="black" stroke="black" points="131.482,-37.2137 121.243,-34.4892 127.548,-43.0039 131.482,-37.2137"/>
<g id="a_edge3&#45;headlabel"><a xlink:href="dir_000004_000012.html" target="_top" xlink:title="3">
<text text-anchor="middle" x="136.051" y="-34.3852" font-family="Helvetica,sans-Serif" font-size="10.00">3</text>
</a>
</g>
</g>
<!-- dir_37c90836491b695b472bf98d1be8336b&#45;&gt;dir_4ab6b4cc6a7edbff49100e9123df213f -->
<g id="edge9" class="edge"><title>dir_37c90836491b695b472bf98d1be8336b&#45;&gt;dir_4ab6b4cc6a7edbff49100e9123df213f</title>
<path fill="none" stroke="black" d="M93,-71.6966C93,-63.9827 93,-54.7125 93,-46.1124"/>
<polygon fill="black" stroke="black" points="96.5001,-46.1043 93,-36.1043 89.5001,-46.1044 96.5001,-46.1043"/>
<g id="a_edge9&#45;headlabel"><a xlink:href="dir_000256_000012.html" target="_top" xlink:title="16">
<text text-anchor="middle" x="99.3393" y="-47.199" font-family="Helvetica,sans-Serif" font-size="10.00">16</text>
</a>
</g>
</g>
<!-- dir_37c90836491b695b472bf98d1be8336b&#45;&gt;dir_2171f7ec022c5423887b07c69b2f5b48 -->
<g id="edge10" class="edge"><title>dir_37c90836491b695b472bf98d1be8336b&#45;&gt;dir_2171f7ec022c5423887b07c69b2f5b48</title>
<path fill="none" stroke="black" d="M85.2116,-108.104C79.3977,-116.467 71.4185,-126.694 63.5673,-135.92"/>
<polygon fill="black" stroke="black" points="60.7124,-133.867 56.7584,-143.697 65.9791,-138.478 60.7124,-133.867"/>
<g id="a_edge10&#45;headlabel"><a xlink:href="dir_000256_000055.html" target="_top" xlink:title="7">
<text text-anchor="middle" x="60.944" y="-126.792" font-family="Helvetica,sans-Serif" font-size="10.00">7</text>
</a>
</g>
</g>
<!-- dir_2171f7ec022c5423887b07c69b2f5b48&#45;&gt;dir_4ab6b4cc6a7edbff49100e9123df213f -->
<g id="edge11" class="edge"><title>dir_2171f7ec022c5423887b07c69b2f5b48&#45;&gt;dir_4ab6b4cc6a7edbff49100e9123df213f</title>
<path fill="none" stroke="black" d="M32.2607,-143.675C32.4354,-125.291 37.7375,-95.6862 48,-72 52.1789,-62.3549 58.1782,-52.6085 64.5371,-44.15"/>
<polygon fill="black" stroke="black" points="67.4155,-46.1559 70.9618,-36.1721 61.9636,-41.7653 67.4155,-46.1559"/>
<g id="a_edge11&#45;headlabel"><a xlink:href="dir_000055_000012.html" target="_top" xlink:title="28">
<text text-anchor="middle" x="67.3723" y="-48.2363" font-family="Helvetica,sans-Serif" font-size="10.00">28</text>
</a>
</g>
</g>
<!-- dir_2171f7ec022c5423887b07c69b2f5b48&#45;&gt;dir_37c90836491b695b472bf98d1be8336b -->
<g id="edge12" class="edge"><title>dir_2171f7ec022c5423887b07c69b2f5b48&#45;&gt;dir_37c90836491b695b472bf98d1be8336b</title>
<path fill="none" stroke="black" d="M44.927,-143.697C50.775,-135.305 58.7702,-125.07 66.6192,-115.861"/>
<polygon fill="black" stroke="black" points="69.4598,-117.931 73.4215,-108.104 64.1967,-113.315 69.4598,-117.931"/>
<g id="a_edge12&#45;headlabel"><a xlink:href="dir_000055_000256.html" target="_top" xlink:title="1">
<text text-anchor="middle" x="69.2245" y="-120.005" font-family="Helvetica,sans-Serif" font-size="10.00">1</text>
</a>
</g>
</g>
</g>
</svg>
