<?xml version="1.0" encoding="UTF-8" standalone="no"?>
<!DOCTYPE svg PUBLIC "-//W3C//DTD SVG 1.1//EN"
 "http://www.w3.org/Graphics/SVG/1.1/DTD/svg11.dtd">
<!-- Generated by graphviz version 2.38.0 (20140413.2041)
 -->
<!-- Title: /home/travis/build/AliceO2Group/AliceO2/GPU/GPUTracking/DataCompression Pages: 1 -->
<svg width="228pt" height="367pt"
 viewBox="0.00 0.00 228.22 367.00" xmlns="http://www.w3.org/2000/svg" xmlns:xlink="http://www.w3.org/1999/xlink">
<g id="graph0" class="graph" transform="scale(1 1) rotate(0) translate(4 363)">
<title>/home/travis/build/AliceO2Group/AliceO2/GPU/GPUTracking/DataCompression</title>
<g id="clust1" class="cluster"><title>clusterdir_77030b149987c946eb2e85728f65acc0</title>
<g id="a_clust1"><a xlink:href="dir_77030b149987c946eb2e85728f65acc0.html" target="_top" xlink:title="GPUTracking">
<polygon fill="#ddddee" stroke="black" points="29,-280 29,-351 141,-351 141,-280 29,-280"/>
<text text-anchor="middle" x="85" y="-339" font-family="Helvetica,sans-Serif" font-size="10.00">GPUTracking</text>
</a>
</g>
</g>
<!-- dir_aecab50d18d7ac5723d6b92dc6c0a5e0 -->
<g id="node1" class="node"><title>dir_aecab50d18d7ac5723d6b92dc6c0a5e0</title>
<g id="a_node1"><a xlink:href="dir_aecab50d18d7ac5723d6b92dc6c0a5e0.html" target="_top" xlink:title="DataCompression">
<polygon fill="#eeeeff" stroke="black" points="132.5,-324 37.5,-324 37.5,-288 132.5,-288 132.5,-324"/>
<text text-anchor="middle" x="85" y="-303.5" font-family="Helvetica,sans-Serif" font-size="10.00">DataCompression</text>
</a>
</g>
</g>
<!-- dir_6d1e342cb6193ce32747aa0856bf9c1e -->
<g id="node2" class="node"><title>dir_6d1e342cb6193ce32747aa0856bf9c1e</title>
<g id="a_node2"><a xlink:href="dir_6d1e342cb6193ce32747aa0856bf9c1e.html" target="_top" xlink:title="HLTHeaders">
<polygon fill="none" stroke="black" points="72,-36 0,-36 0,-0 72,-0 72,-36"/>
<text text-anchor="middle" x="36" y="-15.5" font-family="Helvetica,sans-Serif" font-size="10.00">HLTHeaders</text>
</a>
</g>
</g>
<!-- dir_aecab50d18d7ac5723d6b92dc6c0a5e0&#45;&gt;dir_6d1e342cb6193ce32747aa0856bf9c1e -->
<g id="edge4" class="edge"><title>dir_aecab50d18d7ac5723d6b92dc6c0a5e0&#45;&gt;dir_6d1e342cb6193ce32747aa0856bf9c1e</title>
<path fill="none" stroke="black" d="M66.5623,-287.697C57.6814,-278.122 47.9124,-265.454 43,-252 17.2265,-181.41 25.1596,-90.6362 31.4615,-46.0988"/>
<polygon fill="black" stroke="black" points="34.9448,-46.471 32.9673,-36.0624 28.0222,-45.4324 34.9448,-46.471"/>
<g id="a_edge4&#45;headlabel"><a xlink:href="dir_000596_000606.html" target="_top" xlink:title="1">
<text text-anchor="middle" x="37.2194" y="-47.947" font-family="Helvetica,sans-Serif" font-size="10.00">1</text>
</a>
</g>
</g>
<!-- dir_ba48ca66118492a4424f86e9da0f6902 -->
<g id="node3" class="node"><title>dir_ba48ca66118492a4424f86e9da0f6902</title>
<g id="a_node3"><a xlink:href="dir_ba48ca66118492a4424f86e9da0f6902.html" target="_top" xlink:title="Common">
<polygon fill="none" stroke="black" points="211,-36 155,-36 155,-0 211,-0 211,-36"/>
<text text-anchor="middle" x="183" y="-15.5" font-family="Helvetica,sans-Serif" font-size="10.00">Common</text>
</a>
</g>
</g>
<!-- dir_aecab50d18d7ac5723d6b92dc6c0a5e0&#45;&gt;dir_ba48ca66118492a4424f86e9da0f6902 -->
<g id="edge5" class="edge"><title>dir_aecab50d18d7ac5723d6b92dc6c0a5e0&#45;&gt;dir_ba48ca66118492a4424f86e9da0f6902</title>
<path fill="none" stroke="black" d="M109.379,-287.968C137.857,-266.499 183.659,-226.699 204,-180 223.22,-135.873 223.923,-118.631 212,-72 209.621,-62.6972 205.235,-53.2701 200.582,-44.9973"/>
<polygon fill="black" stroke="black" points="203.457,-42.9859 195.307,-36.2157 197.456,-46.5903 203.457,-42.9859"/>
<g id="a_edge5&#45;headlabel"><a xlink:href="dir_000596_000588.html" target="_top" xlink:title="5">
<text text-anchor="middle" x="207.741" y="-42.1054" font-family="Helvetica,sans-Serif" font-size="10.00">5</text>
</a>
</g>
</g>
<!-- dir_808d5540d0c117816a4e0e1b180c8334 -->
<g id="node4" class="node"><title>dir_808d5540d0c117816a4e0e1b180c8334</title>
<g id="a_node4"><a xlink:href="dir_808d5540d0c117816a4e0e1b180c8334.html" target="_top" xlink:title="Merger">
<polygon fill="none" stroke="black" points="174,-180 120,-180 120,-144 174,-144 174,-180"/>
<text text-anchor="middle" x="147" y="-159.5" font-family="Helvetica,sans-Serif" font-size="10.00">Merger</text>
</a>
</g>
</g>
<!-- dir_aecab50d18d7ac5723d6b92dc6c0a5e0&#45;&gt;dir_808d5540d0c117816a4e0e1b180c8334 -->
<g id="edge6" class="edge"><title>dir_aecab50d18d7ac5723d6b92dc6c0a5e0&#45;&gt;dir_808d5540d0c117816a4e0e1b180c8334</title>
<path fill="none" stroke="black" d="M98.7992,-287.687C106.21,-277.715 115.025,-264.678 121,-252 130.351,-232.16 137.114,-208.226 141.394,-190.177"/>
<polygon fill="black" stroke="black" points="144.834,-190.832 143.628,-180.306 138.007,-189.287 144.834,-190.832"/>
<g id="a_edge6&#45;headlabel"><a xlink:href="dir_000596_000609.html" target="_top" xlink:title="7">
<text text-anchor="middle" x="146.81" y="-192.465" font-family="Helvetica,sans-Serif" font-size="10.00">7</text>
</a>
</g>
</g>
<!-- dir_442920581a03c66cf8c08ae559108050 -->
<g id="node5" class="node"><title>dir_442920581a03c66cf8c08ae559108050</title>
<g id="a_node5"><a xlink:href="dir_442920581a03c66cf8c08ae559108050.html" target="_top" xlink:title="Base">
<polygon fill="none" stroke="red" points="112,-252 58,-252 58,-216 112,-216 112,-252"/>
<text text-anchor="middle" x="85" y="-231.5" font-family="Helvetica,sans-Serif" font-size="10.00">Base</text>
</a>
</g>
</g>
<!-- dir_aecab50d18d7ac5723d6b92dc6c0a5e0&#45;&gt;dir_442920581a03c66cf8c08ae559108050 -->
<g id="edge7" class="edge"><title>dir_aecab50d18d7ac5723d6b92dc6c0a5e0&#45;&gt;dir_442920581a03c66cf8c08ae559108050</title>
<path fill="none" stroke="black" d="M85,-287.697C85,-279.983 85,-270.712 85,-262.112"/>
<polygon fill="black" stroke="black" points="88.5001,-262.104 85,-252.104 81.5001,-262.104 88.5001,-262.104"/>
<g id="a_edge7&#45;headlabel"><a xlink:href="dir_000596_000589.html" target="_top" xlink:title="13">
<text text-anchor="middle" x="91.3393" y="-263.199" font-family="Helvetica,sans-Serif" font-size="10.00">13</text>
</a>
</g>
</g>
<!-- dir_b1a191f241d56beebc4ffdb42af892eb -->
<g id="node6" class="node"><title>dir_b1a191f241d56beebc4ffdb42af892eb</title>
<g id="a_node6"><a xlink:href="dir_b1a191f241d56beebc4ffdb42af892eb.html" target="_top" xlink:title="SliceTracker">
<polygon fill="none" stroke="black" points="135.5,-108 64.5,-108 64.5,-72 135.5,-72 135.5,-108"/>
<text text-anchor="middle" x="100" y="-87.5" font-family="Helvetica,sans-Serif" font-size="10.00">SliceTracker</text>
</a>
</g>
</g>
<!-- dir_aecab50d18d7ac5723d6b92dc6c0a5e0&#45;&gt;dir_b1a191f241d56beebc4ffdb42af892eb -->
<g id="edge8" class="edge"><title>dir_aecab50d18d7ac5723d6b92dc6c0a5e0&#45;&gt;dir_b1a191f241d56beebc4ffdb42af892eb</title>
<path fill="none" stroke="black" d="M69.3901,-287.774C61.6271,-278.03 53.0541,-265.184 49,-252 44.2972,-236.707 45.9203,-231.701 49,-216 56.0097,-180.264 73.2973,-141.861 85.8047,-117.192"/>
<polygon fill="black" stroke="black" points="89.0057,-118.622 90.4976,-108.132 82.7901,-115.402 89.0057,-118.622"/>
<g id="a_edge8&#45;headlabel"><a xlink:href="dir_000596_000611.html" target="_top" xlink:title="1">
<text text-anchor="middle" x="89.8735" y="-120.619" font-family="Helvetica,sans-Serif" font-size="10.00">1</text>
</a>
</g>
</g>
<!-- dir_808d5540d0c117816a4e0e1b180c8334&#45;&gt;dir_ba48ca66118492a4424f86e9da0f6902 -->
<g id="edge1" class="edge"><title>dir_808d5540d0c117816a4e0e1b180c8334&#45;&gt;dir_ba48ca66118492a4424f86e9da0f6902</title>
<path fill="none" stroke="black" d="M151.342,-143.871C157.505,-119.564 168.849,-74.8187 176.152,-46.0132"/>
<polygon fill="black" stroke="black" points="179.577,-46.7427 178.642,-36.1893 172.792,-45.0225 179.577,-46.7427"/>
<g id="a_edge1&#45;headlabel"><a xlink:href="dir_000609_000588.html" target="_top" xlink:title="12">
<text text-anchor="middle" x="181.446" y="-48.4248" font-family="Helvetica,sans-Serif" font-size="10.00">12</text>
</a>
</g>
</g>
<!-- dir_808d5540d0c117816a4e0e1b180c8334&#45;&gt;dir_442920581a03c66cf8c08ae559108050 -->
<g id="edge2" class="edge"><title>dir_808d5540d0c117816a4e0e1b180c8334&#45;&gt;dir_442920581a03c66cf8c08ae559108050</title>
<path fill="none" stroke="black" d="M137.745,-180.104C131.083,-188.636 122,-199.108 113.194,-208.478"/>
<polygon fill="black" stroke="black" points="110.657,-206.066 106.242,-215.697 115.699,-210.921 110.657,-206.066"/>
<g id="a_edge2&#45;headlabel"><a xlink:href="dir_000609_000589.html" target="_top" xlink:title="17">
<text text-anchor="middle" x="111.105" y="-199.007" font-family="Helvetica,sans-Serif" font-size="10.00">17</text>
</a>
</g>
</g>
<!-- dir_808d5540d0c117816a4e0e1b180c8334&#45;&gt;dir_b1a191f241d56beebc4ffdb42af892eb -->
<g id="edge3" class="edge"><title>dir_808d5540d0c117816a4e0e1b180c8334&#45;&gt;dir_b1a191f241d56beebc4ffdb42af892eb</title>
<path fill="none" stroke="black" d="M129.466,-143.697C123.163,-135.559 116.33,-125.689 110.723,-116.701"/>
<polygon fill="black" stroke="black" points="113.721,-114.896 105.589,-108.104 107.711,-118.485 113.721,-114.896"/>
<g id="a_edge3&#45;headlabel"><a xlink:href="dir_000609_000611.html" target="_top" xlink:title="17">
<text text-anchor="middle" x="118.002" y="-114.026" font-family="Helvetica,sans-Serif" font-size="10.00">17</text>
</a>
</g>
</g>
<!-- dir_442920581a03c66cf8c08ae559108050&#45;&gt;dir_6d1e342cb6193ce32747aa0856bf9c1e -->
<g id="edge9" class="edge"><title>dir_442920581a03c66cf8c08ae559108050&#45;&gt;dir_6d1e342cb6193ce32747aa0856bf9c1e</title>
<path fill="none" stroke="black" d="M80.6877,-215.642C74.7316,-191.532 63.7337,-146.525 55,-108 50.3137,-87.3284 45.3212,-63.8809 41.6304,-46.2439"/>
<polygon fill="black" stroke="black" points="44.981,-45.1659 39.5149,-36.09 38.1282,-46.5936 44.981,-45.1659"/>
<g id="a_edge9&#45;headlabel"><a xlink:href="dir_000589_000606.html" target="_top" xlink:title="5">
<text text-anchor="middle" x="48.4937" y="-45.6059" font-family="Helvetica,sans-Serif" font-size="10.00">5</text>
</a>
</g>
</g>
<!-- dir_442920581a03c66cf8c08ae559108050&#45;&gt;dir_ba48ca66118492a4424f86e9da0f6902 -->
<g id="edge11" class="edge"><title>dir_442920581a03c66cf8c08ae559108050&#45;&gt;dir_ba48ca66118492a4424f86e9da0f6902</title>
<path fill="none" stroke="black" d="M112.012,-226.649C135.383,-219.569 167.749,-205.587 183,-180 207.642,-138.658 199.135,-80.0935 190.924,-46.1774"/>
<polygon fill="black" stroke="black" points="194.311,-45.2966 188.422,-36.4894 187.534,-47.047 194.311,-45.2966"/>
<g id="a_edge11&#45;headlabel"><a xlink:href="dir_000589_000588.html" target="_top" xlink:title="27">
<text text-anchor="middle" x="197.959" y="-45.5672" font-family="Helvetica,sans-Serif" font-size="10.00">27</text>
</a>
</g>
</g>
<!-- dir_442920581a03c66cf8c08ae559108050&#45;&gt;dir_808d5540d0c117816a4e0e1b180c8334 -->
<g id="edge10" class="edge"><title>dir_442920581a03c66cf8c08ae559108050&#45;&gt;dir_808d5540d0c117816a4e0e1b180c8334</title>
<path fill="none" stroke="black" d="M94.4101,-215.697C101.11,-207.135 110.209,-196.656 119.011,-187.304"/>
<polygon fill="black" stroke="black" points="121.533,-189.732 125.955,-180.104 116.494,-184.873 121.533,-189.732"/>
<g id="a_edge10&#45;headlabel"><a xlink:href="dir_000589_000609.html" target="_top" xlink:title="10">
<text text-anchor="middle" x="121.081" y="-191.79" font-family="Helvetica,sans-Serif" font-size="10.00">10</text>
</a>
</g>
</g>
<!-- dir_442920581a03c66cf8c08ae559108050&#45;&gt;dir_b1a191f241d56beebc4ffdb42af892eb -->
<g id="edge12" class="edge"><title>dir_442920581a03c66cf8c08ae559108050&#45;&gt;dir_b1a191f241d56beebc4ffdb42af892eb</title>
<path fill="none" stroke="black" d="M82.2249,-215.871C82.223,-191.564 86.6668,-146.819 91.7137,-118.013"/>
<polygon fill="black" stroke="black" points="95.1517,-118.669 93.5933,-108.189 88.2764,-117.353 95.1517,-118.669"/>
<g id="a_edge12&#45;headlabel"><a xlink:href="dir_000589_000611.html" target="_top" xlink:title="31">
<text text-anchor="middle" x="97.265" y="-120.233" font-family="Helvetica,sans-Serif" font-size="10.00">31</text>
</a>
</g>
</g>
<!-- dir_b1a191f241d56beebc4ffdb42af892eb&#45;&gt;dir_6d1e342cb6193ce32747aa0856bf9c1e -->
<g id="edge13" class="edge"><title>dir_b1a191f241d56beebc4ffdb42af892eb&#45;&gt;dir_6d1e342cb6193ce32747aa0856bf9c1e</title>
<path fill="none" stroke="black" d="M84.1798,-71.6966C76.4295,-63.2198 66.961,-52.8636 58.4755,-43.5826"/>
<polygon fill="black" stroke="black" points="60.9691,-41.1229 51.6382,-36.1043 55.8029,-45.8464 60.9691,-41.1229"/>
<g id="a_edge13&#45;headlabel"><a xlink:href="dir_000611_000606.html" target="_top" xlink:title="2">
<text text-anchor="middle" x="65.49" y="-39.36" font-family="Helvetica,sans-Serif" font-size="10.00">2</text>
</a>
</g>
</g>
<!-- dir_b1a191f241d56beebc4ffdb42af892eb&#45;&gt;dir_ba48ca66118492a4424f86e9da0f6902 -->
<g id="edge15" class="edge"><title>dir_b1a191f241d56beebc4ffdb42af892eb&#45;&gt;dir_ba48ca66118492a4424f86e9da0f6902</title>
<path fill="none" stroke="black" d="M120.517,-71.6966C130.869,-62.9655 143.586,-52.2405 154.839,-42.7503"/>
<polygon fill="black" stroke="black" points="157.331,-45.2269 162.719,-36.1043 152.818,-39.8759 157.331,-45.2269"/>
<g id="a_edge15&#45;headlabel"><a xlink:href="dir_000611_000588.html" target="_top" xlink:title="14">
<text text-anchor="middle" x="156.414" y="-47.2148" font-family="Helvetica,sans-Serif" font-size="10.00">14</text>
</a>
</g>
</g>
<!-- dir_b1a191f241d56beebc4ffdb42af892eb&#45;&gt;dir_808d5540d0c117816a4e0e1b180c8334 -->
<g id="edge14" class="edge"><title>dir_b1a191f241d56beebc4ffdb42af892eb&#45;&gt;dir_808d5540d0c117816a4e0e1b180c8334</title>
<path fill="none" stroke="black" d="M117.379,-108.104C123.674,-116.214 130.512,-126.076 136.139,-135.078"/>
<polygon fill="black" stroke="black" points="133.159,-136.914 141.298,-143.697 139.165,-133.319 133.159,-136.914"/>
<g id="a_edge14&#45;headlabel"><a xlink:href="dir_000611_000609.html" target="_top" xlink:title="1">
<text text-anchor="middle" x="128.877" y="-132.787" font-family="Helvetica,sans-Serif" font-size="10.00">1</text>
</a>
</g>
</g>
<!-- dir_b1a191f241d56beebc4ffdb42af892eb&#45;&gt;dir_442920581a03c66cf8c08ae559108050 -->
<g id="edge16" class="edge"><title>dir_b1a191f241d56beebc4ffdb42af892eb&#45;&gt;dir_442920581a03c66cf8c08ae559108050</title>
<path fill="none" stroke="black" d="M102.775,-108.189C102.77,-132.424 98.3605,-176.888 93.34,-205.679"/>
<polygon fill="black" stroke="black" points="89.8316,-205.392 91.3938,-215.871 96.7074,-206.705 89.8316,-205.392"/>
<g id="a_edge16&#45;headlabel"><a xlink:href="dir_000611_000589.html" target="_top" xlink:title="27">
<text text-anchor="middle" x="87.7168" y="-198.829" font-family="Helvetica,sans-Serif" font-size="10.00">27</text>
</a>
</g>
</g>
</g>
</svg>
