<?xml version="1.0" encoding="UTF-8" standalone="no"?>
<!DOCTYPE svg PUBLIC "-//W3C//DTD SVG 1.1//EN"
 "http://www.w3.org/Graphics/SVG/1.1/DTD/svg11.dtd">
<!-- Generated by graphviz version 2.38.0 (20140413.2041)
 -->
<!-- Title: /home/travis/build/AliceO2Group/AliceO2/Steer/DigitizerWorkflow Pages: 1 -->
<!--zoomable 519 -->
<svg id="main" version="1.1" xmlns="http://www.w3.org/2000/svg" xmlns:xlink="http://www.w3.org/1999/xlink" xml:space="preserve" onload="init(evt)">
<style type="text/css"><![CDATA[
.edge:hover path { stroke: red; }
.edge:hover polygon { stroke: red; fill: red; }
]]></style>
<script type="text/javascript"><![CDATA[
var edges = document.getElementsByTagName('g');
if (edges && edges.length) {
  for (var i=0;i<edges.length;i++) {
    if (edges[i].id.substr(0,4)=='edge') {
      edges[i].setAttribute('class','edge');
    }
  }
}
]]></script>
        <defs>
                <circle id="rim" cx="0" cy="0" r="7"/>
                <circle id="rim2" cx="0" cy="0" r="3.5"/>
                <g id="zoomPlus">
                        <use xlink:href="#rim" fill="#404040">
                                <set attributeName="fill" to="#808080" begin="zoomplus.mouseover" end="zoomplus.mouseout"/>
                        </use>
                        <path d="M-4,0h8M0,-4v8" fill="none" stroke="white" stroke-width="1.5" pointer-events="none"/>
                </g>
                <g id="zoomMin">
                        <use xlink:href="#rim" fill="#404040">
                                <set attributeName="fill" to="#808080" begin="zoomminus.mouseover" end="zoomminus.mouseout"/>
                        </use>
                        <path d="M-4,0h8" fill="none" stroke="white" stroke-width="1.5" pointer-events="none"/>
                </g>
                <g id="dirArrow">
                        <path fill="none" stroke="white" stroke-width="1.5" d="M0,-3.0v7 M-2.5,-0.5L0,-3.0L2.5,-0.5"/>
                </g>
               <g id="resetDef">
                       <use xlink:href="#rim2" fill="#404040">
                               <set attributeName="fill" to="#808080" begin="reset.mouseover" end="reset.mouseout"/>
                       </use>
               </g>
        </defs>

<script type="text/javascript">
var viewWidth = 326;
var viewHeight = 519;
var sectionId = 'dynsection-0';
</script>
<script xlink:href="svgpan.js"/>
<svg id="graph" class="graph">
<g id="viewport">
<title>/home/travis/build/AliceO2Group/AliceO2/Steer/DigitizerWorkflow</title>
<g id="clust1" class="cluster"><title>clusterdir_40b4a122691869ee86baf7f2711ed718</title>
<g id="a_clust1"><a xlink:href="dir_40b4a122691869ee86baf7f2711ed718.html" target="_top" xlink:title="Steer">
<polygon fill="#ddddee" stroke="black" points="84,-416 84,-503 282,-503 282,-416 84,-416"/>
<text text-anchor="middle" x="183" y="-491" font-family="Helvetica,sans-Serif" font-size="10.00">Steer</text>
</a>
</g>
</g>
<g id="clust2" class="cluster"><title>clusterdir_a195a20aec66d1e163ba7321e47c9d6e</title>
<g id="a_clust2"><a xlink:href="dir_a195a20aec66d1e163ba7321e47c9d6e.html" target="_top">
<polygon fill="#eeeeff" stroke="black" points="92,-424 92,-476 274,-476 274,-424 92,-424"/>
</a>
</g>
</g>
<!-- dir_a195a20aec66d1e163ba7321e47c9d6e -->
<g id="node1" class="node"><title>dir_a195a20aec66d1e163ba7321e47c9d6e</title>
<text text-anchor="middle" x="219" y="-447.5" font-family="Helvetica,sans-Serif" font-size="10.00">DigitizerWorkflow</text>
</g>
<!-- dir_86a20ab9c6baa8064a451e42ec4f4dc0 -->
<g id="node2" class="node"><title>dir_86a20ab9c6baa8064a451e42ec4f4dc0</title>
<g id="a_node2"><a xlink:href="dir_86a20ab9c6baa8064a451e42ec4f4dc0.html" target="_top" xlink:title="src">
<polygon fill="white" stroke="black" points="154,-468 100,-468 100,-432 154,-432 154,-468"/>
<text text-anchor="middle" x="127" y="-447.5" font-family="Helvetica,sans-Serif" font-size="10.00">src</text>
</a>
</g>
</g>
<!-- dir_4ab6b4cc6a7edbff49100e9123df213f -->
<g id="node3" class="node"><title>dir_4ab6b4cc6a7edbff49100e9123df213f</title>
<g id="a_node3"><a xlink:href="dir_4ab6b4cc6a7edbff49100e9123df213f.html" target="_top" xlink:title="Common">
<polygon fill="none" stroke="red" points="185,-396 129,-396 129,-360 185,-360 185,-396"/>
<text text-anchor="middle" x="157" y="-375.5" font-family="Helvetica,sans-Serif" font-size="10.00">Common</text>
</a>
</g>
</g>
<!-- dir_86a20ab9c6baa8064a451e42ec4f4dc0&#45;&gt;dir_4ab6b4cc6a7edbff49100e9123df213f -->
<g id="edge7" class="edge"><title>dir_86a20ab9c6baa8064a451e42ec4f4dc0&#45;&gt;dir_4ab6b4cc6a7edbff49100e9123df213f</title>
<path fill="none" stroke="black" d="M134.416,-431.697C137.794,-423.813 141.87,-414.304 145.623,-405.546"/>
<polygon fill="black" stroke="black" points="148.947,-406.675 149.67,-396.104 142.513,-403.917 148.947,-406.675"/>
<g id="a_edge7&#45;headlabel"><a xlink:href="dir_000625_000012.html" target="_top" xlink:title="2">
<text text-anchor="middle" x="150.141" y="-408.597" font-family="Helvetica,sans-Serif" font-size="10.00">2</text>
</a>
</g>
</g>
<!-- dir_051dca18e802f8e9474f2e30d29c04e0 -->
<g id="node4" class="node"><title>dir_051dca18e802f8e9474f2e30d29c04e0</title>
<g id="a_node4"><a xlink:href="dir_051dca18e802f8e9474f2e30d29c04e0.html" target="_top" xlink:title="Detectors">
<polygon fill="none" stroke="red" points="180.5,-108 121.5,-108 121.5,-72 180.5,-72 180.5,-108"/>
<text text-anchor="middle" x="151" y="-87.5" font-family="Helvetica,sans-Serif" font-size="10.00">Detectors</text>
</a>
</g>
</g>
<!-- dir_86a20ab9c6baa8064a451e42ec4f4dc0&#45;&gt;dir_051dca18e802f8e9474f2e30d29c04e0 -->
<g id="edge8" class="edge"><title>dir_86a20ab9c6baa8064a451e42ec4f4dc0&#45;&gt;dir_051dca18e802f8e9474f2e30d29c04e0</title>
<path fill="none" stroke="black" d="M143.124,-431.78C148.988,-426.209 155.922,-420.353 163,-416 184.446,-402.81 194.394,-408.926 216,-396 267.63,-365.112 318,-367.164 318,-307 318,-307 318,-307 318,-233 318,-188.058 302.957,-174.555 270,-144 247.525,-123.163 215.5,-109.535 190.333,-101.323"/>
<polygon fill="black" stroke="black" points="191.299,-97.9583 180.711,-98.3345 189.223,-104.643 191.299,-97.9583"/>
<g id="a_edge8&#45;headlabel"><a xlink:href="dir_000625_000024.html" target="_top" xlink:title="68">
<text text-anchor="middle" x="195.574" y="-93.813" font-family="Helvetica,sans-Serif" font-size="10.00">68</text>
</a>
</g>
</g>
<!-- dir_8ba487e25de5ee77e05e9dce7582cb98 -->
<g id="node5" class="node"><title>dir_8ba487e25de5ee77e05e9dce7582cb98</title>
<g id="a_node5"><a xlink:href="dir_8ba487e25de5ee77e05e9dce7582cb98.html" target="_top" xlink:title="Algorithm">
<polygon fill="none" stroke="red" points="112,-36 54,-36 54,-0 112,-0 112,-36"/>
<text text-anchor="middle" x="83" y="-15.5" font-family="Helvetica,sans-Serif" font-size="10.00">Algorithm</text>
</a>
</g>
</g>
<!-- dir_86a20ab9c6baa8064a451e42ec4f4dc0&#45;&gt;dir_8ba487e25de5ee77e05e9dce7582cb98 -->
<g id="edge9" class="edge"><title>dir_86a20ab9c6baa8064a451e42ec4f4dc0&#45;&gt;dir_8ba487e25de5ee77e05e9dce7582cb98</title>
<path fill="none" stroke="black" d="M99.7553,-434.442C62.4385,-412.295 0,-366.368 0,-307 0,-307 0,-307 0,-161 0,-114.738 33.2407,-70.1598 57.6498,-43.6614"/>
<polygon fill="black" stroke="black" points="60.2351,-46.0217 64.5796,-36.3586 55.1573,-41.2033 60.2351,-46.0217"/>
<g id="a_edge9&#45;headlabel"><a xlink:href="dir_000625_000000.html" target="_top" xlink:title="1">
<text text-anchor="middle" x="59.8204" y="-48.0835" font-family="Helvetica,sans-Serif" font-size="10.00">1</text>
</a>
</g>
</g>
<!-- dir_a1435872ec32250c24e4b9798bc29a35 -->
<g id="node6" class="node"><title>dir_a1435872ec32250c24e4b9798bc29a35</title>
<g id="a_node6"><a xlink:href="dir_a1435872ec32250c24e4b9798bc29a35.html" target="_top" xlink:title="include">
<polygon fill="none" stroke="red" points="120,-324 66,-324 66,-288 120,-288 120,-324"/>
<text text-anchor="middle" x="93" y="-303.5" font-family="Helvetica,sans-Serif" font-size="10.00">include</text>
</a>
</g>
</g>
<!-- dir_86a20ab9c6baa8064a451e42ec4f4dc0&#45;&gt;dir_a1435872ec32250c24e4b9798bc29a35 -->
<g id="edge10" class="edge"><title>dir_86a20ab9c6baa8064a451e42ec4f4dc0&#45;&gt;dir_a1435872ec32250c24e4b9798bc29a35</title>
<path fill="none" stroke="black" d="M122.899,-431.871C117.079,-407.564 106.365,-362.819 99.468,-334.013"/>
<polygon fill="black" stroke="black" points="102.848,-333.099 97.1157,-324.189 96.0406,-334.729 102.848,-333.099"/>
<g id="a_edge10&#45;headlabel"><a xlink:href="dir_000625_000626.html" target="_top" xlink:title="15">
<text text-anchor="middle" x="106.446" y="-333.434" font-family="Helvetica,sans-Serif" font-size="10.00">15</text>
</a>
</g>
</g>
<!-- dir_bcbb2cf9a3d3d83e5515c82071a07177 -->
<g id="node7" class="node"><title>dir_bcbb2cf9a3d3d83e5515c82071a07177</title>
<g id="a_node7"><a xlink:href="dir_bcbb2cf9a3d3d83e5515c82071a07177.html" target="_top" xlink:title="Framework">
<polygon fill="none" stroke="red" points="241.5,-180 176.5,-180 176.5,-144 241.5,-144 241.5,-180"/>
<text text-anchor="middle" x="209" y="-159.5" font-family="Helvetica,sans-Serif" font-size="10.00">Framework</text>
</a>
</g>
</g>
<!-- dir_86a20ab9c6baa8064a451e42ec4f4dc0&#45;&gt;dir_bcbb2cf9a3d3d83e5515c82071a07177 -->
<g id="edge11" class="edge"><title>dir_86a20ab9c6baa8064a451e42ec4f4dc0&#45;&gt;dir_bcbb2cf9a3d3d83e5515c82071a07177</title>
<path fill="none" stroke="black" d="M144.424,-431.931C150.162,-426.613 156.691,-420.87 163,-416 175.978,-405.98 185.515,-410.03 194,-396 233.326,-330.976 223.099,-236.235 214.805,-190.172"/>
<polygon fill="black" stroke="black" points="218.19,-189.237 212.874,-180.072 211.314,-190.552 218.19,-189.237"/>
<g id="a_edge11&#45;headlabel"><a xlink:href="dir_000625_000031.html" target="_top" xlink:title="148">
<text text-anchor="middle" x="221.653" y="-189.735" font-family="Helvetica,sans-Serif" font-size="10.00">148</text>
</a>
</g>
</g>
<!-- dir_2171f7ec022c5423887b07c69b2f5b48 -->
<g id="node8" class="node"><title>dir_2171f7ec022c5423887b07c69b2f5b48</title>
<g id="a_node8"><a xlink:href="dir_2171f7ec022c5423887b07c69b2f5b48.html" target="_top" xlink:title="DataFormats">
<polygon fill="none" stroke="red" points="176,-252 102,-252 102,-216 176,-216 176,-252"/>
<text text-anchor="middle" x="139" y="-231.5" font-family="Helvetica,sans-Serif" font-size="10.00">DataFormats</text>
</a>
</g>
</g>
<!-- dir_86a20ab9c6baa8064a451e42ec4f4dc0&#45;&gt;dir_2171f7ec022c5423887b07c69b2f5b48 -->
<g id="edge12" class="edge"><title>dir_86a20ab9c6baa8064a451e42ec4f4dc0&#45;&gt;dir_2171f7ec022c5423887b07c69b2f5b48</title>
<path fill="none" stroke="black" d="M109.008,-431.609C80.1974,-401.565 29.6042,-338.327 57,-288 64.9866,-273.328 78.9755,-262.099 93.1621,-253.835"/>
<polygon fill="black" stroke="black" points="94.8402,-256.906 101.969,-249.069 91.5084,-250.75 94.8402,-256.906"/>
<g id="a_edge12&#45;headlabel"><a xlink:href="dir_000625_000055.html" target="_top" xlink:title="105">
<text text-anchor="middle" x="93.0303" y="-258.614" font-family="Helvetica,sans-Serif" font-size="10.00">105</text>
</a>
</g>
</g>
<!-- dir_4ab6b4cc6a7edbff49100e9123df213f&#45;&gt;dir_a1435872ec32250c24e4b9798bc29a35 -->
<g id="edge1" class="edge"><title>dir_4ab6b4cc6a7edbff49100e9123df213f&#45;&gt;dir_a1435872ec32250c24e4b9798bc29a35</title>
<path fill="none" stroke="black" d="M135.264,-359.697C126.726,-351.305 117.177,-341.07 109.239,-331.861"/>
<polygon fill="black" stroke="black" points="111.847,-329.524 102.743,-324.104 106.48,-334.018 111.847,-329.524"/>
<g id="a_edge1&#45;headlabel"><a xlink:href="dir_000012_000626.html" target="_top" xlink:title="1">
<text text-anchor="middle" x="116.331" y="-327.957" font-family="Helvetica,sans-Serif" font-size="10.00">1</text>
</a>
</g>
</g>
<!-- dir_4ab6b4cc6a7edbff49100e9123df213f&#45;&gt;dir_2171f7ec022c5423887b07c69b2f5b48 -->
<g id="edge2" class="edge"><title>dir_4ab6b4cc6a7edbff49100e9123df213f&#45;&gt;dir_2171f7ec022c5423887b07c69b2f5b48</title>
<path fill="none" stroke="black" d="M150.244,-359.871C144.618,-335.67 138.691,-291.211 137.013,-262.393"/>
<polygon fill="black" stroke="black" points="140.502,-262.035 136.588,-252.189 133.508,-262.326 140.502,-262.035"/>
<g id="a_edge2&#45;headlabel"><a xlink:href="dir_000012_000055.html" target="_top" xlink:title="5">
<text text-anchor="middle" x="143.488" y="-263.008" font-family="Helvetica,sans-Serif" font-size="10.00">5</text>
</a>
</g>
</g>
<!-- dir_051dca18e802f8e9474f2e30d29c04e0&#45;&gt;dir_4ab6b4cc6a7edbff49100e9123df213f -->
<g id="edge3" class="edge"><title>dir_051dca18e802f8e9474f2e30d29c04e0&#45;&gt;dir_4ab6b4cc6a7edbff49100e9123df213f</title>
<path fill="none" stroke="black" d="M180.605,-97.9764C203.986,-105.214 235.074,-119.08 250,-144 292.435,-214.85 220.987,-308.572 181.078,-352.415"/>
<polygon fill="black" stroke="black" points="178.501,-350.047 174.262,-359.757 183.631,-354.809 178.501,-350.047"/>
<g id="a_edge3&#45;headlabel"><a xlink:href="dir_000024_000012.html" target="_top" xlink:title="175">
<text text-anchor="middle" x="178.866" y="-342.981" font-family="Helvetica,sans-Serif" font-size="10.00">175</text>
</a>
</g>
</g>
<!-- dir_051dca18e802f8e9474f2e30d29c04e0&#45;&gt;dir_8ba487e25de5ee77e05e9dce7582cb98 -->
<g id="edge4" class="edge"><title>dir_051dca18e802f8e9474f2e30d29c04e0&#45;&gt;dir_8ba487e25de5ee77e05e9dce7582cb98</title>
<path fill="none" stroke="black" d="M134.191,-71.6966C125.874,-63.135 115.695,-52.6562 106.61,-43.3045"/>
<polygon fill="black" stroke="black" points="109.094,-40.8384 99.6156,-36.1043 104.073,-45.7159 109.094,-40.8384"/>
<g id="a_edge4&#45;headlabel"><a xlink:href="dir_000024_000000.html" target="_top" xlink:title="7">
<text text-anchor="middle" x="113.635" y="-38.9384" font-family="Helvetica,sans-Serif" font-size="10.00">7</text>
</a>
</g>
</g>
<!-- dir_051dca18e802f8e9474f2e30d29c04e0&#45;&gt;dir_bcbb2cf9a3d3d83e5515c82071a07177 -->
<g id="edge5" class="edge"><title>dir_051dca18e802f8e9474f2e30d29c04e0&#45;&gt;dir_bcbb2cf9a3d3d83e5515c82071a07177</title>
<path fill="none" stroke="black" d="M171.067,-108.104C178.794,-116.383 187.374,-126.488 194.504,-135.64"/>
<polygon fill="black" stroke="black" points="191.764,-137.819 200.579,-143.697 197.353,-133.605 191.764,-137.819"/>
<g id="a_edge5&#45;headlabel"><a xlink:href="dir_000024_000031.html" target="_top" xlink:title="340">
<text text-anchor="middle" x="187.333" y="-134.158" font-family="Helvetica,sans-Serif" font-size="10.00">340</text>
</a>
</g>
</g>
<!-- dir_051dca18e802f8e9474f2e30d29c04e0&#45;&gt;dir_2171f7ec022c5423887b07c69b2f5b48 -->
<g id="edge6" class="edge"><title>dir_051dca18e802f8e9474f2e30d29c04e0&#45;&gt;dir_2171f7ec022c5423887b07c69b2f5b48</title>
<path fill="none" stroke="black" d="M154.138,-108.189C154.645,-132.424 151.175,-176.888 146.763,-205.679"/>
<polygon fill="black" stroke="black" points="143.256,-205.427 145.032,-215.871 150.157,-206.599 143.256,-205.427"/>
<g id="a_edge6&#45;headlabel"><a xlink:href="dir_000024_000055.html" target="_top" xlink:title="650">
<text text-anchor="middle" x="141.058" y="-198.907" font-family="Helvetica,sans-Serif" font-size="10.00">650</text>
</a>
</g>
</g>
<!-- dir_8ba487e25de5ee77e05e9dce7582cb98&#45;&gt;dir_2171f7ec022c5423887b07c69b2f5b48 -->
<g id="edge13" class="edge"><title>dir_8ba487e25de5ee77e05e9dce7582cb98&#45;&gt;dir_2171f7ec022c5423887b07c69b2f5b48</title>
<path fill="none" stroke="black" d="M91.3947,-36.2325C104.66,-73.4027 127.935,-161.352 136.6,-205.996"/>
<polygon fill="black" stroke="black" points="133.159,-206.636 138.389,-215.849 140.046,-205.385 133.159,-206.636"/>
<g id="a_edge13&#45;headlabel"><a xlink:href="dir_000000_000055.html" target="_top" xlink:title="8">
<text text-anchor="middle" x="129.723" y="-201.106" font-family="Helvetica,sans-Serif" font-size="10.00">8</text>
</a>
</g>
</g>
<!-- dir_a1435872ec32250c24e4b9798bc29a35&#45;&gt;dir_4ab6b4cc6a7edbff49100e9123df213f -->
<g id="edge14" class="edge"><title>dir_a1435872ec32250c24e4b9798bc29a35&#45;&gt;dir_4ab6b4cc6a7edbff49100e9123df213f</title>
<path fill="none" stroke="black" d="M114.533,-324.104C123.055,-332.467 132.609,-342.694 140.572,-351.92"/>
<polygon fill="black" stroke="black" points="137.987,-354.284 147.095,-359.697 143.351,-349.786 137.987,-354.284"/>
<g id="a_edge14&#45;headlabel"><a xlink:href="dir_000626_000012.html" target="_top" xlink:title="2">
<text text-anchor="middle" x="133.502" y="-350.855" font-family="Helvetica,sans-Serif" font-size="10.00">2</text>
</a>
</g>
</g>
<!-- dir_a1435872ec32250c24e4b9798bc29a35&#45;&gt;dir_2171f7ec022c5423887b07c69b2f5b48 -->
<g id="edge15" class="edge"><title>dir_a1435872ec32250c24e4b9798bc29a35&#45;&gt;dir_2171f7ec022c5423887b07c69b2f5b48</title>
<path fill="none" stroke="black" d="M104.371,-287.697C109.718,-279.559 116.204,-269.689 122.111,-260.701"/>
<polygon fill="black" stroke="black" points="125.193,-262.384 127.76,-252.104 119.343,-258.539 125.193,-262.384"/>
<g id="a_edge15&#45;headlabel"><a xlink:href="dir_000626_000055.html" target="_top" xlink:title="6">
<text text-anchor="middle" x="125.592" y="-264.447" font-family="Helvetica,sans-Serif" font-size="10.00">6</text>
</a>
</g>
</g>
<!-- dir_bcbb2cf9a3d3d83e5515c82071a07177&#45;&gt;dir_4ab6b4cc6a7edbff49100e9123df213f -->
<g id="edge16" class="edge"><title>dir_bcbb2cf9a3d3d83e5515c82071a07177&#45;&gt;dir_4ab6b4cc6a7edbff49100e9123df213f</title>
<path fill="none" stroke="black" d="M205.046,-180.429C198.299,-210.007 184.027,-271.899 171,-324 168.89,-332.439 166.502,-341.609 164.303,-349.911"/>
<polygon fill="black" stroke="black" points="160.849,-349.28 161.655,-359.844 167.613,-351.083 160.849,-349.28"/>
<g id="a_edge16&#45;headlabel"><a xlink:href="dir_000031_000012.html" target="_top" xlink:title="8">
<text text-anchor="middle" x="159.032" y="-342.575" font-family="Helvetica,sans-Serif" font-size="10.00">8</text>
</a>
</g>
</g>
<!-- dir_bcbb2cf9a3d3d83e5515c82071a07177&#45;&gt;dir_051dca18e802f8e9474f2e30d29c04e0 -->
<g id="edge17" class="edge"><title>dir_bcbb2cf9a3d3d83e5515c82071a07177&#45;&gt;dir_051dca18e802f8e9474f2e30d29c04e0</title>
<path fill="none" stroke="black" d="M188.747,-143.697C181.007,-135.389 172.432,-125.277 165.325,-116.141"/>
<polygon fill="black" stroke="black" points="168.087,-113.99 159.277,-108.104 162.494,-118.199 168.087,-113.99"/>
<g id="a_edge17&#45;headlabel"><a xlink:href="dir_000031_000024.html" target="_top" xlink:title="4">
<text text-anchor="middle" x="172.517" y="-112.655" font-family="Helvetica,sans-Serif" font-size="10.00">4</text>
</a>
</g>
</g>
<!-- dir_bcbb2cf9a3d3d83e5515c82071a07177&#45;&gt;dir_8ba487e25de5ee77e05e9dce7582cb98 -->
<g id="edge18" class="edge"><title>dir_bcbb2cf9a3d3d83e5515c82071a07177&#45;&gt;dir_8ba487e25de5ee77e05e9dce7582cb98</title>
<path fill="none" stroke="black" d="M209.339,-143.76C208.845,-124.355 205.301,-92.8266 189,-72 172.32,-50.6884 144.796,-37.285 121.976,-29.2894"/>
<polygon fill="black" stroke="black" points="122.797,-25.8754 112.204,-26.087 120.617,-32.5273 122.797,-25.8754"/>
<g id="a_edge18&#45;headlabel"><a xlink:href="dir_000031_000000.html" target="_top" xlink:title="1">
<text text-anchor="middle" x="127.097" y="-21.7968" font-family="Helvetica,sans-Serif" font-size="10.00">1</text>
</a>
</g>
</g>
<!-- dir_bcbb2cf9a3d3d83e5515c82071a07177&#45;&gt;dir_2171f7ec022c5423887b07c69b2f5b48 -->
<g id="edge19" class="edge"><title>dir_bcbb2cf9a3d3d83e5515c82071a07177&#45;&gt;dir_2171f7ec022c5423887b07c69b2f5b48</title>
<path fill="none" stroke="black" d="M197.791,-180.104C190.077,-188.72 179.67,-199.316 169.703,-208.755"/>
<polygon fill="black" stroke="black" points="167.171,-206.33 162.219,-215.697 171.931,-211.463 167.171,-206.33"/>
<g id="a_edge19&#45;headlabel"><a xlink:href="dir_000031_000055.html" target="_top" xlink:title="67">
<text text-anchor="middle" x="167.876" y="-199.304" font-family="Helvetica,sans-Serif" font-size="10.00">67</text>
</a>
</g>
</g>
<!-- dir_2171f7ec022c5423887b07c69b2f5b48&#45;&gt;dir_4ab6b4cc6a7edbff49100e9123df213f -->
<g id="edge20" class="edge"><title>dir_2171f7ec022c5423887b07c69b2f5b48&#45;&gt;dir_4ab6b4cc6a7edbff49100e9123df213f</title>
<path fill="none" stroke="black" d="M145.77,-252.189C151.396,-276.424 157.32,-320.888 158.991,-349.679"/>
<polygon fill="black" stroke="black" points="155.502,-350.025 159.413,-359.871 162.496,-349.735 155.502,-350.025"/>
<g id="a_edge20&#45;headlabel"><a xlink:href="dir_000055_000012.html" target="_top" xlink:title="28">
<text text-anchor="middle" x="152.516" y="-344.051" font-family="Helvetica,sans-Serif" font-size="10.00">28</text>
</a>
</g>
</g>
<!-- dir_2171f7ec022c5423887b07c69b2f5b48&#45;&gt;dir_051dca18e802f8e9474f2e30d29c04e0 -->
<g id="edge21" class="edge"><title>dir_2171f7ec022c5423887b07c69b2f5b48&#45;&gt;dir_051dca18e802f8e9474f2e30d29c04e0</title>
<path fill="none" stroke="black" d="M135.863,-215.871C135.35,-191.67 138.815,-147.211 143.226,-118.393"/>
<polygon fill="black" stroke="black" points="146.735,-118.634 144.956,-108.189 139.834,-117.463 146.735,-118.634"/>
<g id="a_edge21&#45;headlabel"><a xlink:href="dir_000055_000024.html" target="_top" xlink:title="5">
<text text-anchor="middle" x="148.934" y="-120.152" font-family="Helvetica,sans-Serif" font-size="10.00">5</text>
</a>
</g>
</g>
<!-- dir_2171f7ec022c5423887b07c69b2f5b48&#45;&gt;dir_8ba487e25de5ee77e05e9dce7582cb98 -->
<g id="edge22" class="edge"><title>dir_2171f7ec022c5423887b07c69b2f5b48&#45;&gt;dir_8ba487e25de5ee77e05e9dce7582cb98</title>
<path fill="none" stroke="black" d="M130.634,-215.849C117.384,-178.753 94.1054,-90.8101 85.4192,-46.1027"/>
<polygon fill="black" stroke="black" points="88.857,-45.4448 83.6241,-36.2325 81.97,-46.6974 88.857,-45.4448"/>
<g id="a_edge22&#45;headlabel"><a xlink:href="dir_000055_000000.html" target="_top" xlink:title="1">
<text text-anchor="middle" x="92.2936" y="-45.9734" font-family="Helvetica,sans-Serif" font-size="10.00">1</text>
</a>
</g>
</g>
<!-- dir_2171f7ec022c5423887b07c69b2f5b48&#45;&gt;dir_bcbb2cf9a3d3d83e5515c82071a07177 -->
<g id="edge23" class="edge"><title>dir_2171f7ec022c5423887b07c69b2f5b48&#45;&gt;dir_bcbb2cf9a3d3d83e5515c82071a07177</title>
<path fill="none" stroke="black" d="M150.388,-215.697C158.142,-207.05 168.567,-196.449 178.527,-187.027"/>
<polygon fill="black" stroke="black" points="181.043,-189.468 186.001,-180.104 176.286,-184.332 181.043,-189.468"/>
<g id="a_edge23&#45;headlabel"><a xlink:href="dir_000055_000031.html" target="_top" xlink:title="6">
<text text-anchor="middle" x="180.335" y="-191.493" font-family="Helvetica,sans-Serif" font-size="10.00">6</text>
</a>
</g>
</g>
</g>
</svg>
        <g id="navigator" transform="translate(0 0)" fill="#404254">
                <rect fill="#f2f5e9" fill-opacity="0.5" stroke="#606060" stroke-width=".5" x="0" y="0" width="60" height="60"/>
                <use id="zoomplus" xlink:href="#zoomPlus" x="17" y="9" onmousedown="handleZoom(evt,'in')"/>
                <use id="zoomminus" xlink:href="#zoomMin" x="42" y="9" onmousedown="handleZoom(evt,'out')"/>
                <use id="reset" xlink:href="#resetDef" x="30" y="36" onmousedown="handleReset()"/>
                <g id="arrowUp" xlink:href="#dirArrow" transform="translate(30 24)" onmousedown="handlePan(0,-1)">
                  <use xlink:href="#rim" fill="#404040">
                        <set attributeName="fill" to="#808080" begin="arrowUp.mouseover" end="arrowUp.mouseout"/>
                  </use>
                  <path fill="none" stroke="white" stroke-width="1.5" d="M0,-3.0v7 M-2.5,-0.5L0,-3.0L2.5,-0.5"/>
                </g>
                <g id="arrowRight" xlink:href="#dirArrow" transform="rotate(90) translate(36 -43)" onmousedown="handlePan(1,0)">
                  <use xlink:href="#rim" fill="#404040">
                        <set attributeName="fill" to="#808080" begin="arrowRight.mouseover" end="arrowRight.mouseout"/>
                  </use>
                  <path fill="none" stroke="white" stroke-width="1.5" d="M0,-3.0v7 M-2.5,-0.5L0,-3.0L2.5,-0.5"/>
                </g>
                <g id="arrowDown" xlink:href="#dirArrow" transform="rotate(180) translate(-30 -48)" onmousedown="handlePan(0,1)">
                  <use xlink:href="#rim" fill="#404040">
                        <set attributeName="fill" to="#808080" begin="arrowDown.mouseover" end="arrowDown.mouseout"/>
                  </use>
                  <path fill="none" stroke="white" stroke-width="1.5" d="M0,-3.0v7 M-2.5,-0.5L0,-3.0L2.5,-0.5"/>
                </g>
                <g id="arrowLeft" xlink:href="#dirArrow" transform="rotate(270) translate(-36 17)" onmousedown="handlePan(-1,0)">
                  <use xlink:href="#rim" fill="#404040">
                        <set attributeName="fill" to="#808080" begin="arrowLeft.mouseover" end="arrowLeft.mouseout"/>
                  </use>
                  <path fill="none" stroke="white" stroke-width="1.5" d="M0,-3.0v7 M-2.5,-0.5L0,-3.0L2.5,-0.5"/>
                </g>
        </g>
        <svg viewBox="0 0 15 15" width="100%" height="30px" preserveAspectRatio="xMaxYMin meet">
         <g id="arrow_out" transform="scale(0.3 0.3)">
          <a xlink:href="dir_a195a20aec66d1e163ba7321e47c9d6e_dep_org.svg" target="_base">
           <rect id="button" ry="5" rx="5" y="6" x="6" height="38" width="38"
                fill="#f2f5e9" fill-opacity="0.5" stroke="#606060" stroke-width="1.0"/>
           <path id="arrow"
             d="M 11.500037,31.436501 C 11.940474,20.09759 22.043105,11.32322 32.158766,21.979434 L 37.068811,17.246167 C 37.068811,17.246167 37.088388,32 37.088388,32 L 22.160133,31.978069 C 22.160133,31.978069 26.997745,27.140456 26.997745,27.140456 C 18.528582,18.264221 13.291696,25.230495 11.500037,31.436501 z"
             style="fill:#404040;"/>
          </a>
         </g>
        </svg>
</svg>
