<?xml version="1.0" encoding="UTF-8" standalone="no"?>
<!DOCTYPE svg PUBLIC "-//W3C//DTD SVG 1.1//EN"
 "http://www.w3.org/Graphics/SVG/1.1/DTD/svg11.dtd">
<!-- Generated by graphviz version 2.38.0 (20140413.2041)
 -->
<!-- Title: /home/travis/build/AliceO2Group/AliceO2/Detectors/FIT Pages: 1 -->
<!--zoomable 303 -->
<svg id="main" version="1.1" xmlns="http://www.w3.org/2000/svg" xmlns:xlink="http://www.w3.org/1999/xlink" xml:space="preserve" onload="init(evt)">
<style type="text/css"><![CDATA[
.edge:hover path { stroke: red; }
.edge:hover polygon { stroke: red; fill: red; }
]]></style>
<script type="text/javascript"><![CDATA[
var edges = document.getElementsByTagName('g');
if (edges && edges.length) {
  for (var i=0;i<edges.length;i++) {
    if (edges[i].id.substr(0,4)=='edge') {
      edges[i].setAttribute('class','edge');
    }
  }
}
]]></script>
        <defs>
                <circle id="rim" cx="0" cy="0" r="7"/>
                <circle id="rim2" cx="0" cy="0" r="3.5"/>
                <g id="zoomPlus">
                        <use xlink:href="#rim" fill="#404040">
                                <set attributeName="fill" to="#808080" begin="zoomplus.mouseover" end="zoomplus.mouseout"/>
                        </use>
                        <path d="M-4,0h8M0,-4v8" fill="none" stroke="white" stroke-width="1.5" pointer-events="none"/>
                </g>
                <g id="zoomMin">
                        <use xlink:href="#rim" fill="#404040">
                                <set attributeName="fill" to="#808080" begin="zoomminus.mouseover" end="zoomminus.mouseout"/>
                        </use>
                        <path d="M-4,0h8" fill="none" stroke="white" stroke-width="1.5" pointer-events="none"/>
                </g>
                <g id="dirArrow">
                        <path fill="none" stroke="white" stroke-width="1.5" d="M0,-3.0v7 M-2.5,-0.5L0,-3.0L2.5,-0.5"/>
                </g>
               <g id="resetDef">
                       <use xlink:href="#rim2" fill="#404040">
                               <set attributeName="fill" to="#808080" begin="reset.mouseover" end="reset.mouseout"/>
                       </use>
               </g>
        </defs>

<script type="text/javascript">
var viewWidth = 595;
var viewHeight = 303;
var sectionId = 'dynsection-0';
</script>
<script xlink:href="svgpan.js"/>
<svg id="graph" class="graph">
<g id="viewport">
<title>/home/travis/build/AliceO2Group/AliceO2/Detectors/FIT</title>
<g id="clust1" class="cluster"><title>clusterdir_051dca18e802f8e9474f2e30d29c04e0</title>
<g id="a_clust1"><a xlink:href="dir_051dca18e802f8e9474f2e30d29c04e0.html" target="_top" xlink:title="Detectors">
<polygon fill="#ddddee" stroke="black" points="202.922,-128 202.922,-287 578.922,-287 578.922,-128 202.922,-128"/>
<text text-anchor="middle" x="390.922" y="-275" font-family="Helvetica,sans-Serif" font-size="10.00">Detectors</text>
</a>
</g>
</g>
<g id="clust2" class="cluster"><title>clusterdir_d14e88a79bca429480864605ee348cef</title>
<g id="a_clust2"><a xlink:href="dir_d14e88a79bca429480864605ee348cef.html" target="_top">
<polygon fill="#eeeeff" stroke="black" points="210.922,-136 210.922,-260 570.922,-260 570.922,-136 210.922,-136"/>
</a>
</g>
</g>
<!-- dir_d14e88a79bca429480864605ee348cef -->
<g id="node1" class="node"><title>dir_d14e88a79bca429480864605ee348cef</title>
<text text-anchor="middle" x="535.922" y="-231.5" font-family="Helvetica,sans-Serif" font-size="10.00">FIT</text>
</g>
<!-- dir_e149fd8c00f4d2e1086cfbf4d58a065a -->
<g id="node2" class="node"><title>dir_e149fd8c00f4d2e1086cfbf4d58a065a</title>
<g id="a_node2"><a xlink:href="dir_e149fd8c00f4d2e1086cfbf4d58a065a.html" target="_top" xlink:title="common">
<polygon fill="white" stroke="red" points="490.922,-252 436.922,-252 436.922,-216 490.922,-216 490.922,-252"/>
<text text-anchor="middle" x="463.922" y="-231.5" font-family="Helvetica,sans-Serif" font-size="10.00">common</text>
</a>
</g>
</g>
<!-- dir_a5b1c90a9b4d60b6556bfe35a03caaa0 -->
<g id="node3" class="node"><title>dir_a5b1c90a9b4d60b6556bfe35a03caaa0</title>
<g id="a_node3"><a xlink:href="dir_a5b1c90a9b4d60b6556bfe35a03caaa0.html" target="_top" xlink:title="FDD">
<polygon fill="white" stroke="red" points="344.922,-252 290.922,-252 290.922,-216 344.922,-216 344.922,-252"/>
<text text-anchor="middle" x="317.922" y="-231.5" font-family="Helvetica,sans-Serif" font-size="10.00">FDD</text>
</a>
</g>
</g>
<!-- dir_4ab6b4cc6a7edbff49100e9123df213f -->
<g id="node7" class="node"><title>dir_4ab6b4cc6a7edbff49100e9123df213f</title>
<g id="a_node7"><a xlink:href="dir_4ab6b4cc6a7edbff49100e9123df213f.html" target="_top" xlink:title="Common">
<polygon fill="none" stroke="red" points="194.922,-180 138.922,-180 138.922,-144 194.922,-144 194.922,-180"/>
<text text-anchor="middle" x="166.922" y="-159.5" font-family="Helvetica,sans-Serif" font-size="10.00">Common</text>
</a>
</g>
</g>
<!-- dir_a5b1c90a9b4d60b6556bfe35a03caaa0&#45;&gt;dir_4ab6b4cc6a7edbff49100e9123df213f -->
<g id="edge14" class="edge"><title>dir_a5b1c90a9b4d60b6556bfe35a03caaa0&#45;&gt;dir_4ab6b4cc6a7edbff49100e9123df213f</title>
<path fill="none" stroke="black" d="M290.808,-220.163C287.812,-218.754 284.804,-217.344 281.922,-216 256.123,-203.964 226.998,-190.542 204.513,-180.217"/>
<polygon fill="black" stroke="black" points="205.861,-176.985 195.312,-175.995 202.941,-183.347 205.861,-176.985"/>
<g id="a_edge14&#45;headlabel"><a xlink:href="dir_000263_000012.html" target="_top" xlink:title="4">
<text text-anchor="middle" x="210.312" y="-173.404" font-family="Helvetica,sans-Serif" font-size="10.00">4</text>
</a>
</g>
</g>
<!-- dir_37c90836491b695b472bf98d1be8336b -->
<g id="node8" class="node"><title>dir_37c90836491b695b472bf98d1be8336b</title>
<g id="a_node8"><a xlink:href="dir_37c90836491b695b472bf98d1be8336b.html" target="_top" xlink:title="Base">
<polygon fill="none" stroke="red" points="153.922,-36 99.9222,-36 99.9222,-0 153.922,-0 153.922,-36"/>
<text text-anchor="middle" x="126.922" y="-15.5" font-family="Helvetica,sans-Serif" font-size="10.00">Base</text>
</a>
</g>
</g>
<!-- dir_a5b1c90a9b4d60b6556bfe35a03caaa0&#45;&gt;dir_37c90836491b695b472bf98d1be8336b -->
<g id="edge15" class="edge"><title>dir_a5b1c90a9b4d60b6556bfe35a03caaa0&#45;&gt;dir_37c90836491b695b472bf98d1be8336b</title>
<path fill="none" stroke="black" d="M290.669,-219.353C287.753,-218.128 284.801,-216.982 281.922,-216 211.291,-191.915 169.329,-234.094 117.922,-180 84.6529,-144.991 96.8664,-119.439 105.922,-72 107.63,-63.0559 110.822,-53.6954 114.211,-45.373"/>
<polygon fill="black" stroke="black" points="117.436,-46.7341 118.204,-36.1671 111.014,-43.9489 117.436,-46.7341"/>
<g id="a_edge15&#45;headlabel"><a xlink:href="dir_000263_000256.html" target="_top" xlink:title="1">
<text text-anchor="middle" x="118.611" y="-48.6615" font-family="Helvetica,sans-Serif" font-size="10.00">1</text>
</a>
</g>
</g>
<!-- dir_bcbb2cf9a3d3d83e5515c82071a07177 -->
<g id="node9" class="node"><title>dir_bcbb2cf9a3d3d83e5515c82071a07177</title>
<g id="a_node9"><a xlink:href="dir_bcbb2cf9a3d3d83e5515c82071a07177.html" target="_top" xlink:title="Framework">
<polygon fill="none" stroke="red" points="314.422,-36 249.422,-36 249.422,-0 314.422,-0 314.422,-36"/>
<text text-anchor="middle" x="281.922" y="-15.5" font-family="Helvetica,sans-Serif" font-size="10.00">Framework</text>
</a>
</g>
</g>
<!-- dir_a5b1c90a9b4d60b6556bfe35a03caaa0&#45;&gt;dir_bcbb2cf9a3d3d83e5515c82071a07177 -->
<g id="edge16" class="edge"><title>dir_a5b1c90a9b4d60b6556bfe35a03caaa0&#45;&gt;dir_bcbb2cf9a3d3d83e5515c82071a07177</title>
<path fill="none" stroke="black" d="M318.563,-215.775C319.043,-194.867 318.919,-158.607 313.922,-128 309.232,-99.2661 299.31,-67.4261 291.75,-45.6168"/>
<polygon fill="black" stroke="black" points="295.004,-44.3197 288.366,-36.0619 288.405,-46.6567 295.004,-44.3197"/>
<g id="a_edge16&#45;headlabel"><a xlink:href="dir_000263_000031.html" target="_top" xlink:title="17">
<text text-anchor="middle" x="298.88" y="-44.2602" font-family="Helvetica,sans-Serif" font-size="10.00">17</text>
</a>
</g>
</g>
<!-- dir_2171f7ec022c5423887b07c69b2f5b48 -->
<g id="node10" class="node"><title>dir_2171f7ec022c5423887b07c69b2f5b48</title>
<g id="a_node10"><a xlink:href="dir_2171f7ec022c5423887b07c69b2f5b48.html" target="_top" xlink:title="DataFormats">
<polygon fill="none" stroke="red" points="196.922,-108 122.922,-108 122.922,-72 196.922,-72 196.922,-108"/>
<text text-anchor="middle" x="159.922" y="-87.5" font-family="Helvetica,sans-Serif" font-size="10.00">DataFormats</text>
</a>
</g>
</g>
<!-- dir_a5b1c90a9b4d60b6556bfe35a03caaa0&#45;&gt;dir_2171f7ec022c5423887b07c69b2f5b48 -->
<g id="edge17" class="edge"><title>dir_a5b1c90a9b4d60b6556bfe35a03caaa0&#45;&gt;dir_2171f7ec022c5423887b07c69b2f5b48</title>
<path fill="none" stroke="black" d="M290.652,-219.402C287.74,-218.167 284.792,-217.005 281.922,-216 216.4,-193.053 172.986,-234.454 129.922,-180 115.586,-161.872 122.201,-149.783 129.922,-128 131.352,-123.966 133.43,-120.051 135.835,-116.372"/>
<polygon fill="black" stroke="black" points="138.707,-118.375 141.891,-108.27 133.1,-114.185 138.707,-118.375"/>
<g id="a_edge17&#45;headlabel"><a xlink:href="dir_000263_000055.html" target="_top" xlink:title="23">
<text text-anchor="middle" x="138.83" y="-120.454" font-family="Helvetica,sans-Serif" font-size="10.00">23</text>
</a>
</g>
</g>
<!-- dir_732f729910dd598014f768fa2866f334 -->
<g id="node4" class="node"><title>dir_732f729910dd598014f768fa2866f334</title>
<g id="a_node4"><a xlink:href="dir_732f729910dd598014f768fa2866f334.html" target="_top" xlink:title="FT0">
<polygon fill="white" stroke="red" points="304.922,-180 250.922,-180 250.922,-144 304.922,-144 304.922,-180"/>
<text text-anchor="middle" x="277.922" y="-159.5" font-family="Helvetica,sans-Serif" font-size="10.00">FT0</text>
</a>
</g>
</g>
<!-- dir_732f729910dd598014f768fa2866f334&#45;&gt;dir_4ab6b4cc6a7edbff49100e9123df213f -->
<g id="edge10" class="edge"><title>dir_732f729910dd598014f768fa2866f334&#45;&gt;dir_4ab6b4cc6a7edbff49100e9123df213f</title>
<path fill="none" stroke="black" d="M250.748,-162C235.678,-162 220.609,-162 205.539,-162"/>
<polygon fill="black" stroke="black" points="205.106,-158.5 195.106,-162 205.106,-165.5 205.106,-158.5"/>
<g id="a_edge10&#45;headlabel"><a xlink:href="dir_000267_000012.html" target="_top" xlink:title="4">
<text text-anchor="middle" x="208.7" y="-153.161" font-family="Helvetica,sans-Serif" font-size="10.00">4</text>
</a>
</g>
</g>
<!-- dir_732f729910dd598014f768fa2866f334&#45;&gt;dir_37c90836491b695b472bf98d1be8336b -->
<g id="edge11" class="edge"><title>dir_732f729910dd598014f768fa2866f334&#45;&gt;dir_37c90836491b695b472bf98d1be8336b</title>
<path fill="none" stroke="black" d="M266.51,-143.99C253.315,-125.077 230.269,-94.2643 205.922,-72 192.801,-60.001 176.745,-48.721 162.542,-39.6773"/>
<polygon fill="black" stroke="black" points="164.321,-36.6618 153.982,-34.3488 160.622,-42.6046 164.321,-36.6618"/>
<g id="a_edge11&#45;headlabel"><a xlink:href="dir_000267_000256.html" target="_top" xlink:title="1">
<text text-anchor="middle" x="168.873" y="-33.6508" font-family="Helvetica,sans-Serif" font-size="10.00">1</text>
</a>
</g>
</g>
<!-- dir_732f729910dd598014f768fa2866f334&#45;&gt;dir_bcbb2cf9a3d3d83e5515c82071a07177 -->
<g id="edge12" class="edge"><title>dir_732f729910dd598014f768fa2866f334&#45;&gt;dir_bcbb2cf9a3d3d83e5515c82071a07177</title>
<path fill="none" stroke="black" d="M278.405,-143.871C279.086,-119.67 280.339,-75.2108 281.151,-46.3932"/>
<polygon fill="black" stroke="black" points="284.655,-46.2839 281.438,-36.1893 277.658,-46.0867 284.655,-46.2839"/>
<g id="a_edge12&#45;headlabel"><a xlink:href="dir_000267_000031.html" target="_top" xlink:title="2">
<text text-anchor="middle" x="287.392" y="-47.457" font-family="Helvetica,sans-Serif" font-size="10.00">2</text>
</a>
</g>
</g>
<!-- dir_732f729910dd598014f768fa2866f334&#45;&gt;dir_2171f7ec022c5423887b07c69b2f5b48 -->
<g id="edge13" class="edge"><title>dir_732f729910dd598014f768fa2866f334&#45;&gt;dir_2171f7ec022c5423887b07c69b2f5b48</title>
<path fill="none" stroke="black" d="M250.507,-144.265C243.279,-138.734 235.496,-132.778 227.922,-128 219.267,-122.54 209.684,-117.335 200.478,-112.644"/>
<polygon fill="black" stroke="black" points="201.956,-109.47 191.446,-108.135 198.829,-115.733 201.956,-109.47"/>
<g id="a_edge13&#45;headlabel"><a xlink:href="dir_000267_000055.html" target="_top" xlink:title="33">
<text text-anchor="middle" x="206.44" y="-106.036" font-family="Helvetica,sans-Serif" font-size="10.00">33</text>
</a>
</g>
</g>
<!-- dir_47779a59737632a3da2336a4e8799b86 -->
<g id="node5" class="node"><title>dir_47779a59737632a3da2336a4e8799b86</title>
<g id="a_node5"><a xlink:href="dir_47779a59737632a3da2336a4e8799b86.html" target="_top" xlink:title="FV0">
<polygon fill="white" stroke="red" points="272.922,-252 218.922,-252 218.922,-216 272.922,-216 272.922,-252"/>
<text text-anchor="middle" x="245.922" y="-231.5" font-family="Helvetica,sans-Serif" font-size="10.00">FV0</text>
</a>
</g>
</g>
<!-- dir_47779a59737632a3da2336a4e8799b86&#45;&gt;dir_37c90836491b695b472bf98d1be8336b -->
<g id="edge8" class="edge"><title>dir_47779a59737632a3da2336a4e8799b86&#45;&gt;dir_37c90836491b695b472bf98d1be8336b</title>
<path fill="none" stroke="black" d="M218.66,-230.712C164.257,-225.521 45.3366,-210.834 20.9222,-180 -8.87492,-142.368 -4.31288,-112.831 20.9222,-72 35.9433,-47.6954 65.8587,-34.1635 90.0896,-26.8687"/>
<polygon fill="black" stroke="black" points="91.026,-30.2411 99.7275,-24.1968 89.1559,-23.4956 91.026,-30.2411"/>
<g id="a_edge8&#45;headlabel"><a xlink:href="dir_000271_000256.html" target="_top" xlink:title="1">
<text text-anchor="middle" x="88.3205" y="-31.4375" font-family="Helvetica,sans-Serif" font-size="10.00">1</text>
</a>
</g>
</g>
<!-- dir_47779a59737632a3da2336a4e8799b86&#45;&gt;dir_2171f7ec022c5423887b07c69b2f5b48 -->
<g id="edge9" class="edge"><title>dir_47779a59737632a3da2336a4e8799b86&#45;&gt;dir_2171f7ec022c5423887b07c69b2f5b48</title>
<path fill="none" stroke="black" d="M218.632,-232.208C183.741,-229.55 124.546,-219.145 96.9222,-180 83.597,-161.117 85.4411,-148.058 96.9222,-128 100.998,-120.879 107.037,-114.994 113.786,-110.176"/>
<polygon fill="black" stroke="black" points="116.012,-112.911 122.621,-104.63 112.291,-106.982 116.012,-112.911"/>
<g id="a_edge9&#45;headlabel"><a xlink:href="dir_000271_000055.html" target="_top" xlink:title="3">
<text text-anchor="middle" x="114.478" y="-114.727" font-family="Helvetica,sans-Serif" font-size="10.00">3</text>
</a>
</g>
</g>
<!-- dir_5ce6e9398434f08eb70f7bcae577b527 -->
<g id="node6" class="node"><title>dir_5ce6e9398434f08eb70f7bcae577b527</title>
<g id="a_node6"><a xlink:href="dir_5ce6e9398434f08eb70f7bcae577b527.html" target="_top" xlink:title="workflow">
<polygon fill="white" stroke="red" points="418.922,-252 362.922,-252 362.922,-216 418.922,-216 418.922,-252"/>
<text text-anchor="middle" x="390.922" y="-231.5" font-family="Helvetica,sans-Serif" font-size="10.00">workflow</text>
</a>
</g>
</g>
<!-- dir_5ce6e9398434f08eb70f7bcae577b527&#45;&gt;dir_732f729910dd598014f768fa2866f334 -->
<g id="edge2" class="edge"><title>dir_5ce6e9398434f08eb70f7bcae577b527&#45;&gt;dir_732f729910dd598014f768fa2866f334</title>
<path fill="none" stroke="black" d="M363.279,-215.876C348.394,-206.655 329.857,-195.172 313.864,-185.265"/>
<polygon fill="black" stroke="black" points="315.624,-182.238 305.28,-179.947 311.938,-188.189 315.624,-182.238"/>
<g id="a_edge2&#45;headlabel"><a xlink:href="dir_000345_000267.html" target="_top" xlink:title="1">
<text text-anchor="middle" x="320.175" y="-179.217" font-family="Helvetica,sans-Serif" font-size="10.00">1</text>
</a>
</g>
</g>
<!-- dir_5ce6e9398434f08eb70f7bcae577b527&#45;&gt;dir_4ab6b4cc6a7edbff49100e9123df213f -->
<g id="edge1" class="edge"><title>dir_5ce6e9398434f08eb70f7bcae577b527&#45;&gt;dir_4ab6b4cc6a7edbff49100e9123df213f</title>
<path fill="none" stroke="black" d="M362.868,-219.44C359.88,-218.198 356.859,-217.024 353.922,-216 290.407,-193.858 270.75,-201.224 206.922,-180 206.197,-179.759 205.467,-179.51 204.733,-179.255"/>
<polygon fill="black" stroke="black" points="205.704,-175.881 195.112,-175.648 203.247,-182.436 205.704,-175.881"/>
<g id="a_edge1&#45;headlabel"><a xlink:href="dir_000345_000012.html" target="_top" xlink:title="1">
<text text-anchor="middle" x="210.066" y="-171.984" font-family="Helvetica,sans-Serif" font-size="10.00">1</text>
</a>
</g>
</g>
<!-- dir_5ce6e9398434f08eb70f7bcae577b527&#45;&gt;dir_bcbb2cf9a3d3d83e5515c82071a07177 -->
<g id="edge3" class="edge"><title>dir_5ce6e9398434f08eb70f7bcae577b527&#45;&gt;dir_bcbb2cf9a3d3d83e5515c82071a07177</title>
<path fill="none" stroke="black" d="M384.76,-215.992C373.603,-186.001 348.545,-122.143 319.922,-72 314.534,-62.5604 307.843,-52.7474 301.584,-44.1685"/>
<polygon fill="black" stroke="black" points="304.32,-41.9817 295.534,-36.0604 298.71,-46.1682 304.32,-41.9817"/>
<g id="a_edge3&#45;headlabel"><a xlink:href="dir_000345_000031.html" target="_top" xlink:title="16">
<text text-anchor="middle" x="308.745" y="-40.6645" font-family="Helvetica,sans-Serif" font-size="10.00">16</text>
</a>
</g>
</g>
<!-- dir_5ce6e9398434f08eb70f7bcae577b527&#45;&gt;dir_2171f7ec022c5423887b07c69b2f5b48 -->
<g id="edge4" class="edge"><title>dir_5ce6e9398434f08eb70f7bcae577b527&#45;&gt;dir_2171f7ec022c5423887b07c69b2f5b48</title>
<path fill="none" stroke="black" d="M362.79,-219.653C359.817,-218.369 356.821,-217.127 353.922,-216 305.191,-197.051 284.313,-210.608 241.922,-180 218.715,-163.244 223.462,-148.918 203.922,-128 199.732,-123.514 195.016,-119.049 190.268,-114.852"/>
<polygon fill="black" stroke="black" points="192.216,-111.913 182.336,-108.088 187.674,-117.239 192.216,-111.913"/>
<g id="a_edge4&#45;headlabel"><a xlink:href="dir_000345_000055.html" target="_top" xlink:title="9">
<text text-anchor="middle" x="196.793" y="-109.585" font-family="Helvetica,sans-Serif" font-size="10.00">9</text>
</a>
</g>
</g>
<!-- dir_4ab6b4cc6a7edbff49100e9123df213f&#45;&gt;dir_2171f7ec022c5423887b07c69b2f5b48 -->
<g id="edge5" class="edge"><title>dir_4ab6b4cc6a7edbff49100e9123df213f&#45;&gt;dir_2171f7ec022c5423887b07c69b2f5b48</title>
<path fill="none" stroke="black" d="M159.276,-143.697C157.709,-135.983 156.556,-126.712 156.038,-118.112"/>
<polygon fill="black" stroke="black" points="159.536,-117.995 155.738,-108.104 152.539,-118.205 159.536,-117.995"/>
<g id="a_edge5&#45;headlabel"><a xlink:href="dir_000012_000055.html" target="_top" xlink:title="5">
<text text-anchor="middle" x="162.482" y="-119.003" font-family="Helvetica,sans-Serif" font-size="10.00">5</text>
</a>
</g>
</g>
<!-- dir_37c90836491b695b472bf98d1be8336b&#45;&gt;dir_4ab6b4cc6a7edbff49100e9123df213f -->
<g id="edge6" class="edge"><title>dir_37c90836491b695b472bf98d1be8336b&#45;&gt;dir_4ab6b4cc6a7edbff49100e9123df213f</title>
<path fill="none" stroke="black" d="M119.295,-36.0546C112.214,-54.4689 104.122,-84.3402 113.922,-108 118.467,-118.972 126.507,-128.857 134.973,-137.036"/>
<polygon fill="black" stroke="black" points="132.674,-139.674 142.446,-143.768 137.359,-134.474 132.674,-139.674"/>
<g id="a_edge6&#45;headlabel"><a xlink:href="dir_000256_000012.html" target="_top" xlink:title="16">
<text text-anchor="middle" x="128.102" y="-136.878" font-family="Helvetica,sans-Serif" font-size="10.00">16</text>
</a>
</g>
</g>
<!-- dir_37c90836491b695b472bf98d1be8336b&#45;&gt;dir_2171f7ec022c5423887b07c69b2f5b48 -->
<g id="edge7" class="edge"><title>dir_37c90836491b695b472bf98d1be8336b&#45;&gt;dir_2171f7ec022c5423887b07c69b2f5b48</title>
<path fill="none" stroke="black" d="M140.881,-36.1043C145.407,-43.9602 150.115,-53.4616 153.884,-62.232"/>
<polygon fill="black" stroke="black" points="150.709,-63.7184 157.681,-71.6966 157.206,-61.1124 150.709,-63.7184"/>
<g id="a_edge7&#45;headlabel"><a xlink:href="dir_000256_000055.html" target="_top" xlink:title="7">
<text text-anchor="middle" x="146.736" y="-58.9392" font-family="Helvetica,sans-Serif" font-size="10.00">7</text>
</a>
</g>
</g>
<!-- dir_bcbb2cf9a3d3d83e5515c82071a07177&#45;&gt;dir_4ab6b4cc6a7edbff49100e9123df213f -->
<g id="edge18" class="edge"><title>dir_bcbb2cf9a3d3d83e5515c82071a07177&#45;&gt;dir_4ab6b4cc6a7edbff49100e9123df213f</title>
<path fill="none" stroke="black" d="M268.001,-36.1893C247.856,-61.0649 210.45,-107.252 187.227,-135.929"/>
<polygon fill="black" stroke="black" points="184.368,-133.898 180.794,-143.871 189.807,-138.303 184.368,-133.898"/>
<g id="a_edge18&#45;headlabel"><a xlink:href="dir_000031_000012.html" target="_top" xlink:title="8">
<text text-anchor="middle" x="184.423" y="-126.817" font-family="Helvetica,sans-Serif" font-size="10.00">8</text>
</a>
</g>
</g>
<!-- dir_bcbb2cf9a3d3d83e5515c82071a07177&#45;&gt;dir_2171f7ec022c5423887b07c69b2f5b48 -->
<g id="edge19" class="edge"><title>dir_bcbb2cf9a3d3d83e5515c82071a07177&#45;&gt;dir_2171f7ec022c5423887b07c69b2f5b48</title>
<path fill="none" stroke="black" d="M257.867,-36.1898C242.711,-45.4378 222.793,-56.9474 204.838,-66.859"/>
<polygon fill="black" stroke="black" points="202.758,-64.0073 195.664,-71.8761 206.117,-70.1489 202.758,-64.0073"/>
<g id="a_edge19&#45;headlabel"><a xlink:href="dir_000031_000055.html" target="_top" xlink:title="67">
<text text-anchor="middle" x="204.55" y="-57.2915" font-family="Helvetica,sans-Serif" font-size="10.00">67</text>
</a>
</g>
</g>
<!-- dir_2171f7ec022c5423887b07c69b2f5b48&#45;&gt;dir_732f729910dd598014f768fa2866f334 -->
<g id="edge22" class="edge"><title>dir_2171f7ec022c5423887b07c69b2f5b48&#45;&gt;dir_732f729910dd598014f768fa2866f334</title>
<path fill="none" stroke="black" d="M196.965,-103.027C212.712,-109.635 230.744,-118.424 245.922,-128 250.443,-130.852 255.039,-134.124 259.331,-137.475"/>
<polygon fill="black" stroke="black" points="257.182,-140.239 267.114,-143.926 261.649,-134.85 257.182,-140.239"/>
<g id="a_edge22&#45;headlabel"><a xlink:href="dir_000055_000267.html" target="_top" xlink:title="1">
<text text-anchor="middle" x="252.602" y="-137.631" font-family="Helvetica,sans-Serif" font-size="10.00">1</text>
</a>
</g>
</g>
<!-- dir_2171f7ec022c5423887b07c69b2f5b48&#45;&gt;dir_4ab6b4cc6a7edbff49100e9123df213f -->
<g id="edge20" class="edge"><title>dir_2171f7ec022c5423887b07c69b2f5b48&#45;&gt;dir_4ab6b4cc6a7edbff49100e9123df213f</title>
<path fill="none" stroke="black" d="M167.528,-108.104C169.102,-115.791 170.264,-125.054 170.793,-133.665"/>
<polygon fill="black" stroke="black" points="167.296,-133.811 171.108,-143.697 174.292,-133.592 167.296,-133.811"/>
<g id="a_edge20&#45;headlabel"><a xlink:href="dir_000055_000012.html" target="_top" xlink:title="28">
<text text-anchor="middle" x="164.345" y="-127.808" font-family="Helvetica,sans-Serif" font-size="10.00">28</text>
</a>
</g>
</g>
<!-- dir_2171f7ec022c5423887b07c69b2f5b48&#45;&gt;dir_37c90836491b695b472bf98d1be8336b -->
<g id="edge21" class="edge"><title>dir_2171f7ec022c5423887b07c69b2f5b48&#45;&gt;dir_37c90836491b695b472bf98d1be8336b</title>
<path fill="none" stroke="black" d="M145.849,-71.6966C141.32,-63.8132 136.618,-54.3042 132.865,-45.5464"/>
<polygon fill="black" stroke="black" points="136.053,-44.0907 129.091,-36.1043 129.553,-46.6891 136.053,-44.0907"/>
<g id="a_edge21&#45;headlabel"><a xlink:href="dir_000055_000256.html" target="_top" xlink:title="1">
<text text-anchor="middle" x="140.023" y="-43.8747" font-family="Helvetica,sans-Serif" font-size="10.00">1</text>
</a>
</g>
</g>
<!-- dir_2171f7ec022c5423887b07c69b2f5b48&#45;&gt;dir_bcbb2cf9a3d3d83e5515c82071a07177 -->
<g id="edge23" class="edge"><title>dir_2171f7ec022c5423887b07c69b2f5b48&#45;&gt;dir_bcbb2cf9a3d3d83e5515c82071a07177</title>
<path fill="none" stroke="black" d="M183.87,-71.8761C199.939,-62.0671 221.397,-49.6976 240.19,-39.389"/>
<polygon fill="black" stroke="black" points="242.048,-42.3625 249.166,-34.5142 238.708,-36.2111 242.048,-42.3625"/>
<g id="a_edge23&#45;headlabel"><a xlink:href="dir_000055_000031.html" target="_top" xlink:title="6">
<text text-anchor="middle" x="240.245" y="-44.073" font-family="Helvetica,sans-Serif" font-size="10.00">6</text>
</a>
</g>
</g>
</g>
</svg>
        <g id="navigator" transform="translate(0 0)" fill="#404254">
                <rect fill="#f2f5e9" fill-opacity="0.5" stroke="#606060" stroke-width=".5" x="0" y="0" width="60" height="60"/>
                <use id="zoomplus" xlink:href="#zoomPlus" x="17" y="9" onmousedown="handleZoom(evt,'in')"/>
                <use id="zoomminus" xlink:href="#zoomMin" x="42" y="9" onmousedown="handleZoom(evt,'out')"/>
                <use id="reset" xlink:href="#resetDef" x="30" y="36" onmousedown="handleReset()"/>
                <g id="arrowUp" xlink:href="#dirArrow" transform="translate(30 24)" onmousedown="handlePan(0,-1)">
                  <use xlink:href="#rim" fill="#404040">
                        <set attributeName="fill" to="#808080" begin="arrowUp.mouseover" end="arrowUp.mouseout"/>
                  </use>
                  <path fill="none" stroke="white" stroke-width="1.5" d="M0,-3.0v7 M-2.5,-0.5L0,-3.0L2.5,-0.5"/>
                </g>
                <g id="arrowRight" xlink:href="#dirArrow" transform="rotate(90) translate(36 -43)" onmousedown="handlePan(1,0)">
                  <use xlink:href="#rim" fill="#404040">
                        <set attributeName="fill" to="#808080" begin="arrowRight.mouseover" end="arrowRight.mouseout"/>
                  </use>
                  <path fill="none" stroke="white" stroke-width="1.5" d="M0,-3.0v7 M-2.5,-0.5L0,-3.0L2.5,-0.5"/>
                </g>
                <g id="arrowDown" xlink:href="#dirArrow" transform="rotate(180) translate(-30 -48)" onmousedown="handlePan(0,1)">
                  <use xlink:href="#rim" fill="#404040">
                        <set attributeName="fill" to="#808080" begin="arrowDown.mouseover" end="arrowDown.mouseout"/>
                  </use>
                  <path fill="none" stroke="white" stroke-width="1.5" d="M0,-3.0v7 M-2.5,-0.5L0,-3.0L2.5,-0.5"/>
                </g>
                <g id="arrowLeft" xlink:href="#dirArrow" transform="rotate(270) translate(-36 17)" onmousedown="handlePan(-1,0)">
                  <use xlink:href="#rim" fill="#404040">
                        <set attributeName="fill" to="#808080" begin="arrowLeft.mouseover" end="arrowLeft.mouseout"/>
                  </use>
                  <path fill="none" stroke="white" stroke-width="1.5" d="M0,-3.0v7 M-2.5,-0.5L0,-3.0L2.5,-0.5"/>
                </g>
        </g>
        <svg viewBox="0 0 15 15" width="100%" height="30px" preserveAspectRatio="xMaxYMin meet">
         <g id="arrow_out" transform="scale(0.3 0.3)">
          <a xlink:href="dir_d14e88a79bca429480864605ee348cef_dep_org.svg" target="_base">
           <rect id="button" ry="5" rx="5" y="6" x="6" height="38" width="38"
                fill="#f2f5e9" fill-opacity="0.5" stroke="#606060" stroke-width="1.0"/>
           <path id="arrow"
             d="M 11.500037,31.436501 C 11.940474,20.09759 22.043105,11.32322 32.158766,21.979434 L 37.068811,17.246167 C 37.068811,17.246167 37.088388,32 37.088388,32 L 22.160133,31.978069 C 22.160133,31.978069 26.997745,27.140456 26.997745,27.140456 C 18.528582,18.264221 13.291696,25.230495 11.500037,31.436501 z"
             style="fill:#404040;"/>
          </a>
         </g>
        </svg>
</svg>
