<?xml version="1.0" encoding="UTF-8" standalone="no"?>
<!DOCTYPE svg PUBLIC "-//W3C//DTD SVG 1.1//EN"
 "http://www.w3.org/Graphics/SVG/1.1/DTD/svg11.dtd">
<!-- Generated by graphviz version 2.38.0 (20140413.2041)
 -->
<!-- Title: /home/travis/build/AliceO2Group/AliceO2/DataFormats/simulation/include Pages: 1 -->
<svg width="301pt" height="321pt"
 viewBox="0.00 0.00 301.16 321.08" xmlns="http://www.w3.org/2000/svg" xmlns:xlink="http://www.w3.org/1999/xlink">
<g id="graph0" class="graph" transform="scale(1 1) rotate(0) translate(4 317.08)">
<title>/home/travis/build/AliceO2Group/AliceO2/DataFormats/simulation/include</title>
<g id="clust1" class="cluster"><title>clusterdir_047746f9f311f49446db9474b7431d0d</title>
<g id="a_clust1"><a xlink:href="dir_047746f9f311f49446db9474b7431d0d.html" target="_top" xlink:title="simulation">
<polygon fill="#ddddee" stroke="black" points="8,-200 8,-287 226,-287 226,-200 8,-200"/>
<text text-anchor="middle" x="117" y="-275" font-family="Helvetica,sans-Serif" font-size="10.00">simulation</text>
</a>
</g>
</g>
<g id="clust2" class="cluster"><title>clusterdir_e977c6a9672cee72083a88d55f0ce0c6</title>
<g id="a_clust2"><a xlink:href="dir_e977c6a9672cee72083a88d55f0ce0c6.html" target="_top">
<polygon fill="#eeeeff" stroke="black" points="16,-208 16,-260 218,-260 218,-208 16,-208"/>
</a>
</g>
</g>
<!-- dir_e977c6a9672cee72083a88d55f0ce0c6 -->
<g id="node1" class="node"><title>dir_e977c6a9672cee72083a88d55f0ce0c6</title>
<text text-anchor="middle" x="183" y="-231.5" font-family="Helvetica,sans-Serif" font-size="10.00">include</text>
</g>
<!-- dir_af0e56203f4f35107f06f72cd061d1bf -->
<g id="node2" class="node"><title>dir_af0e56203f4f35107f06f72cd061d1bf</title>
<g id="a_node2"><a xlink:href="dir_af0e56203f4f35107f06f72cd061d1bf.html" target="_top" xlink:title="SimulationDataFormat">
<polygon fill="white" stroke="black" points="138,-252 24,-252 24,-216 138,-216 138,-252"/>
<text text-anchor="middle" x="81" y="-231.5" font-family="Helvetica,sans-Serif" font-size="10.00">SimulationDataFormat</text>
</a>
</g>
</g>
<!-- dir_4ab6b4cc6a7edbff49100e9123df213f -->
<g id="node3" class="node"><title>dir_4ab6b4cc6a7edbff49100e9123df213f</title>
<g id="a_node3"><a xlink:href="dir_4ab6b4cc6a7edbff49100e9123df213f.html" target="_top" xlink:title="Common">
<polygon fill="none" stroke="red" points="290,-252 234,-252 234,-216 290,-216 290,-252"/>
<text text-anchor="middle" x="262" y="-231.5" font-family="Helvetica,sans-Serif" font-size="10.00">Common</text>
</a>
</g>
</g>
<!-- dir_af0e56203f4f35107f06f72cd061d1bf&#45;&gt;dir_4ab6b4cc6a7edbff49100e9123df213f -->
<g id="edge1" class="edge"><title>dir_af0e56203f4f35107f06f72cd061d1bf&#45;&gt;dir_4ab6b4cc6a7edbff49100e9123df213f</title>
<path fill="none" stroke="black" d="M93.7358,-252.313C106.997,-269.618 129.515,-294.452 156,-305 179.536,-314.373 190.569,-316.774 213,-305 230.461,-295.835 242.923,-277.315 250.909,-261.488"/>
<polygon fill="black" stroke="black" points="254.239,-262.63 255.308,-252.089 247.899,-259.662 254.239,-262.63"/>
<g id="a_edge1&#45;headlabel"><a xlink:href="dir_000229_000012.html" target="_top" xlink:title="3">
<text text-anchor="middle" x="255.287" y="-264.589" font-family="Helvetica,sans-Serif" font-size="10.00">3</text>
</a>
</g>
</g>
<!-- dir_2801adc79bf3c286b1b479858d2cade4 -->
<g id="node4" class="node"><title>dir_2801adc79bf3c286b1b479858d2cade4</title>
<g id="a_node4"><a xlink:href="dir_2801adc79bf3c286b1b479858d2cade4.html" target="_top" xlink:title="Detectors">
<polygon fill="none" stroke="red" points="206.5,-180 147.5,-180 147.5,-144 206.5,-144 206.5,-180"/>
<text text-anchor="middle" x="177" y="-159.5" font-family="Helvetica,sans-Serif" font-size="10.00">Detectors</text>
</a>
</g>
</g>
<!-- dir_af0e56203f4f35107f06f72cd061d1bf&#45;&gt;dir_2801adc79bf3c286b1b479858d2cade4 -->
<g id="edge2" class="edge"><title>dir_af0e56203f4f35107f06f72cd061d1bf&#45;&gt;dir_2801adc79bf3c286b1b479858d2cade4</title>
<path fill="none" stroke="black" d="M98.8146,-215.697C110.211,-206.711 125.275,-195.614 139.182,-185.924"/>
<polygon fill="black" stroke="black" points="141.39,-188.654 147.648,-180.104 137.424,-182.885 141.39,-188.654"/>
<g id="a_edge2&#45;headlabel"><a xlink:href="dir_000229_000065.html" target="_top" xlink:title="2">
<text text-anchor="middle" x="140.036" y="-190.53" font-family="Helvetica,sans-Serif" font-size="10.00">2</text>
</a>
</g>
</g>
<!-- dir_7924ba4398ae4560cd37376e44666c6d -->
<g id="node5" class="node"><title>dir_7924ba4398ae4560cd37376e44666c6d</title>
<g id="a_node5"><a xlink:href="dir_7924ba4398ae4560cd37376e44666c6d.html" target="_top" xlink:title="common">
<polygon fill="none" stroke="red" points="263,-108 209,-108 209,-72 263,-72 263,-108"/>
<text text-anchor="middle" x="236" y="-87.5" font-family="Helvetica,sans-Serif" font-size="10.00">common</text>
</a>
</g>
</g>
<!-- dir_af0e56203f4f35107f06f72cd061d1bf&#45;&gt;dir_7924ba4398ae4560cd37376e44666c6d -->
<g id="edge3" class="edge"><title>dir_af0e56203f4f35107f06f72cd061d1bf&#45;&gt;dir_7924ba4398ae4560cd37376e44666c6d</title>
<path fill="none" stroke="black" d="M88.7365,-215.77C98.1319,-196.373 115.547,-164.852 138,-144 155.783,-127.485 179.675,-114.427 199.416,-105.405"/>
<polygon fill="black" stroke="black" points="200.989,-108.537 208.729,-101.302 198.167,-102.131 200.989,-108.537"/>
<g id="a_edge3&#45;headlabel"><a xlink:href="dir_000229_000056.html" target="_top" xlink:title="2">
<text text-anchor="middle" x="198.844" y="-110.084" font-family="Helvetica,sans-Serif" font-size="10.00">2</text>
</a>
</g>
</g>
<!-- dir_f511f1e9c03c071966ae594f00bbc5e0 -->
<g id="node6" class="node"><title>dir_f511f1e9c03c071966ae594f00bbc5e0</title>
<g id="a_node6"><a xlink:href="dir_f511f1e9c03c071966ae594f00bbc5e0.html" target="_top" xlink:title="GPU">
<polygon fill="none" stroke="red" points="231,-36 177,-36 177,-0 231,-0 231,-36"/>
<text text-anchor="middle" x="204" y="-15.5" font-family="Helvetica,sans-Serif" font-size="10.00">GPU</text>
</a>
</g>
</g>
<!-- dir_af0e56203f4f35107f06f72cd061d1bf&#45;&gt;dir_f511f1e9c03c071966ae594f00bbc5e0 -->
<g id="edge4" class="edge"><title>dir_af0e56203f4f35107f06f72cd061d1bf&#45;&gt;dir_f511f1e9c03c071966ae594f00bbc5e0</title>
<path fill="none" stroke="black" d="M83.4963,-215.86C86.6641,-197.373 93.1929,-167.44 105,-144 124.469,-105.35 157.077,-67.291 179.518,-43.5139"/>
<polygon fill="black" stroke="black" points="182.311,-45.6584 186.705,-36.0177 177.258,-40.814 182.311,-45.6584"/>
<g id="a_edge4&#45;headlabel"><a xlink:href="dir_000229_000095.html" target="_top" xlink:title="1">
<text text-anchor="middle" x="181.873" y="-47.718" font-family="Helvetica,sans-Serif" font-size="10.00">1</text>
</a>
</g>
</g>
<!-- dir_4ab6b4cc6a7edbff49100e9123df213f&#45;&gt;dir_2801adc79bf3c286b1b479858d2cade4 -->
<g id="edge5" class="edge"><title>dir_4ab6b4cc6a7edbff49100e9123df213f&#45;&gt;dir_2801adc79bf3c286b1b479858d2cade4</title>
<path fill="none" stroke="black" d="M233.949,-216.88C226.964,-211.509 219.671,-205.494 213,-200 207.877,-195.78 202.423,-191.293 197.296,-186.952"/>
<polygon fill="black" stroke="black" points="199.461,-184.196 189.604,-180.31 194.886,-189.495 199.461,-184.196"/>
<g id="a_edge5&#45;headlabel"><a xlink:href="dir_000012_000065.html" target="_top" xlink:title="1">
<text text-anchor="middle" x="204.037" y="-181.896" font-family="Helvetica,sans-Serif" font-size="10.00">1</text>
</a>
</g>
</g>
<!-- dir_4ab6b4cc6a7edbff49100e9123df213f&#45;&gt;dir_7924ba4398ae4560cd37376e44666c6d -->
<g id="edge6" class="edge"><title>dir_4ab6b4cc6a7edbff49100e9123df213f&#45;&gt;dir_7924ba4398ae4560cd37376e44666c6d</title>
<path fill="none" stroke="black" d="M254.279,-215.871C247.29,-191.67 238.858,-147.211 235.557,-118.393"/>
<polygon fill="black" stroke="black" points="239.015,-117.8 234.556,-108.189 232.049,-118.483 239.015,-117.8"/>
<g id="a_edge6&#45;headlabel"><a xlink:href="dir_000012_000056.html" target="_top" xlink:title="1">
<text text-anchor="middle" x="242.192" y="-118.601" font-family="Helvetica,sans-Serif" font-size="10.00">1</text>
</a>
</g>
</g>
<!-- dir_4ab6b4cc6a7edbff49100e9123df213f&#45;&gt;dir_f511f1e9c03c071966ae594f00bbc5e0 -->
<g id="edge7" class="edge"><title>dir_4ab6b4cc6a7edbff49100e9123df213f&#45;&gt;dir_f511f1e9c03c071966ae594f00bbc5e0</title>
<path fill="none" stroke="black" d="M263.054,-215.915C269.704,-185.254 286.685,-119.648 263,-72 257.112,-60.1549 247.185,-50.1718 237.081,-42.1768"/>
<polygon fill="black" stroke="black" points="239.13,-39.3388 229.012,-36.1935 234.96,-44.9615 239.13,-39.3388"/>
<g id="a_edge7&#45;headlabel"><a xlink:href="dir_000012_000095.html" target="_top" xlink:title="2">
<text text-anchor="middle" x="243.708" y="-36.6993" font-family="Helvetica,sans-Serif" font-size="10.00">2</text>
</a>
</g>
</g>
<!-- dir_2801adc79bf3c286b1b479858d2cade4&#45;&gt;dir_af0e56203f4f35107f06f72cd061d1bf -->
<g id="edge8" class="edge"><title>dir_2801adc79bf3c286b1b479858d2cade4&#45;&gt;dir_af0e56203f4f35107f06f72cd061d1bf</title>
<path fill="none" stroke="black" d="M159.329,-180.19C147.932,-189.183 132.824,-200.316 118.874,-210.037"/>
<polygon fill="black" stroke="black" points="116.639,-207.326 110.381,-215.876 120.605,-213.095 116.639,-207.326"/>
<g id="a_edge8&#45;headlabel"><a xlink:href="dir_000065_000229.html" target="_top" xlink:title="10">
<text text-anchor="middle" x="117.992" y="-200.45" font-family="Helvetica,sans-Serif" font-size="10.00">10</text>
</a>
</g>
</g>
<!-- dir_2801adc79bf3c286b1b479858d2cade4&#45;&gt;dir_4ab6b4cc6a7edbff49100e9123df213f -->
<g id="edge9" class="edge"><title>dir_2801adc79bf3c286b1b479858d2cade4&#45;&gt;dir_4ab6b4cc6a7edbff49100e9123df213f</title>
<path fill="none" stroke="black" d="M206.531,-180.31C214.619,-186.518 223.193,-193.57 231,-200 234.616,-202.978 238.414,-206.109 242.096,-209.207"/>
<polygon fill="black" stroke="black" points="239.986,-212.008 249.854,-215.866 244.545,-206.697 239.986,-212.008"/>
<g id="a_edge9&#45;headlabel"><a xlink:href="dir_000065_000012.html" target="_top" xlink:title="12">
<text text-anchor="middle" x="235.409" y="-209.321" font-family="Helvetica,sans-Serif" font-size="10.00">12</text>
</a>
</g>
</g>
<!-- dir_2801adc79bf3c286b1b479858d2cade4&#45;&gt;dir_7924ba4398ae4560cd37376e44666c6d -->
<g id="edge10" class="edge"><title>dir_2801adc79bf3c286b1b479858d2cade4&#45;&gt;dir_7924ba4398ae4560cd37376e44666c6d</title>
<path fill="none" stroke="black" d="M191.584,-143.697C198.658,-135.305 207.283,-125.07 215.045,-115.861"/>
<polygon fill="black" stroke="black" points="217.815,-118.006 221.583,-108.104 212.463,-113.495 217.815,-118.006"/>
<g id="a_edge10&#45;headlabel"><a xlink:href="dir_000065_000056.html" target="_top" xlink:title="25">
<text text-anchor="middle" x="217.669" y="-120.085" font-family="Helvetica,sans-Serif" font-size="10.00">25</text>
</a>
</g>
</g>
<!-- dir_2801adc79bf3c286b1b479858d2cade4&#45;&gt;dir_f511f1e9c03c071966ae594f00bbc5e0 -->
<g id="edge11" class="edge"><title>dir_2801adc79bf3c286b1b479858d2cade4&#45;&gt;dir_f511f1e9c03c071966ae594f00bbc5e0</title>
<path fill="none" stroke="black" d="M175.672,-143.871C177.725,-119.564 185.95,-74.8187 193.431,-46.0132"/>
<polygon fill="black" stroke="black" points="196.856,-46.76 196.141,-36.1893 190.108,-44.8986 196.856,-46.76"/>
<g id="a_edge11&#45;headlabel"><a xlink:href="dir_000065_000095.html" target="_top" xlink:title="5">
<text text-anchor="middle" x="198.637" y="-48.4801" font-family="Helvetica,sans-Serif" font-size="10.00">5</text>
</a>
</g>
</g>
<!-- dir_7924ba4398ae4560cd37376e44666c6d&#45;&gt;dir_4ab6b4cc6a7edbff49100e9123df213f -->
<g id="edge12" class="edge"><title>dir_7924ba4398ae4560cd37376e44666c6d&#45;&gt;dir_4ab6b4cc6a7edbff49100e9123df213f</title>
<path fill="none" stroke="black" d="M243.738,-108.189C250.73,-132.424 259.159,-176.888 262.452,-205.679"/>
<polygon fill="black" stroke="black" points="258.992,-206.26 263.448,-215.871 265.958,-205.578 258.992,-206.26"/>
<g id="a_edge12&#45;headlabel"><a xlink:href="dir_000056_000012.html" target="_top" xlink:title="2">
<text text-anchor="middle" x="255.816" y="-200.458" font-family="Helvetica,sans-Serif" font-size="10.00">2</text>
</a>
</g>
</g>
<!-- dir_7924ba4398ae4560cd37376e44666c6d&#45;&gt;dir_f511f1e9c03c071966ae594f00bbc5e0 -->
<g id="edge13" class="edge"><title>dir_7924ba4398ae4560cd37376e44666c6d&#45;&gt;dir_f511f1e9c03c071966ae594f00bbc5e0</title>
<path fill="none" stroke="black" d="M228.09,-71.6966C224.447,-63.7284 220.046,-54.0995 216.006,-45.2641"/>
<polygon fill="black" stroke="black" points="219.16,-43.7439 211.819,-36.1043 212.794,-46.6543 219.16,-43.7439"/>
<g id="a_edge13&#45;headlabel"><a xlink:href="dir_000056_000095.html" target="_top" xlink:title="2">
<text text-anchor="middle" x="223.237" y="-43.3327" font-family="Helvetica,sans-Serif" font-size="10.00">2</text>
</a>
</g>
</g>
<!-- dir_f511f1e9c03c071966ae594f00bbc5e0&#45;&gt;dir_4ab6b4cc6a7edbff49100e9123df213f -->
<g id="edge14" class="edge"><title>dir_f511f1e9c03c071966ae594f00bbc5e0&#45;&gt;dir_4ab6b4cc6a7edbff49100e9123df213f</title>
<path fill="none" stroke="black" d="M231.01,-28.22C249.089,-36.9582 270.94,-51.7611 281,-72 302.465,-115.181 290.531,-173.111 277.677,-206.414"/>
<polygon fill="black" stroke="black" points="274.333,-205.34 273.695,-215.915 280.788,-208.046 274.333,-205.34"/>
<g id="a_edge14&#45;headlabel"><a xlink:href="dir_000095_000012.html" target="_top" xlink:title="1">
<text text-anchor="middle" x="273.104" y="-198.427" font-family="Helvetica,sans-Serif" font-size="10.00">1</text>
</a>
</g>
</g>
<!-- dir_f511f1e9c03c071966ae594f00bbc5e0&#45;&gt;dir_2801adc79bf3c286b1b479858d2cade4 -->
<g id="edge15" class="edge"><title>dir_f511f1e9c03c071966ae594f00bbc5e0&#45;&gt;dir_2801adc79bf3c286b1b479858d2cade4</title>
<path fill="none" stroke="black" d="M205.323,-36.1893C203.26,-60.5311 195.03,-105.28 187.55,-134.059"/>
<polygon fill="black" stroke="black" points="184.129,-133.301 184.841,-143.871 190.876,-135.164 184.129,-133.301"/>
<g id="a_edge15&#45;headlabel"><a xlink:href="dir_000095_000065.html" target="_top" xlink:title="3">
<text text-anchor="middle" x="182.348" y="-126.58" font-family="Helvetica,sans-Serif" font-size="10.00">3</text>
</a>
</g>
</g>
</g>
</svg>
