<?xml version="1.0" encoding="UTF-8" standalone="no"?>
<!DOCTYPE svg PUBLIC "-//W3C//DTD SVG 1.1//EN"
 "http://www.w3.org/Graphics/SVG/1.1/DTD/svg11.dtd">
<!-- Generated by graphviz version 2.38.0 (20140413.2041)
 -->
<!-- Title: /home/travis/build/AliceO2Group/AliceO2/Detectors/ITSMFT/MFT/simulation Pages: 1 -->
<svg width="354pt" height="447pt"
 viewBox="0.00 0.00 354.00 447.00" xmlns="http://www.w3.org/2000/svg" xmlns:xlink="http://www.w3.org/1999/xlink">
<g id="graph0" class="graph" transform="scale(1 1) rotate(0) translate(4 443)">
<title>/home/travis/build/AliceO2Group/AliceO2/Detectors/ITSMFT/MFT/simulation</title>
<g id="clust1" class="cluster"><title>clusterdir_f39d1cd569ca2d16022b762a0e4a53c8</title>
<g id="a_clust1"><a xlink:href="dir_f39d1cd569ca2d16022b762a0e4a53c8.html" target="_top" xlink:title="MFT">
<polygon fill="#ddddee" stroke="black" points="8,-272 8,-431 174,-431 174,-272 8,-272"/>
<text text-anchor="middle" x="91" y="-419" font-family="Helvetica,sans-Serif" font-size="10.00">MFT</text>
</a>
</g>
</g>
<g id="clust2" class="cluster"><title>clusterdir_a336bf94aab96007822cb34c9e2cb8a5</title>
<g id="a_clust2"><a xlink:href="dir_a336bf94aab96007822cb34c9e2cb8a5.html" target="_top">
<polygon fill="#eeeeff" stroke="black" points="16,-280 16,-404 166,-404 166,-280 16,-280"/>
</a>
</g>
</g>
<!-- dir_a336bf94aab96007822cb34c9e2cb8a5 -->
<g id="node1" class="node"><title>dir_a336bf94aab96007822cb34c9e2cb8a5</title>
<text text-anchor="middle" x="127" y="-375.5" font-family="Helvetica,sans-Serif" font-size="10.00">simulation</text>
</g>
<!-- dir_4ea160d701b771c477e65d0fdf48e88e -->
<g id="node2" class="node"><title>dir_4ea160d701b771c477e65d0fdf48e88e</title>
<g id="a_node2"><a xlink:href="dir_4ea160d701b771c477e65d0fdf48e88e.html" target="_top" xlink:title="include">
<polygon fill="white" stroke="red" points="84,-324 30,-324 30,-288 84,-288 84,-324"/>
<text text-anchor="middle" x="57" y="-303.5" font-family="Helvetica,sans-Serif" font-size="10.00">include</text>
</a>
</g>
</g>
<!-- dir_37c90836491b695b472bf98d1be8336b -->
<g id="node5" class="node"><title>dir_37c90836491b695b472bf98d1be8336b</title>
<g id="a_node5"><a xlink:href="dir_37c90836491b695b472bf98d1be8336b.html" target="_top" xlink:title="Base">
<polygon fill="none" stroke="red" points="146,-252 92,-252 92,-216 146,-216 146,-252"/>
<text text-anchor="middle" x="119" y="-231.5" font-family="Helvetica,sans-Serif" font-size="10.00">Base</text>
</a>
</g>
</g>
<!-- dir_4ea160d701b771c477e65d0fdf48e88e&#45;&gt;dir_37c90836491b695b472bf98d1be8336b -->
<g id="edge1" class="edge"><title>dir_4ea160d701b771c477e65d0fdf48e88e&#45;&gt;dir_37c90836491b695b472bf98d1be8336b</title>
<path fill="none" stroke="black" d="M72.3258,-287.697C79.7588,-279.305 88.8233,-269.07 96.98,-259.861"/>
<polygon fill="black" stroke="black" points="99.8401,-261.911 103.85,-252.104 94.6,-257.27 99.8401,-261.911"/>
<g id="a_edge1&#45;headlabel"><a xlink:href="dir_000282_000256.html" target="_top" xlink:title="1">
<text text-anchor="middle" x="99.5822" y="-263.984" font-family="Helvetica,sans-Serif" font-size="10.00">1</text>
</a>
</g>
</g>
<!-- dir_85bf31a2e8d306e7598ffcb73f8df6bf -->
<g id="node6" class="node"><title>dir_85bf31a2e8d306e7598ffcb73f8df6bf</title>
<g id="a_node6"><a xlink:href="dir_85bf31a2e8d306e7598ffcb73f8df6bf.html" target="_top" xlink:title="common">
<polygon fill="none" stroke="red" points="223,-36 169,-36 169,-0 223,-0 223,-36"/>
<text text-anchor="middle" x="196" y="-15.5" font-family="Helvetica,sans-Serif" font-size="10.00">common</text>
</a>
</g>
</g>
<!-- dir_4ea160d701b771c477e65d0fdf48e88e&#45;&gt;dir_85bf31a2e8d306e7598ffcb73f8df6bf -->
<g id="edge2" class="edge"><title>dir_4ea160d701b771c477e65d0fdf48e88e&#45;&gt;dir_85bf31a2e8d306e7598ffcb73f8df6bf</title>
<path fill="none" stroke="black" d="M53.9029,-287.815C47.4269,-246.333 36.7786,-139.195 85,-72 102.399,-47.7545 133.879,-34.1861 158.883,-26.8627"/>
<polygon fill="black" stroke="black" points="160.056,-30.171 168.795,-24.1797 158.227,-23.4141 160.056,-30.171"/>
<g id="a_edge2&#45;headlabel"><a xlink:href="dir_000282_000040.html" target="_top" xlink:title="4">
<text text-anchor="middle" x="157.328" y="-31.3507" font-family="Helvetica,sans-Serif" font-size="10.00">4</text>
</a>
</g>
</g>
<!-- dir_2171f7ec022c5423887b07c69b2f5b48 -->
<g id="node8" class="node"><title>dir_2171f7ec022c5423887b07c69b2f5b48</title>
<g id="a_node8"><a xlink:href="dir_2171f7ec022c5423887b07c69b2f5b48.html" target="_top" xlink:title="DataFormats">
<polygon fill="none" stroke="red" points="168,-108 94,-108 94,-72 168,-72 168,-108"/>
<text text-anchor="middle" x="131" y="-87.5" font-family="Helvetica,sans-Serif" font-size="10.00">DataFormats</text>
</a>
</g>
</g>
<!-- dir_4ea160d701b771c477e65d0fdf48e88e&#45;&gt;dir_2171f7ec022c5423887b07c69b2f5b48 -->
<g id="edge3" class="edge"><title>dir_4ea160d701b771c477e65d0fdf48e88e&#45;&gt;dir_2171f7ec022c5423887b07c69b2f5b48</title>
<path fill="none" stroke="black" d="M61.5698,-287.808C66.4654,-269.786 74.6626,-240.709 83,-216 94.5621,-181.735 109.797,-142.954 119.972,-117.8"/>
<polygon fill="black" stroke="black" points="123.34,-118.808 123.866,-108.226 116.856,-116.17 123.34,-118.808"/>
<g id="a_edge3&#45;headlabel"><a xlink:href="dir_000282_000055.html" target="_top" xlink:title="3">
<text text-anchor="middle" x="124.616" y="-120.708" font-family="Helvetica,sans-Serif" font-size="10.00">3</text>
</a>
</g>
</g>
<!-- dir_a2acb30c8e273b0bd9a81b3e5dc220f6 -->
<g id="node3" class="node"><title>dir_a2acb30c8e273b0bd9a81b3e5dc220f6</title>
<g id="a_node3"><a xlink:href="dir_a2acb30c8e273b0bd9a81b3e5dc220f6.html" target="_top" xlink:title="src">
<polygon fill="white" stroke="black" points="78,-396 24,-396 24,-360 78,-360 78,-396"/>
<text text-anchor="middle" x="51" y="-375.5" font-family="Helvetica,sans-Serif" font-size="10.00">src</text>
</a>
</g>
</g>
<!-- dir_a2acb30c8e273b0bd9a81b3e5dc220f6&#45;&gt;dir_4ea160d701b771c477e65d0fdf48e88e -->
<g id="edge14" class="edge"><title>dir_a2acb30c8e273b0bd9a81b3e5dc220f6&#45;&gt;dir_4ea160d701b771c477e65d0fdf48e88e</title>
<path fill="none" stroke="black" d="M52.4831,-359.697C53.1443,-351.983 53.9389,-342.712 54.6761,-334.112"/>
<polygon fill="black" stroke="black" points="58.167,-334.367 55.5339,-324.104 51.1926,-333.769 58.167,-334.367"/>
<g id="a_edge14&#45;headlabel"><a xlink:href="dir_000302_000282.html" target="_top" xlink:title="2">
<text text-anchor="middle" x="60.689" y="-335.691" font-family="Helvetica,sans-Serif" font-size="10.00">2</text>
</a>
</g>
</g>
<!-- dir_4ab6b4cc6a7edbff49100e9123df213f -->
<g id="node4" class="node"><title>dir_4ab6b4cc6a7edbff49100e9123df213f</title>
<g id="a_node4"><a xlink:href="dir_4ab6b4cc6a7edbff49100e9123df213f.html" target="_top" xlink:title="Common">
<polygon fill="none" stroke="red" points="280,-180 224,-180 224,-144 280,-144 280,-180"/>
<text text-anchor="middle" x="252" y="-159.5" font-family="Helvetica,sans-Serif" font-size="10.00">Common</text>
</a>
</g>
</g>
<!-- dir_a2acb30c8e273b0bd9a81b3e5dc220f6&#45;&gt;dir_4ab6b4cc6a7edbff49100e9123df213f -->
<g id="edge15" class="edge"><title>dir_a2acb30c8e273b0bd9a81b3e5dc220f6&#45;&gt;dir_4ab6b4cc6a7edbff49100e9123df213f</title>
<path fill="none" stroke="black" d="M78.2612,-363.377C81.1756,-362.147 84.1255,-360.993 87,-360 155.075,-336.485 198.872,-379.312 245,-324 276.179,-286.614 268.208,-225.671 259.902,-190.466"/>
<polygon fill="black" stroke="black" points="263.206,-189.255 257.357,-180.421 256.421,-190.975 263.206,-189.255"/>
<g id="a_edge15&#45;headlabel"><a xlink:href="dir_000302_000012.html" target="_top" xlink:title="2">
<text text-anchor="middle" x="266.841" y="-189.542" font-family="Helvetica,sans-Serif" font-size="10.00">2</text>
</a>
</g>
</g>
<!-- dir_a2acb30c8e273b0bd9a81b3e5dc220f6&#45;&gt;dir_85bf31a2e8d306e7598ffcb73f8df6bf -->
<g id="edge16" class="edge"><title>dir_a2acb30c8e273b0bd9a81b3e5dc220f6&#45;&gt;dir_85bf31a2e8d306e7598ffcb73f8df6bf</title>
<path fill="none" stroke="black" d="M78.2314,-363.289C81.1516,-362.076 84.111,-360.95 87,-360 165.744,-334.105 198.444,-365.843 270,-324 314.902,-297.744 346,-287.015 346,-235 346,-235 346,-235 346,-161 346,-98.6932 276.902,-55.5507 232.502,-34.2601"/>
<polygon fill="black" stroke="black" points="233.708,-30.9616 223.164,-29.9275 230.762,-37.3114 233.708,-30.9616"/>
<g id="a_edge16&#45;headlabel"><a xlink:href="dir_000302_000040.html" target="_top" xlink:title="2">
<text text-anchor="middle" x="238.164" y="-27.3989" font-family="Helvetica,sans-Serif" font-size="10.00">2</text>
</a>
</g>
</g>
<!-- dir_7e732ae97f4f941436b6909b27d4da36 -->
<g id="node7" class="node"><title>dir_7e732ae97f4f941436b6909b27d4da36</title>
<g id="a_node7"><a xlink:href="dir_7e732ae97f4f941436b6909b27d4da36.html" target="_top" xlink:title="base">
<polygon fill="none" stroke="red" points="236,-324 182,-324 182,-288 236,-288 236,-324"/>
<text text-anchor="middle" x="209" y="-303.5" font-family="Helvetica,sans-Serif" font-size="10.00">base</text>
</a>
</g>
</g>
<!-- dir_a2acb30c8e273b0bd9a81b3e5dc220f6&#45;&gt;dir_7e732ae97f4f941436b6909b27d4da36 -->
<g id="edge17" class="edge"><title>dir_a2acb30c8e273b0bd9a81b3e5dc220f6&#45;&gt;dir_7e732ae97f4f941436b6909b27d4da36</title>
<path fill="none" stroke="black" d="M78.0838,-364.097C81.0859,-362.701 84.1037,-361.312 87,-360 123.629,-343.413 133.126,-340.034 170,-324 170.83,-323.639 171.669,-323.274 172.516,-322.906"/>
<polygon fill="black" stroke="black" points="173.956,-326.096 181.728,-318.895 171.162,-319.678 173.956,-326.096"/>
<g id="a_edge17&#45;headlabel"><a xlink:href="dir_000302_000104.html" target="_top" xlink:title="1">
<text text-anchor="middle" x="171.793" y="-327.634" font-family="Helvetica,sans-Serif" font-size="10.00">1</text>
</a>
</g>
</g>
<!-- dir_a2acb30c8e273b0bd9a81b3e5dc220f6&#45;&gt;dir_2171f7ec022c5423887b07c69b2f5b48 -->
<g id="edge18" class="edge"><title>dir_a2acb30c8e273b0bd9a81b3e5dc220f6&#45;&gt;dir_2171f7ec022c5423887b07c69b2f5b48</title>
<path fill="none" stroke="black" d="M38.2735,-359.845C31.7136,-349.923 24.3932,-336.883 21,-324 15.1136,-301.651 15.1436,-294.357 21,-272 37.1492,-210.35 81.8488,-149.217 109.04,-116.156"/>
<polygon fill="black" stroke="black" points="111.818,-118.289 115.547,-108.373 106.448,-113.799 111.818,-118.289"/>
<g id="a_edge18&#45;headlabel"><a xlink:href="dir_000302_000055.html" target="_top" xlink:title="1">
<text text-anchor="middle" x="111.691" y="-120.368" font-family="Helvetica,sans-Serif" font-size="10.00">1</text>
</a>
</g>
</g>
<!-- dir_4ab6b4cc6a7edbff49100e9123df213f&#45;&gt;dir_2171f7ec022c5423887b07c69b2f5b48 -->
<g id="edge4" class="edge"><title>dir_4ab6b4cc6a7edbff49100e9123df213f&#45;&gt;dir_2171f7ec022c5423887b07c69b2f5b48</title>
<path fill="none" stroke="black" d="M223.829,-147.834C205.658,-138.124 182.113,-124.681 163.221,-113.307"/>
<polygon fill="black" stroke="black" points="164.997,-110.291 154.635,-108.082 161.358,-116.271 164.997,-110.291"/>
<g id="a_edge4&#45;headlabel"><a xlink:href="dir_000012_000055.html" target="_top" xlink:title="5">
<text text-anchor="middle" x="169.543" y="-107.234" font-family="Helvetica,sans-Serif" font-size="10.00">5</text>
</a>
</g>
</g>
<!-- dir_37c90836491b695b472bf98d1be8336b&#45;&gt;dir_4ab6b4cc6a7edbff49100e9123df213f -->
<g id="edge5" class="edge"><title>dir_37c90836491b695b472bf98d1be8336b&#45;&gt;dir_4ab6b4cc6a7edbff49100e9123df213f</title>
<path fill="none" stroke="black" d="M146.235,-218.666C166.052,-208.236 193.116,-193.992 214.905,-182.524"/>
<polygon fill="black" stroke="black" points="216.665,-185.552 223.884,-177.798 213.405,-179.358 216.665,-185.552"/>
<g id="a_edge5&#45;headlabel"><a xlink:href="dir_000256_000012.html" target="_top" xlink:title="16">
<text text-anchor="middle" x="214.807" y="-187.239" font-family="Helvetica,sans-Serif" font-size="10.00">16</text>
</a>
</g>
</g>
<!-- dir_37c90836491b695b472bf98d1be8336b&#45;&gt;dir_2171f7ec022c5423887b07c69b2f5b48 -->
<g id="edge6" class="edge"><title>dir_37c90836491b695b472bf98d1be8336b&#45;&gt;dir_2171f7ec022c5423887b07c69b2f5b48</title>
<path fill="none" stroke="black" d="M115.863,-215.871C115.35,-191.67 118.815,-147.211 123.226,-118.393"/>
<polygon fill="black" stroke="black" points="126.735,-118.634 124.956,-108.189 119.834,-117.463 126.735,-118.634"/>
<g id="a_edge6&#45;headlabel"><a xlink:href="dir_000256_000055.html" target="_top" xlink:title="7">
<text text-anchor="middle" x="128.934" y="-120.152" font-family="Helvetica,sans-Serif" font-size="10.00">7</text>
</a>
</g>
</g>
<!-- dir_85bf31a2e8d306e7598ffcb73f8df6bf&#45;&gt;dir_4ab6b4cc6a7edbff49100e9123df213f -->
<g id="edge7" class="edge"><title>dir_85bf31a2e8d306e7598ffcb73f8df6bf&#45;&gt;dir_4ab6b4cc6a7edbff49100e9123df213f</title>
<path fill="none" stroke="black" d="M202.779,-36.1893C212.421,-60.6379 230.181,-105.673 241.524,-134.436"/>
<polygon fill="black" stroke="black" points="238.32,-135.853 245.245,-143.871 244.832,-133.285 238.32,-135.853"/>
<g id="a_edge7&#45;headlabel"><a xlink:href="dir_000040_000012.html" target="_top" xlink:title="11">
<text text-anchor="middle" x="234.36" y="-131.05" font-family="Helvetica,sans-Serif" font-size="10.00">11</text>
</a>
</g>
</g>
<!-- dir_85bf31a2e8d306e7598ffcb73f8df6bf&#45;&gt;dir_37c90836491b695b472bf98d1be8336b -->
<g id="edge8" class="edge"><title>dir_85bf31a2e8d306e7598ffcb73f8df6bf&#45;&gt;dir_37c90836491b695b472bf98d1be8336b</title>
<path fill="none" stroke="black" d="M193.222,-36.2858C190.102,-54.3841 184.481,-83.5224 177,-108 166.917,-140.992 162.75,-148.814 148,-180 143.829,-188.818 138.862,-198.224 134.227,-206.627"/>
<polygon fill="black" stroke="black" points="131.032,-205.168 129.195,-215.602 137.138,-208.591 131.032,-205.168"/>
<g id="a_edge8&#45;headlabel"><a xlink:href="dir_000040_000256.html" target="_top" xlink:title="2">
<text text-anchor="middle" x="130.313" y="-198.144" font-family="Helvetica,sans-Serif" font-size="10.00">2</text>
</a>
</g>
</g>
<!-- dir_85bf31a2e8d306e7598ffcb73f8df6bf&#45;&gt;dir_2171f7ec022c5423887b07c69b2f5b48 -->
<g id="edge9" class="edge"><title>dir_85bf31a2e8d306e7598ffcb73f8df6bf&#45;&gt;dir_2171f7ec022c5423887b07c69b2f5b48</title>
<path fill="none" stroke="black" d="M186.012,-36.1043C178.984,-44.636 169.453,-55.1084 160.245,-64.4775"/>
<polygon fill="black" stroke="black" points="157.607,-62.1641 152.983,-71.6966 162.543,-67.1283 157.607,-62.1641"/>
<g id="a_edge9&#45;headlabel"><a xlink:href="dir_000040_000055.html" target="_top" xlink:title="37">
<text text-anchor="middle" x="158.155" y="-55.1163" font-family="Helvetica,sans-Serif" font-size="10.00">37</text>
</a>
</g>
</g>
<!-- dir_7e732ae97f4f941436b6909b27d4da36&#45;&gt;dir_4ab6b4cc6a7edbff49100e9123df213f -->
<g id="edge10" class="edge"><title>dir_7e732ae97f4f941436b6909b27d4da36&#45;&gt;dir_4ab6b4cc6a7edbff49100e9123df213f</title>
<path fill="none" stroke="black" d="M214.187,-287.871C221.548,-263.564 235.097,-218.819 243.82,-190.013"/>
<polygon fill="black" stroke="black" points="247.246,-190.774 246.795,-180.189 240.547,-188.746 247.246,-190.774"/>
<g id="a_edge10&#45;headlabel"><a xlink:href="dir_000104_000012.html" target="_top" xlink:title="2">
<text text-anchor="middle" x="248.922" y="-192.538" font-family="Helvetica,sans-Serif" font-size="10.00">2</text>
</a>
</g>
</g>
<!-- dir_7e732ae97f4f941436b6909b27d4da36&#45;&gt;dir_37c90836491b695b472bf98d1be8336b -->
<g id="edge11" class="edge"><title>dir_7e732ae97f4f941436b6909b27d4da36&#45;&gt;dir_37c90836491b695b472bf98d1be8336b</title>
<path fill="none" stroke="black" d="M189.396,-287.921C183.264,-282.713 176.421,-277.035 170,-272 164.141,-267.406 157.792,-262.64 151.629,-258.117"/>
<polygon fill="black" stroke="black" points="153.549,-255.186 143.402,-252.14 149.435,-260.849 153.549,-255.186"/>
<g id="a_edge11&#45;headlabel"><a xlink:href="dir_000104_000256.html" target="_top" xlink:title="2">
<text text-anchor="middle" x="158.126" y="-252.502" font-family="Helvetica,sans-Serif" font-size="10.00">2</text>
</a>
</g>
</g>
<!-- dir_7e732ae97f4f941436b6909b27d4da36&#45;&gt;dir_85bf31a2e8d306e7598ffcb73f8df6bf -->
<g id="edge12" class="edge"><title>dir_7e732ae97f4f941436b6909b27d4da36&#45;&gt;dir_85bf31a2e8d306e7598ffcb73f8df6bf</title>
<path fill="none" stroke="black" d="M227.623,-287.879C256.398,-259.244 306.608,-199.32 289,-144 276.323,-104.17 245.063,-66.8785 222.275,-43.574"/>
<polygon fill="black" stroke="black" points="224.46,-40.8106 214.91,-36.2235 219.515,-45.7651 224.46,-40.8106"/>
<g id="a_edge12&#45;headlabel"><a xlink:href="dir_000104_000040.html" target="_top" xlink:title="7">
<text text-anchor="middle" x="229.01" y="-38.8404" font-family="Helvetica,sans-Serif" font-size="10.00">7</text>
</a>
</g>
</g>
<!-- dir_7e732ae97f4f941436b6909b27d4da36&#45;&gt;dir_2171f7ec022c5423887b07c69b2f5b48 -->
<g id="edge13" class="edge"><title>dir_7e732ae97f4f941436b6909b27d4da36&#45;&gt;dir_2171f7ec022c5423887b07c69b2f5b48</title>
<path fill="none" stroke="black" d="M202.749,-287.849C189.199,-250.675 157.038,-162.439 140.776,-117.82"/>
<polygon fill="black" stroke="black" points="143.994,-116.429 137.281,-108.232 137.417,-118.826 143.994,-116.429"/>
<g id="a_edge13&#45;headlabel"><a xlink:href="dir_000104_000055.html" target="_top" xlink:title="1">
<text text-anchor="middle" x="147.892" y="-116.334" font-family="Helvetica,sans-Serif" font-size="10.00">1</text>
</a>
</g>
</g>
<!-- dir_2171f7ec022c5423887b07c69b2f5b48&#45;&gt;dir_4ab6b4cc6a7edbff49100e9123df213f -->
<g id="edge19" class="edge"><title>dir_2171f7ec022c5423887b07c69b2f5b48&#45;&gt;dir_4ab6b4cc6a7edbff49100e9123df213f</title>
<path fill="none" stroke="black" d="M166.618,-108.19C183.411,-117.353 203.235,-128.736 219.602,-138.586"/>
<polygon fill="black" stroke="black" points="217.935,-141.669 228.297,-143.876 221.573,-135.688 217.935,-141.669"/>
<g id="a_edge19&#45;headlabel"><a xlink:href="dir_000055_000012.html" target="_top" xlink:title="28">
<text text-anchor="middle" x="213.388" y="-139.726" font-family="Helvetica,sans-Serif" font-size="10.00">28</text>
</a>
</g>
</g>
<!-- dir_2171f7ec022c5423887b07c69b2f5b48&#45;&gt;dir_37c90836491b695b472bf98d1be8336b -->
<g id="edge20" class="edge"><title>dir_2171f7ec022c5423887b07c69b2f5b48&#45;&gt;dir_37c90836491b695b472bf98d1be8336b</title>
<path fill="none" stroke="black" d="M134.138,-108.189C134.645,-132.424 131.175,-176.888 126.763,-205.679"/>
<polygon fill="black" stroke="black" points="123.256,-205.427 125.032,-215.871 130.157,-206.599 123.256,-205.427"/>
<g id="a_edge20&#45;headlabel"><a xlink:href="dir_000055_000256.html" target="_top" xlink:title="1">
<text text-anchor="middle" x="121.058" y="-198.907" font-family="Helvetica,sans-Serif" font-size="10.00">1</text>
</a>
</g>
</g>
<!-- dir_2171f7ec022c5423887b07c69b2f5b48&#45;&gt;dir_85bf31a2e8d306e7598ffcb73f8df6bf -->
<g id="edge21" class="edge"><title>dir_2171f7ec022c5423887b07c69b2f5b48&#45;&gt;dir_85bf31a2e8d306e7598ffcb73f8df6bf</title>
<path fill="none" stroke="black" d="M141.152,-71.6966C148.219,-63.135 157.767,-52.6562 166.97,-43.3045"/>
<polygon fill="black" stroke="black" points="169.592,-45.6336 174.222,-36.1043 164.66,-40.6659 169.592,-45.6336"/>
<g id="a_edge21&#45;headlabel"><a xlink:href="dir_000055_000040.html" target="_top" xlink:title="1">
<text text-anchor="middle" x="169.041" y="-47.681" font-family="Helvetica,sans-Serif" font-size="10.00">1</text>
</a>
</g>
</g>
</g>
</svg>
