<?xml version="1.0" encoding="UTF-8" standalone="no"?>
<!DOCTYPE svg PUBLIC "-//W3C//DTD SVG 1.1//EN"
 "http://www.w3.org/Graphics/SVG/1.1/DTD/svg11.dtd">
<!-- Generated by graphviz version 2.38.0 (20140413.2041)
 -->
<!-- Title: /home/travis/build/AliceO2Group/AliceO2/Detectors/MUON/MID/Simulation/include Pages: 1 -->
<svg width="221pt" height="447pt"
 viewBox="0.00 0.00 221.00 447.00" xmlns="http://www.w3.org/2000/svg" xmlns:xlink="http://www.w3.org/1999/xlink">
<g id="graph0" class="graph" transform="scale(1 1) rotate(0) translate(4 443)">
<title>/home/travis/build/AliceO2Group/AliceO2/Detectors/MUON/MID/Simulation/include</title>
<g id="clust1" class="cluster"><title>clusterdir_2810eaf0225063d73e08d8eeeb8a37b8</title>
<g id="a_clust1"><a xlink:href="dir_2810eaf0225063d73e08d8eeeb8a37b8.html" target="_top" xlink:title="Simulation">
<polygon fill="#ddddee" stroke="black" points="19,-344 19,-431 205,-431 205,-344 19,-344"/>
<text text-anchor="middle" x="112" y="-419" font-family="Helvetica,sans-Serif" font-size="10.00">Simulation</text>
</a>
</g>
</g>
<g id="clust2" class="cluster"><title>clusterdir_1bad6cd644632a70bf093df362196556</title>
<g id="a_clust2"><a xlink:href="dir_1bad6cd644632a70bf093df362196556.html" target="_top">
<polygon fill="#eeeeff" stroke="black" points="27,-352 27,-404 197,-404 197,-352 27,-352"/>
</a>
</g>
</g>
<!-- dir_1bad6cd644632a70bf093df362196556 -->
<g id="node1" class="node"><title>dir_1bad6cd644632a70bf093df362196556</title>
<text text-anchor="middle" x="162" y="-375.5" font-family="Helvetica,sans-Serif" font-size="10.00">include</text>
</g>
<!-- dir_166c71ede01fb529ec534b37c3a526ba -->
<g id="node2" class="node"><title>dir_166c71ede01fb529ec534b37c3a526ba</title>
<g id="a_node2"><a xlink:href="dir_166c71ede01fb529ec534b37c3a526ba.html" target="_top" xlink:title="MIDSimulation">
<polygon fill="white" stroke="black" points="116.5,-396 35.5,-396 35.5,-360 116.5,-360 116.5,-396"/>
<text text-anchor="middle" x="76" y="-375.5" font-family="Helvetica,sans-Serif" font-size="10.00">MIDSimulation</text>
</a>
</g>
</g>
<!-- dir_4ab6b4cc6a7edbff49100e9123df213f -->
<g id="node3" class="node"><title>dir_4ab6b4cc6a7edbff49100e9123df213f</title>
<g id="a_node3"><a xlink:href="dir_4ab6b4cc6a7edbff49100e9123df213f.html" target="_top" xlink:title="Common">
<polygon fill="none" stroke="red" points="120,-180 64,-180 64,-144 120,-144 120,-180"/>
<text text-anchor="middle" x="92" y="-159.5" font-family="Helvetica,sans-Serif" font-size="10.00">Common</text>
</a>
</g>
</g>
<!-- dir_166c71ede01fb529ec534b37c3a526ba&#45;&gt;dir_4ab6b4cc6a7edbff49100e9123df213f -->
<g id="edge1" class="edge"><title>dir_166c71ede01fb529ec534b37c3a526ba&#45;&gt;dir_4ab6b4cc6a7edbff49100e9123df213f</title>
<path fill="none" stroke="black" d="M69.4682,-359.683C59.1597,-329.75 41.7772,-266.676 57,-216 59.9195,-206.281 65.2633,-196.7 70.9109,-188.415"/>
<polygon fill="black" stroke="black" points="73.7639,-190.442 76.8175,-180.297 68.1037,-186.324 73.7639,-190.442"/>
<g id="a_edge1&#45;headlabel"><a xlink:href="dir_000179_000012.html" target="_top" xlink:title="2">
<text text-anchor="middle" x="73.9448" y="-192.519" font-family="Helvetica,sans-Serif" font-size="10.00">2</text>
</a>
</g>
</g>
<!-- dir_754f2fe7806627988f6bd801b7f2fe5b -->
<g id="node4" class="node"><title>dir_754f2fe7806627988f6bd801b7f2fe5b</title>
<g id="a_node4"><a xlink:href="dir_754f2fe7806627988f6bd801b7f2fe5b.html" target="_top" xlink:title="Clustering">
<polygon fill="none" stroke="red" points="165.5,-324 104.5,-324 104.5,-288 165.5,-288 165.5,-324"/>
<text text-anchor="middle" x="135" y="-303.5" font-family="Helvetica,sans-Serif" font-size="10.00">Clustering</text>
</a>
</g>
</g>
<!-- dir_166c71ede01fb529ec534b37c3a526ba&#45;&gt;dir_754f2fe7806627988f6bd801b7f2fe5b -->
<g id="edge2" class="edge"><title>dir_166c71ede01fb529ec534b37c3a526ba&#45;&gt;dir_754f2fe7806627988f6bd801b7f2fe5b</title>
<path fill="none" stroke="black" d="M90.5843,-359.697C97.6576,-351.305 106.283,-341.07 114.045,-331.861"/>
<polygon fill="black" stroke="black" points="116.815,-334.006 120.583,-324.104 111.463,-329.495 116.815,-334.006"/>
<g id="a_edge2&#45;headlabel"><a xlink:href="dir_000179_000470.html" target="_top" xlink:title="2">
<text text-anchor="middle" x="116.669" y="-336.085" font-family="Helvetica,sans-Serif" font-size="10.00">2</text>
</a>
</g>
</g>
<!-- dir_37c90836491b695b472bf98d1be8336b -->
<g id="node5" class="node"><title>dir_37c90836491b695b472bf98d1be8336b</title>
<g id="a_node5"><a xlink:href="dir_37c90836491b695b472bf98d1be8336b.html" target="_top" xlink:title="Base">
<polygon fill="none" stroke="red" points="119,-36 65,-36 65,-0 119,-0 119,-36"/>
<text text-anchor="middle" x="92" y="-15.5" font-family="Helvetica,sans-Serif" font-size="10.00">Base</text>
</a>
</g>
</g>
<!-- dir_166c71ede01fb529ec534b37c3a526ba&#45;&gt;dir_37c90836491b695b472bf98d1be8336b -->
<g id="edge3" class="edge"><title>dir_166c71ede01fb529ec534b37c3a526ba&#45;&gt;dir_37c90836491b695b472bf98d1be8336b</title>
<path fill="none" stroke="black" d="M59.5091,-359.772C37.1569,-334.534 0,-285.051 0,-235 0,-235 0,-235 0,-161 0,-113.475 36.7457,-69.3044 63.7913,-43.2302"/>
<polygon fill="black" stroke="black" points="66.214,-45.7566 71.1238,-36.3681 61.4308,-40.6456 66.214,-45.7566"/>
<g id="a_edge3&#45;headlabel"><a xlink:href="dir_000179_000256.html" target="_top" xlink:title="1">
<text text-anchor="middle" x="65.5295" y="-47.7858" font-family="Helvetica,sans-Serif" font-size="10.00">1</text>
</a>
</g>
</g>
<!-- dir_b5547b1068d53f0f904ee5a2a84992af -->
<g id="node6" class="node"><title>dir_b5547b1068d53f0f904ee5a2a84992af</title>
<g id="a_node6"><a xlink:href="dir_b5547b1068d53f0f904ee5a2a84992af.html" target="_top" xlink:title="Base">
<polygon fill="none" stroke="red" points="120,-252 66,-252 66,-216 120,-216 120,-252"/>
<text text-anchor="middle" x="93" y="-231.5" font-family="Helvetica,sans-Serif" font-size="10.00">Base</text>
</a>
</g>
</g>
<!-- dir_166c71ede01fb529ec534b37c3a526ba&#45;&gt;dir_b5547b1068d53f0f904ee5a2a84992af -->
<g id="edge4" class="edge"><title>dir_166c71ede01fb529ec534b37c3a526ba&#45;&gt;dir_b5547b1068d53f0f904ee5a2a84992af</title>
<path fill="none" stroke="black" d="M78.0506,-359.871C80.9479,-335.67 86.2705,-291.211 89.7205,-262.393"/>
<polygon fill="black" stroke="black" points="93.2285,-262.534 90.9421,-252.189 86.2782,-261.702 93.2285,-262.534"/>
<g id="a_edge4&#45;headlabel"><a xlink:href="dir_000179_000453.html" target="_top" xlink:title="5">
<text text-anchor="middle" x="95.6205" y="-263.941" font-family="Helvetica,sans-Serif" font-size="10.00">5</text>
</a>
</g>
</g>
<!-- dir_2171f7ec022c5423887b07c69b2f5b48 -->
<g id="node7" class="node"><title>dir_2171f7ec022c5423887b07c69b2f5b48</title>
<g id="a_node7"><a xlink:href="dir_2171f7ec022c5423887b07c69b2f5b48.html" target="_top" xlink:title="DataFormats">
<polygon fill="none" stroke="red" points="162,-108 88,-108 88,-72 162,-72 162,-108"/>
<text text-anchor="middle" x="125" y="-87.5" font-family="Helvetica,sans-Serif" font-size="10.00">DataFormats</text>
</a>
</g>
</g>
<!-- dir_166c71ede01fb529ec534b37c3a526ba&#45;&gt;dir_2171f7ec022c5423887b07c69b2f5b48 -->
<g id="edge5" class="edge"><title>dir_166c71ede01fb529ec534b37c3a526ba&#45;&gt;dir_2171f7ec022c5423887b07c69b2f5b48</title>
<path fill="none" stroke="black" d="M99.8506,-359.939C107.951,-354.504 117.186,-348.691 126,-344 146.402,-333.142 161.18,-343.23 174,-324 217.439,-258.842 169.751,-162.52 142.02,-116.842"/>
<polygon fill="black" stroke="black" points="144.865,-114.79 136.609,-108.15 138.922,-118.489 144.865,-114.79"/>
<g id="a_edge5&#45;headlabel"><a xlink:href="dir_000179_000055.html" target="_top" xlink:title="21">
<text text-anchor="middle" x="149.175" y="-113.841" font-family="Helvetica,sans-Serif" font-size="10.00">21</text>
</a>
</g>
</g>
<!-- dir_4ab6b4cc6a7edbff49100e9123df213f&#45;&gt;dir_2171f7ec022c5423887b07c69b2f5b48 -->
<g id="edge6" class="edge"><title>dir_4ab6b4cc6a7edbff49100e9123df213f&#45;&gt;dir_2171f7ec022c5423887b07c69b2f5b48</title>
<path fill="none" stroke="black" d="M94.2416,-143.697C97.2073,-135.644 101.593,-125.894 106.204,-116.982"/>
<polygon fill="black" stroke="black" points="109.331,-118.56 111.041,-108.104 103.184,-115.211 109.331,-118.56"/>
<g id="a_edge6&#45;headlabel"><a xlink:href="dir_000012_000055.html" target="_top" xlink:title="5">
<text text-anchor="middle" x="110.104" y="-120.575" font-family="Helvetica,sans-Serif" font-size="10.00">5</text>
</a>
</g>
</g>
<!-- dir_754f2fe7806627988f6bd801b7f2fe5b&#45;&gt;dir_b5547b1068d53f0f904ee5a2a84992af -->
<g id="edge7" class="edge"><title>dir_754f2fe7806627988f6bd801b7f2fe5b&#45;&gt;dir_b5547b1068d53f0f904ee5a2a84992af</title>
<path fill="none" stroke="black" d="M124.618,-287.697C119.735,-279.559 113.813,-269.689 108.421,-260.701"/>
<polygon fill="black" stroke="black" points="111.409,-258.879 103.263,-252.104 105.406,-262.48 111.409,-258.879"/>
<g id="a_edge7&#45;headlabel"><a xlink:href="dir_000470_000453.html" target="_top" xlink:title="6">
<text text-anchor="middle" x="115.693" y="-258" font-family="Helvetica,sans-Serif" font-size="10.00">6</text>
</a>
</g>
</g>
<!-- dir_754f2fe7806627988f6bd801b7f2fe5b&#45;&gt;dir_2171f7ec022c5423887b07c69b2f5b48 -->
<g id="edge8" class="edge"><title>dir_754f2fe7806627988f6bd801b7f2fe5b&#45;&gt;dir_2171f7ec022c5423887b07c69b2f5b48</title>
<path fill="none" stroke="black" d="M134.569,-287.598C133.788,-258.058 131.943,-196.223 129,-144 128.531,-135.672 127.894,-126.618 127.267,-118.388"/>
<polygon fill="black" stroke="black" points="130.737,-117.869 126.463,-108.175 123.759,-118.419 130.737,-117.869"/>
<g id="a_edge8&#45;headlabel"><a xlink:href="dir_000470_000055.html" target="_top" xlink:title="5">
<text text-anchor="middle" x="133.85" y="-118.73" font-family="Helvetica,sans-Serif" font-size="10.00">5</text>
</a>
</g>
</g>
<!-- dir_37c90836491b695b472bf98d1be8336b&#45;&gt;dir_4ab6b4cc6a7edbff49100e9123df213f -->
<g id="edge9" class="edge"><title>dir_37c90836491b695b472bf98d1be8336b&#45;&gt;dir_4ab6b4cc6a7edbff49100e9123df213f</title>
<path fill="none" stroke="black" d="M86.5912,-36.4705C83.705,-46.7107 80.455,-59.9607 79,-72 77.0804,-87.8844 77.0804,-92.1156 79,-108 80.023,-116.465 81.9335,-125.529 83.9809,-133.724"/>
<polygon fill="black" stroke="black" points="80.6365,-134.766 86.5912,-143.529 87.4009,-132.966 80.6365,-134.766"/>
<g id="a_edge9&#45;headlabel"><a xlink:href="dir_000256_000012.html" target="_top" xlink:title="16">
<text text-anchor="middle" x="76.9681" y="-129.523" font-family="Helvetica,sans-Serif" font-size="10.00">16</text>
</a>
</g>
</g>
<!-- dir_37c90836491b695b472bf98d1be8336b&#45;&gt;dir_2171f7ec022c5423887b07c69b2f5b48 -->
<g id="edge10" class="edge"><title>dir_37c90836491b695b472bf98d1be8336b&#45;&gt;dir_2171f7ec022c5423887b07c69b2f5b48</title>
<path fill="none" stroke="black" d="M105.959,-36.1043C110.485,-43.9602 115.193,-53.4616 118.962,-62.232"/>
<polygon fill="black" stroke="black" points="115.787,-63.7184 122.758,-71.6966 122.284,-61.1124 115.787,-63.7184"/>
<g id="a_edge10&#45;headlabel"><a xlink:href="dir_000256_000055.html" target="_top" xlink:title="7">
<text text-anchor="middle" x="111.814" y="-58.9392" font-family="Helvetica,sans-Serif" font-size="10.00">7</text>
</a>
</g>
</g>
<!-- dir_b5547b1068d53f0f904ee5a2a84992af&#45;&gt;dir_4ab6b4cc6a7edbff49100e9123df213f -->
<g id="edge11" class="edge"><title>dir_b5547b1068d53f0f904ee5a2a84992af&#45;&gt;dir_4ab6b4cc6a7edbff49100e9123df213f</title>
<path fill="none" stroke="black" d="M92.7528,-215.697C92.6426,-207.983 92.5102,-198.712 92.3873,-190.112"/>
<polygon fill="black" stroke="black" points="95.8869,-190.053 92.2443,-180.104 88.8876,-190.153 95.8869,-190.053"/>
<g id="a_edge11&#45;headlabel"><a xlink:href="dir_000453_000012.html" target="_top" xlink:title="1">
<text text-anchor="middle" x="98.7772" y="-191.107" font-family="Helvetica,sans-Serif" font-size="10.00">1</text>
</a>
</g>
</g>
<!-- dir_2171f7ec022c5423887b07c69b2f5b48&#45;&gt;dir_4ab6b4cc6a7edbff49100e9123df213f -->
<g id="edge12" class="edge"><title>dir_2171f7ec022c5423887b07c69b2f5b48&#45;&gt;dir_4ab6b4cc6a7edbff49100e9123df213f</title>
<path fill="none" stroke="black" d="M122.832,-108.104C119.889,-116.129 115.517,-125.871 110.91,-134.797"/>
<polygon fill="black" stroke="black" points="107.773,-133.239 106.073,-143.697 113.923,-136.582 107.773,-133.239"/>
<g id="a_edge12&#45;headlabel"><a xlink:href="dir_000055_000012.html" target="_top" xlink:title="28">
<text text-anchor="middle" x="106.995" y="-126.225" font-family="Helvetica,sans-Serif" font-size="10.00">28</text>
</a>
</g>
</g>
<!-- dir_2171f7ec022c5423887b07c69b2f5b48&#45;&gt;dir_37c90836491b695b472bf98d1be8336b -->
<g id="edge13" class="edge"><title>dir_2171f7ec022c5423887b07c69b2f5b48&#45;&gt;dir_37c90836491b695b472bf98d1be8336b</title>
<path fill="none" stroke="black" d="M110.927,-71.6966C106.397,-63.8132 101.696,-54.3042 97.9429,-45.5464"/>
<polygon fill="black" stroke="black" points="101.13,-44.0907 94.1684,-36.1043 94.6304,-46.6891 101.13,-44.0907"/>
<g id="a_edge13&#45;headlabel"><a xlink:href="dir_000055_000256.html" target="_top" xlink:title="1">
<text text-anchor="middle" x="105.101" y="-43.8747" font-family="Helvetica,sans-Serif" font-size="10.00">1</text>
</a>
</g>
</g>
</g>
</svg>
