<?xml version="1.0" encoding="UTF-8" standalone="no"?>
<!DOCTYPE svg PUBLIC "-//W3C//DTD SVG 1.1//EN"
 "http://www.w3.org/Graphics/SVG/1.1/DTD/svg11.dtd">
<!-- Generated by graphviz version 2.38.0 (20140413.2041)
 -->
<!-- Title: /home/travis/build/AliceO2Group/AliceO2/Framework/Core/include/Framework Pages: 1 -->
<svg width="285pt" height="295pt"
 viewBox="0.00 0.00 284.84 295.00" xmlns="http://www.w3.org/2000/svg" xmlns:xlink="http://www.w3.org/1999/xlink">
<g id="graph0" class="graph" transform="scale(1 1) rotate(0) translate(4 291)">
<title>/home/travis/build/AliceO2Group/AliceO2/Framework/Core/include/Framework</title>
<g id="clust1" class="cluster"><title>clusterdir_985a55873ec4a56b27533251576853b6</title>
<g id="a_clust1"><a xlink:href="dir_985a55873ec4a56b27533251576853b6.html" target="_top" xlink:title="include">
<polygon fill="#ddddee" stroke="black" points="35.1527,-208 35.1527,-279 117.153,-279 117.153,-208 35.1527,-208"/>
<text text-anchor="middle" x="76.1527" y="-267" font-family="Helvetica,sans-Serif" font-size="10.00">include</text>
</a>
</g>
</g>
<!-- dir_8c4937e6752f73040ac16b54c2a51f32 -->
<g id="node1" class="node"><title>dir_8c4937e6752f73040ac16b54c2a51f32</title>
<g id="a_node1"><a xlink:href="dir_8c4937e6752f73040ac16b54c2a51f32.html" target="_top" xlink:title="Framework">
<polygon fill="#eeeeff" stroke="black" points="108.653,-252 43.6527,-252 43.6527,-216 108.653,-216 108.653,-252"/>
<text text-anchor="middle" x="76.1527" y="-231.5" font-family="Helvetica,sans-Serif" font-size="10.00">Framework</text>
</a>
</g>
</g>
<!-- dir_f0af9df59806ed8bcb6931e6b1774828 -->
<g id="node2" class="node"><title>dir_f0af9df59806ed8bcb6931e6b1774828</title>
<g id="a_node2"><a xlink:href="dir_f0af9df59806ed8bcb6931e6b1774828.html" target="_top" xlink:title="DebugGUI">
<polygon fill="none" stroke="red" points="244.653,-180 181.653,-180 181.653,-144 244.653,-144 244.653,-180"/>
<text text-anchor="middle" x="213.153" y="-159.5" font-family="Helvetica,sans-Serif" font-size="10.00">DebugGUI</text>
</a>
</g>
</g>
<!-- dir_8c4937e6752f73040ac16b54c2a51f32&#45;&gt;dir_f0af9df59806ed8bcb6931e6b1774828 -->
<g id="edge2" class="edge"><title>dir_8c4937e6752f73040ac16b54c2a51f32&#45;&gt;dir_f0af9df59806ed8bcb6931e6b1774828</title>
<path fill="none" stroke="black" d="M108.968,-216.233C128.051,-206.482 152.262,-194.112 172.541,-183.751"/>
<polygon fill="black" stroke="black" points="174.236,-186.815 181.549,-179.148 171.051,-180.581 174.236,-186.815"/>
<g id="a_edge2&#45;headlabel"><a xlink:href="dir_000563_000566.html" target="_top" xlink:title="1">
<text text-anchor="middle" x="172.327" y="-188.479" font-family="Helvetica,sans-Serif" font-size="10.00">1</text>
</a>
</g>
</g>
<!-- dir_4ab6b4cc6a7edbff49100e9123df213f -->
<g id="node3" class="node"><title>dir_4ab6b4cc6a7edbff49100e9123df213f</title>
<g id="a_node3"><a xlink:href="dir_4ab6b4cc6a7edbff49100e9123df213f.html" target="_top" xlink:title="Common">
<polygon fill="none" stroke="red" points="163.153,-180 107.153,-180 107.153,-144 163.153,-144 163.153,-180"/>
<text text-anchor="middle" x="135.153" y="-159.5" font-family="Helvetica,sans-Serif" font-size="10.00">Common</text>
</a>
</g>
</g>
<!-- dir_8c4937e6752f73040ac16b54c2a51f32&#45;&gt;dir_4ab6b4cc6a7edbff49100e9123df213f -->
<g id="edge3" class="edge"><title>dir_8c4937e6752f73040ac16b54c2a51f32&#45;&gt;dir_4ab6b4cc6a7edbff49100e9123df213f</title>
<path fill="none" stroke="black" d="M90.7369,-215.697C97.8102,-207.305 106.436,-197.07 114.198,-187.861"/>
<polygon fill="black" stroke="black" points="116.968,-190.006 120.736,-180.104 111.615,-185.495 116.968,-190.006"/>
<g id="a_edge3&#45;headlabel"><a xlink:href="dir_000563_000012.html" target="_top" xlink:title="5">
<text text-anchor="middle" x="116.822" y="-192.085" font-family="Helvetica,sans-Serif" font-size="10.00">5</text>
</a>
</g>
</g>
<!-- dir_5d813cdce1e9826318f2aba62999ca51 -->
<g id="node4" class="node"><title>dir_5d813cdce1e9826318f2aba62999ca51</title>
<g id="a_node4"><a xlink:href="dir_5d813cdce1e9826318f2aba62999ca51.html" target="_top" xlink:title="Foundation">
<polygon fill="none" stroke="red" points="88.6527,-180 23.6527,-180 23.6527,-144 88.6527,-144 88.6527,-180"/>
<text text-anchor="middle" x="56.1527" y="-159.5" font-family="Helvetica,sans-Serif" font-size="10.00">Foundation</text>
</a>
</g>
</g>
<!-- dir_8c4937e6752f73040ac16b54c2a51f32&#45;&gt;dir_5d813cdce1e9826318f2aba62999ca51 -->
<g id="edge4" class="edge"><title>dir_8c4937e6752f73040ac16b54c2a51f32&#45;&gt;dir_5d813cdce1e9826318f2aba62999ca51</title>
<path fill="none" stroke="black" d="M71.2088,-215.697C68.9807,-207.898 66.298,-198.509 63.8181,-189.829"/>
<polygon fill="black" stroke="black" points="67.1522,-188.758 61.0396,-180.104 60.4216,-190.681 67.1522,-188.758"/>
<g id="a_edge4&#45;headlabel"><a xlink:href="dir_000563_000572.html" target="_top" xlink:title="18">
<text text-anchor="middle" x="70.8697" y="-188.934" font-family="Helvetica,sans-Serif" font-size="10.00">18</text>
</a>
</g>
</g>
<!-- dir_0b60ff9a1849fb34896fe8bde9baec43 -->
<g id="node5" class="node"><title>dir_0b60ff9a1849fb34896fe8bde9baec43</title>
<g id="a_node5"><a xlink:href="dir_0b60ff9a1849fb34896fe8bde9baec43.html" target="_top" xlink:title="src">
<polygon fill="none" stroke="black" points="201.153,-252 147.153,-252 147.153,-216 201.153,-216 201.153,-252"/>
<text text-anchor="middle" x="174.153" y="-231.5" font-family="Helvetica,sans-Serif" font-size="10.00">src</text>
</a>
</g>
</g>
<!-- dir_8c4937e6752f73040ac16b54c2a51f32&#45;&gt;dir_0b60ff9a1849fb34896fe8bde9baec43 -->
<g id="edge5" class="edge"><title>dir_8c4937e6752f73040ac16b54c2a51f32&#45;&gt;dir_0b60ff9a1849fb34896fe8bde9baec43</title>
<path fill="none" stroke="black" d="M108.692,-234C118.081,-234 127.47,-234 136.859,-234"/>
<polygon fill="black" stroke="black" points="137.048,-237.5 147.048,-234 137.048,-230.5 137.048,-237.5"/>
<g id="a_edge5&#45;headlabel"><a xlink:href="dir_000563_000564.html" target="_top" xlink:title="2">
<text text-anchor="middle" x="133.453" y="-237.839" font-family="Helvetica,sans-Serif" font-size="10.00">2</text>
</a>
</g>
</g>
<!-- dir_ab5a80d4bd40f73f0851d5ff6a022779 -->
<g id="node6" class="node"><title>dir_ab5a80d4bd40f73f0851d5ff6a022779</title>
<g id="a_node6"><a xlink:href="dir_ab5a80d4bd40f73f0851d5ff6a022779.html" target="_top" xlink:title="Logger">
<polygon fill="none" stroke="red" points="162.153,-36 108.153,-36 108.153,-0 162.153,-0 162.153,-36"/>
<text text-anchor="middle" x="135.153" y="-15.5" font-family="Helvetica,sans-Serif" font-size="10.00">Logger</text>
</a>
</g>
</g>
<!-- dir_8c4937e6752f73040ac16b54c2a51f32&#45;&gt;dir_ab5a80d4bd40f73f0851d5ff6a022779 -->
<g id="edge6" class="edge"><title>dir_8c4937e6752f73040ac16b54c2a51f32&#45;&gt;dir_ab5a80d4bd40f73f0851d5ff6a022779</title>
<path fill="none" stroke="black" d="M43.5933,-217.546C29.0087,-208.754 13.2882,-196.225 5.15267,-180 -2.0189,-165.697 -1.11487,-158.721 5.15267,-144 24.2111,-99.235 68.0304,-62.7589 99.5291,-41.0024"/>
<polygon fill="black" stroke="black" points="101.715,-43.7499 108.056,-35.2617 97.8059,-37.9433 101.715,-43.7499"/>
<g id="a_edge6&#45;headlabel"><a xlink:href="dir_000563_000577.html" target="_top" xlink:title="2">
<text text-anchor="middle" x="100.319" y="-45.6126" font-family="Helvetica,sans-Serif" font-size="10.00">2</text>
</a>
</g>
</g>
<!-- dir_2171f7ec022c5423887b07c69b2f5b48 -->
<g id="node7" class="node"><title>dir_2171f7ec022c5423887b07c69b2f5b48</title>
<g id="a_node7"><a xlink:href="dir_2171f7ec022c5423887b07c69b2f5b48.html" target="_top" xlink:title="DataFormats">
<polygon fill="none" stroke="red" points="172.153,-108 98.1527,-108 98.1527,-72 172.153,-72 172.153,-108"/>
<text text-anchor="middle" x="135.153" y="-87.5" font-family="Helvetica,sans-Serif" font-size="10.00">DataFormats</text>
</a>
</g>
</g>
<!-- dir_8c4937e6752f73040ac16b54c2a51f32&#45;&gt;dir_2171f7ec022c5423887b07c69b2f5b48 -->
<g id="edge7" class="edge"><title>dir_8c4937e6752f73040ac16b54c2a51f32&#45;&gt;dir_2171f7ec022c5423887b07c69b2f5b48</title>
<path fill="none" stroke="black" d="M46.6481,-215.937C34.1708,-206.988 20.9672,-194.79 14.1527,-180 7.4573,-165.468 5.39799,-157.392 14.1527,-144 30.5095,-118.978 61.5793,-105.697 88.1387,-98.6869"/>
<polygon fill="black" stroke="black" points="89.1556,-102.042 98.0569,-96.2959 87.5151,-95.237 89.1556,-102.042"/>
<g id="a_edge7&#45;headlabel"><a xlink:href="dir_000563_000055.html" target="_top" xlink:title="22">
<text text-anchor="middle" x="86.3265" y="-103.145" font-family="Helvetica,sans-Serif" font-size="10.00">22</text>
</a>
</g>
</g>
<!-- dir_4ab6b4cc6a7edbff49100e9123df213f&#45;&gt;dir_2171f7ec022c5423887b07c69b2f5b48 -->
<g id="edge1" class="edge"><title>dir_4ab6b4cc6a7edbff49100e9123df213f&#45;&gt;dir_2171f7ec022c5423887b07c69b2f5b48</title>
<path fill="none" stroke="black" d="M129.237,-143.697C128.441,-135.983 128.215,-126.712 128.557,-118.112"/>
<polygon fill="black" stroke="black" points="132.051,-118.324 129.258,-108.104 125.068,-117.836 132.051,-118.324"/>
<g id="a_edge1&#45;headlabel"><a xlink:href="dir_000012_000055.html" target="_top" xlink:title="5">
<text text-anchor="middle" x="134.633" y="-119.608" font-family="Helvetica,sans-Serif" font-size="10.00">5</text>
</a>
</g>
</g>
<!-- dir_0b60ff9a1849fb34896fe8bde9baec43&#45;&gt;dir_8c4937e6752f73040ac16b54c2a51f32 -->
<g id="edge11" class="edge"><title>dir_0b60ff9a1849fb34896fe8bde9baec43&#45;&gt;dir_8c4937e6752f73040ac16b54c2a51f32</title>
<path fill="none" stroke="black" d="M147.048,-234C137.659,-234 128.269,-234 118.88,-234"/>
<polygon fill="black" stroke="black" points="118.692,-230.5 108.692,-234 118.692,-237.5 118.692,-230.5"/>
<g id="a_edge11&#45;headlabel"><a xlink:href="dir_000564_000563.html" target="_top" xlink:title="297">
<text text-anchor="middle" x="122.286" y="-225.161" font-family="Helvetica,sans-Serif" font-size="10.00">297</text>
</a>
</g>
</g>
<!-- dir_0b60ff9a1849fb34896fe8bde9baec43&#45;&gt;dir_f0af9df59806ed8bcb6931e6b1774828 -->
<g id="edge8" class="edge"><title>dir_0b60ff9a1849fb34896fe8bde9baec43&#45;&gt;dir_f0af9df59806ed8bcb6931e6b1774828</title>
<path fill="none" stroke="black" d="M183.793,-215.697C188.28,-207.644 193.711,-197.894 198.677,-188.982"/>
<polygon fill="black" stroke="black" points="201.814,-190.544 203.623,-180.104 195.699,-187.137 201.814,-190.544"/>
<g id="a_edge8&#45;headlabel"><a xlink:href="dir_000564_000566.html" target="_top" xlink:title="5">
<text text-anchor="middle" x="202.544" y="-192.565" font-family="Helvetica,sans-Serif" font-size="10.00">5</text>
</a>
</g>
</g>
<!-- dir_0b60ff9a1849fb34896fe8bde9baec43&#45;&gt;dir_4ab6b4cc6a7edbff49100e9123df213f -->
<g id="edge9" class="edge"><title>dir_0b60ff9a1849fb34896fe8bde9baec43&#45;&gt;dir_4ab6b4cc6a7edbff49100e9123df213f</title>
<path fill="none" stroke="black" d="M164.512,-215.697C160.026,-207.644 154.594,-197.894 149.629,-188.982"/>
<polygon fill="black" stroke="black" points="152.607,-187.137 144.682,-180.104 146.492,-190.544 152.607,-187.137"/>
<g id="a_edge9&#45;headlabel"><a xlink:href="dir_000564_000012.html" target="_top" xlink:title="1">
<text text-anchor="middle" x="156.837" y="-186.395" font-family="Helvetica,sans-Serif" font-size="10.00">1</text>
</a>
</g>
</g>
<!-- dir_0b60ff9a1849fb34896fe8bde9baec43&#45;&gt;dir_5d813cdce1e9826318f2aba62999ca51 -->
<g id="edge10" class="edge"><title>dir_0b60ff9a1849fb34896fe8bde9baec43&#45;&gt;dir_5d813cdce1e9826318f2aba62999ca51</title>
<path fill="none" stroke="black" d="M147.081,-216.941C131.321,-207.591 111.211,-195.662 93.9123,-185.4"/>
<polygon fill="black" stroke="black" points="95.5467,-182.3 85.1604,-180.208 91.9752,-188.32 95.5467,-182.3"/>
<g id="a_edge10&#45;headlabel"><a xlink:href="dir_000564_000572.html" target="_top" xlink:title="11">
<text text-anchor="middle" x="100.087" y="-179.192" font-family="Helvetica,sans-Serif" font-size="10.00">11</text>
</a>
</g>
</g>
<!-- dir_0b60ff9a1849fb34896fe8bde9baec43&#45;&gt;dir_ab5a80d4bd40f73f0851d5ff6a022779 -->
<g id="edge12" class="edge"><title>dir_0b60ff9a1849fb34896fe8bde9baec43&#45;&gt;dir_ab5a80d4bd40f73f0851d5ff6a022779</title>
<path fill="none" stroke="black" d="M201.35,-226.429C224.452,-219.252 256.174,-205.253 271.153,-180 279.315,-166.239 277.586,-158.65 271.153,-144 250.795,-97.6384 203.815,-60.9157 170.797,-39.5777"/>
<polygon fill="black" stroke="black" points="172.635,-36.599 162.308,-34.2299 168.903,-42.5217 172.635,-36.599"/>
<g id="a_edge12&#45;headlabel"><a xlink:href="dir_000564_000577.html" target="_top" xlink:title="17">
<text text-anchor="middle" x="177.189" y="-33.6128" font-family="Helvetica,sans-Serif" font-size="10.00">17</text>
</a>
</g>
</g>
<!-- dir_0b60ff9a1849fb34896fe8bde9baec43&#45;&gt;dir_2171f7ec022c5423887b07c69b2f5b48 -->
<g id="edge13" class="edge"><title>dir_0b60ff9a1849fb34896fe8bde9baec43&#45;&gt;dir_2171f7ec022c5423887b07c69b2f5b48</title>
<path fill="none" stroke="black" d="M201.351,-223.052C219.898,-214.672 243.038,-200.695 254.153,-180 261.723,-165.904 262.866,-157.419 254.153,-144 238.208,-119.444 207.957,-106.17 181.947,-99.047"/>
<polygon fill="black" stroke="black" points="182.776,-95.6465 172.224,-96.6077 181.072,-102.436 182.776,-95.6465"/>
<g id="a_edge13&#45;headlabel"><a xlink:href="dir_000564_000055.html" target="_top" xlink:title="16">
<text text-anchor="middle" x="186.953" y="-91.2673" font-family="Helvetica,sans-Serif" font-size="10.00">16</text>
</a>
</g>
</g>
<!-- dir_2171f7ec022c5423887b07c69b2f5b48&#45;&gt;dir_4ab6b4cc6a7edbff49100e9123df213f -->
<g id="edge14" class="edge"><title>dir_2171f7ec022c5423887b07c69b2f5b48&#45;&gt;dir_4ab6b4cc6a7edbff49100e9123df213f</title>
<path fill="none" stroke="black" d="M141.048,-108.104C141.853,-115.791 142.09,-125.054 141.757,-133.665"/>
<polygon fill="black" stroke="black" points="138.261,-133.48 141.068,-143.697 145.245,-133.96 138.261,-133.48"/>
<g id="a_edge14&#45;headlabel"><a xlink:href="dir_000055_000012.html" target="_top" xlink:title="28">
<text text-anchor="middle" x="135.675" y="-127.2" font-family="Helvetica,sans-Serif" font-size="10.00">28</text>
</a>
</g>
</g>
<!-- dir_2171f7ec022c5423887b07c69b2f5b48&#45;&gt;dir_ab5a80d4bd40f73f0851d5ff6a022779 -->
<g id="edge15" class="edge"><title>dir_2171f7ec022c5423887b07c69b2f5b48&#45;&gt;dir_ab5a80d4bd40f73f0851d5ff6a022779</title>
<path fill="none" stroke="black" d="M135.153,-71.6966C135.153,-63.9827 135.153,-54.7125 135.153,-46.1124"/>
<polygon fill="black" stroke="black" points="138.653,-46.1043 135.153,-36.1043 131.653,-46.1044 138.653,-46.1043"/>
<g id="a_edge15&#45;headlabel"><a xlink:href="dir_000055_000577.html" target="_top" xlink:title="6">
<text text-anchor="middle" x="141.492" y="-47.199" font-family="Helvetica,sans-Serif" font-size="10.00">6</text>
</a>
</g>
</g>
</g>
</svg>
