<?xml version="1.0" encoding="UTF-8" standalone="no"?>
<!DOCTYPE svg PUBLIC "-//W3C//DTD SVG 1.1//EN"
 "http://www.w3.org/Graphics/SVG/1.1/DTD/svg11.dtd">
<!-- Generated by graphviz version 2.38.0 (20140413.2041)
 -->
<!-- Title: /home/travis/build/AliceO2Group/AliceO2/DataFormats/Parameters/include Pages: 1 -->
<svg width="252pt" height="231pt"
 viewBox="0.00 0.00 252.00 231.00" xmlns="http://www.w3.org/2000/svg" xmlns:xlink="http://www.w3.org/1999/xlink">
<g id="graph0" class="graph" transform="scale(1 1) rotate(0) translate(4 227)">
<title>/home/travis/build/AliceO2Group/AliceO2/DataFormats/Parameters/include</title>
<g id="clust1" class="cluster"><title>clusterdir_d462256f2f72f303235b8fb5b5a9f479</title>
<g id="a_clust1"><a xlink:href="dir_d462256f2f72f303235b8fb5b5a9f479.html" target="_top" xlink:title="Parameters">
<polygon fill="#ddddee" stroke="black" points="8,-128 8,-215 236,-215 236,-128 8,-128"/>
<text text-anchor="middle" x="122" y="-203" font-family="Helvetica,sans-Serif" font-size="10.00">Parameters</text>
</a>
</g>
</g>
<g id="clust2" class="cluster"><title>clusterdir_04f156109dbc2fc51b99c265fe2b4a64</title>
<g id="a_clust2"><a xlink:href="dir_04f156109dbc2fc51b99c265fe2b4a64.html" target="_top">
<polygon fill="#eeeeff" stroke="black" points="16,-136 16,-188 228,-188 228,-136 16,-136"/>
</a>
</g>
</g>
<!-- dir_04f156109dbc2fc51b99c265fe2b4a64 -->
<g id="node1" class="node"><title>dir_04f156109dbc2fc51b99c265fe2b4a64</title>
<text text-anchor="middle" x="193" y="-159.5" font-family="Helvetica,sans-Serif" font-size="10.00">include</text>
</g>
<!-- dir_ba84ff22fb82a1ad72bd77f527e4e587 -->
<g id="node2" class="node"><title>dir_ba84ff22fb82a1ad72bd77f527e4e587</title>
<g id="a_node2"><a xlink:href="dir_ba84ff22fb82a1ad72bd77f527e4e587.html" target="_top" xlink:title="DataFormatsParameters">
<polygon fill="white" stroke="black" points="148,-180 24,-180 24,-144 148,-144 148,-180"/>
<text text-anchor="middle" x="86" y="-159.5" font-family="Helvetica,sans-Serif" font-size="10.00">DataFormatsParameters</text>
</a>
</g>
</g>
<!-- dir_4ab6b4cc6a7edbff49100e9123df213f -->
<g id="node3" class="node"><title>dir_4ab6b4cc6a7edbff49100e9123df213f</title>
<g id="a_node3"><a xlink:href="dir_4ab6b4cc6a7edbff49100e9123df213f.html" target="_top" xlink:title="Common">
<polygon fill="none" stroke="red" points="86,-108 30,-108 30,-72 86,-72 86,-108"/>
<text text-anchor="middle" x="58" y="-87.5" font-family="Helvetica,sans-Serif" font-size="10.00">Common</text>
</a>
</g>
</g>
<!-- dir_ba84ff22fb82a1ad72bd77f527e4e587&#45;&gt;dir_4ab6b4cc6a7edbff49100e9123df213f -->
<g id="edge1" class="edge"><title>dir_ba84ff22fb82a1ad72bd77f527e4e587&#45;&gt;dir_4ab6b4cc6a7edbff49100e9123df213f</title>
<path fill="none" stroke="black" d="M79.0786,-143.697C75.9253,-135.813 72.1217,-126.304 68.6186,-117.546"/>
<polygon fill="black" stroke="black" points="71.8054,-116.089 64.8417,-108.104 65.306,-118.689 71.8054,-116.089"/>
<g id="a_edge1&#45;headlabel"><a xlink:href="dir_000242_000012.html" target="_top" xlink:title="2">
<text text-anchor="middle" x="75.7765" y="-115.872" font-family="Helvetica,sans-Serif" font-size="10.00">2</text>
</a>
</g>
</g>
<!-- dir_2801adc79bf3c286b1b479858d2cade4 -->
<g id="node4" class="node"><title>dir_2801adc79bf3c286b1b479858d2cade4</title>
<g id="a_node4"><a xlink:href="dir_2801adc79bf3c286b1b479858d2cade4.html" target="_top" xlink:title="Detectors">
<polygon fill="none" stroke="red" points="87.5,-36 28.5,-36 28.5,-0 87.5,-0 87.5,-36"/>
<text text-anchor="middle" x="58" y="-15.5" font-family="Helvetica,sans-Serif" font-size="10.00">Detectors</text>
</a>
</g>
</g>
<!-- dir_ba84ff22fb82a1ad72bd77f527e4e587&#45;&gt;dir_2801adc79bf3c286b1b479858d2cade4 -->
<g id="edge2" class="edge"><title>dir_ba84ff22fb82a1ad72bd77f527e4e587&#45;&gt;dir_2801adc79bf3c286b1b479858d2cade4</title>
<path fill="none" stroke="black" d="M91.7074,-143.858C96.8697,-125.627 102.595,-96.1479 95,-72 91.9014,-62.1483 86.2488,-52.5302 80.2791,-44.2511"/>
<polygon fill="black" stroke="black" points="82.9145,-41.9371 74.0369,-36.1544 77.3707,-46.2111 82.9145,-41.9371"/>
<g id="a_edge2&#45;headlabel"><a xlink:href="dir_000242_000065.html" target="_top" xlink:title="1">
<text text-anchor="middle" x="87.3578" y="-40.5503" font-family="Helvetica,sans-Serif" font-size="10.00">1</text>
</a>
</g>
</g>
<!-- dir_4ab6b4cc6a7edbff49100e9123df213f&#45;&gt;dir_2801adc79bf3c286b1b479858d2cade4 -->
<g id="edge3" class="edge"><title>dir_4ab6b4cc6a7edbff49100e9123df213f&#45;&gt;dir_2801adc79bf3c286b1b479858d2cade4</title>
<path fill="none" stroke="black" d="M52.0843,-71.6966C51.2886,-63.9827 51.0621,-54.7125 51.4047,-46.1124"/>
<polygon fill="black" stroke="black" points="54.8984,-46.3243 52.105,-36.1043 47.9154,-45.8356 54.8984,-46.3243"/>
<g id="a_edge3&#45;headlabel"><a xlink:href="dir_000012_000065.html" target="_top" xlink:title="1">
<text text-anchor="middle" x="57.4799" y="-47.6083" font-family="Helvetica,sans-Serif" font-size="10.00">1</text>
</a>
</g>
</g>
<!-- dir_2801adc79bf3c286b1b479858d2cade4&#45;&gt;dir_4ab6b4cc6a7edbff49100e9123df213f -->
<g id="edge4" class="edge"><title>dir_2801adc79bf3c286b1b479858d2cade4&#45;&gt;dir_4ab6b4cc6a7edbff49100e9123df213f</title>
<path fill="none" stroke="black" d="M63.895,-36.1043C64.7005,-43.7913 64.9369,-53.0537 64.604,-61.6651"/>
<polygon fill="black" stroke="black" points="61.1085,-61.4805 63.9157,-71.6966 68.0921,-61.9597 61.1085,-61.4805"/>
<g id="a_edge4&#45;headlabel"><a xlink:href="dir_000065_000012.html" target="_top" xlink:title="12">
<text text-anchor="middle" x="58.5219" y="-55.2" font-family="Helvetica,sans-Serif" font-size="10.00">12</text>
</a>
</g>
</g>
</g>
</svg>
