<?xml version="1.0" encoding="UTF-8" standalone="no"?>
<!DOCTYPE svg PUBLIC "-//W3C//DTD SVG 1.1//EN"
 "http://www.w3.org/Graphics/SVG/1.1/DTD/svg11.dtd">
<!-- Generated by graphviz version 2.38.0 (20140413.2041)
 -->
<!-- Title: /home/travis/build/AliceO2Group/AliceO2/DataFormats/Detectors/ITSMFT/common/include/DataFormatsITSMFT Pages: 1 -->
<svg width="208pt" height="295pt"
 viewBox="0.00 0.00 208.09 295.00" xmlns="http://www.w3.org/2000/svg" xmlns:xlink="http://www.w3.org/1999/xlink">
<g id="graph0" class="graph" transform="scale(1 1) rotate(0) translate(4 291)">
<title>/home/travis/build/AliceO2Group/AliceO2/DataFormats/Detectors/ITSMFT/common/include/DataFormatsITSMFT</title>
<g id="clust1" class="cluster"><title>clusterdir_90228e13d7e50ca0627558c8e3e745e2</title>
<g id="a_clust1"><a xlink:href="dir_90228e13d7e50ca0627558c8e3e745e2.html" target="_top" xlink:title="include">
<polygon fill="#ddddee" stroke="black" points="31.0032,-208 31.0032,-279 157.003,-279 157.003,-208 31.0032,-208"/>
<text text-anchor="middle" x="94.0032" y="-267" font-family="Helvetica,sans-Serif" font-size="10.00">include</text>
</a>
</g>
</g>
<!-- dir_574ab9c39fd630a65444236d42c800d1 -->
<g id="node1" class="node"><title>dir_574ab9c39fd630a65444236d42c800d1</title>
<g id="a_node1"><a xlink:href="dir_574ab9c39fd630a65444236d42c800d1.html" target="_top" xlink:title="DataFormatsITSMFT">
<polygon fill="#eeeeff" stroke="black" points="149.003,-252 39.0032,-252 39.0032,-216 149.003,-216 149.003,-252"/>
<text text-anchor="middle" x="94.0032" y="-231.5" font-family="Helvetica,sans-Serif" font-size="10.00">DataFormatsITSMFT</text>
</a>
</g>
</g>
<!-- dir_d269712cc31e133b892a3b3f6424741a -->
<g id="node2" class="node"><title>dir_d269712cc31e133b892a3b3f6424741a</title>
<g id="a_node2"><a xlink:href="dir_d269712cc31e133b892a3b3f6424741a.html" target="_top" xlink:title="Reconstruction">
<polygon fill="none" stroke="red" points="181.503,-180 98.5032,-180 98.5032,-144 181.503,-144 181.503,-180"/>
<text text-anchor="middle" x="140.003" y="-159.5" font-family="Helvetica,sans-Serif" font-size="10.00">Reconstruction</text>
</a>
</g>
</g>
<!-- dir_574ab9c39fd630a65444236d42c800d1&#45;&gt;dir_d269712cc31e133b892a3b3f6424741a -->
<g id="edge5" class="edge"><title>dir_574ab9c39fd630a65444236d42c800d1&#45;&gt;dir_d269712cc31e133b892a3b3f6424741a</title>
<path fill="none" stroke="black" d="M105.374,-215.697C110.722,-207.559 117.208,-197.689 123.114,-188.701"/>
<polygon fill="black" stroke="black" points="126.196,-190.384 128.763,-180.104 120.346,-186.539 126.196,-190.384"/>
<g id="a_edge5&#45;headlabel"><a xlink:href="dir_000083_000209.html" target="_top" xlink:title="1">
<text text-anchor="middle" x="126.595" y="-192.447" font-family="Helvetica,sans-Serif" font-size="10.00">1</text>
</a>
</g>
</g>
<!-- dir_4ab6b4cc6a7edbff49100e9123df213f -->
<g id="node3" class="node"><title>dir_4ab6b4cc6a7edbff49100e9123df213f</title>
<g id="a_node3"><a xlink:href="dir_4ab6b4cc6a7edbff49100e9123df213f.html" target="_top" xlink:title="Common">
<polygon fill="none" stroke="red" points="128.003,-108 72.0032,-108 72.0032,-72 128.003,-72 128.003,-108"/>
<text text-anchor="middle" x="100.003" y="-87.5" font-family="Helvetica,sans-Serif" font-size="10.00">Common</text>
</a>
</g>
</g>
<!-- dir_574ab9c39fd630a65444236d42c800d1&#45;&gt;dir_4ab6b4cc6a7edbff49100e9123df213f -->
<g id="edge6" class="edge"><title>dir_574ab9c39fd630a65444236d42c800d1&#45;&gt;dir_4ab6b4cc6a7edbff49100e9123df213f</title>
<path fill="none" stroke="black" d="M46.9607,-215.973C31.0512,-207.696 15.0406,-195.993 6.00317,-180 -1.86839,-166.07 -2.06739,-157.815 6.00317,-144 18.1586,-123.192 41.8303,-109.914 62.3767,-101.852"/>
<polygon fill="black" stroke="black" points="63.646,-105.114 71.8453,-98.4046 61.2513,-98.5367 63.646,-105.114"/>
<g id="a_edge6&#45;headlabel"><a xlink:href="dir_000083_000012.html" target="_top" xlink:title="1">
<text text-anchor="middle" x="61.2395" y="-106.512" font-family="Helvetica,sans-Serif" font-size="10.00">1</text>
</a>
</g>
</g>
<!-- dir_7924ba4398ae4560cd37376e44666c6d -->
<g id="node4" class="node"><title>dir_7924ba4398ae4560cd37376e44666c6d</title>
<g id="a_node4"><a xlink:href="dir_7924ba4398ae4560cd37376e44666c6d.html" target="_top" xlink:title="common">
<polygon fill="none" stroke="red" points="155.003,-36 101.003,-36 101.003,-0 155.003,-0 155.003,-36"/>
<text text-anchor="middle" x="128.003" y="-15.5" font-family="Helvetica,sans-Serif" font-size="10.00">common</text>
</a>
</g>
</g>
<!-- dir_574ab9c39fd630a65444236d42c800d1&#45;&gt;dir_7924ba4398ae4560cd37376e44666c6d -->
<g id="edge7" class="edge"><title>dir_574ab9c39fd630a65444236d42c800d1&#45;&gt;dir_7924ba4398ae4560cd37376e44666c6d</title>
<path fill="none" stroke="black" d="M148.023,-215.962C164.777,-207.851 181.36,-196.258 191.003,-180 217.683,-135.02 178.863,-76.6889 151.343,-44.0155"/>
<polygon fill="black" stroke="black" points="153.834,-41.5454 144.637,-36.2853 148.547,-46.1326 153.834,-41.5454"/>
<g id="a_edge7&#45;headlabel"><a xlink:href="dir_000083_000056.html" target="_top" xlink:title="2">
<text text-anchor="middle" x="158.334" y="-39.9" font-family="Helvetica,sans-Serif" font-size="10.00">2</text>
</a>
</g>
</g>
<!-- dir_bcbb2cf9a3d3d83e5515c82071a07177 -->
<g id="node5" class="node"><title>dir_bcbb2cf9a3d3d83e5515c82071a07177</title>
<g id="a_node5"><a xlink:href="dir_bcbb2cf9a3d3d83e5515c82071a07177.html" target="_top" xlink:title="Framework">
<polygon fill="none" stroke="red" points="80.5032,-180 15.5032,-180 15.5032,-144 80.5032,-144 80.5032,-180"/>
<text text-anchor="middle" x="48.0032" y="-159.5" font-family="Helvetica,sans-Serif" font-size="10.00">Framework</text>
</a>
</g>
</g>
<!-- dir_574ab9c39fd630a65444236d42c800d1&#45;&gt;dir_bcbb2cf9a3d3d83e5515c82071a07177 -->
<g id="edge8" class="edge"><title>dir_574ab9c39fd630a65444236d42c800d1&#45;&gt;dir_bcbb2cf9a3d3d83e5515c82071a07177</title>
<path fill="none" stroke="black" d="M82.6324,-215.697C77.2847,-207.559 70.7988,-197.689 64.8926,-188.701"/>
<polygon fill="black" stroke="black" points="67.66,-186.539 59.2432,-180.104 61.81,-190.384 67.66,-186.539"/>
<g id="a_edge8&#45;headlabel"><a xlink:href="dir_000083_000031.html" target="_top" xlink:title="1">
<text text-anchor="middle" x="72.0068" y="-185.484" font-family="Helvetica,sans-Serif" font-size="10.00">1</text>
</a>
</g>
</g>
<!-- dir_d269712cc31e133b892a3b3f6424741a&#45;&gt;dir_4ab6b4cc6a7edbff49100e9123df213f -->
<g id="edge1" class="edge"><title>dir_d269712cc31e133b892a3b3f6424741a&#45;&gt;dir_4ab6b4cc6a7edbff49100e9123df213f</title>
<path fill="none" stroke="black" d="M124.2,-143.697C118.825,-135.728 113.108,-126.1 108.452,-117.264"/>
<polygon fill="black" stroke="black" points="111.478,-115.49 103.882,-108.104 105.214,-118.615 111.478,-115.49"/>
<g id="a_edge1&#45;headlabel"><a xlink:href="dir_000209_000012.html" target="_top" xlink:title="7">
<text text-anchor="middle" x="115.623" y="-114.939" font-family="Helvetica,sans-Serif" font-size="10.00">7</text>
</a>
</g>
</g>
<!-- dir_d269712cc31e133b892a3b3f6424741a&#45;&gt;dir_7924ba4398ae4560cd37376e44666c6d -->
<g id="edge2" class="edge"><title>dir_d269712cc31e133b892a3b3f6424741a&#45;&gt;dir_7924ba4398ae4560cd37376e44666c6d</title>
<path fill="none" stroke="black" d="M140.108,-143.892C140.058,-125.939 139.527,-96.918 137.003,-72 136.143,-63.5124 134.75,-54.329 133.314,-46.0287"/>
<polygon fill="black" stroke="black" points="136.742,-45.3183 131.509,-36.1062 129.855,-46.5712 136.742,-45.3183"/>
<g id="a_edge2&#45;headlabel"><a xlink:href="dir_000209_000056.html" target="_top" xlink:title="5">
<text text-anchor="middle" x="140.179" y="-45.8467" font-family="Helvetica,sans-Serif" font-size="10.00">5</text>
</a>
</g>
</g>
<!-- dir_4ab6b4cc6a7edbff49100e9123df213f&#45;&gt;dir_d269712cc31e133b892a3b3f6424741a -->
<g id="edge3" class="edge"><title>dir_4ab6b4cc6a7edbff49100e9123df213f&#45;&gt;dir_d269712cc31e133b892a3b3f6424741a</title>
<path fill="none" stroke="black" d="M115.672,-108.104C121.042,-116.045 126.764,-125.666 131.438,-134.515"/>
<polygon fill="black" stroke="black" points="128.427,-136.319 136.031,-143.697 134.687,-133.187 128.427,-136.319"/>
<g id="a_edge3&#45;headlabel"><a xlink:href="dir_000012_000209.html" target="_top" xlink:title="1">
<text text-anchor="middle" x="124.28" y="-131.875" font-family="Helvetica,sans-Serif" font-size="10.00">1</text>
</a>
</g>
</g>
<!-- dir_4ab6b4cc6a7edbff49100e9123df213f&#45;&gt;dir_7924ba4398ae4560cd37376e44666c6d -->
<g id="edge4" class="edge"><title>dir_4ab6b4cc6a7edbff49100e9123df213f&#45;&gt;dir_7924ba4398ae4560cd37376e44666c6d</title>
<path fill="none" stroke="black" d="M101.009,-71.6966C103.374,-63.7284 107.011,-54.0995 110.938,-45.2641"/>
<polygon fill="black" stroke="black" points="114.158,-46.6411 115.266,-36.1043 107.829,-43.6503 114.158,-46.6411"/>
<g id="a_edge4&#45;headlabel"><a xlink:href="dir_000012_000056.html" target="_top" xlink:title="1">
<text text-anchor="middle" x="115.19" y="-48.6041" font-family="Helvetica,sans-Serif" font-size="10.00">1</text>
</a>
</g>
</g>
<!-- dir_7924ba4398ae4560cd37376e44666c6d&#45;&gt;dir_4ab6b4cc6a7edbff49100e9123df213f -->
<g id="edge9" class="edge"><title>dir_7924ba4398ae4560cd37376e44666c6d&#45;&gt;dir_4ab6b4cc6a7edbff49100e9123df213f</title>
<path fill="none" stroke="black" d="M127.056,-36.1043C124.712,-44.0447 121.089,-53.6661 117.167,-62.5146"/>
<polygon fill="black" stroke="black" points="113.936,-61.1586 112.84,-71.6966 120.269,-64.1423 113.936,-61.1586"/>
<g id="a_edge9&#45;headlabel"><a xlink:href="dir_000056_000012.html" target="_top" xlink:title="2">
<text text-anchor="middle" x="112.9" y="-54.1967" font-family="Helvetica,sans-Serif" font-size="10.00">2</text>
</a>
</g>
</g>
<!-- dir_bcbb2cf9a3d3d83e5515c82071a07177&#45;&gt;dir_4ab6b4cc6a7edbff49100e9123df213f -->
<g id="edge10" class="edge"><title>dir_bcbb2cf9a3d3d83e5515c82071a07177&#45;&gt;dir_4ab6b4cc6a7edbff49100e9123df213f</title>
<path fill="none" stroke="black" d="M60.8571,-143.697C67.0282,-135.389 74.5402,-125.277 81.3272,-116.141"/>
<polygon fill="black" stroke="black" points="84.1434,-118.219 87.2971,-108.104 78.5242,-114.045 84.1434,-118.219"/>
<g id="a_edge10&#45;headlabel"><a xlink:href="dir_000031_000012.html" target="_top" xlink:title="8">
<text text-anchor="middle" x="84.2791" y="-120.298" font-family="Helvetica,sans-Serif" font-size="10.00">8</text>
</a>
</g>
</g>
</g>
</svg>
