<?xml version="1.0" encoding="UTF-8" standalone="no"?>
<!DOCTYPE svg PUBLIC "-//W3C//DTD SVG 1.1//EN"
 "http://www.w3.org/Graphics/SVG/1.1/DTD/svg11.dtd">
<!-- Generated by graphviz version 2.38.0 (20140413.2041)
 -->
<!-- Title: /home/travis/build/AliceO2Group/AliceO2/Framework/TestWorkflows Pages: 1 -->
<!--zoomable 519 -->
<svg id="main" version="1.1" xmlns="http://www.w3.org/2000/svg" xmlns:xlink="http://www.w3.org/1999/xlink" xml:space="preserve" onload="init(evt)">
<style type="text/css"><![CDATA[
.edge:hover path { stroke: red; }
.edge:hover polygon { stroke: red; fill: red; }
]]></style>
<script type="text/javascript"><![CDATA[
var edges = document.getElementsByTagName('g');
if (edges && edges.length) {
  for (var i=0;i<edges.length;i++) {
    if (edges[i].id.substr(0,4)=='edge') {
      edges[i].setAttribute('class','edge');
    }
  }
}
]]></script>
        <defs>
                <circle id="rim" cx="0" cy="0" r="7"/>
                <circle id="rim2" cx="0" cy="0" r="3.5"/>
                <g id="zoomPlus">
                        <use xlink:href="#rim" fill="#404040">
                                <set attributeName="fill" to="#808080" begin="zoomplus.mouseover" end="zoomplus.mouseout"/>
                        </use>
                        <path d="M-4,0h8M0,-4v8" fill="none" stroke="white" stroke-width="1.5" pointer-events="none"/>
                </g>
                <g id="zoomMin">
                        <use xlink:href="#rim" fill="#404040">
                                <set attributeName="fill" to="#808080" begin="zoomminus.mouseover" end="zoomminus.mouseout"/>
                        </use>
                        <path d="M-4,0h8" fill="none" stroke="white" stroke-width="1.5" pointer-events="none"/>
                </g>
                <g id="dirArrow">
                        <path fill="none" stroke="white" stroke-width="1.5" d="M0,-3.0v7 M-2.5,-0.5L0,-3.0L2.5,-0.5"/>
                </g>
               <g id="resetDef">
                       <use xlink:href="#rim2" fill="#404040">
                               <set attributeName="fill" to="#808080" begin="reset.mouseover" end="reset.mouseout"/>
                       </use>
               </g>
        </defs>

<script type="text/javascript">
var viewWidth = 306;
var viewHeight = 519;
var sectionId = 'dynsection-0';
</script>
<script xlink:href="svgpan.js"/>
<svg id="graph" class="graph">
<g id="viewport">
<title>/home/travis/build/AliceO2Group/AliceO2/Framework/TestWorkflows</title>
<g id="clust1" class="cluster"><title>clusterdir_bcbb2cf9a3d3d83e5515c82071a07177</title>
<g id="a_clust1"><a xlink:href="dir_bcbb2cf9a3d3d83e5515c82071a07177.html" target="_top" xlink:title="Framework">
<polygon fill="#ddddee" stroke="black" points="30,-416 30,-503 290,-503 290,-416 30,-416"/>
<text text-anchor="middle" x="160" y="-491" font-family="Helvetica,sans-Serif" font-size="10.00">Framework</text>
</a>
</g>
</g>
<g id="clust2" class="cluster"><title>clusterdir_a8f73827fca2a0188d35dc47dc5b0ea3</title>
<g id="a_clust2"><a xlink:href="dir_a8f73827fca2a0188d35dc47dc5b0ea3.html" target="_top">
<polygon fill="#eeeeff" stroke="black" points="38,-424 38,-476 282,-476 282,-424 38,-424"/>
</a>
</g>
</g>
<!-- dir_a8f73827fca2a0188d35dc47dc5b0ea3 -->
<g id="node1" class="node"><title>dir_a8f73827fca2a0188d35dc47dc5b0ea3</title>
<text text-anchor="middle" x="232" y="-447.5" font-family="Helvetica,sans-Serif" font-size="10.00">TestWorkflows</text>
</g>
<!-- dir_80c3b7d4c168c9aa75dd1ba81b9fa387 -->
<g id="node2" class="node"><title>dir_80c3b7d4c168c9aa75dd1ba81b9fa387</title>
<g id="a_node2"><a xlink:href="dir_80c3b7d4c168c9aa75dd1ba81b9fa387.html" target="_top" xlink:title="src">
<polygon fill="white" stroke="black" points="172,-468 118,-468 118,-432 172,-432 172,-468"/>
<text text-anchor="middle" x="145" y="-447.5" font-family="Helvetica,sans-Serif" font-size="10.00">src</text>
</a>
</g>
</g>
<!-- dir_0b342c6c6b7d2278121a0bb9c4985063 -->
<g id="node4" class="node"><title>dir_0b342c6c6b7d2278121a0bb9c4985063</title>
<g id="a_node4"><a xlink:href="dir_0b342c6c6b7d2278121a0bb9c4985063.html" target="_top" xlink:title="Generators">
<polygon fill="none" stroke="red" points="177.5,-396 112.5,-396 112.5,-360 177.5,-360 177.5,-396"/>
<text text-anchor="middle" x="145" y="-375.5" font-family="Helvetica,sans-Serif" font-size="10.00">Generators</text>
</a>
</g>
</g>
<!-- dir_80c3b7d4c168c9aa75dd1ba81b9fa387&#45;&gt;dir_0b342c6c6b7d2278121a0bb9c4985063 -->
<g id="edge1" class="edge"><title>dir_80c3b7d4c168c9aa75dd1ba81b9fa387&#45;&gt;dir_0b342c6c6b7d2278121a0bb9c4985063</title>
<path fill="none" stroke="black" d="M145,-431.697C145,-423.983 145,-414.712 145,-406.112"/>
<polygon fill="black" stroke="black" points="148.5,-406.104 145,-396.104 141.5,-406.104 148.5,-406.104"/>
<g id="a_edge1&#45;headlabel"><a xlink:href="dir_000559_000584.html" target="_top" xlink:title="1">
<text text-anchor="middle" x="151.339" y="-407.199" font-family="Helvetica,sans-Serif" font-size="10.00">1</text>
</a>
</g>
</g>
<!-- dir_4ab6b4cc6a7edbff49100e9123df213f -->
<g id="node5" class="node"><title>dir_4ab6b4cc6a7edbff49100e9123df213f</title>
<g id="a_node5"><a xlink:href="dir_4ab6b4cc6a7edbff49100e9123df213f.html" target="_top" xlink:title="Common">
<polygon fill="none" stroke="red" points="140,-324 84,-324 84,-288 140,-288 140,-324"/>
<text text-anchor="middle" x="112" y="-303.5" font-family="Helvetica,sans-Serif" font-size="10.00">Common</text>
</a>
</g>
</g>
<!-- dir_80c3b7d4c168c9aa75dd1ba81b9fa387&#45;&gt;dir_4ab6b4cc6a7edbff49100e9123df213f -->
<g id="edge2" class="edge"><title>dir_80c3b7d4c168c9aa75dd1ba81b9fa387&#45;&gt;dir_4ab6b4cc6a7edbff49100e9123df213f</title>
<path fill="none" stroke="black" d="M126.396,-431.756C117.469,-422.198 107.71,-409.527 103,-396 96.0417,-376.016 99.0403,-352.091 103.368,-334.083"/>
<polygon fill="black" stroke="black" points="106.798,-334.803 106.004,-324.238 100.036,-332.992 106.798,-334.803"/>
<g id="a_edge2&#45;headlabel"><a xlink:href="dir_000559_000012.html" target="_top" xlink:title="2">
<text text-anchor="middle" x="108.611" y="-336.51" font-family="Helvetica,sans-Serif" font-size="10.00">2</text>
</a>
</g>
</g>
<!-- dir_9f165b2481dacfe69aa54d326bd5cd47 -->
<g id="node6" class="node"><title>dir_9f165b2481dacfe69aa54d326bd5cd47</title>
<g id="a_node6"><a xlink:href="dir_9f165b2481dacfe69aa54d326bd5cd47.html" target="_top" xlink:title="Core">
<polygon fill="none" stroke="red" points="123,-108 69,-108 69,-72 123,-72 123,-108"/>
<text text-anchor="middle" x="96" y="-87.5" font-family="Helvetica,sans-Serif" font-size="10.00">Core</text>
</a>
</g>
</g>
<!-- dir_80c3b7d4c168c9aa75dd1ba81b9fa387&#45;&gt;dir_9f165b2481dacfe69aa54d326bd5cd47 -->
<g id="edge3" class="edge"><title>dir_80c3b7d4c168c9aa75dd1ba81b9fa387&#45;&gt;dir_9f165b2481dacfe69aa54d326bd5cd47</title>
<path fill="none" stroke="black" d="M127.809,-431.887C97.5622,-401.015 38,-336.479 38,-307 38,-307 38,-307 38,-233 38,-189.695 61.4035,-144.109 78.4776,-116.613"/>
<polygon fill="black" stroke="black" points="81.54,-118.321 83.9824,-108.011 75.644,-114.548 81.54,-118.321"/>
<g id="a_edge3&#45;headlabel"><a xlink:href="dir_000559_000561.html" target="_top" xlink:title="93">
<text text-anchor="middle" x="81.9939" y="-120.379" font-family="Helvetica,sans-Serif" font-size="10.00">93</text>
</a>
</g>
</g>
<!-- dir_051dca18e802f8e9474f2e30d29c04e0 -->
<g id="node7" class="node"><title>dir_051dca18e802f8e9474f2e30d29c04e0</title>
<g id="a_node7"><a xlink:href="dir_051dca18e802f8e9474f2e30d29c04e0.html" target="_top" xlink:title="Detectors">
<polygon fill="none" stroke="red" points="205.5,-180 146.5,-180 146.5,-144 205.5,-144 205.5,-180"/>
<text text-anchor="middle" x="176" y="-159.5" font-family="Helvetica,sans-Serif" font-size="10.00">Detectors</text>
</a>
</g>
</g>
<!-- dir_80c3b7d4c168c9aa75dd1ba81b9fa387&#45;&gt;dir_051dca18e802f8e9474f2e30d29c04e0 -->
<g id="edge4" class="edge"><title>dir_80c3b7d4c168c9aa75dd1ba81b9fa387&#45;&gt;dir_051dca18e802f8e9474f2e30d29c04e0</title>
<path fill="none" stroke="black" d="M163.6,-431.779C169.169,-426.67 175.308,-421.082 181,-416 191.105,-406.978 197.506,-407.889 204,-396 235.004,-339.239 220.321,-316.508 225,-252 226.157,-236.042 230.832,-230.899 225,-216 220.803,-205.279 213.308,-195.427 205.422,-187.201"/>
<polygon fill="black" stroke="black" points="207.76,-184.592 198.153,-180.125 202.877,-189.608 207.76,-184.592"/>
<g id="a_edge4&#45;headlabel"><a xlink:href="dir_000559_000024.html" target="_top" xlink:title="4">
<text text-anchor="middle" x="212.316" y="-182.565" font-family="Helvetica,sans-Serif" font-size="10.00">4</text>
</a>
</g>
</g>
<!-- dir_ab5a80d4bd40f73f0851d5ff6a022779 -->
<g id="node8" class="node"><title>dir_ab5a80d4bd40f73f0851d5ff6a022779</title>
<g id="a_node8"><a xlink:href="dir_ab5a80d4bd40f73f0851d5ff6a022779.html" target="_top" xlink:title="Logger">
<polygon fill="none" stroke="red" points="237,-36 183,-36 183,-0 237,-0 237,-36"/>
<text text-anchor="middle" x="210" y="-15.5" font-family="Helvetica,sans-Serif" font-size="10.00">Logger</text>
</a>
</g>
</g>
<!-- dir_80c3b7d4c168c9aa75dd1ba81b9fa387&#45;&gt;dir_ab5a80d4bd40f73f0851d5ff6a022779 -->
<g id="edge5" class="edge"><title>dir_80c3b7d4c168c9aa75dd1ba81b9fa387&#45;&gt;dir_ab5a80d4bd40f73f0851d5ff6a022779</title>
<path fill="none" stroke="black" d="M161.631,-431.669C167.428,-426.217 174.192,-420.461 181,-416 199.306,-404.004 209.455,-410.328 226,-396 261.329,-365.406 282,-353.734 282,-307 282,-307 282,-307 282,-161 282,-116.355 253.338,-71.5188 232.182,-44.5051"/>
<polygon fill="black" stroke="black" points="234.629,-41.964 225.623,-36.3835 229.183,-46.3622 234.629,-41.964"/>
<g id="a_edge5&#45;headlabel"><a xlink:href="dir_000559_000577.html" target="_top" xlink:title="12">
<text text-anchor="middle" x="239.096" y="-40.4766" font-family="Helvetica,sans-Serif" font-size="10.00">12</text>
</a>
</g>
</g>
<!-- dir_2171f7ec022c5423887b07c69b2f5b48 -->
<g id="node9" class="node"><title>dir_2171f7ec022c5423887b07c69b2f5b48</title>
<g id="a_node9"><a xlink:href="dir_2171f7ec022c5423887b07c69b2f5b48.html" target="_top" xlink:title="DataFormats">
<polygon fill="none" stroke="red" points="216,-252 142,-252 142,-216 216,-216 216,-252"/>
<text text-anchor="middle" x="179" y="-231.5" font-family="Helvetica,sans-Serif" font-size="10.00">DataFormats</text>
</a>
</g>
</g>
<!-- dir_80c3b7d4c168c9aa75dd1ba81b9fa387&#45;&gt;dir_2171f7ec022c5423887b07c69b2f5b48 -->
<g id="edge6" class="edge"><title>dir_80c3b7d4c168c9aa75dd1ba81b9fa387&#45;&gt;dir_2171f7ec022c5423887b07c69b2f5b48</title>
<path fill="none" stroke="black" d="M163.169,-431.677C171.885,-422.097 181.412,-409.43 186,-396 201.359,-351.044 193.263,-294.892 186.07,-262.176"/>
<polygon fill="black" stroke="black" points="189.383,-260.971 183.7,-252.029 182.566,-262.563 189.383,-260.971"/>
<g id="a_edge6&#45;headlabel"><a xlink:href="dir_000559_000055.html" target="_top" xlink:title="4">
<text text-anchor="middle" x="192.965" y="-261.326" font-family="Helvetica,sans-Serif" font-size="10.00">4</text>
</a>
</g>
</g>
<!-- dir_b6abd220a8a509af9882e60b4042c567 -->
<g id="node3" class="node"><title>dir_b6abd220a8a509af9882e60b4042c567</title>
<g id="a_node3"><a xlink:href="dir_b6abd220a8a509af9882e60b4042c567.html" target="_top" xlink:title="test">
<polygon fill="white" stroke="black" points="100,-468 46,-468 46,-432 100,-432 100,-468"/>
<text text-anchor="middle" x="73" y="-447.5" font-family="Helvetica,sans-Serif" font-size="10.00">test</text>
</a>
</g>
</g>
<!-- dir_b6abd220a8a509af9882e60b4042c567&#45;&gt;dir_9f165b2481dacfe69aa54d326bd5cd47 -->
<g id="edge17" class="edge"><title>dir_b6abd220a8a509af9882e60b4042c567&#45;&gt;dir_9f165b2481dacfe69aa54d326bd5cd47</title>
<path fill="none" stroke="black" d="M52.8561,-431.637C42.8689,-422.045 31.3939,-409.381 24,-396 4.18629,-360.141 0,-347.969 0,-307 0,-307 0,-307 0,-233 0,-192.031 0.8735,-177.817 24,-144 33.1834,-130.571 46.9162,-119.255 59.9338,-110.571"/>
<polygon fill="black" stroke="black" points="62.1848,-113.289 68.7669,-104.987 58.4441,-107.372 62.1848,-113.289"/>
<g id="a_edge17&#45;headlabel"><a xlink:href="dir_000581_000561.html" target="_top" xlink:title="3">
<text text-anchor="middle" x="60.6637" y="-115.11" font-family="Helvetica,sans-Serif" font-size="10.00">3</text>
</a>
</g>
</g>
<!-- dir_0b342c6c6b7d2278121a0bb9c4985063&#45;&gt;dir_4ab6b4cc6a7edbff49100e9123df213f -->
<g id="edge7" class="edge"><title>dir_0b342c6c6b7d2278121a0bb9c4985063&#45;&gt;dir_4ab6b4cc6a7edbff49100e9123df213f</title>
<path fill="none" stroke="black" d="M136.843,-359.697C133.086,-351.728 128.547,-342.1 124.382,-333.264"/>
<polygon fill="black" stroke="black" points="127.494,-331.657 120.063,-324.104 121.162,-334.642 127.494,-331.657"/>
<g id="a_edge7&#45;headlabel"><a xlink:href="dir_000584_000012.html" target="_top" xlink:title="7">
<text text-anchor="middle" x="131.595" y="-331.198" font-family="Helvetica,sans-Serif" font-size="10.00">7</text>
</a>
</g>
</g>
<!-- dir_0b342c6c6b7d2278121a0bb9c4985063&#45;&gt;dir_2171f7ec022c5423887b07c69b2f5b48 -->
<g id="edge8" class="edge"><title>dir_0b342c6c6b7d2278121a0bb9c4985063&#45;&gt;dir_2171f7ec022c5423887b07c69b2f5b48</title>
<path fill="none" stroke="black" d="M149.101,-359.871C154.921,-335.564 165.635,-290.819 172.532,-262.013"/>
<polygon fill="black" stroke="black" points="175.959,-262.729 174.884,-252.189 169.152,-261.099 175.959,-262.729"/>
<g id="a_edge8&#45;headlabel"><a xlink:href="dir_000584_000055.html" target="_top" xlink:title="1">
<text text-anchor="middle" x="177.884" y="-264.386" font-family="Helvetica,sans-Serif" font-size="10.00">1</text>
</a>
</g>
</g>
<!-- dir_4ab6b4cc6a7edbff49100e9123df213f&#45;&gt;dir_2171f7ec022c5423887b07c69b2f5b48 -->
<g id="edge9" class="edge"><title>dir_4ab6b4cc6a7edbff49100e9123df213f&#45;&gt;dir_2171f7ec022c5423887b07c69b2f5b48</title>
<path fill="none" stroke="black" d="M122.646,-287.697C129.958,-279.135 139.805,-268.656 149.275,-259.304"/>
<polygon fill="black" stroke="black" points="151.97,-261.568 156.734,-252.104 147.108,-256.532 151.97,-261.568"/>
<g id="a_edge9&#45;headlabel"><a xlink:href="dir_000012_000055.html" target="_top" xlink:title="5">
<text text-anchor="middle" x="151.356" y="-263.607" font-family="Helvetica,sans-Serif" font-size="10.00">5</text>
</a>
</g>
</g>
<!-- dir_9f165b2481dacfe69aa54d326bd5cd47&#45;&gt;dir_4ab6b4cc6a7edbff49100e9123df213f -->
<g id="edge10" class="edge"><title>dir_9f165b2481dacfe69aa54d326bd5cd47&#45;&gt;dir_4ab6b4cc6a7edbff49100e9123df213f</title>
<path fill="none" stroke="black" d="M97.2884,-108.232C100.062,-145.324 106.615,-232.981 109.96,-277.712"/>
<polygon fill="black" stroke="black" points="106.482,-278.138 110.718,-287.849 113.462,-277.616 106.482,-278.138"/>
<g id="a_edge10&#45;headlabel"><a xlink:href="dir_000561_000012.html" target="_top" xlink:title="6">
<text text-anchor="middle" x="103.382" y="-272.265" font-family="Helvetica,sans-Serif" font-size="10.00">6</text>
</a>
</g>
</g>
<!-- dir_9f165b2481dacfe69aa54d326bd5cd47&#45;&gt;dir_ab5a80d4bd40f73f0851d5ff6a022779 -->
<g id="edge11" class="edge"><title>dir_9f165b2481dacfe69aa54d326bd5cd47&#45;&gt;dir_ab5a80d4bd40f73f0851d5ff6a022779</title>
<path fill="none" stroke="black" d="M123.016,-72.411C138.238,-63.0642 157.449,-51.2684 173.942,-41.1411"/>
<polygon fill="black" stroke="black" points="176.092,-43.9278 182.782,-35.7125 172.429,-37.9626 176.092,-43.9278"/>
<g id="a_edge11&#45;headlabel"><a xlink:href="dir_000561_000577.html" target="_top" xlink:title="29">
<text text-anchor="middle" x="174.515" y="-45.7282" font-family="Helvetica,sans-Serif" font-size="10.00">29</text>
</a>
</g>
</g>
<!-- dir_9f165b2481dacfe69aa54d326bd5cd47&#45;&gt;dir_2171f7ec022c5423887b07c69b2f5b48 -->
<g id="edge12" class="edge"><title>dir_9f165b2481dacfe69aa54d326bd5cd47&#45;&gt;dir_2171f7ec022c5423887b07c69b2f5b48</title>
<path fill="none" stroke="black" d="M102.421,-108.011C109.677,-126.388 122.395,-156.228 137,-180 142.868,-189.552 150.202,-199.351 157.091,-207.885"/>
<polygon fill="black" stroke="black" points="154.427,-210.156 163.498,-215.63 159.821,-205.694 154.427,-210.156"/>
<g id="a_edge12&#45;headlabel"><a xlink:href="dir_000561_000055.html" target="_top" xlink:title="54">
<text text-anchor="middle" x="149.948" y="-206.696" font-family="Helvetica,sans-Serif" font-size="10.00">54</text>
</a>
</g>
</g>
<!-- dir_051dca18e802f8e9474f2e30d29c04e0&#45;&gt;dir_4ab6b4cc6a7edbff49100e9123df213f -->
<g id="edge13" class="edge"><title>dir_051dca18e802f8e9474f2e30d29c04e0&#45;&gt;dir_4ab6b4cc6a7edbff49100e9123df213f</title>
<path fill="none" stroke="black" d="M158.66,-180.224C149.77,-189.966 139.479,-202.813 133,-216 123.403,-235.534 118.062,-259.67 115.171,-277.877"/>
<polygon fill="black" stroke="black" points="111.699,-277.436 113.739,-287.832 118.628,-278.433 111.699,-277.436"/>
<g id="a_edge13&#45;headlabel"><a xlink:href="dir_000024_000012.html" target="_top" xlink:title="175">
<text text-anchor="middle" x="109.401" y="-270.974" font-family="Helvetica,sans-Serif" font-size="10.00">175</text>
</a>
</g>
</g>
<!-- dir_051dca18e802f8e9474f2e30d29c04e0&#45;&gt;dir_9f165b2481dacfe69aa54d326bd5cd47 -->
<g id="edge14" class="edge"><title>dir_051dca18e802f8e9474f2e30d29c04e0&#45;&gt;dir_9f165b2481dacfe69aa54d326bd5cd47</title>
<path fill="none" stroke="black" d="M156.225,-143.697C146.246,-134.965 133.989,-124.24 123.143,-114.75"/>
<polygon fill="black" stroke="black" points="125.378,-112.055 115.548,-108.104 120.769,-117.323 125.378,-112.055"/>
<g id="a_edge14&#45;headlabel"><a xlink:href="dir_000024_000561.html" target="_top" xlink:title="319">
<text text-anchor="middle" x="129.953" y="-109.786" font-family="Helvetica,sans-Serif" font-size="10.00">319</text>
</a>
</g>
</g>
<!-- dir_051dca18e802f8e9474f2e30d29c04e0&#45;&gt;dir_ab5a80d4bd40f73f0851d5ff6a022779 -->
<g id="edge15" class="edge"><title>dir_051dca18e802f8e9474f2e30d29c04e0&#45;&gt;dir_ab5a80d4bd40f73f0851d5ff6a022779</title>
<path fill="none" stroke="black" d="M180.101,-143.871C185.921,-119.564 196.635,-74.8187 203.532,-46.0132"/>
<polygon fill="black" stroke="black" points="206.959,-46.7294 205.884,-36.1893 200.152,-45.0994 206.959,-46.7294"/>
<g id="a_edge15&#45;headlabel"><a xlink:href="dir_000024_000577.html" target="_top" xlink:title="12">
<text text-anchor="middle" x="208.884" y="-48.3863" font-family="Helvetica,sans-Serif" font-size="10.00">12</text>
</a>
</g>
</g>
<!-- dir_051dca18e802f8e9474f2e30d29c04e0&#45;&gt;dir_2171f7ec022c5423887b07c69b2f5b48 -->
<g id="edge16" class="edge"><title>dir_051dca18e802f8e9474f2e30d29c04e0&#45;&gt;dir_2171f7ec022c5423887b07c69b2f5b48</title>
<path fill="none" stroke="black" d="M182.628,-180.104C183.763,-187.791 184.396,-197.054 184.433,-205.665"/>
<polygon fill="black" stroke="black" points="180.933,-205.61 184.174,-215.697 187.931,-205.79 180.933,-205.61"/>
<g id="a_edge16&#45;headlabel"><a xlink:href="dir_000024_000055.html" target="_top" xlink:title="650">
<text text-anchor="middle" x="178.187" y="-199.443" font-family="Helvetica,sans-Serif" font-size="10.00">650</text>
</a>
</g>
</g>
<!-- dir_2171f7ec022c5423887b07c69b2f5b48&#45;&gt;dir_4ab6b4cc6a7edbff49100e9123df213f -->
<g id="edge18" class="edge"><title>dir_2171f7ec022c5423887b07c69b2f5b48&#45;&gt;dir_4ab6b4cc6a7edbff49100e9123df213f</title>
<path fill="none" stroke="black" d="M168.524,-252.104C161.252,-260.636 151.421,-271.108 141.945,-280.478"/>
<polygon fill="black" stroke="black" points="139.235,-278.23 134.478,-287.697 144.1,-283.263 139.235,-278.23"/>
<g id="a_edge18&#45;headlabel"><a xlink:href="dir_000055_000012.html" target="_top" xlink:title="28">
<text text-anchor="middle" x="139.846" y="-271.19" font-family="Helvetica,sans-Serif" font-size="10.00">28</text>
</a>
</g>
</g>
<!-- dir_2171f7ec022c5423887b07c69b2f5b48&#45;&gt;dir_051dca18e802f8e9474f2e30d29c04e0 -->
<g id="edge19" class="edge"><title>dir_2171f7ec022c5423887b07c69b2f5b48&#45;&gt;dir_051dca18e802f8e9474f2e30d29c04e0</title>
<path fill="none" stroke="black" d="M172.343,-215.697C171.216,-207.983 170.593,-198.712 170.567,-190.112"/>
<polygon fill="black" stroke="black" points="174.066,-190.196 170.838,-180.104 167.068,-190.006 174.066,-190.196"/>
<g id="a_edge19&#45;headlabel"><a xlink:href="dir_000055_000024.html" target="_top" xlink:title="5">
<text text-anchor="middle" x="176.807" y="-191.366" font-family="Helvetica,sans-Serif" font-size="10.00">5</text>
</a>
</g>
</g>
<!-- dir_2171f7ec022c5423887b07c69b2f5b48&#45;&gt;dir_ab5a80d4bd40f73f0851d5ff6a022779 -->
<g id="edge20" class="edge"><title>dir_2171f7ec022c5423887b07c69b2f5b48&#45;&gt;dir_ab5a80d4bd40f73f0851d5ff6a022779</title>
<path fill="none" stroke="black" d="M194.183,-215.703C201.732,-205.939 210.066,-193.095 214,-180 227.587,-134.77 221.503,-79.1379 215.792,-46.5194"/>
<polygon fill="black" stroke="black" points="219.176,-45.5747 213.898,-36.3881 212.295,-46.8609 219.176,-45.5747"/>
<g id="a_edge20&#45;headlabel"><a xlink:href="dir_000055_000577.html" target="_top" xlink:title="6">
<text text-anchor="middle" x="222.627" y="-46.0864" font-family="Helvetica,sans-Serif" font-size="10.00">6</text>
</a>
</g>
</g>
</g>
</svg>
        <g id="navigator" transform="translate(0 0)" fill="#404254">
                <rect fill="#f2f5e9" fill-opacity="0.5" stroke="#606060" stroke-width=".5" x="0" y="0" width="60" height="60"/>
                <use id="zoomplus" xlink:href="#zoomPlus" x="17" y="9" onmousedown="handleZoom(evt,'in')"/>
                <use id="zoomminus" xlink:href="#zoomMin" x="42" y="9" onmousedown="handleZoom(evt,'out')"/>
                <use id="reset" xlink:href="#resetDef" x="30" y="36" onmousedown="handleReset()"/>
                <g id="arrowUp" xlink:href="#dirArrow" transform="translate(30 24)" onmousedown="handlePan(0,-1)">
                  <use xlink:href="#rim" fill="#404040">
                        <set attributeName="fill" to="#808080" begin="arrowUp.mouseover" end="arrowUp.mouseout"/>
                  </use>
                  <path fill="none" stroke="white" stroke-width="1.5" d="M0,-3.0v7 M-2.5,-0.5L0,-3.0L2.5,-0.5"/>
                </g>
                <g id="arrowRight" xlink:href="#dirArrow" transform="rotate(90) translate(36 -43)" onmousedown="handlePan(1,0)">
                  <use xlink:href="#rim" fill="#404040">
                        <set attributeName="fill" to="#808080" begin="arrowRight.mouseover" end="arrowRight.mouseout"/>
                  </use>
                  <path fill="none" stroke="white" stroke-width="1.5" d="M0,-3.0v7 M-2.5,-0.5L0,-3.0L2.5,-0.5"/>
                </g>
                <g id="arrowDown" xlink:href="#dirArrow" transform="rotate(180) translate(-30 -48)" onmousedown="handlePan(0,1)">
                  <use xlink:href="#rim" fill="#404040">
                        <set attributeName="fill" to="#808080" begin="arrowDown.mouseover" end="arrowDown.mouseout"/>
                  </use>
                  <path fill="none" stroke="white" stroke-width="1.5" d="M0,-3.0v7 M-2.5,-0.5L0,-3.0L2.5,-0.5"/>
                </g>
                <g id="arrowLeft" xlink:href="#dirArrow" transform="rotate(270) translate(-36 17)" onmousedown="handlePan(-1,0)">
                  <use xlink:href="#rim" fill="#404040">
                        <set attributeName="fill" to="#808080" begin="arrowLeft.mouseover" end="arrowLeft.mouseout"/>
                  </use>
                  <path fill="none" stroke="white" stroke-width="1.5" d="M0,-3.0v7 M-2.5,-0.5L0,-3.0L2.5,-0.5"/>
                </g>
        </g>
        <svg viewBox="0 0 15 15" width="100%" height="30px" preserveAspectRatio="xMaxYMin meet">
         <g id="arrow_out" transform="scale(0.3 0.3)">
          <a xlink:href="dir_a8f73827fca2a0188d35dc47dc5b0ea3_dep_org.svg" target="_base">
           <rect id="button" ry="5" rx="5" y="6" x="6" height="38" width="38"
                fill="#f2f5e9" fill-opacity="0.5" stroke="#606060" stroke-width="1.0"/>
           <path id="arrow"
             d="M 11.500037,31.436501 C 11.940474,20.09759 22.043105,11.32322 32.158766,21.979434 L 37.068811,17.246167 C 37.068811,17.246167 37.088388,32 37.088388,32 L 22.160133,31.978069 C 22.160133,31.978069 26.997745,27.140456 26.997745,27.140456 C 18.528582,18.264221 13.291696,25.230495 11.500037,31.436501 z"
             style="fill:#404040;"/>
          </a>
         </g>
        </svg>
</svg>
