<?xml version="1.0" encoding="UTF-8" standalone="no"?>
<!DOCTYPE svg PUBLIC "-//W3C//DTD SVG 1.1//EN"
 "http://www.w3.org/Graphics/SVG/1.1/DTD/svg11.dtd">
<!-- Generated by graphviz version 2.38.0 (20140413.2041)
 -->
<!-- Title: /home/travis/build/AliceO2Group/AliceO2/Detectors/FIT/FDD/simulation Pages: 1 -->
<svg width="225pt" height="375pt"
 viewBox="0.00 0.00 224.98 375.00" xmlns="http://www.w3.org/2000/svg" xmlns:xlink="http://www.w3.org/1999/xlink">
<g id="graph0" class="graph" transform="scale(1 1) rotate(0) translate(4 371)">
<title>/home/travis/build/AliceO2Group/AliceO2/Detectors/FIT/FDD/simulation</title>
<g id="clust1" class="cluster"><title>clusterdir_a5b1c90a9b4d60b6556bfe35a03caaa0</title>
<g id="a_clust1"><a xlink:href="dir_a5b1c90a9b4d60b6556bfe35a03caaa0.html" target="_top" xlink:title="FDD">
<polygon fill="#ddddee" stroke="black" points="25.9761,-200 25.9761,-359 191.976,-359 191.976,-200 25.9761,-200"/>
<text text-anchor="middle" x="108.976" y="-347" font-family="Helvetica,sans-Serif" font-size="10.00">FDD</text>
</a>
</g>
</g>
<g id="clust2" class="cluster"><title>clusterdir_f0fa586345106a7c1715ccd7aa13aaee</title>
<g id="a_clust2"><a xlink:href="dir_f0fa586345106a7c1715ccd7aa13aaee.html" target="_top">
<polygon fill="#eeeeff" stroke="black" points="33.9761,-208 33.9761,-332 183.976,-332 183.976,-208 33.9761,-208"/>
</a>
</g>
</g>
<!-- dir_f0fa586345106a7c1715ccd7aa13aaee -->
<g id="node1" class="node"><title>dir_f0fa586345106a7c1715ccd7aa13aaee</title>
<text text-anchor="middle" x="144.976" y="-303.5" font-family="Helvetica,sans-Serif" font-size="10.00">simulation</text>
</g>
<!-- dir_1ea4f5023fc6129dbdfa67598ac85edc -->
<g id="node2" class="node"><title>dir_1ea4f5023fc6129dbdfa67598ac85edc</title>
<g id="a_node2"><a xlink:href="dir_1ea4f5023fc6129dbdfa67598ac85edc.html" target="_top" xlink:title="include">
<polygon fill="white" stroke="red" points="123.976,-252 69.9761,-252 69.9761,-216 123.976,-216 123.976,-252"/>
<text text-anchor="middle" x="96.9761" y="-231.5" font-family="Helvetica,sans-Serif" font-size="10.00">include</text>
</a>
</g>
</g>
<!-- dir_4ab6b4cc6a7edbff49100e9123df213f -->
<g id="node4" class="node"><title>dir_4ab6b4cc6a7edbff49100e9123df213f</title>
<g id="a_node4"><a xlink:href="dir_4ab6b4cc6a7edbff49100e9123df213f.html" target="_top" xlink:title="Common">
<polygon fill="none" stroke="red" points="68.9761,-180 12.9761,-180 12.9761,-144 68.9761,-144 68.9761,-180"/>
<text text-anchor="middle" x="40.9761" y="-159.5" font-family="Helvetica,sans-Serif" font-size="10.00">Common</text>
</a>
</g>
</g>
<!-- dir_1ea4f5023fc6129dbdfa67598ac85edc&#45;&gt;dir_4ab6b4cc6a7edbff49100e9123df213f -->
<g id="edge1" class="edge"><title>dir_1ea4f5023fc6129dbdfa67598ac85edc&#45;&gt;dir_4ab6b4cc6a7edbff49100e9123df213f</title>
<path fill="none" stroke="black" d="M83.1334,-215.697C76.4876,-207.389 68.3978,-197.277 61.0887,-188.141"/>
<polygon fill="black" stroke="black" points="63.6396,-185.727 54.6596,-180.104 58.1735,-190.099 63.6396,-185.727"/>
<g id="a_edge1&#45;headlabel"><a xlink:href="dir_000265_000012.html" target="_top" xlink:title="1">
<text text-anchor="middle" x="68.1022" y="-184.26" font-family="Helvetica,sans-Serif" font-size="10.00">1</text>
</a>
</g>
</g>
<!-- dir_37c90836491b695b472bf98d1be8336b -->
<g id="node5" class="node"><title>dir_37c90836491b695b472bf98d1be8336b</title>
<g id="a_node5"><a xlink:href="dir_37c90836491b695b472bf98d1be8336b.html" target="_top" xlink:title="Base">
<polygon fill="none" stroke="red" points="82.9761,-36 28.9761,-36 28.9761,-0 82.9761,-0 82.9761,-36"/>
<text text-anchor="middle" x="55.9761" y="-15.5" font-family="Helvetica,sans-Serif" font-size="10.00">Base</text>
</a>
</g>
</g>
<!-- dir_1ea4f5023fc6129dbdfa67598ac85edc&#45;&gt;dir_37c90836491b695b472bf98d1be8336b -->
<g id="edge2" class="edge"><title>dir_1ea4f5023fc6129dbdfa67598ac85edc&#45;&gt;dir_37c90836491b695b472bf98d1be8336b</title>
<path fill="none" stroke="black" d="M101.624,-215.863C108.929,-185.672 120.467,-121.514 101.976,-72 98.1,-61.6206 91.1732,-51.9274 83.8521,-43.7427"/>
<polygon fill="black" stroke="black" points="86.2455,-41.1816 76.7989,-36.3845 81.1921,-46.0256 86.2455,-41.1816"/>
<g id="a_edge2&#45;headlabel"><a xlink:href="dir_000265_000256.html" target="_top" xlink:title="1">
<text text-anchor="middle" x="90.7826" y="-39.3118" font-family="Helvetica,sans-Serif" font-size="10.00">1</text>
</a>
</g>
</g>
<!-- dir_e3378330628bb5a530079636b74abbc9 -->
<g id="node6" class="node"><title>dir_e3378330628bb5a530079636b74abbc9</title>
<g id="a_node6"><a xlink:href="dir_e3378330628bb5a530079636b74abbc9.html" target="_top" xlink:title="base">
<polygon fill="none" stroke="red" points="216.976,-180 162.976,-180 162.976,-144 216.976,-144 216.976,-180"/>
<text text-anchor="middle" x="189.976" y="-159.5" font-family="Helvetica,sans-Serif" font-size="10.00">base</text>
</a>
</g>
</g>
<!-- dir_1ea4f5023fc6129dbdfa67598ac85edc&#45;&gt;dir_e3378330628bb5a530079636b74abbc9 -->
<g id="edge3" class="edge"><title>dir_1ea4f5023fc6129dbdfa67598ac85edc&#45;&gt;dir_e3378330628bb5a530079636b74abbc9</title>
<path fill="none" stroke="black" d="M119.965,-215.697C131.79,-206.796 146.368,-195.823 159.155,-186.199"/>
<polygon fill="black" stroke="black" points="161.367,-188.915 167.252,-180.104 157.157,-183.322 161.367,-188.915"/>
<g id="a_edge3&#45;headlabel"><a xlink:href="dir_000265_000310.html" target="_top" xlink:title="1">
<text text-anchor="middle" x="160.202" y="-190.845" font-family="Helvetica,sans-Serif" font-size="10.00">1</text>
</a>
</g>
</g>
<!-- dir_2171f7ec022c5423887b07c69b2f5b48 -->
<g id="node7" class="node"><title>dir_2171f7ec022c5423887b07c69b2f5b48</title>
<g id="a_node7"><a xlink:href="dir_2171f7ec022c5423887b07c69b2f5b48.html" target="_top" xlink:title="DataFormats">
<polygon fill="none" stroke="red" points="92.9761,-108 18.9761,-108 18.9761,-72 92.9761,-72 92.9761,-108"/>
<text text-anchor="middle" x="55.9761" y="-87.5" font-family="Helvetica,sans-Serif" font-size="10.00">DataFormats</text>
</a>
</g>
</g>
<!-- dir_1ea4f5023fc6129dbdfa67598ac85edc&#45;&gt;dir_2171f7ec022c5423887b07c69b2f5b48 -->
<g id="edge4" class="edge"><title>dir_1ea4f5023fc6129dbdfa67598ac85edc&#45;&gt;dir_2171f7ec022c5423887b07c69b2f5b48</title>
<path fill="none" stroke="black" d="M94.2504,-215.698C91.1734,-197.587 85.5862,-168.438 77.9761,-144 75.251,-135.249 71.6432,-125.943 68.1392,-117.611"/>
<polygon fill="black" stroke="black" points="71.3213,-116.151 64.1325,-108.368 64.8989,-118.935 71.3213,-116.151"/>
<g id="a_edge4&#45;headlabel"><a xlink:href="dir_000265_000055.html" target="_top" xlink:title="7">
<text text-anchor="middle" x="75.356" y="-115.82" font-family="Helvetica,sans-Serif" font-size="10.00">7</text>
</a>
</g>
</g>
<!-- dir_9f2f79ca7be5af085ed9b57fc482ece6 -->
<g id="node3" class="node"><title>dir_9f2f79ca7be5af085ed9b57fc482ece6</title>
<g id="a_node3"><a xlink:href="dir_9f2f79ca7be5af085ed9b57fc482ece6.html" target="_top" xlink:title="src">
<polygon fill="white" stroke="black" points="95.9761,-324 41.9761,-324 41.9761,-288 95.9761,-288 95.9761,-324"/>
<text text-anchor="middle" x="68.9761" y="-303.5" font-family="Helvetica,sans-Serif" font-size="10.00">src</text>
</a>
</g>
</g>
<!-- dir_9f2f79ca7be5af085ed9b57fc482ece6&#45;&gt;dir_1ea4f5023fc6129dbdfa67598ac85edc -->
<g id="edge5" class="edge"><title>dir_9f2f79ca7be5af085ed9b57fc482ece6&#45;&gt;dir_1ea4f5023fc6129dbdfa67598ac85edc</title>
<path fill="none" stroke="black" d="M75.8975,-287.697C79.0508,-279.813 82.8544,-270.304 86.3576,-261.546"/>
<polygon fill="black" stroke="black" points="89.6701,-262.689 90.1344,-252.104 83.1707,-260.089 89.6701,-262.689"/>
<g id="a_edge5&#45;headlabel"><a xlink:href="dir_000297_000265.html" target="_top" xlink:title="2">
<text text-anchor="middle" x="90.9713" y="-264.581" font-family="Helvetica,sans-Serif" font-size="10.00">2</text>
</a>
</g>
</g>
<!-- dir_9f2f79ca7be5af085ed9b57fc482ece6&#45;&gt;dir_4ab6b4cc6a7edbff49100e9123df213f -->
<g id="edge6" class="edge"><title>dir_9f2f79ca7be5af085ed9b57fc482ece6&#45;&gt;dir_4ab6b4cc6a7edbff49100e9123df213f</title>
<path fill="none" stroke="black" d="M65.5987,-287.871C60.8056,-263.564 51.9826,-218.819 46.3027,-190.013"/>
<polygon fill="black" stroke="black" points="49.7341,-189.323 44.3655,-180.189 42.8663,-190.677 49.7341,-189.323"/>
<g id="a_edge6&#45;headlabel"><a xlink:href="dir_000297_000012.html" target="_top" xlink:title="2">
<text text-anchor="middle" x="53.2151" y="-189.801" font-family="Helvetica,sans-Serif" font-size="10.00">2</text>
</a>
</g>
</g>
<!-- dir_9f2f79ca7be5af085ed9b57fc482ece6&#45;&gt;dir_e3378330628bb5a530079636b74abbc9 -->
<g id="edge7" class="edge"><title>dir_9f2f79ca7be5af085ed9b57fc482ece6&#45;&gt;dir_e3378330628bb5a530079636b74abbc9</title>
<path fill="none" stroke="black" d="M93.0204,-287.944C105.736,-278.251 121.122,-265.397 132.976,-252 150.139,-232.604 165.704,-207.539 176.216,-188.954"/>
<polygon fill="black" stroke="black" points="179.31,-190.591 181.095,-180.148 173.187,-187.199 179.31,-190.591"/>
<g id="a_edge7&#45;headlabel"><a xlink:href="dir_000297_000310.html" target="_top" xlink:title="1">
<text text-anchor="middle" x="180.052" y="-192.611" font-family="Helvetica,sans-Serif" font-size="10.00">1</text>
</a>
</g>
</g>
<!-- dir_9f2f79ca7be5af085ed9b57fc482ece6&#45;&gt;dir_2171f7ec022c5423887b07c69b2f5b48 -->
<g id="edge8" class="edge"><title>dir_9f2f79ca7be5af085ed9b57fc482ece6&#45;&gt;dir_2171f7ec022c5423887b07c69b2f5b48</title>
<path fill="none" stroke="black" d="M56.6249,-287.865C40.7831,-264.725 14.141,-221.581 3.97612,-180 0.176609,-164.458 -2.07636,-158.811 3.97612,-144 8.46416,-133.017 16.4466,-123.081 24.8306,-114.858"/>
<polygon fill="black" stroke="black" points="27.2112,-117.424 32.224,-108.09 22.4846,-112.261 27.2112,-117.424"/>
<g id="a_edge8&#45;headlabel"><a xlink:href="dir_000297_000055.html" target="_top" xlink:title="4">
<text text-anchor="middle" x="26.4769" y="-119.445" font-family="Helvetica,sans-Serif" font-size="10.00">4</text>
</a>
</g>
</g>
<!-- dir_4ab6b4cc6a7edbff49100e9123df213f&#45;&gt;dir_2171f7ec022c5423887b07c69b2f5b48 -->
<g id="edge9" class="edge"><title>dir_4ab6b4cc6a7edbff49100e9123df213f&#45;&gt;dir_2171f7ec022c5423887b07c69b2f5b48</title>
<path fill="none" stroke="black" d="M38.7683,-143.697C39.635,-135.898 41.4243,-126.509 43.6432,-117.829"/>
<polygon fill="black" stroke="black" points="47.0398,-118.681 46.4159,-108.104 40.3081,-116.761 47.0398,-118.681"/>
<g id="a_edge9&#45;headlabel"><a xlink:href="dir_000012_000055.html" target="_top" xlink:title="5">
<text text-anchor="middle" x="48.7848" y="-120.416" font-family="Helvetica,sans-Serif" font-size="10.00">5</text>
</a>
</g>
</g>
<!-- dir_37c90836491b695b472bf98d1be8336b&#45;&gt;dir_4ab6b4cc6a7edbff49100e9123df213f -->
<g id="edge10" class="edge"><title>dir_37c90836491b695b472bf98d1be8336b&#45;&gt;dir_4ab6b4cc6a7edbff49100e9123df213f</title>
<path fill="none" stroke="black" d="M35.1533,-36.3845C25.5181,-45.8019 15.091,-58.3034 9.97612,-72 4.37862,-86.9889 5.79138,-92.5569 9.97612,-108 12.5559,-117.52 17.3208,-127.083 22.3541,-135.413"/>
<polygon fill="black" stroke="black" points="19.4706,-137.399 27.8305,-143.908 25.354,-133.607 19.4706,-137.399"/>
<g id="a_edge10&#45;headlabel"><a xlink:href="dir_000256_000012.html" target="_top" xlink:title="16">
<text text-anchor="middle" x="15.1366" y="-133.417" font-family="Helvetica,sans-Serif" font-size="10.00">16</text>
</a>
</g>
</g>
<!-- dir_37c90836491b695b472bf98d1be8336b&#45;&gt;dir_2171f7ec022c5423887b07c69b2f5b48 -->
<g id="edge11" class="edge"><title>dir_37c90836491b695b472bf98d1be8336b&#45;&gt;dir_2171f7ec022c5423887b07c69b2f5b48</title>
<path fill="none" stroke="black" d="M61.8711,-36.1043C62.6767,-43.7913 62.913,-53.0537 62.5801,-61.6651"/>
<polygon fill="black" stroke="black" points="59.0847,-61.4805 61.8918,-71.6966 66.0682,-61.9597 59.0847,-61.4805"/>
<g id="a_edge11&#45;headlabel"><a xlink:href="dir_000256_000055.html" target="_top" xlink:title="7">
<text text-anchor="middle" x="56.498" y="-55.2" font-family="Helvetica,sans-Serif" font-size="10.00">7</text>
</a>
</g>
</g>
<!-- dir_2171f7ec022c5423887b07c69b2f5b48&#45;&gt;dir_4ab6b4cc6a7edbff49100e9123df213f -->
<g id="edge12" class="edge"><title>dir_2171f7ec022c5423887b07c69b2f5b48&#45;&gt;dir_4ab6b4cc6a7edbff49100e9123df213f</title>
<path fill="none" stroke="black" d="M58.2059,-108.104C57.355,-115.876 55.5772,-125.257 53.3656,-133.949"/>
<polygon fill="black" stroke="black" points="49.9624,-133.121 50.5997,-143.697 56.6966,-135.032 49.9624,-133.121"/>
<g id="a_edge12&#45;headlabel"><a xlink:href="dir_000055_000012.html" target="_top" xlink:title="28">
<text text-anchor="middle" x="48.2121" y="-126.388" font-family="Helvetica,sans-Serif" font-size="10.00">28</text>
</a>
</g>
</g>
<!-- dir_2171f7ec022c5423887b07c69b2f5b48&#45;&gt;dir_37c90836491b695b472bf98d1be8336b -->
<g id="edge13" class="edge"><title>dir_2171f7ec022c5423887b07c69b2f5b48&#45;&gt;dir_37c90836491b695b472bf98d1be8336b</title>
<path fill="none" stroke="black" d="M50.0604,-71.6966C49.2647,-63.9827 49.0382,-54.7125 49.3808,-46.1124"/>
<polygon fill="black" stroke="black" points="52.8745,-46.3243 50.0811,-36.1043 45.8915,-45.8356 52.8745,-46.3243"/>
<g id="a_edge13&#45;headlabel"><a xlink:href="dir_000055_000256.html" target="_top" xlink:title="1">
<text text-anchor="middle" x="55.456" y="-47.6083" font-family="Helvetica,sans-Serif" font-size="10.00">1</text>
</a>
</g>
</g>
</g>
</svg>
