<?xml version="1.0" encoding="UTF-8" standalone="no"?>
<!DOCTYPE svg PUBLIC "-//W3C//DTD SVG 1.1//EN"
 "http://www.w3.org/Graphics/SVG/1.1/DTD/svg11.dtd">
<!-- Generated by graphviz version 2.38.0 (20140413.2041)
 -->
<!-- Title: /home/travis/build/AliceO2Group/AliceO2/Detectors/MUON/MID/Simulation/test Pages: 1 -->
<svg width="448pt" height="439pt"
 viewBox="0.00 0.00 447.86 439.00" xmlns="http://www.w3.org/2000/svg" xmlns:xlink="http://www.w3.org/1999/xlink">
<g id="graph0" class="graph" transform="scale(1 1) rotate(0) translate(4 435)">
<title>/home/travis/build/AliceO2Group/AliceO2/Detectors/MUON/MID/Simulation/test</title>
<g id="clust1" class="cluster"><title>clusterdir_2810eaf0225063d73e08d8eeeb8a37b8</title>
<g id="a_clust1"><a xlink:href="dir_2810eaf0225063d73e08d8eeeb8a37b8.html" target="_top" xlink:title="Simulation">
<polygon fill="#ddddee" stroke="black" points="165,-352 165,-423 235,-423 235,-352 165,-352"/>
<text text-anchor="middle" x="200" y="-411" font-family="Helvetica,sans-Serif" font-size="10.00">Simulation</text>
</a>
</g>
</g>
<!-- dir_3efbee5c835cac6a5a5ee4ea08f6d137 -->
<g id="node1" class="node"><title>dir_3efbee5c835cac6a5a5ee4ea08f6d137</title>
<g id="a_node1"><a xlink:href="dir_3efbee5c835cac6a5a5ee4ea08f6d137.html" target="_top" xlink:title="test">
<polygon fill="#eeeeff" stroke="black" points="227,-396 173,-396 173,-360 227,-360 227,-396"/>
<text text-anchor="middle" x="200" y="-375.5" font-family="Helvetica,sans-Serif" font-size="10.00">test</text>
</a>
</g>
</g>
<!-- dir_1bad6cd644632a70bf093df362196556 -->
<g id="node2" class="node"><title>dir_1bad6cd644632a70bf093df362196556</title>
<g id="a_node2"><a xlink:href="dir_1bad6cd644632a70bf093df362196556.html" target="_top" xlink:title="include">
<polygon fill="none" stroke="red" points="172,-324 118,-324 118,-288 172,-288 172,-324"/>
<text text-anchor="middle" x="145" y="-303.5" font-family="Helvetica,sans-Serif" font-size="10.00">include</text>
</a>
</g>
</g>
<!-- dir_3efbee5c835cac6a5a5ee4ea08f6d137&#45;&gt;dir_1bad6cd644632a70bf093df362196556 -->
<g id="edge11" class="edge"><title>dir_3efbee5c835cac6a5a5ee4ea08f6d137&#45;&gt;dir_1bad6cd644632a70bf093df362196556</title>
<path fill="none" stroke="black" d="M186.404,-359.697C179.877,-351.389 171.932,-341.277 164.753,-332.141"/>
<polygon fill="black" stroke="black" points="167.369,-329.805 158.439,-324.104 161.865,-334.13 167.369,-329.805"/>
<g id="a_edge11&#45;headlabel"><a xlink:href="dir_000467_000178.html" target="_top" xlink:title="9">
<text text-anchor="middle" x="171.823" y="-328.377" font-family="Helvetica,sans-Serif" font-size="10.00">9</text>
</a>
</g>
</g>
<!-- dir_4ab6b4cc6a7edbff49100e9123df213f -->
<g id="node3" class="node"><title>dir_4ab6b4cc6a7edbff49100e9123df213f</title>
<g id="a_node3"><a xlink:href="dir_4ab6b4cc6a7edbff49100e9123df213f.html" target="_top" xlink:title="Common">
<polygon fill="none" stroke="red" points="160,-108 104,-108 104,-72 160,-72 160,-108"/>
<text text-anchor="middle" x="132" y="-87.5" font-family="Helvetica,sans-Serif" font-size="10.00">Common</text>
</a>
</g>
</g>
<!-- dir_3efbee5c835cac6a5a5ee4ea08f6d137&#45;&gt;dir_4ab6b4cc6a7edbff49100e9123df213f -->
<g id="edge12" class="edge"><title>dir_3efbee5c835cac6a5a5ee4ea08f6d137&#45;&gt;dir_4ab6b4cc6a7edbff49100e9123df213f</title>
<path fill="none" stroke="black" d="M172.712,-369.341C151.176,-361.697 122.576,-347.618 109,-324 70.9576,-257.819 101.107,-163.349 119.872,-117.71"/>
<polygon fill="black" stroke="black" points="123.212,-118.798 123.9,-108.226 116.769,-116.062 123.212,-118.798"/>
<g id="a_edge12&#45;headlabel"><a xlink:href="dir_000467_000012.html" target="_top" xlink:title="3">
<text text-anchor="middle" x="124.42" y="-120.717" font-family="Helvetica,sans-Serif" font-size="10.00">3</text>
</a>
</g>
</g>
<!-- dir_754f2fe7806627988f6bd801b7f2fe5b -->
<g id="node4" class="node"><title>dir_754f2fe7806627988f6bd801b7f2fe5b</title>
<g id="a_node4"><a xlink:href="dir_754f2fe7806627988f6bd801b7f2fe5b.html" target="_top" xlink:title="Clustering">
<polygon fill="none" stroke="red" points="203.5,-252 142.5,-252 142.5,-216 203.5,-216 203.5,-252"/>
<text text-anchor="middle" x="173" y="-231.5" font-family="Helvetica,sans-Serif" font-size="10.00">Clustering</text>
</a>
</g>
</g>
<!-- dir_3efbee5c835cac6a5a5ee4ea08f6d137&#45;&gt;dir_754f2fe7806627988f6bd801b7f2fe5b -->
<g id="edge13" class="edge"><title>dir_3efbee5c835cac6a5a5ee4ea08f6d137&#45;&gt;dir_754f2fe7806627988f6bd801b7f2fe5b</title>
<path fill="none" stroke="black" d="M196.743,-359.871C192.142,-335.67 183.688,-291.211 178.209,-262.393"/>
<polygon fill="black" stroke="black" points="181.575,-261.359 176.268,-252.189 174.698,-262.667 181.575,-261.359"/>
<g id="a_edge13&#45;headlabel"><a xlink:href="dir_000467_000470.html" target="_top" xlink:title="3">
<text text-anchor="middle" x="185.035" y="-261.86" font-family="Helvetica,sans-Serif" font-size="10.00">3</text>
</a>
</g>
</g>
<!-- dir_c6781640d5720511e35c6e7f87460ee7 -->
<g id="node5" class="node"><title>dir_c6781640d5720511e35c6e7f87460ee7</title>
<g id="a_node5"><a xlink:href="dir_c6781640d5720511e35c6e7f87460ee7.html" target="_top" xlink:title="Tracking">
<polygon fill="none" stroke="red" points="403,-324 349,-324 349,-288 403,-288 403,-324"/>
<text text-anchor="middle" x="376" y="-303.5" font-family="Helvetica,sans-Serif" font-size="10.00">Tracking</text>
</a>
</g>
</g>
<!-- dir_3efbee5c835cac6a5a5ee4ea08f6d137&#45;&gt;dir_c6781640d5720511e35c6e7f87460ee7 -->
<g id="edge14" class="edge"><title>dir_3efbee5c835cac6a5a5ee4ea08f6d137&#45;&gt;dir_c6781640d5720511e35c6e7f87460ee7</title>
<path fill="none" stroke="black" d="M227.114,-366.216C257.216,-354.243 305.962,-334.856 339.425,-321.547"/>
<polygon fill="black" stroke="black" points="340.856,-324.744 348.855,-317.796 338.269,-318.24 340.856,-324.744"/>
<g id="a_edge14&#45;headlabel"><a xlink:href="dir_000467_000435.html" target="_top" xlink:title="1">
<text text-anchor="middle" x="338.566" y="-326.211" font-family="Helvetica,sans-Serif" font-size="10.00">1</text>
</a>
</g>
</g>
<!-- dir_3ffb816f6d71c6665c34f0fe3ab9978a -->
<g id="node6" class="node"><title>dir_3ffb816f6d71c6665c34f0fe3ab9978a</title>
<g id="a_node6"><a xlink:href="dir_3ffb816f6d71c6665c34f0fe3ab9978a.html" target="_top" xlink:title="TestingSimTools">
<polygon fill="none" stroke="red" points="426,-252 336,-252 336,-216 426,-216 426,-252"/>
<text text-anchor="middle" x="381" y="-231.5" font-family="Helvetica,sans-Serif" font-size="10.00">TestingSimTools</text>
</a>
</g>
</g>
<!-- dir_3efbee5c835cac6a5a5ee4ea08f6d137&#45;&gt;dir_3ffb816f6d71c6665c34f0fe3ab9978a -->
<g id="edge15" class="edge"><title>dir_3efbee5c835cac6a5a5ee4ea08f6d137&#45;&gt;dir_3ffb816f6d71c6665c34f0fe3ab9978a</title>
<path fill="none" stroke="black" d="M227.304,-361.471C244.149,-351.482 265.916,-337.823 284,-324 310.332,-303.872 337.959,-277.988 356.963,-259.329"/>
<polygon fill="black" stroke="black" points="359.658,-261.585 364.301,-252.061 354.733,-256.611 359.658,-261.585"/>
<g id="a_edge15&#45;headlabel"><a xlink:href="dir_000467_000480.html" target="_top" xlink:title="2">
<text text-anchor="middle" x="359.102" y="-263.632" font-family="Helvetica,sans-Serif" font-size="10.00">2</text>
</a>
</g>
</g>
<!-- dir_b5547b1068d53f0f904ee5a2a84992af -->
<g id="node7" class="node"><title>dir_b5547b1068d53f0f904ee5a2a84992af</title>
<g id="a_node7"><a xlink:href="dir_b5547b1068d53f0f904ee5a2a84992af.html" target="_top" xlink:title="Base">
<polygon fill="none" stroke="red" points="284,-180 230,-180 230,-144 284,-144 284,-180"/>
<text text-anchor="middle" x="257" y="-159.5" font-family="Helvetica,sans-Serif" font-size="10.00">Base</text>
</a>
</g>
</g>
<!-- dir_3efbee5c835cac6a5a5ee4ea08f6d137&#45;&gt;dir_b5547b1068d53f0f904ee5a2a84992af -->
<g id="edge16" class="edge"><title>dir_3efbee5c835cac6a5a5ee4ea08f6d137&#45;&gt;dir_b5547b1068d53f0f904ee5a2a84992af</title>
<path fill="none" stroke="black" d="M205.755,-359.741C213.639,-335.747 227.962,-290.872 238,-252 243.3,-231.477 248.263,-208.023 251.787,-190.345"/>
<polygon fill="black" stroke="black" points="255.294,-190.649 253.785,-180.163 248.425,-189.301 255.294,-190.649"/>
<g id="a_edge16&#45;headlabel"><a xlink:href="dir_000467_000453.html" target="_top" xlink:title="3">
<text text-anchor="middle" x="257.388" y="-192.224" font-family="Helvetica,sans-Serif" font-size="10.00">3</text>
</a>
</g>
</g>
<!-- dir_2171f7ec022c5423887b07c69b2f5b48 -->
<g id="node8" class="node"><title>dir_2171f7ec022c5423887b07c69b2f5b48</title>
<g id="a_node8"><a xlink:href="dir_2171f7ec022c5423887b07c69b2f5b48.html" target="_top" xlink:title="DataFormats">
<polygon fill="none" stroke="red" points="169,-36 95,-36 95,-0 169,-0 169,-36"/>
<text text-anchor="middle" x="132" y="-15.5" font-family="Helvetica,sans-Serif" font-size="10.00">DataFormats</text>
</a>
</g>
</g>
<!-- dir_3efbee5c835cac6a5a5ee4ea08f6d137&#45;&gt;dir_2171f7ec022c5423887b07c69b2f5b48 -->
<g id="edge17" class="edge"><title>dir_3efbee5c835cac6a5a5ee4ea08f6d137&#45;&gt;dir_2171f7ec022c5423887b07c69b2f5b48</title>
<path fill="none" stroke="black" d="M172.61,-371.114C117.835,-357.56 0,-318.677 0,-235 0,-235 0,-235 0,-161 0,-107.403 51.0702,-65.5426 89.6783,-41.5546"/>
<polygon fill="black" stroke="black" points="91.926,-44.287 98.6908,-36.1331 88.3176,-38.2887 91.926,-44.287"/>
<g id="a_edge17&#45;headlabel"><a xlink:href="dir_000467_000055.html" target="_top" xlink:title="4">
<text text-anchor="middle" x="90.3093" y="-46.0729" font-family="Helvetica,sans-Serif" font-size="10.00">4</text>
</a>
</g>
</g>
<!-- dir_1bad6cd644632a70bf093df362196556&#45;&gt;dir_4ab6b4cc6a7edbff49100e9123df213f -->
<g id="edge1" class="edge"><title>dir_1bad6cd644632a70bf093df362196556&#45;&gt;dir_4ab6b4cc6a7edbff49100e9123df213f</title>
<path fill="none" stroke="black" d="M140.158,-287.976C137.473,-277.661 134.4,-264.184 133,-252 127.661,-205.549 128.872,-151.061 130.353,-118.872"/>
<polygon fill="black" stroke="black" points="133.87,-118.63 130.878,-108.466 126.879,-118.277 133.87,-118.63"/>
<g id="a_edge1&#45;headlabel"><a xlink:href="dir_000178_000012.html" target="_top" xlink:title="2">
<text text-anchor="middle" x="136.525" y="-119.863" font-family="Helvetica,sans-Serif" font-size="10.00">2</text>
</a>
</g>
</g>
<!-- dir_1bad6cd644632a70bf093df362196556&#45;&gt;dir_754f2fe7806627988f6bd801b7f2fe5b -->
<g id="edge2" class="edge"><title>dir_1bad6cd644632a70bf093df362196556&#45;&gt;dir_754f2fe7806627988f6bd801b7f2fe5b</title>
<path fill="none" stroke="black" d="M151.921,-287.697C155.075,-279.813 158.878,-270.304 162.381,-261.546"/>
<polygon fill="black" stroke="black" points="165.694,-262.689 166.158,-252.104 159.195,-260.089 165.694,-262.689"/>
<g id="a_edge2&#45;headlabel"><a xlink:href="dir_000178_000470.html" target="_top" xlink:title="2">
<text text-anchor="middle" x="166.995" y="-264.581" font-family="Helvetica,sans-Serif" font-size="10.00">2</text>
</a>
</g>
</g>
<!-- dir_1bad6cd644632a70bf093df362196556&#45;&gt;dir_b5547b1068d53f0f904ee5a2a84992af -->
<g id="edge3" class="edge"><title>dir_1bad6cd644632a70bf093df362196556&#45;&gt;dir_b5547b1068d53f0f904ee5a2a84992af</title>
<path fill="none" stroke="black" d="M171.775,-287.924C185.06,-278.5 200.648,-265.899 212,-252 227.411,-233.13 239.476,-208.116 247.217,-189.412"/>
<polygon fill="black" stroke="black" points="250.513,-190.597 250.966,-180.012 244.011,-188.004 250.513,-190.597"/>
<g id="a_edge3&#45;headlabel"><a xlink:href="dir_000178_000453.html" target="_top" xlink:title="5">
<text text-anchor="middle" x="251.818" y="-192.487" font-family="Helvetica,sans-Serif" font-size="10.00">5</text>
</a>
</g>
</g>
<!-- dir_1bad6cd644632a70bf093df362196556&#45;&gt;dir_2171f7ec022c5423887b07c69b2f5b48 -->
<g id="edge4" class="edge"><title>dir_1bad6cd644632a70bf093df362196556&#45;&gt;dir_2171f7ec022c5423887b07c69b2f5b48</title>
<path fill="none" stroke="black" d="M138.687,-287.962C134.995,-277.642 130.407,-264.165 127,-252 109.321,-188.867 102.154,-173.17 95,-108 93.2541,-92.0955 90.1994,-87.2629 95,-72 98.0986,-62.1483 103.751,-52.5302 109.721,-44.2511"/>
<polygon fill="black" stroke="black" points="112.629,-46.2111 115.963,-36.1544 107.086,-41.9371 112.629,-46.2111"/>
<g id="a_edge4&#45;headlabel"><a xlink:href="dir_000178_000055.html" target="_top" xlink:title="21">
<text text-anchor="middle" x="112.683" y="-48.2914" font-family="Helvetica,sans-Serif" font-size="10.00">21</text>
</a>
</g>
</g>
<!-- dir_4ab6b4cc6a7edbff49100e9123df213f&#45;&gt;dir_2171f7ec022c5423887b07c69b2f5b48 -->
<g id="edge5" class="edge"><title>dir_4ab6b4cc6a7edbff49100e9123df213f&#45;&gt;dir_2171f7ec022c5423887b07c69b2f5b48</title>
<path fill="none" stroke="black" d="M126.084,-71.6966C125.289,-63.9827 125.062,-54.7125 125.405,-46.1124"/>
<polygon fill="black" stroke="black" points="128.898,-46.3243 126.105,-36.1043 121.915,-45.8356 128.898,-46.3243"/>
<g id="a_edge5&#45;headlabel"><a xlink:href="dir_000012_000055.html" target="_top" xlink:title="5">
<text text-anchor="middle" x="131.48" y="-47.6083" font-family="Helvetica,sans-Serif" font-size="10.00">5</text>
</a>
</g>
</g>
<!-- dir_754f2fe7806627988f6bd801b7f2fe5b&#45;&gt;dir_b5547b1068d53f0f904ee5a2a84992af -->
<g id="edge6" class="edge"><title>dir_754f2fe7806627988f6bd801b7f2fe5b&#45;&gt;dir_b5547b1068d53f0f904ee5a2a84992af</title>
<path fill="none" stroke="black" d="M193.764,-215.697C204.241,-206.965 217.111,-196.24 228.5,-186.75"/>
<polygon fill="black" stroke="black" points="231.033,-189.195 236.475,-180.104 226.552,-183.817 231.033,-189.195"/>
<g id="a_edge6&#45;headlabel"><a xlink:href="dir_000470_000453.html" target="_top" xlink:title="6">
<text text-anchor="middle" x="230.089" y="-191.177" font-family="Helvetica,sans-Serif" font-size="10.00">6</text>
</a>
</g>
</g>
<!-- dir_754f2fe7806627988f6bd801b7f2fe5b&#45;&gt;dir_2171f7ec022c5423887b07c69b2f5b48 -->
<g id="edge7" class="edge"><title>dir_754f2fe7806627988f6bd801b7f2fe5b&#45;&gt;dir_2171f7ec022c5423887b07c69b2f5b48</title>
<path fill="none" stroke="black" d="M175.773,-215.527C179.866,-185.361 185.393,-121.943 169,-72 165.779,-62.1875 160.092,-52.5805 154.129,-44.2994"/>
<polygon fill="black" stroke="black" points="156.773,-41.9956 147.906,-36.1966 151.221,-46.2594 156.773,-41.9956"/>
<g id="a_edge7&#45;headlabel"><a xlink:href="dir_000470_000055.html" target="_top" xlink:title="5">
<text text-anchor="middle" x="161.214" y="-40.617" font-family="Helvetica,sans-Serif" font-size="10.00">5</text>
</a>
</g>
</g>
<!-- dir_c6781640d5720511e35c6e7f87460ee7&#45;&gt;dir_3ffb816f6d71c6665c34f0fe3ab9978a -->
<g id="edge8" class="edge"><title>dir_c6781640d5720511e35c6e7f87460ee7&#45;&gt;dir_3ffb816f6d71c6665c34f0fe3ab9978a</title>
<path fill="none" stroke="black" d="M377.236,-287.697C377.787,-279.983 378.449,-270.712 379.063,-262.112"/>
<polygon fill="black" stroke="black" points="382.557,-262.328 379.778,-252.104 375.575,-261.83 382.557,-262.328"/>
<g id="a_edge8&#45;headlabel"><a xlink:href="dir_000435_000480.html" target="_top" xlink:title="4">
<text text-anchor="middle" x="385.133" y="-263.616" font-family="Helvetica,sans-Serif" font-size="10.00">4</text>
</a>
</g>
</g>
<!-- dir_c6781640d5720511e35c6e7f87460ee7&#45;&gt;dir_b5547b1068d53f0f904ee5a2a84992af -->
<g id="edge9" class="edge"><title>dir_c6781640d5720511e35c6e7f87460ee7&#45;&gt;dir_b5547b1068d53f0f904ee5a2a84992af</title>
<path fill="none" stroke="black" d="M359.308,-287.652C349.661,-277.452 337.411,-264.202 327,-252 309.127,-231.052 289.855,-206.381 276.067,-188.334"/>
<polygon fill="black" stroke="black" points="278.608,-185.893 269.768,-180.052 273.036,-190.13 278.608,-185.893"/>
<g id="a_edge9&#45;headlabel"><a xlink:href="dir_000435_000453.html" target="_top" xlink:title="6">
<text text-anchor="middle" x="283.043" y="-184.536" font-family="Helvetica,sans-Serif" font-size="10.00">6</text>
</a>
</g>
</g>
<!-- dir_c6781640d5720511e35c6e7f87460ee7&#45;&gt;dir_2171f7ec022c5423887b07c69b2f5b48 -->
<g id="edge10" class="edge"><title>dir_c6781640d5720511e35c6e7f87460ee7&#45;&gt;dir_2171f7ec022c5423887b07c69b2f5b48</title>
<path fill="none" stroke="black" d="M403.181,-288.337C415.331,-279.259 428.383,-266.839 435,-252 441.516,-237.387 441.417,-230.657 435,-216 388.613,-110.052 251.934,-54.5415 179.041,-31.764"/>
<polygon fill="black" stroke="black" points="179.781,-28.3306 169.195,-28.7654 177.741,-35.027 179.781,-28.3306"/>
<g id="a_edge10&#45;headlabel"><a xlink:href="dir_000435_000055.html" target="_top" xlink:title="8">
<text text-anchor="middle" x="184.047" y="-24.1617" font-family="Helvetica,sans-Serif" font-size="10.00">8</text>
</a>
</g>
</g>
<!-- dir_3ffb816f6d71c6665c34f0fe3ab9978a&#45;&gt;dir_4ab6b4cc6a7edbff49100e9123df213f -->
<g id="edge18" class="edge"><title>dir_3ffb816f6d71c6665c34f0fe3ab9978a&#45;&gt;dir_4ab6b4cc6a7edbff49100e9123df213f</title>
<path fill="none" stroke="black" d="M368.235,-215.849C352.57,-195.929 324.219,-163.336 293,-144 254.571,-120.199 204.293,-105.878 170.221,-98.2307"/>
<polygon fill="black" stroke="black" points="170.712,-94.7561 160.198,-96.0684 169.235,-101.599 170.712,-94.7561"/>
<g id="a_edge18&#45;headlabel"><a xlink:href="dir_000480_000012.html" target="_top" xlink:title="1">
<text text-anchor="middle" x="174.824" y="-90.2387" font-family="Helvetica,sans-Serif" font-size="10.00">1</text>
</a>
</g>
</g>
<!-- dir_3ffb816f6d71c6665c34f0fe3ab9978a&#45;&gt;dir_b5547b1068d53f0f904ee5a2a84992af -->
<g id="edge19" class="edge"><title>dir_3ffb816f6d71c6665c34f0fe3ab9978a&#45;&gt;dir_b5547b1068d53f0f904ee5a2a84992af</title>
<path fill="none" stroke="black" d="M350.666,-215.876C333.247,-206.042 311.268,-193.635 292.98,-183.311"/>
<polygon fill="black" stroke="black" points="294.495,-180.147 284.066,-178.279 291.054,-186.243 294.495,-180.147"/>
<g id="a_edge19&#45;headlabel"><a xlink:href="dir_000480_000453.html" target="_top" xlink:title="3">
<text text-anchor="middle" x="299.021" y="-176.942" font-family="Helvetica,sans-Serif" font-size="10.00">3</text>
</a>
</g>
</g>
<!-- dir_3ffb816f6d71c6665c34f0fe3ab9978a&#45;&gt;dir_2171f7ec022c5423887b07c69b2f5b48 -->
<g id="edge20" class="edge"><title>dir_3ffb816f6d71c6665c34f0fe3ab9978a&#45;&gt;dir_2171f7ec022c5423887b07c69b2f5b48</title>
<path fill="none" stroke="black" d="M373.883,-215.664C365.361,-196.46 349.617,-165.387 329,-144 285,-98.3577 221.164,-61.8012 178.195,-40.2816"/>
<polygon fill="black" stroke="black" points="179.606,-37.0749 169.089,-35.7897 176.509,-43.3527 179.606,-37.0749"/>
<g id="a_edge20&#45;headlabel"><a xlink:href="dir_000480_000055.html" target="_top" xlink:title="3">
<text text-anchor="middle" x="184.085" y="-33.6188" font-family="Helvetica,sans-Serif" font-size="10.00">3</text>
</a>
</g>
</g>
<!-- dir_b5547b1068d53f0f904ee5a2a84992af&#45;&gt;dir_4ab6b4cc6a7edbff49100e9123df213f -->
<g id="edge21" class="edge"><title>dir_b5547b1068d53f0f904ee5a2a84992af&#45;&gt;dir_4ab6b4cc6a7edbff49100e9123df213f</title>
<path fill="none" stroke="black" d="M229.877,-145.811C212.149,-135.883 188.758,-122.785 169.289,-111.882"/>
<polygon fill="black" stroke="black" points="170.807,-108.72 160.372,-106.888 167.387,-114.828 170.807,-108.72"/>
<g id="a_edge21&#45;headlabel"><a xlink:href="dir_000453_000012.html" target="_top" xlink:title="1">
<text text-anchor="middle" x="175.331" y="-105.5" font-family="Helvetica,sans-Serif" font-size="10.00">1</text>
</a>
</g>
</g>
<!-- dir_2171f7ec022c5423887b07c69b2f5b48&#45;&gt;dir_4ab6b4cc6a7edbff49100e9123df213f -->
<g id="edge22" class="edge"><title>dir_2171f7ec022c5423887b07c69b2f5b48&#45;&gt;dir_4ab6b4cc6a7edbff49100e9123df213f</title>
<path fill="none" stroke="black" d="M137.895,-36.1043C138.701,-43.7913 138.937,-53.0537 138.604,-61.6651"/>
<polygon fill="black" stroke="black" points="135.109,-61.4805 137.916,-71.6966 142.092,-61.9597 135.109,-61.4805"/>
<g id="a_edge22&#45;headlabel"><a xlink:href="dir_000055_000012.html" target="_top" xlink:title="28">
<text text-anchor="middle" x="132.522" y="-55.2" font-family="Helvetica,sans-Serif" font-size="10.00">28</text>
</a>
</g>
</g>
</g>
</svg>
