<?xml version="1.0" encoding="UTF-8" standalone="no"?>
<!DOCTYPE svg PUBLIC "-//W3C//DTD SVG 1.1//EN"
 "http://www.w3.org/Graphics/SVG/1.1/DTD/svg11.dtd">
<!-- Generated by graphviz version 2.38.0 (20140413.2041)
 -->
<!-- Title: /home/travis/build/AliceO2Group/AliceO2/Common Pages: 1 -->
<!--zoomable 276 -->
<svg id="main" version="1.1" xmlns="http://www.w3.org/2000/svg" xmlns:xlink="http://www.w3.org/1999/xlink" xml:space="preserve" onload="init(evt)">
<style type="text/css"><![CDATA[
.edge:hover path { stroke: red; }
.edge:hover polygon { stroke: red; fill: red; }
]]></style>
<script type="text/javascript"><![CDATA[
var edges = document.getElementsByTagName('g');
if (edges && edges.length) {
  for (var i=0;i<edges.length;i++) {
    if (edges[i].id.substr(0,4)=='edge') {
      edges[i].setAttribute('class','edge');
    }
  }
}
]]></script>
        <defs>
                <circle id="rim" cx="0" cy="0" r="7"/>
                <circle id="rim2" cx="0" cy="0" r="3.5"/>
                <g id="zoomPlus">
                        <use xlink:href="#rim" fill="#404040">
                                <set attributeName="fill" to="#808080" begin="zoomplus.mouseover" end="zoomplus.mouseout"/>
                        </use>
                        <path d="M-4,0h8M0,-4v8" fill="none" stroke="white" stroke-width="1.5" pointer-events="none"/>
                </g>
                <g id="zoomMin">
                        <use xlink:href="#rim" fill="#404040">
                                <set attributeName="fill" to="#808080" begin="zoomminus.mouseover" end="zoomminus.mouseout"/>
                        </use>
                        <path d="M-4,0h8" fill="none" stroke="white" stroke-width="1.5" pointer-events="none"/>
                </g>
                <g id="dirArrow">
                        <path fill="none" stroke="white" stroke-width="1.5" d="M0,-3.0v7 M-2.5,-0.5L0,-3.0L2.5,-0.5"/>
                </g>
               <g id="resetDef">
                       <use xlink:href="#rim2" fill="#404040">
                               <set attributeName="fill" to="#808080" begin="reset.mouseover" end="reset.mouseout"/>
                       </use>
               </g>
        </defs>

<script type="text/javascript">
var viewWidth = 513;
var viewHeight = 276;
var sectionId = 'dynsection-0';
</script>
<script xlink:href="svgpan.js"/>
<svg id="graph" class="graph">
<g id="viewport">
<title>/home/travis/build/AliceO2Group/AliceO2/Common</title>
<g id="clust1" class="cluster"><title>clusterdir_4ab6b4cc6a7edbff49100e9123df213f</title>
<g id="a_clust1"><a xlink:href="dir_4ab6b4cc6a7edbff49100e9123df213f.html" target="_top">
<polygon fill="#eeeeff" stroke="black" points="16.1148,-8 16.1148,-204 312.115,-204 312.115,-8 16.1148,-8"/>
</a>
</g>
</g>
<!-- dir_4ab6b4cc6a7edbff49100e9123df213f -->
<g id="node1" class="node"><title>dir_4ab6b4cc6a7edbff49100e9123df213f</title>
<text text-anchor="middle" x="276.115" y="-175.5" font-family="Helvetica,sans-Serif" font-size="10.00">Common</text>
</g>
<!-- dir_6595de266f53d2529c2724716663252d -->
<g id="node2" class="node"><title>dir_6595de266f53d2529c2724716663252d</title>
<g id="a_node2"><a xlink:href="dir_6595de266f53d2529c2724716663252d.html" target="_top" xlink:title="Constants">
<polygon fill="white" stroke="red" points="304.115,-52 242.115,-52 242.115,-16 304.115,-16 304.115,-52"/>
<text text-anchor="middle" x="273.115" y="-31.5" font-family="Helvetica,sans-Serif" font-size="10.00">Constants</text>
</a>
</g>
</g>
<!-- dir_91c9f7c5ec503f33747eecaa76c19aa0 -->
<g id="node3" class="node"><title>dir_91c9f7c5ec503f33747eecaa76c19aa0</title>
<g id="a_node3"><a xlink:href="dir_91c9f7c5ec503f33747eecaa76c19aa0.html" target="_top" xlink:title="Field">
<polygon fill="white" stroke="red" points="158.115,-196 104.115,-196 104.115,-160 158.115,-160 158.115,-196"/>
<text text-anchor="middle" x="131.115" y="-175.5" font-family="Helvetica,sans-Serif" font-size="10.00">Field</text>
</a>
</g>
</g>
<!-- dir_1e6fb7e1d286de65f5cad603aaa68769 -->
<g id="node4" class="node"><title>dir_1e6fb7e1d286de65f5cad603aaa68769</title>
<g id="a_node4"><a xlink:href="dir_1e6fb7e1d286de65f5cad603aaa68769.html" target="_top" xlink:title="MathUtils">
<polygon fill="white" stroke="red" points="303.615,-124 244.615,-124 244.615,-88 303.615,-88 303.615,-124"/>
<text text-anchor="middle" x="274.115" y="-103.5" font-family="Helvetica,sans-Serif" font-size="10.00">MathUtils</text>
</a>
</g>
</g>
<!-- dir_91c9f7c5ec503f33747eecaa76c19aa0&#45;&gt;dir_1e6fb7e1d286de65f5cad603aaa68769 -->
<g id="edge1" class="edge"><title>dir_91c9f7c5ec503f33747eecaa76c19aa0&#45;&gt;dir_1e6fb7e1d286de65f5cad603aaa68769</title>
<path fill="none" stroke="black" d="M158.349,-163.669C180.193,-152.976 211.125,-137.834 235.52,-125.892"/>
<polygon fill="black" stroke="black" points="237.075,-129.028 244.518,-121.488 233.997,-122.741 237.075,-129.028"/>
<g id="a_edge1&#45;headlabel"><a xlink:href="dir_000016_000021.html" target="_top" xlink:title="3">
<text text-anchor="middle" x="235.095" y="-130.659" font-family="Helvetica,sans-Serif" font-size="10.00">3</text>
</a>
</g>
</g>
<!-- dir_1e6fb7e1d286de65f5cad603aaa68769&#45;&gt;dir_6595de266f53d2529c2724716663252d -->
<g id="edge6" class="edge"><title>dir_1e6fb7e1d286de65f5cad603aaa68769&#45;&gt;dir_6595de266f53d2529c2724716663252d</title>
<path fill="none" stroke="black" d="M273.868,-87.6966C273.757,-79.9827 273.625,-70.7125 273.502,-62.1124"/>
<polygon fill="black" stroke="black" points="277.002,-62.0533 273.359,-52.1043 270.002,-62.1533 277.002,-62.0533"/>
<g id="a_edge6&#45;headlabel"><a xlink:href="dir_000021_000013.html" target="_top" xlink:title="1">
<text text-anchor="middle" x="279.892" y="-63.107" font-family="Helvetica,sans-Serif" font-size="10.00">1</text>
</a>
</g>
</g>
<!-- dir_f511f1e9c03c071966ae594f00bbc5e0 -->
<g id="node9" class="node"><title>dir_f511f1e9c03c071966ae594f00bbc5e0</title>
<g id="a_node9"><a xlink:href="dir_f511f1e9c03c071966ae594f00bbc5e0.html" target="_top" xlink:title="GPU">
<polygon fill="none" stroke="red" points="494.115,-268 440.115,-268 440.115,-232 494.115,-232 494.115,-268"/>
<text text-anchor="middle" x="467.115" y="-247.5" font-family="Helvetica,sans-Serif" font-size="10.00">GPU</text>
</a>
</g>
</g>
<!-- dir_1e6fb7e1d286de65f5cad603aaa68769&#45;&gt;dir_f511f1e9c03c071966ae594f00bbc5e0 -->
<g id="edge7" class="edge"><title>dir_1e6fb7e1d286de65f5cad603aaa68769&#45;&gt;dir_f511f1e9c03c071966ae594f00bbc5e0</title>
<path fill="none" stroke="black" d="M303.988,-110.201C355.948,-116.451 459.505,-132.161 481.115,-160 494.817,-177.652 488.866,-203.32 480.929,-222.559"/>
<polygon fill="black" stroke="black" points="477.732,-221.135 476.822,-231.69 484.116,-224.006 477.732,-221.135"/>
<g id="a_edge7&#45;headlabel"><a xlink:href="dir_000021_000095.html" target="_top" xlink:title="2">
<text text-anchor="middle" x="476.617" y="-214.192" font-family="Helvetica,sans-Serif" font-size="10.00">2</text>
</a>
</g>
</g>
<!-- dir_3a79d3ee4538628fc18e2135ea9cbf22 -->
<g id="node5" class="node"><title>dir_3a79d3ee4538628fc18e2135ea9cbf22</title>
<g id="a_node5"><a xlink:href="dir_3a79d3ee4538628fc18e2135ea9cbf22.html" target="_top" xlink:title="SimConfig">
<polygon fill="white" stroke="red" points="86.1148,-196 24.1148,-196 24.1148,-160 86.1148,-160 86.1148,-196"/>
<text text-anchor="middle" x="55.1148" y="-175.5" font-family="Helvetica,sans-Serif" font-size="10.00">SimConfig</text>
</a>
</g>
</g>
<!-- dir_2171f7ec022c5423887b07c69b2f5b48 -->
<g id="node10" class="node"><title>dir_2171f7ec022c5423887b07c69b2f5b48</title>
<g id="a_node10"><a xlink:href="dir_2171f7ec022c5423887b07c69b2f5b48.html" target="_top" xlink:title="DataFormats">
<polygon fill="none" stroke="red" points="472.115,-196 398.115,-196 398.115,-160 472.115,-160 472.115,-196"/>
<text text-anchor="middle" x="435.115" y="-175.5" font-family="Helvetica,sans-Serif" font-size="10.00">DataFormats</text>
</a>
</g>
</g>
<!-- dir_3a79d3ee4538628fc18e2135ea9cbf22&#45;&gt;dir_2171f7ec022c5423887b07c69b2f5b48 -->
<g id="edge8" class="edge"><title>dir_3a79d3ee4538628fc18e2135ea9cbf22&#45;&gt;dir_2171f7ec022c5423887b07c69b2f5b48</title>
<path fill="none" stroke="black" d="M71.3986,-196.127C80.1591,-204.511 91.7016,-213.577 104.115,-218 132.479,-228.107 346.296,-226.726 375.115,-218 386.123,-214.667 396.958,-208.574 406.326,-202.132"/>
<polygon fill="black" stroke="black" points="408.462,-204.906 414.48,-196.187 404.338,-199.25 408.462,-204.906"/>
<g id="a_edge8&#45;headlabel"><a xlink:href="dir_000037_000055.html" target="_top" xlink:title="1">
<text text-anchor="middle" x="407.23" y="-206.818" font-family="Helvetica,sans-Serif" font-size="10.00">1</text>
</a>
</g>
</g>
<!-- dir_a227714f4bf20de28f228c5ebfa34254 -->
<g id="node6" class="node"><title>dir_a227714f4bf20de28f228c5ebfa34254</title>
<g id="a_node6"><a xlink:href="dir_a227714f4bf20de28f228c5ebfa34254.html" target="_top" xlink:title="Types">
<polygon fill="white" stroke="red" points="230.115,-196 176.115,-196 176.115,-160 230.115,-160 230.115,-196"/>
<text text-anchor="middle" x="203.115" y="-175.5" font-family="Helvetica,sans-Serif" font-size="10.00">Types</text>
</a>
</g>
</g>
<!-- dir_dc4810549f8e2e369c60bffc9a91caa2 -->
<g id="node7" class="node"><title>dir_dc4810549f8e2e369c60bffc9a91caa2</title>
<g id="a_node7"><a xlink:href="dir_dc4810549f8e2e369c60bffc9a91caa2.html" target="_top" xlink:title="Utils">
<polygon fill="white" stroke="red" points="226.115,-124 172.115,-124 172.115,-88 226.115,-88 226.115,-124"/>
<text text-anchor="middle" x="199.115" y="-103.5" font-family="Helvetica,sans-Serif" font-size="10.00">Utils</text>
</a>
</g>
</g>
<!-- dir_dc4810549f8e2e369c60bffc9a91caa2&#45;&gt;dir_6595de266f53d2529c2724716663252d -->
<g id="edge18" class="edge"><title>dir_dc4810549f8e2e369c60bffc9a91caa2&#45;&gt;dir_6595de266f53d2529c2724716663252d</title>
<path fill="none" stroke="black" d="M217.407,-87.6966C226.547,-79.0503 237.755,-68.4486 247.715,-59.027"/>
<polygon fill="black" stroke="black" points="250.174,-61.519 255.033,-52.1043 245.363,-56.4337 250.174,-61.519"/>
<g id="a_edge18&#45;headlabel"><a xlink:href="dir_000050_000013.html" target="_top" xlink:title="1">
<text text-anchor="middle" x="249.513" y="-63.5518" font-family="Helvetica,sans-Serif" font-size="10.00">1</text>
</a>
</g>
</g>
<!-- dir_40b4a122691869ee86baf7f2711ed718 -->
<g id="node8" class="node"><title>dir_40b4a122691869ee86baf7f2711ed718</title>
<g id="a_node8"><a xlink:href="dir_40b4a122691869ee86baf7f2711ed718.html" target="_top" xlink:title="Steer">
<polygon fill="none" stroke="red" points="359.115,-268 305.115,-268 305.115,-232 359.115,-232 359.115,-268"/>
<text text-anchor="middle" x="332.115" y="-247.5" font-family="Helvetica,sans-Serif" font-size="10.00">Steer</text>
</a>
</g>
</g>
<!-- dir_dc4810549f8e2e369c60bffc9a91caa2&#45;&gt;dir_40b4a122691869ee86baf7f2711ed718 -->
<g id="edge17" class="edge"><title>dir_dc4810549f8e2e369c60bffc9a91caa2&#45;&gt;dir_40b4a122691869ee86baf7f2711ed718</title>
<path fill="none" stroke="black" d="M226.484,-119.878C229.714,-121.307 232.976,-122.711 236.115,-124 279.423,-141.788 308.255,-121.652 335.115,-160 347.612,-177.843 345.443,-203.007 340.967,-222.027"/>
<polygon fill="black" stroke="black" points="337.535,-221.311 338.321,-231.876 344.296,-223.127 337.535,-221.311"/>
<g id="a_edge17&#45;headlabel"><a xlink:href="dir_000050_000623.html" target="_top" xlink:title="1">
<text text-anchor="middle" x="335.726" y="-214.603" font-family="Helvetica,sans-Serif" font-size="10.00">1</text>
</a>
</g>
</g>
<!-- dir_dc4810549f8e2e369c60bffc9a91caa2&#45;&gt;dir_2171f7ec022c5423887b07c69b2f5b48 -->
<g id="edge19" class="edge"><title>dir_dc4810549f8e2e369c60bffc9a91caa2&#45;&gt;dir_2171f7ec022c5423887b07c69b2f5b48</title>
<path fill="none" stroke="black" d="M226.312,-123.718C226.58,-123.813 226.848,-123.907 227.115,-124 291.055,-146.234 310.059,-141.28 375.115,-160 379.367,-161.223 383.793,-162.577 388.24,-163.97"/>
<polygon fill="black" stroke="black" points="387.359,-167.362 397.949,-167.048 389.475,-160.69 387.359,-167.362"/>
<g id="a_edge19&#45;headlabel"><a xlink:href="dir_000050_000055.html" target="_top" xlink:title="4">
<text text-anchor="middle" x="383.075" y="-166.483" font-family="Helvetica,sans-Serif" font-size="10.00">4</text>
</a>
</g>
</g>
<!-- dir_40b4a122691869ee86baf7f2711ed718&#45;&gt;dir_6595de266f53d2529c2724716663252d -->
<g id="edge2" class="edge"><title>dir_40b4a122691869ee86baf7f2711ed718&#45;&gt;dir_6595de266f53d2529c2724716663252d</title>
<path fill="none" stroke="black" d="M305.11,-249.467C235.483,-250.034 52.6924,-247.289 15.1148,-204 -55.2706,-122.917 142.902,-65.1684 232.1,-43.9467"/>
<polygon fill="black" stroke="black" points="232.964,-47.3393 241.906,-41.6566 231.372,-40.5227 232.964,-47.3393"/>
<g id="a_edge2&#45;headlabel"><a xlink:href="dir_000623_000013.html" target="_top" xlink:title="1">
<text text-anchor="middle" x="230.109" y="-48.4216" font-family="Helvetica,sans-Serif" font-size="10.00">1</text>
</a>
</g>
</g>
<!-- dir_40b4a122691869ee86baf7f2711ed718&#45;&gt;dir_3a79d3ee4538628fc18e2135ea9cbf22 -->
<g id="edge3" class="edge"><title>dir_40b4a122691869ee86baf7f2711ed718&#45;&gt;dir_3a79d3ee4538628fc18e2135ea9cbf22</title>
<path fill="none" stroke="black" d="M304.916,-247.116C259.895,-243.284 167.654,-232.396 95.1148,-204 92.9462,-203.151 90.7659,-202.182 88.6031,-201.131"/>
<polygon fill="black" stroke="black" points="89.7845,-197.79 79.3245,-196.105 86.4507,-203.945 89.7845,-197.79"/>
<g id="a_edge3&#45;headlabel"><a xlink:href="dir_000623_000037.html" target="_top" xlink:title="4">
<text text-anchor="middle" x="94.2974" y="-194.505" font-family="Helvetica,sans-Serif" font-size="10.00">4</text>
</a>
</g>
</g>
<!-- dir_40b4a122691869ee86baf7f2711ed718&#45;&gt;dir_dc4810549f8e2e369c60bffc9a91caa2 -->
<g id="edge5" class="edge"><title>dir_40b4a122691869ee86baf7f2711ed718&#45;&gt;dir_dc4810549f8e2e369c60bffc9a91caa2</title>
<path fill="none" stroke="black" d="M332.786,-231.69C332.636,-212.22 329.561,-180.633 313.115,-160 312.777,-159.576 268.98,-139.279 235.778,-123.93"/>
<polygon fill="black" stroke="black" points="236.854,-120.571 226.308,-119.553 233.917,-126.926 236.854,-120.571"/>
<g id="a_edge5&#45;headlabel"><a xlink:href="dir_000623_000050.html" target="_top" xlink:title="1">
<text text-anchor="middle" x="241.308" y="-117.002" font-family="Helvetica,sans-Serif" font-size="10.00">1</text>
</a>
</g>
</g>
<!-- dir_40b4a122691869ee86baf7f2711ed718&#45;&gt;dir_2171f7ec022c5423887b07c69b2f5b48 -->
<g id="edge4" class="edge"><title>dir_40b4a122691869ee86baf7f2711ed718&#45;&gt;dir_2171f7ec022c5423887b07c69b2f5b48</title>
<path fill="none" stroke="black" d="M357.311,-231.876C370.529,-222.893 386.907,-211.763 401.222,-202.034"/>
<polygon fill="black" stroke="black" points="403.518,-204.705 409.821,-196.19 399.583,-198.916 403.518,-204.705"/>
<g id="a_edge4&#45;headlabel"><a xlink:href="dir_000623_000055.html" target="_top" xlink:title="114">
<text text-anchor="middle" x="402.141" y="-206.574" font-family="Helvetica,sans-Serif" font-size="10.00">114</text>
</a>
</g>
</g>
<!-- dir_f511f1e9c03c071966ae594f00bbc5e0&#45;&gt;dir_6595de266f53d2529c2724716663252d -->
<g id="edge9" class="edge"><title>dir_f511f1e9c03c071966ae594f00bbc5e0&#45;&gt;dir_6595de266f53d2529c2724716663252d</title>
<path fill="none" stroke="black" d="M483.338,-231.587C489.548,-223.766 495.907,-214.045 499.115,-204 505.063,-185.371 509.048,-176.845 499.115,-160 459.105,-92.1481 367.578,-58.5559 314.083,-44.1558"/>
<polygon fill="black" stroke="black" points="314.795,-40.725 304.237,-41.6067 313.041,-47.5015 314.795,-40.725"/>
<g id="a_edge9&#45;headlabel"><a xlink:href="dir_000095_000013.html" target="_top" xlink:title="1">
<text text-anchor="middle" x="318.987" y="-36.3773" font-family="Helvetica,sans-Serif" font-size="10.00">1</text>
</a>
</g>
</g>
<!-- dir_f511f1e9c03c071966ae594f00bbc5e0&#45;&gt;dir_2171f7ec022c5423887b07c69b2f5b48 -->
<g id="edge10" class="edge"><title>dir_f511f1e9c03c071966ae594f00bbc5e0&#45;&gt;dir_2171f7ec022c5423887b07c69b2f5b48</title>
<path fill="none" stroke="black" d="M453.289,-231.697C448.872,-223.813 444.306,-214.304 440.678,-205.546"/>
<polygon fill="black" stroke="black" points="443.901,-204.176 437.039,-196.104 437.37,-206.694 443.901,-204.176"/>
<g id="a_edge10&#45;headlabel"><a xlink:href="dir_000095_000055.html" target="_top" xlink:title="3">
<text text-anchor="middle" x="447.843" y="-204.009" font-family="Helvetica,sans-Serif" font-size="10.00">3</text>
</a>
</g>
</g>
<!-- dir_2171f7ec022c5423887b07c69b2f5b48&#45;&gt;dir_6595de266f53d2529c2724716663252d -->
<g id="edge11" class="edge"><title>dir_2171f7ec022c5423887b07c69b2f5b48&#45;&gt;dir_6595de266f53d2529c2724716663252d</title>
<path fill="none" stroke="black" d="M415.574,-159.871C386.869,-134.711 333.184,-87.6535 300.542,-59.0415"/>
<polygon fill="black" stroke="black" points="302.552,-56.1489 292.725,-52.1893 297.938,-61.4129 302.552,-56.1489"/>
<g id="a_edge11&#45;headlabel"><a xlink:href="dir_000055_000013.html" target="_top" xlink:title="10">
<text text-anchor="middle" x="307.127" y="-53.8832" font-family="Helvetica,sans-Serif" font-size="10.00">10</text>
</a>
</g>
</g>
<!-- dir_2171f7ec022c5423887b07c69b2f5b48&#45;&gt;dir_1e6fb7e1d286de65f5cad603aaa68769 -->
<g id="edge12" class="edge"><title>dir_2171f7ec022c5423887b07c69b2f5b48&#45;&gt;dir_1e6fb7e1d286de65f5cad603aaa68769</title>
<path fill="none" stroke="black" d="M397.774,-160.765C372.404,-149.734 338.914,-135.174 313.186,-123.987"/>
<polygon fill="black" stroke="black" points="314.305,-120.657 303.738,-119.88 311.514,-127.077 314.305,-120.657"/>
<g id="a_edge12&#45;headlabel"><a xlink:href="dir_000055_000021.html" target="_top" xlink:title="11">
<text text-anchor="middle" x="318.733" y="-116.987" font-family="Helvetica,sans-Serif" font-size="10.00">11</text>
</a>
</g>
</g>
<!-- dir_2171f7ec022c5423887b07c69b2f5b48&#45;&gt;dir_3a79d3ee4538628fc18e2135ea9cbf22 -->
<g id="edge14" class="edge"><title>dir_2171f7ec022c5423887b07c69b2f5b48&#45;&gt;dir_3a79d3ee4538628fc18e2135ea9cbf22</title>
<path fill="none" stroke="black" d="M414.48,-196.187C403.576,-204.585 389.493,-213.647 375.115,-218 346.296,-226.726 132.479,-228.107 104.115,-218 94.9988,-214.752 86.3525,-209 78.9327,-202.853"/>
<polygon fill="black" stroke="black" points="81.1896,-200.176 71.3986,-196.127 76.528,-205.398 81.1896,-200.176"/>
<g id="a_edge14&#45;headlabel"><a xlink:href="dir_000055_000037.html" target="_top" xlink:title="3">
<text text-anchor="middle" x="85.7619" y="-197.951" font-family="Helvetica,sans-Serif" font-size="10.00">3</text>
</a>
</g>
</g>
<!-- dir_2171f7ec022c5423887b07c69b2f5b48&#45;&gt;dir_a227714f4bf20de28f228c5ebfa34254 -->
<g id="edge13" class="edge"><title>dir_2171f7ec022c5423887b07c69b2f5b48&#45;&gt;dir_a227714f4bf20de28f228c5ebfa34254</title>
<path fill="none" stroke="black" d="M414.48,-196.187C403.576,-204.585 389.493,-213.647 375.115,-218 321.092,-234.357 300.875,-238.059 248.115,-218 239.688,-214.796 231.831,-209.211 225.117,-203.212"/>
<polygon fill="black" stroke="black" points="227.406,-200.556 217.795,-196.098 222.528,-205.577 227.406,-200.556"/>
<g id="a_edge13&#45;headlabel"><a xlink:href="dir_000055_000047.html" target="_top" xlink:title="1">
<text text-anchor="middle" x="231.963" y="-198.524" font-family="Helvetica,sans-Serif" font-size="10.00">1</text>
</a>
</g>
</g>
<!-- dir_2171f7ec022c5423887b07c69b2f5b48&#45;&gt;dir_dc4810549f8e2e369c60bffc9a91caa2 -->
<g id="edge16" class="edge"><title>dir_2171f7ec022c5423887b07c69b2f5b48&#45;&gt;dir_dc4810549f8e2e369c60bffc9a91caa2</title>
<path fill="none" stroke="black" d="M398.019,-161.445C396.369,-160.948 394.729,-160.465 393.115,-160 328.059,-141.28 309.055,-146.234 245.115,-124 242.043,-122.932 238.881,-121.699 235.708,-120.395"/>
<polygon fill="black" stroke="black" points="236.805,-117.058 226.233,-116.361 234.063,-123.499 236.805,-117.058"/>
<g id="a_edge16&#45;headlabel"><a xlink:href="dir_000055_000050.html" target="_top" xlink:title="3">
<text text-anchor="middle" x="241.224" y="-113.353" font-family="Helvetica,sans-Serif" font-size="10.00">3</text>
</a>
</g>
</g>
<!-- dir_2171f7ec022c5423887b07c69b2f5b48&#45;&gt;dir_f511f1e9c03c071966ae594f00bbc5e0 -->
<g id="edge15" class="edge"><title>dir_2171f7ec022c5423887b07c69b2f5b48&#45;&gt;dir_f511f1e9c03c071966ae594f00bbc5e0</title>
<path fill="none" stroke="black" d="M448.829,-196.104C453.243,-203.96 457.816,-213.462 461.459,-222.232"/>
<polygon fill="black" stroke="black" points="458.248,-223.633 465.12,-231.697 464.777,-221.107 458.248,-223.633"/>
<g id="a_edge15&#45;headlabel"><a xlink:href="dir_000055_000095.html" target="_top" xlink:title="9">
<text text-anchor="middle" x="454.303" y="-218.805" font-family="Helvetica,sans-Serif" font-size="10.00">9</text>
</a>
</g>
</g>
</g>
</svg>
        <g id="navigator" transform="translate(0 0)" fill="#404254">
                <rect fill="#f2f5e9" fill-opacity="0.5" stroke="#606060" stroke-width=".5" x="0" y="0" width="60" height="60"/>
                <use id="zoomplus" xlink:href="#zoomPlus" x="17" y="9" onmousedown="handleZoom(evt,'in')"/>
                <use id="zoomminus" xlink:href="#zoomMin" x="42" y="9" onmousedown="handleZoom(evt,'out')"/>
                <use id="reset" xlink:href="#resetDef" x="30" y="36" onmousedown="handleReset()"/>
                <g id="arrowUp" xlink:href="#dirArrow" transform="translate(30 24)" onmousedown="handlePan(0,-1)">
                  <use xlink:href="#rim" fill="#404040">
                        <set attributeName="fill" to="#808080" begin="arrowUp.mouseover" end="arrowUp.mouseout"/>
                  </use>
                  <path fill="none" stroke="white" stroke-width="1.5" d="M0,-3.0v7 M-2.5,-0.5L0,-3.0L2.5,-0.5"/>
                </g>
                <g id="arrowRight" xlink:href="#dirArrow" transform="rotate(90) translate(36 -43)" onmousedown="handlePan(1,0)">
                  <use xlink:href="#rim" fill="#404040">
                        <set attributeName="fill" to="#808080" begin="arrowRight.mouseover" end="arrowRight.mouseout"/>
                  </use>
                  <path fill="none" stroke="white" stroke-width="1.5" d="M0,-3.0v7 M-2.5,-0.5L0,-3.0L2.5,-0.5"/>
                </g>
                <g id="arrowDown" xlink:href="#dirArrow" transform="rotate(180) translate(-30 -48)" onmousedown="handlePan(0,1)">
                  <use xlink:href="#rim" fill="#404040">
                        <set attributeName="fill" to="#808080" begin="arrowDown.mouseover" end="arrowDown.mouseout"/>
                  </use>
                  <path fill="none" stroke="white" stroke-width="1.5" d="M0,-3.0v7 M-2.5,-0.5L0,-3.0L2.5,-0.5"/>
                </g>
                <g id="arrowLeft" xlink:href="#dirArrow" transform="rotate(270) translate(-36 17)" onmousedown="handlePan(-1,0)">
                  <use xlink:href="#rim" fill="#404040">
                        <set attributeName="fill" to="#808080" begin="arrowLeft.mouseover" end="arrowLeft.mouseout"/>
                  </use>
                  <path fill="none" stroke="white" stroke-width="1.5" d="M0,-3.0v7 M-2.5,-0.5L0,-3.0L2.5,-0.5"/>
                </g>
        </g>
        <svg viewBox="0 0 15 15" width="100%" height="30px" preserveAspectRatio="xMaxYMin meet">
         <g id="arrow_out" transform="scale(0.3 0.3)">
          <a xlink:href="dir_4ab6b4cc6a7edbff49100e9123df213f_dep_org.svg" target="_base">
           <rect id="button" ry="5" rx="5" y="6" x="6" height="38" width="38"
                fill="#f2f5e9" fill-opacity="0.5" stroke="#606060" stroke-width="1.0"/>
           <path id="arrow"
             d="M 11.500037,31.436501 C 11.940474,20.09759 22.043105,11.32322 32.158766,21.979434 L 37.068811,17.246167 C 37.068811,17.246167 37.088388,32 37.088388,32 L 22.160133,31.978069 C 22.160133,31.978069 26.997745,27.140456 26.997745,27.140456 C 18.528582,18.264221 13.291696,25.230495 11.500037,31.436501 z"
             style="fill:#404040;"/>
          </a>
         </g>
        </svg>
</svg>
