<?xml version="1.0" encoding="UTF-8" standalone="no"?>
<!DOCTYPE svg PUBLIC "-//W3C//DTD SVG 1.1//EN"
 "http://www.w3.org/Graphics/SVG/1.1/DTD/svg11.dtd">
<!-- Generated by graphviz version 2.38.0 (20140413.2041)
 -->
<!-- Title: /home/travis/build/AliceO2Group/AliceO2/Detectors/FIT/FDD/workflow/src Pages: 1 -->
<svg width="167pt" height="367pt"
 viewBox="0.00 0.00 166.80 367.00" xmlns="http://www.w3.org/2000/svg" xmlns:xlink="http://www.w3.org/1999/xlink">
<g id="graph0" class="graph" transform="scale(1 1) rotate(0) translate(4 363)">
<title>/home/travis/build/AliceO2Group/AliceO2/Detectors/FIT/FDD/workflow/src</title>
<g id="clust1" class="cluster"><title>clusterdir_a58d63da91ebc530ad40649c3f01757f</title>
<g id="a_clust1"><a xlink:href="dir_a58d63da91ebc530ad40649c3f01757f.html" target="_top" xlink:title="workflow">
<polygon fill="#ddddee" stroke="black" points="8,-280 8,-351 78,-351 78,-280 8,-280"/>
<text text-anchor="middle" x="43" y="-339" font-family="Helvetica,sans-Serif" font-size="10.00">workflow</text>
</a>
</g>
</g>
<!-- dir_873ae8954a9ad67b3926d8c81d25c943 -->
<g id="node1" class="node"><title>dir_873ae8954a9ad67b3926d8c81d25c943</title>
<g id="a_node1"><a xlink:href="dir_873ae8954a9ad67b3926d8c81d25c943.html" target="_top" xlink:title="src">
<polygon fill="#eeeeff" stroke="black" points="70,-324 16,-324 16,-288 70,-288 70,-324"/>
<text text-anchor="middle" x="43" y="-303.5" font-family="Helvetica,sans-Serif" font-size="10.00">src</text>
</a>
</g>
</g>
<!-- dir_6c6345ba72c9861e0bc6c84a0b141d36 -->
<g id="node2" class="node"><title>dir_6c6345ba72c9861e0bc6c84a0b141d36</title>
<g id="a_node2"><a xlink:href="dir_6c6345ba72c9861e0bc6c84a0b141d36.html" target="_top" xlink:title="include">
<polygon fill="none" stroke="red" points="98,-252 44,-252 44,-216 98,-216 98,-252"/>
<text text-anchor="middle" x="71" y="-231.5" font-family="Helvetica,sans-Serif" font-size="10.00">include</text>
</a>
</g>
</g>
<!-- dir_873ae8954a9ad67b3926d8c81d25c943&#45;&gt;dir_6c6345ba72c9861e0bc6c84a0b141d36 -->
<g id="edge1" class="edge"><title>dir_873ae8954a9ad67b3926d8c81d25c943&#45;&gt;dir_6c6345ba72c9861e0bc6c84a0b141d36</title>
<path fill="none" stroke="black" d="M49.9214,-287.697C53.0747,-279.813 56.8783,-270.304 60.3814,-261.546"/>
<polygon fill="black" stroke="black" points="63.694,-262.689 64.1583,-252.104 57.1946,-260.089 63.694,-262.689"/>
<g id="a_edge1&#45;headlabel"><a xlink:href="dir_000359_000343.html" target="_top" xlink:title="9">
<text text-anchor="middle" x="64.9952" y="-264.581" font-family="Helvetica,sans-Serif" font-size="10.00">9</text>
</a>
</g>
</g>
<!-- dir_4ab6b4cc6a7edbff49100e9123df213f -->
<g id="node3" class="node"><title>dir_4ab6b4cc6a7edbff49100e9123df213f</title>
<g id="a_node3"><a xlink:href="dir_4ab6b4cc6a7edbff49100e9123df213f.html" target="_top" xlink:title="Common">
<polygon fill="none" stroke="red" points="138,-108 82,-108 82,-72 138,-72 138,-108"/>
<text text-anchor="middle" x="110" y="-87.5" font-family="Helvetica,sans-Serif" font-size="10.00">Common</text>
</a>
</g>
</g>
<!-- dir_873ae8954a9ad67b3926d8c81d25c943&#45;&gt;dir_4ab6b4cc6a7edbff49100e9123df213f -->
<g id="edge2" class="edge"><title>dir_873ae8954a9ad67b3926d8c81d25c943&#45;&gt;dir_4ab6b4cc6a7edbff49100e9123df213f</title>
<path fill="none" stroke="black" d="M37.9273,-287.946C33.339,-269.788 28.25,-240.37 35,-216 45.469,-178.204 70.7466,-140.362 89.0678,-116.379"/>
<polygon fill="black" stroke="black" points="92.0627,-118.231 95.4627,-108.197 86.5472,-113.921 92.0627,-118.231"/>
<g id="a_edge2&#45;headlabel"><a xlink:href="dir_000359_000012.html" target="_top" xlink:title="1">
<text text-anchor="middle" x="92.0864" y="-120.312" font-family="Helvetica,sans-Serif" font-size="10.00">1</text>
</a>
</g>
</g>
<!-- dir_bcbb2cf9a3d3d83e5515c82071a07177 -->
<g id="node4" class="node"><title>dir_bcbb2cf9a3d3d83e5515c82071a07177</title>
<g id="a_node4"><a xlink:href="dir_bcbb2cf9a3d3d83e5515c82071a07177.html" target="_top" xlink:title="Framework">
<polygon fill="none" stroke="red" points="158.5,-180 93.5,-180 93.5,-144 158.5,-144 158.5,-180"/>
<text text-anchor="middle" x="126" y="-159.5" font-family="Helvetica,sans-Serif" font-size="10.00">Framework</text>
</a>
</g>
</g>
<!-- dir_873ae8954a9ad67b3926d8c81d25c943&#45;&gt;dir_bcbb2cf9a3d3d83e5515c82071a07177 -->
<g id="edge3" class="edge"><title>dir_873ae8954a9ad67b3926d8c81d25c943&#45;&gt;dir_bcbb2cf9a3d3d83e5515c82071a07177</title>
<path fill="none" stroke="black" d="M70.0759,-288.784C83.162,-279.586 97.9545,-266.93 107,-252 118.293,-233.362 122.932,-208.972 124.81,-190.438"/>
<polygon fill="black" stroke="black" points="128.313,-190.539 125.625,-180.291 121.335,-189.978 128.313,-190.539"/>
<g id="a_edge3&#45;headlabel"><a xlink:href="dir_000359_000031.html" target="_top" xlink:title="8">
<text text-anchor="middle" x="130.855" y="-191.849" font-family="Helvetica,sans-Serif" font-size="10.00">8</text>
</a>
</g>
</g>
<!-- dir_2171f7ec022c5423887b07c69b2f5b48 -->
<g id="node5" class="node"><title>dir_2171f7ec022c5423887b07c69b2f5b48</title>
<g id="a_node5"><a xlink:href="dir_2171f7ec022c5423887b07c69b2f5b48.html" target="_top" xlink:title="DataFormats">
<polygon fill="none" stroke="red" points="147,-36 73,-36 73,-0 147,-0 147,-36"/>
<text text-anchor="middle" x="110" y="-15.5" font-family="Helvetica,sans-Serif" font-size="10.00">DataFormats</text>
</a>
</g>
</g>
<!-- dir_873ae8954a9ad67b3926d8c81d25c943&#45;&gt;dir_2171f7ec022c5423887b07c69b2f5b48 -->
<g id="edge4" class="edge"><title>dir_873ae8954a9ad67b3926d8c81d25c943&#45;&gt;dir_2171f7ec022c5423887b07c69b2f5b48</title>
<path fill="none" stroke="black" d="M36.762,-287.593C33.4326,-277.374 29.6826,-264.124 28,-252 16.8082,-171.358 24.1231,-144.067 62,-72 67.3946,-61.7358 75.2428,-51.9059 83.0359,-43.5599"/>
<polygon fill="black" stroke="black" points="85.6082,-45.9355 90.1053,-36.3424 80.6075,-41.0373 85.6082,-45.9355"/>
<g id="a_edge4&#45;headlabel"><a xlink:href="dir_000359_000055.html" target="_top" xlink:title="4">
<text text-anchor="middle" x="85.1213" y="-47.9902" font-family="Helvetica,sans-Serif" font-size="10.00">4</text>
</a>
</g>
</g>
<!-- dir_6c6345ba72c9861e0bc6c84a0b141d36&#45;&gt;dir_bcbb2cf9a3d3d83e5515c82071a07177 -->
<g id="edge5" class="edge"><title>dir_6c6345ba72c9861e0bc6c84a0b141d36&#45;&gt;dir_bcbb2cf9a3d3d83e5515c82071a07177</title>
<path fill="none" stroke="black" d="M84.5955,-215.697C91.1227,-207.389 99.068,-197.277 106.247,-188.141"/>
<polygon fill="black" stroke="black" points="109.135,-190.13 112.561,-180.104 103.631,-185.805 109.135,-190.13"/>
<g id="a_edge5&#45;headlabel"><a xlink:href="dir_000343_000031.html" target="_top" xlink:title="9">
<text text-anchor="middle" x="109.147" y="-192.211" font-family="Helvetica,sans-Serif" font-size="10.00">9</text>
</a>
</g>
</g>
<!-- dir_6c6345ba72c9861e0bc6c84a0b141d36&#45;&gt;dir_2171f7ec022c5423887b07c69b2f5b48 -->
<g id="edge6" class="edge"><title>dir_6c6345ba72c9861e0bc6c84a0b141d36&#45;&gt;dir_2171f7ec022c5423887b07c69b2f5b48</title>
<path fill="none" stroke="black" d="M67.945,-215.546C63.3796,-185.408 56.9213,-122.033 73,-72 76.1598,-62.1677 81.8295,-52.5551 87.7961,-44.275"/>
<polygon fill="black" stroke="black" points="90.7042,-46.235 94.0288,-36.1753 85.1565,-41.9661 90.7042,-46.235"/>
<g id="a_edge6&#45;headlabel"><a xlink:href="dir_000343_000055.html" target="_top" xlink:title="5">
<text text-anchor="middle" x="90.7623" y="-48.3153" font-family="Helvetica,sans-Serif" font-size="10.00">5</text>
</a>
</g>
</g>
<!-- dir_4ab6b4cc6a7edbff49100e9123df213f&#45;&gt;dir_2171f7ec022c5423887b07c69b2f5b48 -->
<g id="edge7" class="edge"><title>dir_4ab6b4cc6a7edbff49100e9123df213f&#45;&gt;dir_2171f7ec022c5423887b07c69b2f5b48</title>
<path fill="none" stroke="black" d="M104.084,-71.6966C103.289,-63.9827 103.062,-54.7125 103.405,-46.1124"/>
<polygon fill="black" stroke="black" points="106.898,-46.3243 104.105,-36.1043 99.9154,-45.8356 106.898,-46.3243"/>
<g id="a_edge7&#45;headlabel"><a xlink:href="dir_000012_000055.html" target="_top" xlink:title="5">
<text text-anchor="middle" x="109.48" y="-47.6083" font-family="Helvetica,sans-Serif" font-size="10.00">5</text>
</a>
</g>
</g>
<!-- dir_bcbb2cf9a3d3d83e5515c82071a07177&#45;&gt;dir_4ab6b4cc6a7edbff49100e9123df213f -->
<g id="edge8" class="edge"><title>dir_bcbb2cf9a3d3d83e5515c82071a07177&#45;&gt;dir_4ab6b4cc6a7edbff49100e9123df213f</title>
<path fill="none" stroke="black" d="M122.045,-143.697C120.282,-135.983 118.163,-126.712 116.197,-118.112"/>
<polygon fill="black" stroke="black" points="119.55,-117.073 113.91,-108.104 112.726,-118.633 119.55,-117.073"/>
<g id="a_edge8&#45;headlabel"><a xlink:href="dir_000031_000012.html" target="_top" xlink:title="8">
<text text-anchor="middle" x="123.119" y="-117.445" font-family="Helvetica,sans-Serif" font-size="10.00">8</text>
</a>
</g>
</g>
<!-- dir_bcbb2cf9a3d3d83e5515c82071a07177&#45;&gt;dir_2171f7ec022c5423887b07c69b2f5b48 -->
<g id="edge9" class="edge"><title>dir_bcbb2cf9a3d3d83e5515c82071a07177&#45;&gt;dir_2171f7ec022c5423887b07c69b2f5b48</title>
<path fill="none" stroke="black" d="M128.817,-143.737C135.257,-125.657 145.716,-96.5337 138,-72 134.934,-62.252 129.368,-52.7328 123.873,-44.513"/>
<polygon fill="black" stroke="black" points="126.643,-42.366 118.06,-36.1544 120.896,-46.3626 126.643,-42.366"/>
<g id="a_edge9&#45;headlabel"><a xlink:href="dir_000031_000055.html" target="_top" xlink:title="67">
<text text-anchor="middle" x="131.026" y="-41.1961" font-family="Helvetica,sans-Serif" font-size="10.00">67</text>
</a>
</g>
</g>
<!-- dir_2171f7ec022c5423887b07c69b2f5b48&#45;&gt;dir_4ab6b4cc6a7edbff49100e9123df213f -->
<g id="edge10" class="edge"><title>dir_2171f7ec022c5423887b07c69b2f5b48&#45;&gt;dir_4ab6b4cc6a7edbff49100e9123df213f</title>
<path fill="none" stroke="black" d="M115.895,-36.1043C116.701,-43.7913 116.937,-53.0537 116.604,-61.6651"/>
<polygon fill="black" stroke="black" points="113.109,-61.4805 115.916,-71.6966 120.092,-61.9597 113.109,-61.4805"/>
<g id="a_edge10&#45;headlabel"><a xlink:href="dir_000055_000012.html" target="_top" xlink:title="28">
<text text-anchor="middle" x="110.522" y="-55.2" font-family="Helvetica,sans-Serif" font-size="10.00">28</text>
</a>
</g>
</g>
<!-- dir_2171f7ec022c5423887b07c69b2f5b48&#45;&gt;dir_bcbb2cf9a3d3d83e5515c82071a07177 -->
<g id="edge11" class="edge"><title>dir_2171f7ec022c5423887b07c69b2f5b48&#45;&gt;dir_bcbb2cf9a3d3d83e5515c82071a07177</title>
<path fill="none" stroke="black" d="M134.014,-36.1544C143.014,-45.8765 151.825,-58.7261 156,-72 162.511,-92.7003 156.082,-116.668 147.305,-134.513"/>
<polygon fill="black" stroke="black" points="143.988,-133.285 142.255,-143.737 150.128,-136.646 143.988,-133.285"/>
<g id="a_edge11&#45;headlabel"><a xlink:href="dir_000055_000031.html" target="_top" xlink:title="6">
<text text-anchor="middle" x="143.223" y="-126.268" font-family="Helvetica,sans-Serif" font-size="10.00">6</text>
</a>
</g>
</g>
</g>
</svg>
