<?xml version="1.0" encoding="UTF-8" standalone="no"?>
<!DOCTYPE svg PUBLIC "-//W3C//DTD SVG 1.1//EN"
 "http://www.w3.org/Graphics/SVG/1.1/DTD/svg11.dtd">
<!-- Generated by graphviz version 2.38.0 (20140413.2041)
 -->
<!-- Title: Graphical Class Hierarchy Pages: 1 -->
<svg width="242pt" height="154pt"
 viewBox="0.00 0.00 242.00 153.50" xmlns="http://www.w3.org/2000/svg" xmlns:xlink="http://www.w3.org/1999/xlink">
<g id="graph0" class="graph" transform="scale(1 1) rotate(0) translate(4 149.5)">
<title>Graphical Class Hierarchy</title>
<!-- Node1 -->
<g id="node1" class="node"><title>Node1</title>
<polygon fill="none" stroke="#bfbfbf" points="0,-69 0,-88 74,-88 74,-69 0,-69"/>
<text text-anchor="middle" x="37" y="-76" font-family="Helvetica,sans-Serif" font-size="10.00">runtime_error</text>
</g>
<!-- Node2 -->
<g id="node2" class="node"><title>Node2</title>
<g id="a_node2"><a xlink:href="d9/d21/classBuildFailedError.html" target="_top" xlink:title="BuildFailedError">
<polygon fill="none" stroke="black" points="129,-126 129,-145 215,-145 215,-126 129,-126"/>
<text text-anchor="middle" x="172" y="-133" font-family="Helvetica,sans-Serif" font-size="10.00">BuildFailedError</text>
</a>
</g>
</g>
<!-- Node1&#45;&gt;Node2 -->
<g id="edge1" class="edge"><title>Node1&#45;&gt;Node2</title>
<path fill="none" stroke="midnightblue" d="M62.9429,-93.119C76.557,-100.723 93.8804,-109.802 110,-116.5 118.399,-119.99 127.677,-123.193 136.407,-125.936"/>
<polygon fill="midnightblue" stroke="midnightblue" points="64.5948,-90.0321 54.1708,-88.1376 61.1382,-96.1192 64.5948,-90.0321"/>
</g>
<!-- Node3 -->
<g id="node3" class="node"><title>Node3</title>
<g id="a_node3"><a xlink:href="d8/dec/classNoGpuFoundError.html" target="_top" xlink:title="NoGpuFoundError">
<polygon fill="none" stroke="black" points="124.5,-88 124.5,-107 219.5,-107 219.5,-88 124.5,-88"/>
<text text-anchor="middle" x="172" y="-95" font-family="Helvetica,sans-Serif" font-size="10.00">NoGpuFoundError</text>
</a>
</g>
</g>
<!-- Node1&#45;&gt;Node3 -->
<g id="edge2" class="edge"><title>Node1&#45;&gt;Node3</title>
<path fill="none" stroke="midnightblue" d="M84.3995,-85.1285C97.289,-86.9699 111.291,-88.9701 124.203,-90.8147"/>
<polygon fill="midnightblue" stroke="midnightblue" points="84.7373,-81.6413 74.3428,-83.6918 83.7473,-88.571 84.7373,-81.6413"/>
</g>
<!-- Node4 -->
<g id="node4" class="node"><title>Node4</title>
<g id="a_node4"><a xlink:href="da/d87/classNoPlatformFoundError.html" target="_top" xlink:title="NoPlatformFoundError">
<polygon fill="none" stroke="black" points="115,-50 115,-69 229,-69 229,-50 115,-50"/>
<text text-anchor="middle" x="172" y="-57" font-family="Helvetica,sans-Serif" font-size="10.00">NoPlatformFoundError</text>
</a>
</g>
</g>
<!-- Node1&#45;&gt;Node4 -->
<g id="edge3" class="edge"><title>Node1&#45;&gt;Node4</title>
<path fill="none" stroke="midnightblue" d="M84.3593,-71.8772C94.2384,-70.4659 104.772,-68.9611 114.969,-67.5044"/>
<polygon fill="midnightblue" stroke="midnightblue" points="83.7473,-68.429 74.3428,-73.3082 84.7373,-75.3587 83.7473,-68.429"/>
</g>
<!-- Node5 -->
<g id="node5" class="node"><title>Node5</title>
<g id="a_node5"><a xlink:href="d7/d19/classo2_1_1tpc_1_1rawreader_1_1RawReaderCRU_1_1Error.html" target="_top" xlink:title="o2::tpc::rawreader\l::RawReaderCRU::Error">
<polygon fill="none" stroke="black" points="110,-0.5 110,-30.5 234,-30.5 234,-0.5 110,-0.5"/>
<text text-anchor="start" x="118" y="-18.5" font-family="Helvetica,sans-Serif" font-size="10.00">o2::tpc::rawreader</text>
<text text-anchor="middle" x="172" y="-7.5" font-family="Helvetica,sans-Serif" font-size="10.00">::RawReaderCRU::Error</text>
</a>
</g>
</g>
<!-- Node1&#45;&gt;Node5 -->
<g id="edge4" class="edge"><title>Node1&#45;&gt;Node5</title>
<path fill="none" stroke="midnightblue" d="M63.7313,-64.1446C77.3297,-56.7566 94.395,-47.7949 110,-40.5 117.258,-37.1072 125.107,-33.7006 132.682,-30.5415"/>
<polygon fill="midnightblue" stroke="midnightblue" points="62.0182,-61.0923 54.9316,-68.9682 65.383,-67.2306 62.0182,-61.0923"/>
</g>
</g>
</svg>
