<?xml version="1.0" encoding="UTF-8" standalone="no"?>
<!DOCTYPE svg PUBLIC "-//W3C//DTD SVG 1.1//EN"
 "http://www.w3.org/Graphics/SVG/1.1/DTD/svg11.dtd">
<!-- Generated by graphviz version 2.38.0 (20140413.2041)
 -->
<!-- Title: Graphical Class Hierarchy Pages: 1 -->
<svg width="432pt" height="489pt"
 viewBox="0.00 0.00 432.00 489.00" xmlns="http://www.w3.org/2000/svg" xmlns:xlink="http://www.w3.org/1999/xlink">
<g id="graph0" class="graph" transform="scale(1 1) rotate(0) translate(4 485)">
<title>Graphical Class Hierarchy</title>
<!-- Node1 -->
<g id="node1" class="node"><title>Node1</title>
<polygon fill="none" stroke="#bfbfbf" points="0,-231.5 0,-250.5 54,-250.5 54,-231.5 0,-231.5"/>
<text text-anchor="middle" x="27" y="-238.5" font-family="Helvetica,sans-Serif" font-size="10.00">TNamed</text>
</g>
<!-- Node2 -->
<g id="node2" class="node"><title>Node2</title>
<g id="a_node2"><a xlink:href="dc/def/classAliTPCPoissonSolver.html" target="_top" xlink:title="AliTPCPoissonSolver">
<polygon fill="none" stroke="black" points="107.5,-461.5 107.5,-480.5 218.5,-480.5 218.5,-461.5 107.5,-461.5"/>
<text text-anchor="middle" x="163" y="-468.5" font-family="Helvetica,sans-Serif" font-size="10.00">AliTPCPoissonSolver</text>
</a>
</g>
</g>
<!-- Node1&#45;&gt;Node2 -->
<g id="edge1" class="edge"><title>Node1&#45;&gt;Node2</title>
<path fill="none" stroke="midnightblue" d="M27.7654,-260.822C28.3977,-302.448 35.9608,-399.442 90,-452 94.9118,-456.777 100.876,-460.391 107.246,-463.118"/>
<polygon fill="midnightblue" stroke="midnightblue" points="31.2649,-260.623 27.7379,-250.633 24.265,-260.642 31.2649,-260.623"/>
</g>
<!-- Node3 -->
<g id="node3" class="node"><title>Node3</title>
<g id="a_node3"><a xlink:href="d2/d97/classo2_1_1cpv_1_1GeometryParams.html" target="_top" xlink:title="o2::cpv::GeometryParams">
<polygon fill="none" stroke="black" points="97.5,-423.5 97.5,-442.5 228.5,-442.5 228.5,-423.5 97.5,-423.5"/>
<text text-anchor="middle" x="163" y="-430.5" font-family="Helvetica,sans-Serif" font-size="10.00">o2::cpv::GeometryParams</text>
</a>
</g>
</g>
<!-- Node1&#45;&gt;Node3 -->
<g id="edge2" class="edge"><title>Node1&#45;&gt;Node3</title>
<path fill="none" stroke="midnightblue" d="M29.2606,-260.661C32.6454,-296.542 45.0249,-372.74 90,-414 94.1916,-417.845 99.0693,-420.93 104.273,-423.402"/>
<polygon fill="midnightblue" stroke="midnightblue" points="32.7359,-260.211 28.4478,-250.523 25.7583,-260.77 32.7359,-260.211"/>
</g>
<!-- Node4 -->
<g id="node4" class="node"><title>Node4</title>
<g id="a_node4"><a xlink:href="dc/d50/classo2_1_1detectors_1_1AlignParam.html" target="_top" xlink:title="o2::detectors::AlignParam">
<polygon fill="none" stroke="black" points="98,-385.5 98,-404.5 228,-404.5 228,-385.5 98,-385.5"/>
<text text-anchor="middle" x="163" y="-392.5" font-family="Helvetica,sans-Serif" font-size="10.00">o2::detectors::AlignParam</text>
</a>
</g>
</g>
<!-- Node1&#45;&gt;Node4 -->
<g id="edge3" class="edge"><title>Node1&#45;&gt;Node4</title>
<path fill="none" stroke="midnightblue" d="M31.4715,-260.424C37.7748,-289.897 53.9414,-345.681 90,-376 94.5517,-379.827 99.7923,-382.892 105.327,-385.346"/>
<polygon fill="midnightblue" stroke="midnightblue" points="34.8878,-259.658 29.5177,-250.525 28.0203,-261.013 34.8878,-259.658"/>
</g>
<!-- Node5 -->
<g id="node5" class="node"><title>Node5</title>
<g id="a_node5"><a xlink:href="db/d53/classo2_1_1field_1_1MagneticWrapperChebyshev.html" target="_top" xlink:title="o2::field::MagneticWrapper\lChebyshev">
<polygon fill="none" stroke="black" points="96,-336 96,-366 230,-366 230,-336 96,-336"/>
<text text-anchor="start" x="104" y="-354" font-family="Helvetica,sans-Serif" font-size="10.00">o2::field::MagneticWrapper</text>
<text text-anchor="middle" x="163" y="-343" font-family="Helvetica,sans-Serif" font-size="10.00">Chebyshev</text>
</a>
</g>
</g>
<!-- Node1&#45;&gt;Node5 -->
<g id="edge4" class="edge"><title>Node1&#45;&gt;Node5</title>
<path fill="none" stroke="midnightblue" d="M37.1961,-259.612C47.5605,-278.795 66.1248,-308.32 90,-326 95.2106,-329.859 101.064,-333.156 107.124,-335.965"/>
<polygon fill="midnightblue" stroke="midnightblue" points="40.2529,-257.904 32.5389,-250.641 34.0402,-261.129 40.2529,-257.904"/>
</g>
<!-- Node6 -->
<g id="node6" class="node"><title>Node6</title>
<g id="a_node6"><a xlink:href="da/dd1/classo2_1_1math__utils_1_1Chebyshev3D.html" target="_top" xlink:title="o2::math_utils::Chebyshev3D">
<polygon fill="none" stroke="black" points="90,-297.5 90,-316.5 236,-316.5 236,-297.5 90,-297.5"/>
<text text-anchor="middle" x="163" y="-304.5" font-family="Helvetica,sans-Serif" font-size="10.00">o2::math_utils::Chebyshev3D</text>
</a>
</g>
</g>
<!-- Node1&#45;&gt;Node6 -->
<g id="edge5" class="edge"><title>Node1&#45;&gt;Node6</title>
<path fill="none" stroke="midnightblue" d="M45.8469,-257.544C57.6063,-267.646 73.7798,-280.098 90,-288 97.7868,-291.793 106.43,-294.903 114.947,-297.426"/>
<polygon fill="midnightblue" stroke="midnightblue" points="47.9321,-254.715 38.1268,-250.702 43.2892,-259.954 47.9321,-254.715"/>
</g>
<!-- Node7 -->
<g id="node7" class="node"><title>Node7</title>
<g id="a_node7"><a xlink:href="df/d49/classo2_1_1math__utils_1_1Chebyshev3DCalc.html" target="_top" xlink:title="o2::math_utils::Chebyshev3\lDCalc">
<polygon fill="none" stroke="black" points="93.5,-248 93.5,-278 232.5,-278 232.5,-248 93.5,-248"/>
<text text-anchor="start" x="101.5" y="-266" font-family="Helvetica,sans-Serif" font-size="10.00">o2::math_utils::Chebyshev3</text>
<text text-anchor="middle" x="163" y="-255" font-family="Helvetica,sans-Serif" font-size="10.00">DCalc</text>
</a>
</g>
</g>
<!-- Node1&#45;&gt;Node7 -->
<g id="edge6" class="edge"><title>Node1&#45;&gt;Node7</title>
<path fill="none" stroke="midnightblue" d="M64.2758,-246.956C73.3165,-248.44 83.3097,-250.081 93.3524,-251.729"/>
<polygon fill="midnightblue" stroke="midnightblue" points="64.5896,-243.46 54.1547,-245.294 63.4555,-250.368 64.5896,-243.46"/>
</g>
<!-- Node8 -->
<g id="node8" class="node"><title>Node8</title>
<g id="a_node8"><a xlink:href="d8/db1/classo2_1_1mft_1_1Geometry.html" target="_top" xlink:title="o2::mft::Geometry">
<polygon fill="none" stroke="black" points="115,-209.5 115,-228.5 211,-228.5 211,-209.5 115,-209.5"/>
<text text-anchor="middle" x="163" y="-216.5" font-family="Helvetica,sans-Serif" font-size="10.00">o2::mft::Geometry</text>
</a>
</g>
</g>
<!-- Node1&#45;&gt;Node8 -->
<g id="edge7" class="edge"><title>Node1&#45;&gt;Node8</title>
<path fill="none" stroke="midnightblue" d="M64.3946,-235.025C79.9101,-232.477 98.2147,-229.472 114.755,-226.757"/>
<polygon fill="midnightblue" stroke="midnightblue" points="63.4555,-231.632 54.1547,-236.706 64.5896,-238.54 63.4555,-231.632"/>
</g>
<!-- Node9 -->
<g id="node9" class="node"><title>Node9</title>
<g id="a_node9"><a xlink:href="d6/daf/classo2_1_1mft_1_1HalfDetector.html" target="_top" xlink:title="o2::mft::HalfDetector">
<polygon fill="none" stroke="black" points="108.5,-171.5 108.5,-190.5 217.5,-190.5 217.5,-171.5 108.5,-171.5"/>
<text text-anchor="middle" x="163" y="-178.5" font-family="Helvetica,sans-Serif" font-size="10.00">o2::mft::HalfDetector</text>
</a>
</g>
</g>
<!-- Node1&#45;&gt;Node9 -->
<g id="edge8" class="edge"><title>Node1&#45;&gt;Node9</title>
<path fill="none" stroke="midnightblue" d="M48.2728,-225.143C59.9324,-216.668 75.172,-206.642 90,-200 98.3768,-196.248 107.645,-193.115 116.667,-190.548"/>
<polygon fill="midnightblue" stroke="midnightblue" points="46.0327,-222.448 40.1205,-231.239 50.225,-228.053 46.0327,-222.448"/>
</g>
<!-- Node10 -->
<g id="node10" class="node"><title>Node10</title>
<g id="a_node10"><a xlink:href="d6/d53/classo2_1_1mft_1_1HalfDisk.html" target="_top" xlink:title="o2::mft::HalfDisk">
<polygon fill="none" stroke="black" points="117,-133.5 117,-152.5 209,-152.5 209,-133.5 117,-133.5"/>
<text text-anchor="middle" x="163" y="-140.5" font-family="Helvetica,sans-Serif" font-size="10.00">o2::mft::HalfDisk</text>
</a>
</g>
</g>
<!-- Node1&#45;&gt;Node10 -->
<g id="edge9" class="edge"><title>Node1&#45;&gt;Node10</title>
<path fill="none" stroke="midnightblue" d="M37.8893,-222.289C48.4227,-204.175 66.7697,-177.276 90,-162 97.9932,-156.744 107.382,-152.939 116.69,-150.185"/>
<polygon fill="midnightblue" stroke="midnightblue" points="34.6681,-220.88 32.8599,-231.319 40.7835,-224.286 34.6681,-220.88"/>
</g>
<!-- Node11 -->
<g id="node11" class="node"><title>Node11</title>
<g id="a_node11"><a xlink:href="d6/d35/classo2_1_1mft_1_1Ladder.html" target="_top" xlink:title="o2::mft::Ladder">
<polygon fill="none" stroke="black" points="121.5,-95.5 121.5,-114.5 204.5,-114.5 204.5,-95.5 121.5,-95.5"/>
<text text-anchor="middle" x="163" y="-102.5" font-family="Helvetica,sans-Serif" font-size="10.00">o2::mft::Ladder</text>
</a>
</g>
</g>
<!-- Node1&#45;&gt;Node11 -->
<g id="edge10" class="edge"><title>Node1&#45;&gt;Node11</title>
<path fill="none" stroke="midnightblue" d="M32.9955,-221.566C40.7384,-195.41 58.1711,-149.256 90,-124 98.9119,-116.929 110.205,-112.474 121.188,-109.672"/>
<polygon fill="midnightblue" stroke="midnightblue" points="29.5592,-220.86 30.2566,-231.431 36.3041,-222.732 29.5592,-220.86"/>
</g>
<!-- Node12 -->
<g id="node12" class="node"><title>Node12</title>
<g id="a_node12"><a xlink:href="d5/db8/classo2_1_1mft_1_1VSegmentation.html" target="_top" xlink:title="o2::mft::VSegmentation">
<polygon fill="none" stroke="black" points="103,-57.5 103,-76.5 223,-76.5 223,-57.5 103,-57.5"/>
<text text-anchor="middle" x="163" y="-64.5" font-family="Helvetica,sans-Serif" font-size="10.00">o2::mft::VSegmentation</text>
</a>
</g>
</g>
<!-- Node1&#45;&gt;Node12 -->
<g id="edge11" class="edge"><title>Node1&#45;&gt;Node12</title>
<path fill="none" stroke="midnightblue" d="M30.2398,-221.092C35.0398,-188.031 49.4119,-121.898 90,-86 94.3577,-82.1459 99.4082,-79.0596 104.773,-76.5904"/>
<polygon fill="midnightblue" stroke="midnightblue" points="26.7308,-220.935 28.9139,-231.303 33.6725,-221.837 26.7308,-220.935"/>
</g>
<!-- Node17 -->
<g id="node17" class="node"><title>Node17</title>
<g id="a_node17"><a xlink:href="d4/d4b/classo2_1_1phos_1_1GeometryParams.html" target="_top" xlink:title="o2::phos::GeometryParams">
<polygon fill="none" stroke="black" points="94.5,-19.5 94.5,-38.5 231.5,-38.5 231.5,-19.5 94.5,-19.5"/>
<text text-anchor="middle" x="163" y="-26.5" font-family="Helvetica,sans-Serif" font-size="10.00">o2::phos::GeometryParams</text>
</a>
</g>
</g>
<!-- Node1&#45;&gt;Node17 -->
<g id="edge16" class="edge"><title>Node1&#45;&gt;Node17</title>
<path fill="none" stroke="midnightblue" d="M28.4086,-221.257C30.321,-182.286 40.2665,-95.1734 90,-48 94.0332,-44.1744 98.7429,-41.0979 103.788,-38.6267"/>
<polygon fill="midnightblue" stroke="midnightblue" points="24.909,-221.186 28.0465,-231.305 31.9044,-221.438 24.909,-221.186"/>
</g>
<!-- Node13 -->
<g id="node13" class="node"><title>Node13</title>
<g id="a_node13"><a xlink:href="d1/d8e/classo2_1_1mft_1_1ChipSegmentation.html" target="_top" xlink:title="o2::mft::ChipSegmentation">
<polygon fill="none" stroke="black" points="281,-114.5 281,-133.5 415,-133.5 415,-114.5 281,-114.5"/>
<text text-anchor="middle" x="348" y="-121.5" font-family="Helvetica,sans-Serif" font-size="10.00">o2::mft::ChipSegmentation</text>
</a>
</g>
</g>
<!-- Node12&#45;&gt;Node13 -->
<g id="edge12" class="edge"><title>Node12&#45;&gt;Node13</title>
<path fill="none" stroke="midnightblue" d="M216.466,-79.3448C223.116,-81.3464 229.769,-83.5701 236,-86 252.855,-92.5728 255.112,-98.5106 272,-105 281.529,-108.662 292.01,-111.824 302.039,-114.46"/>
<polygon fill="midnightblue" stroke="midnightblue" points="217.351,-75.9578 206.774,-76.5728 215.426,-82.6879 217.351,-75.9578"/>
</g>
<!-- Node14 -->
<g id="node14" class="node"><title>Node14</title>
<g id="a_node14"><a xlink:href="d2/ddf/classo2_1_1mft_1_1HalfDiskSegmentation.html" target="_top" xlink:title="o2::mft::HalfDiskSegmentation">
<polygon fill="none" stroke="black" points="272,-76.5 272,-95.5 424,-95.5 424,-76.5 272,-76.5"/>
<text text-anchor="middle" x="348" y="-83.5" font-family="Helvetica,sans-Serif" font-size="10.00">o2::mft::HalfDiskSegmentation</text>
</a>
</g>
</g>
<!-- Node12&#45;&gt;Node14 -->
<g id="edge13" class="edge"><title>Node12&#45;&gt;Node14</title>
<path fill="none" stroke="midnightblue" d="M233.179,-74.1825C245.858,-75.4989 259.145,-76.8785 271.985,-78.2115"/>
<polygon fill="midnightblue" stroke="midnightblue" points="233.47,-70.694 223.162,-73.1425 232.747,-77.6566 233.47,-70.694"/>
</g>
<!-- Node15 -->
<g id="node15" class="node"><title>Node15</title>
<g id="a_node15"><a xlink:href="d2/da0/classo2_1_1mft_1_1HalfSegmentation.html" target="_top" xlink:title="o2::mft::HalfSegmentation">
<polygon fill="none" stroke="black" points="282.5,-38.5 282.5,-57.5 413.5,-57.5 413.5,-38.5 282.5,-38.5"/>
<text text-anchor="middle" x="348" y="-45.5" font-family="Helvetica,sans-Serif" font-size="10.00">o2::mft::HalfSegmentation</text>
</a>
</g>
</g>
<!-- Node12&#45;&gt;Node15 -->
<g id="edge14" class="edge"><title>Node12&#45;&gt;Node15</title>
<path fill="none" stroke="midnightblue" d="M233.533,-59.7807C249.559,-58.1168 266.54,-56.3538 282.348,-54.7125"/>
<polygon fill="midnightblue" stroke="midnightblue" points="232.747,-56.3434 223.162,-60.8575 233.47,-63.306 232.747,-56.3434"/>
</g>
<!-- Node16 -->
<g id="node16" class="node"><title>Node16</title>
<g id="a_node16"><a xlink:href="df/dc2/classo2_1_1mft_1_1LadderSegmentation.html" target="_top" xlink:title="o2::mft::LadderSegmentation">
<polygon fill="none" stroke="black" points="276.5,-0.5 276.5,-19.5 419.5,-19.5 419.5,-0.5 276.5,-0.5"/>
<text text-anchor="middle" x="348" y="-7.5" font-family="Helvetica,sans-Serif" font-size="10.00">o2::mft::LadderSegmentation</text>
</a>
</g>
</g>
<!-- Node12&#45;&gt;Node16 -->
<g id="edge15" class="edge"><title>Node12&#45;&gt;Node16</title>
<path fill="none" stroke="midnightblue" d="M216.466,-54.6552C223.116,-52.6536 229.769,-50.4299 236,-48 252.855,-41.4272 255.112,-35.4894 272,-29 281.529,-25.3383 292.01,-22.1762 302.039,-19.5397"/>
<polygon fill="midnightblue" stroke="midnightblue" points="215.426,-51.3121 206.774,-57.4272 217.351,-58.0422 215.426,-51.3121"/>
</g>
</g>
</svg>
