<?xml version="1.0" encoding="UTF-8" standalone="no"?>
<!DOCTYPE svg PUBLIC "-//W3C//DTD SVG 1.1//EN"
 "http://www.w3.org/Graphics/SVG/1.1/DTD/svg11.dtd">
<!-- Generated by graphviz version 2.38.0 (20140413.2041)
 -->
<!-- Title: Graphical Class Hierarchy Pages: 1 -->
<svg width="468pt" height="659pt"
 viewBox="0.00 0.00 468.00 658.50" xmlns="http://www.w3.org/2000/svg" xmlns:xlink="http://www.w3.org/1999/xlink">
<g id="graph0" class="graph" transform="scale(1 1) rotate(0) translate(4 654.5)">
<title>Graphical Class Hierarchy</title>
<!-- Node1 -->
<g id="node1" class="node"><title>Node1</title>
<g id="a_node1"><a xlink:href="db/dfe/classFairMQDevice.html" target="_top" xlink:title="FairMQDevice">
<polygon fill="none" stroke="black" points="0,-271.5 0,-290.5 80,-290.5 80,-271.5 0,-271.5"/>
<text text-anchor="middle" x="40" y="-278.5" font-family="Helvetica,sans-Serif" font-size="10.00">FairMQDevice</text>
</a>
</g>
</g>
<!-- Node2 -->
<g id="node2" class="node"><title>Node2</title>
<g id="a_node2"><a xlink:href="d7/dd9/classo2_1_1alice__hlt_1_1EventSampler.html" target="_top" xlink:title="o2::alice_hlt::EventSampler">
<polygon fill="none" stroke="black" points="125,-530.5 125,-549.5 262,-549.5 262,-530.5 125,-530.5"/>
<text text-anchor="middle" x="193.5" y="-537.5" font-family="Helvetica,sans-Serif" font-size="10.00">o2::alice_hlt::EventSampler</text>
</a>
</g>
</g>
<!-- Node1&#45;&gt;Node2 -->
<g id="edge1" class="edge"><title>Node1&#45;&gt;Node2</title>
<path fill="none" stroke="midnightblue" d="M41.0556,-301.163C42.3276,-347.227 52.149,-460.836 116,-521 120.084,-524.848 124.821,-527.95 129.899,-530.448"/>
<polygon fill="midnightblue" stroke="midnightblue" points="44.5522,-300.922 40.8887,-290.98 37.5531,-301.036 44.5522,-300.922"/>
</g>
<!-- Node3 -->
<g id="node3" class="node"><title>Node3</title>
<g id="a_node3"><a xlink:href="d5/df3/classo2_1_1alice__hlt_1_1WrapperDevice.html" target="_top" xlink:title="o2::alice_hlt::WrapperDevice">
<polygon fill="none" stroke="black" points="122,-492.5 122,-511.5 265,-511.5 265,-492.5 122,-492.5"/>
<text text-anchor="middle" x="193.5" y="-499.5" font-family="Helvetica,sans-Serif" font-size="10.00">o2::alice_hlt::WrapperDevice</text>
</a>
</g>
</g>
<!-- Node1&#45;&gt;Node3 -->
<g id="edge2" class="edge"><title>Node1&#45;&gt;Node3</title>
<path fill="none" stroke="midnightblue" d="M42.4131,-300.971C46.395,-341.59 61.3031,-434.114 116,-483 120.285,-486.83 125.224,-489.915 130.486,-492.396"/>
<polygon fill="midnightblue" stroke="midnightblue" points="45.8793,-300.426 41.5405,-290.76 38.9048,-301.022 45.8793,-300.426"/>
</g>
<!-- Node4 -->
<g id="node4" class="node"><title>Node4</title>
<g id="a_node4"><a xlink:href="db/d18/classo2_1_1base_1_1O2Device.html" target="_top" xlink:title="o2::base::O2Device">
<polygon fill="none" stroke="black" points="141.5,-454.5 141.5,-473.5 245.5,-473.5 245.5,-454.5 141.5,-454.5"/>
<text text-anchor="middle" x="193.5" y="-461.5" font-family="Helvetica,sans-Serif" font-size="10.00">o2::base::O2Device</text>
</a>
</g>
</g>
<!-- Node1&#45;&gt;Node4 -->
<g id="edge3" class="edge"><title>Node1&#45;&gt;Node4</title>
<path fill="none" stroke="midnightblue" d="M44.3031,-300.742C51.1696,-335.4 70.3261,-407.099 116,-445 123.266,-451.03 132.173,-455.189 141.309,-458.049"/>
<polygon fill="midnightblue" stroke="midnightblue" points="47.6731,-299.714 42.4251,-290.51 40.7881,-300.978 47.6731,-299.714"/>
</g>
<!-- Node13 -->
<g id="node13" class="node"><title>Node13</title>
<g id="a_node13"><a xlink:href="d4/de4/classo2_1_1devices_1_1EPNReceiver.html" target="_top" xlink:title="Receives sub&#45;timeframes from the flpSenders and merges these into full timeframes. ">
<polygon fill="none" stroke="black" points="127,-416.5 127,-435.5 260,-435.5 260,-416.5 127,-416.5"/>
<text text-anchor="middle" x="193.5" y="-423.5" font-family="Helvetica,sans-Serif" font-size="10.00">o2::devices::EPNReceiver</text>
</a>
</g>
</g>
<!-- Node1&#45;&gt;Node13 -->
<g id="edge12" class="edge"><title>Node1&#45;&gt;Node13</title>
<path fill="none" stroke="midnightblue" d="M47.1625,-300.455C57.0537,-328.435 79.1902,-379.67 116,-407 121.164,-410.834 127.011,-413.901 133.115,-416.353"/>
<polygon fill="midnightblue" stroke="midnightblue" points="50.3707,-299.015 43.8652,-290.652 43.736,-301.246 50.3707,-299.015"/>
</g>
<!-- Node14 -->
<g id="node14" class="node"><title>Node14</title>
<g id="a_node14"><a xlink:href="dd/d1e/classo2_1_1devices_1_1EPNReceiverDevice.html" target="_top" xlink:title="Receives sub&#45;timeframes from the flpSenders and merges these into full timeframes. ">
<polygon fill="none" stroke="black" points="127,-367 127,-397 260,-397 260,-367 127,-367"/>
<text text-anchor="start" x="135" y="-385" font-family="Helvetica,sans-Serif" font-size="10.00">o2::devices::EPNReceiver</text>
<text text-anchor="middle" x="193.5" y="-374" font-family="Helvetica,sans-Serif" font-size="10.00">Device</text>
</a>
</g>
</g>
<!-- Node1&#45;&gt;Node14 -->
<g id="edge13" class="edge"><title>Node1&#45;&gt;Node14</title>
<path fill="none" stroke="midnightblue" d="M54.2841,-298.709C68.0026,-315.855 90.895,-341.472 116,-357 122.179,-360.822 129.004,-364.123 135.958,-366.957"/>
<polygon fill="midnightblue" stroke="midnightblue" points="56.8873,-296.355 47.9833,-290.613 51.3632,-300.654 56.8873,-296.355"/>
</g>
<!-- Node15 -->
<g id="node15" class="node"><title>Node15</title>
<g id="a_node15"><a xlink:href="d5/daf/classo2_1_1devices_1_1FLPSender.html" target="_top" xlink:title="o2::devices::FLPSender">
<polygon fill="none" stroke="black" points="132.5,-328.5 132.5,-347.5 254.5,-347.5 254.5,-328.5 132.5,-328.5"/>
<text text-anchor="middle" x="193.5" y="-335.5" font-family="Helvetica,sans-Serif" font-size="10.00">o2::devices::FLPSender</text>
</a>
</g>
</g>
<!-- Node1&#45;&gt;Node15 -->
<g id="edge14" class="edge"><title>Node1&#45;&gt;Node15</title>
<path fill="none" stroke="midnightblue" d="M66.3417,-295.646C80.5806,-303.41 98.8823,-312.631 116,-319 125.748,-322.627 136.45,-325.775 146.681,-328.409"/>
<polygon fill="midnightblue" stroke="midnightblue" points="67.6376,-292.362 57.1976,-290.557 64.2335,-298.479 67.6376,-292.362"/>
</g>
<!-- Node16 -->
<g id="node16" class="node"><title>Node16</title>
<g id="a_node16"><a xlink:href="d4/d5e/classo2_1_1devices_1_1FLPSenderDevice.html" target="_top" xlink:title="o2::devices::FLPSenderDevice">
<polygon fill="none" stroke="black" points="117.5,-290.5 117.5,-309.5 269.5,-309.5 269.5,-290.5 117.5,-290.5"/>
<text text-anchor="middle" x="193.5" y="-297.5" font-family="Helvetica,sans-Serif" font-size="10.00">o2::devices::FLPSenderDevice</text>
</a>
</g>
</g>
<!-- Node1&#45;&gt;Node16 -->
<g id="edge15" class="edge"><title>Node1&#45;&gt;Node16</title>
<path fill="none" stroke="midnightblue" d="M90.0247,-287.148C98.7946,-288.248 108.113,-289.417 117.417,-290.584"/>
<polygon fill="midnightblue" stroke="midnightblue" points="90.3729,-283.665 80.015,-285.893 89.5017,-290.61 90.3729,-283.665"/>
</g>
<!-- Node17 -->
<g id="node17" class="node"><title>Node17</title>
<g id="a_node17"><a xlink:href="d5/db8/classo2_1_1devices_1_1FLPSyncSampler.html" target="_top" xlink:title="Publishes timeframes IDs for flpSenders (used only in test mode) ">
<polygon fill="none" stroke="black" points="119,-252.5 119,-271.5 268,-271.5 268,-252.5 119,-252.5"/>
<text text-anchor="middle" x="193.5" y="-259.5" font-family="Helvetica,sans-Serif" font-size="10.00">o2::devices::FLPSyncSampler</text>
</a>
</g>
</g>
<!-- Node1&#45;&gt;Node17 -->
<g id="edge16" class="edge"><title>Node1&#45;&gt;Node17</title>
<path fill="none" stroke="midnightblue" d="M90.1208,-274.84C99.3286,-273.685 109.138,-272.455 118.9,-271.23"/>
<polygon fill="midnightblue" stroke="midnightblue" points="89.5017,-271.39 80.015,-276.107 90.3729,-278.335 89.5017,-271.39"/>
</g>
<!-- Node18 -->
<g id="node18" class="node"><title>Node18</title>
<g id="a_node18"><a xlink:href="d7/d4c/classo2_1_1devices_1_1O2HitMerger.html" target="_top" xlink:title="o2::devices::O2HitMerger">
<polygon fill="none" stroke="black" points="129.5,-214.5 129.5,-233.5 257.5,-233.5 257.5,-214.5 129.5,-214.5"/>
<text text-anchor="middle" x="193.5" y="-221.5" font-family="Helvetica,sans-Serif" font-size="10.00">o2::devices::O2HitMerger</text>
</a>
</g>
</g>
<!-- Node1&#45;&gt;Node18 -->
<g id="edge17" class="edge"><title>Node1&#45;&gt;Node18</title>
<path fill="none" stroke="midnightblue" d="M66.3417,-266.354C80.5806,-258.59 98.8823,-249.369 116,-243 125.748,-239.373 136.45,-236.225 146.681,-233.591"/>
<polygon fill="midnightblue" stroke="midnightblue" points="64.2335,-263.521 57.1976,-271.443 67.6376,-269.638 64.2335,-263.521"/>
</g>
<!-- Node19 -->
<g id="node19" class="node"><title>Node19</title>
<g id="a_node19"><a xlink:href="d3/d9a/classo2_1_1devices_1_1O2PrimaryServerDevice.html" target="_top" xlink:title="o2::devices::O2PrimaryServer\lDevice">
<polygon fill="none" stroke="black" points="119.5,-165 119.5,-195 267.5,-195 267.5,-165 119.5,-165"/>
<text text-anchor="start" x="127.5" y="-183" font-family="Helvetica,sans-Serif" font-size="10.00">o2::devices::O2PrimaryServer</text>
<text text-anchor="middle" x="193.5" y="-172" font-family="Helvetica,sans-Serif" font-size="10.00">Device</text>
</a>
</g>
</g>
<!-- Node1&#45;&gt;Node19 -->
<g id="edge18" class="edge"><title>Node1&#45;&gt;Node19</title>
<path fill="none" stroke="midnightblue" d="M54.2841,-263.291C68.0026,-246.145 90.895,-220.528 116,-205 122.179,-201.178 129.004,-197.877 135.958,-195.043"/>
<polygon fill="midnightblue" stroke="midnightblue" points="51.3632,-261.346 47.9833,-271.387 56.8873,-265.645 51.3632,-261.346"/>
</g>
<!-- Node20 -->
<g id="node20" class="node"><title>Node20</title>
<g id="a_node20"><a xlink:href="db/dd9/classo2_1_1devices_1_1O2SimDevice.html" target="_top" xlink:title="o2::devices::O2SimDevice">
<polygon fill="none" stroke="black" points="126.5,-126.5 126.5,-145.5 260.5,-145.5 260.5,-126.5 126.5,-126.5"/>
<text text-anchor="middle" x="193.5" y="-133.5" font-family="Helvetica,sans-Serif" font-size="10.00">o2::devices::O2SimDevice</text>
</a>
</g>
</g>
<!-- Node1&#45;&gt;Node20 -->
<g id="edge19" class="edge"><title>Node1&#45;&gt;Node20</title>
<path fill="none" stroke="midnightblue" d="M47.1625,-261.545C57.0537,-233.565 79.1902,-182.33 116,-155 121.164,-151.166 127.011,-148.099 133.115,-145.647"/>
<polygon fill="midnightblue" stroke="midnightblue" points="43.736,-260.754 43.8652,-271.348 50.3707,-262.985 43.736,-260.754"/>
</g>
<!-- Node21 -->
<g id="node21" class="node"><title>Node21</title>
<g id="a_node21"><a xlink:href="d4/d56/classo2_1_1framework_1_1DataProcessingDevice.html" target="_top" xlink:title="o2::framework::DataProcessing\lDevice">
<polygon fill="none" stroke="black" points="116,-77 116,-107 271,-107 271,-77 116,-77"/>
<text text-anchor="start" x="124" y="-95" font-family="Helvetica,sans-Serif" font-size="10.00">o2::framework::DataProcessing</text>
<text text-anchor="middle" x="193.5" y="-84" font-family="Helvetica,sans-Serif" font-size="10.00">Device</text>
</a>
</g>
</g>
<!-- Node1&#45;&gt;Node21 -->
<g id="edge20" class="edge"><title>Node1&#45;&gt;Node21</title>
<path fill="none" stroke="midnightblue" d="M44.6911,-261.099C52.0857,-226.774 71.9379,-156.342 116,-117 120.377,-113.091 125.378,-109.793 130.678,-107.008"/>
<polygon fill="midnightblue" stroke="midnightblue" points="41.1883,-260.765 42.644,-271.259 48.0504,-262.147 41.1883,-260.765"/>
</g>
<!-- Node22 -->
<g id="node22" class="node"><title>Node22</title>
<g id="a_node22"><a xlink:href="d3/d79/classO2EPNex.html" target="_top" xlink:title="O2EPNex">
<polygon fill="none" stroke="black" points="163,-38.5 163,-57.5 224,-57.5 224,-38.5 163,-38.5"/>
<text text-anchor="middle" x="193.5" y="-45.5" font-family="Helvetica,sans-Serif" font-size="10.00">O2EPNex</text>
</a>
</g>
</g>
<!-- Node1&#45;&gt;Node22 -->
<g id="edge21" class="edge"><title>Node1&#45;&gt;Node22</title>
<path fill="none" stroke="midnightblue" d="M41.9357,-261.014C45.0363,-218.654 58.4028,-119.441 116,-67 128.649,-55.4837 147.184,-50.6838 162.842,-48.7871"/>
<polygon fill="midnightblue" stroke="midnightblue" points="38.4328,-260.957 41.3156,-271.152 45.4197,-261.384 38.4328,-260.957"/>
</g>
<!-- Node23 -->
<g id="node23" class="node"><title>Node23</title>
<g id="a_node23"><a xlink:href="d4/d82/classO2FLPex.html" target="_top" xlink:title="O2FLPex">
<polygon fill="none" stroke="black" points="164.5,-0.5 164.5,-19.5 222.5,-19.5 222.5,-0.5 164.5,-0.5"/>
<text text-anchor="middle" x="193.5" y="-7.5" font-family="Helvetica,sans-Serif" font-size="10.00">O2FLPex</text>
</a>
</g>
</g>
<!-- Node1&#45;&gt;Node23 -->
<g id="edge22" class="edge"><title>Node1&#45;&gt;Node23</title>
<path fill="none" stroke="midnightblue" d="M40.6981,-261.145C41.1124,-213.697 49.0662,-92.9344 116,-29 128.864,-16.712 148.391,-12.0044 164.496,-10.3471"/>
<polygon fill="midnightblue" stroke="midnightblue" points="37.1984,-261.321 40.7206,-271.313 44.1984,-261.305 37.1984,-261.321"/>
</g>
<!-- Node5 -->
<g id="node5" class="node"><title>Node5</title>
<g id="a_node5"><a xlink:href="d0/d59/classo2_1_1data__flow_1_1FakeTimeframeGeneratorDevice.html" target="_top" xlink:title="A device which writes to file the timeframes. ">
<polygon fill="none" stroke="black" points="309,-620 309,-650 458,-650 458,-620 309,-620"/>
<text text-anchor="start" x="317" y="-638" font-family="Helvetica,sans-Serif" font-size="10.00">o2::data_flow::FakeTimeframe</text>
<text text-anchor="middle" x="383.5" y="-627" font-family="Helvetica,sans-Serif" font-size="10.00">GeneratorDevice</text>
</a>
</g>
</g>
<!-- Node4&#45;&gt;Node5 -->
<g id="edge4" class="edge"><title>Node4&#45;&gt;Node5</title>
<path fill="none" stroke="midnightblue" d="M255.132,-472.431C260.977,-475.109 266.423,-478.561 271,-483 313.424,-524.14 265.921,-568.516 307,-611 310.346,-614.461 314.189,-617.424 318.329,-619.96"/>
<polygon fill="midnightblue" stroke="midnightblue" points="256.274,-469.12 245.683,-468.829 253.781,-475.661 256.274,-469.12"/>
</g>
<!-- Node6 -->
<g id="node6" class="node"><title>Node6</title>
<g id="a_node6"><a xlink:href="d7/d94/classo2_1_1data__flow_1_1HeartbeatSampler.html" target="_top" xlink:title="A sampler for heartbeat triggers. ">
<polygon fill="none" stroke="black" points="321.5,-571 321.5,-601 445.5,-601 445.5,-571 321.5,-571"/>
<text text-anchor="start" x="329.5" y="-589" font-family="Helvetica,sans-Serif" font-size="10.00">o2::data_flow::Heartbeat</text>
<text text-anchor="middle" x="383.5" y="-578" font-family="Helvetica,sans-Serif" font-size="10.00">Sampler</text>
</a>
</g>
</g>
<!-- Node4&#45;&gt;Node6 -->
<g id="edge5" class="edge"><title>Node4&#45;&gt;Node6</title>
<path fill="none" stroke="midnightblue" d="M255.392,-473.558C261.021,-476.037 266.348,-479.134 271,-483 300.677,-507.66 278.132,-536.399 307,-562 311.322,-565.833 316.258,-569.054 321.49,-571.761"/>
<polygon fill="midnightblue" stroke="midnightblue" points="256.291,-470.158 245.698,-469.943 253.845,-476.716 256.291,-470.158"/>
</g>
<!-- Node7 -->
<g id="node7" class="node"><title>Node7</title>
<g id="a_node7"><a xlink:href="d9/d2b/classo2_1_1data__flow_1_1SubframeBuilderDevice.html" target="_top" xlink:title="o2::data_flow::SubframeBuilder\lDevice">
<polygon fill="none" stroke="black" points="307,-522 307,-552 460,-552 460,-522 307,-522"/>
<text text-anchor="start" x="315" y="-540" font-family="Helvetica,sans-Serif" font-size="10.00">o2::data_flow::SubframeBuilder</text>
<text text-anchor="middle" x="383.5" y="-529" font-family="Helvetica,sans-Serif" font-size="10.00">Device</text>
</a>
</g>
</g>
<!-- Node4&#45;&gt;Node7 -->
<g id="edge6" class="edge"><title>Node4&#45;&gt;Node7</title>
<path fill="none" stroke="midnightblue" d="M255.553,-476.468C260.893,-478.36 266.117,-480.525 271,-483 289.578,-492.415 288.735,-502.992 307,-513 313.152,-516.371 319.849,-519.351 326.63,-521.962"/>
<polygon fill="midnightblue" stroke="midnightblue" points="256.455,-473.082 245.864,-473.35 254.311,-479.745 256.455,-473.082"/>
</g>
<!-- Node8 -->
<g id="node8" class="node"><title>Node8</title>
<g id="a_node8"><a xlink:href="d2/de9/classo2_1_1data__flow_1_1TimeframeReaderDevice.html" target="_top" xlink:title="A device which writes to file the timeframes. ">
<polygon fill="none" stroke="black" points="319.5,-473 319.5,-503 447.5,-503 447.5,-473 319.5,-473"/>
<text text-anchor="start" x="327.5" y="-491" font-family="Helvetica,sans-Serif" font-size="10.00">o2::data_flow::Timeframe</text>
<text text-anchor="middle" x="383.5" y="-480" font-family="Helvetica,sans-Serif" font-size="10.00">ReaderDevice</text>
</a>
</g>
</g>
<!-- Node4&#45;&gt;Node8 -->
<g id="edge7" class="edge"><title>Node4&#45;&gt;Node8</title>
<path fill="none" stroke="midnightblue" d="M255.966,-471.847C276.318,-474.445 298.99,-477.339 319.458,-479.952"/>
<polygon fill="midnightblue" stroke="midnightblue" points="256.235,-468.353 245.872,-470.558 255.348,-475.296 256.235,-468.353"/>
</g>
<!-- Node9 -->
<g id="node9" class="node"><title>Node9</title>
<g id="a_node9"><a xlink:href="de/df1/classo2_1_1data__flow_1_1TimeframeValidatorDevice.html" target="_top" xlink:title="A validating device for time frame data (coming from EPN) ">
<polygon fill="none" stroke="black" points="319.5,-424 319.5,-454 447.5,-454 447.5,-424 319.5,-424"/>
<text text-anchor="start" x="327.5" y="-442" font-family="Helvetica,sans-Serif" font-size="10.00">o2::data_flow::Timeframe</text>
<text text-anchor="middle" x="383.5" y="-431" font-family="Helvetica,sans-Serif" font-size="10.00">ValidatorDevice</text>
</a>
</g>
</g>
<!-- Node4&#45;&gt;Node9 -->
<g id="edge8" class="edge"><title>Node4&#45;&gt;Node9</title>
<path fill="none" stroke="midnightblue" d="M255.966,-455.826C276.318,-453.12 298.99,-450.105 319.458,-447.383"/>
<polygon fill="midnightblue" stroke="midnightblue" points="255.323,-452.381 245.872,-457.169 256.246,-459.32 255.323,-452.381"/>
</g>
<!-- Node10 -->
<g id="node10" class="node"><title>Node10</title>
<g id="a_node10"><a xlink:href="d7/d32/classo2_1_1data__flow_1_1TimeframeWriterDevice.html" target="_top" xlink:title="A device which writes to file the timeframes. ">
<polygon fill="none" stroke="black" points="319.5,-375 319.5,-405 447.5,-405 447.5,-375 319.5,-375"/>
<text text-anchor="start" x="327.5" y="-393" font-family="Helvetica,sans-Serif" font-size="10.00">o2::data_flow::Timeframe</text>
<text text-anchor="middle" x="383.5" y="-382" font-family="Helvetica,sans-Serif" font-size="10.00">WriterDevice</text>
</a>
</g>
</g>
<!-- Node4&#45;&gt;Node10 -->
<g id="edge9" class="edge"><title>Node4&#45;&gt;Node10</title>
<path fill="none" stroke="midnightblue" d="M255.553,-451.532C260.893,-449.64 266.117,-447.475 271,-445 289.578,-435.585 288.795,-425.117 307,-415 313.759,-411.244 321.173,-407.935 328.633,-405.057"/>
<polygon fill="midnightblue" stroke="midnightblue" points="254.311,-448.255 245.864,-454.65 256.455,-454.918 254.311,-448.255"/>
</g>
<!-- Node11 -->
<g id="node11" class="node"><title>Node11</title>
<g id="a_node11"><a xlink:href="d7/dd8/classo2_1_1utilities_1_1DataPublisherDevice.html" target="_top" xlink:title="o2::utilities::DataPublisher\lDevice">
<polygon fill="none" stroke="black" points="318,-326 318,-356 449,-356 449,-326 318,-326"/>
<text text-anchor="start" x="326" y="-344" font-family="Helvetica,sans-Serif" font-size="10.00">o2::utilities::DataPublisher</text>
<text text-anchor="middle" x="383.5" y="-333" font-family="Helvetica,sans-Serif" font-size="10.00">Device</text>
</a>
</g>
</g>
<!-- Node4&#45;&gt;Node11 -->
<g id="edge10" class="edge"><title>Node4&#45;&gt;Node11</title>
<path fill="none" stroke="midnightblue" d="M255.392,-454.442C261.021,-451.963 266.348,-448.866 271,-445 300.677,-420.34 278.286,-391.774 307,-366 311.316,-362.126 316.247,-358.851 321.477,-356.081"/>
<polygon fill="midnightblue" stroke="midnightblue" points="253.845,-451.284 245.698,-458.057 256.291,-457.842 253.845,-451.284"/>
</g>
<!-- Node12 -->
<g id="node12" class="node"><title>Node12</title>
<g id="a_node12"><a xlink:href="de/d01/classO2MessageMonitor.html" target="_top" xlink:title="O2MessageMonitor">
<polygon fill="none" stroke="black" points="333,-287.5 333,-306.5 434,-306.5 434,-287.5 333,-287.5"/>
<text text-anchor="middle" x="383.5" y="-294.5" font-family="Helvetica,sans-Serif" font-size="10.00">O2MessageMonitor</text>
</a>
</g>
</g>
<!-- Node4&#45;&gt;Node12 -->
<g id="edge11" class="edge"><title>Node4&#45;&gt;Node12</title>
<path fill="none" stroke="midnightblue" d="M255.132,-455.569C260.977,-452.891 266.423,-449.439 271,-445 313.424,-403.86 264.896,-358.468 307,-317 314.052,-310.054 323.222,-305.443 332.728,-302.401"/>
<polygon fill="midnightblue" stroke="midnightblue" points="253.781,-452.339 245.683,-459.171 256.274,-458.88 253.781,-452.339"/>
</g>
</g>
</svg>
