<?xml version="1.0" encoding="UTF-8" standalone="no"?>
<!DOCTYPE svg PUBLIC "-//W3C//DTD SVG 1.1//EN"
 "http://www.w3.org/Graphics/SVG/1.1/DTD/svg11.dtd">
<!-- Generated by graphviz version 2.38.0 (20140413.2041)
 -->
<!-- Title: Graphical Class Hierarchy Pages: 1 -->
<svg width="310pt" height="66pt"
 viewBox="0.00 0.00 310.00 66.00" xmlns="http://www.w3.org/2000/svg" xmlns:xlink="http://www.w3.org/1999/xlink">
<g id="graph0" class="graph" transform="scale(1 1) rotate(0) translate(4 62)">
<title>Graphical Class Hierarchy</title>
<!-- Node1 -->
<g id="node1" class="node"><title>Node1</title>
<g id="a_node1"><a xlink:href="d9/d4f/structo2_1_1soa_1_1IndexPolicyBase.html" target="_top" xlink:title="o2::soa::IndexPolicyBase">
<polygon fill="none" stroke="black" points="0,-19.5 0,-38.5 128,-38.5 128,-19.5 0,-19.5"/>
<text text-anchor="middle" x="64" y="-26.5" font-family="Helvetica,sans-Serif" font-size="10.00">o2::soa::IndexPolicyBase</text>
</a>
</g>
</g>
<!-- Node2 -->
<g id="node2" class="node"><title>Node2</title>
<g id="a_node2"><a xlink:href="db/dc2/structo2_1_1soa_1_1DefaultIndexPolicy.html" target="_top" xlink:title="o2::soa::DefaultIndexPolicy">
<polygon fill="none" stroke="black" points="164.5,-38.5 164.5,-57.5 301.5,-57.5 301.5,-38.5 164.5,-38.5"/>
<text text-anchor="middle" x="233" y="-45.5" font-family="Helvetica,sans-Serif" font-size="10.00">o2::soa::DefaultIndexPolicy</text>
</a>
</g>
</g>
<!-- Node1&#45;&gt;Node2 -->
<g id="edge1" class="edge"><title>Node1&#45;&gt;Node2</title>
<path fill="none" stroke="midnightblue" d="M138.226,-37.3311C146.9,-38.3179 155.723,-39.3218 164.315,-40.2994"/>
<polygon fill="midnightblue" stroke="midnightblue" points="138.467,-33.836 128.136,-36.1831 137.676,-40.7912 138.467,-33.836"/>
</g>
<!-- Node3 -->
<g id="node3" class="node"><title>Node3</title>
<g id="a_node3"><a xlink:href="de/d90/structo2_1_1soa_1_1FilteredIndexPolicy.html" target="_top" xlink:title="o2::soa::FilteredIndexPolicy">
<polygon fill="none" stroke="black" points="164,-0.5 164,-19.5 302,-19.5 302,-0.5 164,-0.5"/>
<text text-anchor="middle" x="233" y="-7.5" font-family="Helvetica,sans-Serif" font-size="10.00">o2::soa::FilteredIndexPolicy</text>
</a>
</g>
</g>
<!-- Node1&#45;&gt;Node3 -->
<g id="edge2" class="edge"><title>Node1&#45;&gt;Node3</title>
<path fill="none" stroke="midnightblue" d="M138.345,-20.6553C146.792,-19.6943 155.379,-18.7173 163.755,-17.7644"/>
<polygon fill="midnightblue" stroke="midnightblue" points="137.676,-17.2088 128.136,-21.8169 138.467,-24.164 137.676,-17.2088"/>
</g>
</g>
</svg>
