<?xml version="1.0" encoding="UTF-8" standalone="no"?>
<!DOCTYPE svg PUBLIC "-//W3C//DTD SVG 1.1//EN"
 "http://www.w3.org/Graphics/SVG/1.1/DTD/svg11.dtd">
<!-- Generated by graphviz version 2.38.0 (20140413.2041)
 -->
<!-- Title: Graphical Class Hierarchy Pages: 1 -->
<svg width="343pt" height="235pt"
 viewBox="0.00 0.00 343.00 235.00" xmlns="http://www.w3.org/2000/svg" xmlns:xlink="http://www.w3.org/1999/xlink">
<g id="graph0" class="graph" transform="scale(1 1) rotate(0) translate(4 231)">
<title>Graphical Class Hierarchy</title>
<!-- Node1 -->
<g id="node1" class="node"><title>Node1</title>
<g id="a_node1"><a xlink:href="d6/d42/classGPUCA__NAMESPACE_1_1gpu_1_1GPUDisplayBackend.html" target="_top" xlink:title="GPUCA_NAMESPACE::gpu\l::GPUDisplayBackend">
<polygon fill="none" stroke="black" points="0,-98.5 0,-128.5 143,-128.5 143,-98.5 0,-98.5"/>
<text text-anchor="start" x="8" y="-116.5" font-family="Helvetica,sans-Serif" font-size="10.00">GPUCA_NAMESPACE::gpu</text>
<text text-anchor="middle" x="71.5" y="-105.5" font-family="Helvetica,sans-Serif" font-size="10.00">::GPUDisplayBackend</text>
</a>
</g>
</g>
<!-- Node2 -->
<g id="node2" class="node"><title>Node2</title>
<g id="a_node2"><a xlink:href="df/d2e/classGPUCA__NAMESPACE_1_1gpu_1_1GPUDisplayBackendGlfw.html" target="_top" xlink:title="GPUCA_NAMESPACE::gpu\l::GPUDisplayBackendGlfw">
<polygon fill="none" stroke="black" points="185.5,-196.5 185.5,-226.5 328.5,-226.5 328.5,-196.5 185.5,-196.5"/>
<text text-anchor="start" x="193.5" y="-214.5" font-family="Helvetica,sans-Serif" font-size="10.00">GPUCA_NAMESPACE::gpu</text>
<text text-anchor="middle" x="257" y="-203.5" font-family="Helvetica,sans-Serif" font-size="10.00">::GPUDisplayBackendGlfw</text>
</a>
</g>
</g>
<!-- Node1&#45;&gt;Node2 -->
<g id="edge1" class="edge"><title>Node1&#45;&gt;Node2</title>
<path fill="none" stroke="midnightblue" d="M98.6535,-135.079C119.391,-151.32 149.667,-173.16 179,-187.5 185.793,-190.821 193.146,-193.809 200.521,-196.456"/>
<polygon fill="midnightblue" stroke="midnightblue" points="100.659,-132.202 90.6527,-128.719 96.3029,-137.681 100.659,-132.202"/>
</g>
<!-- Node3 -->
<g id="node3" class="node"><title>Node3</title>
<g id="a_node3"><a xlink:href="dc/da0/classGPUCA__NAMESPACE_1_1gpu_1_1GPUDisplayBackendGlut.html" target="_top" xlink:title="GPUCA_NAMESPACE::gpu\l::GPUDisplayBackendGlut">
<polygon fill="none" stroke="black" points="185.5,-147.5 185.5,-177.5 328.5,-177.5 328.5,-147.5 185.5,-147.5"/>
<text text-anchor="start" x="193.5" y="-165.5" font-family="Helvetica,sans-Serif" font-size="10.00">GPUCA_NAMESPACE::gpu</text>
<text text-anchor="middle" x="257" y="-154.5" font-family="Helvetica,sans-Serif" font-size="10.00">::GPUDisplayBackendGlut</text>
</a>
</g>
</g>
<!-- Node1&#45;&gt;Node3 -->
<g id="edge2" class="edge"><title>Node1&#45;&gt;Node3</title>
<path fill="none" stroke="midnightblue" d="M138.496,-131.123C158.572,-136.484 180.437,-142.323 199.803,-147.494"/>
<polygon fill="midnightblue" stroke="midnightblue" points="139.368,-127.733 128.803,-128.535 137.562,-134.496 139.368,-127.733"/>
</g>
<!-- Node4 -->
<g id="node4" class="node"><title>Node4</title>
<g id="a_node4"><a xlink:href="d0/d49/classGPUCA__NAMESPACE_1_1gpu_1_1GPUDisplayBackendNone.html" target="_top" xlink:title="GPUCA_NAMESPACE::gpu\l::GPUDisplayBackendNone">
<polygon fill="none" stroke="black" points="185.5,-98.5 185.5,-128.5 328.5,-128.5 328.5,-98.5 185.5,-98.5"/>
<text text-anchor="start" x="193.5" y="-116.5" font-family="Helvetica,sans-Serif" font-size="10.00">GPUCA_NAMESPACE::gpu</text>
<text text-anchor="middle" x="257" y="-105.5" font-family="Helvetica,sans-Serif" font-size="10.00">::GPUDisplayBackendNone</text>
</a>
</g>
</g>
<!-- Node1&#45;&gt;Node4 -->
<g id="edge3" class="edge"><title>Node1&#45;&gt;Node4</title>
<path fill="none" stroke="midnightblue" d="M153.333,-113.5C164.002,-113.5 174.872,-113.5 185.353,-113.5"/>
<polygon fill="midnightblue" stroke="midnightblue" points="153.183,-110 143.183,-113.5 153.183,-117 153.183,-110"/>
</g>
<!-- Node5 -->
<g id="node5" class="node"><title>Node5</title>
<g id="a_node5"><a xlink:href="d9/da3/classGPUCA__NAMESPACE_1_1gpu_1_1GPUDisplayBackendWindows.html" target="_top" xlink:title="GPUCA_NAMESPACE::gpu\l::GPUDisplayBackendWindows">
<polygon fill="none" stroke="black" points="179,-49.5 179,-79.5 335,-79.5 335,-49.5 179,-49.5"/>
<text text-anchor="start" x="187" y="-67.5" font-family="Helvetica,sans-Serif" font-size="10.00">GPUCA_NAMESPACE::gpu</text>
<text text-anchor="middle" x="257" y="-56.5" font-family="Helvetica,sans-Serif" font-size="10.00">::GPUDisplayBackendWindows</text>
</a>
</g>
</g>
<!-- Node1&#45;&gt;Node5 -->
<g id="edge4" class="edge"><title>Node1&#45;&gt;Node5</title>
<path fill="none" stroke="midnightblue" d="M138.496,-95.8771C158.572,-90.5163 180.437,-84.6775 199.803,-79.5062"/>
<polygon fill="midnightblue" stroke="midnightblue" points="137.562,-92.5039 128.803,-98.4654 139.368,-99.2669 137.562,-92.5039"/>
</g>
<!-- Node6 -->
<g id="node6" class="node"><title>Node6</title>
<g id="a_node6"><a xlink:href="d9/d6d/classGPUCA__NAMESPACE_1_1gpu_1_1GPUDisplayBackendX11.html" target="_top" xlink:title="GPUCA_NAMESPACE::gpu\l::GPUDisplayBackendX11">
<polygon fill="none" stroke="black" points="185.5,-0.5 185.5,-30.5 328.5,-30.5 328.5,-0.5 185.5,-0.5"/>
<text text-anchor="start" x="193.5" y="-18.5" font-family="Helvetica,sans-Serif" font-size="10.00">GPUCA_NAMESPACE::gpu</text>
<text text-anchor="middle" x="257" y="-7.5" font-family="Helvetica,sans-Serif" font-size="10.00">::GPUDisplayBackendX11</text>
</a>
</g>
</g>
<!-- Node1&#45;&gt;Node6 -->
<g id="edge5" class="edge"><title>Node1&#45;&gt;Node6</title>
<path fill="none" stroke="midnightblue" d="M99.1269,-92.0405C119.903,-76.1129 150.011,-54.7694 179,-40.5 186.44,-36.8378 194.54,-33.5358 202.602,-30.6224"/>
<polygon fill="midnightblue" stroke="midnightblue" points="96.8444,-89.3817 91.0981,-98.2829 101.141,-94.9079 96.8444,-89.3817"/>
</g>
</g>
</svg>
