<?xml version="1.0" encoding="UTF-8" standalone="no"?>
<!DOCTYPE svg PUBLIC "-//W3C//DTD SVG 1.1//EN"
 "http://www.w3.org/Graphics/SVG/1.1/DTD/svg11.dtd">
<!-- Generated by graphviz version 2.38.0 (20140413.2041)
 -->
<!-- Title: Graphical Class Hierarchy Pages: 1 -->
<svg width="334pt" height="66pt"
 viewBox="0.00 0.00 334.00 66.00" xmlns="http://www.w3.org/2000/svg" xmlns:xlink="http://www.w3.org/1999/xlink">
<g id="graph0" class="graph" transform="scale(1 1) rotate(0) translate(4 62)">
<title>Graphical Class Hierarchy</title>
<!-- Node1 -->
<g id="node1" class="node"><title>Node1</title>
<g id="a_node1"><a xlink:href="da/dc9/classo2_1_1itsmft_1_1ITSMFTDPLDigitWriter.html" target="_top" xlink:title="o2::itsmft::ITSMFTDPLDigit\lWriter">
<polygon fill="none" stroke="black" points="0,-14 0,-44 140,-44 140,-14 0,-14"/>
<text text-anchor="start" x="8" y="-32" font-family="Helvetica,sans-Serif" font-size="10.00">o2::itsmft::ITSMFTDPLDigit</text>
<text text-anchor="middle" x="70" y="-21" font-family="Helvetica,sans-Serif" font-size="10.00">Writer</text>
</a>
</g>
</g>
<!-- Node2 -->
<g id="node2" class="node"><title>Node2</title>
<g id="a_node2"><a xlink:href="d9/dd0/classo2_1_1itsmft_1_1ITSDPLDigitWriter.html" target="_top" xlink:title="o2::itsmft::ITSDPLDigitWriter">
<polygon fill="none" stroke="black" points="178,-38.5 178,-57.5 324,-57.5 324,-38.5 178,-38.5"/>
<text text-anchor="middle" x="251" y="-45.5" font-family="Helvetica,sans-Serif" font-size="10.00">o2::itsmft::ITSDPLDigitWriter</text>
</a>
</g>
</g>
<!-- Node1&#45;&gt;Node2 -->
<g id="edge1" class="edge"><title>Node1&#45;&gt;Node2</title>
<path fill="none" stroke="midnightblue" d="M150.395,-37.4274C159.49,-38.3928 168.726,-39.3731 177.721,-40.3279"/>
<polygon fill="midnightblue" stroke="midnightblue" points="150.52,-33.9211 140.206,-36.3459 149.781,-40.882 150.52,-33.9211"/>
</g>
<!-- Node3 -->
<g id="node3" class="node"><title>Node3</title>
<g id="a_node3"><a xlink:href="d9/df9/classo2_1_1itsmft_1_1MFTDPLDigitWriter.html" target="_top" xlink:title="o2::itsmft::MFTDPLDigitWriter">
<polygon fill="none" stroke="black" points="176,-0.5 176,-19.5 326,-19.5 326,-0.5 176,-0.5"/>
<text text-anchor="middle" x="251" y="-7.5" font-family="Helvetica,sans-Serif" font-size="10.00">o2::itsmft::MFTDPLDigitWriter</text>
</a>
</g>
</g>
<!-- Node1&#45;&gt;Node3 -->
<g id="edge2" class="edge"><title>Node1&#45;&gt;Node3</title>
<path fill="none" stroke="midnightblue" d="M150.181,-20.5953C158.744,-19.6864 167.435,-18.7638 175.935,-17.8616"/>
<polygon fill="midnightblue" stroke="midnightblue" points="149.781,-17.118 140.206,-21.6541 150.52,-24.0789 149.781,-17.118"/>
</g>
</g>
</svg>
