<?xml version="1.0" encoding="UTF-8" standalone="no"?>
<!DOCTYPE svg PUBLIC "-//W3C//DTD SVG 1.1//EN"
 "http://www.w3.org/Graphics/SVG/1.1/DTD/svg11.dtd">
<!-- Generated by graphviz version 2.38.0 (20140413.2041)
 -->
<!-- Title: Graphical Class Hierarchy Pages: 1 -->
<svg width="180pt" height="104pt"
 viewBox="0.00 0.00 180.00 104.00" xmlns="http://www.w3.org/2000/svg" xmlns:xlink="http://www.w3.org/1999/xlink">
<g id="graph0" class="graph" transform="scale(1 1) rotate(0) translate(4 100)">
<title>Graphical Class Hierarchy</title>
<!-- Node1 -->
<g id="node1" class="node"><title>Node1</title>
<polygon fill="none" stroke="#bfbfbf" points="0,-38.5 0,-57.5 47,-57.5 47,-38.5 0,-38.5"/>
<text text-anchor="middle" x="23.5" y="-45.5" font-family="Helvetica,sans-Serif" font-size="10.00">Fixture</text>
</g>
<!-- Node2 -->
<g id="node2" class="node"><title>Node2</title>
<g id="a_node2"><a xlink:href="d7/d88/classBenchClustering.html" target="_top" xlink:title="BenchClustering">
<polygon fill="none" stroke="black" points="83,-76.5 83,-95.5 172,-95.5 172,-76.5 83,-76.5"/>
<text text-anchor="middle" x="127.5" y="-83.5" font-family="Helvetica,sans-Serif" font-size="10.00">BenchClustering</text>
</a>
</g>
</g>
<!-- Node1&#45;&gt;Node2 -->
<g id="edge1" class="edge"><title>Node1&#45;&gt;Node2</title>
<path fill="none" stroke="midnightblue" d="M56.5496,-59.94C70.7699,-65.2378 87.2818,-71.3893 100.691,-76.3849"/>
<polygon fill="midnightblue" stroke="midnightblue" points="57.7298,-56.6448 47.1371,-56.4334 55.286,-63.2044 57.7298,-56.6448"/>
</g>
<!-- Node3 -->
<g id="node3" class="node"><title>Node3</title>
<g id="a_node3"><a xlink:href="d9/db2/classBenchO2.html" target="_top" xlink:title="BenchO2">
<polygon fill="none" stroke="black" points="99,-38.5 99,-57.5 156,-57.5 156,-38.5 99,-38.5"/>
<text text-anchor="middle" x="127.5" y="-45.5" font-family="Helvetica,sans-Serif" font-size="10.00">BenchO2</text>
</a>
</g>
</g>
<!-- Node1&#45;&gt;Node3 -->
<g id="edge2" class="edge"><title>Node1&#45;&gt;Node3</title>
<path fill="none" stroke="midnightblue" d="M57.3725,-48C70.7517,-48 86.0443,-48 98.8385,-48"/>
<polygon fill="midnightblue" stroke="midnightblue" points="57.1371,-44.5001 47.1371,-48 57.1371,-51.5001 57.1371,-44.5001"/>
</g>
<!-- Node4 -->
<g id="node4" class="node"><title>Node4</title>
<g id="a_node4"><a xlink:href="dd/d80/classBenchSegO2.html" target="_top" xlink:title="BenchSegO2">
<polygon fill="none" stroke="black" points="90.5,-0.5 90.5,-19.5 164.5,-19.5 164.5,-0.5 90.5,-0.5"/>
<text text-anchor="middle" x="127.5" y="-7.5" font-family="Helvetica,sans-Serif" font-size="10.00">BenchSegO2</text>
</a>
</g>
</g>
<!-- Node1&#45;&gt;Node4 -->
<g id="edge3" class="edge"><title>Node1&#45;&gt;Node4</title>
<path fill="none" stroke="midnightblue" d="M56.5496,-36.06C70.7699,-30.7622 87.2818,-24.6107 100.691,-19.6151"/>
<polygon fill="midnightblue" stroke="midnightblue" points="55.286,-32.7956 47.1371,-39.5666 57.7298,-39.3552 55.286,-32.7956"/>
</g>
</g>
</svg>
