<?xml version="1.0" encoding="UTF-8" standalone="no"?>
<!DOCTYPE svg PUBLIC "-//W3C//DTD SVG 1.1//EN"
 "http://www.w3.org/Graphics/SVG/1.1/DTD/svg11.dtd">
<!-- Generated by graphviz version 2.38.0 (20140413.2041)
 -->
<!-- Title: Graphical Class Hierarchy Pages: 1 -->
<svg width="349pt" height="147pt"
 viewBox="0.00 0.00 349.00 147.00" xmlns="http://www.w3.org/2000/svg" xmlns:xlink="http://www.w3.org/1999/xlink">
<g id="graph0" class="graph" transform="scale(1 1) rotate(0) translate(4 143)">
<title>Graphical Class Hierarchy</title>
<!-- Node1 -->
<g id="node1" class="node"><title>Node1</title>
<g id="a_node1"><a xlink:href="dc/d9b/structnlohmann_1_1detail_1_1output__adapter__protocol.html" target="_top" xlink:title="abstract output adapter interface ">
<polygon fill="none" stroke="black" points="0,-54.5 0,-84.5 155,-84.5 155,-54.5 0,-54.5"/>
<text text-anchor="start" x="8" y="-72.5" font-family="Helvetica,sans-Serif" font-size="10.00">nlohmann::detail::output</text>
<text text-anchor="middle" x="77.5" y="-61.5" font-family="Helvetica,sans-Serif" font-size="10.00">_adapter_protocol&lt; CharType &gt;</text>
</a>
</g>
</g>
<!-- Node2 -->
<g id="node2" class="node"><title>Node2</title>
<g id="a_node2"><a xlink:href="d8/d94/classnlohmann_1_1detail_1_1output__stream__adapter.html" target="_top" xlink:title="output adapter for output streams ">
<polygon fill="none" stroke="black" points="191,-108.5 191,-138.5 341,-138.5 341,-108.5 191,-108.5"/>
<text text-anchor="start" x="199" y="-126.5" font-family="Helvetica,sans-Serif" font-size="10.00">nlohmann::detail::output</text>
<text text-anchor="middle" x="266" y="-115.5" font-family="Helvetica,sans-Serif" font-size="10.00">_stream_adapter&lt; CharType &gt;</text>
</a>
</g>
</g>
<!-- Node1&#45;&gt;Node2 -->
<g id="edge1" class="edge"><title>Node1&#45;&gt;Node2</title>
<path fill="none" stroke="midnightblue" d="M140.337,-87.4045C163.885,-94.2228 190.46,-101.917 213.005,-108.445"/>
<polygon fill="midnightblue" stroke="midnightblue" points="141.03,-83.9614 130.451,-84.542 139.083,-90.6852 141.03,-83.9614"/>
</g>
<!-- Node3 -->
<g id="node3" class="node"><title>Node3</title>
<g id="a_node3"><a xlink:href="d2/d39/classnlohmann_1_1detail_1_1output__string__adapter.html" target="_top" xlink:title="output adapter for basic_string ">
<polygon fill="none" stroke="black" points="197,-49 197,-90 335,-90 335,-49 197,-49"/>
<text text-anchor="start" x="205" y="-78" font-family="Helvetica,sans-Serif" font-size="10.00">nlohmann::detail::output</text>
<text text-anchor="start" x="205" y="-67" font-family="Helvetica,sans-Serif" font-size="10.00">_string_adapter&lt; CharType,</text>
<text text-anchor="middle" x="266" y="-56" font-family="Helvetica,sans-Serif" font-size="10.00"> StringType &gt;</text>
</a>
</g>
</g>
<!-- Node1&#45;&gt;Node3 -->
<g id="edge2" class="edge"><title>Node1&#45;&gt;Node3</title>
<path fill="none" stroke="midnightblue" d="M165.308,-69.5C175.944,-69.5 186.691,-69.5 196.994,-69.5"/>
<polygon fill="midnightblue" stroke="midnightblue" points="165.164,-66.0001 155.164,-69.5 165.164,-73.0001 165.164,-66.0001"/>
</g>
<!-- Node4 -->
<g id="node4" class="node"><title>Node4</title>
<g id="a_node4"><a xlink:href="d5/d66/classnlohmann_1_1detail_1_1output__vector__adapter.html" target="_top" xlink:title="output adapter for byte vectors ">
<polygon fill="none" stroke="black" points="192.5,-0.5 192.5,-30.5 339.5,-30.5 339.5,-0.5 192.5,-0.5"/>
<text text-anchor="start" x="200.5" y="-18.5" font-family="Helvetica,sans-Serif" font-size="10.00">nlohmann::detail::output</text>
<text text-anchor="middle" x="266" y="-7.5" font-family="Helvetica,sans-Serif" font-size="10.00">_vector_adapter&lt; CharType &gt;</text>
</a>
</g>
</g>
<!-- Node1&#45;&gt;Node4 -->
<g id="edge3" class="edge"><title>Node1&#45;&gt;Node4</title>
<path fill="none" stroke="midnightblue" d="M140.337,-51.5955C163.885,-44.7772 190.46,-37.0827 213.005,-30.5549"/>
<polygon fill="midnightblue" stroke="midnightblue" points="139.083,-48.3148 130.451,-54.458 141.03,-55.0386 139.083,-48.3148"/>
</g>
</g>
</svg>
