<?xml version="1.0" encoding="UTF-8" standalone="no"?>
<!DOCTYPE svg PUBLIC "-//W3C//DTD SVG 1.1//EN"
 "http://www.w3.org/Graphics/SVG/1.1/DTD/svg11.dtd">
<!-- Generated by graphviz version 2.38.0 (20140413.2041)
 -->
<!-- Title: /home/travis/build/AliceO2Group/AliceO2/DataFormats/Headers/include/Headers/NameHeader.h Pages: 1 -->
<svg width="748pt" height="173pt"
 viewBox="0.00 0.00 747.50 173.00" xmlns="http://www.w3.org/2000/svg" xmlns:xlink="http://www.w3.org/1999/xlink">
<g id="graph0" class="graph" transform="scale(1 1) rotate(0) translate(4 169)">
<title>/home/travis/build/AliceO2Group/AliceO2/DataFormats/Headers/include/Headers/NameHeader.h</title>
<!-- Node1 -->
<g id="node1" class="node"><title>Node1</title>
<polygon fill="#bfbfbf" stroke="black" points="143.5,-112.5 143.5,-164.5 293.5,-164.5 293.5,-112.5 143.5,-112.5"/>
<text text-anchor="start" x="151.5" y="-152.5" font-family="Helvetica,sans-Serif" font-size="10.00">/home/travis/build</text>
<text text-anchor="start" x="151.5" y="-141.5" font-family="Helvetica,sans-Serif" font-size="10.00">/AliceO2Group/AliceO2</text>
<text text-anchor="start" x="151.5" y="-130.5" font-family="Helvetica,sans-Serif" font-size="10.00">/DataFormats/Headers/include</text>
<text text-anchor="middle" x="218.5" y="-119.5" font-family="Helvetica,sans-Serif" font-size="10.00">/Headers/NameHeader.h</text>
</g>
<!-- Node2 -->
<g id="node2" class="node"><title>Node2</title>
<polygon fill="none" stroke="#bfbfbf" points="0,-0.5 0,-19.5 41,-19.5 41,-0.5 0,-0.5"/>
<text text-anchor="middle" x="20.5" y="-7.5" font-family="Helvetica,sans-Serif" font-size="10.00">string</text>
</g>
<!-- Node1&#45;&gt;Node2 -->
<g id="edge1" class="edge"><title>Node1&#45;&gt;Node2</title>
<path fill="none" stroke="midnightblue" d="M178.908,-112.205C137.852,-85.9746 75.1645,-45.9246 42.3138,-24.9366"/>
<polygon fill="midnightblue" stroke="midnightblue" points="44.1935,-21.9842 33.8822,-19.5497 40.4248,-27.8831 44.1935,-21.9842"/>
</g>
<!-- Node3 -->
<g id="node3" class="node"><title>Node3</title>
<g id="a_node3"><a xlink:href="../../dc/dcd/DataHeader_8h.html" target="_top" xlink:title="Headers/DataHeader.h">
<polygon fill="none" stroke="black" points="226,-56.5 226,-75.5 343,-75.5 343,-56.5 226,-56.5"/>
<text text-anchor="middle" x="284.5" y="-63.5" font-family="Helvetica,sans-Serif" font-size="10.00">Headers/DataHeader.h</text>
</a>
</g>
</g>
<!-- Node1&#45;&gt;Node3 -->
<g id="edge2" class="edge"><title>Node1&#45;&gt;Node3</title>
<path fill="none" stroke="midnightblue" d="M241.955,-112.446C251.052,-102.728 261.208,-91.8797 269.316,-83.2196"/>
<polygon fill="midnightblue" stroke="midnightblue" points="272.08,-85.3877 276.36,-75.6955 266.97,-80.6037 272.08,-85.3877"/>
</g>
<!-- Node3&#45;&gt;Node2 -->
<g id="edge9" class="edge"><title>Node3&#45;&gt;Node2</title>
<path fill="none" stroke="midnightblue" d="M232.125,-56.4948C186.717,-48.7678 119.079,-36.4147 51.1093,-19.9353"/>
<polygon fill="midnightblue" stroke="midnightblue" points="51.6273,-16.4586 41.0813,-17.4741 49.9587,-23.2569 51.6273,-16.4586"/>
</g>
<!-- Node4 -->
<g id="node4" class="node"><title>Node4</title>
<polygon fill="none" stroke="#bfbfbf" points="59.5,-0.5 59.5,-19.5 105.5,-19.5 105.5,-0.5 59.5,-0.5"/>
<text text-anchor="middle" x="82.5" y="-7.5" font-family="Helvetica,sans-Serif" font-size="10.00">cstdint</text>
</g>
<!-- Node3&#45;&gt;Node4 -->
<g id="edge3" class="edge"><title>Node3&#45;&gt;Node4</title>
<path fill="none" stroke="midnightblue" d="M251.552,-56.439C219.283,-48.019 168.464,-34.6652 115.476,-20.237"/>
<polygon fill="midnightblue" stroke="midnightblue" points="116.129,-16.7874 105.56,-17.5314 114.286,-23.5405 116.129,-16.7874"/>
</g>
<!-- Node5 -->
<g id="node5" class="node"><title>Node5</title>
<polygon fill="none" stroke="#bfbfbf" points="123.5,-0.5 123.5,-19.5 175.5,-19.5 175.5,-0.5 123.5,-0.5"/>
<text text-anchor="middle" x="149.5" y="-7.5" font-family="Helvetica,sans-Serif" font-size="10.00">memory</text>
</g>
<!-- Node3&#45;&gt;Node5 -->
<g id="edge4" class="edge"><title>Node3&#45;&gt;Node5</title>
<path fill="none" stroke="midnightblue" d="M263.109,-56.4435C240.793,-47.5171 205.597,-33.4387 180.292,-23.3168"/>
<polygon fill="midnightblue" stroke="midnightblue" points="181.376,-19.9807 170.791,-19.5164 178.776,-26.4801 181.376,-19.9807"/>
</g>
<!-- Node6 -->
<g id="node6" class="node"><title>Node6</title>
<polygon fill="none" stroke="#bfbfbf" points="194,-0.5 194,-19.5 243,-19.5 243,-0.5 194,-0.5"/>
<text text-anchor="middle" x="218.5" y="-7.5" font-family="Helvetica,sans-Serif" font-size="10.00">cassert</text>
</g>
<!-- Node3&#45;&gt;Node6 -->
<g id="edge5" class="edge"><title>Node3&#45;&gt;Node6</title>
<path fill="none" stroke="midnightblue" d="M273.896,-56.324C264.044,-48.2631 249.149,-36.0765 237.285,-26.3695"/>
<polygon fill="midnightblue" stroke="midnightblue" points="239.253,-23.4575 229.297,-19.8339 234.82,-28.8752 239.253,-23.4575"/>
</g>
<!-- Node7 -->
<g id="node7" class="node"><title>Node7</title>
<polygon fill="none" stroke="#bfbfbf" points="261.5,-0.5 261.5,-19.5 307.5,-19.5 307.5,-0.5 261.5,-0.5"/>
<text text-anchor="middle" x="284.5" y="-7.5" font-family="Helvetica,sans-Serif" font-size="10.00">cstring</text>
</g>
<!-- Node3&#45;&gt;Node7 -->
<g id="edge6" class="edge"><title>Node3&#45;&gt;Node7</title>
<path fill="none" stroke="midnightblue" d="M284.5,-56.083C284.5,-49.0059 284.5,-38.8611 284.5,-29.9865"/>
<polygon fill="midnightblue" stroke="midnightblue" points="288,-29.751 284.5,-19.7511 281,-29.7511 288,-29.751"/>
</g>
<!-- Node8 -->
<g id="node8" class="node"><title>Node8</title>
<polygon fill="none" stroke="#bfbfbf" points="325.5,-0.5 325.5,-19.5 381.5,-19.5 381.5,-0.5 325.5,-0.5"/>
<text text-anchor="middle" x="353.5" y="-7.5" font-family="Helvetica,sans-Serif" font-size="10.00">algorithm</text>
</g>
<!-- Node3&#45;&gt;Node8 -->
<g id="edge7" class="edge"><title>Node3&#45;&gt;Node8</title>
<path fill="none" stroke="midnightblue" d="M295.586,-56.324C305.986,-48.1849 321.761,-35.8395 334.222,-26.0874"/>
<polygon fill="midnightblue" stroke="midnightblue" points="336.494,-28.7533 342.212,-19.8339 332.18,-23.2407 336.494,-28.7533"/>
</g>
<!-- Node9 -->
<g id="node9" class="node"><title>Node9</title>
<polygon fill="none" stroke="#bfbfbf" points="400,-0.5 400,-19.5 459,-19.5 459,-0.5 400,-0.5"/>
<text text-anchor="middle" x="429.5" y="-7.5" font-family="Helvetica,sans-Serif" font-size="10.00">stdexcept</text>
</g>
<!-- Node3&#45;&gt;Node9 -->
<g id="edge8" class="edge"><title>Node3&#45;&gt;Node9</title>
<path fill="none" stroke="midnightblue" d="M307.476,-56.4435C331.657,-47.4381 369.918,-33.1891 397.146,-23.049"/>
<polygon fill="midnightblue" stroke="midnightblue" points="398.482,-26.2864 406.632,-19.5164 396.039,-19.7265 398.482,-26.2864"/>
</g>
<!-- Node10 -->
<g id="node10" class="node"><title>Node10</title>
<polygon fill="none" stroke="#bfbfbf" points="477,-0.5 477,-19.5 522,-19.5 522,-0.5 477,-0.5"/>
<text text-anchor="middle" x="499.5" y="-7.5" font-family="Helvetica,sans-Serif" font-size="10.00">climits</text>
</g>
<!-- Node3&#45;&gt;Node10 -->
<g id="edge10" class="edge"><title>Node3&#45;&gt;Node10</title>
<path fill="none" stroke="midnightblue" d="M321.274,-56.4943C356.465,-48.2464 411.262,-35.123 467.139,-20.2894"/>
<polygon fill="midnightblue" stroke="midnightblue" points="468.086,-23.6595 476.844,-17.6984 466.28,-16.8963 468.086,-23.6595"/>
</g>
<!-- Node11 -->
<g id="node11" class="node"><title>Node11</title>
<g id="a_node11"><a xlink:href="../../d7/df8/Types_8h.html" target="_top" xlink:title="MemoryResources/Types.h">
<polygon fill="none" stroke="black" points="540,-0.5 540,-19.5 677,-19.5 677,-0.5 540,-0.5"/>
<text text-anchor="middle" x="608.5" y="-7.5" font-family="Helvetica,sans-Serif" font-size="10.00">MemoryResources/Types.h</text>
</a>
</g>
</g>
<!-- Node3&#45;&gt;Node11 -->
<g id="edge11" class="edge"><title>Node3&#45;&gt;Node11</title>
<path fill="none" stroke="midnightblue" d="M335.839,-56.4435C393.308,-46.8654 486.367,-31.3556 547.5,-21.1667"/>
<polygon fill="midnightblue" stroke="midnightblue" points="548.113,-24.6129 557.401,-19.5164 546.962,-17.7081 548.113,-24.6129"/>
</g>
<!-- Node12 -->
<g id="node12" class="node"><title>Node12</title>
<polygon fill="none" stroke="#bfbfbf" points="695.5,-0.5 695.5,-19.5 739.5,-19.5 739.5,-0.5 695.5,-0.5"/>
<text text-anchor="middle" x="717.5" y="-7.5" font-family="Helvetica,sans-Serif" font-size="10.00">cerrno</text>
</g>
<!-- Node3&#45;&gt;Node12 -->
<g id="edge12" class="edge"><title>Node3&#45;&gt;Node12</title>
<path fill="none" stroke="midnightblue" d="M343.234,-61.5834C419.969,-56.4211 558.545,-44.7058 685.374,-19.9145"/>
<polygon fill="midnightblue" stroke="midnightblue" points="686.135,-23.3318 695.262,-17.9502 684.771,-16.466 686.135,-23.3318"/>
</g>
</g>
</svg>
