<?xml version="1.0" encoding="UTF-8" standalone="no"?>
<!DOCTYPE svg PUBLIC "-//W3C//DTD SVG 1.1//EN"
 "http://www.w3.org/Graphics/SVG/1.1/DTD/svg11.dtd">
<!-- Generated by graphviz version 2.38.0 (20140413.2041)
 -->
<!-- Title: o2::gpu::GPUO2InterfaceIOPtrs Pages: 1 -->
<svg width="769pt" height="826pt"
 viewBox="0.00 0.00 768.50 826.00" xmlns="http://www.w3.org/2000/svg" xmlns:xlink="http://www.w3.org/1999/xlink">
<g id="graph0" class="graph" transform="scale(1 1) rotate(0) translate(4 822)">
<title>o2::gpu::GPUO2InterfaceIOPtrs</title>
<!-- Node1 -->
<g id="node1" class="node"><title>Node1</title>
<polygon fill="#bfbfbf" stroke="black" points="265.5,-0.5 265.5,-57.5 421.5,-57.5 421.5,-0.5 265.5,-0.5"/>
<text text-anchor="middle" x="343.5" y="-45.5" font-family="Helvetica,sans-Serif" font-size="10.00">o2::gpu::GPUO2InterfaceIOPtrs</text>
<polyline fill="none" stroke="black" points="265.5,-38.5 421.5,-38.5 "/>
<text text-anchor="middle" x="343.5" y="-26.5" font-family="Helvetica,sans-Serif" font-size="10.00"> </text>
<polyline fill="none" stroke="black" points="265.5,-19.5 421.5,-19.5 "/>
<text text-anchor="middle" x="343.5" y="-7.5" font-family="Helvetica,sans-Serif" font-size="10.00"> </text>
</g>
<!-- Node2 -->
<g id="node2" class="node"><title>Node2</title>
<polygon fill="none" stroke="#bfbfbf" points="0,-259.5 0,-316.5 149,-316.5 149,-259.5 0,-259.5"/>
<text text-anchor="middle" x="74.5" y="-304.5" font-family="Helvetica,sans-Serif" font-size="10.00">vector&lt; o2::tpc::TrackTPC &gt; *</text>
<polyline fill="none" stroke="#bfbfbf" points="0,-297.5 149,-297.5 "/>
<text text-anchor="middle" x="74.5" y="-285.5" font-family="Helvetica,sans-Serif" font-size="10.00"> </text>
<polyline fill="none" stroke="#bfbfbf" points="0,-278.5 149,-278.5 "/>
<text text-anchor="middle" x="74.5" y="-266.5" font-family="Helvetica,sans-Serif" font-size="10.00"> </text>
</g>
<!-- Node2&#45;&gt;Node1 -->
<g id="edge1" class="edge"><title>Node2&#45;&gt;Node1</title>
<path fill="none" stroke="#404040" d="M70.4369,-259.392C65.5159,-214.43 63.1305,-125.453 111.5,-76 131.227,-55.8307 196.624,-44.0602 252.977,-37.4834"/>
<polygon fill="none" stroke="#404040" points="253.288,-37.4488 258.807,-32.8082 265.214,-36.1182 259.694,-40.7588 253.288,-37.4488"/>
<text text-anchor="middle" x="145" y="-90" font-family="Helvetica,sans-Serif" font-size="10.00"> +outputTracks</text>
</g>
<!-- Node3 -->
<g id="node3" class="node"><title>Node3</title>
<g id="a_node3"><a xlink:href="../../dd/de2/classsize__t.html" target="_top" xlink:title="{size_t\n||}">
<polygon fill="none" stroke="black" points="167,-259.5 167,-316.5 210,-316.5 210,-259.5 167,-259.5"/>
<text text-anchor="middle" x="188.5" y="-304.5" font-family="Helvetica,sans-Serif" font-size="10.00">size_t</text>
<polyline fill="none" stroke="black" points="167,-297.5 210,-297.5 "/>
<text text-anchor="middle" x="188.5" y="-285.5" font-family="Helvetica,sans-Serif" font-size="10.00"> </text>
<polyline fill="none" stroke="black" points="167,-278.5 210,-278.5 "/>
<text text-anchor="middle" x="188.5" y="-266.5" font-family="Helvetica,sans-Serif" font-size="10.00"> </text>
</a>
</g>
</g>
<!-- Node3&#45;&gt;Node1 -->
<g id="edge2" class="edge"><title>Node3&#45;&gt;Node1</title>
<path fill="none" stroke="#404040" d="M180.753,-259.369C170.268,-215.559 157.258,-129.639 198.5,-76 212.015,-58.423 232.259,-47.4273 253.367,-40.5868"/>
<polygon fill="none" stroke="#404040" points="253.612,-40.5162 258.272,-35.0133 265.144,-37.1985 260.484,-42.7015 253.612,-40.5162"/>
<text text-anchor="middle" x="239.5" y="-90" font-family="Helvetica,sans-Serif" font-size="10.00"> +outputBufferSize</text>
</g>
<!-- Node4 -->
<g id="node4" class="node"><title>Node4</title>
<polygon fill="none" stroke="#bfbfbf" points="242,-259.5 242,-316.5 345,-316.5 345,-259.5 242,-259.5"/>
<text text-anchor="middle" x="293.5" y="-304.5" font-family="Helvetica,sans-Serif" font-size="10.00">vector&lt; uint32_t &gt; *</text>
<polyline fill="none" stroke="#bfbfbf" points="242,-297.5 345,-297.5 "/>
<text text-anchor="middle" x="293.5" y="-285.5" font-family="Helvetica,sans-Serif" font-size="10.00"> </text>
<polyline fill="none" stroke="#bfbfbf" points="242,-278.5 345,-278.5 "/>
<text text-anchor="middle" x="293.5" y="-266.5" font-family="Helvetica,sans-Serif" font-size="10.00"> </text>
</g>
<!-- Node4&#45;&gt;Node1 -->
<g id="edge3" class="edge"><title>Node4&#45;&gt;Node1</title>
<path fill="none" stroke="#404040" d="M286.958,-259.279C278.542,-217.539 267.945,-136.955 294.5,-76 295.83,-72.9463 297.473,-70.0016 299.343,-67.1797"/>
<polygon fill="none" stroke="#404040" points="299.524,-66.9499 300.093,-59.7613 306.948,-57.5224 306.378,-64.711 299.524,-66.9499"/>
<text text-anchor="middle" x="333.5" y="-90" font-family="Helvetica,sans-Serif" font-size="10.00"> +outputClusRefs</text>
</g>
<!-- Node5 -->
<g id="node5" class="node"><title>Node5</title>
<polygon fill="none" stroke="#bfbfbf" points="374,-259.5 374,-316.5 415,-316.5 415,-259.5 374,-259.5"/>
<text text-anchor="middle" x="394.5" y="-304.5" font-family="Helvetica,sans-Serif" font-size="10.00">const</text>
<polyline fill="none" stroke="#bfbfbf" points="374,-297.5 415,-297.5 "/>
<text text-anchor="middle" x="394.5" y="-285.5" font-family="Helvetica,sans-Serif" font-size="10.00"> </text>
<polyline fill="none" stroke="#bfbfbf" points="374,-278.5 415,-278.5 "/>
<text text-anchor="middle" x="394.5" y="-266.5" font-family="Helvetica,sans-Serif" font-size="10.00"> </text>
</g>
<!-- Node5&#45;&gt;Node1 -->
<g id="edge4" class="edge"><title>Node5&#45;&gt;Node1</title>
<path fill="none" stroke="#404040" d="M395.562,-259.16C396.262,-217.951 394.243,-138.823 372.5,-76 371.622,-73.463 370.581,-70.9219 369.424,-68.4091"/>
<polygon fill="none" stroke="#404040" points="369.359,-68.2854 363.021,-64.8461 363.758,-57.6728 370.096,-61.112 369.359,-68.2854"/>
<text text-anchor="middle" x="430" y="-101" font-family="Helvetica,sans-Serif" font-size="10.00"> +clusters</text>
<text text-anchor="middle" x="430" y="-90" font-family="Helvetica,sans-Serif" font-size="10.00">+o2Digits</text>
<text text-anchor="middle" x="430" y="-79" font-family="Helvetica,sans-Serif" font-size="10.00">+compressedClusters</text>
</g>
<!-- Node6 -->
<g id="node6" class="node"><title>Node6</title>
<polygon fill="none" stroke="#bfbfbf" points="494,-259.5 494,-316.5 535,-316.5 535,-259.5 494,-259.5"/>
<text text-anchor="middle" x="514.5" y="-304.5" font-family="Helvetica,sans-Serif" font-size="10.00">void *</text>
<polyline fill="none" stroke="#bfbfbf" points="494,-297.5 535,-297.5 "/>
<text text-anchor="middle" x="514.5" y="-285.5" font-family="Helvetica,sans-Serif" font-size="10.00"> </text>
<polyline fill="none" stroke="#bfbfbf" points="494,-278.5 535,-278.5 "/>
<text text-anchor="middle" x="514.5" y="-266.5" font-family="Helvetica,sans-Serif" font-size="10.00"> </text>
</g>
<!-- Node6&#45;&gt;Node1 -->
<g id="edge5" class="edge"><title>Node6&#45;&gt;Node1</title>
<path fill="none" stroke="#404040" d="M518.681,-259.401C523.73,-215.25 526.702,-128.387 482.5,-76 469.68,-60.8056 451.719,-50.6018 432.955,-43.7574"/>
<polygon fill="none" stroke="#404040" points="432.931,-43.7496 425.983,-45.6804 421.529,-40.0096 428.477,-38.0788 432.931,-43.7496"/>
<text text-anchor="middle" x="533" y="-90" font-family="Helvetica,sans-Serif" font-size="10.00"> +outputBuffer</text>
</g>
<!-- Node7 -->
<g id="node7" class="node"><title>Node7</title>
<g id="a_node7"><a xlink:href="../../dc/daa/classo2_1_1dataformats_1_1MCTruthContainer.html" target="_top" xlink:title="{o2::dataformats::MCTruth\lContainer\&lt; o2::o2::MCCompLabel \&gt;\n||+ MCTruthContainer()\l+ MCTruthContainer()\l+ MCTruthContainer()\l+ ~MCTruthContainer()\l+ operator=()\l+ operator=()\l+ getMCTruthHeader()\l+ getElement()\l+ getIndexedSize()\l+ getNElements()\l+ getLabels()\l+ getLabels()\l+ clear()\l+ addElement()\l+ addElements()\l+ addElements()\l+ addElementRandomAccess()\l+ mergeAtBack()\l+ flatten_to()\l+ restore_from()\l+ print()\l+ inflate()\l+ deflate()\l+ ClassDefNV()\l}">
<polygon fill="none" stroke="black" points="553,-127.5 553,-448.5 728,-448.5 728,-127.5 553,-127.5"/>
<text text-anchor="start" x="561" y="-436.5" font-family="Helvetica,sans-Serif" font-size="10.00">o2::dataformats::MCTruth</text>
<text text-anchor="middle" x="640.5" y="-425.5" font-family="Helvetica,sans-Serif" font-size="10.00">Container&lt; o2::o2::MCCompLabel &gt;</text>
<polyline fill="none" stroke="black" points="553,-418.5 728,-418.5 "/>
<text text-anchor="middle" x="640.5" y="-406.5" font-family="Helvetica,sans-Serif" font-size="10.00"> </text>
<polyline fill="none" stroke="black" points="553,-399.5 728,-399.5 "/>
<text text-anchor="start" x="561" y="-387.5" font-family="Helvetica,sans-Serif" font-size="10.00">+ MCTruthContainer()</text>
<text text-anchor="start" x="561" y="-376.5" font-family="Helvetica,sans-Serif" font-size="10.00">+ MCTruthContainer()</text>
<text text-anchor="start" x="561" y="-365.5" font-family="Helvetica,sans-Serif" font-size="10.00">+ MCTruthContainer()</text>
<text text-anchor="start" x="561" y="-354.5" font-family="Helvetica,sans-Serif" font-size="10.00">+ ~MCTruthContainer()</text>
<text text-anchor="start" x="561" y="-343.5" font-family="Helvetica,sans-Serif" font-size="10.00">+ operator=()</text>
<text text-anchor="start" x="561" y="-332.5" font-family="Helvetica,sans-Serif" font-size="10.00">+ operator=()</text>
<text text-anchor="start" x="561" y="-321.5" font-family="Helvetica,sans-Serif" font-size="10.00">+ getMCTruthHeader()</text>
<text text-anchor="start" x="561" y="-310.5" font-family="Helvetica,sans-Serif" font-size="10.00">+ getElement()</text>
<text text-anchor="start" x="561" y="-299.5" font-family="Helvetica,sans-Serif" font-size="10.00">+ getIndexedSize()</text>
<text text-anchor="start" x="561" y="-288.5" font-family="Helvetica,sans-Serif" font-size="10.00">+ getNElements()</text>
<text text-anchor="start" x="561" y="-277.5" font-family="Helvetica,sans-Serif" font-size="10.00">+ getLabels()</text>
<text text-anchor="start" x="561" y="-266.5" font-family="Helvetica,sans-Serif" font-size="10.00">+ getLabels()</text>
<text text-anchor="start" x="561" y="-255.5" font-family="Helvetica,sans-Serif" font-size="10.00">+ clear()</text>
<text text-anchor="start" x="561" y="-244.5" font-family="Helvetica,sans-Serif" font-size="10.00">+ addElement()</text>
<text text-anchor="start" x="561" y="-233.5" font-family="Helvetica,sans-Serif" font-size="10.00">+ addElements()</text>
<text text-anchor="start" x="561" y="-222.5" font-family="Helvetica,sans-Serif" font-size="10.00">+ addElements()</text>
<text text-anchor="start" x="561" y="-211.5" font-family="Helvetica,sans-Serif" font-size="10.00">+ addElementRandomAccess()</text>
<text text-anchor="start" x="561" y="-200.5" font-family="Helvetica,sans-Serif" font-size="10.00">+ mergeAtBack()</text>
<text text-anchor="start" x="561" y="-189.5" font-family="Helvetica,sans-Serif" font-size="10.00">+ flatten_to()</text>
<text text-anchor="start" x="561" y="-178.5" font-family="Helvetica,sans-Serif" font-size="10.00">+ restore_from()</text>
<text text-anchor="start" x="561" y="-167.5" font-family="Helvetica,sans-Serif" font-size="10.00">+ print()</text>
<text text-anchor="start" x="561" y="-156.5" font-family="Helvetica,sans-Serif" font-size="10.00">+ inflate()</text>
<text text-anchor="start" x="561" y="-145.5" font-family="Helvetica,sans-Serif" font-size="10.00">+ deflate()</text>
<text text-anchor="start" x="561" y="-134.5" font-family="Helvetica,sans-Serif" font-size="10.00">+ ClassDefNV()</text>
</a>
</g>
</g>
<!-- Node7&#45;&gt;Node1 -->
<g id="edge6" class="edge"><title>Node7&#45;&gt;Node1</title>
<path fill="none" stroke="#404040" d="M606.726,-127.309C597.029,-107.989 584.552,-90.13 568.5,-76 548.363,-58.274 487.222,-46.4729 433.751,-39.2658"/>
<polygon fill="none" stroke="#404040" points="433.672,-39.2556 427.206,-42.4489 421.772,-37.7089 428.238,-34.5156 433.672,-39.2556"/>
<text text-anchor="middle" x="648" y="-90" font-family="Helvetica,sans-Serif" font-size="10.00"> +outputTracksMCTruth</text>
</g>
<!-- Node8 -->
<g id="node8" class="node"><title>Node8</title>
<g id="a_node8"><a xlink:href="../../dc/daa/classo2_1_1dataformats_1_1MCTruthContainer.html" target="_top" xlink:title="A container to hold and manage MC truth information/labels. ">
<polygon fill="none" stroke="black" points="564,-496.5 564,-817.5 717,-817.5 717,-496.5 564,-496.5"/>
<text text-anchor="start" x="572" y="-805.5" font-family="Helvetica,sans-Serif" font-size="10.00">o2::dataformats::MCTruth</text>
<text text-anchor="middle" x="640.5" y="-794.5" font-family="Helvetica,sans-Serif" font-size="10.00">Container&lt; TruthElement &gt;</text>
<polyline fill="none" stroke="black" points="564,-787.5 717,-787.5 "/>
<text text-anchor="middle" x="640.5" y="-775.5" font-family="Helvetica,sans-Serif" font-size="10.00"> </text>
<polyline fill="none" stroke="black" points="564,-768.5 717,-768.5 "/>
<text text-anchor="start" x="572" y="-756.5" font-family="Helvetica,sans-Serif" font-size="10.00">+ MCTruthContainer()</text>
<text text-anchor="start" x="572" y="-745.5" font-family="Helvetica,sans-Serif" font-size="10.00">+ ~MCTruthContainer()</text>
<text text-anchor="start" x="572" y="-734.5" font-family="Helvetica,sans-Serif" font-size="10.00">+ MCTruthContainer()</text>
<text text-anchor="start" x="572" y="-723.5" font-family="Helvetica,sans-Serif" font-size="10.00">+ MCTruthContainer()</text>
<text text-anchor="start" x="572" y="-712.5" font-family="Helvetica,sans-Serif" font-size="10.00">+ operator=()</text>
<text text-anchor="start" x="572" y="-701.5" font-family="Helvetica,sans-Serif" font-size="10.00">+ operator=()</text>
<text text-anchor="start" x="572" y="-690.5" font-family="Helvetica,sans-Serif" font-size="10.00">+ getMCTruthHeader()</text>
<text text-anchor="start" x="572" y="-679.5" font-family="Helvetica,sans-Serif" font-size="10.00">+ getElement()</text>
<text text-anchor="start" x="572" y="-668.5" font-family="Helvetica,sans-Serif" font-size="10.00">+ getIndexedSize()</text>
<text text-anchor="start" x="572" y="-657.5" font-family="Helvetica,sans-Serif" font-size="10.00">+ getNElements()</text>
<text text-anchor="start" x="572" y="-646.5" font-family="Helvetica,sans-Serif" font-size="10.00">+ getLabels()</text>
<text text-anchor="start" x="572" y="-635.5" font-family="Helvetica,sans-Serif" font-size="10.00">+ getLabels()</text>
<text text-anchor="start" x="572" y="-624.5" font-family="Helvetica,sans-Serif" font-size="10.00">+ clear()</text>
<text text-anchor="start" x="572" y="-613.5" font-family="Helvetica,sans-Serif" font-size="10.00">+ addElement()</text>
<text text-anchor="start" x="572" y="-602.5" font-family="Helvetica,sans-Serif" font-size="10.00">+ addElements()</text>
<text text-anchor="start" x="572" y="-591.5" font-family="Helvetica,sans-Serif" font-size="10.00">+ addElements()</text>
<text text-anchor="start" x="572" y="-580.5" font-family="Helvetica,sans-Serif" font-size="10.00">+ addElementRandomAccess()</text>
<text text-anchor="start" x="572" y="-569.5" font-family="Helvetica,sans-Serif" font-size="10.00">+ mergeAtBack()</text>
<text text-anchor="start" x="572" y="-558.5" font-family="Helvetica,sans-Serif" font-size="10.00">+ flatten_to()</text>
<text text-anchor="start" x="572" y="-547.5" font-family="Helvetica,sans-Serif" font-size="10.00">+ restore_from()</text>
<text text-anchor="start" x="572" y="-536.5" font-family="Helvetica,sans-Serif" font-size="10.00">+ print()</text>
<text text-anchor="start" x="572" y="-525.5" font-family="Helvetica,sans-Serif" font-size="10.00">+ inflate()</text>
<text text-anchor="start" x="572" y="-514.5" font-family="Helvetica,sans-Serif" font-size="10.00">+ deflate()</text>
<text text-anchor="start" x="572" y="-503.5" font-family="Helvetica,sans-Serif" font-size="10.00">+ ClassDefNV()</text>
</a>
</g>
</g>
<!-- Node8&#45;&gt;Node7 -->
<g id="edge7" class="edge"><title>Node8&#45;&gt;Node7</title>
<path fill="none" stroke="orange" d="M640.5,-486.305C640.5,-473.734 640.5,-461.076 640.5,-448.569"/>
<polygon fill="orange" stroke="orange" points="637,-486.363 640.5,-496.363 644,-486.363 637,-486.363"/>
<text text-anchor="middle" x="700.5" y="-470" font-family="Helvetica,sans-Serif" font-size="10.00"> &lt; o2::o2::MCCompLabel &gt;</text>
</g>
</g>
</svg>
