<?xml version="1.0" encoding="UTF-8" standalone="no"?>
<!DOCTYPE svg PUBLIC "-//W3C//DTD SVG 1.1//EN"
 "http://www.w3.org/Graphics/SVG/1.1/DTD/svg11.dtd">
<!-- Generated by graphviz version 2.38.0 (20140413.2041)
 -->
<!-- Title: /home/travis/build/AliceO2Group/AliceO2/Common/Utils/src/CompStream.cxx Pages: 1 -->
<!--zoomable 184 -->
<svg id="main" version="1.1" xmlns="http://www.w3.org/2000/svg" xmlns:xlink="http://www.w3.org/1999/xlink" xml:space="preserve" onload="init(evt)">
<style type="text/css"><![CDATA[
.edge:hover path { stroke: red; }
.edge:hover polygon { stroke: red; fill: red; }
]]></style>
<script type="text/javascript"><![CDATA[
var edges = document.getElementsByTagName('g');
if (edges && edges.length) {
  for (var i=0;i<edges.length;i++) {
    if (edges[i].id.substr(0,4)=='edge') {
      edges[i].setAttribute('class','edge');
    }
  }
}
]]></script>
        <defs>
                <circle id="rim" cx="0" cy="0" r="7"/>
                <circle id="rim2" cx="0" cy="0" r="3.5"/>
                <g id="zoomPlus">
                        <use xlink:href="#rim" fill="#404040">
                                <set attributeName="fill" to="#808080" begin="zoomplus.mouseover" end="zoomplus.mouseout"/>
                        </use>
                        <path d="M-4,0h8M0,-4v8" fill="none" stroke="white" stroke-width="1.5" pointer-events="none"/>
                </g>
                <g id="zoomMin">
                        <use xlink:href="#rim" fill="#404040">
                                <set attributeName="fill" to="#808080" begin="zoomminus.mouseover" end="zoomminus.mouseout"/>
                        </use>
                        <path d="M-4,0h8" fill="none" stroke="white" stroke-width="1.5" pointer-events="none"/>
                </g>
                <g id="dirArrow">
                        <path fill="none" stroke="white" stroke-width="1.5" d="M0,-3.0v7 M-2.5,-0.5L0,-3.0L2.5,-0.5"/>
                </g>
               <g id="resetDef">
                       <use xlink:href="#rim2" fill="#404040">
                               <set attributeName="fill" to="#808080" begin="reset.mouseover" end="reset.mouseout"/>
                       </use>
               </g>
        </defs>

<script type="text/javascript">
var viewWidth = 1191;
var viewHeight = 184;
var sectionId = 'dynsection-0';
</script>
<script xlink:href="../../svgpan.js"/>
<svg id="graph" class="graph">
<g id="viewport">
<title>/home/travis/build/AliceO2Group/AliceO2/Common/Utils/src/CompStream.cxx</title>
<!-- Node1 -->
<g id="node1" class="node"><title>Node1</title>
<polygon fill="#bfbfbf" stroke="black" points="657,-134.5 657,-175.5 836,-175.5 836,-134.5 657,-134.5"/>
<text text-anchor="start" x="665" y="-163.5" font-family="Helvetica,sans-Serif" font-size="10.00">/home/travis/build</text>
<text text-anchor="start" x="665" y="-152.5" font-family="Helvetica,sans-Serif" font-size="10.00">/AliceO2Group/AliceO2</text>
<text text-anchor="middle" x="746.5" y="-141.5" font-family="Helvetica,sans-Serif" font-size="10.00">/Common/Utils/src/CompStream.cxx</text>
</g>
<!-- Node2 -->
<g id="node2" class="node"><title>Node2</title>
<g id="a_node2"><a xlink:href="../../dd/ded/CompStream_8h.html" target="_top" xlink:title="Implementation of iostreams with compression filter. ">
<polygon fill="none" stroke="black" points="88.5,-73 88.5,-92 234.5,-92 234.5,-73 88.5,-73"/>
<text text-anchor="middle" x="161.5" y="-80" font-family="Helvetica,sans-Serif" font-size="10.00">CommonUtils/CompStream.h</text>
</a>
</g>
</g>
<!-- Node1&#45;&gt;Node2 -->
<g id="edge1" class="edge"><title>Node1&#45;&gt;Node2</title>
<path fill="none" stroke="midnightblue" d="M656.781,-145.763C555.999,-136.104 387.652,-118.748 243.5,-98 234.871,-96.758 225.757,-95.2965 216.865,-93.7879"/>
<polygon fill="midnightblue" stroke="midnightblue" points="217.409,-90.33 206.958,-92.0737 216.215,-97.2275 217.409,-90.33"/>
</g>
<!-- Node8 -->
<g id="node8" class="node"><title>Node8</title>
<polygon fill="none" stroke="#bfbfbf" points="252.5,-67.5 252.5,-97.5 370.5,-97.5 370.5,-67.5 252.5,-67.5"/>
<text text-anchor="start" x="260.5" y="-85.5" font-family="Helvetica,sans-Serif" font-size="10.00">boost/iostreams/device</text>
<text text-anchor="middle" x="311.5" y="-74.5" font-family="Helvetica,sans-Serif" font-size="10.00">/file.hpp</text>
</g>
<!-- Node1&#45;&gt;Node8 -->
<g id="edge7" class="edge"><title>Node1&#45;&gt;Node8</title>
<path fill="none" stroke="midnightblue" d="M656.889,-141.824C584.83,-131.686 480.777,-116.268 380.773,-98.1747"/>
<polygon fill="midnightblue" stroke="midnightblue" points="381.263,-94.7064 370.797,-96.3584 380.009,-101.593 381.263,-94.7064"/>
</g>
<!-- Node9 -->
<g id="node9" class="node"><title>Node9</title>
<polygon fill="none" stroke="#bfbfbf" points="388.5,-73 388.5,-92 526.5,-92 526.5,-73 388.5,-73"/>
<text text-anchor="middle" x="457.5" y="-80" font-family="Helvetica,sans-Serif" font-size="10.00">boost/iostreams/stream.hpp</text>
</g>
<!-- Node1&#45;&gt;Node9 -->
<g id="edge8" class="edge"><title>Node1&#45;&gt;Node9</title>
<path fill="none" stroke="midnightblue" d="M666.381,-134.455C613.38,-121.526 545.852,-105.053 502.156,-94.3937"/>
<polygon fill="midnightblue" stroke="midnightblue" points="502.942,-90.9827 492.397,-92.013 501.283,-97.7833 502.942,-90.9827"/>
</g>
<!-- Node10 -->
<g id="node10" class="node"><title>Node10</title>
<polygon fill="none" stroke="#bfbfbf" points="545,-73 545,-92 674,-92 674,-73 545,-73"/>
<text text-anchor="middle" x="609.5" y="-80" font-family="Helvetica,sans-Serif" font-size="10.00">boost/iostreams/copy.hpp</text>
</g>
<!-- Node1&#45;&gt;Node10 -->
<g id="edge9" class="edge"><title>Node1&#45;&gt;Node10</title>
<path fill="none" stroke="midnightblue" d="M708.338,-134.362C685.099,-122.403 656.022,-107.44 635.438,-96.8479"/>
<polygon fill="midnightblue" stroke="midnightblue" points="636.848,-93.637 626.355,-92.1734 633.645,-99.8612 636.848,-93.637"/>
</g>
<!-- Node11 -->
<g id="node11" class="node"><title>Node11</title>
<polygon fill="none" stroke="#bfbfbf" points="692.5,-67.5 692.5,-97.5 800.5,-97.5 800.5,-67.5 692.5,-67.5"/>
<text text-anchor="start" x="700.5" y="-85.5" font-family="Helvetica,sans-Serif" font-size="10.00">boost/iostreams/filter</text>
<text text-anchor="middle" x="746.5" y="-74.5" font-family="Helvetica,sans-Serif" font-size="10.00">/gzip.hpp</text>
</g>
<!-- Node1&#45;&gt;Node11 -->
<g id="edge10" class="edge"><title>Node1&#45;&gt;Node11</title>
<path fill="none" stroke="midnightblue" d="M746.5,-134.362C746.5,-126.226 746.5,-116.7 746.5,-108.105"/>
<polygon fill="midnightblue" stroke="midnightblue" points="750,-107.892 746.5,-97.8916 743,-107.892 750,-107.892"/>
</g>
<!-- Node12 -->
<g id="node12" class="node"><title>Node12</title>
<polygon fill="none" stroke="#bfbfbf" points="818.5,-67.5 818.5,-97.5 926.5,-97.5 926.5,-67.5 818.5,-67.5"/>
<text text-anchor="start" x="826.5" y="-85.5" font-family="Helvetica,sans-Serif" font-size="10.00">boost/iostreams/filter</text>
<text text-anchor="middle" x="872.5" y="-74.5" font-family="Helvetica,sans-Serif" font-size="10.00">/zlib.hpp</text>
</g>
<!-- Node1&#45;&gt;Node12 -->
<g id="edge11" class="edge"><title>Node1&#45;&gt;Node12</title>
<path fill="none" stroke="midnightblue" d="M781.598,-134.362C799.332,-124.439 820.763,-112.448 838.361,-102.601"/>
<polygon fill="midnightblue" stroke="midnightblue" points="840.157,-105.607 847.175,-97.67 836.739,-99.4985 840.157,-105.607"/>
</g>
<!-- Node13 -->
<g id="node13" class="node"><title>Node13</title>
<polygon fill="none" stroke="#bfbfbf" points="944.5,-67.5 944.5,-97.5 1052.5,-97.5 1052.5,-67.5 944.5,-67.5"/>
<text text-anchor="start" x="952.5" y="-85.5" font-family="Helvetica,sans-Serif" font-size="10.00">boost/iostreams/filter</text>
<text text-anchor="middle" x="998.5" y="-74.5" font-family="Helvetica,sans-Serif" font-size="10.00">/bzip2.hpp</text>
</g>
<!-- Node1&#45;&gt;Node13 -->
<g id="edge12" class="edge"><title>Node1&#45;&gt;Node13</title>
<path fill="none" stroke="midnightblue" d="M816.361,-134.455C854.573,-123.765 901.444,-110.653 938.069,-100.406"/>
<polygon fill="midnightblue" stroke="midnightblue" points="939.424,-103.662 948.111,-97.5968 937.538,-96.9204 939.424,-103.662"/>
</g>
<!-- Node14 -->
<g id="node14" class="node"><title>Node14</title>
<polygon fill="none" stroke="#bfbfbf" points="1071,-73 1071,-92 1106,-92 1106,-73 1071,-73"/>
<text text-anchor="middle" x="1088.5" y="-80" font-family="Helvetica,sans-Serif" font-size="10.00">map</text>
</g>
<!-- Node1&#45;&gt;Node14 -->
<g id="edge13" class="edge"><title>Node1&#45;&gt;Node14</title>
<path fill="none" stroke="midnightblue" d="M836.327,-145.688C900.411,-137.928 987.913,-123.567 1061.5,-98 1062.74,-97.5678 1064,-97.0837 1065.25,-96.5616"/>
<polygon fill="midnightblue" stroke="midnightblue" points="1067.11,-99.5525 1074.59,-92.0525 1064.07,-93.2488 1067.11,-99.5525"/>
</g>
<!-- Node15 -->
<g id="node15" class="node"><title>Node15</title>
<polygon fill="none" stroke="#bfbfbf" points="1124,-73 1124,-92 1183,-92 1183,-73 1124,-73"/>
<text text-anchor="middle" x="1153.5" y="-80" font-family="Helvetica,sans-Serif" font-size="10.00">stdexcept</text>
</g>
<!-- Node1&#45;&gt;Node15 -->
<g id="edge14" class="edge"><title>Node1&#45;&gt;Node15</title>
<path fill="none" stroke="midnightblue" d="M836.315,-145.8C911.717,-137.629 1021.83,-122.676 1115.5,-98 1118.16,-97.2991 1120.89,-96.4755 1123.61,-95.583"/>
<polygon fill="midnightblue" stroke="midnightblue" points="1125.01,-98.8001 1133.25,-92.1439 1122.66,-92.2069 1125.01,-98.8001"/>
</g>
<!-- Node3 -->
<g id="node3" class="node"><title>Node3</title>
<polygon fill="none" stroke="#bfbfbf" points="0,-6 0,-25 49,-25 49,-6 0,-6"/>
<text text-anchor="middle" x="24.5" y="-13" font-family="Helvetica,sans-Serif" font-size="10.00">istream</text>
</g>
<!-- Node2&#45;&gt;Node3 -->
<g id="edge2" class="edge"><title>Node2&#45;&gt;Node3</title>
<path fill="none" stroke="midnightblue" d="M143.307,-72.8685C119.97,-61.7961 79.2709,-42.4862 52.1062,-29.5978"/>
<polygon fill="midnightblue" stroke="midnightblue" points="53.3028,-26.2916 42.7678,-25.1672 50.3022,-32.6159 53.3028,-26.2916"/>
</g>
<!-- Node4 -->
<g id="node4" class="node"><title>Node4</title>
<polygon fill="none" stroke="#bfbfbf" points="67.5,-6 67.5,-25 117.5,-25 117.5,-6 67.5,-6"/>
<text text-anchor="middle" x="92.5" y="-13" font-family="Helvetica,sans-Serif" font-size="10.00">fstream</text>
</g>
<!-- Node2&#45;&gt;Node4 -->
<g id="edge3" class="edge"><title>Node2&#45;&gt;Node4</title>
<path fill="none" stroke="midnightblue" d="M152.194,-72.7338C141.228,-62.403 122.793,-45.0371 109.306,-32.3315"/>
<polygon fill="midnightblue" stroke="midnightblue" points="111.337,-29.4366 101.658,-25.1273 106.537,-34.5319 111.337,-29.4366"/>
</g>
<!-- Node5 -->
<g id="node5" class="node"><title>Node5</title>
<polygon fill="none" stroke="#bfbfbf" points="135.5,-6 135.5,-25 187.5,-25 187.5,-6 135.5,-6"/>
<text text-anchor="middle" x="161.5" y="-13" font-family="Helvetica,sans-Serif" font-size="10.00">ostream</text>
</g>
<!-- Node2&#45;&gt;Node5 -->
<g id="edge4" class="edge"><title>Node2&#45;&gt;Node5</title>
<path fill="none" stroke="midnightblue" d="M161.5,-72.7338C161.5,-63.1826 161.5,-47.6183 161.5,-35.2829"/>
<polygon fill="midnightblue" stroke="midnightblue" points="165,-35.1273 161.5,-25.1273 158,-35.1273 165,-35.1273"/>
</g>
<!-- Node6 -->
<g id="node6" class="node"><title>Node6</title>
<polygon fill="none" stroke="#bfbfbf" points="206,-6 206,-25 247,-25 247,-6 206,-6"/>
<text text-anchor="middle" x="226.5" y="-13" font-family="Helvetica,sans-Serif" font-size="10.00">string</text>
</g>
<!-- Node2&#45;&gt;Node6 -->
<g id="edge5" class="edge"><title>Node2&#45;&gt;Node6</title>
<path fill="none" stroke="midnightblue" d="M170.266,-72.7338C180.597,-62.403 197.963,-45.0371 210.668,-32.3315"/>
<polygon fill="midnightblue" stroke="midnightblue" points="213.276,-34.6733 217.873,-25.1273 208.327,-29.7235 213.276,-34.6733"/>
</g>
<!-- Node7 -->
<g id="node7" class="node"><title>Node7</title>
<polygon fill="none" stroke="#bfbfbf" points="265,-0.5 265,-30.5 386,-30.5 386,-0.5 265,-0.5"/>
<text text-anchor="start" x="273" y="-18.5" font-family="Helvetica,sans-Serif" font-size="10.00">boost/iostreams/filtering</text>
<text text-anchor="middle" x="325.5" y="-7.5" font-family="Helvetica,sans-Serif" font-size="10.00">_streambuf.hpp</text>
</g>
<!-- Node2&#45;&gt;Node7 -->
<g id="edge6" class="edge"><title>Node2&#45;&gt;Node7</title>
<path fill="none" stroke="midnightblue" d="M183.278,-72.8685C207.993,-63.0728 248.976,-46.8296 280.615,-34.2897"/>
<polygon fill="midnightblue" stroke="midnightblue" points="282.099,-37.4665 290.106,-30.5281 279.52,-30.9589 282.099,-37.4665"/>
</g>
</g>
</svg>
        <g id="navigator" transform="translate(0 0)" fill="#404254">
                <rect fill="#f2f5e9" fill-opacity="0.5" stroke="#606060" stroke-width=".5" x="0" y="0" width="60" height="60"/>
                <use id="zoomplus" xlink:href="#zoomPlus" x="17" y="9" onmousedown="handleZoom(evt,'in')"/>
                <use id="zoomminus" xlink:href="#zoomMin" x="42" y="9" onmousedown="handleZoom(evt,'out')"/>
                <use id="reset" xlink:href="#resetDef" x="30" y="36" onmousedown="handleReset()"/>
                <g id="arrowUp" xlink:href="#dirArrow" transform="translate(30 24)" onmousedown="handlePan(0,-1)">
                  <use xlink:href="#rim" fill="#404040">
                        <set attributeName="fill" to="#808080" begin="arrowUp.mouseover" end="arrowUp.mouseout"/>
                  </use>
                  <path fill="none" stroke="white" stroke-width="1.5" d="M0,-3.0v7 M-2.5,-0.5L0,-3.0L2.5,-0.5"/>
                </g>
                <g id="arrowRight" xlink:href="#dirArrow" transform="rotate(90) translate(36 -43)" onmousedown="handlePan(1,0)">
                  <use xlink:href="#rim" fill="#404040">
                        <set attributeName="fill" to="#808080" begin="arrowRight.mouseover" end="arrowRight.mouseout"/>
                  </use>
                  <path fill="none" stroke="white" stroke-width="1.5" d="M0,-3.0v7 M-2.5,-0.5L0,-3.0L2.5,-0.5"/>
                </g>
                <g id="arrowDown" xlink:href="#dirArrow" transform="rotate(180) translate(-30 -48)" onmousedown="handlePan(0,1)">
                  <use xlink:href="#rim" fill="#404040">
                        <set attributeName="fill" to="#808080" begin="arrowDown.mouseover" end="arrowDown.mouseout"/>
                  </use>
                  <path fill="none" stroke="white" stroke-width="1.5" d="M0,-3.0v7 M-2.5,-0.5L0,-3.0L2.5,-0.5"/>
                </g>
                <g id="arrowLeft" xlink:href="#dirArrow" transform="rotate(270) translate(-36 17)" onmousedown="handlePan(-1,0)">
                  <use xlink:href="#rim" fill="#404040">
                        <set attributeName="fill" to="#808080" begin="arrowLeft.mouseover" end="arrowLeft.mouseout"/>
                  </use>
                  <path fill="none" stroke="white" stroke-width="1.5" d="M0,-3.0v7 M-2.5,-0.5L0,-3.0L2.5,-0.5"/>
                </g>
        </g>
        <svg viewBox="0 0 15 15" width="100%" height="30px" preserveAspectRatio="xMaxYMin meet">
         <g id="arrow_out" transform="scale(0.3 0.3)">
          <a xlink:href="CompStream_8cxx__incl_org.svg" target="_base">
           <rect id="button" ry="5" rx="5" y="6" x="6" height="38" width="38"
                fill="#f2f5e9" fill-opacity="0.5" stroke="#606060" stroke-width="1.0"/>
           <path id="arrow"
             d="M 11.500037,31.436501 C 11.940474,20.09759 22.043105,11.32322 32.158766,21.979434 L 37.068811,17.246167 C 37.068811,17.246167 37.088388,32 37.088388,32 L 22.160133,31.978069 C 22.160133,31.978069 26.997745,27.140456 26.997745,27.140456 C 18.528582,18.264221 13.291696,25.230495 11.500037,31.436501 z"
             style="fill:#404040;"/>
          </a>
         </g>
        </svg>
</svg>
