<?xml version="1.0" encoding="UTF-8" standalone="no"?>
<!DOCTYPE svg PUBLIC "-//W3C//DTD SVG 1.1//EN"
 "http://www.w3.org/Graphics/SVG/1.1/DTD/svg11.dtd">
<!-- Generated by graphviz version 2.38.0 (20140413.2041)
 -->
<!-- Title: /home/travis/build/AliceO2Group/AliceO2/Detectors/ITSMFT/MFT/base/src/HalfCone.cxx Pages: 1 -->
<svg width="1281pt" height="117pt"
 viewBox="0.00 0.00 1281.00 117.00" xmlns="http://www.w3.org/2000/svg" xmlns:xlink="http://www.w3.org/1999/xlink">
<g id="graph0" class="graph" transform="scale(1 1) rotate(0) translate(4 113)">
<title>/home/travis/build/AliceO2Group/AliceO2/Detectors/ITSMFT/MFT/base/src/HalfCone.cxx</title>
<!-- Node1 -->
<g id="node1" class="node"><title>Node1</title>
<polygon fill="#bfbfbf" stroke="black" points="605.5,-56.5 605.5,-108.5 730.5,-108.5 730.5,-56.5 605.5,-56.5"/>
<text text-anchor="start" x="613.5" y="-96.5" font-family="Helvetica,sans-Serif" font-size="10.00">/home/travis/build</text>
<text text-anchor="start" x="613.5" y="-85.5" font-family="Helvetica,sans-Serif" font-size="10.00">/AliceO2Group/AliceO2</text>
<text text-anchor="start" x="613.5" y="-74.5" font-family="Helvetica,sans-Serif" font-size="10.00">/Detectors/ITSMFT/MFT</text>
<text text-anchor="middle" x="668" y="-63.5" font-family="Helvetica,sans-Serif" font-size="10.00">/base/src/HalfCone.cxx</text>
</g>
<!-- Node2 -->
<g id="node2" class="node"><title>Node2</title>
<polygon fill="none" stroke="#bfbfbf" points="0,-0.5 0,-19.5 86,-19.5 86,-0.5 0,-0.5"/>
<text text-anchor="middle" x="43" y="-7.5" font-family="Helvetica,sans-Serif" font-size="10.00">TGeoManager.h</text>
</g>
<!-- Node1&#45;&gt;Node2 -->
<g id="edge1" class="edge"><title>Node1&#45;&gt;Node2</title>
<path fill="none" stroke="midnightblue" d="M605.093,-76.0854C501.252,-66.8532 287.265,-46.5888 96.0493,-20.0682"/>
<polygon fill="midnightblue" stroke="midnightblue" points="96.4845,-16.5951 86.0966,-18.6793 95.5169,-23.528 96.4845,-16.5951"/>
</g>
<!-- Node3 -->
<g id="node3" class="node"><title>Node3</title>
<polygon fill="none" stroke="#bfbfbf" points="104,-0.5 104,-19.5 180,-19.5 180,-0.5 104,-0.5"/>
<text text-anchor="middle" x="142" y="-7.5" font-family="Helvetica,sans-Serif" font-size="10.00">TGeoMatrix.h</text>
</g>
<!-- Node1&#45;&gt;Node3 -->
<g id="edge2" class="edge"><title>Node1&#45;&gt;Node3</title>
<path fill="none" stroke="midnightblue" d="M605.438,-74.7109C515.773,-64.7053 345.342,-44.664 190.369,-20.1375"/>
<polygon fill="midnightblue" stroke="midnightblue" points="190.611,-16.6319 180.185,-18.5155 189.51,-23.5448 190.611,-16.6319"/>
</g>
<!-- Node4 -->
<g id="node4" class="node"><title>Node4</title>
<polygon fill="none" stroke="#bfbfbf" points="198,-0.5 198,-19.5 322,-19.5 322,-0.5 198,-0.5"/>
<text text-anchor="middle" x="260" y="-7.5" font-family="Helvetica,sans-Serif" font-size="10.00">TGeoCompositeShape.h</text>
</g>
<!-- Node1&#45;&gt;Node4 -->
<g id="edge3" class="edge"><title>Node1&#45;&gt;Node4</title>
<path fill="none" stroke="midnightblue" d="M605.144,-70.6389C527.275,-57.1836 395.591,-34.4294 319.37,-21.2589"/>
<polygon fill="midnightblue" stroke="midnightblue" points="319.899,-17.7984 309.449,-19.5445 318.707,-24.6962 319.899,-17.7984"/>
</g>
<!-- Node5 -->
<g id="node5" class="node"><title>Node5</title>
<polygon fill="none" stroke="#bfbfbf" points="340.5,-0.5 340.5,-19.5 417.5,-19.5 417.5,-0.5 340.5,-0.5"/>
<text text-anchor="middle" x="379" y="-7.5" font-family="Helvetica,sans-Serif" font-size="10.00">TGeoShape.h</text>
</g>
<!-- Node1&#45;&gt;Node5 -->
<g id="edge4" class="edge"><title>Node1&#45;&gt;Node5</title>
<path fill="none" stroke="midnightblue" d="M605.291,-66.2025C550.581,-52.8563 472.547,-33.8202 423.881,-21.9485"/>
<polygon fill="midnightblue" stroke="midnightblue" points="424.506,-18.4984 413.961,-19.5286 422.847,-25.2989 424.506,-18.4984"/>
</g>
<!-- Node6 -->
<g id="node6" class="node"><title>Node6</title>
<polygon fill="none" stroke="#bfbfbf" points="436,-0.5 436,-19.5 508,-19.5 508,-0.5 436,-0.5"/>
<text text-anchor="middle" x="472" y="-7.5" font-family="Helvetica,sans-Serif" font-size="10.00">TGeoCone.h</text>
</g>
<!-- Node1&#45;&gt;Node6 -->
<g id="edge5" class="edge"><title>Node1&#45;&gt;Node6</title>
<path fill="none" stroke="midnightblue" d="M605.445,-58.9995C572.319,-47.0841 532.947,-32.9224 505.592,-23.083"/>
<polygon fill="midnightblue" stroke="midnightblue" points="506.686,-19.7569 496.092,-19.6657 504.317,-26.3438 506.686,-19.7569"/>
</g>
<!-- Node7 -->
<g id="node7" class="node"><title>Node7</title>
<polygon fill="none" stroke="#bfbfbf" points="526,-0.5 526,-19.5 608,-19.5 608,-0.5 526,-0.5"/>
<text text-anchor="middle" x="567" y="-7.5" font-family="Helvetica,sans-Serif" font-size="10.00">TGeoVolume.h</text>
</g>
<!-- Node1&#45;&gt;Node7 -->
<g id="edge6" class="edge"><title>Node1&#45;&gt;Node7</title>
<path fill="none" stroke="midnightblue" d="M632.107,-56.4458C617.324,-46.1272 600.714,-34.5333 587.971,-25.6384"/>
<polygon fill="midnightblue" stroke="midnightblue" points="589.661,-22.5493 579.457,-19.6955 585.654,-28.2892 589.661,-22.5493"/>
</g>
<!-- Node8 -->
<g id="node8" class="node"><title>Node8</title>
<polygon fill="none" stroke="#bfbfbf" points="626.5,-0.5 626.5,-19.5 709.5,-19.5 709.5,-0.5 626.5,-0.5"/>
<text text-anchor="middle" x="668" y="-7.5" font-family="Helvetica,sans-Serif" font-size="10.00">TGeoMaterial.h</text>
</g>
<!-- Node1&#45;&gt;Node8 -->
<g id="edge7" class="edge"><title>Node1&#45;&gt;Node8</title>
<path fill="none" stroke="midnightblue" d="M668,-56.4458C668,-47.7301 668,-38.1045 668,-29.9641"/>
<polygon fill="midnightblue" stroke="midnightblue" points="671.5,-29.6954 668,-19.6955 664.5,-29.6955 671.5,-29.6954"/>
</g>
<!-- Node9 -->
<g id="node9" class="node"><title>Node9</title>
<polygon fill="none" stroke="#bfbfbf" points="727.5,-0.5 727.5,-19.5 810.5,-19.5 810.5,-0.5 727.5,-0.5"/>
<text text-anchor="middle" x="769" y="-7.5" font-family="Helvetica,sans-Serif" font-size="10.00">TGeoMedium.h</text>
</g>
<!-- Node1&#45;&gt;Node9 -->
<g id="edge8" class="edge"><title>Node1&#45;&gt;Node9</title>
<path fill="none" stroke="midnightblue" d="M703.893,-56.4458C718.676,-46.1272 735.286,-34.5333 748.029,-25.6384"/>
<polygon fill="midnightblue" stroke="midnightblue" points="750.346,-28.2892 756.543,-19.6955 746.339,-22.5493 750.346,-28.2892"/>
</g>
<!-- Node10 -->
<g id="node10" class="node"><title>Node10</title>
<polygon fill="none" stroke="#bfbfbf" points="828.5,-0.5 828.5,-19.5 899.5,-19.5 899.5,-0.5 828.5,-0.5"/>
<text text-anchor="middle" x="864" y="-7.5" font-family="Helvetica,sans-Serif" font-size="10.00">TGeoTube.h</text>
</g>
<!-- Node1&#45;&gt;Node10 -->
<g id="edge9" class="edge"><title>Node1&#45;&gt;Node10</title>
<path fill="none" stroke="midnightblue" d="M730.555,-58.9995C763.681,-47.0841 803.053,-32.9224 830.408,-23.083"/>
<polygon fill="midnightblue" stroke="midnightblue" points="831.683,-26.3438 839.908,-19.6657 829.314,-19.7569 831.683,-26.3438"/>
</g>
<!-- Node11 -->
<g id="node11" class="node"><title>Node11</title>
<polygon fill="none" stroke="#bfbfbf" points="918,-0.5 918,-19.5 986,-19.5 986,-0.5 918,-0.5"/>
<text text-anchor="middle" x="952" y="-7.5" font-family="Helvetica,sans-Serif" font-size="10.00">TGeoTrd1.h</text>
</g>
<!-- Node1&#45;&gt;Node11 -->
<g id="edge10" class="edge"><title>Node1&#45;&gt;Node11</title>
<path fill="none" stroke="midnightblue" d="M730.677,-65.9412C784.397,-52.6056 860.419,-33.734 907.929,-21.9401"/>
<polygon fill="midnightblue" stroke="midnightblue" points="909.045,-25.2695 917.907,-19.4633 907.358,-18.4757 909.045,-25.2695"/>
</g>
<!-- Node12 -->
<g id="node12" class="node"><title>Node12</title>
<polygon fill="none" stroke="#bfbfbf" points="1004.5,-0.5 1004.5,-19.5 1057.5,-19.5 1057.5,-0.5 1004.5,-0.5"/>
<text text-anchor="middle" x="1031" y="-7.5" font-family="Helvetica,sans-Serif" font-size="10.00">TMath.h</text>
</g>
<!-- Node1&#45;&gt;Node12 -->
<g id="edge11" class="edge"><title>Node1&#45;&gt;Node12</title>
<path fill="none" stroke="midnightblue" d="M730.606,-70.8588C794.397,-59.7601 896.39,-41.3122 994.24,-20.0596"/>
<polygon fill="midnightblue" stroke="midnightblue" points="995.283,-23.4144 1004.3,-17.8602 993.788,-16.5758 995.283,-23.4144"/>
</g>
<!-- Node13 -->
<g id="node13" class="node"><title>Node13</title>
<polygon fill="none" stroke="#bfbfbf" points="1075.5,-0.5 1075.5,-19.5 1142.5,-19.5 1142.5,-0.5 1075.5,-0.5"/>
<text text-anchor="middle" x="1109" y="-7.5" font-family="Helvetica,sans-Serif" font-size="10.00">TGeoXtru.h</text>
</g>
<!-- Node1&#45;&gt;Node13 -->
<g id="edge12" class="edge"><title>Node1&#45;&gt;Node13</title>
<path fill="none" stroke="midnightblue" d="M730.733,-72.9814C807.408,-62.3123 941.316,-42.85 1065.08,-20.2799"/>
<polygon fill="midnightblue" stroke="midnightblue" points="1065.9,-23.6867 1075.11,-18.4395 1064.64,-16.8016 1065.9,-23.6867"/>
</g>
<!-- Node14 -->
<g id="node14" class="node"><title>Node14</title>
<g id="a_node14"><a xlink:href="../../da/dc5/HalfCone_8h.html" target="_top" xlink:title="Class building geometry of one half of one MFT half&#45;cone. ">
<polygon fill="none" stroke="black" points="1161,-0.5 1161,-19.5 1273,-19.5 1273,-0.5 1161,-0.5"/>
<text text-anchor="middle" x="1217" y="-7.5" font-family="Helvetica,sans-Serif" font-size="10.00">MFTBase/HalfCone.h</text>
</a>
</g>
</g>
<!-- Node1&#45;&gt;Node14 -->
<g id="edge13" class="edge"><title>Node1&#45;&gt;Node14</title>
<path fill="none" stroke="midnightblue" d="M730.682,-73.7628C820.995,-62.5643 993.256,-41.0165 1150.64,-20.1685"/>
<polygon fill="midnightblue" stroke="midnightblue" points="1151.53,-23.581 1160.99,-18.7964 1150.61,-16.6418 1151.53,-23.581"/>
</g>
</g>
</svg>
