<?xml version="1.0" encoding="UTF-8" standalone="no"?>
<!DOCTYPE svg PUBLIC "-//W3C//DTD SVG 1.1//EN"
 "http://www.w3.org/Graphics/SVG/1.1/DTD/svg11.dtd">
<!-- Generated by graphviz version 2.38.0 (20140413.2041)
 -->
<!-- Title: gpucf::CompareClusters Pages: 1 -->
<svg width="131pt" height="237pt"
 viewBox="0.00 0.00 131.00 237.00" xmlns="http://www.w3.org/2000/svg" xmlns:xlink="http://www.w3.org/1999/xlink">
<g id="graph0" class="graph" transform="scale(1 1) rotate(0) translate(4 233)">
<title>gpucf::CompareClusters</title>
<!-- Node1 -->
<g id="node1" class="node"><title>Node1</title>
<polygon fill="#bfbfbf" stroke="black" points="0,-0.5 0,-79.5 123,-79.5 123,-0.5 0,-0.5"/>
<text text-anchor="middle" x="61.5" y="-67.5" font-family="Helvetica,sans-Serif" font-size="10.00">gpucf::CompareClusters</text>
<polyline fill="none" stroke="black" points="0,-60.5 123,-60.5 "/>
<text text-anchor="middle" x="61.5" y="-48.5" font-family="Helvetica,sans-Serif" font-size="10.00"> </text>
<polyline fill="none" stroke="black" points="0,-41.5 123,-41.5 "/>
<text text-anchor="start" x="8" y="-29.5" font-family="Helvetica,sans-Serif" font-size="10.00">+ CompareClusters()</text>
<text text-anchor="start" x="8" y="-18.5" font-family="Helvetica,sans-Serif" font-size="10.00"># setupFlags()</text>
<text text-anchor="start" x="8" y="-7.5" font-family="Helvetica,sans-Serif" font-size="10.00"># mainImpl()</text>
</g>
<!-- Node2 -->
<g id="node2" class="node"><title>Node2</title>
<g id="a_node2"><a xlink:href="../../d2/d5f/classgpucf_1_1Executable.html" target="_top" xlink:title="{gpucf::Executable\n||+ Executable()\l+ ~Executable()\l+ main()\l+ showHelpAndExit()\l# setupFlags()\l# mainImpl()\l}">
<polygon fill="none" stroke="black" points="6.5,-116.5 6.5,-228.5 116.5,-228.5 116.5,-116.5 6.5,-116.5"/>
<text text-anchor="middle" x="61.5" y="-216.5" font-family="Helvetica,sans-Serif" font-size="10.00">gpucf::Executable</text>
<polyline fill="none" stroke="black" points="6.5,-209.5 116.5,-209.5 "/>
<text text-anchor="middle" x="61.5" y="-197.5" font-family="Helvetica,sans-Serif" font-size="10.00"> </text>
<polyline fill="none" stroke="black" points="6.5,-190.5 116.5,-190.5 "/>
<text text-anchor="start" x="14.5" y="-178.5" font-family="Helvetica,sans-Serif" font-size="10.00">+ Executable()</text>
<text text-anchor="start" x="14.5" y="-167.5" font-family="Helvetica,sans-Serif" font-size="10.00">+ ~Executable()</text>
<text text-anchor="start" x="14.5" y="-156.5" font-family="Helvetica,sans-Serif" font-size="10.00">+ main()</text>
<text text-anchor="start" x="14.5" y="-145.5" font-family="Helvetica,sans-Serif" font-size="10.00">+ showHelpAndExit()</text>
<text text-anchor="start" x="14.5" y="-134.5" font-family="Helvetica,sans-Serif" font-size="10.00"># setupFlags()</text>
<text text-anchor="start" x="14.5" y="-123.5" font-family="Helvetica,sans-Serif" font-size="10.00"># mainImpl()</text>
</a>
</g>
</g>
<!-- Node2&#45;&gt;Node1 -->
<g id="edge1" class="edge"><title>Node2&#45;&gt;Node1</title>
<path fill="none" stroke="midnightblue" d="M61.5,-106.056C61.5,-97.0806 61.5,-88.1097 61.5,-79.823"/>
<polygon fill="none" stroke="midnightblue" points="58.0001,-106.156 61.5,-116.156 65.0001,-106.156 58.0001,-106.156"/>
</g>
</g>
</svg>
