<?xml version="1.0" encoding="UTF-8" standalone="no"?>
<!DOCTYPE svg PUBLIC "-//W3C//DTD SVG 1.1//EN"
 "http://www.w3.org/Graphics/SVG/1.1/DTD/svg11.dtd">
<!-- Generated by graphviz version 2.38.0 (20140413.2041)
 -->
<!-- Title: /home/travis/build/AliceO2Group/AliceO2/GPU/GPUTracking/gpucf/src/gpucf/debug/SCFuzzer.h Pages: 1 -->
<!--zoomable 285 -->
<svg id="main" version="1.1" xmlns="http://www.w3.org/2000/svg" xmlns:xlink="http://www.w3.org/1999/xlink" xml:space="preserve" onload="init(evt)">
<style type="text/css"><![CDATA[
.edge:hover path { stroke: red; }
.edge:hover polygon { stroke: red; fill: red; }
]]></style>
<script type="text/javascript"><![CDATA[
var edges = document.getElementsByTagName('g');
if (edges && edges.length) {
  for (var i=0;i<edges.length;i++) {
    if (edges[i].id.substr(0,4)=='edge') {
      edges[i].setAttribute('class','edge');
    }
  }
}
]]></script>
        <defs>
                <circle id="rim" cx="0" cy="0" r="7"/>
                <circle id="rim2" cx="0" cy="0" r="3.5"/>
                <g id="zoomPlus">
                        <use xlink:href="#rim" fill="#404040">
                                <set attributeName="fill" to="#808080" begin="zoomplus.mouseover" end="zoomplus.mouseout"/>
                        </use>
                        <path d="M-4,0h8M0,-4v8" fill="none" stroke="white" stroke-width="1.5" pointer-events="none"/>
                </g>
                <g id="zoomMin">
                        <use xlink:href="#rim" fill="#404040">
                                <set attributeName="fill" to="#808080" begin="zoomminus.mouseover" end="zoomminus.mouseout"/>
                        </use>
                        <path d="M-4,0h8" fill="none" stroke="white" stroke-width="1.5" pointer-events="none"/>
                </g>
                <g id="dirArrow">
                        <path fill="none" stroke="white" stroke-width="1.5" d="M0,-3.0v7 M-2.5,-0.5L0,-3.0L2.5,-0.5"/>
                </g>
               <g id="resetDef">
                       <use xlink:href="#rim2" fill="#404040">
                               <set attributeName="fill" to="#808080" begin="reset.mouseover" end="reset.mouseout"/>
                       </use>
               </g>
        </defs>

<script type="text/javascript">
var viewWidth = 669;
var viewHeight = 285;
var sectionId = 'dynsection-0';
</script>
<script xlink:href="../../svgpan.js"/>
<svg id="graph" class="graph">
<g id="viewport">
<title>/home/travis/build/AliceO2Group/AliceO2/GPU/GPUTracking/gpucf/src/gpucf/debug/SCFuzzer.h</title>
<!-- Node1 -->
<g id="node1" class="node"><title>Node1</title>
<polygon fill="#bfbfbf" stroke="black" points="30,-224.5 30,-276.5 175,-276.5 175,-224.5 30,-224.5"/>
<text text-anchor="start" x="38" y="-264.5" font-family="Helvetica,sans-Serif" font-size="10.00">/home/travis/build</text>
<text text-anchor="start" x="38" y="-253.5" font-family="Helvetica,sans-Serif" font-size="10.00">/AliceO2Group/AliceO2</text>
<text text-anchor="start" x="38" y="-242.5" font-family="Helvetica,sans-Serif" font-size="10.00">/GPU/GPUTracking/gpucf</text>
<text text-anchor="middle" x="102.5" y="-231.5" font-family="Helvetica,sans-Serif" font-size="10.00">/src/gpucf/debug/SCFuzzer.h</text>
</g>
<!-- Node2 -->
<g id="node2" class="node"><title>Node2</title>
<g id="a_node2"><a xlink:href="../../da/dee/StreamCompaction_8h.html" target="_top" xlink:title="gpucf/algorithms/StreamCompaction.h">
<polygon fill="none" stroke="black" points="86.5,-168.5 86.5,-187.5 270.5,-187.5 270.5,-168.5 86.5,-168.5"/>
<text text-anchor="middle" x="178.5" y="-175.5" font-family="Helvetica,sans-Serif" font-size="10.00">gpucf/algorithms/StreamCompaction.h</text>
</a>
</g>
</g>
<!-- Node1&#45;&gt;Node2 -->
<g id="edge1" class="edge"><title>Node1&#45;&gt;Node2</title>
<path fill="none" stroke="midnightblue" d="M129.509,-224.446C140.2,-214.528 152.162,-203.432 161.59,-194.687"/>
<polygon fill="midnightblue" stroke="midnightblue" points="164.175,-197.062 169.126,-187.695 159.414,-191.93 164.175,-197.062"/>
</g>
<!-- Node7 -->
<g id="node7" class="node"><title>Node7</title>
<polygon fill="none" stroke="#bfbfbf" points="0,-56.5 0,-75.5 53,-75.5 53,-56.5 0,-56.5"/>
<text text-anchor="middle" x="26.5" y="-63.5" font-family="Helvetica,sans-Serif" font-size="10.00">CL/cl2.h</text>
</g>
<!-- Node1&#45;&gt;Node7 -->
<g id="edge17" class="edge"><title>Node1&#45;&gt;Node7</title>
<path fill="none" stroke="midnightblue" d="M88.7879,-224.375C76.3722,-200.948 58.1434,-164.79 45.5,-132 39.5518,-116.574 34.4053,-98.4817 30.9745,-85.3074"/>
<polygon fill="midnightblue" stroke="midnightblue" points="34.3564,-84.404 28.5163,-75.564 27.5691,-86.1164 34.3564,-84.404"/>
</g>
<!-- Node3 -->
<g id="node3" class="node"><title>Node3</title>
<g id="a_node3"><a xlink:href="../../d6/d8d/Event_8h.html" target="_top" xlink:title="gpucf/common/Event.h">
<polygon fill="none" stroke="black" points="152.5,-112.5 152.5,-131.5 270.5,-131.5 270.5,-112.5 152.5,-112.5"/>
<text text-anchor="middle" x="211.5" y="-119.5" font-family="Helvetica,sans-Serif" font-size="10.00">gpucf/common/Event.h</text>
</a>
</g>
</g>
<!-- Node2&#45;&gt;Node3 -->
<g id="edge2" class="edge"><title>Node2&#45;&gt;Node3</title>
<path fill="none" stroke="midnightblue" d="M183.949,-168.083C188.514,-160.613 195.168,-149.724 200.793,-140.52"/>
<polygon fill="midnightblue" stroke="midnightblue" points="203.924,-142.109 206.152,-131.751 197.951,-138.459 203.924,-142.109"/>
</g>
<!-- Node2&#45;&gt;Node7 -->
<g id="edge14" class="edge"><title>Node2&#45;&gt;Node7</title>
<path fill="none" stroke="midnightblue" d="M169.865,-168.392C156.524,-155.336 129.793,-130.133 104.5,-112 87.9807,-100.157 68.1218,-88.7359 52.5765,-80.3635"/>
<polygon fill="midnightblue" stroke="midnightblue" points="53.9983,-77.156 43.5232,-75.5679 50.7216,-83.3418 53.9983,-77.156"/>
</g>
<!-- Node8 -->
<g id="node8" class="node"><title>Node8</title>
<g id="a_node8"><a xlink:href="../../d7/d88/Measurements_8h.html" target="_top" xlink:title="gpucf/common/Measurements.h">
<polygon fill="none" stroke="black" points="362,-112.5 362,-131.5 519,-131.5 519,-112.5 362,-112.5"/>
<text text-anchor="middle" x="440.5" y="-119.5" font-family="Helvetica,sans-Serif" font-size="10.00">gpucf/common/Measurements.h</text>
</a>
</g>
</g>
<!-- Node2&#45;&gt;Node8 -->
<g id="edge7" class="edge"><title>Node2&#45;&gt;Node8</title>
<path fill="none" stroke="midnightblue" d="M220.015,-168.444C265.912,-158.984 339.88,-143.738 389.326,-133.547"/>
<polygon fill="midnightblue" stroke="midnightblue" points="390.092,-136.963 399.18,-131.516 388.679,-130.107 390.092,-136.963"/>
</g>
<!-- Node13 -->
<g id="node13" class="node"><title>Node13</title>
<polygon fill="none" stroke="#bfbfbf" points="339.5,-56.5 339.5,-75.5 383.5,-75.5 383.5,-56.5 339.5,-56.5"/>
<text text-anchor="middle" x="361.5" y="-63.5" font-family="Helvetica,sans-Serif" font-size="10.00">vector</text>
</g>
<!-- Node2&#45;&gt;Node13 -->
<g id="edge16" class="edge"><title>Node2&#45;&gt;Node13</title>
<path fill="none" stroke="midnightblue" d="M202.194,-168.399C223.21,-160.32 254.38,-147.219 279.5,-132 303.58,-117.411 328.558,-96.663 344.521,-82.5604"/>
<polygon fill="midnightblue" stroke="midnightblue" points="346.886,-85.1411 351.995,-75.8593 342.213,-79.9294 346.886,-85.1411"/>
</g>
<!-- Node14 -->
<g id="node14" class="node"><title>Node14</title>
<polygon fill="none" stroke="#bfbfbf" points="55,-112.5 55,-131.5 96,-131.5 96,-112.5 55,-112.5"/>
<text text-anchor="middle" x="75.5" y="-119.5" font-family="Helvetica,sans-Serif" font-size="10.00">stack</text>
</g>
<!-- Node2&#45;&gt;Node14 -->
<g id="edge15" class="edge"><title>Node2&#45;&gt;Node14</title>
<path fill="none" stroke="midnightblue" d="M161.951,-168.324C145.508,-159.703 120.065,-146.364 101.032,-136.386"/>
<polygon fill="midnightblue" stroke="midnightblue" points="102.489,-133.198 92.0077,-131.655 99.2391,-139.398 102.489,-133.198"/>
</g>
<!-- Node4 -->
<g id="node4" class="node"><title>Node4</title>
<g id="a_node4"><a xlink:href="../../d7/d66/Timestamp_8h.html" target="_top" xlink:title="gpucf/common/Timestamp.h">
<polygon fill="none" stroke="black" points="180,-56.5 180,-75.5 321,-75.5 321,-56.5 180,-56.5"/>
<text text-anchor="middle" x="250.5" y="-63.5" font-family="Helvetica,sans-Serif" font-size="10.00">gpucf/common/Timestamp.h</text>
</a>
</g>
</g>
<!-- Node3&#45;&gt;Node4 -->
<g id="edge3" class="edge"><title>Node3&#45;&gt;Node4</title>
<path fill="none" stroke="midnightblue" d="M217.94,-112.083C223.449,-104.455 231.531,-93.2645 238.265,-83.9408"/>
<polygon fill="midnightblue" stroke="midnightblue" points="241.162,-85.9071 244.18,-75.7511 235.487,-81.8087 241.162,-85.9071"/>
</g>
<!-- Node6 -->
<g id="node6" class="node"><title>Node6</title>
<polygon fill="none" stroke="#bfbfbf" points="71,-56.5 71,-75.5 162,-75.5 162,-56.5 71,-56.5"/>
<text text-anchor="middle" x="116.5" y="-63.5" font-family="Helvetica,sans-Serif" font-size="10.00">nonstd/optional.h</text>
</g>
<!-- Node3&#45;&gt;Node6 -->
<g id="edge5" class="edge"><title>Node3&#45;&gt;Node6</title>
<path fill="none" stroke="midnightblue" d="M196.237,-112.324C181.279,-103.822 158.245,-90.7288 140.773,-80.7975"/>
<polygon fill="midnightblue" stroke="midnightblue" points="142.149,-77.5534 131.726,-75.6545 138.69,-83.639 142.149,-77.5534"/>
</g>
<!-- Node3&#45;&gt;Node7 -->
<g id="edge6" class="edge"><title>Node3&#45;&gt;Node7</title>
<path fill="none" stroke="midnightblue" d="M182.186,-112.444C149.916,-103.024 97.9917,-87.8679 63.08,-77.6774"/>
<polygon fill="midnightblue" stroke="midnightblue" points="63.8541,-74.2574 53.274,-74.8151 61.8927,-80.977 63.8541,-74.2574"/>
</g>
<!-- Node5 -->
<g id="node5" class="node"><title>Node5</title>
<polygon fill="none" stroke="#bfbfbf" points="206,-0.5 206,-19.5 295,-19.5 295,-0.5 206,-0.5"/>
<text text-anchor="middle" x="250.5" y="-7.5" font-family="Helvetica,sans-Serif" font-size="10.00">CL/cl_platform.h</text>
</g>
<!-- Node4&#45;&gt;Node5 -->
<g id="edge4" class="edge"><title>Node4&#45;&gt;Node5</title>
<path fill="none" stroke="midnightblue" d="M250.5,-56.083C250.5,-49.0059 250.5,-38.8611 250.5,-29.9865"/>
<polygon fill="midnightblue" stroke="midnightblue" points="254,-29.751 250.5,-19.7511 247,-29.7511 254,-29.751"/>
</g>
<!-- Node8&#45;&gt;Node4 -->
<g id="edge8" class="edge"><title>Node8&#45;&gt;Node4</title>
<path fill="none" stroke="midnightblue" d="M410.394,-112.444C377.874,-103.201 325.921,-88.4356 290.109,-78.2572"/>
<polygon fill="midnightblue" stroke="midnightblue" points="291.041,-74.8837 280.465,-75.5164 289.127,-81.617 291.041,-74.8837"/>
</g>
<!-- Node9 -->
<g id="node9" class="node"><title>Node9</title>
<polygon fill="none" stroke="#bfbfbf" points="401.5,-56.5 401.5,-75.5 479.5,-75.5 479.5,-56.5 401.5,-56.5"/>
<text text-anchor="middle" x="440.5" y="-63.5" font-family="Helvetica,sans-Serif" font-size="10.00">nonstd/span.h</text>
</g>
<!-- Node8&#45;&gt;Node9 -->
<g id="edge9" class="edge"><title>Node8&#45;&gt;Node9</title>
<path fill="none" stroke="midnightblue" d="M440.5,-112.083C440.5,-105.006 440.5,-94.8611 440.5,-85.9865"/>
<polygon fill="midnightblue" stroke="midnightblue" points="444,-85.751 440.5,-75.7511 437,-85.7511 444,-85.751"/>
</g>
<!-- Node10 -->
<g id="node10" class="node"><title>Node10</title>
<polygon fill="none" stroke="#bfbfbf" points="498,-56.5 498,-75.5 543,-75.5 543,-56.5 498,-56.5"/>
<text text-anchor="middle" x="520.5" y="-63.5" font-family="Helvetica,sans-Serif" font-size="10.00">iosfwd</text>
</g>
<!-- Node8&#45;&gt;Node10 -->
<g id="edge10" class="edge"><title>Node8&#45;&gt;Node10</title>
<path fill="none" stroke="midnightblue" d="M453.353,-112.324C465.716,-103.979 484.63,-91.2122 499.237,-81.3524"/>
<polygon fill="midnightblue" stroke="midnightblue" points="501.348,-84.1503 507.679,-75.6545 497.432,-78.3483 501.348,-84.1503"/>
</g>
<!-- Node11 -->
<g id="node11" class="node"><title>Node11</title>
<polygon fill="none" stroke="#bfbfbf" points="561,-56.5 561,-75.5 602,-75.5 602,-56.5 561,-56.5"/>
<text text-anchor="middle" x="581.5" y="-63.5" font-family="Helvetica,sans-Serif" font-size="10.00">string</text>
</g>
<!-- Node8&#45;&gt;Node11 -->
<g id="edge11" class="edge"><title>Node8&#45;&gt;Node11</title>
<path fill="none" stroke="midnightblue" d="M462.842,-112.444C486.666,-103.319 524.545,-88.8125 551.08,-78.6501"/>
<polygon fill="midnightblue" stroke="midnightblue" points="552.555,-81.8333 560.642,-74.9883 550.051,-75.2963 552.555,-81.8333"/>
</g>
<!-- Node12 -->
<g id="node12" class="node"><title>Node12</title>
<polygon fill="none" stroke="#bfbfbf" points="620.5,-56.5 620.5,-75.5 660.5,-75.5 660.5,-56.5 620.5,-56.5"/>
<text text-anchor="middle" x="640.5" y="-63.5" font-family="Helvetica,sans-Serif" font-size="10.00">utility</text>
</g>
<!-- Node8&#45;&gt;Node12 -->
<g id="edge12" class="edge"><title>Node8&#45;&gt;Node12</title>
<path fill="none" stroke="midnightblue" d="M474.686,-112.471C507.263,-104.24 557.909,-91.1771 610.428,-76.2211"/>
<polygon fill="midnightblue" stroke="midnightblue" points="611.603,-79.5255 620.252,-73.4072 609.675,-72.7961 611.603,-79.5255"/>
</g>
<!-- Node8&#45;&gt;Node13 -->
<g id="edge13" class="edge"><title>Node8&#45;&gt;Node13</title>
<path fill="none" stroke="midnightblue" d="M427.807,-112.324C415.599,-103.979 396.922,-91.2122 382.497,-81.3524"/>
<polygon fill="midnightblue" stroke="midnightblue" points="384.392,-78.4082 374.161,-75.6545 380.442,-84.1871 384.392,-78.4082"/>
</g>
</g>
</svg>
        <g id="navigator" transform="translate(0 0)" fill="#404254">
                <rect fill="#f2f5e9" fill-opacity="0.5" stroke="#606060" stroke-width=".5" x="0" y="0" width="60" height="60"/>
                <use id="zoomplus" xlink:href="#zoomPlus" x="17" y="9" onmousedown="handleZoom(evt,'in')"/>
                <use id="zoomminus" xlink:href="#zoomMin" x="42" y="9" onmousedown="handleZoom(evt,'out')"/>
                <use id="reset" xlink:href="#resetDef" x="30" y="36" onmousedown="handleReset()"/>
                <g id="arrowUp" xlink:href="#dirArrow" transform="translate(30 24)" onmousedown="handlePan(0,-1)">
                  <use xlink:href="#rim" fill="#404040">
                        <set attributeName="fill" to="#808080" begin="arrowUp.mouseover" end="arrowUp.mouseout"/>
                  </use>
                  <path fill="none" stroke="white" stroke-width="1.5" d="M0,-3.0v7 M-2.5,-0.5L0,-3.0L2.5,-0.5"/>
                </g>
                <g id="arrowRight" xlink:href="#dirArrow" transform="rotate(90) translate(36 -43)" onmousedown="handlePan(1,0)">
                  <use xlink:href="#rim" fill="#404040">
                        <set attributeName="fill" to="#808080" begin="arrowRight.mouseover" end="arrowRight.mouseout"/>
                  </use>
                  <path fill="none" stroke="white" stroke-width="1.5" d="M0,-3.0v7 M-2.5,-0.5L0,-3.0L2.5,-0.5"/>
                </g>
                <g id="arrowDown" xlink:href="#dirArrow" transform="rotate(180) translate(-30 -48)" onmousedown="handlePan(0,1)">
                  <use xlink:href="#rim" fill="#404040">
                        <set attributeName="fill" to="#808080" begin="arrowDown.mouseover" end="arrowDown.mouseout"/>
                  </use>
                  <path fill="none" stroke="white" stroke-width="1.5" d="M0,-3.0v7 M-2.5,-0.5L0,-3.0L2.5,-0.5"/>
                </g>
                <g id="arrowLeft" xlink:href="#dirArrow" transform="rotate(270) translate(-36 17)" onmousedown="handlePan(-1,0)">
                  <use xlink:href="#rim" fill="#404040">
                        <set attributeName="fill" to="#808080" begin="arrowLeft.mouseover" end="arrowLeft.mouseout"/>
                  </use>
                  <path fill="none" stroke="white" stroke-width="1.5" d="M0,-3.0v7 M-2.5,-0.5L0,-3.0L2.5,-0.5"/>
                </g>
        </g>
        <svg viewBox="0 0 15 15" width="100%" height="30px" preserveAspectRatio="xMaxYMin meet">
         <g id="arrow_out" transform="scale(0.3 0.3)">
          <a xlink:href="SCFuzzer_8h__incl_org.svg" target="_base">
           <rect id="button" ry="5" rx="5" y="6" x="6" height="38" width="38"
                fill="#f2f5e9" fill-opacity="0.5" stroke="#606060" stroke-width="1.0"/>
           <path id="arrow"
             d="M 11.500037,31.436501 C 11.940474,20.09759 22.043105,11.32322 32.158766,21.979434 L 37.068811,17.246167 C 37.068811,17.246167 37.088388,32 37.088388,32 L 22.160133,31.978069 C 22.160133,31.978069 26.997745,27.140456 26.997745,27.140456 C 18.528582,18.264221 13.291696,25.230495 11.500037,31.436501 z"
             style="fill:#404040;"/>
          </a>
         </g>
        </svg>
</svg>
