<?xml version="1.0" encoding="UTF-8" standalone="no"?>
<!DOCTYPE svg PUBLIC "-//W3C//DTD SVG 1.1//EN"
 "http://www.w3.org/Graphics/SVG/1.1/DTD/svg11.dtd">
<!-- Generated by graphviz version 2.38.0 (20140413.2041)
 -->
<!-- Title: /home/travis/build/AliceO2Group/AliceO2/GPU/GPUTracking/Base/opencl&#45;common/GPUReconstructionOCL.h Pages: 1 -->
<svg width="585pt" height="250pt"
 viewBox="0.00 0.00 584.50 250.00" xmlns="http://www.w3.org/2000/svg" xmlns:xlink="http://www.w3.org/1999/xlink">
<g id="graph0" class="graph" transform="scale(1 1) rotate(0) translate(4 246)">
<title>/home/travis/build/AliceO2Group/AliceO2/GPU/GPUTracking/Base/opencl&#45;common/GPUReconstructionOCL.h</title>
<!-- Node1 -->
<g id="node1" class="node"><title>Node1</title>
<polygon fill="#bfbfbf" stroke="black" points="181.5,-189.5 181.5,-241.5 389.5,-241.5 389.5,-189.5 181.5,-189.5"/>
<text text-anchor="start" x="189.5" y="-229.5" font-family="Helvetica,sans-Serif" font-size="10.00">/home/travis/build</text>
<text text-anchor="start" x="189.5" y="-218.5" font-family="Helvetica,sans-Serif" font-size="10.00">/AliceO2Group/AliceO2</text>
<text text-anchor="start" x="189.5" y="-207.5" font-family="Helvetica,sans-Serif" font-size="10.00">/GPU/GPUTracking/Base</text>
<text text-anchor="middle" x="285.5" y="-196.5" font-family="Helvetica,sans-Serif" font-size="10.00">/opencl&#45;common/GPUReconstructionOCL.h</text>
</g>
<!-- Node2 -->
<g id="node2" class="node"><title>Node2</title>
<g id="a_node2"><a xlink:href="../../d7/d71/GPUReconstructionOCL1_8h.html" target="_top" xlink:title="/home/travis/build\l/AliceO2Group/AliceO2\l/GPU/GPUTracking/Base\l/opencl/GPUReconstructionOCL1.h">
<polygon fill="none" stroke="black" points="5,-95 5,-147 178,-147 178,-95 5,-95"/>
<text text-anchor="start" x="13" y="-135" font-family="Helvetica,sans-Serif" font-size="10.00">/home/travis/build</text>
<text text-anchor="start" x="13" y="-124" font-family="Helvetica,sans-Serif" font-size="10.00">/AliceO2Group/AliceO2</text>
<text text-anchor="start" x="13" y="-113" font-family="Helvetica,sans-Serif" font-size="10.00">/GPU/GPUTracking/Base</text>
<text text-anchor="middle" x="91.5" y="-102" font-family="Helvetica,sans-Serif" font-size="10.00">/opencl/GPUReconstructionOCL1.h</text>
</a>
</g>
</g>
<!-- Node1&#45;&gt;Node2 -->
<g id="edge1" class="edge"><title>Node1&#45;&gt;Node2</title>
<path fill="none" stroke="midnightblue" d="M223.739,-185.052C198.088,-172.822 168.632,-158.777 144.041,-147.052"/>
<polygon fill="midnightblue" stroke="midnightblue" points="222.468,-188.324 233.001,-189.468 225.481,-182.005 222.468,-188.324"/>
</g>
<!-- Node4 -->
<g id="node4" class="node"><title>Node4</title>
<g id="a_node4"><a xlink:href="../../da/db3/GPUReconstructionOCL_8cxx.html" target="_top" xlink:title="/home/travis/build\l/AliceO2Group/AliceO2\l/GPU/GPUTracking/Base\l/opencl&#45;common/GPUReconstruction\lOCL.cxx">
<polygon fill="none" stroke="black" points="196,-89.5 196,-152.5 375,-152.5 375,-89.5 196,-89.5"/>
<text text-anchor="start" x="204" y="-140.5" font-family="Helvetica,sans-Serif" font-size="10.00">/home/travis/build</text>
<text text-anchor="start" x="204" y="-129.5" font-family="Helvetica,sans-Serif" font-size="10.00">/AliceO2Group/AliceO2</text>
<text text-anchor="start" x="204" y="-118.5" font-family="Helvetica,sans-Serif" font-size="10.00">/GPU/GPUTracking/Base</text>
<text text-anchor="start" x="204" y="-107.5" font-family="Helvetica,sans-Serif" font-size="10.00">/opencl&#45;common/GPUReconstruction</text>
<text text-anchor="middle" x="285.5" y="-96.5" font-family="Helvetica,sans-Serif" font-size="10.00">OCL.cxx</text>
</a>
</g>
</g>
<!-- Node1&#45;&gt;Node4 -->
<g id="edge3" class="edge"><title>Node1&#45;&gt;Node4</title>
<path fill="none" stroke="midnightblue" d="M285.5,-178.945C285.5,-170.226 285.5,-160.97 285.5,-152.512"/>
<polygon fill="midnightblue" stroke="midnightblue" points="282,-179.224 285.5,-189.224 289,-179.224 282,-179.224"/>
</g>
<!-- Node5 -->
<g id="node5" class="node"><title>Node5</title>
<g id="a_node5"><a xlink:href="../../d3/dff/GPUReconstructionOCL2_8h.html" target="_top" xlink:title="/home/travis/build\l/AliceO2Group/AliceO2\l/GPU/GPUTracking/Base\l/opencl2/GPUReconstructionOCL2.h">
<polygon fill="none" stroke="black" points="393.5,-95 393.5,-147 571.5,-147 571.5,-95 393.5,-95"/>
<text text-anchor="start" x="401.5" y="-135" font-family="Helvetica,sans-Serif" font-size="10.00">/home/travis/build</text>
<text text-anchor="start" x="401.5" y="-124" font-family="Helvetica,sans-Serif" font-size="10.00">/AliceO2Group/AliceO2</text>
<text text-anchor="start" x="401.5" y="-113" font-family="Helvetica,sans-Serif" font-size="10.00">/GPU/GPUTracking/Base</text>
<text text-anchor="middle" x="482.5" y="-102" font-family="Helvetica,sans-Serif" font-size="10.00">/opencl2/GPUReconstructionOCL2.h</text>
</a>
</g>
</g>
<!-- Node1&#45;&gt;Node5 -->
<g id="edge4" class="edge"><title>Node1&#45;&gt;Node5</title>
<path fill="none" stroke="midnightblue" d="M347.874,-185.213C374.001,-172.945 404.065,-158.828 429.146,-147.052"/>
<polygon fill="midnightblue" stroke="midnightblue" points="346.375,-182.05 338.811,-189.468 349.35,-188.386 346.375,-182.05"/>
</g>
<!-- Node3 -->
<g id="node3" class="node"><title>Node3</title>
<g id="a_node3"><a xlink:href="../../d7/d6f/GPUReconstructionOCL1_8cxx.html" target="_top" xlink:title="/home/travis/build\l/AliceO2Group/AliceO2\l/GPU/GPUTracking/Base\l/opencl/GPUReconstructionOCL1.cxx">
<polygon fill="none" stroke="black" points="0,-0.5 0,-52.5 183,-52.5 183,-0.5 0,-0.5"/>
<text text-anchor="start" x="8" y="-40.5" font-family="Helvetica,sans-Serif" font-size="10.00">/home/travis/build</text>
<text text-anchor="start" x="8" y="-29.5" font-family="Helvetica,sans-Serif" font-size="10.00">/AliceO2Group/AliceO2</text>
<text text-anchor="start" x="8" y="-18.5" font-family="Helvetica,sans-Serif" font-size="10.00">/GPU/GPUTracking/Base</text>
<text text-anchor="middle" x="91.5" y="-7.5" font-family="Helvetica,sans-Serif" font-size="10.00">/opencl/GPUReconstructionOCL1.cxx</text>
</a>
</g>
</g>
<!-- Node2&#45;&gt;Node3 -->
<g id="edge2" class="edge"><title>Node2&#45;&gt;Node3</title>
<path fill="none" stroke="midnightblue" d="M91.5,-84.4934C91.5,-73.9095 91.5,-62.5311 91.5,-52.7455"/>
<polygon fill="midnightblue" stroke="midnightblue" points="88.0001,-84.7239 91.5,-94.724 95.0001,-84.724 88.0001,-84.7239"/>
</g>
<!-- Node6 -->
<g id="node6" class="node"><title>Node6</title>
<g id="a_node6"><a xlink:href="../../d3/d73/GPUReconstructionOCL2_8cxx.html" target="_top" xlink:title="/home/travis/build\l/AliceO2Group/AliceO2\l/GPU/GPUTracking/Base\l/opencl2/GPUReconstructionOCL2.cxx">
<polygon fill="none" stroke="black" points="388.5,-0.5 388.5,-52.5 576.5,-52.5 576.5,-0.5 388.5,-0.5"/>
<text text-anchor="start" x="396.5" y="-40.5" font-family="Helvetica,sans-Serif" font-size="10.00">/home/travis/build</text>
<text text-anchor="start" x="396.5" y="-29.5" font-family="Helvetica,sans-Serif" font-size="10.00">/AliceO2Group/AliceO2</text>
<text text-anchor="start" x="396.5" y="-18.5" font-family="Helvetica,sans-Serif" font-size="10.00">/GPU/GPUTracking/Base</text>
<text text-anchor="middle" x="482.5" y="-7.5" font-family="Helvetica,sans-Serif" font-size="10.00">/opencl2/GPUReconstructionOCL2.cxx</text>
</a>
</g>
</g>
<!-- Node5&#45;&gt;Node6 -->
<g id="edge5" class="edge"><title>Node5&#45;&gt;Node6</title>
<path fill="none" stroke="midnightblue" d="M482.5,-84.4934C482.5,-73.9095 482.5,-62.5311 482.5,-52.7455"/>
<polygon fill="midnightblue" stroke="midnightblue" points="479,-84.7239 482.5,-94.724 486,-84.724 479,-84.7239"/>
</g>
</g>
</svg>
