<?xml version="1.0" encoding="UTF-8" standalone="no"?>
<!DOCTYPE svg PUBLIC "-//W3C//DTD SVG 1.1//EN"
 "http://www.w3.org/Graphics/SVG/1.1/DTD/svg11.dtd">
<!-- Generated by graphviz version 2.38.0 (20140413.2041)
 -->
<!-- Title: /home/travis/build/AliceO2Group/AliceO2/Framework/Core/src/OutputSpec.cxx Pages: 1 -->
<svg width="747pt" height="274pt"
 viewBox="0.00 0.00 747.00 274.00" xmlns="http://www.w3.org/2000/svg" xmlns:xlink="http://www.w3.org/1999/xlink">
<g id="graph0" class="graph" transform="scale(1 1) rotate(0) translate(4 270)">
<title>/home/travis/build/AliceO2Group/AliceO2/Framework/Core/src/OutputSpec.cxx</title>
<!-- Node1 -->
<g id="node1" class="node"><title>Node1</title>
<polygon fill="#bfbfbf" stroke="black" points="146,-224.5 146,-265.5 328,-265.5 328,-224.5 146,-224.5"/>
<text text-anchor="start" x="154" y="-253.5" font-family="Helvetica,sans-Serif" font-size="10.00">/home/travis/build</text>
<text text-anchor="start" x="154" y="-242.5" font-family="Helvetica,sans-Serif" font-size="10.00">/AliceO2Group/AliceO2</text>
<text text-anchor="middle" x="237" y="-231.5" font-family="Helvetica,sans-Serif" font-size="10.00">/Framework/Core/src/OutputSpec.cxx</text>
</g>
<!-- Node2 -->
<g id="node2" class="node"><title>Node2</title>
<g id="a_node2"><a xlink:href="../../db/d2d/OutputSpec_8h.html" target="_top" xlink:title="Framework/OutputSpec.h">
<polygon fill="none" stroke="black" points="219,-168.5 219,-187.5 347,-187.5 347,-168.5 219,-168.5"/>
<text text-anchor="middle" x="283" y="-175.5" font-family="Helvetica,sans-Serif" font-size="10.00">Framework/OutputSpec.h</text>
</a>
</g>
</g>
<!-- Node1&#45;&gt;Node2 -->
<g id="edge1" class="edge"><title>Node1&#45;&gt;Node2</title>
<path fill="none" stroke="midnightblue" d="M250.802,-224.498C257.244,-215.395 264.839,-204.662 271.034,-195.908"/>
<polygon fill="midnightblue" stroke="midnightblue" points="273.957,-197.837 276.877,-187.652 268.243,-193.793 273.957,-197.837"/>
</g>
<!-- Node14 -->
<g id="node14" class="node"><title>Node14</title>
<g id="a_node14"><a xlink:href="../../dc/dca/Lifetime_8h.html" target="_top" xlink:title="Framework/Lifetime.h">
<polygon fill="none" stroke="black" points="135.5,-112.5 135.5,-131.5 246.5,-131.5 246.5,-112.5 135.5,-112.5"/>
<text text-anchor="middle" x="191" y="-119.5" font-family="Helvetica,sans-Serif" font-size="10.00">Framework/Lifetime.h</text>
</a>
</g>
</g>
<!-- Node1&#45;&gt;Node14 -->
<g id="edge17" class="edge"><title>Node1&#45;&gt;Node14</title>
<path fill="none" stroke="midnightblue" d="M226.565,-224.395C221.18,-213.804 214.761,-200.392 210,-188 204.07,-172.567 198.922,-154.475 195.486,-141.303"/>
<polygon fill="midnightblue" stroke="midnightblue" points="198.867,-140.398 193.023,-131.562 192.081,-142.115 198.867,-140.398"/>
</g>
<!-- Node3 -->
<g id="node3" class="node"><title>Node3</title>
<g id="a_node3"><a xlink:href="../../dc/dcd/DataHeader_8h.html" target="_top" xlink:title="Headers/DataHeader.h">
<polygon fill="none" stroke="black" points="273.5,-56.5 273.5,-75.5 390.5,-75.5 390.5,-56.5 273.5,-56.5"/>
<text text-anchor="middle" x="332" y="-63.5" font-family="Helvetica,sans-Serif" font-size="10.00">Headers/DataHeader.h</text>
</a>
</g>
</g>
<!-- Node2&#45;&gt;Node3 -->
<g id="edge2" class="edge"><title>Node2&#45;&gt;Node3</title>
<path fill="none" stroke="midnightblue" d="M283.242,-168.167C283.895,-155.255 286.289,-130.729 295,-112 299.991,-101.27 308.148,-90.9486 315.535,-82.9033"/>
<polygon fill="midnightblue" stroke="midnightblue" points="318.08,-85.306 322.52,-75.686 313.05,-80.438 318.08,-85.306"/>
</g>
<!-- Node2&#45;&gt;Node14 -->
<g id="edge13" class="edge"><title>Node2&#45;&gt;Node14</title>
<path fill="none" stroke="midnightblue" d="M268.219,-168.324C253.733,-159.822 231.427,-146.729 214.507,-136.797"/>
<polygon fill="midnightblue" stroke="midnightblue" points="216.141,-133.698 205.745,-131.655 212.597,-139.735 216.141,-133.698"/>
</g>
<!-- Node15 -->
<g id="node15" class="node"><title>Node15</title>
<g id="a_node15"><a xlink:href="../../d0/d1b/ConcreteDataMatcher_8h.html" target="_top" xlink:title="Framework/ConcreteDataMatcher.h">
<polygon fill="none" stroke="black" points="303.5,-112.5 303.5,-131.5 476.5,-131.5 476.5,-112.5 303.5,-112.5"/>
<text text-anchor="middle" x="390" y="-119.5" font-family="Helvetica,sans-Serif" font-size="10.00">Framework/ConcreteDataMatcher.h</text>
</a>
</g>
</g>
<!-- Node2&#45;&gt;Node15 -->
<g id="edge14" class="edge"><title>Node2&#45;&gt;Node15</title>
<path fill="none" stroke="midnightblue" d="M300.191,-168.324C317.351,-159.664 343.946,-146.242 363.747,-136.249"/>
<polygon fill="midnightblue" stroke="midnightblue" points="365.501,-139.285 372.851,-131.655 362.347,-133.035 365.501,-139.285"/>
</g>
<!-- Node16 -->
<g id="node16" class="node"><title>Node16</title>
<polygon fill="none" stroke="#bfbfbf" points="495,-112.5 495,-131.5 541,-131.5 541,-112.5 495,-112.5"/>
<text text-anchor="middle" x="518" y="-119.5" font-family="Helvetica,sans-Serif" font-size="10.00">variant</text>
</g>
<!-- Node2&#45;&gt;Node16 -->
<g id="edge16" class="edge"><title>Node2&#45;&gt;Node16</title>
<path fill="none" stroke="midnightblue" d="M324.76,-168.457C363.824,-160.306 424.009,-147.343 485.151,-132.108"/>
<polygon fill="midnightblue" stroke="midnightblue" points="486.122,-135.473 494.969,-129.644 484.418,-128.684 486.122,-135.473"/>
</g>
<!-- Node4 -->
<g id="node4" class="node"><title>Node4</title>
<polygon fill="none" stroke="#bfbfbf" points="0,-0.5 0,-19.5 46,-19.5 46,-0.5 0,-0.5"/>
<text text-anchor="middle" x="23" y="-7.5" font-family="Helvetica,sans-Serif" font-size="10.00">cstdint</text>
</g>
<!-- Node3&#45;&gt;Node4 -->
<g id="edge3" class="edge"><title>Node3&#45;&gt;Node4</title>
<path fill="none" stroke="midnightblue" d="M273.272,-57.4248C219.15,-49.9996 136.458,-37.5357 56.1245,-20.0511"/>
<polygon fill="midnightblue" stroke="midnightblue" points="56.8606,-16.6294 46.3415,-17.894 55.3533,-23.4652 56.8606,-16.6294"/>
</g>
<!-- Node5 -->
<g id="node5" class="node"><title>Node5</title>
<polygon fill="none" stroke="#bfbfbf" points="64,-0.5 64,-19.5 116,-19.5 116,-0.5 64,-0.5"/>
<text text-anchor="middle" x="90" y="-7.5" font-family="Helvetica,sans-Serif" font-size="10.00">memory</text>
</g>
<!-- Node3&#45;&gt;Node5 -->
<g id="edge4" class="edge"><title>Node3&#45;&gt;Node5</title>
<path fill="none" stroke="midnightblue" d="M290.658,-56.4906C250.926,-48.206 188.95,-35.006 126.389,-20.2664"/>
<polygon fill="midnightblue" stroke="midnightblue" points="126.884,-16.787 116.347,-17.8881 125.271,-23.5985 126.884,-16.787"/>
</g>
<!-- Node6 -->
<g id="node6" class="node"><title>Node6</title>
<polygon fill="none" stroke="#bfbfbf" points="134.5,-0.5 134.5,-19.5 183.5,-19.5 183.5,-0.5 134.5,-0.5"/>
<text text-anchor="middle" x="159" y="-7.5" font-family="Helvetica,sans-Serif" font-size="10.00">cassert</text>
</g>
<!-- Node3&#45;&gt;Node6 -->
<g id="edge5" class="edge"><title>Node3&#45;&gt;Node6</title>
<path fill="none" stroke="midnightblue" d="M304.588,-56.4435C274.454,-47.0375 225.993,-31.9112 193.347,-21.7212"/>
<polygon fill="midnightblue" stroke="midnightblue" points="194.35,-18.3677 183.762,-18.729 192.264,-25.0497 194.35,-18.3677"/>
</g>
<!-- Node7 -->
<g id="node7" class="node"><title>Node7</title>
<polygon fill="none" stroke="#bfbfbf" points="202,-0.5 202,-19.5 248,-19.5 248,-0.5 202,-0.5"/>
<text text-anchor="middle" x="225" y="-7.5" font-family="Helvetica,sans-Serif" font-size="10.00">cstring</text>
</g>
<!-- Node3&#45;&gt;Node7 -->
<g id="edge6" class="edge"><title>Node3&#45;&gt;Node7</title>
<path fill="none" stroke="midnightblue" d="M314.809,-56.324C297.649,-47.6641 271.054,-34.2424 251.253,-24.249"/>
<polygon fill="midnightblue" stroke="midnightblue" points="252.653,-21.0354 242.149,-19.6545 249.499,-27.2847 252.653,-21.0354"/>
</g>
<!-- Node8 -->
<g id="node8" class="node"><title>Node8</title>
<polygon fill="none" stroke="#bfbfbf" points="266,-0.5 266,-19.5 322,-19.5 322,-0.5 266,-0.5"/>
<text text-anchor="middle" x="294" y="-7.5" font-family="Helvetica,sans-Serif" font-size="10.00">algorithm</text>
</g>
<!-- Node3&#45;&gt;Node8 -->
<g id="edge7" class="edge"><title>Node3&#45;&gt;Node8</title>
<path fill="none" stroke="midnightblue" d="M325.725,-56.083C320.358,-48.4554 312.482,-37.2645 305.921,-27.9408"/>
<polygon fill="midnightblue" stroke="midnightblue" points="308.775,-25.9149 300.158,-19.7511 303.051,-29.9434 308.775,-25.9149"/>
</g>
<!-- Node9 -->
<g id="node9" class="node"><title>Node9</title>
<polygon fill="none" stroke="#bfbfbf" points="340.5,-0.5 340.5,-19.5 399.5,-19.5 399.5,-0.5 340.5,-0.5"/>
<text text-anchor="middle" x="370" y="-7.5" font-family="Helvetica,sans-Serif" font-size="10.00">stdexcept</text>
</g>
<!-- Node3&#45;&gt;Node9 -->
<g id="edge8" class="edge"><title>Node3&#45;&gt;Node9</title>
<path fill="none" stroke="midnightblue" d="M338.275,-56.083C343.642,-48.4554 351.518,-37.2645 358.079,-27.9408"/>
<polygon fill="midnightblue" stroke="midnightblue" points="360.949,-29.9434 363.842,-19.7511 355.225,-25.9149 360.949,-29.9434"/>
</g>
<!-- Node10 -->
<g id="node10" class="node"><title>Node10</title>
<polygon fill="none" stroke="#bfbfbf" points="417.5,-0.5 417.5,-19.5 458.5,-19.5 458.5,-0.5 417.5,-0.5"/>
<text text-anchor="middle" x="438" y="-7.5" font-family="Helvetica,sans-Serif" font-size="10.00">string</text>
</g>
<!-- Node3&#45;&gt;Node10 -->
<g id="edge9" class="edge"><title>Node3&#45;&gt;Node10</title>
<path fill="none" stroke="midnightblue" d="M349.031,-56.324C366.03,-47.6641 392.376,-34.2424 411.993,-24.249"/>
<polygon fill="midnightblue" stroke="midnightblue" points="413.69,-27.3125 421.012,-19.6545 410.512,-21.0752 413.69,-27.3125"/>
</g>
<!-- Node11 -->
<g id="node11" class="node"><title>Node11</title>
<polygon fill="none" stroke="#bfbfbf" points="476.5,-0.5 476.5,-19.5 521.5,-19.5 521.5,-0.5 476.5,-0.5"/>
<text text-anchor="middle" x="499" y="-7.5" font-family="Helvetica,sans-Serif" font-size="10.00">climits</text>
</g>
<!-- Node3&#45;&gt;Node11 -->
<g id="edge10" class="edge"><title>Node3&#45;&gt;Node11</title>
<path fill="none" stroke="midnightblue" d="M358.462,-56.4435C387.84,-46.9439 435.263,-31.6095 466.78,-21.4183"/>
<polygon fill="midnightblue" stroke="midnightblue" points="467.973,-24.7112 476.411,-18.3042 465.819,-18.0507 467.973,-24.7112"/>
</g>
<!-- Node12 -->
<g id="node12" class="node"><title>Node12</title>
<g id="a_node12"><a xlink:href="../../d7/df8/Types_8h.html" target="_top" xlink:title="MemoryResources/Types.h">
<polygon fill="none" stroke="black" points="539.5,-0.5 539.5,-19.5 676.5,-19.5 676.5,-0.5 539.5,-0.5"/>
<text text-anchor="middle" x="608" y="-7.5" font-family="Helvetica,sans-Serif" font-size="10.00">MemoryResources/Types.h</text>
</a>
</g>
</g>
<!-- Node3&#45;&gt;Node12 -->
<g id="edge11" class="edge"><title>Node3&#45;&gt;Node12</title>
<path fill="none" stroke="midnightblue" d="M375.733,-56.4435C424.183,-46.9641 502.329,-31.6747 554.418,-21.4835"/>
<polygon fill="midnightblue" stroke="midnightblue" points="555.33,-24.8715 564.472,-19.5164 553.986,-18.0017 555.33,-24.8715"/>
</g>
<!-- Node13 -->
<g id="node13" class="node"><title>Node13</title>
<polygon fill="none" stroke="#bfbfbf" points="695,-0.5 695,-19.5 739,-19.5 739,-0.5 695,-0.5"/>
<text text-anchor="middle" x="717" y="-7.5" font-family="Helvetica,sans-Serif" font-size="10.00">cerrno</text>
</g>
<!-- Node3&#45;&gt;Node13 -->
<g id="edge12" class="edge"><title>Node3&#45;&gt;Node13</title>
<path fill="none" stroke="midnightblue" d="M390.718,-60.363C459.257,-54.3209 576.082,-42.0701 684.922,-19.9403"/>
<polygon fill="midnightblue" stroke="midnightblue" points="685.668,-23.3601 694.753,-17.9095 684.252,-16.5048 685.668,-23.3601"/>
</g>
<!-- Node15&#45;&gt;Node3 -->
<g id="edge15" class="edge"><title>Node15&#45;&gt;Node3</title>
<path fill="none" stroke="midnightblue" d="M380.681,-112.324C372.107,-104.341 359.188,-92.3128 348.812,-82.6529"/>
<polygon fill="midnightblue" stroke="midnightblue" points="351.192,-80.0865 341.488,-75.8339 346.422,-85.2098 351.192,-80.0865"/>
</g>
</g>
</svg>
