<?xml version="1.0" encoding="UTF-8" standalone="no"?>
<!DOCTYPE svg PUBLIC "-//W3C//DTD SVG 1.1//EN"
 "http://www.w3.org/Graphics/SVG/1.1/DTD/svg11.dtd">
<!-- Generated by graphviz version 2.38.0 (20140413.2041)
 -->
<!-- Title: /home/travis/build/AliceO2Group/AliceO2/Framework/Core/src/ConfigParamsHelper.cxx Pages: 1 -->
<!--zoomable 285 -->
<svg id="main" version="1.1" xmlns="http://www.w3.org/2000/svg" xmlns:xlink="http://www.w3.org/1999/xlink" xml:space="preserve" onload="init(evt)">
<style type="text/css"><![CDATA[
.edge:hover path { stroke: red; }
.edge:hover polygon { stroke: red; fill: red; }
]]></style>
<script type="text/javascript"><![CDATA[
var edges = document.getElementsByTagName('g');
if (edges && edges.length) {
  for (var i=0;i<edges.length;i++) {
    if (edges[i].id.substr(0,4)=='edge') {
      edges[i].setAttribute('class','edge');
    }
  }
}
]]></script>
        <defs>
                <circle id="rim" cx="0" cy="0" r="7"/>
                <circle id="rim2" cx="0" cy="0" r="3.5"/>
                <g id="zoomPlus">
                        <use xlink:href="#rim" fill="#404040">
                                <set attributeName="fill" to="#808080" begin="zoomplus.mouseover" end="zoomplus.mouseout"/>
                        </use>
                        <path d="M-4,0h8M0,-4v8" fill="none" stroke="white" stroke-width="1.5" pointer-events="none"/>
                </g>
                <g id="zoomMin">
                        <use xlink:href="#rim" fill="#404040">
                                <set attributeName="fill" to="#808080" begin="zoomminus.mouseover" end="zoomminus.mouseout"/>
                        </use>
                        <path d="M-4,0h8" fill="none" stroke="white" stroke-width="1.5" pointer-events="none"/>
                </g>
                <g id="dirArrow">
                        <path fill="none" stroke="white" stroke-width="1.5" d="M0,-3.0v7 M-2.5,-0.5L0,-3.0L2.5,-0.5"/>
                </g>
               <g id="resetDef">
                       <use xlink:href="#rim2" fill="#404040">
                               <set attributeName="fill" to="#808080" begin="reset.mouseover" end="reset.mouseout"/>
                       </use>
               </g>
        </defs>

<script type="text/javascript">
var viewWidth = 706;
var viewHeight = 285;
var sectionId = 'dynsection-0';
</script>
<script xlink:href="../../svgpan.js"/>
<svg id="graph" class="graph">
<g id="viewport">
<title>/home/travis/build/AliceO2Group/AliceO2/Framework/Core/src/ConfigParamsHelper.cxx</title>
<!-- Node1 -->
<g id="node1" class="node"><title>Node1</title>
<polygon fill="#bfbfbf" stroke="black" points="434.5,-224.5 434.5,-276.5 608.5,-276.5 608.5,-224.5 434.5,-224.5"/>
<text text-anchor="start" x="442.5" y="-264.5" font-family="Helvetica,sans-Serif" font-size="10.00">/home/travis/build</text>
<text text-anchor="start" x="442.5" y="-253.5" font-family="Helvetica,sans-Serif" font-size="10.00">/AliceO2Group/AliceO2</text>
<text text-anchor="start" x="442.5" y="-242.5" font-family="Helvetica,sans-Serif" font-size="10.00">/Framework/Core/src/ConfigParams</text>
<text text-anchor="middle" x="521.5" y="-231.5" font-family="Helvetica,sans-Serif" font-size="10.00">Helper.cxx</text>
</g>
<!-- Node2 -->
<g id="node2" class="node"><title>Node2</title>
<g id="a_node2"><a xlink:href="../../dd/d2b/ConfigParamsHelper_8h.html" target="_top" xlink:title="Framework/ConfigParamsHelper.h">
<polygon fill="none" stroke="black" points="383,-168.5 383,-187.5 550,-187.5 550,-168.5 383,-168.5"/>
<text text-anchor="middle" x="466.5" y="-175.5" font-family="Helvetica,sans-Serif" font-size="10.00">Framework/ConfigParamsHelper.h</text>
</a>
</g>
</g>
<!-- Node1&#45;&gt;Node2 -->
<g id="edge1" class="edge"><title>Node1&#45;&gt;Node2</title>
<path fill="none" stroke="midnightblue" d="M501.954,-224.446C494.529,-214.929 486.258,-204.327 479.574,-195.758"/>
<polygon fill="midnightblue" stroke="midnightblue" points="482.194,-193.427 473.284,-187.695 476.675,-197.733 482.194,-193.427"/>
</g>
<!-- Node3 -->
<g id="node3" class="node"><title>Node3</title>
<g id="a_node3"><a xlink:href="../../d0/d1c/ConfigParamSpec_8h.html" target="_top" xlink:title="Framework/ConfigParamSpec.h">
<polygon fill="none" stroke="black" points="171.5,-112.5 171.5,-131.5 327.5,-131.5 327.5,-112.5 171.5,-112.5"/>
<text text-anchor="middle" x="249.5" y="-119.5" font-family="Helvetica,sans-Serif" font-size="10.00">Framework/ConfigParamSpec.h</text>
</a>
</g>
</g>
<!-- Node1&#45;&gt;Node3 -->
<g id="edge16" class="edge"><title>Node1&#45;&gt;Node3</title>
<path fill="none" stroke="midnightblue" d="M434.291,-225.256C404.132,-215.436 370.616,-202.869 341.5,-188 313.96,-173.936 285.341,-152.447 267.484,-138.071"/>
<polygon fill="midnightblue" stroke="midnightblue" points="269.59,-135.272 259.634,-131.649 265.157,-140.69 269.59,-135.272"/>
</g>
<!-- Node12 -->
<g id="node12" class="node"><title>Node12</title>
<polygon fill="none" stroke="#bfbfbf" points="335,-56.5 335,-75.5 376,-75.5 376,-56.5 335,-56.5"/>
<text text-anchor="middle" x="355.5" y="-63.5" font-family="Helvetica,sans-Serif" font-size="10.00">string</text>
</g>
<!-- Node1&#45;&gt;Node12 -->
<g id="edge18" class="edge"><title>Node1&#45;&gt;Node12</title>
<path fill="none" stroke="midnightblue" d="M434.168,-230.062C411.256,-220.911 388.728,-207.528 373.5,-188 350.291,-158.239 350.63,-111.492 353.008,-85.6806"/>
<polygon fill="midnightblue" stroke="midnightblue" points="356.489,-86.0487 354.128,-75.7202 349.533,-85.2664 356.489,-86.0487"/>
</g>
<!-- Node13 -->
<g id="node13" class="node"><title>Node13</title>
<polygon fill="none" stroke="#bfbfbf" points="477.5,-112.5 477.5,-131.5 611.5,-131.5 611.5,-112.5 477.5,-112.5"/>
<text text-anchor="middle" x="544.5" y="-119.5" font-family="Helvetica,sans-Serif" font-size="10.00">boost/program_options.hpp</text>
</g>
<!-- Node1&#45;&gt;Node13 -->
<g id="edge17" class="edge"><title>Node1&#45;&gt;Node13</title>
<path fill="none" stroke="midnightblue" d="M540.887,-224.306C547.884,-213.698 554.933,-200.847 558.5,-188 562.837,-172.378 558.201,-154.332 553.132,-141.224"/>
<polygon fill="midnightblue" stroke="midnightblue" points="556.297,-139.722 549.138,-131.912 549.863,-142.482 556.297,-139.722"/>
</g>
<!-- Node14 -->
<g id="node14" class="node"><title>Node14</title>
<polygon fill="none" stroke="#bfbfbf" points="629.5,-112.5 629.5,-131.5 673.5,-131.5 673.5,-112.5 629.5,-112.5"/>
<text text-anchor="middle" x="651.5" y="-119.5" font-family="Helvetica,sans-Serif" font-size="10.00">vector</text>
</g>
<!-- Node1&#45;&gt;Node14 -->
<g id="edge19" class="edge"><title>Node1&#45;&gt;Node14</title>
<path fill="none" stroke="midnightblue" d="M547.495,-224.205C573.76,-198.647 613.508,-159.969 635.481,-138.588"/>
<polygon fill="midnightblue" stroke="midnightblue" points="637.988,-141.032 642.714,-131.55 633.106,-136.015 637.988,-141.032"/>
</g>
<!-- Node15 -->
<g id="node15" class="node"><title>Node15</title>
<polygon fill="none" stroke="#bfbfbf" points="643.5,-168.5 643.5,-187.5 697.5,-187.5 697.5,-168.5 643.5,-168.5"/>
<text text-anchor="middle" x="670.5" y="-175.5" font-family="Helvetica,sans-Serif" font-size="10.00">iostream</text>
</g>
<!-- Node1&#45;&gt;Node15 -->
<g id="edge20" class="edge"><title>Node1&#45;&gt;Node15</title>
<path fill="none" stroke="midnightblue" d="M574.451,-224.446C597.779,-213.408 624.19,-200.912 643.405,-191.82"/>
<polygon fill="midnightblue" stroke="midnightblue" points="644.936,-194.968 652.478,-187.527 641.942,-188.64 644.936,-194.968"/>
</g>
<!-- Node2&#45;&gt;Node3 -->
<g id="edge2" class="edge"><title>Node2&#45;&gt;Node3</title>
<path fill="none" stroke="midnightblue" d="M432.116,-168.444C394.578,-159.102 334.369,-144.119 293.433,-133.933"/>
<polygon fill="midnightblue" stroke="midnightblue" points="294.273,-130.535 283.723,-131.516 292.582,-137.328 294.273,-130.535"/>
</g>
<!-- Node5 -->
<g id="node5" class="node"><title>Node5</title>
<polygon fill="none" stroke="#bfbfbf" points="422.5,-0.5 422.5,-19.5 484.5,-19.5 484.5,-0.5 422.5,-0.5"/>
<text text-anchor="middle" x="453.5" y="-7.5" font-family="Helvetica,sans-Serif" font-size="10.00">type_traits</text>
</g>
<!-- Node2&#45;&gt;Node5 -->
<g id="edge15" class="edge"><title>Node2&#45;&gt;Node5</title>
<path fill="none" stroke="midnightblue" d="M465.801,-168.075C463.755,-141.945 457.745,-65.2106 454.955,-29.577"/>
<polygon fill="midnightblue" stroke="midnightblue" points="458.441,-29.2643 454.171,-19.5681 451.463,-29.8109 458.441,-29.2643"/>
</g>
<!-- Node2&#45;&gt;Node12 -->
<g id="edge13" class="edge"><title>Node2&#45;&gt;Node12</title>
<path fill="none" stroke="midnightblue" d="M457.79,-168.368C439.148,-149.894 395.15,-106.293 371.387,-82.7436"/>
<polygon fill="midnightblue" stroke="midnightblue" points="373.736,-80.1444 364.17,-75.5914 368.809,-85.1165 373.736,-80.1444"/>
</g>
<!-- Node2&#45;&gt;Node13 -->
<g id="edge12" class="edge"><title>Node2&#45;&gt;Node13</title>
<path fill="none" stroke="midnightblue" d="M479.032,-168.324C491.086,-159.979 509.527,-147.212 523.769,-137.352"/>
<polygon fill="midnightblue" stroke="midnightblue" points="525.769,-140.224 531.999,-131.655 521.785,-134.469 525.769,-140.224"/>
</g>
<!-- Node2&#45;&gt;Node14 -->
<g id="edge14" class="edge"><title>Node2&#45;&gt;Node14</title>
<path fill="none" stroke="midnightblue" d="M495.814,-168.444C529.568,-158.591 584.824,-142.462 619.624,-132.304"/>
<polygon fill="midnightblue" stroke="midnightblue" points="620.672,-135.644 629.291,-129.483 618.711,-128.925 620.672,-135.644"/>
</g>
<!-- Node4 -->
<g id="node4" class="node"><title>Node4</title>
<g id="a_node4"><a xlink:href="../../de/d56/Variant_8h.html" target="_top" xlink:title="Framework/Variant.h">
<polygon fill="none" stroke="black" points="188,-56.5 188,-75.5 295,-75.5 295,-56.5 188,-56.5"/>
<text text-anchor="middle" x="241.5" y="-63.5" font-family="Helvetica,sans-Serif" font-size="10.00">Framework/Variant.h</text>
</a>
</g>
</g>
<!-- Node3&#45;&gt;Node4 -->
<g id="edge3" class="edge"><title>Node3&#45;&gt;Node4</title>
<path fill="none" stroke="midnightblue" d="M248.179,-112.083C247.119,-104.927 245.594,-94.6353 244.269,-85.6911"/>
<polygon fill="midnightblue" stroke="midnightblue" points="247.724,-85.1302 242.796,-75.7511 240.8,-86.1561 247.724,-85.1302"/>
</g>
<!-- Node3&#45;&gt;Node12 -->
<g id="edge11" class="edge"><title>Node3&#45;&gt;Node12</title>
<path fill="none" stroke="midnightblue" d="M266.531,-112.324C283.53,-103.664 309.876,-90.2424 329.493,-80.249"/>
<polygon fill="midnightblue" stroke="midnightblue" points="331.19,-83.3125 338.512,-75.6545 328.012,-77.0752 331.19,-83.3125"/>
</g>
<!-- Node4&#45;&gt;Node5 -->
<g id="edge4" class="edge"><title>Node4&#45;&gt;Node5</title>
<path fill="none" stroke="midnightblue" d="M275.092,-56.4435C312.441,-46.9302 372.762,-31.5652 412.771,-21.3743"/>
<polygon fill="midnightblue" stroke="midnightblue" points="413.653,-24.7617 422.479,-18.9015 411.925,-17.9783 413.653,-24.7617"/>
</g>
<!-- Node6 -->
<g id="node6" class="node"><title>Node6</title>
<polygon fill="none" stroke="#bfbfbf" points="294.5,-0.5 294.5,-19.5 340.5,-19.5 340.5,-0.5 294.5,-0.5"/>
<text text-anchor="middle" x="317.5" y="-7.5" font-family="Helvetica,sans-Serif" font-size="10.00">cstring</text>
</g>
<!-- Node4&#45;&gt;Node6 -->
<g id="edge5" class="edge"><title>Node4&#45;&gt;Node6</title>
<path fill="none" stroke="midnightblue" d="M253.711,-56.324C265.276,-48.1066 282.875,-35.6017 296.661,-25.8069"/>
<polygon fill="midnightblue" stroke="midnightblue" points="298.943,-28.4791 305.067,-19.8339 294.888,-22.7729 298.943,-28.4791"/>
</g>
<!-- Node7 -->
<g id="node7" class="node"><title>Node7</title>
<polygon fill="none" stroke="#bfbfbf" points="358.5,-0.5 358.5,-19.5 404.5,-19.5 404.5,-0.5 358.5,-0.5"/>
<text text-anchor="middle" x="381.5" y="-7.5" font-family="Helvetica,sans-Serif" font-size="10.00">cstdint</text>
</g>
<!-- Node4&#45;&gt;Node7 -->
<g id="edge6" class="edge"><title>Node4&#45;&gt;Node7</title>
<path fill="none" stroke="midnightblue" d="M263.683,-56.4435C286.928,-47.4776 323.649,-33.314 349.915,-23.1827"/>
<polygon fill="midnightblue" stroke="midnightblue" points="351.35,-26.3807 359.42,-19.5164 348.831,-19.8497 351.35,-26.3807"/>
</g>
<!-- Node8 -->
<g id="node8" class="node"><title>Node8</title>
<polygon fill="none" stroke="#bfbfbf" points="0,-0.5 0,-19.5 45,-19.5 45,-0.5 0,-0.5"/>
<text text-anchor="middle" x="22.5" y="-7.5" font-family="Helvetica,sans-Serif" font-size="10.00">cstdlib</text>
</g>
<!-- Node4&#45;&gt;Node8 -->
<g id="edge7" class="edge"><title>Node4&#45;&gt;Node8</title>
<path fill="none" stroke="midnightblue" d="M203.558,-56.4766C167.574,-48.2692 111.771,-35.2224 55.0093,-20.3164"/>
<polygon fill="midnightblue" stroke="midnightblue" points="55.7146,-16.8827 45.1522,-17.7114 53.926,-23.6504 55.7146,-16.8827"/>
</g>
<!-- Node9 -->
<g id="node9" class="node"><title>Node9</title>
<polygon fill="none" stroke="#bfbfbf" points="63,-0.5 63,-19.5 122,-19.5 122,-0.5 63,-0.5"/>
<text text-anchor="middle" x="92.5" y="-7.5" font-family="Helvetica,sans-Serif" font-size="10.00">stdexcept</text>
</g>
<!-- Node4&#45;&gt;Node9 -->
<g id="edge8" class="edge"><title>Node4&#45;&gt;Node9</title>
<path fill="none" stroke="midnightblue" d="M217.891,-56.4435C193.042,-47.4381 153.726,-33.1891 125.746,-23.049"/>
<polygon fill="midnightblue" stroke="midnightblue" points="126.593,-19.6332 115.999,-19.5164 124.208,-26.2144 126.593,-19.6332"/>
</g>
<!-- Node10 -->
<g id="node10" class="node"><title>Node10</title>
<polygon fill="none" stroke="#bfbfbf" points="140,-0.5 140,-19.5 185,-19.5 185,-0.5 140,-0.5"/>
<text text-anchor="middle" x="162.5" y="-7.5" font-family="Helvetica,sans-Serif" font-size="10.00">iosfwd</text>
</g>
<!-- Node4&#45;&gt;Node10 -->
<g id="edge9" class="edge"><title>Node4&#45;&gt;Node10</title>
<path fill="none" stroke="midnightblue" d="M228.807,-56.324C216.599,-47.979 197.922,-35.2122 183.497,-25.3524"/>
<polygon fill="midnightblue" stroke="midnightblue" points="185.392,-22.4082 175.161,-19.6545 181.442,-28.1871 185.392,-22.4082"/>
</g>
<!-- Node11 -->
<g id="node11" class="node"><title>Node11</title>
<polygon fill="none" stroke="#bfbfbf" points="203,-0.5 203,-19.5 276,-19.5 276,-0.5 203,-0.5"/>
<text text-anchor="middle" x="239.5" y="-7.5" font-family="Helvetica,sans-Serif" font-size="10.00">initializer_list</text>
</g>
<!-- Node4&#45;&gt;Node11 -->
<g id="edge10" class="edge"><title>Node4&#45;&gt;Node11</title>
<path fill="none" stroke="midnightblue" d="M241.17,-56.083C240.908,-49.0059 240.532,-38.8611 240.203,-29.9865"/>
<polygon fill="midnightblue" stroke="midnightblue" points="243.692,-29.6147 239.824,-19.7511 236.697,-29.8738 243.692,-29.6147"/>
</g>
</g>
</svg>
        <g id="navigator" transform="translate(0 0)" fill="#404254">
                <rect fill="#f2f5e9" fill-opacity="0.5" stroke="#606060" stroke-width=".5" x="0" y="0" width="60" height="60"/>
                <use id="zoomplus" xlink:href="#zoomPlus" x="17" y="9" onmousedown="handleZoom(evt,'in')"/>
                <use id="zoomminus" xlink:href="#zoomMin" x="42" y="9" onmousedown="handleZoom(evt,'out')"/>
                <use id="reset" xlink:href="#resetDef" x="30" y="36" onmousedown="handleReset()"/>
                <g id="arrowUp" xlink:href="#dirArrow" transform="translate(30 24)" onmousedown="handlePan(0,-1)">
                  <use xlink:href="#rim" fill="#404040">
                        <set attributeName="fill" to="#808080" begin="arrowUp.mouseover" end="arrowUp.mouseout"/>
                  </use>
                  <path fill="none" stroke="white" stroke-width="1.5" d="M0,-3.0v7 M-2.5,-0.5L0,-3.0L2.5,-0.5"/>
                </g>
                <g id="arrowRight" xlink:href="#dirArrow" transform="rotate(90) translate(36 -43)" onmousedown="handlePan(1,0)">
                  <use xlink:href="#rim" fill="#404040">
                        <set attributeName="fill" to="#808080" begin="arrowRight.mouseover" end="arrowRight.mouseout"/>
                  </use>
                  <path fill="none" stroke="white" stroke-width="1.5" d="M0,-3.0v7 M-2.5,-0.5L0,-3.0L2.5,-0.5"/>
                </g>
                <g id="arrowDown" xlink:href="#dirArrow" transform="rotate(180) translate(-30 -48)" onmousedown="handlePan(0,1)">
                  <use xlink:href="#rim" fill="#404040">
                        <set attributeName="fill" to="#808080" begin="arrowDown.mouseover" end="arrowDown.mouseout"/>
                  </use>
                  <path fill="none" stroke="white" stroke-width="1.5" d="M0,-3.0v7 M-2.5,-0.5L0,-3.0L2.5,-0.5"/>
                </g>
                <g id="arrowLeft" xlink:href="#dirArrow" transform="rotate(270) translate(-36 17)" onmousedown="handlePan(-1,0)">
                  <use xlink:href="#rim" fill="#404040">
                        <set attributeName="fill" to="#808080" begin="arrowLeft.mouseover" end="arrowLeft.mouseout"/>
                  </use>
                  <path fill="none" stroke="white" stroke-width="1.5" d="M0,-3.0v7 M-2.5,-0.5L0,-3.0L2.5,-0.5"/>
                </g>
        </g>
        <svg viewBox="0 0 15 15" width="100%" height="30px" preserveAspectRatio="xMaxYMin meet">
         <g id="arrow_out" transform="scale(0.3 0.3)">
          <a xlink:href="ConfigParamsHelper_8cxx__incl_org.svg" target="_base">
           <rect id="button" ry="5" rx="5" y="6" x="6" height="38" width="38"
                fill="#f2f5e9" fill-opacity="0.5" stroke="#606060" stroke-width="1.0"/>
           <path id="arrow"
             d="M 11.500037,31.436501 C 11.940474,20.09759 22.043105,11.32322 32.158766,21.979434 L 37.068811,17.246167 C 37.068811,17.246167 37.088388,32 37.088388,32 L 22.160133,31.978069 C 22.160133,31.978069 26.997745,27.140456 26.997745,27.140456 C 18.528582,18.264221 13.291696,25.230495 11.500037,31.436501 z"
             style="fill:#404040;"/>
          </a>
         </g>
        </svg>
</svg>
