<?xml version="1.0" encoding="UTF-8" standalone="no"?>
<!DOCTYPE svg PUBLIC "-//W3C//DTD SVG 1.1//EN"
 "http://www.w3.org/Graphics/SVG/1.1/DTD/svg11.dtd">
<!-- Generated by graphviz version 2.38.0 (20140413.2041)
 -->
<!-- Title: o2::tpc::ClusterGroupAttribute Pages: 1 -->
<svg width="324pt" height="320pt"
 viewBox="0.00 0.00 323.50 320.00" xmlns="http://www.w3.org/2000/svg" xmlns:xlink="http://www.w3.org/1999/xlink">
<g id="graph0" class="graph" transform="scale(1 1) rotate(0) translate(4 316)">
<title>o2::tpc::ClusterGroupAttribute</title>
<!-- Node1 -->
<g id="node1" class="node"><title>Node1</title>
<polygon fill="#bfbfbf" stroke="black" points="80.5,-232.5 80.5,-311.5 227.5,-311.5 227.5,-232.5 80.5,-232.5"/>
<text text-anchor="middle" x="154" y="-299.5" font-family="Helvetica,sans-Serif" font-size="10.00">o2::tpc::ClusterGroupAttribute</text>
<polyline fill="none" stroke="black" points="80.5,-292.5 227.5,-292.5 "/>
<text text-anchor="start" x="88.5" y="-280.5" font-family="Helvetica,sans-Serif" font-size="10.00">+ sector</text>
<text text-anchor="start" x="88.5" y="-269.5" font-family="Helvetica,sans-Serif" font-size="10.00">+ globalPadRow</text>
<polyline fill="none" stroke="black" points="80.5,-262.5 227.5,-262.5 "/>
<text text-anchor="start" x="88.5" y="-250.5" font-family="Helvetica,sans-Serif" font-size="10.00">+ set()</text>
<text text-anchor="start" x="88.5" y="-239.5" font-family="Helvetica,sans-Serif" font-size="10.00">+ getSubSpecification()</text>
</g>
<!-- Node2 -->
<g id="node2" class="node"><title>Node2</title>
<g id="a_node2"><a xlink:href="../../d4/dcf/structo2_1_1tpc_1_1ClusterGroupHeader.html" target="_top" xlink:title="{o2::tpc::ClusterGroupHeader\n|+ nClusters\l|+ ClusterGroupHeader()\l}">
<polygon fill="none" stroke="black" points="0,-127.5 0,-184.5 142,-184.5 142,-127.5 0,-127.5"/>
<text text-anchor="middle" x="71" y="-172.5" font-family="Helvetica,sans-Serif" font-size="10.00">o2::tpc::ClusterGroupHeader</text>
<polyline fill="none" stroke="black" points="0,-165.5 142,-165.5 "/>
<text text-anchor="start" x="8" y="-153.5" font-family="Helvetica,sans-Serif" font-size="10.00">+ nClusters</text>
<polyline fill="none" stroke="black" points="0,-146.5 142,-146.5 "/>
<text text-anchor="start" x="8" y="-134.5" font-family="Helvetica,sans-Serif" font-size="10.00">+ ClusterGroupHeader()</text>
</a>
</g>
</g>
<!-- Node1&#45;&gt;Node2 -->
<g id="edge1" class="edge"><title>Node1&#45;&gt;Node2</title>
<path fill="none" stroke="midnightblue" d="M119.918,-224.189C110.162,-210.788 99.8395,-196.611 91.2046,-184.751"/>
<polygon fill="none" stroke="midnightblue" points="117.185,-226.381 125.9,-232.405 122.844,-222.26 117.185,-226.381"/>
</g>
<!-- Node4 -->
<g id="node4" class="node"><title>Node4</title>
<g id="a_node4"><a xlink:href="../../dc/d13/structo2_1_1tpc_1_1ClusterNativeContainer.html" target="_top" xlink:title="{o2::tpc::ClusterNativeContainer\n|+ clusters\l|+ getFlatSize()\l+ data()\l+ data()\l}">
<polygon fill="none" stroke="black" points="160.5,-116.5 160.5,-195.5 315.5,-195.5 315.5,-116.5 160.5,-116.5"/>
<text text-anchor="middle" x="238" y="-183.5" font-family="Helvetica,sans-Serif" font-size="10.00">o2::tpc::ClusterNativeContainer</text>
<polyline fill="none" stroke="black" points="160.5,-176.5 315.5,-176.5 "/>
<text text-anchor="start" x="168.5" y="-164.5" font-family="Helvetica,sans-Serif" font-size="10.00">+ clusters</text>
<polyline fill="none" stroke="black" points="160.5,-157.5 315.5,-157.5 "/>
<text text-anchor="start" x="168.5" y="-145.5" font-family="Helvetica,sans-Serif" font-size="10.00">+ getFlatSize()</text>
<text text-anchor="start" x="168.5" y="-134.5" font-family="Helvetica,sans-Serif" font-size="10.00">+ data()</text>
<text text-anchor="start" x="168.5" y="-123.5" font-family="Helvetica,sans-Serif" font-size="10.00">+ data()</text>
</a>
</g>
</g>
<!-- Node1&#45;&gt;Node4 -->
<g id="edge3" class="edge"><title>Node1&#45;&gt;Node4</title>
<path fill="none" stroke="midnightblue" d="M188.506,-224.17C195.518,-214.654 202.819,-204.746 209.591,-195.555"/>
<polygon fill="none" stroke="midnightblue" points="185.553,-222.278 182.439,-232.405 191.188,-226.43 185.553,-222.278"/>
</g>
<!-- Node3 -->
<g id="node3" class="node"><title>Node3</title>
<g id="a_node3"><a xlink:href="../../d0/d1b/structo2_1_1tpc_1_1ClusterNativeBuffer.html" target="_top" xlink:title="{o2::tpc::ClusterNativeBuffer\n|+ clusters\l|+ getFlatSize()\l+ data()\l+ data()\l}">
<polygon fill="none" stroke="black" points="1.5,-0.5 1.5,-79.5 140.5,-79.5 140.5,-0.5 1.5,-0.5"/>
<text text-anchor="middle" x="71" y="-67.5" font-family="Helvetica,sans-Serif" font-size="10.00">o2::tpc::ClusterNativeBuffer</text>
<polyline fill="none" stroke="black" points="1.5,-60.5 140.5,-60.5 "/>
<text text-anchor="start" x="9.5" y="-48.5" font-family="Helvetica,sans-Serif" font-size="10.00">+ clusters</text>
<polyline fill="none" stroke="black" points="1.5,-41.5 140.5,-41.5 "/>
<text text-anchor="start" x="9.5" y="-29.5" font-family="Helvetica,sans-Serif" font-size="10.00">+ getFlatSize()</text>
<text text-anchor="start" x="9.5" y="-18.5" font-family="Helvetica,sans-Serif" font-size="10.00">+ data()</text>
<text text-anchor="start" x="9.5" y="-7.5" font-family="Helvetica,sans-Serif" font-size="10.00">+ data()</text>
</a>
</g>
</g>
<!-- Node2&#45;&gt;Node3 -->
<g id="edge2" class="edge"><title>Node2&#45;&gt;Node3</title>
<path fill="none" stroke="midnightblue" d="M71,-117.176C71,-105.082 71,-91.6847 71,-79.5406"/>
<polygon fill="none" stroke="midnightblue" points="67.5001,-117.404 71,-127.404 74.5001,-117.404 67.5001,-117.404"/>
</g>
</g>
</svg>
