<?xml version="1.0" encoding="UTF-8" standalone="no"?>
<!DOCTYPE svg PUBLIC "-//W3C//DTD SVG 1.1//EN"
 "http://www.w3.org/Graphics/SVG/1.1/DTD/svg11.dtd">
<!-- Generated by graphviz version 2.38.0 (20140413.2041)
 -->
<!-- Title: /home/travis/build/AliceO2Group/AliceO2/GPU/GPUTracking/DataCompression/TPCClusterDecompressor.cxx Pages: 1 -->
<svg width="1298pt" height="520pt"
 viewBox="0.00 0.00 1297.77 520.00" xmlns="http://www.w3.org/2000/svg" xmlns:xlink="http://www.w3.org/1999/xlink">
<g id="graph0" class="graph" transform="scale(1 1) rotate(0) translate(4 516)">
<title>/home/travis/build/AliceO2Group/AliceO2/GPU/GPUTracking/DataCompression/TPCClusterDecompressor.cxx</title>
<!-- Node1 -->
<g id="node1" class="node"><title>Node1</title>
<polygon fill="#bfbfbf" stroke="black" points="682,-459.5 682,-511.5 867,-511.5 867,-459.5 682,-459.5"/>
<text text-anchor="start" x="690" y="-499.5" font-family="Helvetica,sans-Serif" font-size="10.00">/home/travis/build</text>
<text text-anchor="start" x="690" y="-488.5" font-family="Helvetica,sans-Serif" font-size="10.00">/AliceO2Group/AliceO2</text>
<text text-anchor="start" x="690" y="-477.5" font-family="Helvetica,sans-Serif" font-size="10.00">/GPU/GPUTracking/DataCompression</text>
<text text-anchor="middle" x="774.5" y="-466.5" font-family="Helvetica,sans-Serif" font-size="10.00">/TPCClusterDecompressor.cxx</text>
</g>
<!-- Node2 -->
<g id="node2" class="node"><title>Node2</title>
<g id="a_node2"><a xlink:href="../../d7/d7d/TPCClusterDecompressor_8h.html" target="_top" xlink:title="TPCClusterDecompressor.h">
<polygon fill="none" stroke="black" points="520.5,-403.5 520.5,-422.5 660.5,-422.5 660.5,-403.5 520.5,-403.5"/>
<text text-anchor="middle" x="590.5" y="-410.5" font-family="Helvetica,sans-Serif" font-size="10.00">TPCClusterDecompressor.h</text>
</a>
</g>
</g>
<!-- Node1&#45;&gt;Node2 -->
<g id="edge1" class="edge"><title>Node1&#45;&gt;Node2</title>
<path fill="none" stroke="midnightblue" d="M709.11,-459.446C679.646,-448.156 646.196,-435.34 622.348,-426.203"/>
<polygon fill="midnightblue" stroke="midnightblue" points="623.345,-422.837 612.755,-422.527 620.841,-429.373 623.345,-422.837"/>
</g>
<!-- Node15 -->
<g id="node15" class="node"><title>Node15</title>
<polygon fill="none" stroke="#bfbfbf" points="688.5,-112.5 688.5,-131.5 744.5,-131.5 744.5,-112.5 688.5,-112.5"/>
<text text-anchor="middle" x="716.5" y="-119.5" font-family="Helvetica,sans-Serif" font-size="10.00">algorithm</text>
</g>
<!-- Node1&#45;&gt;Node15 -->
<g id="edge57" class="edge"><title>Node1&#45;&gt;Node15</title>
<path fill="none" stroke="midnightblue" d="M755.187,-459.395C738.315,-434.916 716.5,-395.931 716.5,-358 716.5,-358 716.5,-358 716.5,-233 716.5,-200.948 716.5,-163.643 716.5,-141.749"/>
<polygon fill="midnightblue" stroke="midnightblue" points="720,-141.558 716.5,-131.558 713,-141.558 720,-141.558"/>
</g>
<!-- Node18 -->
<g id="node18" class="node"><title>Node18</title>
<g id="a_node18"><a xlink:href="../../df/d13/GPUParam_8h.html" target="_top" xlink:title="GPUParam.h">
<polygon fill="none" stroke="black" points="362,-286 362,-305 437,-305 437,-286 362,-286"/>
<text text-anchor="middle" x="399.5" y="-293" font-family="Helvetica,sans-Serif" font-size="10.00">GPUParam.h</text>
</a>
</g>
</g>
<!-- Node1&#45;&gt;Node18 -->
<g id="edge40" class="edge"><title>Node1&#45;&gt;Node18</title>
<path fill="none" stroke="midnightblue" d="M681.781,-468.943C630.606,-458.846 566.47,-443.681 511.5,-423 461.998,-404.377 435.921,-410.95 406.5,-367 396.359,-351.85 395.614,-330.611 396.785,-315.411"/>
<polygon fill="midnightblue" stroke="midnightblue" points="400.297,-315.493 397.929,-305.167 393.341,-314.716 400.297,-315.493"/>
</g>
<!-- Node24 -->
<g id="node24" class="node"><title>Node24</title>
<g id="a_node24"><a xlink:href="../../d5/d5c/GPUO2DataTypes_8h.html" target="_top" xlink:title="GPUO2DataTypes.h">
<polygon fill="none" stroke="black" points="1175,-286 1175,-305 1282,-305 1282,-286 1175,-286"/>
<text text-anchor="middle" x="1228.5" y="-293" font-family="Helvetica,sans-Serif" font-size="10.00">GPUO2DataTypes.h</text>
</a>
</g>
</g>
<!-- Node1&#45;&gt;Node24 -->
<g id="edge33" class="edge"><title>Node1&#45;&gt;Node24</title>
<path fill="none" stroke="midnightblue" d="M838.731,-459.39C866.676,-448.368 899.766,-435.187 929.5,-423 1028.92,-382.25 1146.08,-332.042 1199.42,-309.06"/>
<polygon fill="midnightblue" stroke="midnightblue" points="1200.82,-312.267 1208.62,-305.094 1198.05,-305.839 1200.82,-312.267"/>
</g>
<!-- Node28 -->
<g id="node28" class="node"><title>Node28</title>
<g id="a_node28"><a xlink:href="../../da/d21/GPUTPCCompressionTrackModel_8h.html" target="_top" xlink:title="GPUTPCCompressionTrackModel.h">
<polygon fill="none" stroke="black" points="744.5,-403.5 744.5,-422.5 920.5,-422.5 920.5,-403.5 744.5,-403.5"/>
<text text-anchor="middle" x="832.5" y="-410.5" font-family="Helvetica,sans-Serif" font-size="10.00">GPUTPCCompressionTrackModel.h</text>
</a>
</g>
</g>
<!-- Node1&#45;&gt;Node28 -->
<g id="edge41" class="edge"><title>Node1&#45;&gt;Node28</title>
<path fill="none" stroke="midnightblue" d="M795.112,-459.446C803.024,-449.828 811.848,-439.103 818.935,-430.488"/>
<polygon fill="midnightblue" stroke="midnightblue" points="821.696,-432.642 825.346,-422.695 816.29,-428.194 821.696,-432.642"/>
</g>
<!-- Node34 -->
<g id="node34" class="node"><title>Node34</title>
<polygon fill="none" stroke="#bfbfbf" points="1174.5,-403.5 1174.5,-422.5 1220.5,-422.5 1220.5,-403.5 1174.5,-403.5"/>
<text text-anchor="middle" x="1197.5" y="-410.5" font-family="Helvetica,sans-Serif" font-size="10.00">cstring</text>
</g>
<!-- Node1&#45;&gt;Node34 -->
<g id="edge58" class="edge"><title>Node1&#45;&gt;Node34</title>
<path fill="none" stroke="midnightblue" d="M867.296,-471.858C945.72,-460.662 1060.87,-443.02 1160.5,-423 1161.78,-422.744 1163.07,-422.473 1164.38,-422.193"/>
<polygon fill="midnightblue" stroke="midnightblue" points="1165.49,-425.531 1174.47,-419.905 1163.94,-418.704 1165.49,-425.531"/>
</g>
<!-- Node3 -->
<g id="node3" class="node"><title>Node3</title>
<g id="a_node3"><a xlink:href="../../d5/d92/GPUTPCCompression_8h.html" target="_top" xlink:title="GPUTPCCompression.h">
<polygon fill="none" stroke="black" points="528,-347.5 528,-366.5 653,-366.5 653,-347.5 528,-347.5"/>
<text text-anchor="middle" x="590.5" y="-354.5" font-family="Helvetica,sans-Serif" font-size="10.00">GPUTPCCompression.h</text>
</a>
</g>
</g>
<!-- Node2&#45;&gt;Node3 -->
<g id="edge2" class="edge"><title>Node2&#45;&gt;Node3</title>
<path fill="none" stroke="midnightblue" d="M590.5,-403.083C590.5,-396.006 590.5,-385.861 590.5,-376.986"/>
<polygon fill="midnightblue" stroke="midnightblue" points="594,-376.751 590.5,-366.751 587,-376.751 594,-376.751"/>
</g>
<!-- Node23 -->
<g id="node23" class="node"><title>Node23</title>
<polygon fill="none" stroke="#bfbfbf" points="415.5,-347.5 415.5,-366.5 459.5,-366.5 459.5,-347.5 415.5,-347.5"/>
<text text-anchor="middle" x="437.5" y="-354.5" font-family="Helvetica,sans-Serif" font-size="10.00">vector</text>
</g>
<!-- Node2&#45;&gt;Node23 -->
<g id="edge32" class="edge"><title>Node2&#45;&gt;Node23</title>
<path fill="none" stroke="midnightblue" d="M566.257,-403.444C540.026,-394.186 498.095,-379.387 469.252,-369.207"/>
<polygon fill="midnightblue" stroke="midnightblue" points="470.238,-365.843 459.643,-365.815 467.908,-372.444 470.238,-365.843"/>
</g>
<!-- Node4 -->
<g id="node4" class="node"><title>Node4</title>
<g id="a_node4"><a xlink:href="../../d2/d6d/GPUDef_8h.html" target="_top" xlink:title="GPUDef.h">
<polygon fill="none" stroke="black" points="271.5,-112.5 271.5,-131.5 333.5,-131.5 333.5,-112.5 271.5,-112.5"/>
<text text-anchor="middle" x="302.5" y="-119.5" font-family="Helvetica,sans-Serif" font-size="10.00">GPUDef.h</text>
</a>
</g>
</g>
<!-- Node3&#45;&gt;Node4 -->
<g id="edge3" class="edge"><title>Node3&#45;&gt;Node4</title>
<path fill="none" stroke="midnightblue" d="M527.862,-348.726C454.499,-339.808 337.633,-324.244 295.5,-311 231.22,-290.794 195.093,-301.213 159.5,-244 128.271,-193.802 213.499,-153.883 265.539,-134.955"/>
<polygon fill="midnightblue" stroke="midnightblue" points="266.885,-138.192 275.147,-131.56 264.553,-131.592 266.885,-138.192"/>
</g>
<!-- Node13 -->
<g id="node13" class="node"><title>Node13</title>
<g id="a_node13"><a xlink:href="../../d6/d57/GPUProcessor_8h.html" target="_top" xlink:title="GPUProcessor.h">
<polygon fill="none" stroke="black" points="745,-168.5 745,-187.5 836,-187.5 836,-168.5 745,-168.5"/>
<text text-anchor="middle" x="790.5" y="-175.5" font-family="Helvetica,sans-Serif" font-size="10.00">GPUProcessor.h</text>
</a>
</g>
</g>
<!-- Node3&#45;&gt;Node13 -->
<g id="edge12" class="edge"><title>Node3&#45;&gt;Node13</title>
<path fill="none" stroke="midnightblue" d="M600.146,-347.463C631.682,-319.554 732.041,-230.736 772.919,-194.559"/>
<polygon fill="midnightblue" stroke="midnightblue" points="775.31,-197.117 780.479,-187.868 770.671,-191.875 775.31,-197.117"/>
</g>
<!-- Node16 -->
<g id="node16" class="node"><title>Node16</title>
<g id="a_node16"><a xlink:href="../../d6/da2/GPUCommonMath_8h.html" target="_top" xlink:title="GPUCommonMath.h">
<polygon fill="none" stroke="black" points="568.5,-168.5 568.5,-187.5 676.5,-187.5 676.5,-168.5 568.5,-168.5"/>
<text text-anchor="middle" x="622.5" y="-175.5" font-family="Helvetica,sans-Serif" font-size="10.00">GPUCommonMath.h</text>
</a>
</g>
</g>
<!-- Node3&#45;&gt;Node16 -->
<g id="edge17" class="edge"><title>Node3&#45;&gt;Node16</title>
<path fill="none" stroke="midnightblue" d="M592.043,-347.463C596.931,-320.428 612.152,-236.239 619.045,-198.109"/>
<polygon fill="midnightblue" stroke="midnightblue" points="622.562,-198.332 620.897,-187.868 615.673,-197.086 622.562,-198.332"/>
</g>
<!-- Node3&#45;&gt;Node18 -->
<g id="edge21" class="edge"><title>Node3&#45;&gt;Node18</title>
<path fill="none" stroke="midnightblue" d="M563.134,-347.475C529.946,-337.136 473.849,-319.661 436.742,-308.102"/>
<polygon fill="midnightblue" stroke="midnightblue" points="437.403,-304.642 426.815,-305.009 435.321,-311.325 437.403,-304.642"/>
</g>
<!-- Node5 -->
<g id="node5" class="node"><title>Node5</title>
<g id="a_node5"><a xlink:href="../../df/d21/GPUCommonDef_8h.html" target="_top" xlink:title="GPUCommonDef.h">
<polygon fill="none" stroke="black" points="721.5,-56.5 721.5,-75.5 823.5,-75.5 823.5,-56.5 721.5,-56.5"/>
<text text-anchor="middle" x="772.5" y="-63.5" font-family="Helvetica,sans-Serif" font-size="10.00">GPUCommonDef.h</text>
</a>
</g>
</g>
<!-- Node4&#45;&gt;Node5 -->
<g id="edge4" class="edge"><title>Node4&#45;&gt;Node5</title>
<path fill="none" stroke="midnightblue" d="M333.5,-116.907C345.656,-115.33 359.727,-113.54 372.5,-112 492.351,-97.5546 632.587,-82.1143 711.126,-73.5993"/>
<polygon fill="midnightblue" stroke="midnightblue" points="711.759,-77.0512 721.324,-72.4949 711.006,-70.0919 711.759,-77.0512"/>
</g>
<!-- Node8 -->
<g id="node8" class="node"><title>Node8</title>
<g id="a_node8"><a xlink:href="../../d2/d37/GPUDefConstantsAndSettings_8h.html" target="_top" xlink:title="GPUDefConstantsAndSettings.h">
<polygon fill="none" stroke="black" points="0,-56.5 0,-75.5 161,-75.5 161,-56.5 0,-56.5"/>
<text text-anchor="middle" x="80.5" y="-63.5" font-family="Helvetica,sans-Serif" font-size="10.00">GPUDefConstantsAndSettings.h</text>
</a>
</g>
</g>
<!-- Node4&#45;&gt;Node8 -->
<g id="edge7" class="edge"><title>Node4&#45;&gt;Node8</title>
<path fill="none" stroke="midnightblue" d="M271.164,-113.378C233.211,-104.146 168.996,-88.5261 125.693,-77.993"/>
<polygon fill="midnightblue" stroke="midnightblue" points="126.25,-74.5264 115.706,-75.5637 124.596,-81.3281 126.25,-74.5264"/>
</g>
<!-- Node9 -->
<g id="node9" class="node"><title>Node9</title>
<g id="a_node9"><a xlink:href="../../dc/de9/GPUDefGPUParameters_8h.html" target="_top" xlink:title="GPUDefGPUParameters.h">
<polygon fill="none" stroke="black" points="179.5,-56.5 179.5,-75.5 313.5,-75.5 313.5,-56.5 179.5,-56.5"/>
<text text-anchor="middle" x="246.5" y="-63.5" font-family="Helvetica,sans-Serif" font-size="10.00">GPUDefGPUParameters.h</text>
</a>
</g>
</g>
<!-- Node4&#45;&gt;Node9 -->
<g id="edge8" class="edge"><title>Node4&#45;&gt;Node9</title>
<path fill="none" stroke="midnightblue" d="M293.503,-112.324C285.306,-104.42 272.994,-92.5482 263.028,-82.9377"/>
<polygon fill="midnightblue" stroke="midnightblue" points="265.289,-80.2558 255.661,-75.8339 260.43,-85.2947 265.289,-80.2558"/>
</g>
<!-- Node10 -->
<g id="node10" class="node"><title>Node10</title>
<g id="a_node10"><a xlink:href="../../d3/d4c/GPUDefOpenCL12Templates_8h.html" target="_top" xlink:title="GPUDefOpenCL12Templates.h">
<polygon fill="none" stroke="black" points="332,-56.5 332,-75.5 487,-75.5 487,-56.5 332,-56.5"/>
<text text-anchor="middle" x="409.5" y="-63.5" font-family="Helvetica,sans-Serif" font-size="10.00">GPUDefOpenCL12Templates.h</text>
</a>
</g>
</g>
<!-- Node4&#45;&gt;Node10 -->
<g id="edge9" class="edge"><title>Node4&#45;&gt;Node10</title>
<path fill="none" stroke="midnightblue" d="M319.691,-112.324C336.851,-103.664 363.446,-90.2424 383.247,-80.249"/>
<polygon fill="midnightblue" stroke="midnightblue" points="385.001,-83.2847 392.351,-75.6545 381.847,-77.0354 385.001,-83.2847"/>
</g>
<!-- Node11 -->
<g id="node11" class="node"><title>Node11</title>
<g id="a_node11"><a xlink:href="../../d2/d45/GPUCommonRtypes_8h.html" target="_top" xlink:title="GPUCommonRtypes.h">
<polygon fill="none" stroke="black" points="505.5,-56.5 505.5,-75.5 623.5,-75.5 623.5,-56.5 505.5,-56.5"/>
<text text-anchor="middle" x="564.5" y="-63.5" font-family="Helvetica,sans-Serif" font-size="10.00">GPUCommonRtypes.h</text>
</a>
</g>
</g>
<!-- Node4&#45;&gt;Node11 -->
<g id="edge10" class="edge"><title>Node4&#45;&gt;Node11</title>
<path fill="none" stroke="midnightblue" d="M333.584,-114.593C377.899,-105.46 459.771,-88.5854 513.169,-77.5797"/>
<polygon fill="midnightblue" stroke="midnightblue" points="514.033,-80.9752 523.121,-75.5285 512.62,-74.1193 514.033,-80.9752"/>
</g>
<!-- Node6 -->
<g id="node6" class="node"><title>Node6</title>
<g id="a_node6"><a xlink:href="../../d5/d93/GPUCommonDefSettings_8h.html" target="_top" xlink:title="GPUCommonDefSettings.h">
<polygon fill="none" stroke="black" points="783.5,-0.5 783.5,-19.5 921.5,-19.5 921.5,-0.5 783.5,-0.5"/>
<text text-anchor="middle" x="852.5" y="-7.5" font-family="Helvetica,sans-Serif" font-size="10.00">GPUCommonDefSettings.h</text>
</a>
</g>
</g>
<!-- Node5&#45;&gt;Node6 -->
<g id="edge5" class="edge"><title>Node5&#45;&gt;Node6</title>
<path fill="none" stroke="midnightblue" d="M785.353,-56.324C797.716,-47.979 816.63,-35.2122 831.237,-25.3524"/>
<polygon fill="midnightblue" stroke="midnightblue" points="833.348,-28.1503 839.679,-19.6545 829.432,-22.3483 833.348,-28.1503"/>
</g>
<!-- Node7 -->
<g id="node7" class="node"><title>Node7</title>
<g id="a_node7"><a xlink:href="../../da/d5a/GPUCommonDefAPI_8h.html" target="_top" xlink:title="GPUCommonDefAPI.h">
<polygon fill="none" stroke="black" points="646,-0.5 646,-19.5 765,-19.5 765,-0.5 646,-0.5"/>
<text text-anchor="middle" x="705.5" y="-7.5" font-family="Helvetica,sans-Serif" font-size="10.00">GPUCommonDefAPI.h</text>
</a>
</g>
</g>
<!-- Node5&#45;&gt;Node7 -->
<g id="edge6" class="edge"><title>Node5&#45;&gt;Node7</title>
<path fill="none" stroke="midnightblue" d="M761.735,-56.324C751.734,-48.2631 736.613,-36.0765 724.57,-26.3695"/>
<polygon fill="midnightblue" stroke="midnightblue" points="726.443,-23.3841 716.461,-19.8339 722.05,-28.8343 726.443,-23.3841"/>
</g>
<!-- Node12 -->
<g id="node12" class="node"><title>Node12</title>
<polygon fill="none" stroke="#bfbfbf" points="536.5,-0.5 536.5,-19.5 592.5,-19.5 592.5,-0.5 536.5,-0.5"/>
<text text-anchor="middle" x="564.5" y="-7.5" font-family="Helvetica,sans-Serif" font-size="10.00">Rtypes.h</text>
</g>
<!-- Node11&#45;&gt;Node12 -->
<g id="edge11" class="edge"><title>Node11&#45;&gt;Node12</title>
<path fill="none" stroke="midnightblue" d="M564.5,-56.083C564.5,-49.0059 564.5,-38.8611 564.5,-29.9865"/>
<polygon fill="midnightblue" stroke="midnightblue" points="568,-29.751 564.5,-19.7511 561,-29.7511 568,-29.751"/>
</g>
<!-- Node13&#45;&gt;Node4 -->
<g id="edge14" class="edge"><title>Node13&#45;&gt;Node4</title>
<path fill="none" stroke="midnightblue" d="M744.59,-171.92C649.988,-161.452 434.629,-137.621 343.958,-127.588"/>
<polygon fill="midnightblue" stroke="midnightblue" points="344.114,-124.084 333.79,-126.462 343.344,-131.041 344.114,-124.084"/>
</g>
<!-- Node13&#45;&gt;Node5 -->
<g id="edge13" class="edge"><title>Node13&#45;&gt;Node5</title>
<path fill="none" stroke="midnightblue" d="M789.088,-168.368C786.183,-150.617 779.482,-109.666 775.543,-85.5974"/>
<polygon fill="midnightblue" stroke="midnightblue" points="778.975,-84.8949 773.906,-75.5914 772.067,-86.0254 778.975,-84.8949"/>
</g>
<!-- Node14 -->
<g id="node14" class="node"><title>Node14</title>
<polygon fill="none" stroke="#bfbfbf" points="971,-112.5 971,-131.5 1020,-131.5 1020,-112.5 971,-112.5"/>
<text text-anchor="middle" x="995.5" y="-119.5" font-family="Helvetica,sans-Serif" font-size="10.00">cstddef</text>
</g>
<!-- Node13&#45;&gt;Node14 -->
<g id="edge15" class="edge"><title>Node13&#45;&gt;Node14</title>
<path fill="none" stroke="midnightblue" d="M822.967,-168.471C855.418,-159.943 907.004,-146.377 961.2,-132.076"/>
<polygon fill="midnightblue" stroke="midnightblue" points="962.211,-135.429 970.987,-129.493 960.425,-128.661 962.211,-135.429"/>
</g>
<!-- Node13&#45;&gt;Node15 -->
<g id="edge16" class="edge"><title>Node13&#45;&gt;Node15</title>
<path fill="none" stroke="midnightblue" d="M778.611,-168.324C767.35,-160.107 750.213,-147.602 736.791,-137.807"/>
<polygon fill="midnightblue" stroke="midnightblue" points="738.747,-134.901 728.606,-131.834 734.62,-140.556 738.747,-134.901"/>
</g>
<!-- Node16&#45;&gt;Node5 -->
<g id="edge18" class="edge"><title>Node16&#45;&gt;Node5</title>
<path fill="none" stroke="midnightblue" d="M628.276,-168.437C637.694,-154.99 657.528,-128.73 679.5,-112 697.607,-98.2129 720.611,-87.0381 739.21,-79.273"/>
<polygon fill="midnightblue" stroke="midnightblue" points="740.523,-82.5173 748.485,-75.5273 737.902,-76.0266 740.523,-82.5173"/>
</g>
<!-- Node16&#45;&gt;Node15 -->
<g id="edge20" class="edge"><title>Node16&#45;&gt;Node15</title>
<path fill="none" stroke="midnightblue" d="M637.603,-168.324C652.403,-159.822 675.194,-146.729 692.482,-136.797"/>
<polygon fill="midnightblue" stroke="midnightblue" points="694.507,-139.671 701.435,-131.655 691.02,-133.601 694.507,-139.671"/>
</g>
<!-- Node17 -->
<g id="node17" class="node"><title>Node17</title>
<polygon fill="none" stroke="#bfbfbf" points="588.5,-112.5 588.5,-131.5 632.5,-131.5 632.5,-112.5 588.5,-112.5"/>
<text text-anchor="middle" x="610.5" y="-119.5" font-family="Helvetica,sans-Serif" font-size="10.00">cmath</text>
</g>
<!-- Node16&#45;&gt;Node17 -->
<g id="edge19" class="edge"><title>Node16&#45;&gt;Node17</title>
<path fill="none" stroke="midnightblue" d="M620.518,-168.083C618.928,-160.927 616.641,-150.635 614.654,-141.691"/>
<polygon fill="midnightblue" stroke="midnightblue" points="618.031,-140.754 612.445,-131.751 611.197,-142.272 618.031,-140.754"/>
</g>
<!-- Node18&#45;&gt;Node4 -->
<g id="edge24" class="edge"><title>Node18&#45;&gt;Node4</title>
<path fill="none" stroke="midnightblue" d="M394.716,-285.89C383.327,-265.411 353.675,-212.207 328.5,-168 323.301,-158.871 317.453,-148.737 312.621,-140.401"/>
<polygon fill="midnightblue" stroke="midnightblue" points="315.564,-138.499 307.516,-131.608 309.511,-142.014 315.564,-138.499"/>
</g>
<!-- Node18&#45;&gt;Node5 -->
<g id="edge22" class="edge"><title>Node18&#45;&gt;Node5</title>
<path fill="none" stroke="midnightblue" d="M397.689,-285.657C392.209,-256.13 379.061,-160.097 428.5,-112 448.37,-92.6697 617.563,-77.8696 711.036,-71.0808"/>
<polygon fill="midnightblue" stroke="midnightblue" points="711.493,-74.5571 721.217,-70.3513 710.993,-67.575 711.493,-74.5571"/>
</g>
<!-- Node18&#45;&gt;Node16 -->
<g id="edge23" class="edge"><title>Node18&#45;&gt;Node16</title>
<path fill="none" stroke="midnightblue" d="M407.261,-285.864C420.908,-271.167 450.688,-241.216 481.5,-224 509.469,-208.372 543.642,-197.293 571.341,-190.038"/>
<polygon fill="midnightblue" stroke="midnightblue" points="572.393,-193.382 581.229,-187.537 570.676,-186.596 572.393,-193.382"/>
</g>
<!-- Node19 -->
<g id="node19" class="node"><title>Node19</title>
<g id="a_node19"><a xlink:href="../../dd/dc6/GPUSettings_8h.html" target="_top" xlink:title="GPUSettings.h">
<polygon fill="none" stroke="black" points="491,-224.5 491,-243.5 574,-243.5 574,-224.5 491,-224.5"/>
<text text-anchor="middle" x="532.5" y="-231.5" font-family="Helvetica,sans-Serif" font-size="10.00">GPUSettings.h</text>
</a>
</g>
</g>
<!-- Node18&#45;&gt;Node19 -->
<g id="edge25" class="edge"><title>Node18&#45;&gt;Node19</title>
<path fill="none" stroke="midnightblue" d="M418.556,-285.975C440.975,-275.945 478.405,-259.2 504.213,-247.655"/>
<polygon fill="midnightblue" stroke="midnightblue" points="505.781,-250.788 513.48,-243.509 502.922,-244.398 505.781,-250.788"/>
</g>
<!-- Node20 -->
<g id="node20" class="node"><title>Node20</title>
<g id="a_node20"><a xlink:href="../../d6/d1b/GPUTPCGeometry_8h.html" target="_top" xlink:title="GPUTPCGeometry.h">
<polygon fill="none" stroke="black" points="437.5,-112.5 437.5,-131.5 547.5,-131.5 547.5,-112.5 437.5,-112.5"/>
<text text-anchor="middle" x="492.5" y="-119.5" font-family="Helvetica,sans-Serif" font-size="10.00">GPUTPCGeometry.h</text>
</a>
</g>
</g>
<!-- Node18&#45;&gt;Node20 -->
<g id="edge27" class="edge"><title>Node18&#45;&gt;Node20</title>
<path fill="none" stroke="midnightblue" d="M404.24,-285.76C418.856,-258.806 463.425,-176.616 483.052,-140.424"/>
<polygon fill="midnightblue" stroke="midnightblue" points="486.19,-141.979 487.88,-131.519 480.036,-138.642 486.19,-141.979"/>
</g>
<!-- Node21 -->
<g id="node21" class="node"><title>Node21</title>
<g id="a_node21"><a xlink:href="../../d9/d9c/GPUTPCGMPolynomialField_8h.html" target="_top" xlink:title="GPUTPCGMPolynomialField.h">
<polygon fill="none" stroke="black" points="168.5,-224.5 168.5,-243.5 320.5,-243.5 320.5,-224.5 168.5,-224.5"/>
<text text-anchor="middle" x="244.5" y="-231.5" font-family="Helvetica,sans-Serif" font-size="10.00">GPUTPCGMPolynomialField.h</text>
</a>
</g>
</g>
<!-- Node18&#45;&gt;Node21 -->
<g id="edge29" class="edge"><title>Node18&#45;&gt;Node21</title>
<path fill="none" stroke="midnightblue" d="M377.292,-285.975C350.819,-275.813 306.386,-258.756 276.28,-247.2"/>
<polygon fill="midnightblue" stroke="midnightblue" points="277.257,-243.825 266.667,-243.509 274.748,-250.36 277.257,-243.825"/>
</g>
<!-- Node19&#45;&gt;Node16 -->
<g id="edge26" class="edge"><title>Node19&#45;&gt;Node16</title>
<path fill="none" stroke="midnightblue" d="M546.96,-224.324C561,-215.9 582.548,-202.971 599.043,-193.074"/>
<polygon fill="midnightblue" stroke="midnightblue" points="601.302,-195.801 608.076,-187.655 597.7,-189.798 601.302,-195.801"/>
</g>
<!-- Node20&#45;&gt;Node5 -->
<g id="edge28" class="edge"><title>Node20&#45;&gt;Node5</title>
<path fill="none" stroke="midnightblue" d="M536.867,-112.444C586.122,-102.944 665.628,-87.611 718.471,-77.4198"/>
<polygon fill="midnightblue" stroke="midnightblue" points="719.184,-80.8469 728.341,-75.5164 717.859,-73.9735 719.184,-80.8469"/>
</g>
<!-- Node22 -->
<g id="node22" class="node"><title>Node22</title>
<g id="a_node22"><a xlink:href="../../da/dab/GPUTPCDef_8h.html" target="_top" xlink:title="GPUTPCDef.h">
<polygon fill="none" stroke="black" points="237,-168.5 237,-187.5 320,-187.5 320,-168.5 237,-168.5"/>
<text text-anchor="middle" x="278.5" y="-175.5" font-family="Helvetica,sans-Serif" font-size="10.00">GPUTPCDef.h</text>
</a>
</g>
</g>
<!-- Node21&#45;&gt;Node22 -->
<g id="edge30" class="edge"><title>Node21&#45;&gt;Node22</title>
<path fill="none" stroke="midnightblue" d="M250.114,-224.083C254.867,-216.534 261.818,-205.495 267.652,-196.23"/>
<polygon fill="midnightblue" stroke="midnightblue" points="270.624,-198.078 272.99,-187.751 264.7,-194.349 270.624,-198.078"/>
</g>
<!-- Node22&#45;&gt;Node4 -->
<g id="edge31" class="edge"><title>Node22&#45;&gt;Node4</title>
<path fill="none" stroke="midnightblue" d="M282.463,-168.083C285.713,-160.77 290.419,-150.181 294.454,-141.103"/>
<polygon fill="midnightblue" stroke="midnightblue" points="297.748,-142.311 298.611,-131.751 291.351,-139.468 297.748,-142.311"/>
</g>
<!-- Node25 -->
<g id="node25" class="node"><title>Node25</title>
<g id="a_node25"><a xlink:href="../../da/d28/GPUO2FakeClasses_8h.html" target="_top" xlink:title="GPUO2FakeClasses.h">
<polygon fill="none" stroke="black" points="1170,-224.5 1170,-243.5 1287,-243.5 1287,-224.5 1170,-224.5"/>
<text text-anchor="middle" x="1228.5" y="-231.5" font-family="Helvetica,sans-Serif" font-size="10.00">GPUO2FakeClasses.h</text>
</a>
</g>
</g>
<!-- Node24&#45;&gt;Node25 -->
<g id="edge34" class="edge"><title>Node24&#45;&gt;Node25</title>
<path fill="none" stroke="midnightblue" d="M1228.5,-285.975C1228.5,-277.58 1228.5,-264.481 1228.5,-253.663"/>
<polygon fill="midnightblue" stroke="midnightblue" points="1232,-253.509 1228.5,-243.509 1225,-253.509 1232,-253.509"/>
</g>
<!-- Node27 -->
<g id="node27" class="node"><title>Node27</title>
<g id="a_node27"><a xlink:href="../../d3/d1f/GPUdEdxInfo_8h.html" target="_top" xlink:title="GPUdEdxInfo.h">
<polygon fill="none" stroke="black" points="1076.5,-168.5 1076.5,-187.5 1162.5,-187.5 1162.5,-168.5 1076.5,-168.5"/>
<text text-anchor="middle" x="1119.5" y="-175.5" font-family="Helvetica,sans-Serif" font-size="10.00">GPUdEdxInfo.h</text>
</a>
</g>
</g>
<!-- Node24&#45;&gt;Node27 -->
<g id="edge39" class="edge"><title>Node24&#45;&gt;Node27</title>
<path fill="none" stroke="midnightblue" d="M1214.27,-285.892C1199.86,-276.718 1177.47,-261.17 1161.5,-244 1148.1,-229.593 1136.28,-210.397 1128.63,-196.606"/>
<polygon fill="midnightblue" stroke="midnightblue" points="1131.64,-194.818 1123.82,-187.666 1125.47,-198.131 1131.64,-194.818"/>
</g>
<!-- Node25&#45;&gt;Node5 -->
<g id="edge35" class="edge"><title>Node25&#45;&gt;Node5</title>
<path fill="none" stroke="midnightblue" d="M1245.92,-224.37C1267.95,-212.292 1301.22,-189.419 1285.5,-168 1232.68,-96.0145 958.115,-75.0216 833.788,-69.1592"/>
<polygon fill="midnightblue" stroke="midnightblue" points="833.815,-65.657 823.667,-68.6999 833.498,-72.6498 833.815,-65.657"/>
</g>
<!-- Node26 -->
<g id="node26" class="node"><title>Node26</title>
<g id="a_node26"><a xlink:href="../../d4/dc5/GPUDataTypes_8h.html" target="_top" xlink:title="GPUDataTypes.h">
<polygon fill="none" stroke="black" points="1181,-168.5 1181,-187.5 1276,-187.5 1276,-168.5 1181,-168.5"/>
<text text-anchor="middle" x="1228.5" y="-175.5" font-family="Helvetica,sans-Serif" font-size="10.00">GPUDataTypes.h</text>
</a>
</g>
</g>
<!-- Node25&#45;&gt;Node26 -->
<g id="edge36" class="edge"><title>Node25&#45;&gt;Node26</title>
<path fill="none" stroke="midnightblue" d="M1228.5,-224.083C1228.5,-217.006 1228.5,-206.861 1228.5,-197.986"/>
<polygon fill="midnightblue" stroke="midnightblue" points="1232,-197.751 1228.5,-187.751 1225,-197.751 1232,-197.751"/>
</g>
<!-- Node26&#45;&gt;Node5 -->
<g id="edge37" class="edge"><title>Node26&#45;&gt;Node5</title>
<path fill="none" stroke="midnightblue" d="M1210.52,-168.442C1180.52,-154.515 1118.08,-126.998 1062.5,-112 985.121,-91.1187 893.339,-78.9084 834.072,-72.5973"/>
<polygon fill="midnightblue" stroke="midnightblue" points="834.066,-69.0779 823.758,-71.5237 833.342,-76.0403 834.066,-69.0779"/>
</g>
<!-- Node26&#45;&gt;Node14 -->
<g id="edge38" class="edge"><title>Node26&#45;&gt;Node14</title>
<path fill="none" stroke="midnightblue" d="M1191.58,-168.444C1147.15,-158.147 1073.14,-140.994 1029.88,-130.967"/>
<polygon fill="midnightblue" stroke="midnightblue" points="1030.63,-127.549 1020.1,-128.7 1029.05,-134.368 1030.63,-127.549"/>
</g>
<!-- Node28&#45;&gt;Node4 -->
<g id="edge42" class="edge"><title>Node28&#45;&gt;Node4</title>
<path fill="none" stroke="midnightblue" d="M744.409,-405.032C680.838,-398.641 593.379,-387.034 518.5,-367 495.379,-360.814 491.662,-353.029 468.5,-347 347.93,-315.616 295.038,-378.777 190.5,-311 136.487,-275.981 122.227,-213.762 167.5,-168 192.29,-142.942 231.382,-131.837 261.133,-126.916"/>
<polygon fill="midnightblue" stroke="midnightblue" points="261.849,-130.348 271.228,-125.421 260.823,-123.424 261.849,-130.348"/>
</g>
<!-- Node29 -->
<g id="node29" class="node"><title>Node29</title>
<g id="a_node29"><a xlink:href="../../d0/dd8/GPUTPCGMPropagator_8h.html" target="_top" xlink:title="GPUTPCGMPropagator.h">
<polygon fill="none" stroke="black" points="766.5,-347.5 766.5,-366.5 896.5,-366.5 896.5,-347.5 766.5,-347.5"/>
<text text-anchor="middle" x="831.5" y="-354.5" font-family="Helvetica,sans-Serif" font-size="10.00">GPUTPCGMPropagator.h</text>
</a>
</g>
</g>
<!-- Node28&#45;&gt;Node29 -->
<g id="edge43" class="edge"><title>Node28&#45;&gt;Node29</title>
<path fill="none" stroke="midnightblue" d="M832.335,-403.083C832.204,-396.006 832.016,-385.861 831.852,-376.986"/>
<polygon fill="midnightblue" stroke="midnightblue" points="835.347,-376.685 831.662,-366.751 828.348,-376.814 835.347,-376.685"/>
</g>
<!-- Node32 -->
<g id="node32" class="node"><title>Node32</title>
<g id="a_node32"><a xlink:href="../../d8/d33/GPUTPCGMTrackParam_8h.html" target="_top" xlink:title="GPUTPCGMTrackParam.h">
<polygon fill="none" stroke="black" points="808.5,-224.5 808.5,-243.5 944.5,-243.5 944.5,-224.5 808.5,-224.5"/>
<text text-anchor="middle" x="876.5" y="-231.5" font-family="Helvetica,sans-Serif" font-size="10.00">GPUTPCGMTrackParam.h</text>
</a>
</g>
</g>
<!-- Node28&#45;&gt;Node32 -->
<g id="edge56" class="edge"><title>Node28&#45;&gt;Node32</title>
<path fill="none" stroke="midnightblue" d="M915.95,-403.45C975.228,-392.527 1050.89,-367.651 1089.5,-311 1125.5,-258.166 1029.52,-241.796 954.894,-236.878"/>
<polygon fill="midnightblue" stroke="midnightblue" points="954.713,-233.361 944.522,-236.258 954.295,-240.349 954.713,-233.361"/>
</g>
<!-- Node29&#45;&gt;Node5 -->
<g id="edge44" class="edge"><title>Node29&#45;&gt;Node5</title>
<path fill="none" stroke="midnightblue" d="M896.664,-353.885C964.857,-350.138 1065.33,-339.756 1089.5,-311 1098.37,-300.454 1091.89,-293.569 1089.5,-280 1082.62,-240.883 1058.92,-137.534 1028.5,-112 999.71,-87.836 899.985,-76.0652 833.835,-70.7906"/>
<polygon fill="midnightblue" stroke="midnightblue" points="833.762,-67.2747 823.523,-69.9989 833.226,-74.2542 833.762,-67.2747"/>
</g>
<!-- Node29&#45;&gt;Node16 -->
<g id="edge55" class="edge"><title>Node29&#45;&gt;Node16</title>
<path fill="none" stroke="midnightblue" d="M805.819,-347.386C785.489,-339.793 757.031,-327.387 735.5,-311 691.05,-277.169 651.783,-223.219 633.457,-195.954"/>
<polygon fill="midnightblue" stroke="midnightblue" points="636.305,-193.916 627.873,-187.5 630.464,-197.773 636.305,-193.916"/>
</g>
<!-- Node29&#45;&gt;Node21 -->
<g id="edge54" class="edge"><title>Node29&#45;&gt;Node21</title>
<path fill="none" stroke="midnightblue" d="M766.094,-351.732C644.017,-343.49 390.359,-324.967 352.5,-311 315.987,-297.529 280.411,-268.507 260.583,-250.48"/>
<polygon fill="midnightblue" stroke="midnightblue" points="262.796,-247.759 253.093,-243.505 258.026,-252.881 262.796,-247.759"/>
</g>
<!-- Node30 -->
<g id="node30" class="node"><title>Node30</title>
<g id="a_node30"><a xlink:href="../../d0/d79/GPUTPCGMOfflineStatisticalErrors_8h.html" target="_top" xlink:title="GPUTPCGMOfflineStatistical\lErrors.h">
<polygon fill="none" stroke="black" points="934.5,-280.5 934.5,-310.5 1080.5,-310.5 1080.5,-280.5 934.5,-280.5"/>
<text text-anchor="start" x="942.5" y="-298.5" font-family="Helvetica,sans-Serif" font-size="10.00">GPUTPCGMOfflineStatistical</text>
<text text-anchor="middle" x="1007.5" y="-287.5" font-family="Helvetica,sans-Serif" font-size="10.00">Errors.h</text>
</a>
</g>
</g>
<!-- Node29&#45;&gt;Node30 -->
<g id="edge45" class="edge"><title>Node29&#45;&gt;Node30</title>
<path fill="none" stroke="midnightblue" d="M856.717,-347.475C882.558,-338.739 923.472,-324.907 956.164,-313.855"/>
<polygon fill="midnightblue" stroke="midnightblue" points="957.668,-317.041 966.02,-310.523 955.426,-310.41 957.668,-317.041"/>
</g>
<!-- Node31 -->
<g id="node31" class="node"><title>Node31</title>
<g id="a_node31"><a xlink:href="../../d6/d37/GPUTPCGMPhysicalTrackModel_8h.html" target="_top" xlink:title="GPUTPCGMPhysicalTrackModel.h">
<polygon fill="none" stroke="black" points="745,-286 745,-305 916,-305 916,-286 745,-286"/>
<text text-anchor="middle" x="830.5" y="-293" font-family="Helvetica,sans-Serif" font-size="10.00">GPUTPCGMPhysicalTrackModel.h</text>
</a>
</g>
</g>
<!-- Node29&#45;&gt;Node31 -->
<g id="edge46" class="edge"><title>Node29&#45;&gt;Node31</title>
<path fill="none" stroke="midnightblue" d="M831.357,-347.475C831.216,-339.08 830.995,-325.981 830.814,-315.163"/>
<polygon fill="midnightblue" stroke="midnightblue" points="834.311,-314.949 830.643,-305.009 827.312,-315.067 834.311,-314.949"/>
</g>
<!-- Node31&#45;&gt;Node32 -->
<g id="edge47" class="edge"><title>Node31&#45;&gt;Node32</title>
<path fill="none" stroke="midnightblue" d="M837.091,-285.975C843.991,-277.05 855.002,-262.807 863.634,-251.643"/>
<polygon fill="midnightblue" stroke="midnightblue" points="866.574,-253.561 869.922,-243.509 861.036,-249.28 866.574,-253.561"/>
</g>
<!-- Node32&#45;&gt;Node14 -->
<g id="edge53" class="edge"><title>Node32&#45;&gt;Node14</title>
<path fill="none" stroke="midnightblue" d="M885.838,-224.368C905.911,-205.814 953.403,-161.913 978.799,-138.438"/>
<polygon fill="midnightblue" stroke="midnightblue" points="981.238,-140.95 986.206,-131.591 976.487,-135.809 981.238,-140.95"/>
</g>
<!-- Node32&#45;&gt;Node16 -->
<g id="edge51" class="edge"><title>Node32&#45;&gt;Node16</title>
<path fill="none" stroke="midnightblue" d="M836.253,-224.444C791.85,-215.004 720.347,-199.802 672.412,-189.611"/>
<polygon fill="midnightblue" stroke="midnightblue" points="673.068,-186.173 662.559,-187.516 671.612,-193.02 673.068,-186.173"/>
</g>
<!-- Node32&#45;&gt;Node22 -->
<g id="edge48" class="edge"><title>Node32&#45;&gt;Node22</title>
<path fill="none" stroke="midnightblue" d="M808.484,-226.858C687.637,-215.945 438.077,-193.41 330.127,-183.662"/>
<polygon fill="midnightblue" stroke="midnightblue" points="330.406,-180.173 320.131,-182.759 329.776,-187.145 330.406,-180.173"/>
</g>
<!-- Node32&#45;&gt;Node27 -->
<g id="edge52" class="edge"><title>Node32&#45;&gt;Node27</title>
<path fill="none" stroke="midnightblue" d="M915.004,-224.444C957.306,-215.043 1025.32,-199.929 1071.17,-189.739"/>
<polygon fill="midnightblue" stroke="midnightblue" points="1072.17,-193.102 1081.18,-187.516 1070.65,-186.269 1072.17,-193.102"/>
</g>
<!-- Node33 -->
<g id="node33" class="node"><title>Node33</title>
<g id="a_node33"><a xlink:href="../../d3/dcc/GPUTPCGMMergedTrackHit_8h.html" target="_top" xlink:title="GPUTPCGMMergedTrackHit.h">
<polygon fill="none" stroke="black" points="800.5,-112.5 800.5,-131.5 952.5,-131.5 952.5,-112.5 800.5,-112.5"/>
<text text-anchor="middle" x="876.5" y="-119.5" font-family="Helvetica,sans-Serif" font-size="10.00">GPUTPCGMMergedTrackHit.h</text>
</a>
</g>
</g>
<!-- Node32&#45;&gt;Node33 -->
<g id="edge49" class="edge"><title>Node32&#45;&gt;Node33</title>
<path fill="none" stroke="midnightblue" d="M876.5,-224.368C876.5,-206.617 876.5,-165.666 876.5,-141.597"/>
<polygon fill="midnightblue" stroke="midnightblue" points="880,-141.591 876.5,-131.591 873,-141.591 880,-141.591"/>
</g>
<!-- Node33&#45;&gt;Node5 -->
<g id="edge50" class="edge"><title>Node33&#45;&gt;Node5</title>
<path fill="none" stroke="midnightblue" d="M859.791,-112.324C843.188,-103.703 817.498,-90.3643 798.28,-80.3855"/>
<polygon fill="midnightblue" stroke="midnightblue" points="799.656,-77.1565 789.168,-75.6545 796.43,-83.3689 799.656,-77.1565"/>
</g>
</g>
</svg>
