<?xml version="1.0" encoding="UTF-8" standalone="no"?>
<!DOCTYPE svg PUBLIC "-//W3C//DTD SVG 1.1//EN"
 "http://www.w3.org/Graphics/SVG/1.1/DTD/svg11.dtd">
<!-- Generated by graphviz version 2.38.0 (20140413.2041)
 -->
<!-- Title: /home/travis/build/AliceO2Group/AliceO2/Detectors/EMCAL/base/test/testMapper.cxx Pages: 1 -->
<!--zoomable 229 -->
<svg id="main" version="1.1" xmlns="http://www.w3.org/2000/svg" xmlns:xlink="http://www.w3.org/1999/xlink" xml:space="preserve" onload="init(evt)">
<style type="text/css"><![CDATA[
.edge:hover path { stroke: red; }
.edge:hover polygon { stroke: red; fill: red; }
]]></style>
<script type="text/javascript"><![CDATA[
var edges = document.getElementsByTagName('g');
if (edges && edges.length) {
  for (var i=0;i<edges.length;i++) {
    if (edges[i].id.substr(0,4)=='edge') {
      edges[i].setAttribute('class','edge');
    }
  }
}
]]></script>
        <defs>
                <circle id="rim" cx="0" cy="0" r="7"/>
                <circle id="rim2" cx="0" cy="0" r="3.5"/>
                <g id="zoomPlus">
                        <use xlink:href="#rim" fill="#404040">
                                <set attributeName="fill" to="#808080" begin="zoomplus.mouseover" end="zoomplus.mouseout"/>
                        </use>
                        <path d="M-4,0h8M0,-4v8" fill="none" stroke="white" stroke-width="1.5" pointer-events="none"/>
                </g>
                <g id="zoomMin">
                        <use xlink:href="#rim" fill="#404040">
                                <set attributeName="fill" to="#808080" begin="zoomminus.mouseover" end="zoomminus.mouseout"/>
                        </use>
                        <path d="M-4,0h8" fill="none" stroke="white" stroke-width="1.5" pointer-events="none"/>
                </g>
                <g id="dirArrow">
                        <path fill="none" stroke="white" stroke-width="1.5" d="M0,-3.0v7 M-2.5,-0.5L0,-3.0L2.5,-0.5"/>
                </g>
               <g id="resetDef">
                       <use xlink:href="#rim2" fill="#404040">
                               <set attributeName="fill" to="#808080" begin="reset.mouseover" end="reset.mouseout"/>
                       </use>
               </g>
        </defs>

<script type="text/javascript">
var viewWidth = 875;
var viewHeight = 229;
var sectionId = 'dynsection-0';
</script>
<script xlink:href="../../svgpan.js"/>
<svg id="graph" class="graph">
<g id="viewport">
<title>/home/travis/build/AliceO2Group/AliceO2/Detectors/EMCAL/base/test/testMapper.cxx</title>
<!-- Node1 -->
<g id="node1" class="node"><title>Node1</title>
<polygon fill="#bfbfbf" stroke="black" points="469,-168.5 469,-220.5 593,-220.5 593,-168.5 469,-168.5"/>
<text text-anchor="start" x="477" y="-208.5" font-family="Helvetica,sans-Serif" font-size="10.00">/home/travis/build</text>
<text text-anchor="start" x="477" y="-197.5" font-family="Helvetica,sans-Serif" font-size="10.00">/AliceO2Group/AliceO2</text>
<text text-anchor="start" x="477" y="-186.5" font-family="Helvetica,sans-Serif" font-size="10.00">/Detectors/EMCAL/base</text>
<text text-anchor="middle" x="531" y="-175.5" font-family="Helvetica,sans-Serif" font-size="10.00">/test/testMapper.cxx</text>
</g>
<!-- Node2 -->
<g id="node2" class="node"><title>Node2</title>
<polygon fill="none" stroke="#bfbfbf" points="190.5,-112.5 190.5,-131.5 309.5,-131.5 309.5,-112.5 190.5,-112.5"/>
<text text-anchor="middle" x="250" y="-119.5" font-family="Helvetica,sans-Serif" font-size="10.00">boost/test/unit_test.hpp</text>
</g>
<!-- Node1&#45;&gt;Node2 -->
<g id="edge1" class="edge"><title>Node1&#45;&gt;Node2</title>
<path fill="none" stroke="midnightblue" d="M468.985,-177.941C415.983,-164.643 341.039,-145.841 294.006,-134.041"/>
<polygon fill="midnightblue" stroke="midnightblue" points="294.674,-130.6 284.123,-131.561 292.97,-137.389 294.674,-130.6"/>
</g>
<!-- Node3 -->
<g id="node3" class="node"><title>Node3</title>
<g id="a_node3"><a xlink:href="../../dd/dda/DataFormats_2Detectors_2EMCAL_2include_2DataFormatsEMCAL_2Constants_8h.html" target="_top" xlink:title="DataFormatsEMCAL/Constants.h">
<polygon fill="none" stroke="black" points="529,-56.5 529,-75.5 693,-75.5 693,-56.5 529,-56.5"/>
<text text-anchor="middle" x="611" y="-63.5" font-family="Helvetica,sans-Serif" font-size="10.00">DataFormatsEMCAL/Constants.h</text>
</a>
</g>
</g>
<!-- Node1&#45;&gt;Node3 -->
<g id="edge2" class="edge"><title>Node1&#45;&gt;Node3</title>
<path fill="none" stroke="midnightblue" d="M526.735,-168.173C525.185,-151.097 525.845,-128.72 536,-112 544.859,-97.4145 560.394,-86.9627 575.035,-79.8261"/>
<polygon fill="midnightblue" stroke="midnightblue" points="576.757,-82.8901 584.449,-75.6049 573.892,-76.5028 576.757,-82.8901"/>
</g>
<!-- Node8 -->
<g id="node8" class="node"><title>Node8</title>
<g id="a_node8"><a xlink:href="../../d1/d7a/EMCAL_2base_2include_2EMCALBase_2Mapper_8h.html" target="_top" xlink:title="EMCALBase/Mapper.h">
<polygon fill="none" stroke="black" points="366.5,-112.5 366.5,-131.5 483.5,-131.5 483.5,-112.5 366.5,-112.5"/>
<text text-anchor="middle" x="425" y="-119.5" font-family="Helvetica,sans-Serif" font-size="10.00">EMCALBase/Mapper.h</text>
</a>
</g>
</g>
<!-- Node1&#45;&gt;Node8 -->
<g id="edge7" class="edge"><title>Node1&#45;&gt;Node8</title>
<path fill="none" stroke="midnightblue" d="M493.33,-168.446C477.568,-157.963 459.827,-146.163 446.373,-137.215"/>
<polygon fill="midnightblue" stroke="midnightblue" points="448.086,-134.151 437.821,-131.527 444.209,-139.979 448.086,-134.151"/>
</g>
<!-- Node9 -->
<g id="node9" class="node"><title>Node9</title>
<polygon fill="none" stroke="#bfbfbf" points="0,-56.5 0,-75.5 38,-75.5 38,-56.5 0,-56.5"/>
<text text-anchor="middle" x="19" y="-63.5" font-family="Helvetica,sans-Serif" font-size="10.00">array</text>
</g>
<!-- Node1&#45;&gt;Node9 -->
<g id="edge20" class="edge"><title>Node1&#45;&gt;Node9</title>
<path fill="none" stroke="midnightblue" d="M468.619,-173.711C435.113,-162.52 393.34,-147.656 357,-132 339.11,-124.292 336.593,-117.812 318,-112 205.089,-76.706 167.513,-101.32 48.044,-75.8383"/>
<polygon fill="midnightblue" stroke="midnightblue" points="48.6739,-72.3931 38.1546,-73.6556 47.1653,-79.2286 48.6739,-72.3931"/>
</g>
<!-- Node15 -->
<g id="node15" class="node"><title>Node15</title>
<polygon fill="none" stroke="#bfbfbf" points="787,-56.5 787,-75.5 867,-75.5 867,-56.5 787,-56.5"/>
<text text-anchor="middle" x="827" y="-63.5" font-family="Helvetica,sans-Serif" font-size="10.00">RStringView.h</text>
</g>
<!-- Node1&#45;&gt;Node15 -->
<g id="edge24" class="edge"><title>Node1&#45;&gt;Node15</title>
<path fill="none" stroke="midnightblue" d="M536.208,-168.2C541.36,-149.748 551.152,-125.669 569,-112 571.066,-110.418 702.211,-88.07 776.697,-75.4768"/>
<polygon fill="midnightblue" stroke="midnightblue" points="777.535,-78.8849 786.812,-73.7677 776.369,-71.9827 777.535,-78.8849"/>
</g>
<!-- Node16 -->
<g id="node16" class="node"><title>Node16</title>
<polygon fill="none" stroke="#bfbfbf" points="578,-112.5 578,-131.5 632,-131.5 632,-112.5 578,-112.5"/>
<text text-anchor="middle" x="605" y="-119.5" font-family="Helvetica,sans-Serif" font-size="10.00">iostream</text>
</g>
<!-- Node1&#45;&gt;Node16 -->
<g id="edge21" class="edge"><title>Node1&#45;&gt;Node16</title>
<path fill="none" stroke="midnightblue" d="M557.298,-168.446C567.708,-158.528 579.355,-147.432 588.535,-138.687"/>
<polygon fill="midnightblue" stroke="midnightblue" points="591.047,-141.127 595.873,-131.695 586.218,-136.059 591.047,-141.127"/>
</g>
<!-- Node17 -->
<g id="node17" class="node"><title>Node17</title>
<polygon fill="none" stroke="#bfbfbf" points="650,-112.5 650,-131.5 700,-131.5 700,-112.5 650,-112.5"/>
<text text-anchor="middle" x="675" y="-119.5" font-family="Helvetica,sans-Serif" font-size="10.00">fstream</text>
</g>
<!-- Node1&#45;&gt;Node17 -->
<g id="edge22" class="edge"><title>Node1&#45;&gt;Node17</title>
<path fill="none" stroke="midnightblue" d="M582.174,-168.446C604.616,-157.459 630.011,-145.026 648.56,-135.945"/>
<polygon fill="midnightblue" stroke="midnightblue" points="650.141,-139.068 657.583,-131.527 647.063,-132.781 650.141,-139.068"/>
</g>
<!-- Node18 -->
<g id="node18" class="node"><title>Node18</title>
<polygon fill="none" stroke="#bfbfbf" points="718,-112.5 718,-131.5 762,-131.5 762,-112.5 718,-112.5"/>
<text text-anchor="middle" x="740" y="-119.5" font-family="Helvetica,sans-Serif" font-size="10.00">vector</text>
</g>
<!-- Node1&#45;&gt;Node18 -->
<g id="edge23" class="edge"><title>Node1&#45;&gt;Node18</title>
<path fill="none" stroke="midnightblue" d="M593.141,-172.539C630.978,-159.775 677.734,-144.004 708.181,-133.733"/>
<polygon fill="midnightblue" stroke="midnightblue" points="709.488,-136.986 717.845,-130.473 707.251,-130.353 709.488,-136.986"/>
</g>
<!-- Node4 -->
<g id="node4" class="node"><title>Node4</title>
<polygon fill="none" stroke="#bfbfbf" points="713,-0.5 713,-19.5 769,-19.5 769,-0.5 713,-0.5"/>
<text text-anchor="middle" x="741" y="-7.5" font-family="Helvetica,sans-Serif" font-size="10.00">Rtypes.h</text>
</g>
<!-- Node3&#45;&gt;Node4 -->
<g id="edge3" class="edge"><title>Node3&#45;&gt;Node4</title>
<path fill="none" stroke="midnightblue" d="M631.599,-56.4435C652.993,-47.5566 686.681,-33.5632 711.024,-23.4514"/>
<polygon fill="midnightblue" stroke="midnightblue" points="712.605,-26.5848 720.497,-19.5164 709.92,-20.1203 712.605,-26.5848"/>
</g>
<!-- Node5 -->
<g id="node5" class="node"><title>Node5</title>
<polygon fill="none" stroke="#bfbfbf" points="230.5,-0.5 230.5,-19.5 275.5,-19.5 275.5,-0.5 230.5,-0.5"/>
<text text-anchor="middle" x="253" y="-7.5" font-family="Helvetica,sans-Serif" font-size="10.00">iosfwd</text>
</g>
<!-- Node3&#45;&gt;Node5 -->
<g id="edge4" class="edge"><title>Node3&#45;&gt;Node5</title>
<path fill="none" stroke="midnightblue" d="M554.274,-56.4435C478.575,-45.0252 346.989,-25.177 285.904,-15.9631"/>
<polygon fill="midnightblue" stroke="midnightblue" points="286.101,-12.4533 275.691,-14.4226 285.057,-19.375 286.101,-12.4533"/>
</g>
<!-- Node6 -->
<g id="node6" class="node"><title>Node6</title>
<polygon fill="none" stroke="#bfbfbf" points="599.5,-0.5 599.5,-19.5 658.5,-19.5 658.5,-0.5 599.5,-0.5"/>
<text text-anchor="middle" x="629" y="-7.5" font-family="Helvetica,sans-Serif" font-size="10.00">exception</text>
</g>
<!-- Node3&#45;&gt;Node6 -->
<g id="edge5" class="edge"><title>Node3&#45;&gt;Node6</title>
<path fill="none" stroke="midnightblue" d="M613.972,-56.083C616.384,-48.8486 619.864,-38.4087 622.868,-29.3968"/>
<polygon fill="midnightblue" stroke="midnightblue" points="626.241,-30.3447 626.083,-19.7511 619.6,-28.1311 626.241,-30.3447"/>
</g>
<!-- Node7 -->
<g id="node7" class="node"><title>Node7</title>
<polygon fill="none" stroke="#bfbfbf" points="455,-0.5 455,-19.5 501,-19.5 501,-0.5 455,-0.5"/>
<text text-anchor="middle" x="478" y="-7.5" font-family="Helvetica,sans-Serif" font-size="10.00">cstdint</text>
</g>
<!-- Node3&#45;&gt;Node7 -->
<g id="edge6" class="edge"><title>Node3&#45;&gt;Node7</title>
<path fill="none" stroke="midnightblue" d="M589.926,-56.4435C567.94,-47.5171 533.266,-33.4387 508.336,-23.3168"/>
<polygon fill="midnightblue" stroke="midnightblue" points="509.558,-20.0355 498.976,-19.5164 506.924,-26.5213 509.558,-20.0355"/>
</g>
<!-- Node8&#45;&gt;Node3 -->
<g id="edge19" class="edge"><title>Node8&#45;&gt;Node3</title>
<path fill="none" stroke="midnightblue" d="M454.472,-112.444C486.171,-103.241 536.732,-88.5617 571.775,-78.3879"/>
<polygon fill="midnightblue" stroke="midnightblue" points="573.038,-81.6658 581.666,-75.5164 571.086,-74.9434 573.038,-81.6658"/>
</g>
<!-- Node8&#45;&gt;Node4 -->
<g id="edge18" class="edge"><title>Node8&#45;&gt;Node4</title>
<path fill="none" stroke="midnightblue" d="M483.762,-115.222C564.079,-106.836 700.261,-90.6871 718,-76 731.666,-64.6852 737.218,-44.6834 739.469,-29.8466"/>
<polygon fill="midnightblue" stroke="midnightblue" points="742.967,-30.0707 740.628,-19.7371 736.012,-29.2735 742.967,-30.0707"/>
</g>
<!-- Node8&#45;&gt;Node5 -->
<g id="edge12" class="edge"><title>Node8&#45;&gt;Node5</title>
<path fill="none" stroke="midnightblue" d="M366.369,-112.992C304.153,-103.896 213.361,-88.6725 203,-76 188.933,-58.7955 210.61,-38.4056 229.671,-25.1112"/>
<polygon fill="midnightblue" stroke="midnightblue" points="231.692,-27.971 238.107,-19.5392 227.834,-22.13 231.692,-27.971"/>
</g>
<!-- Node8&#45;&gt;Node6 -->
<g id="edge10" class="edge"><title>Node8&#45;&gt;Node6</title>
<path fill="none" stroke="midnightblue" d="M483.538,-115.513C560.602,-107.69 688.011,-92.4445 702,-76 719.212,-55.7659 688.077,-35.9727 661.287,-23.6472"/>
<polygon fill="midnightblue" stroke="midnightblue" points="662.643,-20.4199 652.079,-19.6105 659.832,-26.831 662.643,-20.4199"/>
</g>
<!-- Node8&#45;&gt;Node7 -->
<g id="edge9" class="edge"><title>Node8&#45;&gt;Node7</title>
<path fill="none" stroke="midnightblue" d="M366.298,-112.509C306.395,-103.247 220.839,-88.123 211,-76 205.399,-69.0981 205.261,-62.7876 211,-56 240.542,-21.0622 379.539,-13.2385 444.45,-11.495"/>
<polygon fill="midnightblue" stroke="midnightblue" points="444.655,-14.9912 454.57,-11.2567 444.49,-7.99318 444.655,-14.9912"/>
</g>
<!-- Node8&#45;&gt;Node9 -->
<g id="edge8" class="edge"><title>Node8&#45;&gt;Node9</title>
<path fill="none" stroke="midnightblue" d="M366.432,-113.752C361.55,-113.156 356.691,-112.566 352,-112 219.662,-96.0322 182.123,-104.595 47.9745,-75.8299"/>
<polygon fill="midnightblue" stroke="midnightblue" points="48.6615,-72.3976 38.1462,-73.6934 47.1745,-79.2378 48.6615,-72.3976"/>
</g>
<!-- Node10 -->
<g id="node10" class="node"><title>Node10</title>
<polygon fill="none" stroke="#bfbfbf" points="220.5,-56.5 220.5,-75.5 279.5,-75.5 279.5,-56.5 220.5,-56.5"/>
<text text-anchor="middle" x="250" y="-63.5" font-family="Helvetica,sans-Serif" font-size="10.00">functional</text>
</g>
<!-- Node8&#45;&gt;Node10 -->
<g id="edge11" class="edge"><title>Node8&#45;&gt;Node10</title>
<path fill="none" stroke="midnightblue" d="M397.271,-112.444C367.574,-103.28 320.284,-88.6876 287.331,-78.5192"/>
<polygon fill="midnightblue" stroke="midnightblue" points="288.187,-75.1206 277.6,-75.5164 286.123,-81.8094 288.187,-75.1206"/>
</g>
<!-- Node11 -->
<g id="node11" class="node"><title>Node11</title>
<polygon fill="none" stroke="#bfbfbf" points="297.5,-56.5 297.5,-75.5 380.5,-75.5 380.5,-56.5 297.5,-56.5"/>
<text text-anchor="middle" x="339" y="-63.5" font-family="Helvetica,sans-Serif" font-size="10.00">unordered_map</text>
</g>
<!-- Node8&#45;&gt;Node11 -->
<g id="edge13" class="edge"><title>Node8&#45;&gt;Node11</title>
<path fill="none" stroke="midnightblue" d="M411.183,-112.324C397.767,-103.9 377.176,-90.9709 361.414,-81.0741"/>
<polygon fill="midnightblue" stroke="midnightblue" points="363.113,-78.0081 352.783,-75.6545 359.391,-83.9364 363.113,-78.0081"/>
</g>
<!-- Node12 -->
<g id="node12" class="node"><title>Node12</title>
<polygon fill="none" stroke="#bfbfbf" points="399,-56.5 399,-75.5 451,-75.5 451,-56.5 399,-56.5"/>
<text text-anchor="middle" x="425" y="-63.5" font-family="Helvetica,sans-Serif" font-size="10.00">sstream</text>
</g>
<!-- Node8&#45;&gt;Node12 -->
<g id="edge14" class="edge"><title>Node8&#45;&gt;Node12</title>
<path fill="none" stroke="midnightblue" d="M425,-112.083C425,-105.006 425,-94.8611 425,-85.9865"/>
<polygon fill="midnightblue" stroke="midnightblue" points="428.5,-85.751 425,-75.7511 421.5,-85.7511 428.5,-85.751"/>
</g>
<!-- Node13 -->
<g id="node13" class="node"><title>Node13</title>
<polygon fill="none" stroke="#bfbfbf" points="469.5,-56.5 469.5,-75.5 510.5,-75.5 510.5,-56.5 469.5,-56.5"/>
<text text-anchor="middle" x="490" y="-63.5" font-family="Helvetica,sans-Serif" font-size="10.00">string</text>
</g>
<!-- Node8&#45;&gt;Node13 -->
<g id="edge15" class="edge"><title>Node8&#45;&gt;Node13</title>
<path fill="none" stroke="midnightblue" d="M435.443,-112.324C445.146,-104.263 459.815,-92.0765 471.5,-82.3695"/>
<polygon fill="midnightblue" stroke="midnightblue" points="473.911,-84.9163 479.367,-75.8339 469.438,-79.532 473.911,-84.9163"/>
</g>
<!-- Node14 -->
<g id="node14" class="node"><title>Node14</title>
<polygon fill="none" stroke="#bfbfbf" points="56,-56.5 56,-75.5 126,-75.5 126,-56.5 56,-56.5"/>
<text text-anchor="middle" x="91" y="-63.5" font-family="Helvetica,sans-Serif" font-size="10.00">fmt/format.h</text>
</g>
<!-- Node8&#45;&gt;Node14 -->
<g id="edge16" class="edge"><title>Node8&#45;&gt;Node14</title>
<path fill="none" stroke="midnightblue" d="M368.424,-112.494C310.867,-103.74 219.127,-89.5115 140,-76 138.729,-75.783 137.44,-75.5607 136.139,-75.3346"/>
<polygon fill="midnightblue" stroke="midnightblue" points="136.502,-71.8444 126.045,-73.5469 135.281,-78.7372 136.502,-71.8444"/>
</g>
<!-- Node8&#45;&gt;Node15 -->
<g id="edge17" class="edge"><title>Node8&#45;&gt;Node15</title>
<path fill="none" stroke="midnightblue" d="M483.585,-114.087C552.82,-105.765 671.455,-91.0223 773,-76 774.269,-75.8122 775.555,-75.6192 776.851,-75.4221"/>
<polygon fill="midnightblue" stroke="midnightblue" points="777.582,-78.8504 786.921,-73.8472 776.5,-71.9345 777.582,-78.8504"/>
</g>
</g>
</svg>
        <g id="navigator" transform="translate(0 0)" fill="#404254">
                <rect fill="#f2f5e9" fill-opacity="0.5" stroke="#606060" stroke-width=".5" x="0" y="0" width="60" height="60"/>
                <use id="zoomplus" xlink:href="#zoomPlus" x="17" y="9" onmousedown="handleZoom(evt,'in')"/>
                <use id="zoomminus" xlink:href="#zoomMin" x="42" y="9" onmousedown="handleZoom(evt,'out')"/>
                <use id="reset" xlink:href="#resetDef" x="30" y="36" onmousedown="handleReset()"/>
                <g id="arrowUp" xlink:href="#dirArrow" transform="translate(30 24)" onmousedown="handlePan(0,-1)">
                  <use xlink:href="#rim" fill="#404040">
                        <set attributeName="fill" to="#808080" begin="arrowUp.mouseover" end="arrowUp.mouseout"/>
                  </use>
                  <path fill="none" stroke="white" stroke-width="1.5" d="M0,-3.0v7 M-2.5,-0.5L0,-3.0L2.5,-0.5"/>
                </g>
                <g id="arrowRight" xlink:href="#dirArrow" transform="rotate(90) translate(36 -43)" onmousedown="handlePan(1,0)">
                  <use xlink:href="#rim" fill="#404040">
                        <set attributeName="fill" to="#808080" begin="arrowRight.mouseover" end="arrowRight.mouseout"/>
                  </use>
                  <path fill="none" stroke="white" stroke-width="1.5" d="M0,-3.0v7 M-2.5,-0.5L0,-3.0L2.5,-0.5"/>
                </g>
                <g id="arrowDown" xlink:href="#dirArrow" transform="rotate(180) translate(-30 -48)" onmousedown="handlePan(0,1)">
                  <use xlink:href="#rim" fill="#404040">
                        <set attributeName="fill" to="#808080" begin="arrowDown.mouseover" end="arrowDown.mouseout"/>
                  </use>
                  <path fill="none" stroke="white" stroke-width="1.5" d="M0,-3.0v7 M-2.5,-0.5L0,-3.0L2.5,-0.5"/>
                </g>
                <g id="arrowLeft" xlink:href="#dirArrow" transform="rotate(270) translate(-36 17)" onmousedown="handlePan(-1,0)">
                  <use xlink:href="#rim" fill="#404040">
                        <set attributeName="fill" to="#808080" begin="arrowLeft.mouseover" end="arrowLeft.mouseout"/>
                  </use>
                  <path fill="none" stroke="white" stroke-width="1.5" d="M0,-3.0v7 M-2.5,-0.5L0,-3.0L2.5,-0.5"/>
                </g>
        </g>
        <svg viewBox="0 0 15 15" width="100%" height="30px" preserveAspectRatio="xMaxYMin meet">
         <g id="arrow_out" transform="scale(0.3 0.3)">
          <a xlink:href="testMapper_8cxx__incl_org.svg" target="_base">
           <rect id="button" ry="5" rx="5" y="6" x="6" height="38" width="38"
                fill="#f2f5e9" fill-opacity="0.5" stroke="#606060" stroke-width="1.0"/>
           <path id="arrow"
             d="M 11.500037,31.436501 C 11.940474,20.09759 22.043105,11.32322 32.158766,21.979434 L 37.068811,17.246167 C 37.068811,17.246167 37.088388,32 37.088388,32 L 22.160133,31.978069 C 22.160133,31.978069 26.997745,27.140456 26.997745,27.140456 C 18.528582,18.264221 13.291696,25.230495 11.500037,31.436501 z"
             style="fill:#404040;"/>
          </a>
         </g>
        </svg>
</svg>
