<?xml version="1.0" encoding="UTF-8" standalone="no"?>
<!DOCTYPE svg PUBLIC "-//W3C//DTD SVG 1.1//EN"
 "http://www.w3.org/Graphics/SVG/1.1/DTD/svg11.dtd">
<!-- Generated by graphviz version 2.38.0 (20140413.2041)
 -->
<!-- Title: /home/travis/build/AliceO2Group/AliceO2/Detectors/FIT/FDD/simulation/include/FDDSimulation/DigitizationParameters.h Pages: 1 -->
<svg width="312pt" height="250pt"
 viewBox="0.00 0.00 312.00 250.00" xmlns="http://www.w3.org/2000/svg" xmlns:xlink="http://www.w3.org/1999/xlink">
<g id="graph0" class="graph" transform="scale(1 1) rotate(0) translate(4 246)">
<title>/home/travis/build/AliceO2Group/AliceO2/Detectors/FIT/FDD/simulation/include/FDDSimulation/DigitizationParameters.h</title>
<!-- Node1 -->
<g id="node1" class="node"><title>Node1</title>
<polygon fill="#bfbfbf" stroke="black" points="95,-178.5 95,-241.5 267,-241.5 267,-178.5 95,-178.5"/>
<text text-anchor="start" x="103" y="-229.5" font-family="Helvetica,sans-Serif" font-size="10.00">/home/travis/build</text>
<text text-anchor="start" x="103" y="-218.5" font-family="Helvetica,sans-Serif" font-size="10.00">/AliceO2Group/AliceO2</text>
<text text-anchor="start" x="103" y="-207.5" font-family="Helvetica,sans-Serif" font-size="10.00">/Detectors/FIT/FDD/simulation</text>
<text text-anchor="start" x="103" y="-196.5" font-family="Helvetica,sans-Serif" font-size="10.00">/include/FDDSimulation/Digitization</text>
<text text-anchor="middle" x="181" y="-185.5" font-family="Helvetica,sans-Serif" font-size="10.00">Parameters.h</text>
</g>
<!-- Node2 -->
<g id="node2" class="node"><title>Node2</title>
<g id="a_node2"><a xlink:href="../../d3/d51/FIT_2FDD_2simulation_2include_2FDDSimulation_2Digitizer_8h.html" target="_top" xlink:title="/home/travis/build\l/AliceO2Group/AliceO2\l/Detectors/FIT/FDD/simulation\l/include/FDDSimulation/Digitizer.h">
<polygon fill="none" stroke="black" points="42.5,-89.5 42.5,-141.5 209.5,-141.5 209.5,-89.5 42.5,-89.5"/>
<text text-anchor="start" x="50.5" y="-129.5" font-family="Helvetica,sans-Serif" font-size="10.00">/home/travis/build</text>
<text text-anchor="start" x="50.5" y="-118.5" font-family="Helvetica,sans-Serif" font-size="10.00">/AliceO2Group/AliceO2</text>
<text text-anchor="start" x="50.5" y="-107.5" font-family="Helvetica,sans-Serif" font-size="10.00">/Detectors/FIT/FDD/simulation</text>
<text text-anchor="middle" x="126" y="-96.5" font-family="Helvetica,sans-Serif" font-size="10.00">/include/FDDSimulation/Digitizer.h</text>
</a>
</g>
</g>
<!-- Node1&#45;&gt;Node2 -->
<g id="edge1" class="edge"><title>Node1&#45;&gt;Node2</title>
<path fill="none" stroke="midnightblue" d="M157.567,-169.591C151.963,-160.166 146.129,-150.353 141.023,-141.766"/>
<polygon fill="midnightblue" stroke="midnightblue" points="154.719,-171.649 162.839,-178.456 160.736,-168.072 154.719,-171.649"/>
</g>
<!-- Node4 -->
<g id="node4" class="node"><title>Node4</title>
<g id="a_node4"><a xlink:href="../../d2/d97/FDDDigitizerSpec_8cxx.html" target="_top" xlink:title="/home/travis/build\l/AliceO2Group/AliceO2\l/Steer/DigitizerWorkflow\l/src/FDDDigitizerSpec.cxx">
<polygon fill="none" stroke="black" points="170,-0.5 170,-52.5 304,-52.5 304,-0.5 170,-0.5"/>
<text text-anchor="start" x="178" y="-40.5" font-family="Helvetica,sans-Serif" font-size="10.00">/home/travis/build</text>
<text text-anchor="start" x="178" y="-29.5" font-family="Helvetica,sans-Serif" font-size="10.00">/AliceO2Group/AliceO2</text>
<text text-anchor="start" x="178" y="-18.5" font-family="Helvetica,sans-Serif" font-size="10.00">/Steer/DigitizerWorkflow</text>
<text text-anchor="middle" x="237" y="-7.5" font-family="Helvetica,sans-Serif" font-size="10.00">/src/FDDDigitizerSpec.cxx</text>
</a>
</g>
</g>
<!-- Node1&#45;&gt;Node4 -->
<g id="edge4" class="edge"><title>Node1&#45;&gt;Node4</title>
<path fill="none" stroke="midnightblue" d="M205.717,-169.454C210.381,-160.67 214.795,-151.222 218,-142 228.32,-112.308 233.118,-76.2848 235.292,-52.6725"/>
<polygon fill="midnightblue" stroke="midnightblue" points="202.585,-167.886 200.807,-178.331 208.71,-171.275 202.585,-167.886"/>
</g>
<!-- Node3 -->
<g id="node3" class="node"><title>Node3</title>
<g id="a_node3"><a xlink:href="../../d0/d8c/FIT_2FDD_2simulation_2src_2Digitizer_8cxx.html" target="_top" xlink:title="/home/travis/build\l/AliceO2Group/AliceO2\l/Detectors/FIT/FDD/simulation\l/src/Digitizer.cxx">
<polygon fill="none" stroke="black" points="0,-0.5 0,-52.5 152,-52.5 152,-0.5 0,-0.5"/>
<text text-anchor="start" x="8" y="-40.5" font-family="Helvetica,sans-Serif" font-size="10.00">/home/travis/build</text>
<text text-anchor="start" x="8" y="-29.5" font-family="Helvetica,sans-Serif" font-size="10.00">/AliceO2Group/AliceO2</text>
<text text-anchor="start" x="8" y="-18.5" font-family="Helvetica,sans-Serif" font-size="10.00">/Detectors/FIT/FDD/simulation</text>
<text text-anchor="middle" x="76" y="-7.5" font-family="Helvetica,sans-Serif" font-size="10.00">/src/Digitizer.cxx</text>
</a>
</g>
</g>
<!-- Node2&#45;&gt;Node3 -->
<g id="edge2" class="edge"><title>Node2&#45;&gt;Node3</title>
<path fill="none" stroke="midnightblue" d="M106.54,-80.6387C101.176,-71.3056 95.4536,-61.3492 90.4296,-52.6075"/>
<polygon fill="midnightblue" stroke="midnightblue" points="103.52,-82.4099 111.538,-89.336 109.59,-78.9218 103.52,-82.4099"/>
</g>
<!-- Node2&#45;&gt;Node4 -->
<g id="edge3" class="edge"><title>Node2&#45;&gt;Node4</title>
<path fill="none" stroke="midnightblue" d="M166.274,-82.9342C179.004,-72.9562 192.893,-62.0702 204.966,-52.6075"/>
<polygon fill="midnightblue" stroke="midnightblue" points="163.817,-80.4124 158.106,-89.336 168.135,-85.9218 163.817,-80.4124"/>
</g>
</g>
</svg>
