<?xml version="1.0" encoding="UTF-8" standalone="no"?>
<!DOCTYPE svg PUBLIC "-//W3C//DTD SVG 1.1//EN"
 "http://www.w3.org/Graphics/SVG/1.1/DTD/svg11.dtd">
<!-- Generated by graphviz version 2.38.0 (20140413.2041)
 -->
<!-- Title: /home/travis/build/AliceO2Group/AliceO2/Detectors/MUON/MID/Clustering/include/MIDClustering/PreClustersDE.h Pages: 1 -->
<svg width="249pt" height="173pt"
 viewBox="0.00 0.00 248.50 173.00" xmlns="http://www.w3.org/2000/svg" xmlns:xlink="http://www.w3.org/1999/xlink">
<g id="graph0" class="graph" transform="scale(1 1) rotate(0) translate(4 169)">
<title>/home/travis/build/AliceO2Group/AliceO2/Detectors/MUON/MID/Clustering/include/MIDClustering/PreClustersDE.h</title>
<!-- Node1 -->
<g id="node1" class="node"><title>Node1</title>
<polygon fill="#bfbfbf" stroke="black" points="-1.42109e-14,-112.5 -1.42109e-14,-164.5 194,-164.5 194,-112.5 -1.42109e-14,-112.5"/>
<text text-anchor="start" x="8" y="-152.5" font-family="Helvetica,sans-Serif" font-size="10.00">/home/travis/build</text>
<text text-anchor="start" x="8" y="-141.5" font-family="Helvetica,sans-Serif" font-size="10.00">/AliceO2Group/AliceO2</text>
<text text-anchor="start" x="8" y="-130.5" font-family="Helvetica,sans-Serif" font-size="10.00">/Detectors/MUON/MID/Clustering</text>
<text text-anchor="middle" x="97" y="-119.5" font-family="Helvetica,sans-Serif" font-size="10.00">/include/MIDClustering/PreClustersDE.h</text>
</g>
<!-- Node2 -->
<g id="node2" class="node"><title>Node2</title>
<polygon fill="none" stroke="#bfbfbf" points="99,-0.5 99,-19.5 137,-19.5 137,-0.5 99,-0.5"/>
<text text-anchor="middle" x="118" y="-7.5" font-family="Helvetica,sans-Serif" font-size="10.00">array</text>
</g>
<!-- Node1&#45;&gt;Node2 -->
<g id="edge1" class="edge"><title>Node1&#45;&gt;Node2</title>
<path fill="none" stroke="midnightblue" d="M76.8435,-112.183C66.4561,-95.9146 57.5673,-74.4495 66,-56 71.7773,-43.3602 83.0523,-32.911 93.6306,-25.2737"/>
<polygon fill="midnightblue" stroke="midnightblue" points="95.8488,-28.0009 102.217,-19.5333 91.9582,-22.1817 95.8488,-28.0009"/>
</g>
<!-- Node3 -->
<g id="node3" class="node"><title>Node3</title>
<polygon fill="none" stroke="#bfbfbf" points="75,-56.5 75,-75.5 119,-75.5 119,-56.5 75,-56.5"/>
<text text-anchor="middle" x="97" y="-63.5" font-family="Helvetica,sans-Serif" font-size="10.00">vector</text>
</g>
<!-- Node1&#45;&gt;Node3 -->
<g id="edge2" class="edge"><title>Node1&#45;&gt;Node3</title>
<path fill="none" stroke="midnightblue" d="M97,-112.446C97,-103.73 97,-94.1045 97,-85.9641"/>
<polygon fill="midnightblue" stroke="midnightblue" points="100.5,-85.6954 97,-75.6955 93.5001,-85.6955 100.5,-85.6954"/>
</g>
<!-- Node4 -->
<g id="node4" class="node"><title>Node4</title>
<g id="a_node4"><a xlink:href="../../d7/d0a/MpArea_8h.html" target="_top" xlink:title="Mapping area for MID. ">
<polygon fill="none" stroke="black" points="137.5,-56.5 137.5,-75.5 240.5,-75.5 240.5,-56.5 137.5,-56.5"/>
<text text-anchor="middle" x="189" y="-63.5" font-family="Helvetica,sans-Serif" font-size="10.00">MIDBase/MpArea.h</text>
</a>
</g>
</g>
<!-- Node1&#45;&gt;Node4 -->
<g id="edge3" class="edge"><title>Node1&#45;&gt;Node4</title>
<path fill="none" stroke="midnightblue" d="M129.695,-112.446C143.03,-102.227 157.996,-90.7583 169.558,-81.8983"/>
<polygon fill="midnightblue" stroke="midnightblue" points="171.844,-84.5561 177.653,-75.6955 167.586,-78.9999 171.844,-84.5561"/>
</g>
<!-- Node4&#45;&gt;Node2 -->
<g id="edge4" class="edge"><title>Node4&#45;&gt;Node2</title>
<path fill="none" stroke="midnightblue" d="M177.593,-56.324C166.891,-48.1849 150.659,-35.8395 137.837,-26.0874"/>
<polygon fill="midnightblue" stroke="midnightblue" points="139.693,-23.1018 129.615,-19.8339 135.456,-28.6734 139.693,-23.1018"/>
</g>
</g>
</svg>
