<?xml version="1.0" encoding="UTF-8" standalone="no"?>
<!DOCTYPE svg PUBLIC "-//W3C//DTD SVG 1.1//EN"
 "http://www.w3.org/Graphics/SVG/1.1/DTD/svg11.dtd">
<!-- Generated by graphviz version 2.38.0 (20140413.2041)
 -->
<!-- Title: /home/travis/build/AliceO2Group/AliceO2/Detectors/ITSMFT/MFT/base/include/MFTBase/HalfDiskSegmentation.h Pages: 1 -->
<svg width="413pt" height="296pt"
 viewBox="0.00 0.00 413.18 296.00" xmlns="http://www.w3.org/2000/svg" xmlns:xlink="http://www.w3.org/1999/xlink">
<g id="graph0" class="graph" transform="scale(1 1) rotate(0) translate(4 292)">
<title>/home/travis/build/AliceO2Group/AliceO2/Detectors/ITSMFT/MFT/base/include/MFTBase/HalfDiskSegmentation.h</title>
<!-- Node1 -->
<g id="node1" class="node"><title>Node1</title>
<polygon fill="#bfbfbf" stroke="black" points="100,-224.5 100,-287.5 261,-287.5 261,-224.5 100,-224.5"/>
<text text-anchor="start" x="108" y="-275.5" font-family="Helvetica,sans-Serif" font-size="10.00">/home/travis/build</text>
<text text-anchor="start" x="108" y="-264.5" font-family="Helvetica,sans-Serif" font-size="10.00">/AliceO2Group/AliceO2</text>
<text text-anchor="start" x="108" y="-253.5" font-family="Helvetica,sans-Serif" font-size="10.00">/Detectors/ITSMFT/MFT</text>
<text text-anchor="start" x="108" y="-242.5" font-family="Helvetica,sans-Serif" font-size="10.00">/base/include/MFTBase/HalfDisk</text>
<text text-anchor="middle" x="180.5" y="-231.5" font-family="Helvetica,sans-Serif" font-size="10.00">Segmentation.h</text>
</g>
<!-- Node2 -->
<g id="node2" class="node"><title>Node2</title>
<polygon fill="none" stroke="#bfbfbf" points="0,-112.5 0,-131.5 81,-131.5 81,-112.5 0,-112.5"/>
<text text-anchor="middle" x="40.5" y="-119.5" font-family="Helvetica,sans-Serif" font-size="10.00">TXMLEngine.h</text>
</g>
<!-- Node1&#45;&gt;Node2 -->
<g id="edge1" class="edge"><title>Node1&#45;&gt;Node2</title>
<path fill="none" stroke="midnightblue" d="M135.198,-224.43C120.59,-213.668 104.759,-200.997 91.5,-188 76.3526,-173.152 61.6877,-153.77 52.002,-140.045"/>
<polygon fill="midnightblue" stroke="midnightblue" points="54.7118,-137.81 46.1473,-131.573 48.9531,-141.79 54.7118,-137.81"/>
</g>
<!-- Node3 -->
<g id="node3" class="node"><title>Node3</title>
<g id="a_node3"><a xlink:href="../../d9/de7/LadderSegmentation_8h.html" target="_top" xlink:title="Description of the virtual segmentation of a ladder. ">
<polygon fill="none" stroke="black" points="100.5,-168.5 100.5,-187.5 260.5,-187.5 260.5,-168.5 100.5,-168.5"/>
<text text-anchor="middle" x="180.5" y="-175.5" font-family="Helvetica,sans-Serif" font-size="10.00">MFTBase/LadderSegmentation.h</text>
</a>
</g>
</g>
<!-- Node1&#45;&gt;Node3 -->
<g id="edge2" class="edge"><title>Node1&#45;&gt;Node3</title>
<path fill="none" stroke="midnightblue" d="M180.5,-224.088C180.5,-215.15 180.5,-205.669 180.5,-197.719"/>
<polygon fill="midnightblue" stroke="midnightblue" points="184,-197.718 180.5,-187.718 177,-197.718 184,-197.718"/>
</g>
<!-- Node5 -->
<g id="node5" class="node"><title>Node5</title>
<g id="a_node5"><a xlink:href="../../d3/de7/VSegmentation_8h.html" target="_top" xlink:title="Abstract base class for MFT Segmentation description. ">
<polygon fill="none" stroke="black" points="248,-56.5 248,-75.5 385,-75.5 385,-56.5 248,-56.5"/>
<text text-anchor="middle" x="316.5" y="-63.5" font-family="Helvetica,sans-Serif" font-size="10.00">MFTBase/VSegmentation.h</text>
</a>
</g>
</g>
<!-- Node1&#45;&gt;Node5 -->
<g id="edge10" class="edge"><title>Node1&#45;&gt;Node5</title>
<path fill="none" stroke="midnightblue" d="M261.257,-232.992C311.199,-214.745 371.346,-183.291 401.5,-132 415.584,-108.044 384.185,-89.8902 355.649,-78.9379"/>
<polygon fill="midnightblue" stroke="midnightblue" points="356.746,-75.6126 346.151,-75.5017 354.364,-82.1951 356.746,-75.6126"/>
</g>
<!-- Node3&#45;&gt;Node2 -->
<g id="edge4" class="edge"><title>Node3&#45;&gt;Node2</title>
<path fill="none" stroke="midnightblue" d="M158.317,-168.444C135.072,-159.478 98.3512,-145.314 72.0848,-135.183"/>
<polygon fill="midnightblue" stroke="midnightblue" points="73.1692,-131.85 62.5796,-131.516 70.6501,-138.381 73.1692,-131.85"/>
</g>
<!-- Node4 -->
<g id="node4" class="node"><title>Node4</title>
<polygon fill="none" stroke="#bfbfbf" points="99,-112.5 99,-131.5 184,-131.5 184,-112.5 99,-112.5"/>
<text text-anchor="middle" x="141.5" y="-119.5" font-family="Helvetica,sans-Serif" font-size="10.00">TClonesArray.h</text>
</g>
<!-- Node3&#45;&gt;Node4 -->
<g id="edge3" class="edge"><title>Node3&#45;&gt;Node4</title>
<path fill="none" stroke="midnightblue" d="M174.06,-168.083C168.551,-160.455 160.469,-149.264 153.735,-139.941"/>
<polygon fill="midnightblue" stroke="midnightblue" points="156.513,-137.809 147.82,-131.751 150.838,-141.907 156.513,-137.809"/>
</g>
<!-- Node3&#45;&gt;Node5 -->
<g id="edge5" class="edge"><title>Node3&#45;&gt;Node5</title>
<path fill="none" stroke="midnightblue" d="M185.528,-168.484C193.762,-155.1 211.25,-128.926 231.5,-112 247.457,-98.6625 268.008,-87.6509 284.906,-79.8593"/>
<polygon fill="midnightblue" stroke="midnightblue" points="286.655,-82.912 294.37,-75.6506 283.81,-76.5159 286.655,-82.912"/>
</g>
<!-- Node8 -->
<g id="node8" class="node"><title>Node8</title>
<g id="a_node8"><a xlink:href="../../d3/dbd/ChipSegmentation_8h.html" target="_top" xlink:title="Chip (sensor) segmentation description. ">
<polygon fill="none" stroke="black" points="241,-112.5 241,-131.5 392,-131.5 392,-112.5 241,-112.5"/>
<text text-anchor="middle" x="316.5" y="-119.5" font-family="Helvetica,sans-Serif" font-size="10.00">MFTBase/ChipSegmentation.h</text>
</a>
</g>
</g>
<!-- Node3&#45;&gt;Node8 -->
<g id="edge8" class="edge"><title>Node3&#45;&gt;Node8</title>
<path fill="none" stroke="midnightblue" d="M202.05,-168.444C224.531,-159.517 259.988,-145.439 285.48,-135.317"/>
<polygon fill="midnightblue" stroke="midnightblue" points="287.049,-138.46 295.051,-131.516 284.465,-131.954 287.049,-138.46"/>
</g>
<!-- Node6 -->
<g id="node6" class="node"><title>Node6</title>
<polygon fill="none" stroke="#bfbfbf" points="242.5,-0.5 242.5,-19.5 304.5,-19.5 304.5,-0.5 242.5,-0.5"/>
<text text-anchor="middle" x="273.5" y="-7.5" font-family="Helvetica,sans-Serif" font-size="10.00">TNamed.h</text>
</g>
<!-- Node5&#45;&gt;Node6 -->
<g id="edge6" class="edge"><title>Node5&#45;&gt;Node6</title>
<path fill="none" stroke="midnightblue" d="M309.399,-56.083C303.263,-48.3768 294.23,-37.0333 286.761,-27.6531"/>
<polygon fill="midnightblue" stroke="midnightblue" points="289.436,-25.3936 280.468,-19.7511 283.96,-29.7542 289.436,-25.3936"/>
</g>
<!-- Node7 -->
<g id="node7" class="node"><title>Node7</title>
<polygon fill="none" stroke="#bfbfbf" points="322.5,-0.5 322.5,-19.5 398.5,-19.5 398.5,-0.5 322.5,-0.5"/>
<text text-anchor="middle" x="360.5" y="-7.5" font-family="Helvetica,sans-Serif" font-size="10.00">TGeoMatrix.h</text>
</g>
<!-- Node5&#45;&gt;Node7 -->
<g id="edge7" class="edge"><title>Node5&#45;&gt;Node7</title>
<path fill="none" stroke="midnightblue" d="M323.766,-56.083C330.045,-48.3768 339.288,-37.0333 346.931,-27.6531"/>
<polygon fill="midnightblue" stroke="midnightblue" points="349.766,-29.7143 353.369,-19.7511 344.339,-25.2926 349.766,-29.7143"/>
</g>
<!-- Node8&#45;&gt;Node5 -->
<g id="edge9" class="edge"><title>Node8&#45;&gt;Node5</title>
<path fill="none" stroke="midnightblue" d="M316.5,-112.083C316.5,-105.006 316.5,-94.8611 316.5,-85.9865"/>
<polygon fill="midnightblue" stroke="midnightblue" points="320,-85.751 316.5,-75.7511 313,-85.7511 320,-85.751"/>
</g>
</g>
</svg>
