<?xml version="1.0" encoding="UTF-8" standalone="no"?>
<!DOCTYPE svg PUBLIC "-//W3C//DTD SVG 1.1//EN"
 "http://www.w3.org/Graphics/SVG/1.1/DTD/svg11.dtd">
<!-- Generated by graphviz version 2.38.0 (20140413.2041)
 -->
<!-- Title: /home/travis/build/AliceO2Group/AliceO2/Detectors/ITSMFT/common/reconstruction/src/TopologyFastSimulation.cxx Pages: 1 -->
<!--zoomable 776 -->
<svg id="main" version="1.1" xmlns="http://www.w3.org/2000/svg" xmlns:xlink="http://www.w3.org/1999/xlink" xml:space="preserve" onload="init(evt)">
<style type="text/css"><![CDATA[
.edge:hover path { stroke: red; }
.edge:hover polygon { stroke: red; fill: red; }
]]></style>
<script type="text/javascript"><![CDATA[
var edges = document.getElementsByTagName('g');
if (edges && edges.length) {
  for (var i=0;i<edges.length;i++) {
    if (edges[i].id.substr(0,4)=='edge') {
      edges[i].setAttribute('class','edge');
    }
  }
}
]]></script>
        <defs>
                <circle id="rim" cx="0" cy="0" r="7"/>
                <circle id="rim2" cx="0" cy="0" r="3.5"/>
                <g id="zoomPlus">
                        <use xlink:href="#rim" fill="#404040">
                                <set attributeName="fill" to="#808080" begin="zoomplus.mouseover" end="zoomplus.mouseout"/>
                        </use>
                        <path d="M-4,0h8M0,-4v8" fill="none" stroke="white" stroke-width="1.5" pointer-events="none"/>
                </g>
                <g id="zoomMin">
                        <use xlink:href="#rim" fill="#404040">
                                <set attributeName="fill" to="#808080" begin="zoomminus.mouseover" end="zoomminus.mouseout"/>
                        </use>
                        <path d="M-4,0h8" fill="none" stroke="white" stroke-width="1.5" pointer-events="none"/>
                </g>
                <g id="dirArrow">
                        <path fill="none" stroke="white" stroke-width="1.5" d="M0,-3.0v7 M-2.5,-0.5L0,-3.0L2.5,-0.5"/>
                </g>
               <g id="resetDef">
                       <use xlink:href="#rim2" fill="#404040">
                               <set attributeName="fill" to="#808080" begin="reset.mouseover" end="reset.mouseout"/>
                       </use>
               </g>
        </defs>

<script type="text/javascript">
var viewWidth = 2038;
var viewHeight = 776;
var sectionId = 'dynsection-0';
</script>
<script xlink:href="../../svgpan.js"/>
<svg id="graph" class="graph">
<g id="viewport">
<title>/home/travis/build/AliceO2Group/AliceO2/Detectors/ITSMFT/common/reconstruction/src/TopologyFastSimulation.cxx</title>
<!-- Node1 -->
<g id="node1" class="node"><title>Node1</title>
<polygon fill="#bfbfbf" stroke="black" points="1345,-704.5 1345,-767.5 1505,-767.5 1505,-704.5 1345,-704.5"/>
<text text-anchor="start" x="1353" y="-755.5" font-family="Helvetica,sans-Serif" font-size="10.00">/home/travis/build</text>
<text text-anchor="start" x="1353" y="-744.5" font-family="Helvetica,sans-Serif" font-size="10.00">/AliceO2Group/AliceO2</text>
<text text-anchor="start" x="1353" y="-733.5" font-family="Helvetica,sans-Serif" font-size="10.00">/Detectors/ITSMFT/common</text>
<text text-anchor="start" x="1353" y="-722.5" font-family="Helvetica,sans-Serif" font-size="10.00">/reconstruction/src/TopologyFast</text>
<text text-anchor="middle" x="1425" y="-711.5" font-family="Helvetica,sans-Serif" font-size="10.00">Simulation.cxx</text>
</g>
<!-- Node2 -->
<g id="node2" class="node"><title>Node2</title>
<g id="a_node2"><a xlink:href="../../d9/d45/TopologyFastSimulation_8h.html" target="_top" xlink:title="Definition of the TopologyFastSimulation class. ">
<polygon fill="none" stroke="black" points="785.5,-637.5 785.5,-667.5 918.5,-667.5 918.5,-637.5 785.5,-637.5"/>
<text text-anchor="start" x="793.5" y="-655.5" font-family="Helvetica,sans-Serif" font-size="10.00">ITSMFTReconstruction</text>
<text text-anchor="middle" x="852" y="-644.5" font-family="Helvetica,sans-Serif" font-size="10.00">/TopologyFastSimulation.h</text>
</a>
</g>
</g>
<!-- Node1&#45;&gt;Node2 -->
<g id="edge1" class="edge"><title>Node1&#45;&gt;Node2</title>
<path fill="none" stroke="midnightblue" d="M1344.72,-723.582C1234.47,-707.901 1037.55,-679.891 929.029,-664.456"/>
<polygon fill="midnightblue" stroke="midnightblue" points="929.203,-660.946 918.81,-663.003 928.217,-667.876 929.203,-660.946"/>
</g>
<!-- Node31 -->
<g id="node31" class="node"><title>Node31</title>
<polygon fill="none" stroke="#bfbfbf" points="1160,-56.5 1160,-75.5 1216,-75.5 1216,-56.5 1160,-56.5"/>
<text text-anchor="middle" x="1188" y="-63.5" font-family="Helvetica,sans-Serif" font-size="10.00">algorithm</text>
</g>
<!-- Node1&#45;&gt;Node31 -->
<g id="edge62" class="edge"><title>Node1&#45;&gt;Node31</title>
<path fill="none" stroke="midnightblue" d="M1505.03,-732.027C1669.46,-723.735 2030,-693.368 2030,-586.5 2030,-586.5 2030,-586.5 2030,-193.5 2030,-144.274 1999.48,-133.09 1955,-112 1888.86,-80.6392 1372.23,-69.9741 1226.28,-67.5708"/>
<polygon fill="midnightblue" stroke="midnightblue" points="1226.09,-64.0673 1216.03,-67.4057 1225.98,-71.0664 1226.09,-64.0673"/>
</g>
<!-- Node3 -->
<g id="node3" class="node"><title>Node3</title>
<polygon fill="none" stroke="#bfbfbf" points="708.5,-576 708.5,-595 757.5,-595 757.5,-576 708.5,-576"/>
<text text-anchor="middle" x="733" y="-583" font-family="Helvetica,sans-Serif" font-size="10.00">random</text>
</g>
<!-- Node2&#45;&gt;Node3 -->
<g id="edge2" class="edge"><title>Node2&#45;&gt;Node3</title>
<path fill="none" stroke="midnightblue" d="M826.179,-637.396C805.761,-626.243 777.453,-610.781 757.411,-599.834"/>
<polygon fill="midnightblue" stroke="midnightblue" points="759.028,-596.729 748.574,-595.007 755.673,-602.872 759.028,-596.729"/>
</g>
<!-- Node4 -->
<g id="node4" class="node"><title>Node4</title>
<g id="a_node4"><a xlink:href="../../d1/d08/TopologyDictionary_8h.html" target="_top" xlink:title="Definition of the ClusterTopology class. ">
<polygon fill="none" stroke="black" points="776,-570.5 776,-600.5 928,-600.5 928,-570.5 776,-570.5"/>
<text text-anchor="start" x="784" y="-588.5" font-family="Helvetica,sans-Serif" font-size="10.00">DataFormatsITSMFT/Topology</text>
<text text-anchor="middle" x="852" y="-577.5" font-family="Helvetica,sans-Serif" font-size="10.00">Dictionary.h</text>
</a>
</g>
</g>
<!-- Node2&#45;&gt;Node4 -->
<g id="edge3" class="edge"><title>Node2&#45;&gt;Node4</title>
<path fill="none" stroke="midnightblue" d="M852,-637.396C852,-629.645 852,-619.812 852,-610.86"/>
<polygon fill="midnightblue" stroke="midnightblue" points="855.5,-610.576 852,-600.577 848.5,-610.577 855.5,-610.576"/>
</g>
<!-- Node5 -->
<g id="node5" class="node"><title>Node5</title>
<g id="a_node5"><a xlink:href="../../de/dc1/ClusterPattern_8h.html" target="_top" xlink:title="DataFormatsITSMFT/Cluster\lPattern.h">
<polygon fill="none" stroke="black" points="1276,-503.5 1276,-533.5 1420,-533.5 1420,-503.5 1276,-503.5"/>
<text text-anchor="start" x="1284" y="-521.5" font-family="Helvetica,sans-Serif" font-size="10.00">DataFormatsITSMFT/Cluster</text>
<text text-anchor="middle" x="1348" y="-510.5" font-family="Helvetica,sans-Serif" font-size="10.00">Pattern.h</text>
</a>
</g>
</g>
<!-- Node4&#45;&gt;Node5 -->
<g id="edge4" class="edge"><title>Node4&#45;&gt;Node5</title>
<path fill="none" stroke="midnightblue" d="M928.079,-576.154C1010.5,-566.874 1145.79,-550.945 1262,-534 1263.26,-533.816 1264.54,-533.628 1265.82,-533.437"/>
<polygon fill="midnightblue" stroke="midnightblue" points="1266.42,-536.886 1275.78,-531.917 1265.36,-529.966 1266.42,-536.886"/>
</g>
<!-- Node20 -->
<g id="node20" class="node"><title>Node20</title>
<polygon fill="none" stroke="#bfbfbf" points="332,-252 332,-271 376,-271 376,-252 332,-252"/>
<text text-anchor="middle" x="354" y="-259" font-family="Helvetica,sans-Serif" font-size="10.00">vector</text>
</g>
<!-- Node4&#45;&gt;Node20 -->
<g id="edge58" class="edge"><title>Node4&#45;&gt;Node20</title>
<path fill="none" stroke="midnightblue" d="M851.996,-570.265C851.274,-552.653 847.613,-522.601 832,-503 816.211,-483.178 479.974,-322.378 381.11,-275.364"/>
<polygon fill="midnightblue" stroke="midnightblue" points="382.578,-272.187 372.043,-271.056 379.573,-278.509 382.578,-272.187"/>
</g>
<!-- Node33 -->
<g id="node33" class="node"><title>Node33</title>
<g id="a_node33"><a xlink:href="../../dd/d76/Cartesian3D_8h.html" target="_top" xlink:title="MathUtils/Cartesian3D.h">
<polygon fill="none" stroke="black" points="1090.5,-252 1090.5,-271 1215.5,-271 1215.5,-252 1090.5,-252"/>
<text text-anchor="middle" x="1153" y="-259" font-family="Helvetica,sans-Serif" font-size="10.00">MathUtils/Cartesian3D.h</text>
</a>
</g>
</g>
<!-- Node4&#45;&gt;Node33 -->
<g id="edge59" class="edge"><title>Node4&#45;&gt;Node33</title>
<path fill="none" stroke="midnightblue" d="M928.353,-575.866C1043.43,-560.699 1248,-524.399 1248,-458 1248,-458 1248,-458 1248,-394.5 1248,-343.836 1201.33,-299.344 1173.41,-277.263"/>
<polygon fill="midnightblue" stroke="midnightblue" points="1175.49,-274.447 1165.42,-271.148 1171.23,-280.005 1175.49,-274.447"/>
</g>
<!-- Node43 -->
<g id="node43" class="node"><title>Node43</title>
<g id="a_node43"><a xlink:href="../../dd/da4/Logger_8h.html" target="_top" xlink:title="Framework/Logger.h">
<polygon fill="none" stroke="black" points="489,-509 489,-528 595,-528 595,-509 489,-509"/>
<text text-anchor="middle" x="542" y="-516" font-family="Helvetica,sans-Serif" font-size="10.00">Framework/Logger.h</text>
</a>
</g>
</g>
<!-- Node4&#45;&gt;Node43 -->
<g id="edge54" class="edge"><title>Node4&#45;&gt;Node43</title>
<path fill="none" stroke="midnightblue" d="M780.258,-570.46C730.674,-560.618 663.236,-546.955 604,-534 598.668,-532.834 593.086,-531.578 587.55,-530.311"/>
<polygon fill="midnightblue" stroke="midnightblue" points="588.228,-526.875 577.696,-528.034 586.652,-533.696 588.228,-526.875"/>
</g>
<!-- Node44 -->
<g id="node44" class="node"><title>Node44</title>
<polygon fill="none" stroke="#bfbfbf" points="613,-509 613,-528 663,-528 663,-509 613,-509"/>
<text text-anchor="middle" x="638" y="-516" font-family="Helvetica,sans-Serif" font-size="10.00">fstream</text>
</g>
<!-- Node4&#45;&gt;Node44 -->
<g id="edge55" class="edge"><title>Node4&#45;&gt;Node44</title>
<path fill="none" stroke="midnightblue" d="M794.663,-570.442C759.008,-561.202 712.414,-548.22 672,-534 670.139,-533.345 668.234,-532.638 666.323,-531.901"/>
<polygon fill="midnightblue" stroke="midnightblue" points="667.472,-528.591 656.89,-528.069 664.837,-535.076 667.472,-528.591"/>
</g>
<!-- Node45 -->
<g id="node45" class="node"><title>Node45</title>
<polygon fill="none" stroke="#bfbfbf" points="681.5,-509 681.5,-528 722.5,-528 722.5,-509 681.5,-509"/>
<text text-anchor="middle" x="702" y="-516" font-family="Helvetica,sans-Serif" font-size="10.00">string</text>
</g>
<!-- Node4&#45;&gt;Node45 -->
<g id="edge56" class="edge"><title>Node4&#45;&gt;Node45</title>
<path fill="none" stroke="midnightblue" d="M816.515,-570.434C792.251,-560.635 759.456,-547.034 731,-534 730.002,-533.543 728.988,-533.071 727.966,-532.59"/>
<polygon fill="midnightblue" stroke="midnightblue" points="729.299,-529.347 718.774,-528.13 726.243,-535.645 729.299,-529.347"/>
</g>
<!-- Node46 -->
<g id="node46" class="node"><title>Node46</title>
<polygon fill="none" stroke="#bfbfbf" points="740.5,-509 740.5,-528 823.5,-528 823.5,-509 740.5,-509"/>
<text text-anchor="middle" x="782" y="-516" font-family="Helvetica,sans-Serif" font-size="10.00">unordered_map</text>
</g>
<!-- Node4&#45;&gt;Node46 -->
<g id="edge57" class="edge"><title>Node4&#45;&gt;Node46</title>
<path fill="none" stroke="midnightblue" d="M836.811,-570.396C825.68,-560.06 810.564,-546.024 799.025,-535.309"/>
<polygon fill="midnightblue" stroke="midnightblue" points="801.073,-532.434 791.363,-528.195 796.31,-537.564 801.073,-532.434"/>
</g>
<!-- Node47 -->
<g id="node47" class="node"><title>Node47</title>
<g id="a_node47"><a xlink:href="../../df/de4/CompCluster_8h.html" target="_top" xlink:title="Definition of the ITSMFT compact cluster. ">
<polygon fill="none" stroke="black" points="1446.5,-447.5 1446.5,-466.5 1625.5,-466.5 1625.5,-447.5 1446.5,-447.5"/>
<text text-anchor="middle" x="1536" y="-454.5" font-family="Helvetica,sans-Serif" font-size="10.00">DataFormatsITSMFT/CompCluster.h</text>
</a>
</g>
</g>
<!-- Node4&#45;&gt;Node47 -->
<g id="edge60" class="edge"><title>Node4&#45;&gt;Node47</title>
<path fill="none" stroke="midnightblue" d="M928.069,-582.775C1063.13,-578.898 1339.05,-567.084 1429,-534 1465.3,-520.648 1500.51,-491.587 1520.11,-473.521"/>
<polygon fill="midnightblue" stroke="midnightblue" points="1522.64,-475.94 1527.51,-466.529 1517.84,-470.851 1522.64,-475.94"/>
</g>
<!-- Node6 -->
<g id="node6" class="node"><title>Node6</title>
<polygon fill="none" stroke="#bfbfbf" points="1882,-185 1882,-204 1938,-204 1938,-185 1882,-185"/>
<text text-anchor="middle" x="1910" y="-192" font-family="Helvetica,sans-Serif" font-size="10.00">Rtypes.h</text>
</g>
<!-- Node5&#45;&gt;Node6 -->
<g id="edge5" class="edge"><title>Node5&#45;&gt;Node6</title>
<path fill="none" stroke="midnightblue" d="M1354.32,-503.294C1363.65,-481.009 1380,-436.264 1380,-396.5 1380,-396.5 1380,-396.5 1380,-327.5 1380,-214.66 1766.48,-244.23 1874,-210 1876.28,-209.276 1878.61,-208.474 1880.95,-207.63"/>
<polygon fill="midnightblue" stroke="midnightblue" points="1882.3,-210.86 1890.39,-204.016 1879.8,-204.322 1882.3,-210.86"/>
</g>
<!-- Node7 -->
<g id="node7" class="node"><title>Node7</title>
<polygon fill="none" stroke="#bfbfbf" points="418,-118 418,-137 456,-137 456,-118 418,-118"/>
<text text-anchor="middle" x="437" y="-125" font-family="Helvetica,sans-Serif" font-size="10.00">array</text>
</g>
<!-- Node5&#45;&gt;Node7 -->
<g id="edge6" class="edge"><title>Node5&#45;&gt;Node7</title>
<path fill="none" stroke="midnightblue" d="M1275.99,-517.939C1098.07,-515.612 629.9,-488.38 323,-277 282.896,-249.378 244.332,-217.616 274,-179 311.832,-129.758 351.088,-165.41 409,-143 410.206,-142.533 411.428,-142.029 412.653,-141.499"/>
<polygon fill="midnightblue" stroke="midnightblue" points="414.359,-144.563 421.873,-137.094 411.341,-138.246 414.359,-144.563"/>
</g>
<!-- Node8 -->
<g id="node8" class="node"><title>Node8</title>
<polygon fill="none" stroke="#bfbfbf" points="1956.5,-185 1956.5,-204 2001.5,-204 2001.5,-185 1956.5,-185"/>
<text text-anchor="middle" x="1979" y="-192" font-family="Helvetica,sans-Serif" font-size="10.00">iosfwd</text>
</g>
<!-- Node5&#45;&gt;Node8 -->
<g id="edge7" class="edge"><title>Node5&#45;&gt;Node8</title>
<path fill="none" stroke="midnightblue" d="M1363.56,-503.299C1380.69,-488.121 1409.48,-463.957 1437,-447 1461.25,-432.06 1842.87,-257.62 1950.78,-208.373"/>
<polygon fill="midnightblue" stroke="midnightblue" points="1952.42,-211.471 1960.06,-204.136 1949.51,-205.103 1952.42,-211.471"/>
</g>
<!-- Node9 -->
<g id="node9" class="node"><title>Node9</title>
<g id="a_node9"><a xlink:href="../../d1/d62/DataFormats_2Detectors_2ITSMFT_2common_2include_2DataFormatsITSMFT_2Cluster_8h.html" target="_top" xlink:title="DataFormatsITSMFT/Cluster.h">
<polygon fill="none" stroke="black" points="1036,-447.5 1036,-466.5 1188,-466.5 1188,-447.5 1036,-447.5"/>
<text text-anchor="middle" x="1112" y="-454.5" font-family="Helvetica,sans-Serif" font-size="10.00">DataFormatsITSMFT/Cluster.h</text>
</a>
</g>
</g>
<!-- Node5&#45;&gt;Node9 -->
<g id="edge8" class="edge"><title>Node5&#45;&gt;Node9</title>
<path fill="none" stroke="midnightblue" d="M1292.37,-503.475C1250.59,-492.941 1194.17,-478.716 1155.62,-468.998"/>
<polygon fill="midnightblue" stroke="midnightblue" points="1156.29,-465.557 1145.74,-466.506 1154.58,-472.345 1156.29,-465.557"/>
</g>
<!-- Node10 -->
<g id="node10" class="node"><title>Node10</title>
<g id="a_node10"><a xlink:href="../../d4/de2/BaseCluster_8h.html" target="_top" xlink:title="ReconstructionDataFormats\l/BaseCluster.h">
<polygon fill="none" stroke="black" points="822,-380.5 822,-410.5 962,-410.5 962,-380.5 822,-380.5"/>
<text text-anchor="start" x="830" y="-398.5" font-family="Helvetica,sans-Serif" font-size="10.00">ReconstructionDataFormats</text>
<text text-anchor="middle" x="892" y="-387.5" font-family="Helvetica,sans-Serif" font-size="10.00">/BaseCluster.h</text>
</a>
</g>
</g>
<!-- Node9&#45;&gt;Node10 -->
<g id="edge9" class="edge"><title>Node9&#45;&gt;Node10</title>
<path fill="none" stroke="midnightblue" d="M1080.48,-447.475C1047.48,-438.551 994.822,-424.309 953.542,-413.144"/>
<polygon fill="midnightblue" stroke="midnightblue" points="954.417,-409.755 943.85,-410.523 952.589,-416.512 954.417,-409.755"/>
</g>
<!-- Node10&#45;&gt;Node8 -->
<g id="edge14" class="edge"><title>Node10&#45;&gt;Node8</title>
<path fill="none" stroke="midnightblue" d="M948.715,-380.473C1036.94,-358.611 1212.37,-314.976 1361,-277 1413.95,-263.47 1426.1,-255.025 1480,-246 1685.31,-211.625 1745.36,-261.743 1947,-210 1949.21,-209.433 1951.45,-208.723 1953.68,-207.923"/>
<polygon fill="midnightblue" stroke="midnightblue" points="1955.22,-211.072 1963.12,-204.011 1952.54,-204.606 1955.22,-211.072"/>
</g>
<!-- Node11 -->
<g id="node11" class="node"><title>Node11</title>
<polygon fill="none" stroke="#bfbfbf" points="799.5,-319 799.5,-338 858.5,-338 858.5,-319 799.5,-319"/>
<text text-anchor="middle" x="829" y="-326" font-family="Helvetica,sans-Serif" font-size="10.00">TObject.h</text>
</g>
<!-- Node10&#45;&gt;Node11 -->
<g id="edge10" class="edge"><title>Node10&#45;&gt;Node11</title>
<path fill="none" stroke="midnightblue" d="M878.33,-380.396C868.41,-370.161 854.971,-356.296 844.626,-345.622"/>
<polygon fill="midnightblue" stroke="midnightblue" points="846.9,-342.939 837.427,-338.195 841.874,-347.811 846.9,-342.939"/>
</g>
<!-- Node12 -->
<g id="node12" class="node"><title>Node12</title>
<polygon fill="none" stroke="#bfbfbf" points="532.5,-185 532.5,-204 573.5,-204 573.5,-185 532.5,-185"/>
<text text-anchor="middle" x="553" y="-192" font-family="Helvetica,sans-Serif" font-size="10.00">bitset</text>
</g>
<!-- Node10&#45;&gt;Node12 -->
<g id="edge11" class="edge"><title>Node10&#45;&gt;Node12</title>
<path fill="none" stroke="midnightblue" d="M821.633,-386.838C777.665,-379.982 720.886,-367.26 675,-344 634.238,-323.337 625.667,-312.59 597,-277 581.129,-257.297 568.146,-231.026 560.496,-213.704"/>
<polygon fill="midnightblue" stroke="midnightblue" points="563.59,-212.036 556.444,-204.214 557.152,-214.785 563.59,-212.036"/>
</g>
<!-- Node13 -->
<g id="node13" class="node"><title>Node13</title>
<polygon fill="none" stroke="#bfbfbf" points="684,-319 684,-338 734,-338 734,-319 684,-319"/>
<text text-anchor="middle" x="709" y="-326" font-family="Helvetica,sans-Serif" font-size="10.00">iomanip</text>
</g>
<!-- Node10&#45;&gt;Node13 -->
<g id="edge12" class="edge"><title>Node10&#45;&gt;Node13</title>
<path fill="none" stroke="midnightblue" d="M847.677,-380.46C817.876,-370.78 777.827,-357.306 743,-344 741.352,-343.37 739.665,-342.708 737.967,-342.029"/>
<polygon fill="midnightblue" stroke="midnightblue" points="738.893,-338.624 728.314,-338.039 736.219,-345.093 738.893,-338.624"/>
</g>
<!-- Node14 -->
<g id="node14" class="node"><title>Node14</title>
<polygon fill="none" stroke="#bfbfbf" points="752.5,-319 752.5,-338 781.5,-338 781.5,-319 752.5,-319"/>
<text text-anchor="middle" x="767" y="-326" font-family="Helvetica,sans-Serif" font-size="10.00">ios</text>
</g>
<!-- Node10&#45;&gt;Node14 -->
<g id="edge13" class="edge"><title>Node10&#45;&gt;Node14</title>
<path fill="none" stroke="midnightblue" d="M861.676,-380.492C841.163,-370.773 813.611,-357.242 790,-344 789.588,-343.769 789.174,-343.534 788.757,-343.296"/>
<polygon fill="midnightblue" stroke="midnightblue" points="790.367,-340.18 779.995,-338.018 786.755,-346.176 790.367,-340.18"/>
</g>
<!-- Node15 -->
<g id="node15" class="node"><title>Node15</title>
<g id="a_node15"><a xlink:href="../../d4/d20/DetMatrixCache_8h.html" target="_top" xlink:title="DetectorsCommonDataFormats\l/DetMatrixCache.h">
<polygon fill="none" stroke="black" points="877,-313.5 877,-343.5 1033,-343.5 1033,-313.5 877,-313.5"/>
<text text-anchor="start" x="885" y="-331.5" font-family="Helvetica,sans-Serif" font-size="10.00">DetectorsCommonDataFormats</text>
<text text-anchor="middle" x="955" y="-320.5" font-family="Helvetica,sans-Serif" font-size="10.00">/DetMatrixCache.h</text>
</a>
</g>
</g>
<!-- Node10&#45;&gt;Node15 -->
<g id="edge15" class="edge"><title>Node10&#45;&gt;Node15</title>
<path fill="none" stroke="midnightblue" d="M905.67,-380.396C914.008,-371.793 924.832,-360.626 934.215,-350.945"/>
<polygon fill="midnightblue" stroke="midnightblue" points="936.91,-353.193 941.357,-343.577 931.884,-348.321 936.91,-353.193"/>
</g>
<!-- Node10&#45;&gt;Node33 -->
<g id="edge53" class="edge"><title>Node10&#45;&gt;Node33</title>
<path fill="none" stroke="midnightblue" d="M946.751,-380.49C975.916,-371.945 1011.88,-359.642 1042,-344 1077.99,-325.308 1115.02,-295.604 1135.91,-277.688"/>
<polygon fill="midnightblue" stroke="midnightblue" points="1138.33,-280.218 1143.58,-271.014 1133.74,-274.938 1138.33,-280.218"/>
</g>
<!-- Node15&#45;&gt;Node7 -->
<g id="edge21" class="edge"><title>Node15&#45;&gt;Node7</title>
<path fill="none" stroke="midnightblue" d="M927.849,-313.375C888.446,-292.49 813.609,-251.365 754,-210 736.093,-197.574 735.796,-188.119 716,-179 631.268,-139.968 519.083,-131.05 466.531,-129.051"/>
<polygon fill="midnightblue" stroke="midnightblue" points="466.361,-125.544 456.254,-128.721 466.136,-132.54 466.361,-125.544"/>
</g>
<!-- Node16 -->
<g id="node16" class="node"><title>Node16</title>
<g id="a_node16"><a xlink:href="../../df/d5b/GPUCommonLogger_8h.html" target="_top" xlink:title="GPUCommonLogger.h">
<polygon fill="none" stroke="black" points="606,-252 606,-271 722,-271 722,-252 606,-252"/>
<text text-anchor="middle" x="664" y="-259" font-family="Helvetica,sans-Serif" font-size="10.00">GPUCommonLogger.h</text>
</a>
</g>
</g>
<!-- Node15&#45;&gt;Node16 -->
<g id="edge16" class="edge"><title>Node15&#45;&gt;Node16</title>
<path fill="none" stroke="midnightblue" d="M892.216,-313.476C838.131,-301.395 761.214,-284.215 711.953,-273.211"/>
<polygon fill="midnightblue" stroke="midnightblue" points="712.705,-269.793 702.182,-271.029 711.179,-276.625 712.705,-269.793"/>
</g>
<!-- Node19 -->
<g id="node19" class="node"><title>Node19</title>
<g id="a_node19"><a xlink:href="../../d2/d45/GPUCommonRtypes_8h.html" target="_top" xlink:title="GPUCommonRtypes.h">
<polygon fill="none" stroke="black" points="1234,-252 1234,-271 1352,-271 1352,-252 1234,-252"/>
<text text-anchor="middle" x="1293" y="-259" font-family="Helvetica,sans-Serif" font-size="10.00">GPUCommonRtypes.h</text>
</a>
</g>
</g>
<!-- Node15&#45;&gt;Node19 -->
<g id="edge19" class="edge"><title>Node15&#45;&gt;Node19</title>
<path fill="none" stroke="midnightblue" d="M1032.19,-313.464C1086.01,-303.567 1159.45,-289.839 1224,-277 1230.22,-275.762 1236.76,-274.431 1243.22,-273.095"/>
<polygon fill="midnightblue" stroke="midnightblue" points="1244.18,-276.469 1253.26,-271.004 1242.76,-269.616 1244.18,-276.469"/>
</g>
<!-- Node15&#45;&gt;Node20 -->
<g id="edge22" class="edge"><title>Node15&#45;&gt;Node20</title>
<path fill="none" stroke="midnightblue" d="M876.841,-314.252C873.52,-313.806 870.229,-313.386 867,-313 653.698,-287.512 592.816,-331.401 385,-277 383.017,-276.481 381.005,-275.838 379.009,-275.115"/>
<polygon fill="midnightblue" stroke="midnightblue" points="379.929,-271.704 369.356,-271.024 377.197,-278.149 379.929,-271.704"/>
</g>
<!-- Node21 -->
<g id="node21" class="node"><title>Node21</title>
<g id="a_node21"><a xlink:href="../../d6/d31/DetID_8h.html" target="_top" xlink:title="DetectorsCommonDataFormats\l/DetID.h">
<polygon fill="none" stroke="black" points="394,-246.5 394,-276.5 550,-276.5 550,-246.5 394,-246.5"/>
<text text-anchor="start" x="402" y="-264.5" font-family="Helvetica,sans-Serif" font-size="10.00">DetectorsCommonDataFormats</text>
<text text-anchor="middle" x="472" y="-253.5" font-family="Helvetica,sans-Serif" font-size="10.00">/DetID.h</text>
</a>
</g>
</g>
<!-- Node15&#45;&gt;Node21 -->
<g id="edge23" class="edge"><title>Node15&#45;&gt;Node21</title>
<path fill="none" stroke="midnightblue" d="M876.813,-314.466C873.499,-313.962 870.217,-313.471 867,-313 761.71,-297.6 640.242,-282.463 560.109,-272.84"/>
<polygon fill="midnightblue" stroke="midnightblue" points="560.404,-269.35 550.059,-271.636 559.572,-276.3 560.404,-269.35"/>
</g>
<!-- Node15&#45;&gt;Node33 -->
<g id="edge41" class="edge"><title>Node15&#45;&gt;Node33</title>
<path fill="none" stroke="midnightblue" d="M997.963,-313.396C1033.63,-301.688 1083.76,-285.231 1117.26,-274.234"/>
<polygon fill="midnightblue" stroke="midnightblue" points="1118.68,-277.452 1127.09,-271.007 1116.49,-270.801 1118.68,-277.452"/>
</g>
<!-- Node17 -->
<g id="node17" class="node"><title>Node17</title>
<polygon fill="none" stroke="#bfbfbf" points="653,-185 653,-204 707,-204 707,-185 653,-185"/>
<text text-anchor="middle" x="680" y="-192" font-family="Helvetica,sans-Serif" font-size="10.00">iostream</text>
</g>
<!-- Node16&#45;&gt;Node17 -->
<g id="edge17" class="edge"><title>Node16&#45;&gt;Node17</title>
<path fill="none" stroke="midnightblue" d="M666.158,-251.734C668.533,-242.085 672.418,-226.3 675.469,-213.906"/>
<polygon fill="midnightblue" stroke="midnightblue" points="678.885,-214.674 677.876,-204.127 672.088,-213.001 678.885,-214.674"/>
</g>
<!-- Node18 -->
<g id="node18" class="node"><title>Node18</title>
<polygon fill="none" stroke="#bfbfbf" points="591.5,-185 591.5,-204 634.5,-204 634.5,-185 591.5,-185"/>
<text text-anchor="middle" x="613" y="-192" font-family="Helvetica,sans-Serif" font-size="10.00">cstdio</text>
</g>
<!-- Node16&#45;&gt;Node18 -->
<g id="edge18" class="edge"><title>Node16&#45;&gt;Node18</title>
<path fill="none" stroke="midnightblue" d="M657.122,-251.734C649.169,-241.598 635.903,-224.69 625.99,-212.056"/>
<polygon fill="midnightblue" stroke="midnightblue" points="628.696,-209.834 619.769,-204.127 623.188,-214.155 628.696,-209.834"/>
</g>
<!-- Node19&#45;&gt;Node6 -->
<g id="edge20" class="edge"><title>Node19&#45;&gt;Node6</title>
<path fill="none" stroke="midnightblue" d="M1331.11,-251.992C1342.31,-249.748 1354.6,-247.53 1366,-246 1590.33,-215.892 1653.45,-260.901 1874,-210 1876.83,-209.347 1879.73,-208.502 1882.59,-207.549"/>
<polygon fill="midnightblue" stroke="midnightblue" points="1883.9,-210.795 1892.04,-204.012 1881.45,-204.239 1883.9,-210.795"/>
</g>
<!-- Node21&#45;&gt;Node6 -->
<g id="edge24" class="edge"><title>Node21&#45;&gt;Node6</title>
<path fill="none" stroke="midnightblue" d="M550.25,-250.361C565.721,-248.657 581.856,-247.09 597,-246 880.158,-225.625 1596.09,-267.941 1874,-210 1876.91,-209.394 1879.88,-208.567 1882.81,-207.613"/>
<polygon fill="midnightblue" stroke="midnightblue" points="1884.3,-210.793 1892.45,-204.018 1881.85,-204.234 1884.3,-210.793"/>
</g>
<!-- Node21&#45;&gt;Node7 -->
<g id="edge25" class="edge"><title>Node21&#45;&gt;Node7</title>
<path fill="none" stroke="midnightblue" d="M467.221,-246.438C463.874,-236.355 459.409,-222.416 456,-210 450.125,-188.599 444.496,-163.721 440.912,-147.135"/>
<polygon fill="midnightblue" stroke="midnightblue" points="444.285,-146.172 438.779,-137.121 437.439,-147.631 444.285,-146.172"/>
</g>
<!-- Node21&#45;&gt;Node12 -->
<g id="edge26" class="edge"><title>Node21&#45;&gt;Node12</title>
<path fill="none" stroke="midnightblue" d="M489.576,-246.396C502.706,-235.86 520.628,-221.477 534.073,-210.689"/>
<polygon fill="midnightblue" stroke="midnightblue" points="536.557,-213.183 542.165,-204.195 532.175,-207.723 536.557,-213.183"/>
</g>
<!-- Node22 -->
<g id="node22" class="node"><title>Node22</title>
<polygon fill="none" stroke="#bfbfbf" points="465.5,-185 465.5,-204 514.5,-204 514.5,-185 465.5,-185"/>
<text text-anchor="middle" x="490" y="-192" font-family="Helvetica,sans-Serif" font-size="10.00">cassert</text>
</g>
<!-- Node21&#45;&gt;Node22 -->
<g id="edge27" class="edge"><title>Node21&#45;&gt;Node22</title>
<path fill="none" stroke="midnightblue" d="M475.906,-246.396C478.546,-236.863 482.057,-224.182 484.915,-213.862"/>
<polygon fill="midnightblue" stroke="midnightblue" points="488.296,-214.766 487.592,-204.195 481.55,-212.898 488.296,-214.766"/>
</g>
<!-- Node23 -->
<g id="node23" class="node"><title>Node23</title>
<polygon fill="none" stroke="#bfbfbf" points="283,-185 283,-204 329,-204 329,-185 283,-185"/>
<text text-anchor="middle" x="306" y="-192" font-family="Helvetica,sans-Serif" font-size="10.00">cstdint</text>
</g>
<!-- Node21&#45;&gt;Node23 -->
<g id="edge28" class="edge"><title>Node21&#45;&gt;Node23</title>
<path fill="none" stroke="midnightblue" d="M432.744,-246.469C405.892,-236.686 369.579,-223.089 338,-210 336.627,-209.431 335.225,-208.838 333.812,-208.233"/>
<polygon fill="midnightblue" stroke="midnightblue" points="335.086,-204.969 324.524,-204.14 332.264,-211.375 335.086,-204.969"/>
</g>
<!-- Node24 -->
<g id="node24" class="node"><title>Node24</title>
<polygon fill="none" stroke="#bfbfbf" points="347,-185 347,-204 409,-204 409,-185 347,-185"/>
<text text-anchor="middle" x="378" y="-192" font-family="Helvetica,sans-Serif" font-size="10.00">type_traits</text>
</g>
<!-- Node21&#45;&gt;Node24 -->
<g id="edge29" class="edge"><title>Node21&#45;&gt;Node24</title>
<path fill="none" stroke="midnightblue" d="M451.603,-246.396C435.986,-235.597 414.525,-220.756 398.806,-209.887"/>
<polygon fill="midnightblue" stroke="midnightblue" points="400.518,-206.816 390.302,-204.007 396.537,-212.573 400.518,-206.816"/>
</g>
<!-- Node25 -->
<g id="node25" class="node"><title>Node25</title>
<g id="a_node25"><a xlink:href="../../d9/d52/Common_2MathUtils_2include_2MathUtils_2Utils_8h.html" target="_top" xlink:title="MathUtils/Utils.h">
<polygon fill="none" stroke="black" points="137,-185 137,-204 227,-204 227,-185 137,-185"/>
<text text-anchor="middle" x="182" y="-192" font-family="Helvetica,sans-Serif" font-size="10.00">MathUtils/Utils.h</text>
</a>
</g>
</g>
<!-- Node21&#45;&gt;Node25 -->
<g id="edge30" class="edge"><title>Node21&#45;&gt;Node25</title>
<path fill="none" stroke="midnightblue" d="M409.431,-246.476C355.645,-234.421 279.2,-217.286 230.096,-206.28"/>
<polygon fill="midnightblue" stroke="midnightblue" points="230.574,-202.801 220.051,-204.029 229.043,-209.631 230.574,-202.801"/>
</g>
<!-- Node25&#45;&gt;Node7 -->
<g id="edge31" class="edge"><title>Node25&#45;&gt;Node7</title>
<path fill="none" stroke="midnightblue" d="M215.966,-184.969C224.152,-182.963 232.879,-180.868 241,-179 315.419,-161.886 337.124,-168.787 409,-143 410.246,-142.553 411.507,-142.061 412.768,-141.536"/>
<polygon fill="midnightblue" stroke="midnightblue" points="414.662,-144.513 422.219,-137.087 411.681,-138.18 414.662,-144.513"/>
</g>
<!-- Node26 -->
<g id="node26" class="node"><title>Node26</title>
<polygon fill="none" stroke="#bfbfbf" points="283,-56.5 283,-75.5 327,-75.5 327,-56.5 283,-56.5"/>
<text text-anchor="middle" x="305" y="-63.5" font-family="Helvetica,sans-Serif" font-size="10.00">cmath</text>
</g>
<!-- Node25&#45;&gt;Node26 -->
<g id="edge32" class="edge"><title>Node25&#45;&gt;Node26</title>
<path fill="none" stroke="midnightblue" d="M194.052,-184.881C207.026,-175.338 227.959,-159.157 244,-143 262.534,-124.332 281.057,-100.305 292.745,-84.3151"/>
<polygon fill="midnightblue" stroke="midnightblue" points="295.78,-86.0901 298.785,-75.9305 290.1,-81.9984 295.78,-86.0901"/>
</g>
<!-- Node27 -->
<g id="node27" class="node"><title>Node27</title>
<g id="a_node27"><a xlink:href="../../df/d21/GPUCommonDef_8h.html" target="_top" xlink:title="GPUCommonDef.h">
<polygon fill="none" stroke="black" points="91,-56.5 91,-75.5 193,-75.5 193,-56.5 91,-56.5"/>
<text text-anchor="middle" x="142" y="-63.5" font-family="Helvetica,sans-Serif" font-size="10.00">GPUCommonDef.h</text>
</a>
</g>
</g>
<!-- Node25&#45;&gt;Node27 -->
<g id="edge33" class="edge"><title>Node25&#45;&gt;Node27</title>
<path fill="none" stroke="midnightblue" d="M136.922,-189.635C106.02,-184.367 67.109,-171.992 47,-143 39.1477,-131.679 39.6323,-123.642 47,-112 57.0458,-96.1257 74.3727,-85.7417 91.5011,-78.9994"/>
<polygon fill="midnightblue" stroke="midnightblue" points="92.7141,-82.2827 100.949,-75.6165 90.3544,-75.6924 92.7141,-82.2827"/>
</g>
<!-- Node30 -->
<g id="node30" class="node"><title>Node30</title>
<g id="a_node30"><a xlink:href="../../d6/da2/GPUCommonMath_8h.html" target="_top" xlink:title="GPUCommonMath.h">
<polygon fill="none" stroke="black" points="292,-118 292,-137 400,-137 400,-118 292,-118"/>
<text text-anchor="middle" x="346" y="-125" font-family="Helvetica,sans-Serif" font-size="10.00">GPUCommonMath.h</text>
</a>
</g>
</g>
<!-- Node25&#45;&gt;Node30 -->
<g id="edge36" class="edge"><title>Node25&#45;&gt;Node30</title>
<path fill="none" stroke="midnightblue" d="M203.778,-184.869C232.283,-173.571 282.428,-153.696 314.92,-140.818"/>
<polygon fill="midnightblue" stroke="midnightblue" points="316.386,-144.002 324.393,-137.064 313.807,-137.495 316.386,-144.002"/>
</g>
<!-- Node32 -->
<g id="node32" class="node"><title>Node32</title>
<g id="a_node32"><a xlink:href="../../d6/d84/MathConstants_8h.html" target="_top" xlink:title="useful math constants ">
<polygon fill="none" stroke="black" points="56.5,-118 56.5,-137 235.5,-137 235.5,-118 56.5,-118"/>
<text text-anchor="middle" x="146" y="-125" font-family="Helvetica,sans-Serif" font-size="10.00">CommonConstants/MathConstants.h</text>
</a>
</g>
</g>
<!-- Node25&#45;&gt;Node32 -->
<g id="edge40" class="edge"><title>Node25&#45;&gt;Node32</title>
<path fill="none" stroke="midnightblue" d="M177.145,-184.734C171.693,-174.89 162.704,-158.66 155.781,-146.159"/>
<polygon fill="midnightblue" stroke="midnightblue" points="158.685,-144.179 150.778,-137.127 152.561,-147.571 158.685,-144.179"/>
</g>
<!-- Node28 -->
<g id="node28" class="node"><title>Node28</title>
<g id="a_node28"><a xlink:href="../../d5/d93/GPUCommonDefSettings_8h.html" target="_top" xlink:title="GPUCommonDefSettings.h">
<polygon fill="none" stroke="black" points="0,-0.5 0,-19.5 138,-19.5 138,-0.5 0,-0.5"/>
<text text-anchor="middle" x="69" y="-7.5" font-family="Helvetica,sans-Serif" font-size="10.00">GPUCommonDefSettings.h</text>
</a>
</g>
</g>
<!-- Node27&#45;&gt;Node28 -->
<g id="edge34" class="edge"><title>Node27&#45;&gt;Node28</title>
<path fill="none" stroke="midnightblue" d="M130.271,-56.324C119.163,-48.1066 102.258,-35.6017 89.0167,-25.8069"/>
<polygon fill="midnightblue" stroke="midnightblue" points="91.0631,-22.9671 80.9421,-19.8339 86.9001,-28.5948 91.0631,-22.9671"/>
</g>
<!-- Node29 -->
<g id="node29" class="node"><title>Node29</title>
<g id="a_node29"><a xlink:href="../../da/d5a/GPUCommonDefAPI_8h.html" target="_top" xlink:title="GPUCommonDefAPI.h">
<polygon fill="none" stroke="black" points="156.5,-0.5 156.5,-19.5 275.5,-19.5 275.5,-0.5 156.5,-0.5"/>
<text text-anchor="middle" x="216" y="-7.5" font-family="Helvetica,sans-Serif" font-size="10.00">GPUCommonDefAPI.h</text>
</a>
</g>
</g>
<!-- Node27&#45;&gt;Node29 -->
<g id="edge35" class="edge"><title>Node27&#45;&gt;Node29</title>
<path fill="none" stroke="midnightblue" d="M153.889,-56.324C165.15,-48.1066 182.287,-35.6017 195.709,-25.8069"/>
<polygon fill="midnightblue" stroke="midnightblue" points="197.88,-28.5559 203.894,-19.8339 193.753,-22.9014 197.88,-28.5559"/>
</g>
<!-- Node30&#45;&gt;Node26 -->
<g id="edge38" class="edge"><title>Node30&#45;&gt;Node26</title>
<path fill="none" stroke="midnightblue" d="M340.126,-117.975C334.037,-109.138 324.355,-95.0886 316.697,-83.975"/>
<polygon fill="midnightblue" stroke="midnightblue" points="319.42,-81.7575 310.863,-75.5091 313.656,-85.7294 319.42,-81.7575"/>
</g>
<!-- Node30&#45;&gt;Node27 -->
<g id="edge37" class="edge"><title>Node30&#45;&gt;Node27</title>
<path fill="none" stroke="midnightblue" d="M316.772,-117.975C281.097,-107.57 220.64,-89.9367 181.018,-78.3801"/>
<polygon fill="midnightblue" stroke="midnightblue" points="181.754,-74.9492 171.174,-75.5091 179.794,-81.6692 181.754,-74.9492"/>
</g>
<!-- Node30&#45;&gt;Node31 -->
<g id="edge39" class="edge"><title>Node30&#45;&gt;Node31</title>
<path fill="none" stroke="midnightblue" d="M378.177,-117.995C388.006,-115.695 398.889,-113.445 409,-112 691.24,-71.6616 1035.92,-67.2345 1149.61,-66.9359"/>
<polygon fill="midnightblue" stroke="midnightblue" points="1149.89,-70.4356 1159.88,-66.9188 1149.88,-63.4356 1149.89,-70.4356"/>
</g>
<!-- Node33&#45;&gt;Node6 -->
<g id="edge47" class="edge"><title>Node33&#45;&gt;Node6</title>
<path fill="none" stroke="midnightblue" d="M1190.2,-251.951C1201.34,-249.678 1213.62,-247.454 1225,-246 1511.56,-209.389 1592.02,-272.806 1874,-210 1876.84,-209.368 1879.74,-208.538 1882.6,-207.594"/>
<polygon fill="midnightblue" stroke="midnightblue" points="1883.91,-210.842 1892.06,-204.069 1881.46,-204.284 1883.91,-210.842"/>
</g>
<!-- Node33&#45;&gt;Node8 -->
<g id="edge49" class="edge"><title>Node33&#45;&gt;Node8</title>
<path fill="none" stroke="midnightblue" d="M1189.83,-251.987C1201.06,-249.686 1213.49,-247.438 1225,-246 1543.81,-206.175 1634.74,-285.633 1947,-210 1949.22,-209.463 1951.47,-208.774 1953.69,-207.989"/>
<polygon fill="midnightblue" stroke="midnightblue" points="1955.23,-211.143 1963.14,-204.102 1952.56,-204.67 1955.23,-211.143"/>
</g>
<!-- Node34 -->
<g id="node34" class="node"><title>Node34</title>
<polygon fill="none" stroke="#bfbfbf" points="1209.5,-179.5 1209.5,-209.5 1360.5,-209.5 1360.5,-179.5 1209.5,-179.5"/>
<text text-anchor="start" x="1217.5" y="-197.5" font-family="Helvetica,sans-Serif" font-size="10.00">Math/GenVector/Displacement</text>
<text text-anchor="middle" x="1285" y="-186.5" font-family="Helvetica,sans-Serif" font-size="10.00">Vector3D.h</text>
</g>
<!-- Node33&#45;&gt;Node34 -->
<g id="edge42" class="edge"><title>Node33&#45;&gt;Node34</title>
<path fill="none" stroke="midnightblue" d="M1170.53,-251.869C1189.93,-242.315 1221.79,-226.627 1246.97,-214.225"/>
<polygon fill="midnightblue" stroke="midnightblue" points="1248.84,-217.209 1256.26,-209.652 1245.74,-210.929 1248.84,-217.209"/>
</g>
<!-- Node35 -->
<g id="node35" class="node"><title>Node35</title>
<polygon fill="none" stroke="#bfbfbf" points="1379,-185 1379,-204 1555,-204 1555,-185 1379,-185"/>
<text text-anchor="middle" x="1467" y="-192" font-family="Helvetica,sans-Serif" font-size="10.00">Math/GenVector/PositionVector3D.h</text>
</g>
<!-- Node33&#45;&gt;Node35 -->
<g id="edge43" class="edge"><title>Node33&#45;&gt;Node35</title>
<path fill="none" stroke="midnightblue" d="M1194.37,-251.936C1251.32,-240.147 1353.81,-218.93 1415.61,-206.138"/>
<polygon fill="midnightblue" stroke="midnightblue" points="1416.45,-209.538 1425.54,-204.083 1415.03,-202.683 1416.45,-209.538"/>
</g>
<!-- Node36 -->
<g id="node36" class="node"><title>Node36</title>
<polygon fill="none" stroke="#bfbfbf" points="1572.5,-185 1572.5,-204 1721.5,-204 1721.5,-185 1572.5,-185"/>
<text text-anchor="middle" x="1647" y="-192" font-family="Helvetica,sans-Serif" font-size="10.00">Math/GenVector/Rotation3D.h</text>
</g>
<!-- Node33&#45;&gt;Node36 -->
<g id="edge44" class="edge"><title>Node33&#45;&gt;Node36</title>
<path fill="none" stroke="midnightblue" d="M1192.12,-251.935C1202.75,-249.795 1214.29,-247.644 1225,-246 1374.76,-223.019 1413.96,-231.049 1564,-210 1572.84,-208.76 1582.18,-207.287 1591.29,-205.762"/>
<polygon fill="midnightblue" stroke="midnightblue" points="1592.16,-209.165 1601.42,-204.029 1590.98,-202.265 1592.16,-209.165"/>
</g>
<!-- Node37 -->
<g id="node37" class="node"><title>Node37</title>
<polygon fill="none" stroke="#bfbfbf" points="763,-185 763,-204 919,-204 919,-185 763,-185"/>
<text text-anchor="middle" x="841" y="-192" font-family="Helvetica,sans-Serif" font-size="10.00">Math/GenVector/Transform3D.h</text>
</g>
<!-- Node33&#45;&gt;Node37 -->
<g id="edge45" class="edge"><title>Node33&#45;&gt;Node37</title>
<path fill="none" stroke="midnightblue" d="M1111.89,-251.936C1055.31,-240.147 953.466,-218.93 892.064,-206.138"/>
<polygon fill="midnightblue" stroke="midnightblue" points="892.704,-202.697 882.2,-204.083 891.276,-209.549 892.704,-202.697"/>
</g>
<!-- Node38 -->
<g id="node38" class="node"><title>Node38</title>
<polygon fill="none" stroke="#bfbfbf" points="937,-185 937,-204 1097,-204 1097,-185 937,-185"/>
<text text-anchor="middle" x="1017" y="-192" font-family="Helvetica,sans-Serif" font-size="10.00">Math/GenVector/Translation3D.h</text>
</g>
<!-- Node33&#45;&gt;Node38 -->
<g id="edge46" class="edge"><title>Node33&#45;&gt;Node38</title>
<path fill="none" stroke="midnightblue" d="M1134.94,-251.869C1111.77,-240.796 1071.37,-221.486 1044.4,-208.598"/>
<polygon fill="midnightblue" stroke="midnightblue" points="1045.67,-205.322 1035.13,-204.167 1042.65,-211.637 1045.67,-205.322"/>
</g>
<!-- Node39 -->
<g id="node39" class="node"><title>Node39</title>
<polygon fill="none" stroke="#bfbfbf" points="1115,-185 1115,-204 1191,-204 1191,-185 1115,-185"/>
<text text-anchor="middle" x="1153" y="-192" font-family="Helvetica,sans-Serif" font-size="10.00">TGeoMatrix.h</text>
</g>
<!-- Node33&#45;&gt;Node39 -->
<g id="edge48" class="edge"><title>Node33&#45;&gt;Node39</title>
<path fill="none" stroke="midnightblue" d="M1153,-251.734C1153,-242.183 1153,-226.618 1153,-214.283"/>
<polygon fill="midnightblue" stroke="midnightblue" points="1156.5,-214.127 1153,-204.127 1149.5,-214.127 1156.5,-214.127"/>
</g>
<!-- Node40 -->
<g id="node40" class="node"><title>Node40</title>
<g id="a_node40"><a xlink:href="../../d2/dd0/Cartesian2D_8h.html" target="_top" xlink:title="MathUtils/Cartesian2D.h">
<polygon fill="none" stroke="black" points="1739.5,-185 1739.5,-204 1864.5,-204 1864.5,-185 1739.5,-185"/>
<text text-anchor="middle" x="1802" y="-192" font-family="Helvetica,sans-Serif" font-size="10.00">MathUtils/Cartesian2D.h</text>
</a>
</g>
</g>
<!-- Node33&#45;&gt;Node40 -->
<g id="edge50" class="edge"><title>Node33&#45;&gt;Node40</title>
<path fill="none" stroke="midnightblue" d="M1190.59,-251.987C1201.63,-249.744 1213.75,-247.526 1225,-246 1448.41,-215.683 1507.63,-240.622 1731,-210 1738.8,-208.931 1747.03,-207.518 1755.01,-205.993"/>
<polygon fill="midnightblue" stroke="midnightblue" points="1755.81,-209.402 1764.94,-204.019 1754.45,-202.536 1755.81,-209.402"/>
</g>
<!-- Node41 -->
<g id="node41" class="node"><title>Node41</title>
<polygon fill="none" stroke="#bfbfbf" points="1600.5,-112.5 1600.5,-142.5 1751.5,-142.5 1751.5,-112.5 1600.5,-112.5"/>
<text text-anchor="start" x="1608.5" y="-130.5" font-family="Helvetica,sans-Serif" font-size="10.00">Math/GenVector/Displacement</text>
<text text-anchor="middle" x="1676" y="-119.5" font-family="Helvetica,sans-Serif" font-size="10.00">Vector2D.h</text>
</g>
<!-- Node40&#45;&gt;Node41 -->
<g id="edge51" class="edge"><title>Node40&#45;&gt;Node41</title>
<path fill="none" stroke="midnightblue" d="M1785.27,-184.869C1766.83,-175.357 1736.61,-159.765 1712.62,-147.389"/>
<polygon fill="midnightblue" stroke="midnightblue" points="1713.92,-144.126 1703.43,-142.652 1710.71,-150.347 1713.92,-144.126"/>
</g>
<!-- Node42 -->
<g id="node42" class="node"><title>Node42</title>
<polygon fill="none" stroke="#bfbfbf" points="1770,-118 1770,-137 1946,-137 1946,-118 1770,-118"/>
<text text-anchor="middle" x="1858" y="-125" font-family="Helvetica,sans-Serif" font-size="10.00">Math/GenVector/PositionVector2D.h</text>
</g>
<!-- Node40&#45;&gt;Node42 -->
<g id="edge52" class="edge"><title>Node40&#45;&gt;Node42</title>
<path fill="none" stroke="midnightblue" d="M1809.55,-184.734C1818.28,-174.598 1832.85,-157.69 1843.74,-145.056"/>
<polygon fill="midnightblue" stroke="midnightblue" points="1846.69,-146.988 1850.57,-137.127 1841.39,-142.419 1846.69,-146.988"/>
</g>
<!-- Node47&#45;&gt;Node6 -->
<g id="edge61" class="edge"><title>Node47&#45;&gt;Node6</title>
<path fill="none" stroke="midnightblue" d="M1548.44,-447.333C1602.91,-409.397 1820.62,-257.753 1889.2,-209.986"/>
<polygon fill="midnightblue" stroke="midnightblue" points="1891.3,-212.787 1897.51,-204.2 1887.3,-207.043 1891.3,-212.787"/>
</g>
</g>
</svg>
        <g id="navigator" transform="translate(0 0)" fill="#404254">
                <rect fill="#f2f5e9" fill-opacity="0.5" stroke="#606060" stroke-width=".5" x="0" y="0" width="60" height="60"/>
                <use id="zoomplus" xlink:href="#zoomPlus" x="17" y="9" onmousedown="handleZoom(evt,'in')"/>
                <use id="zoomminus" xlink:href="#zoomMin" x="42" y="9" onmousedown="handleZoom(evt,'out')"/>
                <use id="reset" xlink:href="#resetDef" x="30" y="36" onmousedown="handleReset()"/>
                <g id="arrowUp" xlink:href="#dirArrow" transform="translate(30 24)" onmousedown="handlePan(0,-1)">
                  <use xlink:href="#rim" fill="#404040">
                        <set attributeName="fill" to="#808080" begin="arrowUp.mouseover" end="arrowUp.mouseout"/>
                  </use>
                  <path fill="none" stroke="white" stroke-width="1.5" d="M0,-3.0v7 M-2.5,-0.5L0,-3.0L2.5,-0.5"/>
                </g>
                <g id="arrowRight" xlink:href="#dirArrow" transform="rotate(90) translate(36 -43)" onmousedown="handlePan(1,0)">
                  <use xlink:href="#rim" fill="#404040">
                        <set attributeName="fill" to="#808080" begin="arrowRight.mouseover" end="arrowRight.mouseout"/>
                  </use>
                  <path fill="none" stroke="white" stroke-width="1.5" d="M0,-3.0v7 M-2.5,-0.5L0,-3.0L2.5,-0.5"/>
                </g>
                <g id="arrowDown" xlink:href="#dirArrow" transform="rotate(180) translate(-30 -48)" onmousedown="handlePan(0,1)">
                  <use xlink:href="#rim" fill="#404040">
                        <set attributeName="fill" to="#808080" begin="arrowDown.mouseover" end="arrowDown.mouseout"/>
                  </use>
                  <path fill="none" stroke="white" stroke-width="1.5" d="M0,-3.0v7 M-2.5,-0.5L0,-3.0L2.5,-0.5"/>
                </g>
                <g id="arrowLeft" xlink:href="#dirArrow" transform="rotate(270) translate(-36 17)" onmousedown="handlePan(-1,0)">
                  <use xlink:href="#rim" fill="#404040">
                        <set attributeName="fill" to="#808080" begin="arrowLeft.mouseover" end="arrowLeft.mouseout"/>
                  </use>
                  <path fill="none" stroke="white" stroke-width="1.5" d="M0,-3.0v7 M-2.5,-0.5L0,-3.0L2.5,-0.5"/>
                </g>
        </g>
        <svg viewBox="0 0 15 15" width="100%" height="30px" preserveAspectRatio="xMaxYMin meet">
         <g id="arrow_out" transform="scale(0.3 0.3)">
          <a xlink:href="TopologyFastSimulation_8cxx__incl_org.svg" target="_base">
           <rect id="button" ry="5" rx="5" y="6" x="6" height="38" width="38"
                fill="#f2f5e9" fill-opacity="0.5" stroke="#606060" stroke-width="1.0"/>
           <path id="arrow"
             d="M 11.500037,31.436501 C 11.940474,20.09759 22.043105,11.32322 32.158766,21.979434 L 37.068811,17.246167 C 37.068811,17.246167 37.088388,32 37.088388,32 L 22.160133,31.978069 C 22.160133,31.978069 26.997745,27.140456 26.997745,27.140456 C 18.528582,18.264221 13.291696,25.230495 11.500037,31.436501 z"
             style="fill:#404040;"/>
          </a>
         </g>
        </svg>
</svg>
