<?xml version="1.0" encoding="UTF-8" standalone="no"?>
<!DOCTYPE svg PUBLIC "-//W3C//DTD SVG 1.1//EN"
 "http://www.w3.org/Graphics/SVG/1.1/DTD/svg11.dtd">
<!-- Generated by graphviz version 2.38.0 (20140413.2041)
 -->
<!-- Title: /home/travis/build/AliceO2Group/AliceO2/Detectors/ITSMFT/ITS/tracking/include/ITStracking/PrimaryVertexContext.h Pages: 1 -->
<!--zoomable 464 -->
<svg id="main" version="1.1" xmlns="http://www.w3.org/2000/svg" xmlns:xlink="http://www.w3.org/1999/xlink" xml:space="preserve" onload="init(evt)">
<style type="text/css"><![CDATA[
.edge:hover path { stroke: red; }
.edge:hover polygon { stroke: red; fill: red; }
]]></style>
<script type="text/javascript"><![CDATA[
var edges = document.getElementsByTagName('g');
if (edges && edges.length) {
  for (var i=0;i<edges.length;i++) {
    if (edges[i].id.substr(0,4)=='edge') {
      edges[i].setAttribute('class','edge');
    }
  }
}
]]></script>
        <defs>
                <circle id="rim" cx="0" cy="0" r="7"/>
                <circle id="rim2" cx="0" cy="0" r="3.5"/>
                <g id="zoomPlus">
                        <use xlink:href="#rim" fill="#404040">
                                <set attributeName="fill" to="#808080" begin="zoomplus.mouseover" end="zoomplus.mouseout"/>
                        </use>
                        <path d="M-4,0h8M0,-4v8" fill="none" stroke="white" stroke-width="1.5" pointer-events="none"/>
                </g>
                <g id="zoomMin">
                        <use xlink:href="#rim" fill="#404040">
                                <set attributeName="fill" to="#808080" begin="zoomminus.mouseover" end="zoomminus.mouseout"/>
                        </use>
                        <path d="M-4,0h8" fill="none" stroke="white" stroke-width="1.5" pointer-events="none"/>
                </g>
                <g id="dirArrow">
                        <path fill="none" stroke="white" stroke-width="1.5" d="M0,-3.0v7 M-2.5,-0.5L0,-3.0L2.5,-0.5"/>
                </g>
               <g id="resetDef">
                       <use xlink:href="#rim2" fill="#404040">
                               <set attributeName="fill" to="#808080" begin="reset.mouseover" end="reset.mouseout"/>
                       </use>
               </g>
        </defs>

<script type="text/javascript">
var viewWidth = 1468;
var viewHeight = 464;
var sectionId = 'dynsection-0';
</script>
<script xlink:href="../../svgpan.js"/>
<svg id="graph" class="graph">
<g id="viewport">
<title>/home/travis/build/AliceO2Group/AliceO2/Detectors/ITSMFT/ITS/tracking/include/ITStracking/PrimaryVertexContext.h</title>
<!-- Node1 -->
<g id="node1" class="node"><title>Node1</title>
<polygon fill="#bfbfbf" stroke="black" points="932.5,-392.5 932.5,-455.5 1073.5,-455.5 1073.5,-392.5 932.5,-392.5"/>
<text text-anchor="start" x="940.5" y="-443.5" font-family="Helvetica,sans-Serif" font-size="10.00">/home/travis/build</text>
<text text-anchor="start" x="940.5" y="-432.5" font-family="Helvetica,sans-Serif" font-size="10.00">/AliceO2Group/AliceO2</text>
<text text-anchor="start" x="940.5" y="-421.5" font-family="Helvetica,sans-Serif" font-size="10.00">/Detectors/ITSMFT/ITS</text>
<text text-anchor="start" x="940.5" y="-410.5" font-family="Helvetica,sans-Serif" font-size="10.00">/tracking/include/ITStracking</text>
<text text-anchor="middle" x="1003" y="-399.5" font-family="Helvetica,sans-Serif" font-size="10.00">/PrimaryVertexContext.h</text>
</g>
<!-- Node2 -->
<g id="node2" class="node"><title>Node2</title>
<polygon fill="none" stroke="#bfbfbf" points="58,-56.5 58,-75.5 114,-75.5 114,-56.5 58,-56.5"/>
<text text-anchor="middle" x="86" y="-63.5" font-family="Helvetica,sans-Serif" font-size="10.00">algorithm</text>
</g>
<!-- Node1&#45;&gt;Node2 -->
<g id="edge1" class="edge"><title>Node1&#45;&gt;Node2</title>
<path fill="none" stroke="midnightblue" d="M932.297,-422.138C748.014,-419.193 256.632,-406.678 103,-356 51.5936,-339.043 0,-345.131 0,-291 0,-291 0,-291 0,-177 0,-135.583 38.3068,-100.453 63.7882,-81.6658"/>
<polygon fill="midnightblue" stroke="midnightblue" points="66.0461,-84.3555 72.1826,-75.7187 61.9995,-78.6436 66.0461,-84.3555"/>
</g>
<!-- Node3 -->
<g id="node3" class="node"><title>Node3</title>
<polygon fill="none" stroke="#bfbfbf" points="829,-56.5 829,-75.5 867,-75.5 867,-56.5 829,-56.5"/>
<text text-anchor="middle" x="848" y="-63.5" font-family="Helvetica,sans-Serif" font-size="10.00">array</text>
</g>
<!-- Node1&#45;&gt;Node3 -->
<g id="edge2" class="edge"><title>Node1&#45;&gt;Node3</title>
<path fill="none" stroke="midnightblue" d="M988.252,-392.468C966.884,-347.891 926.433,-262.215 895,-188 879.68,-151.829 863.433,-108.819 854.624,-85.052"/>
<polygon fill="midnightblue" stroke="midnightblue" points="857.874,-83.7504 851.13,-75.5797 851.307,-86.173 857.874,-83.7504"/>
</g>
<!-- Node4 -->
<g id="node4" class="node"><title>Node4</title>
<polygon fill="none" stroke="#bfbfbf" points="1280.5,-336.5 1280.5,-355.5 1325.5,-355.5 1325.5,-336.5 1280.5,-336.5"/>
<text text-anchor="middle" x="1303" y="-343.5" font-family="Helvetica,sans-Serif" font-size="10.00">iosfwd</text>
</g>
<!-- Node1&#45;&gt;Node4 -->
<g id="edge3" class="edge"><title>Node1&#45;&gt;Node4</title>
<path fill="none" stroke="midnightblue" d="M1073.72,-405.085C1135.88,-389.337 1223.54,-367.13 1270.42,-355.254"/>
<polygon fill="midnightblue" stroke="midnightblue" points="1271.49,-358.593 1280.33,-352.744 1269.77,-351.807 1271.49,-358.593"/>
</g>
<!-- Node5 -->
<g id="node5" class="node"><title>Node5</title>
<polygon fill="none" stroke="#bfbfbf" points="1096,-112.5 1096,-131.5 1140,-131.5 1140,-112.5 1096,-112.5"/>
<text text-anchor="middle" x="1118" y="-119.5" font-family="Helvetica,sans-Serif" font-size="10.00">vector</text>
</g>
<!-- Node1&#45;&gt;Node5 -->
<g id="edge4" class="edge"><title>Node1&#45;&gt;Node5</title>
<path fill="none" stroke="midnightblue" d="M1038.68,-392.39C1083.59,-351.255 1158.43,-273.371 1188,-188 1190.91,-179.601 1192.26,-175.802 1188,-168 1179.71,-152.813 1163.85,-141.987 1149.33,-134.765"/>
<polygon fill="midnightblue" stroke="midnightblue" points="1150.62,-131.506 1140.07,-130.531 1147.71,-137.872 1150.62,-131.506"/>
</g>
<!-- Node6 -->
<g id="node6" class="node"><title>Node6</title>
<g id="a_node6"><a xlink:href="../../d3/d78/Detectors_2ITSMFT_2ITS_2tracking_2include_2ITStracking_2Cell_8h.html" target="_top" xlink:title="ITStracking/Cell.h">
<polygon fill="none" stroke="black" points="904.5,-168.5 904.5,-187.5 999.5,-187.5 999.5,-168.5 904.5,-168.5"/>
<text text-anchor="middle" x="952" y="-175.5" font-family="Helvetica,sans-Serif" font-size="10.00">ITStracking/Cell.h</text>
</a>
</g>
</g>
<!-- Node1&#45;&gt;Node6 -->
<g id="edge5" class="edge"><title>Node1&#45;&gt;Node6</title>
<path fill="none" stroke="midnightblue" d="M996.541,-392.097C985.787,-340.647 964.536,-238.976 955.843,-197.387"/>
<polygon fill="midnightblue" stroke="midnightblue" points="959.259,-196.62 953.787,-187.548 952.407,-198.052 959.259,-196.62"/>
</g>
<!-- Node7 -->
<g id="node7" class="node"><title>Node7</title>
<g id="a_node7"><a xlink:href="../../df/d3d/Definitions_8h.html" target="_top" xlink:title="ITStracking/Definitions.h">
<polygon fill="none" stroke="black" points="694.5,-112.5 694.5,-131.5 819.5,-131.5 819.5,-112.5 694.5,-112.5"/>
<text text-anchor="middle" x="757" y="-119.5" font-family="Helvetica,sans-Serif" font-size="10.00">ITStracking/Definitions.h</text>
</a>
</g>
</g>
<!-- Node1&#45;&gt;Node7 -->
<g id="edge24" class="edge"><title>Node1&#45;&gt;Node7</title>
<path fill="none" stroke="midnightblue" d="M936.048,-392.452C918.734,-382.484 901.037,-370.247 887,-356 853.153,-321.647 788.363,-189.033 765.357,-140.729"/>
<polygon fill="midnightblue" stroke="midnightblue" points="768.443,-139.067 760.997,-131.529 762.118,-142.065 768.443,-139.067"/>
</g>
<!-- Node11 -->
<g id="node11" class="node"><title>Node11</title>
<g id="a_node11"><a xlink:href="../../d3/d59/Configuration_8h.html" target="_top" xlink:title="ITStracking/Configuration.h">
<polygon fill="none" stroke="black" points="1204,-224.5 1204,-243.5 1340,-243.5 1340,-224.5 1204,-224.5"/>
<text text-anchor="middle" x="1272" y="-231.5" font-family="Helvetica,sans-Serif" font-size="10.00">ITStracking/Configuration.h</text>
</a>
</g>
</g>
<!-- Node1&#45;&gt;Node11 -->
<g id="edge14" class="edge"><title>Node1&#45;&gt;Node11</title>
<path fill="none" stroke="midnightblue" d="M1073.82,-409.385C1111.36,-399.436 1156.5,-382.856 1190,-356 1221.17,-331.011 1215.27,-312.855 1238,-280 1244.55,-270.538 1252.25,-260.282 1258.66,-251.954"/>
<polygon fill="midnightblue" stroke="midnightblue" points="1261.62,-253.845 1265,-243.803 1256.1,-249.546 1261.62,-253.845"/>
</g>
<!-- Node14 -->
<g id="node14" class="node"><title>Node14</title>
<g id="a_node14"><a xlink:href="../../d0/d86/Detectors_2ITSMFT_2ITS_2tracking_2include_2ITStracking_2Constants_8h.html" target="_top" xlink:title="ITStracking/Constants.h">
<polygon fill="none" stroke="black" points="1056.5,-168.5 1056.5,-187.5 1179.5,-187.5 1179.5,-168.5 1056.5,-168.5"/>
<text text-anchor="middle" x="1118" y="-175.5" font-family="Helvetica,sans-Serif" font-size="10.00">ITStracking/Constants.h</text>
</a>
</g>
</g>
<!-- Node1&#45;&gt;Node14 -->
<g id="edge23" class="edge"><title>Node1&#45;&gt;Node14</title>
<path fill="none" stroke="midnightblue" d="M1017.56,-392.097C1041.97,-340.318 1090.35,-237.674 1109.71,-196.596"/>
<polygon fill="midnightblue" stroke="midnightblue" points="1112.87,-198.086 1113.97,-187.548 1106.54,-195.101 1112.87,-198.086"/>
</g>
<!-- Node15 -->
<g id="node15" class="node"><title>Node15</title>
<g id="a_node15"><a xlink:href="../../d4/d5a/ITS_2tracking_2include_2ITStracking_2Road_8h.html" target="_top" xlink:title="ITStracking/Road.h">
<polygon fill="none" stroke="black" points="1358.5,-224.5 1358.5,-243.5 1459.5,-243.5 1459.5,-224.5 1358.5,-224.5"/>
<text text-anchor="middle" x="1409" y="-231.5" font-family="Helvetica,sans-Serif" font-size="10.00">ITStracking/Road.h</text>
</a>
</g>
</g>
<!-- Node1&#45;&gt;Node15 -->
<g id="edge25" class="edge"><title>Node1&#45;&gt;Node15</title>
<path fill="none" stroke="midnightblue" d="M1073.53,-405.335C1115.32,-393.714 1168.79,-376.813 1214,-356 1281.77,-324.801 1354.74,-274.499 1389.03,-249.737"/>
<polygon fill="midnightblue" stroke="midnightblue" points="1391.24,-252.457 1397.27,-243.742 1387.13,-246.797 1391.24,-252.457"/>
</g>
<!-- Node16 -->
<g id="node16" class="node"><title>Node16</title>
<g id="a_node16"><a xlink:href="../../da/dc0/Tracklet_8h.html" target="_top" xlink:title="ITStracking/Tracklet.h">
<polygon fill="none" stroke="black" points="112.5,-336.5 112.5,-355.5 225.5,-355.5 225.5,-336.5 112.5,-336.5"/>
<text text-anchor="middle" x="169" y="-343.5" font-family="Helvetica,sans-Serif" font-size="10.00">ITStracking/Tracklet.h</text>
</a>
</g>
</g>
<!-- Node1&#45;&gt;Node16 -->
<g id="edge29" class="edge"><title>Node1&#45;&gt;Node16</title>
<path fill="none" stroke="midnightblue" d="M932.253,-416.553C773.56,-402.092 390.99,-367.229 235.944,-353.1"/>
<polygon fill="midnightblue" stroke="midnightblue" points="235.898,-349.582 225.622,-352.16 235.263,-356.553 235.898,-349.582"/>
</g>
<!-- Node6&#45;&gt;Node3 -->
<g id="edge6" class="edge"><title>Node6&#45;&gt;Node3</title>
<path fill="none" stroke="midnightblue" d="M952.39,-168.45C952.554,-155.02 951.017,-128.784 938,-112 922.888,-92.5148 897.08,-80.8362 876.964,-74.2793"/>
<polygon fill="midnightblue" stroke="midnightblue" points="877.92,-70.9119 867.336,-71.3816 875.903,-77.6149 877.92,-70.9119"/>
</g>
<!-- Node6&#45;&gt;Node5 -->
<g id="edge7" class="edge"><title>Node6&#45;&gt;Node5</title>
<path fill="none" stroke="midnightblue" d="M978.303,-168.444C1007.59,-158.917 1054.91,-143.523 1086.24,-133.332"/>
<polygon fill="midnightblue" stroke="midnightblue" points="1087.38,-136.642 1095.8,-130.22 1085.21,-129.986 1087.38,-136.642"/>
</g>
<!-- Node6&#45;&gt;Node7 -->
<g id="edge8" class="edge"><title>Node6&#45;&gt;Node7</title>
<path fill="none" stroke="midnightblue" d="M921.102,-168.444C887.726,-159.201 834.406,-144.436 797.651,-134.257"/>
<polygon fill="midnightblue" stroke="midnightblue" points="798.325,-130.812 787.754,-131.516 796.457,-137.558 798.325,-130.812"/>
</g>
<!-- Node8 -->
<g id="node8" class="node"><title>Node8</title>
<g id="a_node8"><a xlink:href="../../df/d21/GPUCommonDef_8h.html" target="_top" xlink:title="GPUCommonDef.h">
<polygon fill="none" stroke="black" points="501,-56.5 501,-75.5 603,-75.5 603,-56.5 501,-56.5"/>
<text text-anchor="middle" x="552" y="-63.5" font-family="Helvetica,sans-Serif" font-size="10.00">GPUCommonDef.h</text>
</a>
</g>
</g>
<!-- Node6&#45;&gt;Node8 -->
<g id="edge13" class="edge"><title>Node6&#45;&gt;Node8</title>
<path fill="none" stroke="midnightblue" d="M938.875,-168.289C916.91,-154.142 870.883,-126.317 828,-112 756.468,-88.119 670.129,-76.6509 613.287,-71.3244"/>
<polygon fill="midnightblue" stroke="midnightblue" points="613.301,-67.8116 603.027,-70.3997 612.673,-74.7833 613.301,-67.8116"/>
</g>
<!-- Node7&#45;&gt;Node3 -->
<g id="edge9" class="edge"><title>Node7&#45;&gt;Node3</title>
<path fill="none" stroke="midnightblue" d="M771.621,-112.324C785.949,-103.822 808.013,-90.7288 824.749,-80.7975"/>
<polygon fill="midnightblue" stroke="midnightblue" points="826.602,-83.7677 833.416,-75.6545 823.03,-77.7478 826.602,-83.7677"/>
</g>
<!-- Node7&#45;&gt;Node8 -->
<g id="edge10" class="edge"><title>Node7&#45;&gt;Node8</title>
<path fill="none" stroke="midnightblue" d="M724.517,-112.444C689.28,-103.162 632.896,-88.3093 594.241,-78.127"/>
<polygon fill="midnightblue" stroke="midnightblue" points="594.893,-74.6792 584.331,-75.5164 593.109,-81.4483 594.893,-74.6792"/>
</g>
<!-- Node9 -->
<g id="node9" class="node"><title>Node9</title>
<g id="a_node9"><a xlink:href="../../d5/d93/GPUCommonDefSettings_8h.html" target="_top" xlink:title="GPUCommonDefSettings.h">
<polygon fill="none" stroke="black" points="409,-0.5 409,-19.5 547,-19.5 547,-0.5 409,-0.5"/>
<text text-anchor="middle" x="478" y="-7.5" font-family="Helvetica,sans-Serif" font-size="10.00">GPUCommonDefSettings.h</text>
</a>
</g>
</g>
<!-- Node8&#45;&gt;Node9 -->
<g id="edge11" class="edge"><title>Node8&#45;&gt;Node9</title>
<path fill="none" stroke="midnightblue" d="M540.111,-56.324C528.85,-48.1066 511.713,-35.6017 498.291,-25.8069"/>
<polygon fill="midnightblue" stroke="midnightblue" points="500.247,-22.9014 490.106,-19.8339 496.12,-28.5559 500.247,-22.9014"/>
</g>
<!-- Node10 -->
<g id="node10" class="node"><title>Node10</title>
<g id="a_node10"><a xlink:href="../../da/d5a/GPUCommonDefAPI_8h.html" target="_top" xlink:title="GPUCommonDefAPI.h">
<polygon fill="none" stroke="black" points="565.5,-0.5 565.5,-19.5 684.5,-19.5 684.5,-0.5 565.5,-0.5"/>
<text text-anchor="middle" x="625" y="-7.5" font-family="Helvetica,sans-Serif" font-size="10.00">GPUCommonDefAPI.h</text>
</a>
</g>
</g>
<!-- Node8&#45;&gt;Node10 -->
<g id="edge12" class="edge"><title>Node8&#45;&gt;Node10</title>
<path fill="none" stroke="midnightblue" d="M563.729,-56.324C574.837,-48.1066 591.742,-35.6017 604.983,-25.8069"/>
<polygon fill="midnightblue" stroke="midnightblue" points="607.1,-28.5948 613.058,-19.8339 602.937,-22.9671 607.1,-28.5948"/>
</g>
<!-- Node11&#45;&gt;Node3 -->
<g id="edge15" class="edge"><title>Node11&#45;&gt;Node3</title>
<path fill="none" stroke="midnightblue" d="M1293.48,-224.36C1308.39,-217.09 1327.11,-205.117 1336,-188 1351.57,-158.024 1358.76,-136.957 1336,-112 1304.99,-77.9963 977.804,-69.3263 877.239,-67.4567"/>
<polygon fill="midnightblue" stroke="midnightblue" points="877.234,-63.9562 867.174,-67.2786 877.11,-70.9551 877.234,-63.9562"/>
</g>
<!-- Node11&#45;&gt;Node5 -->
<g id="edge17" class="edge"><title>Node11&#45;&gt;Node5</title>
<path fill="none" stroke="midnightblue" d="M1267.26,-224.287C1259.46,-210.634 1242.67,-184.097 1222,-168 1200.43,-151.198 1171.62,-139.376 1149.8,-132.079"/>
<polygon fill="midnightblue" stroke="midnightblue" points="1150.6,-128.661 1140.01,-128.951 1148.47,-135.329 1150.6,-128.661"/>
</g>
<!-- Node12 -->
<g id="node12" class="node"><title>Node12</title>
<polygon fill="none" stroke="#bfbfbf" points="1203.5,-112.5 1203.5,-131.5 1248.5,-131.5 1248.5,-112.5 1203.5,-112.5"/>
<text text-anchor="middle" x="1226" y="-119.5" font-family="Helvetica,sans-Serif" font-size="10.00">climits</text>
</g>
<!-- Node11&#45;&gt;Node12 -->
<g id="edge16" class="edge"><title>Node11&#45;&gt;Node12</title>
<path fill="none" stroke="midnightblue" d="M1271.66,-224.213C1270.88,-211.359 1268.32,-186.904 1260,-168 1255.37,-157.491 1247.85,-147.168 1241.06,-139.065"/>
<polygon fill="midnightblue" stroke="midnightblue" points="1243.63,-136.694 1234.39,-131.51 1238.38,-141.324 1243.63,-136.694"/>
</g>
<!-- Node13 -->
<g id="node13" class="node"><title>Node13</title>
<polygon fill="none" stroke="#bfbfbf" points="177,-56.5 177,-75.5 221,-75.5 221,-56.5 177,-56.5"/>
<text text-anchor="middle" x="199" y="-63.5" font-family="Helvetica,sans-Serif" font-size="10.00">cmath</text>
</g>
<!-- Node11&#45;&gt;Node13 -->
<g id="edge18" class="edge"><title>Node11&#45;&gt;Node13</title>
<path fill="none" stroke="midnightblue" d="M1274.46,-224.225C1280.39,-200.958 1292.48,-137.718 1257,-112 1246.35,-104.279 408.476,-74.3742 231.57,-68.142"/>
<polygon fill="midnightblue" stroke="midnightblue" points="231.458,-64.636 221.341,-67.7821 231.212,-71.6316 231.458,-64.636"/>
</g>
<!-- Node11&#45;&gt;Node14 -->
<g id="edge19" class="edge"><title>Node11&#45;&gt;Node14</title>
<path fill="none" stroke="midnightblue" d="M1247.6,-224.444C1221.8,-215.399 1180.92,-201.064 1151.98,-190.916"/>
<polygon fill="midnightblue" stroke="midnightblue" points="1152.88,-187.523 1142.29,-187.516 1150.57,-194.128 1152.88,-187.523"/>
</g>
<!-- Node14&#45;&gt;Node5 -->
<g id="edge21" class="edge"><title>Node14&#45;&gt;Node5</title>
<path fill="none" stroke="midnightblue" d="M1118,-168.083C1118,-161.006 1118,-150.861 1118,-141.986"/>
<polygon fill="midnightblue" stroke="midnightblue" points="1121.5,-141.751 1118,-131.751 1114.5,-141.751 1121.5,-141.751"/>
</g>
<!-- Node14&#45;&gt;Node7 -->
<g id="edge22" class="edge"><title>Node14&#45;&gt;Node7</title>
<path fill="none" stroke="midnightblue" d="M1060.8,-168.444C996.503,-158.826 892.225,-143.228 824.125,-133.041"/>
<polygon fill="midnightblue" stroke="midnightblue" points="824.342,-129.534 813.934,-131.516 823.306,-136.457 824.342,-129.534"/>
</g>
<!-- Node14&#45;&gt;Node12 -->
<g id="edge20" class="edge"><title>Node14&#45;&gt;Node12</title>
<path fill="none" stroke="midnightblue" d="M1135.35,-168.324C1152.67,-159.664 1179.52,-146.242 1199.5,-136.249"/>
<polygon fill="midnightblue" stroke="midnightblue" points="1201.31,-139.257 1208.69,-131.655 1198.18,-132.996 1201.31,-139.257"/>
</g>
<!-- Node15&#45;&gt;Node3 -->
<g id="edge26" class="edge"><title>Node15&#45;&gt;Node3</title>
<path fill="none" stroke="midnightblue" d="M1411.67,-224.192C1415.09,-211.31 1419.7,-186.821 1412,-168 1398.8,-135.71 1388.54,-126.9 1357,-112 1270.98,-71.366 971.804,-67.2326 877.031,-66.9606"/>
<polygon fill="midnightblue" stroke="midnightblue" points="877.014,-63.4607 867.008,-66.9445 877.002,-70.4607 877.014,-63.4607"/>
</g>
<!-- Node15&#45;&gt;Node8 -->
<g id="edge28" class="edge"><title>Node15&#45;&gt;Node8</title>
<path fill="none" stroke="midnightblue" d="M1406.78,-224.28C1400.38,-201.152 1379.49,-138.225 1336,-112 1305.2,-93.4286 792.437,-74.8967 613.231,-68.9589"/>
<polygon fill="midnightblue" stroke="midnightblue" points="613.288,-65.4589 603.178,-68.6274 613.057,-72.4551 613.288,-65.4589"/>
</g>
<!-- Node15&#45;&gt;Node14 -->
<g id="edge27" class="edge"><title>Node15&#45;&gt;Node14</title>
<path fill="none" stroke="midnightblue" d="M1362.89,-224.444C1311.59,-214.925 1228.73,-199.547 1173.81,-189.356"/>
<polygon fill="midnightblue" stroke="midnightblue" points="1174.36,-185.9 1163.89,-187.516 1173.09,-192.782 1174.36,-185.9"/>
</g>
<!-- Node16&#45;&gt;Node8 -->
<g id="edge60" class="edge"><title>Node16&#45;&gt;Node8</title>
<path fill="none" stroke="midnightblue" d="M153.643,-336.31C127.228,-320.093 76,-282.515 76,-235 76,-235 76,-235 76,-177 76,-146.902 71.831,-131.211 95,-112 124.824,-87.2708 372.84,-74.151 490.503,-69.268"/>
<polygon fill="midnightblue" stroke="midnightblue" points="490.942,-72.7532 500.791,-68.8483 490.657,-65.759 490.942,-72.7532"/>
</g>
<!-- Node17 -->
<g id="node17" class="node"><title>Node17</title>
<g id="a_node17"><a xlink:href="../../da/d7f/Detectors_2ITSMFT_2ITS_2tracking_2include_2ITStracking_2Cluster_8h.html" target="_top" xlink:title="ITStracking/Cluster.h">
<polygon fill="none" stroke="black" points="568,-280.5 568,-299.5 678,-299.5 678,-280.5 568,-280.5"/>
<text text-anchor="middle" x="623" y="-287.5" font-family="Helvetica,sans-Serif" font-size="10.00">ITStracking/Cluster.h</text>
</a>
</g>
</g>
<!-- Node16&#45;&gt;Node17 -->
<g id="edge30" class="edge"><title>Node16&#45;&gt;Node17</title>
<path fill="none" stroke="midnightblue" d="M225.581,-338.27C310.038,-328.225 468.664,-309.357 557.846,-298.75"/>
<polygon fill="midnightblue" stroke="midnightblue" points="558.323,-302.218 567.839,-297.561 557.496,-295.267 558.323,-302.218"/>
</g>
<!-- Node20 -->
<g id="node20" class="node"><title>Node20</title>
<polygon fill="none" stroke="#bfbfbf" points="142,-168.5 142,-187.5 196,-187.5 196,-168.5 142,-168.5"/>
<text text-anchor="middle" x="169" y="-175.5" font-family="Helvetica,sans-Serif" font-size="10.00">iostream</text>
</g>
<!-- Node16&#45;&gt;Node20 -->
<g id="edge58" class="edge"><title>Node16&#45;&gt;Node20</title>
<path fill="none" stroke="midnightblue" d="M169,-336.075C169,-309.945 169,-233.211 169,-197.577"/>
<polygon fill="midnightblue" stroke="midnightblue" points="172.5,-197.568 169,-187.568 165.5,-197.568 172.5,-197.568"/>
</g>
<!-- Node22 -->
<g id="node22" class="node"><title>Node22</title>
<g id="a_node22"><a xlink:href="../../d6/da2/GPUCommonMath_8h.html" target="_top" xlink:title="GPUCommonMath.h">
<polygon fill="none" stroke="black" points="104,-112.5 104,-131.5 212,-131.5 212,-112.5 104,-112.5"/>
<text text-anchor="middle" x="158" y="-119.5" font-family="Helvetica,sans-Serif" font-size="10.00">GPUCommonMath.h</text>
</a>
</g>
</g>
<!-- Node16&#45;&gt;Node22 -->
<g id="edge59" class="edge"><title>Node16&#45;&gt;Node22</title>
<path fill="none" stroke="midnightblue" d="M164.515,-336.453C151.621,-310.76 116.403,-232.051 133,-168 135.546,-158.175 140.753,-148.212 145.759,-140.166"/>
<polygon fill="midnightblue" stroke="midnightblue" points="148.749,-141.99 151.371,-131.725 142.92,-138.114 148.749,-141.99"/>
</g>
<!-- Node17&#45;&gt;Node3 -->
<g id="edge31" class="edge"><title>Node17&#45;&gt;Node3</title>
<path fill="none" stroke="midnightblue" d="M678.097,-281.85C725.232,-274.619 788.201,-261.944 806,-244 848.948,-200.701 851.001,-122.015 849.418,-85.9629"/>
<polygon fill="midnightblue" stroke="midnightblue" points="852.904,-85.6318 848.823,-75.8546 845.916,-86.043 852.904,-85.6318"/>
</g>
<!-- Node17&#45;&gt;Node7 -->
<g id="edge32" class="edge"><title>Node17&#45;&gt;Node7</title>
<path fill="none" stroke="midnightblue" d="M622.13,-280.225C620.474,-258.534 619.219,-201.719 647,-168 660.413,-151.72 680.654,-141.267 700.132,-134.582"/>
<polygon fill="midnightblue" stroke="midnightblue" points="701.414,-137.848 709.902,-131.507 699.313,-131.171 701.414,-137.848"/>
</g>
<!-- Node18 -->
<g id="node18" class="node"><title>Node18</title>
<g id="a_node18"><a xlink:href="../../dc/d3e/MathUtils_8h.html" target="_top" xlink:title="ITStracking/MathUtils.h">
<polygon fill="none" stroke="black" points="381,-224.5 381,-243.5 501,-243.5 501,-224.5 381,-224.5"/>
<text text-anchor="middle" x="441" y="-231.5" font-family="Helvetica,sans-Serif" font-size="10.00">ITStracking/MathUtils.h</text>
</a>
</g>
</g>
<!-- Node17&#45;&gt;Node18 -->
<g id="edge33" class="edge"><title>Node17&#45;&gt;Node18</title>
<path fill="none" stroke="midnightblue" d="M594.162,-280.444C563.144,-271.241 513.671,-256.562 479.382,-246.388"/>
<polygon fill="midnightblue" stroke="midnightblue" points="480.286,-243.006 469.704,-243.516 478.295,-249.716 480.286,-243.006"/>
</g>
<!-- Node24 -->
<g id="node24" class="node"><title>Node24</title>
<g id="a_node24"><a xlink:href="../../dc/ddf/ITS_2tracking_2include_2ITStracking_2IndexTableUtils_8h.html" target="_top" xlink:title="ITStracking/IndexTableUtils.h">
<polygon fill="none" stroke="black" points="651,-224.5 651,-243.5 797,-243.5 797,-224.5 651,-224.5"/>
<text text-anchor="middle" x="724" y="-231.5" font-family="Helvetica,sans-Serif" font-size="10.00">ITStracking/IndexTableUtils.h</text>
</a>
</g>
</g>
<!-- Node17&#45;&gt;Node24 -->
<g id="edge50" class="edge"><title>Node17&#45;&gt;Node24</title>
<path fill="none" stroke="midnightblue" d="M639.227,-280.324C655.351,-271.703 680.3,-258.364 698.964,-248.386"/>
<polygon fill="midnightblue" stroke="midnightblue" points="700.644,-251.456 707.813,-243.655 697.344,-245.283 700.644,-251.456"/>
</g>
<!-- Node18&#45;&gt;Node3 -->
<g id="edge34" class="edge"><title>Node18&#45;&gt;Node3</title>
<path fill="none" stroke="midnightblue" d="M455.271,-224.391C491.504,-202.837 590.463,-145.862 679,-112 726.597,-93.7963 784.424,-80.1195 818.609,-72.8583"/>
<polygon fill="midnightblue" stroke="midnightblue" points="819.758,-76.1942 828.834,-70.7286 818.331,-69.3412 819.758,-76.1942"/>
</g>
<!-- Node18&#45;&gt;Node8 -->
<g id="edge49" class="edge"><title>Node18&#45;&gt;Node8</title>
<path fill="none" stroke="midnightblue" d="M454.412,-224.342C466.298,-216.132 483.505,-202.868 495,-188 520.116,-155.515 537.731,-110.174 546.224,-85.2382"/>
<polygon fill="midnightblue" stroke="midnightblue" points="549.589,-86.2091 549.39,-75.6161 542.94,-84.0213 549.589,-86.2091"/>
</g>
<!-- Node18&#45;&gt;Node13 -->
<g id="edge35" class="edge"><title>Node18&#45;&gt;Node13</title>
<path fill="none" stroke="midnightblue" d="M380.84,-224.953C339.612,-218.175 284.235,-206.547 238,-188 222.083,-181.615 220.585,-175.158 205,-168 158.255,-146.529 125.192,-173.648 95,-132 73.3537,-102.14 128.613,-82.9296 166.616,-73.6279"/>
<polygon fill="midnightblue" stroke="midnightblue" points="167.848,-76.9351 176.799,-71.2665 166.267,-70.1161 167.848,-76.9351"/>
</g>
<!-- Node18&#45;&gt;Node14 -->
<g id="edge47" class="edge"><title>Node18&#45;&gt;Node14</title>
<path fill="none" stroke="midnightblue" d="M501.008,-228.286C604.491,-220.145 823.202,-202.893 1008,-188 1020.36,-187.004 1033.5,-185.937 1046.23,-184.897"/>
<polygon fill="midnightblue" stroke="midnightblue" points="1046.65,-188.375 1056.33,-184.072 1046.08,-181.398 1046.65,-188.375"/>
</g>
<!-- Node19 -->
<g id="node19" class="node"><title>Node19</title>
<polygon fill="none" stroke="#bfbfbf" points="290.5,-168.5 290.5,-187.5 339.5,-187.5 339.5,-168.5 290.5,-168.5"/>
<text text-anchor="middle" x="315" y="-175.5" font-family="Helvetica,sans-Serif" font-size="10.00">cassert</text>
</g>
<!-- Node18&#45;&gt;Node19 -->
<g id="edge36" class="edge"><title>Node18&#45;&gt;Node19</title>
<path fill="none" stroke="midnightblue" d="M421.035,-224.444C400.391,-215.596 367.937,-201.687 344.368,-191.586"/>
<polygon fill="midnightblue" stroke="midnightblue" points="345.442,-188.239 334.872,-187.516 342.684,-194.673 345.442,-188.239"/>
</g>
<!-- Node18&#45;&gt;Node20 -->
<g id="edge37" class="edge"><title>Node18&#45;&gt;Node20</title>
<path fill="none" stroke="midnightblue" d="M395.353,-224.438C348.709,-215.612 274.214,-201.301 210,-188 208.756,-187.742 207.491,-187.478 206.213,-187.209"/>
<polygon fill="midnightblue" stroke="midnightblue" points="206.839,-183.764 196.328,-185.093 205.374,-190.609 206.839,-183.764"/>
</g>
<!-- Node21 -->
<g id="node21" class="node"><title>Node21</title>
<g id="a_node21"><a xlink:href="../../d9/d52/Common_2MathUtils_2include_2MathUtils_2Utils_8h.html" target="_top" xlink:title="MathUtils/Utils.h">
<polygon fill="none" stroke="black" points="396,-168.5 396,-187.5 486,-187.5 486,-168.5 396,-168.5"/>
<text text-anchor="middle" x="441" y="-175.5" font-family="Helvetica,sans-Serif" font-size="10.00">MathUtils/Utils.h</text>
</a>
</g>
</g>
<!-- Node18&#45;&gt;Node21 -->
<g id="edge38" class="edge"><title>Node18&#45;&gt;Node21</title>
<path fill="none" stroke="midnightblue" d="M441,-224.083C441,-217.006 441,-206.861 441,-197.986"/>
<polygon fill="midnightblue" stroke="midnightblue" points="444.5,-197.751 441,-187.751 437.5,-197.751 444.5,-197.751"/>
</g>
<!-- Node18&#45;&gt;Node22 -->
<g id="edge48" class="edge"><title>Node18&#45;&gt;Node22</title>
<path fill="none" stroke="midnightblue" d="M401.766,-224.427C368.896,-216.665 321.059,-204.008 281,-188 261.572,-180.236 212.106,-153.211 182.157,-136.551"/>
<polygon fill="midnightblue" stroke="midnightblue" points="183.62,-133.359 173.182,-131.543 180.209,-139.472 183.62,-133.359"/>
</g>
<!-- Node21&#45;&gt;Node3 -->
<g id="edge39" class="edge"><title>Node21&#45;&gt;Node3</title>
<path fill="none" stroke="midnightblue" d="M460.356,-168.489C491.964,-154.876 556.869,-128.101 614,-112 686.467,-91.5773 774.162,-77.4492 818.808,-70.9875"/>
<polygon fill="midnightblue" stroke="midnightblue" points="819.534,-74.4196 828.941,-69.5463 818.548,-67.4894 819.534,-74.4196"/>
</g>
<!-- Node21&#45;&gt;Node8 -->
<g id="edge41" class="edge"><title>Node21&#45;&gt;Node8</title>
<path fill="none" stroke="midnightblue" d="M448.323,-168.283C459.178,-155.515 480.374,-131.167 500,-112 510.677,-101.573 523.325,-90.6 533.473,-82.0999"/>
<polygon fill="midnightblue" stroke="midnightblue" points="535.843,-84.6819 541.312,-75.6078 531.378,-79.2907 535.843,-84.6819"/>
</g>
<!-- Node21&#45;&gt;Node13 -->
<g id="edge40" class="edge"><title>Node21&#45;&gt;Node13</title>
<path fill="none" stroke="midnightblue" d="M395.858,-168.924C349.791,-160.141 281.906,-145.541 259,-132 238.637,-119.962 221.056,-98.8788 210.282,-83.9929"/>
<polygon fill="midnightblue" stroke="midnightblue" points="213.072,-81.8738 204.489,-75.6615 207.325,-85.8699 213.072,-81.8738"/>
</g>
<!-- Node21&#45;&gt;Node22 -->
<g id="edge42" class="edge"><title>Node21&#45;&gt;Node22</title>
<path fill="none" stroke="midnightblue" d="M396.158,-168.444C346.375,-158.944 266.017,-143.611 212.608,-133.42"/>
<polygon fill="midnightblue" stroke="midnightblue" points="213.111,-129.953 202.632,-131.516 211.799,-136.829 213.111,-129.953"/>
</g>
<!-- Node23 -->
<g id="node23" class="node"><title>Node23</title>
<g id="a_node23"><a xlink:href="../../d6/d84/MathConstants_8h.html" target="_top" xlink:title="useful math constants ">
<polygon fill="none" stroke="black" points="268.5,-112.5 268.5,-131.5 447.5,-131.5 447.5,-112.5 268.5,-112.5"/>
<text text-anchor="middle" x="358" y="-119.5" font-family="Helvetica,sans-Serif" font-size="10.00">CommonConstants/MathConstants.h</text>
</a>
</g>
</g>
<!-- Node21&#45;&gt;Node23 -->
<g id="edge46" class="edge"><title>Node21&#45;&gt;Node23</title>
<path fill="none" stroke="midnightblue" d="M427.665,-168.324C414.838,-159.979 395.215,-147.212 380.06,-137.352"/>
<polygon fill="midnightblue" stroke="midnightblue" points="381.593,-134.174 371.302,-131.655 377.776,-140.042 381.593,-134.174"/>
</g>
<!-- Node22&#45;&gt;Node2 -->
<g id="edge45" class="edge"><title>Node22&#45;&gt;Node2</title>
<path fill="none" stroke="midnightblue" d="M146.432,-112.324C135.58,-104.185 119.119,-91.8395 106.117,-82.0874"/>
<polygon fill="midnightblue" stroke="midnightblue" points="107.879,-79.0339 97.7785,-75.8339 103.679,-84.6339 107.879,-79.0339"/>
</g>
<!-- Node22&#45;&gt;Node8 -->
<g id="edge43" class="edge"><title>Node22&#45;&gt;Node8</title>
<path fill="none" stroke="midnightblue" d="M212.37,-113.548C285.405,-103.538 414.811,-85.8026 491.059,-75.3524"/>
<polygon fill="midnightblue" stroke="midnightblue" points="491.565,-78.8158 500.997,-73.9902 490.615,-71.8806 491.565,-78.8158"/>
</g>
<!-- Node22&#45;&gt;Node13 -->
<g id="edge44" class="edge"><title>Node22&#45;&gt;Node13</title>
<path fill="none" stroke="midnightblue" d="M164.77,-112.083C170.562,-104.455 179.058,-93.2645 186.138,-83.9408"/>
<polygon fill="midnightblue" stroke="midnightblue" points="189.096,-85.8321 192.356,-75.7511 183.521,-81.5991 189.096,-85.8321"/>
</g>
<!-- Node24&#45;&gt;Node3 -->
<g id="edge51" class="edge"><title>Node24&#45;&gt;Node3</title>
<path fill="none" stroke="midnightblue" d="M722.128,-224.378C719.237,-211.729 713.158,-187.527 705,-168 697.944,-151.111 689.591,-149.718 685,-132 682.77,-123.395 679.615,-119.072 685,-112 701.148,-90.7898 776.417,-77.0262 818.798,-70.8181"/>
<polygon fill="midnightblue" stroke="midnightblue" points="819.397,-74.2684 828.808,-69.4027 818.417,-67.3373 819.397,-74.2684"/>
</g>
<!-- Node24&#45;&gt;Node5 -->
<g id="edge53" class="edge"><title>Node24&#45;&gt;Node5</title>
<path fill="none" stroke="midnightblue" d="M797.062,-228.987C855.558,-223.997 938.951,-212.847 1008,-188 1026.02,-181.516 1069.76,-154.215 1096.34,-137.124"/>
<polygon fill="midnightblue" stroke="midnightblue" points="1098.45,-139.924 1104.95,-131.555 1094.65,-134.045 1098.45,-139.924"/>
</g>
<!-- Node24&#45;&gt;Node7 -->
<g id="edge55" class="edge"><title>Node24&#45;&gt;Node7</title>
<path fill="none" stroke="midnightblue" d="M726.728,-224.387C729.582,-215.339 734.172,-200.69 738,-188 742.722,-172.347 747.921,-154.52 751.684,-141.499"/>
<polygon fill="midnightblue" stroke="midnightblue" points="755.06,-142.424 754.467,-131.846 748.334,-140.485 755.06,-142.424"/>
</g>
<!-- Node24&#45;&gt;Node8 -->
<g id="edge57" class="edge"><title>Node24&#45;&gt;Node8</title>
<path fill="none" stroke="midnightblue" d="M704.984,-224.412C688.559,-216.43 664.74,-203.466 647,-188 610.745,-156.391 578.485,-109.373 562.541,-84.2687"/>
<polygon fill="midnightblue" stroke="midnightblue" points="565.345,-82.1503 557.083,-75.5173 559.405,-85.8545 565.345,-82.1503"/>
</g>
<!-- Node24&#45;&gt;Node14 -->
<g id="edge54" class="edge"><title>Node24&#45;&gt;Node14</title>
<path fill="none" stroke="midnightblue" d="M786.43,-224.444C856.996,-214.772 971.686,-199.053 1045.98,-188.871"/>
<polygon fill="midnightblue" stroke="midnightblue" points="1046.75,-192.297 1056.19,-187.472 1045.8,-185.362 1046.75,-192.297"/>
</g>
<!-- Node24&#45;&gt;Node22 -->
<g id="edge56" class="edge"><title>Node24&#45;&gt;Node22</title>
<path fill="none" stroke="midnightblue" d="M650.8,-230.394C581.475,-226.264 475.16,-215.59 387,-188 368.409,-182.182 366.277,-174.738 348,-168 305.81,-152.446 256.331,-140.929 218.443,-133.442"/>
<polygon fill="midnightblue" stroke="midnightblue" points="219.06,-129.996 208.577,-131.531 217.729,-136.868 219.06,-129.996"/>
</g>
<!-- Node25 -->
<g id="node25" class="node"><title>Node25</title>
<polygon fill="none" stroke="#bfbfbf" points="656,-168.5 656,-187.5 696,-187.5 696,-168.5 656,-168.5"/>
<text text-anchor="middle" x="676" y="-175.5" font-family="Helvetica,sans-Serif" font-size="10.00">utility</text>
</g>
<!-- Node24&#45;&gt;Node25 -->
<g id="edge52" class="edge"><title>Node24&#45;&gt;Node25</title>
<path fill="none" stroke="midnightblue" d="M716.074,-224.083C709.154,-216.298 698.935,-204.801 690.548,-195.367"/>
<polygon fill="midnightblue" stroke="midnightblue" points="693.038,-192.9 683.779,-187.751 687.806,-197.55 693.038,-192.9"/>
</g>
</g>
</svg>
        <g id="navigator" transform="translate(0 0)" fill="#404254">
                <rect fill="#f2f5e9" fill-opacity="0.5" stroke="#606060" stroke-width=".5" x="0" y="0" width="60" height="60"/>
                <use id="zoomplus" xlink:href="#zoomPlus" x="17" y="9" onmousedown="handleZoom(evt,'in')"/>
                <use id="zoomminus" xlink:href="#zoomMin" x="42" y="9" onmousedown="handleZoom(evt,'out')"/>
                <use id="reset" xlink:href="#resetDef" x="30" y="36" onmousedown="handleReset()"/>
                <g id="arrowUp" xlink:href="#dirArrow" transform="translate(30 24)" onmousedown="handlePan(0,-1)">
                  <use xlink:href="#rim" fill="#404040">
                        <set attributeName="fill" to="#808080" begin="arrowUp.mouseover" end="arrowUp.mouseout"/>
                  </use>
                  <path fill="none" stroke="white" stroke-width="1.5" d="M0,-3.0v7 M-2.5,-0.5L0,-3.0L2.5,-0.5"/>
                </g>
                <g id="arrowRight" xlink:href="#dirArrow" transform="rotate(90) translate(36 -43)" onmousedown="handlePan(1,0)">
                  <use xlink:href="#rim" fill="#404040">
                        <set attributeName="fill" to="#808080" begin="arrowRight.mouseover" end="arrowRight.mouseout"/>
                  </use>
                  <path fill="none" stroke="white" stroke-width="1.5" d="M0,-3.0v7 M-2.5,-0.5L0,-3.0L2.5,-0.5"/>
                </g>
                <g id="arrowDown" xlink:href="#dirArrow" transform="rotate(180) translate(-30 -48)" onmousedown="handlePan(0,1)">
                  <use xlink:href="#rim" fill="#404040">
                        <set attributeName="fill" to="#808080" begin="arrowDown.mouseover" end="arrowDown.mouseout"/>
                  </use>
                  <path fill="none" stroke="white" stroke-width="1.5" d="M0,-3.0v7 M-2.5,-0.5L0,-3.0L2.5,-0.5"/>
                </g>
                <g id="arrowLeft" xlink:href="#dirArrow" transform="rotate(270) translate(-36 17)" onmousedown="handlePan(-1,0)">
                  <use xlink:href="#rim" fill="#404040">
                        <set attributeName="fill" to="#808080" begin="arrowLeft.mouseover" end="arrowLeft.mouseout"/>
                  </use>
                  <path fill="none" stroke="white" stroke-width="1.5" d="M0,-3.0v7 M-2.5,-0.5L0,-3.0L2.5,-0.5"/>
                </g>
        </g>
        <svg viewBox="0 0 15 15" width="100%" height="30px" preserveAspectRatio="xMaxYMin meet">
         <g id="arrow_out" transform="scale(0.3 0.3)">
          <a xlink:href="PrimaryVertexContext_8h__incl_org.svg" target="_base">
           <rect id="button" ry="5" rx="5" y="6" x="6" height="38" width="38"
                fill="#f2f5e9" fill-opacity="0.5" stroke="#606060" stroke-width="1.0"/>
           <path id="arrow"
             d="M 11.500037,31.436501 C 11.940474,20.09759 22.043105,11.32322 32.158766,21.979434 L 37.068811,17.246167 C 37.068811,17.246167 37.088388,32 37.088388,32 L 22.160133,31.978069 C 22.160133,31.978069 26.997745,27.140456 26.997745,27.140456 C 18.528582,18.264221 13.291696,25.230495 11.500037,31.436501 z"
             style="fill:#404040;"/>
          </a>
         </g>
        </svg>
</svg>
