<?xml version="1.0" encoding="UTF-8" standalone="no"?>
<!DOCTYPE svg PUBLIC "-//W3C//DTD SVG 1.1//EN"
 "http://www.w3.org/Graphics/SVG/1.1/DTD/svg11.dtd">
<!-- Generated by graphviz version 2.38.0 (20140413.2041)
 -->
<!-- Title: /home/travis/build/AliceO2Group/AliceO2/GPU/GPUTracking/gpucf/src/gpucf/algorithms/cpu.h Pages: 1 -->
<!--zoomable 453 -->
<svg id="main" version="1.1" xmlns="http://www.w3.org/2000/svg" xmlns:xlink="http://www.w3.org/1999/xlink" xml:space="preserve" onload="init(evt)">
<style type="text/css"><![CDATA[
.edge:hover path { stroke: red; }
.edge:hover polygon { stroke: red; fill: red; }
]]></style>
<script type="text/javascript"><![CDATA[
var edges = document.getElementsByTagName('g');
if (edges && edges.length) {
  for (var i=0;i<edges.length;i++) {
    if (edges[i].id.substr(0,4)=='edge') {
      edges[i].setAttribute('class','edge');
    }
  }
}
]]></script>
        <defs>
                <circle id="rim" cx="0" cy="0" r="7"/>
                <circle id="rim2" cx="0" cy="0" r="3.5"/>
                <g id="zoomPlus">
                        <use xlink:href="#rim" fill="#404040">
                                <set attributeName="fill" to="#808080" begin="zoomplus.mouseover" end="zoomplus.mouseout"/>
                        </use>
                        <path d="M-4,0h8M0,-4v8" fill="none" stroke="white" stroke-width="1.5" pointer-events="none"/>
                </g>
                <g id="zoomMin">
                        <use xlink:href="#rim" fill="#404040">
                                <set attributeName="fill" to="#808080" begin="zoomminus.mouseover" end="zoomminus.mouseout"/>
                        </use>
                        <path d="M-4,0h8" fill="none" stroke="white" stroke-width="1.5" pointer-events="none"/>
                </g>
                <g id="dirArrow">
                        <path fill="none" stroke="white" stroke-width="1.5" d="M0,-3.0v7 M-2.5,-0.5L0,-3.0L2.5,-0.5"/>
                </g>
               <g id="resetDef">
                       <use xlink:href="#rim2" fill="#404040">
                               <set attributeName="fill" to="#808080" begin="reset.mouseover" end="reset.mouseout"/>
                       </use>
               </g>
        </defs>

<script type="text/javascript">
var viewWidth = 1169;
var viewHeight = 453;
var sectionId = 'dynsection-0';
</script>
<script xlink:href="../../svgpan.js"/>
<svg id="graph" class="graph">
<g id="viewport">
<title>/home/travis/build/AliceO2Group/AliceO2/GPU/GPUTracking/gpucf/src/gpucf/algorithms/cpu.h</title>
<!-- Node1 -->
<g id="node1" class="node"><title>Node1</title>
<polygon fill="#bfbfbf" stroke="black" points="900.431,-392.5 900.431,-444.5 1035.43,-444.5 1035.43,-392.5 900.431,-392.5"/>
<text text-anchor="start" x="908.431" y="-432.5" font-family="Helvetica,sans-Serif" font-size="10.00">/home/travis/build</text>
<text text-anchor="start" x="908.431" y="-421.5" font-family="Helvetica,sans-Serif" font-size="10.00">/AliceO2Group/AliceO2</text>
<text text-anchor="start" x="908.431" y="-410.5" font-family="Helvetica,sans-Serif" font-size="10.00">/GPU/GPUTracking/gpucf</text>
<text text-anchor="middle" x="967.931" y="-399.5" font-family="Helvetica,sans-Serif" font-size="10.00">/src/gpucf/algorithms/cpu.h</text>
</g>
<!-- Node2 -->
<g id="node2" class="node"><title>Node2</title>
<g id="a_node2"><a xlink:href="../../d4/db0/GPU_2GPUTracking_2gpucf_2src_2gpucf_2common_2Digit_8h.html" target="_top" xlink:title="gpucf/common/Digit.h">
<polygon fill="none" stroke="black" points="540.431,-224.5 540.431,-243.5 653.431,-243.5 653.431,-224.5 540.431,-224.5"/>
<text text-anchor="middle" x="596.931" y="-231.5" font-family="Helvetica,sans-Serif" font-size="10.00">gpucf/common/Digit.h</text>
</a>
</g>
</g>
<!-- Node1&#45;&gt;Node2 -->
<g id="edge1" class="edge"><title>Node1&#45;&gt;Node2</title>
<path fill="none" stroke="midnightblue" d="M916.735,-392.316C836.732,-352.961 684.896,-278.271 623.593,-248.115"/>
<polygon fill="midnightblue" stroke="midnightblue" points="625.074,-244.943 614.556,-243.67 621.985,-251.225 625.074,-244.943"/>
</g>
<!-- Node20 -->
<g id="node20" class="node"><title>Node20</title>
<g id="a_node20"><a xlink:href="../../df/d79/Map_8h.html" target="_top" xlink:title="gpucf/common/Map.h">
<polygon fill="none" stroke="black" points="468.431,-336.5 468.431,-355.5 579.431,-355.5 579.431,-336.5 468.431,-336.5"/>
<text text-anchor="middle" x="523.931" y="-343.5" font-family="Helvetica,sans-Serif" font-size="10.00">gpucf/common/Map.h</text>
</a>
</g>
</g>
<!-- Node1&#45;&gt;Node20 -->
<g id="edge24" class="edge"><title>Node1&#45;&gt;Node20</title>
<path fill="none" stroke="midnightblue" d="M900.014,-406.716C815.013,-393.219 670.544,-370.28 587.589,-357.108"/>
<polygon fill="midnightblue" stroke="midnightblue" points="587.964,-353.624 577.539,-355.512 586.866,-360.537 587.964,-353.624"/>
</g>
<!-- Node27 -->
<g id="node27" class="node"><title>Node27</title>
<g id="a_node27"><a xlink:href="../../d3/d24/RowMap_8h.html" target="_top" xlink:title="gpucf/common/RowMap.h">
<polygon fill="none" stroke="black" points="1030.43,-112.5 1030.43,-131.5 1161.43,-131.5 1161.43,-112.5 1030.43,-112.5"/>
<text text-anchor="middle" x="1095.93" y="-119.5" font-family="Helvetica,sans-Serif" font-size="10.00">gpucf/common/RowMap.h</text>
</a>
</g>
</g>
<!-- Node1&#45;&gt;Node27 -->
<g id="edge36" class="edge"><title>Node1&#45;&gt;Node27</title>
<path fill="none" stroke="midnightblue" d="M1031.22,-392.471C1048.08,-383.197 1064.91,-371.149 1076.93,-356 1095.64,-332.423 1095.93,-321.098 1095.93,-291 1095.93,-291 1095.93,-291 1095.93,-233 1095.93,-200.948 1095.93,-163.643 1095.93,-141.749"/>
<polygon fill="midnightblue" stroke="midnightblue" points="1099.43,-141.558 1095.93,-131.558 1092.43,-141.558 1099.43,-141.558"/>
</g>
<!-- Node28 -->
<g id="node28" class="node"><title>Node28</title>
<g id="a_node28"><a xlink:href="../../d4/d57/View_8h.html" target="_top" xlink:title="gpucf/common/View.h">
<polygon fill="none" stroke="black" points="953.931,-336.5 953.931,-355.5 1067.93,-355.5 1067.93,-336.5 953.931,-336.5"/>
<text text-anchor="middle" x="1010.93" y="-343.5" font-family="Helvetica,sans-Serif" font-size="10.00">gpucf/common/View.h</text>
</a>
</g>
</g>
<!-- Node1&#45;&gt;Node28 -->
<g id="edge39" class="edge"><title>Node1&#45;&gt;Node28</title>
<path fill="none" stroke="midnightblue" d="M983.213,-392.446C988.895,-383.129 995.212,-372.772 1000.38,-364.302"/>
<polygon fill="midnightblue" stroke="midnightblue" points="1003.41,-366.055 1005.63,-355.695 997.432,-362.41 1003.41,-366.055"/>
</g>
<!-- Node3 -->
<g id="node3" class="node"><title>Node3</title>
<g id="a_node3"><a xlink:href="../../db/dbf/Object_8h.html" target="_top" xlink:title="gpucf/common/Object.h">
<polygon fill="none" stroke="black" points="165.431,-168.5 165.431,-187.5 286.431,-187.5 286.431,-168.5 165.431,-168.5"/>
<text text-anchor="middle" x="225.931" y="-175.5" font-family="Helvetica,sans-Serif" font-size="10.00">gpucf/common/Object.h</text>
</a>
</g>
</g>
<!-- Node2&#45;&gt;Node3 -->
<g id="edge2" class="edge"><title>Node2&#45;&gt;Node3</title>
<path fill="none" stroke="midnightblue" d="M540.181,-224.74C474.207,-215.137 365.361,-199.294 294.659,-189.003"/>
<polygon fill="midnightblue" stroke="midnightblue" points="294.913,-185.504 284.513,-187.527 293.905,-192.431 294.913,-185.504"/>
</g>
<!-- Node5 -->
<g id="node5" class="node"><title>Node5</title>
<polygon fill="none" stroke="#bfbfbf" points="332.431,-112.5 332.431,-131.5 373.431,-131.5 373.431,-112.5 332.431,-112.5"/>
<text text-anchor="middle" x="352.931" y="-119.5" font-family="Helvetica,sans-Serif" font-size="10.00">string</text>
</g>
<!-- Node2&#45;&gt;Node5 -->
<g id="edge22" class="edge"><title>Node2&#45;&gt;Node5</title>
<path fill="none" stroke="midnightblue" d="M540.238,-228.321C481.84,-222.37 396.049,-210.106 371.931,-188 359.085,-176.225 354.745,-156.296 353.368,-141.602"/>
<polygon fill="midnightblue" stroke="midnightblue" points="356.862,-141.393 352.8,-131.608 349.873,-141.79 356.862,-141.393"/>
</g>
<!-- Node7 -->
<g id="node7" class="node"><title>Node7</title>
<g id="a_node7"><a xlink:href="../../d9/d5a/RawDigit_8h.html" target="_top" xlink:title="gpucf/common/RawDigit.h">
<polygon fill="none" stroke="black" points="476.431,-168.5 476.431,-187.5 609.431,-187.5 609.431,-168.5 476.431,-168.5"/>
<text text-anchor="middle" x="542.931" y="-175.5" font-family="Helvetica,sans-Serif" font-size="10.00">gpucf/common/RawDigit.h</text>
</a>
</g>
</g>
<!-- Node2&#45;&gt;Node7 -->
<g id="edge6" class="edge"><title>Node2&#45;&gt;Node7</title>
<path fill="none" stroke="midnightblue" d="M588.014,-224.083C580.151,-216.22 568.5,-204.569 559.013,-195.081"/>
<polygon fill="midnightblue" stroke="midnightblue" points="561.228,-192.347 551.682,-187.751 556.279,-197.297 561.228,-192.347"/>
</g>
<!-- Node9 -->
<g id="node9" class="node"><title>Node9</title>
<g id="a_node9"><a xlink:href="../../d9/dfc/SectorMap_8h.html" target="_top" xlink:title="gpucf/common/SectorMap.h">
<polygon fill="none" stroke="black" points="775.931,-112.5 775.931,-131.5 915.931,-131.5 915.931,-112.5 775.931,-112.5"/>
<text text-anchor="middle" x="845.931" y="-119.5" font-family="Helvetica,sans-Serif" font-size="10.00">gpucf/common/SectorMap.h</text>
</a>
</g>
</g>
<!-- Node2&#45;&gt;Node9 -->
<g id="edge8" class="edge"><title>Node2&#45;&gt;Node9</title>
<path fill="none" stroke="midnightblue" d="M653.691,-232.408C728.268,-230.289 853.173,-221.655 881.931,-188 894.8,-172.94 879.276,-152.559 864.793,-138.66"/>
<polygon fill="midnightblue" stroke="midnightblue" points="866.813,-135.769 857.04,-131.679 862.13,-140.972 866.813,-135.769"/>
</g>
<!-- Node13 -->
<g id="node13" class="node"><title>Node13</title>
<g id="a_node13"><a xlink:href="../../dd/d50/serialization_8h.html" target="_top" xlink:title="gpucf/common/serialization.h">
<polygon fill="none" stroke="black" points="728.931,-168.5 728.931,-187.5 872.931,-187.5 872.931,-168.5 728.931,-168.5"/>
<text text-anchor="middle" x="800.931" y="-175.5" font-family="Helvetica,sans-Serif" font-size="10.00">gpucf/common/serialization.h</text>
</a>
</g>
</g>
<!-- Node2&#45;&gt;Node13 -->
<g id="edge12" class="edge"><title>Node2&#45;&gt;Node13</title>
<path fill="none" stroke="midnightblue" d="M629.256,-224.444C664.321,-215.162 720.43,-200.309 758.896,-190.127"/>
<polygon fill="midnightblue" stroke="midnightblue" points="759.987,-193.459 768.758,-187.516 758.195,-186.692 759.987,-193.459"/>
</g>
<!-- Node17 -->
<g id="node17" class="node"><title>Node17</title>
<polygon fill="none" stroke="#bfbfbf" points="471.931,-112.5 471.931,-131.5 515.931,-131.5 515.931,-112.5 471.931,-112.5"/>
<text text-anchor="middle" x="493.931" y="-119.5" font-family="Helvetica,sans-Serif" font-size="10.00">vector</text>
</g>
<!-- Node2&#45;&gt;Node17 -->
<g id="edge23" class="edge"><title>Node2&#45;&gt;Node17</title>
<path fill="none" stroke="midnightblue" d="M625.056,-224.422C656.488,-213.388 700.561,-192.676 680.931,-168 638.537,-114.708 597.476,-146.866 526.049,-131.945"/>
<polygon fill="midnightblue" stroke="midnightblue" points="526.777,-128.521 516.241,-129.638 525.174,-135.335 526.777,-128.521"/>
</g>
<!-- Node18 -->
<g id="node18" class="node"><title>Node18</title>
<g id="a_node18"><a xlink:href="../../d0/d95/GPU_2GPUTracking_2gpucf_2cl_2shared_2Digit_8h.html" target="_top" xlink:title="shared/Digit.h">
<polygon fill="none" stroke="black" points="381.431,-168.5 381.431,-187.5 458.431,-187.5 458.431,-168.5 381.431,-168.5"/>
<text text-anchor="middle" x="419.931" y="-175.5" font-family="Helvetica,sans-Serif" font-size="10.00">shared/Digit.h</text>
</a>
</g>
</g>
<!-- Node2&#45;&gt;Node18 -->
<g id="edge19" class="edge"><title>Node2&#45;&gt;Node18</title>
<path fill="none" stroke="midnightblue" d="M568.885,-224.444C538.85,-215.28 491.018,-200.688 457.689,-190.519"/>
<polygon fill="midnightblue" stroke="midnightblue" points="458.432,-187.087 447.846,-187.516 456.39,-193.782 458.432,-187.087"/>
</g>
<!-- Node19 -->
<g id="node19" class="node"><title>Node19</title>
<polygon fill="none" stroke="#bfbfbf" points="627.431,-168.5 627.431,-187.5 672.431,-187.5 672.431,-168.5 627.431,-168.5"/>
<text text-anchor="middle" x="649.931" y="-175.5" font-family="Helvetica,sans-Serif" font-size="10.00">iosfwd</text>
</g>
<!-- Node2&#45;&gt;Node19 -->
<g id="edge21" class="edge"><title>Node2&#45;&gt;Node19</title>
<path fill="none" stroke="midnightblue" d="M605.683,-224.083C613.401,-216.22 624.836,-204.569 634.148,-195.081"/>
<polygon fill="midnightblue" stroke="midnightblue" points="636.836,-197.34 641.342,-187.751 631.84,-192.436 636.836,-197.34"/>
</g>
<!-- Node4 -->
<g id="node4" class="node"><title>Node4</title>
<polygon fill="none" stroke="#bfbfbf" points="223.431,-112.5 223.431,-131.5 314.431,-131.5 314.431,-112.5 223.431,-112.5"/>
<text text-anchor="middle" x="268.931" y="-119.5" font-family="Helvetica,sans-Serif" font-size="10.00">nonstd/optional.h</text>
</g>
<!-- Node3&#45;&gt;Node4 -->
<g id="edge3" class="edge"><title>Node3&#45;&gt;Node4</title>
<path fill="none" stroke="midnightblue" d="M233.032,-168.083C239.168,-160.377 248.201,-149.033 255.671,-139.653"/>
<polygon fill="midnightblue" stroke="midnightblue" points="258.472,-141.754 261.963,-131.751 252.996,-137.394 258.472,-141.754"/>
</g>
<!-- Node3&#45;&gt;Node5 -->
<g id="edge4" class="edge"><title>Node3&#45;&gt;Node5</title>
<path fill="none" stroke="midnightblue" d="M246.055,-168.444C266.956,-159.557 299.866,-145.563 323.647,-135.451"/>
<polygon fill="midnightblue" stroke="midnightblue" points="325.069,-138.65 332.902,-131.516 322.33,-132.208 325.069,-138.65"/>
</g>
<!-- Node6 -->
<g id="node6" class="node"><title>Node6</title>
<polygon fill="none" stroke="#bfbfbf" points="122.431,-112.5 122.431,-131.5 205.431,-131.5 205.431,-112.5 122.431,-112.5"/>
<text text-anchor="middle" x="163.931" y="-119.5" font-family="Helvetica,sans-Serif" font-size="10.00">unordered_map</text>
</g>
<!-- Node3&#45;&gt;Node6 -->
<g id="edge5" class="edge"><title>Node3&#45;&gt;Node6</title>
<path fill="none" stroke="midnightblue" d="M215.97,-168.324C206.805,-160.341 192.994,-148.313 181.903,-138.653"/>
<polygon fill="midnightblue" stroke="midnightblue" points="183.914,-135.762 174.074,-131.834 179.316,-141.041 183.914,-135.762"/>
</g>
<!-- Node8 -->
<g id="node8" class="node"><title>Node8</title>
<polygon fill="none" stroke="#bfbfbf" points="533.931,-112.5 533.931,-131.5 579.931,-131.5 579.931,-112.5 533.931,-112.5"/>
<text text-anchor="middle" x="556.931" y="-119.5" font-family="Helvetica,sans-Serif" font-size="10.00">cstdint</text>
</g>
<!-- Node7&#45;&gt;Node8 -->
<g id="edge7" class="edge"><title>Node7&#45;&gt;Node8</title>
<path fill="none" stroke="midnightblue" d="M545.243,-168.083C547.098,-160.927 549.767,-150.635 552.086,-141.691"/>
<polygon fill="midnightblue" stroke="midnightblue" points="555.541,-142.309 554.663,-131.751 548.765,-140.553 555.541,-142.309"/>
</g>
<!-- Node10 -->
<g id="node10" class="node"><title>Node10</title>
<g id="a_node10"><a xlink:href="../../d9/d09/tpc_8h.html" target="_top" xlink:title="shared/tpc.h">
<polygon fill="none" stroke="black" points="603.431,-56.5 603.431,-75.5 674.431,-75.5 674.431,-56.5 603.431,-56.5"/>
<text text-anchor="middle" x="638.931" y="-63.5" font-family="Helvetica,sans-Serif" font-size="10.00">shared/tpc.h</text>
</a>
</g>
</g>
<!-- Node9&#45;&gt;Node10 -->
<g id="edge9" class="edge"><title>Node9&#45;&gt;Node10</title>
<path fill="none" stroke="midnightblue" d="M813.132,-112.444C777.551,-103.162 720.617,-88.3093 681.585,-78.127"/>
<polygon fill="midnightblue" stroke="midnightblue" points="682.137,-74.6541 671.578,-75.5164 680.37,-81.4274 682.137,-74.6541"/>
</g>
<!-- Node12 -->
<g id="node12" class="node"><title>Node12</title>
<polygon fill="none" stroke="#bfbfbf" points="951.931,-56.5 951.931,-75.5 989.931,-75.5 989.931,-56.5 951.931,-56.5"/>
<text text-anchor="middle" x="970.931" y="-63.5" font-family="Helvetica,sans-Serif" font-size="10.00">array</text>
</g>
<!-- Node9&#45;&gt;Node12 -->
<g id="edge11" class="edge"><title>Node9&#45;&gt;Node12</title>
<path fill="none" stroke="midnightblue" d="M865.738,-112.444C886.339,-103.544 918.793,-89.5237 942.208,-79.4086"/>
<polygon fill="midnightblue" stroke="midnightblue" points="943.836,-82.5178 951.628,-75.339 941.06,-76.0918 943.836,-82.5178"/>
</g>
<!-- Node11 -->
<g id="node11" class="node"><title>Node11</title>
<g id="a_node11"><a xlink:href="../../d9/d49/types_8h.html" target="_top" xlink:title="types.h">
<polygon fill="none" stroke="black" points="614.431,-0.5 614.431,-19.5 663.431,-19.5 663.431,-0.5 614.431,-0.5"/>
<text text-anchor="middle" x="638.931" y="-7.5" font-family="Helvetica,sans-Serif" font-size="10.00">types.h</text>
</a>
</g>
</g>
<!-- Node10&#45;&gt;Node11 -->
<g id="edge10" class="edge"><title>Node10&#45;&gt;Node11</title>
<path fill="none" stroke="midnightblue" d="M638.931,-56.083C638.931,-49.0059 638.931,-38.8611 638.931,-29.9865"/>
<polygon fill="midnightblue" stroke="midnightblue" points="642.431,-29.751 638.931,-19.7511 635.431,-29.7511 642.431,-29.751"/>
</g>
<!-- Node13&#45;&gt;Node8 -->
<g id="edge16" class="edge"><title>Node13&#45;&gt;Node8</title>
<path fill="none" stroke="midnightblue" d="M756.482,-168.439C715.555,-160.361 652.954,-147.514 589.7,-132.068"/>
<polygon fill="midnightblue" stroke="midnightblue" points="590.503,-128.661 579.956,-129.669 588.829,-135.458 590.503,-128.661"/>
</g>
<!-- Node13&#45;&gt;Node9 -->
<g id="edge13" class="edge"><title>Node13&#45;&gt;Node9</title>
<path fill="none" stroke="midnightblue" d="M808.362,-168.083C814.784,-160.377 824.237,-149.033 832.054,-139.653"/>
<polygon fill="midnightblue" stroke="midnightblue" points="834.926,-141.674 838.639,-131.751 829.548,-137.193 834.926,-141.674"/>
</g>
<!-- Node14 -->
<g id="node14" class="node"><title>Node14</title>
<polygon fill="none" stroke="#bfbfbf" points="597.931,-112.5 597.931,-131.5 689.931,-131.5 689.931,-112.5 597.931,-112.5"/>
<text text-anchor="middle" x="643.931" y="-119.5" font-family="Helvetica,sans-Serif" font-size="10.00">filesystem/path.h</text>
</g>
<!-- Node13&#45;&gt;Node14 -->
<g id="edge14" class="edge"><title>Node13&#45;&gt;Node14</title>
<path fill="none" stroke="midnightblue" d="M776.054,-168.444C749.642,-159.359 707.716,-144.939 678.19,-134.783"/>
<polygon fill="midnightblue" stroke="midnightblue" points="679.287,-131.459 668.692,-131.516 677.01,-138.079 679.287,-131.459"/>
</g>
<!-- Node15 -->
<g id="node15" class="node"><title>Node15</title>
<polygon fill="none" stroke="#bfbfbf" points="933.931,-112.5 933.931,-131.5 1011.93,-131.5 1011.93,-112.5 933.931,-112.5"/>
<text text-anchor="middle" x="972.931" y="-119.5" font-family="Helvetica,sans-Serif" font-size="10.00">nonstd/span.h</text>
</g>
<!-- Node13&#45;&gt;Node15 -->
<g id="edge15" class="edge"><title>Node13&#45;&gt;Node15</title>
<path fill="none" stroke="midnightblue" d="M828.185,-168.444C857.373,-159.28 903.852,-144.688 936.241,-134.519"/>
<polygon fill="midnightblue" stroke="midnightblue" points="937.313,-137.851 945.805,-131.516 935.216,-131.173 937.313,-137.851"/>
</g>
<!-- Node16 -->
<g id="node16" class="node"><title>Node16</title>
<polygon fill="none" stroke="#bfbfbf" points="707.931,-112.5 707.931,-131.5 757.931,-131.5 757.931,-112.5 707.931,-112.5"/>
<text text-anchor="middle" x="732.931" y="-119.5" font-family="Helvetica,sans-Serif" font-size="10.00">fstream</text>
</g>
<!-- Node13&#45;&gt;Node16 -->
<g id="edge17" class="edge"><title>Node13&#45;&gt;Node16</title>
<path fill="none" stroke="midnightblue" d="M790.006,-168.324C779.757,-160.185 764.211,-147.839 751.93,-138.087"/>
<polygon fill="midnightblue" stroke="midnightblue" points="754.063,-135.312 744.056,-131.834 749.71,-140.794 754.063,-135.312"/>
</g>
<!-- Node13&#45;&gt;Node17 -->
<g id="edge18" class="edge"><title>Node13&#45;&gt;Node17</title>
<path fill="none" stroke="midnightblue" d="M734.696,-168.494C680.819,-161.052 602.694,-149.074 526.026,-132.029"/>
<polygon fill="midnightblue" stroke="midnightblue" points="526.723,-128.598 516.199,-129.814 525.184,-135.427 526.723,-128.598"/>
</g>
<!-- Node18&#45;&gt;Node10 -->
<g id="edge20" class="edge"><title>Node18&#45;&gt;Node10</title>
<path fill="none" stroke="midnightblue" d="M423.218,-168.35C429.017,-154.291 442.424,-126.589 462.931,-112 501.456,-84.5938 555.212,-73.8539 593.151,-69.6592"/>
<polygon fill="midnightblue" stroke="midnightblue" points="593.802,-73.1119 603.407,-68.6412 593.11,-66.1462 593.802,-73.1119"/>
</g>
<!-- Node20&#45;&gt;Node6 -->
<g id="edge35" class="edge"><title>Node20&#45;&gt;Node6</title>
<path fill="none" stroke="midnightblue" d="M468.383,-343.54C345.724,-338.934 58.5892,-320.074 7.93137,-244 -26.5673,-192.193 66.3764,-152.999 123.317,-134.593"/>
<polygon fill="midnightblue" stroke="midnightblue" points="124.657,-137.841 133.148,-131.504 122.559,-131.162 124.657,-137.841"/>
</g>
<!-- Node20&#45;&gt;Node15 -->
<g id="edge33" class="edge"><title>Node20&#45;&gt;Node15</title>
<path fill="none" stroke="midnightblue" d="M552.73,-336.489C617.68,-316.557 779.23,-262.816 898.931,-188 921.235,-174.06 943.451,-153.406 957.633,-139.139"/>
<polygon fill="midnightblue" stroke="midnightblue" points="960.528,-141.183 964.995,-131.575 955.512,-136.3 960.528,-141.183"/>
</g>
<!-- Node21 -->
<g id="node21" class="node"><title>Node21</title>
<g id="a_node21"><a xlink:href="../../d7/d7f/log_8h.html" target="_top" xlink:title="gpucf/common/log.h">
<polygon fill="none" stroke="black" points="151.431,-280.5 151.431,-299.5 256.431,-299.5 256.431,-280.5 151.431,-280.5"/>
<text text-anchor="middle" x="203.931" y="-287.5" font-family="Helvetica,sans-Serif" font-size="10.00">gpucf/common/log.h</text>
</a>
</g>
</g>
<!-- Node20&#45;&gt;Node21 -->
<g id="edge25" class="edge"><title>Node20&#45;&gt;Node21</title>
<path fill="none" stroke="midnightblue" d="M473.226,-336.444C416.584,-326.885 324.936,-311.419 264.552,-301.23"/>
<polygon fill="midnightblue" stroke="midnightblue" points="264.842,-297.729 254.399,-299.516 263.677,-304.632 264.842,-297.729"/>
</g>
<!-- Node25 -->
<g id="node25" class="node"><title>Node25</title>
<g id="a_node25"><a xlink:href="../../de/dff/Position_8h.html" target="_top" xlink:title="gpucf/common/Position.h">
<polygon fill="none" stroke="black" points="403.931,-280.5 403.931,-299.5 531.931,-299.5 531.931,-280.5 403.931,-280.5"/>
<text text-anchor="middle" x="467.931" y="-287.5" font-family="Helvetica,sans-Serif" font-size="10.00">gpucf/common/Position.h</text>
</a>
</g>
</g>
<!-- Node20&#45;&gt;Node25 -->
<g id="edge30" class="edge"><title>Node20&#45;&gt;Node25</title>
<path fill="none" stroke="midnightblue" d="M514.934,-336.324C506.737,-328.42 494.426,-316.548 484.459,-306.938"/>
<polygon fill="midnightblue" stroke="midnightblue" points="486.72,-304.256 477.092,-299.834 481.861,-309.295 486.72,-304.256"/>
</g>
<!-- Node26 -->
<g id="node26" class="node"><title>Node26</title>
<polygon fill="none" stroke="#bfbfbf" points="550.431,-280.5 550.431,-299.5 609.431,-299.5 609.431,-280.5 550.431,-280.5"/>
<text text-anchor="middle" x="579.931" y="-287.5" font-family="Helvetica,sans-Serif" font-size="10.00">functional</text>
</g>
<!-- Node20&#45;&gt;Node26 -->
<g id="edge34" class="edge"><title>Node20&#45;&gt;Node26</title>
<path fill="none" stroke="midnightblue" d="M532.929,-336.324C541.126,-328.42 553.437,-316.548 563.403,-306.938"/>
<polygon fill="midnightblue" stroke="midnightblue" points="566.001,-309.295 570.77,-299.834 561.142,-304.256 566.001,-309.295"/>
</g>
<!-- Node21&#45;&gt;Node17 -->
<g id="edge28" class="edge"><title>Node21&#45;&gt;Node17</title>
<path fill="none" stroke="midnightblue" d="M213.897,-280.313C238.949,-258.823 307.191,-202.43 371.931,-168 401.012,-152.534 436.572,-140.081 461.78,-132.229"/>
<polygon fill="midnightblue" stroke="midnightblue" points="463.019,-135.511 471.566,-129.25 460.98,-128.814 463.019,-135.511"/>
</g>
<!-- Node22 -->
<g id="node22" class="node"><title>Node22</title>
<polygon fill="none" stroke="#bfbfbf" points="16.9314,-224.5 16.9314,-243.5 70.9314,-243.5 70.9314,-224.5 16.9314,-224.5"/>
<text text-anchor="middle" x="43.9314" y="-231.5" font-family="Helvetica,sans-Serif" font-size="10.00">iostream</text>
</g>
<!-- Node21&#45;&gt;Node22 -->
<g id="edge26" class="edge"><title>Node21&#45;&gt;Node22</title>
<path fill="none" stroke="midnightblue" d="M178.579,-280.444C151.662,-271.359 108.935,-256.939 78.8444,-246.783"/>
<polygon fill="midnightblue" stroke="midnightblue" points="79.7594,-243.398 69.1652,-243.516 77.5209,-250.031 79.7594,-243.398"/>
</g>
<!-- Node23 -->
<g id="node23" class="node"><title>Node23</title>
<polygon fill="none" stroke="#bfbfbf" points="88.9314,-224.5 88.9314,-243.5 140.931,-243.5 140.931,-224.5 88.9314,-224.5"/>
<text text-anchor="middle" x="114.931" y="-231.5" font-family="Helvetica,sans-Serif" font-size="10.00">sstream</text>
</g>
<!-- Node21&#45;&gt;Node23 -->
<g id="edge27" class="edge"><title>Node21&#45;&gt;Node23</title>
<path fill="none" stroke="midnightblue" d="M189.632,-280.324C175.748,-271.9 154.439,-258.971 138.128,-249.074"/>
<polygon fill="midnightblue" stroke="midnightblue" points="139.56,-245.85 129.195,-243.655 135.929,-251.834 139.56,-245.85"/>
</g>
<!-- Node24 -->
<g id="node24" class="node"><title>Node24</title>
<polygon fill="none" stroke="#bfbfbf" points="159.431,-224.5 159.431,-243.5 248.431,-243.5 248.431,-224.5 159.431,-224.5"/>
<text text-anchor="middle" x="203.931" y="-231.5" font-family="Helvetica,sans-Serif" font-size="10.00">CL/cl_platform.h</text>
</g>
<!-- Node21&#45;&gt;Node24 -->
<g id="edge29" class="edge"><title>Node21&#45;&gt;Node24</title>
<path fill="none" stroke="midnightblue" d="M203.931,-280.083C203.931,-273.006 203.931,-262.861 203.931,-253.986"/>
<polygon fill="midnightblue" stroke="midnightblue" points="207.431,-253.751 203.931,-243.751 200.431,-253.751 207.431,-253.751"/>
</g>
<!-- Node25&#45;&gt;Node2 -->
<g id="edge31" class="edge"><title>Node25&#45;&gt;Node2</title>
<path fill="none" stroke="midnightblue" d="M488.372,-280.444C509.602,-271.557 543.03,-257.563 567.186,-247.451"/>
<polygon fill="midnightblue" stroke="midnightblue" points="568.714,-250.606 576.587,-243.516 566.011,-244.149 568.714,-250.606"/>
</g>
<!-- Node25&#45;&gt;Node10 -->
<g id="edge32" class="edge"><title>Node25&#45;&gt;Node10</title>
<path fill="none" stroke="midnightblue" d="M440.147,-280.497C365.959,-257.729 168.012,-196.525 155.931,-188 124.222,-165.624 86.6846,-140.588 112.931,-112 145.116,-76.9439 471.307,-69.1504 593.256,-67.4575"/>
<polygon fill="midnightblue" stroke="midnightblue" points="593.433,-70.9556 603.386,-67.3245 593.341,-63.9562 593.433,-70.9556"/>
</g>
<!-- Node27&#45;&gt;Node10 -->
<g id="edge37" class="edge"><title>Node27&#45;&gt;Node10</title>
<path fill="none" stroke="midnightblue" d="M1030.08,-113.09C1026.99,-112.721 1023.93,-112.356 1020.93,-112 899.424,-97.5528 756.149,-80.7325 684.52,-72.3381"/>
<polygon fill="midnightblue" stroke="midnightblue" points="684.822,-68.8496 674.483,-71.162 684.008,-75.802 684.822,-68.8496"/>
</g>
<!-- Node27&#45;&gt;Node12 -->
<g id="edge38" class="edge"><title>Node27&#45;&gt;Node12</title>
<path fill="none" stroke="midnightblue" d="M1076.12,-112.444C1055.52,-103.544 1023.07,-89.5237 999.655,-79.4086"/>
<polygon fill="midnightblue" stroke="midnightblue" points="1000.8,-76.0918 990.235,-75.339 998.027,-82.5178 1000.8,-76.0918"/>
</g>
<!-- Node28&#45;&gt;Node15 -->
<g id="edge40" class="edge"><title>Node28&#45;&gt;Node15</title>
<path fill="none" stroke="midnightblue" d="M1009.44,-336.297C1003.85,-303.633 984.035,-187.866 976.176,-141.957"/>
<polygon fill="midnightblue" stroke="midnightblue" points="979.589,-141.15 974.452,-131.884 972.689,-142.331 979.589,-141.15"/>
</g>
</g>
</svg>
        <g id="navigator" transform="translate(0 0)" fill="#404254">
                <rect fill="#f2f5e9" fill-opacity="0.5" stroke="#606060" stroke-width=".5" x="0" y="0" width="60" height="60"/>
                <use id="zoomplus" xlink:href="#zoomPlus" x="17" y="9" onmousedown="handleZoom(evt,'in')"/>
                <use id="zoomminus" xlink:href="#zoomMin" x="42" y="9" onmousedown="handleZoom(evt,'out')"/>
                <use id="reset" xlink:href="#resetDef" x="30" y="36" onmousedown="handleReset()"/>
                <g id="arrowUp" xlink:href="#dirArrow" transform="translate(30 24)" onmousedown="handlePan(0,-1)">
                  <use xlink:href="#rim" fill="#404040">
                        <set attributeName="fill" to="#808080" begin="arrowUp.mouseover" end="arrowUp.mouseout"/>
                  </use>
                  <path fill="none" stroke="white" stroke-width="1.5" d="M0,-3.0v7 M-2.5,-0.5L0,-3.0L2.5,-0.5"/>
                </g>
                <g id="arrowRight" xlink:href="#dirArrow" transform="rotate(90) translate(36 -43)" onmousedown="handlePan(1,0)">
                  <use xlink:href="#rim" fill="#404040">
                        <set attributeName="fill" to="#808080" begin="arrowRight.mouseover" end="arrowRight.mouseout"/>
                  </use>
                  <path fill="none" stroke="white" stroke-width="1.5" d="M0,-3.0v7 M-2.5,-0.5L0,-3.0L2.5,-0.5"/>
                </g>
                <g id="arrowDown" xlink:href="#dirArrow" transform="rotate(180) translate(-30 -48)" onmousedown="handlePan(0,1)">
                  <use xlink:href="#rim" fill="#404040">
                        <set attributeName="fill" to="#808080" begin="arrowDown.mouseover" end="arrowDown.mouseout"/>
                  </use>
                  <path fill="none" stroke="white" stroke-width="1.5" d="M0,-3.0v7 M-2.5,-0.5L0,-3.0L2.5,-0.5"/>
                </g>
                <g id="arrowLeft" xlink:href="#dirArrow" transform="rotate(270) translate(-36 17)" onmousedown="handlePan(-1,0)">
                  <use xlink:href="#rim" fill="#404040">
                        <set attributeName="fill" to="#808080" begin="arrowLeft.mouseover" end="arrowLeft.mouseout"/>
                  </use>
                  <path fill="none" stroke="white" stroke-width="1.5" d="M0,-3.0v7 M-2.5,-0.5L0,-3.0L2.5,-0.5"/>
                </g>
        </g>
        <svg viewBox="0 0 15 15" width="100%" height="30px" preserveAspectRatio="xMaxYMin meet">
         <g id="arrow_out" transform="scale(0.3 0.3)">
          <a xlink:href="cpu_8h__incl_org.svg" target="_base">
           <rect id="button" ry="5" rx="5" y="6" x="6" height="38" width="38"
                fill="#f2f5e9" fill-opacity="0.5" stroke="#606060" stroke-width="1.0"/>
           <path id="arrow"
             d="M 11.500037,31.436501 C 11.940474,20.09759 22.043105,11.32322 32.158766,21.979434 L 37.068811,17.246167 C 37.068811,17.246167 37.088388,32 37.088388,32 L 22.160133,31.978069 C 22.160133,31.978069 26.997745,27.140456 26.997745,27.140456 C 18.528582,18.264221 13.291696,25.230495 11.500037,31.436501 z"
             style="fill:#404040;"/>
          </a>
         </g>
        </svg>
</svg>
