<?xml version="1.0" encoding="UTF-8" standalone="no"?>
<!DOCTYPE svg PUBLIC "-//W3C//DTD SVG 1.1//EN"
 "http://www.w3.org/Graphics/SVG/1.1/DTD/svg11.dtd">
<!-- Generated by graphviz version 2.38.0 (20140413.2041)
 -->
<!-- Title: /home/travis/build/AliceO2Group/AliceO2/GPU/GPUTracking/SliceTracker/GPUTPCStartHitsFinder.cxx Pages: 1 -->
<!--zoomable 621 -->
<svg id="main" version="1.1" xmlns="http://www.w3.org/2000/svg" xmlns:xlink="http://www.w3.org/1999/xlink" xml:space="preserve" onload="init(evt)">
<style type="text/css"><![CDATA[
.edge:hover path { stroke: red; }
.edge:hover polygon { stroke: red; fill: red; }
]]></style>
<script type="text/javascript"><![CDATA[
var edges = document.getElementsByTagName('g');
if (edges && edges.length) {
  for (var i=0;i<edges.length;i++) {
    if (edges[i].id.substr(0,4)=='edge') {
      edges[i].setAttribute('class','edge');
    }
  }
}
]]></script>
        <defs>
                <circle id="rim" cx="0" cy="0" r="7"/>
                <circle id="rim2" cx="0" cy="0" r="3.5"/>
                <g id="zoomPlus">
                        <use xlink:href="#rim" fill="#404040">
                                <set attributeName="fill" to="#808080" begin="zoomplus.mouseover" end="zoomplus.mouseout"/>
                        </use>
                        <path d="M-4,0h8M0,-4v8" fill="none" stroke="white" stroke-width="1.5" pointer-events="none"/>
                </g>
                <g id="zoomMin">
                        <use xlink:href="#rim" fill="#404040">
                                <set attributeName="fill" to="#808080" begin="zoomminus.mouseover" end="zoomminus.mouseout"/>
                        </use>
                        <path d="M-4,0h8" fill="none" stroke="white" stroke-width="1.5" pointer-events="none"/>
                </g>
                <g id="dirArrow">
                        <path fill="none" stroke="white" stroke-width="1.5" d="M0,-3.0v7 M-2.5,-0.5L0,-3.0L2.5,-0.5"/>
                </g>
               <g id="resetDef">
                       <use xlink:href="#rim2" fill="#404040">
                               <set attributeName="fill" to="#808080" begin="reset.mouseover" end="reset.mouseout"/>
                       </use>
               </g>
        </defs>

<script type="text/javascript">
var viewWidth = 1498;
var viewHeight = 621;
var sectionId = 'dynsection-0';
</script>
<script xlink:href="../../svgpan.js"/>
<svg id="graph" class="graph">
<g id="viewport">
<title>/home/travis/build/AliceO2Group/AliceO2/GPU/GPUTracking/SliceTracker/GPUTPCStartHitsFinder.cxx</title>
<!-- Node1 -->
<g id="node1" class="node"><title>Node1</title>
<polygon fill="#bfbfbf" stroke="black" points="930.5,-560.5 930.5,-612.5 1091.5,-612.5 1091.5,-560.5 930.5,-560.5"/>
<text text-anchor="start" x="938.5" y="-600.5" font-family="Helvetica,sans-Serif" font-size="10.00">/home/travis/build</text>
<text text-anchor="start" x="938.5" y="-589.5" font-family="Helvetica,sans-Serif" font-size="10.00">/AliceO2Group/AliceO2</text>
<text text-anchor="start" x="938.5" y="-578.5" font-family="Helvetica,sans-Serif" font-size="10.00">/GPU/GPUTracking/SliceTracker</text>
<text text-anchor="middle" x="1011" y="-567.5" font-family="Helvetica,sans-Serif" font-size="10.00">/GPUTPCStartHitsFinder.cxx</text>
</g>
<!-- Node2 -->
<g id="node2" class="node"><title>Node2</title>
<g id="a_node2"><a xlink:href="../../d0/d04/GPUTPCStartHitsFinder_8h.html" target="_top" xlink:title="GPUTPCStartHitsFinder.h">
<polygon fill="none" stroke="black" points="944.5,-504.5 944.5,-523.5 1077.5,-523.5 1077.5,-504.5 944.5,-504.5"/>
<text text-anchor="middle" x="1011" y="-511.5" font-family="Helvetica,sans-Serif" font-size="10.00">GPUTPCStartHitsFinder.h</text>
</a>
</g>
</g>
<!-- Node1&#45;&gt;Node2 -->
<g id="edge1" class="edge"><title>Node1&#45;&gt;Node2</title>
<path fill="none" stroke="midnightblue" d="M1011,-560.446C1011,-551.73 1011,-542.104 1011,-533.964"/>
<polygon fill="midnightblue" stroke="midnightblue" points="1014.5,-533.695 1011,-523.695 1007.5,-533.696 1014.5,-533.695"/>
</g>
<!-- Node18 -->
<g id="node18" class="node"><title>Node18</title>
<g id="a_node18"><a xlink:href="../../d6/d25/GPUTPCTracker_8h.html" target="_top" xlink:title="GPUTPCTracker.h">
<polygon fill="none" stroke="black" points="196,-392.5 196,-411.5 296,-411.5 296,-392.5 196,-392.5"/>
<text text-anchor="middle" x="246" y="-399.5" font-family="Helvetica,sans-Serif" font-size="10.00">GPUTPCTracker.h</text>
</a>
</g>
</g>
<!-- Node1&#45;&gt;Node18 -->
<g id="edge64" class="edge"><title>Node1&#45;&gt;Node18</title>
<path fill="none" stroke="midnightblue" d="M930.217,-566.228C770.327,-528.085 418.109,-444.059 292.022,-413.979"/>
<polygon fill="midnightblue" stroke="midnightblue" points="292.472,-410.488 281.933,-411.572 290.848,-417.297 292.472,-410.488"/>
</g>
<!-- Node23 -->
<g id="node23" class="node"><title>Node23</title>
<g id="a_node23"><a xlink:href="../../d6/da2/GPUCommonMath_8h.html" target="_top" xlink:title="GPUCommonMath.h">
<polygon fill="none" stroke="black" points="1094,-168.5 1094,-187.5 1202,-187.5 1202,-168.5 1094,-168.5"/>
<text text-anchor="middle" x="1148" y="-175.5" font-family="Helvetica,sans-Serif" font-size="10.00">GPUCommonMath.h</text>
</a>
</g>
</g>
<!-- Node1&#45;&gt;Node23 -->
<g id="edge65" class="edge"><title>Node1&#45;&gt;Node23</title>
<path fill="none" stroke="midnightblue" d="M1067.02,-560.356C1105.26,-540.465 1154.21,-509.185 1184,-468 1249.71,-377.162 1308.87,-318.147 1248,-224 1237.62,-207.948 1220,-197.565 1202.42,-190.874"/>
<polygon fill="midnightblue" stroke="midnightblue" points="1203.29,-187.473 1192.7,-187.524 1201.01,-194.091 1203.29,-187.473"/>
</g>
<!-- Node3 -->
<g id="node3" class="node"><title>Node3</title>
<g id="a_node3"><a xlink:href="../../da/dab/GPUTPCDef_8h.html" target="_top" xlink:title="GPUTPCDef.h">
<polygon fill="none" stroke="black" points="253.5,-168.5 253.5,-187.5 336.5,-187.5 336.5,-168.5 253.5,-168.5"/>
<text text-anchor="middle" x="295" y="-175.5" font-family="Helvetica,sans-Serif" font-size="10.00">GPUTPCDef.h</text>
</a>
</g>
</g>
<!-- Node2&#45;&gt;Node3 -->
<g id="edge2" class="edge"><title>Node2&#45;&gt;Node3</title>
<path fill="none" stroke="midnightblue" d="M944.274,-512.763C718.912,-511.09 0,-498.285 0,-403 0,-403 0,-403 0,-289 0,-251.725 20.9391,-243.014 53,-224 111.802,-189.127 191.617,-180.266 243.219,-178.525"/>
<polygon fill="midnightblue" stroke="midnightblue" points="243.56,-182.017 253.467,-178.26 243.38,-175.02 243.56,-182.017"/>
</g>
<!-- Node13 -->
<g id="node13" class="node"><title>Node13</title>
<g id="a_node13"><a xlink:href="../../dd/d7b/GPUTPCHitId_8h.html" target="_top" xlink:title="GPUTPCHitId.h">
<polygon fill="none" stroke="black" points="923,-336.5 923,-355.5 1011,-355.5 1011,-336.5 923,-336.5"/>
<text text-anchor="middle" x="967" y="-343.5" font-family="Helvetica,sans-Serif" font-size="10.00">GPUTPCHitId.h</text>
</a>
</g>
</g>
<!-- Node2&#45;&gt;Node13 -->
<g id="edge12" class="edge"><title>Node2&#45;&gt;Node13</title>
<path fill="none" stroke="midnightblue" d="M1008.63,-504.075C1001.71,-477.945 981.369,-401.211 971.924,-365.577"/>
<polygon fill="midnightblue" stroke="midnightblue" points="975.216,-364.338 969.271,-355.568 968.45,-366.131 975.216,-364.338"/>
</g>
<!-- Node14 -->
<g id="node14" class="node"><title>Node14</title>
<g id="a_node14"><a xlink:href="../../d9/de5/GPUGeneralKernels_8h.html" target="_top" xlink:title="GPUGeneralKernels.h">
<polygon fill="none" stroke="black" points="948.5,-224.5 948.5,-243.5 1061.5,-243.5 1061.5,-224.5 948.5,-224.5"/>
<text text-anchor="middle" x="1005" y="-231.5" font-family="Helvetica,sans-Serif" font-size="10.00">GPUGeneralKernels.h</text>
</a>
</g>
</g>
<!-- Node2&#45;&gt;Node14 -->
<g id="edge13" class="edge"><title>Node2&#45;&gt;Node14</title>
<path fill="none" stroke="midnightblue" d="M1014.78,-504.351C1022.42,-486.034 1039,-441.821 1039,-403 1039,-403 1039,-403 1039,-345 1039,-311.16 1024.13,-273.97 1014.06,-252.661"/>
<polygon fill="midnightblue" stroke="midnightblue" points="1017.14,-250.991 1009.59,-243.56 1010.86,-254.079 1017.14,-250.991"/>
</g>
<!-- Node17 -->
<g id="node17" class="node"><title>Node17</title>
<g id="a_node17"><a xlink:href="../../db/df8/GPUConstantMem_8h.html" target="_top" xlink:title="GPUConstantMem.h">
<polygon fill="none" stroke="black" points="1067,-448.5 1067,-467.5 1175,-467.5 1175,-448.5 1067,-448.5"/>
<text text-anchor="middle" x="1121" y="-455.5" font-family="Helvetica,sans-Serif" font-size="10.00">GPUConstantMem.h</text>
</a>
</g>
</g>
<!-- Node2&#45;&gt;Node17 -->
<g id="edge18" class="edge"><title>Node2&#45;&gt;Node17</title>
<path fill="none" stroke="midnightblue" d="M1028.67,-504.324C1046.39,-495.625 1073.9,-482.12 1094.29,-472.113"/>
<polygon fill="midnightblue" stroke="midnightblue" points="1095.94,-475.203 1103.37,-467.655 1092.85,-468.919 1095.94,-475.203"/>
</g>
<!-- Node4 -->
<g id="node4" class="node"><title>Node4</title>
<g id="a_node4"><a xlink:href="../../d2/d6d/GPUDef_8h.html" target="_top" xlink:title="GPUDef.h">
<polygon fill="none" stroke="black" points="700,-112.5 700,-131.5 762,-131.5 762,-112.5 700,-112.5"/>
<text text-anchor="middle" x="731" y="-119.5" font-family="Helvetica,sans-Serif" font-size="10.00">GPUDef.h</text>
</a>
</g>
</g>
<!-- Node3&#45;&gt;Node4 -->
<g id="edge3" class="edge"><title>Node3&#45;&gt;Node4</title>
<path fill="none" stroke="midnightblue" d="M336.806,-171.822C420.302,-161.481 606.797,-138.383 689.796,-128.103"/>
<polygon fill="midnightblue" stroke="midnightblue" points="690.367,-131.559 699.861,-126.857 689.507,-124.612 690.367,-131.559"/>
</g>
<!-- Node5 -->
<g id="node5" class="node"><title>Node5</title>
<g id="a_node5"><a xlink:href="../../df/d21/GPUCommonDef_8h.html" target="_top" xlink:title="GPUCommonDef.h">
<polygon fill="none" stroke="black" points="1145,-56.5 1145,-75.5 1247,-75.5 1247,-56.5 1145,-56.5"/>
<text text-anchor="middle" x="1196" y="-63.5" font-family="Helvetica,sans-Serif" font-size="10.00">GPUCommonDef.h</text>
</a>
</g>
</g>
<!-- Node4&#45;&gt;Node5 -->
<g id="edge4" class="edge"><title>Node4&#45;&gt;Node5</title>
<path fill="none" stroke="midnightblue" d="M762.407,-114.341C766.956,-113.487 771.59,-112.676 776,-112 902.864,-92.5582 1052.57,-78.6672 1134.59,-71.824"/>
<polygon fill="midnightblue" stroke="midnightblue" points="1135.05,-75.2974 1144.73,-70.9848 1134.48,-68.3212 1135.05,-75.2974"/>
</g>
<!-- Node8 -->
<g id="node8" class="node"><title>Node8</title>
<g id="a_node8"><a xlink:href="../../d2/d37/GPUDefConstantsAndSettings_8h.html" target="_top" xlink:title="GPUDefConstantsAndSettings.h">
<polygon fill="none" stroke="black" points="886.5,-56.5 886.5,-75.5 1047.5,-75.5 1047.5,-56.5 886.5,-56.5"/>
<text text-anchor="middle" x="967" y="-63.5" font-family="Helvetica,sans-Serif" font-size="10.00">GPUDefConstantsAndSettings.h</text>
</a>
</g>
</g>
<!-- Node4&#45;&gt;Node8 -->
<g id="edge7" class="edge"><title>Node4&#45;&gt;Node8</title>
<path fill="none" stroke="midnightblue" d="M762.339,-113.829C802.639,-104.608 872.996,-88.5093 919.791,-77.8021"/>
<polygon fill="midnightblue" stroke="midnightblue" points="920.722,-81.1795 929.69,-75.5371 919.161,-74.3559 920.722,-81.1795"/>
</g>
<!-- Node9 -->
<g id="node9" class="node"><title>Node9</title>
<g id="a_node9"><a xlink:href="../../dc/de9/GPUDefGPUParameters_8h.html" target="_top" xlink:title="GPUDefGPUParameters.h">
<polygon fill="none" stroke="black" points="424,-56.5 424,-75.5 558,-75.5 558,-56.5 424,-56.5"/>
<text text-anchor="middle" x="491" y="-63.5" font-family="Helvetica,sans-Serif" font-size="10.00">GPUDefGPUParameters.h</text>
</a>
</g>
</g>
<!-- Node4&#45;&gt;Node9 -->
<g id="edge8" class="edge"><title>Node4&#45;&gt;Node9</title>
<path fill="none" stroke="midnightblue" d="M699.624,-113.94C658.699,-104.732 586.703,-88.5332 538.924,-77.7829"/>
<polygon fill="midnightblue" stroke="midnightblue" points="539.64,-74.3566 529.116,-75.576 538.103,-81.1859 539.64,-74.3566"/>
</g>
<!-- Node10 -->
<g id="node10" class="node"><title>Node10</title>
<g id="a_node10"><a xlink:href="../../d3/d4c/GPUDefOpenCL12Templates_8h.html" target="_top" xlink:title="GPUDefOpenCL12Templates.h">
<polygon fill="none" stroke="black" points="576.5,-56.5 576.5,-75.5 731.5,-75.5 731.5,-56.5 576.5,-56.5"/>
<text text-anchor="middle" x="654" y="-63.5" font-family="Helvetica,sans-Serif" font-size="10.00">GPUDefOpenCL12Templates.h</text>
</a>
</g>
</g>
<!-- Node4&#45;&gt;Node10 -->
<g id="edge9" class="edge"><title>Node4&#45;&gt;Node10</title>
<path fill="none" stroke="midnightblue" d="M718.629,-112.324C706.842,-104.058 688.868,-91.4527 674.864,-81.6322"/>
<polygon fill="midnightblue" stroke="midnightblue" points="676.538,-78.5307 666.341,-75.6545 672.518,-84.2619 676.538,-78.5307"/>
</g>
<!-- Node11 -->
<g id="node11" class="node"><title>Node11</title>
<g id="a_node11"><a xlink:href="../../d2/d45/GPUCommonRtypes_8h.html" target="_top" xlink:title="GPUCommonRtypes.h">
<polygon fill="none" stroke="black" points="750,-56.5 750,-75.5 868,-75.5 868,-56.5 750,-56.5"/>
<text text-anchor="middle" x="809" y="-63.5" font-family="Helvetica,sans-Serif" font-size="10.00">GPUCommonRtypes.h</text>
</a>
</g>
</g>
<!-- Node4&#45;&gt;Node11 -->
<g id="edge10" class="edge"><title>Node4&#45;&gt;Node11</title>
<path fill="none" stroke="midnightblue" d="M743.532,-112.324C755.586,-103.979 774.027,-91.2122 788.269,-81.3524"/>
<polygon fill="midnightblue" stroke="midnightblue" points="790.269,-84.2243 796.499,-75.6545 786.285,-78.469 790.269,-84.2243"/>
</g>
<!-- Node6 -->
<g id="node6" class="node"><title>Node6</title>
<g id="a_node6"><a xlink:href="../../d5/d93/GPUCommonDefSettings_8h.html" target="_top" xlink:title="GPUCommonDefSettings.h">
<polygon fill="none" stroke="black" points="1200,-0.5 1200,-19.5 1338,-19.5 1338,-0.5 1200,-0.5"/>
<text text-anchor="middle" x="1269" y="-7.5" font-family="Helvetica,sans-Serif" font-size="10.00">GPUCommonDefSettings.h</text>
</a>
</g>
</g>
<!-- Node5&#45;&gt;Node6 -->
<g id="edge5" class="edge"><title>Node5&#45;&gt;Node6</title>
<path fill="none" stroke="midnightblue" d="M1207.73,-56.324C1218.84,-48.1066 1235.74,-35.6017 1248.98,-25.8069"/>
<polygon fill="midnightblue" stroke="midnightblue" points="1251.1,-28.5948 1257.06,-19.8339 1246.94,-22.9671 1251.1,-28.5948"/>
</g>
<!-- Node7 -->
<g id="node7" class="node"><title>Node7</title>
<g id="a_node7"><a xlink:href="../../da/d5a/GPUCommonDefAPI_8h.html" target="_top" xlink:title="GPUCommonDefAPI.h">
<polygon fill="none" stroke="black" points="1062.5,-0.5 1062.5,-19.5 1181.5,-19.5 1181.5,-0.5 1062.5,-0.5"/>
<text text-anchor="middle" x="1122" y="-7.5" font-family="Helvetica,sans-Serif" font-size="10.00">GPUCommonDefAPI.h</text>
</a>
</g>
</g>
<!-- Node5&#45;&gt;Node7 -->
<g id="edge6" class="edge"><title>Node5&#45;&gt;Node7</title>
<path fill="none" stroke="midnightblue" d="M1184.11,-56.324C1172.85,-48.1066 1155.71,-35.6017 1142.29,-25.8069"/>
<polygon fill="midnightblue" stroke="midnightblue" points="1144.25,-22.9014 1134.11,-19.8339 1140.12,-28.5559 1144.25,-22.9014"/>
</g>
<!-- Node12 -->
<g id="node12" class="node"><title>Node12</title>
<polygon fill="none" stroke="#bfbfbf" points="781,-0.5 781,-19.5 837,-19.5 837,-0.5 781,-0.5"/>
<text text-anchor="middle" x="809" y="-7.5" font-family="Helvetica,sans-Serif" font-size="10.00">Rtypes.h</text>
</g>
<!-- Node11&#45;&gt;Node12 -->
<g id="edge11" class="edge"><title>Node11&#45;&gt;Node12</title>
<path fill="none" stroke="midnightblue" d="M809,-56.083C809,-49.0059 809,-38.8611 809,-29.9865"/>
<polygon fill="midnightblue" stroke="midnightblue" points="812.5,-29.751 809,-19.7511 805.5,-29.7511 812.5,-29.751"/>
</g>
<!-- Node14&#45;&gt;Node4 -->
<g id="edge14" class="edge"><title>Node14&#45;&gt;Node4</title>
<path fill="none" stroke="midnightblue" d="M965.504,-224.462C933.01,-216.801 886.107,-204.263 847,-188 812.529,-173.665 775.318,-151.502 752.586,-137.122"/>
<polygon fill="midnightblue" stroke="midnightblue" points="754.368,-134.107 744.059,-131.662 750.593,-140.002 754.368,-134.107"/>
</g>
<!-- Node15 -->
<g id="node15" class="node"><title>Node15</title>
<g id="a_node15"><a xlink:href="../../d4/dc5/GPUDataTypes_8h.html" target="_top" xlink:title="GPUDataTypes.h">
<polygon fill="none" stroke="black" points="1220.5,-168.5 1220.5,-187.5 1315.5,-187.5 1315.5,-168.5 1220.5,-168.5"/>
<text text-anchor="middle" x="1268" y="-175.5" font-family="Helvetica,sans-Serif" font-size="10.00">GPUDataTypes.h</text>
</a>
</g>
</g>
<!-- Node14&#45;&gt;Node15 -->
<g id="edge15" class="edge"><title>Node14&#45;&gt;Node15</title>
<path fill="none" stroke="midnightblue" d="M1046.67,-224.444C1092.75,-214.984 1167,-199.738 1216.63,-189.547"/>
<polygon fill="midnightblue" stroke="midnightblue" points="1217.43,-192.956 1226.52,-187.516 1216.02,-186.099 1217.43,-192.956"/>
</g>
<!-- Node15&#45;&gt;Node5 -->
<g id="edge16" class="edge"><title>Node15&#45;&gt;Node5</title>
<path fill="none" stroke="midnightblue" d="M1262.35,-168.368C1250.47,-150.215 1222.71,-107.802 1207.12,-83.9902"/>
<polygon fill="midnightblue" stroke="midnightblue" points="1210.03,-82.0416 1201.62,-75.5914 1204.17,-85.8753 1210.03,-82.0416"/>
</g>
<!-- Node16 -->
<g id="node16" class="node"><title>Node16</title>
<polygon fill="none" stroke="#bfbfbf" points="1058.5,-112.5 1058.5,-131.5 1107.5,-131.5 1107.5,-112.5 1058.5,-112.5"/>
<text text-anchor="middle" x="1083" y="-119.5" font-family="Helvetica,sans-Serif" font-size="10.00">cstddef</text>
</g>
<!-- Node15&#45;&gt;Node16 -->
<g id="edge17" class="edge"><title>Node15&#45;&gt;Node16</title>
<path fill="none" stroke="midnightblue" d="M1238.69,-168.444C1205.77,-158.835 1152.39,-143.256 1117.49,-133.069"/>
<polygon fill="midnightblue" stroke="midnightblue" points="1118.32,-129.663 1107.74,-130.22 1116.35,-136.382 1118.32,-129.663"/>
</g>
<!-- Node17&#45;&gt;Node15 -->
<g id="edge60" class="edge"><title>Node17&#45;&gt;Node15</title>
<path fill="none" stroke="midnightblue" d="M1127.11,-448.481C1146.98,-420.47 1210.59,-328.199 1248,-244 1254.74,-228.827 1260.11,-210.71 1263.58,-197.461"/>
<polygon fill="midnightblue" stroke="midnightblue" points="1267.01,-198.2 1266.04,-187.65 1260.22,-196.5 1267.01,-198.2"/>
</g>
<!-- Node17&#45;&gt;Node18 -->
<g id="edge19" class="edge"><title>Node17&#45;&gt;Node18</title>
<path fill="none" stroke="midnightblue" d="M1066.93,-453.663C912.247,-444.117 468.71,-416.744 306.422,-406.729"/>
<polygon fill="midnightblue" stroke="midnightblue" points="306.342,-403.217 296.145,-406.095 305.911,-410.204 306.342,-403.217"/>
</g>
<!-- Node26 -->
<g id="node26" class="node"><title>Node26</title>
<g id="a_node26"><a xlink:href="../../df/d13/GPUParam_8h.html" target="_top" xlink:title="GPUParam.h">
<polygon fill="none" stroke="black" points="1071.5,-280.5 1071.5,-299.5 1146.5,-299.5 1146.5,-280.5 1071.5,-280.5"/>
<text text-anchor="middle" x="1109" y="-287.5" font-family="Helvetica,sans-Serif" font-size="10.00">GPUParam.h</text>
</a>
</g>
</g>
<!-- Node17&#45;&gt;Node26 -->
<g id="edge59" class="edge"><title>Node17&#45;&gt;Node26</title>
<path fill="none" stroke="midnightblue" d="M1120.35,-448.075C1118.47,-421.945 1112.92,-345.211 1110.34,-309.577"/>
<polygon fill="midnightblue" stroke="midnightblue" points="1113.83,-309.29 1109.62,-299.568 1106.85,-309.794 1113.83,-309.29"/>
</g>
<!-- Node35 -->
<g id="node35" class="node"><title>Node35</title>
<g id="a_node35"><a xlink:href="../../da/d28/GPUO2FakeClasses_8h.html" target="_top" xlink:title="GPUO2FakeClasses.h">
<polygon fill="none" stroke="black" points="1372.5,-224.5 1372.5,-243.5 1489.5,-243.5 1489.5,-224.5 1372.5,-224.5"/>
<text text-anchor="middle" x="1431" y="-231.5" font-family="Helvetica,sans-Serif" font-size="10.00">GPUO2FakeClasses.h</text>
</a>
</g>
</g>
<!-- Node17&#45;&gt;Node35 -->
<g id="edge61" class="edge"><title>Node17&#45;&gt;Node35</title>
<path fill="none" stroke="midnightblue" d="M1175.05,-450.146C1207.99,-444.048 1249.78,-432.732 1282,-412 1348.38,-369.282 1400.65,-287.841 1421.36,-252.305"/>
<polygon fill="midnightblue" stroke="midnightblue" points="1424.43,-253.989 1426.35,-243.57 1418.35,-250.518 1424.43,-253.989"/>
</g>
<!-- Node18&#45;&gt;Node3 -->
<g id="edge20" class="edge"><title>Node18&#45;&gt;Node3</title>
<path fill="none" stroke="midnightblue" d="M239.174,-392.363C222.839,-371.908 179.815,-319.279 139,-280 116.193,-258.052 75.2269,-248.716 95,-224 113.238,-201.202 190.242,-189.143 243.199,-183.422"/>
<polygon fill="midnightblue" stroke="midnightblue" points="243.859,-186.872 253.446,-182.361 243.138,-179.91 243.859,-186.872"/>
</g>
<!-- Node18&#45;&gt;Node13 -->
<g id="edge22" class="edge"><title>Node18&#45;&gt;Node13</title>
<path fill="none" stroke="midnightblue" d="M296.034,-399.078C406.764,-394.502 680.825,-381.399 909,-356 910.253,-355.86 911.521,-355.713 912.799,-355.56"/>
<polygon fill="midnightblue" stroke="midnightblue" points="913.252,-359.03 922.719,-354.273 912.352,-352.089 913.252,-359.03"/>
</g>
<!-- Node19 -->
<g id="node19" class="node"><title>Node19</title>
<polygon fill="none" stroke="#bfbfbf" points="92,-336.5 92,-355.5 146,-355.5 146,-336.5 92,-336.5"/>
<text text-anchor="middle" x="119" y="-343.5" font-family="Helvetica,sans-Serif" font-size="10.00">iostream</text>
</g>
<!-- Node18&#45;&gt;Node19 -->
<g id="edge21" class="edge"><title>Node18&#45;&gt;Node19</title>
<path fill="none" stroke="midnightblue" d="M225.876,-392.444C204.976,-383.557 172.065,-369.563 148.284,-359.451"/>
<polygon fill="midnightblue" stroke="midnightblue" points="149.602,-356.208 139.029,-355.516 146.862,-362.65 149.602,-356.208"/>
</g>
<!-- Node20 -->
<g id="node20" class="node"><title>Node20</title>
<g id="a_node20"><a xlink:href="../../df/d4a/GPUTPCSliceData_8h.html" target="_top" xlink:title="GPUTPCSliceData.h">
<polygon fill="none" stroke="black" points="493,-336.5 493,-355.5 603,-355.5 603,-336.5 493,-336.5"/>
<text text-anchor="middle" x="548" y="-343.5" font-family="Helvetica,sans-Serif" font-size="10.00">GPUTPCSliceData.h</text>
</a>
</g>
</g>
<!-- Node18&#45;&gt;Node20 -->
<g id="edge23" class="edge"><title>Node18&#45;&gt;Node20</title>
<path fill="none" stroke="midnightblue" d="M293.853,-392.444C347.199,-382.905 433.445,-367.483 490.436,-357.293"/>
<polygon fill="midnightblue" stroke="midnightblue" points="491.143,-360.722 500.371,-355.516 489.911,-353.831 491.143,-360.722"/>
</g>
<!-- Node31 -->
<g id="node31" class="node"><title>Node31</title>
<g id="a_node31"><a xlink:href="../../d6/d57/GPUProcessor_8h.html" target="_top" xlink:title="GPUProcessor.h">
<polygon fill="none" stroke="black" points="856.5,-168.5 856.5,-187.5 947.5,-187.5 947.5,-168.5 856.5,-168.5"/>
<text text-anchor="middle" x="902" y="-175.5" font-family="Helvetica,sans-Serif" font-size="10.00">GPUProcessor.h</text>
</a>
</g>
</g>
<!-- Node18&#45;&gt;Node31 -->
<g id="edge58" class="edge"><title>Node18&#45;&gt;Node31</title>
<path fill="none" stroke="midnightblue" d="M296.033,-400.514C367.646,-398.561 502.784,-390.169 612,-356 714.077,-324.064 736.28,-303.736 825,-244 847.284,-228.996 870.54,-208.604 885.584,-194.686"/>
<polygon fill="midnightblue" stroke="midnightblue" points="888.138,-197.09 893.038,-187.696 883.35,-191.983 888.138,-197.09"/>
</g>
<!-- Node32 -->
<g id="node32" class="node"><title>Node32</title>
<g id="a_node32"><a xlink:href="../../de/d15/GPUTPCTrackParam_8h.html" target="_top" xlink:title="GPUTPCTrackParam.h">
<polygon fill="none" stroke="black" points="186,-280.5 186,-299.5 306,-299.5 306,-280.5 186,-280.5"/>
<text text-anchor="middle" x="246" y="-287.5" font-family="Helvetica,sans-Serif" font-size="10.00">GPUTPCTrackParam.h</text>
</a>
</g>
</g>
<!-- Node18&#45;&gt;Node32 -->
<g id="edge50" class="edge"><title>Node18&#45;&gt;Node32</title>
<path fill="none" stroke="midnightblue" d="M246,-392.368C246,-374.617 246,-333.666 246,-309.597"/>
<polygon fill="midnightblue" stroke="midnightblue" points="249.5,-309.591 246,-299.591 242.5,-309.591 249.5,-309.591"/>
</g>
<!-- Node34 -->
<g id="node34" class="node"><title>Node34</title>
<g id="a_node34"><a xlink:href="../../db/d6e/GPUTPCTracklet_8h.html" target="_top" xlink:title="GPUTPCTracklet.h">
<polygon fill="none" stroke="black" points="28,-280.5 28,-299.5 130,-299.5 130,-280.5 28,-280.5"/>
<text text-anchor="middle" x="79" y="-287.5" font-family="Helvetica,sans-Serif" font-size="10.00">GPUTPCTracklet.h</text>
</a>
</g>
</g>
<!-- Node18&#45;&gt;Node34 -->
<g id="edge55" class="edge"><title>Node18&#45;&gt;Node34</title>
<path fill="none" stroke="midnightblue" d="M195.772,-393.623C153.333,-386.275 97.2393,-373.556 83,-356 72.6599,-343.251 72.7618,-324.056 74.7874,-309.827"/>
<polygon fill="midnightblue" stroke="midnightblue" points="78.2835,-310.168 76.6615,-299.699 71.4004,-308.895 78.2835,-310.168"/>
</g>
<!-- Node20&#45;&gt;Node3 -->
<g id="edge24" class="edge"><title>Node20&#45;&gt;Node3</title>
<path fill="none" stroke="midnightblue" d="M506.382,-336.462C476.483,-329.302 435.83,-317.42 403,-300 367.806,-281.326 359.047,-274.148 333,-244 320.606,-229.654 310.059,-210.701 303.244,-196.965"/>
<polygon fill="midnightblue" stroke="midnightblue" points="306.259,-195.157 298.791,-187.641 299.942,-198.173 306.259,-195.157"/>
</g>
<!-- Node21 -->
<g id="node21" class="node"><title>Node21</title>
<g id="a_node21"><a xlink:href="../../d8/dff/GPUTPCRow_8h.html" target="_top" xlink:title="GPUTPCRow.h">
<polygon fill="none" stroke="black" points="412.5,-280.5 412.5,-299.5 499.5,-299.5 499.5,-280.5 412.5,-280.5"/>
<text text-anchor="middle" x="456" y="-287.5" font-family="Helvetica,sans-Serif" font-size="10.00">GPUTPCRow.h</text>
</a>
</g>
</g>
<!-- Node20&#45;&gt;Node21 -->
<g id="edge25" class="edge"><title>Node20&#45;&gt;Node21</title>
<path fill="none" stroke="midnightblue" d="M533.219,-336.324C518.733,-327.822 496.427,-314.729 479.507,-304.797"/>
<polygon fill="midnightblue" stroke="midnightblue" points="481.141,-301.698 470.745,-299.655 477.597,-307.735 481.141,-301.698"/>
</g>
<!-- Node20&#45;&gt;Node23 -->
<g id="edge29" class="edge"><title>Node20&#45;&gt;Node23</title>
<path fill="none" stroke="midnightblue" d="M572.938,-336.442C634.551,-315.483 799.113,-260.629 939,-224 990.856,-210.422 1050.72,-197.842 1093.05,-189.456"/>
<polygon fill="midnightblue" stroke="midnightblue" points="1093.75,-192.886 1102.88,-187.521 1092.4,-186.018 1093.75,-192.886"/>
</g>
<!-- Node20&#45;&gt;Node26 -->
<g id="edge33" class="edge"><title>Node20&#45;&gt;Node26</title>
<path fill="none" stroke="midnightblue" d="M603.069,-339.699C712.9,-329.127 957.513,-305.582 1061.14,-295.607"/>
<polygon fill="midnightblue" stroke="midnightblue" points="1061.69,-299.071 1071.3,-294.628 1061.01,-292.103 1061.69,-299.071"/>
</g>
<!-- Node30 -->
<g id="node30" class="node"><title>Node30</title>
<g id="a_node30"><a xlink:href="../../d5/da6/GPUMemoryResource_8h.html" target="_top" xlink:title="GPUMemoryResource.h">
<polygon fill="none" stroke="black" points="692,-224.5 692,-243.5 816,-243.5 816,-224.5 692,-224.5"/>
<text text-anchor="middle" x="754" y="-231.5" font-family="Helvetica,sans-Serif" font-size="10.00">GPUMemoryResource.h</text>
</a>
</g>
</g>
<!-- Node20&#45;&gt;Node30 -->
<g id="edge43" class="edge"><title>Node20&#45;&gt;Node30</title>
<path fill="none" stroke="midnightblue" d="M564.164,-336.368C599.965,-317.251 686.153,-271.229 728.979,-248.361"/>
<polygon fill="midnightblue" stroke="midnightblue" points="730.738,-251.389 737.911,-243.591 727.441,-245.214 730.738,-251.389"/>
</g>
<!-- Node21&#45;&gt;Node3 -->
<g id="edge26" class="edge"><title>Node21&#45;&gt;Node3</title>
<path fill="none" stroke="midnightblue" d="M455.77,-280.132C454.928,-266.265 451.281,-239.442 436,-224 412.556,-200.31 376.672,-189.074 346.973,-183.753"/>
<polygon fill="midnightblue" stroke="midnightblue" points="347.185,-180.243 336.756,-182.107 346.072,-187.153 347.185,-180.243"/>
</g>
<!-- Node22 -->
<g id="node22" class="node"><title>Node22</title>
<g id="a_node22"><a xlink:href="../../d3/da7/GPUTPCGrid_8h.html" target="_top" xlink:title="GPUTPCGrid.h">
<polygon fill="none" stroke="black" points="342.5,-224.5 342.5,-243.5 427.5,-243.5 427.5,-224.5 342.5,-224.5"/>
<text text-anchor="middle" x="385" y="-231.5" font-family="Helvetica,sans-Serif" font-size="10.00">GPUTPCGrid.h</text>
</a>
</g>
</g>
<!-- Node21&#45;&gt;Node22 -->
<g id="edge27" class="edge"><title>Node21&#45;&gt;Node22</title>
<path fill="none" stroke="midnightblue" d="M444.593,-280.324C433.891,-272.185 417.659,-259.839 404.837,-250.087"/>
<polygon fill="midnightblue" stroke="midnightblue" points="406.693,-247.102 396.615,-243.834 402.456,-252.673 406.693,-247.102"/>
</g>
<!-- Node22&#45;&gt;Node3 -->
<g id="edge28" class="edge"><title>Node22&#45;&gt;Node3</title>
<path fill="none" stroke="midnightblue" d="M370.54,-224.324C356.5,-215.9 334.952,-202.971 318.457,-193.074"/>
<polygon fill="midnightblue" stroke="midnightblue" points="319.8,-189.798 309.424,-187.655 316.198,-195.801 319.8,-189.798"/>
</g>
<!-- Node23&#45;&gt;Node5 -->
<g id="edge30" class="edge"><title>Node23&#45;&gt;Node5</title>
<path fill="none" stroke="midnightblue" d="M1155.41,-168.257C1162.41,-159.575 1172.76,-145.628 1179,-132 1185.83,-117.087 1190.29,-98.9443 1192.92,-85.6201"/>
<polygon fill="midnightblue" stroke="midnightblue" points="1196.37,-86.2016 1194.71,-75.7377 1189.48,-84.9534 1196.37,-86.2016"/>
</g>
<!-- Node24 -->
<g id="node24" class="node"><title>Node24</title>
<polygon fill="none" stroke="#bfbfbf" points="1126,-112.5 1126,-131.5 1170,-131.5 1170,-112.5 1126,-112.5"/>
<text text-anchor="middle" x="1148" y="-119.5" font-family="Helvetica,sans-Serif" font-size="10.00">cmath</text>
</g>
<!-- Node23&#45;&gt;Node24 -->
<g id="edge31" class="edge"><title>Node23&#45;&gt;Node24</title>
<path fill="none" stroke="midnightblue" d="M1148,-168.083C1148,-161.006 1148,-150.861 1148,-141.986"/>
<polygon fill="midnightblue" stroke="midnightblue" points="1151.5,-141.751 1148,-131.751 1144.5,-141.751 1151.5,-141.751"/>
</g>
<!-- Node25 -->
<g id="node25" class="node"><title>Node25</title>
<polygon fill="none" stroke="#bfbfbf" points="984,-112.5 984,-131.5 1040,-131.5 1040,-112.5 984,-112.5"/>
<text text-anchor="middle" x="1012" y="-119.5" font-family="Helvetica,sans-Serif" font-size="10.00">algorithm</text>
</g>
<!-- Node23&#45;&gt;Node25 -->
<g id="edge32" class="edge"><title>Node23&#45;&gt;Node25</title>
<path fill="none" stroke="midnightblue" d="M1126.45,-168.444C1103.97,-159.517 1068.51,-145.439 1043.02,-135.317"/>
<polygon fill="midnightblue" stroke="midnightblue" points="1044.03,-131.954 1033.45,-131.516 1041.45,-138.46 1044.03,-131.954"/>
</g>
<!-- Node26&#45;&gt;Node4 -->
<g id="edge36" class="edge"><title>Node26&#45;&gt;Node4</title>
<path fill="none" stroke="midnightblue" d="M1071.34,-287.842C972.019,-284.402 708.776,-272.642 683,-244 655.292,-213.211 691.862,-164.487 714.874,-139.29"/>
<polygon fill="midnightblue" stroke="midnightblue" points="717.717,-141.378 722.046,-131.707 712.632,-136.568 717.717,-141.378"/>
</g>
<!-- Node26&#45;&gt;Node5 -->
<g id="edge34" class="edge"><title>Node26&#45;&gt;Node5</title>
<path fill="none" stroke="midnightblue" d="M1146.74,-285.006C1199.17,-277.102 1291.37,-254.032 1325,-188 1350.24,-138.441 1275.19,-98.4418 1229.13,-79.2814"/>
<polygon fill="midnightblue" stroke="midnightblue" points="1230.37,-76.008 1219.79,-75.5131 1227.76,-82.4998 1230.37,-76.008"/>
</g>
<!-- Node26&#45;&gt;Node23 -->
<g id="edge35" class="edge"><title>Node26&#45;&gt;Node23</title>
<path fill="none" stroke="midnightblue" d="M1112.06,-280.368C1118.38,-262.537 1133,-221.295 1141.52,-197.272"/>
<polygon fill="midnightblue" stroke="midnightblue" points="1144.91,-198.186 1144.95,-187.591 1138.31,-195.847 1144.91,-198.186"/>
</g>
<!-- Node27 -->
<g id="node27" class="node"><title>Node27</title>
<g id="a_node27"><a xlink:href="../../dd/dc6/GPUSettings_8h.html" target="_top" xlink:title="GPUSettings.h">
<polygon fill="none" stroke="black" points="1156.5,-224.5 1156.5,-243.5 1239.5,-243.5 1239.5,-224.5 1156.5,-224.5"/>
<text text-anchor="middle" x="1198" y="-231.5" font-family="Helvetica,sans-Serif" font-size="10.00">GPUSettings.h</text>
</a>
</g>
</g>
<!-- Node26&#45;&gt;Node27 -->
<g id="edge37" class="edge"><title>Node26&#45;&gt;Node27</title>
<path fill="none" stroke="midnightblue" d="M1123.3,-280.324C1137.18,-271.9 1158.49,-258.971 1174.8,-249.074"/>
<polygon fill="midnightblue" stroke="midnightblue" points="1177,-251.834 1183.74,-243.655 1173.37,-245.85 1177,-251.834"/>
</g>
<!-- Node28 -->
<g id="node28" class="node"><title>Node28</title>
<g id="a_node28"><a xlink:href="../../d6/d1b/GPUTPCGeometry_8h.html" target="_top" xlink:title="GPUTPCGeometry.h">
<polygon fill="none" stroke="black" points="966,-168.5 966,-187.5 1076,-187.5 1076,-168.5 966,-168.5"/>
<text text-anchor="middle" x="1021" y="-175.5" font-family="Helvetica,sans-Serif" font-size="10.00">GPUTPCGeometry.h</text>
</a>
</g>
</g>
<!-- Node26&#45;&gt;Node28 -->
<g id="edge39" class="edge"><title>Node26&#45;&gt;Node28</title>
<path fill="none" stroke="midnightblue" d="M1104.9,-280.499C1098.46,-267.584 1085.14,-242.561 1070,-224 1061.08,-213.062 1049.51,-202.313 1039.85,-194.064"/>
<polygon fill="midnightblue" stroke="midnightblue" points="1041.9,-191.216 1031.97,-187.517 1037.43,-196.6 1041.9,-191.216"/>
</g>
<!-- Node29 -->
<g id="node29" class="node"><title>Node29</title>
<g id="a_node29"><a xlink:href="../../d9/d9c/GPUTPCGMPolynomialField_8h.html" target="_top" xlink:title="GPUTPCGMPolynomialField.h">
<polygon fill="none" stroke="black" points="484,-224.5 484,-243.5 636,-243.5 636,-224.5 484,-224.5"/>
<text text-anchor="middle" x="560" y="-231.5" font-family="Helvetica,sans-Serif" font-size="10.00">GPUTPCGMPolynomialField.h</text>
</a>
</g>
</g>
<!-- Node26&#45;&gt;Node29 -->
<g id="edge41" class="edge"><title>Node26&#45;&gt;Node29</title>
<path fill="none" stroke="midnightblue" d="M1071.21,-285.321C992.738,-277.673 806.372,-259.484 650,-244 648.725,-243.874 647.441,-243.746 646.148,-243.618"/>
<polygon fill="midnightblue" stroke="midnightblue" points="646.404,-240.127 636.107,-242.621 645.713,-247.092 646.404,-240.127"/>
</g>
<!-- Node27&#45;&gt;Node23 -->
<g id="edge38" class="edge"><title>Node27&#45;&gt;Node23</title>
<path fill="none" stroke="midnightblue" d="M1189.74,-224.083C1182.54,-216.298 1171.89,-204.801 1163.15,-195.367"/>
<polygon fill="midnightblue" stroke="midnightblue" points="1165.47,-192.711 1156.1,-187.751 1160.33,-197.467 1165.47,-192.711"/>
</g>
<!-- Node28&#45;&gt;Node5 -->
<g id="edge40" class="edge"><title>Node28&#45;&gt;Node5</title>
<path fill="none" stroke="midnightblue" d="M1007.08,-168.311C988.394,-155.578 959.257,-131.272 975,-112 994.834,-87.7206 1076.33,-76.2082 1134.58,-70.9908"/>
<polygon fill="midnightblue" stroke="midnightblue" points="1135.14,-74.4561 1144.81,-70.1177 1134.54,-67.4815 1135.14,-74.4561"/>
</g>
<!-- Node29&#45;&gt;Node3 -->
<g id="edge42" class="edge"><title>Node29&#45;&gt;Node3</title>
<path fill="none" stroke="midnightblue" d="M518.01,-224.444C471.588,-214.984 396.772,-199.738 346.76,-189.547"/>
<polygon fill="midnightblue" stroke="midnightblue" points="347.291,-186.084 336.794,-187.516 345.893,-192.943 347.291,-186.084"/>
</g>
<!-- Node30&#45;&gt;Node5 -->
<g id="edge44" class="edge"><title>Node30&#45;&gt;Node5</title>
<path fill="none" stroke="midnightblue" d="M765.898,-224.379C783.451,-211.731 817.406,-187.529 847,-168 886.321,-142.052 892.981,-128.786 937,-112 1001.9,-87.2514 1081.17,-76.0245 1134.79,-70.9889"/>
<polygon fill="midnightblue" stroke="midnightblue" points="1135.18,-74.4683 1144.83,-70.0905 1134.55,-67.4961 1135.18,-74.4683"/>
</g>
<!-- Node30&#45;&gt;Node31 -->
<g id="edge45" class="edge"><title>Node30&#45;&gt;Node31</title>
<path fill="none" stroke="midnightblue" d="M777.451,-224.444C802.133,-215.438 841.185,-201.189 868.977,-191.049"/>
<polygon fill="midnightblue" stroke="midnightblue" points="870.464,-194.232 878.659,-187.516 868.065,-187.656 870.464,-194.232"/>
</g>
<!-- Node31&#45;&gt;Node4 -->
<g id="edge47" class="edge"><title>Node31&#45;&gt;Node4</title>
<path fill="none" stroke="midnightblue" d="M874.905,-168.444C846.012,-159.32 800.075,-144.813 767.895,-134.651"/>
<polygon fill="midnightblue" stroke="midnightblue" points="768.559,-131.19 757.969,-131.516 766.451,-137.865 768.559,-131.19"/>
</g>
<!-- Node31&#45;&gt;Node5 -->
<g id="edge46" class="edge"><title>Node31&#45;&gt;Node5</title>
<path fill="none" stroke="midnightblue" d="M908.046,-168.21C918.362,-153.949 940.805,-125.963 967,-112 1019.3,-84.1238 1086.59,-73.412 1134.67,-69.3506"/>
<polygon fill="midnightblue" stroke="midnightblue" points="1135.23,-72.8181 1144.93,-68.5599 1134.69,-65.8388 1135.23,-72.8181"/>
</g>
<!-- Node31&#45;&gt;Node16 -->
<g id="edge48" class="edge"><title>Node31&#45;&gt;Node16</title>
<path fill="none" stroke="midnightblue" d="M930.68,-168.444C962.569,-158.93 1014.07,-143.564 1048.23,-133.373"/>
<polygon fill="midnightblue" stroke="midnightblue" points="1049.65,-136.601 1058.24,-130.388 1047.65,-129.893 1049.65,-136.601"/>
</g>
<!-- Node31&#45;&gt;Node25 -->
<g id="edge49" class="edge"><title>Node31&#45;&gt;Node25</title>
<path fill="none" stroke="midnightblue" d="M919.673,-168.324C937.394,-159.625 964.903,-146.12 985.288,-136.113"/>
<polygon fill="midnightblue" stroke="midnightblue" points="986.936,-139.203 994.37,-131.655 983.851,-132.919 986.936,-139.203"/>
</g>
<!-- Node32&#45;&gt;Node3 -->
<g id="edge53" class="edge"><title>Node32&#45;&gt;Node3</title>
<path fill="none" stroke="midnightblue" d="M249.845,-280.368C257.824,-262.456 276.325,-220.923 287.005,-196.948"/>
<polygon fill="midnightblue" stroke="midnightblue" points="290.301,-198.15 291.173,-187.591 283.907,-195.302 290.301,-198.15"/>
</g>
<!-- Node32&#45;&gt;Node23 -->
<g id="edge54" class="edge"><title>Node32&#45;&gt;Node23</title>
<path fill="none" stroke="midnightblue" d="M306.101,-285.547C444.136,-277.441 775.78,-256.907 825,-244 845.388,-238.654 847.848,-230.175 868,-224 888.245,-217.796 1007.72,-199.61 1083.92,-188.347"/>
<polygon fill="midnightblue" stroke="midnightblue" points="1084.52,-191.795 1093.91,-186.873 1083.5,-184.87 1084.52,-191.795"/>
</g>
<!-- Node33 -->
<g id="node33" class="node"><title>Node33</title>
<g id="a_node33"><a xlink:href="../../df/d00/GPUTPCBaseTrackParam_8h.html" target="_top" xlink:title="GPUTPCBaseTrackParam.h">
<polygon fill="none" stroke="black" points="104.5,-224.5 104.5,-243.5 247.5,-243.5 247.5,-224.5 104.5,-224.5"/>
<text text-anchor="middle" x="176" y="-231.5" font-family="Helvetica,sans-Serif" font-size="10.00">GPUTPCBaseTrackParam.h</text>
</a>
</g>
</g>
<!-- Node32&#45;&gt;Node33 -->
<g id="edge51" class="edge"><title>Node32&#45;&gt;Node33</title>
<path fill="none" stroke="midnightblue" d="M234.753,-280.324C224.203,-272.185 208.199,-259.839 195.558,-250.087"/>
<polygon fill="midnightblue" stroke="midnightblue" points="197.507,-247.171 187.451,-243.834 193.231,-252.713 197.507,-247.171"/>
</g>
<!-- Node33&#45;&gt;Node3 -->
<g id="edge52" class="edge"><title>Node33&#45;&gt;Node3</title>
<path fill="none" stroke="midnightblue" d="M194.856,-224.444C214.266,-215.636 244.73,-201.812 266.965,-191.722"/>
<polygon fill="midnightblue" stroke="midnightblue" points="268.572,-194.836 276.232,-187.516 265.68,-188.462 268.572,-194.836"/>
</g>
<!-- Node34&#45;&gt;Node3 -->
<g id="edge57" class="edge"><title>Node34&#45;&gt;Node3</title>
<path fill="none" stroke="midnightblue" d="M72.4803,-280.395C63.0975,-266.89 48.3384,-240.553 62,-224 84.4975,-196.742 181.499,-185.808 243.032,-181.561"/>
<polygon fill="midnightblue" stroke="midnightblue" points="243.582,-185.032 253.333,-180.889 243.127,-178.047 243.582,-185.032"/>
</g>
<!-- Node34&#45;&gt;Node33 -->
<g id="edge56" class="edge"><title>Node34&#45;&gt;Node33</title>
<path fill="none" stroke="midnightblue" d="M94.5847,-280.324C109.999,-271.743 133.812,-258.486 151.71,-248.522"/>
<polygon fill="midnightblue" stroke="midnightblue" points="153.419,-251.577 160.454,-243.655 150.014,-245.461 153.419,-251.577"/>
</g>
<!-- Node35&#45;&gt;Node5 -->
<g id="edge62" class="edge"><title>Node35&#45;&gt;Node5</title>
<path fill="none" stroke="midnightblue" d="M1428.34,-224.453C1420.99,-202.289 1398.25,-142.564 1358,-112 1328.93,-89.9233 1289.6,-78.6771 1256.97,-72.9482"/>
<polygon fill="midnightblue" stroke="midnightblue" points="1257.51,-69.4902 1247.08,-71.3415 1256.39,-76.3996 1257.51,-69.4902"/>
</g>
<!-- Node35&#45;&gt;Node15 -->
<g id="edge63" class="edge"><title>Node35&#45;&gt;Node15</title>
<path fill="none" stroke="midnightblue" d="M1405.17,-224.444C1377.75,-215.359 1334.22,-200.939 1303.57,-190.783"/>
<polygon fill="midnightblue" stroke="midnightblue" points="1304.3,-187.339 1293.71,-187.516 1302.1,-193.984 1304.3,-187.339"/>
</g>
</g>
</svg>
        <g id="navigator" transform="translate(0 0)" fill="#404254">
                <rect fill="#f2f5e9" fill-opacity="0.5" stroke="#606060" stroke-width=".5" x="0" y="0" width="60" height="60"/>
                <use id="zoomplus" xlink:href="#zoomPlus" x="17" y="9" onmousedown="handleZoom(evt,'in')"/>
                <use id="zoomminus" xlink:href="#zoomMin" x="42" y="9" onmousedown="handleZoom(evt,'out')"/>
                <use id="reset" xlink:href="#resetDef" x="30" y="36" onmousedown="handleReset()"/>
                <g id="arrowUp" xlink:href="#dirArrow" transform="translate(30 24)" onmousedown="handlePan(0,-1)">
                  <use xlink:href="#rim" fill="#404040">
                        <set attributeName="fill" to="#808080" begin="arrowUp.mouseover" end="arrowUp.mouseout"/>
                  </use>
                  <path fill="none" stroke="white" stroke-width="1.5" d="M0,-3.0v7 M-2.5,-0.5L0,-3.0L2.5,-0.5"/>
                </g>
                <g id="arrowRight" xlink:href="#dirArrow" transform="rotate(90) translate(36 -43)" onmousedown="handlePan(1,0)">
                  <use xlink:href="#rim" fill="#404040">
                        <set attributeName="fill" to="#808080" begin="arrowRight.mouseover" end="arrowRight.mouseout"/>
                  </use>
                  <path fill="none" stroke="white" stroke-width="1.5" d="M0,-3.0v7 M-2.5,-0.5L0,-3.0L2.5,-0.5"/>
                </g>
                <g id="arrowDown" xlink:href="#dirArrow" transform="rotate(180) translate(-30 -48)" onmousedown="handlePan(0,1)">
                  <use xlink:href="#rim" fill="#404040">
                        <set attributeName="fill" to="#808080" begin="arrowDown.mouseover" end="arrowDown.mouseout"/>
                  </use>
                  <path fill="none" stroke="white" stroke-width="1.5" d="M0,-3.0v7 M-2.5,-0.5L0,-3.0L2.5,-0.5"/>
                </g>
                <g id="arrowLeft" xlink:href="#dirArrow" transform="rotate(270) translate(-36 17)" onmousedown="handlePan(-1,0)">
                  <use xlink:href="#rim" fill="#404040">
                        <set attributeName="fill" to="#808080" begin="arrowLeft.mouseover" end="arrowLeft.mouseout"/>
                  </use>
                  <path fill="none" stroke="white" stroke-width="1.5" d="M0,-3.0v7 M-2.5,-0.5L0,-3.0L2.5,-0.5"/>
                </g>
        </g>
        <svg viewBox="0 0 15 15" width="100%" height="30px" preserveAspectRatio="xMaxYMin meet">
         <g id="arrow_out" transform="scale(0.3 0.3)">
          <a xlink:href="GPUTPCStartHitsFinder_8cxx__incl_org.svg" target="_base">
           <rect id="button" ry="5" rx="5" y="6" x="6" height="38" width="38"
                fill="#f2f5e9" fill-opacity="0.5" stroke="#606060" stroke-width="1.0"/>
           <path id="arrow"
             d="M 11.500037,31.436501 C 11.940474,20.09759 22.043105,11.32322 32.158766,21.979434 L 37.068811,17.246167 C 37.068811,17.246167 37.088388,32 37.088388,32 L 22.160133,31.978069 C 22.160133,31.978069 26.997745,27.140456 26.997745,27.140456 C 18.528582,18.264221 13.291696,25.230495 11.500037,31.436501 z"
             style="fill:#404040;"/>
          </a>
         </g>
        </svg>
</svg>
