<?xml version="1.0" encoding="UTF-8" standalone="no"?>
<!DOCTYPE svg PUBLIC "-//W3C//DTD SVG 1.1//EN"
 "http://www.w3.org/Graphics/SVG/1.1/DTD/svg11.dtd">
<!-- Generated by graphviz version 2.38.0 (20140413.2041)
 -->
<!-- Title: /home/travis/build/AliceO2Group/AliceO2/Detectors/MUON/MID/Clustering/src/Clusterizer.cxx Pages: 1 -->
<svg width="1266pt" height="363pt"
 viewBox="0.00 0.00 1265.50 363.00" xmlns="http://www.w3.org/2000/svg" xmlns:xlink="http://www.w3.org/1999/xlink">
<g id="graph0" class="graph" transform="scale(1 1) rotate(0) translate(4 359)">
<title>/home/travis/build/AliceO2Group/AliceO2/Detectors/MUON/MID/Clustering/src/Clusterizer.cxx</title>
<!-- Node1 -->
<g id="node1" class="node"><title>Node1</title>
<polygon fill="#bfbfbf" stroke="black" points="434,-302.5 434,-354.5 599,-354.5 599,-302.5 434,-302.5"/>
<text text-anchor="start" x="442" y="-342.5" font-family="Helvetica,sans-Serif" font-size="10.00">/home/travis/build</text>
<text text-anchor="start" x="442" y="-331.5" font-family="Helvetica,sans-Serif" font-size="10.00">/AliceO2Group/AliceO2</text>
<text text-anchor="start" x="442" y="-320.5" font-family="Helvetica,sans-Serif" font-size="10.00">/Detectors/MUON/MID/Clustering</text>
<text text-anchor="middle" x="516.5" y="-309.5" font-family="Helvetica,sans-Serif" font-size="10.00">/src/Clusterizer.cxx</text>
</g>
<!-- Node2 -->
<g id="node2" class="node"><title>Node2</title>
<g id="a_node2"><a xlink:href="../../d5/d53/Clusterizer_8h.html" target="_top" xlink:title="Cluster reconstruction algorithm for MID. ">
<polygon fill="none" stroke="black" points="379.5,-246.5 379.5,-265.5 517.5,-265.5 517.5,-246.5 379.5,-246.5"/>
<text text-anchor="middle" x="448.5" y="-253.5" font-family="Helvetica,sans-Serif" font-size="10.00">MIDClustering/Clusterizer.h</text>
</a>
</g>
</g>
<!-- Node1&#45;&gt;Node2 -->
<g id="edge1" class="edge"><title>Node1&#45;&gt;Node2</title>
<path fill="none" stroke="midnightblue" d="M492.334,-302.446C482.865,-292.628 472.282,-281.656 463.887,-272.952"/>
<polygon fill="midnightblue" stroke="midnightblue" points="466.349,-270.463 456.887,-265.695 461.31,-275.323 466.349,-270.463"/>
</g>
<!-- Node22 -->
<g id="node22" class="node"><title>Node22</title>
<polygon fill="none" stroke="#bfbfbf" points="536,-246.5 536,-265.5 633,-265.5 633,-246.5 536,-246.5"/>
<text text-anchor="middle" x="584.5" y="-253.5" font-family="Helvetica,sans-Serif" font-size="10.00">fairlogger/Logger.h</text>
</g>
<!-- Node1&#45;&gt;Node22 -->
<g id="edge32" class="edge"><title>Node1&#45;&gt;Node22</title>
<path fill="none" stroke="midnightblue" d="M540.666,-302.446C550.135,-292.628 560.718,-281.656 569.113,-272.952"/>
<polygon fill="midnightblue" stroke="midnightblue" points="571.69,-275.323 576.113,-265.695 566.651,-270.463 571.69,-275.323"/>
</g>
<!-- Node3 -->
<g id="node3" class="node"><title>Node3</title>
<polygon fill="none" stroke="#bfbfbf" points="0,-185 0,-204 59,-204 59,-185 0,-185"/>
<text text-anchor="middle" x="29.5" y="-192" font-family="Helvetica,sans-Serif" font-size="10.00">functional</text>
</g>
<!-- Node2&#45;&gt;Node3 -->
<g id="edge2" class="edge"><title>Node2&#45;&gt;Node3</title>
<path fill="none" stroke="midnightblue" d="M379.454,-251.971C302.42,-247.413 174.545,-236.314 67.5,-210 64.6715,-209.305 61.7679,-208.457 58.8868,-207.524"/>
<polygon fill="midnightblue" stroke="midnightblue" points="59.9149,-204.175 49.3202,-204.121 57.569,-210.77 59.9149,-204.175"/>
</g>
<!-- Node4 -->
<g id="node4" class="node"><title>Node4</title>
<polygon fill="none" stroke="#bfbfbf" points="77,-185 77,-204 160,-204 160,-185 77,-185"/>
<text text-anchor="middle" x="118.5" y="-192" font-family="Helvetica,sans-Serif" font-size="10.00">unordered_map</text>
</g>
<!-- Node2&#45;&gt;Node4 -->
<g id="edge3" class="edge"><title>Node2&#45;&gt;Node4</title>
<path fill="none" stroke="midnightblue" d="M386.718,-246.486C330.989,-238.42 246.901,-225.286 174.5,-210 169.53,-208.951 164.338,-207.75 159.206,-206.499"/>
<polygon fill="midnightblue" stroke="midnightblue" points="160.035,-203.098 149.484,-204.057 158.33,-209.888 160.035,-203.098"/>
</g>
<!-- Node5 -->
<g id="node5" class="node"><title>Node5</title>
<polygon fill="none" stroke="#bfbfbf" points="323.5,-56.5 323.5,-75.5 367.5,-75.5 367.5,-56.5 323.5,-56.5"/>
<text text-anchor="middle" x="345.5" y="-63.5" font-family="Helvetica,sans-Serif" font-size="10.00">vector</text>
</g>
<!-- Node2&#45;&gt;Node5 -->
<g id="edge4" class="edge"><title>Node2&#45;&gt;Node5</title>
<path fill="none" stroke="midnightblue" d="M391.567,-246.456C333.863,-234.424 247.554,-206.378 207.5,-143 200.139,-131.353 199.408,-123.151 207.5,-112 231.437,-79.0175 280.202,-69.7482 312.874,-67.3942"/>
<polygon fill="midnightblue" stroke="midnightblue" points="313.48,-70.8669 323.278,-66.8368 313.105,-63.8769 313.48,-70.8669"/>
</g>
<!-- Node6 -->
<g id="node6" class="node"><title>Node6</title>
<polygon fill="none" stroke="#bfbfbf" points="829,-185 829,-204 874,-204 874,-185 829,-185"/>
<text text-anchor="middle" x="851.5" y="-192" font-family="Helvetica,sans-Serif" font-size="10.00">gsl/gsl</text>
</g>
<!-- Node2&#45;&gt;Node6 -->
<g id="edge5" class="edge"><title>Node2&#45;&gt;Node6</title>
<path fill="none" stroke="midnightblue" d="M517.898,-246.852C623.287,-234.44 812.305,-212.015 819.5,-210 821.647,-209.399 823.834,-208.673 826.005,-207.871"/>
<polygon fill="midnightblue" stroke="midnightblue" points="827.369,-211.095 835.252,-204.016 824.675,-204.634 827.369,-211.095"/>
</g>
<!-- Node7 -->
<g id="node7" class="node"><title>Node7</title>
<g id="a_node7"><a xlink:href="../../d6/d31/Cluster2D_8h.html" target="_top" xlink:title="Reconstructed cluster per RPC. ">
<polygon fill="none" stroke="black" points="748.5,-118 748.5,-137 896.5,-137 896.5,-118 748.5,-118"/>
<text text-anchor="middle" x="822.5" y="-125" font-family="Helvetica,sans-Serif" font-size="10.00">DataFormatsMID/Cluster2D.h</text>
</a>
</g>
</g>
<!-- Node2&#45;&gt;Node7 -->
<g id="edge6" class="edge"><title>Node2&#45;&gt;Node7</title>
<path fill="none" stroke="midnightblue" d="M493.132,-246.441C524.967,-239.3 568.209,-227.45 603.5,-210 624.297,-199.717 624.679,-189.235 645.5,-179 683.771,-160.187 730.242,-147.265 765.962,-139.204"/>
<polygon fill="midnightblue" stroke="midnightblue" points="766.719,-142.621 775.736,-137.059 765.218,-135.784 766.719,-142.621"/>
</g>
<!-- Node10 -->
<g id="node10" class="node"><title>Node10</title>
<g id="a_node10"><a xlink:href="../../d2/df9/MUON_2MID_2include_2DataFormatsMID_2ROFRecord_8h.html" target="_top" xlink:title="Definition of the MID event record. ">
<polygon fill="none" stroke="black" points="654.5,-185 654.5,-204 810.5,-204 810.5,-185 654.5,-185"/>
<text text-anchor="middle" x="732.5" y="-192" font-family="Helvetica,sans-Serif" font-size="10.00">DataFormatsMID/ROFRecord.h</text>
</a>
</g>
</g>
<!-- Node2&#45;&gt;Node10 -->
<g id="edge9" class="edge"><title>Node2&#45;&gt;Node10</title>
<path fill="none" stroke="midnightblue" d="M489.19,-246.475C540.015,-235.827 626.971,-217.609 681.998,-206.081"/>
<polygon fill="midnightblue" stroke="midnightblue" points="682.815,-209.485 691.885,-204.009 681.38,-202.634 682.815,-209.485"/>
</g>
<!-- Node16 -->
<g id="node16" class="node"><title>Node16</title>
<g id="a_node16"><a xlink:href="../../d7/d0a/MpArea_8h.html" target="_top" xlink:title="Mapping area for MID. ">
<polygon fill="none" stroke="black" points="387,-56.5 387,-75.5 490,-75.5 490,-56.5 387,-56.5"/>
<text text-anchor="middle" x="438.5" y="-63.5" font-family="Helvetica,sans-Serif" font-size="10.00">MIDBase/MpArea.h</text>
</a>
</g>
</g>
<!-- Node2&#45;&gt;Node16 -->
<g id="edge16" class="edge"><title>Node2&#45;&gt;Node16</title>
<path fill="none" stroke="midnightblue" d="M441.61,-246.319C435.231,-237.684 426.192,-223.77 422.5,-210 410.787,-166.313 423.645,-112.893 432.177,-85.3591"/>
<polygon fill="midnightblue" stroke="midnightblue" points="435.605,-86.1383 435.382,-75.5458 428.951,-83.9651 435.605,-86.1383"/>
</g>
<!-- Node18 -->
<g id="node18" class="node"><title>Node18</title>
<g id="a_node18"><a xlink:href="../../db/dfb/PreCluster_8h.html" target="_top" xlink:title="Pre&#45;cluster structure for MID. ">
<polygon fill="none" stroke="black" points="593,-118 593,-137 730,-137 730,-118 593,-118"/>
<text text-anchor="middle" x="661.5" y="-125" font-family="Helvetica,sans-Serif" font-size="10.00">MIDClustering/PreCluster.h</text>
</a>
</g>
</g>
<!-- Node2&#45;&gt;Node18 -->
<g id="edge18" class="edge"><title>Node2&#45;&gt;Node18</title>
<path fill="none" stroke="midnightblue" d="M481.041,-246.465C506.274,-239.023 541.538,-226.78 569.5,-210 599.963,-191.719 629.717,-162.742 646.798,-144.716"/>
<polygon fill="midnightblue" stroke="midnightblue" points="649.465,-146.988 653.712,-137.282 644.339,-142.221 649.465,-146.988"/>
</g>
<!-- Node19 -->
<g id="node19" class="node"><title>Node19</title>
<g id="a_node19"><a xlink:href="../../d8/dc8/PreClusterHelper_8h.html" target="_top" xlink:title="Pre&#45;clusters helper for MID. ">
<polygon fill="none" stroke="black" points="431,-179.5 431,-209.5 560,-209.5 560,-179.5 431,-179.5"/>
<text text-anchor="start" x="439" y="-197.5" font-family="Helvetica,sans-Serif" font-size="10.00">MIDClustering/PreCluster</text>
<text text-anchor="middle" x="495.5" y="-186.5" font-family="Helvetica,sans-Serif" font-size="10.00">Helper.h</text>
</a>
</g>
</g>
<!-- Node2&#45;&gt;Node19 -->
<g id="edge21" class="edge"><title>Node2&#45;&gt;Node19</title>
<path fill="none" stroke="midnightblue" d="M455.234,-246.475C461.183,-238.944 470.123,-227.626 478.069,-217.566"/>
<polygon fill="midnightblue" stroke="midnightblue" points="480.971,-219.54 484.423,-209.523 475.478,-215.201 480.971,-219.54"/>
</g>
<!-- Node21 -->
<g id="node21" class="node"><title>Node21</title>
<g id="a_node21"><a xlink:href="../../d3/dde/PreClustersDE_8h.html" target="_top" xlink:title="Structure with pre&#45;clusters in the MID detection element. ">
<polygon fill="none" stroke="black" points="217,-118 217,-137 374,-137 374,-118 217,-118"/>
<text text-anchor="middle" x="295.5" y="-125" font-family="Helvetica,sans-Serif" font-size="10.00">MIDClustering/PreClustersDE.h</text>
</a>
</g>
</g>
<!-- Node2&#45;&gt;Node21 -->
<g id="edge28" class="edge"><title>Node2&#45;&gt;Node21</title>
<path fill="none" stroke="midnightblue" d="M436.341,-246.299C424.072,-237.422 404.679,-223.125 388.5,-210 361.174,-187.833 330.718,-160.644 312.34,-143.949"/>
<polygon fill="midnightblue" stroke="midnightblue" points="314.548,-141.225 304.801,-137.073 309.831,-146.397 314.548,-141.225"/>
</g>
<!-- Node8 -->
<g id="node8" class="node"><title>Node8</title>
<polygon fill="none" stroke="#bfbfbf" points="682.5,-56.5 682.5,-75.5 734.5,-75.5 734.5,-56.5 682.5,-56.5"/>
<text text-anchor="middle" x="708.5" y="-63.5" font-family="Helvetica,sans-Serif" font-size="10.00">ostream</text>
</g>
<!-- Node7&#45;&gt;Node8 -->
<g id="edge7" class="edge"><title>Node7&#45;&gt;Node8</title>
<path fill="none" stroke="midnightblue" d="M806.167,-117.975C787.289,-108.122 755.993,-91.7883 733.924,-80.2697"/>
<polygon fill="midnightblue" stroke="midnightblue" points="735.288,-77.0333 724.803,-75.5091 732.049,-83.2389 735.288,-77.0333"/>
</g>
<!-- Node9 -->
<g id="node9" class="node"><title>Node9</title>
<polygon fill="none" stroke="#bfbfbf" points="799.5,-56.5 799.5,-75.5 845.5,-75.5 845.5,-56.5 799.5,-56.5"/>
<text text-anchor="middle" x="822.5" y="-63.5" font-family="Helvetica,sans-Serif" font-size="10.00">cstdint</text>
</g>
<!-- Node7&#45;&gt;Node9 -->
<g id="edge8" class="edge"><title>Node7&#45;&gt;Node9</title>
<path fill="none" stroke="midnightblue" d="M822.5,-117.975C822.5,-109.58 822.5,-96.4806 822.5,-85.6631"/>
<polygon fill="midnightblue" stroke="midnightblue" points="826,-85.5091 822.5,-75.5091 819,-85.5091 826,-85.5091"/>
</g>
<!-- Node11 -->
<g id="node11" class="node"><title>Node11</title>
<g id="a_node11"><a xlink:href="../../d9/d80/InteractionRecord_8h.html" target="_top" xlink:title="CommonDataFormat/Interaction\lRecord.h">
<polygon fill="none" stroke="black" points="915,-112.5 915,-142.5 1072,-142.5 1072,-112.5 915,-112.5"/>
<text text-anchor="start" x="923" y="-130.5" font-family="Helvetica,sans-Serif" font-size="10.00">CommonDataFormat/Interaction</text>
<text text-anchor="middle" x="993.5" y="-119.5" font-family="Helvetica,sans-Serif" font-size="10.00">Record.h</text>
</a>
</g>
</g>
<!-- Node10&#45;&gt;Node11 -->
<g id="edge10" class="edge"><title>Node10&#45;&gt;Node11</title>
<path fill="none" stroke="midnightblue" d="M766.89,-184.936C807.508,-174.82 876.002,-157.762 927.078,-145.042"/>
<polygon fill="midnightblue" stroke="midnightblue" points="928.189,-148.372 937.047,-142.559 926.498,-141.58 928.189,-148.372"/>
</g>
<!-- Node11&#45;&gt;Node9 -->
<g id="edge14" class="edge"><title>Node11&#45;&gt;Node9</title>
<path fill="none" stroke="midnightblue" d="M952.975,-112.399C923.244,-102.054 883.371,-88.1801 855.558,-78.5028"/>
<polygon fill="midnightblue" stroke="midnightblue" points="856.494,-75.1224 845.899,-75.1417 854.193,-81.7336 856.494,-75.1224"/>
</g>
<!-- Node12 -->
<g id="node12" class="node"><title>Node12</title>
<polygon fill="none" stroke="#bfbfbf" points="879.5,-56.5 879.5,-75.5 935.5,-75.5 935.5,-56.5 879.5,-56.5"/>
<text text-anchor="middle" x="907.5" y="-63.5" font-family="Helvetica,sans-Serif" font-size="10.00">Rtypes.h</text>
</g>
<!-- Node11&#45;&gt;Node12 -->
<g id="edge11" class="edge"><title>Node11&#45;&gt;Node12</title>
<path fill="none" stroke="midnightblue" d="M973.119,-112.399C959.592,-103.04 941.889,-90.7924 928.28,-81.3771"/>
<polygon fill="midnightblue" stroke="midnightblue" points="930.229,-78.4692 920.014,-75.6578 926.246,-84.2257 930.229,-78.4692"/>
</g>
<!-- Node13 -->
<g id="node13" class="node"><title>Node13</title>
<polygon fill="none" stroke="#bfbfbf" points="954,-56.5 954,-75.5 999,-75.5 999,-56.5 954,-56.5"/>
<text text-anchor="middle" x="976.5" y="-63.5" font-family="Helvetica,sans-Serif" font-size="10.00">iosfwd</text>
</g>
<!-- Node11&#45;&gt;Node13 -->
<g id="edge12" class="edge"><title>Node11&#45;&gt;Node13</title>
<path fill="none" stroke="midnightblue" d="M989.471,-112.399C987.154,-104.288 984.216,-94.0071 981.723,-85.2807"/>
<polygon fill="midnightblue" stroke="midnightblue" points="985.086,-84.3115 978.974,-75.6578 978.356,-86.2346 985.086,-84.3115"/>
</g>
<!-- Node14 -->
<g id="node14" class="node"><title>Node14</title>
<polygon fill="none" stroke="#bfbfbf" points="1017.5,-56.5 1017.5,-75.5 1061.5,-75.5 1061.5,-56.5 1017.5,-56.5"/>
<text text-anchor="middle" x="1039.5" y="-63.5" font-family="Helvetica,sans-Serif" font-size="10.00">cmath</text>
</g>
<!-- Node11&#45;&gt;Node14 -->
<g id="edge13" class="edge"><title>Node11&#45;&gt;Node14</title>
<path fill="none" stroke="midnightblue" d="M1004.4,-112.399C1011.09,-103.753 1019.68,-92.642 1026.68,-83.576"/>
<polygon fill="midnightblue" stroke="midnightblue" points="1029.46,-85.7099 1032.81,-75.6578 1023.92,-81.4284 1029.46,-85.7099"/>
</g>
<!-- Node15 -->
<g id="node15" class="node"><title>Node15</title>
<g id="a_node15"><a xlink:href="../../d4/dc6/LHCConstants_8h.html" target="_top" xlink:title="Header to collect LHC related constants. ">
<polygon fill="none" stroke="black" points="1079.5,-56.5 1079.5,-75.5 1257.5,-75.5 1257.5,-56.5 1079.5,-56.5"/>
<text text-anchor="middle" x="1168.5" y="-63.5" font-family="Helvetica,sans-Serif" font-size="10.00">CommonConstants/LHCConstants.h</text>
</a>
</g>
</g>
<!-- Node11&#45;&gt;Node15 -->
<g id="edge15" class="edge"><title>Node11&#45;&gt;Node15</title>
<path fill="none" stroke="midnightblue" d="M1034.97,-112.399C1065.08,-102.163 1105.35,-88.4703 1133.77,-78.8082"/>
<polygon fill="midnightblue" stroke="midnightblue" points="1134.95,-82.1037 1143.29,-75.5709 1132.7,-75.4763 1134.95,-82.1037"/>
</g>
<!-- Node17 -->
<g id="node17" class="node"><title>Node17</title>
<polygon fill="none" stroke="#bfbfbf" points="419.5,-0.5 419.5,-19.5 457.5,-19.5 457.5,-0.5 419.5,-0.5"/>
<text text-anchor="middle" x="438.5" y="-7.5" font-family="Helvetica,sans-Serif" font-size="10.00">array</text>
</g>
<!-- Node16&#45;&gt;Node17 -->
<g id="edge17" class="edge"><title>Node16&#45;&gt;Node17</title>
<path fill="none" stroke="midnightblue" d="M438.5,-56.083C438.5,-49.0059 438.5,-38.8611 438.5,-29.9865"/>
<polygon fill="midnightblue" stroke="midnightblue" points="442,-29.751 438.5,-19.7511 435,-29.7511 442,-29.751"/>
</g>
<!-- Node18&#45;&gt;Node8 -->
<g id="edge20" class="edge"><title>Node18&#45;&gt;Node8</title>
<path fill="none" stroke="midnightblue" d="M668.234,-117.975C675.284,-109.05 686.535,-94.8071 695.354,-83.6425"/>
<polygon fill="midnightblue" stroke="midnightblue" points="698.326,-85.5258 701.779,-75.5091 692.833,-81.1867 698.326,-85.5258"/>
</g>
<!-- Node18&#45;&gt;Node9 -->
<g id="edge19" class="edge"><title>Node18&#45;&gt;Node9</title>
<path fill="none" stroke="midnightblue" d="M684.567,-117.975C712.185,-107.769 758.62,-90.608 789.896,-79.0492"/>
<polygon fill="midnightblue" stroke="midnightblue" points="791.309,-82.2586 799.475,-75.5091 788.882,-75.6927 791.309,-82.2586"/>
</g>
<!-- Node19&#45;&gt;Node16 -->
<g id="edge22" class="edge"><title>Node19&#45;&gt;Node16</title>
<path fill="none" stroke="midnightblue" d="M483.336,-179.329C475.563,-169.647 465.796,-156.221 459.5,-143 450.691,-124.502 445.004,-101.656 441.8,-85.8682"/>
<polygon fill="midnightblue" stroke="midnightblue" points="445.19,-84.9606 439.896,-75.7833 438.312,-86.259 445.19,-84.9606"/>
</g>
<!-- Node19&#45;&gt;Node18 -->
<g id="edge27" class="edge"><title>Node19&#45;&gt;Node18</title>
<path fill="none" stroke="midnightblue" d="M531.52,-179.396C561.033,-167.84 602.363,-151.656 630.438,-140.663"/>
<polygon fill="midnightblue" stroke="midnightblue" points="631.739,-143.912 639.774,-137.007 629.187,-137.394 631.739,-143.912"/>
</g>
<!-- Node20 -->
<g id="node20" class="node"><title>Node20</title>
<g id="a_node20"><a xlink:href="../../d4/d73/MID_2Base_2include_2MIDBase_2Mapping_8h.html" target="_top" xlink:title="Mapping for MID. ">
<polygon fill="none" stroke="black" points="468.5,-118 468.5,-137 574.5,-137 574.5,-118 468.5,-118"/>
<text text-anchor="middle" x="521.5" y="-125" font-family="Helvetica,sans-Serif" font-size="10.00">MIDBase/Mapping.h</text>
</a>
</g>
</g>
<!-- Node19&#45;&gt;Node20 -->
<g id="edge23" class="edge"><title>Node19&#45;&gt;Node20</title>
<path fill="none" stroke="midnightblue" d="M501.142,-179.396C504.995,-169.763 510.134,-156.914 514.285,-146.537"/>
<polygon fill="midnightblue" stroke="midnightblue" points="517.558,-147.779 518.022,-137.195 511.059,-145.179 517.558,-147.779"/>
</g>
<!-- Node20&#45;&gt;Node5 -->
<g id="edge25" class="edge"><title>Node20&#45;&gt;Node5</title>
<path fill="none" stroke="midnightblue" d="M496.283,-117.975C464.88,-107.359 411.22,-89.2178 377.103,-77.6839"/>
<polygon fill="midnightblue" stroke="midnightblue" points="378.205,-74.362 367.611,-74.475 375.963,-80.9933 378.205,-74.362"/>
</g>
<!-- Node20&#45;&gt;Node16 -->
<g id="edge26" class="edge"><title>Node20&#45;&gt;Node16</title>
<path fill="none" stroke="midnightblue" d="M509.608,-117.975C496.295,-108.431 474.5,-92.8073 458.543,-81.3683"/>
<polygon fill="midnightblue" stroke="midnightblue" points="460.536,-78.4908 450.37,-75.5091 456.458,-84.18 460.536,-78.4908"/>
</g>
<!-- Node20&#45;&gt;Node17 -->
<g id="edge24" class="edge"><title>Node20&#45;&gt;Node17</title>
<path fill="none" stroke="midnightblue" d="M520.568,-117.926C518.679,-103.84 513.334,-75.4256 499.5,-56 490.436,-43.2722 476.657,-32.6706 464.488,-24.9609"/>
<polygon fill="midnightblue" stroke="midnightblue" points="465.978,-21.7739 455.6,-19.6417 462.383,-27.7804 465.978,-21.7739"/>
</g>
<!-- Node21&#45;&gt;Node5 -->
<g id="edge30" class="edge"><title>Node21&#45;&gt;Node5</title>
<path fill="none" stroke="midnightblue" d="M302.664,-117.975C310.238,-108.962 322.37,-94.5246 331.793,-83.3118"/>
<polygon fill="midnightblue" stroke="midnightblue" points="334.596,-85.4166 338.35,-75.5091 329.237,-80.9132 334.596,-85.4166"/>
</g>
<!-- Node21&#45;&gt;Node16 -->
<g id="edge31" class="edge"><title>Node21&#45;&gt;Node16</title>
<path fill="none" stroke="midnightblue" d="M315.988,-117.975C340.306,-107.857 381.049,-90.9046 408.817,-79.3507"/>
<polygon fill="midnightblue" stroke="midnightblue" points="410.161,-82.5822 418.05,-75.5091 407.472,-76.1193 410.161,-82.5822"/>
</g>
<!-- Node21&#45;&gt;Node17 -->
<g id="edge29" class="edge"><title>Node21&#45;&gt;Node17</title>
<path fill="none" stroke="midnightblue" d="M295.397,-117.935C295.689,-103.345 298.379,-73.5511 314.5,-56 339.09,-29.2294 380.855,-18.3563 409.045,-13.9585"/>
<polygon fill="midnightblue" stroke="midnightblue" points="409.692,-17.4025 419.12,-12.5704 408.736,-10.468 409.692,-17.4025"/>
</g>
</g>
</svg>
