<?xml version="1.0" encoding="UTF-8" standalone="no"?>
<!DOCTYPE svg PUBLIC "-//W3C//DTD SVG 1.1//EN"
 "http://www.w3.org/Graphics/SVG/1.1/DTD/svg11.dtd">
<!-- Generated by graphviz version 2.38.0 (20140413.2041)
 -->
<!-- Title: /home/travis/build/AliceO2Group/AliceO2/CCDB/include/CCDB/BasicCCDBManager.h Pages: 1 -->
<svg width="501pt" height="162pt"
 viewBox="0.00 0.00 501.00 162.00" xmlns="http://www.w3.org/2000/svg" xmlns:xlink="http://www.w3.org/1999/xlink">
<g id="graph0" class="graph" transform="scale(1 1) rotate(0) translate(4 158)">
<title>/home/travis/build/AliceO2Group/AliceO2/CCDB/include/CCDB/BasicCCDBManager.h</title>
<!-- Node1 -->
<g id="node1" class="node"><title>Node1</title>
<polygon fill="#bfbfbf" stroke="black" points="160.5,-112.5 160.5,-153.5 378.5,-153.5 378.5,-112.5 160.5,-112.5"/>
<text text-anchor="start" x="168.5" y="-141.5" font-family="Helvetica,sans-Serif" font-size="10.00">/home/travis/build</text>
<text text-anchor="start" x="168.5" y="-130.5" font-family="Helvetica,sans-Serif" font-size="10.00">/AliceO2Group/AliceO2</text>
<text text-anchor="middle" x="269.5" y="-119.5" font-family="Helvetica,sans-Serif" font-size="10.00">/CCDB/include/CCDB/BasicCCDBManager.h</text>
</g>
<!-- Node2 -->
<g id="node2" class="node"><title>Node2</title>
<g id="a_node2"><a xlink:href="../../dd/d3e/CcdbApi_8h.html" target="_top" xlink:title="CCDB/CcdbApi.h">
<polygon fill="none" stroke="black" points="184,-56.5 184,-75.5 279,-75.5 279,-56.5 184,-56.5"/>
<text text-anchor="middle" x="231.5" y="-63.5" font-family="Helvetica,sans-Serif" font-size="10.00">CCDB/CcdbApi.h</text>
</a>
</g>
</g>
<!-- Node1&#45;&gt;Node2 -->
<g id="edge1" class="edge"><title>Node1&#45;&gt;Node2</title>
<path fill="none" stroke="midnightblue" d="M258.099,-112.498C252.889,-103.586 246.766,-93.1135 241.709,-84.4636"/>
<polygon fill="midnightblue" stroke="midnightblue" points="244.627,-82.519 236.558,-75.6525 238.584,-86.0519 244.627,-82.519"/>
</g>
<!-- Node3 -->
<g id="node3" class="node"><title>Node3</title>
<polygon fill="none" stroke="#bfbfbf" points="0,-0.5 0,-19.5 41,-19.5 41,-0.5 0,-0.5"/>
<text text-anchor="middle" x="20.5" y="-7.5" font-family="Helvetica,sans-Serif" font-size="10.00">string</text>
</g>
<!-- Node1&#45;&gt;Node3 -->
<g id="edge10" class="edge"><title>Node1&#45;&gt;Node3</title>
<path fill="none" stroke="midnightblue" d="M229.217,-112.425C178.032,-87.5516 91.0938,-45.3046 47.3411,-24.0433"/>
<polygon fill="midnightblue" stroke="midnightblue" points="48.7132,-20.8187 38.1892,-19.596 45.6537,-27.1147 48.7132,-20.8187"/>
</g>
<!-- Node6 -->
<g id="node6" class="node"><title>Node6</title>
<polygon fill="none" stroke="#bfbfbf" points="445,-0.5 445,-19.5 480,-19.5 480,-0.5 445,-0.5"/>
<text text-anchor="middle" x="462.5" y="-7.5" font-family="Helvetica,sans-Serif" font-size="10.00">map</text>
</g>
<!-- Node1&#45;&gt;Node6 -->
<g id="edge11" class="edge"><title>Node1&#45;&gt;Node6</title>
<path fill="none" stroke="midnightblue" d="M279.871,-112.482C289.921,-95.3203 306.681,-70.83 327.5,-56 366.619,-28.1341 385.853,-35.3151 435.295,-20.2243"/>
<polygon fill="midnightblue" stroke="midnightblue" points="436.444,-23.5313 444.89,-17.1339 434.298,-16.8683 436.444,-23.5313"/>
</g>
<!-- Node10 -->
<g id="node10" class="node"><title>Node10</title>
<g id="a_node10"><a xlink:href="../../da/d86/CCDBTimeStampUtils_8h.html" target="_top" xlink:title="CCDB/CCDBTimeStampUtils.h">
<polygon fill="none" stroke="black" points="336,-56.5 336,-75.5 493,-75.5 493,-56.5 336,-56.5"/>
<text text-anchor="middle" x="414.5" y="-63.5" font-family="Helvetica,sans-Serif" font-size="10.00">CCDB/CCDBTimeStampUtils.h</text>
</a>
</g>
</g>
<!-- Node1&#45;&gt;Node10 -->
<g id="edge9" class="edge"><title>Node1&#45;&gt;Node10</title>
<path fill="none" stroke="midnightblue" d="M313.005,-112.498C336.625,-101.909 365.162,-89.1169 385.953,-79.7968"/>
<polygon fill="midnightblue" stroke="midnightblue" points="387.505,-82.9369 395.198,-75.6525 384.641,-76.5493 387.505,-82.9369"/>
</g>
<!-- Node2&#45;&gt;Node3 -->
<g id="edge2" class="edge"><title>Node2&#45;&gt;Node3</title>
<path fill="none" stroke="midnightblue" d="M194.965,-56.4587C160.317,-48.2383 106.589,-35.1815 50.8163,-19.9853"/>
<polygon fill="midnightblue" stroke="midnightblue" points="51.689,-16.5955 41.1195,-17.327 49.8383,-23.3464 51.689,-16.5955"/>
</g>
<!-- Node4 -->
<g id="node4" class="node"><title>Node4</title>
<polygon fill="none" stroke="#bfbfbf" points="59.5,-0.5 59.5,-19.5 111.5,-19.5 111.5,-0.5 59.5,-0.5"/>
<text text-anchor="middle" x="85.5" y="-7.5" font-family="Helvetica,sans-Serif" font-size="10.00">memory</text>
</g>
<!-- Node2&#45;&gt;Node4 -->
<g id="edge3" class="edge"><title>Node2&#45;&gt;Node4</title>
<path fill="none" stroke="midnightblue" d="M208.366,-56.4435C184.018,-47.4381 145.493,-33.1891 118.077,-23.049"/>
<polygon fill="midnightblue" stroke="midnightblue" points="119.119,-19.7028 108.526,-19.5164 116.691,-26.2681 119.119,-19.7028"/>
</g>
<!-- Node5 -->
<g id="node5" class="node"><title>Node5</title>
<polygon fill="none" stroke="#bfbfbf" points="129.5,-0.5 129.5,-19.5 183.5,-19.5 183.5,-0.5 129.5,-0.5"/>
<text text-anchor="middle" x="156.5" y="-7.5" font-family="Helvetica,sans-Serif" font-size="10.00">iostream</text>
</g>
<!-- Node2&#45;&gt;Node5 -->
<g id="edge4" class="edge"><title>Node2&#45;&gt;Node5</title>
<path fill="none" stroke="midnightblue" d="M219.45,-56.324C208.037,-48.1066 190.669,-35.6017 177.065,-25.8069"/>
<polygon fill="midnightblue" stroke="midnightblue" points="178.93,-22.8366 168.769,-19.8339 174.84,-28.5174 178.93,-22.8366"/>
</g>
<!-- Node2&#45;&gt;Node6 -->
<g id="edge5" class="edge"><title>Node2&#45;&gt;Node6</title>
<path fill="none" stroke="midnightblue" d="M277.884,-56.4305C317.481,-48.7542 376.081,-36.5436 435.108,-20.1571"/>
<polygon fill="midnightblue" stroke="midnightblue" points="436.289,-23.4606 444.966,-17.3816 434.392,-16.7226 436.289,-23.4606"/>
</g>
<!-- Node7 -->
<g id="node7" class="node"><title>Node7</title>
<polygon fill="none" stroke="#bfbfbf" points="202,-0.5 202,-19.5 261,-19.5 261,-0.5 202,-0.5"/>
<text text-anchor="middle" x="231.5" y="-7.5" font-family="Helvetica,sans-Serif" font-size="10.00">curl/curl.h</text>
</g>
<!-- Node2&#45;&gt;Node7 -->
<g id="edge6" class="edge"><title>Node2&#45;&gt;Node7</title>
<path fill="none" stroke="midnightblue" d="M231.5,-56.083C231.5,-49.0059 231.5,-38.8611 231.5,-29.9865"/>
<polygon fill="midnightblue" stroke="midnightblue" points="235,-29.751 231.5,-19.7511 228,-29.7511 235,-29.751"/>
</g>
<!-- Node8 -->
<g id="node8" class="node"><title>Node8</title>
<polygon fill="none" stroke="#bfbfbf" points="279,-0.5 279,-19.5 338,-19.5 338,-0.5 279,-0.5"/>
<text text-anchor="middle" x="308.5" y="-7.5" font-family="Helvetica,sans-Serif" font-size="10.00">TObject.h</text>
</g>
<!-- Node2&#45;&gt;Node8 -->
<g id="edge7" class="edge"><title>Node2&#45;&gt;Node8</title>
<path fill="none" stroke="midnightblue" d="M243.871,-56.324C255.658,-48.0577 273.632,-35.4527 287.636,-25.6322"/>
<polygon fill="midnightblue" stroke="midnightblue" points="289.982,-28.2619 296.159,-19.6545 285.962,-22.5307 289.982,-28.2619"/>
</g>
<!-- Node9 -->
<g id="node9" class="node"><title>Node9</title>
<polygon fill="none" stroke="#bfbfbf" points="356,-0.5 356,-19.5 427,-19.5 427,-0.5 356,-0.5"/>
<text text-anchor="middle" x="391.5" y="-7.5" font-family="Helvetica,sans-Serif" font-size="10.00">TMessage.h</text>
</g>
<!-- Node2&#45;&gt;Node9 -->
<g id="edge8" class="edge"><title>Node2&#45;&gt;Node9</title>
<path fill="none" stroke="midnightblue" d="M256.852,-56.4435C283.769,-47.3591 326.496,-32.9388 356.587,-22.7831"/>
<polygon fill="midnightblue" stroke="midnightblue" points="357.91,-26.0305 366.266,-19.5164 355.672,-19.3981 357.91,-26.0305"/>
</g>
</g>
</svg>
