<?xml version="1.0" encoding="UTF-8" standalone="no"?>
<!DOCTYPE svg PUBLIC "-//W3C//DTD SVG 1.1//EN"
 "http://www.w3.org/Graphics/SVG/1.1/DTD/svg11.dtd">
<!-- Generated by graphviz version 2.38.0 (20140413.2041)
 -->
<!-- Title: /home/travis/build/AliceO2Group/AliceO2/Detectors/MUON/MCH/Mapping/Impl3/src/GenCathodeSegmentationCreatorForSegType1.cxx Pages: 1 -->
<svg width="436pt" height="307pt"
 viewBox="0.00 0.00 436.00 307.00" xmlns="http://www.w3.org/2000/svg" xmlns:xlink="http://www.w3.org/1999/xlink">
<g id="graph0" class="graph" transform="scale(1 1) rotate(0) translate(4 303)">
<title>/home/travis/build/AliceO2Group/AliceO2/Detectors/MUON/MCH/Mapping/Impl3/src/GenCathodeSegmentationCreatorForSegType1.cxx</title>
<!-- Node1 -->
<g id="node1" class="node"><title>Node1</title>
<polygon fill="#bfbfbf" stroke="black" points="100,-235.5 100,-298.5 310,-298.5 310,-235.5 100,-235.5"/>
<text text-anchor="start" x="108" y="-286.5" font-family="Helvetica,sans-Serif" font-size="10.00">/home/travis/build</text>
<text text-anchor="start" x="108" y="-275.5" font-family="Helvetica,sans-Serif" font-size="10.00">/AliceO2Group/AliceO2</text>
<text text-anchor="start" x="108" y="-264.5" font-family="Helvetica,sans-Serif" font-size="10.00">/Detectors/MUON/MCH/Mapping</text>
<text text-anchor="start" x="108" y="-253.5" font-family="Helvetica,sans-Serif" font-size="10.00">/Impl3/src/GenCathodeSegmentationCreator</text>
<text text-anchor="middle" x="205" y="-242.5" font-family="Helvetica,sans-Serif" font-size="10.00">ForSegType1.cxx</text>
</g>
<!-- Node2 -->
<g id="node2" class="node"><title>Node2</title>
<g id="a_node2"><a xlink:href="../../d4/d1d/CathodeSegmentationCreator_8h.html" target="_top" xlink:title="CathodeSegmentationCreator.h">
<polygon fill="none" stroke="black" points="128,-179.5 128,-198.5 282,-198.5 282,-179.5 128,-179.5"/>
<text text-anchor="middle" x="205" y="-186.5" font-family="Helvetica,sans-Serif" font-size="10.00">CathodeSegmentationCreator.h</text>
</a>
</g>
</g>
<!-- Node1&#45;&gt;Node2 -->
<g id="edge1" class="edge"><title>Node1&#45;&gt;Node2</title>
<path fill="none" stroke="midnightblue" d="M205,-235.088C205,-226.15 205,-216.669 205,-208.719"/>
<polygon fill="midnightblue" stroke="midnightblue" points="208.5,-208.718 205,-198.718 201.5,-208.718 208.5,-208.718"/>
</g>
<!-- Node3 -->
<g id="node3" class="node"><title>Node3</title>
<g id="a_node3"><a xlink:href="../../d2/db3/CathodeSegmentationImpl3_8h.html" target="_top" xlink:title="CathodeSegmentationImpl3.h">
<polygon fill="none" stroke="black" points="132,-123.5 132,-142.5 278,-142.5 278,-123.5 132,-123.5"/>
<text text-anchor="middle" x="205" y="-130.5" font-family="Helvetica,sans-Serif" font-size="10.00">CathodeSegmentationImpl3.h</text>
</a>
</g>
</g>
<!-- Node2&#45;&gt;Node3 -->
<g id="edge2" class="edge"><title>Node2&#45;&gt;Node3</title>
<path fill="none" stroke="midnightblue" d="M205,-179.083C205,-172.006 205,-161.861 205,-152.986"/>
<polygon fill="midnightblue" stroke="midnightblue" points="208.5,-152.751 205,-142.751 201.5,-152.751 208.5,-152.751"/>
</g>
<!-- Node4 -->
<g id="node4" class="node"><title>Node4</title>
<g id="a_node4"><a xlink:href="../../dc/d0f/PadGroup_8h.html" target="_top" xlink:title="PadGroup.h">
<polygon fill="none" stroke="black" points="0,-62 0,-81 68,-81 68,-62 0,-62"/>
<text text-anchor="middle" x="34" y="-69" font-family="Helvetica,sans-Serif" font-size="10.00">PadGroup.h</text>
</a>
</g>
</g>
<!-- Node3&#45;&gt;Node4 -->
<g id="edge3" class="edge"><title>Node3&#45;&gt;Node4</title>
<path fill="none" stroke="midnightblue" d="M180.5,-123.475C151.04,-113.225 101.421,-95.9593 68.1982,-84.3994"/>
<polygon fill="midnightblue" stroke="midnightblue" points="69.0495,-80.9898 58.4547,-81.0091 66.7491,-87.601 69.0495,-80.9898"/>
</g>
<!-- Node5 -->
<g id="node5" class="node"><title>Node5</title>
<polygon fill="none" stroke="#bfbfbf" points="70,-0.5 70,-19.5 122,-19.5 122,-0.5 70,-0.5"/>
<text text-anchor="middle" x="96" y="-7.5" font-family="Helvetica,sans-Serif" font-size="10.00">ostream</text>
</g>
<!-- Node3&#45;&gt;Node5 -->
<g id="edge10" class="edge"><title>Node3&#45;&gt;Node5</title>
<path fill="none" stroke="midnightblue" d="M172.704,-123.369C153.262,-116.562 129.538,-105.124 115,-87 101.862,-70.6224 97.6602,-46.3603 96.3943,-29.6784"/>
<polygon fill="midnightblue" stroke="midnightblue" points="99.8829,-29.3535 95.9133,-19.5305 92.8908,-29.685 99.8829,-29.3535"/>
</g>
<!-- Node6 -->
<g id="node6" class="node"><title>Node6</title>
<g id="a_node6"><a xlink:href="../../dd/d31/PadGroupType_8h.html" target="_top" xlink:title="PadGroupType.h">
<polygon fill="none" stroke="black" points="124,-62 124,-81 214,-81 214,-62 124,-62"/>
<text text-anchor="middle" x="169" y="-69" font-family="Helvetica,sans-Serif" font-size="10.00">PadGroupType.h</text>
</a>
</g>
</g>
<!-- Node3&#45;&gt;Node6 -->
<g id="edge5" class="edge"><title>Node3&#45;&gt;Node6</title>
<path fill="none" stroke="midnightblue" d="M199.842,-123.475C194.549,-114.727 186.165,-100.869 179.473,-89.8093"/>
<polygon fill="midnightblue" stroke="midnightblue" points="182.32,-87.7531 174.148,-81.0091 176.33,-91.3768 182.32,-87.7531"/>
</g>
<!-- Node7 -->
<g id="node7" class="node"><title>Node7</title>
<polygon fill="none" stroke="#bfbfbf" points="183,-0.5 183,-19.5 227,-19.5 227,-0.5 183,-0.5"/>
<text text-anchor="middle" x="205" y="-7.5" font-family="Helvetica,sans-Serif" font-size="10.00">vector</text>
</g>
<!-- Node3&#45;&gt;Node7 -->
<g id="edge8" class="edge"><title>Node3&#45;&gt;Node7</title>
<path fill="none" stroke="midnightblue" d="M209.621,-123.339C214.059,-114.493 220.454,-100.22 223,-87 225.605,-73.4708 225.605,-69.5292 223,-56 221.21,-46.7047 217.517,-36.8887 213.939,-28.8048"/>
<polygon fill="midnightblue" stroke="midnightblue" points="217.056,-27.2089 209.621,-19.6611 210.727,-30.1981 217.056,-27.2089"/>
</g>
<!-- Node8 -->
<g id="node8" class="node"><title>Node8</title>
<polygon fill="none" stroke="#bfbfbf" points="270,-62 270,-81 300,-81 300,-62 270,-62"/>
<text text-anchor="middle" x="285" y="-69" font-family="Helvetica,sans-Serif" font-size="10.00">set</text>
</g>
<!-- Node3&#45;&gt;Node8 -->
<g id="edge9" class="edge"><title>Node3&#45;&gt;Node8</title>
<path fill="none" stroke="midnightblue" d="M216.462,-123.475C229.175,-114.02 249.913,-98.5961 265.253,-87.1871"/>
<polygon fill="midnightblue" stroke="midnightblue" points="267.624,-89.7854 273.559,-81.0091 263.446,-84.1686 267.624,-89.7854"/>
</g>
<!-- Node9 -->
<g id="node9" class="node"><title>Node9</title>
<polygon fill="none" stroke="#bfbfbf" points="318,-56.5 318,-86.5 428,-86.5 428,-56.5 318,-56.5"/>
<text text-anchor="start" x="326" y="-74.5" font-family="Helvetica,sans-Serif" font-size="10.00">boost/geometry/index</text>
<text text-anchor="middle" x="373" y="-63.5" font-family="Helvetica,sans-Serif" font-size="10.00">/rtree.hpp</text>
</g>
<!-- Node3&#45;&gt;Node9 -->
<g id="edge11" class="edge"><title>Node3&#45;&gt;Node9</title>
<path fill="none" stroke="midnightblue" d="M229.07,-123.475C253.631,-114.776 292.455,-101.026 323.594,-89.9981"/>
<polygon fill="midnightblue" stroke="midnightblue" points="325.148,-93.1607 333.406,-86.523 322.811,-86.5623 325.148,-93.1607"/>
</g>
<!-- Node4&#45;&gt;Node5 -->
<g id="edge4" class="edge"><title>Node4&#45;&gt;Node5</title>
<path fill="none" stroke="midnightblue" d="M42.8831,-61.9751C52.4594,-52.785 67.9111,-37.9563 79.6862,-26.656"/>
<polygon fill="midnightblue" stroke="midnightblue" points="82.3418,-28.9585 87.1334,-19.5091 77.4949,-23.908 82.3418,-28.9585"/>
</g>
<!-- Node6&#45;&gt;Node5 -->
<g id="edge7" class="edge"><title>Node6&#45;&gt;Node5</title>
<path fill="none" stroke="midnightblue" d="M158.541,-61.9751C147.049,-52.6082 128.37,-37.3839 114.413,-26.0081"/>
<polygon fill="midnightblue" stroke="midnightblue" points="116.402,-23.114 106.44,-19.5091 111.98,-28.54 116.402,-23.114"/>
</g>
<!-- Node6&#45;&gt;Node7 -->
<g id="edge6" class="edge"><title>Node6&#45;&gt;Node7</title>
<path fill="none" stroke="midnightblue" d="M174.158,-61.9751C179.451,-53.2268 187.835,-39.3691 194.527,-28.3093"/>
<polygon fill="midnightblue" stroke="midnightblue" points="197.67,-29.8768 199.852,-19.5091 191.68,-26.2531 197.67,-29.8768"/>
</g>
</g>
</svg>
