<?xml version="1.0" encoding="UTF-8" standalone="no"?>
<!DOCTYPE svg PUBLIC "-//W3C//DTD SVG 1.1//EN"
 "http://www.w3.org/Graphics/SVG/1.1/DTD/svg11.dtd">
<!-- Generated by graphviz version 2.38.0 (20140413.2041)
 -->
<!-- Title: /home/travis/build/AliceO2Group/AliceO2/Detectors/MUON/MID/Base/src/Mapping.cxx Pages: 1 -->
<svg width="609pt" height="229pt"
 viewBox="0.00 0.00 609.00 229.00" xmlns="http://www.w3.org/2000/svg" xmlns:xlink="http://www.w3.org/1999/xlink">
<g id="graph0" class="graph" transform="scale(1 1) rotate(0) translate(4 225)">
<title>/home/travis/build/AliceO2Group/AliceO2/Detectors/MUON/MID/Base/src/Mapping.cxx</title>
<!-- Node1 -->
<g id="node1" class="node"><title>Node1</title>
<polygon fill="#bfbfbf" stroke="black" points="146.5,-168.5 146.5,-220.5 289.5,-220.5 289.5,-168.5 146.5,-168.5"/>
<text text-anchor="start" x="154.5" y="-208.5" font-family="Helvetica,sans-Serif" font-size="10.00">/home/travis/build</text>
<text text-anchor="start" x="154.5" y="-197.5" font-family="Helvetica,sans-Serif" font-size="10.00">/AliceO2Group/AliceO2</text>
<text text-anchor="start" x="154.5" y="-186.5" font-family="Helvetica,sans-Serif" font-size="10.00">/Detectors/MUON/MID/Base</text>
<text text-anchor="middle" x="218" y="-175.5" font-family="Helvetica,sans-Serif" font-size="10.00">/src/Mapping.cxx</text>
</g>
<!-- Node2 -->
<g id="node2" class="node"><title>Node2</title>
<g id="a_node2"><a xlink:href="../../d4/d73/MID_2Base_2include_2MIDBase_2Mapping_8h.html" target="_top" xlink:title="Mapping for MID. ">
<polygon fill="none" stroke="black" points="0,-112.5 0,-131.5 106,-131.5 106,-112.5 0,-112.5"/>
<text text-anchor="middle" x="53" y="-119.5" font-family="Helvetica,sans-Serif" font-size="10.00">MIDBase/Mapping.h</text>
</a>
</g>
</g>
<!-- Node1&#45;&gt;Node2 -->
<g id="edge1" class="edge"><title>Node1&#45;&gt;Node2</title>
<path fill="none" stroke="midnightblue" d="M159.363,-168.446C133.294,-157.308 103.748,-144.683 82.4233,-135.572"/>
<polygon fill="midnightblue" stroke="midnightblue" points="83.5277,-132.238 72.9567,-131.527 80.7773,-138.675 83.5277,-132.238"/>
</g>
<!-- Node6 -->
<g id="node6" class="node"><title>Node6</title>
<polygon fill="none" stroke="#bfbfbf" points="123.5,-112.5 123.5,-131.5 172.5,-131.5 172.5,-112.5 123.5,-112.5"/>
<text text-anchor="middle" x="148" y="-119.5" font-family="Helvetica,sans-Serif" font-size="10.00">cassert</text>
</g>
<!-- Node1&#45;&gt;Node6 -->
<g id="edge6" class="edge"><title>Node1&#45;&gt;Node6</title>
<path fill="none" stroke="midnightblue" d="M193.124,-168.446C183.375,-158.628 172.481,-147.656 163.839,-138.952"/>
<polygon fill="midnightblue" stroke="midnightblue" points="166.163,-136.326 156.634,-131.695 161.196,-141.258 166.163,-136.326"/>
</g>
<!-- Node7 -->
<g id="node7" class="node"><title>Node7</title>
<polygon fill="none" stroke="#bfbfbf" points="191,-112.5 191,-131.5 245,-131.5 245,-112.5 191,-112.5"/>
<text text-anchor="middle" x="218" y="-119.5" font-family="Helvetica,sans-Serif" font-size="10.00">iostream</text>
</g>
<!-- Node1&#45;&gt;Node7 -->
<g id="edge7" class="edge"><title>Node1&#45;&gt;Node7</title>
<path fill="none" stroke="midnightblue" d="M218,-168.446C218,-159.73 218,-150.104 218,-141.964"/>
<polygon fill="midnightblue" stroke="midnightblue" points="221.5,-141.695 218,-131.695 214.5,-141.696 221.5,-141.695"/>
</g>
<!-- Node8 -->
<g id="node8" class="node"><title>Node8</title>
<g id="a_node8"><a xlink:href="../../dc/de4/DetectorParameters_8h.html" target="_top" xlink:title="Useful detector parameters for MID. ">
<polygon fill="none" stroke="black" points="263.5,-112.5 263.5,-131.5 420.5,-131.5 420.5,-112.5 263.5,-112.5"/>
<text text-anchor="middle" x="342" y="-119.5" font-family="Helvetica,sans-Serif" font-size="10.00">MIDBase/DetectorParameters.h</text>
</a>
</g>
</g>
<!-- Node1&#45;&gt;Node8 -->
<g id="edge8" class="edge"><title>Node1&#45;&gt;Node8</title>
<path fill="none" stroke="midnightblue" d="M262.067,-168.446C280.86,-157.761 302.058,-145.709 317.9,-136.702"/>
<polygon fill="midnightblue" stroke="midnightblue" points="320.039,-139.512 327.002,-131.527 316.579,-133.427 320.039,-139.512"/>
</g>
<!-- Node10 -->
<g id="node10" class="node"><title>Node10</title>
<g id="a_node10"><a xlink:href="../../db/db5/GeometryParameters_8h.html" target="_top" xlink:title="Useful geometrical parameters for MID. ">
<polygon fill="none" stroke="black" points="439,-112.5 439,-131.5 601,-131.5 601,-112.5 439,-112.5"/>
<text text-anchor="middle" x="520" y="-119.5" font-family="Helvetica,sans-Serif" font-size="10.00">MIDBase/GeometryParameters.h</text>
</a>
</g>
</g>
<!-- Node1&#45;&gt;Node10 -->
<g id="edge11" class="edge"><title>Node1&#45;&gt;Node10</title>
<path fill="none" stroke="midnightblue" d="M289.57,-176.792C346.402,-163.525 424.219,-145.36 473.297,-133.903"/>
<polygon fill="midnightblue" stroke="midnightblue" points="474.373,-137.246 483.316,-131.564 472.782,-130.429 474.373,-137.246"/>
</g>
<!-- Node3 -->
<g id="node3" class="node"><title>Node3</title>
<polygon fill="none" stroke="#bfbfbf" points="251,-0.5 251,-19.5 289,-19.5 289,-0.5 251,-0.5"/>
<text text-anchor="middle" x="270" y="-7.5" font-family="Helvetica,sans-Serif" font-size="10.00">array</text>
</g>
<!-- Node2&#45;&gt;Node3 -->
<g id="edge2" class="edge"><title>Node2&#45;&gt;Node3</title>
<path fill="none" stroke="midnightblue" d="M52.9125,-112.439C53.2602,-98.5079 56.0734,-70.9849 72,-56 96.1582,-33.2702 191.798,-19.6405 240.769,-14.0149"/>
<polygon fill="midnightblue" stroke="midnightblue" points="241.196,-17.489 250.748,-12.9054 240.423,-10.5319 241.196,-17.489"/>
</g>
<!-- Node4 -->
<g id="node4" class="node"><title>Node4</title>
<polygon fill="none" stroke="#bfbfbf" points="81,-56.5 81,-75.5 125,-75.5 125,-56.5 81,-56.5"/>
<text text-anchor="middle" x="103" y="-63.5" font-family="Helvetica,sans-Serif" font-size="10.00">vector</text>
</g>
<!-- Node2&#45;&gt;Node4 -->
<g id="edge3" class="edge"><title>Node2&#45;&gt;Node4</title>
<path fill="none" stroke="midnightblue" d="M61.2565,-112.083C68.4647,-104.298 79.1098,-92.8015 87.8458,-83.3665"/>
<polygon fill="midnightblue" stroke="midnightblue" points="90.6712,-85.4666 94.8972,-75.7511 85.5349,-80.7108 90.6712,-85.4666"/>
</g>
<!-- Node5 -->
<g id="node5" class="node"><title>Node5</title>
<g id="a_node5"><a xlink:href="../../d7/d0a/MpArea_8h.html" target="_top" xlink:title="Mapping area for MID. ">
<polygon fill="none" stroke="black" points="174.5,-56.5 174.5,-75.5 277.5,-75.5 277.5,-56.5 174.5,-56.5"/>
<text text-anchor="middle" x="226" y="-63.5" font-family="Helvetica,sans-Serif" font-size="10.00">MIDBase/MpArea.h</text>
</a>
</g>
</g>
<!-- Node2&#45;&gt;Node5 -->
<g id="edge4" class="edge"><title>Node2&#45;&gt;Node5</title>
<path fill="none" stroke="midnightblue" d="M80.4124,-112.444C109.769,-103.28 156.519,-88.6876 189.096,-78.5192"/>
<polygon fill="midnightblue" stroke="midnightblue" points="190.213,-81.8371 198.716,-75.5164 188.127,-75.1551 190.213,-81.8371"/>
</g>
<!-- Node5&#45;&gt;Node3 -->
<g id="edge5" class="edge"><title>Node5&#45;&gt;Node3</title>
<path fill="none" stroke="midnightblue" d="M233.266,-56.083C239.545,-48.3768 248.788,-37.0333 256.431,-27.6531"/>
<polygon fill="midnightblue" stroke="midnightblue" points="259.266,-29.7143 262.869,-19.7511 253.839,-25.2926 259.266,-29.7143"/>
</g>
<!-- Node8&#45;&gt;Node3 -->
<g id="edge9" class="edge"><title>Node8&#45;&gt;Node3</title>
<path fill="none" stroke="midnightblue" d="M336.35,-112.368C324.468,-94.2153 296.706,-51.8015 281.121,-27.9902"/>
<polygon fill="midnightblue" stroke="midnightblue" points="284.029,-26.0416 275.623,-19.5914 278.172,-29.8753 284.029,-26.0416"/>
</g>
<!-- Node9 -->
<g id="node9" class="node"><title>Node9</title>
<polygon fill="none" stroke="#bfbfbf" points="347.5,-56.5 347.5,-75.5 388.5,-75.5 388.5,-56.5 347.5,-56.5"/>
<text text-anchor="middle" x="368" y="-63.5" font-family="Helvetica,sans-Serif" font-size="10.00">string</text>
</g>
<!-- Node8&#45;&gt;Node9 -->
<g id="edge10" class="edge"><title>Node8&#45;&gt;Node9</title>
<path fill="none" stroke="midnightblue" d="M346.293,-112.083C349.852,-104.691 355.022,-93.9533 359.424,-84.8111"/>
<polygon fill="midnightblue" stroke="midnightblue" points="362.602,-86.2795 363.787,-75.7511 356.295,-83.2427 362.602,-86.2795"/>
</g>
<!-- Node10&#45;&gt;Node3 -->
<g id="edge12" class="edge"><title>Node10&#45;&gt;Node3</title>
<path fill="none" stroke="midnightblue" d="M505.573,-112.489C482.938,-99.3401 437.477,-73.7535 397,-56 364.094,-41.5672 324.952,-28.2528 298.905,-19.9111"/>
<polygon fill="midnightblue" stroke="midnightblue" points="299.86,-16.5423 289.27,-16.8611 297.748,-23.2159 299.86,-16.5423"/>
</g>
<!-- Node10&#45;&gt;Node9 -->
<g id="edge13" class="edge"><title>Node10&#45;&gt;Node9</title>
<path fill="none" stroke="midnightblue" d="M495.915,-112.444C469.407,-103.026 426.758,-87.8746 398.074,-77.6842"/>
<polygon fill="midnightblue" stroke="midnightblue" points="399.155,-74.3538 388.56,-74.3042 396.811,-80.9499 399.155,-74.3538"/>
</g>
</g>
</svg>
