<?xml version="1.0" encoding="UTF-8" standalone="no"?>
<!DOCTYPE svg PUBLIC "-//W3C//DTD SVG 1.1//EN"
 "http://www.w3.org/Graphics/SVG/1.1/DTD/svg11.dtd">
<!-- Generated by graphviz version 2.38.0 (20140413.2041)
 -->
<!-- Title: gpucf::ClusterFinder Pages: 1 -->
<!--zoomable 546 -->
<svg id="main" version="1.1" xmlns="http://www.w3.org/2000/svg" xmlns:xlink="http://www.w3.org/1999/xlink" xml:space="preserve" onload="init(evt)">
<style type="text/css"><![CDATA[
.edge:hover path { stroke: red; }
.edge:hover polygon { stroke: red; fill: red; }
]]></style>
<script type="text/javascript"><![CDATA[
var edges = document.getElementsByTagName('g');
if (edges && edges.length) {
  for (var i=0;i<edges.length;i++) {
    if (edges[i].id.substr(0,4)=='edge') {
      edges[i].setAttribute('class','edge');
    }
  }
}
]]></script>
        <defs>
                <circle id="rim" cx="0" cy="0" r="7"/>
                <circle id="rim2" cx="0" cy="0" r="3.5"/>
                <g id="zoomPlus">
                        <use xlink:href="#rim" fill="#404040">
                                <set attributeName="fill" to="#808080" begin="zoomplus.mouseover" end="zoomplus.mouseout"/>
                        </use>
                        <path d="M-4,0h8M0,-4v8" fill="none" stroke="white" stroke-width="1.5" pointer-events="none"/>
                </g>
                <g id="zoomMin">
                        <use xlink:href="#rim" fill="#404040">
                                <set attributeName="fill" to="#808080" begin="zoomminus.mouseover" end="zoomminus.mouseout"/>
                        </use>
                        <path d="M-4,0h8" fill="none" stroke="white" stroke-width="1.5" pointer-events="none"/>
                </g>
                <g id="dirArrow">
                        <path fill="none" stroke="white" stroke-width="1.5" d="M0,-3.0v7 M-2.5,-0.5L0,-3.0L2.5,-0.5"/>
                </g>
               <g id="resetDef">
                       <use xlink:href="#rim2" fill="#404040">
                               <set attributeName="fill" to="#808080" begin="reset.mouseover" end="reset.mouseout"/>
                       </use>
               </g>
        </defs>

<script type="text/javascript">
var viewWidth = 1489;
var viewHeight = 546;
var sectionId = 'dynsection-1';
</script>
<script xlink:href="../../svgpan.js"/>
<svg id="graph" class="graph">
<g id="viewport">
<title>gpucf::ClusterFinder</title>
<!-- Node1 -->
<g id="node1" class="node"><title>Node1</title>
<polygon fill="#bfbfbf" stroke="black" points="695,-0.5 695,-57.5 800,-57.5 800,-0.5 695,-0.5"/>
<text text-anchor="middle" x="747.5" y="-45.5" font-family="Helvetica,sans-Serif" font-size="10.00">gpucf::ClusterFinder</text>
<polyline fill="none" stroke="black" points="695,-38.5 800,-38.5 "/>
<text text-anchor="middle" x="747.5" y="-26.5" font-family="Helvetica,sans-Serif" font-size="10.00"> </text>
<polyline fill="none" stroke="black" points="695,-19.5 800,-19.5 "/>
<text text-anchor="start" x="703" y="-7.5" font-family="Helvetica,sans-Serif" font-size="10.00">+ ClusterFinder()</text>
</g>
<!-- Node2 -->
<g id="node2" class="node"><title>Node2</title>
<g id="a_node2"><a xlink:href="../../df/d03/structgpucf_1_1ClusterFinderState.html" target="_top" xlink:title="{gpucf::ClusterFinderState\n||+ ClusterFinderState()\l}">
<polygon fill="none" stroke="black" points="48.5,-127.5 48.5,-184.5 176.5,-184.5 176.5,-127.5 48.5,-127.5"/>
<text text-anchor="middle" x="112.5" y="-172.5" font-family="Helvetica,sans-Serif" font-size="10.00">gpucf::ClusterFinderState</text>
<polyline fill="none" stroke="black" points="48.5,-165.5 176.5,-165.5 "/>
<text text-anchor="middle" x="112.5" y="-153.5" font-family="Helvetica,sans-Serif" font-size="10.00"> </text>
<polyline fill="none" stroke="black" points="48.5,-146.5 176.5,-146.5 "/>
<text text-anchor="start" x="56.5" y="-134.5" font-family="Helvetica,sans-Serif" font-size="10.00">+ ClusterFinderState()</text>
</a>
</g>
</g>
<!-- Node2&#45;&gt;Node1 -->
<g id="edge1" class="edge"><title>Node2&#45;&gt;Node1</title>
<path fill="none" stroke="#404040" d="M146.884,-127.362C158.573,-119.111 172.085,-110.744 185.5,-105 273.838,-67.1744 554.339,-43.4201 682.497,-34.2759"/>
<polygon fill="none" stroke="#404040" points="682.81,-34.254 688.514,-29.8424 694.78,-33.4111 689.076,-37.8226 682.81,-34.254"/>
<text text-anchor="middle" x="304" y="-79" font-family="Helvetica,sans-Serif" font-size="10.00"> #state</text>
</g>
<!-- Node3 -->
<g id="node3" class="node"><title>Node3</title>
<polygon fill="none" stroke="#bfbfbf" points="0,-353.5 0,-410.5 43,-410.5 43,-353.5 0,-353.5"/>
<text text-anchor="middle" x="21.5" y="-398.5" font-family="Helvetica,sans-Serif" font-size="10.00">Buffer</text>
<polyline fill="none" stroke="#bfbfbf" points="0,-391.5 43,-391.5 "/>
<text text-anchor="middle" x="21.5" y="-379.5" font-family="Helvetica,sans-Serif" font-size="10.00"> </text>
<polyline fill="none" stroke="#bfbfbf" points="0,-372.5 43,-372.5 "/>
<text text-anchor="middle" x="21.5" y="-360.5" font-family="Helvetica,sans-Serif" font-size="10.00"> </text>
</g>
<!-- Node3&#45;&gt;Node2 -->
<g id="edge2" class="edge"><title>Node3&#45;&gt;Node2</title>
<path fill="none" stroke="#404040" d="M19.3909,-353.456C18.094,-320.962 19.7174,-266.16 40.5,-225 46.4927,-213.132 55.4344,-202.229 64.9969,-192.791"/>
<polygon fill="none" stroke="#404040" points="65.0862,-192.708 66.7669,-185.696 73.8864,-184.55 72.2057,-191.563 65.0862,-192.708"/>
<text text-anchor="middle" x="74.5" y="-305" font-family="Helvetica,sans-Serif" font-size="10.00"> +filteredPeaks</text>
<text text-anchor="middle" x="74.5" y="-294" font-family="Helvetica,sans-Serif" font-size="10.00">+clusterByRow</text>
<text text-anchor="middle" x="74.5" y="-283" font-family="Helvetica,sans-Serif" font-size="10.00">+digits</text>
<text text-anchor="middle" x="74.5" y="-272" font-family="Helvetica,sans-Serif" font-size="10.00">+peaks</text>
<text text-anchor="middle" x="74.5" y="-261" font-family="Helvetica,sans-Serif" font-size="10.00">+isPeak</text>
<text text-anchor="middle" x="74.5" y="-250" font-family="Helvetica,sans-Serif" font-size="10.00">+chargeMap</text>
<text text-anchor="middle" x="74.5" y="-239" font-family="Helvetica,sans-Serif" font-size="10.00">+peakMap</text>
<text text-anchor="middle" x="74.5" y="-228" font-family="Helvetica,sans-Serif" font-size="10.00">+clusterInRow</text>
</g>
<!-- Node4 -->
<g id="node4" class="node"><title>Node4</title>
<g id="a_node4"><a xlink:href="../../dd/de2/classsize__t.html" target="_top" xlink:title="{size_t\n||}">
<polygon fill="none" stroke="black" points="91,-353.5 91,-410.5 134,-410.5 134,-353.5 91,-353.5"/>
<text text-anchor="middle" x="112.5" y="-398.5" font-family="Helvetica,sans-Serif" font-size="10.00">size_t</text>
<polyline fill="none" stroke="black" points="91,-391.5 134,-391.5 "/>
<text text-anchor="middle" x="112.5" y="-379.5" font-family="Helvetica,sans-Serif" font-size="10.00"> </text>
<polyline fill="none" stroke="black" points="91,-372.5 134,-372.5 "/>
<text text-anchor="middle" x="112.5" y="-360.5" font-family="Helvetica,sans-Serif" font-size="10.00"> </text>
</a>
</g>
</g>
<!-- Node4&#45;&gt;Node2 -->
<g id="edge3" class="edge"><title>Node4&#45;&gt;Node2</title>
<path fill="none" stroke="#404040" d="M112.5,-353.083C112.5,-313.718 112.5,-241.693 112.5,-196.749"/>
<polygon fill="none" stroke="#404040" points="112.5,-196.565 108.5,-190.565 112.5,-184.565 116.5,-190.565 112.5,-196.565"/>
<text text-anchor="middle" x="158.5" y="-283" font-family="Helvetica,sans-Serif" font-size="10.00"> +filteredPeakNum</text>
<text text-anchor="middle" x="158.5" y="-272" font-family="Helvetica,sans-Serif" font-size="10.00">+maxClusterPerRow</text>
<text text-anchor="middle" x="158.5" y="-261" font-family="Helvetica,sans-Serif" font-size="10.00">+digitnum</text>
<text text-anchor="middle" x="158.5" y="-250" font-family="Helvetica,sans-Serif" font-size="10.00">+peaknum</text>
</g>
<!-- Node5 -->
<g id="node5" class="node"><title>Node5</title>
<g id="a_node5"><a xlink:href="../../da/daa/structgpucf_1_1ClusterFinderConfig.html" target="_top" xlink:title="{gpucf::ClusterFinderConfig\n||}">
<polygon fill="none" stroke="black" points="160.5,-353.5 160.5,-410.5 294.5,-410.5 294.5,-353.5 160.5,-353.5"/>
<text text-anchor="middle" x="227.5" y="-398.5" font-family="Helvetica,sans-Serif" font-size="10.00">gpucf::ClusterFinderConfig</text>
<polyline fill="none" stroke="black" points="160.5,-391.5 294.5,-391.5 "/>
<text text-anchor="middle" x="227.5" y="-379.5" font-family="Helvetica,sans-Serif" font-size="10.00"> </text>
<polyline fill="none" stroke="black" points="160.5,-372.5 294.5,-372.5 "/>
<text text-anchor="middle" x="227.5" y="-360.5" font-family="Helvetica,sans-Serif" font-size="10.00"> </text>
</a>
</g>
</g>
<!-- Node5&#45;&gt;Node2 -->
<g id="edge4" class="edge"><title>Node5&#45;&gt;Node2</title>
<path fill="none" stroke="#404040" d="M229.823,-353.226C231.246,-320.264 229.327,-264.769 205.5,-225 202.53,-220.042 183.283,-205.699 163.063,-191.456"/>
<polygon fill="none" stroke="#404040" points="162.963,-191.386 155.753,-191.229 153.125,-184.514 160.335,-184.671 162.963,-191.386"/>
<text text-anchor="middle" x="241" y="-266.5" font-family="Helvetica,sans-Serif" font-size="10.00"> +cfg</text>
</g>
<!-- Node6 -->
<g id="node6" class="node"><title>Node6</title>
<polygon fill="none" stroke="#bfbfbf" points="136.5,-480.5 136.5,-537.5 214.5,-537.5 214.5,-480.5 136.5,-480.5"/>
<text text-anchor="middle" x="175.5" y="-525.5" font-family="Helvetica,sans-Serif" font-size="10.00">ClusterBuilder</text>
<polyline fill="none" stroke="#bfbfbf" points="136.5,-518.5 214.5,-518.5 "/>
<text text-anchor="middle" x="175.5" y="-506.5" font-family="Helvetica,sans-Serif" font-size="10.00"> </text>
<polyline fill="none" stroke="#bfbfbf" points="136.5,-499.5 214.5,-499.5 "/>
<text text-anchor="middle" x="175.5" y="-487.5" font-family="Helvetica,sans-Serif" font-size="10.00"> </text>
</g>
<!-- Node6&#45;&gt;Node5 -->
<g id="edge5" class="edge"><title>Node6&#45;&gt;Node5</title>
<path fill="none" stroke="#404040" d="M181.988,-480.352C184.54,-470.898 187.761,-460.353 191.5,-451 195.42,-441.193 200.353,-430.958 205.298,-421.494"/>
<polygon fill="none" stroke="#404040" points="205.361,-421.377 204.684,-414.198 211.05,-410.811 211.728,-417.99 205.361,-421.377"/>
<text text-anchor="middle" x="225" y="-454" font-family="Helvetica,sans-Serif" font-size="10.00"> +clusterbuilder</text>
</g>
<!-- Node7 -->
<g id="node7" class="node"><title>Node7</title>
<polygon fill="none" stroke="#bfbfbf" points="232.5,-480.5 232.5,-537.5 328.5,-537.5 328.5,-480.5 232.5,-480.5"/>
<text text-anchor="middle" x="280.5" y="-525.5" font-family="Helvetica,sans-Serif" font-size="10.00">ChargemapLayout</text>
<polyline fill="none" stroke="#bfbfbf" points="232.5,-518.5 328.5,-518.5 "/>
<text text-anchor="middle" x="280.5" y="-506.5" font-family="Helvetica,sans-Serif" font-size="10.00"> </text>
<polyline fill="none" stroke="#bfbfbf" points="232.5,-499.5 328.5,-499.5 "/>
<text text-anchor="middle" x="280.5" y="-487.5" font-family="Helvetica,sans-Serif" font-size="10.00"> </text>
</g>
<!-- Node7&#45;&gt;Node5 -->
<g id="edge6" class="edge"><title>Node7&#45;&gt;Node5</title>
<path fill="none" stroke="#404040" d="M270.197,-480.325C266.613,-470.965 262.488,-460.485 258.5,-451 254.496,-441.477 249.983,-431.299 245.666,-421.795"/>
<polygon fill="none" stroke="#404040" points="245.547,-421.535 239.41,-417.748 240.545,-410.627 246.682,-414.413 245.547,-421.535"/>
<text text-anchor="middle" x="281.5" y="-454" font-family="Helvetica,sans-Serif" font-size="10.00"> +layout</text>
</g>
<!-- Node8 -->
<g id="node8" class="node"><title>Node8</title>
<g id="a_node8"><a xlink:href="../../d8/de4/classgpucf_1_1FillChargeMap.html" target="_top" xlink:title="{gpucf::FillChargeMap\n||+ DECL_KERNEL()\l+ call()\l}">
<polygon fill="none" stroke="black" points="194.5,-122 194.5,-190 304.5,-190 304.5,-122 194.5,-122"/>
<text text-anchor="middle" x="249.5" y="-178" font-family="Helvetica,sans-Serif" font-size="10.00">gpucf::FillChargeMap</text>
<polyline fill="none" stroke="black" points="194.5,-171 304.5,-171 "/>
<text text-anchor="middle" x="249.5" y="-159" font-family="Helvetica,sans-Serif" font-size="10.00"> </text>
<polyline fill="none" stroke="black" points="194.5,-152 304.5,-152 "/>
<text text-anchor="start" x="202.5" y="-140" font-family="Helvetica,sans-Serif" font-size="10.00">+ DECL_KERNEL()</text>
<text text-anchor="start" x="202.5" y="-129" font-family="Helvetica,sans-Serif" font-size="10.00">+ call()</text>
</a>
</g>
</g>
<!-- Node8&#45;&gt;Node1 -->
<g id="edge7" class="edge"><title>Node8&#45;&gt;Node1</title>
<path fill="none" stroke="#404040" d="M287.617,-121.774C295.805,-115.644 304.663,-109.703 313.5,-105 350.225,-85.4539 361.935,-85.232 402.5,-76 498.935,-54.0529 613.083,-41.3663 682.875,-35.07"/>
<polygon fill="none" stroke="#404040" points="683,-35.0591 688.625,-30.5472 694.953,-34.0044 689.328,-38.5162 683,-35.0591"/>
<text text-anchor="middle" x="437" y="-79" font-family="Helvetica,sans-Serif" font-size="10.00"> #fillChargeMap</text>
</g>
<!-- Node9 -->
<g id="node9" class="node"><title>Node9</title>
<g id="a_node9"><a xlink:href="../../d3/d20/classgpucf_1_1Kernel1D.html" target="_top" xlink:title="{gpucf::Kernel1D\n||+ Kernel1D()\l+ getName()\l+ getEvent()\l+ setArg()\l+ call()\l}">
<polygon fill="none" stroke="black" points="453,-331.5 453,-432.5 540,-432.5 540,-331.5 453,-331.5"/>
<text text-anchor="middle" x="496.5" y="-420.5" font-family="Helvetica,sans-Serif" font-size="10.00">gpucf::Kernel1D</text>
<polyline fill="none" stroke="black" points="453,-413.5 540,-413.5 "/>
<text text-anchor="middle" x="496.5" y="-401.5" font-family="Helvetica,sans-Serif" font-size="10.00"> </text>
<polyline fill="none" stroke="black" points="453,-394.5 540,-394.5 "/>
<text text-anchor="start" x="461" y="-382.5" font-family="Helvetica,sans-Serif" font-size="10.00">+ Kernel1D()</text>
<text text-anchor="start" x="461" y="-371.5" font-family="Helvetica,sans-Serif" font-size="10.00">+ getName()</text>
<text text-anchor="start" x="461" y="-360.5" font-family="Helvetica,sans-Serif" font-size="10.00">+ getEvent()</text>
<text text-anchor="start" x="461" y="-349.5" font-family="Helvetica,sans-Serif" font-size="10.00">+ setArg()</text>
<text text-anchor="start" x="461" y="-338.5" font-family="Helvetica,sans-Serif" font-size="10.00">+ call()</text>
</a>
</g>
</g>
<!-- Node9&#45;&gt;Node8 -->
<g id="edge8" class="edge"><title>Node9&#45;&gt;Node8</title>
<path fill="none" stroke="midnightblue" d="M445.048,-341.693C433.501,-332.494 421.436,-322.578 410.5,-313 364.241,-272.483 313.755,-222.555 281.881,-190.267"/>
<polygon fill="none" stroke="midnightblue" points="442.925,-344.476 452.939,-347.934 447.267,-338.986 442.925,-344.476"/>
</g>
<!-- Node12 -->
<g id="node12" class="node"><title>Node12</title>
<g id="a_node12"><a xlink:href="../../d8/d9f/classgpucf_1_1ResetMaps.html" target="_top" xlink:title="{gpucf::ResetMaps\n||+ DECL_KERNEL()\l+ call()\l}">
<polygon fill="none" stroke="black" points="322.5,-122 322.5,-190 426.5,-190 426.5,-122 322.5,-122"/>
<text text-anchor="middle" x="374.5" y="-178" font-family="Helvetica,sans-Serif" font-size="10.00">gpucf::ResetMaps</text>
<polyline fill="none" stroke="black" points="322.5,-171 426.5,-171 "/>
<text text-anchor="middle" x="374.5" y="-159" font-family="Helvetica,sans-Serif" font-size="10.00"> </text>
<polyline fill="none" stroke="black" points="322.5,-152 426.5,-152 "/>
<text text-anchor="start" x="330.5" y="-140" font-family="Helvetica,sans-Serif" font-size="10.00">+ DECL_KERNEL()</text>
<text text-anchor="start" x="330.5" y="-129" font-family="Helvetica,sans-Serif" font-size="10.00">+ call()</text>
</a>
</g>
</g>
<!-- Node9&#45;&gt;Node12 -->
<g id="edge12" class="edge"><title>Node9&#45;&gt;Node12</title>
<path fill="none" stroke="midnightblue" d="M464.501,-322.247C441.579,-280.162 411.537,-225.003 392.623,-190.274"/>
<polygon fill="none" stroke="midnightblue" points="461.567,-324.179 469.424,-331.287 467.715,-320.831 461.567,-324.179"/>
</g>
<!-- Node13 -->
<g id="node13" class="node"><title>Node13</title>
<g id="a_node13"><a xlink:href="../../d7/d29/classgpucf_1_1FindPeaks.html" target="_top" xlink:title="{gpucf::FindPeaks\n||+ DECL_KERNEL()\l+ call()\l}">
<polygon fill="none" stroke="black" points="444.5,-122 444.5,-190 548.5,-190 548.5,-122 444.5,-122"/>
<text text-anchor="middle" x="496.5" y="-178" font-family="Helvetica,sans-Serif" font-size="10.00">gpucf::FindPeaks</text>
<polyline fill="none" stroke="black" points="444.5,-171 548.5,-171 "/>
<text text-anchor="middle" x="496.5" y="-159" font-family="Helvetica,sans-Serif" font-size="10.00"> </text>
<polyline fill="none" stroke="black" points="444.5,-152 548.5,-152 "/>
<text text-anchor="start" x="452.5" y="-140" font-family="Helvetica,sans-Serif" font-size="10.00">+ DECL_KERNEL()</text>
<text text-anchor="start" x="452.5" y="-129" font-family="Helvetica,sans-Serif" font-size="10.00">+ call()</text>
</a>
</g>
</g>
<!-- Node9&#45;&gt;Node13 -->
<g id="edge14" class="edge"><title>Node9&#45;&gt;Node13</title>
<path fill="none" stroke="midnightblue" d="M496.5,-321.186C496.5,-279.238 496.5,-224.712 496.5,-190.274"/>
<polygon fill="none" stroke="midnightblue" points="493,-321.287 496.5,-331.287 500,-321.287 493,-321.287"/>
</g>
<!-- Node15 -->
<g id="node15" class="node"><title>Node15</title>
<g id="a_node15"><a xlink:href="../../d8/d88/classgpucf_1_1CountPeaks.html" target="_top" xlink:title="{gpucf::CountPeaks\n||+ DECL_KERNEL()\l+ call()\l}">
<polygon fill="none" stroke="black" points="566.5,-122 566.5,-190 670.5,-190 670.5,-122 566.5,-122"/>
<text text-anchor="middle" x="618.5" y="-178" font-family="Helvetica,sans-Serif" font-size="10.00">gpucf::CountPeaks</text>
<polyline fill="none" stroke="black" points="566.5,-171 670.5,-171 "/>
<text text-anchor="middle" x="618.5" y="-159" font-family="Helvetica,sans-Serif" font-size="10.00"> </text>
<polyline fill="none" stroke="black" points="566.5,-152 670.5,-152 "/>
<text text-anchor="start" x="574.5" y="-140" font-family="Helvetica,sans-Serif" font-size="10.00">+ DECL_KERNEL()</text>
<text text-anchor="start" x="574.5" y="-129" font-family="Helvetica,sans-Serif" font-size="10.00">+ call()</text>
</a>
</g>
</g>
<!-- Node9&#45;&gt;Node15 -->
<g id="edge17" class="edge"><title>Node9&#45;&gt;Node15</title>
<path fill="none" stroke="midnightblue" d="M528.499,-322.247C551.421,-280.162 581.463,-225.003 600.377,-190.274"/>
<polygon fill="none" stroke="midnightblue" points="525.285,-320.831 523.576,-331.287 531.433,-324.179 525.285,-320.831"/>
</g>
<!-- Node16 -->
<g id="node16" class="node"><title>Node16</title>
<g id="a_node16"><a xlink:href="../../db/d3d/classgpucf_1_1ComputeCluster.html" target="_top" xlink:title="{gpucf::ComputeCluster\n||+ DECL_KERNEL()\l+ call()\l}">
<polygon fill="none" stroke="black" points="688.5,-122 688.5,-190 806.5,-190 806.5,-122 688.5,-122"/>
<text text-anchor="middle" x="747.5" y="-178" font-family="Helvetica,sans-Serif" font-size="10.00">gpucf::ComputeCluster</text>
<polyline fill="none" stroke="black" points="688.5,-171 806.5,-171 "/>
<text text-anchor="middle" x="747.5" y="-159" font-family="Helvetica,sans-Serif" font-size="10.00"> </text>
<polyline fill="none" stroke="black" points="688.5,-152 806.5,-152 "/>
<text text-anchor="start" x="696.5" y="-140" font-family="Helvetica,sans-Serif" font-size="10.00">+ DECL_KERNEL()</text>
<text text-anchor="start" x="696.5" y="-129" font-family="Helvetica,sans-Serif" font-size="10.00">+ call()</text>
</a>
</g>
</g>
<!-- Node9&#45;&gt;Node16 -->
<g id="edge19" class="edge"><title>Node9&#45;&gt;Node16</title>
<path fill="none" stroke="midnightblue" d="M547.773,-335.243C596.101,-292.113 667.354,-228.525 710.405,-190.105"/>
<polygon fill="none" stroke="midnightblue" points="545.351,-332.712 540.221,-341.982 550.012,-337.935 545.351,-332.712"/>
</g>
<!-- Node10 -->
<g id="node10" class="node"><title>Node10</title>
<polygon fill="none" stroke="#bfbfbf" points="474.5,-480.5 474.5,-537.5 518.5,-537.5 518.5,-480.5 474.5,-480.5"/>
<text text-anchor="middle" x="496.5" y="-525.5" font-family="Helvetica,sans-Serif" font-size="10.00">Kernel</text>
<polyline fill="none" stroke="#bfbfbf" points="474.5,-518.5 518.5,-518.5 "/>
<text text-anchor="middle" x="496.5" y="-506.5" font-family="Helvetica,sans-Serif" font-size="10.00"> </text>
<polyline fill="none" stroke="#bfbfbf" points="474.5,-499.5 518.5,-499.5 "/>
<text text-anchor="middle" x="496.5" y="-487.5" font-family="Helvetica,sans-Serif" font-size="10.00"> </text>
</g>
<!-- Node10&#45;&gt;Node9 -->
<g id="edge9" class="edge"><title>Node10&#45;&gt;Node9</title>
<path fill="none" stroke="#404040" d="M496.5,-480.258C496.5,-469.793 496.5,-457.422 496.5,-445.072"/>
<polygon fill="none" stroke="#404040" points="496.5,-444.802 492.5,-438.802 496.5,-432.802 500.5,-438.802 496.5,-444.802"/>
<text text-anchor="middle" x="514" y="-454" font-family="Helvetica,sans-Serif" font-size="10.00"> #kernel</text>
</g>
<!-- Node11 -->
<g id="node11" class="node"><title>Node11</title>
<g id="a_node11"><a xlink:href="../../d5/d63/classgpucf_1_1CompactPeaks.html" target="_top" xlink:title="{gpucf::CompactPeaks\n||+ CompactPeaks()\l+ call()\l+ compactFilteredPeaks()\l+ step()\l+ stepFiltered()\l}">
<polygon fill="none" stroke="black" points="825,-105.5 825,-206.5 954,-206.5 954,-105.5 825,-105.5"/>
<text text-anchor="middle" x="889.5" y="-194.5" font-family="Helvetica,sans-Serif" font-size="10.00">gpucf::CompactPeaks</text>
<polyline fill="none" stroke="black" points="825,-187.5 954,-187.5 "/>
<text text-anchor="middle" x="889.5" y="-175.5" font-family="Helvetica,sans-Serif" font-size="10.00"> </text>
<polyline fill="none" stroke="black" points="825,-168.5 954,-168.5 "/>
<text text-anchor="start" x="833" y="-156.5" font-family="Helvetica,sans-Serif" font-size="10.00">+ CompactPeaks()</text>
<text text-anchor="start" x="833" y="-145.5" font-family="Helvetica,sans-Serif" font-size="10.00">+ call()</text>
<text text-anchor="start" x="833" y="-134.5" font-family="Helvetica,sans-Serif" font-size="10.00">+ compactFilteredPeaks()</text>
<text text-anchor="start" x="833" y="-123.5" font-family="Helvetica,sans-Serif" font-size="10.00">+ step()</text>
<text text-anchor="start" x="833" y="-112.5" font-family="Helvetica,sans-Serif" font-size="10.00">+ stepFiltered()</text>
</a>
</g>
</g>
<!-- Node11&#45;&gt;Node1 -->
<g id="edge10" class="edge"><title>Node11&#45;&gt;Node1</title>
<path fill="none" stroke="#404040" d="M856.867,-105.5C848.672,-95.0475 839.373,-84.5937 829.5,-76 823.763,-71.0066 817.398,-66.307 810.824,-61.9597"/>
<polygon fill="none" stroke="#404040" points="810.554,-61.7909 803.346,-61.9999 800.381,-55.4267 807.589,-55.2177 810.554,-61.7909"/>
<text text-anchor="middle" x="876.5" y="-79" font-family="Helvetica,sans-Serif" font-size="10.00"> #compactPeaks</text>
</g>
<!-- Node12&#45;&gt;Node1 -->
<g id="edge11" class="edge"><title>Node12&#45;&gt;Node1</title>
<path fill="none" stroke="#404040" d="M410.246,-121.812C418.16,-115.607 426.794,-109.628 435.5,-105 514.525,-62.9943 617.232,-44.1738 682.779,-35.9812"/>
<polygon fill="none" stroke="#404040" points="683.058,-35.948 688.541,-31.2653 694.973,-34.5263 689.489,-39.209 683.058,-35.948"/>
<text text-anchor="middle" x="528" y="-79" font-family="Helvetica,sans-Serif" font-size="10.00"> #resetMaps</text>
</g>
<!-- Node13&#45;&gt;Node1 -->
<g id="edge13" class="edge"><title>Node13&#45;&gt;Node1</title>
<path fill="none" stroke="#404040" d="M534.178,-121.819C541.67,-115.89 549.653,-110.012 557.5,-105 596.502,-80.0877 645.114,-61.0847 683.403,-48.44"/>
<polygon fill="none" stroke="#404040" points="683.512,-48.4049 687.994,-42.7559 694.932,-44.7204 690.45,-50.3695 683.512,-48.4049"/>
<text text-anchor="middle" x="638.5" y="-79" font-family="Helvetica,sans-Serif" font-size="10.00"> #findPeaks</text>
</g>
<!-- Node14 -->
<g id="node14" class="node"><title>Node14</title>
<polygon fill="none" stroke="#bfbfbf" points="972.5,-127.5 972.5,-184.5 1062.5,-184.5 1062.5,-127.5 972.5,-127.5"/>
<text text-anchor="middle" x="1017.5" y="-172.5" font-family="Helvetica,sans-Serif" font-size="10.00">CommandQueue</text>
<polyline fill="none" stroke="#bfbfbf" points="972.5,-165.5 1062.5,-165.5 "/>
<text text-anchor="middle" x="1017.5" y="-153.5" font-family="Helvetica,sans-Serif" font-size="10.00"> </text>
<polyline fill="none" stroke="#bfbfbf" points="972.5,-146.5 1062.5,-146.5 "/>
<text text-anchor="middle" x="1017.5" y="-134.5" font-family="Helvetica,sans-Serif" font-size="10.00"> </text>
</g>
<!-- Node14&#45;&gt;Node1 -->
<g id="edge15" class="edge"><title>Node14&#45;&gt;Node1</title>
<path fill="none" stroke="#404040" d="M988.878,-127.342C980.606,-119.806 971.403,-111.84 962.5,-105 943.633,-90.5035 939.241,-85.6663 917.5,-76 884.056,-61.1305 844.718,-50.109 812.31,-42.5881"/>
<polygon fill="none" stroke="#404040" points="811.963,-42.5101 805.232,-45.0957 800.256,-39.8763 806.988,-37.2907 811.963,-42.5101"/>
<text text-anchor="middle" x="956" y="-79" font-family="Helvetica,sans-Serif" font-size="10.00"> #queue</text>
</g>
<!-- Node15&#45;&gt;Node1 -->
<g id="edge16" class="edge"><title>Node15&#45;&gt;Node1</title>
<path fill="none" stroke="#404040" d="M642.176,-121.745C653.519,-106.93 667.816,-89.7587 682.5,-76 686.466,-72.2839 690.747,-68.6244 695.152,-65.0917"/>
<polygon fill="none" stroke="#404040" points="695.404,-64.8977 697.726,-58.0705 704.921,-57.5877 702.599,-64.4149 695.404,-64.8977"/>
<text text-anchor="middle" x="713" y="-79" font-family="Helvetica,sans-Serif" font-size="10.00"> #countPeaks</text>
</g>
<!-- Node16&#45;&gt;Node1 -->
<g id="edge18" class="edge"><title>Node16&#45;&gt;Node1</title>
<path fill="none" stroke="#404040" d="M747.5,-121.83C747.5,-105.923 747.5,-86.7368 747.5,-70.0243"/>
<polygon fill="none" stroke="#404040" points="747.5,-69.8216 743.5,-63.8216 747.5,-57.8216 751.5,-63.8216 747.5,-69.8216"/>
<text text-anchor="middle" x="786.5" y="-79" font-family="Helvetica,sans-Serif" font-size="10.00"> #computeCluster</text>
</g>
<!-- Node17 -->
<g id="node17" class="node"><title>Node17</title>
<g id="a_node17"><a xlink:href="../../d5/d40/classgpucf_1_1GPUNoiseSuppression.html" target="_top" xlink:title="{gpucf::GPUNoiseSuppression\n||+ GPUNoiseSuppression()\l+ call()\l+ asStep()\l}">
<polygon fill="none" stroke="black" points="1080.5,-116.5 1080.5,-195.5 1228.5,-195.5 1228.5,-116.5 1080.5,-116.5"/>
<text text-anchor="middle" x="1154.5" y="-183.5" font-family="Helvetica,sans-Serif" font-size="10.00">gpucf::GPUNoiseSuppression</text>
<polyline fill="none" stroke="black" points="1080.5,-176.5 1228.5,-176.5 "/>
<text text-anchor="middle" x="1154.5" y="-164.5" font-family="Helvetica,sans-Serif" font-size="10.00"> </text>
<polyline fill="none" stroke="black" points="1080.5,-157.5 1228.5,-157.5 "/>
<text text-anchor="start" x="1088.5" y="-145.5" font-family="Helvetica,sans-Serif" font-size="10.00">+ GPUNoiseSuppression()</text>
<text text-anchor="start" x="1088.5" y="-134.5" font-family="Helvetica,sans-Serif" font-size="10.00">+ call()</text>
<text text-anchor="start" x="1088.5" y="-123.5" font-family="Helvetica,sans-Serif" font-size="10.00">+ asStep()</text>
</a>
</g>
</g>
<!-- Node17&#45;&gt;Node1 -->
<g id="edge20" class="edge"><title>Node17&#45;&gt;Node1</title>
<path fill="none" stroke="#404040" d="M1094.22,-116.398C1086.71,-112.276 1079.02,-108.367 1071.5,-105 986.287,-66.8729 879.469,-46.9893 812.328,-37.5135"/>
<polygon fill="none" stroke="#404040" points="812.156,-37.4901 805.669,-40.6397 800.267,-35.8632 806.754,-32.7136 812.156,-37.4901"/>
<text text-anchor="middle" x="1064.5" y="-79" font-family="Helvetica,sans-Serif" font-size="10.00"> #noiseSuppression</text>
</g>
<!-- Node18 -->
<g id="node18" class="node"><title>Node18</title>
<g id="a_node18"><a xlink:href="../../de/d12/classgpucf_1_1DigitsToGPU.html" target="_top" xlink:title="{gpucf::DigitsToGPU\n||+ call()\l}">
<polygon fill="none" stroke="black" points="1247,-127.5 1247,-184.5 1352,-184.5 1352,-127.5 1247,-127.5"/>
<text text-anchor="middle" x="1299.5" y="-172.5" font-family="Helvetica,sans-Serif" font-size="10.00">gpucf::DigitsToGPU</text>
<polyline fill="none" stroke="black" points="1247,-165.5 1352,-165.5 "/>
<text text-anchor="middle" x="1299.5" y="-153.5" font-family="Helvetica,sans-Serif" font-size="10.00"> </text>
<polyline fill="none" stroke="black" points="1247,-146.5 1352,-146.5 "/>
<text text-anchor="start" x="1255" y="-134.5" font-family="Helvetica,sans-Serif" font-size="10.00">+ call()</text>
</a>
</g>
</g>
<!-- Node18&#45;&gt;Node1 -->
<g id="edge21" class="edge"><title>Node18&#45;&gt;Node1</title>
<path fill="none" stroke="#404040" d="M1270.8,-127.36C1260.9,-119.109 1249.31,-110.743 1237.5,-105 1163.66,-69.1088 927.702,-45.0564 812.297,-35.1326"/>
<polygon fill="none" stroke="#404040" points="812.133,-35.1188 805.816,-38.5972 800.176,-34.1042 806.493,-30.6258 812.133,-35.1188"/>
<text text-anchor="middle" x="1214" y="-79" font-family="Helvetica,sans-Serif" font-size="10.00"> #digitsToGPU</text>
</g>
<!-- Node19 -->
<g id="node19" class="node"><title>Node19</title>
<g id="a_node19"><a xlink:href="../../de/dd3/classgpucf_1_1ClusterToCPU.html" target="_top" xlink:title="{gpucf::ClusterToCPU\n||+ call()\l}">
<polygon fill="none" stroke="black" points="1370,-127.5 1370,-184.5 1481,-184.5 1481,-127.5 1370,-127.5"/>
<text text-anchor="middle" x="1425.5" y="-172.5" font-family="Helvetica,sans-Serif" font-size="10.00">gpucf::ClusterToCPU</text>
<polyline fill="none" stroke="black" points="1370,-165.5 1481,-165.5 "/>
<text text-anchor="middle" x="1425.5" y="-153.5" font-family="Helvetica,sans-Serif" font-size="10.00"> </text>
<polyline fill="none" stroke="black" points="1370,-146.5 1481,-146.5 "/>
<text text-anchor="start" x="1378" y="-134.5" font-family="Helvetica,sans-Serif" font-size="10.00">+ call()</text>
</a>
</g>
</g>
<!-- Node19&#45;&gt;Node1 -->
<g id="edge22" class="edge"><title>Node19&#45;&gt;Node1</title>
<path fill="none" stroke="#404040" d="M1394.78,-127.364C1384.47,-119.211 1372.51,-110.902 1360.5,-105 1315.12,-82.7024 1300.29,-84.7771 1250.5,-76 1094.55,-48.5093 908.323,-36.9133 812.136,-32.4669"/>
<polygon fill="none" stroke="#404040" points="812.004,-32.4611 805.831,-36.1879 800.016,-31.9227 806.19,-28.1959 812.004,-32.4611"/>
<text text-anchor="middle" x="1349" y="-79" font-family="Helvetica,sans-Serif" font-size="10.00"> #clusterToCPU</text>
</g>
</g>
</svg>
        <g id="navigator" transform="translate(0 0)" fill="#404254">
                <rect fill="#f2f5e9" fill-opacity="0.5" stroke="#606060" stroke-width=".5" x="0" y="0" width="60" height="60"/>
                <use id="zoomplus" xlink:href="#zoomPlus" x="17" y="9" onmousedown="handleZoom(evt,'in')"/>
                <use id="zoomminus" xlink:href="#zoomMin" x="42" y="9" onmousedown="handleZoom(evt,'out')"/>
                <use id="reset" xlink:href="#resetDef" x="30" y="36" onmousedown="handleReset()"/>
                <g id="arrowUp" xlink:href="#dirArrow" transform="translate(30 24)" onmousedown="handlePan(0,-1)">
                  <use xlink:href="#rim" fill="#404040">
                        <set attributeName="fill" to="#808080" begin="arrowUp.mouseover" end="arrowUp.mouseout"/>
                  </use>
                  <path fill="none" stroke="white" stroke-width="1.5" d="M0,-3.0v7 M-2.5,-0.5L0,-3.0L2.5,-0.5"/>
                </g>
                <g id="arrowRight" xlink:href="#dirArrow" transform="rotate(90) translate(36 -43)" onmousedown="handlePan(1,0)">
                  <use xlink:href="#rim" fill="#404040">
                        <set attributeName="fill" to="#808080" begin="arrowRight.mouseover" end="arrowRight.mouseout"/>
                  </use>
                  <path fill="none" stroke="white" stroke-width="1.5" d="M0,-3.0v7 M-2.5,-0.5L0,-3.0L2.5,-0.5"/>
                </g>
                <g id="arrowDown" xlink:href="#dirArrow" transform="rotate(180) translate(-30 -48)" onmousedown="handlePan(0,1)">
                  <use xlink:href="#rim" fill="#404040">
                        <set attributeName="fill" to="#808080" begin="arrowDown.mouseover" end="arrowDown.mouseout"/>
                  </use>
                  <path fill="none" stroke="white" stroke-width="1.5" d="M0,-3.0v7 M-2.5,-0.5L0,-3.0L2.5,-0.5"/>
                </g>
                <g id="arrowLeft" xlink:href="#dirArrow" transform="rotate(270) translate(-36 17)" onmousedown="handlePan(-1,0)">
                  <use xlink:href="#rim" fill="#404040">
                        <set attributeName="fill" to="#808080" begin="arrowLeft.mouseover" end="arrowLeft.mouseout"/>
                  </use>
                  <path fill="none" stroke="white" stroke-width="1.5" d="M0,-3.0v7 M-2.5,-0.5L0,-3.0L2.5,-0.5"/>
                </g>
        </g>
        <svg viewBox="0 0 15 15" width="100%" height="30px" preserveAspectRatio="xMaxYMin meet">
         <g id="arrow_out" transform="scale(0.3 0.3)">
          <a xlink:href="classgpucf_1_1ClusterFinder__coll__graph_org.svg" target="_base">
           <rect id="button" ry="5" rx="5" y="6" x="6" height="38" width="38"
                fill="#f2f5e9" fill-opacity="0.5" stroke="#606060" stroke-width="1.0"/>
           <path id="arrow"
             d="M 11.500037,31.436501 C 11.940474,20.09759 22.043105,11.32322 32.158766,21.979434 L 37.068811,17.246167 C 37.068811,17.246167 37.088388,32 37.088388,32 L 22.160133,31.978069 C 22.160133,31.978069 26.997745,27.140456 26.997745,27.140456 C 18.528582,18.264221 13.291696,25.230495 11.500037,31.436501 z"
             style="fill:#404040;"/>
          </a>
         </g>
        </svg>
</svg>
