<?xml version="1.0" encoding="UTF-8" standalone="no"?>
<!DOCTYPE svg PUBLIC "-//W3C//DTD SVG 1.1//EN"
 "http://www.w3.org/Graphics/SVG/1.1/DTD/svg11.dtd">
<!-- Generated by graphviz version 2.38.0 (20140413.2041)
 -->
<!-- Title: /home/travis/build/AliceO2Group/AliceO2/Framework/Core/include/Framework/DataDescriptorQueryBuilder.h Pages: 1 -->
<svg width="1237pt" height="150pt"
 viewBox="0.00 0.00 1237.00 150.00" xmlns="http://www.w3.org/2000/svg" xmlns:xlink="http://www.w3.org/1999/xlink">
<g id="graph0" class="graph" transform="scale(1 1) rotate(0) translate(4 146)">
<title>/home/travis/build/AliceO2Group/AliceO2/Framework/Core/include/Framework/DataDescriptorQueryBuilder.h</title>
<!-- Node1 -->
<g id="node1" class="node"><title>Node1</title>
<polygon fill="#bfbfbf" stroke="black" points="554.5,-89.5 554.5,-141.5 756.5,-141.5 756.5,-89.5 554.5,-89.5"/>
<text text-anchor="start" x="562.5" y="-129.5" font-family="Helvetica,sans-Serif" font-size="10.00">/home/travis/build</text>
<text text-anchor="start" x="562.5" y="-118.5" font-family="Helvetica,sans-Serif" font-size="10.00">/AliceO2Group/AliceO2</text>
<text text-anchor="start" x="562.5" y="-107.5" font-family="Helvetica,sans-Serif" font-size="10.00">/Framework/Core/include</text>
<text text-anchor="middle" x="655.5" y="-96.5" font-family="Helvetica,sans-Serif" font-size="10.00">/Framework/DataDescriptorQueryBuilder.h</text>
</g>
<!-- Node2 -->
<g id="node2" class="node"><title>Node2</title>
<g id="a_node2"><a xlink:href="../../df/d93/CommonDataProcessors_8cxx.html" target="_top" xlink:title="/home/travis/build\l/AliceO2Group/AliceO2\l/Framework/Core/src/CommonData\lProcessors.cxx">
<polygon fill="none" stroke="black" points="0,-0.5 0,-52.5 173,-52.5 173,-0.5 0,-0.5"/>
<text text-anchor="start" x="8" y="-40.5" font-family="Helvetica,sans-Serif" font-size="10.00">/home/travis/build</text>
<text text-anchor="start" x="8" y="-29.5" font-family="Helvetica,sans-Serif" font-size="10.00">/AliceO2Group/AliceO2</text>
<text text-anchor="start" x="8" y="-18.5" font-family="Helvetica,sans-Serif" font-size="10.00">/Framework/Core/src/CommonData</text>
<text text-anchor="middle" x="86.5" y="-7.5" font-family="Helvetica,sans-Serif" font-size="10.00">Processors.cxx</text>
</a>
</g>
</g>
<!-- Node1&#45;&gt;Node2 -->
<g id="edge1" class="edge"><title>Node1&#45;&gt;Node2</title>
<path fill="none" stroke="midnightblue" d="M544.264,-104.173C447.989,-94.2521 305.308,-77.1872 182.5,-53 179.454,-52.4002 176.363,-51.7586 173.246,-51.0842"/>
<polygon fill="midnightblue" stroke="midnightblue" points="544.004,-107.665 554.308,-105.2 544.715,-100.701 544.004,-107.665"/>
</g>
<!-- Node3 -->
<g id="node3" class="node"><title>Node3</title>
<g id="a_node3"><a xlink:href="../../d3/d17/DataDescriptorQueryBuilder_8cxx.html" target="_top" xlink:title="/home/travis/build\l/AliceO2Group/AliceO2\l/Framework/Core/src/DataDescriptor\lQueryBuilder.cxx">
<polygon fill="none" stroke="black" points="191.5,-0.5 191.5,-52.5 369.5,-52.5 369.5,-0.5 191.5,-0.5"/>
<text text-anchor="start" x="199.5" y="-40.5" font-family="Helvetica,sans-Serif" font-size="10.00">/home/travis/build</text>
<text text-anchor="start" x="199.5" y="-29.5" font-family="Helvetica,sans-Serif" font-size="10.00">/AliceO2Group/AliceO2</text>
<text text-anchor="start" x="199.5" y="-18.5" font-family="Helvetica,sans-Serif" font-size="10.00">/Framework/Core/src/DataDescriptor</text>
<text text-anchor="middle" x="280.5" y="-7.5" font-family="Helvetica,sans-Serif" font-size="10.00">QueryBuilder.cxx</text>
</a>
</g>
</g>
<!-- Node1&#45;&gt;Node3 -->
<g id="edge2" class="edge"><title>Node1&#45;&gt;Node3</title>
<path fill="none" stroke="midnightblue" d="M544.322,-90.7756C493.645,-79.7153 432.937,-66.121 378.5,-53 375.595,-52.2997 372.643,-51.58 369.664,-50.8464"/>
<polygon fill="midnightblue" stroke="midnightblue" points="543.803,-94.2445 554.319,-92.953 545.293,-87.4049 543.803,-94.2445"/>
</g>
<!-- Node4 -->
<g id="node4" class="node"><title>Node4</title>
<g id="a_node4"><a xlink:href="../../de/d3b/DataSamplingPolicy_8cxx.html" target="_top" xlink:title="Implementation of O2 Data Sampling Policy. ">
<polygon fill="none" stroke="black" points="388,-0.5 388,-52.5 561,-52.5 561,-0.5 388,-0.5"/>
<text text-anchor="start" x="396" y="-40.5" font-family="Helvetica,sans-Serif" font-size="10.00">/home/travis/build</text>
<text text-anchor="start" x="396" y="-29.5" font-family="Helvetica,sans-Serif" font-size="10.00">/AliceO2Group/AliceO2</text>
<text text-anchor="start" x="396" y="-18.5" font-family="Helvetica,sans-Serif" font-size="10.00">/Framework/Core/src/DataSampling</text>
<text text-anchor="middle" x="474.5" y="-7.5" font-family="Helvetica,sans-Serif" font-size="10.00">Policy.cxx</text>
</a>
</g>
</g>
<!-- Node1&#45;&gt;Node4 -->
<g id="edge3" class="edge"><title>Node1&#45;&gt;Node4</title>
<path fill="none" stroke="midnightblue" d="M593.954,-84.917C572.103,-74.414 547.734,-62.701 526.735,-52.6075"/>
<polygon fill="midnightblue" stroke="midnightblue" points="592.618,-88.1583 603.147,-89.336 595.651,-81.8493 592.618,-88.1583"/>
</g>
<!-- Node5 -->
<g id="node5" class="node"><title>Node5</title>
<g id="a_node5"><a xlink:href="../../d0/d54/WorkflowSerializationHelpers_8cxx.html" target="_top" xlink:title="/home/travis/build\l/AliceO2Group/AliceO2\l/Framework/Core/src/Workflow\lSerializationHelpers.cxx">
<polygon fill="none" stroke="black" points="579,-0.5 579,-52.5 732,-52.5 732,-0.5 579,-0.5"/>
<text text-anchor="start" x="587" y="-40.5" font-family="Helvetica,sans-Serif" font-size="10.00">/home/travis/build</text>
<text text-anchor="start" x="587" y="-29.5" font-family="Helvetica,sans-Serif" font-size="10.00">/AliceO2Group/AliceO2</text>
<text text-anchor="start" x="587" y="-18.5" font-family="Helvetica,sans-Serif" font-size="10.00">/Framework/Core/src/Workflow</text>
<text text-anchor="middle" x="655.5" y="-7.5" font-family="Helvetica,sans-Serif" font-size="10.00">SerializationHelpers.cxx</text>
</a>
</g>
</g>
<!-- Node1&#45;&gt;Node5 -->
<g id="edge4" class="edge"><title>Node1&#45;&gt;Node5</title>
<path fill="none" stroke="midnightblue" d="M655.5,-79.1908C655.5,-70.2824 655.5,-60.8986 655.5,-52.6075"/>
<polygon fill="midnightblue" stroke="midnightblue" points="652,-79.336 655.5,-89.336 659,-79.336 652,-79.336"/>
</g>
<!-- Node6 -->
<g id="node6" class="node"><title>Node6</title>
<g id="a_node6"><a xlink:href="../../d1/d43/WorkflowSpec_8cxx.html" target="_top" xlink:title="/home/travis/build\l/AliceO2Group/AliceO2\l/Framework/Core/src/Workflow\lSpec.cxx">
<polygon fill="none" stroke="black" points="750,-0.5 750,-52.5 903,-52.5 903,-0.5 750,-0.5"/>
<text text-anchor="start" x="758" y="-40.5" font-family="Helvetica,sans-Serif" font-size="10.00">/home/travis/build</text>
<text text-anchor="start" x="758" y="-29.5" font-family="Helvetica,sans-Serif" font-size="10.00">/AliceO2Group/AliceO2</text>
<text text-anchor="start" x="758" y="-18.5" font-family="Helvetica,sans-Serif" font-size="10.00">/Framework/Core/src/Workflow</text>
<text text-anchor="middle" x="826.5" y="-7.5" font-family="Helvetica,sans-Serif" font-size="10.00">Spec.cxx</text>
</a>
</g>
</g>
<!-- Node1&#45;&gt;Node6 -->
<g id="edge5" class="edge"><title>Node1&#45;&gt;Node6</title>
<path fill="none" stroke="midnightblue" d="M713.922,-84.7763C734.495,-74.3094 757.4,-62.656 777.151,-52.6075"/>
<polygon fill="midnightblue" stroke="midnightblue" points="712.286,-81.6819 704.96,-89.336 715.46,-87.9208 712.286,-81.6819"/>
</g>
<!-- Node7 -->
<g id="node7" class="node"><title>Node7</title>
<g id="a_node7"><a xlink:href="../../dd/d1e/test__DataDescriptorMatcher_8cxx.html" target="_top" xlink:title="/home/travis/build\l/AliceO2Group/AliceO2\l/Framework/Core/test/test\l_DataDescriptorMatcher.cxx">
<polygon fill="none" stroke="black" points="921.5,-0.5 921.5,-52.5 1063.5,-52.5 1063.5,-0.5 921.5,-0.5"/>
<text text-anchor="start" x="929.5" y="-40.5" font-family="Helvetica,sans-Serif" font-size="10.00">/home/travis/build</text>
<text text-anchor="start" x="929.5" y="-29.5" font-family="Helvetica,sans-Serif" font-size="10.00">/AliceO2Group/AliceO2</text>
<text text-anchor="start" x="929.5" y="-18.5" font-family="Helvetica,sans-Serif" font-size="10.00">/Framework/Core/test/test</text>
<text text-anchor="middle" x="992.5" y="-7.5" font-family="Helvetica,sans-Serif" font-size="10.00">_DataDescriptorMatcher.cxx</text>
</a>
</g>
</g>
<!-- Node1&#45;&gt;Node7 -->
<g id="edge6" class="edge"><title>Node1&#45;&gt;Node7</title>
<path fill="none" stroke="midnightblue" d="M766.515,-89.819C811.961,-79.2266 864.945,-66.2497 912.5,-53 915.449,-52.1784 918.452,-51.32 921.482,-50.4363"/>
<polygon fill="midnightblue" stroke="midnightblue" points="765.587,-86.4411 756.638,-92.1114 767.17,-93.2599 765.587,-86.4411"/>
</g>
<!-- Node8 -->
<g id="node8" class="node"><title>Node8</title>
<g id="a_node8"><a xlink:href="../../dd/dfd/unittest__DataSpecUtils_8cxx.html" target="_top" xlink:title="/home/travis/build\l/AliceO2Group/AliceO2\l/Framework/Core/test/unittest\l_DataSpecUtils.cxx">
<polygon fill="none" stroke="black" points="1082,-0.5 1082,-52.5 1229,-52.5 1229,-0.5 1082,-0.5"/>
<text text-anchor="start" x="1090" y="-40.5" font-family="Helvetica,sans-Serif" font-size="10.00">/home/travis/build</text>
<text text-anchor="start" x="1090" y="-29.5" font-family="Helvetica,sans-Serif" font-size="10.00">/AliceO2Group/AliceO2</text>
<text text-anchor="start" x="1090" y="-18.5" font-family="Helvetica,sans-Serif" font-size="10.00">/Framework/Core/test/unittest</text>
<text text-anchor="middle" x="1155.5" y="-7.5" font-family="Helvetica,sans-Serif" font-size="10.00">_DataSpecUtils.cxx</text>
</a>
</g>
</g>
<!-- Node1&#45;&gt;Node8 -->
<g id="edge7" class="edge"><title>Node1&#45;&gt;Node8</title>
<path fill="none" stroke="midnightblue" d="M766.687,-102.752C851.183,-92.7053 969.957,-76.1731 1072.5,-53 1075.59,-52.3022 1078.73,-51.5473 1081.89,-50.7494"/>
<polygon fill="midnightblue" stroke="midnightblue" points="766.078,-99.2998 756.556,-103.945 766.897,-106.252 766.078,-99.2998"/>
</g>
</g>
</svg>
