<?xml version="1.0" encoding="UTF-8" standalone="no"?>
<!DOCTYPE svg PUBLIC "-//W3C//DTD SVG 1.1//EN"
 "http://www.w3.org/Graphics/SVG/1.1/DTD/svg11.dtd">
<!-- Generated by graphviz version 2.38.0 (20140413.2041)
 -->
<!-- Title: /home/travis/build/AliceO2Group/AliceO2/Detectors/PHOS/simulation/include/PHOSSimulation/MCLabel.h Pages: 1 -->
<svg width="533pt" height="339pt"
 viewBox="0.00 0.00 532.50 339.00" xmlns="http://www.w3.org/2000/svg" xmlns:xlink="http://www.w3.org/1999/xlink">
<g id="graph0" class="graph" transform="scale(1 1) rotate(0) translate(4 335)">
<title>/home/travis/build/AliceO2Group/AliceO2/Detectors/PHOS/simulation/include/PHOSSimulation/MCLabel.h</title>
<!-- Node1 -->
<g id="node1" class="node"><title>Node1</title>
<polygon fill="#bfbfbf" stroke="black" points="245.5,-278.5 245.5,-330.5 423.5,-330.5 423.5,-278.5 245.5,-278.5"/>
<text text-anchor="start" x="253.5" y="-318.5" font-family="Helvetica,sans-Serif" font-size="10.00">/home/travis/build</text>
<text text-anchor="start" x="253.5" y="-307.5" font-family="Helvetica,sans-Serif" font-size="10.00">/AliceO2Group/AliceO2</text>
<text text-anchor="start" x="253.5" y="-296.5" font-family="Helvetica,sans-Serif" font-size="10.00">/Detectors/PHOS/simulation</text>
<text text-anchor="middle" x="334.5" y="-285.5" font-family="Helvetica,sans-Serif" font-size="10.00">/include/PHOSSimulation/MCLabel.h</text>
</g>
<!-- Node2 -->
<g id="node2" class="node"><title>Node2</title>
<g id="a_node2"><a xlink:href="../../d6/d4b/PHOS_2simulation_2include_2PHOSSimulation_2Digitizer_8h.html" target="_top" xlink:title="/home/travis/build\l/AliceO2Group/AliceO2\l/Detectors/PHOS/simulation\l/include/PHOSSimulation/Digitizer.h">
<polygon fill="none" stroke="black" points="156,-189.5 156,-241.5 331,-241.5 331,-189.5 156,-189.5"/>
<text text-anchor="start" x="164" y="-229.5" font-family="Helvetica,sans-Serif" font-size="10.00">/home/travis/build</text>
<text text-anchor="start" x="164" y="-218.5" font-family="Helvetica,sans-Serif" font-size="10.00">/AliceO2Group/AliceO2</text>
<text text-anchor="start" x="164" y="-207.5" font-family="Helvetica,sans-Serif" font-size="10.00">/Detectors/PHOS/simulation</text>
<text text-anchor="middle" x="243.5" y="-196.5" font-family="Helvetica,sans-Serif" font-size="10.00">/include/PHOSSimulation/Digitizer.h</text>
</a>
</g>
</g>
<!-- Node1&#45;&gt;Node2 -->
<g id="edge1" class="edge"><title>Node1&#45;&gt;Node2</title>
<path fill="none" stroke="midnightblue" d="M300.886,-271.363C290.613,-261.542 279.471,-250.89 269.762,-241.607"/>
<polygon fill="midnightblue" stroke="midnightblue" points="298.532,-273.955 308.179,-278.336 303.37,-268.896 298.532,-273.955"/>
</g>
<!-- Node7 -->
<g id="node7" class="node"><title>Node7</title>
<g id="a_node7"><a xlink:href="../../d9/ddf/PHOSDigitWriterSpec_8cxx.html" target="_top" xlink:title="/home/travis/build\l/AliceO2Group/AliceO2\l/Steer/DigitizerWorkflow\l/src/PHOSDigitWriterSpec.cxx">
<polygon fill="none" stroke="black" points="349.5,-189.5 349.5,-241.5 501.5,-241.5 501.5,-189.5 349.5,-189.5"/>
<text text-anchor="start" x="357.5" y="-229.5" font-family="Helvetica,sans-Serif" font-size="10.00">/home/travis/build</text>
<text text-anchor="start" x="357.5" y="-218.5" font-family="Helvetica,sans-Serif" font-size="10.00">/AliceO2Group/AliceO2</text>
<text text-anchor="start" x="357.5" y="-207.5" font-family="Helvetica,sans-Serif" font-size="10.00">/Steer/DigitizerWorkflow</text>
<text text-anchor="middle" x="425.5" y="-196.5" font-family="Helvetica,sans-Serif" font-size="10.00">/src/PHOSDigitWriterSpec.cxx</text>
</a>
</g>
</g>
<!-- Node1&#45;&gt;Node7 -->
<g id="edge7" class="edge"><title>Node1&#45;&gt;Node7</title>
<path fill="none" stroke="midnightblue" d="M368.114,-271.363C378.387,-261.542 389.529,-250.89 399.238,-241.607"/>
<polygon fill="midnightblue" stroke="midnightblue" points="365.63,-268.896 360.821,-278.336 370.468,-273.955 365.63,-268.896"/>
</g>
<!-- Node3 -->
<g id="node3" class="node"><title>Node3</title>
<g id="a_node3"><a xlink:href="../../d2/d43/PHOS_2simulation_2include_2PHOSSimulation_2DigitizerTask_8h.html" target="_top" xlink:title="/home/travis/build\l/AliceO2Group/AliceO2\l/Detectors/PHOS/simulation\l/include/PHOSSimulation/Digitizer\lTask.h">
<polygon fill="none" stroke="black" points="0,-89.5 0,-152.5 167,-152.5 167,-89.5 0,-89.5"/>
<text text-anchor="start" x="8" y="-140.5" font-family="Helvetica,sans-Serif" font-size="10.00">/home/travis/build</text>
<text text-anchor="start" x="8" y="-129.5" font-family="Helvetica,sans-Serif" font-size="10.00">/AliceO2Group/AliceO2</text>
<text text-anchor="start" x="8" y="-118.5" font-family="Helvetica,sans-Serif" font-size="10.00">/Detectors/PHOS/simulation</text>
<text text-anchor="start" x="8" y="-107.5" font-family="Helvetica,sans-Serif" font-size="10.00">/include/PHOSSimulation/Digitizer</text>
<text text-anchor="middle" x="83.5" y="-96.5" font-family="Helvetica,sans-Serif" font-size="10.00">Task.h</text>
</a>
</g>
</g>
<!-- Node2&#45;&gt;Node3 -->
<g id="edge2" class="edge"><title>Node2&#45;&gt;Node3</title>
<path fill="none" stroke="midnightblue" d="M191.237,-184.286C173.7,-174.147 154.134,-162.835 136.538,-152.663"/>
<polygon fill="midnightblue" stroke="midnightblue" points="189.793,-187.493 200.202,-189.468 193.296,-181.433 189.793,-187.493"/>
</g>
<!-- Node4 -->
<g id="node4" class="node"><title>Node4</title>
<g id="a_node4"><a xlink:href="../../d1/d5f/PHOS_2simulation_2src_2DigitizerTask_8cxx.html" target="_top" xlink:title="/home/travis/build\l/AliceO2Group/AliceO2\l/Detectors/PHOS/simulation\l/src/DigitizerTask.cxx">
<polygon fill="none" stroke="black" points="68,-0.5 68,-52.5 209,-52.5 209,-0.5 68,-0.5"/>
<text text-anchor="start" x="76" y="-40.5" font-family="Helvetica,sans-Serif" font-size="10.00">/home/travis/build</text>
<text text-anchor="start" x="76" y="-29.5" font-family="Helvetica,sans-Serif" font-size="10.00">/AliceO2Group/AliceO2</text>
<text text-anchor="start" x="76" y="-18.5" font-family="Helvetica,sans-Serif" font-size="10.00">/Detectors/PHOS/simulation</text>
<text text-anchor="middle" x="138.5" y="-7.5" font-family="Helvetica,sans-Serif" font-size="10.00">/src/DigitizerTask.cxx</text>
</a>
</g>
</g>
<!-- Node2&#45;&gt;Node4 -->
<g id="edge5" class="edge"><title>Node2&#45;&gt;Node4</title>
<path fill="none" stroke="midnightblue" d="M225.583,-180.448C212.103,-155.074 193.018,-119.661 175.5,-89 168.639,-76.9908 160.771,-63.8336 154.06,-52.7817"/>
<polygon fill="midnightblue" stroke="midnightblue" points="222.507,-182.118 230.282,-189.315 228.692,-178.84 222.507,-182.118"/>
</g>
<!-- Node5 -->
<g id="node5" class="node"><title>Node5</title>
<g id="a_node5"><a xlink:href="../../d0/d6d/PHOS_2simulation_2src_2Digitizer_8cxx.html" target="_top" xlink:title="/home/travis/build\l/AliceO2Group/AliceO2\l/Detectors/PHOS/simulation\l/src/Digitizer.cxx">
<polygon fill="none" stroke="black" points="223,-95 223,-147 364,-147 364,-95 223,-95"/>
<text text-anchor="start" x="231" y="-135" font-family="Helvetica,sans-Serif" font-size="10.00">/home/travis/build</text>
<text text-anchor="start" x="231" y="-124" font-family="Helvetica,sans-Serif" font-size="10.00">/AliceO2Group/AliceO2</text>
<text text-anchor="start" x="231" y="-113" font-family="Helvetica,sans-Serif" font-size="10.00">/Detectors/PHOS/simulation</text>
<text text-anchor="middle" x="293.5" y="-102" font-family="Helvetica,sans-Serif" font-size="10.00">/src/Digitizer.cxx</text>
</a>
</g>
</g>
<!-- Node2&#45;&gt;Node5 -->
<g id="edge4" class="edge"><title>Node2&#45;&gt;Node5</title>
<path fill="none" stroke="midnightblue" d="M261.98,-180.312C267.9,-169.36 274.344,-157.439 279.854,-147.245"/>
<polygon fill="midnightblue" stroke="midnightblue" points="258.839,-178.763 257.163,-189.224 264.997,-182.091 258.839,-178.763"/>
</g>
<!-- Node6 -->
<g id="node6" class="node"><title>Node6</title>
<g id="a_node6"><a xlink:href="../../db/d77/PHOSDigitizerSpec_8cxx.html" target="_top" xlink:title="/home/travis/build\l/AliceO2Group/AliceO2\l/Steer/DigitizerWorkflow\l/src/PHOSDigitizerSpec.cxx">
<polygon fill="none" stroke="black" points="382.5,-95 382.5,-147 524.5,-147 524.5,-95 382.5,-95"/>
<text text-anchor="start" x="390.5" y="-135" font-family="Helvetica,sans-Serif" font-size="10.00">/home/travis/build</text>
<text text-anchor="start" x="390.5" y="-124" font-family="Helvetica,sans-Serif" font-size="10.00">/AliceO2Group/AliceO2</text>
<text text-anchor="start" x="390.5" y="-113" font-family="Helvetica,sans-Serif" font-size="10.00">/Steer/DigitizerWorkflow</text>
<text text-anchor="middle" x="453.5" y="-102" font-family="Helvetica,sans-Serif" font-size="10.00">/src/PHOSDigitizerSpec.cxx</text>
</a>
</g>
</g>
<!-- Node2&#45;&gt;Node6 -->
<g id="edge6" class="edge"><title>Node2&#45;&gt;Node6</title>
<path fill="none" stroke="midnightblue" d="M309.625,-185.373C337.562,-173.068 369.773,-158.88 396.626,-147.052"/>
<polygon fill="midnightblue" stroke="midnightblue" points="308.07,-182.234 300.329,-189.468 310.891,-188.64 308.07,-182.234"/>
</g>
<!-- Node3&#45;&gt;Node4 -->
<g id="edge3" class="edge"><title>Node3&#45;&gt;Node4</title>
<path fill="none" stroke="midnightblue" d="M106.933,-80.5907C112.537,-71.1657 118.371,-61.3532 123.477,-52.7655"/>
<polygon fill="midnightblue" stroke="midnightblue" points="103.764,-79.0715 101.661,-89.4557 109.781,-82.6491 103.764,-79.0715"/>
</g>
</g>
</svg>
