<?xml version="1.0" encoding="UTF-8" standalone="no"?>
<!DOCTYPE svg PUBLIC "-//W3C//DTD SVG 1.1//EN"
 "http://www.w3.org/Graphics/SVG/1.1/DTD/svg11.dtd">
<!-- Generated by graphviz version 2.38.0 (20140413.2041)
 -->
<!-- Title: o2::framework::DeviceId Pages: 1 -->
<svg width="143pt" height="193pt"
 viewBox="0.00 0.00 143.00 193.00" xmlns="http://www.w3.org/2000/svg" xmlns:xlink="http://www.w3.org/1999/xlink">
<g id="graph0" class="graph" transform="scale(1 1) rotate(0) translate(4 189)">
<title>o2::framework::DeviceId</title>
<!-- Node1 -->
<g id="node1" class="node"><title>Node1</title>
<polygon fill="#bfbfbf" stroke="black" points="-7.10543e-15,-0.5 -7.10543e-15,-57.5 124,-57.5 124,-0.5 -7.10543e-15,-0.5"/>
<text text-anchor="middle" x="62" y="-45.5" font-family="Helvetica,sans-Serif" font-size="10.00">o2::framework::DeviceId</text>
<polyline fill="none" stroke="black" points="-7.10543e-15,-38.5 124,-38.5 "/>
<text text-anchor="middle" x="62" y="-26.5" font-family="Helvetica,sans-Serif" font-size="10.00"> </text>
<polyline fill="none" stroke="black" points="-7.10543e-15,-19.5 124,-19.5 "/>
<text text-anchor="start" x="8" y="-7.5" font-family="Helvetica,sans-Serif" font-size="10.00">+ operator&lt;()</text>
</g>
<!-- Node2 -->
<g id="node2" class="node"><title>Node2</title>
<polygon fill="none" stroke="#bfbfbf" points="40.5,-127.5 40.5,-184.5 83.5,-184.5 83.5,-127.5 40.5,-127.5"/>
<text text-anchor="middle" x="62" y="-172.5" font-family="Helvetica,sans-Serif" font-size="10.00">size_t</text>
<polyline fill="none" stroke="#bfbfbf" points="40.5,-165.5 83.5,-165.5 "/>
<text text-anchor="middle" x="62" y="-153.5" font-family="Helvetica,sans-Serif" font-size="10.00"> </text>
<polyline fill="none" stroke="#bfbfbf" points="40.5,-146.5 83.5,-146.5 "/>
<text text-anchor="middle" x="62" y="-134.5" font-family="Helvetica,sans-Serif" font-size="10.00"> </text>
</g>
<!-- Node2&#45;&gt;Node1 -->
<g id="edge1" class="edge"><title>Node2&#45;&gt;Node1</title>
<path fill="none" stroke="#404040" d="M62,-127.258C62,-110.347 62,-88.457 62,-69.7276"/>
<polygon fill="none" stroke="#404040" points="62.0001,-69.664 58,-63.664 62,-57.664 66,-63.664 62.0001,-69.664"/>
<text text-anchor="middle" x="98.5" y="-101" font-family="Helvetica,sans-Serif" font-size="10.00"> +timeslice</text>
<text text-anchor="middle" x="98.5" y="-90" font-family="Helvetica,sans-Serif" font-size="10.00">+deviceIndex</text>
<text text-anchor="middle" x="98.5" y="-79" font-family="Helvetica,sans-Serif" font-size="10.00">+processorIndex</text>
</g>
</g>
</svg>
