<?xml version="1.0" encoding="UTF-8" standalone="no"?>
<!DOCTYPE svg PUBLIC "-//W3C//DTD SVG 1.1//EN"
 "http://www.w3.org/Graphics/SVG/1.1/DTD/svg11.dtd">
<!-- Generated by graphviz version 2.38.0 (20140413.2041)
 -->
<!-- Title: /home/travis/build/AliceO2Group/AliceO2/Detectors/TOF/base/include/TOFBase/Digit.h Pages: 1 -->
<svg width="311pt" height="184pt"
 viewBox="0.00 0.00 311.00 184.00" xmlns="http://www.w3.org/2000/svg" xmlns:xlink="http://www.w3.org/1999/xlink">
<g id="graph0" class="graph" transform="scale(1 1) rotate(0) translate(4 180)">
<title>/home/travis/build/AliceO2Group/AliceO2/Detectors/TOF/base/include/TOFBase/Digit.h</title>
<!-- Node1 -->
<g id="node1" class="node"><title>Node1</title>
<polygon fill="#bfbfbf" stroke="black" points="38,-123.5 38,-175.5 181,-175.5 181,-123.5 38,-123.5"/>
<text text-anchor="start" x="46" y="-163.5" font-family="Helvetica,sans-Serif" font-size="10.00">/home/travis/build</text>
<text text-anchor="start" x="46" y="-152.5" font-family="Helvetica,sans-Serif" font-size="10.00">/AliceO2Group/AliceO2</text>
<text text-anchor="start" x="46" y="-141.5" font-family="Helvetica,sans-Serif" font-size="10.00">/Detectors/TOF/base/include</text>
<text text-anchor="middle" x="109.5" y="-130.5" font-family="Helvetica,sans-Serif" font-size="10.00">/TOFBase/Digit.h</text>
</g>
<!-- Node2 -->
<g id="node2" class="node"><title>Node2</title>
<polygon fill="none" stroke="#bfbfbf" points="0,-62 0,-81 45,-81 45,-62 0,-62"/>
<text text-anchor="middle" x="22.5" y="-69" font-family="Helvetica,sans-Serif" font-size="10.00">iosfwd</text>
</g>
<!-- Node1&#45;&gt;Node2 -->
<g id="edge1" class="edge"><title>Node1&#45;&gt;Node2</title>
<path fill="none" stroke="midnightblue" d="M80.5303,-123.193C67.1655,-111.518 51.7334,-98.0372 40.1443,-87.9134"/>
<polygon fill="midnightblue" stroke="midnightblue" points="42.3032,-85.1519 32.4694,-81.2089 37.6979,-90.4238 42.3032,-85.1519"/>
</g>
<!-- Node3 -->
<g id="node3" class="node"><title>Node3</title>
<polygon fill="none" stroke="#bfbfbf" points="45.5,-0.5 45.5,-19.5 101.5,-19.5 101.5,-0.5 45.5,-0.5"/>
<text text-anchor="middle" x="73.5" y="-7.5" font-family="Helvetica,sans-Serif" font-size="10.00">Rtypes.h</text>
</g>
<!-- Node1&#45;&gt;Node3 -->
<g id="edge2" class="edge"><title>Node1&#45;&gt;Node3</title>
<path fill="none" stroke="midnightblue" d="M102.412,-123.403C99.3062,-112.27 95.6576,-98.9983 92.5,-87 87.375,-67.5258 81.8226,-45.1553 78.0515,-29.7531"/>
<polygon fill="midnightblue" stroke="midnightblue" points="81.421,-28.797 75.652,-19.9106 74.6202,-30.455 81.421,-28.797"/>
</g>
<!-- Node4 -->
<g id="node4" class="node"><title>Node4</title>
<g id="a_node4"><a xlink:href="../../d4/d54/Geo_8h.html" target="_top" xlink:title="TOFBase/Geo.h">
<polygon fill="none" stroke="black" points="101.5,-62 101.5,-81 189.5,-81 189.5,-62 101.5,-62"/>
<text text-anchor="middle" x="145.5" y="-69" font-family="Helvetica,sans-Serif" font-size="10.00">TOFBase/Geo.h</text>
</a>
</g>
</g>
<!-- Node1&#45;&gt;Node4 -->
<g id="edge3" class="edge"><title>Node1&#45;&gt;Node4</title>
<path fill="none" stroke="midnightblue" d="M121.487,-123.193C126.588,-112.425 132.417,-100.12 137.054,-90.3307"/>
<polygon fill="midnightblue" stroke="midnightblue" points="140.257,-91.7446 141.375,-81.2089 133.931,-88.748 140.257,-91.7446"/>
</g>
<!-- Node6 -->
<g id="node6" class="node"><title>Node6</title>
<polygon fill="none" stroke="#bfbfbf" points="208,-56.5 208,-86.5 303,-86.5 303,-56.5 208,-56.5"/>
<text text-anchor="start" x="216" y="-74.5" font-family="Helvetica,sans-Serif" font-size="10.00">boost/serialization</text>
<text text-anchor="middle" x="255.5" y="-63.5" font-family="Helvetica,sans-Serif" font-size="10.00">/base_object.hpp</text>
</g>
<!-- Node1&#45;&gt;Node6 -->
<g id="edge6" class="edge"><title>Node1&#45;&gt;Node6</title>
<path fill="none" stroke="midnightblue" d="M157.71,-123.404C177.748,-112.974 200.613,-101.071 219.193,-91.3997"/>
<polygon fill="midnightblue" stroke="midnightblue" points="220.954,-94.4285 228.208,-86.7066 217.722,-88.2194 220.954,-94.4285"/>
</g>
<!-- Node4&#45;&gt;Node3 -->
<g id="edge4" class="edge"><title>Node4&#45;&gt;Node3</title>
<path fill="none" stroke="midnightblue" d="M135.184,-61.9751C123.849,-52.6082 105.427,-37.3839 91.661,-26.0081"/>
<polygon fill="midnightblue" stroke="midnightblue" points="93.7348,-23.1813 83.7967,-19.5091 89.2756,-28.5773 93.7348,-23.1813"/>
</g>
<!-- Node5 -->
<g id="node5" class="node"><title>Node5</title>
<g id="a_node5"><a xlink:href="../../d4/dc6/LHCConstants_8h.html" target="_top" xlink:title="Header to collect LHC related constants. ">
<polygon fill="none" stroke="black" points="119.5,-0.5 119.5,-19.5 297.5,-19.5 297.5,-0.5 119.5,-0.5"/>
<text text-anchor="middle" x="208.5" y="-7.5" font-family="Helvetica,sans-Serif" font-size="10.00">CommonConstants/LHCConstants.h</text>
</a>
</g>
</g>
<!-- Node4&#45;&gt;Node5 -->
<g id="edge5" class="edge"><title>Node4&#45;&gt;Node5</title>
<path fill="none" stroke="midnightblue" d="M154.526,-61.9751C164.257,-52.785 179.958,-37.9563 191.923,-26.656"/>
<polygon fill="midnightblue" stroke="midnightblue" points="194.623,-28.9199 199.49,-19.5091 189.817,-23.8308 194.623,-28.9199"/>
</g>
</g>
</svg>
