<?xml version="1.0" encoding="UTF-8" standalone="no"?>
<!DOCTYPE svg PUBLIC "-//W3C//DTD SVG 1.1//EN"
 "http://www.w3.org/Graphics/SVG/1.1/DTD/svg11.dtd">
<!-- Generated by graphviz version 2.38.0 (20140413.2041)
 -->
<!-- Title: /home/travis/build/AliceO2Group/AliceO2/Detectors/Base/test/testDCAFitter.cxx Pages: 1 -->
<!--zoomable 620 -->
<svg id="main" version="1.1" xmlns="http://www.w3.org/2000/svg" xmlns:xlink="http://www.w3.org/1999/xlink" xml:space="preserve" onload="init(evt)">
<style type="text/css"><![CDATA[
.edge:hover path { stroke: red; }
.edge:hover polygon { stroke: red; fill: red; }
]]></style>
<script type="text/javascript"><![CDATA[
var edges = document.getElementsByTagName('g');
if (edges && edges.length) {
  for (var i=0;i<edges.length;i++) {
    if (edges[i].id.substr(0,4)=='edge') {
      edges[i].setAttribute('class','edge');
    }
  }
}
]]></script>
        <defs>
                <circle id="rim" cx="0" cy="0" r="7"/>
                <circle id="rim2" cx="0" cy="0" r="3.5"/>
                <g id="zoomPlus">
                        <use xlink:href="#rim" fill="#404040">
                                <set attributeName="fill" to="#808080" begin="zoomplus.mouseover" end="zoomplus.mouseout"/>
                        </use>
                        <path d="M-4,0h8M0,-4v8" fill="none" stroke="white" stroke-width="1.5" pointer-events="none"/>
                </g>
                <g id="zoomMin">
                        <use xlink:href="#rim" fill="#404040">
                                <set attributeName="fill" to="#808080" begin="zoomminus.mouseover" end="zoomminus.mouseout"/>
                        </use>
                        <path d="M-4,0h8" fill="none" stroke="white" stroke-width="1.5" pointer-events="none"/>
                </g>
                <g id="dirArrow">
                        <path fill="none" stroke="white" stroke-width="1.5" d="M0,-3.0v7 M-2.5,-0.5L0,-3.0L2.5,-0.5"/>
                </g>
               <g id="resetDef">
                       <use xlink:href="#rim2" fill="#404040">
                               <set attributeName="fill" to="#808080" begin="reset.mouseover" end="reset.mouseout"/>
                       </use>
               </g>
        </defs>

<script type="text/javascript">
var viewWidth = 2146;
var viewHeight = 620;
var sectionId = 'dynsection-0';
</script>
<script xlink:href="../../svgpan.js"/>
<svg id="graph" class="graph">
<g id="viewport">
<title>/home/travis/build/AliceO2Group/AliceO2/Detectors/Base/test/testDCAFitter.cxx</title>
<!-- Node1 -->
<g id="node1" class="node"><title>Node1</title>
<polygon fill="#bfbfbf" stroke="black" points="110.5,-570.5 110.5,-611.5 300.5,-611.5 300.5,-570.5 110.5,-570.5"/>
<text text-anchor="start" x="118.5" y="-599.5" font-family="Helvetica,sans-Serif" font-size="10.00">/home/travis/build</text>
<text text-anchor="start" x="118.5" y="-588.5" font-family="Helvetica,sans-Serif" font-size="10.00">/AliceO2Group/AliceO2</text>
<text text-anchor="middle" x="205.5" y="-577.5" font-family="Helvetica,sans-Serif" font-size="10.00">/Detectors/Base/test/testDCAFitter.cxx</text>
</g>
<!-- Node2 -->
<g id="node2" class="node"><title>Node2</title>
<polygon fill="none" stroke="#bfbfbf" points="0,-514.5 0,-533.5 119,-533.5 119,-514.5 0,-514.5"/>
<text text-anchor="middle" x="59.5" y="-521.5" font-family="Helvetica,sans-Serif" font-size="10.00">boost/test/unit_test.hpp</text>
</g>
<!-- Node1&#45;&gt;Node2 -->
<g id="edge1" class="edge"><title>Node1&#45;&gt;Node2</title>
<path fill="none" stroke="midnightblue" d="M161.695,-570.498C137.912,-559.909 109.178,-547.117 88.2435,-537.797"/>
<polygon fill="midnightblue" stroke="midnightblue" points="89.4939,-534.522 78.9348,-533.652 86.6468,-540.917 89.4939,-534.522"/>
</g>
<!-- Node3 -->
<g id="node3" class="node"><title>Node3</title>
<g id="a_node3"><a xlink:href="../../d4/d7b/DCAFitter_8h.html" target="_top" xlink:title="Defintions for DCA fitter class. ">
<polygon fill="none" stroke="black" points="137,-514.5 137,-533.5 274,-533.5 274,-514.5 137,-514.5"/>
<text text-anchor="middle" x="205.5" y="-521.5" font-family="Helvetica,sans-Serif" font-size="10.00">DetectorsBase/DCAFitter.h</text>
</a>
</g>
</g>
<!-- Node1&#45;&gt;Node3 -->
<g id="edge2" class="edge"><title>Node1&#45;&gt;Node3</title>
<path fill="none" stroke="midnightblue" d="M205.5,-570.498C205.5,-562.065 205.5,-552.235 205.5,-543.874"/>
<polygon fill="midnightblue" stroke="midnightblue" points="209,-543.652 205.5,-533.652 202,-543.653 209,-543.652"/>
</g>
<!-- Node44 -->
<g id="node44" class="node"><title>Node44</title>
<polygon fill="none" stroke="#bfbfbf" points="292.5,-514.5 292.5,-533.5 360.5,-533.5 360.5,-514.5 292.5,-514.5"/>
<text text-anchor="middle" x="326.5" y="-521.5" font-family="Helvetica,sans-Serif" font-size="10.00">TRandom.h</text>
</g>
<!-- Node1&#45;&gt;Node44 -->
<g id="edge60" class="edge"><title>Node1&#45;&gt;Node44</title>
<path fill="none" stroke="midnightblue" d="M241.804,-570.498C261.069,-560.149 284.253,-547.695 301.491,-538.435"/>
<polygon fill="midnightblue" stroke="midnightblue" points="303.24,-541.468 310.393,-533.652 299.927,-535.302 303.24,-541.468"/>
</g>
<!-- Node4 -->
<g id="node4" class="node"><title>Node4</title>
<polygon fill="none" stroke="#bfbfbf" points="124,-453 124,-472 177,-472 177,-453 124,-453"/>
<text text-anchor="middle" x="150.5" y="-460" font-family="Helvetica,sans-Serif" font-size="10.00">TMath.h</text>
</g>
<!-- Node3&#45;&gt;Node4 -->
<g id="edge3" class="edge"><title>Node3&#45;&gt;Node4</title>
<path fill="none" stroke="midnightblue" d="M197.62,-514.475C189.206,-505.373 175.681,-490.741 165.274,-479.483"/>
<polygon fill="midnightblue" stroke="midnightblue" points="167.724,-476.977 158.366,-472.009 162.583,-481.728 167.724,-476.977"/>
</g>
<!-- Node5 -->
<g id="node5" class="node"><title>Node5</title>
<polygon fill="none" stroke="#bfbfbf" points="205.5,-185 205.5,-204 261.5,-204 261.5,-185 205.5,-185"/>
<text text-anchor="middle" x="233.5" y="-192" font-family="Helvetica,sans-Serif" font-size="10.00">Rtypes.h</text>
</g>
<!-- Node3&#45;&gt;Node5 -->
<g id="edge4" class="edge"><title>Node3&#45;&gt;Node5</title>
<path fill="none" stroke="midnightblue" d="M205.5,-514.411C205.5,-493.977 205.5,-440.863 205.5,-396.5 205.5,-396.5 205.5,-396.5 205.5,-327.5 205.5,-286.074 218.86,-238.896 227.123,-213.678"/>
<polygon fill="midnightblue" stroke="midnightblue" points="230.503,-214.61 230.397,-204.016 223.873,-212.364 230.503,-214.61"/>
</g>
<!-- Node6 -->
<g id="node6" class="node"><title>Node6</title>
<g id="a_node6"><a xlink:href="../../d7/d8b/DataFormats_2Reconstruction_2include_2ReconstructionDataFormats_2Track_8h.html" target="_top" xlink:title="ReconstructionDataFormats\l/Track.h">
<polygon fill="none" stroke="black" points="378.5,-447.5 378.5,-477.5 518.5,-477.5 518.5,-447.5 378.5,-447.5"/>
<text text-anchor="start" x="386.5" y="-465.5" font-family="Helvetica,sans-Serif" font-size="10.00">ReconstructionDataFormats</text>
<text text-anchor="middle" x="448.5" y="-454.5" font-family="Helvetica,sans-Serif" font-size="10.00">/Track.h</text>
</a>
</g>
</g>
<!-- Node3&#45;&gt;Node6 -->
<g id="edge5" class="edge"><title>Node3&#45;&gt;Node6</title>
<path fill="none" stroke="midnightblue" d="M240.316,-514.475C276.995,-505.494 335.665,-491.128 381.388,-479.933"/>
<polygon fill="midnightblue" stroke="midnightblue" points="382.349,-483.301 391.23,-477.523 380.684,-476.502 382.349,-483.301"/>
</g>
<!-- Node7 -->
<g id="node7" class="node"><title>Node7</title>
<g id="a_node7"><a xlink:href="../../d2/d45/GPUCommonRtypes_8h.html" target="_top" xlink:title="GPUCommonRtypes.h">
<polygon fill="none" stroke="black" points="233.5,-252 233.5,-271 351.5,-271 351.5,-252 233.5,-252"/>
<text text-anchor="middle" x="292.5" y="-259" font-family="Helvetica,sans-Serif" font-size="10.00">GPUCommonRtypes.h</text>
</a>
</g>
</g>
<!-- Node6&#45;&gt;Node7 -->
<g id="edge6" class="edge"><title>Node6&#45;&gt;Node7</title>
<path fill="none" stroke="midnightblue" d="M378.216,-453.012C351.353,-446.091 323,-433.58 305.5,-411 275.979,-372.909 282.526,-311.662 288.29,-281.099"/>
<polygon fill="midnightblue" stroke="midnightblue" points="291.781,-281.502 290.384,-271 284.926,-280.081 291.781,-281.502"/>
</g>
<!-- Node8 -->
<g id="node8" class="node"><title>Node8</title>
<polygon fill="none" stroke="#bfbfbf" points="143.5,-56.5 143.5,-75.5 199.5,-75.5 199.5,-56.5 143.5,-56.5"/>
<text text-anchor="middle" x="171.5" y="-63.5" font-family="Helvetica,sans-Serif" font-size="10.00">algorithm</text>
</g>
<!-- Node6&#45;&gt;Node8 -->
<g id="edge8" class="edge"><title>Node6&#45;&gt;Node8</title>
<path fill="none" stroke="midnightblue" d="M378.264,-449.191C348.171,-441.586 313.756,-429.595 286.5,-411 216.634,-363.335 167.5,-347.077 167.5,-262.5 167.5,-262.5 167.5,-262.5 167.5,-193.5 167.5,-155.183 169.356,-110.371 170.54,-85.6913"/>
<polygon fill="midnightblue" stroke="midnightblue" points="174.041,-85.7477 171.041,-75.5865 167.05,-85.4006 174.041,-85.7477"/>
</g>
<!-- Node9 -->
<g id="node9" class="node"><title>Node9</title>
<polygon fill="none" stroke="#bfbfbf" points="513.5,-118 513.5,-137 551.5,-137 551.5,-118 513.5,-118"/>
<text text-anchor="middle" x="532.5" y="-125" font-family="Helvetica,sans-Serif" font-size="10.00">array</text>
</g>
<!-- Node6&#45;&gt;Node9 -->
<g id="edge9" class="edge"><title>Node6&#45;&gt;Node9</title>
<path fill="none" stroke="midnightblue" d="M518.586,-459.492C828.613,-450.16 2061.5,-408.106 2061.5,-329.5 2061.5,-329.5 2061.5,-329.5 2061.5,-260.5 2061.5,-223.306 2071.24,-202.606 2042.5,-179 2012.79,-154.595 769.928,-132.518 561.892,-128.99"/>
<polygon fill="midnightblue" stroke="midnightblue" points="561.79,-125.488 551.732,-128.819 561.672,-132.487 561.79,-125.488"/>
</g>
<!-- Node10 -->
<g id="node10" class="node"><title>Node10</title>
<polygon fill="none" stroke="#bfbfbf" points="315,-386 315,-405 356,-405 356,-386 315,-386"/>
<text text-anchor="middle" x="335.5" y="-393" font-family="Helvetica,sans-Serif" font-size="10.00">cfloat</text>
</g>
<!-- Node6&#45;&gt;Node10 -->
<g id="edge10" class="edge"><title>Node6&#45;&gt;Node10</title>
<path fill="none" stroke="midnightblue" d="M423.981,-447.396C404.768,-436.344 378.198,-421.061 359.199,-410.132"/>
<polygon fill="midnightblue" stroke="midnightblue" points="360.703,-406.959 350.289,-405.007 357.212,-413.027 360.703,-406.959"/>
</g>
<!-- Node11 -->
<g id="node11" class="node"><title>Node11</title>
<polygon fill="none" stroke="#bfbfbf" points="347.5,-56.5 347.5,-75.5 391.5,-75.5 391.5,-56.5 347.5,-56.5"/>
<text text-anchor="middle" x="369.5" y="-63.5" font-family="Helvetica,sans-Serif" font-size="10.00">cmath</text>
</g>
<!-- Node6&#45;&gt;Node11 -->
<g id="edge11" class="edge"><title>Node6&#45;&gt;Node11</title>
<path fill="none" stroke="midnightblue" d="M518.752,-461.969C773.902,-463.228 1650.98,-463.542 1925.5,-411 2024.65,-392.024 2137.5,-430.445 2137.5,-329.5 2137.5,-329.5 2137.5,-329.5 2137.5,-193.5 2137.5,-142.117 2102.74,-132.223 2055.5,-112 1976.63,-78.2324 628.574,-68.5745 401.767,-67.1857"/>
<polygon fill="midnightblue" stroke="midnightblue" points="401.557,-63.6844 391.536,-67.124 401.515,-70.6843 401.557,-63.6844"/>
</g>
<!-- Node12 -->
<g id="node12" class="node"><title>Node12</title>
<polygon fill="none" stroke="#bfbfbf" points="374.5,-386 374.5,-405 420.5,-405 420.5,-386 374.5,-386"/>
<text text-anchor="middle" x="397.5" y="-393" font-family="Helvetica,sans-Serif" font-size="10.00">cstring</text>
</g>
<!-- Node6&#45;&gt;Node12 -->
<g id="edge12" class="edge"><title>Node6&#45;&gt;Node12</title>
<path fill="none" stroke="midnightblue" d="M437.434,-447.396C429.56,-437.361 418.95,-423.838 410.645,-413.253"/>
<polygon fill="midnightblue" stroke="midnightblue" points="413.248,-410.901 404.322,-405.195 407.741,-415.222 413.248,-410.901"/>
</g>
<!-- Node13 -->
<g id="node13" class="node"><title>Node13</title>
<polygon fill="none" stroke="#bfbfbf" points="1988,-185 1988,-204 2033,-204 2033,-185 1988,-185"/>
<text text-anchor="middle" x="2010.5" y="-192" font-family="Helvetica,sans-Serif" font-size="10.00">iosfwd</text>
</g>
<!-- Node6&#45;&gt;Node13 -->
<g id="edge13" class="edge"><title>Node6&#45;&gt;Node13</title>
<path fill="none" stroke="midnightblue" d="M518.75,-457.996C719.853,-446.657 1313.81,-404.013 1788.5,-277 1875.4,-253.747 1896.21,-243.989 1979.5,-210 1980.88,-209.439 1982.28,-208.849 1983.69,-208.241"/>
<polygon fill="midnightblue" stroke="midnightblue" points="1985.24,-211.38 1992.93,-204.09 1982.37,-204.995 1985.24,-211.38"/>
</g>
<!-- Node14 -->
<g id="node14" class="node"><title>Node14</title>
<g id="a_node14"><a xlink:href="../../d4/de2/BaseCluster_8h.html" target="_top" xlink:title="ReconstructionDataFormats\l/BaseCluster.h">
<polygon fill="none" stroke="black" points="643.5,-380.5 643.5,-410.5 783.5,-410.5 783.5,-380.5 643.5,-380.5"/>
<text text-anchor="start" x="651.5" y="-398.5" font-family="Helvetica,sans-Serif" font-size="10.00">ReconstructionDataFormats</text>
<text text-anchor="middle" x="713.5" y="-387.5" font-family="Helvetica,sans-Serif" font-size="10.00">/BaseCluster.h</text>
</a>
</g>
</g>
<!-- Node6&#45;&gt;Node14 -->
<g id="edge14" class="edge"><title>Node6&#45;&gt;Node14</title>
<path fill="none" stroke="midnightblue" d="M505.675,-447.476C546.893,-437.366 602.674,-423.684 646.068,-413.04"/>
<polygon fill="midnightblue" stroke="midnightblue" points="647.093,-416.392 655.971,-410.611 645.425,-409.594 647.093,-416.392"/>
</g>
<!-- Node28 -->
<g id="node28" class="node"><title>Node28</title>
<g id="a_node28"><a xlink:href="../../d9/d52/Common_2MathUtils_2include_2MathUtils_2Utils_8h.html" target="_top" xlink:title="MathUtils/Utils.h">
<polygon fill="none" stroke="black" points="279.5,-185 279.5,-204 369.5,-204 369.5,-185 279.5,-185"/>
<text text-anchor="middle" x="324.5" y="-192" font-family="Helvetica,sans-Serif" font-size="10.00">MathUtils/Utils.h</text>
</a>
</g>
</g>
<!-- Node6&#45;&gt;Node28 -->
<g id="edge59" class="edge"><title>Node6&#45;&gt;Node28</title>
<path fill="none" stroke="midnightblue" d="M447.261,-447.244C445.338,-430.398 440.619,-401.891 429.5,-380 419.938,-361.175 409.363,-362.106 398.5,-344 374.466,-303.942 382.675,-287.117 360.5,-246 354.071,-234.079 345.267,-221.679 337.975,-212.15"/>
<polygon fill="midnightblue" stroke="midnightblue" points="340.504,-209.704 331.574,-204.003 335,-214.029 340.504,-209.704"/>
</g>
<!-- Node33 -->
<g id="node33" class="node"><title>Node33</title>
<g id="a_node33"><a xlink:href="../../d6/d84/MathConstants_8h.html" target="_top" xlink:title="useful math constants ">
<polygon fill="none" stroke="black" points="1698,-118 1698,-137 1877,-137 1877,-118 1698,-118"/>
<text text-anchor="middle" x="1787.5" y="-125" font-family="Helvetica,sans-Serif" font-size="10.00">CommonConstants/MathConstants.h</text>
</a>
</g>
</g>
<!-- Node6&#45;&gt;Node33 -->
<g id="edge58" class="edge"><title>Node6&#45;&gt;Node33</title>
<path fill="none" stroke="midnightblue" d="M518.647,-460.214C751.507,-455.713 1497.61,-439.391 1736.5,-411 1900.69,-391.486 2099.5,-494.85 2099.5,-329.5 2099.5,-329.5 2099.5,-329.5 2099.5,-260.5 2099.5,-221.252 2096.08,-203.606 2065.5,-179 2057.17,-172.3 1931.32,-151.314 1851.83,-138.601"/>
<polygon fill="midnightblue" stroke="midnightblue" points="1852.33,-135.136 1841.9,-137.017 1851.23,-142.048 1852.33,-135.136"/>
</g>
<!-- Node7&#45;&gt;Node5 -->
<g id="edge7" class="edge"><title>Node7&#45;&gt;Node5</title>
<path fill="none" stroke="midnightblue" d="M284.543,-251.734C275.254,-241.5 259.7,-224.364 248.198,-211.692"/>
<polygon fill="midnightblue" stroke="midnightblue" points="250.644,-209.179 241.331,-204.127 245.46,-213.884 250.644,-209.179"/>
</g>
<!-- Node14&#45;&gt;Node13 -->
<g id="edge19" class="edge"><title>Node14&#45;&gt;Node13</title>
<path fill="none" stroke="midnightblue" d="M783.657,-391.459C977.783,-381.524 1536.94,-342.601 1979.5,-210 1981.38,-209.437 1983.29,-208.779 1985.19,-208.058"/>
<polygon fill="midnightblue" stroke="midnightblue" points="1986.62,-211.25 1994.44,-204.099 1983.87,-204.815 1986.62,-211.25"/>
</g>
<!-- Node15 -->
<g id="node15" class="node"><title>Node15</title>
<polygon fill="none" stroke="#bfbfbf" points="582,-319 582,-338 641,-338 641,-319 582,-319"/>
<text text-anchor="middle" x="611.5" y="-326" font-family="Helvetica,sans-Serif" font-size="10.00">TObject.h</text>
</g>
<!-- Node14&#45;&gt;Node15 -->
<g id="edge15" class="edge"><title>Node14&#45;&gt;Node15</title>
<path fill="none" stroke="midnightblue" d="M691.368,-380.396C674.262,-369.496 650.697,-354.479 633.6,-343.584"/>
<polygon fill="midnightblue" stroke="midnightblue" points="635.164,-340.43 624.849,-338.007 631.402,-346.333 635.164,-340.43"/>
</g>
<!-- Node16 -->
<g id="node16" class="node"><title>Node16</title>
<polygon fill="none" stroke="#bfbfbf" points="676,-185 676,-204 717,-204 717,-185 676,-185"/>
<text text-anchor="middle" x="696.5" y="-192" font-family="Helvetica,sans-Serif" font-size="10.00">bitset</text>
</g>
<!-- Node14&#45;&gt;Node16 -->
<g id="edge16" class="edge"><title>Node14&#45;&gt;Node16</title>
<path fill="none" stroke="midnightblue" d="M735.195,-380.465C746.843,-371.579 760.093,-358.954 766.5,-344 771.926,-331.336 770.157,-326.284 766.5,-313 755.588,-273.362 727.415,-233.592 710.322,-212.001"/>
<polygon fill="midnightblue" stroke="midnightblue" points="712.98,-209.722 703.962,-204.16 707.543,-214.131 712.98,-209.722"/>
</g>
<!-- Node17 -->
<g id="node17" class="node"><title>Node17</title>
<polygon fill="none" stroke="#bfbfbf" points="659.5,-319 659.5,-338 709.5,-338 709.5,-319 659.5,-319"/>
<text text-anchor="middle" x="684.5" y="-326" font-family="Helvetica,sans-Serif" font-size="10.00">iomanip</text>
</g>
<!-- Node14&#45;&gt;Node17 -->
<g id="edge17" class="edge"><title>Node14&#45;&gt;Node17</title>
<path fill="none" stroke="midnightblue" d="M707.207,-380.396C702.91,-370.763 697.177,-357.914 692.547,-347.537"/>
<polygon fill="midnightblue" stroke="midnightblue" points="695.65,-345.901 688.379,-338.195 689.257,-348.753 695.65,-345.901"/>
</g>
<!-- Node18 -->
<g id="node18" class="node"><title>Node18</title>
<polygon fill="none" stroke="#bfbfbf" points="728,-319 728,-338 757,-338 757,-319 728,-319"/>
<text text-anchor="middle" x="742.5" y="-326" font-family="Helvetica,sans-Serif" font-size="10.00">ios</text>
</g>
<!-- Node14&#45;&gt;Node18 -->
<g id="edge18" class="edge"><title>Node14&#45;&gt;Node18</title>
<path fill="none" stroke="midnightblue" d="M719.793,-380.396C724.09,-370.763 729.823,-357.914 734.453,-347.537"/>
<polygon fill="midnightblue" stroke="midnightblue" points="737.743,-348.753 738.621,-338.195 731.35,-345.901 737.743,-348.753"/>
</g>
<!-- Node19 -->
<g id="node19" class="node"><title>Node19</title>
<g id="a_node19"><a xlink:href="../../d4/d20/DetMatrixCache_8h.html" target="_top" xlink:title="DetectorsCommonDataFormats\l/DetMatrixCache.h">
<polygon fill="none" stroke="black" points="407.5,-313.5 407.5,-343.5 563.5,-343.5 563.5,-313.5 407.5,-313.5"/>
<text text-anchor="start" x="415.5" y="-331.5" font-family="Helvetica,sans-Serif" font-size="10.00">DetectorsCommonDataFormats</text>
<text text-anchor="middle" x="485.5" y="-320.5" font-family="Helvetica,sans-Serif" font-size="10.00">/DetMatrixCache.h</text>
</a>
</g>
</g>
<!-- Node14&#45;&gt;Node19 -->
<g id="edge20" class="edge"><title>Node14&#45;&gt;Node19</title>
<path fill="none" stroke="midnightblue" d="M664.308,-380.476C629.218,-370.472 581.861,-356.971 544.699,-346.377"/>
<polygon fill="midnightblue" stroke="midnightblue" points="545.573,-342.987 534.997,-343.611 543.654,-349.719 545.573,-342.987"/>
</g>
<!-- Node34 -->
<g id="node34" class="node"><title>Node34</title>
<g id="a_node34"><a xlink:href="../../dd/d76/Cartesian3D_8h.html" target="_top" xlink:title="MathUtils/Cartesian3D.h">
<polygon fill="none" stroke="black" points="1227,-252 1227,-271 1352,-271 1352,-252 1227,-252"/>
<text text-anchor="middle" x="1289.5" y="-259" font-family="Helvetica,sans-Serif" font-size="10.00">MathUtils/Cartesian3D.h</text>
</a>
</g>
</g>
<!-- Node14&#45;&gt;Node34 -->
<g id="edge57" class="edge"><title>Node14&#45;&gt;Node34</title>
<path fill="none" stroke="midnightblue" d="M774.597,-380.499C890.18,-354.011 1138.55,-297.093 1242.37,-273.3"/>
<polygon fill="midnightblue" stroke="midnightblue" points="1243.29,-276.682 1252.25,-271.036 1241.72,-269.858 1243.29,-276.682"/>
</g>
<!-- Node19&#45;&gt;Node7 -->
<g id="edge24" class="edge"><title>Node19&#45;&gt;Node7</title>
<path fill="none" stroke="midnightblue" d="M443.622,-313.396C408.859,-301.688 359.995,-285.231 327.34,-274.234"/>
<polygon fill="midnightblue" stroke="midnightblue" points="328.353,-270.882 317.759,-271.007 326.119,-277.516 328.353,-270.882"/>
</g>
<!-- Node19&#45;&gt;Node9 -->
<g id="edge25" class="edge"><title>Node19&#45;&gt;Node9</title>
<path fill="none" stroke="midnightblue" d="M467.888,-313.225C457.428,-303.903 444.655,-290.911 436.5,-277 414.019,-238.65 392.135,-216.181 416.5,-179 435.608,-149.841 475.614,-137.427 503.258,-132.203"/>
<polygon fill="midnightblue" stroke="midnightblue" points="503.898,-135.644 513.178,-130.533 502.736,-128.741 503.898,-135.644"/>
</g>
<!-- Node20 -->
<g id="node20" class="node"><title>Node20</title>
<g id="a_node20"><a xlink:href="../../df/d5b/GPUCommonLogger_8h.html" target="_top" xlink:title="GPUCommonLogger.h">
<polygon fill="none" stroke="black" points="792.5,-252 792.5,-271 908.5,-271 908.5,-252 792.5,-252"/>
<text text-anchor="middle" x="850.5" y="-259" font-family="Helvetica,sans-Serif" font-size="10.00">GPUCommonLogger.h</text>
</a>
</g>
</g>
<!-- Node19&#45;&gt;Node20 -->
<g id="edge21" class="edge"><title>Node19&#45;&gt;Node20</title>
<path fill="none" stroke="midnightblue" d="M563.802,-313.556C632.556,-301.312 730.982,-283.784 792.781,-272.779"/>
<polygon fill="midnightblue" stroke="midnightblue" points="793.518,-276.203 802.75,-271.003 792.291,-269.311 793.518,-276.203"/>
</g>
<!-- Node23 -->
<g id="node23" class="node"><title>Node23</title>
<polygon fill="none" stroke="#bfbfbf" points="619.5,-252 619.5,-271 663.5,-271 663.5,-252 619.5,-252"/>
<text text-anchor="middle" x="641.5" y="-259" font-family="Helvetica,sans-Serif" font-size="10.00">vector</text>
</g>
<!-- Node19&#45;&gt;Node23 -->
<g id="edge26" class="edge"><title>Node19&#45;&gt;Node23</title>
<path fill="none" stroke="midnightblue" d="M521.816,-313.423C546.877,-303.564 580.887,-289.897 610.5,-277 611.695,-276.48 612.913,-275.942 614.141,-275.394"/>
<polygon fill="midnightblue" stroke="midnightblue" points="615.901,-278.437 623.543,-271.098 612.992,-272.07 615.901,-278.437"/>
</g>
<!-- Node24 -->
<g id="node24" class="node"><title>Node24</title>
<g id="a_node24"><a xlink:href="../../d6/d31/DetID_8h.html" target="_top" xlink:title="DetectorsCommonDataFormats\l/DetID.h">
<polygon fill="none" stroke="black" points="445.5,-246.5 445.5,-276.5 601.5,-276.5 601.5,-246.5 445.5,-246.5"/>
<text text-anchor="start" x="453.5" y="-264.5" font-family="Helvetica,sans-Serif" font-size="10.00">DetectorsCommonDataFormats</text>
<text text-anchor="middle" x="523.5" y="-253.5" font-family="Helvetica,sans-Serif" font-size="10.00">/DetID.h</text>
</a>
</g>
</g>
<!-- Node19&#45;&gt;Node24 -->
<g id="edge27" class="edge"><title>Node19&#45;&gt;Node24</title>
<path fill="none" stroke="midnightblue" d="M493.745,-313.396C498.526,-305.219 504.661,-294.725 510.116,-285.393"/>
<polygon fill="midnightblue" stroke="midnightblue" points="513.245,-286.976 515.271,-276.577 507.202,-283.443 513.245,-286.976"/>
</g>
<!-- Node19&#45;&gt;Node34 -->
<g id="edge45" class="edge"><title>Node19&#45;&gt;Node34</title>
<path fill="none" stroke="midnightblue" d="M563.705,-314.106C566.671,-313.713 569.611,-313.342 572.5,-313 807.176,-285.243 1087,-270.917 1216.77,-265.341"/>
<polygon fill="midnightblue" stroke="midnightblue" points="1217.13,-268.829 1226.97,-264.907 1216.83,-261.835 1217.13,-268.829"/>
</g>
<!-- Node21 -->
<g id="node21" class="node"><title>Node21</title>
<polygon fill="none" stroke="#bfbfbf" points="796.5,-185 796.5,-204 850.5,-204 850.5,-185 796.5,-185"/>
<text text-anchor="middle" x="823.5" y="-192" font-family="Helvetica,sans-Serif" font-size="10.00">iostream</text>
</g>
<!-- Node20&#45;&gt;Node21 -->
<g id="edge22" class="edge"><title>Node20&#45;&gt;Node21</title>
<path fill="none" stroke="midnightblue" d="M846.859,-251.734C842.81,-241.988 836.161,-225.981 830.99,-213.532"/>
<polygon fill="midnightblue" stroke="midnightblue" points="834.152,-212.02 827.084,-204.127 827.688,-214.705 834.152,-212.02"/>
</g>
<!-- Node22 -->
<g id="node22" class="node"><title>Node22</title>
<polygon fill="none" stroke="#bfbfbf" points="735,-185 735,-204 778,-204 778,-185 735,-185"/>
<text text-anchor="middle" x="756.5" y="-192" font-family="Helvetica,sans-Serif" font-size="10.00">cstdio</text>
</g>
<!-- Node20&#45;&gt;Node22 -->
<g id="edge23" class="edge"><title>Node20&#45;&gt;Node22</title>
<path fill="none" stroke="midnightblue" d="M837.823,-251.734C822.319,-241.013 795.859,-222.716 777.344,-209.914"/>
<polygon fill="midnightblue" stroke="midnightblue" points="779.192,-206.936 768.976,-204.127 775.211,-212.694 779.192,-206.936"/>
</g>
<!-- Node24&#45;&gt;Node5 -->
<g id="edge28" class="edge"><title>Node24&#45;&gt;Node5</title>
<path fill="none" stroke="midnightblue" d="M445.41,-248.58C394.961,-239.983 328.201,-226.921 270.5,-210 268.067,-209.287 265.57,-208.479 263.078,-207.619"/>
<polygon fill="midnightblue" stroke="midnightblue" points="264.225,-204.312 253.632,-204.132 261.801,-210.879 264.225,-204.312"/>
</g>
<!-- Node24&#45;&gt;Node9 -->
<g id="edge29" class="edge"><title>Node24&#45;&gt;Node9</title>
<path fill="none" stroke="midnightblue" d="M580.406,-246.401C598.989,-238.805 617.626,-227.296 628.5,-210 635.833,-198.336 635.622,-190.794 628.5,-179 614.064,-155.095 584.141,-141.939 561.516,-135.101"/>
<polygon fill="midnightblue" stroke="midnightblue" points="562.288,-131.683 551.717,-132.388 560.42,-138.429 562.288,-131.683"/>
</g>
<!-- Node24&#45;&gt;Node16 -->
<g id="edge30" class="edge"><title>Node24&#45;&gt;Node16</title>
<path fill="none" stroke="midnightblue" d="M563.223,-246.462C590.888,-236.564 628.58,-222.836 661.5,-210 663.143,-209.359 664.826,-208.694 666.522,-208.016"/>
<polygon fill="midnightblue" stroke="midnightblue" points="668.256,-211.089 676.2,-204.079 665.618,-204.605 668.256,-211.089"/>
</g>
<!-- Node25 -->
<g id="node25" class="node"><title>Node25</title>
<polygon fill="none" stroke="#bfbfbf" points="506,-185 506,-204 555,-204 555,-185 506,-185"/>
<text text-anchor="middle" x="530.5" y="-192" font-family="Helvetica,sans-Serif" font-size="10.00">cassert</text>
</g>
<!-- Node24&#45;&gt;Node25 -->
<g id="edge31" class="edge"><title>Node24&#45;&gt;Node25</title>
<path fill="none" stroke="midnightblue" d="M525.019,-246.396C526.035,-236.963 527.382,-224.448 528.487,-214.189"/>
<polygon fill="midnightblue" stroke="midnightblue" points="531.973,-214.512 529.564,-204.195 525.013,-213.762 531.973,-214.512"/>
</g>
<!-- Node26 -->
<g id="node26" class="node"><title>Node26</title>
<polygon fill="none" stroke="#bfbfbf" points="573.5,-185 573.5,-204 619.5,-204 619.5,-185 573.5,-185"/>
<text text-anchor="middle" x="596.5" y="-192" font-family="Helvetica,sans-Serif" font-size="10.00">cstdint</text>
</g>
<!-- Node24&#45;&gt;Node26 -->
<g id="edge32" class="edge"><title>Node24&#45;&gt;Node26</title>
<path fill="none" stroke="midnightblue" d="M539.34,-246.396C551.06,-235.96 567.018,-221.751 579.095,-210.998"/>
<polygon fill="midnightblue" stroke="midnightblue" points="581.594,-213.459 586.735,-204.195 576.939,-208.231 581.594,-213.459"/>
</g>
<!-- Node27 -->
<g id="node27" class="node"><title>Node27</title>
<polygon fill="none" stroke="#bfbfbf" points="425.5,-185 425.5,-204 487.5,-204 487.5,-185 425.5,-185"/>
<text text-anchor="middle" x="456.5" y="-192" font-family="Helvetica,sans-Serif" font-size="10.00">type_traits</text>
</g>
<!-- Node24&#45;&gt;Node27 -->
<g id="edge33" class="edge"><title>Node24&#45;&gt;Node27</title>
<path fill="none" stroke="midnightblue" d="M508.962,-246.396C498.308,-236.06 483.84,-222.024 472.795,-211.309"/>
<polygon fill="midnightblue" stroke="midnightblue" points="475.077,-208.646 465.462,-204.195 470.202,-213.67 475.077,-208.646"/>
</g>
<!-- Node24&#45;&gt;Node28 -->
<g id="edge34" class="edge"><title>Node24&#45;&gt;Node28</title>
<path fill="none" stroke="midnightblue" d="M480.32,-246.396C444.476,-234.688 394.093,-218.231 360.423,-207.234"/>
<polygon fill="midnightblue" stroke="midnightblue" points="361.137,-203.785 350.545,-204.007 358.964,-210.439 361.137,-203.785"/>
</g>
<!-- Node28&#45;&gt;Node9 -->
<g id="edge35" class="edge"><title>Node28&#45;&gt;Node9</title>
<path fill="none" stroke="midnightblue" d="M352.121,-184.869C391.564,-172.542 463.676,-150.008 503.738,-137.488"/>
<polygon fill="midnightblue" stroke="midnightblue" points="504.928,-140.783 513.429,-134.46 502.84,-134.102 504.928,-140.783"/>
</g>
<!-- Node28&#45;&gt;Node11 -->
<g id="edge36" class="edge"><title>Node28&#45;&gt;Node11</title>
<path fill="none" stroke="midnightblue" d="M328.458,-184.654C332.87,-174.645 340.095,-157.807 345.5,-143 352.601,-123.546 359.602,-100.861 364.193,-85.3733"/>
<polygon fill="midnightblue" stroke="midnightblue" points="367.628,-86.0973 367.077,-75.5168 360.91,-84.1315 367.628,-86.0973"/>
</g>
<!-- Node29 -->
<g id="node29" class="node"><title>Node29</title>
<g id="a_node29"><a xlink:href="../../df/d21/GPUCommonDef_8h.html" target="_top" xlink:title="GPUCommonDef.h">
<polygon fill="none" stroke="black" points="224.5,-56.5 224.5,-75.5 326.5,-75.5 326.5,-56.5 224.5,-56.5"/>
<text text-anchor="middle" x="275.5" y="-63.5" font-family="Helvetica,sans-Serif" font-size="10.00">GPUCommonDef.h</text>
</a>
</g>
</g>
<!-- Node28&#45;&gt;Node29 -->
<g id="edge37" class="edge"><title>Node28&#45;&gt;Node29</title>
<path fill="none" stroke="midnightblue" d="M324.714,-184.996C324.787,-169.703 323.51,-136.843 312.5,-112 307.705,-101.181 299.565,-90.852 292.138,-82.8246"/>
<polygon fill="midnightblue" stroke="midnightblue" points="294.596,-80.3314 285.1,-75.6317 289.592,-85.2271 294.596,-80.3314"/>
</g>
<!-- Node32 -->
<g id="node32" class="node"><title>Node32</title>
<g id="a_node32"><a xlink:href="../../d6/da2/GPUCommonMath_8h.html" target="_top" xlink:title="GPUCommonMath.h">
<polygon fill="none" stroke="black" points="195.5,-118 195.5,-137 303.5,-137 303.5,-118 195.5,-118"/>
<text text-anchor="middle" x="249.5" y="-125" font-family="Helvetica,sans-Serif" font-size="10.00">GPUCommonMath.h</text>
</a>
</g>
</g>
<!-- Node28&#45;&gt;Node32 -->
<g id="edge40" class="edge"><title>Node28&#45;&gt;Node32</title>
<path fill="none" stroke="midnightblue" d="M314.385,-184.734C302.352,-174.305 282.049,-156.709 267.354,-143.973"/>
<polygon fill="midnightblue" stroke="midnightblue" points="269.304,-141.032 259.455,-137.127 264.719,-146.322 269.304,-141.032"/>
</g>
<!-- Node28&#45;&gt;Node33 -->
<g id="edge44" class="edge"><title>Node28&#45;&gt;Node33</title>
<path fill="none" stroke="midnightblue" d="M369.746,-185.189C384.592,-182.778 401.204,-180.416 416.5,-179 979.652,-126.868 1125.07,-192.064 1688.5,-143 1701.06,-141.906 1714.46,-140.267 1727.21,-138.479"/>
<polygon fill="midnightblue" stroke="midnightblue" points="1727.88,-141.919 1737.27,-137.021 1726.87,-134.992 1727.88,-141.919"/>
</g>
<!-- Node30 -->
<g id="node30" class="node"><title>Node30</title>
<g id="a_node30"><a xlink:href="../../d5/d93/GPUCommonDefSettings_8h.html" target="_top" xlink:title="GPUCommonDefSettings.h">
<polygon fill="none" stroke="black" points="133.5,-0.5 133.5,-19.5 271.5,-19.5 271.5,-0.5 133.5,-0.5"/>
<text text-anchor="middle" x="202.5" y="-7.5" font-family="Helvetica,sans-Serif" font-size="10.00">GPUCommonDefSettings.h</text>
</a>
</g>
</g>
<!-- Node29&#45;&gt;Node30 -->
<g id="edge38" class="edge"><title>Node29&#45;&gt;Node30</title>
<path fill="none" stroke="midnightblue" d="M263.771,-56.324C252.663,-48.1066 235.758,-35.6017 222.517,-25.8069"/>
<polygon fill="midnightblue" stroke="midnightblue" points="224.563,-22.9671 214.442,-19.8339 220.4,-28.5948 224.563,-22.9671"/>
</g>
<!-- Node31 -->
<g id="node31" class="node"><title>Node31</title>
<g id="a_node31"><a xlink:href="../../da/d5a/GPUCommonDefAPI_8h.html" target="_top" xlink:title="GPUCommonDefAPI.h">
<polygon fill="none" stroke="black" points="290,-0.5 290,-19.5 409,-19.5 409,-0.5 290,-0.5"/>
<text text-anchor="middle" x="349.5" y="-7.5" font-family="Helvetica,sans-Serif" font-size="10.00">GPUCommonDefAPI.h</text>
</a>
</g>
</g>
<!-- Node29&#45;&gt;Node31 -->
<g id="edge39" class="edge"><title>Node29&#45;&gt;Node31</title>
<path fill="none" stroke="midnightblue" d="M287.389,-56.324C298.65,-48.1066 315.787,-35.6017 329.209,-25.8069"/>
<polygon fill="midnightblue" stroke="midnightblue" points="331.38,-28.5559 337.394,-19.8339 327.253,-22.9014 331.38,-28.5559"/>
</g>
<!-- Node32&#45;&gt;Node8 -->
<g id="edge43" class="edge"><title>Node32&#45;&gt;Node8</title>
<path fill="none" stroke="midnightblue" d="M238.325,-117.975C225.929,-108.52 205.71,-93.0961 190.754,-81.6871"/>
<polygon fill="midnightblue" stroke="midnightblue" points="192.728,-78.7914 182.655,-75.5091 188.483,-84.357 192.728,-78.7914"/>
</g>
<!-- Node32&#45;&gt;Node11 -->
<g id="edge42" class="edge"><title>Node32&#45;&gt;Node11</title>
<path fill="none" stroke="midnightblue" d="M266.693,-117.975C286.743,-108.034 320.099,-91.4947 343.36,-79.961"/>
<polygon fill="midnightblue" stroke="midnightblue" points="344.934,-83.0871 352.339,-75.5091 341.825,-76.8157 344.934,-83.0871"/>
</g>
<!-- Node32&#45;&gt;Node29 -->
<g id="edge41" class="edge"><title>Node32&#45;&gt;Node29</title>
<path fill="none" stroke="midnightblue" d="M253.225,-117.975C256.971,-109.404 262.86,-95.9269 267.642,-84.983"/>
<polygon fill="midnightblue" stroke="midnightblue" points="270.985,-86.0739 271.782,-75.5091 264.57,-83.271 270.985,-86.0739"/>
</g>
<!-- Node34&#45;&gt;Node5 -->
<g id="edge51" class="edge"><title>Node34&#45;&gt;Node5</title>
<path fill="none" stroke="midnightblue" d="M1226.81,-257.952C1012.16,-249.156 317.313,-220.052 270.5,-210 267.494,-209.355 264.413,-208.494 261.375,-207.514"/>
<polygon fill="midnightblue" stroke="midnightblue" points="262.552,-204.218 251.958,-204.087 260.159,-210.796 262.552,-204.218"/>
</g>
<!-- Node34&#45;&gt;Node13 -->
<g id="edge53" class="edge"><title>Node34&#45;&gt;Node13</title>
<path fill="none" stroke="midnightblue" d="M1352.16,-258.821C1499.03,-254.417 1861.9,-240.691 1979.5,-210 1981.48,-209.482 1983.5,-208.841 1985.49,-208.118"/>
<polygon fill="midnightblue" stroke="midnightblue" points="1987.3,-211.152 1995.15,-204.028 1984.57,-204.707 1987.3,-211.152"/>
</g>
<!-- Node35 -->
<g id="node35" class="node"><title>Node35</title>
<polygon fill="none" stroke="#bfbfbf" points="1482,-179.5 1482,-209.5 1633,-209.5 1633,-179.5 1482,-179.5"/>
<text text-anchor="start" x="1490" y="-197.5" font-family="Helvetica,sans-Serif" font-size="10.00">Math/GenVector/Displacement</text>
<text text-anchor="middle" x="1557.5" y="-186.5" font-family="Helvetica,sans-Serif" font-size="10.00">Vector3D.h</text>
</g>
<!-- Node34&#45;&gt;Node35 -->
<g id="edge46" class="edge"><title>Node34&#45;&gt;Node35</title>
<path fill="none" stroke="midnightblue" d="M1324.81,-251.936C1366.61,-241.799 1437.14,-224.691 1489.62,-211.963"/>
<polygon fill="midnightblue" stroke="midnightblue" points="1490.64,-215.318 1499.53,-209.559 1488.99,-208.515 1490.64,-215.318"/>
</g>
<!-- Node36 -->
<g id="node36" class="node"><title>Node36</title>
<polygon fill="none" stroke="#bfbfbf" points="1651.5,-185 1651.5,-204 1827.5,-204 1827.5,-185 1651.5,-185"/>
<text text-anchor="middle" x="1739.5" y="-192" font-family="Helvetica,sans-Serif" font-size="10.00">Math/GenVector/PositionVector3D.h</text>
</g>
<!-- Node34&#45;&gt;Node36 -->
<g id="edge47" class="edge"><title>Node34&#45;&gt;Node36</title>
<path fill="none" stroke="midnightblue" d="M1349.79,-251.992C1420.08,-242.047 1539.74,-225.031 1642.5,-210 1652.29,-208.568 1662.64,-207.038 1672.78,-205.53"/>
<polygon fill="midnightblue" stroke="midnightblue" points="1673.46,-208.968 1682.83,-204.032 1672.42,-202.044 1673.46,-208.968"/>
</g>
<!-- Node37 -->
<g id="node37" class="node"><title>Node37</title>
<polygon fill="none" stroke="#bfbfbf" points="868,-185 868,-204 1017,-204 1017,-185 868,-185"/>
<text text-anchor="middle" x="942.5" y="-192" font-family="Helvetica,sans-Serif" font-size="10.00">Math/GenVector/Rotation3D.h</text>
</g>
<!-- Node34&#45;&gt;Node37 -->
<g id="edge48" class="edge"><title>Node34&#45;&gt;Node37</title>
<path fill="none" stroke="midnightblue" d="M1243.78,-251.936C1180.5,-240.082 1066.33,-218.696 998.167,-205.928"/>
<polygon fill="midnightblue" stroke="midnightblue" points="998.52,-202.433 988.046,-204.032 997.231,-209.313 998.52,-202.433"/>
</g>
<!-- Node38 -->
<g id="node38" class="node"><title>Node38</title>
<polygon fill="none" stroke="#bfbfbf" points="1035.5,-185 1035.5,-204 1191.5,-204 1191.5,-185 1035.5,-185"/>
<text text-anchor="middle" x="1113.5" y="-192" font-family="Helvetica,sans-Serif" font-size="10.00">Math/GenVector/Transform3D.h</text>
</g>
<!-- Node34&#45;&gt;Node38 -->
<g id="edge49" class="edge"><title>Node34&#45;&gt;Node38</title>
<path fill="none" stroke="midnightblue" d="M1266.13,-251.869C1235.41,-240.522 1181.26,-220.525 1146.4,-207.652"/>
<polygon fill="midnightblue" stroke="midnightblue" points="1147.28,-204.245 1136.69,-204.064 1144.86,-210.811 1147.28,-204.245"/>
</g>
<!-- Node39 -->
<g id="node39" class="node"><title>Node39</title>
<polygon fill="none" stroke="#bfbfbf" points="1209.5,-185 1209.5,-204 1369.5,-204 1369.5,-185 1209.5,-185"/>
<text text-anchor="middle" x="1289.5" y="-192" font-family="Helvetica,sans-Serif" font-size="10.00">Math/GenVector/Translation3D.h</text>
</g>
<!-- Node34&#45;&gt;Node39 -->
<g id="edge50" class="edge"><title>Node34&#45;&gt;Node39</title>
<path fill="none" stroke="midnightblue" d="M1289.5,-251.734C1289.5,-242.183 1289.5,-226.618 1289.5,-214.283"/>
<polygon fill="midnightblue" stroke="midnightblue" points="1293,-214.127 1289.5,-204.127 1286,-214.127 1293,-214.127"/>
</g>
<!-- Node40 -->
<g id="node40" class="node"><title>Node40</title>
<polygon fill="none" stroke="#bfbfbf" points="1387.5,-185 1387.5,-204 1463.5,-204 1463.5,-185 1387.5,-185"/>
<text text-anchor="middle" x="1425.5" y="-192" font-family="Helvetica,sans-Serif" font-size="10.00">TGeoMatrix.h</text>
</g>
<!-- Node34&#45;&gt;Node40 -->
<g id="edge52" class="edge"><title>Node34&#45;&gt;Node40</title>
<path fill="none" stroke="midnightblue" d="M1307.56,-251.869C1330.73,-240.796 1371.13,-221.486 1398.1,-208.598"/>
<polygon fill="midnightblue" stroke="midnightblue" points="1399.85,-211.637 1407.37,-204.167 1396.83,-205.322 1399.85,-211.637"/>
</g>
<!-- Node41 -->
<g id="node41" class="node"><title>Node41</title>
<g id="a_node41"><a xlink:href="../../d2/dd0/Cartesian2D_8h.html" target="_top" xlink:title="MathUtils/Cartesian2D.h">
<polygon fill="none" stroke="black" points="1845,-185 1845,-204 1970,-204 1970,-185 1845,-185"/>
<text text-anchor="middle" x="1907.5" y="-192" font-family="Helvetica,sans-Serif" font-size="10.00">MathUtils/Cartesian2D.h</text>
</a>
</g>
</g>
<!-- Node34&#45;&gt;Node41 -->
<g id="edge54" class="edge"><title>Node34&#45;&gt;Node41</title>
<path fill="none" stroke="midnightblue" d="M1352.11,-256.955C1454.03,-250.684 1661.96,-235.8 1836.5,-210 1844.03,-208.887 1851.96,-207.491 1859.69,-206.006"/>
<polygon fill="midnightblue" stroke="midnightblue" points="1860.56,-209.403 1869.68,-204.022 1859.19,-202.537 1860.56,-209.403"/>
</g>
<!-- Node42 -->
<g id="node42" class="node"><title>Node42</title>
<polygon fill="none" stroke="#bfbfbf" points="1895,-112.5 1895,-142.5 2046,-142.5 2046,-112.5 1895,-112.5"/>
<text text-anchor="start" x="1903" y="-130.5" font-family="Helvetica,sans-Serif" font-size="10.00">Math/GenVector/Displacement</text>
<text text-anchor="middle" x="1970.5" y="-119.5" font-family="Helvetica,sans-Serif" font-size="10.00">Vector2D.h</text>
</g>
<!-- Node41&#45;&gt;Node42 -->
<g id="edge55" class="edge"><title>Node41&#45;&gt;Node42</title>
<path fill="none" stroke="midnightblue" d="M1916,-184.734C1924.59,-175.865 1938.21,-161.811 1949.69,-149.972"/>
<polygon fill="midnightblue" stroke="midnightblue" points="1952.4,-152.206 1956.84,-142.589 1947.37,-147.334 1952.4,-152.206"/>
</g>
<!-- Node43 -->
<g id="node43" class="node"><title>Node43</title>
<polygon fill="none" stroke="#bfbfbf" points="1503.5,-118 1503.5,-137 1679.5,-137 1679.5,-118 1503.5,-118"/>
<text text-anchor="middle" x="1591.5" y="-125" font-family="Helvetica,sans-Serif" font-size="10.00">Math/GenVector/PositionVector2D.h</text>
</g>
<!-- Node41&#45;&gt;Node43 -->
<g id="edge56" class="edge"><title>Node41&#45;&gt;Node43</title>
<path fill="none" stroke="midnightblue" d="M1865.86,-184.936C1808.47,-173.131 1705.12,-151.872 1642.96,-139.085"/>
<polygon fill="midnightblue" stroke="midnightblue" points="1643.48,-135.618 1632.98,-137.032 1642.07,-142.475 1643.48,-135.618"/>
</g>
</g>
</svg>
        <g id="navigator" transform="translate(0 0)" fill="#404254">
                <rect fill="#f2f5e9" fill-opacity="0.5" stroke="#606060" stroke-width=".5" x="0" y="0" width="60" height="60"/>
                <use id="zoomplus" xlink:href="#zoomPlus" x="17" y="9" onmousedown="handleZoom(evt,'in')"/>
                <use id="zoomminus" xlink:href="#zoomMin" x="42" y="9" onmousedown="handleZoom(evt,'out')"/>
                <use id="reset" xlink:href="#resetDef" x="30" y="36" onmousedown="handleReset()"/>
                <g id="arrowUp" xlink:href="#dirArrow" transform="translate(30 24)" onmousedown="handlePan(0,-1)">
                  <use xlink:href="#rim" fill="#404040">
                        <set attributeName="fill" to="#808080" begin="arrowUp.mouseover" end="arrowUp.mouseout"/>
                  </use>
                  <path fill="none" stroke="white" stroke-width="1.5" d="M0,-3.0v7 M-2.5,-0.5L0,-3.0L2.5,-0.5"/>
                </g>
                <g id="arrowRight" xlink:href="#dirArrow" transform="rotate(90) translate(36 -43)" onmousedown="handlePan(1,0)">
                  <use xlink:href="#rim" fill="#404040">
                        <set attributeName="fill" to="#808080" begin="arrowRight.mouseover" end="arrowRight.mouseout"/>
                  </use>
                  <path fill="none" stroke="white" stroke-width="1.5" d="M0,-3.0v7 M-2.5,-0.5L0,-3.0L2.5,-0.5"/>
                </g>
                <g id="arrowDown" xlink:href="#dirArrow" transform="rotate(180) translate(-30 -48)" onmousedown="handlePan(0,1)">
                  <use xlink:href="#rim" fill="#404040">
                        <set attributeName="fill" to="#808080" begin="arrowDown.mouseover" end="arrowDown.mouseout"/>
                  </use>
                  <path fill="none" stroke="white" stroke-width="1.5" d="M0,-3.0v7 M-2.5,-0.5L0,-3.0L2.5,-0.5"/>
                </g>
                <g id="arrowLeft" xlink:href="#dirArrow" transform="rotate(270) translate(-36 17)" onmousedown="handlePan(-1,0)">
                  <use xlink:href="#rim" fill="#404040">
                        <set attributeName="fill" to="#808080" begin="arrowLeft.mouseover" end="arrowLeft.mouseout"/>
                  </use>
                  <path fill="none" stroke="white" stroke-width="1.5" d="M0,-3.0v7 M-2.5,-0.5L0,-3.0L2.5,-0.5"/>
                </g>
        </g>
        <svg viewBox="0 0 15 15" width="100%" height="30px" preserveAspectRatio="xMaxYMin meet">
         <g id="arrow_out" transform="scale(0.3 0.3)">
          <a xlink:href="testDCAFitter_8cxx__incl_org.svg" target="_base">
           <rect id="button" ry="5" rx="5" y="6" x="6" height="38" width="38"
                fill="#f2f5e9" fill-opacity="0.5" stroke="#606060" stroke-width="1.0"/>
           <path id="arrow"
             d="M 11.500037,31.436501 C 11.940474,20.09759 22.043105,11.32322 32.158766,21.979434 L 37.068811,17.246167 C 37.068811,17.246167 37.088388,32 37.088388,32 L 22.160133,31.978069 C 22.160133,31.978069 26.997745,27.140456 26.997745,27.140456 C 18.528582,18.264221 13.291696,25.230495 11.500037,31.436501 z"
             style="fill:#404040;"/>
          </a>
         </g>
        </svg>
</svg>
