<?xml version="1.0" encoding="UTF-8" standalone="no"?>
<!DOCTYPE svg PUBLIC "-//W3C//DTD SVG 1.1//EN"
 "http://www.w3.org/Graphics/SVG/1.1/DTD/svg11.dtd">
<!-- Generated by graphviz version 2.38.0 (20140413.2041)
 -->
<!-- Title: /home/travis/build/AliceO2Group/AliceO2/Detectors/EMCAL/reconstruction/include/EMCALReconstruction/RawReaderFile.h Pages: 1 -->
<svg width="493pt" height="261pt"
 viewBox="0.00 0.00 493.00 261.00" xmlns="http://www.w3.org/2000/svg" xmlns:xlink="http://www.w3.org/1999/xlink">
<g id="graph0" class="graph" transform="scale(1 1) rotate(0) translate(4 257)">
<title>/home/travis/build/AliceO2Group/AliceO2/Detectors/EMCAL/reconstruction/include/EMCALReconstruction/RawReaderFile.h</title>
<!-- Node1 -->
<g id="node1" class="node"><title>Node1</title>
<polygon fill="#bfbfbf" stroke="black" points="156,-189.5 156,-252.5 320,-252.5 320,-189.5 156,-189.5"/>
<text text-anchor="start" x="164" y="-240.5" font-family="Helvetica,sans-Serif" font-size="10.00">/home/travis/build</text>
<text text-anchor="start" x="164" y="-229.5" font-family="Helvetica,sans-Serif" font-size="10.00">/AliceO2Group/AliceO2</text>
<text text-anchor="start" x="164" y="-218.5" font-family="Helvetica,sans-Serif" font-size="10.00">/Detectors/EMCAL/reconstruction</text>
<text text-anchor="start" x="164" y="-207.5" font-family="Helvetica,sans-Serif" font-size="10.00">/include/EMCALReconstruction</text>
<text text-anchor="middle" x="238" y="-196.5" font-family="Helvetica,sans-Serif" font-size="10.00">/RawReaderFile.h</text>
</g>
<!-- Node2 -->
<g id="node2" class="node"><title>Node2</title>
<g id="a_node2"><a xlink:href="../../db/d4a/AltroDecoder_8h.html" target="_top" xlink:title="/home/travis/build\l/AliceO2Group/AliceO2\l/Detectors/EMCAL/reconstruction\l/include/EMCALReconstruction\l/AltroDecoder.h">
<polygon fill="none" stroke="black" points="101,-89.5 101,-152.5 265,-152.5 265,-89.5 101,-89.5"/>
<text text-anchor="start" x="109" y="-140.5" font-family="Helvetica,sans-Serif" font-size="10.00">/home/travis/build</text>
<text text-anchor="start" x="109" y="-129.5" font-family="Helvetica,sans-Serif" font-size="10.00">/AliceO2Group/AliceO2</text>
<text text-anchor="start" x="109" y="-118.5" font-family="Helvetica,sans-Serif" font-size="10.00">/Detectors/EMCAL/reconstruction</text>
<text text-anchor="start" x="109" y="-107.5" font-family="Helvetica,sans-Serif" font-size="10.00">/include/EMCALReconstruction</text>
<text text-anchor="middle" x="183" y="-96.5" font-family="Helvetica,sans-Serif" font-size="10.00">/AltroDecoder.h</text>
</a>
</g>
</g>
<!-- Node1&#45;&gt;Node2 -->
<g id="edge1" class="edge"><title>Node1&#45;&gt;Node2</title>
<path fill="none" stroke="midnightblue" d="M215.854,-180.54C210.637,-171.243 205.152,-161.47 200.19,-152.63"/>
<polygon fill="midnightblue" stroke="midnightblue" points="212.802,-182.254 220.749,-189.261 218.907,-178.828 212.802,-182.254"/>
</g>
<!-- Node3 -->
<g id="node3" class="node"><title>Node3</title>
<g id="a_node3"><a xlink:href="../../d0/d27/rawReaderFile_8cxx.html" target="_top" xlink:title="/home/travis/build\l/AliceO2Group/AliceO2\l/Detectors/EMCAL/reconstruction\l/run/rawReaderFile.cxx">
<polygon fill="none" stroke="black" points="0,-0.5 0,-52.5 164,-52.5 164,-0.5 0,-0.5"/>
<text text-anchor="start" x="8" y="-40.5" font-family="Helvetica,sans-Serif" font-size="10.00">/home/travis/build</text>
<text text-anchor="start" x="8" y="-29.5" font-family="Helvetica,sans-Serif" font-size="10.00">/AliceO2Group/AliceO2</text>
<text text-anchor="start" x="8" y="-18.5" font-family="Helvetica,sans-Serif" font-size="10.00">/Detectors/EMCAL/reconstruction</text>
<text text-anchor="middle" x="82" y="-7.5" font-family="Helvetica,sans-Serif" font-size="10.00">/run/rawReaderFile.cxx</text>
</a>
</g>
</g>
<!-- Node1&#45;&gt;Node3 -->
<g id="edge4" class="edge"><title>Node1&#45;&gt;Node3</title>
<path fill="none" stroke="midnightblue" d="M146.402,-195.622C125.362,-185.748 105.292,-172.016 92,-153 71.3387,-123.441 73.1569,-79.8498 77.0603,-52.5946"/>
<polygon fill="midnightblue" stroke="midnightblue" points="145.225,-198.928 155.788,-199.757 148.048,-192.523 145.225,-198.928"/>
</g>
<!-- Node4 -->
<g id="node4" class="node"><title>Node4</title>
<g id="a_node4"><a xlink:href="../../df/df1/AltroDecoder_8cxx.html" target="_top" xlink:title="/home/travis/build\l/AliceO2Group/AliceO2\l/Detectors/EMCAL/reconstruction\l/src/AltroDecoder.cxx">
<polygon fill="none" stroke="black" points="201,-0.5 201,-52.5 365,-52.5 365,-0.5 201,-0.5"/>
<text text-anchor="start" x="209" y="-40.5" font-family="Helvetica,sans-Serif" font-size="10.00">/home/travis/build</text>
<text text-anchor="start" x="209" y="-29.5" font-family="Helvetica,sans-Serif" font-size="10.00">/AliceO2Group/AliceO2</text>
<text text-anchor="start" x="209" y="-18.5" font-family="Helvetica,sans-Serif" font-size="10.00">/Detectors/EMCAL/reconstruction</text>
<text text-anchor="middle" x="283" y="-7.5" font-family="Helvetica,sans-Serif" font-size="10.00">/src/AltroDecoder.cxx</text>
</a>
</g>
</g>
<!-- Node1&#45;&gt;Node4 -->
<g id="edge5" class="edge"><title>Node1&#45;&gt;Node4</title>
<path fill="none" stroke="midnightblue" d="M262.683,-180.601C267.18,-171.807 271.297,-162.318 274,-153 283.798,-119.223 284.831,-78.2931 284.249,-52.5668"/>
<polygon fill="midnightblue" stroke="midnightblue" points="259.563,-179.013 257.903,-189.477 265.726,-182.332 259.563,-179.013"/>
</g>
<!-- Node5 -->
<g id="node5" class="node"><title>Node5</title>
<g id="a_node5"><a xlink:href="../../da/dfe/RawReaderFile_8cxx.html" target="_top" xlink:title="/home/travis/build\l/AliceO2Group/AliceO2\l/Detectors/EMCAL/reconstruction\l/src/RawReaderFile.cxx">
<polygon fill="none" stroke="black" points="321,-95 321,-147 485,-147 485,-95 321,-95"/>
<text text-anchor="start" x="329" y="-135" font-family="Helvetica,sans-Serif" font-size="10.00">/home/travis/build</text>
<text text-anchor="start" x="329" y="-124" font-family="Helvetica,sans-Serif" font-size="10.00">/AliceO2Group/AliceO2</text>
<text text-anchor="start" x="329" y="-113" font-family="Helvetica,sans-Serif" font-size="10.00">/Detectors/EMCAL/reconstruction</text>
<text text-anchor="middle" x="403" y="-102" font-family="Helvetica,sans-Serif" font-size="10.00">/src/RawReaderFile.cxx</text>
</a>
</g>
</g>
<!-- Node1&#45;&gt;Node5 -->
<g id="edge6" class="edge"><title>Node1&#45;&gt;Node5</title>
<path fill="none" stroke="midnightblue" d="M298.487,-184.075C319.187,-171.78 341.881,-158.301 360.818,-147.054"/>
<polygon fill="midnightblue" stroke="midnightblue" points="296.565,-181.145 289.754,-189.261 300.139,-187.164 296.565,-181.145"/>
</g>
<!-- Node2&#45;&gt;Node3 -->
<g id="edge2" class="edge"><title>Node2&#45;&gt;Node3</title>
<path fill="none" stroke="midnightblue" d="M142.19,-82.6245C131.232,-72.5884 119.641,-61.9729 109.587,-52.7655"/>
<polygon fill="midnightblue" stroke="midnightblue" points="139.91,-85.2828 149.649,-89.4557 144.638,-80.1206 139.91,-85.2828"/>
</g>
<!-- Node2&#45;&gt;Node4 -->
<g id="edge3" class="edge"><title>Node2&#45;&gt;Node4</title>
<path fill="none" stroke="midnightblue" d="M223.406,-82.6245C234.256,-72.5884 245.732,-61.9729 255.686,-52.7655"/>
<polygon fill="midnightblue" stroke="midnightblue" points="220.985,-80.0959 216.021,-89.4557 225.739,-85.2346 220.985,-80.0959"/>
</g>
</g>
</svg>
