<?xml version="1.0" encoding="UTF-8" standalone="no"?>
<!DOCTYPE svg PUBLIC "-//W3C//DTD SVG 1.1//EN"
 "http://www.w3.org/Graphics/SVG/1.1/DTD/svg11.dtd">
<!-- Generated by graphviz version 2.38.0 (20140413.2041)
 -->
<!-- Title: /home/travis/build/AliceO2Group/AliceO2/EventVisualisation/DataConverter/include/EventVisualisationDataConverter/VisualisationEvent.h Pages: 1 -->
<!--zoomable 318 -->
<svg id="main" version="1.1" xmlns="http://www.w3.org/2000/svg" xmlns:xlink="http://www.w3.org/1999/xlink" xml:space="preserve" onload="init(evt)">
<style type="text/css"><![CDATA[
.edge:hover path { stroke: red; }
.edge:hover polygon { stroke: red; fill: red; }
]]></style>
<script type="text/javascript"><![CDATA[
var edges = document.getElementsByTagName('g');
if (edges && edges.length) {
  for (var i=0;i<edges.length;i++) {
    if (edges[i].id.substr(0,4)=='edge') {
      edges[i].setAttribute('class','edge');
    }
  }
}
]]></script>
        <defs>
                <circle id="rim" cx="0" cy="0" r="7"/>
                <circle id="rim2" cx="0" cy="0" r="3.5"/>
                <g id="zoomPlus">
                        <use xlink:href="#rim" fill="#404040">
                                <set attributeName="fill" to="#808080" begin="zoomplus.mouseover" end="zoomplus.mouseout"/>
                        </use>
                        <path d="M-4,0h8M0,-4v8" fill="none" stroke="white" stroke-width="1.5" pointer-events="none"/>
                </g>
                <g id="zoomMin">
                        <use xlink:href="#rim" fill="#404040">
                                <set attributeName="fill" to="#808080" begin="zoomminus.mouseover" end="zoomminus.mouseout"/>
                        </use>
                        <path d="M-4,0h8" fill="none" stroke="white" stroke-width="1.5" pointer-events="none"/>
                </g>
                <g id="dirArrow">
                        <path fill="none" stroke="white" stroke-width="1.5" d="M0,-3.0v7 M-2.5,-0.5L0,-3.0L2.5,-0.5"/>
                </g>
               <g id="resetDef">
                       <use xlink:href="#rim2" fill="#404040">
                               <set attributeName="fill" to="#808080" begin="reset.mouseover" end="reset.mouseout"/>
                       </use>
               </g>
        </defs>

<script type="text/javascript">
var viewWidth = 523;
var viewHeight = 318;
var sectionId = 'dynsection-0';
</script>
<script xlink:href="../../svgpan.js"/>
<svg id="graph" class="graph">
<g id="viewport">
<title>/home/travis/build/AliceO2Group/AliceO2/EventVisualisation/DataConverter/include/EventVisualisationDataConverter/VisualisationEvent.h</title>
<!-- Node1 -->
<g id="node1" class="node"><title>Node1</title>
<polygon fill="#bfbfbf" stroke="black" points="266,-246.5 266,-309.5 464,-309.5 464,-246.5 266,-246.5"/>
<text text-anchor="start" x="274" y="-297.5" font-family="Helvetica,sans-Serif" font-size="10.00">/home/travis/build</text>
<text text-anchor="start" x="274" y="-286.5" font-family="Helvetica,sans-Serif" font-size="10.00">/AliceO2Group/AliceO2</text>
<text text-anchor="start" x="274" y="-275.5" font-family="Helvetica,sans-Serif" font-size="10.00">/EventVisualisation/DataConverter</text>
<text text-anchor="start" x="274" y="-264.5" font-family="Helvetica,sans-Serif" font-size="10.00">/include/EventVisualisationDataConverter</text>
<text text-anchor="middle" x="365" y="-253.5" font-family="Helvetica,sans-Serif" font-size="10.00">/VisualisationEvent.h</text>
</g>
<!-- Node2 -->
<g id="node2" class="node"><title>Node2</title>
<g id="a_node2"><a xlink:href="../../d0/d40/VisualisationTrack_8h.html" target="_top" xlink:title="EventVisualisationDataConverter\l/VisualisationTrack.h">
<polygon fill="none" stroke="black" points="121.5,-112.5 121.5,-142.5 282.5,-142.5 282.5,-112.5 121.5,-112.5"/>
<text text-anchor="start" x="129.5" y="-130.5" font-family="Helvetica,sans-Serif" font-size="10.00">EventVisualisationDataConverter</text>
<text text-anchor="middle" x="202" y="-119.5" font-family="Helvetica,sans-Serif" font-size="10.00">/VisualisationTrack.h</text>
</a>
</g>
</g>
<!-- Node1&#45;&gt;Node2 -->
<g id="edge1" class="edge"><title>Node1&#45;&gt;Node2</title>
<path fill="none" stroke="midnightblue" d="M331.226,-246.231C299.484,-217.312 252.829,-174.808 225.121,-149.564"/>
<polygon fill="midnightblue" stroke="midnightblue" points="227.252,-146.771 217.502,-142.623 222.537,-151.945 227.252,-146.771"/>
</g>
<!-- Node6 -->
<g id="node6" class="node"><title>Node6</title>
<polygon fill="none" stroke="#bfbfbf" points="357,-56.5 357,-75.5 401,-75.5 401,-56.5 357,-56.5"/>
<text text-anchor="middle" x="379" y="-63.5" font-family="Helvetica,sans-Serif" font-size="10.00">vector</text>
</g>
<!-- Node1&#45;&gt;Node6 -->
<g id="edge13" class="edge"><title>Node1&#45;&gt;Node6</title>
<path fill="none" stroke="midnightblue" d="M344.964,-246.212C338.913,-235.236 333.066,-222.49 330,-210 326.716,-196.619 327.179,-192.486 330,-179 337.39,-143.67 356.586,-105.853 368.641,-84.4448"/>
<polygon fill="midnightblue" stroke="midnightblue" points="371.788,-85.994 373.756,-75.5835 365.725,-82.4947 371.788,-85.994"/>
</g>
<!-- Node9 -->
<g id="node9" class="node"><title>Node9</title>
<g id="a_node9"><a xlink:href="../../d5/d20/VisualisationCluster_8h.html" target="_top" xlink:title="EventVisualisationDataConverter\l/VisualisationCluster.h">
<polygon fill="none" stroke="black" points="339.5,-179.5 339.5,-209.5 500.5,-209.5 500.5,-179.5 339.5,-179.5"/>
<text text-anchor="start" x="347.5" y="-197.5" font-family="Helvetica,sans-Serif" font-size="10.00">EventVisualisationDataConverter</text>
<text text-anchor="middle" x="420" y="-186.5" font-family="Helvetica,sans-Serif" font-size="10.00">/VisualisationCluster.h</text>
</a>
</g>
</g>
<!-- Node1&#45;&gt;Node9 -->
<g id="edge9" class="edge"><title>Node1&#45;&gt;Node9</title>
<path fill="none" stroke="midnightblue" d="M385.793,-246.188C392.115,-236.821 398.94,-226.707 404.819,-217.996"/>
<polygon fill="midnightblue" stroke="midnightblue" points="407.849,-219.763 410.541,-209.516 402.046,-215.847 407.849,-219.763"/>
</g>
<!-- Node10 -->
<g id="node10" class="node"><title>Node10</title>
<polygon fill="none" stroke="#bfbfbf" points="451.5,-118 451.5,-137 492.5,-137 492.5,-118 451.5,-118"/>
<text text-anchor="middle" x="472" y="-125" font-family="Helvetica,sans-Serif" font-size="10.00">ctime</text>
</g>
<!-- Node1&#45;&gt;Node10 -->
<g id="edge14" class="edge"><title>Node1&#45;&gt;Node10</title>
<path fill="none" stroke="midnightblue" d="M464.263,-249.577C482.39,-240.005 499.019,-227.171 510,-210 523.662,-188.638 504.691,-161.576 488.997,-144.645"/>
<polygon fill="midnightblue" stroke="midnightblue" points="491.213,-141.907 481.713,-137.217 486.215,-146.808 491.213,-141.907"/>
</g>
<!-- Node3 -->
<g id="node3" class="node"><title>Node3</title>
<g id="a_node3"><a xlink:href="../../de/ddf/ConversionConstants_8h.html" target="_top" xlink:title="ConversionConstants.h">
<polygon fill="none" stroke="black" points="156.5,-56.5 156.5,-75.5 275.5,-75.5 275.5,-56.5 156.5,-56.5"/>
<text text-anchor="middle" x="216" y="-63.5" font-family="Helvetica,sans-Serif" font-size="10.00">ConversionConstants.h</text>
</a>
</g>
</g>
<!-- Node2&#45;&gt;Node3 -->
<g id="edge2" class="edge"><title>Node2&#45;&gt;Node3</title>
<path fill="none" stroke="midnightblue" d="M205.318,-112.399C207.205,-104.377 209.592,-94.2328 211.631,-85.569"/>
<polygon fill="midnightblue" stroke="midnightblue" points="215.079,-86.1936 213.963,-75.6578 208.265,-84.5903 215.079,-86.1936"/>
</g>
<!-- Node4 -->
<g id="node4" class="node"><title>Node4</title>
<polygon fill="none" stroke="#bfbfbf" points="151.5,-0.5 151.5,-19.5 192.5,-19.5 192.5,-0.5 151.5,-0.5"/>
<text text-anchor="middle" x="172" y="-7.5" font-family="Helvetica,sans-Serif" font-size="10.00">string</text>
</g>
<!-- Node2&#45;&gt;Node4 -->
<g id="edge5" class="edge"><title>Node2&#45;&gt;Node4</title>
<path fill="none" stroke="midnightblue" d="M179.223,-112.436C167.211,-103.619 153.623,-91.0723 147,-76 139.887,-59.8114 149.06,-40.9054 158.233,-27.6704"/>
<polygon fill="midnightblue" stroke="midnightblue" points="161.156,-29.6079 164.383,-19.5167 155.567,-25.3926 161.156,-29.6079"/>
</g>
<!-- Node5 -->
<g id="node5" class="node"><title>Node5</title>
<polygon fill="none" stroke="#bfbfbf" points="293.5,-56.5 293.5,-75.5 338.5,-75.5 338.5,-56.5 293.5,-56.5"/>
<text text-anchor="middle" x="316" y="-63.5" font-family="Helvetica,sans-Serif" font-size="10.00">iosfwd</text>
</g>
<!-- Node2&#45;&gt;Node5 -->
<g id="edge4" class="edge"><title>Node2&#45;&gt;Node5</title>
<path fill="none" stroke="midnightblue" d="M229.016,-112.399C247.631,-102.684 272.21,-89.8551 290.491,-80.3137"/>
<polygon fill="midnightblue" stroke="midnightblue" points="292.166,-83.3876 299.412,-75.6578 288.927,-77.182 292.166,-83.3876"/>
</g>
<!-- Node2&#45;&gt;Node6 -->
<g id="edge6" class="edge"><title>Node2&#45;&gt;Node6</title>
<path fill="none" stroke="midnightblue" d="M243.947,-112.399C275.587,-101.763 318.326,-87.3959 347.183,-77.6954"/>
<polygon fill="midnightblue" stroke="midnightblue" points="348.407,-80.9767 356.77,-74.4726 346.176,-74.3415 348.407,-80.9767"/>
</g>
<!-- Node7 -->
<g id="node7" class="node"><title>Node7</title>
<polygon fill="none" stroke="#bfbfbf" points="0,-56.5 0,-75.5 38,-75.5 38,-56.5 0,-56.5"/>
<text text-anchor="middle" x="19" y="-63.5" font-family="Helvetica,sans-Serif" font-size="10.00">array</text>
</g>
<!-- Node2&#45;&gt;Node7 -->
<g id="edge7" class="edge"><title>Node2&#45;&gt;Node7</title>
<path fill="none" stroke="midnightblue" d="M158.632,-112.399C124.406,-101.271 77.6191,-86.0592 47.8509,-76.3805"/>
<polygon fill="midnightblue" stroke="midnightblue" points="48.6719,-72.9671 38.0797,-73.2035 46.5075,-79.6241 48.6719,-72.9671"/>
</g>
<!-- Node8 -->
<g id="node8" class="node"><title>Node8</title>
<polygon fill="none" stroke="#bfbfbf" points="56,-56.5 56,-75.5 100,-75.5 100,-56.5 56,-56.5"/>
<text text-anchor="middle" x="78" y="-63.5" font-family="Helvetica,sans-Serif" font-size="10.00">cmath</text>
</g>
<!-- Node2&#45;&gt;Node8 -->
<g id="edge8" class="edge"><title>Node2&#45;&gt;Node8</title>
<path fill="none" stroke="midnightblue" d="M172.614,-112.399C152.18,-102.595 125.14,-89.6194 105.201,-80.052"/>
<polygon fill="midnightblue" stroke="midnightblue" points="106.573,-76.8284 96.0431,-75.6578 103.545,-83.1395 106.573,-76.8284"/>
</g>
<!-- Node3&#45;&gt;Node4 -->
<g id="edge3" class="edge"><title>Node3&#45;&gt;Node4</title>
<path fill="none" stroke="midnightblue" d="M208.734,-56.083C202.455,-48.3768 193.212,-37.0333 185.569,-27.6531"/>
<polygon fill="midnightblue" stroke="midnightblue" points="188.161,-25.2926 179.131,-19.7511 182.734,-29.7143 188.161,-25.2926"/>
</g>
<!-- Node9&#45;&gt;Node2 -->
<g id="edge10" class="edge"><title>Node9&#45;&gt;Node2</title>
<path fill="none" stroke="midnightblue" d="M372.966,-179.476C339.558,-169.515 294.52,-156.086 259.057,-145.512"/>
<polygon fill="midnightblue" stroke="midnightblue" points="259.909,-142.114 249.326,-142.611 257.909,-148.822 259.909,-142.114"/>
</g>
<!-- Node9&#45;&gt;Node6 -->
<g id="edge11" class="edge"><title>Node9&#45;&gt;Node6</title>
<path fill="none" stroke="midnightblue" d="M415.456,-179.479C408.012,-156.514 393.225,-110.889 384.954,-85.3699"/>
<polygon fill="midnightblue" stroke="midnightblue" points="388.261,-84.2222 381.848,-75.7885 381.602,-86.3805 388.261,-84.2222"/>
</g>
<!-- Node9&#45;&gt;Node10 -->
<g id="edge12" class="edge"><title>Node9&#45;&gt;Node10</title>
<path fill="none" stroke="midnightblue" d="M431.283,-179.396C439.311,-169.361 450.129,-155.838 458.597,-145.253"/>
<polygon fill="midnightblue" stroke="midnightblue" points="461.53,-147.19 465.044,-137.195 456.064,-142.817 461.53,-147.19"/>
</g>
</g>
</svg>
        <g id="navigator" transform="translate(0 0)" fill="#404254">
                <rect fill="#f2f5e9" fill-opacity="0.5" stroke="#606060" stroke-width=".5" x="0" y="0" width="60" height="60"/>
                <use id="zoomplus" xlink:href="#zoomPlus" x="17" y="9" onmousedown="handleZoom(evt,'in')"/>
                <use id="zoomminus" xlink:href="#zoomMin" x="42" y="9" onmousedown="handleZoom(evt,'out')"/>
                <use id="reset" xlink:href="#resetDef" x="30" y="36" onmousedown="handleReset()"/>
                <g id="arrowUp" xlink:href="#dirArrow" transform="translate(30 24)" onmousedown="handlePan(0,-1)">
                  <use xlink:href="#rim" fill="#404040">
                        <set attributeName="fill" to="#808080" begin="arrowUp.mouseover" end="arrowUp.mouseout"/>
                  </use>
                  <path fill="none" stroke="white" stroke-width="1.5" d="M0,-3.0v7 M-2.5,-0.5L0,-3.0L2.5,-0.5"/>
                </g>
                <g id="arrowRight" xlink:href="#dirArrow" transform="rotate(90) translate(36 -43)" onmousedown="handlePan(1,0)">
                  <use xlink:href="#rim" fill="#404040">
                        <set attributeName="fill" to="#808080" begin="arrowRight.mouseover" end="arrowRight.mouseout"/>
                  </use>
                  <path fill="none" stroke="white" stroke-width="1.5" d="M0,-3.0v7 M-2.5,-0.5L0,-3.0L2.5,-0.5"/>
                </g>
                <g id="arrowDown" xlink:href="#dirArrow" transform="rotate(180) translate(-30 -48)" onmousedown="handlePan(0,1)">
                  <use xlink:href="#rim" fill="#404040">
                        <set attributeName="fill" to="#808080" begin="arrowDown.mouseover" end="arrowDown.mouseout"/>
                  </use>
                  <path fill="none" stroke="white" stroke-width="1.5" d="M0,-3.0v7 M-2.5,-0.5L0,-3.0L2.5,-0.5"/>
                </g>
                <g id="arrowLeft" xlink:href="#dirArrow" transform="rotate(270) translate(-36 17)" onmousedown="handlePan(-1,0)">
                  <use xlink:href="#rim" fill="#404040">
                        <set attributeName="fill" to="#808080" begin="arrowLeft.mouseover" end="arrowLeft.mouseout"/>
                  </use>
                  <path fill="none" stroke="white" stroke-width="1.5" d="M0,-3.0v7 M-2.5,-0.5L0,-3.0L2.5,-0.5"/>
                </g>
        </g>
        <svg viewBox="0 0 15 15" width="100%" height="30px" preserveAspectRatio="xMaxYMin meet">
         <g id="arrow_out" transform="scale(0.3 0.3)">
          <a xlink:href="VisualisationEvent_8h__incl_org.svg" target="_base">
           <rect id="button" ry="5" rx="5" y="6" x="6" height="38" width="38"
                fill="#f2f5e9" fill-opacity="0.5" stroke="#606060" stroke-width="1.0"/>
           <path id="arrow"
             d="M 11.500037,31.436501 C 11.940474,20.09759 22.043105,11.32322 32.158766,21.979434 L 37.068811,17.246167 C 37.068811,17.246167 37.088388,32 37.088388,32 L 22.160133,31.978069 C 22.160133,31.978069 26.997745,27.140456 26.997745,27.140456 C 18.528582,18.264221 13.291696,25.230495 11.500037,31.436501 z"
             style="fill:#404040;"/>
          </a>
         </g>
        </svg>
</svg>
