<?xml version="1.0" encoding="UTF-8" standalone="no"?>
<!DOCTYPE svg PUBLIC "-//W3C//DTD SVG 1.1//EN"
 "http://www.w3.org/Graphics/SVG/1.1/DTD/svg11.dtd">
<!-- Generated by graphviz version 2.38.0 (20140413.2041)
 -->
<!-- Title: /home/travis/build/AliceO2Group/AliceO2/Utilities/Mergers/include/Mergers/MergeInterfaceOverrideExample.h Pages: 1 -->
<svg width="233pt" height="173pt"
 viewBox="0.00 0.00 233.00 173.00" xmlns="http://www.w3.org/2000/svg" xmlns:xlink="http://www.w3.org/1999/xlink">
<g id="graph0" class="graph" transform="scale(1 1) rotate(0) translate(4 169)">
<title>/home/travis/build/AliceO2Group/AliceO2/Utilities/Mergers/include/Mergers/MergeInterfaceOverrideExample.h</title>
<!-- Node1 -->
<g id="node1" class="node"><title>Node1</title>
<polygon fill="#bfbfbf" stroke="black" points="0,-112.5 0,-164.5 206,-164.5 206,-112.5 0,-112.5"/>
<text text-anchor="start" x="8" y="-152.5" font-family="Helvetica,sans-Serif" font-size="10.00">/home/travis/build</text>
<text text-anchor="start" x="8" y="-141.5" font-family="Helvetica,sans-Serif" font-size="10.00">/AliceO2Group/AliceO2</text>
<text text-anchor="start" x="8" y="-130.5" font-family="Helvetica,sans-Serif" font-size="10.00">/Utilities/Mergers/include</text>
<text text-anchor="middle" x="103" y="-119.5" font-family="Helvetica,sans-Serif" font-size="10.00">/Mergers/MergeInterfaceOverrideExample.h</text>
</g>
<!-- Node2 -->
<g id="node2" class="node"><title>Node2</title>
<g id="a_node2"><a xlink:href="../../de/d80/MergeInterface_8h.html" target="_top" xlink:title="Definition of O2 Mergers merging interface, v0.1. ">
<polygon fill="none" stroke="black" points="39,-56.5 39,-75.5 167,-75.5 167,-56.5 39,-56.5"/>
<text text-anchor="middle" x="103" y="-63.5" font-family="Helvetica,sans-Serif" font-size="10.00">Mergers/MergeInterface.h</text>
</a>
</g>
</g>
<!-- Node1&#45;&gt;Node2 -->
<g id="edge1" class="edge"><title>Node1&#45;&gt;Node2</title>
<path fill="none" stroke="midnightblue" d="M103,-112.446C103,-103.73 103,-94.1045 103,-85.9641"/>
<polygon fill="midnightblue" stroke="midnightblue" points="106.5,-85.6954 103,-75.6955 99.5001,-85.6955 106.5,-85.6954"/>
</g>
<!-- Node3 -->
<g id="node3" class="node"><title>Node3</title>
<polygon fill="none" stroke="#bfbfbf" points="11,-0.5 11,-19.5 55,-19.5 55,-0.5 11,-0.5"/>
<text text-anchor="middle" x="33" y="-7.5" font-family="Helvetica,sans-Serif" font-size="10.00">vector</text>
</g>
<!-- Node2&#45;&gt;Node3 -->
<g id="edge2" class="edge"><title>Node2&#45;&gt;Node3</title>
<path fill="none" stroke="midnightblue" d="M91.7533,-56.324C81.2026,-48.1849 65.1993,-35.8395 52.5578,-26.0874"/>
<polygon fill="midnightblue" stroke="midnightblue" points="54.507,-23.1707 44.4513,-19.8339 50.2314,-28.7132 54.507,-23.1707"/>
</g>
<!-- Node4 -->
<g id="node4" class="node"><title>Node4</title>
<polygon fill="none" stroke="#bfbfbf" points="73.5,-0.5 73.5,-19.5 132.5,-19.5 132.5,-0.5 73.5,-0.5"/>
<text text-anchor="middle" x="103" y="-7.5" font-family="Helvetica,sans-Serif" font-size="10.00">TObject.h</text>
</g>
<!-- Node2&#45;&gt;Node4 -->
<g id="edge3" class="edge"><title>Node2&#45;&gt;Node4</title>
<path fill="none" stroke="midnightblue" d="M103,-56.083C103,-49.0059 103,-38.8611 103,-29.9865"/>
<polygon fill="midnightblue" stroke="midnightblue" points="106.5,-29.751 103,-19.7511 99.5001,-29.7511 106.5,-29.751"/>
</g>
<!-- Node5 -->
<g id="node5" class="node"><title>Node5</title>
<polygon fill="none" stroke="#bfbfbf" points="151,-0.5 151,-19.5 225,-19.5 225,-0.5 151,-0.5"/>
<text text-anchor="middle" x="188" y="-7.5" font-family="Helvetica,sans-Serif" font-size="10.00">TCollection.h</text>
</g>
<!-- Node2&#45;&gt;Node5 -->
<g id="edge4" class="edge"><title>Node2&#45;&gt;Node5</title>
<path fill="none" stroke="midnightblue" d="M116.657,-56.324C129.916,-47.9002 150.268,-34.9709 165.846,-25.0741"/>
<polygon fill="midnightblue" stroke="midnightblue" points="167.813,-27.9711 174.377,-19.6545 164.06,-22.0626 167.813,-27.9711"/>
</g>
</g>
</svg>
