<?xml version="1.0" encoding="UTF-8" standalone="no"?>
<!DOCTYPE svg PUBLIC "-//W3C//DTD SVG 1.1//EN"
 "http://www.w3.org/Graphics/SVG/1.1/DTD/svg11.dtd">
<!-- Generated by graphviz version 2.38.0 (20140413.2041)
 -->
<!-- Title: /home/travis/build/AliceO2Group/AliceO2/Detectors/MUON/MID/Simulation/src/TrackLabeler.cxx Pages: 1 -->
<!--zoomable 363 -->
<svg id="main" version="1.1" xmlns="http://www.w3.org/2000/svg" xmlns:xlink="http://www.w3.org/1999/xlink" xml:space="preserve" onload="init(evt)">
<style type="text/css"><![CDATA[
.edge:hover path { stroke: red; }
.edge:hover polygon { stroke: red; fill: red; }
]]></style>
<script type="text/javascript"><![CDATA[
var edges = document.getElementsByTagName('g');
if (edges && edges.length) {
  for (var i=0;i<edges.length;i++) {
    if (edges[i].id.substr(0,4)=='edge') {
      edges[i].setAttribute('class','edge');
    }
  }
}
]]></script>
        <defs>
                <circle id="rim" cx="0" cy="0" r="7"/>
                <circle id="rim2" cx="0" cy="0" r="3.5"/>
                <g id="zoomPlus">
                        <use xlink:href="#rim" fill="#404040">
                                <set attributeName="fill" to="#808080" begin="zoomplus.mouseover" end="zoomplus.mouseout"/>
                        </use>
                        <path d="M-4,0h8M0,-4v8" fill="none" stroke="white" stroke-width="1.5" pointer-events="none"/>
                </g>
                <g id="zoomMin">
                        <use xlink:href="#rim" fill="#404040">
                                <set attributeName="fill" to="#808080" begin="zoomminus.mouseover" end="zoomminus.mouseout"/>
                        </use>
                        <path d="M-4,0h8" fill="none" stroke="white" stroke-width="1.5" pointer-events="none"/>
                </g>
                <g id="dirArrow">
                        <path fill="none" stroke="white" stroke-width="1.5" d="M0,-3.0v7 M-2.5,-0.5L0,-3.0L2.5,-0.5"/>
                </g>
               <g id="resetDef">
                       <use xlink:href="#rim2" fill="#404040">
                               <set attributeName="fill" to="#808080" begin="reset.mouseover" end="reset.mouseout"/>
                       </use>
               </g>
        </defs>

<script type="text/javascript">
var viewWidth = 1036;
var viewHeight = 363;
var sectionId = 'dynsection-0';
</script>
<script xlink:href="../../svgpan.js"/>
<svg id="graph" class="graph">
<g id="viewport">
<title>/home/travis/build/AliceO2Group/AliceO2/Detectors/MUON/MID/Simulation/src/TrackLabeler.cxx</title>
<!-- Node1 -->
<g id="node1" class="node"><title>Node1</title>
<polygon fill="#bfbfbf" stroke="black" points="346.5,-302.5 346.5,-354.5 513.5,-354.5 513.5,-302.5 346.5,-302.5"/>
<text text-anchor="start" x="354.5" y="-342.5" font-family="Helvetica,sans-Serif" font-size="10.00">/home/travis/build</text>
<text text-anchor="start" x="354.5" y="-331.5" font-family="Helvetica,sans-Serif" font-size="10.00">/AliceO2Group/AliceO2</text>
<text text-anchor="start" x="354.5" y="-320.5" font-family="Helvetica,sans-Serif" font-size="10.00">/Detectors/MUON/MID/Simulation</text>
<text text-anchor="middle" x="430" y="-309.5" font-family="Helvetica,sans-Serif" font-size="10.00">/src/TrackLabeler.cxx</text>
</g>
<!-- Node2 -->
<g id="node2" class="node"><title>Node2</title>
<g id="a_node2"><a xlink:href="../../df/d00/TrackLabeler_8h.html" target="_top" xlink:title="Tracks labeler for MID. ">
<polygon fill="none" stroke="black" points="355.5,-246.5 355.5,-265.5 504.5,-265.5 504.5,-246.5 355.5,-246.5"/>
<text text-anchor="middle" x="430" y="-253.5" font-family="Helvetica,sans-Serif" font-size="10.00">MIDSimulation/TrackLabeler.h</text>
</a>
</g>
</g>
<!-- Node1&#45;&gt;Node2 -->
<g id="edge1" class="edge"><title>Node1&#45;&gt;Node2</title>
<path fill="none" stroke="midnightblue" d="M430,-302.446C430,-293.73 430,-284.104 430,-275.964"/>
<polygon fill="midnightblue" stroke="midnightblue" points="433.5,-275.695 430,-265.695 426.5,-275.696 433.5,-275.695"/>
</g>
<!-- Node3 -->
<g id="node3" class="node"><title>Node3</title>
<polygon fill="none" stroke="#bfbfbf" points="481,-118 481,-137 525,-137 525,-118 481,-118"/>
<text text-anchor="middle" x="503" y="-125" font-family="Helvetica,sans-Serif" font-size="10.00">vector</text>
</g>
<!-- Node2&#45;&gt;Node3 -->
<g id="edge2" class="edge"><title>Node2&#45;&gt;Node3</title>
<path fill="none" stroke="midnightblue" d="M462.185,-246.488C480.539,-239.801 502.016,-228.45 513,-210 524.535,-190.626 517.998,-164.08 511.318,-146.621"/>
<polygon fill="midnightblue" stroke="midnightblue" points="514.404,-144.93 507.301,-137.07 507.952,-147.644 514.404,-144.93"/>
</g>
<!-- Node4 -->
<g id="node4" class="node"><title>Node4</title>
<polygon fill="none" stroke="#bfbfbf" points="543.5,-118 543.5,-137 588.5,-137 588.5,-118 543.5,-118"/>
<text text-anchor="middle" x="566" y="-125" font-family="Helvetica,sans-Serif" font-size="10.00">gsl/gsl</text>
</g>
<!-- Node2&#45;&gt;Node4 -->
<g id="edge3" class="edge"><title>Node2&#45;&gt;Node4</title>
<path fill="none" stroke="midnightblue" d="M465.124,-246.405C486.508,-239.611 513.069,-228.175 531,-210 548.196,-192.57 557.533,-165.352 562.139,-147.229"/>
<polygon fill="midnightblue" stroke="midnightblue" points="565.595,-147.818 564.425,-137.288 558.773,-146.25 565.595,-147.818"/>
</g>
<!-- Node5 -->
<g id="node5" class="node"><title>Node5</title>
<g id="a_node5"><a xlink:href="../../db/d14/MCTruthContainer_8h.html" target="_top" xlink:title="Definition of a container to keep Monte Carlo truth external to simulation objects. ">
<polygon fill="none" stroke="black" points="628,-179.5 628,-209.5 742,-209.5 742,-179.5 628,-179.5"/>
<text text-anchor="start" x="636" y="-197.5" font-family="Helvetica,sans-Serif" font-size="10.00">SimulationDataFormat</text>
<text text-anchor="middle" x="685" y="-186.5" font-family="Helvetica,sans-Serif" font-size="10.00">/MCTruthContainer.h</text>
</a>
</g>
</g>
<!-- Node2&#45;&gt;Node5 -->
<g id="edge4" class="edge"><title>Node2&#45;&gt;Node5</title>
<path fill="none" stroke="midnightblue" d="M466.535,-246.475C505.96,-237.276 569.596,-222.428 618.044,-211.123"/>
<polygon fill="midnightblue" stroke="midnightblue" points="618.885,-214.521 627.828,-208.84 617.294,-207.704 618.885,-214.521"/>
</g>
<!-- Node13 -->
<g id="node13" class="node"><title>Node13</title>
<g id="a_node13"><a xlink:href="../../d7/dcd/MCCompLabel_8h.html" target="_top" xlink:title="SimulationDataFormat\l/MCCompLabel.h">
<polygon fill="none" stroke="black" points="2,-112.5 2,-142.5 116,-142.5 116,-112.5 2,-112.5"/>
<text text-anchor="start" x="10" y="-130.5" font-family="Helvetica,sans-Serif" font-size="10.00">SimulationDataFormat</text>
<text text-anchor="middle" x="59" y="-119.5" font-family="Helvetica,sans-Serif" font-size="10.00">/MCCompLabel.h</text>
</a>
</g>
</g>
<!-- Node2&#45;&gt;Node13 -->
<g id="edge14" class="edge"><title>Node2&#45;&gt;Node13</title>
<path fill="none" stroke="midnightblue" d="M355.068,-252.116C242.621,-247.009 40.9809,-234.519 19,-210 3.30703,-192.495 19.4797,-167.721 35.7128,-150.092"/>
<polygon fill="midnightblue" stroke="midnightblue" points="38.5918,-152.152 43.0612,-142.546 33.5769,-147.268 38.5918,-152.152"/>
</g>
<!-- Node16 -->
<g id="node16" class="node"><title>Node16</title>
<g id="a_node16"><a xlink:href="../../d4/d54/DataFormats_2Detectors_2MUON_2MID_2include_2DataFormatsMID_2Track_8h.html" target="_top" xlink:title="Reconstructed MID track. ">
<polygon fill="none" stroke="black" points="210,-185 210,-204 338,-204 338,-185 210,-185"/>
<text text-anchor="middle" x="274" y="-192" font-family="Helvetica,sans-Serif" font-size="10.00">DataFormatsMID/Track.h</text>
</a>
</g>
</g>
<!-- Node2&#45;&gt;Node16 -->
<g id="edge17" class="edge"><title>Node2&#45;&gt;Node16</title>
<path fill="none" stroke="midnightblue" d="M407.649,-246.475C381.005,-236.313 336.286,-219.256 305.986,-207.7"/>
<polygon fill="midnightblue" stroke="midnightblue" points="306.9,-204.303 296.31,-204.009 304.406,-210.843 306.9,-204.303"/>
</g>
<!-- Node19 -->
<g id="node19" class="node"><title>Node19</title>
<g id="a_node19"><a xlink:href="../../d0/daa/Cluster3D_8h.html" target="_top" xlink:title="Reconstructed MID cluster (global coordinates) ">
<polygon fill="none" stroke="black" points="356,-185 356,-204 504,-204 504,-185 356,-185"/>
<text text-anchor="middle" x="430" y="-192" font-family="Helvetica,sans-Serif" font-size="10.00">DataFormatsMID/Cluster3D.h</text>
</a>
</g>
</g>
<!-- Node2&#45;&gt;Node19 -->
<g id="edge20" class="edge"><title>Node2&#45;&gt;Node19</title>
<path fill="none" stroke="midnightblue" d="M430,-246.475C430,-238.08 430,-224.981 430,-214.163"/>
<polygon fill="midnightblue" stroke="midnightblue" points="433.5,-214.009 430,-204.009 426.5,-214.009 433.5,-214.009"/>
</g>
<!-- Node20 -->
<g id="node20" class="node"><title>Node20</title>
<g id="a_node20"><a xlink:href="../../d3/db3/MCClusterLabel_8h.html" target="_top" xlink:title="Label for MID clusters. ">
<polygon fill="none" stroke="black" points="28.5,-185 28.5,-204 191.5,-204 191.5,-185 28.5,-185"/>
<text text-anchor="middle" x="110" y="-192" font-family="Helvetica,sans-Serif" font-size="10.00">MIDSimulation/MCClusterLabel.h</text>
</a>
</g>
</g>
<!-- Node2&#45;&gt;Node20 -->
<g id="edge23" class="edge"><title>Node2&#45;&gt;Node20</title>
<path fill="none" stroke="midnightblue" d="M384.152,-246.475C326.528,-235.761 227.685,-217.382 165.75,-205.866"/>
<polygon fill="midnightblue" stroke="midnightblue" points="166.234,-202.396 155.763,-204.009 164.955,-209.278 166.234,-202.396"/>
</g>
<!-- Node5&#45;&gt;Node3 -->
<g id="edge13" class="edge"><title>Node5&#45;&gt;Node3</title>
<path fill="none" stroke="midnightblue" d="M638.577,-179.494C608.453,-170.034 568.525,-156.795 534,-143 532.621,-142.449 531.215,-141.867 529.801,-141.266"/>
<polygon fill="midnightblue" stroke="midnightblue" points="531.109,-138.017 520.551,-137.136 528.256,-144.409 531.109,-138.017"/>
</g>
<!-- Node5&#45;&gt;Node4 -->
<g id="edge9" class="edge"><title>Node5&#45;&gt;Node4</title>
<path fill="none" stroke="midnightblue" d="M659.179,-179.396C638.761,-168.243 610.453,-152.781 590.411,-141.834"/>
<polygon fill="midnightblue" stroke="midnightblue" points="592.028,-138.729 581.574,-137.007 588.673,-144.872 592.028,-138.729"/>
</g>
<!-- Node6 -->
<g id="node6" class="node"><title>Node6</title>
<polygon fill="none" stroke="#bfbfbf" points="607,-118 607,-137 669,-137 669,-118 607,-118"/>
<text text-anchor="middle" x="638" y="-125" font-family="Helvetica,sans-Serif" font-size="10.00">TNamed.h</text>
</g>
<!-- Node5&#45;&gt;Node6 -->
<g id="edge5" class="edge"><title>Node5&#45;&gt;Node6</title>
<path fill="none" stroke="midnightblue" d="M674.802,-179.396C667.618,-169.462 657.963,-156.108 650.344,-145.572"/>
<polygon fill="midnightblue" stroke="midnightblue" points="652.983,-143.247 644.287,-137.195 647.31,-147.349 652.983,-143.247"/>
</g>
<!-- Node7 -->
<g id="node7" class="node"><title>Node7</title>
<polygon fill="none" stroke="#bfbfbf" points="410,-118 410,-137 456,-137 456,-118 410,-118"/>
<text text-anchor="middle" x="433" y="-125" font-family="Helvetica,sans-Serif" font-size="10.00">cstdint</text>
</g>
<!-- Node5&#45;&gt;Node7 -->
<g id="edge6" class="edge"><title>Node5&#45;&gt;Node7</title>
<path fill="none" stroke="midnightblue" d="M627.987,-181.981C584.798,-172.775 524.19,-158.823 472,-143 469.431,-142.221 466.787,-141.363 464.143,-140.465"/>
<polygon fill="midnightblue" stroke="midnightblue" points="465.298,-137.161 454.703,-137.108 462.952,-143.756 465.298,-137.161"/>
</g>
<!-- Node8 -->
<g id="node8" class="node"><title>Node8</title>
<polygon fill="none" stroke="#bfbfbf" points="687.5,-118 687.5,-137 736.5,-137 736.5,-118 687.5,-118"/>
<text text-anchor="middle" x="712" y="-125" font-family="Helvetica,sans-Serif" font-size="10.00">cassert</text>
</g>
<!-- Node5&#45;&gt;Node8 -->
<g id="edge7" class="edge"><title>Node5&#45;&gt;Node8</title>
<path fill="none" stroke="midnightblue" d="M690.859,-179.396C694.86,-169.763 700.197,-156.914 704.508,-146.537"/>
<polygon fill="midnightblue" stroke="midnightblue" points="707.785,-147.772 708.388,-137.195 701.32,-145.087 707.785,-147.772"/>
</g>
<!-- Node9 -->
<g id="node9" class="node"><title>Node9</title>
<polygon fill="none" stroke="#bfbfbf" points="754.5,-118 754.5,-137 813.5,-137 813.5,-118 754.5,-118"/>
<text text-anchor="middle" x="784" y="-125" font-family="Helvetica,sans-Serif" font-size="10.00">stdexcept</text>
</g>
<!-- Node5&#45;&gt;Node9 -->
<g id="edge8" class="edge"><title>Node5&#45;&gt;Node9</title>
<path fill="none" stroke="midnightblue" d="M706.482,-179.396C723.084,-168.496 745.956,-153.479 762.55,-142.584"/>
<polygon fill="midnightblue" stroke="midnightblue" points="764.605,-145.421 771.043,-137.007 760.763,-139.57 764.605,-145.421"/>
</g>
<!-- Node10 -->
<g id="node10" class="node"><title>Node10</title>
<polygon fill="none" stroke="#bfbfbf" points="832,-118 832,-137 894,-137 894,-118 832,-118"/>
<text text-anchor="middle" x="863" y="-125" font-family="Helvetica,sans-Serif" font-size="10.00">type_traits</text>
</g>
<!-- Node5&#45;&gt;Node10 -->
<g id="edge10" class="edge"><title>Node5&#45;&gt;Node10</title>
<path fill="none" stroke="midnightblue" d="M723.623,-179.396C755.408,-167.789 799.975,-151.515 830.086,-140.519"/>
<polygon fill="midnightblue" stroke="midnightblue" points="831.511,-143.725 839.704,-137.007 829.11,-137.15 831.511,-143.725"/>
</g>
<!-- Node11 -->
<g id="node11" class="node"><title>Node11</title>
<polygon fill="none" stroke="#bfbfbf" points="912,-118 912,-137 958,-137 958,-118 912,-118"/>
<text text-anchor="middle" x="935" y="-125" font-family="Helvetica,sans-Serif" font-size="10.00">cstring</text>
</g>
<!-- Node5&#45;&gt;Node11 -->
<g id="edge11" class="edge"><title>Node5&#45;&gt;Node11</title>
<path fill="none" stroke="midnightblue" d="M742.32,-183.442C786.793,-174.871 849.645,-161.07 903,-143 904.668,-142.435 906.367,-141.813 908.069,-141.154"/>
<polygon fill="midnightblue" stroke="midnightblue" points="909.792,-144.226 917.647,-137.115 907.072,-137.776 909.792,-144.226"/>
</g>
<!-- Node12 -->
<g id="node12" class="node"><title>Node12</title>
<polygon fill="none" stroke="#bfbfbf" points="976,-118 976,-137 1028,-137 1028,-118 976,-118"/>
<text text-anchor="middle" x="1002" y="-125" font-family="Helvetica,sans-Serif" font-size="10.00">memory</text>
</g>
<!-- Node5&#45;&gt;Node12 -->
<g id="edge12" class="edge"><title>Node5&#45;&gt;Node12</title>
<path fill="none" stroke="midnightblue" d="M742.008,-186.96C799.566,-179.506 890.63,-165.373 967,-143 969.29,-142.329 971.634,-141.557 973.971,-140.726"/>
<polygon fill="midnightblue" stroke="midnightblue" points="975.314,-143.959 983.377,-137.087 972.788,-137.431 975.314,-143.959"/>
</g>
<!-- Node14 -->
<g id="node14" class="node"><title>Node14</title>
<g id="a_node14"><a xlink:href="../../d2/d45/GPUCommonRtypes_8h.html" target="_top" xlink:title="GPUCommonRtypes.h">
<polygon fill="none" stroke="black" points="0,-56.5 0,-75.5 118,-75.5 118,-56.5 0,-56.5"/>
<text text-anchor="middle" x="59" y="-63.5" font-family="Helvetica,sans-Serif" font-size="10.00">GPUCommonRtypes.h</text>
</a>
</g>
</g>
<!-- Node13&#45;&gt;Node14 -->
<g id="edge15" class="edge"><title>Node13&#45;&gt;Node14</title>
<path fill="none" stroke="midnightblue" d="M59,-112.399C59,-104.466 59,-94.458 59,-85.8583"/>
<polygon fill="midnightblue" stroke="midnightblue" points="62.5001,-85.6577 59,-75.6578 55.5001,-85.6578 62.5001,-85.6577"/>
</g>
<!-- Node15 -->
<g id="node15" class="node"><title>Node15</title>
<polygon fill="none" stroke="#bfbfbf" points="31,-0.5 31,-19.5 87,-19.5 87,-0.5 31,-0.5"/>
<text text-anchor="middle" x="59" y="-7.5" font-family="Helvetica,sans-Serif" font-size="10.00">Rtypes.h</text>
</g>
<!-- Node14&#45;&gt;Node15 -->
<g id="edge16" class="edge"><title>Node14&#45;&gt;Node15</title>
<path fill="none" stroke="midnightblue" d="M59,-56.083C59,-49.0059 59,-38.8611 59,-29.9865"/>
<polygon fill="midnightblue" stroke="midnightblue" points="62.5001,-29.751 59,-19.7511 55.5001,-29.7511 62.5001,-29.751"/>
</g>
<!-- Node17 -->
<g id="node17" class="node"><title>Node17</title>
<polygon fill="none" stroke="#bfbfbf" points="142,-118 142,-137 180,-137 180,-118 142,-118"/>
<text text-anchor="middle" x="161" y="-125" font-family="Helvetica,sans-Serif" font-size="10.00">array</text>
</g>
<!-- Node16&#45;&gt;Node17 -->
<g id="edge18" class="edge"><title>Node16&#45;&gt;Node17</title>
<path fill="none" stroke="midnightblue" d="M258.76,-184.734C239.784,-173.818 207.154,-155.049 184.853,-142.221"/>
<polygon fill="midnightblue" stroke="midnightblue" points="186.412,-139.08 175.998,-137.127 182.921,-145.147 186.412,-139.08"/>
</g>
<!-- Node18 -->
<g id="node18" class="node"><title>Node18</title>
<polygon fill="none" stroke="#bfbfbf" points="294,-118 294,-137 346,-137 346,-118 294,-118"/>
<text text-anchor="middle" x="320" y="-125" font-family="Helvetica,sans-Serif" font-size="10.00">ostream</text>
</g>
<!-- Node16&#45;&gt;Node18 -->
<g id="edge19" class="edge"><title>Node16&#45;&gt;Node18</title>
<path fill="none" stroke="midnightblue" d="M280.204,-184.734C287.308,-174.695 299.113,-158.014 308.025,-145.421"/>
<polygon fill="midnightblue" stroke="midnightblue" points="310.975,-147.312 313.895,-137.127 305.261,-143.268 310.975,-147.312"/>
</g>
<!-- Node19&#45;&gt;Node7 -->
<g id="edge22" class="edge"><title>Node19&#45;&gt;Node7</title>
<path fill="none" stroke="midnightblue" d="M430.405,-184.734C430.845,-175.183 431.564,-159.618 432.133,-147.283"/>
<polygon fill="midnightblue" stroke="midnightblue" points="435.637,-147.278 432.602,-137.127 428.644,-146.955 435.637,-147.278"/>
</g>
<!-- Node19&#45;&gt;Node18 -->
<g id="edge21" class="edge"><title>Node19&#45;&gt;Node18</title>
<path fill="none" stroke="midnightblue" d="M415.165,-184.734C396.692,-173.818 364.928,-155.049 343.22,-142.221"/>
<polygon fill="midnightblue" stroke="midnightblue" points="344.99,-139.201 334.6,-137.127 341.429,-145.228 344.99,-139.201"/>
</g>
<!-- Node20&#45;&gt;Node13 -->
<g id="edge25" class="edge"><title>Node20&#45;&gt;Node13</title>
<path fill="none" stroke="midnightblue" d="M103.122,-184.734C96.2958,-176.034 85.555,-162.345 76.3801,-150.651"/>
<polygon fill="midnightblue" stroke="midnightblue" points="78.981,-148.296 70.0545,-142.589 73.4738,-152.617 78.981,-148.296"/>
</g>
<!-- Node20&#45;&gt;Node17 -->
<g id="edge24" class="edge"><title>Node20&#45;&gt;Node17</title>
<path fill="none" stroke="midnightblue" d="M116.878,-184.734C124.831,-174.598 138.097,-157.69 148.01,-145.056"/>
<polygon fill="midnightblue" stroke="midnightblue" points="150.812,-147.155 154.231,-137.127 145.304,-142.834 150.812,-147.155"/>
</g>
</g>
</svg>
        <g id="navigator" transform="translate(0 0)" fill="#404254">
                <rect fill="#f2f5e9" fill-opacity="0.5" stroke="#606060" stroke-width=".5" x="0" y="0" width="60" height="60"/>
                <use id="zoomplus" xlink:href="#zoomPlus" x="17" y="9" onmousedown="handleZoom(evt,'in')"/>
                <use id="zoomminus" xlink:href="#zoomMin" x="42" y="9" onmousedown="handleZoom(evt,'out')"/>
                <use id="reset" xlink:href="#resetDef" x="30" y="36" onmousedown="handleReset()"/>
                <g id="arrowUp" xlink:href="#dirArrow" transform="translate(30 24)" onmousedown="handlePan(0,-1)">
                  <use xlink:href="#rim" fill="#404040">
                        <set attributeName="fill" to="#808080" begin="arrowUp.mouseover" end="arrowUp.mouseout"/>
                  </use>
                  <path fill="none" stroke="white" stroke-width="1.5" d="M0,-3.0v7 M-2.5,-0.5L0,-3.0L2.5,-0.5"/>
                </g>
                <g id="arrowRight" xlink:href="#dirArrow" transform="rotate(90) translate(36 -43)" onmousedown="handlePan(1,0)">
                  <use xlink:href="#rim" fill="#404040">
                        <set attributeName="fill" to="#808080" begin="arrowRight.mouseover" end="arrowRight.mouseout"/>
                  </use>
                  <path fill="none" stroke="white" stroke-width="1.5" d="M0,-3.0v7 M-2.5,-0.5L0,-3.0L2.5,-0.5"/>
                </g>
                <g id="arrowDown" xlink:href="#dirArrow" transform="rotate(180) translate(-30 -48)" onmousedown="handlePan(0,1)">
                  <use xlink:href="#rim" fill="#404040">
                        <set attributeName="fill" to="#808080" begin="arrowDown.mouseover" end="arrowDown.mouseout"/>
                  </use>
                  <path fill="none" stroke="white" stroke-width="1.5" d="M0,-3.0v7 M-2.5,-0.5L0,-3.0L2.5,-0.5"/>
                </g>
                <g id="arrowLeft" xlink:href="#dirArrow" transform="rotate(270) translate(-36 17)" onmousedown="handlePan(-1,0)">
                  <use xlink:href="#rim" fill="#404040">
                        <set attributeName="fill" to="#808080" begin="arrowLeft.mouseover" end="arrowLeft.mouseout"/>
                  </use>
                  <path fill="none" stroke="white" stroke-width="1.5" d="M0,-3.0v7 M-2.5,-0.5L0,-3.0L2.5,-0.5"/>
                </g>
        </g>
        <svg viewBox="0 0 15 15" width="100%" height="30px" preserveAspectRatio="xMaxYMin meet">
         <g id="arrow_out" transform="scale(0.3 0.3)">
          <a xlink:href="TrackLabeler_8cxx__incl_org.svg" target="_base">
           <rect id="button" ry="5" rx="5" y="6" x="6" height="38" width="38"
                fill="#f2f5e9" fill-opacity="0.5" stroke="#606060" stroke-width="1.0"/>
           <path id="arrow"
             d="M 11.500037,31.436501 C 11.940474,20.09759 22.043105,11.32322 32.158766,21.979434 L 37.068811,17.246167 C 37.068811,17.246167 37.088388,32 37.088388,32 L 22.160133,31.978069 C 22.160133,31.978069 26.997745,27.140456 26.997745,27.140456 C 18.528582,18.264221 13.291696,25.230495 11.500037,31.436501 z"
             style="fill:#404040;"/>
          </a>
         </g>
        </svg>
</svg>
