<?xml version="1.0" encoding="UTF-8" standalone="no"?>
<!DOCTYPE svg PUBLIC "-//W3C//DTD SVG 1.1//EN"
 "http://www.w3.org/Graphics/SVG/1.1/DTD/svg11.dtd">
<!-- Generated by graphviz version 2.38.0 (20140413.2041)
 -->
<!-- Title: o2::framework::gui::Node Pages: 1 -->
<svg width="375pt" height="441pt"
 viewBox="0.00 0.00 374.64 441.00" xmlns="http://www.w3.org/2000/svg" xmlns:xlink="http://www.w3.org/1999/xlink">
<g id="graph0" class="graph" transform="scale(1 1) rotate(0) translate(4 437)">
<title>o2::framework::gui::Node</title>
<!-- Node1 -->
<g id="node1" class="node"><title>Node1</title>
<polygon fill="#bfbfbf" stroke="black" points="137.639,-0.5 137.639,-68.5 235.639,-68.5 235.639,-0.5 137.639,-0.5"/>
<text text-anchor="start" x="145.639" y="-56.5" font-family="Helvetica,sans-Serif" font-size="10.00">o2::framework::gui</text>
<text text-anchor="middle" x="186.639" y="-45.5" font-family="Helvetica,sans-Serif" font-size="10.00">::Node</text>
<polyline fill="none" stroke="black" points="137.639,-38.5 235.639,-38.5 "/>
<text text-anchor="middle" x="186.639" y="-26.5" font-family="Helvetica,sans-Serif" font-size="10.00"> </text>
<polyline fill="none" stroke="black" points="137.639,-19.5 235.639,-19.5 "/>
<text text-anchor="start" x="145.639" y="-7.5" font-family="Helvetica,sans-Serif" font-size="10.00">+ Node()</text>
</g>
<!-- Node2 -->
<g id="node2" class="node"><title>Node2</title>
<g id="a_node2"><a xlink:href="../../d3/dc2/structImVec2.html" target="_top" xlink:title="{ImVec2\n||+ ImVec2()\l+ ImVec2()\l+ operator[]()\l+ ImVec2()\l+ ImVec2()\l+ operator[]()\l+ ImVec2()\l+ ImVec2()\l+ operator[]()\l}">
<polygon fill="none" stroke="black" points="63.1388,-149.5 63.1388,-294.5 136.139,-294.5 136.139,-149.5 63.1388,-149.5"/>
<text text-anchor="middle" x="99.6388" y="-282.5" font-family="Helvetica,sans-Serif" font-size="10.00">ImVec2</text>
<polyline fill="none" stroke="black" points="63.1388,-275.5 136.139,-275.5 "/>
<text text-anchor="middle" x="99.6388" y="-263.5" font-family="Helvetica,sans-Serif" font-size="10.00"> </text>
<polyline fill="none" stroke="black" points="63.1388,-256.5 136.139,-256.5 "/>
<text text-anchor="start" x="71.1388" y="-244.5" font-family="Helvetica,sans-Serif" font-size="10.00">+ ImVec2()</text>
<text text-anchor="start" x="71.1388" y="-233.5" font-family="Helvetica,sans-Serif" font-size="10.00">+ ImVec2()</text>
<text text-anchor="start" x="71.1388" y="-222.5" font-family="Helvetica,sans-Serif" font-size="10.00">+ operator[]()</text>
<text text-anchor="start" x="71.1388" y="-211.5" font-family="Helvetica,sans-Serif" font-size="10.00">+ ImVec2()</text>
<text text-anchor="start" x="71.1388" y="-200.5" font-family="Helvetica,sans-Serif" font-size="10.00">+ ImVec2()</text>
<text text-anchor="start" x="71.1388" y="-189.5" font-family="Helvetica,sans-Serif" font-size="10.00">+ operator[]()</text>
<text text-anchor="start" x="71.1388" y="-178.5" font-family="Helvetica,sans-Serif" font-size="10.00">+ ImVec2()</text>
<text text-anchor="start" x="71.1388" y="-167.5" font-family="Helvetica,sans-Serif" font-size="10.00">+ ImVec2()</text>
<text text-anchor="start" x="71.1388" y="-156.5" font-family="Helvetica,sans-Serif" font-size="10.00">+ operator[]()</text>
</a>
</g>
</g>
<!-- Node2&#45;&gt;Node1 -->
<g id="edge1" class="edge"><title>Node2&#45;&gt;Node1</title>
<path fill="none" stroke="#404040" d="M125.665,-149.304C133.863,-128.827 143.458,-106.725 153.639,-87 154.954,-84.4522 156.358,-81.869 157.819,-79.2861"/>
<polygon fill="none" stroke="#404040" points="157.938,-79.0858 157.555,-71.8848 164.055,-68.7619 164.438,-75.9629 157.938,-79.0858"/>
<text text-anchor="middle" x="168.139" y="-106.5" font-family="Helvetica,sans-Serif" font-size="10.00"> +Size</text>
</g>
<!-- Node3 -->
<g id="node3" class="node"><title>Node3</title>
<g id="a_node3"><a xlink:href="../../d4/dc3/classfloat.html" target="_top" xlink:title="{float\n||}">
<polygon fill="none" stroke="black" points="82.1388,-375.5 82.1388,-432.5 117.139,-432.5 117.139,-375.5 82.1388,-375.5"/>
<text text-anchor="middle" x="99.6388" y="-420.5" font-family="Helvetica,sans-Serif" font-size="10.00">float</text>
<polyline fill="none" stroke="black" points="82.1388,-413.5 117.139,-413.5 "/>
<text text-anchor="middle" x="99.6388" y="-401.5" font-family="Helvetica,sans-Serif" font-size="10.00"> </text>
<polyline fill="none" stroke="black" points="82.1388,-394.5 117.139,-394.5 "/>
<text text-anchor="middle" x="99.6388" y="-382.5" font-family="Helvetica,sans-Serif" font-size="10.00"> </text>
</a>
</g>
</g>
<!-- Node3&#45;&gt;Node1 -->
<g id="edge5" class="edge"><title>Node3&#45;&gt;Node1</title>
<path fill="none" stroke="#404040" d="M82.1336,-386.685C62.5383,-367.104 31.9244,-332.226 19.6388,-295 -0.697601,-233.38 -10.7239,-206.347 19.6388,-149 42.1074,-106.563 88.3438,-77.0442 126.48,-58.7693"/>
<polygon fill="none" stroke="#404040" points="126.609,-58.7098 130.383,-52.5648 137.506,-53.6845 133.733,-59.8295 126.609,-58.7098"/>
<text text-anchor="middle" x="36.6388" y="-219.5" font-family="Helvetica,sans-Serif" font-size="10.00"> +Value</text>
</g>
<!-- Node3&#45;&gt;Node2 -->
<g id="edge2" class="edge"><title>Node3&#45;&gt;Node2</title>
<path fill="none" stroke="#404040" d="M99.6388,-375.269C99.6388,-356.794 99.6388,-331.453 99.6388,-306.743"/>
<polygon fill="none" stroke="#404040" points="99.6389,-306.696 95.6388,-300.696 99.6388,-294.696 103.639,-300.696 99.6389,-306.696"/>
<text text-anchor="middle" x="107.139" y="-338" font-family="Helvetica,sans-Serif" font-size="10.00"> +x</text>
<text text-anchor="middle" x="107.139" y="-327" font-family="Helvetica,sans-Serif" font-size="10.00">+y</text>
</g>
<!-- Node4 -->
<g id="node4" class="node"><title>Node4</title>
<g id="a_node4"><a xlink:href="../../dc/dee/structImVec4.html" target="_top" xlink:title="{ImVec4\n||+ ImVec4()\l+ ImVec4()\l+ ImVec4()\l+ ImVec4()\l+ ImVec4()\l+ ImVec4()\l}">
<polygon fill="none" stroke="black" points="154.139,-166 154.139,-278 219.139,-278 219.139,-166 154.139,-166"/>
<text text-anchor="middle" x="186.639" y="-266" font-family="Helvetica,sans-Serif" font-size="10.00">ImVec4</text>
<polyline fill="none" stroke="black" points="154.139,-259 219.139,-259 "/>
<text text-anchor="middle" x="186.639" y="-247" font-family="Helvetica,sans-Serif" font-size="10.00"> </text>
<polyline fill="none" stroke="black" points="154.139,-240 219.139,-240 "/>
<text text-anchor="start" x="162.139" y="-228" font-family="Helvetica,sans-Serif" font-size="10.00">+ ImVec4()</text>
<text text-anchor="start" x="162.139" y="-217" font-family="Helvetica,sans-Serif" font-size="10.00">+ ImVec4()</text>
<text text-anchor="start" x="162.139" y="-206" font-family="Helvetica,sans-Serif" font-size="10.00">+ ImVec4()</text>
<text text-anchor="start" x="162.139" y="-195" font-family="Helvetica,sans-Serif" font-size="10.00">+ ImVec4()</text>
<text text-anchor="start" x="162.139" y="-184" font-family="Helvetica,sans-Serif" font-size="10.00">+ ImVec4()</text>
<text text-anchor="start" x="162.139" y="-173" font-family="Helvetica,sans-Serif" font-size="10.00">+ ImVec4()</text>
</a>
</g>
</g>
<!-- Node3&#45;&gt;Node4 -->
<g id="edge4" class="edge"><title>Node3&#45;&gt;Node4</title>
<path fill="none" stroke="#404040" d="M113.042,-375.269C124.073,-352.446 140.169,-319.144 154.497,-289.5"/>
<polygon fill="none" stroke="#404040" points="154.666,-289.151 153.675,-282.009 159.888,-278.347 160.878,-285.49 154.666,-289.151"/>
<text text-anchor="middle" x="152.139" y="-349" font-family="Helvetica,sans-Serif" font-size="10.00"> +w</text>
<text text-anchor="middle" x="152.139" y="-338" font-family="Helvetica,sans-Serif" font-size="10.00">+x</text>
<text text-anchor="middle" x="152.139" y="-327" font-family="Helvetica,sans-Serif" font-size="10.00">+y</text>
<text text-anchor="middle" x="152.139" y="-316" font-family="Helvetica,sans-Serif" font-size="10.00">+z</text>
</g>
<!-- Node4&#45;&gt;Node1 -->
<g id="edge3" class="edge"><title>Node4&#45;&gt;Node1</title>
<path fill="none" stroke="#404040" d="M186.639,-165.846C186.639,-138.679 186.639,-106.333 186.639,-80.6591"/>
<polygon fill="none" stroke="#404040" points="186.639,-80.6436 182.639,-74.6437 186.639,-68.6436 190.639,-74.6436 186.639,-80.6436"/>
<text text-anchor="middle" x="203.139" y="-106.5" font-family="Helvetica,sans-Serif" font-size="10.00"> +Color</text>
</g>
<!-- Node5 -->
<g id="node5" class="node"><title>Node5</title>
<polygon fill="none" stroke="#bfbfbf" points="237.139,-193.5 237.139,-250.5 272.139,-250.5 272.139,-193.5 237.139,-193.5"/>
<text text-anchor="middle" x="254.639" y="-238.5" font-family="Helvetica,sans-Serif" font-size="10.00">char</text>
<polyline fill="none" stroke="#bfbfbf" points="237.139,-231.5 272.139,-231.5 "/>
<text text-anchor="middle" x="254.639" y="-219.5" font-family="Helvetica,sans-Serif" font-size="10.00"> </text>
<polyline fill="none" stroke="#bfbfbf" points="237.139,-212.5 272.139,-212.5 "/>
<text text-anchor="middle" x="254.639" y="-200.5" font-family="Helvetica,sans-Serif" font-size="10.00"> </text>
</g>
<!-- Node5&#45;&gt;Node1 -->
<g id="edge6" class="edge"><title>Node5&#45;&gt;Node1</title>
<path fill="none" stroke="#404040" d="M251.478,-193.284C247.567,-165.447 239.398,-121.804 223.639,-87 222.451,-84.3768 221.12,-81.752 219.687,-79.1533"/>
<polygon fill="none" stroke="#404040" points="219.559,-78.944 213.026,-75.8931 213.329,-68.6883 219.863,-71.7392 219.559,-78.944"/>
<text text-anchor="middle" x="256.639" y="-106.5" font-family="Helvetica,sans-Serif" font-size="10.00"> +Name</text>
</g>
<!-- Node6 -->
<g id="node6" class="node"><title>Node6</title>
<polygon fill="none" stroke="#bfbfbf" points="294.139,-193.5 294.139,-250.5 323.139,-250.5 323.139,-193.5 294.139,-193.5"/>
<text text-anchor="middle" x="308.639" y="-238.5" font-family="Helvetica,sans-Serif" font-size="10.00">int</text>
<polyline fill="none" stroke="#bfbfbf" points="294.139,-231.5 323.139,-231.5 "/>
<text text-anchor="middle" x="308.639" y="-219.5" font-family="Helvetica,sans-Serif" font-size="10.00"> </text>
<polyline fill="none" stroke="#bfbfbf" points="294.139,-212.5 323.139,-212.5 "/>
<text text-anchor="middle" x="308.639" y="-200.5" font-family="Helvetica,sans-Serif" font-size="10.00"> </text>
</g>
<!-- Node6&#45;&gt;Node1 -->
<g id="edge7" class="edge"><title>Node6&#45;&gt;Node1</title>
<path fill="none" stroke="#404040" d="M308.841,-193.4C307.706,-164.246 301.928,-118.256 278.639,-87 270.265,-75.761 258.669,-66.638 246.529,-59.3705"/>
<polygon fill="none" stroke="#404040" points="246.299,-59.2438 239.113,-59.8533 235.787,-53.4551 242.973,-52.8456 246.299,-59.2438"/>
<text text-anchor="middle" x="333.139" y="-123" font-family="Helvetica,sans-Serif" font-size="10.00"> +ID</text>
<text text-anchor="middle" x="333.139" y="-112" font-family="Helvetica,sans-Serif" font-size="10.00">+GroupID</text>
<text text-anchor="middle" x="333.139" y="-101" font-family="Helvetica,sans-Serif" font-size="10.00">+OutputsCount</text>
<text text-anchor="middle" x="333.139" y="-90" font-family="Helvetica,sans-Serif" font-size="10.00">+InputsCount</text>
</g>
</g>
</svg>
