<?xml version="1.0" encoding="UTF-8" standalone="no"?>
<!DOCTYPE svg PUBLIC "-//W3C//DTD SVG 1.1//EN"
 "http://www.w3.org/Graphics/SVG/1.1/DTD/svg11.dtd">
<!-- Generated by graphviz version 2.38.0 (20140413.2041)
 -->
<!-- Title: ImGuiStb::STB_TexteditState Pages: 1 -->
<svg width="475pt" height="480pt"
 viewBox="0.00 0.00 474.50 480.00" xmlns="http://www.w3.org/2000/svg" xmlns:xlink="http://www.w3.org/1999/xlink">
<g id="graph0" class="graph" transform="scale(1 1) rotate(0) translate(4 476)">
<title>ImGuiStb::STB_TexteditState</title>
<!-- Node1 -->
<g id="node1" class="node"><title>Node1</title>
<polygon fill="#bfbfbf" stroke="black" points="161,-0.5 161,-57.5 308,-57.5 308,-0.5 161,-0.5"/>
<text text-anchor="middle" x="234.5" y="-45.5" font-family="Helvetica,sans-Serif" font-size="10.00">ImGuiStb::STB_TexteditState</text>
<polyline fill="none" stroke="black" points="161,-38.5 308,-38.5 "/>
<text text-anchor="middle" x="234.5" y="-26.5" font-family="Helvetica,sans-Serif" font-size="10.00"> </text>
<polyline fill="none" stroke="black" points="161,-19.5 308,-19.5 "/>
<text text-anchor="middle" x="234.5" y="-7.5" font-family="Helvetica,sans-Serif" font-size="10.00"> </text>
</g>
<!-- Node2 -->
<g id="node2" class="node"><title>Node2</title>
<g id="a_node2"><a xlink:href="../../d4/dc3/classfloat.html" target="_top" xlink:title="{float\n||}">
<polygon fill="none" stroke="black" points="72,-182.5 72,-239.5 107,-239.5 107,-182.5 72,-182.5"/>
<text text-anchor="middle" x="89.5" y="-227.5" font-family="Helvetica,sans-Serif" font-size="10.00">float</text>
<polyline fill="none" stroke="black" points="72,-220.5 107,-220.5 "/>
<text text-anchor="middle" x="89.5" y="-208.5" font-family="Helvetica,sans-Serif" font-size="10.00"> </text>
<polyline fill="none" stroke="black" points="72,-201.5 107,-201.5 "/>
<text text-anchor="middle" x="89.5" y="-189.5" font-family="Helvetica,sans-Serif" font-size="10.00"> </text>
</a>
</g>
</g>
<!-- Node2&#45;&gt;Node1 -->
<g id="edge1" class="edge"><title>Node2&#45;&gt;Node1</title>
<path fill="none" stroke="#404040" d="M90.2825,-182.333C92.5352,-152.689 100.358,-105.88 126.5,-76 133.203,-68.3381 141.403,-61.9148 150.259,-56.5386"/>
<polygon fill="none" stroke="#404040" points="150.387,-56.4687 153.723,-50.0758 160.908,-50.6968 157.571,-57.0896 150.387,-56.4687"/>
<text text-anchor="middle" x="155.5" y="-117.5" font-family="Helvetica,sans-Serif" font-size="10.00"> +preferred_x</text>
</g>
<!-- Node3 -->
<g id="node3" class="node"><title>Node3</title>
<g id="a_node3"><a xlink:href="../../db/d54/structImGuiStb_1_1StbUndoState.html" target="_top" xlink:title="{ImGuiStb::StbUndoState\n||}">
<polygon fill="none" stroke="black" points="125,-182.5 125,-239.5 250,-239.5 250,-182.5 125,-182.5"/>
<text text-anchor="middle" x="187.5" y="-227.5" font-family="Helvetica,sans-Serif" font-size="10.00">ImGuiStb::StbUndoState</text>
<polyline fill="none" stroke="black" points="125,-220.5 250,-220.5 "/>
<text text-anchor="middle" x="187.5" y="-208.5" font-family="Helvetica,sans-Serif" font-size="10.00"> </text>
<polyline fill="none" stroke="black" points="125,-201.5 250,-201.5 "/>
<text text-anchor="middle" x="187.5" y="-189.5" font-family="Helvetica,sans-Serif" font-size="10.00"> </text>
</a>
</g>
</g>
<!-- Node3&#45;&gt;Node1 -->
<g id="edge2" class="edge"><title>Node3&#45;&gt;Node1</title>
<path fill="none" stroke="#404040" d="M187.052,-182.425C187.453,-154.697 190.438,-111.137 203.5,-76 204.491,-73.3343 205.666,-70.6715 206.969,-68.0463"/>
<polygon fill="none" stroke="#404040" points="206.995,-67.9995 206.47,-60.8076 212.906,-57.556 213.432,-64.748 206.995,-67.9995"/>
<text text-anchor="middle" x="229.5" y="-117.5" font-family="Helvetica,sans-Serif" font-size="10.00"> +undostate</text>
</g>
<!-- Node4 -->
<g id="node4" class="node"><title>Node4</title>
<polygon fill="none" stroke="#bfbfbf" points="0,-287.5 0,-344.5 151,-344.5 151,-287.5 0,-287.5"/>
<text text-anchor="middle" x="75.5" y="-332.5" font-family="Helvetica,sans-Serif" font-size="10.00">STB_TEXTEDIT_CHARTYPE</text>
<polyline fill="none" stroke="#bfbfbf" points="0,-325.5 151,-325.5 "/>
<text text-anchor="middle" x="75.5" y="-313.5" font-family="Helvetica,sans-Serif" font-size="10.00"> </text>
<polyline fill="none" stroke="#bfbfbf" points="0,-306.5 151,-306.5 "/>
<text text-anchor="middle" x="75.5" y="-294.5" font-family="Helvetica,sans-Serif" font-size="10.00"> </text>
</g>
<!-- Node4&#45;&gt;Node3 -->
<g id="edge3" class="edge"><title>Node4&#45;&gt;Node3</title>
<path fill="none" stroke="#404040" d="M93.4758,-287.355C100.608,-277.487 109.303,-266.676 118.5,-258 122.496,-254.23 126.834,-250.563 131.322,-247.05"/>
<polygon fill="none" stroke="#404040" points="131.682,-246.783 134.114,-239.995 141.316,-239.629 138.884,-246.417 131.682,-246.783"/>
<text text-anchor="middle" x="146" y="-261" font-family="Helvetica,sans-Serif" font-size="10.00"> +undo_char</text>
</g>
<!-- Node5 -->
<g id="node5" class="node"><title>Node5</title>
<g id="a_node5"><a xlink:href="../../dc/d10/classshort.html" target="_top" xlink:title="{short\n||}">
<polygon fill="none" stroke="black" points="189.5,-414.5 189.5,-471.5 227.5,-471.5 227.5,-414.5 189.5,-414.5"/>
<text text-anchor="middle" x="208.5" y="-459.5" font-family="Helvetica,sans-Serif" font-size="10.00">short</text>
<polyline fill="none" stroke="black" points="189.5,-452.5 227.5,-452.5 "/>
<text text-anchor="middle" x="208.5" y="-440.5" font-family="Helvetica,sans-Serif" font-size="10.00"> </text>
<polyline fill="none" stroke="black" points="189.5,-433.5 227.5,-433.5 "/>
<text text-anchor="middle" x="208.5" y="-421.5" font-family="Helvetica,sans-Serif" font-size="10.00"> </text>
</a>
</g>
</g>
<!-- Node5&#45;&gt;Node3 -->
<g id="edge4" class="edge"><title>Node5&#45;&gt;Node3</title>
<path fill="none" stroke="#404040" d="M204.678,-414.449C202.09,-395.059 198.745,-368.479 196.5,-345 193.509,-313.719 191.159,-278.205 189.611,-251.748"/>
<polygon fill="none" stroke="#404040" points="189.599,-251.527 185.264,-245.764 188.917,-239.546 193.251,-245.309 189.599,-251.527"/>
<text text-anchor="middle" x="235.5" y="-330" font-family="Helvetica,sans-Serif" font-size="10.00"> +redo_point</text>
<text text-anchor="middle" x="235.5" y="-319" font-family="Helvetica,sans-Serif" font-size="10.00">+redo_char_point</text>
<text text-anchor="middle" x="235.5" y="-308" font-family="Helvetica,sans-Serif" font-size="10.00">+undo_char_point</text>
<text text-anchor="middle" x="235.5" y="-297" font-family="Helvetica,sans-Serif" font-size="10.00">+undo_point</text>
</g>
<!-- Node6 -->
<g id="node6" class="node"><title>Node6</title>
<g id="a_node6"><a xlink:href="../../df/daa/structImGuiStb_1_1StbUndoRecord.html" target="_top" xlink:title="{ImGuiStb::StbUndoRecord\n||}">
<polygon fill="none" stroke="black" points="283.5,-287.5 283.5,-344.5 417.5,-344.5 417.5,-287.5 283.5,-287.5"/>
<text text-anchor="middle" x="350.5" y="-332.5" font-family="Helvetica,sans-Serif" font-size="10.00">ImGuiStb::StbUndoRecord</text>
<polyline fill="none" stroke="black" points="283.5,-325.5 417.5,-325.5 "/>
<text text-anchor="middle" x="350.5" y="-313.5" font-family="Helvetica,sans-Serif" font-size="10.00"> </text>
<polyline fill="none" stroke="black" points="283.5,-306.5 417.5,-306.5 "/>
<text text-anchor="middle" x="350.5" y="-294.5" font-family="Helvetica,sans-Serif" font-size="10.00"> </text>
</a>
</g>
</g>
<!-- Node5&#45;&gt;Node6 -->
<g id="edge6" class="edge"><title>Node5&#45;&gt;Node6</title>
<path fill="none" stroke="#404040" d="M227.632,-418.492C241.645,-402.006 261.613,-379.971 281.5,-363 285.922,-359.227 290.665,-355.5 295.519,-351.898"/>
<polygon fill="none" stroke="#404040" points="295.809,-351.689 298.361,-344.945 305.568,-344.706 303.017,-351.45 295.809,-351.689"/>
<text text-anchor="middle" x="314" y="-388" font-family="Helvetica,sans-Serif" font-size="10.00"> +insert_length</text>
<text text-anchor="middle" x="314" y="-377" font-family="Helvetica,sans-Serif" font-size="10.00">+char_storage</text>
<text text-anchor="middle" x="314" y="-366" font-family="Helvetica,sans-Serif" font-size="10.00">+delete_length</text>
</g>
<!-- Node6&#45;&gt;Node3 -->
<g id="edge5" class="edge"><title>Node6&#45;&gt;Node3</title>
<path fill="none" stroke="#404040" d="M306.819,-287.398C286.721,-274.698 262.68,-259.507 241.462,-246.098"/>
<polygon fill="none" stroke="#404040" points="241.446,-246.089 234.237,-246.265 231.302,-239.678 238.511,-239.502 241.446,-246.089"/>
<text text-anchor="middle" x="299" y="-261" font-family="Helvetica,sans-Serif" font-size="10.00"> +undo_rec</text>
</g>
<!-- Node7 -->
<g id="node7" class="node"><title>Node7</title>
<polygon fill="none" stroke="#bfbfbf" points="265.5,-414.5 265.5,-471.5 435.5,-471.5 435.5,-414.5 265.5,-414.5"/>
<text text-anchor="middle" x="350.5" y="-459.5" font-family="Helvetica,sans-Serif" font-size="10.00">STB_TEXTEDIT_POSITIONTYPE</text>
<polyline fill="none" stroke="#bfbfbf" points="265.5,-452.5 435.5,-452.5 "/>
<text text-anchor="middle" x="350.5" y="-440.5" font-family="Helvetica,sans-Serif" font-size="10.00"> </text>
<polyline fill="none" stroke="#bfbfbf" points="265.5,-433.5 435.5,-433.5 "/>
<text text-anchor="middle" x="350.5" y="-421.5" font-family="Helvetica,sans-Serif" font-size="10.00"> </text>
</g>
<!-- Node7&#45;&gt;Node6 -->
<g id="edge7" class="edge"><title>Node7&#45;&gt;Node6</title>
<path fill="none" stroke="#404040" d="M350.5,-414.258C350.5,-397.347 350.5,-375.457 350.5,-356.728"/>
<polygon fill="none" stroke="#404040" points="350.5,-356.664 346.5,-350.664 350.5,-344.664 354.5,-350.664 350.5,-356.664"/>
<text text-anchor="middle" x="368.5" y="-377" font-family="Helvetica,sans-Serif" font-size="10.00"> +where</text>
</g>
<!-- Node8 -->
<g id="node8" class="node"><title>Node8</title>
<polygon fill="none" stroke="#bfbfbf" points="268,-182.5 268,-239.5 297,-239.5 297,-182.5 268,-182.5"/>
<text text-anchor="middle" x="282.5" y="-227.5" font-family="Helvetica,sans-Serif" font-size="10.00">int</text>
<polyline fill="none" stroke="#bfbfbf" points="268,-220.5 297,-220.5 "/>
<text text-anchor="middle" x="282.5" y="-208.5" font-family="Helvetica,sans-Serif" font-size="10.00"> </text>
<polyline fill="none" stroke="#bfbfbf" points="268,-201.5 297,-201.5 "/>
<text text-anchor="middle" x="282.5" y="-189.5" font-family="Helvetica,sans-Serif" font-size="10.00"> </text>
</g>
<!-- Node8&#45;&gt;Node1 -->
<g id="edge8" class="edge"><title>Node8&#45;&gt;Node1</title>
<path fill="none" stroke="#404040" d="M278.821,-182.324C274.735,-154.892 267.138,-111.893 255.5,-76 254.769,-73.7452 253.958,-71.4544 253.093,-69.1602"/>
<polygon fill="none" stroke="#404040" points="252.991,-68.9114 247.011,-64.8824 248.43,-57.8123 254.41,-61.8413 252.991,-68.9114"/>
<text text-anchor="middle" x="304.5" y="-128.5" font-family="Helvetica,sans-Serif" font-size="10.00"> +cursor</text>
<text text-anchor="middle" x="304.5" y="-117.5" font-family="Helvetica,sans-Serif" font-size="10.00">+select_start</text>
<text text-anchor="middle" x="304.5" y="-106.5" font-family="Helvetica,sans-Serif" font-size="10.00">+select_end</text>
</g>
<!-- Node9 -->
<g id="node9" class="node"><title>Node9</title>
<polygon fill="none" stroke="#bfbfbf" points="330.5,-182.5 330.5,-239.5 386.5,-239.5 386.5,-182.5 330.5,-182.5"/>
<text text-anchor="middle" x="358.5" y="-227.5" font-family="Helvetica,sans-Serif" font-size="10.00">unsigned</text>
<polyline fill="none" stroke="#bfbfbf" points="330.5,-220.5 386.5,-220.5 "/>
<text text-anchor="middle" x="358.5" y="-208.5" font-family="Helvetica,sans-Serif" font-size="10.00"> </text>
<polyline fill="none" stroke="#bfbfbf" points="330.5,-201.5 386.5,-201.5 "/>
<text text-anchor="middle" x="358.5" y="-189.5" font-family="Helvetica,sans-Serif" font-size="10.00"> </text>
</g>
<!-- Node9&#45;&gt;Node1 -->
<g id="edge9" class="edge"><title>Node9&#45;&gt;Node1</title>
<path fill="none" stroke="#404040" d="M361.143,-182.401C362.455,-153.033 360.05,-106.664 336.5,-76 331.452,-69.427 325.253,-63.7672 318.428,-58.8988"/>
<polygon fill="none" stroke="#404040" points="318.178,-58.7403 310.969,-58.9082 308.041,-52.3182 315.25,-52.1503 318.178,-58.7403"/>
<text text-anchor="middle" x="414" y="-156" font-family="Helvetica,sans-Serif" font-size="10.00"> +cursor_at_end_of_line</text>
<text text-anchor="middle" x="414" y="-145" font-family="Helvetica,sans-Serif" font-size="10.00">+has_preferred_x</text>
<text text-anchor="middle" x="414" y="-134" font-family="Helvetica,sans-Serif" font-size="10.00">+padding1</text>
<text text-anchor="middle" x="414" y="-123" font-family="Helvetica,sans-Serif" font-size="10.00">+initialized</text>
<text text-anchor="middle" x="414" y="-112" font-family="Helvetica,sans-Serif" font-size="10.00">+padding2</text>
<text text-anchor="middle" x="414" y="-101" font-family="Helvetica,sans-Serif" font-size="10.00">+padding3</text>
<text text-anchor="middle" x="414" y="-90" font-family="Helvetica,sans-Serif" font-size="10.00">+insert_mode</text>
<text text-anchor="middle" x="414" y="-79" font-family="Helvetica,sans-Serif" font-size="10.00">+single_line</text>
</g>
</g>
</svg>
