<?xml version="1.0" encoding="UTF-8" standalone="no"?>
<!DOCTYPE svg PUBLIC "-//W3C//DTD SVG 1.1//EN"
 "http://www.w3.org/Graphics/SVG/1.1/DTD/svg11.dtd">
<!-- Generated by graphviz version 2.38.0 (20140413.2041)
 -->
<!-- Title: /home/travis/build/AliceO2Group/AliceO2/Common/Utils/test/testHBFUtils.cxx Pages: 1 -->
<!--zoomable 229 -->
<svg id="main" version="1.1" xmlns="http://www.w3.org/2000/svg" xmlns:xlink="http://www.w3.org/1999/xlink" xml:space="preserve" onload="init(evt)">
<style type="text/css"><![CDATA[
.edge:hover path { stroke: red; }
.edge:hover polygon { stroke: red; fill: red; }
]]></style>
<script type="text/javascript"><![CDATA[
var edges = document.getElementsByTagName('g');
if (edges && edges.length) {
  for (var i=0;i<edges.length;i++) {
    if (edges[i].id.substr(0,4)=='edge') {
      edges[i].setAttribute('class','edge');
    }
  }
}
]]></script>
        <defs>
                <circle id="rim" cx="0" cy="0" r="7"/>
                <circle id="rim2" cx="0" cy="0" r="3.5"/>
                <g id="zoomPlus">
                        <use xlink:href="#rim" fill="#404040">
                                <set attributeName="fill" to="#808080" begin="zoomplus.mouseover" end="zoomplus.mouseout"/>
                        </use>
                        <path d="M-4,0h8M0,-4v8" fill="none" stroke="white" stroke-width="1.5" pointer-events="none"/>
                </g>
                <g id="zoomMin">
                        <use xlink:href="#rim" fill="#404040">
                                <set attributeName="fill" to="#808080" begin="zoomminus.mouseover" end="zoomminus.mouseout"/>
                        </use>
                        <path d="M-4,0h8" fill="none" stroke="white" stroke-width="1.5" pointer-events="none"/>
                </g>
                <g id="dirArrow">
                        <path fill="none" stroke="white" stroke-width="1.5" d="M0,-3.0v7 M-2.5,-0.5L0,-3.0L2.5,-0.5"/>
                </g>
               <g id="resetDef">
                       <use xlink:href="#rim2" fill="#404040">
                               <set attributeName="fill" to="#808080" begin="reset.mouseover" end="reset.mouseout"/>
                       </use>
               </g>
        </defs>

<script type="text/javascript">
var viewWidth = 1130;
var viewHeight = 229;
var sectionId = 'dynsection-0';
</script>
<script xlink:href="../../svgpan.js"/>
<svg id="graph" class="graph">
<g id="viewport">
<title>/home/travis/build/AliceO2Group/AliceO2/Common/Utils/test/testHBFUtils.cxx</title>
<!-- Node1 -->
<g id="node1" class="node"><title>Node1</title>
<polygon fill="#bfbfbf" stroke="black" points="316.5,-179.5 316.5,-220.5 497.5,-220.5 497.5,-179.5 316.5,-179.5"/>
<text text-anchor="start" x="324.5" y="-208.5" font-family="Helvetica,sans-Serif" font-size="10.00">/home/travis/build</text>
<text text-anchor="start" x="324.5" y="-197.5" font-family="Helvetica,sans-Serif" font-size="10.00">/AliceO2Group/AliceO2</text>
<text text-anchor="middle" x="407" y="-186.5" font-family="Helvetica,sans-Serif" font-size="10.00">/Common/Utils/test/testHBFUtils.cxx</text>
</g>
<!-- Node2 -->
<g id="node2" class="node"><title>Node2</title>
<polygon fill="none" stroke="#bfbfbf" points="0,-123.5 0,-142.5 56,-142.5 56,-123.5 0,-123.5"/>
<text text-anchor="middle" x="28" y="-130.5" font-family="Helvetica,sans-Serif" font-size="10.00">algorithm</text>
</g>
<!-- Node1&#45;&gt;Node2 -->
<g id="edge1" class="edge"><title>Node1&#45;&gt;Node2</title>
<path fill="none" stroke="midnightblue" d="M316.329,-185.103C248.375,-174.404 153.174,-158.813 70,-143 68.7637,-142.765 67.508,-142.522 66.2406,-142.273"/>
<polygon fill="midnightblue" stroke="midnightblue" points="66.927,-138.841 56.4303,-140.279 65.5329,-145.7 66.927,-138.841"/>
</g>
<!-- Node3 -->
<g id="node3" class="node"><title>Node3</title>
<polygon fill="none" stroke="#bfbfbf" points="134.5,-0.5 134.5,-19.5 175.5,-19.5 175.5,-0.5 134.5,-0.5"/>
<text text-anchor="middle" x="155" y="-7.5" font-family="Helvetica,sans-Serif" font-size="10.00">bitset</text>
</g>
<!-- Node1&#45;&gt;Node3 -->
<g id="edge2" class="edge"><title>Node1&#45;&gt;Node3</title>
<path fill="none" stroke="midnightblue" d="M316.474,-194.822C243.347,-185.901 145.805,-160.03 103,-87 96.033,-75.1135 97.2725,-68.5309 103,-56 108.777,-43.3602 120.052,-32.911 130.631,-25.2737"/>
<polygon fill="midnightblue" stroke="midnightblue" points="132.849,-28.0009 139.217,-19.5333 128.958,-22.1817 132.849,-28.0009"/>
</g>
<!-- Node4 -->
<g id="node4" class="node"><title>Node4</title>
<polygon fill="none" stroke="#bfbfbf" points="212.5,-123.5 212.5,-142.5 331.5,-142.5 331.5,-123.5 212.5,-123.5"/>
<text text-anchor="middle" x="272" y="-130.5" font-family="Helvetica,sans-Serif" font-size="10.00">boost/test/unit_test.hpp</text>
</g>
<!-- Node1&#45;&gt;Node4 -->
<g id="edge3" class="edge"><title>Node1&#45;&gt;Node4</title>
<path fill="none" stroke="midnightblue" d="M366.496,-179.498C344.703,-169.005 318.416,-156.348 299.105,-147.051"/>
<polygon fill="midnightblue" stroke="midnightblue" points="300.499,-143.837 289.971,-142.652 297.462,-150.144 300.499,-143.837"/>
</g>
<!-- Node5 -->
<g id="node5" class="node"><title>Node5</title>
<g id="a_node5"><a xlink:href="../../df/dff/InteractionSampler_8h.html" target="_top" xlink:title="Steer/InteractionSampler.h">
<polygon fill="none" stroke="black" points="388.5,-123.5 388.5,-142.5 521.5,-142.5 521.5,-123.5 388.5,-123.5"/>
<text text-anchor="middle" x="455" y="-130.5" font-family="Helvetica,sans-Serif" font-size="10.00">Steer/InteractionSampler.h</text>
</a>
</g>
</g>
<!-- Node1&#45;&gt;Node5 -->
<g id="edge4" class="edge"><title>Node1&#45;&gt;Node5</title>
<path fill="none" stroke="midnightblue" d="M421.402,-179.498C428.124,-170.395 436.049,-159.662 442.514,-150.908"/>
<polygon fill="midnightblue" stroke="midnightblue" points="445.486,-152.776 448.61,-142.652 439.854,-148.618 445.486,-152.776"/>
</g>
<!-- Node8 -->
<g id="node8" class="node"><title>Node8</title>
<polygon fill="none" stroke="#bfbfbf" points="112,-62 112,-81 180,-81 180,-62 112,-62"/>
<text text-anchor="middle" x="146" y="-69" font-family="Helvetica,sans-Serif" font-size="10.00">TRandom.h</text>
</g>
<!-- Node1&#45;&gt;Node8 -->
<g id="edge29" class="edge"><title>Node1&#45;&gt;Node8</title>
<path fill="none" stroke="midnightblue" d="M394.855,-179.403C383.001,-161.943 363.368,-137.044 340,-123 280.866,-87.4609 255.312,-106.042 189,-87 185.992,-86.1363 182.883,-85.1916 179.776,-84.2118"/>
<polygon fill="midnightblue" stroke="midnightblue" points="180.578,-80.792 169.985,-81.0188 178.407,-87.447 180.578,-80.792"/>
</g>
<!-- Node17 -->
<g id="node17" class="node"><title>Node17</title>
<g id="a_node17"><a xlink:href="../../d1/dec/HBFUtils_8h.html" target="_top" xlink:title="CommonUtils/HBFUtils.h">
<polygon fill="none" stroke="black" points="649,-123.5 649,-142.5 777,-142.5 777,-123.5 649,-123.5"/>
<text text-anchor="middle" x="713" y="-130.5" font-family="Helvetica,sans-Serif" font-size="10.00">CommonUtils/HBFUtils.h</text>
</a>
</g>
</g>
<!-- Node1&#45;&gt;Node17 -->
<g id="edge20" class="edge"><title>Node1&#45;&gt;Node17</title>
<path fill="none" stroke="midnightblue" d="M497.568,-179.762C551.523,-168.301 617.98,-154.184 662.696,-144.685"/>
<polygon fill="midnightblue" stroke="midnightblue" points="663.68,-148.055 672.734,-142.553 662.225,-141.208 663.68,-148.055"/>
</g>
<!-- Node18 -->
<g id="node18" class="node"><title>Node18</title>
<g id="a_node18"><a xlink:href="../../d4/d78/DataFormats_2Headers_2include_2Headers_2RAWDataHeader_8h.html" target="_top" xlink:title="Headers/RAWDataHeader.h">
<polygon fill="none" stroke="black" points="980.5,-62 980.5,-81 1121.5,-81 1121.5,-62 980.5,-62"/>
<text text-anchor="middle" x="1051" y="-69" font-family="Helvetica,sans-Serif" font-size="10.00">Headers/RAWDataHeader.h</text>
</a>
</g>
</g>
<!-- Node1&#45;&gt;Node18 -->
<g id="edge28" class="edge"><title>Node1&#45;&gt;Node18</title>
<path fill="none" stroke="midnightblue" d="M497.706,-193.942C575.686,-187.638 690.361,-173.665 786,-143 804.549,-137.052 806.68,-129.622 825,-123 856.031,-111.784 940.183,-94.1891 996.576,-83.007"/>
<polygon fill="midnightblue" stroke="midnightblue" points="997.284,-86.435 1006.42,-81.0649 995.928,-79.5675 997.284,-86.435"/>
</g>
<!-- Node20 -->
<g id="node20" class="node"><title>Node20</title>
<polygon fill="none" stroke="#bfbfbf" points="833.5,-123.5 833.5,-142.5 904.5,-142.5 904.5,-123.5 833.5,-123.5"/>
<text text-anchor="middle" x="869" y="-130.5" font-family="Helvetica,sans-Serif" font-size="10.00">FairLogger.h</text>
</g>
<!-- Node1&#45;&gt;Node20 -->
<g id="edge30" class="edge"><title>Node1&#45;&gt;Node20</title>
<path fill="none" stroke="midnightblue" d="M497.584,-187.825C581.17,-177.243 708.66,-160.421 819,-143 820.443,-142.772 821.908,-142.536 823.388,-142.294"/>
<polygon fill="midnightblue" stroke="midnightblue" points="823.975,-145.744 833.252,-140.627 822.809,-138.842 823.975,-145.744"/>
</g>
<!-- Node6 -->
<g id="node6" class="node"><title>Node6</title>
<polygon fill="none" stroke="#bfbfbf" points="739,-0.5 739,-19.5 795,-19.5 795,-0.5 739,-0.5"/>
<text text-anchor="middle" x="767" y="-7.5" font-family="Helvetica,sans-Serif" font-size="10.00">Rtypes.h</text>
</g>
<!-- Node5&#45;&gt;Node6 -->
<g id="edge5" class="edge"><title>Node5&#45;&gt;Node6</title>
<path fill="none" stroke="midnightblue" d="M521.795,-127.951C592.094,-122.501 696.933,-110.626 729,-87 747.884,-73.0874 757.969,-47.1393 762.901,-29.4729"/>
<polygon fill="midnightblue" stroke="midnightblue" points="766.308,-30.2753 765.338,-19.725 759.517,-28.5774 766.308,-30.2753"/>
</g>
<!-- Node7 -->
<g id="node7" class="node"><title>Node7</title>
<polygon fill="none" stroke="#bfbfbf" points="428.5,-62 428.5,-81 481.5,-81 481.5,-62 428.5,-62"/>
<text text-anchor="middle" x="455" y="-69" font-family="Helvetica,sans-Serif" font-size="10.00">TMath.h</text>
</g>
<!-- Node5&#45;&gt;Node7 -->
<g id="edge6" class="edge"><title>Node5&#45;&gt;Node7</title>
<path fill="none" stroke="midnightblue" d="M455,-123.475C455,-115.08 455,-101.981 455,-91.1631"/>
<polygon fill="midnightblue" stroke="midnightblue" points="458.5,-91.0091 455,-81.0091 451.5,-91.0091 458.5,-91.0091"/>
</g>
<!-- Node5&#45;&gt;Node8 -->
<g id="edge7" class="edge"><title>Node5&#45;&gt;Node8</title>
<path fill="none" stroke="midnightblue" d="M388.262,-123.683C334.096,-116.223 255.997,-103.851 189,-87 185.612,-86.1478 182.108,-85.1558 178.629,-84.098"/>
<polygon fill="midnightblue" stroke="midnightblue" points="179.601,-80.7343 169.01,-81.0039 177.458,-87.398 179.601,-80.7343"/>
</g>
<!-- Node9 -->
<g id="node9" class="node"><title>Node9</title>
<polygon fill="none" stroke="#bfbfbf" points="500,-62 500,-81 544,-81 544,-62 500,-62"/>
<text text-anchor="middle" x="522" y="-69" font-family="Helvetica,sans-Serif" font-size="10.00">vector</text>
</g>
<!-- Node5&#45;&gt;Node9 -->
<g id="edge8" class="edge"><title>Node5&#45;&gt;Node9</title>
<path fill="none" stroke="midnightblue" d="M464.599,-123.475C475.048,-114.197 491.968,-99.1706 504.736,-87.831"/>
<polygon fill="midnightblue" stroke="midnightblue" points="507.265,-90.2663 512.418,-81.0091 502.617,-85.0323 507.265,-90.2663"/>
</g>
<!-- Node10 -->
<g id="node10" class="node"><title>Node10</title>
<g id="a_node10"><a xlink:href="../../d9/d80/InteractionRecord_8h.html" target="_top" xlink:title="CommonDataFormat/Interaction\lRecord.h">
<polygon fill="none" stroke="black" points="562.5,-56.5 562.5,-86.5 719.5,-86.5 719.5,-56.5 562.5,-56.5"/>
<text text-anchor="start" x="570.5" y="-74.5" font-family="Helvetica,sans-Serif" font-size="10.00">CommonDataFormat/Interaction</text>
<text text-anchor="middle" x="641" y="-63.5" font-family="Helvetica,sans-Serif" font-size="10.00">Record.h</text>
</a>
</g>
</g>
<!-- Node5&#45;&gt;Node10 -->
<g id="edge9" class="edge"><title>Node5&#45;&gt;Node10</title>
<path fill="none" stroke="midnightblue" d="M481.649,-123.475C509.195,-114.664 552.944,-100.668 587.639,-89.5698"/>
<polygon fill="midnightblue" stroke="midnightblue" points="588.705,-92.9035 597.163,-86.523 586.573,-86.2363 588.705,-92.9035"/>
</g>
<!-- Node14 -->
<g id="node14" class="node"><title>Node14</title>
<g id="a_node14"><a xlink:href="../../d4/dc6/LHCConstants_8h.html" target="_top" xlink:title="Header to collect LHC related constants. ">
<polygon fill="none" stroke="black" points="317,-0.5 317,-19.5 495,-19.5 495,-0.5 317,-0.5"/>
<text text-anchor="middle" x="406" y="-7.5" font-family="Helvetica,sans-Serif" font-size="10.00">CommonConstants/LHCConstants.h</text>
</a>
</g>
</g>
<!-- Node5&#45;&gt;Node14 -->
<g id="edge19" class="edge"><title>Node5&#45;&gt;Node14</title>
<path fill="none" stroke="midnightblue" d="M445.739,-123.283C437.363,-114.834 425.394,-101.238 419,-87 410.792,-68.7231 407.738,-45.8391 406.617,-29.9826"/>
<polygon fill="midnightblue" stroke="midnightblue" points="410.105,-29.6522 406.097,-19.8449 403.114,-30.0114 410.105,-29.6522"/>
</g>
<!-- Node15 -->
<g id="node15" class="node"><title>Node15</title>
<g id="a_node15"><a xlink:href="../../d4/d5f/BunchFilling_8h.html" target="_top" xlink:title="CommonDataFormat/BunchFilling.h">
<polygon fill="none" stroke="black" points="198.5,-62 198.5,-81 371.5,-81 371.5,-62 198.5,-62"/>
<text text-anchor="middle" x="285" y="-69" font-family="Helvetica,sans-Serif" font-size="10.00">CommonDataFormat/BunchFilling.h</text>
</a>
</g>
</g>
<!-- Node5&#45;&gt;Node15 -->
<g id="edge15" class="edge"><title>Node5&#45;&gt;Node15</title>
<path fill="none" stroke="midnightblue" d="M430.643,-123.475C401.356,-113.225 352.026,-95.9593 318.998,-84.3994"/>
<polygon fill="midnightblue" stroke="midnightblue" points="319.907,-81.0091 309.312,-81.0091 317.594,-87.6162 319.907,-81.0091"/>
</g>
<!-- Node10&#45;&gt;Node6 -->
<g id="edge10" class="edge"><title>Node10&#45;&gt;Node6</title>
<path fill="none" stroke="midnightblue" d="M670.86,-56.3993C691.623,-46.5945 719.1,-33.6194 739.361,-24.052"/>
<polygon fill="midnightblue" stroke="midnightblue" points="741.118,-27.0928 748.666,-19.6578 738.129,-20.763 741.118,-27.0928"/>
</g>
<!-- Node11 -->
<g id="node11" class="node"><title>Node11</title>
<polygon fill="none" stroke="#bfbfbf" points="646.5,-0.5 646.5,-19.5 691.5,-19.5 691.5,-0.5 646.5,-0.5"/>
<text text-anchor="middle" x="669" y="-7.5" font-family="Helvetica,sans-Serif" font-size="10.00">iosfwd</text>
</g>
<!-- Node10&#45;&gt;Node11 -->
<g id="edge11" class="edge"><title>Node10&#45;&gt;Node11</title>
<path fill="none" stroke="midnightblue" d="M647.636,-56.3993C651.537,-48.1098 656.504,-37.5542 660.667,-28.7077"/>
<polygon fill="midnightblue" stroke="midnightblue" points="663.835,-30.1963 664.926,-19.6578 657.501,-27.2157 663.835,-30.1963"/>
</g>
<!-- Node12 -->
<g id="node12" class="node"><title>Node12</title>
<polygon fill="none" stroke="#bfbfbf" points="584,-0.5 584,-19.5 628,-19.5 628,-0.5 584,-0.5"/>
<text text-anchor="middle" x="606" y="-7.5" font-family="Helvetica,sans-Serif" font-size="10.00">cmath</text>
</g>
<!-- Node10&#45;&gt;Node12 -->
<g id="edge12" class="edge"><title>Node10&#45;&gt;Node12</title>
<path fill="none" stroke="midnightblue" d="M632.705,-56.3993C627.777,-48.0207 621.486,-37.3269 616.249,-28.4229"/>
<polygon fill="midnightblue" stroke="midnightblue" points="619.18,-26.5025 611.093,-19.6578 613.146,-30.0517 619.18,-26.5025"/>
</g>
<!-- Node13 -->
<g id="node13" class="node"><title>Node13</title>
<polygon fill="none" stroke="#bfbfbf" points="865,-0.5 865,-19.5 911,-19.5 911,-0.5 865,-0.5"/>
<text text-anchor="middle" x="888" y="-7.5" font-family="Helvetica,sans-Serif" font-size="10.00">cstdint</text>
</g>
<!-- Node10&#45;&gt;Node13 -->
<g id="edge13" class="edge"><title>Node10&#45;&gt;Node13</title>
<path fill="none" stroke="midnightblue" d="M699.223,-56.4747C747.796,-44.7738 815.275,-28.5188 855.017,-18.9452"/>
<polygon fill="midnightblue" stroke="midnightblue" points="856.072,-22.2914 864.974,-16.5468 854.432,-15.4861 856.072,-22.2914"/>
</g>
<!-- Node10&#45;&gt;Node14 -->
<g id="edge14" class="edge"><title>Node10&#45;&gt;Node14</title>
<path fill="none" stroke="midnightblue" d="M585.606,-56.4747C544.001,-45.9408 487.819,-31.7158 449.437,-21.9978"/>
<polygon fill="midnightblue" stroke="midnightblue" points="450.15,-18.568 439.597,-19.5064 448.432,-25.3538 450.15,-18.568"/>
</g>
<!-- Node15&#45;&gt;Node3 -->
<g id="edge17" class="edge"><title>Node15&#45;&gt;Node3</title>
<path fill="none" stroke="midnightblue" d="M266.374,-61.9751C244.557,-51.9897 208.196,-35.3476 182.983,-23.8075"/>
<polygon fill="midnightblue" stroke="midnightblue" points="184.141,-20.4884 173.591,-19.5091 181.228,-26.8534 184.141,-20.4884"/>
</g>
<!-- Node15&#45;&gt;Node14 -->
<g id="edge16" class="edge"><title>Node15&#45;&gt;Node14</title>
<path fill="none" stroke="midnightblue" d="M302.336,-61.9751C322.553,-52.0338 356.187,-35.4947 379.642,-23.961"/>
<polygon fill="midnightblue" stroke="midnightblue" points="381.267,-27.0627 388.696,-19.5091 378.178,-20.781 381.267,-27.0627"/>
</g>
<!-- Node16 -->
<g id="node16" class="node"><title>Node16</title>
<polygon fill="none" stroke="#bfbfbf" points="258.5,-0.5 258.5,-19.5 299.5,-19.5 299.5,-0.5 258.5,-0.5"/>
<text text-anchor="middle" x="279" y="-7.5" font-family="Helvetica,sans-Serif" font-size="10.00">string</text>
</g>
<!-- Node15&#45;&gt;Node16 -->
<g id="edge18" class="edge"><title>Node15&#45;&gt;Node16</title>
<path fill="none" stroke="midnightblue" d="M284.14,-61.9751C283.294,-53.5803 281.973,-40.4806 280.882,-29.6631"/>
<polygon fill="midnightblue" stroke="midnightblue" points="284.344,-29.1074 279.858,-19.5091 277.379,-29.8098 284.344,-29.1074"/>
</g>
<!-- Node17&#45;&gt;Node6 -->
<g id="edge21" class="edge"><title>Node17&#45;&gt;Node6</title>
<path fill="none" stroke="midnightblue" d="M727.395,-123.28C738.978,-115.388 754.514,-102.624 762,-87 770.552,-69.1518 770.813,-46.1952 769.555,-30.2045"/>
<polygon fill="midnightblue" stroke="midnightblue" points="773.004,-29.5387 768.467,-19.9644 766.043,-30.2783 773.004,-29.5387"/>
</g>
<!-- Node17&#45;&gt;Node10 -->
<g id="edge22" class="edge"><title>Node17&#45;&gt;Node10</title>
<path fill="none" stroke="midnightblue" d="M702.684,-123.475C693.115,-115.567 678.494,-103.485 665.888,-93.0675"/>
<polygon fill="midnightblue" stroke="midnightblue" points="667.907,-90.1952 657.969,-86.523 663.448,-95.5912 667.907,-90.1952"/>
</g>
<!-- Node17&#45;&gt;Node18 -->
<g id="edge23" class="edge"><title>Node17&#45;&gt;Node18</title>
<path fill="none" stroke="midnightblue" d="M762.477,-123.47C814.426,-114.491 898.48,-99.8964 971,-87 978.44,-85.6769 986.268,-84.2729 993.995,-82.8799"/>
<polygon fill="midnightblue" stroke="midnightblue" points="994.835,-86.2848 1004.05,-81.0626 993.591,-79.3963 994.835,-86.2848"/>
</g>
<!-- Node19 -->
<g id="node19" class="node"><title>Node19</title>
<g id="a_node19"><a xlink:href="../../de/da4/Triggers_8h.html" target="_top" xlink:title="Definition of the Alpide triggers defined in https://twiki.cern.ch/twiki/pub/ALICE/NoteForFEDeveloper...">
<polygon fill="none" stroke="black" points="814,-62 814,-81 962,-81 962,-62 814,-62"/>
<text text-anchor="middle" x="888" y="-69" font-family="Helvetica,sans-Serif" font-size="10.00">CommonConstants/Triggers.h</text>
</a>
</g>
</g>
<!-- Node17&#45;&gt;Node19 -->
<g id="edge25" class="edge"><title>Node17&#45;&gt;Node19</title>
<path fill="none" stroke="midnightblue" d="M738.073,-123.475C768.352,-113.18 819.44,-95.8103 853.441,-84.2502"/>
<polygon fill="midnightblue" stroke="midnightblue" points="854.632,-87.5419 862.973,-81.0091 852.379,-80.9145 854.632,-87.5419"/>
</g>
<!-- Node18&#45;&gt;Node13 -->
<g id="edge24" class="edge"><title>Node18&#45;&gt;Node13</title>
<path fill="none" stroke="midnightblue" d="M1027.65,-61.9751C999.606,-51.7397 952.407,-34.5104 920.739,-22.9508"/>
<polygon fill="midnightblue" stroke="midnightblue" points="921.641,-19.5542 911.047,-19.413 919.241,-26.1298 921.641,-19.5542"/>
</g>
<!-- Node19&#45;&gt;Node6 -->
<g id="edge27" class="edge"><title>Node19&#45;&gt;Node6</title>
<path fill="none" stroke="midnightblue" d="M870.664,-61.9751C850.447,-52.0338 816.813,-35.4947 793.358,-23.961"/>
<polygon fill="midnightblue" stroke="midnightblue" points="794.822,-20.781 784.304,-19.5091 791.733,-27.0627 794.822,-20.781"/>
</g>
<!-- Node19&#45;&gt;Node13 -->
<g id="edge26" class="edge"><title>Node19&#45;&gt;Node13</title>
<path fill="none" stroke="midnightblue" d="M888,-61.9751C888,-53.5803 888,-40.4806 888,-29.6631"/>
<polygon fill="midnightblue" stroke="midnightblue" points="891.5,-29.5091 888,-19.5091 884.5,-29.5091 891.5,-29.5091"/>
</g>
</g>
</svg>
        <g id="navigator" transform="translate(0 0)" fill="#404254">
                <rect fill="#f2f5e9" fill-opacity="0.5" stroke="#606060" stroke-width=".5" x="0" y="0" width="60" height="60"/>
                <use id="zoomplus" xlink:href="#zoomPlus" x="17" y="9" onmousedown="handleZoom(evt,'in')"/>
                <use id="zoomminus" xlink:href="#zoomMin" x="42" y="9" onmousedown="handleZoom(evt,'out')"/>
                <use id="reset" xlink:href="#resetDef" x="30" y="36" onmousedown="handleReset()"/>
                <g id="arrowUp" xlink:href="#dirArrow" transform="translate(30 24)" onmousedown="handlePan(0,-1)">
                  <use xlink:href="#rim" fill="#404040">
                        <set attributeName="fill" to="#808080" begin="arrowUp.mouseover" end="arrowUp.mouseout"/>
                  </use>
                  <path fill="none" stroke="white" stroke-width="1.5" d="M0,-3.0v7 M-2.5,-0.5L0,-3.0L2.5,-0.5"/>
                </g>
                <g id="arrowRight" xlink:href="#dirArrow" transform="rotate(90) translate(36 -43)" onmousedown="handlePan(1,0)">
                  <use xlink:href="#rim" fill="#404040">
                        <set attributeName="fill" to="#808080" begin="arrowRight.mouseover" end="arrowRight.mouseout"/>
                  </use>
                  <path fill="none" stroke="white" stroke-width="1.5" d="M0,-3.0v7 M-2.5,-0.5L0,-3.0L2.5,-0.5"/>
                </g>
                <g id="arrowDown" xlink:href="#dirArrow" transform="rotate(180) translate(-30 -48)" onmousedown="handlePan(0,1)">
                  <use xlink:href="#rim" fill="#404040">
                        <set attributeName="fill" to="#808080" begin="arrowDown.mouseover" end="arrowDown.mouseout"/>
                  </use>
                  <path fill="none" stroke="white" stroke-width="1.5" d="M0,-3.0v7 M-2.5,-0.5L0,-3.0L2.5,-0.5"/>
                </g>
                <g id="arrowLeft" xlink:href="#dirArrow" transform="rotate(270) translate(-36 17)" onmousedown="handlePan(-1,0)">
                  <use xlink:href="#rim" fill="#404040">
                        <set attributeName="fill" to="#808080" begin="arrowLeft.mouseover" end="arrowLeft.mouseout"/>
                  </use>
                  <path fill="none" stroke="white" stroke-width="1.5" d="M0,-3.0v7 M-2.5,-0.5L0,-3.0L2.5,-0.5"/>
                </g>
        </g>
        <svg viewBox="0 0 15 15" width="100%" height="30px" preserveAspectRatio="xMaxYMin meet">
         <g id="arrow_out" transform="scale(0.3 0.3)">
          <a xlink:href="testHBFUtils_8cxx__incl_org.svg" target="_base">
           <rect id="button" ry="5" rx="5" y="6" x="6" height="38" width="38"
                fill="#f2f5e9" fill-opacity="0.5" stroke="#606060" stroke-width="1.0"/>
           <path id="arrow"
             d="M 11.500037,31.436501 C 11.940474,20.09759 22.043105,11.32322 32.158766,21.979434 L 37.068811,17.246167 C 37.068811,17.246167 37.088388,32 37.088388,32 L 22.160133,31.978069 C 22.160133,31.978069 26.997745,27.140456 26.997745,27.140456 C 18.528582,18.264221 13.291696,25.230495 11.500037,31.436501 z"
             style="fill:#404040;"/>
          </a>
         </g>
        </svg>
</svg>
