<?xml version="1.0" encoding="UTF-8" standalone="no"?>
<!DOCTYPE svg PUBLIC "-//W3C//DTD SVG 1.1//EN"
 "http://www.w3.org/Graphics/SVG/1.1/DTD/svg11.dtd">
<!-- Generated by graphviz version 2.38.0 (20140413.2041)
 -->
<!-- Title: /home/travis/build/AliceO2Group/AliceO2/Detectors/Base/src/MatLayerCyl.cxx Pages: 1 -->
<!--zoomable 430 -->
<svg id="main" version="1.1" xmlns="http://www.w3.org/2000/svg" xmlns:xlink="http://www.w3.org/1999/xlink" xml:space="preserve" onload="init(evt)">
<style type="text/css"><![CDATA[
.edge:hover path { stroke: red; }
.edge:hover polygon { stroke: red; fill: red; }
]]></style>
<script type="text/javascript"><![CDATA[
var edges = document.getElementsByTagName('g');
if (edges && edges.length) {
  for (var i=0;i<edges.length;i++) {
    if (edges[i].id.substr(0,4)=='edge') {
      edges[i].setAttribute('class','edge');
    }
  }
}
]]></script>
        <defs>
                <circle id="rim" cx="0" cy="0" r="7"/>
                <circle id="rim2" cx="0" cy="0" r="3.5"/>
                <g id="zoomPlus">
                        <use xlink:href="#rim" fill="#404040">
                                <set attributeName="fill" to="#808080" begin="zoomplus.mouseover" end="zoomplus.mouseout"/>
                        </use>
                        <path d="M-4,0h8M0,-4v8" fill="none" stroke="white" stroke-width="1.5" pointer-events="none"/>
                </g>
                <g id="zoomMin">
                        <use xlink:href="#rim" fill="#404040">
                                <set attributeName="fill" to="#808080" begin="zoomminus.mouseover" end="zoomminus.mouseout"/>
                        </use>
                        <path d="M-4,0h8" fill="none" stroke="white" stroke-width="1.5" pointer-events="none"/>
                </g>
                <g id="dirArrow">
                        <path fill="none" stroke="white" stroke-width="1.5" d="M0,-3.0v7 M-2.5,-0.5L0,-3.0L2.5,-0.5"/>
                </g>
               <g id="resetDef">
                       <use xlink:href="#rim2" fill="#404040">
                               <set attributeName="fill" to="#808080" begin="reset.mouseover" end="reset.mouseout"/>
                       </use>
               </g>
        </defs>

<script type="text/javascript">
var viewWidth = 2298;
var viewHeight = 430;
var sectionId = 'dynsection-0';
</script>
<script xlink:href="../../svgpan.js"/>
<svg id="graph" class="graph">
<g id="viewport">
<title>/home/travis/build/AliceO2Group/AliceO2/Detectors/Base/src/MatLayerCyl.cxx</title>
<!-- Node1 -->
<g id="node1" class="node"><title>Node1</title>
<polygon fill="#bfbfbf" stroke="black" points="1088.98,-369.5 1088.98,-421.5 1236.98,-421.5 1236.98,-369.5 1088.98,-369.5"/>
<text text-anchor="start" x="1096.98" y="-409.5" font-family="Helvetica,sans-Serif" font-size="10.00">/home/travis/build</text>
<text text-anchor="start" x="1096.98" y="-398.5" font-family="Helvetica,sans-Serif" font-size="10.00">/AliceO2Group/AliceO2</text>
<text text-anchor="start" x="1096.98" y="-387.5" font-family="Helvetica,sans-Serif" font-size="10.00">/Detectors/Base/src/MatLayer</text>
<text text-anchor="middle" x="1162.98" y="-376.5" font-family="Helvetica,sans-Serif" font-size="10.00">Cyl.cxx</text>
</g>
<!-- Node2 -->
<g id="node2" class="node"><title>Node2</title>
<g id="a_node2"><a xlink:href="../../da/df3/MatLayerCyl_8h.html" target="_top" xlink:title="Declarations for single cylindrical material layer class. ">
<polygon fill="none" stroke="black" points="167.482,-313.5 167.482,-332.5 316.482,-332.5 316.482,-313.5 167.482,-313.5"/>
<text text-anchor="middle" x="241.982" y="-320.5" font-family="Helvetica,sans-Serif" font-size="10.00">DetectorsBase/MatLayerCyl.h</text>
</a>
</g>
</g>
<!-- Node1&#45;&gt;Node2 -->
<g id="edge1" class="edge"><title>Node1&#45;&gt;Node2</title>
<path fill="none" stroke="midnightblue" d="M1088.78,-388.82C919.551,-375.866 505.888,-344.201 326.863,-330.497"/>
<polygon fill="midnightblue" stroke="midnightblue" points="326.944,-326.993 316.706,-329.72 326.41,-333.973 326.944,-326.993"/>
</g>
<!-- Node17 -->
<g id="node17" class="node"><title>Node17</title>
<g id="a_node17"><a xlink:href="../../d9/d52/Common_2MathUtils_2include_2MathUtils_2Utils_8h.html" target="_top" xlink:title="MathUtils/Utils.h">
<polygon fill="none" stroke="black" points="542.982,-185 542.982,-204 632.982,-204 632.982,-185 542.982,-185"/>
<text text-anchor="middle" x="587.982" y="-192" font-family="Helvetica,sans-Serif" font-size="10.00">MathUtils/Utils.h</text>
</a>
</g>
</g>
<!-- Node1&#45;&gt;Node17 -->
<g id="edge23" class="edge"><title>Node1&#45;&gt;Node17</title>
<path fill="none" stroke="midnightblue" d="M1088.79,-388.567C953.564,-376.23 674.646,-343.273 606.982,-277 590.307,-260.668 587.078,-232.737 586.986,-214.197"/>
<polygon fill="midnightblue" stroke="midnightblue" points="590.489,-214.14 587.242,-204.055 583.491,-213.964 590.489,-214.14"/>
</g>
<!-- Node19 -->
<g id="node19" class="node"><title>Node19</title>
<g id="a_node19"><a xlink:href="../../d6/d84/MathConstants_8h.html" target="_top" xlink:title="useful math constants ">
<polygon fill="none" stroke="black" points="1394.48,-118 1394.48,-137 1573.48,-137 1573.48,-118 1394.48,-118"/>
<text text-anchor="middle" x="1483.98" y="-125" font-family="Helvetica,sans-Serif" font-size="10.00">CommonConstants/MathConstants.h</text>
</a>
</g>
</g>
<!-- Node1&#45;&gt;Node19 -->
<g id="edge29" class="edge"><title>Node1&#45;&gt;Node19</title>
<path fill="none" stroke="midnightblue" d="M1237,-389.682C1423.43,-375.852 1904.27,-329.109 1999.98,-210 2008.61,-199.26 2009.24,-189.206 1999.98,-179 1972.62,-148.824 1725.92,-136.073 1583.78,-131.192"/>
<polygon fill="midnightblue" stroke="midnightblue" points="1583.84,-127.693 1573.73,-130.855 1583.61,-134.689 1583.84,-127.693"/>
</g>
<!-- Node20 -->
<g id="node20" class="node"><title>Node20</title>
<g id="a_node20"><a xlink:href="../../db/dcc/Detectors_2Base_2include_2DetectorsBase_2GeometryManager_8h.html" target="_top" xlink:title="DetectorsBase/GeometryManager.h">
<polygon fill="none" stroke="black" points="1076.48,-313.5 1076.48,-332.5 1249.48,-332.5 1249.48,-313.5 1076.48,-313.5"/>
<text text-anchor="middle" x="1162.98" y="-320.5" font-family="Helvetica,sans-Serif" font-size="10.00">DetectorsBase/GeometryManager.h</text>
</a>
</g>
</g>
<!-- Node1&#45;&gt;Node20 -->
<g id="edge30" class="edge"><title>Node1&#45;&gt;Node20</title>
<path fill="none" stroke="midnightblue" d="M1162.98,-369.446C1162.98,-360.73 1162.98,-351.104 1162.98,-342.964"/>
<polygon fill="midnightblue" stroke="midnightblue" points="1166.48,-342.695 1162.98,-332.695 1159.48,-342.696 1166.48,-342.695"/>
</g>
<!-- Node44 -->
<g id="node44" class="node"><title>Node44</title>
<g id="a_node44"><a xlink:href="../../df/d5b/GPUCommonLogger_8h.html" target="_top" xlink:title="GPUCommonLogger.h">
<polygon fill="none" stroke="black" points="2047.98,-313.5 2047.98,-332.5 2163.98,-332.5 2163.98,-313.5 2047.98,-313.5"/>
<text text-anchor="middle" x="2105.98" y="-320.5" font-family="Helvetica,sans-Serif" font-size="10.00">GPUCommonLogger.h</text>
</a>
</g>
</g>
<!-- Node1&#45;&gt;Node44 -->
<g id="edge60" class="edge"><title>Node1&#45;&gt;Node44</title>
<path fill="none" stroke="midnightblue" d="M1237.08,-390.618C1387.51,-382.439 1739.4,-361.79 2033.98,-333 2035.25,-332.876 2036.53,-332.748 2037.82,-332.616"/>
<polygon fill="midnightblue" stroke="midnightblue" points="2038.28,-336.086 2047.85,-331.539 2037.54,-329.126 2038.28,-336.086"/>
</g>
<!-- Node3 -->
<g id="node3" class="node"><title>Node3</title>
<polygon fill="none" stroke="#bfbfbf" points="48.9821,-56.5 48.9821,-75.5 92.9821,-75.5 92.9821,-56.5 48.9821,-56.5"/>
<text text-anchor="middle" x="70.9821" y="-63.5" font-family="Helvetica,sans-Serif" font-size="10.00">cmath</text>
</g>
<!-- Node2&#45;&gt;Node3 -->
<g id="edge2" class="edge"><title>Node2&#45;&gt;Node3</title>
<path fill="none" stroke="midnightblue" d="M167.379,-320.391C126.185,-316.062 76.1884,-304.77 39.9821,-277 3.28377,-248.852 -7.18713,-223.62 4.98205,-179 15.121,-141.824 41.0926,-104.418 57.2685,-83.6252"/>
<polygon fill="midnightblue" stroke="midnightblue" points="60.2193,-85.5388 63.7231,-75.5401 54.7488,-81.1715 60.2193,-85.5388"/>
</g>
<!-- Node4 -->
<g id="node4" class="node"><title>Node4</title>
<polygon fill="none" stroke="#bfbfbf" points="22.9821,-185 22.9821,-204 68.9821,-204 68.9821,-185 22.9821,-185"/>
<text text-anchor="middle" x="45.9821" y="-192" font-family="Helvetica,sans-Serif" font-size="10.00">cstring</text>
</g>
<!-- Node2&#45;&gt;Node4 -->
<g id="edge3" class="edge"><title>Node2&#45;&gt;Node4</title>
<path fill="none" stroke="midnightblue" d="M226.963,-313.474C211.511,-304.618 186.825,-290.231 165.982,-277 130.349,-254.381 89.9426,-226.449 66.2835,-209.854"/>
<polygon fill="midnightblue" stroke="midnightblue" points="68.2735,-206.975 58.0808,-204.084 64.2459,-212.7 68.2735,-206.975"/>
</g>
<!-- Node5 -->
<g id="node5" class="node"><title>Node5</title>
<g id="a_node5"><a xlink:href="../../df/d21/GPUCommonDef_8h.html" target="_top" xlink:title="GPUCommonDef.h">
<polygon fill="none" stroke="black" points="221.982,-56.5 221.982,-75.5 323.982,-75.5 323.982,-56.5 221.982,-56.5"/>
<text text-anchor="middle" x="272.982" y="-63.5" font-family="Helvetica,sans-Serif" font-size="10.00">GPUCommonDef.h</text>
</a>
</g>
</g>
<!-- Node2&#45;&gt;Node5 -->
<g id="edge4" class="edge"><title>Node2&#45;&gt;Node5</title>
<path fill="none" stroke="midnightblue" d="M244.723,-313.471C247.498,-304.492 251.696,-289.898 253.982,-277 266.319,-207.396 270.855,-123.312 272.339,-86.1964"/>
<polygon fill="midnightblue" stroke="midnightblue" points="275.849,-85.9961 272.72,-75.8739 268.853,-85.7381 275.849,-85.9961"/>
</g>
<!-- Node8 -->
<g id="node8" class="node"><title>Node8</title>
<g id="a_node8"><a xlink:href="../../db/dff/FlatObject_8h.html" target="_top" xlink:title="Definition of FlatObject class. ">
<polygon fill="none" stroke="black" points="174.982,-252 174.982,-271 244.982,-271 244.982,-252 174.982,-252"/>
<text text-anchor="middle" x="209.982" y="-259" font-family="Helvetica,sans-Serif" font-size="10.00">FlatObject.h</text>
</a>
</g>
</g>
<!-- Node2&#45;&gt;Node8 -->
<g id="edge7" class="edge"><title>Node2&#45;&gt;Node8</title>
<path fill="none" stroke="midnightblue" d="M237.397,-313.475C232.74,-304.815 225.39,-291.149 219.472,-280.145"/>
<polygon fill="midnightblue" stroke="midnightblue" points="222.377,-278.158 214.558,-271.009 216.213,-281.474 222.377,-278.158"/>
</g>
<!-- Node12 -->
<g id="node12" class="node"><title>Node12</title>
<g id="a_node12"><a xlink:href="../../d2/d45/GPUCommonRtypes_8h.html" target="_top" xlink:title="GPUCommonRtypes.h">
<polygon fill="none" stroke="black" points="300.982,-185 300.982,-204 418.982,-204 418.982,-185 300.982,-185"/>
<text text-anchor="middle" x="359.982" y="-192" font-family="Helvetica,sans-Serif" font-size="10.00">GPUCommonRtypes.h</text>
</a>
</g>
</g>
<!-- Node2&#45;&gt;Node12 -->
<g id="edge15" class="edge"><title>Node2&#45;&gt;Node12</title>
<path fill="none" stroke="midnightblue" d="M251.094,-313.178C260.29,-304.207 274.83,-289.839 286.982,-277 307.886,-254.914 331.194,-228.578 345.724,-211.946"/>
<polygon fill="midnightblue" stroke="midnightblue" points="348.535,-214.047 352.463,-204.206 343.256,-209.45 348.535,-214.047"/>
</g>
<!-- Node14 -->
<g id="node14" class="node"><title>Node14</title>
<g id="a_node14"><a xlink:href="../../d6/da2/GPUCommonMath_8h.html" target="_top" xlink:title="GPUCommonMath.h">
<polygon fill="none" stroke="black" points="98.9821,-118 98.9821,-137 206.982,-137 206.982,-118 98.9821,-118"/>
<text text-anchor="middle" x="152.982" y="-125" font-family="Helvetica,sans-Serif" font-size="10.00">GPUCommonMath.h</text>
</a>
</g>
</g>
<!-- Node2&#45;&gt;Node14 -->
<g id="edge16" class="edge"><title>Node2&#45;&gt;Node14</title>
<path fill="none" stroke="midnightblue" d="M187.346,-313.499C131.472,-301.457 48.1699,-273.36 13.9821,-210 7.43952,-197.875 6.07615,-190.284 13.9821,-179 30.9743,-154.748 60.8695,-142.098 88.5921,-135.518"/>
<polygon fill="midnightblue" stroke="midnightblue" points="89.6338,-138.875 98.6795,-133.359 88.1684,-132.03 89.6338,-138.875"/>
</g>
<!-- Node16 -->
<g id="node16" class="node"><title>Node16</title>
<g id="a_node16"><a xlink:href="../../db/dba/MatCell_8h.html" target="_top" xlink:title="Declarations for material properties of the cell (voxel) ">
<polygon fill="none" stroke="black" points="361.482,-252 361.482,-271 488.482,-271 488.482,-252 361.482,-252"/>
<text text-anchor="middle" x="424.982" y="-259" font-family="Helvetica,sans-Serif" font-size="10.00">DetectorsBase/MatCell.h</text>
</a>
</g>
</g>
<!-- Node2&#45;&gt;Node16 -->
<g id="edge20" class="edge"><title>Node2&#45;&gt;Node16</title>
<path fill="none" stroke="midnightblue" d="M268.201,-313.475C300,-303.136 353.747,-285.661 389.3,-274.102"/>
<polygon fill="midnightblue" stroke="midnightblue" points="390.384,-277.43 398.811,-271.009 388.219,-270.773 390.384,-277.43"/>
</g>
<!-- Node6 -->
<g id="node6" class="node"><title>Node6</title>
<g id="a_node6"><a xlink:href="../../d5/d93/GPUCommonDefSettings_8h.html" target="_top" xlink:title="GPUCommonDefSettings.h">
<polygon fill="none" stroke="black" points="130.982,-0.5 130.982,-19.5 268.982,-19.5 268.982,-0.5 130.982,-0.5"/>
<text text-anchor="middle" x="199.982" y="-7.5" font-family="Helvetica,sans-Serif" font-size="10.00">GPUCommonDefSettings.h</text>
</a>
</g>
</g>
<!-- Node5&#45;&gt;Node6 -->
<g id="edge5" class="edge"><title>Node5&#45;&gt;Node6</title>
<path fill="none" stroke="midnightblue" d="M261.253,-56.324C250.145,-48.1066 233.24,-35.6017 219.999,-25.8069"/>
<polygon fill="midnightblue" stroke="midnightblue" points="222.045,-22.9671 211.924,-19.8339 217.882,-28.5948 222.045,-22.9671"/>
</g>
<!-- Node7 -->
<g id="node7" class="node"><title>Node7</title>
<g id="a_node7"><a xlink:href="../../da/d5a/GPUCommonDefAPI_8h.html" target="_top" xlink:title="GPUCommonDefAPI.h">
<polygon fill="none" stroke="black" points="287.482,-0.5 287.482,-19.5 406.482,-19.5 406.482,-0.5 287.482,-0.5"/>
<text text-anchor="middle" x="346.982" y="-7.5" font-family="Helvetica,sans-Serif" font-size="10.00">GPUCommonDefAPI.h</text>
</a>
</g>
</g>
<!-- Node5&#45;&gt;Node7 -->
<g id="edge6" class="edge"><title>Node5&#45;&gt;Node7</title>
<path fill="none" stroke="midnightblue" d="M284.871,-56.324C296.132,-48.1066 313.269,-35.6017 326.691,-25.8069"/>
<polygon fill="midnightblue" stroke="midnightblue" points="328.862,-28.5559 334.876,-19.8339 324.735,-22.9014 328.862,-28.5559"/>
</g>
<!-- Node8&#45;&gt;Node4 -->
<g id="edge10" class="edge"><title>Node8&#45;&gt;Node4</title>
<path fill="none" stroke="midnightblue" d="M186.446,-251.981C159.913,-242.265 115.57,-225.689 77.9821,-210 76.6101,-209.427 75.2093,-208.832 73.7975,-208.224"/>
<polygon fill="midnightblue" stroke="midnightblue" points="75.0742,-204.962 64.5126,-204.124 72.2465,-211.365 75.0742,-204.962"/>
</g>
<!-- Node8&#45;&gt;Node5 -->
<g id="edge12" class="edge"><title>Node8&#45;&gt;Node5</title>
<path fill="none" stroke="midnightblue" d="M212.77,-251.936C222.281,-222.725 253.591,-126.558 266.905,-85.6661"/>
<polygon fill="midnightblue" stroke="midnightblue" points="270.314,-86.4991 270.082,-75.9068 263.658,-84.332 270.314,-86.4991"/>
</g>
<!-- Node9 -->
<g id="node9" class="node"><title>Node9</title>
<polygon fill="none" stroke="#bfbfbf" points="87.4821,-185 87.4821,-204 136.482,-204 136.482,-185 87.4821,-185"/>
<text text-anchor="middle" x="111.982" y="-192" font-family="Helvetica,sans-Serif" font-size="10.00">cstddef</text>
</g>
<!-- Node8&#45;&gt;Node9 -->
<g id="edge8" class="edge"><title>Node8&#45;&gt;Node9</title>
<path fill="none" stroke="midnightblue" d="M196.765,-251.734C180.528,-240.964 152.765,-222.55 133.451,-209.739"/>
<polygon fill="midnightblue" stroke="midnightblue" points="135.258,-206.738 124.989,-204.127 131.388,-212.571 135.258,-206.738"/>
</g>
<!-- Node10 -->
<g id="node10" class="node"><title>Node10</title>
<polygon fill="none" stroke="#bfbfbf" points="154.982,-185 154.982,-204 206.982,-204 206.982,-185 154.982,-185"/>
<text text-anchor="middle" x="180.982" y="-192" font-family="Helvetica,sans-Serif" font-size="10.00">memory</text>
</g>
<!-- Node8&#45;&gt;Node10 -->
<g id="edge9" class="edge"><title>Node8&#45;&gt;Node10</title>
<path fill="none" stroke="midnightblue" d="M206.071,-251.734C201.723,-241.988 194.581,-225.981 189.027,-213.532"/>
<polygon fill="midnightblue" stroke="midnightblue" points="192.102,-211.834 184.831,-204.127 185.709,-214.686 192.102,-211.834"/>
</g>
<!-- Node11 -->
<g id="node11" class="node"><title>Node11</title>
<polygon fill="none" stroke="#bfbfbf" points="475.482,-185 475.482,-204 524.482,-204 524.482,-185 475.482,-185"/>
<text text-anchor="middle" x="499.982" y="-192" font-family="Helvetica,sans-Serif" font-size="10.00">cassert</text>
</g>
<!-- Node8&#45;&gt;Node11 -->
<g id="edge11" class="edge"><title>Node8&#45;&gt;Node11</title>
<path fill="none" stroke="midnightblue" d="M245.252,-252.595C301.124,-240.072 409.344,-215.815 465.023,-203.336"/>
<polygon fill="midnightblue" stroke="midnightblue" points="466.113,-206.678 475.105,-201.076 464.582,-199.848 466.113,-206.678"/>
</g>
<!-- Node8&#45;&gt;Node12 -->
<g id="edge13" class="edge"><title>Node8&#45;&gt;Node12</title>
<path fill="none" stroke="midnightblue" d="M229.901,-251.869C255.677,-240.699 300.797,-221.147 330.535,-208.26"/>
<polygon fill="midnightblue" stroke="midnightblue" points="332.197,-211.355 339.981,-204.167 329.414,-204.932 332.197,-211.355"/>
</g>
<!-- Node13 -->
<g id="node13" class="node"><title>Node13</title>
<polygon fill="none" stroke="#bfbfbf" points="874.982,-118 874.982,-137 930.982,-137 930.982,-118 874.982,-118"/>
<text text-anchor="middle" x="902.982" y="-125" font-family="Helvetica,sans-Serif" font-size="10.00">Rtypes.h</text>
</g>
<!-- Node12&#45;&gt;Node13 -->
<g id="edge14" class="edge"><title>Node12&#45;&gt;Node13</title>
<path fill="none" stroke="midnightblue" d="M419.102,-185.19C434.366,-183.106 450.779,-180.918 465.982,-179 613.252,-160.42 788.792,-140.944 864.789,-132.642"/>
<polygon fill="midnightblue" stroke="midnightblue" points="865.277,-136.11 874.839,-131.546 864.518,-129.151 865.277,-136.11"/>
</g>
<!-- Node14&#45;&gt;Node3 -->
<g id="edge18" class="edge"><title>Node14&#45;&gt;Node3</title>
<path fill="none" stroke="midnightblue" d="M141.233,-117.975C128.203,-108.52 106.946,-93.0961 91.2231,-81.6871"/>
<polygon fill="midnightblue" stroke="midnightblue" points="92.8582,-78.5492 82.7089,-75.5091 88.7471,-84.2149 92.8582,-78.5492"/>
</g>
<!-- Node14&#45;&gt;Node5 -->
<g id="edge17" class="edge"><title>Node14&#45;&gt;Node5</title>
<path fill="none" stroke="midnightblue" d="M170.175,-117.975C190.225,-108.034 223.581,-91.4947 246.842,-79.961"/>
<polygon fill="midnightblue" stroke="midnightblue" points="248.417,-83.0871 255.821,-75.5091 245.307,-76.8157 248.417,-83.0871"/>
</g>
<!-- Node15 -->
<g id="node15" class="node"><title>Node15</title>
<polygon fill="none" stroke="#bfbfbf" points="124.982,-56.5 124.982,-75.5 180.982,-75.5 180.982,-56.5 124.982,-56.5"/>
<text text-anchor="middle" x="152.982" y="-63.5" font-family="Helvetica,sans-Serif" font-size="10.00">algorithm</text>
</g>
<!-- Node14&#45;&gt;Node15 -->
<g id="edge19" class="edge"><title>Node14&#45;&gt;Node15</title>
<path fill="none" stroke="midnightblue" d="M152.982,-117.975C152.982,-109.58 152.982,-96.4806 152.982,-85.6631"/>
<polygon fill="midnightblue" stroke="midnightblue" points="156.482,-85.5091 152.982,-75.5091 149.482,-85.5091 156.482,-85.5091"/>
</g>
<!-- Node16&#45;&gt;Node5 -->
<g id="edge21" class="edge"><title>Node16&#45;&gt;Node5</title>
<path fill="none" stroke="midnightblue" d="M427.919,-251.818C432.643,-236.245 440.226,-202.954 427.982,-179 402.39,-128.933 342.818,-96.0915 305.429,-79.5971"/>
<polygon fill="midnightblue" stroke="midnightblue" points="306.548,-76.2696 295.977,-75.5663 303.802,-82.7086 306.548,-76.2696"/>
</g>
<!-- Node16&#45;&gt;Node12 -->
<g id="edge22" class="edge"><title>Node16&#45;&gt;Node12</title>
<path fill="none" stroke="midnightblue" d="M416.216,-251.734C405.885,-241.403 388.519,-224.037 375.814,-211.332"/>
<polygon fill="midnightblue" stroke="midnightblue" points="378.155,-208.724 368.609,-204.127 373.206,-213.673 378.155,-208.724"/>
</g>
<!-- Node17&#45;&gt;Node3 -->
<g id="edge25" class="edge"><title>Node17&#45;&gt;Node3</title>
<path fill="none" stroke="midnightblue" d="M559.362,-184.931C550.932,-182.686 541.645,-180.482 532.982,-179 435.627,-162.346 165.305,-206.889 89.9821,-143 73.6462,-129.144 70.2194,-103.57 70.0007,-85.9419"/>
<polygon fill="midnightblue" stroke="midnightblue" points="73.5048,-85.7796 70.2169,-75.7079 66.5064,-85.6317 73.5048,-85.7796"/>
</g>
<!-- Node17&#45;&gt;Node5 -->
<g id="edge26" class="edge"><title>Node17&#45;&gt;Node5</title>
<path fill="none" stroke="midnightblue" d="M577.471,-184.98C556.564,-168.453 507.74,-131.92 460.982,-112 420.483,-94.7463 372.13,-83.3596 334.604,-76.3572"/>
<polygon fill="midnightblue" stroke="midnightblue" points="334.785,-72.8333 324.322,-74.4972 333.539,-79.7215 334.785,-72.8333"/>
</g>
<!-- Node17&#45;&gt;Node14 -->
<g id="edge27" class="edge"><title>Node17&#45;&gt;Node14</title>
<path fill="none" stroke="midnightblue" d="M558.455,-184.986C550.254,-182.821 541.314,-180.645 532.982,-179 423.075,-157.298 293.406,-142.302 217.484,-134.576"/>
<polygon fill="midnightblue" stroke="midnightblue" points="217.436,-131.053 207.135,-133.534 216.734,-138.018 217.436,-131.053"/>
</g>
<!-- Node18 -->
<g id="node18" class="node"><title>Node18</title>
<polygon fill="none" stroke="#bfbfbf" points="604.982,-118 604.982,-137 642.982,-137 642.982,-118 604.982,-118"/>
<text text-anchor="middle" x="623.982" y="-125" font-family="Helvetica,sans-Serif" font-size="10.00">array</text>
</g>
<!-- Node17&#45;&gt;Node18 -->
<g id="edge24" class="edge"><title>Node17&#45;&gt;Node18</title>
<path fill="none" stroke="midnightblue" d="M592.837,-184.734C598.289,-174.89 607.278,-158.66 614.201,-146.159"/>
<polygon fill="midnightblue" stroke="midnightblue" points="617.421,-147.571 619.204,-137.127 611.297,-144.179 617.421,-147.571"/>
</g>
<!-- Node17&#45;&gt;Node19 -->
<g id="edge28" class="edge"><title>Node17&#45;&gt;Node19</title>
<path fill="none" stroke="midnightblue" d="M633.259,-185.501C648.107,-183.109 664.713,-180.679 679.982,-179 932.582,-151.223 1231.64,-137.436 1383.95,-131.773"/>
<polygon fill="midnightblue" stroke="midnightblue" points="1384.35,-135.261 1394.22,-131.395 1384.09,-128.265 1384.35,-135.261"/>
</g>
<!-- Node20&#45;&gt;Node16 -->
<g id="edge59" class="edge"><title>Node20&#45;&gt;Node16</title>
<path fill="none" stroke="midnightblue" d="M1076.15,-315C929.603,-303.184 635.759,-279.494 498.624,-268.437"/>
<polygon fill="midnightblue" stroke="midnightblue" points="498.877,-264.946 488.628,-267.631 498.315,-271.924 498.877,-264.946"/>
</g>
<!-- Node21 -->
<g id="node21" class="node"><title>Node21</title>
<polygon fill="none" stroke="#bfbfbf" points="789.982,-252 789.982,-271 875.982,-271 875.982,-252 789.982,-252"/>
<text text-anchor="middle" x="832.982" y="-259" font-family="Helvetica,sans-Serif" font-size="10.00">TGeoManager.h</text>
</g>
<!-- Node20&#45;&gt;Node21 -->
<g id="edge31" class="edge"><title>Node20&#45;&gt;Node21</title>
<path fill="none" stroke="midnightblue" d="M1097.44,-313.492C1040.85,-305.648 957.09,-292.838 884.982,-277 880.537,-276.024 875.907,-274.896 871.322,-273.709"/>
<polygon fill="midnightblue" stroke="midnightblue" points="872.013,-270.271 861.447,-271.054 870.195,-277.031 872.013,-270.271"/>
</g>
<!-- Node22 -->
<g id="node22" class="node"><title>Node22</title>
<polygon fill="none" stroke="#bfbfbf" points="894.482,-252 894.482,-271 977.482,-271 977.482,-252 894.482,-252"/>
<text text-anchor="middle" x="935.982" y="-259" font-family="Helvetica,sans-Serif" font-size="10.00">TGeoMaterial.h</text>
</g>
<!-- Node20&#45;&gt;Node22 -->
<g id="edge32" class="edge"><title>Node20&#45;&gt;Node22</title>
<path fill="none" stroke="midnightblue" d="M1128.51,-313.476C1092.98,-304.62 1036,-290.233 986.982,-277 983.191,-275.977 979.248,-274.892 975.308,-273.794"/>
<polygon fill="midnightblue" stroke="midnightblue" points="976.184,-270.405 965.61,-271.068 974.289,-277.144 976.184,-270.405"/>
</g>
<!-- Node23 -->
<g id="node23" class="node"><title>Node23</title>
<polygon fill="none" stroke="#bfbfbf" points="995.982,-252 995.982,-271 1105.98,-271 1105.98,-252 995.982,-252"/>
<text text-anchor="middle" x="1050.98" y="-259" font-family="Helvetica,sans-Serif" font-size="10.00">TGeoPhysicalNode.h</text>
</g>
<!-- Node20&#45;&gt;Node23 -->
<g id="edge33" class="edge"><title>Node20&#45;&gt;Node23</title>
<path fill="none" stroke="midnightblue" d="M1146.94,-313.475C1128.39,-303.622 1097.64,-287.288 1075.96,-275.77"/>
<polygon fill="midnightblue" stroke="midnightblue" points="1077.47,-272.61 1067,-271.009 1074.19,-278.792 1077.47,-272.61"/>
</g>
<!-- Node24 -->
<g id="node24" class="node"><title>Node24</title>
<polygon fill="none" stroke="#bfbfbf" points="1124.48,-252 1124.48,-271 1201.48,-271 1201.48,-252 1124.48,-252"/>
<text text-anchor="middle" x="1162.98" y="-259" font-family="Helvetica,sans-Serif" font-size="10.00">TGeoShape.h</text>
</g>
<!-- Node20&#45;&gt;Node24 -->
<g id="edge34" class="edge"><title>Node20&#45;&gt;Node24</title>
<path fill="none" stroke="midnightblue" d="M1162.98,-313.475C1162.98,-305.08 1162.98,-291.981 1162.98,-281.163"/>
<polygon fill="midnightblue" stroke="midnightblue" points="1166.48,-281.009 1162.98,-271.009 1159.48,-281.009 1166.48,-281.009"/>
</g>
<!-- Node25 -->
<g id="node25" class="node"><title>Node25</title>
<polygon fill="none" stroke="#bfbfbf" points="1219.48,-252 1219.48,-271 1272.48,-271 1272.48,-252 1219.48,-252"/>
<text text-anchor="middle" x="1245.98" y="-259" font-family="Helvetica,sans-Serif" font-size="10.00">TMath.h</text>
</g>
<!-- Node20&#45;&gt;Node25 -->
<g id="edge35" class="edge"><title>Node20&#45;&gt;Node25</title>
<path fill="none" stroke="midnightblue" d="M1174.87,-313.475C1188.19,-303.931 1209.98,-288.307 1225.94,-276.868"/>
<polygon fill="midnightblue" stroke="midnightblue" points="1228.02,-279.68 1234.11,-271.009 1223.95,-273.991 1228.02,-279.68"/>
</g>
<!-- Node26 -->
<g id="node26" class="node"><title>Node26</title>
<polygon fill="none" stroke="#bfbfbf" points="1290.48,-252 1290.48,-271 1349.48,-271 1349.48,-252 1290.48,-252"/>
<text text-anchor="middle" x="1319.98" y="-259" font-family="Helvetica,sans-Serif" font-size="10.00">TObject.h</text>
</g>
<!-- Node20&#45;&gt;Node26 -->
<g id="edge36" class="edge"><title>Node20&#45;&gt;Node26</title>
<path fill="none" stroke="midnightblue" d="M1185.48,-313.475C1212.29,-303.313 1257.3,-286.256 1287.79,-274.7"/>
<polygon fill="midnightblue" stroke="midnightblue" points="1289.42,-277.826 1297.53,-271.009 1286.94,-271.28 1289.42,-277.826"/>
</g>
<!-- Node27 -->
<g id="node27" class="node"><title>Node27</title>
<polygon fill="none" stroke="#bfbfbf" points="1367.48,-252 1367.48,-271 1408.48,-271 1408.48,-252 1367.48,-252"/>
<text text-anchor="middle" x="1387.98" y="-259" font-family="Helvetica,sans-Serif" font-size="10.00">string</text>
</g>
<!-- Node20&#45;&gt;Node27 -->
<g id="edge37" class="edge"><title>Node20&#45;&gt;Node27</title>
<path fill="none" stroke="midnightblue" d="M1213.96,-313.469C1253.83,-306.029 1310.3,-293.788 1357.98,-277 1359.6,-276.432 1361.24,-275.802 1362.88,-275.132"/>
<polygon fill="midnightblue" stroke="midnightblue" points="1364.38,-278.292 1372.07,-271.005 1361.52,-271.906 1364.38,-278.292"/>
</g>
<!-- Node28 -->
<g id="node28" class="node"><title>Node28</title>
<g id="a_node28"><a xlink:href="../../d6/d31/DetID_8h.html" target="_top" xlink:title="DetectorsCommonDataFormats\l/DetID.h">
<polygon fill="none" stroke="black" points="615.982,-246.5 615.982,-276.5 771.982,-276.5 771.982,-246.5 615.982,-246.5"/>
<text text-anchor="start" x="623.982" y="-264.5" font-family="Helvetica,sans-Serif" font-size="10.00">DetectorsCommonDataFormats</text>
<text text-anchor="middle" x="693.982" y="-253.5" font-family="Helvetica,sans-Serif" font-size="10.00">/DetID.h</text>
</a>
</g>
</g>
<!-- Node20&#45;&gt;Node28 -->
<g id="edge38" class="edge"><title>Node20&#45;&gt;Node28</title>
<path fill="none" stroke="midnightblue" d="M1080.87,-313.476C1005.75,-305.416 891.303,-292.474 782.392,-277.16"/>
<polygon fill="midnightblue" stroke="midnightblue" points="782.601,-273.655 772.209,-275.719 781.62,-280.586 782.601,-273.655"/>
</g>
<!-- Node32 -->
<g id="node32" class="node"><title>Node32</title>
<polygon fill="none" stroke="#bfbfbf" points="1426.48,-252 1426.48,-271 1497.48,-271 1497.48,-252 1426.48,-252"/>
<text text-anchor="middle" x="1461.98" y="-259" font-family="Helvetica,sans-Serif" font-size="10.00">FairLogger.h</text>
</g>
<!-- Node20&#45;&gt;Node32 -->
<g id="edge46" class="edge"><title>Node20&#45;&gt;Node32</title>
<path fill="none" stroke="midnightblue" d="M1224.55,-313.498C1276.3,-305.779 1352.01,-293.144 1416.98,-277 1420.43,-276.143 1424,-275.161 1427.56,-274.12"/>
<polygon fill="midnightblue" stroke="midnightblue" points="1428.87,-277.377 1437.4,-271.09 1426.81,-270.687 1428.87,-277.377"/>
</g>
<!-- Node33 -->
<g id="node33" class="node"><title>Node33</title>
<g id="a_node33"><a xlink:href="../../dd/d76/Cartesian3D_8h.html" target="_top" xlink:title="MathUtils/Cartesian3D.h">
<polygon fill="none" stroke="black" points="1515.48,-252 1515.48,-271 1640.48,-271 1640.48,-252 1515.48,-252"/>
<text text-anchor="middle" x="1577.98" y="-259" font-family="Helvetica,sans-Serif" font-size="10.00">MathUtils/Cartesian3D.h</text>
</a>
</g>
</g>
<!-- Node20&#45;&gt;Node33 -->
<g id="edge47" class="edge"><title>Node20&#45;&gt;Node33</title>
<path fill="none" stroke="midnightblue" d="M1239.49,-313.479C1309.15,-305.361 1414.74,-292.154 1505.98,-277 1513.16,-275.808 1520.71,-274.427 1528.12,-273"/>
<polygon fill="midnightblue" stroke="midnightblue" points="1528.95,-276.405 1538.08,-271.04 1527.6,-269.537 1528.95,-276.405"/>
</g>
<!-- Node28&#45;&gt;Node11 -->
<g id="edge42" class="edge"><title>Node28&#45;&gt;Node11</title>
<path fill="none" stroke="midnightblue" d="M645.255,-246.466C613.339,-236.944 570.862,-223.647 533.982,-210 532.327,-209.388 530.635,-208.739 528.934,-208.07"/>
<polygon fill="midnightblue" stroke="midnightblue" points="529.85,-204.663 519.269,-204.111 527.196,-211.141 529.85,-204.663"/>
</g>
<!-- Node28&#45;&gt;Node13 -->
<g id="edge39" class="edge"><title>Node28&#45;&gt;Node13</title>
<path fill="none" stroke="midnightblue" d="M759.892,-246.479C811.159,-235 875.057,-219.204 883.982,-210 900.147,-193.33 903.534,-165.707 903.797,-147.306"/>
<polygon fill="midnightblue" stroke="midnightblue" points="907.295,-147.166 903.643,-137.221 900.296,-147.273 907.295,-147.166"/>
</g>
<!-- Node28&#45;&gt;Node17 -->
<g id="edge45" class="edge"><title>Node28&#45;&gt;Node17</title>
<path fill="none" stroke="midnightblue" d="M670.982,-246.396C653.041,-235.395 628.262,-220.2 610.457,-209.282"/>
<polygon fill="midnightblue" stroke="midnightblue" points="612.21,-206.251 601.855,-204.007 608.55,-212.218 612.21,-206.251"/>
</g>
<!-- Node28&#45;&gt;Node18 -->
<g id="edge40" class="edge"><title>Node28&#45;&gt;Node18</title>
<path fill="none" stroke="midnightblue" d="M686.491,-246.374C673.606,-222.076 647.284,-172.44 633.26,-145.996"/>
<polygon fill="midnightblue" stroke="midnightblue" points="636.318,-144.292 628.541,-137.097 630.134,-147.572 636.318,-144.292"/>
</g>
<!-- Node29 -->
<g id="node29" class="node"><title>Node29</title>
<polygon fill="none" stroke="#bfbfbf" points="689.482,-185 689.482,-204 730.482,-204 730.482,-185 689.482,-185"/>
<text text-anchor="middle" x="709.982" y="-192" font-family="Helvetica,sans-Serif" font-size="10.00">bitset</text>
</g>
<!-- Node28&#45;&gt;Node29 -->
<g id="edge41" class="edge"><title>Node28&#45;&gt;Node29</title>
<path fill="none" stroke="midnightblue" d="M697.454,-246.396C699.776,-236.963 702.856,-224.448 705.382,-214.189"/>
<polygon fill="midnightblue" stroke="midnightblue" points="708.85,-214.741 707.842,-204.195 702.053,-213.068 708.85,-214.741"/>
</g>
<!-- Node30 -->
<g id="node30" class="node"><title>Node30</title>
<polygon fill="none" stroke="#bfbfbf" points="748.982,-185 748.982,-204 794.982,-204 794.982,-185 748.982,-185"/>
<text text-anchor="middle" x="771.982" y="-192" font-family="Helvetica,sans-Serif" font-size="10.00">cstdint</text>
</g>
<!-- Node28&#45;&gt;Node30 -->
<g id="edge43" class="edge"><title>Node28&#45;&gt;Node30</title>
<path fill="none" stroke="midnightblue" d="M710.907,-246.396C723.55,-235.86 740.809,-221.477 753.756,-210.689"/>
<polygon fill="midnightblue" stroke="midnightblue" points="756.107,-213.285 761.549,-204.195 751.626,-207.908 756.107,-213.285"/>
</g>
<!-- Node31 -->
<g id="node31" class="node"><title>Node31</title>
<polygon fill="none" stroke="#bfbfbf" points="812.982,-185 812.982,-204 874.982,-204 874.982,-185 812.982,-185"/>
<text text-anchor="middle" x="843.982" y="-192" font-family="Helvetica,sans-Serif" font-size="10.00">type_traits</text>
</g>
<!-- Node28&#45;&gt;Node31 -->
<g id="edge44" class="edge"><title>Node28&#45;&gt;Node31</title>
<path fill="none" stroke="midnightblue" d="M726.53,-246.396C752.849,-234.991 789.568,-219.079 814.911,-208.098"/>
<polygon fill="midnightblue" stroke="midnightblue" points="816.567,-211.195 824.351,-204.007 813.783,-204.772 816.567,-211.195"/>
</g>
<!-- Node33&#45;&gt;Node13 -->
<g id="edge53" class="edge"><title>Node33&#45;&gt;Node13</title>
<path fill="none" stroke="midnightblue" d="M1540.4,-251.95C1529.36,-249.705 1517.23,-247.497 1505.98,-246 1385.45,-229.961 1065.92,-269.696 959.982,-210 934.99,-195.917 918.43,-165.787 909.883,-146.37"/>
<polygon fill="midnightblue" stroke="midnightblue" points="913.104,-144.999 906.049,-137.094 906.634,-147.673 913.104,-144.999"/>
</g>
<!-- Node34 -->
<g id="node34" class="node"><title>Node34</title>
<polygon fill="none" stroke="#bfbfbf" points="969.482,-179.5 969.482,-209.5 1120.48,-209.5 1120.48,-179.5 969.482,-179.5"/>
<text text-anchor="start" x="977.482" y="-197.5" font-family="Helvetica,sans-Serif" font-size="10.00">Math/GenVector/Displacement</text>
<text text-anchor="middle" x="1044.98" y="-186.5" font-family="Helvetica,sans-Serif" font-size="10.00">Vector3D.h</text>
</g>
<!-- Node33&#45;&gt;Node34 -->
<g id="edge48" class="edge"><title>Node33&#45;&gt;Node34</title>
<path fill="none" stroke="midnightblue" d="M1539.25,-251.936C1528.51,-249.771 1516.83,-247.607 1505.98,-246 1343.16,-221.876 1298.14,-231.724 1131.07,-210.074"/>
<polygon fill="midnightblue" stroke="midnightblue" points="1131.31,-206.575 1120.94,-208.742 1130.4,-213.516 1131.31,-206.575"/>
</g>
<!-- Node35 -->
<g id="node35" class="node"><title>Node35</title>
<polygon fill="none" stroke="#bfbfbf" points="1138.98,-185 1138.98,-204 1314.98,-204 1314.98,-185 1138.98,-185"/>
<text text-anchor="middle" x="1226.98" y="-192" font-family="Helvetica,sans-Serif" font-size="10.00">Math/GenVector/PositionVector3D.h</text>
</g>
<!-- Node33&#45;&gt;Node35 -->
<g id="edge49" class="edge"><title>Node33&#45;&gt;Node35</title>
<path fill="none" stroke="midnightblue" d="M1536.13,-251.927C1526.25,-249.943 1515.75,-247.868 1505.98,-246 1430.08,-231.49 1342.36,-215.786 1285.85,-205.809"/>
<polygon fill="midnightblue" stroke="midnightblue" points="1286.13,-202.304 1275.67,-204.014 1284.91,-209.198 1286.13,-202.304"/>
</g>
<!-- Node36 -->
<g id="node36" class="node"><title>Node36</title>
<polygon fill="none" stroke="#bfbfbf" points="1332.48,-185 1332.48,-204 1481.48,-204 1481.48,-185 1332.48,-185"/>
<text text-anchor="middle" x="1406.98" y="-192" font-family="Helvetica,sans-Serif" font-size="10.00">Math/GenVector/Rotation3D.h</text>
</g>
<!-- Node33&#45;&gt;Node36 -->
<g id="edge50" class="edge"><title>Node33&#45;&gt;Node36</title>
<path fill="none" stroke="midnightblue" d="M1555.27,-251.869C1525.42,-240.522 1472.82,-220.525 1438.95,-207.652"/>
<polygon fill="midnightblue" stroke="midnightblue" points="1440.1,-204.345 1429.51,-204.064 1437.61,-210.888 1440.1,-204.345"/>
</g>
<!-- Node37 -->
<g id="node37" class="node"><title>Node37</title>
<polygon fill="none" stroke="#bfbfbf" points="1499.98,-185 1499.98,-204 1655.98,-204 1655.98,-185 1499.98,-185"/>
<text text-anchor="middle" x="1577.98" y="-192" font-family="Helvetica,sans-Serif" font-size="10.00">Math/GenVector/Transform3D.h</text>
</g>
<!-- Node33&#45;&gt;Node37 -->
<g id="edge51" class="edge"><title>Node33&#45;&gt;Node37</title>
<path fill="none" stroke="midnightblue" d="M1577.98,-251.734C1577.98,-242.183 1577.98,-226.618 1577.98,-214.283"/>
<polygon fill="midnightblue" stroke="midnightblue" points="1581.48,-214.127 1577.98,-204.127 1574.48,-214.127 1581.48,-214.127"/>
</g>
<!-- Node38 -->
<g id="node38" class="node"><title>Node38</title>
<polygon fill="none" stroke="#bfbfbf" points="1673.98,-185 1673.98,-204 1833.98,-204 1833.98,-185 1673.98,-185"/>
<text text-anchor="middle" x="1753.98" y="-192" font-family="Helvetica,sans-Serif" font-size="10.00">Math/GenVector/Translation3D.h</text>
</g>
<!-- Node33&#45;&gt;Node38 -->
<g id="edge52" class="edge"><title>Node33&#45;&gt;Node38</title>
<path fill="none" stroke="midnightblue" d="M1601.35,-251.869C1632.08,-240.522 1686.22,-220.525 1721.08,-207.652"/>
<polygon fill="midnightblue" stroke="midnightblue" points="1722.63,-210.811 1730.79,-204.064 1720.2,-204.245 1722.63,-210.811"/>
</g>
<!-- Node39 -->
<g id="node39" class="node"><title>Node39</title>
<polygon fill="none" stroke="#bfbfbf" points="1851.98,-185 1851.98,-204 1927.98,-204 1927.98,-185 1851.98,-185"/>
<text text-anchor="middle" x="1889.98" y="-192" font-family="Helvetica,sans-Serif" font-size="10.00">TGeoMatrix.h</text>
</g>
<!-- Node33&#45;&gt;Node39 -->
<g id="edge54" class="edge"><title>Node33&#45;&gt;Node39</title>
<path fill="none" stroke="midnightblue" d="M1632.16,-251.985C1685.99,-243.102 1770.72,-227.974 1842.98,-210 1846.59,-209.102 1850.33,-208.09 1854.06,-207.028"/>
<polygon fill="midnightblue" stroke="midnightblue" points="1855.18,-210.346 1863.78,-204.148 1853.19,-203.634 1855.18,-210.346"/>
</g>
<!-- Node40 -->
<g id="node40" class="node"><title>Node40</title>
<polygon fill="none" stroke="#bfbfbf" points="1946.48,-185 1946.48,-204 1991.48,-204 1991.48,-185 1946.48,-185"/>
<text text-anchor="middle" x="1968.98" y="-192" font-family="Helvetica,sans-Serif" font-size="10.00">iosfwd</text>
</g>
<!-- Node33&#45;&gt;Node40 -->
<g id="edge55" class="edge"><title>Node33&#45;&gt;Node40</title>
<path fill="none" stroke="midnightblue" d="M1640.73,-257.107C1713.29,-251.945 1835.74,-239.398 1936.98,-210 1938.91,-209.439 1940.88,-208.781 1942.84,-208.062"/>
<polygon fill="midnightblue" stroke="midnightblue" points="1944.49,-211.167 1952.39,-204.104 1941.81,-204.701 1944.49,-211.167"/>
</g>
<!-- Node41 -->
<g id="node41" class="node"><title>Node41</title>
<g id="a_node41"><a xlink:href="../../d2/dd0/Cartesian2D_8h.html" target="_top" xlink:title="MathUtils/Cartesian2D.h">
<polygon fill="none" stroke="black" points="2048.48,-185 2048.48,-204 2173.48,-204 2173.48,-185 2048.48,-185"/>
<text text-anchor="middle" x="2110.98" y="-192" font-family="Helvetica,sans-Serif" font-size="10.00">MathUtils/Cartesian2D.h</text>
</a>
</g>
</g>
<!-- Node33&#45;&gt;Node41 -->
<g id="edge56" class="edge"><title>Node33&#45;&gt;Node41</title>
<path fill="none" stroke="midnightblue" d="M1640.57,-253.224C1722.99,-243.594 1872.4,-225.966 1999.98,-210 2012.38,-208.448 2025.56,-206.761 2038.34,-205.104"/>
<polygon fill="midnightblue" stroke="midnightblue" points="2039.01,-208.546 2048.48,-203.785 2038.11,-201.604 2039.01,-208.546"/>
</g>
<!-- Node42 -->
<g id="node42" class="node"><title>Node42</title>
<polygon fill="none" stroke="#bfbfbf" points="1944.48,-112.5 1944.48,-142.5 2095.48,-142.5 2095.48,-112.5 1944.48,-112.5"/>
<text text-anchor="start" x="1952.48" y="-130.5" font-family="Helvetica,sans-Serif" font-size="10.00">Math/GenVector/Displacement</text>
<text text-anchor="middle" x="2019.98" y="-119.5" font-family="Helvetica,sans-Serif" font-size="10.00">Vector2D.h</text>
</g>
<!-- Node41&#45;&gt;Node42 -->
<g id="edge57" class="edge"><title>Node41&#45;&gt;Node42</title>
<path fill="none" stroke="midnightblue" d="M2098.71,-184.734C2085.82,-175.527 2065.11,-160.733 2048.16,-148.629"/>
<polygon fill="midnightblue" stroke="midnightblue" points="2049.88,-145.553 2039.71,-142.589 2045.81,-151.25 2049.88,-145.553"/>
</g>
<!-- Node43 -->
<g id="node43" class="node"><title>Node43</title>
<polygon fill="none" stroke="#bfbfbf" points="2113.98,-118 2113.98,-137 2289.98,-137 2289.98,-118 2113.98,-118"/>
<text text-anchor="middle" x="2201.98" y="-125" font-family="Helvetica,sans-Serif" font-size="10.00">Math/GenVector/PositionVector2D.h</text>
</g>
<!-- Node41&#45;&gt;Node43 -->
<g id="edge58" class="edge"><title>Node41&#45;&gt;Node43</title>
<path fill="none" stroke="midnightblue" d="M2123.25,-184.734C2138.13,-174.111 2163.41,-156.049 2181.31,-143.264"/>
<polygon fill="midnightblue" stroke="midnightblue" points="2183.8,-145.788 2189.9,-137.127 2179.73,-140.092 2183.8,-145.788"/>
</g>
<!-- Node45 -->
<g id="node45" class="node"><title>Node45</title>
<polygon fill="none" stroke="#bfbfbf" points="2127.98,-252 2127.98,-271 2181.98,-271 2181.98,-252 2127.98,-252"/>
<text text-anchor="middle" x="2154.98" y="-259" font-family="Helvetica,sans-Serif" font-size="10.00">iostream</text>
</g>
<!-- Node44&#45;&gt;Node45 -->
<g id="edge61" class="edge"><title>Node44&#45;&gt;Node45</title>
<path fill="none" stroke="midnightblue" d="M2113,-313.475C2120.43,-304.462 2132.31,-290.025 2141.55,-278.812"/>
<polygon fill="midnightblue" stroke="midnightblue" points="2144.32,-280.953 2147.97,-271.009 2138.92,-276.503 2144.32,-280.953"/>
</g>
<!-- Node46 -->
<g id="node46" class="node"><title>Node46</title>
<polygon fill="none" stroke="#bfbfbf" points="2066.48,-252 2066.48,-271 2109.48,-271 2109.48,-252 2066.48,-252"/>
<text text-anchor="middle" x="2087.98" y="-259" font-family="Helvetica,sans-Serif" font-size="10.00">cstdio</text>
</g>
<!-- Node44&#45;&gt;Node46 -->
<g id="edge62" class="edge"><title>Node44&#45;&gt;Node46</title>
<path fill="none" stroke="midnightblue" d="M2103.4,-313.475C2100.84,-304.992 2096.82,-291.704 2093.52,-280.822"/>
<polygon fill="midnightblue" stroke="midnightblue" points="2096.8,-279.567 2090.56,-271.009 2090.1,-281.594 2096.8,-279.567"/>
</g>
</g>
</svg>
        <g id="navigator" transform="translate(0 0)" fill="#404254">
                <rect fill="#f2f5e9" fill-opacity="0.5" stroke="#606060" stroke-width=".5" x="0" y="0" width="60" height="60"/>
                <use id="zoomplus" xlink:href="#zoomPlus" x="17" y="9" onmousedown="handleZoom(evt,'in')"/>
                <use id="zoomminus" xlink:href="#zoomMin" x="42" y="9" onmousedown="handleZoom(evt,'out')"/>
                <use id="reset" xlink:href="#resetDef" x="30" y="36" onmousedown="handleReset()"/>
                <g id="arrowUp" xlink:href="#dirArrow" transform="translate(30 24)" onmousedown="handlePan(0,-1)">
                  <use xlink:href="#rim" fill="#404040">
                        <set attributeName="fill" to="#808080" begin="arrowUp.mouseover" end="arrowUp.mouseout"/>
                  </use>
                  <path fill="none" stroke="white" stroke-width="1.5" d="M0,-3.0v7 M-2.5,-0.5L0,-3.0L2.5,-0.5"/>
                </g>
                <g id="arrowRight" xlink:href="#dirArrow" transform="rotate(90) translate(36 -43)" onmousedown="handlePan(1,0)">
                  <use xlink:href="#rim" fill="#404040">
                        <set attributeName="fill" to="#808080" begin="arrowRight.mouseover" end="arrowRight.mouseout"/>
                  </use>
                  <path fill="none" stroke="white" stroke-width="1.5" d="M0,-3.0v7 M-2.5,-0.5L0,-3.0L2.5,-0.5"/>
                </g>
                <g id="arrowDown" xlink:href="#dirArrow" transform="rotate(180) translate(-30 -48)" onmousedown="handlePan(0,1)">
                  <use xlink:href="#rim" fill="#404040">
                        <set attributeName="fill" to="#808080" begin="arrowDown.mouseover" end="arrowDown.mouseout"/>
                  </use>
                  <path fill="none" stroke="white" stroke-width="1.5" d="M0,-3.0v7 M-2.5,-0.5L0,-3.0L2.5,-0.5"/>
                </g>
                <g id="arrowLeft" xlink:href="#dirArrow" transform="rotate(270) translate(-36 17)" onmousedown="handlePan(-1,0)">
                  <use xlink:href="#rim" fill="#404040">
                        <set attributeName="fill" to="#808080" begin="arrowLeft.mouseover" end="arrowLeft.mouseout"/>
                  </use>
                  <path fill="none" stroke="white" stroke-width="1.5" d="M0,-3.0v7 M-2.5,-0.5L0,-3.0L2.5,-0.5"/>
                </g>
        </g>
        <svg viewBox="0 0 15 15" width="100%" height="30px" preserveAspectRatio="xMaxYMin meet">
         <g id="arrow_out" transform="scale(0.3 0.3)">
          <a xlink:href="MatLayerCyl_8cxx__incl_org.svg" target="_base">
           <rect id="button" ry="5" rx="5" y="6" x="6" height="38" width="38"
                fill="#f2f5e9" fill-opacity="0.5" stroke="#606060" stroke-width="1.0"/>
           <path id="arrow"
             d="M 11.500037,31.436501 C 11.940474,20.09759 22.043105,11.32322 32.158766,21.979434 L 37.068811,17.246167 C 37.068811,17.246167 37.088388,32 37.088388,32 L 22.160133,31.978069 C 22.160133,31.978069 26.997745,27.140456 26.997745,27.140456 C 18.528582,18.264221 13.291696,25.230495 11.500037,31.436501 z"
             style="fill:#404040;"/>
          </a>
         </g>
        </svg>
</svg>
