<?xml version="1.0" encoding="UTF-8" standalone="no"?>
<!DOCTYPE svg PUBLIC "-//W3C//DTD SVG 1.1//EN"
 "http://www.w3.org/Graphics/SVG/1.1/DTD/svg11.dtd">
<!-- Generated by graphviz version 2.38.0 (20140413.2041)
 -->
<!-- Title: o2::its::MisalignmentParameter Pages: 1 -->
<svg width="160pt" height="281pt"
 viewBox="0.00 0.00 160.00 281.00" xmlns="http://www.w3.org/2000/svg" xmlns:xlink="http://www.w3.org/1999/xlink">
<g id="graph0" class="graph" transform="scale(1 1) rotate(0) translate(4 277)">
<title>o2::its::MisalignmentParameter</title>
<!-- Node1 -->
<g id="node1" class="node"><title>Node1</title>
<polygon fill="#bfbfbf" stroke="black" points="0,-0.5 0,-178.5 152,-178.5 152,-0.5 0,-0.5"/>
<text text-anchor="middle" x="76" y="-166.5" font-family="Helvetica,sans-Serif" font-size="10.00">o2::its::MisalignmentParameter</text>
<polyline fill="none" stroke="black" points="0,-159.5 152,-159.5 "/>
<text text-anchor="middle" x="76" y="-147.5" font-family="Helvetica,sans-Serif" font-size="10.00"> </text>
<polyline fill="none" stroke="black" points="0,-140.5 152,-140.5 "/>
<text text-anchor="start" x="8" y="-128.5" font-family="Helvetica,sans-Serif" font-size="10.00">+ MisalignmentParameter()</text>
<text text-anchor="start" x="8" y="-117.5" font-family="Helvetica,sans-Serif" font-size="10.00">+ ~MisalignmentParameter()</text>
<text text-anchor="start" x="8" y="-106.5" font-family="Helvetica,sans-Serif" font-size="10.00">+ Clear()</text>
<text text-anchor="start" x="8" y="-95.5" font-family="Helvetica,sans-Serif" font-size="10.00">+ putParams()</text>
<text text-anchor="start" x="8" y="-84.5" font-family="Helvetica,sans-Serif" font-size="10.00">+ getParams()</text>
<text text-anchor="start" x="8" y="-73.5" font-family="Helvetica,sans-Serif" font-size="10.00">+ getShiftX()</text>
<text text-anchor="start" x="8" y="-62.5" font-family="Helvetica,sans-Serif" font-size="10.00">+ getShiftY()</text>
<text text-anchor="start" x="8" y="-51.5" font-family="Helvetica,sans-Serif" font-size="10.00">+ getShiftZ()</text>
<text text-anchor="start" x="8" y="-40.5" font-family="Helvetica,sans-Serif" font-size="10.00">+ getRotX()</text>
<text text-anchor="start" x="8" y="-29.5" font-family="Helvetica,sans-Serif" font-size="10.00">+ getRotY()</text>
<text text-anchor="start" x="8" y="-18.5" font-family="Helvetica,sans-Serif" font-size="10.00">+ getRotZ()</text>
<text text-anchor="start" x="8" y="-7.5" font-family="Helvetica,sans-Serif" font-size="10.00">+ getNumberOfDetectors()</text>
</g>
<!-- Node2 -->
<g id="node2" class="node"><title>Node2</title>
<g id="a_node2"><a xlink:href="../../d7/dbb/classFairParGenericSet.html" target="_top" xlink:title="{FairParGenericSet\n||}">
<polygon fill="none" stroke="black" points="27.5,-215.5 27.5,-272.5 124.5,-272.5 124.5,-215.5 27.5,-215.5"/>
<text text-anchor="middle" x="76" y="-260.5" font-family="Helvetica,sans-Serif" font-size="10.00">FairParGenericSet</text>
<polyline fill="none" stroke="black" points="27.5,-253.5 124.5,-253.5 "/>
<text text-anchor="middle" x="76" y="-241.5" font-family="Helvetica,sans-Serif" font-size="10.00"> </text>
<polyline fill="none" stroke="black" points="27.5,-234.5 124.5,-234.5 "/>
<text text-anchor="middle" x="76" y="-222.5" font-family="Helvetica,sans-Serif" font-size="10.00"> </text>
</a>
</g>
</g>
<!-- Node2&#45;&gt;Node1 -->
<g id="edge1" class="edge"><title>Node2&#45;&gt;Node1</title>
<path fill="none" stroke="midnightblue" d="M76,-205.374C76,-197.089 76,-187.977 76,-178.62"/>
<polygon fill="none" stroke="midnightblue" points="72.5001,-205.383 76,-215.383 79.5001,-205.383 72.5001,-205.383"/>
</g>
</g>
</svg>
