<?xml version="1.0" encoding="UTF-8" standalone="no"?>
<!DOCTYPE svg PUBLIC "-//W3C//DTD SVG 1.1//EN"
 "http://www.w3.org/Graphics/SVG/1.1/DTD/svg11.dtd">
<!-- Generated by graphviz version 2.38.0 (20140413.2041)
 -->
<!-- Title: /home/travis/build/AliceO2Group/AliceO2/Framework/Core/src/MessageContext.cxx Pages: 1 -->
<!--zoomable 296 -->
<svg id="main" version="1.1" xmlns="http://www.w3.org/2000/svg" xmlns:xlink="http://www.w3.org/1999/xlink" xml:space="preserve" onload="init(evt)">
<style type="text/css"><![CDATA[
.edge:hover path { stroke: red; }
.edge:hover polygon { stroke: red; fill: red; }
]]></style>
<script type="text/javascript"><![CDATA[
var edges = document.getElementsByTagName('g');
if (edges && edges.length) {
  for (var i=0;i<edges.length;i++) {
    if (edges[i].id.substr(0,4)=='edge') {
      edges[i].setAttribute('class','edge');
    }
  }
}
]]></script>
        <defs>
                <circle id="rim" cx="0" cy="0" r="7"/>
                <circle id="rim2" cx="0" cy="0" r="3.5"/>
                <g id="zoomPlus">
                        <use xlink:href="#rim" fill="#404040">
                                <set attributeName="fill" to="#808080" begin="zoomplus.mouseover" end="zoomplus.mouseout"/>
                        </use>
                        <path d="M-4,0h8M0,-4v8" fill="none" stroke="white" stroke-width="1.5" pointer-events="none"/>
                </g>
                <g id="zoomMin">
                        <use xlink:href="#rim" fill="#404040">
                                <set attributeName="fill" to="#808080" begin="zoomminus.mouseover" end="zoomminus.mouseout"/>
                        </use>
                        <path d="M-4,0h8" fill="none" stroke="white" stroke-width="1.5" pointer-events="none"/>
                </g>
                <g id="dirArrow">
                        <path fill="none" stroke="white" stroke-width="1.5" d="M0,-3.0v7 M-2.5,-0.5L0,-3.0L2.5,-0.5"/>
                </g>
               <g id="resetDef">
                       <use xlink:href="#rim2" fill="#404040">
                               <set attributeName="fill" to="#808080" begin="reset.mouseover" end="reset.mouseout"/>
                       </use>
               </g>
        </defs>

<script type="text/javascript">
var viewWidth = 2095;
var viewHeight = 296;
var sectionId = 'dynsection-0';
</script>
<script xlink:href="../../svgpan.js"/>
<svg id="graph" class="graph">
<g id="viewport">
<title>/home/travis/build/AliceO2Group/AliceO2/Framework/Core/src/MessageContext.cxx</title>
<!-- Node1 -->
<g id="node1" class="node"><title>Node1</title>
<polygon fill="#bfbfbf" stroke="black" points="1403.14,-246.5 1403.14,-287.5 1608.14,-287.5 1608.14,-246.5 1403.14,-246.5"/>
<text text-anchor="start" x="1411.14" y="-275.5" font-family="Helvetica,sans-Serif" font-size="10.00">/home/travis/build</text>
<text text-anchor="start" x="1411.14" y="-264.5" font-family="Helvetica,sans-Serif" font-size="10.00">/AliceO2Group/AliceO2</text>
<text text-anchor="middle" x="1505.64" y="-253.5" font-family="Helvetica,sans-Serif" font-size="10.00">/Framework/Core/src/MessageContext.cxx</text>
</g>
<!-- Node2 -->
<g id="node2" class="node"><title>Node2</title>
<g id="a_node2"><a xlink:href="../../dc/dc4/MessageContext_8h.html" target="_top" xlink:title="Framework/MessageContext.h">
<polygon fill="none" stroke="black" points="1354.14,-190.5 1354.14,-209.5 1505.14,-209.5 1505.14,-190.5 1354.14,-190.5"/>
<text text-anchor="middle" x="1429.64" y="-197.5" font-family="Helvetica,sans-Serif" font-size="10.00">Framework/MessageContext.h</text>
</a>
</g>
</g>
<!-- Node1&#45;&gt;Node2 -->
<g id="edge1" class="edge"><title>Node1&#45;&gt;Node2</title>
<path fill="none" stroke="midnightblue" d="M1482.84,-246.498C1471.52,-236.82 1458.05,-225.3 1447.5,-216.274"/>
<polygon fill="midnightblue" stroke="midnightblue" points="1449.63,-213.492 1439.76,-209.652 1445.08,-218.812 1449.63,-213.492"/>
</g>
<!-- Node44 -->
<g id="node44" class="node"><title>Node44</title>
<polygon fill="none" stroke="#bfbfbf" points="1523.64,-190.5 1523.64,-209.5 1641.64,-209.5 1641.64,-190.5 1523.64,-190.5"/>
<text text-anchor="middle" x="1582.64" y="-197.5" font-family="Helvetica,sans-Serif" font-size="10.00">fairmq/FairMQDevice.h</text>
</g>
<!-- Node1&#45;&gt;Node44 -->
<g id="edge59" class="edge"><title>Node1&#45;&gt;Node44</title>
<path fill="none" stroke="midnightblue" d="M1528.74,-246.498C1540.21,-236.82 1553.85,-225.3 1564.55,-216.274"/>
<polygon fill="midnightblue" stroke="midnightblue" points="1567.01,-218.778 1572.39,-209.652 1562.49,-213.429 1567.01,-218.778"/>
</g>
<!-- Node3 -->
<g id="node3" class="node"><title>Node3</title>
<g id="a_node3"><a xlink:href="../../d8/d71/FairMQDeviceProxy_8h.html" target="_top" xlink:title="Framework/FairMQDeviceProxy.h">
<polygon fill="none" stroke="black" points="606.14,-134.5 606.14,-153.5 771.14,-153.5 771.14,-134.5 606.14,-134.5"/>
<text text-anchor="middle" x="688.64" y="-141.5" font-family="Helvetica,sans-Serif" font-size="10.00">Framework/FairMQDeviceProxy.h</text>
</a>
</g>
</g>
<!-- Node2&#45;&gt;Node3 -->
<g id="edge2" class="edge"><title>Node2&#45;&gt;Node3</title>
<path fill="none" stroke="midnightblue" d="M1353.82,-193.475C1217.07,-183.509 929.606,-162.56 781.383,-151.759"/>
<polygon fill="midnightblue" stroke="midnightblue" points="781.617,-148.267 771.389,-151.03 781.109,-155.248 781.617,-148.267"/>
</g>
<!-- Node5 -->
<g id="node5" class="node"><title>Node5</title>
<g id="a_node5"><a xlink:href="../../d0/d95/TypeTraits_8h.html" target="_top" xlink:title="Framework/TypeTraits.h">
<polygon fill="none" stroke="black" points="305.14,-134.5 305.14,-153.5 428.14,-153.5 428.14,-134.5 305.14,-134.5"/>
<text text-anchor="middle" x="366.64" y="-141.5" font-family="Helvetica,sans-Serif" font-size="10.00">Framework/TypeTraits.h</text>
</a>
</g>
</g>
<!-- Node2&#45;&gt;Node5 -->
<g id="edge4" class="edge"><title>Node2&#45;&gt;Node5</title>
<path fill="none" stroke="midnightblue" d="M1354.01,-195.577C1197.37,-188.424 826.098,-171.128 514.64,-154 489.788,-152.633 462.597,-151.015 438.378,-149.53"/>
<polygon fill="midnightblue" stroke="midnightblue" points="438.393,-146.025 428.197,-148.903 437.962,-153.012 438.393,-146.025"/>
</g>
<!-- Node6 -->
<g id="node6" class="node"><title>Node6</title>
<polygon fill="none" stroke="#bfbfbf" points="281.64,-6 281.64,-25 343.64,-25 343.64,-6 281.64,-6"/>
<text text-anchor="middle" x="312.64" y="-13" font-family="Helvetica,sans-Serif" font-size="10.00">type_traits</text>
</g>
<!-- Node2&#45;&gt;Node6 -->
<g id="edge56" class="edge"><title>Node2&#45;&gt;Node6</title>
<path fill="none" stroke="midnightblue" d="M1354.04,-197.498C1134.83,-192.905 501.509,-177.891 295.64,-154 165.678,-138.918 89.8895,-198.93 6.6395,-98 -2.12736,-87.3713 -2.27446,-77.5056 6.6395,-67 40.1184,-27.5432 195.825,-18.8679 271.345,-16.9944"/>
<polygon fill="midnightblue" stroke="midnightblue" points="271.527,-20.4913 281.448,-16.7727 271.373,-13.493 271.527,-20.4913"/>
</g>
<!-- Node7 -->
<g id="node7" class="node"><title>Node7</title>
<polygon fill="none" stroke="#bfbfbf" points="405.64,-6 405.64,-25 449.64,-25 449.64,-6 405.64,-6"/>
<text text-anchor="middle" x="427.64" y="-13" font-family="Helvetica,sans-Serif" font-size="10.00">vector</text>
</g>
<!-- Node2&#45;&gt;Node7 -->
<g id="edge53" class="edge"><title>Node2&#45;&gt;Node7</title>
<path fill="none" stroke="midnightblue" d="M1353.99,-197.581C1162,-193.602 666.135,-180.833 596.64,-154 587.726,-150.559 487.581,-66.8738 445.788,-31.7731"/>
<polygon fill="midnightblue" stroke="midnightblue" points="447.937,-29.0074 438.03,-25.2523 443.433,-34.3659 447.937,-29.0074"/>
</g>
<!-- Node12 -->
<g id="node12" class="node"><title>Node12</title>
<g id="a_node12"><a xlink:href="../../d8/d3c/TMessageSerializer_8h.html" target="_top" xlink:title="Framework/TMessageSerializer.h">
<polygon fill="none" stroke="black" points="975.14,-134.5 975.14,-153.5 1138.14,-153.5 1138.14,-134.5 975.14,-134.5"/>
<text text-anchor="middle" x="1056.64" y="-141.5" font-family="Helvetica,sans-Serif" font-size="10.00">Framework/TMessageSerializer.h</text>
</a>
</g>
</g>
<!-- Node2&#45;&gt;Node12 -->
<g id="edge13" class="edge"><title>Node2&#45;&gt;Node12</title>
<path fill="none" stroke="midnightblue" d="M1370.54,-190.444C1303.97,-180.806 1195.92,-165.163 1125.56,-154.978"/>
<polygon fill="midnightblue" stroke="midnightblue" points="1125.86,-151.485 1115.47,-153.516 1124.86,-158.413 1125.86,-151.485"/>
</g>
<!-- Node13 -->
<g id="node13" class="node"><title>Node13</title>
<polygon fill="none" stroke="#bfbfbf" points="627.14,-73 627.14,-92 754.14,-92 754.14,-73 627.14,-73"/>
<text text-anchor="middle" x="690.64" y="-80" font-family="Helvetica,sans-Serif" font-size="10.00">fairmq/FairMQMessage.h</text>
</g>
<!-- Node2&#45;&gt;Node13 -->
<g id="edge51" class="edge"><title>Node2&#45;&gt;Node13</title>
<path fill="none" stroke="midnightblue" d="M1354.02,-195.257C1261.77,-189.867 1101.35,-177.83 965.64,-154 879.398,-138.857 780.416,-110.779 727.91,-95.012"/>
<polygon fill="midnightblue" stroke="midnightblue" points="728.631,-91.5736 718.046,-92.0302 726.606,-98.2741 728.631,-91.5736"/>
</g>
<!-- Node21 -->
<g id="node21" class="node"><title>Node21</title>
<g id="a_node21"><a xlink:href="../../dc/d03/MemoryResources_8h.html" target="_top" xlink:title="MemoryResources/MemoryResources.h">
<polygon fill="none" stroke="black" points="1333.14,-73 1333.14,-92 1526.14,-92 1526.14,-73 1333.14,-73"/>
<text text-anchor="middle" x="1429.64" y="-80" font-family="Helvetica,sans-Serif" font-size="10.00">MemoryResources/MemoryResources.h</text>
</a>
</g>
</g>
<!-- Node2&#45;&gt;Node21 -->
<g id="edge39" class="edge"><title>Node2&#45;&gt;Node21</title>
<path fill="none" stroke="midnightblue" d="M1429.64,-190.319C1429.64,-171.757 1429.64,-127.839 1429.64,-102.473"/>
<polygon fill="midnightblue" stroke="midnightblue" points="1433.14,-102.282 1429.64,-92.282 1426.14,-102.282 1433.14,-102.282"/>
</g>
<!-- Node27 -->
<g id="node27" class="node"><title>Node27</title>
<polygon fill="none" stroke="#bfbfbf" points="1799.14,-6 1799.14,-25 1840.14,-25 1840.14,-6 1799.14,-6"/>
<text text-anchor="middle" x="1819.64" y="-13" font-family="Helvetica,sans-Serif" font-size="10.00">string</text>
</g>
<!-- Node2&#45;&gt;Node27 -->
<g id="edge55" class="edge"><title>Node2&#45;&gt;Node27</title>
<path fill="none" stroke="midnightblue" d="M1438.35,-190.234C1462.69,-166.286 1534.46,-99.3879 1607.64,-67 1683.04,-33.6275 1711.44,-57.1534 1789.64,-31 1791.26,-30.4576 1792.91,-29.8471 1794.55,-29.1914"/>
<polygon fill="midnightblue" stroke="midnightblue" points="1796.04,-32.3595 1803.76,-25.1028 1793.2,-25.9617 1796.04,-32.3595"/>
</g>
<!-- Node35 -->
<g id="node35" class="node"><title>Node35</title>
<g id="a_node35"><a xlink:href="../../dc/dcd/DataHeader_8h.html" target="_top" xlink:title="Headers/DataHeader.h">
<polygon fill="none" stroke="black" points="1610.14,-134.5 1610.14,-153.5 1727.14,-153.5 1727.14,-134.5 1610.14,-134.5"/>
<text text-anchor="middle" x="1668.64" y="-141.5" font-family="Helvetica,sans-Serif" font-size="10.00">Headers/DataHeader.h</text>
</a>
</g>
</g>
<!-- Node2&#45;&gt;Node35 -->
<g id="edge40" class="edge"><title>Node2&#45;&gt;Node35</title>
<path fill="none" stroke="midnightblue" d="M1467.51,-190.444C1509.12,-181.043 1576.01,-165.929 1621.11,-155.739"/>
<polygon fill="midnightblue" stroke="midnightblue" points="1621.96,-159.134 1630.95,-153.516 1620.42,-152.306 1621.96,-159.134"/>
</g>
<!-- Node37 -->
<g id="node37" class="node"><title>Node37</title>
<polygon fill="none" stroke="#bfbfbf" points="1961.14,-73 1961.14,-92 2010.14,-92 2010.14,-73 1961.14,-73"/>
<text text-anchor="middle" x="1985.64" y="-80" font-family="Helvetica,sans-Serif" font-size="10.00">cassert</text>
</g>
<!-- Node2&#45;&gt;Node37 -->
<g id="edge54" class="edge"><title>Node2&#45;&gt;Node37</title>
<path fill="none" stroke="midnightblue" d="M1504.13,-190.476C1580.39,-181.315 1693.53,-166.397 1735.64,-154 1756.25,-147.933 1759.23,-140.685 1779.64,-134 1853.86,-109.693 1877.14,-121.432 1951.64,-98 1953.57,-97.3935 1955.54,-96.7168 1957.51,-95.9962"/>
<polygon fill="midnightblue" stroke="midnightblue" points="1959.18,-99.0964 1967.18,-92.1509 1956.6,-92.5912 1959.18,-99.0964"/>
</g>
<!-- Node39 -->
<g id="node39" class="node"><title>Node39</title>
<polygon fill="none" stroke="#bfbfbf" points="2028.14,-73 2028.14,-92 2087.14,-92 2087.14,-73 2028.14,-73"/>
<text text-anchor="middle" x="2057.64" y="-80" font-family="Helvetica,sans-Serif" font-size="10.00">stdexcept</text>
</g>
<!-- Node2&#45;&gt;Node39 -->
<g id="edge57" class="edge"><title>Node2&#45;&gt;Node39</title>
<path fill="none" stroke="midnightblue" d="M1504.35,-190.464C1597.23,-179.65 1746.66,-161.518 1771.64,-154 1791.05,-148.157 1793.35,-140.243 1812.64,-134 1901.48,-105.245 1929.6,-122.76 2019.64,-98 2022.29,-97.2704 2025.02,-96.4269 2027.73,-95.5212"/>
<polygon fill="midnightblue" stroke="midnightblue" points="2029.14,-98.7345 2037.37,-92.0602 2026.78,-92.1466 2029.14,-98.7345"/>
</g>
<!-- Node42 -->
<g id="node42" class="node"><title>Node42</title>
<polygon fill="none" stroke="#bfbfbf" points="1821.64,-134.5 1821.64,-153.5 1931.64,-153.5 1931.64,-134.5 1821.64,-134.5"/>
<text text-anchor="middle" x="1876.64" y="-141.5" font-family="Helvetica,sans-Serif" font-size="10.00">fairmq/FairMQParts.h</text>
</g>
<!-- Node2&#45;&gt;Node42 -->
<g id="edge52" class="edge"><title>Node2&#45;&gt;Node42</title>
<path fill="none" stroke="midnightblue" d="M1503.19,-190.491C1579.39,-181.618 1701.89,-167.191 1807.64,-154 1808.75,-153.862 1809.87,-153.722 1810.99,-153.58"/>
<polygon fill="midnightblue" stroke="midnightblue" points="1811.8,-157.005 1821.28,-152.276 1810.92,-150.061 1811.8,-157.005"/>
</g>
<!-- Node43 -->
<g id="node43" class="node"><title>Node43</title>
<polygon fill="none" stroke="#bfbfbf" points="1950.14,-134.5 1950.14,-153.5 2009.14,-153.5 2009.14,-134.5 1950.14,-134.5"/>
<text text-anchor="middle" x="1979.64" y="-141.5" font-family="Helvetica,sans-Serif" font-size="10.00">functional</text>
</g>
<!-- Node2&#45;&gt;Node43 -->
<g id="edge58" class="edge"><title>Node2&#45;&gt;Node43</title>
<path fill="none" stroke="midnightblue" d="M1505.17,-190.918C1508.37,-190.603 1511.54,-190.295 1514.64,-190 1700.56,-172.303 1751.21,-183.055 1939.94,-153.878"/>
<polygon fill="midnightblue" stroke="midnightblue" points="1940.57,-157.322 1949.91,-152.319 1939.49,-150.406 1940.57,-157.322"/>
</g>
<!-- Node4 -->
<g id="node4" class="node"><title>Node4</title>
<polygon fill="none" stroke="#bfbfbf" points="556.64,-73 556.64,-92 608.64,-92 608.64,-73 556.64,-73"/>
<text text-anchor="middle" x="582.64" y="-80" font-family="Helvetica,sans-Serif" font-size="10.00">memory</text>
</g>
<!-- Node3&#45;&gt;Node4 -->
<g id="edge3" class="edge"><title>Node3&#45;&gt;Node4</title>
<path fill="none" stroke="midnightblue" d="M673.452,-134.475C655.978,-124.666 627.061,-108.435 606.556,-96.925"/>
<polygon fill="midnightblue" stroke="midnightblue" points="608.232,-93.8519 597.799,-92.0091 604.806,-99.956 608.232,-93.8519"/>
</g>
<!-- Node5&#45;&gt;Node4 -->
<g id="edge7" class="edge"><title>Node5&#45;&gt;Node4</title>
<path fill="none" stroke="midnightblue" d="M397.587,-134.475C437.03,-123.61 505.082,-104.864 546.755,-93.3849"/>
<polygon fill="midnightblue" stroke="midnightblue" points="547.783,-96.7322 556.494,-90.7021 545.924,-89.9835 547.783,-96.7322"/>
</g>
<!-- Node5&#45;&gt;Node6 -->
<g id="edge5" class="edge"><title>Node5&#45;&gt;Node6</title>
<path fill="none" stroke="midnightblue" d="M337.518,-134.441C319.997,-127.62 299.117,-116.141 288.64,-98 276.813,-77.5237 289.21,-50.7324 300.13,-33.565"/>
<polygon fill="midnightblue" stroke="midnightblue" points="303.146,-35.3545 305.881,-25.1189 297.36,-31.4146 303.146,-35.3545"/>
</g>
<!-- Node5&#45;&gt;Node7 -->
<g id="edge6" class="edge"><title>Node5&#45;&gt;Node7</title>
<path fill="none" stroke="midnightblue" d="M414.689,-134.458C435.582,-128.101 458.11,-117.074 470.64,-98 485.035,-76.0851 463.373,-48.8251 445.922,-32.0469"/>
<polygon fill="midnightblue" stroke="midnightblue" points="448.091,-29.288 438.345,-25.1324 443.372,-34.4586 448.091,-29.288"/>
</g>
<!-- Node8 -->
<g id="node8" class="node"><title>Node8</title>
<g id="a_node8"><a xlink:href="../../db/d31/Traits_8h.html" target="_top" xlink:title="Framework/Traits.h">
<polygon fill="none" stroke="black" points="361.14,-73 361.14,-92 462.14,-92 462.14,-73 361.14,-73"/>
<text text-anchor="middle" x="411.64" y="-80" font-family="Helvetica,sans-Serif" font-size="10.00">Framework/Traits.h</text>
</a>
</g>
</g>
<!-- Node5&#45;&gt;Node8 -->
<g id="edge8" class="edge"><title>Node5&#45;&gt;Node8</title>
<path fill="none" stroke="midnightblue" d="M373.087,-134.475C379.837,-125.55 390.609,-111.307 399.053,-100.143"/>
<polygon fill="midnightblue" stroke="midnightblue" points="401.963,-102.096 405.204,-92.0091 396.38,-97.8737 401.963,-102.096"/>
</g>
<!-- Node9 -->
<g id="node9" class="node"><title>Node9</title>
<polygon fill="none" stroke="#bfbfbf" points="15.6395,-67.5 15.6395,-97.5 119.64,-97.5 119.64,-67.5 15.6395,-67.5"/>
<text text-anchor="start" x="23.6395" y="-85.5" font-family="Helvetica,sans-Serif" font-size="10.00">boost/archive/binary</text>
<text text-anchor="middle" x="67.6395" y="-74.5" font-family="Helvetica,sans-Serif" font-size="10.00">_iarchive.hpp</text>
</g>
<!-- Node5&#45;&gt;Node9 -->
<g id="edge10" class="edge"><title>Node5&#45;&gt;Node9</title>
<path fill="none" stroke="midnightblue" d="M317.734,-134.439C271.692,-126.226 200.571,-113.144 129.824,-98.1993"/>
<polygon fill="midnightblue" stroke="midnightblue" points="130.356,-94.7342 119.847,-96.0785 128.901,-101.581 130.356,-94.7342"/>
</g>
<!-- Node10 -->
<g id="node10" class="node"><title>Node10</title>
<polygon fill="none" stroke="#bfbfbf" points="137.64,-67.5 137.64,-97.5 241.64,-97.5 241.64,-67.5 137.64,-67.5"/>
<text text-anchor="start" x="145.64" y="-85.5" font-family="Helvetica,sans-Serif" font-size="10.00">boost/archive/binary</text>
<text text-anchor="middle" x="189.64" y="-74.5" font-family="Helvetica,sans-Serif" font-size="10.00">_oarchive.hpp</text>
</g>
<!-- Node5&#45;&gt;Node10 -->
<g id="edge11" class="edge"><title>Node5&#45;&gt;Node10</title>
<path fill="none" stroke="midnightblue" d="M341.28,-134.475C315.179,-125.701 273.79,-111.788 240.842,-100.712"/>
<polygon fill="midnightblue" stroke="midnightblue" points="241.949,-97.3918 231.355,-97.523 239.718,-104.027 241.949,-97.3918"/>
</g>
<!-- Node11 -->
<g id="node11" class="node"><title>Node11</title>
<polygon fill="none" stroke="#bfbfbf" points="298.14,-73 298.14,-92 343.14,-92 343.14,-73 298.14,-73"/>
<text text-anchor="middle" x="320.64" y="-80" font-family="Helvetica,sans-Serif" font-size="10.00">gsl/gsl</text>
</g>
<!-- Node5&#45;&gt;Node11 -->
<g id="edge12" class="edge"><title>Node5&#45;&gt;Node11</title>
<path fill="none" stroke="midnightblue" d="M360.049,-134.475C353.149,-125.55 342.137,-111.307 333.506,-100.143"/>
<polygon fill="midnightblue" stroke="midnightblue" points="336.103,-97.7798 327.218,-92.0091 330.565,-102.061 336.103,-97.7798"/>
</g>
<!-- Node8&#45;&gt;Node6 -->
<g id="edge9" class="edge"><title>Node8&#45;&gt;Node6</title>
<path fill="none" stroke="midnightblue" d="M398.288,-72.7338C381.885,-61.9644 353.839,-43.55 334.327,-30.7395"/>
<polygon fill="midnightblue" stroke="midnightblue" points="336.06,-27.69 325.78,-25.1273 332.218,-33.5415 336.06,-27.69"/>
</g>
<!-- Node12&#45;&gt;Node4 -->
<g id="edge21" class="edge"><title>Node12&#45;&gt;Node4</title>
<path fill="none" stroke="midnightblue" d="M974.906,-141.68C885.809,-138.618 739.646,-128.823 617.64,-98 615.129,-97.3657 612.562,-96.5834 610.017,-95.7138"/>
<polygon fill="midnightblue" stroke="midnightblue" points="611.054,-92.3634 600.464,-92.0547 608.55,-98.9003 611.054,-92.3634"/>
</g>
<!-- Node12&#45;&gt;Node13 -->
<g id="edge14" class="edge"><title>Node12&#45;&gt;Node13</title>
<path fill="none" stroke="midnightblue" d="M995.408,-134.481C935.841,-125.992 842.847,-112.207 762.64,-98 755.807,-96.7897 748.625,-95.4387 741.552,-94.0615"/>
<polygon fill="midnightblue" stroke="midnightblue" points="741.808,-90.5446 731.319,-92.0384 740.45,-97.4116 741.808,-90.5446"/>
</g>
<!-- Node14 -->
<g id="node14" class="node"><title>Node14</title>
<polygon fill="none" stroke="#bfbfbf" points="772.14,-73 772.14,-92 819.14,-92 819.14,-73 772.14,-73"/>
<text text-anchor="middle" x="795.64" y="-80" font-family="Helvetica,sans-Serif" font-size="10.00">TList.h</text>
</g>
<!-- Node12&#45;&gt;Node14 -->
<g id="edge15" class="edge"><title>Node12&#45;&gt;Node14</title>
<path fill="none" stroke="midnightblue" d="M992.463,-134.458C945.994,-127.296 882.05,-115.414 827.64,-98 825.766,-97.4004 823.857,-96.7218 821.951,-95.9936"/>
<polygon fill="midnightblue" stroke="midnightblue" points="823.198,-92.7213 812.623,-92.0751 820.487,-99.175 823.198,-92.7213"/>
</g>
<!-- Node15 -->
<g id="node15" class="node"><title>Node15</title>
<polygon fill="none" stroke="#bfbfbf" points="837.14,-73 837.14,-92 908.14,-92 908.14,-73 837.14,-73"/>
<text text-anchor="middle" x="872.64" y="-80" font-family="Helvetica,sans-Serif" font-size="10.00">TMessage.h</text>
</g>
<!-- Node12&#45;&gt;Node15 -->
<g id="edge16" class="edge"><title>Node12&#45;&gt;Node15</title>
<path fill="none" stroke="midnightblue" d="M1029.78,-134.432C1001.58,-125.421 955.968,-110.801 916.64,-98 913.915,-97.1132 911.096,-96.1924 908.263,-95.2642"/>
<polygon fill="midnightblue" stroke="midnightblue" points="909.28,-91.9144 898.687,-92.119 907.096,-98.5648 909.28,-91.9144"/>
</g>
<!-- Node16 -->
<g id="node16" class="node"><title>Node16</title>
<polygon fill="none" stroke="#bfbfbf" points="926.14,-73 926.14,-92 995.14,-92 995.14,-73 926.14,-73"/>
<text text-anchor="middle" x="960.64" y="-80" font-family="Helvetica,sans-Serif" font-size="10.00">TObjArray.h</text>
</g>
<!-- Node12&#45;&gt;Node16 -->
<g id="edge17" class="edge"><title>Node12&#45;&gt;Node16</title>
<path fill="none" stroke="midnightblue" d="M1042.89,-134.475C1027.27,-124.799 1001.58,-108.872 983.057,-97.3941"/>
<polygon fill="midnightblue" stroke="midnightblue" points="984.712,-94.3023 974.368,-92.0091 981.024,-100.252 984.712,-94.3023"/>
</g>
<!-- Node17 -->
<g id="node17" class="node"><title>Node17</title>
<polygon fill="none" stroke="#bfbfbf" points="1013.14,-73 1013.14,-92 1100.14,-92 1100.14,-73 1013.14,-73"/>
<text text-anchor="middle" x="1056.64" y="-80" font-family="Helvetica,sans-Serif" font-size="10.00">TStreamerInfo.h</text>
</g>
<!-- Node12&#45;&gt;Node17 -->
<g id="edge18" class="edge"><title>Node12&#45;&gt;Node17</title>
<path fill="none" stroke="midnightblue" d="M1056.64,-134.475C1056.64,-126.08 1056.64,-112.981 1056.64,-102.163"/>
<polygon fill="midnightblue" stroke="midnightblue" points="1060.14,-102.009 1056.64,-92.0091 1053.14,-102.009 1060.14,-102.009"/>
</g>
<!-- Node18 -->
<g id="node18" class="node"><title>Node18</title>
<polygon fill="none" stroke="#bfbfbf" points="1118.14,-73 1118.14,-92 1181.14,-92 1181.14,-73 1118.14,-73"/>
<text text-anchor="middle" x="1149.64" y="-80" font-family="Helvetica,sans-Serif" font-size="10.00">gsl/gsl_util</text>
</g>
<!-- Node12&#45;&gt;Node18 -->
<g id="edge19" class="edge"><title>Node12&#45;&gt;Node18</title>
<path fill="none" stroke="midnightblue" d="M1069.96,-134.475C1085.02,-124.843 1109.76,-109.017 1127.68,-97.5517"/>
<polygon fill="midnightblue" stroke="midnightblue" points="1129.8,-100.347 1136.34,-92.0091 1126.03,-94.4501 1129.8,-100.347"/>
</g>
<!-- Node19 -->
<g id="node19" class="node"><title>Node19</title>
<polygon fill="none" stroke="#bfbfbf" points="1199.14,-73 1199.14,-92 1252.14,-92 1252.14,-73 1199.14,-73"/>
<text text-anchor="middle" x="1225.64" y="-80" font-family="Helvetica,sans-Serif" font-size="10.00">gsl/span</text>
</g>
<!-- Node12&#45;&gt;Node19 -->
<g id="edge20" class="edge"><title>Node12&#45;&gt;Node19</title>
<path fill="none" stroke="midnightblue" d="M1083.29,-134.474C1110.25,-125.734 1153.06,-111.541 1189.64,-98 1191.49,-97.3157 1193.38,-96.5985 1195.29,-95.8649"/>
<polygon fill="midnightblue" stroke="midnightblue" points="1196.75,-99.0519 1204.78,-92.1355 1194.19,-92.5373 1196.75,-99.0519"/>
</g>
<!-- Node20 -->
<g id="node20" class="node"><title>Node20</title>
<polygon fill="none" stroke="#bfbfbf" points="1270.64,-73 1270.64,-92 1314.64,-92 1314.64,-73 1270.64,-73"/>
<text text-anchor="middle" x="1292.64" y="-80" font-family="Helvetica,sans-Serif" font-size="10.00">mutex</text>
</g>
<!-- Node12&#45;&gt;Node20 -->
<g id="edge22" class="edge"><title>Node12&#45;&gt;Node20</title>
<path fill="none" stroke="midnightblue" d="M1109.44,-134.477C1151.11,-127.006 1210.4,-114.721 1260.64,-98 1262.31,-97.4439 1264.01,-96.8287 1265.72,-96.1749"/>
<polygon fill="midnightblue" stroke="midnightblue" points="1267.43,-99.2494 1275.3,-92.15 1264.72,-92.7956 1267.43,-99.2494"/>
</g>
<!-- Node12&#45;&gt;Node21 -->
<g id="edge23" class="edge"><title>Node12&#45;&gt;Node21</title>
<path fill="none" stroke="midnightblue" d="M1110.08,-134.475C1177.66,-123.694 1293.89,-105.154 1365.99,-93.6532"/>
<polygon fill="midnightblue" stroke="midnightblue" points="1366.97,-97.0407 1376.3,-92.0091 1365.87,-90.1281 1366.97,-97.0407"/>
</g>
<!-- Node21&#45;&gt;Node6 -->
<g id="edge30" class="edge"><title>Node21&#45;&gt;Node6</title>
<path fill="none" stroke="midnightblue" d="M1375.01,-72.9945C1358.54,-70.7089 1340.38,-68.467 1323.64,-67 912.902,-31.0173 806.685,-74.1618 396.64,-31 382.683,-29.5309 367.54,-27.1606 354.005,-24.7583"/>
<polygon fill="midnightblue" stroke="midnightblue" points="354.481,-21.2874 344.014,-22.9295 353.221,-28.173 354.481,-21.2874"/>
</g>
<!-- Node21&#45;&gt;Node7 -->
<g id="edge32" class="edge"><title>Node21&#45;&gt;Node7</title>
<path fill="none" stroke="midnightblue" d="M1374.74,-72.9858C1358.33,-70.7141 1340.29,-68.482 1323.64,-67 1132.01,-49.9438 645.534,-76.6476 458.64,-31 456.648,-30.5136 454.631,-29.895 452.63,-29.1886"/>
<polygon fill="midnightblue" stroke="midnightblue" points="453.543,-25.7762 442.968,-25.1311 450.833,-32.2302 453.543,-25.7762"/>
</g>
<!-- Node22 -->
<g id="node22" class="node"><title>Node22</title>
<polygon fill="none" stroke="#bfbfbf" points="1162.64,-0.5 1162.64,-30.5 1262.64,-30.5 1262.64,-0.5 1162.64,-0.5"/>
<text text-anchor="start" x="1170.64" y="-18.5" font-family="Helvetica,sans-Serif" font-size="10.00">boost/container/flat</text>
<text text-anchor="middle" x="1212.64" y="-7.5" font-family="Helvetica,sans-Serif" font-size="10.00">_map.hpp</text>
</g>
<!-- Node21&#45;&gt;Node22 -->
<g id="edge24" class="edge"><title>Node21&#45;&gt;Node22</title>
<path fill="none" stroke="midnightblue" d="M1400.82,-72.8685C1367.35,-62.8406 1311.31,-46.0559 1269.07,-33.4042"/>
<polygon fill="midnightblue" stroke="midnightblue" points="1270.06,-30.0447 1259.47,-30.5281 1268.05,-36.7504 1270.06,-30.0447"/>
</g>
<!-- Node23 -->
<g id="node23" class="node"><title>Node23</title>
<polygon fill="none" stroke="#bfbfbf" points="1280.64,-0.5 1280.64,-30.5 1396.64,-30.5 1396.64,-0.5 1280.64,-0.5"/>
<text text-anchor="start" x="1288.64" y="-18.5" font-family="Helvetica,sans-Serif" font-size="10.00">boost/container/pmr</text>
<text text-anchor="middle" x="1338.64" y="-7.5" font-family="Helvetica,sans-Serif" font-size="10.00">/memory_resource.hpp</text>
</g>
<!-- Node21&#45;&gt;Node23 -->
<g id="edge25" class="edge"><title>Node21&#45;&gt;Node23</title>
<path fill="none" stroke="midnightblue" d="M1417.37,-72.7338C1404.48,-63.527 1383.77,-48.7328 1366.82,-36.6293"/>
<polygon fill="midnightblue" stroke="midnightblue" points="1368.54,-33.5534 1358.36,-30.589 1364.47,-39.2495 1368.54,-33.5534"/>
</g>
<!-- Node24 -->
<g id="node24" class="node"><title>Node24</title>
<polygon fill="none" stroke="#bfbfbf" points="1414.64,-0.5 1414.64,-30.5 1570.64,-30.5 1570.64,-0.5 1414.64,-0.5"/>
<text text-anchor="start" x="1422.64" y="-18.5" font-family="Helvetica,sans-Serif" font-size="10.00">boost/container/pmr</text>
<text text-anchor="middle" x="1492.64" y="-7.5" font-family="Helvetica,sans-Serif" font-size="10.00">/monotonic_buffer_resource.hpp</text>
</g>
<!-- Node21&#45;&gt;Node24 -->
<g id="edge26" class="edge"><title>Node21&#45;&gt;Node24</title>
<path fill="none" stroke="midnightblue" d="M1438.14,-72.7338C1446.73,-63.8649 1460.35,-49.8111 1471.83,-37.9722"/>
<polygon fill="midnightblue" stroke="midnightblue" points="1474.54,-40.2056 1478.98,-30.589 1469.51,-35.3338 1474.54,-40.2056"/>
</g>
<!-- Node25 -->
<g id="node25" class="node"><title>Node25</title>
<polygon fill="none" stroke="#bfbfbf" points="1589.14,-0.5 1589.14,-30.5 1722.14,-30.5 1722.14,-0.5 1589.14,-0.5"/>
<text text-anchor="start" x="1597.14" y="-18.5" font-family="Helvetica,sans-Serif" font-size="10.00">boost/container/pmr</text>
<text text-anchor="middle" x="1655.64" y="-7.5" font-family="Helvetica,sans-Serif" font-size="10.00">/polymorphic_allocator.hpp</text>
</g>
<!-- Node21&#45;&gt;Node25 -->
<g id="edge27" class="edge"><title>Node21&#45;&gt;Node25</title>
<path fill="none" stroke="midnightblue" d="M1459.65,-72.8685C1494.59,-62.8195 1553.12,-45.9852 1597.14,-33.3243"/>
<polygon fill="midnightblue" stroke="midnightblue" points="1598.22,-36.6558 1606.86,-30.5281 1596.29,-29.9285 1598.22,-36.6558"/>
</g>
<!-- Node26 -->
<g id="node26" class="node"><title>Node26</title>
<polygon fill="none" stroke="#bfbfbf" points="1858.64,-6 1858.64,-25 1904.64,-25 1904.64,-6 1858.64,-6"/>
<text text-anchor="middle" x="1881.64" y="-13" font-family="Helvetica,sans-Serif" font-size="10.00">cstring</text>
</g>
<!-- Node21&#45;&gt;Node26 -->
<g id="edge28" class="edge"><title>Node21&#45;&gt;Node26</title>
<path fill="none" stroke="midnightblue" d="M1526.37,-73.1558C1630.74,-63.5639 1789.89,-47.0676 1848.64,-31 1850.93,-30.3732 1853.27,-29.6133 1855.59,-28.7737"/>
<polygon fill="midnightblue" stroke="midnightblue" points="1856.91,-32.0143 1864.86,-25.0095 1854.28,-25.5285 1856.91,-32.0143"/>
</g>
<!-- Node21&#45;&gt;Node27 -->
<g id="edge29" class="edge"><title>Node21&#45;&gt;Node27</title>
<path fill="none" stroke="midnightblue" d="M1494.13,-72.9798C1593.89,-59.7248 1775.67,-35.2404 1789.64,-31 1791.31,-30.4916 1793.01,-29.9008 1794.7,-29.2544"/>
<polygon fill="midnightblue" stroke="midnightblue" points="1796.37,-32.3439 1804.13,-25.1269 1793.57,-25.9315 1796.37,-32.3439"/>
</g>
<!-- Node28 -->
<g id="node28" class="node"><title>Node28</title>
<polygon fill="none" stroke="#bfbfbf" points="1740.64,-6 1740.64,-25 1780.64,-25 1780.64,-6 1740.64,-6"/>
<text text-anchor="middle" x="1760.64" y="-13" font-family="Helvetica,sans-Serif" font-size="10.00">utility</text>
</g>
<!-- Node21&#45;&gt;Node28 -->
<g id="edge31" class="edge"><title>Node21&#45;&gt;Node28</title>
<path fill="none" stroke="midnightblue" d="M1493.21,-72.995C1568.02,-62.6066 1687.53,-44.7238 1730.64,-31 1732.31,-30.4691 1734,-29.8613 1735.69,-29.202"/>
<polygon fill="midnightblue" stroke="midnightblue" points="1737.37,-32.2846 1745.1,-25.0425 1734.54,-25.8814 1737.37,-32.2846"/>
</g>
<!-- Node29 -->
<g id="node29" class="node"><title>Node29</title>
<polygon fill="none" stroke="#bfbfbf" points="468.14,-6 468.14,-25 551.14,-25 551.14,-6 468.14,-6"/>
<text text-anchor="middle" x="509.64" y="-13" font-family="Helvetica,sans-Serif" font-size="10.00">unordered_map</text>
</g>
<!-- Node21&#45;&gt;Node29 -->
<g id="edge33" class="edge"><title>Node21&#45;&gt;Node29</title>
<path fill="none" stroke="midnightblue" d="M1374.18,-72.9678C1357.93,-70.7236 1340.1,-68.5108 1323.64,-67 985.13,-35.9338 894.973,-86.7245 559.64,-31 554.769,-30.1907 549.701,-29.0665 544.741,-27.7988"/>
<polygon fill="midnightblue" stroke="midnightblue" points="545.38,-24.3444 534.809,-25.0497 543.513,-31.0907 545.38,-24.3444"/>
</g>
<!-- Node30 -->
<g id="node30" class="node"><title>Node30</title>
<polygon fill="none" stroke="#bfbfbf" points="569.14,-6 569.14,-25 666.14,-25 666.14,-6 569.14,-6"/>
<text text-anchor="middle" x="617.64" y="-13" font-family="Helvetica,sans-Serif" font-size="10.00">FairMQMessage.h</text>
</g>
<!-- Node21&#45;&gt;Node30 -->
<g id="edge34" class="edge"><title>Node21&#45;&gt;Node30</title>
<path fill="none" stroke="midnightblue" d="M1373.63,-72.9797C1357.52,-70.7629 1339.91,-68.5615 1323.64,-67 1036.07,-39.4011 960.185,-74.8157 674.64,-31 668.756,-30.0972 662.596,-28.8536 656.591,-27.4713"/>
<polygon fill="midnightblue" stroke="midnightblue" points="657.252,-24.0299 646.706,-25.0496 655.586,-30.8288 657.252,-24.0299"/>
</g>
<!-- Node31 -->
<g id="node31" class="node"><title>Node31</title>
<polygon fill="none" stroke="#bfbfbf" points="684.14,-6 684.14,-25 815.14,-25 815.14,-6 684.14,-6"/>
<text text-anchor="middle" x="749.64" y="-13" font-family="Helvetica,sans-Serif" font-size="10.00">FairMQTransportFactory.h</text>
</g>
<!-- Node21&#45;&gt;Node31 -->
<g id="edge35" class="edge"><title>Node21&#45;&gt;Node31</title>
<path fill="none" stroke="midnightblue" d="M1372.23,-72.9639C1356.5,-70.8116 1339.43,-68.6473 1323.64,-67 1102.04,-43.8902 1044.48,-60.4753 823.64,-31 815.521,-29.9164 806.951,-28.4965 798.635,-26.9693"/>
<polygon fill="midnightblue" stroke="midnightblue" points="799.144,-23.5033 788.665,-25.0687 797.833,-30.3794 799.144,-23.5033"/>
</g>
<!-- Node32 -->
<g id="node32" class="node"><title>Node32</title>
<polygon fill="none" stroke="#bfbfbf" points="833.14,-6 833.14,-25 970.14,-25 970.14,-6 833.14,-6"/>
<text text-anchor="middle" x="901.64" y="-13" font-family="Helvetica,sans-Serif" font-size="10.00">fairmq/MemoryResources.h</text>
</g>
<!-- Node21&#45;&gt;Node32 -->
<g id="edge36" class="edge"><title>Node21&#45;&gt;Node32</title>
<path fill="none" stroke="midnightblue" d="M1369.7,-72.9635C1354.67,-70.9163 1338.58,-68.8027 1323.64,-67 1171.02,-48.5806 1131.77,-53.0652 979.64,-31 971.312,-29.7921 962.517,-28.335 953.951,-26.8163"/>
<polygon fill="midnightblue" stroke="midnightblue" points="954.508,-23.3603 944.044,-25.0165 953.257,-30.2476 954.508,-23.3603"/>
</g>
<!-- Node33 -->
<g id="node33" class="node"><title>Node33</title>
<polygon fill="none" stroke="#bfbfbf" points="988.64,-6 988.64,-25 1144.64,-25 1144.64,-6 988.64,-6"/>
<text text-anchor="middle" x="1066.64" y="-13" font-family="Helvetica,sans-Serif" font-size="10.00">fairmq/MemoryResourceTools.h</text>
</g>
<!-- Node21&#45;&gt;Node33 -->
<g id="edge37" class="edge"><title>Node21&#45;&gt;Node33</title>
<path fill="none" stroke="midnightblue" d="M1381.81,-72.9355C1315.48,-61.0576 1195.69,-39.6083 1124.43,-26.849"/>
<polygon fill="midnightblue" stroke="midnightblue" points="1124.75,-23.3492 1114.29,-25.0317 1123.51,-30.2396 1124.75,-23.3492"/>
</g>
<!-- Node34 -->
<g id="node34" class="node"><title>Node34</title>
<g id="a_node34"><a xlink:href="../../d7/df8/Types_8h.html" target="_top" xlink:title="Types.h">
<polygon fill="none" stroke="black" points="1922.64,-6 1922.64,-25 1974.64,-25 1974.64,-6 1922.64,-6"/>
<text text-anchor="middle" x="1948.64" y="-13" font-family="Helvetica,sans-Serif" font-size="10.00">Types.h</text>
</a>
</g>
</g>
<!-- Node21&#45;&gt;Node34 -->
<g id="edge38" class="edge"><title>Node21&#45;&gt;Node34</title>
<path fill="none" stroke="midnightblue" d="M1526.16,-74.7401C1645.82,-65.7834 1842.65,-49.0028 1913.64,-31 1916.15,-30.3634 1918.72,-29.5796 1921.26,-28.7089"/>
<polygon fill="midnightblue" stroke="midnightblue" points="1922.73,-31.8951 1930.81,-25.0482 1920.22,-25.3586 1922.73,-31.8951"/>
</g>
<!-- Node35&#45;&gt;Node4 -->
<g id="edge42" class="edge"><title>Node35&#45;&gt;Node4</title>
<path fill="none" stroke="midnightblue" d="M1609.99,-141.684C1403.07,-136.876 714.433,-119.419 617.64,-98 614.962,-97.4076 612.229,-96.6236 609.529,-95.7262"/>
<polygon fill="midnightblue" stroke="midnightblue" points="610.645,-92.4059 600.054,-92.1183 608.154,-98.9477 610.645,-92.4059"/>
</g>
<!-- Node35&#45;&gt;Node26 -->
<g id="edge44" class="edge"><title>Node35&#45;&gt;Node26</title>
<path fill="none" stroke="midnightblue" d="M1663.08,-134.359C1653.95,-118.971 1638.34,-86.6005 1654.64,-67 1710.71,0.429143 1764.83,-56.8098 1848.64,-31 1850.57,-30.406 1852.53,-29.7316 1854.5,-29.0064"/>
<polygon fill="midnightblue" stroke="midnightblue" points="1856.17,-32.1051 1864.11,-25.0949 1853.53,-25.6211 1856.17,-32.1051"/>
</g>
<!-- Node35&#45;&gt;Node27 -->
<g id="edge47" class="edge"><title>Node35&#45;&gt;Node27</title>
<path fill="none" stroke="midnightblue" d="M1652.86,-134.467C1640.44,-126.769 1624.03,-114.179 1616.64,-98 1610.91,-85.4691 1607.95,-77.6888 1616.64,-67 1666.19,-6.07186 1715.28,-56.2777 1789.64,-31 1791.26,-30.4496 1792.9,-29.8329 1794.55,-29.1727"/>
<polygon fill="midnightblue" stroke="midnightblue" points="1796.04,-32.3383 1803.75,-25.072 1793.19,-25.9441 1796.04,-32.3383"/>
</g>
<!-- Node35&#45;&gt;Node34 -->
<g id="edge49" class="edge"><title>Node35&#45;&gt;Node34</title>
<path fill="none" stroke="midnightblue" d="M1668,-134.433C1667.33,-118.572 1668.39,-84.6441 1687.64,-67 1762.62,1.72429 1815.76,-58.6548 1913.64,-31 1916.08,-30.3115 1918.57,-29.5021 1921.05,-28.6238"/>
<polygon fill="midnightblue" stroke="midnightblue" points="1922.34,-31.8795 1930.4,-25.0046 1919.81,-25.3518 1922.34,-31.8795"/>
</g>
<!-- Node36 -->
<g id="node36" class="node"><title>Node36</title>
<polygon fill="none" stroke="#bfbfbf" points="1696.64,-73 1696.64,-92 1742.64,-92 1742.64,-73 1696.64,-73"/>
<text text-anchor="middle" x="1719.64" y="-80" font-family="Helvetica,sans-Serif" font-size="10.00">cstdint</text>
</g>
<!-- Node35&#45;&gt;Node36 -->
<g id="edge41" class="edge"><title>Node35&#45;&gt;Node36</title>
<path fill="none" stroke="midnightblue" d="M1675.95,-134.475C1683.67,-125.462 1696.05,-111.025 1705.66,-99.8118"/>
<polygon fill="midnightblue" stroke="midnightblue" points="1708.5,-101.879 1712.35,-92.0091 1703.18,-97.3239 1708.5,-101.879"/>
</g>
<!-- Node35&#45;&gt;Node37 -->
<g id="edge43" class="edge"><title>Node35&#45;&gt;Node37</title>
<path fill="none" stroke="midnightblue" d="M1727.39,-135.387C1797.57,-125.989 1910.65,-109.806 1951.64,-98 1953.93,-97.3407 1956.27,-96.5677 1958.6,-95.7278"/>
<polygon fill="midnightblue" stroke="midnightblue" points="1959.94,-98.9614 1967.94,-92.0187 1957.36,-92.4553 1959.94,-98.9614"/>
</g>
<!-- Node38 -->
<g id="node38" class="node"><title>Node38</title>
<polygon fill="none" stroke="#bfbfbf" points="1760.64,-73 1760.64,-92 1816.64,-92 1816.64,-73 1760.64,-73"/>
<text text-anchor="middle" x="1788.64" y="-80" font-family="Helvetica,sans-Serif" font-size="10.00">algorithm</text>
</g>
<!-- Node35&#45;&gt;Node38 -->
<g id="edge45" class="edge"><title>Node35&#45;&gt;Node38</title>
<path fill="none" stroke="midnightblue" d="M1685.83,-134.475C1705.88,-124.534 1739.24,-107.995 1762.5,-96.461"/>
<polygon fill="midnightblue" stroke="midnightblue" points="1764.07,-99.5871 1771.48,-92.0091 1760.96,-93.3157 1764.07,-99.5871"/>
</g>
<!-- Node35&#45;&gt;Node39 -->
<g id="edge46" class="edge"><title>Node35&#45;&gt;Node39</title>
<path fill="none" stroke="midnightblue" d="M1727.48,-137.163C1812.58,-128.429 1965.71,-111.541 2019.64,-98 2022.46,-97.2906 2025.37,-96.4334 2028.25,-95.4943"/>
<polygon fill="midnightblue" stroke="midnightblue" points="2029.57,-98.739 2037.81,-92.0826 2027.22,-92.1459 2029.57,-98.739"/>
</g>
<!-- Node40 -->
<g id="node40" class="node"><title>Node40</title>
<polygon fill="none" stroke="#bfbfbf" points="1835.14,-73 1835.14,-92 1880.14,-92 1880.14,-73 1835.14,-73"/>
<text text-anchor="middle" x="1857.64" y="-80" font-family="Helvetica,sans-Serif" font-size="10.00">climits</text>
</g>
<!-- Node35&#45;&gt;Node40 -->
<g id="edge48" class="edge"><title>Node35&#45;&gt;Node40</title>
<path fill="none" stroke="midnightblue" d="M1704.03,-134.437C1736.17,-126.291 1784.66,-113.067 1825.64,-98 1827.25,-97.4068 1828.9,-96.7684 1830.55,-96.102"/>
<polygon fill="midnightblue" stroke="midnightblue" points="1832.08,-99.2551 1839.89,-92.0982 1829.32,-92.8213 1832.08,-99.2551"/>
</g>
<!-- Node41 -->
<g id="node41" class="node"><title>Node41</title>
<polygon fill="none" stroke="#bfbfbf" points="1898.64,-73 1898.64,-92 1942.64,-92 1942.64,-73 1898.64,-73"/>
<text text-anchor="middle" x="1920.64" y="-80" font-family="Helvetica,sans-Serif" font-size="10.00">cerrno</text>
</g>
<!-- Node35&#45;&gt;Node41 -->
<g id="edge50" class="edge"><title>Node35&#45;&gt;Node41</title>
<path fill="none" stroke="midnightblue" d="M1727.32,-134.931C1772.43,-127.803 1835.92,-115.755 1889.64,-98 1891.31,-97.4488 1893,-96.8316 1894.7,-96.1709"/>
<polygon fill="midnightblue" stroke="midnightblue" points="1896.41,-99.2451 1904.2,-92.069 1893.63,-92.8181 1896.41,-99.2451"/>
</g>
</g>
</svg>
        <g id="navigator" transform="translate(0 0)" fill="#404254">
                <rect fill="#f2f5e9" fill-opacity="0.5" stroke="#606060" stroke-width=".5" x="0" y="0" width="60" height="60"/>
                <use id="zoomplus" xlink:href="#zoomPlus" x="17" y="9" onmousedown="handleZoom(evt,'in')"/>
                <use id="zoomminus" xlink:href="#zoomMin" x="42" y="9" onmousedown="handleZoom(evt,'out')"/>
                <use id="reset" xlink:href="#resetDef" x="30" y="36" onmousedown="handleReset()"/>
                <g id="arrowUp" xlink:href="#dirArrow" transform="translate(30 24)" onmousedown="handlePan(0,-1)">
                  <use xlink:href="#rim" fill="#404040">
                        <set attributeName="fill" to="#808080" begin="arrowUp.mouseover" end="arrowUp.mouseout"/>
                  </use>
                  <path fill="none" stroke="white" stroke-width="1.5" d="M0,-3.0v7 M-2.5,-0.5L0,-3.0L2.5,-0.5"/>
                </g>
                <g id="arrowRight" xlink:href="#dirArrow" transform="rotate(90) translate(36 -43)" onmousedown="handlePan(1,0)">
                  <use xlink:href="#rim" fill="#404040">
                        <set attributeName="fill" to="#808080" begin="arrowRight.mouseover" end="arrowRight.mouseout"/>
                  </use>
                  <path fill="none" stroke="white" stroke-width="1.5" d="M0,-3.0v7 M-2.5,-0.5L0,-3.0L2.5,-0.5"/>
                </g>
                <g id="arrowDown" xlink:href="#dirArrow" transform="rotate(180) translate(-30 -48)" onmousedown="handlePan(0,1)">
                  <use xlink:href="#rim" fill="#404040">
                        <set attributeName="fill" to="#808080" begin="arrowDown.mouseover" end="arrowDown.mouseout"/>
                  </use>
                  <path fill="none" stroke="white" stroke-width="1.5" d="M0,-3.0v7 M-2.5,-0.5L0,-3.0L2.5,-0.5"/>
                </g>
                <g id="arrowLeft" xlink:href="#dirArrow" transform="rotate(270) translate(-36 17)" onmousedown="handlePan(-1,0)">
                  <use xlink:href="#rim" fill="#404040">
                        <set attributeName="fill" to="#808080" begin="arrowLeft.mouseover" end="arrowLeft.mouseout"/>
                  </use>
                  <path fill="none" stroke="white" stroke-width="1.5" d="M0,-3.0v7 M-2.5,-0.5L0,-3.0L2.5,-0.5"/>
                </g>
        </g>
        <svg viewBox="0 0 15 15" width="100%" height="30px" preserveAspectRatio="xMaxYMin meet">
         <g id="arrow_out" transform="scale(0.3 0.3)">
          <a xlink:href="MessageContext_8cxx__incl_org.svg" target="_base">
           <rect id="button" ry="5" rx="5" y="6" x="6" height="38" width="38"
                fill="#f2f5e9" fill-opacity="0.5" stroke="#606060" stroke-width="1.0"/>
           <path id="arrow"
             d="M 11.500037,31.436501 C 11.940474,20.09759 22.043105,11.32322 32.158766,21.979434 L 37.068811,17.246167 C 37.068811,17.246167 37.088388,32 37.088388,32 L 22.160133,31.978069 C 22.160133,31.978069 26.997745,27.140456 26.997745,27.140456 C 18.528582,18.264221 13.291696,25.230495 11.500037,31.436501 z"
             style="fill:#404040;"/>
          </a>
         </g>
        </svg>
</svg>
