<?xml version="1.0" encoding="UTF-8" standalone="no"?>
<!DOCTYPE svg PUBLIC "-//W3C//DTD SVG 1.1//EN"
 "http://www.w3.org/Graphics/SVG/1.1/DTD/svg11.dtd">
<!-- Generated by graphviz version 2.38.0 (20140413.2041)
 -->
<!-- Title: /home/travis/build/AliceO2Group/AliceO2/Detectors/MUON/MID/Base/include/MIDBase/MpArea.h Pages: 1 -->
<svg width="1736pt" height="417pt"
 viewBox="0.00 0.00 1736.00 417.00" xmlns="http://www.w3.org/2000/svg" xmlns:xlink="http://www.w3.org/1999/xlink">
<g id="graph0" class="graph" transform="scale(1 1) rotate(0) translate(4 413)">
<title>/home/travis/build/AliceO2Group/AliceO2/Detectors/MUON/MID/Base/include/MIDBase/MpArea.h</title>
<!-- Node1 -->
<g id="node1" class="node"><title>Node1</title>
<polygon fill="#bfbfbf" stroke="black" points="1097,-356.5 1097,-408.5 1240,-408.5 1240,-356.5 1097,-356.5"/>
<text text-anchor="start" x="1105" y="-396.5" font-family="Helvetica,sans-Serif" font-size="10.00">/home/travis/build</text>
<text text-anchor="start" x="1105" y="-385.5" font-family="Helvetica,sans-Serif" font-size="10.00">/AliceO2Group/AliceO2</text>
<text text-anchor="start" x="1105" y="-374.5" font-family="Helvetica,sans-Serif" font-size="10.00">/Detectors/MUON/MID/Base</text>
<text text-anchor="middle" x="1168.5" y="-363.5" font-family="Helvetica,sans-Serif" font-size="10.00">/include/MIDBase/MpArea.h</text>
</g>
<!-- Node2 -->
<g id="node2" class="node"><title>Node2</title>
<g id="a_node2"><a xlink:href="../../d4/d73/MID_2Base_2include_2MIDBase_2Mapping_8h.html" target="_top" xlink:title="Mapping for MID. ">
<polygon fill="none" stroke="black" points="644,-267.5 644,-319.5 787,-319.5 787,-267.5 644,-267.5"/>
<text text-anchor="start" x="652" y="-307.5" font-family="Helvetica,sans-Serif" font-size="10.00">/home/travis/build</text>
<text text-anchor="start" x="652" y="-296.5" font-family="Helvetica,sans-Serif" font-size="10.00">/AliceO2Group/AliceO2</text>
<text text-anchor="start" x="652" y="-285.5" font-family="Helvetica,sans-Serif" font-size="10.00">/Detectors/MUON/MID/Base</text>
<text text-anchor="middle" x="715.5" y="-274.5" font-family="Helvetica,sans-Serif" font-size="10.00">/include/MIDBase/Mapping.h</text>
</a>
</g>
</g>
<!-- Node1&#45;&gt;Node2 -->
<g id="edge1" class="edge"><title>Node1&#45;&gt;Node2</title>
<path fill="none" stroke="midnightblue" d="M1086.81,-365.811C1001.44,-349.415 868.806,-323.943 787.317,-308.293"/>
<polygon fill="midnightblue" stroke="midnightblue" points="1086.24,-369.266 1096.72,-367.715 1087.56,-362.391 1086.24,-369.266"/>
</g>
<!-- Node5 -->
<g id="node5" class="node"><title>Node5</title>
<g id="a_node5"><a xlink:href="../../d5/d6f/testMapping_8cxx.html" target="_top" xlink:title="/home/travis/build\l/AliceO2Group/AliceO2\l/Detectors/MUON/MID/Base\l/test/src/testMapping.cxx">
<polygon fill="none" stroke="black" points="0,-178.5 0,-230.5 143,-230.5 143,-178.5 0,-178.5"/>
<text text-anchor="start" x="8" y="-218.5" font-family="Helvetica,sans-Serif" font-size="10.00">/home/travis/build</text>
<text text-anchor="start" x="8" y="-207.5" font-family="Helvetica,sans-Serif" font-size="10.00">/AliceO2Group/AliceO2</text>
<text text-anchor="start" x="8" y="-196.5" font-family="Helvetica,sans-Serif" font-size="10.00">/Detectors/MUON/MID/Base</text>
<text text-anchor="middle" x="71.5" y="-185.5" font-family="Helvetica,sans-Serif" font-size="10.00">/test/src/testMapping.cxx</text>
</a>
</g>
</g>
<!-- Node1&#45;&gt;Node5 -->
<g id="edge31" class="edge"><title>Node1&#45;&gt;Node5</title>
<path fill="none" stroke="midnightblue" d="M1086.87,-374.917C912.84,-359.69 493.347,-316.613 151.5,-231 148.813,-230.327 146.085,-229.614 143.335,-228.869"/>
<polygon fill="midnightblue" stroke="midnightblue" points="1086.71,-378.416 1096.97,-375.794 1087.31,-371.443 1086.71,-378.416"/>
</g>
<!-- Node6 -->
<g id="node6" class="node"><title>Node6</title>
<g id="a_node6"><a xlink:href="../../d8/dc8/PreClusterHelper_8h.html" target="_top" xlink:title="Pre&#45;clusters helper for MID. ">
<polygon fill="none" stroke="black" points="782,-178.5 782,-230.5 985,-230.5 985,-178.5 782,-178.5"/>
<text text-anchor="start" x="790" y="-218.5" font-family="Helvetica,sans-Serif" font-size="10.00">/home/travis/build</text>
<text text-anchor="start" x="790" y="-207.5" font-family="Helvetica,sans-Serif" font-size="10.00">/AliceO2Group/AliceO2</text>
<text text-anchor="start" x="790" y="-196.5" font-family="Helvetica,sans-Serif" font-size="10.00">/Detectors/MUON/MID/Clustering</text>
<text text-anchor="middle" x="883.5" y="-185.5" font-family="Helvetica,sans-Serif" font-size="10.00">/include/MIDClustering/PreClusterHelper.h</text>
</a>
</g>
</g>
<!-- Node1&#45;&gt;Node6 -->
<g id="edge33" class="edge"><title>Node1&#45;&gt;Node6</title>
<path fill="none" stroke="midnightblue" d="M1119.42,-351.191C1064.3,-317.155 975.855,-262.533 924.352,-230.728"/>
<polygon fill="midnightblue" stroke="midnightblue" points="1117.62,-354.194 1127.97,-356.47 1121.3,-348.238 1117.62,-354.194"/>
</g>
<!-- Node7 -->
<g id="node7" class="node"><title>Node7</title>
<g id="a_node7"><a xlink:href="../../d5/d53/Clusterizer_8h.html" target="_top" xlink:title="Cluster reconstruction algorithm for MID. ">
<polygon fill="none" stroke="black" points="1277,-89.5 1277,-141.5 1452,-141.5 1452,-89.5 1277,-89.5"/>
<text text-anchor="start" x="1285" y="-129.5" font-family="Helvetica,sans-Serif" font-size="10.00">/home/travis/build</text>
<text text-anchor="start" x="1285" y="-118.5" font-family="Helvetica,sans-Serif" font-size="10.00">/AliceO2Group/AliceO2</text>
<text text-anchor="start" x="1285" y="-107.5" font-family="Helvetica,sans-Serif" font-size="10.00">/Detectors/MUON/MID/Clustering</text>
<text text-anchor="middle" x="1364.5" y="-96.5" font-family="Helvetica,sans-Serif" font-size="10.00">/include/MIDClustering/Clusterizer.h</text>
</a>
</g>
</g>
<!-- Node1&#45;&gt;Node7 -->
<g id="edge32" class="edge"><title>Node1&#45;&gt;Node7</title>
<path fill="none" stroke="midnightblue" d="M1221.51,-350.964C1262.23,-324.583 1316.27,-282.609 1345.5,-231 1361.19,-203.297 1364.75,-166.174 1365.18,-141.812"/>
<polygon fill="midnightblue" stroke="midnightblue" points="1219.6,-348.034 1213.04,-356.355 1223.36,-353.939 1219.6,-348.034"/>
</g>
<!-- Node20 -->
<g id="node20" class="node"><title>Node20</title>
<g id="a_node20"><a xlink:href="../../d0/db9/bench__Tracker_8cxx.html" target="_top" xlink:title="Benchmark tracker device for MID. ">
<polygon fill="none" stroke="black" points="1002.5,-178.5 1002.5,-230.5 1160.5,-230.5 1160.5,-178.5 1002.5,-178.5"/>
<text text-anchor="start" x="1010.5" y="-218.5" font-family="Helvetica,sans-Serif" font-size="10.00">/home/travis/build</text>
<text text-anchor="start" x="1010.5" y="-207.5" font-family="Helvetica,sans-Serif" font-size="10.00">/AliceO2Group/AliceO2</text>
<text text-anchor="start" x="1010.5" y="-196.5" font-family="Helvetica,sans-Serif" font-size="10.00">/Detectors/MUON/MID/Tracking</text>
<text text-anchor="middle" x="1081.5" y="-185.5" font-family="Helvetica,sans-Serif" font-size="10.00">/test/bench_Tracker.cxx</text>
</a>
</g>
</g>
<!-- Node1&#45;&gt;Node20 -->
<g id="edge37" class="edge"><title>Node1&#45;&gt;Node20</title>
<path fill="none" stroke="midnightblue" d="M1151.51,-347.13C1134.6,-312.92 1109.05,-261.231 1093.94,-230.67"/>
<polygon fill="midnightblue" stroke="midnightblue" points="1148.47,-348.87 1156.04,-356.283 1154.74,-345.768 1148.47,-348.87"/>
</g>
<!-- Node21 -->
<g id="node21" class="node"><title>Node21</title>
<g id="a_node21"><a xlink:href="../../da/de0/testTracker_8cxx.html" target="_top" xlink:title="Test tracking device for MID. ">
<polygon fill="none" stroke="black" points="1178.5,-178.5 1178.5,-230.5 1336.5,-230.5 1336.5,-178.5 1178.5,-178.5"/>
<text text-anchor="start" x="1186.5" y="-218.5" font-family="Helvetica,sans-Serif" font-size="10.00">/home/travis/build</text>
<text text-anchor="start" x="1186.5" y="-207.5" font-family="Helvetica,sans-Serif" font-size="10.00">/AliceO2Group/AliceO2</text>
<text text-anchor="start" x="1186.5" y="-196.5" font-family="Helvetica,sans-Serif" font-size="10.00">/Detectors/MUON/MID/Tracking</text>
<text text-anchor="middle" x="1257.5" y="-185.5" font-family="Helvetica,sans-Serif" font-size="10.00">/test/testTracker.cxx</text>
</a>
</g>
</g>
<!-- Node1&#45;&gt;Node21 -->
<g id="edge38" class="edge"><title>Node1&#45;&gt;Node21</title>
<path fill="none" stroke="midnightblue" d="M1185.88,-347.13C1203.18,-312.92 1229.32,-261.231 1244.77,-230.67"/>
<polygon fill="midnightblue" stroke="midnightblue" points="1182.64,-345.78 1181.25,-356.283 1188.89,-348.939 1182.64,-345.78"/>
</g>
<!-- Node22 -->
<g id="node22" class="node"><title>Node22</title>
<g id="a_node22"><a xlink:href="../../dc/d24/MpArea_8cxx.html" target="_top" xlink:title="Implementation of mapping area for MID. ">
<polygon fill="none" stroke="black" points="1360,-267.5 1360,-319.5 1503,-319.5 1503,-267.5 1360,-267.5"/>
<text text-anchor="start" x="1368" y="-307.5" font-family="Helvetica,sans-Serif" font-size="10.00">/home/travis/build</text>
<text text-anchor="start" x="1368" y="-296.5" font-family="Helvetica,sans-Serif" font-size="10.00">/AliceO2Group/AliceO2</text>
<text text-anchor="start" x="1368" y="-285.5" font-family="Helvetica,sans-Serif" font-size="10.00">/Detectors/MUON/MID/Base</text>
<text text-anchor="middle" x="1431.5" y="-274.5" font-family="Helvetica,sans-Serif" font-size="10.00">/src/MpArea.cxx</text>
</a>
</g>
</g>
<!-- Node1&#45;&gt;Node22 -->
<g id="edge30" class="edge"><title>Node1&#45;&gt;Node22</title>
<path fill="none" stroke="midnightblue" d="M1249.8,-354.607C1285.04,-342.95 1325.93,-329.421 1360,-318.154"/>
<polygon fill="midnightblue" stroke="midnightblue" points="1248.41,-351.378 1240.02,-357.842 1250.61,-358.024 1248.41,-351.378"/>
</g>
<!-- Node23 -->
<g id="node23" class="node"><title>Node23</title>
<g id="a_node23"><a xlink:href="../../d3/dde/PreClustersDE_8h.html" target="_top" xlink:title="Structure with pre&#45;clusters in the MID detection element. ">
<polygon fill="none" stroke="black" points="1521.5,-267.5 1521.5,-319.5 1715.5,-319.5 1715.5,-267.5 1521.5,-267.5"/>
<text text-anchor="start" x="1529.5" y="-307.5" font-family="Helvetica,sans-Serif" font-size="10.00">/home/travis/build</text>
<text text-anchor="start" x="1529.5" y="-296.5" font-family="Helvetica,sans-Serif" font-size="10.00">/AliceO2Group/AliceO2</text>
<text text-anchor="start" x="1529.5" y="-285.5" font-family="Helvetica,sans-Serif" font-size="10.00">/Detectors/MUON/MID/Clustering</text>
<text text-anchor="middle" x="1618.5" y="-274.5" font-family="Helvetica,sans-Serif" font-size="10.00">/include/MIDClustering/PreClustersDE.h</text>
</a>
</g>
</g>
<!-- Node1&#45;&gt;Node23 -->
<g id="edge34" class="edge"><title>Node1&#45;&gt;Node23</title>
<path fill="none" stroke="midnightblue" d="M1250.03,-368.215C1319.69,-356.548 1422.45,-338.578 1511.5,-320 1514.77,-319.317 1518.1,-318.609 1521.45,-317.882"/>
<polygon fill="midnightblue" stroke="midnightblue" points="1249.29,-364.791 1240,-369.89 1250.44,-371.695 1249.29,-364.791"/>
</g>
<!-- Node3 -->
<g id="node3" class="node"><title>Node3</title>
<g id="a_node3"><a xlink:href="../../d1/dbe/ChamberEfficiency_8cxx.html" target="_top" xlink:title="Implementation of the chamber efficiency for the MID RPC. ">
<polygon fill="none" stroke="black" points="161,-178.5 161,-230.5 304,-230.5 304,-178.5 161,-178.5"/>
<text text-anchor="start" x="169" y="-218.5" font-family="Helvetica,sans-Serif" font-size="10.00">/home/travis/build</text>
<text text-anchor="start" x="169" y="-207.5" font-family="Helvetica,sans-Serif" font-size="10.00">/AliceO2Group/AliceO2</text>
<text text-anchor="start" x="169" y="-196.5" font-family="Helvetica,sans-Serif" font-size="10.00">/Detectors/MUON/MID/Base</text>
<text text-anchor="middle" x="232.5" y="-185.5" font-family="Helvetica,sans-Serif" font-size="10.00">/src/ChamberEfficiency.cxx</text>
</a>
</g>
</g>
<!-- Node2&#45;&gt;Node3 -->
<g id="edge2" class="edge"><title>Node2&#45;&gt;Node3</title>
<path fill="none" stroke="midnightblue" d="M633.878,-283.859C551.956,-274.297 422.478,-256.751 312.5,-231 309.803,-230.369 307.066,-229.69 304.309,-228.976"/>
<polygon fill="midnightblue" stroke="midnightblue" points="633.541,-287.344 643.876,-285.014 634.344,-280.39 633.541,-287.344"/>
</g>
<!-- Node4 -->
<g id="node4" class="node"><title>Node4</title>
<g id="a_node4"><a xlink:href="../../d6/d73/MUON_2MID_2Base_2src_2Mapping_8cxx.html" target="_top" xlink:title="Implementation of mapping for MID. ">
<polygon fill="none" stroke="black" points="322,-178.5 322,-230.5 465,-230.5 465,-178.5 322,-178.5"/>
<text text-anchor="start" x="330" y="-218.5" font-family="Helvetica,sans-Serif" font-size="10.00">/home/travis/build</text>
<text text-anchor="start" x="330" y="-207.5" font-family="Helvetica,sans-Serif" font-size="10.00">/AliceO2Group/AliceO2</text>
<text text-anchor="start" x="330" y="-196.5" font-family="Helvetica,sans-Serif" font-size="10.00">/Detectors/MUON/MID/Base</text>
<text text-anchor="middle" x="393.5" y="-185.5" font-family="Helvetica,sans-Serif" font-size="10.00">/src/Mapping.cxx</text>
</a>
</g>
</g>
<!-- Node2&#45;&gt;Node4 -->
<g id="edge3" class="edge"><title>Node2&#45;&gt;Node4</title>
<path fill="none" stroke="midnightblue" d="M633.992,-271.973C588.443,-260.323 530.705,-245.259 479.5,-231 474.849,-229.705 470.064,-228.35 465.245,-226.968"/>
<polygon fill="midnightblue" stroke="midnightblue" points="633.259,-275.398 643.814,-274.48 634.991,-268.615 633.259,-275.398"/>
</g>
<!-- Node2&#45;&gt;Node5 -->
<g id="edge4" class="edge"><title>Node2&#45;&gt;Node5</title>
<path fill="none" stroke="midnightblue" d="M633.93,-288.728C523.53,-282.463 320.869,-266.85 151.5,-231 148.79,-230.426 146.042,-229.798 143.276,-229.125"/>
<polygon fill="midnightblue" stroke="midnightblue" points="633.817,-292.227 643.996,-289.288 634.206,-285.238 633.817,-292.227"/>
</g>
<!-- Node2&#45;&gt;Node6 -->
<g id="edge5" class="edge"><title>Node2&#45;&gt;Node6</title>
<path fill="none" stroke="midnightblue" d="M773.17,-262.635C793.311,-252.205 815.7,-240.611 835.017,-230.607"/>
<polygon fill="midnightblue" stroke="midnightblue" points="771.363,-259.629 764.093,-267.336 774.582,-265.845 771.363,-259.629"/>
</g>
<!-- Node9 -->
<g id="node9" class="node"><title>Node9</title>
<g id="a_node9"><a xlink:href="../../d2/d12/bench__Clusterizer_8cxx.html" target="_top" xlink:title="Benchmark clustering device for MID. ">
<polygon fill="none" stroke="black" points="836,-0.5 836,-52.5 1001,-52.5 1001,-0.5 836,-0.5"/>
<text text-anchor="start" x="844" y="-40.5" font-family="Helvetica,sans-Serif" font-size="10.00">/home/travis/build</text>
<text text-anchor="start" x="844" y="-29.5" font-family="Helvetica,sans-Serif" font-size="10.00">/AliceO2Group/AliceO2</text>
<text text-anchor="start" x="844" y="-18.5" font-family="Helvetica,sans-Serif" font-size="10.00">/Detectors/MUON/MID/Clustering</text>
<text text-anchor="middle" x="918.5" y="-7.5" font-family="Helvetica,sans-Serif" font-size="10.00">/test/bench_Clusterizer.cxx</text>
</a>
</g>
</g>
<!-- Node2&#45;&gt;Node9 -->
<g id="edge22" class="edge"><title>Node2&#45;&gt;Node9</title>
<path fill="none" stroke="midnightblue" d="M712.799,-257.099C712.723,-232.773 716.325,-200.867 732.5,-178 752.248,-150.082 772.841,-162.108 800.5,-142 837.211,-115.311 873.839,-77.6055 896.326,-52.8636"/>
<polygon fill="midnightblue" stroke="midnightblue" points="709.306,-257.433 713.045,-267.346 716.304,-257.265 709.306,-257.433"/>
</g>
<!-- Node11 -->
<g id="node11" class="node"><title>Node11</title>
<g id="a_node11"><a xlink:href="../../d6/d45/testSimulation_8cxx.html" target="_top" xlink:title="/home/travis/build\l/AliceO2Group/AliceO2\l/Detectors/MUON/MID/Simulation\l/test/testSimulation.cxx">
<polygon fill="none" stroke="black" points="468,-0.5 468,-52.5 635,-52.5 635,-0.5 468,-0.5"/>
<text text-anchor="start" x="476" y="-40.5" font-family="Helvetica,sans-Serif" font-size="10.00">/home/travis/build</text>
<text text-anchor="start" x="476" y="-29.5" font-family="Helvetica,sans-Serif" font-size="10.00">/AliceO2Group/AliceO2</text>
<text text-anchor="start" x="476" y="-18.5" font-family="Helvetica,sans-Serif" font-size="10.00">/Detectors/MUON/MID/Simulation</text>
<text text-anchor="middle" x="551.5" y="-7.5" font-family="Helvetica,sans-Serif" font-size="10.00">/test/testSimulation.cxx</text>
</a>
</g>
</g>
<!-- Node2&#45;&gt;Node11 -->
<g id="edge27" class="edge"><title>Node2&#45;&gt;Node11</title>
<path fill="none" stroke="midnightblue" d="M633.96,-281.255C594.057,-272.605 547.082,-257.442 511.5,-231 506.739,-227.462 454.212,-147.68 452.5,-142 445.703,-119.446 441.053,-109.587 452.5,-89 461.005,-73.7033 475.066,-61.7224 489.956,-52.5629"/>
<polygon fill="midnightblue" stroke="midnightblue" points="633.44,-284.721 643.941,-283.316 634.856,-277.866 633.44,-284.721"/>
</g>
<!-- Node15 -->
<g id="node15" class="node"><title>Node15</title>
<g id="a_node15"><a xlink:href="../../d7/d1a/PreClusterizer_8h.html" target="_top" xlink:title="Pre&#45;cluster reconstruction algorithm for MID. ">
<polygon fill="none" stroke="black" points="885.5,-89.5 885.5,-141.5 1075.5,-141.5 1075.5,-89.5 885.5,-89.5"/>
<text text-anchor="start" x="893.5" y="-129.5" font-family="Helvetica,sans-Serif" font-size="10.00">/home/travis/build</text>
<text text-anchor="start" x="893.5" y="-118.5" font-family="Helvetica,sans-Serif" font-size="10.00">/AliceO2Group/AliceO2</text>
<text text-anchor="start" x="893.5" y="-107.5" font-family="Helvetica,sans-Serif" font-size="10.00">/Detectors/MUON/MID/Clustering</text>
<text text-anchor="middle" x="980.5" y="-96.5" font-family="Helvetica,sans-Serif" font-size="10.00">/include/MIDClustering/PreClusterizer.h</text>
</a>
</g>
</g>
<!-- Node2&#45;&gt;Node15 -->
<g id="edge15" class="edge"><title>Node2&#45;&gt;Node15</title>
<path fill="none" stroke="midnightblue" d="M724.637,-257.678C733.054,-232.167 748.024,-198.541 772.5,-178 781.857,-170.148 835.16,-154.457 885.46,-140.89"/>
<polygon fill="midnightblue" stroke="midnightblue" points="721.254,-256.77 721.625,-267.358 727.938,-258.85 721.254,-256.77"/>
</g>
<!-- Node17 -->
<g id="node17" class="node"><title>Node17</title>
<g id="a_node17"><a xlink:href="../../da/de1/MUON_2MID_2Simulation_2include_2MIDSimulation_2Digitizer_8h.html" target="_top" xlink:title="Digitizer for MID. ">
<polygon fill="none" stroke="black" points="521,-178.5 521,-230.5 688,-230.5 688,-178.5 521,-178.5"/>
<text text-anchor="start" x="529" y="-218.5" font-family="Helvetica,sans-Serif" font-size="10.00">/home/travis/build</text>
<text text-anchor="start" x="529" y="-207.5" font-family="Helvetica,sans-Serif" font-size="10.00">/AliceO2Group/AliceO2</text>
<text text-anchor="start" x="529" y="-196.5" font-family="Helvetica,sans-Serif" font-size="10.00">/Detectors/MUON/MID/Simulation</text>
<text text-anchor="middle" x="604.5" y="-185.5" font-family="Helvetica,sans-Serif" font-size="10.00">/include/MIDSimulation/Digitizer.h</text>
</a>
</g>
</g>
<!-- Node2&#45;&gt;Node17 -->
<g id="edge23" class="edge"><title>Node2&#45;&gt;Node17</title>
<path fill="none" stroke="midnightblue" d="M675.226,-260.934C662.496,-250.956 648.607,-240.07 636.534,-230.607"/>
<polygon fill="midnightblue" stroke="midnightblue" points="673.365,-263.922 683.394,-267.336 677.683,-258.412 673.365,-263.922"/>
</g>
<!-- Node2&#45;&gt;Node20 -->
<g id="edge28" class="edge"><title>Node2&#45;&gt;Node20</title>
<path fill="none" stroke="midnightblue" d="M797.014,-275.91C852.596,-264.244 927.759,-247.778 993.5,-231 996.428,-230.253 999.407,-229.476 1002.41,-228.678"/>
<polygon fill="midnightblue" stroke="midnightblue" points="796.292,-272.485 787.22,-277.958 797.725,-279.337 796.292,-272.485"/>
</g>
<!-- Node2&#45;&gt;Node21 -->
<g id="edge29" class="edge"><title>Node2&#45;&gt;Node21</title>
<path fill="none" stroke="midnightblue" d="M797.239,-285.092C888.614,-275.964 1040.67,-258.235 1169.5,-231 1172.46,-230.375 1175.46,-229.702 1178.48,-228.992"/>
<polygon fill="midnightblue" stroke="midnightblue" points="796.83,-281.616 787.223,-286.083 797.519,-288.582 796.83,-281.616"/>
</g>
<!-- Node6&#45;&gt;Node7 -->
<g id="edge6" class="edge"><title>Node6&#45;&gt;Node7</title>
<path fill="none" stroke="midnightblue" d="M995.047,-177.799C1116.14,-156.586 1150.15,-165.037 1267.5,-142 1270.58,-141.396 1273.7,-140.751 1276.85,-140.074"/>
<polygon fill="midnightblue" stroke="midnightblue" points="994.244,-174.387 985.014,-179.589 995.473,-181.278 994.244,-174.387"/>
</g>
<!-- Node6&#45;&gt;Node11 -->
<g id="edge14" class="edge"><title>Node6&#45;&gt;Node11</title>
<path fill="none" stroke="midnightblue" d="M867.273,-169.235C853.207,-143.268 830.408,-108.787 800.5,-89 740.795,-49.4997 712.9,-70.5652 643.5,-53 640.768,-52.3087 637.994,-51.5967 635.194,-50.8699"/>
<polygon fill="midnightblue" stroke="midnightblue" points="864.318,-171.137 872.057,-178.373 870.52,-167.891 864.318,-171.137"/>
</g>
<!-- Node14 -->
<g id="node14" class="node"><title>Node14</title>
<g id="a_node14"><a xlink:href="../../de/dcf/PreClusterHelper_8cxx.html" target="_top" xlink:title="Implementation of the pre&#45;clusters for MID. ">
<polygon fill="none" stroke="black" points="1094,-89.5 1094,-141.5 1259,-141.5 1259,-89.5 1094,-89.5"/>
<text text-anchor="start" x="1102" y="-129.5" font-family="Helvetica,sans-Serif" font-size="10.00">/home/travis/build</text>
<text text-anchor="start" x="1102" y="-118.5" font-family="Helvetica,sans-Serif" font-size="10.00">/AliceO2Group/AliceO2</text>
<text text-anchor="start" x="1102" y="-107.5" font-family="Helvetica,sans-Serif" font-size="10.00">/Detectors/MUON/MID/Clustering</text>
<text text-anchor="middle" x="1176.5" y="-96.5" font-family="Helvetica,sans-Serif" font-size="10.00">/src/PreClusterHelper.cxx</text>
</a>
</g>
</g>
<!-- Node6&#45;&gt;Node14 -->
<g id="edge13" class="edge"><title>Node6&#45;&gt;Node14</title>
<path fill="none" stroke="midnightblue" d="M977.732,-175.52C1015.07,-164.433 1057.62,-151.798 1093.75,-141.071"/>
<polygon fill="midnightblue" stroke="midnightblue" points="976.445,-172.251 967.855,-178.453 978.437,-178.961 976.445,-172.251"/>
</g>
<!-- Node8 -->
<g id="node8" class="node"><title>Node8</title>
<g id="a_node8"><a xlink:href="../../d9/dd5/Clusterizer_8cxx.html" target="_top" xlink:title="Implementation of the cluster reconstruction algorithm for MID. ">
<polygon fill="none" stroke="black" points="1563,-0.5 1563,-52.5 1728,-52.5 1728,-0.5 1563,-0.5"/>
<text text-anchor="start" x="1571" y="-40.5" font-family="Helvetica,sans-Serif" font-size="10.00">/home/travis/build</text>
<text text-anchor="start" x="1571" y="-29.5" font-family="Helvetica,sans-Serif" font-size="10.00">/AliceO2Group/AliceO2</text>
<text text-anchor="start" x="1571" y="-18.5" font-family="Helvetica,sans-Serif" font-size="10.00">/Detectors/MUON/MID/Clustering</text>
<text text-anchor="middle" x="1645.5" y="-7.5" font-family="Helvetica,sans-Serif" font-size="10.00">/src/Clusterizer.cxx</text>
</a>
</g>
</g>
<!-- Node7&#45;&gt;Node8 -->
<g id="edge7" class="edge"><title>Node7&#45;&gt;Node8</title>
<path fill="none" stroke="midnightblue" d="M1455.2,-86.4183C1490.43,-75.5107 1530.46,-63.1174 1564.68,-52.5211"/>
<polygon fill="midnightblue" stroke="midnightblue" points="1453.92,-83.1516 1445.4,-89.4527 1455.99,-89.8385 1453.92,-83.1516"/>
</g>
<!-- Node7&#45;&gt;Node9 -->
<g id="edge8" class="edge"><title>Node7&#45;&gt;Node9</title>
<path fill="none" stroke="midnightblue" d="M1267,-89.0138C1152.66,-66.8287 1120.34,-75.8127 1010.5,-53 1007.42,-52.3596 1004.28,-51.6738 1001.13,-50.9529"/>
<polygon fill="midnightblue" stroke="midnightblue" points="1266.35,-92.4533 1276.84,-90.9601 1267.71,-85.5863 1266.35,-92.4533"/>
</g>
<!-- Node10 -->
<g id="node10" class="node"><title>Node10</title>
<g id="a_node10"><a xlink:href="../../d6/dee/testClusterizer_8cxx.html" target="_top" xlink:title="Test clustering device for MID. ">
<polygon fill="none" stroke="black" points="1380,-0.5 1380,-52.5 1545,-52.5 1545,-0.5 1380,-0.5"/>
<text text-anchor="start" x="1388" y="-40.5" font-family="Helvetica,sans-Serif" font-size="10.00">/home/travis/build</text>
<text text-anchor="start" x="1388" y="-29.5" font-family="Helvetica,sans-Serif" font-size="10.00">/AliceO2Group/AliceO2</text>
<text text-anchor="start" x="1388" y="-18.5" font-family="Helvetica,sans-Serif" font-size="10.00">/Detectors/MUON/MID/Clustering</text>
<text text-anchor="middle" x="1462.5" y="-7.5" font-family="Helvetica,sans-Serif" font-size="10.00">/test/testClusterizer.cxx</text>
</a>
</g>
</g>
<!-- Node7&#45;&gt;Node10 -->
<g id="edge9" class="edge"><title>Node7&#45;&gt;Node10</title>
<path fill="none" stroke="midnightblue" d="M1400.38,-82.6489C1411.53,-72.749 1423.66,-61.9801 1434.22,-52.6075"/>
<polygon fill="midnightblue" stroke="midnightblue" points="1398,-80.0796 1392.85,-89.336 1402.65,-85.3145 1398,-80.0796"/>
</g>
<!-- Node7&#45;&gt;Node11 -->
<g id="edge10" class="edge"><title>Node7&#45;&gt;Node11</title>
<path fill="none" stroke="midnightblue" d="M1267.01,-89.0862C991.339,-46.6955 914.355,-97.8248 643.5,-53 640.72,-52.54 637.904,-52.0286 635.068,-51.4747"/>
<polygon fill="midnightblue" stroke="midnightblue" points="1266.48,-92.5458 1276.9,-90.634 1267.56,-85.63 1266.48,-92.5458"/>
</g>
<!-- Node12 -->
<g id="node12" class="node"><title>Node12</title>
<g id="a_node12"><a xlink:href="../../d3/d1e/ClusterizerMCSpec_8cxx.html" target="_top" xlink:title="Data processor spec for MID MC clustering device. ">
<polygon fill="none" stroke="black" points="1019.5,-0.5 1019.5,-52.5 1181.5,-52.5 1181.5,-0.5 1019.5,-0.5"/>
<text text-anchor="start" x="1027.5" y="-40.5" font-family="Helvetica,sans-Serif" font-size="10.00">/home/travis/build</text>
<text text-anchor="start" x="1027.5" y="-29.5" font-family="Helvetica,sans-Serif" font-size="10.00">/AliceO2Group/AliceO2</text>
<text text-anchor="start" x="1027.5" y="-18.5" font-family="Helvetica,sans-Serif" font-size="10.00">/Detectors/MUON/MID/Workflow</text>
<text text-anchor="middle" x="1100.5" y="-7.5" font-family="Helvetica,sans-Serif" font-size="10.00">/src/ClusterizerMCSpec.cxx</text>
</a>
</g>
</g>
<!-- Node7&#45;&gt;Node12 -->
<g id="edge11" class="edge"><title>Node7&#45;&gt;Node12</title>
<path fill="none" stroke="midnightblue" d="M1278.86,-86.2784C1245.87,-75.4048 1208.44,-63.0721 1176.43,-52.5211"/>
<polygon fill="midnightblue" stroke="midnightblue" points="1277.9,-89.6469 1288.49,-89.4527 1280.09,-82.9986 1277.9,-89.6469"/>
</g>
<!-- Node13 -->
<g id="node13" class="node"><title>Node13</title>
<g id="a_node13"><a xlink:href="../../d1/db3/ClusterizerSpec_8cxx.html" target="_top" xlink:title="Data processor spec for MID clustering device. ">
<polygon fill="none" stroke="black" points="1199.5,-0.5 1199.5,-52.5 1361.5,-52.5 1361.5,-0.5 1199.5,-0.5"/>
<text text-anchor="start" x="1207.5" y="-40.5" font-family="Helvetica,sans-Serif" font-size="10.00">/home/travis/build</text>
<text text-anchor="start" x="1207.5" y="-29.5" font-family="Helvetica,sans-Serif" font-size="10.00">/AliceO2Group/AliceO2</text>
<text text-anchor="start" x="1207.5" y="-18.5" font-family="Helvetica,sans-Serif" font-size="10.00">/Detectors/MUON/MID/Workflow</text>
<text text-anchor="middle" x="1280.5" y="-7.5" font-family="Helvetica,sans-Serif" font-size="10.00">/src/ClusterizerSpec.cxx</text>
</a>
</g>
</g>
<!-- Node7&#45;&gt;Node13 -->
<g id="edge12" class="edge"><title>Node7&#45;&gt;Node13</title>
<path fill="none" stroke="midnightblue" d="M1333.19,-82.0768C1323.79,-72.3353 1313.62,-61.7998 1304.74,-52.6075"/>
<polygon fill="midnightblue" stroke="midnightblue" points="1330.74,-84.573 1340.2,-89.336 1335.78,-79.7109 1330.74,-84.573"/>
</g>
<!-- Node15&#45;&gt;Node9 -->
<g id="edge17" class="edge"><title>Node15&#45;&gt;Node9</title>
<path fill="none" stroke="midnightblue" d="M956.575,-80.9272C949.864,-71.511 942.687,-61.4393 936.393,-52.6075"/>
<polygon fill="midnightblue" stroke="midnightblue" points="953.913,-83.2236 962.567,-89.336 959.614,-79.1611 953.913,-83.2236"/>
</g>
<!-- Node15&#45;&gt;Node10 -->
<g id="edge18" class="edge"><title>Node15&#45;&gt;Node10</title>
<path fill="none" stroke="midnightblue" d="M1085.7,-88.8789C1212.28,-66.3158 1248.07,-77.5369 1370.5,-53 1373.59,-52.3812 1376.72,-51.7137 1379.88,-51.0083"/>
<polygon fill="midnightblue" stroke="midnightblue" points="1084.83,-85.4794 1075.62,-90.7123 1086.08,-92.3664 1084.83,-85.4794"/>
</g>
<!-- Node15&#45;&gt;Node11 -->
<g id="edge19" class="edge"><title>Node15&#45;&gt;Node11</title>
<path fill="none" stroke="midnightblue" d="M875.332,-95.7978C785.046,-79.661 665.989,-58.1578 643.5,-53 640.754,-52.3701 637.966,-51.7115 635.156,-51.0306"/>
<polygon fill="midnightblue" stroke="midnightblue" points="874.898,-99.2757 885.358,-97.5889 876.129,-92.3848 874.898,-99.2757"/>
</g>
<!-- Node15&#45;&gt;Node12 -->
<g id="edge20" class="edge"><title>Node15&#45;&gt;Node12</title>
<path fill="none" stroke="midnightblue" d="M1023.65,-83.219C1037.52,-73.1637 1052.69,-62.1603 1065.87,-52.6075"/>
<polygon fill="midnightblue" stroke="midnightblue" points="1021.25,-80.6326 1015.21,-89.336 1025.36,-86.2999 1021.25,-80.6326"/>
</g>
<!-- Node15&#45;&gt;Node13 -->
<g id="edge21" class="edge"><title>Node15&#45;&gt;Node13</title>
<path fill="none" stroke="midnightblue" d="M1076.54,-86.6497C1116.12,-75.1706 1161.49,-62.0139 1199.37,-51.028"/>
<polygon fill="midnightblue" stroke="midnightblue" points="1075.5,-83.3059 1066.87,-89.4527 1077.45,-90.0289 1075.5,-83.3059"/>
</g>
<!-- Node16 -->
<g id="node16" class="node"><title>Node16</title>
<g id="a_node16"><a xlink:href="../../db/d2e/PreClusterizer_8cxx.html" target="_top" xlink:title="Implementation of the pre&#45;cluster reconstruction algorithm for MID. ">
<polygon fill="none" stroke="black" points="653,-0.5 653,-52.5 818,-52.5 818,-0.5 653,-0.5"/>
<text text-anchor="start" x="661" y="-40.5" font-family="Helvetica,sans-Serif" font-size="10.00">/home/travis/build</text>
<text text-anchor="start" x="661" y="-29.5" font-family="Helvetica,sans-Serif" font-size="10.00">/AliceO2Group/AliceO2</text>
<text text-anchor="start" x="661" y="-18.5" font-family="Helvetica,sans-Serif" font-size="10.00">/Detectors/MUON/MID/Clustering</text>
<text text-anchor="middle" x="735.5" y="-7.5" font-family="Helvetica,sans-Serif" font-size="10.00">/src/PreClusterizer.cxx</text>
</a>
</g>
</g>
<!-- Node15&#45;&gt;Node16 -->
<g id="edge16" class="edge"><title>Node15&#45;&gt;Node16</title>
<path fill="none" stroke="midnightblue" d="M900.236,-85.9981C869.808,-75.1932 835.419,-62.9816 805.962,-52.5211"/>
<polygon fill="midnightblue" stroke="midnightblue" points="899.37,-89.4046 909.965,-89.4527 901.712,-82.8081 899.37,-89.4046"/>
</g>
<!-- Node17&#45;&gt;Node11 -->
<g id="edge25" class="edge"><title>Node17&#45;&gt;Node11</title>
<path fill="none" stroke="midnightblue" d="M518.455,-174.579C493.787,-164.453 471.611,-152.89 464.5,-142 451.622,-122.277 453.67,-109.918 464.5,-89 472.239,-74.0523 485.469,-61.9605 499.309,-52.5829"/>
<polygon fill="midnightblue" stroke="midnightblue" points="517.42,-177.934 528.005,-178.385 520.011,-171.431 517.42,-177.934"/>
</g>
<!-- Node18 -->
<g id="node18" class="node"><title>Node18</title>
<g id="a_node18"><a xlink:href="../../d6/df9/MUON_2MID_2Simulation_2src_2Digitizer_8cxx.html" target="_top" xlink:title="Implementation of the digitizer for MID. ">
<polygon fill="none" stroke="black" points="474,-89.5 474,-141.5 641,-141.5 641,-89.5 474,-89.5"/>
<text text-anchor="start" x="482" y="-129.5" font-family="Helvetica,sans-Serif" font-size="10.00">/home/travis/build</text>
<text text-anchor="start" x="482" y="-118.5" font-family="Helvetica,sans-Serif" font-size="10.00">/AliceO2Group/AliceO2</text>
<text text-anchor="start" x="482" y="-107.5" font-family="Helvetica,sans-Serif" font-size="10.00">/Detectors/MUON/MID/Simulation</text>
<text text-anchor="middle" x="557.5" y="-96.5" font-family="Helvetica,sans-Serif" font-size="10.00">/src/Digitizer.cxx</text>
</a>
</g>
</g>
<!-- Node17&#45;&gt;Node18 -->
<g id="edge24" class="edge"><title>Node17&#45;&gt;Node18</title>
<path fill="none" stroke="midnightblue" d="M586.051,-169.35C581.054,-160.1 575.738,-150.259 571.064,-141.607"/>
<polygon fill="midnightblue" stroke="midnightblue" points="583.073,-171.201 590.906,-178.336 589.232,-167.874 583.073,-171.201"/>
</g>
<!-- Node19 -->
<g id="node19" class="node"><title>Node19</title>
<g id="a_node19"><a xlink:href="../../d4/dd3/MIDDigitizerSpec_8cxx.html" target="_top" xlink:title="/home/travis/build\l/AliceO2Group/AliceO2\l/Steer/DigitizerWorkflow\l/src/MIDDigitizerSpec.cxx">
<polygon fill="none" stroke="black" points="659.5,-89.5 659.5,-141.5 791.5,-141.5 791.5,-89.5 659.5,-89.5"/>
<text text-anchor="start" x="667.5" y="-129.5" font-family="Helvetica,sans-Serif" font-size="10.00">/home/travis/build</text>
<text text-anchor="start" x="667.5" y="-118.5" font-family="Helvetica,sans-Serif" font-size="10.00">/AliceO2Group/AliceO2</text>
<text text-anchor="start" x="667.5" y="-107.5" font-family="Helvetica,sans-Serif" font-size="10.00">/Steer/DigitizerWorkflow</text>
<text text-anchor="middle" x="725.5" y="-96.5" font-family="Helvetica,sans-Serif" font-size="10.00">/src/MIDDigitizerSpec.cxx</text>
</a>
</g>
</g>
<!-- Node17&#45;&gt;Node19 -->
<g id="edge26" class="edge"><title>Node17&#45;&gt;Node19</title>
<path fill="none" stroke="midnightblue" d="M648.006,-172.219C661.991,-162.164 677.294,-151.16 690.58,-141.607"/>
<polygon fill="midnightblue" stroke="midnightblue" points="645.574,-169.657 639.498,-178.336 649.661,-175.34 645.574,-169.657"/>
</g>
<!-- Node23&#45;&gt;Node7 -->
<g id="edge35" class="edge"><title>Node23&#45;&gt;Node7</title>
<path fill="none" stroke="midnightblue" d="M1622.03,-257.047C1622.51,-231.939 1618.75,-199.1 1599.5,-178 1579.46,-156.037 1510.21,-139.611 1452.03,-129.285"/>
<polygon fill="midnightblue" stroke="midnightblue" points="1618.52,-257.139 1621.6,-267.278 1625.52,-257.435 1618.52,-257.139"/>
</g>
<!-- Node24 -->
<g id="node24" class="node"><title>Node24</title>
<g id="a_node24"><a xlink:href="../../dd/db4/PreClustersDE_8cxx.html" target="_top" xlink:title="Structure with pre&#45;clusters in the MID detection element. ">
<polygon fill="none" stroke="black" points="1425,-178.5 1425,-230.5 1590,-230.5 1590,-178.5 1425,-178.5"/>
<text text-anchor="start" x="1433" y="-218.5" font-family="Helvetica,sans-Serif" font-size="10.00">/home/travis/build</text>
<text text-anchor="start" x="1433" y="-207.5" font-family="Helvetica,sans-Serif" font-size="10.00">/AliceO2Group/AliceO2</text>
<text text-anchor="start" x="1433" y="-196.5" font-family="Helvetica,sans-Serif" font-size="10.00">/Detectors/MUON/MID/Clustering</text>
<text text-anchor="middle" x="1507.5" y="-185.5" font-family="Helvetica,sans-Serif" font-size="10.00">/src/PreClustersDE.cxx</text>
</a>
</g>
</g>
<!-- Node23&#45;&gt;Node24 -->
<g id="edge36" class="edge"><title>Node23&#45;&gt;Node24</title>
<path fill="none" stroke="midnightblue" d="M1578.23,-260.934C1565.5,-250.956 1551.61,-240.07 1539.53,-230.607"/>
<polygon fill="midnightblue" stroke="midnightblue" points="1576.36,-263.922 1586.39,-267.336 1580.68,-258.412 1576.36,-263.922"/>
</g>
</g>
</svg>
