<?xml version="1.0" encoding="UTF-8" standalone="no"?>
<!DOCTYPE svg PUBLIC "-//W3C//DTD SVG 1.1//EN"
 "http://www.w3.org/Graphics/SVG/1.1/DTD/svg11.dtd">
<!-- Generated by graphviz version 2.38.0 (20140413.2041)
 -->
<!-- Title: o2::base::DCAFitter::TrcAuxPar Pages: 1 -->
<svg width="112pt" height="336pt"
 viewBox="0.00 0.00 112.00 336.00" xmlns="http://www.w3.org/2000/svg" xmlns:xlink="http://www.w3.org/1999/xlink">
<g id="graph0" class="graph" transform="scale(1 1) rotate(0) translate(4 332)">
<title>o2::base::DCAFitter::TrcAuxPar</title>
<!-- Node1 -->
<g id="node1" class="node"><title>Node1</title>
<polygon fill="#bfbfbf" stroke="black" points="0,-0.5 0,-145.5 104,-145.5 104,-0.5 0,-0.5"/>
<text text-anchor="start" x="8" y="-133.5" font-family="Helvetica,sans-Serif" font-size="10.00">o2::base::DCAFitter</text>
<text text-anchor="middle" x="52" y="-122.5" font-family="Helvetica,sans-Serif" font-size="10.00">::TrcAuxPar</text>
<polyline fill="none" stroke="black" points="0,-115.5 104,-115.5 "/>
<text text-anchor="middle" x="52" y="-103.5" font-family="Helvetica,sans-Serif" font-size="10.00"> </text>
<polyline fill="none" stroke="black" points="0,-96.5 104,-96.5 "/>
<text text-anchor="start" x="8" y="-84.5" font-family="Helvetica,sans-Serif" font-size="10.00">+ TrcAuxPar()</text>
<text text-anchor="start" x="8" y="-73.5" font-family="Helvetica,sans-Serif" font-size="10.00">+ TrcAuxPar()</text>
<text text-anchor="start" x="8" y="-62.5" font-family="Helvetica,sans-Serif" font-size="10.00">+ set()</text>
<text text-anchor="start" x="8" y="-51.5" font-family="Helvetica,sans-Serif" font-size="10.00">+ setRCen()</text>
<text text-anchor="start" x="8" y="-40.5" font-family="Helvetica,sans-Serif" font-size="10.00">+ glo2loc()</text>
<text text-anchor="start" x="8" y="-29.5" font-family="Helvetica,sans-Serif" font-size="10.00">+ loc2glo()</text>
<text text-anchor="start" x="8" y="-18.5" font-family="Helvetica,sans-Serif" font-size="10.00">+ glo2loc()</text>
<text text-anchor="start" x="8" y="-7.5" font-family="Helvetica,sans-Serif" font-size="10.00">+ loc2glo()</text>
</g>
<!-- Node2 -->
<g id="node2" class="node"><title>Node2</title>
<polygon fill="none" stroke="#bfbfbf" points="29.5,-270.5 29.5,-327.5 74.5,-327.5 74.5,-270.5 29.5,-270.5"/>
<text text-anchor="middle" x="52" y="-315.5" font-family="Helvetica,sans-Serif" font-size="10.00">double</text>
<polyline fill="none" stroke="#bfbfbf" points="29.5,-308.5 74.5,-308.5 "/>
<text text-anchor="middle" x="52" y="-296.5" font-family="Helvetica,sans-Serif" font-size="10.00"> </text>
<polyline fill="none" stroke="#bfbfbf" points="29.5,-289.5 74.5,-289.5 "/>
<text text-anchor="middle" x="52" y="-277.5" font-family="Helvetica,sans-Serif" font-size="10.00"> </text>
</g>
<!-- Node2&#45;&gt;Node1 -->
<g id="edge1" class="edge"><title>Node2&#45;&gt;Node1</title>
<path fill="none" stroke="#404040" d="M52,-270.083C52,-242.024 52,-197.372 52,-157.762"/>
<polygon fill="none" stroke="#404040" points="52.0001,-157.655 48,-151.655 52,-145.655 56,-151.655 52.0001,-157.655"/>
<text text-anchor="middle" x="67" y="-244" font-family="Helvetica,sans-Serif" font-size="10.00"> +r</text>
<text text-anchor="middle" x="67" y="-233" font-family="Helvetica,sans-Serif" font-size="10.00">+s</text>
<text text-anchor="middle" x="67" y="-222" font-family="Helvetica,sans-Serif" font-size="10.00">+c</text>
<text text-anchor="middle" x="67" y="-211" font-family="Helvetica,sans-Serif" font-size="10.00">+cs</text>
<text text-anchor="middle" x="67" y="-200" font-family="Helvetica,sans-Serif" font-size="10.00">+ss</text>
<text text-anchor="middle" x="67" y="-189" font-family="Helvetica,sans-Serif" font-size="10.00">+cc</text>
<text text-anchor="middle" x="67" y="-178" font-family="Helvetica,sans-Serif" font-size="10.00">+yCen</text>
<text text-anchor="middle" x="67" y="-167" font-family="Helvetica,sans-Serif" font-size="10.00">+xCen</text>
</g>
</g>
</svg>
