<?xml version="1.0" encoding="UTF-8" standalone="no"?>
<!DOCTYPE svg PUBLIC "-//W3C//DTD SVG 1.1//EN"
 "http://www.w3.org/Graphics/SVG/1.1/DTD/svg11.dtd">
<!-- Generated by graphviz version 2.38.0 (20140413.2041)
 -->
<!-- Title: stbrp_context Pages: 1 -->
<svg width="196pt" height="342pt"
 viewBox="0.00 0.00 195.50 342.00" xmlns="http://www.w3.org/2000/svg" xmlns:xlink="http://www.w3.org/1999/xlink">
<g id="graph0" class="graph" transform="scale(1 1) rotate(0) translate(4 338)">
<title>stbrp_context</title>
<!-- Node1 -->
<g id="node1" class="node"><title>Node1</title>
<polygon fill="#bfbfbf" stroke="black" points="63.5,-0.5 63.5,-57.5 139.5,-57.5 139.5,-0.5 63.5,-0.5"/>
<text text-anchor="middle" x="101.5" y="-45.5" font-family="Helvetica,sans-Serif" font-size="10.00">stbrp_context</text>
<polyline fill="none" stroke="black" points="63.5,-38.5 139.5,-38.5 "/>
<text text-anchor="middle" x="101.5" y="-26.5" font-family="Helvetica,sans-Serif" font-size="10.00"> </text>
<polyline fill="none" stroke="black" points="63.5,-19.5 139.5,-19.5 "/>
<text text-anchor="middle" x="101.5" y="-7.5" font-family="Helvetica,sans-Serif" font-size="10.00"> </text>
</g>
<!-- Node2 -->
<g id="node2" class="node"><title>Node2</title>
<g id="a_node2"><a xlink:href="../../d0/dbb/structstbrp__node.html" target="_top" xlink:title="{stbrp_node\n||}">
<polygon fill="none" stroke="black" points="0,-160.5 0,-217.5 65,-217.5 65,-160.5 0,-160.5"/>
<text text-anchor="middle" x="32.5" y="-205.5" font-family="Helvetica,sans-Serif" font-size="10.00">stbrp_node</text>
<polyline fill="none" stroke="black" points="0,-198.5 65,-198.5 "/>
<text text-anchor="middle" x="32.5" y="-186.5" font-family="Helvetica,sans-Serif" font-size="10.00"> </text>
<polyline fill="none" stroke="black" points="0,-179.5 65,-179.5 "/>
<text text-anchor="middle" x="32.5" y="-167.5" font-family="Helvetica,sans-Serif" font-size="10.00"> </text>
</a>
</g>
</g>
<!-- Node2&#45;&gt;Node1 -->
<g id="edge1" class="edge"><title>Node2&#45;&gt;Node1</title>
<path fill="none" stroke="#404040" d="M31.9297,-160.116C32.5824,-136.396 36.2919,-102.124 50.5,-76 52.1824,-72.9067 54.1552,-69.9149 56.3292,-67.0424"/>
<polygon fill="none" stroke="#404040" points="56.5104,-66.8332 57.4141,-59.6789 64.3656,-57.7614 63.4619,-64.9156 56.5104,-66.8332"/>
<text text-anchor="middle" x="80" y="-117.5" font-family="Helvetica,sans-Serif" font-size="10.00"> +extra</text>
<text text-anchor="middle" x="80" y="-106.5" font-family="Helvetica,sans-Serif" font-size="10.00">+free_head</text>
<text text-anchor="middle" x="80" y="-95.5" font-family="Helvetica,sans-Serif" font-size="10.00">+active_head</text>
</g>
<!-- Node2&#45;&gt;Node2 -->
<g id="edge2" class="edge"><title>Node2&#45;&gt;Node2</title>
<path fill="none" stroke="#404040" d="M65.0425,-199.864C75.1012,-199.645 83,-196.023 83,-189 83,-185.159 80.6377,-182.336 76.8517,-180.529"/>
<polygon fill="none" stroke="#404040" points="76.8033,-180.52 70.1282,-183.248 65.0425,-178.136 71.7176,-175.407 76.8033,-180.52"/>
<text text-anchor="middle" x="97" y="-186.5" font-family="Helvetica,sans-Serif" font-size="10.00"> +next</text>
</g>
<!-- Node3 -->
<g id="node3" class="node"><title>Node3</title>
<polygon fill="none" stroke="#bfbfbf" points="4.5,-276.5 4.5,-333.5 60.5,-333.5 60.5,-276.5 4.5,-276.5"/>
<text text-anchor="middle" x="32.5" y="-321.5" font-family="Helvetica,sans-Serif" font-size="10.00">unsigned</text>
<polyline fill="none" stroke="#bfbfbf" points="4.5,-314.5 60.5,-314.5 "/>
<text text-anchor="middle" x="32.5" y="-302.5" font-family="Helvetica,sans-Serif" font-size="10.00"> </text>
<polyline fill="none" stroke="#bfbfbf" points="4.5,-295.5 60.5,-295.5 "/>
<text text-anchor="middle" x="32.5" y="-283.5" font-family="Helvetica,sans-Serif" font-size="10.00"> </text>
</g>
<!-- Node3&#45;&gt;Node2 -->
<g id="edge3" class="edge"><title>Node3&#45;&gt;Node2</title>
<path fill="none" stroke="#404040" d="M32.5,-276.404C32.5,-262.504 32.5,-245.392 32.5,-230.073"/>
<polygon fill="none" stroke="#404040" points="32.5001,-229.737 28.5,-223.737 32.5,-217.737 36.5,-223.737 32.5001,-229.737"/>
<text text-anchor="middle" x="40" y="-250" font-family="Helvetica,sans-Serif" font-size="10.00"> +x</text>
<text text-anchor="middle" x="40" y="-239" font-family="Helvetica,sans-Serif" font-size="10.00">+y</text>
</g>
<!-- Node4 -->
<g id="node4" class="node"><title>Node4</title>
<polygon fill="none" stroke="#bfbfbf" points="129,-160.5 129,-217.5 158,-217.5 158,-160.5 129,-160.5"/>
<text text-anchor="middle" x="143.5" y="-205.5" font-family="Helvetica,sans-Serif" font-size="10.00">int</text>
<polyline fill="none" stroke="#bfbfbf" points="129,-198.5 158,-198.5 "/>
<text text-anchor="middle" x="143.5" y="-186.5" font-family="Helvetica,sans-Serif" font-size="10.00"> </text>
<polyline fill="none" stroke="#bfbfbf" points="129,-179.5 158,-179.5 "/>
<text text-anchor="middle" x="143.5" y="-167.5" font-family="Helvetica,sans-Serif" font-size="10.00"> </text>
</g>
<!-- Node4&#45;&gt;Node1 -->
<g id="edge4" class="edge"><title>Node4&#45;&gt;Node1</title>
<path fill="none" stroke="#404040" d="M136.184,-160.479C129.51,-135.371 119.57,-97.976 112.039,-69.6477"/>
<polygon fill="none" stroke="#404040" points="111.956,-69.3335 106.549,-64.5625 108.873,-57.7362 114.28,-62.5072 111.956,-69.3335"/>
<text text-anchor="middle" x="159" y="-134" font-family="Helvetica,sans-Serif" font-size="10.00"> +height</text>
<text text-anchor="middle" x="159" y="-123" font-family="Helvetica,sans-Serif" font-size="10.00">+init_mode</text>
<text text-anchor="middle" x="159" y="-112" font-family="Helvetica,sans-Serif" font-size="10.00">+align</text>
<text text-anchor="middle" x="159" y="-101" font-family="Helvetica,sans-Serif" font-size="10.00">+width</text>
<text text-anchor="middle" x="159" y="-90" font-family="Helvetica,sans-Serif" font-size="10.00">+num_nodes</text>
<text text-anchor="middle" x="159" y="-79" font-family="Helvetica,sans-Serif" font-size="10.00">+heuristic</text>
</g>
</g>
</svg>
