<?xml version="1.0" encoding="UTF-8" standalone="no"?>
<!DOCTYPE svg PUBLIC "-//W3C//DTD SVG 1.1//EN"
 "http://www.w3.org/Graphics/SVG/1.1/DTD/svg11.dtd">
<!-- Generated by graphviz version 2.38.0 (20140413.2041)
 -->
<!-- Title: /home/travis/build/AliceO2Group/AliceO2/Detectors/MUON/MCH/Base/include/MCHBase/TrackBlock.h Pages: 1 -->
<svg width="1179pt" height="506pt"
 viewBox="0.00 0.00 1178.50 506.00" xmlns="http://www.w3.org/2000/svg" xmlns:xlink="http://www.w3.org/1999/xlink">
<g id="graph0" class="graph" transform="scale(1 1) rotate(0) translate(4 502)">
<title>/home/travis/build/AliceO2Group/AliceO2/Detectors/MUON/MCH/Base/include/MCHBase/TrackBlock.h</title>
<!-- Node1 -->
<g id="node1" class="node"><title>Node1</title>
<polygon fill="#bfbfbf" stroke="black" points="134,-445.5 134,-497.5 294,-497.5 294,-445.5 134,-445.5"/>
<text text-anchor="start" x="142" y="-485.5" font-family="Helvetica,sans-Serif" font-size="10.00">/home/travis/build</text>
<text text-anchor="start" x="142" y="-474.5" font-family="Helvetica,sans-Serif" font-size="10.00">/AliceO2Group/AliceO2</text>
<text text-anchor="start" x="142" y="-463.5" font-family="Helvetica,sans-Serif" font-size="10.00">/Detectors/MUON/MCH/Base</text>
<text text-anchor="middle" x="214" y="-452.5" font-family="Helvetica,sans-Serif" font-size="10.00">/include/MCHBase/TrackBlock.h</text>
</g>
<!-- Node2 -->
<g id="node2" class="node"><title>Node2</title>
<g id="a_node2"><a xlink:href="../../dc/d43/TrackBlock_8cxx.html" target="_top" xlink:title="Implementation of the MCH track parameters minimal structure. ">
<polygon fill="none" stroke="black" points="0,-356.5 0,-408.5 148,-408.5 148,-356.5 0,-356.5"/>
<text text-anchor="start" x="8" y="-396.5" font-family="Helvetica,sans-Serif" font-size="10.00">/home/travis/build</text>
<text text-anchor="start" x="8" y="-385.5" font-family="Helvetica,sans-Serif" font-size="10.00">/AliceO2Group/AliceO2</text>
<text text-anchor="start" x="8" y="-374.5" font-family="Helvetica,sans-Serif" font-size="10.00">/Detectors/MUON/MCH/Base</text>
<text text-anchor="middle" x="74" y="-363.5" font-family="Helvetica,sans-Serif" font-size="10.00">/src/TrackBlock.cxx</text>
</a>
</g>
</g>
<!-- Node1&#45;&gt;Node2 -->
<g id="edge1" class="edge"><title>Node1&#45;&gt;Node2</title>
<path fill="none" stroke="midnightblue" d="M164.577,-439.787C148.151,-429.579 130.065,-418.341 114.403,-408.607"/>
<polygon fill="midnightblue" stroke="midnightblue" points="163.165,-443.031 173.506,-445.336 166.86,-437.085 163.165,-443.031"/>
</g>
<!-- Node3 -->
<g id="node3" class="node"><title>Node3</title>
<g id="a_node3"><a xlink:href="../../de/d4b/TrackParam_8h.html" target="_top" xlink:title="Definition of the MCH track parameters for internal use. ">
<polygon fill="none" stroke="black" points="516.5,-356.5 516.5,-408.5 679.5,-408.5 679.5,-356.5 516.5,-356.5"/>
<text text-anchor="start" x="524.5" y="-396.5" font-family="Helvetica,sans-Serif" font-size="10.00">/home/travis/build</text>
<text text-anchor="start" x="524.5" y="-385.5" font-family="Helvetica,sans-Serif" font-size="10.00">/AliceO2Group/AliceO2</text>
<text text-anchor="start" x="524.5" y="-374.5" font-family="Helvetica,sans-Serif" font-size="10.00">/Detectors/MUON/MCH/Tracking</text>
<text text-anchor="middle" x="598" y="-363.5" font-family="Helvetica,sans-Serif" font-size="10.00">/src/TrackParam.h</text>
</a>
</g>
</g>
<!-- Node1&#45;&gt;Node3 -->
<g id="edge2" class="edge"><title>Node1&#45;&gt;Node3</title>
<path fill="none" stroke="midnightblue" d="M304.158,-450.074C368.442,-435.509 454.162,-416.088 516.418,-401.983"/>
<polygon fill="midnightblue" stroke="midnightblue" points="303.011,-446.745 294.032,-452.368 304.558,-453.572 303.011,-446.745"/>
</g>
<!-- Node8 -->
<g id="node8" class="node"><title>Node8</title>
<g id="a_node8"><a xlink:href="../../dd/dea/TrackFinderSpec_8cxx.html" target="_top" xlink:title="Implementation of a data processor to read clusters, reconstruct tracks and send them. ">
<polygon fill="none" stroke="black" points="1007.5,-0.5 1007.5,-52.5 1170.5,-52.5 1170.5,-0.5 1007.5,-0.5"/>
<text text-anchor="start" x="1015.5" y="-40.5" font-family="Helvetica,sans-Serif" font-size="10.00">/home/travis/build</text>
<text text-anchor="start" x="1015.5" y="-29.5" font-family="Helvetica,sans-Serif" font-size="10.00">/AliceO2Group/AliceO2</text>
<text text-anchor="start" x="1015.5" y="-18.5" font-family="Helvetica,sans-Serif" font-size="10.00">/Detectors/MUON/MCH/Tracking</text>
<text text-anchor="middle" x="1089" y="-7.5" font-family="Helvetica,sans-Serif" font-size="10.00">/src/TrackFinderSpec.cxx</text>
</a>
</g>
</g>
<!-- Node1&#45;&gt;Node8 -->
<g id="edge26" class="edge"><title>Node1&#45;&gt;Node8</title>
<path fill="none" stroke="midnightblue" d="M304.457,-462.893C538.533,-441.999 1146,-379.582 1146,-294.5 1146,-294.5 1146,-294.5 1146,-203.5 1146,-147.454 1119.52,-86.0389 1102.65,-52.6151"/>
<polygon fill="midnightblue" stroke="midnightblue" points="303.92,-459.427 294.268,-463.797 304.539,-466.399 303.92,-459.427"/>
</g>
<!-- Node12 -->
<g id="node12" class="node"><title>Node12</title>
<g id="a_node12"><a xlink:href="../../d7/d30/TrackFinderOriginalSpec_8cxx.html" target="_top" xlink:title="Implementation of a data processor to read clusters, reconstruct tracks and send them. ">
<polygon fill="none" stroke="black" points="252.5,-0.5 252.5,-52.5 415.5,-52.5 415.5,-0.5 252.5,-0.5"/>
<text text-anchor="start" x="260.5" y="-40.5" font-family="Helvetica,sans-Serif" font-size="10.00">/home/travis/build</text>
<text text-anchor="start" x="260.5" y="-29.5" font-family="Helvetica,sans-Serif" font-size="10.00">/AliceO2Group/AliceO2</text>
<text text-anchor="start" x="260.5" y="-18.5" font-family="Helvetica,sans-Serif" font-size="10.00">/Detectors/MUON/MCH/Tracking</text>
<text text-anchor="middle" x="334" y="-7.5" font-family="Helvetica,sans-Serif" font-size="10.00">/src/TrackFinderOriginalSpec.cxx</text>
</a>
</g>
</g>
<!-- Node1&#45;&gt;Node12 -->
<g id="edge25" class="edge"><title>Node1&#45;&gt;Node12</title>
<path fill="none" stroke="midnightblue" d="M201.825,-435.435C190.71,-400.254 176,-344.29 176,-294.5 176,-294.5 176,-294.5 176,-203.5 176,-135.748 241.636,-82.2185 288.3,-52.7234"/>
<polygon fill="midnightblue" stroke="midnightblue" points="198.584,-436.785 204.995,-445.22 205.243,-434.628 198.584,-436.785"/>
</g>
<!-- Node14 -->
<g id="node14" class="node"><title>Node14</title>
<g id="a_node14"><a xlink:href="../../db/d54/TrackFitterSpec_8cxx.html" target="_top" xlink:title="Implementation of a data processor to read, refit and send tracks with attached clusters. ">
<polygon fill="none" stroke="black" points="296.5,-89.5 296.5,-141.5 459.5,-141.5 459.5,-89.5 296.5,-89.5"/>
<text text-anchor="start" x="304.5" y="-129.5" font-family="Helvetica,sans-Serif" font-size="10.00">/home/travis/build</text>
<text text-anchor="start" x="304.5" y="-118.5" font-family="Helvetica,sans-Serif" font-size="10.00">/AliceO2Group/AliceO2</text>
<text text-anchor="start" x="304.5" y="-107.5" font-family="Helvetica,sans-Serif" font-size="10.00">/Detectors/MUON/MCH/Tracking</text>
<text text-anchor="middle" x="378" y="-96.5" font-family="Helvetica,sans-Serif" font-size="10.00">/src/TrackFitterSpec.cxx</text>
</a>
</g>
</g>
<!-- Node1&#45;&gt;Node14 -->
<g id="edge27" class="edge"><title>Node1&#45;&gt;Node14</title>
<path fill="none" stroke="midnightblue" d="M219.993,-435.473C227.964,-393.853 244.251,-323.006 271,-267 293.867,-219.123 331.887,-170.249 355.911,-141.677"/>
<polygon fill="midnightblue" stroke="midnightblue" points="216.535,-434.926 218.144,-445.398 223.416,-436.208 216.535,-434.926"/>
</g>
<!-- Node4 -->
<g id="node4" class="node"><title>Node4</title>
<g id="a_node4"><a xlink:href="../../d8/d80/Detectors_2MUON_2MCH_2Tracking_2src_2Track_8h.html" target="_top" xlink:title="/home/travis/build\l/AliceO2Group/AliceO2\l/Detectors/MUON/MCH/Tracking\l/src/Track.h">
<polygon fill="none" stroke="black" points="681.5,-267.5 681.5,-319.5 844.5,-319.5 844.5,-267.5 681.5,-267.5"/>
<text text-anchor="start" x="689.5" y="-307.5" font-family="Helvetica,sans-Serif" font-size="10.00">/home/travis/build</text>
<text text-anchor="start" x="689.5" y="-296.5" font-family="Helvetica,sans-Serif" font-size="10.00">/AliceO2Group/AliceO2</text>
<text text-anchor="start" x="689.5" y="-285.5" font-family="Helvetica,sans-Serif" font-size="10.00">/Detectors/MUON/MCH/Tracking</text>
<text text-anchor="middle" x="763" y="-274.5" font-family="Helvetica,sans-Serif" font-size="10.00">/src/Track.h</text>
</a>
</g>
</g>
<!-- Node3&#45;&gt;Node4 -->
<g id="edge3" class="edge"><title>Node3&#45;&gt;Node4</title>
<path fill="none" stroke="midnightblue" d="M654.64,-351.635C674.422,-341.205 696.41,-329.611 715.382,-319.607"/>
<polygon fill="midnightblue" stroke="midnightblue" points="652.938,-348.576 645.725,-356.336 656.203,-354.768 652.938,-348.576"/>
</g>
<!-- Node3&#45;&gt;Node8 -->
<g id="edge22" class="edge"><title>Node3&#45;&gt;Node8</title>
<path fill="none" stroke="midnightblue" d="M689.479,-370.392C745.54,-361.42 817.84,-345.896 878,-320 942.653,-292.17 958.035,-279.549 1009,-231 1044.85,-196.85 1057.67,-187.994 1076,-142 1087.63,-112.821 1089.88,-76.3671 1089.89,-52.5357"/>
<polygon fill="midnightblue" stroke="midnightblue" points="688.904,-366.939 679.563,-371.938 689.983,-373.856 688.904,-366.939"/>
</g>
<!-- Node9 -->
<g id="node9" class="node"><title>Node9</title>
<g id="a_node9"><a xlink:href="../../d4/d9c/TrackFitter_8h.html" target="_top" xlink:title="Definition of a class to fit a track to a set of clusters. ">
<polygon fill="none" stroke="black" points="791.5,-178.5 791.5,-230.5 954.5,-230.5 954.5,-178.5 791.5,-178.5"/>
<text text-anchor="start" x="799.5" y="-218.5" font-family="Helvetica,sans-Serif" font-size="10.00">/home/travis/build</text>
<text text-anchor="start" x="799.5" y="-207.5" font-family="Helvetica,sans-Serif" font-size="10.00">/AliceO2Group/AliceO2</text>
<text text-anchor="start" x="799.5" y="-196.5" font-family="Helvetica,sans-Serif" font-size="10.00">/Detectors/MUON/MCH/Tracking</text>
<text text-anchor="middle" x="873" y="-185.5" font-family="Helvetica,sans-Serif" font-size="10.00">/src/TrackFitter.h</text>
</a>
</g>
</g>
<!-- Node3&#45;&gt;Node9 -->
<g id="edge20" class="edge"><title>Node3&#45;&gt;Node9</title>
<path fill="none" stroke="midnightblue" d="M689.823,-370.228C753.844,-360.436 831.64,-344.014 854,-320 876.245,-296.109 877.945,-256.604 876.194,-230.813"/>
<polygon fill="midnightblue" stroke="midnightblue" points="689.05,-366.805 679.677,-371.743 690.084,-373.728 689.05,-366.805"/>
</g>
<!-- Node3&#45;&gt;Node12 -->
<g id="edge21" class="edge"><title>Node3&#45;&gt;Node12</title>
<path fill="none" stroke="midnightblue" d="M506.072,-376.98C420.016,-370.594 300.4,-355.444 271,-320 246.997,-291.062 229.504,-236.757 287,-89 292.117,-75.8505 300.943,-63.1417 309.575,-52.7241"/>
<polygon fill="midnightblue" stroke="midnightblue" points="505.904,-380.476 516.128,-377.698 506.403,-373.494 505.904,-380.476"/>
</g>
<!-- Node3&#45;&gt;Node14 -->
<g id="edge23" class="edge"><title>Node3&#45;&gt;Node14</title>
<path fill="none" stroke="midnightblue" d="M623.737,-347.342C638.994,-322.635 651.989,-289.733 633,-267 575.379,-198.02 505.691,-285.211 434,-231 405.053,-209.111 390.212,-168.277 383.284,-141.754"/>
<polygon fill="midnightblue" stroke="midnightblue" points="620.597,-345.751 618.069,-356.04 626.461,-349.573 620.597,-345.751"/>
</g>
<!-- Node15 -->
<g id="node15" class="node"><title>Node15</title>
<g id="a_node15"><a xlink:href="../../d2/deb/TrackExtrap_8cxx.html" target="_top" xlink:title="Implementation of tools for track extrapolation. ">
<polygon fill="none" stroke="black" points="280.5,-267.5 280.5,-319.5 443.5,-319.5 443.5,-267.5 280.5,-267.5"/>
<text text-anchor="start" x="288.5" y="-307.5" font-family="Helvetica,sans-Serif" font-size="10.00">/home/travis/build</text>
<text text-anchor="start" x="288.5" y="-296.5" font-family="Helvetica,sans-Serif" font-size="10.00">/AliceO2Group/AliceO2</text>
<text text-anchor="start" x="288.5" y="-285.5" font-family="Helvetica,sans-Serif" font-size="10.00">/Detectors/MUON/MCH/Tracking</text>
<text text-anchor="middle" x="362" y="-274.5" font-family="Helvetica,sans-Serif" font-size="10.00">/src/TrackExtrap.cxx</text>
</a>
</g>
</g>
<!-- Node3&#45;&gt;Node15 -->
<g id="edge19" class="edge"><title>Node3&#45;&gt;Node15</title>
<path fill="none" stroke="midnightblue" d="M520.304,-352.858C491.088,-342.087 458.126,-329.936 429.873,-319.521"/>
<polygon fill="midnightblue" stroke="midnightblue" points="519.462,-356.278 530.056,-356.453 521.884,-349.71 519.462,-356.278"/>
</g>
<!-- Node16 -->
<g id="node16" class="node"><title>Node16</title>
<g id="a_node16"><a xlink:href="../../dc/d16/TrackParam_8cxx.html" target="_top" xlink:title="Implementation of the MCH track parameters for internal use. ">
<polygon fill="none" stroke="black" points="461.5,-267.5 461.5,-319.5 624.5,-319.5 624.5,-267.5 461.5,-267.5"/>
<text text-anchor="start" x="469.5" y="-307.5" font-family="Helvetica,sans-Serif" font-size="10.00">/home/travis/build</text>
<text text-anchor="start" x="469.5" y="-296.5" font-family="Helvetica,sans-Serif" font-size="10.00">/AliceO2Group/AliceO2</text>
<text text-anchor="start" x="469.5" y="-285.5" font-family="Helvetica,sans-Serif" font-size="10.00">/Detectors/MUON/MCH/Tracking</text>
<text text-anchor="middle" x="543" y="-274.5" font-family="Helvetica,sans-Serif" font-size="10.00">/src/TrackParam.cxx</text>
</a>
</g>
</g>
<!-- Node3&#45;&gt;Node16 -->
<g id="edge24" class="edge"><title>Node3&#45;&gt;Node16</title>
<path fill="none" stroke="midnightblue" d="M576.593,-347.639C570.693,-338.306 564.399,-328.349 558.873,-319.607"/>
<polygon fill="midnightblue" stroke="midnightblue" points="573.79,-349.754 582.092,-356.336 579.706,-346.013 573.79,-349.754"/>
</g>
<!-- Node5 -->
<g id="node5" class="node"><title>Node5</title>
<g id="a_node5"><a xlink:href="../../d9/da9/Detectors_2MUON_2MCH_2Tracking_2src_2Track_8cxx.html" target="_top" xlink:title="/home/travis/build\l/AliceO2Group/AliceO2\l/Detectors/MUON/MCH/Tracking\l/src/Track.cxx">
<polygon fill="none" stroke="black" points="571.5,-178.5 571.5,-230.5 734.5,-230.5 734.5,-178.5 571.5,-178.5"/>
<text text-anchor="start" x="579.5" y="-218.5" font-family="Helvetica,sans-Serif" font-size="10.00">/home/travis/build</text>
<text text-anchor="start" x="579.5" y="-207.5" font-family="Helvetica,sans-Serif" font-size="10.00">/AliceO2Group/AliceO2</text>
<text text-anchor="start" x="579.5" y="-196.5" font-family="Helvetica,sans-Serif" font-size="10.00">/Detectors/MUON/MCH/Tracking</text>
<text text-anchor="middle" x="653" y="-185.5" font-family="Helvetica,sans-Serif" font-size="10.00">/src/Track.cxx</text>
</a>
</g>
</g>
<!-- Node4&#45;&gt;Node5 -->
<g id="edge4" class="edge"><title>Node4&#45;&gt;Node5</title>
<path fill="none" stroke="midnightblue" d="M723.089,-260.934C710.473,-250.956 696.709,-240.07 684.745,-230.607"/>
<polygon fill="midnightblue" stroke="midnightblue" points="721.169,-263.878 731.183,-267.336 725.511,-258.387 721.169,-263.878"/>
</g>
<!-- Node6 -->
<g id="node6" class="node"><title>Node6</title>
<g id="a_node6"><a xlink:href="../../d5/d91/TrackFinder_8h.html" target="_top" xlink:title="Definition of a class to reconstruct tracks. ">
<polygon fill="none" stroke="black" points="697.5,-89.5 697.5,-141.5 860.5,-141.5 860.5,-89.5 697.5,-89.5"/>
<text text-anchor="start" x="705.5" y="-129.5" font-family="Helvetica,sans-Serif" font-size="10.00">/home/travis/build</text>
<text text-anchor="start" x="705.5" y="-118.5" font-family="Helvetica,sans-Serif" font-size="10.00">/AliceO2Group/AliceO2</text>
<text text-anchor="start" x="705.5" y="-107.5" font-family="Helvetica,sans-Serif" font-size="10.00">/Detectors/MUON/MCH/Tracking</text>
<text text-anchor="middle" x="779" y="-96.5" font-family="Helvetica,sans-Serif" font-size="10.00">/src/TrackFinder.h</text>
</a>
</g>
</g>
<!-- Node4&#45;&gt;Node6 -->
<g id="edge5" class="edge"><title>Node4&#45;&gt;Node6</title>
<path fill="none" stroke="midnightblue" d="M766.205,-257.249C769.315,-223.038 773.957,-171.969 776.712,-141.67"/>
<polygon fill="midnightblue" stroke="midnightblue" points="762.712,-257.008 765.292,-267.283 769.683,-257.641 762.712,-257.008"/>
</g>
<!-- Node4&#45;&gt;Node8 -->
<g id="edge17" class="edge"><title>Node4&#45;&gt;Node8</title>
<path fill="none" stroke="midnightblue" d="M854.631,-274.749C890.449,-265.245 930.807,-251.207 964,-231 1011.25,-202.237 1022.22,-189.237 1051,-142 1068.22,-113.74 1078.66,-76.7482 1084.13,-52.5675"/>
<polygon fill="midnightblue" stroke="midnightblue" points="853.473,-271.432 844.658,-277.31 855.214,-278.212 853.473,-271.432"/>
</g>
<!-- Node4&#45;&gt;Node9 -->
<g id="edge8" class="edge"><title>Node4&#45;&gt;Node9</title>
<path fill="none" stroke="midnightblue" d="M802.911,-260.934C815.527,-250.956 829.291,-240.07 841.255,-230.607"/>
<polygon fill="midnightblue" stroke="midnightblue" points="800.489,-258.387 794.817,-267.336 804.831,-263.878 800.489,-258.387"/>
</g>
<!-- Node10 -->
<g id="node10" class="node"><title>Node10</title>
<g id="a_node10"><a xlink:href="../../d7/d7f/TrackFinderOriginal_8h.html" target="_top" xlink:title="Definition of a class to reconstruct tracks with the original algorithm. ">
<polygon fill="none" stroke="black" points="516.5,-89.5 516.5,-141.5 679.5,-141.5 679.5,-89.5 516.5,-89.5"/>
<text text-anchor="start" x="524.5" y="-129.5" font-family="Helvetica,sans-Serif" font-size="10.00">/home/travis/build</text>
<text text-anchor="start" x="524.5" y="-118.5" font-family="Helvetica,sans-Serif" font-size="10.00">/AliceO2Group/AliceO2</text>
<text text-anchor="start" x="524.5" y="-107.5" font-family="Helvetica,sans-Serif" font-size="10.00">/Detectors/MUON/MCH/Tracking</text>
<text text-anchor="middle" x="598" y="-96.5" font-family="Helvetica,sans-Serif" font-size="10.00">/src/TrackFinderOriginal.h</text>
</a>
</g>
</g>
<!-- Node4&#45;&gt;Node10 -->
<g id="edge15" class="edge"><title>Node4&#45;&gt;Node10</title>
<path fill="none" stroke="midnightblue" d="M671.62,-267.139C620.239,-252.444 565.625,-235.901 562,-231 542.295,-204.364 560.955,-166.646 577.924,-141.887"/>
<polygon fill="midnightblue" stroke="midnightblue" points="670.923,-270.58 681.499,-269.954 672.841,-263.848 670.923,-270.58"/>
</g>
<!-- Node4&#45;&gt;Node12 -->
<g id="edge16" class="edge"><title>Node4&#45;&gt;Node12</title>
<path fill="none" stroke="midnightblue" d="M671.636,-269.518C618.575,-255.578 560.201,-238.984 550,-231 492.611,-186.082 521.882,-138.07 468,-89 451.346,-73.8331 430.307,-61.8264 409.867,-52.5994"/>
<polygon fill="midnightblue" stroke="midnightblue" points="670.909,-272.946 681.469,-272.088 672.678,-266.173 670.909,-272.946"/>
</g>
<!-- Node4&#45;&gt;Node14 -->
<g id="edge18" class="edge"><title>Node4&#45;&gt;Node14</title>
<path fill="none" stroke="midnightblue" d="M671.444,-268.033C669.953,-267.683 668.471,-267.338 667,-267 585.364,-248.237 554.96,-272.15 482,-231 454.319,-215.388 455.365,-201.527 434,-178 423.127,-166.027 411.049,-152.759 400.902,-141.621"/>
<polygon fill="midnightblue" stroke="midnightblue" points="670.851,-271.49 681.392,-270.422 672.486,-264.684 670.851,-271.49"/>
</g>
<!-- Node7 -->
<g id="node7" class="node"><title>Node7</title>
<g id="a_node7"><a xlink:href="../../d1/d8b/TrackFinder_8cxx.html" target="_top" xlink:title="Implementation of a class to reconstruct tracks. ">
<polygon fill="none" stroke="black" points="697.5,-0.5 697.5,-52.5 860.5,-52.5 860.5,-0.5 697.5,-0.5"/>
<text text-anchor="start" x="705.5" y="-40.5" font-family="Helvetica,sans-Serif" font-size="10.00">/home/travis/build</text>
<text text-anchor="start" x="705.5" y="-29.5" font-family="Helvetica,sans-Serif" font-size="10.00">/AliceO2Group/AliceO2</text>
<text text-anchor="start" x="705.5" y="-18.5" font-family="Helvetica,sans-Serif" font-size="10.00">/Detectors/MUON/MCH/Tracking</text>
<text text-anchor="middle" x="779" y="-7.5" font-family="Helvetica,sans-Serif" font-size="10.00">/src/TrackFinder.cxx</text>
</a>
</g>
</g>
<!-- Node6&#45;&gt;Node7 -->
<g id="edge6" class="edge"><title>Node6&#45;&gt;Node7</title>
<path fill="none" stroke="midnightblue" d="M779,-79.1908C779,-70.2824 779,-60.8986 779,-52.6075"/>
<polygon fill="midnightblue" stroke="midnightblue" points="775.5,-79.336 779,-89.336 782.5,-79.336 775.5,-79.336"/>
</g>
<!-- Node6&#45;&gt;Node8 -->
<g id="edge7" class="edge"><title>Node6&#45;&gt;Node8</title>
<path fill="none" stroke="midnightblue" d="M870.561,-88.8037C913.985,-76.6172 965.436,-62.1776 1007.49,-50.3743"/>
<polygon fill="midnightblue" stroke="midnightblue" points="869.537,-85.456 860.854,-91.528 871.428,-92.1957 869.537,-85.456"/>
</g>
<!-- Node9&#45;&gt;Node6 -->
<g id="edge9" class="edge"><title>Node9&#45;&gt;Node6</title>
<path fill="none" stroke="midnightblue" d="M838.277,-171.363C827.666,-161.542 816.157,-150.89 806.128,-141.607"/>
<polygon fill="midnightblue" stroke="midnightblue" points="836.095,-174.112 845.811,-178.336 840.85,-168.975 836.095,-174.112"/>
</g>
<!-- Node9&#45;&gt;Node10 -->
<g id="edge10" class="edge"><title>Node9&#45;&gt;Node10</title>
<path fill="none" stroke="midnightblue" d="M784.236,-175.418C749.758,-164.511 710.584,-152.117 677.09,-141.521"/>
<polygon fill="midnightblue" stroke="midnightblue" points="783.238,-178.773 793.828,-178.453 785.349,-172.099 783.238,-178.773"/>
</g>
<!-- Node13 -->
<g id="node13" class="node"><title>Node13</title>
<g id="a_node13"><a xlink:href="../../d9/d47/TrackFitter_8cxx.html" target="_top" xlink:title="Implementation of a class to fit a track to a set of clusters. ">
<polygon fill="none" stroke="black" points="878.5,-89.5 878.5,-141.5 1041.5,-141.5 1041.5,-89.5 878.5,-89.5"/>
<text text-anchor="start" x="886.5" y="-129.5" font-family="Helvetica,sans-Serif" font-size="10.00">/home/travis/build</text>
<text text-anchor="start" x="886.5" y="-118.5" font-family="Helvetica,sans-Serif" font-size="10.00">/AliceO2Group/AliceO2</text>
<text text-anchor="start" x="886.5" y="-107.5" font-family="Helvetica,sans-Serif" font-size="10.00">/Detectors/MUON/MCH/Tracking</text>
<text text-anchor="middle" x="960" y="-96.5" font-family="Helvetica,sans-Serif" font-size="10.00">/src/TrackFitter.cxx</text>
</a>
</g>
</g>
<!-- Node9&#45;&gt;Node13 -->
<g id="edge13" class="edge"><title>Node9&#45;&gt;Node13</title>
<path fill="none" stroke="midnightblue" d="M905.423,-171.077C915.165,-161.335 925.7,-150.8 934.893,-141.607"/>
<polygon fill="midnightblue" stroke="midnightblue" points="902.76,-168.79 898.164,-178.336 907.71,-173.74 902.76,-168.79"/>
</g>
<!-- Node9&#45;&gt;Node14 -->
<g id="edge14" class="edge"><title>Node9&#45;&gt;Node14</title>
<path fill="none" stroke="midnightblue" d="M781.08,-184.967C768.305,-182.539 755.336,-180.15 743,-178 638.473,-159.784 611.514,-160.292 507,-142 491.709,-139.324 475.439,-136.27 459.79,-133.228"/>
<polygon fill="midnightblue" stroke="midnightblue" points="780.788,-188.475 791.268,-186.92 782.105,-181.6 780.788,-188.475"/>
</g>
<!-- Node11 -->
<g id="node11" class="node"><title>Node11</title>
<g id="a_node11"><a xlink:href="../../d6/d6d/TrackFinderOriginal_8cxx.html" target="_top" xlink:title="Implementation of a class to reconstruct tracks with the original algorithm. ">
<polygon fill="none" stroke="black" points="516.5,-0.5 516.5,-52.5 679.5,-52.5 679.5,-0.5 516.5,-0.5"/>
<text text-anchor="start" x="524.5" y="-40.5" font-family="Helvetica,sans-Serif" font-size="10.00">/home/travis/build</text>
<text text-anchor="start" x="524.5" y="-29.5" font-family="Helvetica,sans-Serif" font-size="10.00">/AliceO2Group/AliceO2</text>
<text text-anchor="start" x="524.5" y="-18.5" font-family="Helvetica,sans-Serif" font-size="10.00">/Detectors/MUON/MCH/Tracking</text>
<text text-anchor="middle" x="598" y="-7.5" font-family="Helvetica,sans-Serif" font-size="10.00">/src/TrackFinderOriginal.cxx</text>
</a>
</g>
</g>
<!-- Node10&#45;&gt;Node11 -->
<g id="edge11" class="edge"><title>Node10&#45;&gt;Node11</title>
<path fill="none" stroke="midnightblue" d="M598,-79.1908C598,-70.2824 598,-60.8986 598,-52.6075"/>
<polygon fill="midnightblue" stroke="midnightblue" points="594.5,-79.336 598,-89.336 601.5,-79.336 594.5,-79.336"/>
</g>
<!-- Node10&#45;&gt;Node12 -->
<g id="edge12" class="edge"><title>Node10&#45;&gt;Node12</title>
<path fill="none" stroke="midnightblue" d="M512.362,-86.2784C479.366,-75.4048 441.943,-63.0721 409.926,-52.5211"/>
<polygon fill="midnightblue" stroke="midnightblue" points="511.401,-89.6469 521.994,-89.4527 513.592,-82.9986 511.401,-89.6469"/>
</g>
</g>
</svg>
