<?xml version="1.0" encoding="UTF-8" standalone="no"?>
<!DOCTYPE svg PUBLIC "-//W3C//DTD SVG 1.1//EN"
 "http://www.w3.org/Graphics/SVG/1.1/DTD/svg11.dtd">
<!-- Generated by graphviz version 2.38.0 (20140413.2041)
 -->
<!-- Title: GPUCA_NAMESPACE::gpu::GPUTPCGeometry Pages: 1 -->
<svg width="160pt" height="314pt"
 viewBox="0.00 0.00 160.00 314.00" xmlns="http://www.w3.org/2000/svg" xmlns:xlink="http://www.w3.org/1999/xlink">
<g id="graph0" class="graph" transform="scale(1 1) rotate(0) translate(4 310)">
<title>GPUCA_NAMESPACE::gpu::GPUTPCGeometry</title>
<!-- Node1 -->
<g id="node1" class="node"><title>Node1</title>
<polygon fill="#bfbfbf" stroke="black" points="9,-0.5 9,-189.5 152,-189.5 152,-0.5 9,-0.5"/>
<text text-anchor="start" x="17" y="-177.5" font-family="Helvetica,sans-Serif" font-size="10.00">GPUCA_NAMESPACE::gpu</text>
<text text-anchor="middle" x="80.5" y="-166.5" font-family="Helvetica,sans-Serif" font-size="10.00">::GPUTPCGeometry</text>
<polyline fill="none" stroke="black" points="9,-159.5 152,-159.5 "/>
<text text-anchor="middle" x="80.5" y="-147.5" font-family="Helvetica,sans-Serif" font-size="10.00"> </text>
<polyline fill="none" stroke="black" points="9,-140.5 152,-140.5 "/>
<text text-anchor="start" x="17" y="-128.5" font-family="Helvetica,sans-Serif" font-size="10.00">+ GPUd()</text>
<text text-anchor="start" x="17" y="-117.5" font-family="Helvetica,sans-Serif" font-size="10.00">+ GPUd()</text>
<text text-anchor="start" x="17" y="-106.5" font-family="Helvetica,sans-Serif" font-size="10.00">+ GPUd()</text>
<text text-anchor="start" x="17" y="-95.5" font-family="Helvetica,sans-Serif" font-size="10.00">+ GPUd()</text>
<text text-anchor="start" x="17" y="-84.5" font-family="Helvetica,sans-Serif" font-size="10.00">+ GPUd()</text>
<text text-anchor="start" x="17" y="-73.5" font-family="Helvetica,sans-Serif" font-size="10.00">+ GPUd()</text>
<text text-anchor="start" x="17" y="-62.5" font-family="Helvetica,sans-Serif" font-size="10.00">+ GPUd()</text>
<text text-anchor="start" x="17" y="-51.5" font-family="Helvetica,sans-Serif" font-size="10.00">+ GPUd()</text>
<text text-anchor="start" x="17" y="-40.5" font-family="Helvetica,sans-Serif" font-size="10.00">+ GPUd()</text>
<text text-anchor="start" x="17" y="-29.5" font-family="Helvetica,sans-Serif" font-size="10.00">+ PadWidth()</text>
<text text-anchor="start" x="17" y="-18.5" font-family="Helvetica,sans-Serif" font-size="10.00">+ GPUd()</text>
<text text-anchor="start" x="17" y="-7.5" font-family="Helvetica,sans-Serif" font-size="10.00">+ return()</text>
</g>
<!-- Node2 -->
<g id="node2" class="node"><title>Node2</title>
<polygon fill="none" stroke="#bfbfbf" points="0,-248.5 0,-305.5 45,-305.5 45,-248.5 0,-248.5"/>
<text text-anchor="middle" x="22.5" y="-293.5" font-family="Helvetica,sans-Serif" font-size="10.00">double</text>
<polyline fill="none" stroke="#bfbfbf" points="0,-286.5 45,-286.5 "/>
<text text-anchor="middle" x="22.5" y="-274.5" font-family="Helvetica,sans-Serif" font-size="10.00"> </text>
<polyline fill="none" stroke="#bfbfbf" points="0,-267.5 45,-267.5 "/>
<text text-anchor="middle" x="22.5" y="-255.5" font-family="Helvetica,sans-Serif" font-size="10.00"> </text>
</g>
<!-- Node2&#45;&gt;Node1 -->
<g id="edge1" class="edge"><title>Node2&#45;&gt;Node1</title>
<path fill="none" stroke="#404040" d="M30.3215,-248.46C33.9149,-236.06 38.3034,-221.257 42.5,-208 43.2088,-205.761 43.93,-203.499 44.6613,-201.219"/>
<polygon fill="none" stroke="#404040" points="44.6909,-201.127 42.7347,-194.187 48.3891,-189.711 50.3454,-196.652 44.6909,-201.127"/>
<text text-anchor="middle" x="59.5" y="-222" font-family="Helvetica,sans-Serif" font-size="10.00"> +const</text>
<text text-anchor="middle" x="59.5" y="-211" font-family="Helvetica,sans-Serif" font-size="10.00">+row</text>
</g>
<!-- Node3 -->
<g id="node3" class="node"><title>Node3</title>
<g id="a_node3"><a xlink:href="../../d4/dc3/classfloat.html" target="_top" xlink:title="{float\n||}">
<polygon fill="none" stroke="black" points="63,-248.5 63,-305.5 98,-305.5 98,-248.5 63,-248.5"/>
<text text-anchor="middle" x="80.5" y="-293.5" font-family="Helvetica,sans-Serif" font-size="10.00">float</text>
<polyline fill="none" stroke="black" points="63,-286.5 98,-286.5 "/>
<text text-anchor="middle" x="80.5" y="-274.5" font-family="Helvetica,sans-Serif" font-size="10.00"> </text>
<polyline fill="none" stroke="black" points="63,-267.5 98,-267.5 "/>
<text text-anchor="middle" x="80.5" y="-255.5" font-family="Helvetica,sans-Serif" font-size="10.00"> </text>
</a>
</g>
</g>
<!-- Node3&#45;&gt;Node1 -->
<g id="edge2" class="edge"><title>Node3&#45;&gt;Node1</title>
<path fill="none" stroke="#404040" d="M80.5,-248.269C80.5,-235.414 80.5,-219.234 80.5,-202.255"/>
<polygon fill="none" stroke="#404040" points="80.5001,-201.787 76.5,-195.787 80.5,-189.787 84.5,-195.787 80.5001,-201.787"/>
<text text-anchor="middle" x="94.5" y="-222" font-family="Helvetica,sans-Serif" font-size="10.00"> +time</text>
<text text-anchor="middle" x="94.5" y="-211" font-family="Helvetica,sans-Serif" font-size="10.00">+z</text>
</g>
<!-- Node4 -->
<g id="node4" class="node"><title>Node4</title>
<polygon fill="none" stroke="#bfbfbf" points="117,-248.5 117,-305.5 146,-305.5 146,-248.5 117,-248.5"/>
<text text-anchor="middle" x="131.5" y="-293.5" font-family="Helvetica,sans-Serif" font-size="10.00">int</text>
<polyline fill="none" stroke="#bfbfbf" points="117,-286.5 146,-286.5 "/>
<text text-anchor="middle" x="131.5" y="-274.5" font-family="Helvetica,sans-Serif" font-size="10.00"> </text>
<polyline fill="none" stroke="#bfbfbf" points="117,-267.5 146,-267.5 "/>
<text text-anchor="middle" x="131.5" y="-255.5" font-family="Helvetica,sans-Serif" font-size="10.00"> </text>
</g>
<!-- Node4&#45;&gt;Node1 -->
<g id="edge3" class="edge"><title>Node4&#45;&gt;Node1</title>
<path fill="none" stroke="#404040" d="M123.643,-248.269C119.965,-235.289 115.327,-218.919 110.465,-201.76"/>
<polygon fill="none" stroke="#404040" points="110.344,-201.333 104.86,-196.65 107.073,-189.787 112.557,-194.47 110.344,-201.333"/>
<text text-anchor="middle" x="134.5" y="-222" font-family="Helvetica,sans-Serif" font-size="10.00"> +const</text>
<text text-anchor="middle" x="134.5" y="-211" font-family="Helvetica,sans-Serif" font-size="10.00">+row</text>
</g>
</g>
</svg>
