<?xml version="1.0" encoding="UTF-8" standalone="no"?>
<!DOCTYPE svg PUBLIC "-//W3C//DTD SVG 1.1//EN"
 "http://www.w3.org/Graphics/SVG/1.1/DTD/svg11.dtd">
<!-- Generated by graphviz version 2.38.0 (20140413.2041)
 -->
<!-- Title: /home/travis/build/AliceO2Group/AliceO2/Common/SimConfig/src/DigiParams.cxx Pages: 1 -->
<svg width="612pt" height="307pt"
 viewBox="0.00 0.00 611.50 307.00" xmlns="http://www.w3.org/2000/svg" xmlns:xlink="http://www.w3.org/1999/xlink">
<g id="graph0" class="graph" transform="scale(1 1) rotate(0) translate(4 303)">
<title>/home/travis/build/AliceO2Group/AliceO2/Common/SimConfig/src/DigiParams.cxx</title>
<!-- Node1 -->
<g id="node1" class="node"><title>Node1</title>
<polygon fill="#bfbfbf" stroke="black" points="339.5,-246.5 339.5,-298.5 464.5,-298.5 464.5,-246.5 339.5,-246.5"/>
<text text-anchor="start" x="347.5" y="-286.5" font-family="Helvetica,sans-Serif" font-size="10.00">/home/travis/build</text>
<text text-anchor="start" x="347.5" y="-275.5" font-family="Helvetica,sans-Serif" font-size="10.00">/AliceO2Group/AliceO2</text>
<text text-anchor="start" x="347.5" y="-264.5" font-family="Helvetica,sans-Serif" font-size="10.00">/Common/SimConfig/src</text>
<text text-anchor="middle" x="402" y="-253.5" font-family="Helvetica,sans-Serif" font-size="10.00">/DigiParams.cxx</text>
</g>
<!-- Node2 -->
<g id="node2" class="node"><title>Node2</title>
<g id="a_node2"><a xlink:href="../../d5/dd5/Common_2SimConfig_2include_2SimConfig_2DigiParams_8h.html" target="_top" xlink:title="SimConfig/DigiParams.h">
<polygon fill="none" stroke="black" points="339.5,-190.5 339.5,-209.5 464.5,-209.5 464.5,-190.5 339.5,-190.5"/>
<text text-anchor="middle" x="402" y="-197.5" font-family="Helvetica,sans-Serif" font-size="10.00">SimConfig/DigiParams.h</text>
</a>
</g>
</g>
<!-- Node1&#45;&gt;Node2 -->
<g id="edge1" class="edge"><title>Node1&#45;&gt;Node2</title>
<path fill="none" stroke="midnightblue" d="M402,-246.446C402,-237.73 402,-228.104 402,-219.964"/>
<polygon fill="midnightblue" stroke="midnightblue" points="405.5,-219.695 402,-209.695 398.5,-219.696 405.5,-219.695"/>
</g>
<!-- Node3 -->
<g id="node3" class="node"><title>Node3</title>
<g id="a_node3"><a xlink:href="../../db/d2c/ConfigurableParam_8h.html" target="_top" xlink:title="SimConfig/ConfigurableParam.h">
<polygon fill="none" stroke="black" points="188.5,-67.5 188.5,-86.5 345.5,-86.5 345.5,-67.5 188.5,-67.5"/>
<text text-anchor="middle" x="267" y="-74.5" font-family="Helvetica,sans-Serif" font-size="10.00">SimConfig/ConfigurableParam.h</text>
</a>
</g>
</g>
<!-- Node2&#45;&gt;Node3 -->
<g id="edge2" class="edge"><title>Node2&#45;&gt;Node3</title>
<path fill="none" stroke="midnightblue" d="M379.767,-190.405C361.942,-182.748 337.016,-170.246 319,-154 300.515,-137.331 285.281,-112.828 276.181,-96.1847"/>
<polygon fill="midnightblue" stroke="midnightblue" points="279.089,-94.1953 271.333,-86.9777 272.895,-97.4567 279.089,-94.1953"/>
</g>
<!-- Node10 -->
<g id="node10" class="node"><title>Node10</title>
<g id="a_node10"><a xlink:href="../../da/d6b/ConfigurableParamHelper_8h.html" target="_top" xlink:title="SimConfig/ConfigurableParam\lHelper.h">
<polygon fill="none" stroke="black" points="327.5,-123.5 327.5,-153.5 476.5,-153.5 476.5,-123.5 327.5,-123.5"/>
<text text-anchor="start" x="335.5" y="-141.5" font-family="Helvetica,sans-Serif" font-size="10.00">SimConfig/ConfigurableParam</text>
<text text-anchor="middle" x="402" y="-130.5" font-family="Helvetica,sans-Serif" font-size="10.00">Helper.h</text>
</a>
</g>
</g>
<!-- Node2&#45;&gt;Node10 -->
<g id="edge9" class="edge"><title>Node2&#45;&gt;Node10</title>
<path fill="none" stroke="midnightblue" d="M402,-190.475C402,-183.471 402,-173.192 402,-163.696"/>
<polygon fill="midnightblue" stroke="midnightblue" points="405.5,-163.523 402,-153.523 398.5,-163.523 405.5,-163.523"/>
</g>
<!-- Node14 -->
<g id="node14" class="node"><title>Node14</title>
<polygon fill="none" stroke="#bfbfbf" points="494.5,-129 494.5,-148 535.5,-148 535.5,-129 494.5,-129"/>
<text text-anchor="middle" x="515" y="-136" font-family="Helvetica,sans-Serif" font-size="10.00">string</text>
</g>
<!-- Node2&#45;&gt;Node14 -->
<g id="edge15" class="edge"><title>Node2&#45;&gt;Node14</title>
<path fill="none" stroke="midnightblue" d="M418.19,-190.475C436.902,-180.622 467.923,-164.288 489.799,-152.77"/>
<polygon fill="midnightblue" stroke="midnightblue" points="491.622,-155.765 498.84,-148.009 488.361,-149.571 491.622,-155.765"/>
</g>
<!-- Node4 -->
<g id="node4" class="node"><title>Node4</title>
<polygon fill="none" stroke="#bfbfbf" points="0,-6 0,-25 44,-25 44,-6 0,-6"/>
<text text-anchor="middle" x="22" y="-13" font-family="Helvetica,sans-Serif" font-size="10.00">vector</text>
</g>
<!-- Node3&#45;&gt;Node4 -->
<g id="edge3" class="edge"><title>Node3&#45;&gt;Node4</title>
<path fill="none" stroke="midnightblue" d="M208.821,-67.4912C165.233,-60.2263 104.493,-48.2008 53,-31 51.334,-30.4435 49.6394,-29.8222 47.945,-29.1584"/>
<polygon fill="midnightblue" stroke="midnightblue" points="49.0112,-25.8062 38.4435,-25.0486 46.2322,-32.231 49.0112,-25.8062"/>
</g>
<!-- Node5 -->
<g id="node5" class="node"><title>Node5</title>
<polygon fill="none" stroke="#bfbfbf" points="62.5,-6 62.5,-25 97.5,-25 97.5,-6 62.5,-6"/>
<text text-anchor="middle" x="80" y="-13" font-family="Helvetica,sans-Serif" font-size="10.00">map</text>
</g>
<!-- Node3&#45;&gt;Node5 -->
<g id="edge4" class="edge"><title>Node3&#45;&gt;Node5</title>
<path fill="none" stroke="midnightblue" d="M226.42,-67.4635C193.323,-59.8405 145.718,-47.3558 106,-31 104.996,-30.5867 103.982,-30.1437 102.967,-29.6785"/>
<polygon fill="midnightblue" stroke="midnightblue" points="104.501,-26.5319 94.0026,-25.1023 101.318,-32.7665 104.501,-26.5319"/>
</g>
<!-- Node6 -->
<g id="node6" class="node"><title>Node6</title>
<polygon fill="none" stroke="#bfbfbf" points="115.5,-6 115.5,-25 198.5,-25 198.5,-6 115.5,-6"/>
<text text-anchor="middle" x="157" y="-13" font-family="Helvetica,sans-Serif" font-size="10.00">unordered_map</text>
</g>
<!-- Node3&#45;&gt;Node6 -->
<g id="edge5" class="edge"><title>Node3&#45;&gt;Node6</title>
<path fill="none" stroke="midnightblue" d="M251.24,-67.4751C233.024,-57.6222 202.827,-41.2883 181.532,-29.7697"/>
<polygon fill="midnightblue" stroke="midnightblue" points="183.192,-26.6883 172.731,-25.0091 179.862,-32.8453 183.192,-26.6883"/>
</g>
<!-- Node7 -->
<g id="node7" class="node"><title>Node7</title>
<polygon fill="none" stroke="#bfbfbf" points="216.5,-0.5 216.5,-30.5 317.5,-30.5 317.5,-0.5 216.5,-0.5"/>
<text text-anchor="start" x="224.5" y="-18.5" font-family="Helvetica,sans-Serif" font-size="10.00">boost/property_tree</text>
<text text-anchor="middle" x="267" y="-7.5" font-family="Helvetica,sans-Serif" font-size="10.00">/ptree.hpp</text>
</g>
<!-- Node3&#45;&gt;Node7 -->
<g id="edge6" class="edge"><title>Node3&#45;&gt;Node7</title>
<path fill="none" stroke="midnightblue" d="M267,-67.4751C267,-60.471 267,-50.1919 267,-40.6956"/>
<polygon fill="midnightblue" stroke="midnightblue" points="270.5,-40.5229 267,-30.523 263.5,-40.523 270.5,-40.5229"/>
</g>
<!-- Node8 -->
<g id="node8" class="node"><title>Node8</title>
<polygon fill="none" stroke="#bfbfbf" points="408.5,-6 408.5,-25 459.5,-25 459.5,-6 408.5,-6"/>
<text text-anchor="middle" x="434" y="-13" font-family="Helvetica,sans-Serif" font-size="10.00">typeinfo</text>
</g>
<!-- Node3&#45;&gt;Node8 -->
<g id="edge7" class="edge"><title>Node3&#45;&gt;Node8</title>
<path fill="none" stroke="midnightblue" d="M293.726,-67.4473C320.518,-58.7425 362.867,-44.6278 399,-31 400.846,-30.3037 402.74,-29.5715 404.646,-28.8213"/>
<polygon fill="midnightblue" stroke="midnightblue" points="406.137,-31.9939 414.099,-25.0041 403.516,-25.5032 406.137,-31.9939"/>
</g>
<!-- Node9 -->
<g id="node9" class="node"><title>Node9</title>
<polygon fill="none" stroke="#bfbfbf" points="336,-6 336,-25 390,-25 390,-6 336,-6"/>
<text text-anchor="middle" x="363" y="-13" font-family="Helvetica,sans-Serif" font-size="10.00">iostream</text>
</g>
<!-- Node3&#45;&gt;Node9 -->
<g id="edge8" class="edge"><title>Node3&#45;&gt;Node9</title>
<path fill="none" stroke="midnightblue" d="M280.754,-67.4751C296.366,-57.7989 322.063,-41.8721 340.583,-30.3941"/>
<polygon fill="midnightblue" stroke="midnightblue" points="342.615,-33.2522 349.271,-25.0091 338.927,-27.3023 342.615,-33.2522"/>
</g>
<!-- Node10&#45;&gt;Node3 -->
<g id="edge10" class="edge"><title>Node10&#45;&gt;Node3</title>
<path fill="none" stroke="midnightblue" d="M370.007,-123.399C347.558,-113.505 317.785,-100.383 296.024,-90.7919"/>
<polygon fill="midnightblue" stroke="midnightblue" points="297.206,-87.4882 286.644,-86.6578 294.383,-93.8936 297.206,-87.4882"/>
</g>
<!-- Node10&#45;&gt;Node8 -->
<g id="edge13" class="edge"><title>Node10&#45;&gt;Node8</title>
<path fill="none" stroke="midnightblue" d="M396.457,-123.314C391.629,-108.78 386.357,-85.722 393,-67 397.673,-53.8294 407.409,-41.5915 416.221,-32.4623"/>
<polygon fill="midnightblue" stroke="midnightblue" points="418.857,-34.7803 423.576,-25.2945 413.972,-29.767 418.857,-34.7803"/>
</g>
<!-- Node11 -->
<g id="node11" class="node"><title>Node11</title>
<polygon fill="none" stroke="#bfbfbf" points="402,-67.5 402,-86.5 458,-86.5 458,-67.5 402,-67.5"/>
<text text-anchor="middle" x="430" y="-74.5" font-family="Helvetica,sans-Serif" font-size="10.00">TClass.h</text>
</g>
<!-- Node10&#45;&gt;Node11 -->
<g id="edge11" class="edge"><title>Node10&#45;&gt;Node11</title>
<path fill="none" stroke="midnightblue" d="M408.636,-123.399C412.537,-115.11 417.504,-104.554 421.667,-95.7077"/>
<polygon fill="midnightblue" stroke="midnightblue" points="424.835,-97.1963 425.926,-86.6578 418.501,-94.2157 424.835,-97.1963"/>
</g>
<!-- Node12 -->
<g id="node12" class="node"><title>Node12</title>
<polygon fill="none" stroke="#bfbfbf" points="476,-67.5 476,-86.5 538,-86.5 538,-67.5 476,-67.5"/>
<text text-anchor="middle" x="507" y="-74.5" font-family="Helvetica,sans-Serif" font-size="10.00">type_traits</text>
</g>
<!-- Node10&#45;&gt;Node12 -->
<g id="edge12" class="edge"><title>Node10&#45;&gt;Node12</title>
<path fill="none" stroke="midnightblue" d="M426.884,-123.399C443.714,-113.862 465.839,-101.325 482.573,-91.8422"/>
<polygon fill="midnightblue" stroke="midnightblue" points="484.747,-94.633 491.722,-86.6578 481.296,-88.5429 484.747,-94.633"/>
</g>
<!-- Node13 -->
<g id="node13" class="node"><title>Node13</title>
<polygon fill="none" stroke="#bfbfbf" points="556.5,-67.5 556.5,-86.5 603.5,-86.5 603.5,-67.5 556.5,-67.5"/>
<text text-anchor="middle" x="580" y="-74.5" font-family="Helvetica,sans-Serif" font-size="10.00">TFile.h</text>
</g>
<!-- Node10&#45;&gt;Node13 -->
<g id="edge14" class="edge"><title>Node10&#45;&gt;Node13</title>
<path fill="none" stroke="midnightblue" d="M444.184,-123.399C475.543,-112.917 517.744,-98.8104 546.737,-89.1189"/>
<polygon fill="midnightblue" stroke="midnightblue" points="548.027,-92.378 556.402,-85.8882 545.808,-85.7391 548.027,-92.378"/>
</g>
</g>
</svg>
