<?xml version="1.0" encoding="UTF-8" standalone="no"?>
<!DOCTYPE svg PUBLIC "-//W3C//DTD SVG 1.1//EN"
 "http://www.w3.org/Graphics/SVG/1.1/DTD/svg11.dtd">
<!-- Generated by graphviz version 2.38.0 (20140413.2041)
 -->
<!-- Title: /home/travis/build/AliceO2Group/AliceO2/GPU/TPCSpaceChargeBase/AliTPCPoissonSolver.cxx Pages: 1 -->
<svg width="256pt" height="173pt"
 viewBox="0.00 0.00 256.00 173.00" xmlns="http://www.w3.org/2000/svg" xmlns:xlink="http://www.w3.org/1999/xlink">
<g id="graph0" class="graph" transform="scale(1 1) rotate(0) translate(4 169)">
<title>/home/travis/build/AliceO2Group/AliceO2/GPU/TPCSpaceChargeBase/AliTPCPoissonSolver.cxx</title>
<!-- Node1 -->
<g id="node1" class="node"><title>Node1</title>
<polygon fill="#bfbfbf" stroke="black" points="5.5,-112.5 5.5,-164.5 151.5,-164.5 151.5,-112.5 5.5,-112.5"/>
<text text-anchor="start" x="13.5" y="-152.5" font-family="Helvetica,sans-Serif" font-size="10.00">/home/travis/build</text>
<text text-anchor="start" x="13.5" y="-141.5" font-family="Helvetica,sans-Serif" font-size="10.00">/AliceO2Group/AliceO2</text>
<text text-anchor="start" x="13.5" y="-130.5" font-family="Helvetica,sans-Serif" font-size="10.00">/GPU/TPCSpaceChargeBase</text>
<text text-anchor="middle" x="78.5" y="-119.5" font-family="Helvetica,sans-Serif" font-size="10.00">/AliTPCPoissonSolver.cxx</text>
</g>
<!-- Node2 -->
<g id="node2" class="node"><title>Node2</title>
<polygon fill="none" stroke="#bfbfbf" points="-3.55271e-15,-56.5 -3.55271e-15,-75.5 53,-75.5 53,-56.5 -3.55271e-15,-56.5"/>
<text text-anchor="middle" x="26.5" y="-63.5" font-family="Helvetica,sans-Serif" font-size="10.00">TMath.h</text>
</g>
<!-- Node1&#45;&gt;Node2 -->
<g id="edge1" class="edge"><title>Node1&#45;&gt;Node2</title>
<path fill="none" stroke="midnightblue" d="M60.0203,-112.446C53.0006,-102.929 45.1806,-92.3266 38.8605,-83.758"/>
<polygon fill="midnightblue" stroke="midnightblue" points="41.6663,-81.6656 32.9137,-75.6955 36.0329,-85.8208 41.6663,-81.6656"/>
</g>
<!-- Node3 -->
<g id="node3" class="node"><title>Node3</title>
<g id="a_node3"><a xlink:href="../../dd/d13/AliTPCPoissonSolver_8h.html" target="_top" xlink:title="This class provides implementation of Poisson Eq solver by MultiGrid Method. ">
<polygon fill="none" stroke="black" points="71,-56.5 71,-75.5 190,-75.5 190,-56.5 71,-56.5"/>
<text text-anchor="middle" x="130.5" y="-63.5" font-family="Helvetica,sans-Serif" font-size="10.00">AliTPCPoissonSolver.h</text>
</a>
</g>
</g>
<!-- Node1&#45;&gt;Node3 -->
<g id="edge2" class="edge"><title>Node1&#45;&gt;Node3</title>
<path fill="none" stroke="midnightblue" d="M96.9797,-112.446C103.999,-102.929 111.819,-92.3266 118.139,-83.758"/>
<polygon fill="midnightblue" stroke="midnightblue" points="120.967,-85.8208 124.086,-75.6955 115.334,-81.6656 120.967,-85.8208"/>
</g>
<!-- Node4 -->
<g id="node4" class="node"><title>Node4</title>
<polygon fill="none" stroke="#bfbfbf" points="17.5,-0.5 17.5,-19.5 79.5,-19.5 79.5,-0.5 17.5,-0.5"/>
<text text-anchor="middle" x="48.5" y="-7.5" font-family="Helvetica,sans-Serif" font-size="10.00">TNamed.h</text>
</g>
<!-- Node3&#45;&gt;Node4 -->
<g id="edge3" class="edge"><title>Node3&#45;&gt;Node4</title>
<path fill="none" stroke="midnightblue" d="M117.325,-56.324C104.653,-47.979 85.2666,-35.2122 70.2944,-25.3524"/>
<polygon fill="midnightblue" stroke="midnightblue" points="71.9187,-22.2313 61.642,-19.6545 68.0688,-28.0776 71.9187,-22.2313"/>
</g>
<!-- Node5 -->
<g id="node5" class="node"><title>Node5</title>
<polygon fill="none" stroke="#bfbfbf" points="98,-0.5 98,-19.5 163,-19.5 163,-0.5 98,-0.5"/>
<text text-anchor="middle" x="130.5" y="-7.5" font-family="Helvetica,sans-Serif" font-size="10.00">TMatrixD.h</text>
</g>
<!-- Node3&#45;&gt;Node5 -->
<g id="edge4" class="edge"><title>Node3&#45;&gt;Node5</title>
<path fill="none" stroke="midnightblue" d="M130.5,-56.083C130.5,-49.0059 130.5,-38.8611 130.5,-29.9865"/>
<polygon fill="midnightblue" stroke="midnightblue" points="134,-29.751 130.5,-19.7511 127,-29.7511 134,-29.751"/>
</g>
<!-- Node6 -->
<g id="node6" class="node"><title>Node6</title>
<polygon fill="none" stroke="#bfbfbf" points="181,-0.5 181,-19.5 248,-19.5 248,-0.5 181,-0.5"/>
<text text-anchor="middle" x="214.5" y="-7.5" font-family="Helvetica,sans-Serif" font-size="10.00">TVectorD.h</text>
</g>
<!-- Node3&#45;&gt;Node6 -->
<g id="edge5" class="edge"><title>Node3&#45;&gt;Node6</title>
<path fill="none" stroke="midnightblue" d="M143.996,-56.324C157.1,-47.9002 177.212,-34.9709 192.607,-25.0741"/>
<polygon fill="midnightblue" stroke="midnightblue" points="194.518,-28.0063 201.037,-19.6545 190.733,-22.118 194.518,-28.0063"/>
</g>
</g>
</svg>
