<?xml version="1.0" encoding="UTF-8" standalone="no"?>
<!DOCTYPE svg PUBLIC "-//W3C//DTD SVG 1.1//EN"
 "http://www.w3.org/Graphics/SVG/1.1/DTD/svg11.dtd">
<!-- Generated by graphviz version 2.38.0 (20140413.2041)
 -->
<!-- Title: o2::mid::Cluster3D Pages: 1 -->
<svg width="120pt" height="215pt"
 viewBox="0.00 0.00 119.50 215.00" xmlns="http://www.w3.org/2000/svg" xmlns:xlink="http://www.w3.org/1999/xlink">
<g id="graph0" class="graph" transform="scale(1 1) rotate(0) translate(4 211)">
<title>o2::mid::Cluster3D</title>
<!-- Node1 -->
<g id="node1" class="node"><title>Node1</title>
<polygon fill="#bfbfbf" stroke="black" points="3,-0.5 3,-57.5 102,-57.5 102,-0.5 3,-0.5"/>
<text text-anchor="middle" x="52.5" y="-45.5" font-family="Helvetica,sans-Serif" font-size="10.00">o2::mid::Cluster3D</text>
<polyline fill="none" stroke="black" points="3,-38.5 102,-38.5 "/>
<text text-anchor="middle" x="52.5" y="-26.5" font-family="Helvetica,sans-Serif" font-size="10.00"> </text>
<polyline fill="none" stroke="black" points="3,-19.5 102,-19.5 "/>
<text text-anchor="middle" x="52.5" y="-7.5" font-family="Helvetica,sans-Serif" font-size="10.00"> </text>
</g>
<!-- Node2 -->
<g id="node2" class="node"><title>Node2</title>
<g id="a_node2"><a xlink:href="../../d4/dc3/classfloat.html" target="_top" xlink:title="{float\n||}">
<polygon fill="none" stroke="black" points="0,-149.5 0,-206.5 35,-206.5 35,-149.5 0,-149.5"/>
<text text-anchor="middle" x="17.5" y="-194.5" font-family="Helvetica,sans-Serif" font-size="10.00">float</text>
<polyline fill="none" stroke="black" points="0,-187.5 35,-187.5 "/>
<text text-anchor="middle" x="17.5" y="-175.5" font-family="Helvetica,sans-Serif" font-size="10.00"> </text>
<polyline fill="none" stroke="black" points="0,-168.5 35,-168.5 "/>
<text text-anchor="middle" x="17.5" y="-156.5" font-family="Helvetica,sans-Serif" font-size="10.00"> </text>
</a>
</g>
</g>
<!-- Node2&#45;&gt;Node1 -->
<g id="edge1" class="edge"><title>Node2&#45;&gt;Node1</title>
<path fill="none" stroke="#404040" d="M13.2573,-149.235C11.157,-128.506 10.5357,-99.7775 18.5,-76 19.4048,-73.2986 20.5338,-70.625 21.8254,-68.0069"/>
<polygon fill="none" stroke="#404040" points="21.8367,-67.9874 21.4113,-60.7888 27.8924,-57.6274 28.3179,-64.826 21.8367,-67.9874"/>
<text text-anchor="middle" x="42.5" y="-123" font-family="Helvetica,sans-Serif" font-size="10.00"> +sigmaX2</text>
<text text-anchor="middle" x="42.5" y="-112" font-family="Helvetica,sans-Serif" font-size="10.00">+xCoor</text>
<text text-anchor="middle" x="42.5" y="-101" font-family="Helvetica,sans-Serif" font-size="10.00">+yCoor</text>
<text text-anchor="middle" x="42.5" y="-90" font-family="Helvetica,sans-Serif" font-size="10.00">+zCoor</text>
<text text-anchor="middle" x="42.5" y="-79" font-family="Helvetica,sans-Serif" font-size="10.00">+sigmaY2</text>
</g>
<!-- Node3 -->
<g id="node3" class="node"><title>Node3</title>
<polygon fill="none" stroke="#bfbfbf" points="65.5,-149.5 65.5,-206.5 111.5,-206.5 111.5,-149.5 65.5,-149.5"/>
<text text-anchor="middle" x="88.5" y="-194.5" font-family="Helvetica,sans-Serif" font-size="10.00">uint8_t</text>
<polyline fill="none" stroke="#bfbfbf" points="65.5,-187.5 111.5,-187.5 "/>
<text text-anchor="middle" x="88.5" y="-175.5" font-family="Helvetica,sans-Serif" font-size="10.00"> </text>
<polyline fill="none" stroke="#bfbfbf" points="65.5,-168.5 111.5,-168.5 "/>
<text text-anchor="middle" x="88.5" y="-156.5" font-family="Helvetica,sans-Serif" font-size="10.00"> </text>
</g>
<!-- Node3&#45;&gt;Node1 -->
<g id="edge2" class="edge"><title>Node3&#45;&gt;Node1</title>
<path fill="none" stroke="#404040" d="M83.1209,-149.422C78.9929,-129.038 72.9269,-100.659 66.5,-76 65.9401,-73.8518 65.3455,-71.6535 64.7293,-69.4387"/>
<polygon fill="none" stroke="#404040" points="64.6465,-69.1526 59.1337,-64.5039 61.3046,-57.6273 66.8173,-62.276 64.6465,-69.1526"/>
<text text-anchor="middle" x="93.5" y="-101" font-family="Helvetica,sans-Serif" font-size="10.00"> +deId</text>
</g>
</g>
</svg>
