<?xml version="1.0" encoding="UTF-8" standalone="no"?>
<!DOCTYPE svg PUBLIC "-//W3C//DTD SVG 1.1//EN"
 "http://www.w3.org/Graphics/SVG/1.1/DTD/svg11.dtd">
<!-- Generated by graphviz version 2.38.0 (20140413.2041)
 -->
<!-- Title: /home/travis/build/AliceO2Group/AliceO2/Detectors/ITSMFT/ITS/reconstruction/src/TrivialClusterer.cxx Pages: 1 -->
<svg width="2260pt" height="575pt"
 viewBox="0.00 0.00 2260.00 575.00" xmlns="http://www.w3.org/2000/svg" xmlns:xlink="http://www.w3.org/1999/xlink">
<g id="graph0" class="graph" transform="scale(1 1) rotate(0) translate(4 571)">
<title>/home/travis/build/AliceO2Group/AliceO2/Detectors/ITSMFT/ITS/reconstruction/src/TrivialClusterer.cxx</title>
<!-- Node1 -->
<g id="node1" class="node"><title>Node1</title>
<polygon fill="#bfbfbf" stroke="black" points="1255.5,-514.5 1255.5,-566.5 1440.5,-566.5 1440.5,-514.5 1255.5,-514.5"/>
<text text-anchor="start" x="1263.5" y="-554.5" font-family="Helvetica,sans-Serif" font-size="10.00">/home/travis/build</text>
<text text-anchor="start" x="1263.5" y="-543.5" font-family="Helvetica,sans-Serif" font-size="10.00">/AliceO2Group/AliceO2</text>
<text text-anchor="start" x="1263.5" y="-532.5" font-family="Helvetica,sans-Serif" font-size="10.00">/Detectors/ITSMFT/ITS</text>
<text text-anchor="middle" x="1348" y="-521.5" font-family="Helvetica,sans-Serif" font-size="10.00">/reconstruction/src/TrivialClusterer.cxx</text>
</g>
<!-- Node2 -->
<g id="node2" class="node"><title>Node2</title>
<g id="a_node2"><a xlink:href="../../dd/d76/Cartesian3D_8h.html" target="_top" xlink:title="MathUtils/Cartesian3D.h">
<polygon fill="none" stroke="black" points="790.5,-252 790.5,-271 915.5,-271 915.5,-252 790.5,-252"/>
<text text-anchor="middle" x="853" y="-259" font-family="Helvetica,sans-Serif" font-size="10.00">MathUtils/Cartesian3D.h</text>
</a>
</g>
</g>
<!-- Node1&#45;&gt;Node2 -->
<g id="edge1" class="edge"><title>Node1&#45;&gt;Node2</title>
<path fill="none" stroke="midnightblue" d="M1255.39,-534.75C1173.02,-528.31 1050.29,-513.222 949,-478 892.037,-458.191 866.19,-459.978 831,-411 805.363,-375.318 804.889,-354.935 818,-313 821.948,-300.372 830.286,-288.126 837.834,-278.857"/>
<polygon fill="midnightblue" stroke="midnightblue" points="840.511,-281.112 844.395,-271.255 835.211,-276.539 840.511,-281.112"/>
</g>
<!-- Node14 -->
<g id="node14" class="node"><title>Node14</title>
<g id="a_node14"><a xlink:href="../../d6/d24/Detectors_2ITSMFT_2common_2base_2include_2ITSMFTBase_2Digit_8h.html" target="_top" xlink:title="ITSMFTBase/Digit.h">
<polygon fill="none" stroke="black" points="1249.5,-453 1249.5,-472 1356.5,-472 1356.5,-453 1249.5,-453"/>
<text text-anchor="middle" x="1303" y="-460" font-family="Helvetica,sans-Serif" font-size="10.00">ITSMFTBase/Digit.h</text>
</a>
</g>
</g>
<!-- Node1&#45;&gt;Node14 -->
<g id="edge13" class="edge"><title>Node1&#45;&gt;Node14</title>
<path fill="none" stroke="midnightblue" d="M1333.02,-514.193C1326.57,-503.312 1319.2,-490.861 1313.38,-481.022"/>
<polygon fill="midnightblue" stroke="midnightblue" points="1316.26,-479.03 1308.16,-472.209 1310.24,-482.597 1316.26,-479.03"/>
</g>
<!-- Node16 -->
<g id="node16" class="node"><title>Node16</title>
<g id="a_node16"><a xlink:href="../../d3/dba/SegmentationAlpide_8h.html" target="_top" xlink:title="Definition of the SegmentationAlpide class. ">
<polygon fill="none" stroke="black" points="1050.5,-319 1050.5,-338 1223.5,-338 1223.5,-319 1050.5,-319"/>
<text text-anchor="middle" x="1137" y="-326" font-family="Helvetica,sans-Serif" font-size="10.00">ITSMFTBase/SegmentationAlpide.h</text>
</a>
</g>
</g>
<!-- Node1&#45;&gt;Node16 -->
<g id="edge16" class="edge"><title>Node1&#45;&gt;Node16</title>
<path fill="none" stroke="midnightblue" d="M1294.02,-514.481C1276,-504.63 1256.57,-492.242 1241,-478 1197.57,-438.289 1162.11,-377.379 1146.14,-347.413"/>
<polygon fill="midnightblue" stroke="midnightblue" points="1149.05,-345.433 1141.32,-338.189 1142.85,-348.674 1149.05,-345.433"/>
</g>
<!-- Node17 -->
<g id="node17" class="node"><title>Node17</title>
<g id="a_node17"><a xlink:href="../../d1/d76/TrivialClusterer_8h.html" target="_top" xlink:title="Definition of the ITS cluster finder. ">
<polygon fill="none" stroke="black" points="958,-447.5 958,-477.5 1086,-477.5 1086,-447.5 958,-447.5"/>
<text text-anchor="start" x="966" y="-465.5" font-family="Helvetica,sans-Serif" font-size="10.00">ITSReconstruction/Trivial</text>
<text text-anchor="middle" x="1022" y="-454.5" font-family="Helvetica,sans-Serif" font-size="10.00">Clusterer.h</text>
</a>
</g>
</g>
<!-- Node1&#45;&gt;Node17 -->
<g id="edge19" class="edge"><title>Node1&#45;&gt;Node17</title>
<path fill="none" stroke="midnightblue" d="M1255.45,-517.925C1203.61,-505.838 1139.99,-491.007 1092.27,-479.881"/>
<polygon fill="midnightblue" stroke="midnightblue" points="1092.87,-476.427 1082.33,-477.566 1091.28,-483.245 1092.87,-476.427"/>
</g>
<!-- Node41 -->
<g id="node41" class="node"><title>Node41</title>
<g id="a_node41"><a xlink:href="../../d1/d62/DataFormats_2Detectors_2ITSMFT_2common_2include_2DataFormatsITSMFT_2Cluster_8h.html" target="_top" xlink:title="DataFormatsITSMFT/Cluster.h">
<polygon fill="none" stroke="black" points="1453,-453 1453,-472 1605,-472 1605,-453 1453,-453"/>
<text text-anchor="middle" x="1529" y="-460" font-family="Helvetica,sans-Serif" font-size="10.00">DataFormatsITSMFT/Cluster.h</text>
</a>
</g>
</g>
<!-- Node1&#45;&gt;Node41 -->
<g id="edge51" class="edge"><title>Node1&#45;&gt;Node41</title>
<path fill="none" stroke="midnightblue" d="M1407.77,-514.404C1438.49,-501.503 1474.58,-486.35 1499.35,-475.951"/>
<polygon fill="midnightblue" stroke="midnightblue" points="1500.71,-479.176 1508.57,-472.078 1498,-472.722 1500.71,-479.176"/>
</g>
<!-- Node46 -->
<g id="node46" class="node"><title>Node46</title>
<g id="a_node46"><a xlink:href="../../d7/dcd/MCCompLabel_8h.html" target="_top" xlink:title="SimulationDataFormat\l/MCCompLabel.h">
<polygon fill="none" stroke="black" points="1344,-380.5 1344,-410.5 1458,-410.5 1458,-380.5 1344,-380.5"/>
<text text-anchor="start" x="1352" y="-398.5" font-family="Helvetica,sans-Serif" font-size="10.00">SimulationDataFormat</text>
<text text-anchor="middle" x="1401" y="-387.5" font-family="Helvetica,sans-Serif" font-size="10.00">/MCCompLabel.h</text>
</a>
</g>
</g>
<!-- Node1&#45;&gt;Node46 -->
<g id="edge60" class="edge"><title>Node1&#45;&gt;Node46</title>
<path fill="none" stroke="midnightblue" d="M1357.35,-514.264C1367.22,-487.649 1382.64,-446.046 1392.26,-420.076"/>
<polygon fill="midnightblue" stroke="midnightblue" points="1395.57,-421.225 1395.76,-410.631 1389.01,-418.792 1395.57,-421.225"/>
</g>
<!-- Node47 -->
<g id="node47" class="node"><title>Node47</title>
<g id="a_node47"><a xlink:href="../../db/d14/MCTruthContainer_8h.html" target="_top" xlink:title="Definition of a container to keep Monte Carlo truth external to simulation objects. ">
<polygon fill="none" stroke="black" points="1851,-246.5 1851,-276.5 1965,-276.5 1965,-246.5 1851,-246.5"/>
<text text-anchor="start" x="1859" y="-264.5" font-family="Helvetica,sans-Serif" font-size="10.00">SimulationDataFormat</text>
<text text-anchor="middle" x="1908" y="-253.5" font-family="Helvetica,sans-Serif" font-size="10.00">/MCTruthContainer.h</text>
</a>
</g>
</g>
<!-- Node1&#45;&gt;Node47 -->
<g id="edge62" class="edge"><title>Node1&#45;&gt;Node47</title>
<path fill="none" stroke="midnightblue" d="M1440.57,-527.554C1493.13,-518.479 1559.17,-503.136 1614,-478 1727.11,-426.142 1839.91,-326.816 1886.14,-283.531"/>
<polygon fill="midnightblue" stroke="midnightblue" points="1888.62,-286.01 1893.49,-276.602 1883.81,-280.919 1888.62,-286.01"/>
</g>
<!-- Node53 -->
<g id="node53" class="node"><title>Node53</title>
<polygon fill="none" stroke="#bfbfbf" points="1831.5,-453 1831.5,-472 1902.5,-472 1902.5,-453 1831.5,-453"/>
<text text-anchor="middle" x="1867" y="-460" font-family="Helvetica,sans-Serif" font-size="10.00">FairLogger.h</text>
</g>
<!-- Node1&#45;&gt;Node53 -->
<g id="edge72" class="edge"><title>Node1&#45;&gt;Node53</title>
<path fill="none" stroke="midnightblue" d="M1440.8,-531.525C1535.93,-522.373 1687.79,-505.044 1817,-478 1821.45,-477.069 1826.08,-475.944 1830.65,-474.737"/>
<polygon fill="midnightblue" stroke="midnightblue" points="1831.77,-478.06 1840.46,-472.008 1829.89,-471.316 1831.77,-478.06"/>
</g>
<!-- Node3 -->
<g id="node3" class="node"><title>Node3</title>
<polygon fill="none" stroke="#bfbfbf" points="415.5,-179.5 415.5,-209.5 566.5,-209.5 566.5,-179.5 415.5,-179.5"/>
<text text-anchor="start" x="423.5" y="-197.5" font-family="Helvetica,sans-Serif" font-size="10.00">Math/GenVector/Displacement</text>
<text text-anchor="middle" x="491" y="-186.5" font-family="Helvetica,sans-Serif" font-size="10.00">Vector3D.h</text>
</g>
<!-- Node2&#45;&gt;Node3 -->
<g id="edge2" class="edge"><title>Node2&#45;&gt;Node3</title>
<path fill="none" stroke="midnightblue" d="M805.303,-251.936C747.176,-241.498 647.891,-223.671 576.45,-210.843"/>
<polygon fill="midnightblue" stroke="midnightblue" points="577.022,-207.39 566.561,-209.068 575.785,-214.28 577.022,-207.39"/>
</g>
<!-- Node4 -->
<g id="node4" class="node"><title>Node4</title>
<polygon fill="none" stroke="#bfbfbf" points="585,-185 585,-204 761,-204 761,-185 585,-185"/>
<text text-anchor="middle" x="673" y="-192" font-family="Helvetica,sans-Serif" font-size="10.00">Math/GenVector/PositionVector3D.h</text>
</g>
<!-- Node2&#45;&gt;Node4 -->
<g id="edge3" class="edge"><title>Node2&#45;&gt;Node4</title>
<path fill="none" stroke="midnightblue" d="M829.097,-251.869C797.541,-240.473 741.823,-220.353 706.194,-207.487"/>
<polygon fill="midnightblue" stroke="midnightblue" points="707.309,-204.168 696.715,-204.064 704.932,-210.752 707.309,-204.168"/>
</g>
<!-- Node5 -->
<g id="node5" class="node"><title>Node5</title>
<polygon fill="none" stroke="#bfbfbf" points="778.5,-185 778.5,-204 927.5,-204 927.5,-185 778.5,-185"/>
<text text-anchor="middle" x="853" y="-192" font-family="Helvetica,sans-Serif" font-size="10.00">Math/GenVector/Rotation3D.h</text>
</g>
<!-- Node2&#45;&gt;Node5 -->
<g id="edge4" class="edge"><title>Node2&#45;&gt;Node5</title>
<path fill="none" stroke="midnightblue" d="M853,-251.734C853,-242.183 853,-226.618 853,-214.283"/>
<polygon fill="midnightblue" stroke="midnightblue" points="856.5,-214.127 853,-204.127 849.5,-214.127 856.5,-214.127"/>
</g>
<!-- Node6 -->
<g id="node6" class="node"><title>Node6</title>
<polygon fill="none" stroke="#bfbfbf" points="946,-185 946,-204 1102,-204 1102,-185 946,-185"/>
<text text-anchor="middle" x="1024" y="-192" font-family="Helvetica,sans-Serif" font-size="10.00">Math/GenVector/Transform3D.h</text>
</g>
<!-- Node2&#45;&gt;Node6 -->
<g id="edge5" class="edge"><title>Node2&#45;&gt;Node6</title>
<path fill="none" stroke="midnightblue" d="M875.707,-251.869C905.558,-240.522 958.166,-220.525 992.03,-207.652"/>
<polygon fill="midnightblue" stroke="midnightblue" points="993.367,-210.888 1001.47,-204.064 990.88,-204.345 993.367,-210.888"/>
</g>
<!-- Node7 -->
<g id="node7" class="node"><title>Node7</title>
<polygon fill="none" stroke="#bfbfbf" points="0,-185 0,-204 160,-204 160,-185 0,-185"/>
<text text-anchor="middle" x="80" y="-192" font-family="Helvetica,sans-Serif" font-size="10.00">Math/GenVector/Translation3D.h</text>
</g>
<!-- Node2&#45;&gt;Node7 -->
<g id="edge6" class="edge"><title>Node2&#45;&gt;Node7</title>
<path fill="none" stroke="midnightblue" d="M790.111,-257.707C669.39,-251.935 396.928,-236.929 169,-210 158.75,-208.789 147.876,-207.24 137.38,-205.608"/>
<polygon fill="midnightblue" stroke="midnightblue" points="137.892,-202.145 127.466,-204.025 136.789,-209.057 137.892,-202.145"/>
</g>
<!-- Node8 -->
<g id="node8" class="node"><title>Node8</title>
<polygon fill="none" stroke="#bfbfbf" points="1184,-185 1184,-204 1240,-204 1240,-185 1184,-185"/>
<text text-anchor="middle" x="1212" y="-192" font-family="Helvetica,sans-Serif" font-size="10.00">Rtypes.h</text>
</g>
<!-- Node2&#45;&gt;Node8 -->
<g id="edge7" class="edge"><title>Node2&#45;&gt;Node8</title>
<path fill="none" stroke="midnightblue" d="M915.572,-254.768C981.076,-247.824 1086.52,-233.968 1175,-210 1177.6,-209.297 1180.26,-208.472 1182.91,-207.579"/>
<polygon fill="midnightblue" stroke="midnightblue" points="1184.11,-210.865 1192.3,-204.138 1181.7,-204.292 1184.11,-210.865"/>
</g>
<!-- Node9 -->
<g id="node9" class="node"><title>Node9</title>
<polygon fill="none" stroke="#bfbfbf" points="178,-185 178,-204 254,-204 254,-185 178,-185"/>
<text text-anchor="middle" x="216" y="-192" font-family="Helvetica,sans-Serif" font-size="10.00">TGeoMatrix.h</text>
</g>
<!-- Node2&#45;&gt;Node9 -->
<g id="edge8" class="edge"><title>Node2&#45;&gt;Node9</title>
<path fill="none" stroke="midnightblue" d="M790.386,-259.523C681.975,-256.86 452.71,-246.941 263,-210 258.757,-209.174 254.354,-208.107 250.02,-206.928"/>
<polygon fill="midnightblue" stroke="midnightblue" points="250.723,-203.487 240.142,-204.031 248.753,-210.204 250.723,-203.487"/>
</g>
<!-- Node10 -->
<g id="node10" class="node"><title>Node10</title>
<polygon fill="none" stroke="#bfbfbf" points="1120.5,-185 1120.5,-204 1165.5,-204 1165.5,-185 1120.5,-185"/>
<text text-anchor="middle" x="1143" y="-192" font-family="Helvetica,sans-Serif" font-size="10.00">iosfwd</text>
</g>
<!-- Node2&#45;&gt;Node10 -->
<g id="edge9" class="edge"><title>Node2&#45;&gt;Node10</title>
<path fill="none" stroke="midnightblue" d="M915.528,-252.417C968.419,-244.599 1045.79,-230.844 1111,-210 1112.87,-209.401 1114.78,-208.723 1116.69,-207.995"/>
<polygon fill="midnightblue" stroke="midnightblue" points="1118.15,-211.177 1126.02,-204.078 1115.44,-204.723 1118.15,-211.177"/>
</g>
<!-- Node11 -->
<g id="node11" class="node"><title>Node11</title>
<g id="a_node11"><a xlink:href="../../d2/dd0/Cartesian2D_8h.html" target="_top" xlink:title="MathUtils/Cartesian2D.h">
<polygon fill="none" stroke="black" points="272.5,-185 272.5,-204 397.5,-204 397.5,-185 272.5,-185"/>
<text text-anchor="middle" x="335" y="-192" font-family="Helvetica,sans-Serif" font-size="10.00">MathUtils/Cartesian2D.h</text>
</a>
</g>
</g>
<!-- Node2&#45;&gt;Node11 -->
<g id="edge10" class="edge"><title>Node2&#45;&gt;Node11</title>
<path fill="none" stroke="midnightblue" d="M790.208,-255.182C703.496,-247.434 542.341,-231.58 406,-210 398.738,-208.851 391.092,-207.47 383.616,-206.025"/>
<polygon fill="midnightblue" stroke="midnightblue" points="384.068,-202.546 373.578,-204.028 382.703,-209.412 384.068,-202.546"/>
</g>
<!-- Node12 -->
<g id="node12" class="node"><title>Node12</title>
<polygon fill="none" stroke="#bfbfbf" points="168.5,-112.5 168.5,-142.5 319.5,-142.5 319.5,-112.5 168.5,-112.5"/>
<text text-anchor="start" x="176.5" y="-130.5" font-family="Helvetica,sans-Serif" font-size="10.00">Math/GenVector/Displacement</text>
<text text-anchor="middle" x="244" y="-119.5" font-family="Helvetica,sans-Serif" font-size="10.00">Vector2D.h</text>
</g>
<!-- Node11&#45;&gt;Node12 -->
<g id="edge11" class="edge"><title>Node11&#45;&gt;Node12</title>
<path fill="none" stroke="midnightblue" d="M322.727,-184.734C309.838,-175.527 289.126,-160.733 272.181,-148.629"/>
<polygon fill="midnightblue" stroke="midnightblue" points="273.896,-145.553 263.725,-142.589 269.828,-151.25 273.896,-145.553"/>
</g>
<!-- Node13 -->
<g id="node13" class="node"><title>Node13</title>
<polygon fill="none" stroke="#bfbfbf" points="338,-118 338,-137 514,-137 514,-118 338,-118"/>
<text text-anchor="middle" x="426" y="-125" font-family="Helvetica,sans-Serif" font-size="10.00">Math/GenVector/PositionVector2D.h</text>
</g>
<!-- Node11&#45;&gt;Node13 -->
<g id="edge12" class="edge"><title>Node11&#45;&gt;Node13</title>
<path fill="none" stroke="midnightblue" d="M347.273,-184.734C362.145,-174.111 387.432,-156.049 405.33,-143.264"/>
<polygon fill="midnightblue" stroke="midnightblue" points="407.819,-145.788 413.922,-137.127 403.75,-140.092 407.819,-145.788"/>
</g>
<!-- Node14&#45;&gt;Node8 -->
<g id="edge14" class="edge"><title>Node14&#45;&gt;Node8</title>
<path fill="none" stroke="midnightblue" d="M1296.9,-452.891C1290.16,-443.094 1279.28,-426.446 1272,-411 1245.14,-354.047 1241.6,-338.003 1226,-277 1220.57,-255.754 1216.63,-230.846 1214.34,-214.21"/>
<polygon fill="midnightblue" stroke="midnightblue" points="1217.8,-213.62 1213.02,-204.161 1210.86,-214.532 1217.8,-213.62"/>
</g>
<!-- Node15 -->
<g id="node15" class="node"><title>Node15</title>
<polygon fill="none" stroke="#bfbfbf" points="1280.5,-386 1280.5,-405 1325.5,-405 1325.5,-386 1280.5,-386"/>
<text text-anchor="middle" x="1303" y="-393" font-family="Helvetica,sans-Serif" font-size="10.00">climits</text>
</g>
<!-- Node14&#45;&gt;Node15 -->
<g id="edge15" class="edge"><title>Node14&#45;&gt;Node15</title>
<path fill="none" stroke="midnightblue" d="M1303,-452.734C1303,-443.183 1303,-427.618 1303,-415.283"/>
<polygon fill="midnightblue" stroke="midnightblue" points="1306.5,-415.127 1303,-405.127 1299.5,-415.127 1306.5,-415.127"/>
</g>
<!-- Node16&#45;&gt;Node2 -->
<g id="edge18" class="edge"><title>Node16&#45;&gt;Node2</title>
<path fill="none" stroke="midnightblue" d="M1099.58,-318.936C1048.39,-307.22 956.518,-286.193 900.523,-273.377"/>
<polygon fill="midnightblue" stroke="midnightblue" points="901.032,-269.903 890.503,-271.083 899.47,-276.726 901.032,-269.903"/>
</g>
<!-- Node16&#45;&gt;Node8 -->
<g id="edge17" class="edge"><title>Node16&#45;&gt;Node8</title>
<path fill="none" stroke="midnightblue" d="M1141.92,-318.839C1154.11,-297.393 1185.87,-241.489 1202.12,-212.895"/>
<polygon fill="midnightblue" stroke="midnightblue" points="1205.26,-214.445 1207.16,-204.021 1199.18,-210.987 1205.26,-214.445"/>
</g>
<!-- Node17&#45;&gt;Node8 -->
<g id="edge20" class="edge"><title>Node17&#45;&gt;Node8</title>
<path fill="none" stroke="midnightblue" d="M1020.31,-447.159C1017.74,-419.121 1015.62,-356.026 1042,-313 1074.33,-260.27 1140.2,-225.274 1179.79,-208.04"/>
<polygon fill="midnightblue" stroke="midnightblue" points="1181.4,-211.158 1189.25,-204.041 1178.68,-204.71 1181.4,-211.158"/>
</g>
<!-- Node18 -->
<g id="node18" class="node"><title>Node18</title>
<g id="a_node18"><a xlink:href="../../d0/d2d/common_2base_2include_2ITSMFTBase_2GeometryTGeo_8h.html" target="_top" xlink:title="ITSMFTBase/GeometryTGeo.h">
<polygon fill="none" stroke="black" points="840.5,-386 840.5,-405 993.5,-405 993.5,-386 840.5,-386"/>
<text text-anchor="middle" x="917" y="-393" font-family="Helvetica,sans-Serif" font-size="10.00">ITSMFTBase/GeometryTGeo.h</text>
</a>
</g>
</g>
<!-- Node17&#45;&gt;Node18 -->
<g id="edge21" class="edge"><title>Node17&#45;&gt;Node18</title>
<path fill="none" stroke="midnightblue" d="M999.217,-447.396C981.445,-436.395 956.9,-421.2 939.263,-410.282"/>
<polygon fill="midnightblue" stroke="midnightblue" points="941.087,-407.295 930.742,-405.007 937.402,-413.247 941.087,-407.295"/>
</g>
<!-- Node19 -->
<g id="node19" class="node"><title>Node19</title>
<polygon fill="none" stroke="#bfbfbf" points="886.5,-319 886.5,-338 955.5,-338 955.5,-319 886.5,-319"/>
<text text-anchor="middle" x="921" y="-326" font-family="Helvetica,sans-Serif" font-size="10.00">TObjArray.h</text>
</g>
<!-- Node18&#45;&gt;Node19 -->
<g id="edge22" class="edge"><title>Node18&#45;&gt;Node19</title>
<path fill="none" stroke="midnightblue" d="M917.539,-385.734C918.127,-376.183 919.085,-360.618 919.844,-348.283"/>
<polygon fill="midnightblue" stroke="midnightblue" points="923.348,-348.323 920.469,-338.127 916.361,-347.893 923.348,-348.323"/>
</g>
<!-- Node20 -->
<g id="node20" class="node"><title>Node20</title>
<polygon fill="none" stroke="#bfbfbf" points="827.5,-319 827.5,-338 868.5,-338 868.5,-319 827.5,-319"/>
<text text-anchor="middle" x="848" y="-326" font-family="Helvetica,sans-Serif" font-size="10.00">string</text>
</g>
<!-- Node18&#45;&gt;Node20 -->
<g id="edge23" class="edge"><title>Node18&#45;&gt;Node20</title>
<path fill="none" stroke="midnightblue" d="M907.694,-385.734C896.728,-375.403 878.293,-358.037 864.806,-345.332"/>
<polygon fill="midnightblue" stroke="midnightblue" points="866.837,-342.437 857.158,-338.127 862.037,-347.532 866.837,-342.437"/>
</g>
<!-- Node21 -->
<g id="node21" class="node"><title>Node21</title>
<g id="a_node21"><a xlink:href="../../d4/d20/DetMatrixCache_8h.html" target="_top" xlink:title="DetectorsCommonDataFormats\l/DetMatrixCache.h">
<polygon fill="none" stroke="black" points="1356,-313.5 1356,-343.5 1512,-343.5 1512,-313.5 1356,-313.5"/>
<text text-anchor="start" x="1364" y="-331.5" font-family="Helvetica,sans-Serif" font-size="10.00">DetectorsCommonDataFormats</text>
<text text-anchor="middle" x="1434" y="-320.5" font-family="Helvetica,sans-Serif" font-size="10.00">/DetMatrixCache.h</text>
</a>
</g>
</g>
<!-- Node18&#45;&gt;Node21 -->
<g id="edge24" class="edge"><title>Node18&#45;&gt;Node21</title>
<path fill="none" stroke="midnightblue" d="M984.854,-385.969C1077.52,-374.319 1243.76,-353.417 1345.93,-340.572"/>
<polygon fill="midnightblue" stroke="midnightblue" points="1346.44,-344.036 1355.92,-339.316 1345.56,-337.091 1346.44,-344.036"/>
</g>
<!-- Node21&#45;&gt;Node2 -->
<g id="edge50" class="edge"><title>Node21&#45;&gt;Node2</title>
<path fill="none" stroke="midnightblue" d="M1355.95,-318.768C1242.95,-306.127 1035.36,-282.902 925.543,-270.616"/>
<polygon fill="midnightblue" stroke="midnightblue" points="925.877,-267.131 915.55,-269.498 925.099,-274.088 925.877,-267.131"/>
</g>
<!-- Node22 -->
<g id="node22" class="node"><title>Node22</title>
<g id="a_node22"><a xlink:href="../../df/d5b/GPUCommonLogger_8h.html" target="_top" xlink:title="GPUCommonLogger.h">
<polygon fill="none" stroke="black" points="1371,-252 1371,-271 1487,-271 1487,-252 1371,-252"/>
<text text-anchor="middle" x="1429" y="-259" font-family="Helvetica,sans-Serif" font-size="10.00">GPUCommonLogger.h</text>
</a>
</g>
</g>
<!-- Node21&#45;&gt;Node22 -->
<g id="edge25" class="edge"><title>Node21&#45;&gt;Node22</title>
<path fill="none" stroke="midnightblue" d="M1432.92,-313.396C1432.19,-303.963 1431.23,-291.448 1430.44,-281.189"/>
<polygon fill="midnightblue" stroke="midnightblue" points="1433.93,-280.897 1429.67,-271.195 1426.95,-281.434 1433.93,-280.897"/>
</g>
<!-- Node25 -->
<g id="node25" class="node"><title>Node25</title>
<g id="a_node25"><a xlink:href="../../d2/d45/GPUCommonRtypes_8h.html" target="_top" xlink:title="GPUCommonRtypes.h">
<polygon fill="none" stroke="black" points="1235,-252 1235,-271 1353,-271 1353,-252 1235,-252"/>
<text text-anchor="middle" x="1294" y="-259" font-family="Helvetica,sans-Serif" font-size="10.00">GPUCommonRtypes.h</text>
</a>
</g>
</g>
<!-- Node21&#45;&gt;Node25 -->
<g id="edge28" class="edge"><title>Node21&#45;&gt;Node25</title>
<path fill="none" stroke="midnightblue" d="M1403.62,-313.396C1379.17,-302.041 1345.09,-286.22 1321.45,-275.244"/>
<polygon fill="midnightblue" stroke="midnightblue" points="1322.87,-272.044 1312.32,-271.007 1319.92,-278.393 1322.87,-272.044"/>
</g>
<!-- Node26 -->
<g id="node26" class="node"><title>Node26</title>
<polygon fill="none" stroke="#bfbfbf" points="1534,-118 1534,-137 1572,-137 1572,-118 1534,-118"/>
<text text-anchor="middle" x="1553" y="-125" font-family="Helvetica,sans-Serif" font-size="10.00">array</text>
</g>
<!-- Node21&#45;&gt;Node26 -->
<g id="edge30" class="edge"><title>Node21&#45;&gt;Node26</title>
<path fill="none" stroke="midnightblue" d="M1456.58,-313.464C1469.59,-304.41 1485.41,-291.616 1496,-277 1525.88,-235.752 1542.29,-176.858 1549.13,-147.155"/>
<polygon fill="midnightblue" stroke="midnightblue" points="1552.57,-147.816 1551.29,-137.298 1545.73,-146.316 1552.57,-147.816"/>
</g>
<!-- Node27 -->
<g id="node27" class="node"><title>Node27</title>
<polygon fill="none" stroke="#bfbfbf" points="1853,-185 1853,-204 1897,-204 1897,-185 1853,-185"/>
<text text-anchor="middle" x="1875" y="-192" font-family="Helvetica,sans-Serif" font-size="10.00">vector</text>
</g>
<!-- Node21&#45;&gt;Node27 -->
<g id="edge31" class="edge"><title>Node21&#45;&gt;Node27</title>
<path fill="none" stroke="midnightblue" d="M1512.25,-314.195C1586.54,-301.38 1689.57,-283.071 1708,-277 1761.87,-259.258 1820.52,-227.446 1851.97,-209.257"/>
<polygon fill="midnightblue" stroke="midnightblue" points="1853.95,-212.15 1860.82,-204.081 1850.42,-206.107 1853.95,-212.15"/>
</g>
<!-- Node28 -->
<g id="node28" class="node"><title>Node28</title>
<g id="a_node28"><a xlink:href="../../d6/d31/DetID_8h.html" target="_top" xlink:title="DetectorsCommonDataFormats\l/DetID.h">
<polygon fill="none" stroke="black" points="1543,-246.5 1543,-276.5 1699,-276.5 1699,-246.5 1543,-246.5"/>
<text text-anchor="start" x="1551" y="-264.5" font-family="Helvetica,sans-Serif" font-size="10.00">DetectorsCommonDataFormats</text>
<text text-anchor="middle" x="1621" y="-253.5" font-family="Helvetica,sans-Serif" font-size="10.00">/DetID.h</text>
</a>
</g>
</g>
<!-- Node21&#45;&gt;Node28 -->
<g id="edge32" class="edge"><title>Node21&#45;&gt;Node28</title>
<path fill="none" stroke="midnightblue" d="M1474.58,-313.396C1502.88,-303.558 1540.83,-290.367 1571,-279.879"/>
<polygon fill="midnightblue" stroke="midnightblue" points="1572.21,-283.166 1580.5,-276.577 1569.91,-276.554 1572.21,-283.166"/>
</g>
<!-- Node23 -->
<g id="node23" class="node"><title>Node23</title>
<polygon fill="none" stroke="#bfbfbf" points="1263,-185 1263,-204 1317,-204 1317,-185 1263,-185"/>
<text text-anchor="middle" x="1290" y="-192" font-family="Helvetica,sans-Serif" font-size="10.00">iostream</text>
</g>
<!-- Node22&#45;&gt;Node23 -->
<g id="edge26" class="edge"><title>Node22&#45;&gt;Node23</title>
<path fill="none" stroke="midnightblue" d="M1410.54,-251.869C1386.76,-240.748 1345.21,-221.317 1317.65,-208.429"/>
<polygon fill="midnightblue" stroke="midnightblue" points="1319.08,-205.233 1308.53,-204.167 1316.11,-211.574 1319.08,-205.233"/>
</g>
<!-- Node24 -->
<g id="node24" class="node"><title>Node24</title>
<polygon fill="none" stroke="#bfbfbf" points="1335.5,-185 1335.5,-204 1378.5,-204 1378.5,-185 1335.5,-185"/>
<text text-anchor="middle" x="1357" y="-192" font-family="Helvetica,sans-Serif" font-size="10.00">cstdio</text>
</g>
<!-- Node22&#45;&gt;Node24 -->
<g id="edge27" class="edge"><title>Node22&#45;&gt;Node24</title>
<path fill="none" stroke="midnightblue" d="M1419.29,-251.734C1407.74,-241.305 1388.25,-223.709 1374.14,-210.973"/>
<polygon fill="midnightblue" stroke="midnightblue" points="1376.32,-208.23 1366.56,-204.127 1371.63,-213.426 1376.32,-208.23"/>
</g>
<!-- Node25&#45;&gt;Node8 -->
<g id="edge29" class="edge"><title>Node25&#45;&gt;Node8</title>
<path fill="none" stroke="midnightblue" d="M1282.94,-251.734C1269.66,-241.208 1247.17,-223.379 1231.07,-210.617"/>
<polygon fill="midnightblue" stroke="midnightblue" points="1232.89,-207.596 1222.88,-204.127 1228.55,-213.082 1232.89,-207.596"/>
</g>
<!-- Node28&#45;&gt;Node8 -->
<g id="edge33" class="edge"><title>Node28&#45;&gt;Node8</title>
<path fill="none" stroke="midnightblue" d="M1542.98,-251.581C1451.99,-240.86 1307.25,-222.726 1254,-210 1250.77,-209.229 1247.45,-208.308 1244.14,-207.309"/>
<polygon fill="midnightblue" stroke="midnightblue" points="1245.02,-203.914 1234.43,-204.15 1242.86,-210.571 1245.02,-203.914"/>
</g>
<!-- Node28&#45;&gt;Node26 -->
<g id="edge34" class="edge"><title>Node28&#45;&gt;Node26</title>
<path fill="none" stroke="midnightblue" d="M1603.52,-246.294C1593.18,-236.998 1580.66,-224.009 1573,-210 1562.21,-190.266 1557.16,-164.695 1554.85,-147.504"/>
<polygon fill="midnightblue" stroke="midnightblue" points="1558.28,-146.648 1553.65,-137.115 1551.32,-147.45 1558.28,-146.648"/>
</g>
<!-- Node29 -->
<g id="node29" class="node"><title>Node29</title>
<polygon fill="none" stroke="#bfbfbf" points="1581.5,-185 1581.5,-204 1622.5,-204 1622.5,-185 1581.5,-185"/>
<text text-anchor="middle" x="1602" y="-192" font-family="Helvetica,sans-Serif" font-size="10.00">bitset</text>
</g>
<!-- Node28&#45;&gt;Node29 -->
<g id="edge35" class="edge"><title>Node28&#45;&gt;Node29</title>
<path fill="none" stroke="midnightblue" d="M1616.88,-246.396C1614.09,-236.863 1610.38,-224.182 1607.37,-213.862"/>
<polygon fill="midnightblue" stroke="midnightblue" points="1610.71,-212.811 1604.54,-204.195 1603.99,-214.775 1610.71,-212.811"/>
</g>
<!-- Node30 -->
<g id="node30" class="node"><title>Node30</title>
<polygon fill="none" stroke="#bfbfbf" points="1721.5,-185 1721.5,-204 1770.5,-204 1770.5,-185 1721.5,-185"/>
<text text-anchor="middle" x="1746" y="-192" font-family="Helvetica,sans-Serif" font-size="10.00">cassert</text>
</g>
<!-- Node28&#45;&gt;Node30 -->
<g id="edge36" class="edge"><title>Node28&#45;&gt;Node30</title>
<path fill="none" stroke="midnightblue" d="M1648.12,-246.396C1669.67,-235.193 1699.57,-219.641 1720.64,-208.685"/>
<polygon fill="midnightblue" stroke="midnightblue" points="1722.38,-211.726 1729.64,-204.007 1719.15,-205.515 1722.38,-211.726"/>
</g>
<!-- Node31 -->
<g id="node31" class="node"><title>Node31</title>
<polygon fill="none" stroke="#bfbfbf" points="1789,-185 1789,-204 1835,-204 1835,-185 1789,-185"/>
<text text-anchor="middle" x="1812" y="-192" font-family="Helvetica,sans-Serif" font-size="10.00">cstdint</text>
</g>
<!-- Node28&#45;&gt;Node31 -->
<g id="edge37" class="edge"><title>Node28&#45;&gt;Node31</title>
<path fill="none" stroke="midnightblue" d="M1670.23,-246.5C1701.9,-237.092 1743.77,-223.907 1780,-210 1781.61,-209.384 1783.24,-208.728 1784.89,-208.048"/>
<polygon fill="midnightblue" stroke="midnightblue" points="1786.43,-211.194 1794.22,-204.006 1783.65,-204.771 1786.43,-211.194"/>
</g>
<!-- Node32 -->
<g id="node32" class="node"><title>Node32</title>
<polygon fill="none" stroke="#bfbfbf" points="1641,-185 1641,-204 1703,-204 1703,-185 1641,-185"/>
<text text-anchor="middle" x="1672" y="-192" font-family="Helvetica,sans-Serif" font-size="10.00">type_traits</text>
</g>
<!-- Node28&#45;&gt;Node32 -->
<g id="edge38" class="edge"><title>Node28&#45;&gt;Node32</title>
<path fill="none" stroke="midnightblue" d="M1632.07,-246.396C1639.94,-236.361 1650.55,-222.838 1658.85,-212.253"/>
<polygon fill="midnightblue" stroke="midnightblue" points="1661.76,-214.222 1665.18,-204.195 1656.25,-209.901 1661.76,-214.222"/>
</g>
<!-- Node33 -->
<g id="node33" class="node"><title>Node33</title>
<g id="a_node33"><a xlink:href="../../d9/d52/Common_2MathUtils_2include_2MathUtils_2Utils_8h.html" target="_top" xlink:title="MathUtils/Utils.h">
<polygon fill="none" stroke="black" points="1397,-185 1397,-204 1487,-204 1487,-185 1397,-185"/>
<text text-anchor="middle" x="1442" y="-192" font-family="Helvetica,sans-Serif" font-size="10.00">MathUtils/Utils.h</text>
</a>
</g>
</g>
<!-- Node28&#45;&gt;Node33 -->
<g id="edge39" class="edge"><title>Node28&#45;&gt;Node33</title>
<path fill="none" stroke="midnightblue" d="M1582.16,-246.396C1550.2,-234.789 1505.38,-218.515 1475.1,-207.519"/>
<polygon fill="midnightblue" stroke="midnightblue" points="1476.02,-204.13 1465.43,-204.007 1473.63,-210.71 1476.02,-204.13"/>
</g>
<!-- Node33&#45;&gt;Node26 -->
<g id="edge40" class="edge"><title>Node33&#45;&gt;Node26</title>
<path fill="none" stroke="midnightblue" d="M1456.97,-184.734C1475.61,-173.818 1507.66,-155.049 1529.57,-142.221"/>
<polygon fill="midnightblue" stroke="midnightblue" points="1531.41,-145.201 1538.27,-137.127 1527.87,-139.16 1531.41,-145.201"/>
</g>
<!-- Node34 -->
<g id="node34" class="node"><title>Node34</title>
<polygon fill="none" stroke="#bfbfbf" points="1477,-56.5 1477,-75.5 1521,-75.5 1521,-56.5 1477,-56.5"/>
<text text-anchor="middle" x="1499" y="-63.5" font-family="Helvetica,sans-Serif" font-size="10.00">cmath</text>
</g>
<!-- Node33&#45;&gt;Node34 -->
<g id="edge41" class="edge"><title>Node33&#45;&gt;Node34</title>
<path fill="none" stroke="midnightblue" d="M1452.85,-184.686C1463.39,-175.463 1478.96,-159.981 1487,-143 1495.56,-124.93 1498.21,-102.011 1498.94,-86.0898"/>
<polygon fill="midnightblue" stroke="midnightblue" points="1502.44,-85.9845 1499.18,-75.9027 1495.44,-85.815 1502.44,-85.9845"/>
</g>
<!-- Node35 -->
<g id="node35" class="node"><title>Node35</title>
<g id="a_node35"><a xlink:href="../../df/d21/GPUCommonDef_8h.html" target="_top" xlink:title="GPUCommonDef.h">
<polygon fill="none" stroke="black" points="1185,-56.5 1185,-75.5 1287,-75.5 1287,-56.5 1185,-56.5"/>
<text text-anchor="middle" x="1236" y="-63.5" font-family="Helvetica,sans-Serif" font-size="10.00">GPUCommonDef.h</text>
</a>
</g>
</g>
<!-- Node33&#45;&gt;Node35 -->
<g id="edge42" class="edge"><title>Node33&#45;&gt;Node35</title>
<path fill="none" stroke="midnightblue" d="M1412.42,-184.97C1404.53,-182.854 1395.97,-180.706 1388,-179 1338.7,-168.449 1196.7,-181.374 1164,-143 1155.06,-132.513 1157.32,-124.051 1164,-112 1172.09,-97.405 1187.1,-86.9185 1201.34,-79.7608"/>
<polygon fill="midnightblue" stroke="midnightblue" points="1202.89,-82.9002 1210.5,-75.5282 1199.95,-76.5459 1202.89,-82.9002"/>
</g>
<!-- Node38 -->
<g id="node38" class="node"><title>Node38</title>
<g id="a_node38"><a xlink:href="../../d6/da2/GPUCommonMath_8h.html" target="_top" xlink:title="GPUCommonMath.h">
<polygon fill="none" stroke="black" points="1370,-118 1370,-137 1478,-137 1478,-118 1370,-118"/>
<text text-anchor="middle" x="1424" y="-125" font-family="Helvetica,sans-Serif" font-size="10.00">GPUCommonMath.h</text>
</a>
</g>
</g>
<!-- Node33&#45;&gt;Node38 -->
<g id="edge45" class="edge"><title>Node33&#45;&gt;Node38</title>
<path fill="none" stroke="midnightblue" d="M1439.57,-184.734C1436.9,-175.085 1432.53,-159.3 1429.1,-146.906"/>
<polygon fill="midnightblue" stroke="midnightblue" points="1432.43,-145.831 1426.39,-137.127 1425.68,-147.699 1432.43,-145.831"/>
</g>
<!-- Node40 -->
<g id="node40" class="node"><title>Node40</title>
<g id="a_node40"><a xlink:href="../../d6/d84/MathConstants_8h.html" target="_top" xlink:title="useful math constants ">
<polygon fill="none" stroke="black" points="1172.5,-118 1172.5,-137 1351.5,-137 1351.5,-118 1172.5,-118"/>
<text text-anchor="middle" x="1262" y="-125" font-family="Helvetica,sans-Serif" font-size="10.00">CommonConstants/MathConstants.h</text>
</a>
</g>
</g>
<!-- Node33&#45;&gt;Node40 -->
<g id="edge49" class="edge"><title>Node33&#45;&gt;Node40</title>
<path fill="none" stroke="midnightblue" d="M1418.1,-184.869C1386.54,-173.473 1330.82,-153.353 1295.19,-140.487"/>
<polygon fill="midnightblue" stroke="midnightblue" points="1296.31,-137.168 1285.71,-137.064 1293.93,-143.752 1296.31,-137.168"/>
</g>
<!-- Node36 -->
<g id="node36" class="node"><title>Node36</title>
<g id="a_node36"><a xlink:href="../../d5/d93/GPUCommonDefSettings_8h.html" target="_top" xlink:title="GPUCommonDefSettings.h">
<polygon fill="none" stroke="black" points="1094,-0.5 1094,-19.5 1232,-19.5 1232,-0.5 1094,-0.5"/>
<text text-anchor="middle" x="1163" y="-7.5" font-family="Helvetica,sans-Serif" font-size="10.00">GPUCommonDefSettings.h</text>
</a>
</g>
</g>
<!-- Node35&#45;&gt;Node36 -->
<g id="edge43" class="edge"><title>Node35&#45;&gt;Node36</title>
<path fill="none" stroke="midnightblue" d="M1224.27,-56.324C1213.16,-48.1066 1196.26,-35.6017 1183.02,-25.8069"/>
<polygon fill="midnightblue" stroke="midnightblue" points="1185.06,-22.9671 1174.94,-19.8339 1180.9,-28.5948 1185.06,-22.9671"/>
</g>
<!-- Node37 -->
<g id="node37" class="node"><title>Node37</title>
<g id="a_node37"><a xlink:href="../../da/d5a/GPUCommonDefAPI_8h.html" target="_top" xlink:title="GPUCommonDefAPI.h">
<polygon fill="none" stroke="black" points="1250.5,-0.5 1250.5,-19.5 1369.5,-19.5 1369.5,-0.5 1250.5,-0.5"/>
<text text-anchor="middle" x="1310" y="-7.5" font-family="Helvetica,sans-Serif" font-size="10.00">GPUCommonDefAPI.h</text>
</a>
</g>
</g>
<!-- Node35&#45;&gt;Node37 -->
<g id="edge44" class="edge"><title>Node35&#45;&gt;Node37</title>
<path fill="none" stroke="midnightblue" d="M1247.89,-56.324C1259.15,-48.1066 1276.29,-35.6017 1289.71,-25.8069"/>
<polygon fill="midnightblue" stroke="midnightblue" points="1291.88,-28.5559 1297.89,-19.8339 1287.75,-22.9014 1291.88,-28.5559"/>
</g>
<!-- Node38&#45;&gt;Node34 -->
<g id="edge47" class="edge"><title>Node38&#45;&gt;Node34</title>
<path fill="none" stroke="midnightblue" d="M1434.75,-117.975C1446.55,-108.608 1465.74,-93.3839 1480.08,-82.0081"/>
<polygon fill="midnightblue" stroke="midnightblue" points="1482.62,-84.4661 1488.27,-75.5091 1478.26,-78.9822 1482.62,-84.4661"/>
</g>
<!-- Node38&#45;&gt;Node35 -->
<g id="edge46" class="edge"><title>Node38&#45;&gt;Node35</title>
<path fill="none" stroke="midnightblue" d="M1397.06,-117.975C1364.4,-107.636 1309.18,-90.1611 1272.66,-78.6017"/>
<polygon fill="midnightblue" stroke="midnightblue" points="1273.48,-75.1897 1262.89,-75.5091 1271.36,-81.8634 1273.48,-75.1897"/>
</g>
<!-- Node39 -->
<g id="node39" class="node"><title>Node39</title>
<polygon fill="none" stroke="#bfbfbf" points="1396,-56.5 1396,-75.5 1452,-75.5 1452,-56.5 1396,-56.5"/>
<text text-anchor="middle" x="1424" y="-63.5" font-family="Helvetica,sans-Serif" font-size="10.00">algorithm</text>
</g>
<!-- Node38&#45;&gt;Node39 -->
<g id="edge48" class="edge"><title>Node38&#45;&gt;Node39</title>
<path fill="none" stroke="midnightblue" d="M1424,-117.975C1424,-109.58 1424,-96.4806 1424,-85.6631"/>
<polygon fill="midnightblue" stroke="midnightblue" points="1427.5,-85.5091 1424,-75.5091 1420.5,-85.5091 1427.5,-85.5091"/>
</g>
<!-- Node42 -->
<g id="node42" class="node"><title>Node42</title>
<g id="a_node42"><a xlink:href="../../d4/de2/BaseCluster_8h.html" target="_top" xlink:title="ReconstructionDataFormats\l/BaseCluster.h">
<polygon fill="none" stroke="black" points="1483,-380.5 1483,-410.5 1623,-410.5 1623,-380.5 1483,-380.5"/>
<text text-anchor="start" x="1491" y="-398.5" font-family="Helvetica,sans-Serif" font-size="10.00">ReconstructionDataFormats</text>
<text text-anchor="middle" x="1553" y="-387.5" font-family="Helvetica,sans-Serif" font-size="10.00">/BaseCluster.h</text>
</a>
</g>
</g>
<!-- Node41&#45;&gt;Node42 -->
<g id="edge52" class="edge"><title>Node41&#45;&gt;Node42</title>
<path fill="none" stroke="midnightblue" d="M1532.24,-452.734C1535.32,-444.372 1540.11,-431.4 1544.31,-420.022"/>
<polygon fill="midnightblue" stroke="midnightblue" points="1547.62,-421.182 1547.8,-410.589 1541.05,-418.758 1547.62,-421.182"/>
</g>
<!-- Node42&#45;&gt;Node2 -->
<g id="edge59" class="edge"><title>Node42&#45;&gt;Node2</title>
<path fill="none" stroke="midnightblue" d="M1482.67,-382.156C1477.38,-381.376 1472.11,-380.646 1467,-380 1278.93,-356.221 1225.87,-390.13 1042,-344 1025.58,-339.882 929.96,-297.225 881.35,-275.325"/>
<polygon fill="midnightblue" stroke="midnightblue" points="882.569,-272.035 872.014,-271.114 879.691,-278.416 882.569,-272.035"/>
</g>
<!-- Node42&#45;&gt;Node10 -->
<g id="edge57" class="edge"><title>Node42&#45;&gt;Node10</title>
<path fill="none" stroke="midnightblue" d="M1482.92,-382.134C1442.39,-373.803 1390.89,-361.178 1347,-344 1289.76,-321.596 1275.27,-313.759 1226,-277 1199.43,-257.178 1172.81,-229.269 1157.13,-211.793"/>
<polygon fill="midnightblue" stroke="midnightblue" points="1159.6,-209.307 1150.36,-204.133 1154.36,-213.943 1159.6,-209.307"/>
</g>
<!-- Node42&#45;&gt;Node21 -->
<g id="edge58" class="edge"><title>Node42&#45;&gt;Node21</title>
<path fill="none" stroke="midnightblue" d="M1527.18,-380.396C1510.03,-371.026 1487.3,-358.615 1468.59,-348.395"/>
<polygon fill="midnightblue" stroke="midnightblue" points="1470.22,-345.299 1459.77,-343.577 1466.87,-351.442 1470.22,-345.299"/>
</g>
<!-- Node42&#45;&gt;Node29 -->
<g id="edge54" class="edge"><title>Node42&#45;&gt;Node29</title>
<path fill="none" stroke="midnightblue" d="M1623.01,-391.135C1656.53,-385.565 1693.88,-372.713 1715,-344 1726.13,-328.867 1721.43,-264.96 1708,-246 1686.4,-215.5 1665.71,-226.132 1632,-210 1631.01,-209.526 1630,-209.042 1628.98,-208.552"/>
<polygon fill="midnightblue" stroke="midnightblue" points="1630.28,-205.296 1619.76,-204.11 1627.25,-211.603 1630.28,-205.296"/>
</g>
<!-- Node43 -->
<g id="node43" class="node"><title>Node43</title>
<polygon fill="none" stroke="#bfbfbf" points="1530.5,-319 1530.5,-338 1589.5,-338 1589.5,-319 1530.5,-319"/>
<text text-anchor="middle" x="1560" y="-326" font-family="Helvetica,sans-Serif" font-size="10.00">TObject.h</text>
</g>
<!-- Node42&#45;&gt;Node43 -->
<g id="edge53" class="edge"><title>Node42&#45;&gt;Node43</title>
<path fill="none" stroke="midnightblue" d="M1554.52,-380.396C1555.53,-370.963 1556.88,-358.448 1557.99,-348.189"/>
<polygon fill="midnightblue" stroke="midnightblue" points="1561.47,-348.512 1559.06,-338.195 1554.51,-347.762 1561.47,-348.512"/>
</g>
<!-- Node44 -->
<g id="node44" class="node"><title>Node44</title>
<polygon fill="none" stroke="#bfbfbf" points="1608,-319 1608,-338 1658,-338 1658,-319 1608,-319"/>
<text text-anchor="middle" x="1633" y="-326" font-family="Helvetica,sans-Serif" font-size="10.00">iomanip</text>
</g>
<!-- Node42&#45;&gt;Node44 -->
<g id="edge55" class="edge"><title>Node42&#45;&gt;Node44</title>
<path fill="none" stroke="midnightblue" d="M1570.36,-380.396C1583.33,-369.86 1601.03,-355.477 1614.31,-344.689"/>
<polygon fill="midnightblue" stroke="midnightblue" points="1616.74,-347.217 1622.3,-338.195 1612.33,-341.784 1616.74,-347.217"/>
</g>
<!-- Node45 -->
<g id="node45" class="node"><title>Node45</title>
<polygon fill="none" stroke="#bfbfbf" points="1676.5,-319 1676.5,-338 1705.5,-338 1705.5,-319 1676.5,-319"/>
<text text-anchor="middle" x="1691" y="-326" font-family="Helvetica,sans-Serif" font-size="10.00">ios</text>
</g>
<!-- Node42&#45;&gt;Node45 -->
<g id="edge56" class="edge"><title>Node42&#45;&gt;Node45</title>
<path fill="none" stroke="midnightblue" d="M1587.71,-380.474C1610.57,-370.905 1640.99,-357.551 1667,-344 1667.54,-343.719 1668.08,-343.431 1668.63,-343.137"/>
<polygon fill="midnightblue" stroke="midnightblue" points="1670.52,-346.088 1677.46,-338.086 1667.05,-340.011 1670.52,-346.088"/>
</g>
<!-- Node46&#45;&gt;Node25 -->
<g id="edge61" class="edge"><title>Node46&#45;&gt;Node25</title>
<path fill="none" stroke="midnightblue" d="M1383.92,-380.432C1372.75,-370.793 1358.22,-357.377 1347,-344 1329.78,-323.458 1313.52,-297.034 1303.67,-279.934"/>
<polygon fill="midnightblue" stroke="midnightblue" points="1306.62,-278.037 1298.64,-271.058 1300.52,-281.485 1306.62,-278.037"/>
</g>
<!-- Node47&#45;&gt;Node27 -->
<g id="edge71" class="edge"><title>Node47&#45;&gt;Node27</title>
<path fill="none" stroke="midnightblue" d="M1900.84,-246.396C1895.9,-236.662 1889.29,-223.646 1883.99,-213.214"/>
<polygon fill="midnightblue" stroke="midnightblue" points="1887.06,-211.527 1879.41,-204.195 1880.82,-214.696 1887.06,-211.527"/>
</g>
<!-- Node47&#45;&gt;Node30 -->
<g id="edge65" class="edge"><title>Node47&#45;&gt;Node30</title>
<path fill="none" stroke="midnightblue" d="M1871.48,-246.397C1845.82,-236.412 1810.72,-222.608 1780,-210 1778.41,-209.347 1776.78,-208.671 1775.13,-207.985"/>
<polygon fill="midnightblue" stroke="midnightblue" points="1776.31,-204.685 1765.74,-204.026 1773.59,-211.135 1776.31,-204.685"/>
</g>
<!-- Node47&#45;&gt;Node31 -->
<g id="edge64" class="edge"><title>Node47&#45;&gt;Node31</title>
<path fill="none" stroke="midnightblue" d="M1887.17,-246.396C1871.22,-235.597 1849.3,-220.756 1833.25,-209.887"/>
<polygon fill="midnightblue" stroke="midnightblue" points="1834.81,-206.715 1824.56,-204.007 1830.88,-212.512 1834.81,-206.715"/>
</g>
<!-- Node47&#45;&gt;Node32 -->
<g id="edge68" class="edge"><title>Node47&#45;&gt;Node32</title>
<path fill="none" stroke="midnightblue" d="M1850.89,-247.092C1811.83,-237.582 1758.98,-224.057 1713,-210 1710.38,-209.2 1707.68,-208.336 1704.98,-207.441"/>
<polygon fill="midnightblue" stroke="midnightblue" points="1705.89,-204.055 1695.3,-204.133 1703.63,-210.679 1705.89,-204.055"/>
</g>
<!-- Node48 -->
<g id="node48" class="node"><title>Node48</title>
<polygon fill="none" stroke="#bfbfbf" points="1985,-185 1985,-204 2047,-204 2047,-185 1985,-185"/>
<text text-anchor="middle" x="2016" y="-192" font-family="Helvetica,sans-Serif" font-size="10.00">TNamed.h</text>
</g>
<!-- Node47&#45;&gt;Node48 -->
<g id="edge63" class="edge"><title>Node47&#45;&gt;Node48</title>
<path fill="none" stroke="midnightblue" d="M1931.43,-246.396C1949.71,-235.395 1974.96,-220.2 1993.1,-209.282"/>
<polygon fill="midnightblue" stroke="midnightblue" points="1995.1,-212.162 2001.87,-204.007 1991.49,-206.165 1995.1,-212.162"/>
</g>
<!-- Node49 -->
<g id="node49" class="node"><title>Node49</title>
<polygon fill="none" stroke="#bfbfbf" points="2065.5,-185 2065.5,-204 2124.5,-204 2124.5,-185 2065.5,-185"/>
<text text-anchor="middle" x="2095" y="-192" font-family="Helvetica,sans-Serif" font-size="10.00">stdexcept</text>
</g>
<!-- Node47&#45;&gt;Node49 -->
<g id="edge66" class="edge"><title>Node47&#45;&gt;Node49</title>
<path fill="none" stroke="midnightblue" d="M1950.21,-246.436C1979.88,-236.469 2020.45,-222.67 2056,-210 2058.24,-209.202 2060.55,-208.369 2062.87,-207.525"/>
<polygon fill="midnightblue" stroke="midnightblue" points="2064.17,-210.774 2072.35,-204.038 2061.76,-204.203 2064.17,-210.774"/>
</g>
<!-- Node50 -->
<g id="node50" class="node"><title>Node50</title>
<polygon fill="none" stroke="#bfbfbf" points="2142.5,-185 2142.5,-204 2187.5,-204 2187.5,-185 2142.5,-185"/>
<text text-anchor="middle" x="2165" y="-192" font-family="Helvetica,sans-Serif" font-size="10.00">gsl/gsl</text>
</g>
<!-- Node47&#45;&gt;Node50 -->
<g id="edge67" class="edge"><title>Node47&#45;&gt;Node50</title>
<path fill="none" stroke="midnightblue" d="M1965.13,-251.291C2011.4,-242.99 2077.87,-229.142 2134,-210 2135.66,-209.433 2137.35,-208.804 2139.05,-208.134"/>
<polygon fill="midnightblue" stroke="midnightblue" points="2140.77,-211.203 2148.54,-204.008 2137.98,-204.783 2140.77,-211.203"/>
</g>
<!-- Node51 -->
<g id="node51" class="node"><title>Node51</title>
<polygon fill="none" stroke="#bfbfbf" points="2206,-185 2206,-204 2252,-204 2252,-185 2206,-185"/>
<text text-anchor="middle" x="2229" y="-192" font-family="Helvetica,sans-Serif" font-size="10.00">cstring</text>
</g>
<!-- Node47&#45;&gt;Node51 -->
<g id="edge69" class="edge"><title>Node47&#45;&gt;Node51</title>
<path fill="none" stroke="midnightblue" d="M1965.21,-254.817C2024.24,-247.957 2118.52,-234.21 2197,-210 2198.88,-209.42 2200.79,-208.756 2202.7,-208.039"/>
<polygon fill="midnightblue" stroke="midnightblue" points="2204.16,-211.225 2212.04,-204.145 2201.46,-204.764 2204.16,-211.225"/>
</g>
<!-- Node52 -->
<g id="node52" class="node"><title>Node52</title>
<polygon fill="none" stroke="#bfbfbf" points="1915,-185 1915,-204 1967,-204 1967,-185 1915,-185"/>
<text text-anchor="middle" x="1941" y="-192" font-family="Helvetica,sans-Serif" font-size="10.00">memory</text>
</g>
<!-- Node47&#45;&gt;Node52 -->
<g id="edge70" class="edge"><title>Node47&#45;&gt;Node52</title>
<path fill="none" stroke="midnightblue" d="M1915.16,-246.396C1920.1,-236.662 1926.71,-223.646 1932.01,-213.214"/>
<polygon fill="midnightblue" stroke="midnightblue" points="1935.18,-214.696 1936.59,-204.195 1928.94,-211.527 1935.18,-214.696"/>
</g>
</g>
</svg>
