<?xml version="1.0" encoding="UTF-8" standalone="no"?>
<!DOCTYPE svg PUBLIC "-//W3C//DTD SVG 1.1//EN"
 "http://www.w3.org/Graphics/SVG/1.1/DTD/svg11.dtd">
<!-- Generated by graphviz version 2.38.0 (20140413.2041)
 -->
<!-- Title: /home/travis/build/AliceO2Group/AliceO2/Detectors/ITSMFT/common/simulation/include/ITSMFTSimulation/Hit.h Pages: 1 -->
<svg width="1704pt" height="318pt"
 viewBox="0.00 0.00 1704.00 318.00" xmlns="http://www.w3.org/2000/svg" xmlns:xlink="http://www.w3.org/1999/xlink">
<g id="graph0" class="graph" transform="scale(1 1) rotate(0) translate(4 314)">
<title>/home/travis/build/AliceO2Group/AliceO2/Detectors/ITSMFT/common/simulation/include/ITSMFTSimulation/Hit.h</title>
<!-- Node1 -->
<g id="node1" class="node"><title>Node1</title>
<polygon fill="#bfbfbf" stroke="black" points="1083,-257.5 1083,-309.5 1289,-309.5 1289,-257.5 1083,-257.5"/>
<text text-anchor="start" x="1091" y="-297.5" font-family="Helvetica,sans-Serif" font-size="10.00">/home/travis/build</text>
<text text-anchor="start" x="1091" y="-286.5" font-family="Helvetica,sans-Serif" font-size="10.00">/AliceO2Group/AliceO2</text>
<text text-anchor="start" x="1091" y="-275.5" font-family="Helvetica,sans-Serif" font-size="10.00">/Detectors/ITSMFT/common</text>
<text text-anchor="middle" x="1186" y="-264.5" font-family="Helvetica,sans-Serif" font-size="10.00">/simulation/include/ITSMFTSimulation/Hit.h</text>
</g>
<!-- Node2 -->
<g id="node2" class="node"><title>Node2</title>
<g id="a_node2"><a xlink:href="../../d4/d25/BaseHits_8h.html" target="_top" xlink:title="SimulationDataFormat\l/BaseHits.h">
<polygon fill="none" stroke="black" points="811,-190.5 811,-220.5 925,-220.5 925,-190.5 811,-190.5"/>
<text text-anchor="start" x="819" y="-208.5" font-family="Helvetica,sans-Serif" font-size="10.00">SimulationDataFormat</text>
<text text-anchor="middle" x="868" y="-197.5" font-family="Helvetica,sans-Serif" font-size="10.00">/BaseHits.h</text>
</a>
</g>
</g>
<!-- Node1&#45;&gt;Node2 -->
<g id="edge1" class="edge"><title>Node1&#45;&gt;Node2</title>
<path fill="none" stroke="midnightblue" d="M1082.75,-257.825C1034.3,-246.244 977.933,-232.773 935.108,-222.538"/>
<polygon fill="midnightblue" stroke="midnightblue" points="935.897,-219.128 925.357,-220.208 934.27,-225.937 935.897,-219.128"/>
</g>
<!-- Node9 -->
<g id="node9" class="node"><title>Node9</title>
<polygon fill="none" stroke="#bfbfbf" points="1120,-73 1120,-92 1176,-92 1176,-73 1120,-73"/>
<text text-anchor="middle" x="1148" y="-80" font-family="Helvetica,sans-Serif" font-size="10.00">Rtypes.h</text>
</g>
<!-- Node1&#45;&gt;Node9 -->
<g id="edge14" class="edge"><title>Node1&#45;&gt;Node9</title>
<path fill="none" stroke="midnightblue" d="M1181.19,-257.297C1173.47,-216.905 1158.51,-138.563 1151.63,-102.504"/>
<polygon fill="midnightblue" stroke="midnightblue" points="1155.01,-101.55 1149.7,-92.3844 1148.13,-102.863 1155.01,-101.55"/>
</g>
<!-- Node11 -->
<g id="node11" class="node"><title>Node11</title>
<polygon fill="none" stroke="#bfbfbf" points="1194.5,-73 1194.5,-92 1239.5,-92 1239.5,-73 1194.5,-73"/>
<text text-anchor="middle" x="1217" y="-80" font-family="Helvetica,sans-Serif" font-size="10.00">iosfwd</text>
</g>
<!-- Node1&#45;&gt;Node11 -->
<g id="edge16" class="edge"><title>Node1&#45;&gt;Node11</title>
<path fill="none" stroke="midnightblue" d="M1189.93,-257.297C1196.22,-216.905 1208.42,-138.563 1214.04,-102.504"/>
<polygon fill="midnightblue" stroke="midnightblue" points="1217.53,-102.804 1215.62,-92.3844 1210.62,-101.727 1217.53,-102.804"/>
</g>
<!-- Node15 -->
<g id="node15" class="node"><title>Node15</title>
<polygon fill="none" stroke="#bfbfbf" points="1214.5,-196 1214.5,-215 1279.5,-215 1279.5,-196 1214.5,-196"/>
<text text-anchor="middle" x="1247" y="-203" font-family="Helvetica,sans-Serif" font-size="10.00">TVector3.h</text>
</g>
<!-- Node1&#45;&gt;Node15 -->
<g id="edge15" class="edge"><title>Node1&#45;&gt;Node15</title>
<path fill="none" stroke="midnightblue" d="M1206.31,-257.193C1215.32,-245.972 1225.66,-233.082 1233.67,-223.108"/>
<polygon fill="midnightblue" stroke="midnightblue" points="1236.48,-225.198 1240.01,-215.209 1231.02,-220.817 1236.48,-225.198"/>
</g>
<!-- Node16 -->
<g id="node16" class="node"><title>Node16</title>
<g id="a_node16"><a xlink:href="../../d0/d91/ShmAllocator_8h.html" target="_top" xlink:title="CommonUtils/ShmAllocator.h">
<polygon fill="none" stroke="black" points="1298,-196 1298,-215 1444,-215 1444,-196 1298,-196"/>
<text text-anchor="middle" x="1371" y="-203" font-family="Helvetica,sans-Serif" font-size="10.00">CommonUtils/ShmAllocator.h</text>
</a>
</g>
</g>
<!-- Node1&#45;&gt;Node16 -->
<g id="edge17" class="edge"><title>Node1&#45;&gt;Node16</title>
<path fill="none" stroke="midnightblue" d="M1247.09,-257.404C1278.49,-244.503 1315.38,-229.35 1340.69,-218.951"/>
<polygon fill="midnightblue" stroke="midnightblue" points="1342.2,-222.115 1350.12,-215.078 1339.54,-215.64 1342.2,-222.115"/>
</g>
<!-- Node3 -->
<g id="node3" class="node"><title>Node3</title>
<g id="a_node3"><a xlink:href="../../dd/d76/Cartesian3D_8h.html" target="_top" xlink:title="MathUtils/Cartesian3D.h">
<polygon fill="none" stroke="black" points="700.5,-134.5 700.5,-153.5 825.5,-153.5 825.5,-134.5 700.5,-134.5"/>
<text text-anchor="middle" x="763" y="-141.5" font-family="Helvetica,sans-Serif" font-size="10.00">MathUtils/Cartesian3D.h</text>
</a>
</g>
</g>
<!-- Node2&#45;&gt;Node3 -->
<g id="edge2" class="edge"><title>Node2&#45;&gt;Node3</title>
<path fill="none" stroke="midnightblue" d="M843.116,-190.399C826.286,-180.862 804.161,-168.325 787.427,-158.842"/>
<polygon fill="midnightblue" stroke="midnightblue" points="788.704,-155.543 778.278,-153.658 785.253,-161.633 788.704,-155.543"/>
</g>
<!-- Node4 -->
<g id="node4" class="node"><title>Node4</title>
<polygon fill="none" stroke="#bfbfbf" points="415.5,-67.5 415.5,-97.5 566.5,-97.5 566.5,-67.5 415.5,-67.5"/>
<text text-anchor="start" x="423.5" y="-85.5" font-family="Helvetica,sans-Serif" font-size="10.00">Math/GenVector/Displacement</text>
<text text-anchor="middle" x="491" y="-74.5" font-family="Helvetica,sans-Serif" font-size="10.00">Vector3D.h</text>
</g>
<!-- Node3&#45;&gt;Node4 -->
<g id="edge3" class="edge"><title>Node3&#45;&gt;Node4</title>
<path fill="none" stroke="midnightblue" d="M724.029,-134.475C682.715,-125.438 616.473,-110.947 565.157,-99.7219"/>
<polygon fill="midnightblue" stroke="midnightblue" points="565.622,-96.2409 555.105,-97.523 564.126,-103.079 565.622,-96.2409"/>
</g>
<!-- Node5 -->
<g id="node5" class="node"><title>Node5</title>
<polygon fill="none" stroke="#bfbfbf" points="585,-73 585,-92 761,-92 761,-73 585,-73"/>
<text text-anchor="middle" x="673" y="-80" font-family="Helvetica,sans-Serif" font-size="10.00">Math/GenVector/PositionVector3D.h</text>
</g>
<!-- Node3&#45;&gt;Node5 -->
<g id="edge4" class="edge"><title>Node3&#45;&gt;Node5</title>
<path fill="none" stroke="midnightblue" d="M750.105,-134.475C735.536,-124.843 711.598,-109.017 694.255,-97.5517"/>
<polygon fill="midnightblue" stroke="midnightblue" points="696.143,-94.6044 685.871,-92.0091 692.283,-100.444 696.143,-94.6044"/>
</g>
<!-- Node6 -->
<g id="node6" class="node"><title>Node6</title>
<polygon fill="none" stroke="#bfbfbf" points="778.5,-73 778.5,-92 927.5,-92 927.5,-73 778.5,-73"/>
<text text-anchor="middle" x="853" y="-80" font-family="Helvetica,sans-Serif" font-size="10.00">Math/GenVector/Rotation3D.h</text>
</g>
<!-- Node3&#45;&gt;Node6 -->
<g id="edge5" class="edge"><title>Node3&#45;&gt;Node6</title>
<path fill="none" stroke="midnightblue" d="M775.895,-134.475C790.464,-124.843 814.402,-109.017 831.745,-97.5517"/>
<polygon fill="midnightblue" stroke="midnightblue" points="833.717,-100.444 840.129,-92.0091 829.857,-94.6044 833.717,-100.444"/>
</g>
<!-- Node7 -->
<g id="node7" class="node"><title>Node7</title>
<polygon fill="none" stroke="#bfbfbf" points="946,-73 946,-92 1102,-92 1102,-73 946,-73"/>
<text text-anchor="middle" x="1024" y="-80" font-family="Helvetica,sans-Serif" font-size="10.00">Math/GenVector/Transform3D.h</text>
</g>
<!-- Node3&#45;&gt;Node7 -->
<g id="edge6" class="edge"><title>Node3&#45;&gt;Node7</title>
<path fill="none" stroke="midnightblue" d="M800.395,-134.475C846.813,-123.893 926.024,-105.836 976.64,-94.2966"/>
<polygon fill="midnightblue" stroke="midnightblue" points="977.703,-97.6443 986.674,-92.0091 976.147,-90.8194 977.703,-97.6443"/>
</g>
<!-- Node8 -->
<g id="node8" class="node"><title>Node8</title>
<polygon fill="none" stroke="#bfbfbf" points="0,-73 0,-92 160,-92 160,-73 0,-73"/>
<text text-anchor="middle" x="80" y="-80" font-family="Helvetica,sans-Serif" font-size="10.00">Math/GenVector/Translation3D.h</text>
</g>
<!-- Node3&#45;&gt;Node8 -->
<g id="edge7" class="edge"><title>Node3&#45;&gt;Node8</title>
<path fill="none" stroke="midnightblue" d="M700.399,-140.029C591.914,-134.486 362.066,-120.997 169,-98 158.751,-96.7792 147.878,-95.2255 137.382,-93.5913"/>
<polygon fill="midnightblue" stroke="midnightblue" points="137.894,-90.1288 127.468,-92.0081 136.791,-97.0412 137.894,-90.1288"/>
</g>
<!-- Node3&#45;&gt;Node9 -->
<g id="edge8" class="edge"><title>Node3&#45;&gt;Node9</title>
<path fill="none" stroke="midnightblue" d="M825.789,-139.518C896.153,-134.55 1013.19,-123.084 1111,-98 1113.66,-97.3166 1116.4,-96.4943 1119.11,-95.5929"/>
<polygon fill="midnightblue" stroke="midnightblue" points="1120.52,-98.8064 1128.71,-92.0892 1118.11,-92.2309 1120.52,-98.8064"/>
</g>
<!-- Node10 -->
<g id="node10" class="node"><title>Node10</title>
<polygon fill="none" stroke="#bfbfbf" points="178,-73 178,-92 254,-92 254,-73 178,-73"/>
<text text-anchor="middle" x="216" y="-80" font-family="Helvetica,sans-Serif" font-size="10.00">TGeoMatrix.h</text>
</g>
<!-- Node3&#45;&gt;Node10 -->
<g id="edge9" class="edge"><title>Node3&#45;&gt;Node10</title>
<path fill="none" stroke="midnightblue" d="M700.438,-141.566C605.178,-138.442 418.42,-128.617 263,-98 258.759,-97.1645 254.357,-96.0923 250.024,-94.9099"/>
<polygon fill="midnightblue" stroke="midnightblue" points="250.727,-91.4687 240.146,-92.01 248.755,-98.1852 250.727,-91.4687"/>
</g>
<!-- Node3&#45;&gt;Node11 -->
<g id="edge10" class="edge"><title>Node3&#45;&gt;Node11</title>
<path fill="none" stroke="midnightblue" d="M825.643,-142.51C909.071,-140.465 1060.59,-131.875 1185,-98 1187.15,-97.4141 1189.34,-96.6998 1191.51,-95.9057"/>
<polygon fill="midnightblue" stroke="midnightblue" points="1192.87,-99.1319 1200.77,-92.0645 1190.19,-92.667 1192.87,-99.1319"/>
</g>
<!-- Node12 -->
<g id="node12" class="node"><title>Node12</title>
<g id="a_node12"><a xlink:href="../../d2/dd0/Cartesian2D_8h.html" target="_top" xlink:title="MathUtils/Cartesian2D.h">
<polygon fill="none" stroke="black" points="272.5,-73 272.5,-92 397.5,-92 397.5,-73 272.5,-73"/>
<text text-anchor="middle" x="335" y="-80" font-family="Helvetica,sans-Serif" font-size="10.00">MathUtils/Cartesian2D.h</text>
</a>
</g>
</g>
<!-- Node3&#45;&gt;Node12 -->
<g id="edge11" class="edge"><title>Node3&#45;&gt;Node12</title>
<path fill="none" stroke="midnightblue" d="M700.236,-136.55C628.772,-128.868 508.626,-114.922 406,-98 398.831,-96.8179 391.284,-95.4313 383.893,-93.9926"/>
<polygon fill="midnightblue" stroke="midnightblue" points="384.454,-90.5356 373.963,-92.0126 383.085,-97.4004 384.454,-90.5356"/>
</g>
<!-- Node13 -->
<g id="node13" class="node"><title>Node13</title>
<polygon fill="none" stroke="#bfbfbf" points="168.5,-0.5 168.5,-30.5 319.5,-30.5 319.5,-0.5 168.5,-0.5"/>
<text text-anchor="start" x="176.5" y="-18.5" font-family="Helvetica,sans-Serif" font-size="10.00">Math/GenVector/Displacement</text>
<text text-anchor="middle" x="244" y="-7.5" font-family="Helvetica,sans-Serif" font-size="10.00">Vector2D.h</text>
</g>
<!-- Node12&#45;&gt;Node13 -->
<g id="edge12" class="edge"><title>Node12&#45;&gt;Node13</title>
<path fill="none" stroke="midnightblue" d="M322.727,-72.7338C309.838,-63.527 289.126,-48.7328 272.181,-36.6293"/>
<polygon fill="midnightblue" stroke="midnightblue" points="273.896,-33.5534 263.725,-30.589 269.828,-39.2495 273.896,-33.5534"/>
</g>
<!-- Node14 -->
<g id="node14" class="node"><title>Node14</title>
<polygon fill="none" stroke="#bfbfbf" points="338,-6 338,-25 514,-25 514,-6 338,-6"/>
<text text-anchor="middle" x="426" y="-13" font-family="Helvetica,sans-Serif" font-size="10.00">Math/GenVector/PositionVector2D.h</text>
</g>
<!-- Node12&#45;&gt;Node14 -->
<g id="edge13" class="edge"><title>Node12&#45;&gt;Node14</title>
<path fill="none" stroke="midnightblue" d="M347.273,-72.7338C362.145,-62.1106 387.432,-44.0485 405.33,-31.2642"/>
<polygon fill="midnightblue" stroke="midnightblue" points="407.819,-33.7878 413.922,-25.1273 403.75,-28.0917 407.819,-33.7878"/>
</g>
<!-- Node17 -->
<g id="node17" class="node"><title>Node17</title>
<g id="a_node17"><a xlink:href="../../de/d61/ShmManager_8h.html" target="_top" xlink:title="CommonUtils/ShmManager.h">
<polygon fill="none" stroke="black" points="1394,-134.5 1394,-153.5 1540,-153.5 1540,-134.5 1394,-134.5"/>
<text text-anchor="middle" x="1467" y="-141.5" font-family="Helvetica,sans-Serif" font-size="10.00">CommonUtils/ShmManager.h</text>
</a>
</g>
</g>
<!-- Node16&#45;&gt;Node17 -->
<g id="edge18" class="edge"><title>Node16&#45;&gt;Node17</title>
<path fill="none" stroke="midnightblue" d="M1384.75,-195.975C1400.37,-186.299 1426.06,-170.372 1444.58,-158.894"/>
<polygon fill="midnightblue" stroke="midnightblue" points="1446.62,-161.752 1453.27,-153.509 1442.93,-155.802 1446.62,-161.752"/>
</g>
<!-- Node22 -->
<g id="node22" class="node"><title>Node22</title>
<polygon fill="none" stroke="#bfbfbf" points="1326.5,-134.5 1326.5,-153.5 1375.5,-153.5 1375.5,-134.5 1326.5,-134.5"/>
<text text-anchor="middle" x="1351" y="-141.5" font-family="Helvetica,sans-Serif" font-size="10.00">cassert</text>
</g>
<!-- Node16&#45;&gt;Node22 -->
<g id="edge23" class="edge"><title>Node16&#45;&gt;Node22</title>
<path fill="none" stroke="midnightblue" d="M1368.13,-195.975C1365.28,-187.492 1360.82,-174.204 1357.16,-163.322"/>
<polygon fill="midnightblue" stroke="midnightblue" points="1360.36,-161.873 1353.86,-153.509 1353.73,-164.103 1360.36,-161.873"/>
</g>
<!-- Node18 -->
<g id="node18" class="node"><title>Node18</title>
<polygon fill="none" stroke="#bfbfbf" points="1433.5,-73 1433.5,-92 1462.5,-92 1462.5,-73 1433.5,-73"/>
<text text-anchor="middle" x="1448" y="-80" font-family="Helvetica,sans-Serif" font-size="10.00">list</text>
</g>
<!-- Node17&#45;&gt;Node18 -->
<g id="edge19" class="edge"><title>Node17&#45;&gt;Node18</title>
<path fill="none" stroke="midnightblue" d="M1464.28,-134.475C1461.57,-125.992 1457.33,-112.704 1453.85,-101.822"/>
<polygon fill="midnightblue" stroke="midnightblue" points="1457.09,-100.47 1450.72,-92.0091 1450.43,-102.6 1457.09,-100.47"/>
</g>
<!-- Node19 -->
<g id="node19" class="node"><title>Node19</title>
<polygon fill="none" stroke="#bfbfbf" points="1480.5,-73 1480.5,-92 1529.5,-92 1529.5,-73 1480.5,-73"/>
<text text-anchor="middle" x="1505" y="-80" font-family="Helvetica,sans-Serif" font-size="10.00">cstddef</text>
</g>
<!-- Node17&#45;&gt;Node19 -->
<g id="edge20" class="edge"><title>Node17&#45;&gt;Node19</title>
<path fill="none" stroke="midnightblue" d="M1472.44,-134.475C1478.09,-125.638 1487.06,-111.589 1494.16,-100.475"/>
<polygon fill="midnightblue" stroke="midnightblue" points="1497.13,-102.321 1499.57,-92.0091 1491.23,-98.5531 1497.13,-102.321"/>
</g>
<!-- Node20 -->
<g id="node20" class="node"><title>Node20</title>
<polygon fill="none" stroke="#bfbfbf" points="1548,-67.5 1548,-97.5 1696,-97.5 1696,-67.5 1548,-67.5"/>
<text text-anchor="start" x="1556" y="-85.5" font-family="Helvetica,sans-Serif" font-size="10.00">boost/interprocess</text>
<text text-anchor="middle" x="1622" y="-74.5" font-family="Helvetica,sans-Serif" font-size="10.00">/managed_external_buffer.hpp</text>
</g>
<!-- Node17&#45;&gt;Node20 -->
<g id="edge21" class="edge"><title>Node17&#45;&gt;Node20</title>
<path fill="none" stroke="midnightblue" d="M1489.21,-134.475C1511.77,-125.814 1547.38,-112.145 1576.04,-101.141"/>
<polygon fill="midnightblue" stroke="midnightblue" points="1577.39,-104.374 1585.47,-97.523 1574.88,-97.8392 1577.39,-104.374"/>
</g>
<!-- Node21 -->
<g id="node21" class="node"><title>Node21</title>
<polygon fill="none" stroke="#bfbfbf" points="1296,-67.5 1296,-97.5 1416,-97.5 1416,-67.5 1296,-67.5"/>
<text text-anchor="start" x="1304" y="-85.5" font-family="Helvetica,sans-Serif" font-size="10.00">boost/interprocess</text>
<text text-anchor="middle" x="1356" y="-74.5" font-family="Helvetica,sans-Serif" font-size="10.00">/allocators/allocator.hpp</text>
</g>
<!-- Node17&#45;&gt;Node21 -->
<g id="edge22" class="edge"><title>Node17&#45;&gt;Node21</title>
<path fill="none" stroke="midnightblue" d="M1451.1,-134.475C1435.5,-126.115 1411.2,-113.09 1391.07,-102.299"/>
<polygon fill="midnightblue" stroke="midnightblue" points="1392.63,-99.1627 1382.16,-97.523 1389.32,-105.332 1392.63,-99.1627"/>
</g>
</g>
</svg>
