<?xml version="1.0" encoding="UTF-8" standalone="no"?>
<!DOCTYPE svg PUBLIC "-//W3C//DTD SVG 1.1//EN"
 "http://www.w3.org/Graphics/SVG/1.1/DTD/svg11.dtd">
<!-- Generated by graphviz version 2.38.0 (20140413.2041)
 -->
<!-- Title: sg_image_desc Pages: 1 -->
<svg width="934pt" height="469pt"
 viewBox="0.00 0.00 933.50 469.00" xmlns="http://www.w3.org/2000/svg" xmlns:xlink="http://www.w3.org/1999/xlink">
<g id="graph0" class="graph" transform="scale(1 1) rotate(0) translate(4 465)">
<title>sg_image_desc</title>
<!-- Node1 -->
<g id="node1" class="node"><title>Node1</title>
<polygon fill="#bfbfbf" stroke="black" points="453,-0.5 453,-57.5 538,-57.5 538,-0.5 453,-0.5"/>
<text text-anchor="middle" x="495.5" y="-45.5" font-family="Helvetica,sans-Serif" font-size="10.00">sg_image_desc</text>
<polyline fill="none" stroke="black" points="453,-38.5 538,-38.5 "/>
<text text-anchor="middle" x="495.5" y="-26.5" font-family="Helvetica,sans-Serif" font-size="10.00"> </text>
<polyline fill="none" stroke="black" points="453,-19.5 538,-19.5 "/>
<text text-anchor="middle" x="495.5" y="-7.5" font-family="Helvetica,sans-Serif" font-size="10.00"> </text>
</g>
<!-- Node2 -->
<g id="node2" class="node"><title>Node2</title>
<polygon fill="none" stroke="#bfbfbf" points="0,-138.5 0,-195.5 83,-195.5 83,-138.5 0,-138.5"/>
<text text-anchor="middle" x="41.5" y="-183.5" font-family="Helvetica,sans-Serif" font-size="10.00">sg_image_type</text>
<polyline fill="none" stroke="#bfbfbf" points="0,-176.5 83,-176.5 "/>
<text text-anchor="middle" x="41.5" y="-164.5" font-family="Helvetica,sans-Serif" font-size="10.00"> </text>
<polyline fill="none" stroke="#bfbfbf" points="0,-157.5 83,-157.5 "/>
<text text-anchor="middle" x="41.5" y="-145.5" font-family="Helvetica,sans-Serif" font-size="10.00"> </text>
</g>
<!-- Node2&#45;&gt;Node1 -->
<g id="edge1" class="edge"><title>Node2&#45;&gt;Node1</title>
<path fill="none" stroke="#404040" d="M61.3086,-138.293C77.8338,-117.474 103.33,-90.1974 132.5,-76 185.635,-50.1387 353.265,-37.5711 440.906,-32.6339"/>
<polygon fill="none" stroke="#404040" points="440.995,-32.6291 446.767,-28.3074 452.977,-31.9737 447.204,-36.2954 440.995,-32.6291"/>
<text text-anchor="middle" x="146.5" y="-95.5" font-family="Helvetica,sans-Serif" font-size="10.00"> +type</text>
</g>
<!-- Node3 -->
<g id="node3" class="node"><title>Node3</title>
<polygon fill="none" stroke="#bfbfbf" points="101.5,-138.5 101.5,-195.5 203.5,-195.5 203.5,-138.5 101.5,-138.5"/>
<text text-anchor="middle" x="152.5" y="-183.5" font-family="Helvetica,sans-Serif" font-size="10.00">anonymous:+@248</text>
<polyline fill="none" stroke="#bfbfbf" points="101.5,-176.5 203.5,-176.5 "/>
<text text-anchor="middle" x="152.5" y="-164.5" font-family="Helvetica,sans-Serif" font-size="10.00"> </text>
<polyline fill="none" stroke="#bfbfbf" points="101.5,-157.5 203.5,-157.5 "/>
<text text-anchor="middle" x="152.5" y="-145.5" font-family="Helvetica,sans-Serif" font-size="10.00"> </text>
</g>
<!-- Node3&#45;&gt;Node1 -->
<g id="edge2" class="edge"><title>Node3&#45;&gt;Node1</title>
<path fill="none" stroke="#404040" d="M158.055,-138.366C163.673,-117.872 174.49,-90.9893 194.5,-76 232.424,-47.5918 364.839,-36.413 440.809,-32.2639"/>
<polygon fill="none" stroke="#404040" points="440.962,-32.2561 446.746,-27.9507 452.945,-31.6346 447.161,-35.94 440.962,-32.2561"/>
<text text-anchor="middle" x="212.5" y="-95.5" font-family="Helvetica,sans-Serif" font-size="10.00"> +@248</text>
</g>
<!-- Node4 -->
<g id="node4" class="node"><title>Node4</title>
<g id="a_node4"><a xlink:href="../../d4/dc3/classfloat.html" target="_top" xlink:title="{float\n||}">
<polygon fill="none" stroke="black" points="222,-138.5 222,-195.5 257,-195.5 257,-138.5 222,-138.5"/>
<text text-anchor="middle" x="239.5" y="-183.5" font-family="Helvetica,sans-Serif" font-size="10.00">float</text>
<polyline fill="none" stroke="black" points="222,-176.5 257,-176.5 "/>
<text text-anchor="middle" x="239.5" y="-164.5" font-family="Helvetica,sans-Serif" font-size="10.00"> </text>
<polyline fill="none" stroke="black" points="222,-157.5 257,-157.5 "/>
<text text-anchor="middle" x="239.5" y="-145.5" font-family="Helvetica,sans-Serif" font-size="10.00"> </text>
</a>
</g>
</g>
<!-- Node4&#45;&gt;Node1 -->
<g id="edge3" class="edge"><title>Node4&#45;&gt;Node1</title>
<path fill="none" stroke="#404040" d="M234.647,-138.086C232.895,-118.262 234.311,-92.3601 249.5,-76 274.789,-48.7608 376.156,-37.3846 440.614,-32.8347"/>
<polygon fill="none" stroke="#404040" points="441.007,-32.8087 446.728,-28.4197 452.98,-32.013 447.259,-36.4021 441.007,-32.8087"/>
<text text-anchor="middle" x="271" y="-101" font-family="Helvetica,sans-Serif" font-size="10.00"> +min_lod</text>
<text text-anchor="middle" x="271" y="-90" font-family="Helvetica,sans-Serif" font-size="10.00">+max_lod</text>
</g>
<!-- Node5 -->
<g id="node5" class="node"><title>Node5</title>
<polygon fill="none" stroke="#bfbfbf" points="277,-138.5 277,-195.5 328,-195.5 328,-138.5 277,-138.5"/>
<text text-anchor="middle" x="302.5" y="-183.5" font-family="Helvetica,sans-Serif" font-size="10.00">uint32_t</text>
<polyline fill="none" stroke="#bfbfbf" points="277,-176.5 328,-176.5 "/>
<text text-anchor="middle" x="302.5" y="-164.5" font-family="Helvetica,sans-Serif" font-size="10.00"> </text>
<polyline fill="none" stroke="#bfbfbf" points="277,-157.5 328,-157.5 "/>
<text text-anchor="middle" x="302.5" y="-145.5" font-family="Helvetica,sans-Serif" font-size="10.00"> </text>
</g>
<!-- Node5&#45;&gt;Node1 -->
<g id="edge4" class="edge"><title>Node5&#45;&gt;Node1</title>
<path fill="none" stroke="#404040" d="M297.23,-138.421C295.139,-118.763 296.016,-92.9233 310.5,-76 327.277,-56.3964 392.25,-43.608 440.483,-36.6053"/>
<polygon fill="none" stroke="#404040" points="440.771,-36.5653 446.161,-31.7747 452.656,-34.9075 447.266,-39.698 440.771,-36.5653"/>
<text text-anchor="middle" x="350" y="-112" font-family="Helvetica,sans-Serif" font-size="10.00"> +max_anisotropy</text>
<text text-anchor="middle" x="350" y="-101" font-family="Helvetica,sans-Serif" font-size="10.00">+gl_textures</text>
<text text-anchor="middle" x="350" y="-90" font-family="Helvetica,sans-Serif" font-size="10.00">+_end_canary</text>
<text text-anchor="middle" x="350" y="-79" font-family="Helvetica,sans-Serif" font-size="10.00">+_start_canary</text>
</g>
<!-- Node6 -->
<g id="node6" class="node"><title>Node6</title>
<polygon fill="none" stroke="#bfbfbf" points="371,-138.5 371,-195.5 422,-195.5 422,-138.5 371,-138.5"/>
<text text-anchor="middle" x="396.5" y="-183.5" font-family="Helvetica,sans-Serif" font-size="10.00">sg_filter</text>
<polyline fill="none" stroke="#bfbfbf" points="371,-176.5 422,-176.5 "/>
<text text-anchor="middle" x="396.5" y="-164.5" font-family="Helvetica,sans-Serif" font-size="10.00"> </text>
<polyline fill="none" stroke="#bfbfbf" points="371,-157.5 422,-157.5 "/>
<text text-anchor="middle" x="396.5" y="-145.5" font-family="Helvetica,sans-Serif" font-size="10.00"> </text>
</g>
<!-- Node6&#45;&gt;Node1 -->
<g id="edge5" class="edge"><title>Node6&#45;&gt;Node1</title>
<path fill="none" stroke="#404040" d="M392.734,-138.494C391.576,-119.371 393.105,-94.1569 405.5,-76 414.243,-63.1921 427.676,-53.7451 441.517,-46.865"/>
<polygon fill="none" stroke="#404040" points="441.676,-46.7941 445.513,-40.6887 452.624,-41.8825 448.787,-47.9879 441.676,-46.7941"/>
<text text-anchor="middle" x="431.5" y="-101" font-family="Helvetica,sans-Serif" font-size="10.00"> +mag_filter</text>
<text text-anchor="middle" x="431.5" y="-90" font-family="Helvetica,sans-Serif" font-size="10.00">+min_filter</text>
</g>
<!-- Node7 -->
<g id="node7" class="node"><title>Node7</title>
<polygon fill="none" stroke="#bfbfbf" points="469,-403.5 469,-460.5 498,-460.5 498,-403.5 469,-403.5"/>
<text text-anchor="middle" x="483.5" y="-448.5" font-family="Helvetica,sans-Serif" font-size="10.00">int</text>
<polyline fill="none" stroke="#bfbfbf" points="469,-441.5 498,-441.5 "/>
<text text-anchor="middle" x="483.5" y="-429.5" font-family="Helvetica,sans-Serif" font-size="10.00"> </text>
<polyline fill="none" stroke="#bfbfbf" points="469,-422.5 498,-422.5 "/>
<text text-anchor="middle" x="483.5" y="-410.5" font-family="Helvetica,sans-Serif" font-size="10.00"> </text>
</g>
<!-- Node7&#45;&gt;Node1 -->
<g id="edge6" class="edge"><title>Node7&#45;&gt;Node1</title>
<path fill="none" stroke="#404040" d="M470.457,-403.447C464.387,-389.516 457.616,-372.173 453.5,-356 445.112,-323.037 446.503,-313.955 444.5,-280 442.772,-250.718 440.546,-243.066 444.5,-214 451.444,-162.947 468.756,-106.06 481.287,-69.2425"/>
<polygon fill="none" stroke="#404040" points="481.404,-68.9029 479.588,-61.9243 485.331,-57.5635 487.147,-64.542 481.404,-68.9029"/>
<text text-anchor="middle" x="481" y="-272" font-family="Helvetica,sans-Serif" font-size="10.00"> +num_mipmaps</text>
<text text-anchor="middle" x="481" y="-261" font-family="Helvetica,sans-Serif" font-size="10.00">+depth</text>
<text text-anchor="middle" x="481" y="-250" font-family="Helvetica,sans-Serif" font-size="10.00">+height</text>
<text text-anchor="middle" x="481" y="-239" font-family="Helvetica,sans-Serif" font-size="10.00">+width</text>
<text text-anchor="middle" x="481" y="-228" font-family="Helvetica,sans-Serif" font-size="10.00">+sample_count</text>
<text text-anchor="middle" x="481" y="-217" font-family="Helvetica,sans-Serif" font-size="10.00">+layers</text>
</g>
<!-- Node12 -->
<g id="node12" class="node"><title>Node12</title>
<g id="a_node12"><a xlink:href="../../d1/d35/structsg__subimage__content.html" target="_top" xlink:title="{sg_subimage_content\n||}">
<polygon fill="none" stroke="black" points="462.5,-298.5 462.5,-355.5 574.5,-355.5 574.5,-298.5 462.5,-298.5"/>
<text text-anchor="middle" x="518.5" y="-343.5" font-family="Helvetica,sans-Serif" font-size="10.00">sg_subimage_content</text>
<polyline fill="none" stroke="black" points="462.5,-336.5 574.5,-336.5 "/>
<text text-anchor="middle" x="518.5" y="-324.5" font-family="Helvetica,sans-Serif" font-size="10.00"> </text>
<polyline fill="none" stroke="black" points="462.5,-317.5 574.5,-317.5 "/>
<text text-anchor="middle" x="518.5" y="-305.5" font-family="Helvetica,sans-Serif" font-size="10.00"> </text>
</a>
</g>
</g>
<!-- Node7&#45;&gt;Node12 -->
<g id="edge12" class="edge"><title>Node7&#45;&gt;Node12</title>
<path fill="none" stroke="#404040" d="M491.931,-403.37C494.865,-394.013 498.239,-383.523 501.5,-374 502.265,-371.765 503.065,-369.474 503.881,-367.165"/>
<polygon fill="none" stroke="#404040" points="503.962,-366.941 502.236,-359.939 508.035,-355.653 509.761,-362.655 503.962,-366.941"/>
<text text-anchor="middle" x="515.5" y="-377" font-family="Helvetica,sans-Serif" font-size="10.00"> +size</text>
</g>
<!-- Node8 -->
<g id="node8" class="node"><title>Node8</title>
<polygon fill="none" stroke="#bfbfbf" points="631,-138.5 631,-195.5 666,-195.5 666,-138.5 631,-138.5"/>
<text text-anchor="middle" x="648.5" y="-183.5" font-family="Helvetica,sans-Serif" font-size="10.00">bool</text>
<polyline fill="none" stroke="#bfbfbf" points="631,-176.5 666,-176.5 "/>
<text text-anchor="middle" x="648.5" y="-164.5" font-family="Helvetica,sans-Serif" font-size="10.00"> </text>
<polyline fill="none" stroke="#bfbfbf" points="631,-157.5 666,-157.5 "/>
<text text-anchor="middle" x="648.5" y="-145.5" font-family="Helvetica,sans-Serif" font-size="10.00"> </text>
</g>
<!-- Node8&#45;&gt;Node1 -->
<g id="edge7" class="edge"><title>Node8&#45;&gt;Node1</title>
<path fill="none" stroke="#404040" d="M641.112,-138.42C634.478,-115.444 624.436,-85.0679 615.5,-76 597.896,-58.137 572.616,-47.0921 549.794,-40.3218"/>
<polygon fill="none" stroke="#404040" points="549.719,-40.3014 542.88,-42.5898 538.138,-37.1576 544.976,-34.8692 549.719,-40.3014"/>
<text text-anchor="middle" x="669" y="-95.5" font-family="Helvetica,sans-Serif" font-size="10.00"> +render_target</text>
</g>
<!-- Node9 -->
<g id="node9" class="node"><title>Node9</title>
<polygon fill="none" stroke="#bfbfbf" points="684.5,-138.5 684.5,-195.5 770.5,-195.5 770.5,-138.5 684.5,-138.5"/>
<text text-anchor="middle" x="727.5" y="-183.5" font-family="Helvetica,sans-Serif" font-size="10.00">sg_pixel_format</text>
<polyline fill="none" stroke="#bfbfbf" points="684.5,-176.5 770.5,-176.5 "/>
<text text-anchor="middle" x="727.5" y="-164.5" font-family="Helvetica,sans-Serif" font-size="10.00"> </text>
<polyline fill="none" stroke="#bfbfbf" points="684.5,-157.5 770.5,-157.5 "/>
<text text-anchor="middle" x="727.5" y="-145.5" font-family="Helvetica,sans-Serif" font-size="10.00"> </text>
</g>
<!-- Node9&#45;&gt;Node1 -->
<g id="edge8" class="edge"><title>Node9&#45;&gt;Node1</title>
<path fill="none" stroke="#404040" d="M728.046,-138.266C726.895,-118.267 721.959,-92.0674 705.5,-76 683.774,-54.7917 604.845,-41.9611 550.196,-35.4256"/>
<polygon fill="none" stroke="#404040" points="550.17,-35.4227 543.752,-38.7101 538.248,-34.0499 544.667,-30.7626 550.17,-35.4227"/>
<text text-anchor="middle" x="758" y="-95.5" font-family="Helvetica,sans-Serif" font-size="10.00"> +pixel_format</text>
</g>
<!-- Node10 -->
<g id="node10" class="node"><title>Node10</title>
<polygon fill="none" stroke="#bfbfbf" points="789,-138.5 789,-195.5 848,-195.5 848,-138.5 789,-138.5"/>
<text text-anchor="middle" x="818.5" y="-183.5" font-family="Helvetica,sans-Serif" font-size="10.00">sg_usage</text>
<polyline fill="none" stroke="#bfbfbf" points="789,-176.5 848,-176.5 "/>
<text text-anchor="middle" x="818.5" y="-164.5" font-family="Helvetica,sans-Serif" font-size="10.00"> </text>
<polyline fill="none" stroke="#bfbfbf" points="789,-157.5 848,-157.5 "/>
<text text-anchor="middle" x="818.5" y="-145.5" font-family="Helvetica,sans-Serif" font-size="10.00"> </text>
</g>
<!-- Node10&#45;&gt;Node1 -->
<g id="edge9" class="edge"><title>Node10&#45;&gt;Node1</title>
<path fill="none" stroke="#404040" d="M818.355,-138.301C816.684,-118.049 810.956,-91.5117 793.5,-76 758.425,-44.8311 626.34,-34.7581 550.312,-31.5199"/>
<polygon fill="none" stroke="#404040" points="550.153,-31.5137 544,-35.2738 538.163,-31.0401 544.316,-27.28 550.153,-31.5137"/>
<text text-anchor="middle" x="834.5" y="-95.5" font-family="Helvetica,sans-Serif" font-size="10.00"> +usage</text>
</g>
<!-- Node11 -->
<g id="node11" class="node"><title>Node11</title>
<g id="a_node11"><a xlink:href="../../dd/d44/structsg__image__content.html" target="_top" xlink:title="{sg_image_content\n||}">
<polygon fill="none" stroke="black" points="478.5,-138.5 478.5,-195.5 574.5,-195.5 574.5,-138.5 478.5,-138.5"/>
<text text-anchor="middle" x="526.5" y="-183.5" font-family="Helvetica,sans-Serif" font-size="10.00">sg_image_content</text>
<polyline fill="none" stroke="black" points="478.5,-176.5 574.5,-176.5 "/>
<text text-anchor="middle" x="526.5" y="-164.5" font-family="Helvetica,sans-Serif" font-size="10.00"> </text>
<polyline fill="none" stroke="black" points="478.5,-157.5 574.5,-157.5 "/>
<text text-anchor="middle" x="526.5" y="-145.5" font-family="Helvetica,sans-Serif" font-size="10.00"> </text>
</a>
</g>
</g>
<!-- Node11&#45;&gt;Node1 -->
<g id="edge10" class="edge"><title>Node11&#45;&gt;Node1</title>
<path fill="none" stroke="#404040" d="M520.227,-138.478C515.739,-118.792 509.63,-91.9899 504.607,-69.9526"/>
<polygon fill="none" stroke="#404040" points="504.537,-69.6474 499.304,-64.6864 501.87,-57.9475 507.104,-62.9085 504.537,-69.6474"/>
<text text-anchor="middle" x="537.5" y="-95.5" font-family="Helvetica,sans-Serif" font-size="10.00"> +content</text>
</g>
<!-- Node12&#45;&gt;Node11 -->
<g id="edge11" class="edge"><title>Node12&#45;&gt;Node11</title>
<path fill="none" stroke="#404040" d="M519.893,-298.479C521.159,-273.484 523.041,-236.311 524.473,-208.029"/>
<polygon fill="none" stroke="#404040" points="524.489,-207.721 520.797,-201.526 525.096,-195.736 528.787,-201.931 524.489,-207.721"/>
<text text-anchor="middle" x="550.5" y="-244.5" font-family="Helvetica,sans-Serif" font-size="10.00"> +subimage</text>
</g>
<!-- Node13 -->
<g id="node13" class="node"><title>Node13</title>
<polygon fill="none" stroke="#bfbfbf" points="529,-403.5 529,-460.5 570,-460.5 570,-403.5 529,-403.5"/>
<text text-anchor="middle" x="549.5" y="-448.5" font-family="Helvetica,sans-Serif" font-size="10.00">const</text>
<polyline fill="none" stroke="#bfbfbf" points="529,-441.5 570,-441.5 "/>
<text text-anchor="middle" x="549.5" y="-429.5" font-family="Helvetica,sans-Serif" font-size="10.00"> </text>
<polyline fill="none" stroke="#bfbfbf" points="529,-422.5 570,-422.5 "/>
<text text-anchor="middle" x="549.5" y="-410.5" font-family="Helvetica,sans-Serif" font-size="10.00"> </text>
</g>
<!-- Node13&#45;&gt;Node1 -->
<g id="edge14" class="edge"><title>Node13&#45;&gt;Node1</title>
<path fill="none" stroke="#404040" d="M565.382,-403.489C572.435,-389.712 579.937,-372.489 583.5,-356 603.964,-261.297 599.251,-233.6 583.5,-138 578.77,-109.294 580.057,-99.1983 562.5,-76 558.402,-70.5856 553.477,-65.5813 548.181,-61.0242"/>
<polygon fill="none" stroke="#404040" points="547.789,-60.7167 540.599,-60.1624 538.345,-53.3125 545.535,-53.8668 547.789,-60.7167"/>
<text text-anchor="middle" x="633" y="-250" font-family="Helvetica,sans-Serif" font-size="10.00"> +d3d11_texture</text>
<text text-anchor="middle" x="633" y="-239" font-family="Helvetica,sans-Serif" font-size="10.00">+mtl_textures</text>
</g>
<!-- Node13&#45;&gt;Node12 -->
<g id="edge13" class="edge"><title>Node13&#45;&gt;Node12</title>
<path fill="none" stroke="#404040" d="M541.193,-403.398C537.857,-392.314 533.95,-379.333 530.327,-367.296"/>
<polygon fill="none" stroke="#404040" points="530.289,-367.169 524.729,-362.577 526.83,-355.678 532.39,-360.271 530.289,-367.169"/>
<text text-anchor="middle" x="546" y="-377" font-family="Helvetica,sans-Serif" font-size="10.00"> +ptr</text>
</g>
<!-- Node14 -->
<g id="node14" class="node"><title>Node14</title>
<polygon fill="none" stroke="#bfbfbf" points="866,-138.5 866,-195.5 919,-195.5 919,-138.5 866,-138.5"/>
<text text-anchor="middle" x="892.5" y="-183.5" font-family="Helvetica,sans-Serif" font-size="10.00">sg_wrap</text>
<polyline fill="none" stroke="#bfbfbf" points="866,-176.5 919,-176.5 "/>
<text text-anchor="middle" x="892.5" y="-164.5" font-family="Helvetica,sans-Serif" font-size="10.00"> </text>
<polyline fill="none" stroke="#bfbfbf" points="866,-157.5 919,-157.5 "/>
<text text-anchor="middle" x="892.5" y="-145.5" font-family="Helvetica,sans-Serif" font-size="10.00"> </text>
</g>
<!-- Node14&#45;&gt;Node1 -->
<g id="edge15" class="edge"><title>Node14&#45;&gt;Node1</title>
<path fill="none" stroke="#404040" d="M888.95,-138.334C884.785,-117.823 875.799,-90.9324 856.5,-76 809.897,-39.9417 639.555,-32.0082 550.533,-30.3578"/>
<polygon fill="none" stroke="#404040" points="550.271,-30.3537 544.208,-34.2567 538.273,-30.1608 544.336,-26.2578 550.271,-30.3537"/>
<text text-anchor="middle" x="905" y="-106.5" font-family="Helvetica,sans-Serif" font-size="10.00"> +wrap_u</text>
<text text-anchor="middle" x="905" y="-95.5" font-family="Helvetica,sans-Serif" font-size="10.00">+wrap_v</text>
<text text-anchor="middle" x="905" y="-84.5" font-family="Helvetica,sans-Serif" font-size="10.00">+wrap_w</text>
</g>
</g>
</svg>
