<?xml version="1.0" encoding="UTF-8" standalone="no"?>
<!DOCTYPE svg PUBLIC "-//W3C//DTD SVG 1.1//EN"
 "http://www.w3.org/Graphics/SVG/1.1/DTD/svg11.dtd">
<!-- Generated by graphviz version 2.38.0 (20140413.2041)
 -->
<!-- Title: /home/travis/build/AliceO2Group/AliceO2/Examples/Ex2/src/A.cxx Pages: 1 -->
<svg width="137pt" height="162pt"
 viewBox="0.00 0.00 136.50 162.00" xmlns="http://www.w3.org/2000/svg" xmlns:xlink="http://www.w3.org/1999/xlink">
<g id="graph0" class="graph" transform="scale(1 1) rotate(0) translate(4 158)">
<title>/home/travis/build/AliceO2Group/AliceO2/Examples/Ex2/src/A.cxx</title>
<!-- Node1 -->
<g id="node1" class="node"><title>Node1</title>
<polygon fill="#bfbfbf" stroke="black" points="0.5,-112.5 0.5,-153.5 128.5,-153.5 128.5,-112.5 0.5,-112.5"/>
<text text-anchor="start" x="8.5" y="-141.5" font-family="Helvetica,sans-Serif" font-size="10.00">/home/travis/build</text>
<text text-anchor="start" x="8.5" y="-130.5" font-family="Helvetica,sans-Serif" font-size="10.00">/AliceO2Group/AliceO2</text>
<text text-anchor="middle" x="64.5" y="-119.5" font-family="Helvetica,sans-Serif" font-size="10.00">/Examples/Ex2/src/A.cxx</text>
</g>
<!-- Node2 -->
<g id="node2" class="node"><title>Node2</title>
<g id="a_node2"><a xlink:href="../../db/dda/Ex2_2include_2Ex2_2A_8h.html" target="_top" xlink:title="Ex2/A.h">
<polygon fill="none" stroke="black" points="3.5,-56.5 3.5,-75.5 55.5,-75.5 55.5,-56.5 3.5,-56.5"/>
<text text-anchor="middle" x="29.5" y="-63.5" font-family="Helvetica,sans-Serif" font-size="10.00">Ex2/A.h</text>
</a>
</g>
</g>
<!-- Node1&#45;&gt;Node2 -->
<g id="edge1" class="edge"><title>Node1&#45;&gt;Node2</title>
<path fill="none" stroke="midnightblue" d="M53.9988,-112.498C49.2003,-103.586 43.5611,-93.1135 38.9035,-84.4636"/>
<polygon fill="midnightblue" stroke="midnightblue" points="41.9817,-82.7978 34.159,-75.6525 35.8184,-86.1166 41.9817,-82.7978"/>
</g>
<!-- Node4 -->
<g id="node4" class="node"><title>Node4</title>
<polygon fill="none" stroke="#bfbfbf" points="73.5,-56.5 73.5,-75.5 127.5,-75.5 127.5,-56.5 73.5,-56.5"/>
<text text-anchor="middle" x="100.5" y="-63.5" font-family="Helvetica,sans-Serif" font-size="10.00">iostream</text>
</g>
<!-- Node1&#45;&gt;Node4 -->
<g id="edge3" class="edge"><title>Node1&#45;&gt;Node4</title>
<path fill="none" stroke="midnightblue" d="M75.3012,-112.498C80.2369,-103.586 86.0371,-93.1135 90.8279,-84.4636"/>
<polygon fill="midnightblue" stroke="midnightblue" points="93.9246,-86.0962 95.7079,-75.6525 87.801,-82.7046 93.9246,-86.0962"/>
</g>
<!-- Node3 -->
<g id="node3" class="node"><title>Node3</title>
<polygon fill="none" stroke="#bfbfbf" points="0,-0.5 0,-19.5 59,-19.5 59,-0.5 0,-0.5"/>
<text text-anchor="middle" x="29.5" y="-7.5" font-family="Helvetica,sans-Serif" font-size="10.00">TObject.h</text>
</g>
<!-- Node2&#45;&gt;Node3 -->
<g id="edge2" class="edge"><title>Node2&#45;&gt;Node3</title>
<path fill="none" stroke="midnightblue" d="M29.5,-56.083C29.5,-49.0059 29.5,-38.8611 29.5,-29.9865"/>
<polygon fill="midnightblue" stroke="midnightblue" points="33.0001,-29.751 29.5,-19.7511 26.0001,-29.7511 33.0001,-29.751"/>
</g>
</g>
</svg>
