<?xml version="1.0" encoding="UTF-8" standalone="no"?>
<!DOCTYPE svg PUBLIC "-//W3C//DTD SVG 1.1//EN"
 "http://www.w3.org/Graphics/SVG/1.1/DTD/svg11.dtd">
<!-- Generated by graphviz version 2.38.0 (20140413.2041)
 -->
<!-- Title: /home/travis/build/AliceO2Group/AliceO2/DataFormats/Detectors/EMCAL/include/DataFormatsEMCAL/Cell.h Pages: 1 -->
<svg width="334pt" height="184pt"
 viewBox="0.00 0.00 333.50 184.00" xmlns="http://www.w3.org/2000/svg" xmlns:xlink="http://www.w3.org/1999/xlink">
<g id="graph0" class="graph" transform="scale(1 1) rotate(0) translate(4 180)">
<title>/home/travis/build/AliceO2Group/AliceO2/DataFormats/Detectors/EMCAL/include/DataFormatsEMCAL/Cell.h</title>
<!-- Node1 -->
<g id="node1" class="node"><title>Node1</title>
<polygon fill="#bfbfbf" stroke="black" points="0,-112.5 0,-175.5 185,-175.5 185,-112.5 0,-112.5"/>
<text text-anchor="start" x="8" y="-163.5" font-family="Helvetica,sans-Serif" font-size="10.00">/home/travis/build</text>
<text text-anchor="start" x="8" y="-152.5" font-family="Helvetica,sans-Serif" font-size="10.00">/AliceO2Group/AliceO2</text>
<text text-anchor="start" x="8" y="-141.5" font-family="Helvetica,sans-Serif" font-size="10.00">/DataFormats/Detectors</text>
<text text-anchor="start" x="8" y="-130.5" font-family="Helvetica,sans-Serif" font-size="10.00">/EMCAL/include/DataFormatsEMCAL/</text>
<text text-anchor="middle" x="92.5" y="-119.5" font-family="Helvetica,sans-Serif" font-size="10.00">Cell.h</text>
</g>
<!-- Node2 -->
<g id="node2" class="node"><title>Node2</title>
<polygon fill="none" stroke="#bfbfbf" points="23,-56.5 23,-75.5 64,-75.5 64,-56.5 23,-56.5"/>
<text text-anchor="middle" x="43.5" y="-63.5" font-family="Helvetica,sans-Serif" font-size="10.00">bitset</text>
</g>
<!-- Node1&#45;&gt;Node2 -->
<g id="edge1" class="edge"><title>Node1&#45;&gt;Node2</title>
<path fill="none" stroke="midnightblue" d="M72.5698,-112.088C66.4758,-102.636 59.9906,-92.5773 54.6955,-84.3645"/>
<polygon fill="midnightblue" stroke="midnightblue" points="57.4813,-82.2262 49.1209,-75.7182 51.5981,-86.0194 57.4813,-82.2262"/>
</g>
<!-- Node3 -->
<g id="node3" class="node"><title>Node3</title>
<polygon fill="none" stroke="#bfbfbf" points="64.5,-0.5 64.5,-19.5 120.5,-19.5 120.5,-0.5 64.5,-0.5"/>
<text text-anchor="middle" x="92.5" y="-7.5" font-family="Helvetica,sans-Serif" font-size="10.00">Rtypes.h</text>
</g>
<!-- Node1&#45;&gt;Node3 -->
<g id="edge2" class="edge"><title>Node1&#45;&gt;Node3</title>
<path fill="none" stroke="midnightblue" d="M92.5,-112.385C92.5,-86.8199 92.5,-51.1986 92.5,-29.6954"/>
<polygon fill="midnightblue" stroke="midnightblue" points="96.0001,-29.6099 92.5,-19.61 89.0001,-29.61 96.0001,-29.6099"/>
</g>
<!-- Node4 -->
<g id="node4" class="node"><title>Node4</title>
<g id="a_node4"><a xlink:href="../../dd/dda/DataFormats_2Detectors_2EMCAL_2include_2DataFormatsEMCAL_2Constants_8h.html" target="_top" xlink:title="DataFormatsEMCAL/Constants.h">
<polygon fill="none" stroke="black" points="120.5,-56.5 120.5,-75.5 284.5,-75.5 284.5,-56.5 120.5,-56.5"/>
<text text-anchor="middle" x="202.5" y="-63.5" font-family="Helvetica,sans-Serif" font-size="10.00">DataFormatsEMCAL/Constants.h</text>
</a>
</g>
</g>
<!-- Node1&#45;&gt;Node4 -->
<g id="edge3" class="edge"><title>Node1&#45;&gt;Node4</title>
<path fill="none" stroke="midnightblue" d="M136.924,-112.307C152.278,-101.699 168.775,-90.3011 181.381,-81.5912"/>
<polygon fill="midnightblue" stroke="midnightblue" points="183.563,-84.3377 189.801,-75.7738 179.584,-78.5786 183.563,-84.3377"/>
</g>
<!-- Node4&#45;&gt;Node3 -->
<g id="edge4" class="edge"><title>Node4&#45;&gt;Node3</title>
<path fill="none" stroke="midnightblue" d="M184.827,-56.324C167.106,-47.6247 139.597,-34.1202 119.212,-24.113"/>
<polygon fill="midnightblue" stroke="midnightblue" points="120.649,-20.9195 110.13,-19.6545 117.564,-27.2031 120.649,-20.9195"/>
</g>
<!-- Node5 -->
<g id="node5" class="node"><title>Node5</title>
<polygon fill="none" stroke="#bfbfbf" points="139,-0.5 139,-19.5 184,-19.5 184,-0.5 139,-0.5"/>
<text text-anchor="middle" x="161.5" y="-7.5" font-family="Helvetica,sans-Serif" font-size="10.00">iosfwd</text>
</g>
<!-- Node4&#45;&gt;Node5 -->
<g id="edge5" class="edge"><title>Node4&#45;&gt;Node5</title>
<path fill="none" stroke="midnightblue" d="M195.73,-56.083C189.938,-48.4554 181.442,-37.2645 174.362,-27.9408"/>
<polygon fill="midnightblue" stroke="midnightblue" points="176.979,-25.5991 168.144,-19.7511 171.404,-29.8321 176.979,-25.5991"/>
</g>
<!-- Node6 -->
<g id="node6" class="node"><title>Node6</title>
<polygon fill="none" stroke="#bfbfbf" points="202,-0.5 202,-19.5 261,-19.5 261,-0.5 202,-0.5"/>
<text text-anchor="middle" x="231.5" y="-7.5" font-family="Helvetica,sans-Serif" font-size="10.00">exception</text>
</g>
<!-- Node4&#45;&gt;Node6 -->
<g id="edge6" class="edge"><title>Node4&#45;&gt;Node6</title>
<path fill="none" stroke="midnightblue" d="M207.289,-56.083C211.258,-48.6913 217.025,-37.9533 221.935,-28.8111"/>
<polygon fill="midnightblue" stroke="midnightblue" points="225.153,-30.217 226.8,-19.7511 218.986,-26.9051 225.153,-30.217"/>
</g>
<!-- Node7 -->
<g id="node7" class="node"><title>Node7</title>
<polygon fill="none" stroke="#bfbfbf" points="279.5,-0.5 279.5,-19.5 325.5,-19.5 325.5,-0.5 279.5,-0.5"/>
<text text-anchor="middle" x="302.5" y="-7.5" font-family="Helvetica,sans-Serif" font-size="10.00">cstdint</text>
</g>
<!-- Node4&#45;&gt;Node7 -->
<g id="edge7" class="edge"><title>Node4&#45;&gt;Node7</title>
<path fill="none" stroke="midnightblue" d="M218.567,-56.324C234.458,-47.7428 259.007,-34.486 277.458,-24.5224"/>
<polygon fill="midnightblue" stroke="midnightblue" points="279.337,-27.4857 286.473,-19.6545 276.011,-21.3264 279.337,-27.4857"/>
</g>
</g>
</svg>
