<?xml version="1.0" encoding="UTF-8" standalone="no"?>
<!DOCTYPE svg PUBLIC "-//W3C//DTD SVG 1.1//EN"
 "http://www.w3.org/Graphics/SVG/1.1/DTD/svg11.dtd">
<!-- Generated by graphviz version 2.38.0 (20140413.2041)
 -->
<!-- Title: AliHLTHOMERWriter::AliHLTHOMERWriterAlignmentDoubleTestStructure Pages: 1 -->
<svg width="414pt" height="226pt"
 viewBox="0.00 0.00 414.00 226.00" xmlns="http://www.w3.org/2000/svg" xmlns:xlink="http://www.w3.org/1999/xlink">
<g id="graph0" class="graph" transform="scale(1 1) rotate(0) translate(4 222)">
<title>AliHLTHOMERWriter::AliHLTHOMERWriterAlignmentDoubleTestStructure</title>
<!-- Node1 -->
<g id="node1" class="node"><title>Node1</title>
<polygon fill="#bfbfbf" stroke="black" points="115.5,-0.5 115.5,-79.5 269.5,-79.5 269.5,-0.5 115.5,-0.5"/>
<text text-anchor="start" x="123.5" y="-67.5" font-family="Helvetica,sans-Serif" font-size="10.00">AliHLTHOMERWriter::</text>
<text text-anchor="start" x="123.5" y="-56.5" font-family="Helvetica,sans-Serif" font-size="10.00">AliHLTHOMERWriterAlignment</text>
<text text-anchor="middle" x="192.5" y="-45.5" font-family="Helvetica,sans-Serif" font-size="10.00">DoubleTestStructure</text>
<polyline fill="none" stroke="black" points="115.5,-38.5 269.5,-38.5 "/>
<text text-anchor="middle" x="192.5" y="-26.5" font-family="Helvetica,sans-Serif" font-size="10.00"> </text>
<polyline fill="none" stroke="black" points="115.5,-19.5 269.5,-19.5 "/>
<text text-anchor="middle" x="192.5" y="-7.5" font-family="Helvetica,sans-Serif" font-size="10.00"> </text>
</g>
<!-- Node2 -->
<g id="node2" class="node"><title>Node2</title>
<polygon fill="none" stroke="#bfbfbf" points="0,-160.5 0,-217.5 45,-217.5 45,-160.5 0,-160.5"/>
<text text-anchor="middle" x="22.5" y="-205.5" font-family="Helvetica,sans-Serif" font-size="10.00">double</text>
<polyline fill="none" stroke="#bfbfbf" points="0,-198.5 45,-198.5 "/>
<text text-anchor="middle" x="22.5" y="-186.5" font-family="Helvetica,sans-Serif" font-size="10.00"> </text>
<polyline fill="none" stroke="#bfbfbf" points="0,-179.5 45,-179.5 "/>
<text text-anchor="middle" x="22.5" y="-167.5" font-family="Helvetica,sans-Serif" font-size="10.00"> </text>
</g>
<!-- Node2&#45;&gt;Node1 -->
<g id="edge1" class="edge"><title>Node2&#45;&gt;Node1</title>
<path fill="none" stroke="#404040" d="M25.6092,-160.09C29.1323,-140.527 36.6203,-114.945 52.5,-98 66.5256,-83.0333 85.0371,-71.8923 103.988,-63.6362"/>
<polygon fill="none" stroke="#404040" points="104.046,-63.6126 108.102,-57.6503 115.166,-59.1013 111.11,-65.0635 104.046,-63.6126"/>
<text text-anchor="middle" x="89" y="-134" font-family="Helvetica,sans-Serif" font-size="10.00"> +fDoubleTest16</text>
<text text-anchor="middle" x="89" y="-123" font-family="Helvetica,sans-Serif" font-size="10.00">+fDoubleTest8</text>
<text text-anchor="middle" x="89" y="-112" font-family="Helvetica,sans-Serif" font-size="10.00">+fDoubleTest64</text>
<text text-anchor="middle" x="89" y="-101" font-family="Helvetica,sans-Serif" font-size="10.00">+fDoubleTest32</text>
</g>
<!-- Node3 -->
<g id="node3" class="node"><title>Node3</title>
<polygon fill="none" stroke="#bfbfbf" points="72,-160.5 72,-217.5 147,-217.5 147,-160.5 72,-160.5"/>
<text text-anchor="middle" x="109.5" y="-205.5" font-family="Helvetica,sans-Serif" font-size="10.00">homer_uint16</text>
<polyline fill="none" stroke="#bfbfbf" points="72,-198.5 147,-198.5 "/>
<text text-anchor="middle" x="109.5" y="-186.5" font-family="Helvetica,sans-Serif" font-size="10.00"> </text>
<polyline fill="none" stroke="#bfbfbf" points="72,-179.5 147,-179.5 "/>
<text text-anchor="middle" x="109.5" y="-167.5" font-family="Helvetica,sans-Serif" font-size="10.00"> </text>
</g>
<!-- Node3&#45;&gt;Node1 -->
<g id="edge2" class="edge"><title>Node3&#45;&gt;Node1</title>
<path fill="none" stroke="#404040" d="M121.334,-160.216C129.393,-142.109 140.706,-118.184 152.5,-98 154.048,-95.3513 155.681,-92.6677 157.369,-89.9821"/>
<polygon fill="none" stroke="#404040" points="157.528,-89.7384 157.451,-82.5277 164.078,-79.6835 164.154,-86.8942 157.528,-89.7384"/>
<text text-anchor="middle" x="170.5" y="-117.5" font-family="Helvetica,sans-Serif" font-size="10.00"> +f16Fill</text>
</g>
<!-- Node4 -->
<g id="node4" class="node"><title>Node4</title>
<polygon fill="none" stroke="#bfbfbf" points="164.5,-160.5 164.5,-217.5 220.5,-217.5 220.5,-160.5 164.5,-160.5"/>
<text text-anchor="middle" x="192.5" y="-205.5" font-family="Helvetica,sans-Serif" font-size="10.00">unsigned</text>
<polyline fill="none" stroke="#bfbfbf" points="164.5,-198.5 220.5,-198.5 "/>
<text text-anchor="middle" x="192.5" y="-186.5" font-family="Helvetica,sans-Serif" font-size="10.00"> </text>
<polyline fill="none" stroke="#bfbfbf" points="164.5,-179.5 220.5,-179.5 "/>
<text text-anchor="middle" x="192.5" y="-167.5" font-family="Helvetica,sans-Serif" font-size="10.00"> </text>
</g>
<!-- Node4&#45;&gt;Node1 -->
<g id="edge3" class="edge"><title>Node4&#45;&gt;Node1</title>
<path fill="none" stroke="#404040" d="M192.5,-160.35C192.5,-141.034 192.5,-114.683 192.5,-91.6539"/>
<polygon fill="none" stroke="#404040" points="192.5,-91.6195 188.5,-85.6196 192.5,-79.6195 196.5,-85.6195 192.5,-91.6195"/>
<text text-anchor="middle" x="208" y="-117.5" font-family="Helvetica,sans-Serif" font-size="10.00"> +f8Fill</text>
</g>
<!-- Node5 -->
<g id="node5" class="node"><title>Node5</title>
<polygon fill="none" stroke="#bfbfbf" points="238,-160.5 238,-217.5 313,-217.5 313,-160.5 238,-160.5"/>
<text text-anchor="middle" x="275.5" y="-205.5" font-family="Helvetica,sans-Serif" font-size="10.00">homer_uint64</text>
<polyline fill="none" stroke="#bfbfbf" points="238,-198.5 313,-198.5 "/>
<text text-anchor="middle" x="275.5" y="-186.5" font-family="Helvetica,sans-Serif" font-size="10.00"> </text>
<polyline fill="none" stroke="#bfbfbf" points="238,-179.5 313,-179.5 "/>
<text text-anchor="middle" x="275.5" y="-167.5" font-family="Helvetica,sans-Serif" font-size="10.00"> </text>
</g>
<!-- Node5&#45;&gt;Node1 -->
<g id="edge4" class="edge"><title>Node5&#45;&gt;Node1</title>
<path fill="none" stroke="#404040" d="M261.224,-160.19C251.895,-142.283 239.297,-118.589 227.5,-98 226.01,-95.3992 224.464,-92.7434 222.89,-90.0701"/>
<polygon fill="none" stroke="#404040" points="222.881,-90.0548 216.37,-86.954 216.729,-79.7518 223.239,-82.8526 222.881,-90.0548"/>
<text text-anchor="middle" x="269.5" y="-117.5" font-family="Helvetica,sans-Serif" font-size="10.00"> +f64Fill</text>
</g>
<!-- Node6 -->
<g id="node6" class="node"><title>Node6</title>
<polygon fill="none" stroke="#bfbfbf" points="331,-160.5 331,-217.5 406,-217.5 406,-160.5 331,-160.5"/>
<text text-anchor="middle" x="368.5" y="-205.5" font-family="Helvetica,sans-Serif" font-size="10.00">homer_uint32</text>
<polyline fill="none" stroke="#bfbfbf" points="331,-198.5 406,-198.5 "/>
<text text-anchor="middle" x="368.5" y="-186.5" font-family="Helvetica,sans-Serif" font-size="10.00"> </text>
<polyline fill="none" stroke="#bfbfbf" points="331,-179.5 406,-179.5 "/>
<text text-anchor="middle" x="368.5" y="-167.5" font-family="Helvetica,sans-Serif" font-size="10.00"> </text>
</g>
<!-- Node6&#45;&gt;Node1 -->
<g id="edge5" class="edge"><title>Node6&#45;&gt;Node1</title>
<path fill="none" stroke="#404040" d="M348.733,-160.225C334.305,-141.219 313.494,-116.254 291.5,-98 286.711,-94.025 281.608,-90.168 276.34,-86.4597"/>
<polygon fill="none" stroke="#404040" points="275.996,-86.228 268.785,-86.1907 266.046,-79.52 273.257,-79.5573 275.996,-86.228"/>
<text text-anchor="middle" x="351.5" y="-117.5" font-family="Helvetica,sans-Serif" font-size="10.00"> +f32Fill</text>
</g>
</g>
</svg>
