<?xml version="1.0" encoding="UTF-8" standalone="no"?>
<!DOCTYPE svg PUBLIC "-//W3C//DTD SVG 1.1//EN"
 "http://www.w3.org/Graphics/SVG/1.1/DTD/svg11.dtd">
<!-- Generated by graphviz version 2.38.0 (20140413.2041)
 -->
<!-- Title: o2::cpv::Hit Pages: 1 -->
<svg width="270pt" height="1027pt"
 viewBox="0.00 0.00 269.50 1027.00" xmlns="http://www.w3.org/2000/svg" xmlns:xlink="http://www.w3.org/1999/xlink">
<g id="graph0" class="graph" transform="scale(1 1) rotate(0) translate(4 1023)">
<title>o2::cpv::Hit</title>
<!-- Node1 -->
<g id="node1" class="node"><title>Node1</title>
<polygon fill="#bfbfbf" stroke="black" points="56.5,-0.5 56.5,-167.5 157.5,-167.5 157.5,-0.5 56.5,-0.5"/>
<text text-anchor="middle" x="107" y="-155.5" font-family="Helvetica,sans-Serif" font-size="10.00">o2::cpv::Hit</text>
<polyline fill="none" stroke="black" points="56.5,-148.5 157.5,-148.5 "/>
<text text-anchor="middle" x="107" y="-136.5" font-family="Helvetica,sans-Serif" font-size="10.00"> </text>
<polyline fill="none" stroke="black" points="56.5,-129.5 157.5,-129.5 "/>
<text text-anchor="start" x="64.5" y="-117.5" font-family="Helvetica,sans-Serif" font-size="10.00">+ Hit()</text>
<text text-anchor="start" x="64.5" y="-106.5" font-family="Helvetica,sans-Serif" font-size="10.00">+ Hit()</text>
<text text-anchor="start" x="64.5" y="-95.5" font-family="Helvetica,sans-Serif" font-size="10.00">+ operator=()</text>
<text text-anchor="start" x="64.5" y="-84.5" font-family="Helvetica,sans-Serif" font-size="10.00">+ operator==()</text>
<text text-anchor="start" x="64.5" y="-73.5" font-family="Helvetica,sans-Serif" font-size="10.00">+ operator=()</text>
<text text-anchor="start" x="64.5" y="-62.5" font-family="Helvetica,sans-Serif" font-size="10.00">+ operator&lt;()</text>
<text text-anchor="start" x="64.5" y="-51.5" font-family="Helvetica,sans-Serif" font-size="10.00">+ operator+=()</text>
<text text-anchor="start" x="64.5" y="-40.5" font-family="Helvetica,sans-Serif" font-size="10.00">+ operator+()</text>
<text text-anchor="start" x="64.5" y="-29.5" font-family="Helvetica,sans-Serif" font-size="10.00">+ ~Hit()</text>
<text text-anchor="start" x="64.5" y="-18.5" font-family="Helvetica,sans-Serif" font-size="10.00">+ AddEnergyLoss()</text>
<text text-anchor="start" x="64.5" y="-7.5" font-family="Helvetica,sans-Serif" font-size="10.00">+ PrintStream()</text>
</g>
<!-- Node2 -->
<g id="node2" class="node"><title>Node2</title>
<g id="a_node2"><a xlink:href="../../de/d90/classo2_1_1BasicXYZEHit.html" target="_top" xlink:title="{o2::BasicXYZEHit\&lt; float \&gt;\n||+ GetEnergyLoss()\l+ SetEnergyLoss()\l+ ClassDefNV()\l}">
<polygon fill="none" stroke="black" points="40,-205.5 40,-284.5 174,-284.5 174,-205.5 40,-205.5"/>
<text text-anchor="middle" x="107" y="-272.5" font-family="Helvetica,sans-Serif" font-size="10.00">o2::BasicXYZEHit&lt; float &gt;</text>
<polyline fill="none" stroke="black" points="40,-265.5 174,-265.5 "/>
<text text-anchor="middle" x="107" y="-253.5" font-family="Helvetica,sans-Serif" font-size="10.00"> </text>
<polyline fill="none" stroke="black" points="40,-246.5 174,-246.5 "/>
<text text-anchor="start" x="48" y="-234.5" font-family="Helvetica,sans-Serif" font-size="10.00">+ GetEnergyLoss()</text>
<text text-anchor="start" x="48" y="-223.5" font-family="Helvetica,sans-Serif" font-size="10.00">+ SetEnergyLoss()</text>
<text text-anchor="start" x="48" y="-212.5" font-family="Helvetica,sans-Serif" font-size="10.00">+ ClassDefNV()</text>
</a>
</g>
</g>
<!-- Node2&#45;&gt;Node1 -->
<g id="edge1" class="edge"><title>Node2&#45;&gt;Node1</title>
<path fill="none" stroke="midnightblue" d="M107,-194.87C107,-186.223 107,-177.012 107,-167.742"/>
<polygon fill="none" stroke="midnightblue" points="103.5,-195.104 107,-205.104 110.5,-195.104 103.5,-195.104"/>
</g>
<!-- Node3 -->
<g id="node3" class="node"><title>Node3</title>
<g id="a_node3"><a xlink:href="../../d9/d95/classo2_1_1BasicXYZVHit.html" target="_top" xlink:title="{o2::BasicXYZVHit\&lt; float,\l float, float \&gt;\n||+ BasicXYZVHit()\l+ BasicXYZVHit()\l+ GetX()\l+ GetY()\l+ GetZ()\l+ GetPos()\l+ GetHitValue()\l+ GetTime()\l+ GetDetectorID()\l+ SetTime()\l+ SetHitValue()\l+ SetDetectorID()\l+ SetX()\l+ SetY()\l+ SetZ()\l+ SetXYZ()\l+ SetPos()\l+ ClassDefNV()\l}">
<polygon fill="none" stroke="black" points="0,-332.5 0,-587.5 128,-587.5 128,-332.5 0,-332.5"/>
<text text-anchor="start" x="8" y="-575.5" font-family="Helvetica,sans-Serif" font-size="10.00">o2::BasicXYZVHit&lt; float,</text>
<text text-anchor="middle" x="64" y="-564.5" font-family="Helvetica,sans-Serif" font-size="10.00"> float, float &gt;</text>
<polyline fill="none" stroke="black" points="0,-557.5 128,-557.5 "/>
<text text-anchor="middle" x="64" y="-545.5" font-family="Helvetica,sans-Serif" font-size="10.00"> </text>
<polyline fill="none" stroke="black" points="0,-538.5 128,-538.5 "/>
<text text-anchor="start" x="8" y="-526.5" font-family="Helvetica,sans-Serif" font-size="10.00">+ BasicXYZVHit()</text>
<text text-anchor="start" x="8" y="-515.5" font-family="Helvetica,sans-Serif" font-size="10.00">+ BasicXYZVHit()</text>
<text text-anchor="start" x="8" y="-504.5" font-family="Helvetica,sans-Serif" font-size="10.00">+ GetX()</text>
<text text-anchor="start" x="8" y="-493.5" font-family="Helvetica,sans-Serif" font-size="10.00">+ GetY()</text>
<text text-anchor="start" x="8" y="-482.5" font-family="Helvetica,sans-Serif" font-size="10.00">+ GetZ()</text>
<text text-anchor="start" x="8" y="-471.5" font-family="Helvetica,sans-Serif" font-size="10.00">+ GetPos()</text>
<text text-anchor="start" x="8" y="-460.5" font-family="Helvetica,sans-Serif" font-size="10.00">+ GetHitValue()</text>
<text text-anchor="start" x="8" y="-449.5" font-family="Helvetica,sans-Serif" font-size="10.00">+ GetTime()</text>
<text text-anchor="start" x="8" y="-438.5" font-family="Helvetica,sans-Serif" font-size="10.00">+ GetDetectorID()</text>
<text text-anchor="start" x="8" y="-427.5" font-family="Helvetica,sans-Serif" font-size="10.00">+ SetTime()</text>
<text text-anchor="start" x="8" y="-416.5" font-family="Helvetica,sans-Serif" font-size="10.00">+ SetHitValue()</text>
<text text-anchor="start" x="8" y="-405.5" font-family="Helvetica,sans-Serif" font-size="10.00">+ SetDetectorID()</text>
<text text-anchor="start" x="8" y="-394.5" font-family="Helvetica,sans-Serif" font-size="10.00">+ SetX()</text>
<text text-anchor="start" x="8" y="-383.5" font-family="Helvetica,sans-Serif" font-size="10.00">+ SetY()</text>
<text text-anchor="start" x="8" y="-372.5" font-family="Helvetica,sans-Serif" font-size="10.00">+ SetZ()</text>
<text text-anchor="start" x="8" y="-361.5" font-family="Helvetica,sans-Serif" font-size="10.00">+ SetXYZ()</text>
<text text-anchor="start" x="8" y="-350.5" font-family="Helvetica,sans-Serif" font-size="10.00">+ SetPos()</text>
<text text-anchor="start" x="8" y="-339.5" font-family="Helvetica,sans-Serif" font-size="10.00">+ ClassDefNV()</text>
</a>
</g>
</g>
<!-- Node3&#45;&gt;Node2 -->
<g id="edge2" class="edge"><title>Node3&#45;&gt;Node2</title>
<path fill="none" stroke="midnightblue" d="M91.5816,-322.375C94.3105,-308.857 96.897,-296.045 99.1444,-284.913"/>
<polygon fill="none" stroke="midnightblue" points="88.1204,-321.833 89.5722,-332.328 94.982,-323.219 88.1204,-321.833"/>
</g>
<!-- Node4 -->
<g id="node4" class="node"><title>Node4</title>
<g id="a_node4"><a xlink:href="../../db/dfe/classo2_1_1BaseHit.html" target="_top" xlink:title="{o2::BaseHit\n||+ BaseHit()\l+ BaseHit()\l+ GetTrackID()\l+ SetTrackID()\l}">
<polygon fill="none" stroke="black" points="49.5,-928.5 49.5,-1018.5 132.5,-1018.5 132.5,-928.5 49.5,-928.5"/>
<text text-anchor="middle" x="91" y="-1006.5" font-family="Helvetica,sans-Serif" font-size="10.00">o2::BaseHit</text>
<polyline fill="none" stroke="black" points="49.5,-999.5 132.5,-999.5 "/>
<text text-anchor="middle" x="91" y="-987.5" font-family="Helvetica,sans-Serif" font-size="10.00"> </text>
<polyline fill="none" stroke="black" points="49.5,-980.5 132.5,-980.5 "/>
<text text-anchor="start" x="57.5" y="-968.5" font-family="Helvetica,sans-Serif" font-size="10.00">+ BaseHit()</text>
<text text-anchor="start" x="57.5" y="-957.5" font-family="Helvetica,sans-Serif" font-size="10.00">+ BaseHit()</text>
<text text-anchor="start" x="57.5" y="-946.5" font-family="Helvetica,sans-Serif" font-size="10.00">+ GetTrackID()</text>
<text text-anchor="start" x="57.5" y="-935.5" font-family="Helvetica,sans-Serif" font-size="10.00">+ SetTrackID()</text>
</a>
</g>
</g>
<!-- Node4&#45;&gt;Node3 -->
<g id="edge3" class="edge"><title>Node4&#45;&gt;Node3</title>
<path fill="none" stroke="midnightblue" d="M85.2479,-918.067C84.4108,-909.034 83.6229,-899.758 83,-891 75.7506,-789.07 70.8246,-673.338 67.8083,-587.636"/>
<polygon fill="none" stroke="midnightblue" points="81.7733,-918.501 86.2078,-928.123 88.7417,-917.836 81.7733,-918.501"/>
</g>
<!-- Node5 -->
<g id="node5" class="node"><title>Node5</title>
<g id="a_node5"><a xlink:href="../../d9/d95/classo2_1_1BasicXYZVHit.html" target="_top" xlink:title="{o2::BasicXYZVHit\&lt; T,\l E, V \&gt;\n||+ BasicXYZVHit()\l+ BasicXYZVHit()\l+ GetX()\l+ GetY()\l+ GetZ()\l+ GetPos()\l+ GetHitValue()\l+ GetTime()\l+ GetDetectorID()\l+ SetTime()\l+ SetHitValue()\l+ SetDetectorID()\l+ SetX()\l+ SetY()\l+ SetZ()\l+ SetXYZ()\l+ SetPos()\l+ ClassDefNV()\l}">
<polygon fill="none" stroke="black" points="92.5,-635.5 92.5,-890.5 207.5,-890.5 207.5,-635.5 92.5,-635.5"/>
<text text-anchor="start" x="100.5" y="-878.5" font-family="Helvetica,sans-Serif" font-size="10.00">o2::BasicXYZVHit&lt; T,</text>
<text text-anchor="middle" x="150" y="-867.5" font-family="Helvetica,sans-Serif" font-size="10.00"> E, V &gt;</text>
<polyline fill="none" stroke="black" points="92.5,-860.5 207.5,-860.5 "/>
<text text-anchor="middle" x="150" y="-848.5" font-family="Helvetica,sans-Serif" font-size="10.00"> </text>
<polyline fill="none" stroke="black" points="92.5,-841.5 207.5,-841.5 "/>
<text text-anchor="start" x="100.5" y="-829.5" font-family="Helvetica,sans-Serif" font-size="10.00">+ BasicXYZVHit()</text>
<text text-anchor="start" x="100.5" y="-818.5" font-family="Helvetica,sans-Serif" font-size="10.00">+ BasicXYZVHit()</text>
<text text-anchor="start" x="100.5" y="-807.5" font-family="Helvetica,sans-Serif" font-size="10.00">+ GetX()</text>
<text text-anchor="start" x="100.5" y="-796.5" font-family="Helvetica,sans-Serif" font-size="10.00">+ GetY()</text>
<text text-anchor="start" x="100.5" y="-785.5" font-family="Helvetica,sans-Serif" font-size="10.00">+ GetZ()</text>
<text text-anchor="start" x="100.5" y="-774.5" font-family="Helvetica,sans-Serif" font-size="10.00">+ GetPos()</text>
<text text-anchor="start" x="100.5" y="-763.5" font-family="Helvetica,sans-Serif" font-size="10.00">+ GetHitValue()</text>
<text text-anchor="start" x="100.5" y="-752.5" font-family="Helvetica,sans-Serif" font-size="10.00">+ GetTime()</text>
<text text-anchor="start" x="100.5" y="-741.5" font-family="Helvetica,sans-Serif" font-size="10.00">+ GetDetectorID()</text>
<text text-anchor="start" x="100.5" y="-730.5" font-family="Helvetica,sans-Serif" font-size="10.00">+ SetTime()</text>
<text text-anchor="start" x="100.5" y="-719.5" font-family="Helvetica,sans-Serif" font-size="10.00">+ SetHitValue()</text>
<text text-anchor="start" x="100.5" y="-708.5" font-family="Helvetica,sans-Serif" font-size="10.00">+ SetDetectorID()</text>
<text text-anchor="start" x="100.5" y="-697.5" font-family="Helvetica,sans-Serif" font-size="10.00">+ SetX()</text>
<text text-anchor="start" x="100.5" y="-686.5" font-family="Helvetica,sans-Serif" font-size="10.00">+ SetY()</text>
<text text-anchor="start" x="100.5" y="-675.5" font-family="Helvetica,sans-Serif" font-size="10.00">+ SetZ()</text>
<text text-anchor="start" x="100.5" y="-664.5" font-family="Helvetica,sans-Serif" font-size="10.00">+ SetXYZ()</text>
<text text-anchor="start" x="100.5" y="-653.5" font-family="Helvetica,sans-Serif" font-size="10.00">+ SetPos()</text>
<text text-anchor="start" x="100.5" y="-642.5" font-family="Helvetica,sans-Serif" font-size="10.00">+ ClassDefNV()</text>
</a>
</g>
</g>
<!-- Node4&#45;&gt;Node5 -->
<g id="edge5" class="edge"><title>Node4&#45;&gt;Node5</title>
<path fill="none" stroke="midnightblue" d="M106.315,-918.379C108.774,-909.687 111.407,-900.384 114.115,-890.815"/>
<polygon fill="none" stroke="midnightblue" points="102.868,-917.707 103.512,-928.283 109.603,-919.613 102.868,-917.707"/>
</g>
<!-- Node5&#45;&gt;Node3 -->
<g id="edge4" class="edge"><title>Node5&#45;&gt;Node3</title>
<path fill="none" stroke="orange" d="M97.6312,-625.904C96.7237,-622.916 95.845,-619.946 95,-617 92.2971,-607.577 89.7477,-597.768 87.3612,-587.861"/>
<polygon fill="orange" stroke="orange" points="94.3027,-626.987 100.622,-635.491 100.985,-624.902 94.3027,-626.987"/>
<text text-anchor="middle" x="140" y="-609" font-family="Helvetica,sans-Serif" font-size="10.00"> &lt; float, float, float &gt;</text>
</g>
<!-- Node6 -->
<g id="node6" class="node"><title>Node6</title>
<g id="a_node6"><a xlink:href="../../de/d90/classo2_1_1BasicXYZEHit.html" target="_top" xlink:title="{o2::BasicXYZEHit\&lt; T,\l E, V \&gt;\n||+ GetEnergyLoss()\l+ SetEnergyLoss()\l+ ClassDefNV()\l}">
<polygon fill="none" stroke="black" points="146.5,-415 146.5,-505 261.5,-505 261.5,-415 146.5,-415"/>
<text text-anchor="start" x="154.5" y="-493" font-family="Helvetica,sans-Serif" font-size="10.00">o2::BasicXYZEHit&lt; T,</text>
<text text-anchor="middle" x="204" y="-482" font-family="Helvetica,sans-Serif" font-size="10.00"> E, V &gt;</text>
<polyline fill="none" stroke="black" points="146.5,-475 261.5,-475 "/>
<text text-anchor="middle" x="204" y="-463" font-family="Helvetica,sans-Serif" font-size="10.00"> </text>
<polyline fill="none" stroke="black" points="146.5,-456 261.5,-456 "/>
<text text-anchor="start" x="154.5" y="-444" font-family="Helvetica,sans-Serif" font-size="10.00">+ GetEnergyLoss()</text>
<text text-anchor="start" x="154.5" y="-433" font-family="Helvetica,sans-Serif" font-size="10.00">+ SetEnergyLoss()</text>
<text text-anchor="start" x="154.5" y="-422" font-family="Helvetica,sans-Serif" font-size="10.00">+ ClassDefNV()</text>
</a>
</g>
</g>
<!-- Node5&#45;&gt;Node6 -->
<g id="edge7" class="edge"><title>Node5&#45;&gt;Node6</title>
<path fill="none" stroke="midnightblue" d="M187.383,-625.545C187.948,-622.676 188.488,-619.826 189,-617 195.769,-579.653 199.615,-536.686 201.714,-505.313"/>
<polygon fill="none" stroke="midnightblue" points="183.951,-624.858 185.371,-635.357 190.808,-626.264 183.951,-624.858"/>
</g>
<!-- Node6&#45;&gt;Node2 -->
<g id="edge6" class="edge"><title>Node6&#45;&gt;Node2</title>
<path fill="none" stroke="orange" d="M179.673,-405.581C162.554,-367.99 140.036,-318.544 124.63,-284.714"/>
<polygon fill="orange" stroke="orange" points="176.572,-407.216 183.902,-414.866 182.942,-404.315 176.572,-407.216"/>
<text text-anchor="middle" x="156" y="-306" font-family="Helvetica,sans-Serif" font-size="10.00"> &lt; float &gt;</text>
</g>
</g>
</svg>
