<?xml version="1.0" encoding="UTF-8" standalone="no"?>
<!DOCTYPE svg PUBLIC "-//W3C//DTD SVG 1.1//EN"
 "http://www.w3.org/Graphics/SVG/1.1/DTD/svg11.dtd">
<!-- Generated by graphviz version 2.38.0 (20140413.2041)
 -->
<!-- Title: GPUCA_NAMESPACE::gpu::GPUSettingsEvent Pages: 1 -->
<svg width="221pt" height="226pt"
 viewBox="0.00 0.00 220.50 226.00" xmlns="http://www.w3.org/2000/svg" xmlns:xlink="http://www.w3.org/1999/xlink">
<g id="graph0" class="graph" transform="scale(1 1) rotate(0) translate(4 222)">
<title>GPUCA_NAMESPACE::gpu::GPUSettingsEvent</title>
<!-- Node1 -->
<g id="node1" class="node"><title>Node1</title>
<polygon fill="#bfbfbf" stroke="black" points="0,-0.5 0,-79.5 143,-79.5 143,-0.5 0,-0.5"/>
<text text-anchor="start" x="8" y="-67.5" font-family="Helvetica,sans-Serif" font-size="10.00">GPUCA_NAMESPACE::gpu</text>
<text text-anchor="middle" x="71.5" y="-56.5" font-family="Helvetica,sans-Serif" font-size="10.00">::GPUSettingsEvent</text>
<polyline fill="none" stroke="black" points="0,-49.5 143,-49.5 "/>
<text text-anchor="middle" x="71.5" y="-37.5" font-family="Helvetica,sans-Serif" font-size="10.00"> </text>
<polyline fill="none" stroke="black" points="0,-30.5 143,-30.5 "/>
<text text-anchor="start" x="8" y="-18.5" font-family="Helvetica,sans-Serif" font-size="10.00">+ GPUSettingsEvent()</text>
<text text-anchor="start" x="8" y="-7.5" font-family="Helvetica,sans-Serif" font-size="10.00">+ SetDefaults()</text>
</g>
<!-- Node2 -->
<g id="node2" class="node"><title>Node2</title>
<g id="a_node2"><a xlink:href="../../d4/dc3/classfloat.html" target="_top" xlink:title="{float\n||}">
<polygon fill="none" stroke="black" points="14,-160.5 14,-217.5 49,-217.5 49,-160.5 14,-160.5"/>
<text text-anchor="middle" x="31.5" y="-205.5" font-family="Helvetica,sans-Serif" font-size="10.00">float</text>
<polyline fill="none" stroke="black" points="14,-198.5 49,-198.5 "/>
<text text-anchor="middle" x="31.5" y="-186.5" font-family="Helvetica,sans-Serif" font-size="10.00"> </text>
<polyline fill="none" stroke="black" points="14,-179.5 49,-179.5 "/>
<text text-anchor="middle" x="31.5" y="-167.5" font-family="Helvetica,sans-Serif" font-size="10.00"> </text>
</a>
</g>
</g>
<!-- Node2&#45;&gt;Node1 -->
<g id="edge1" class="edge"><title>Node2&#45;&gt;Node1</title>
<path fill="none" stroke="#404040" d="M27.7056,-160.171C26.2226,-142.046 26.1536,-118.118 32.5,-98 33.306,-95.445 34.2684,-92.9018 35.3538,-90.3877"/>
<polygon fill="none" stroke="#404040" points="35.3886,-90.3187 34.5216,-83.1598 40.7962,-79.6061 41.6633,-86.7649 35.3886,-90.3187"/>
<text text-anchor="middle" x="61.5" y="-117.5" font-family="Helvetica,sans-Serif" font-size="10.00"> +solenoidBz</text>
</g>
<!-- Node3 -->
<g id="node3" class="node"><title>Node3</title>
<polygon fill="none" stroke="#bfbfbf" points="98,-160.5 98,-217.5 127,-217.5 127,-160.5 98,-160.5"/>
<text text-anchor="middle" x="112.5" y="-205.5" font-family="Helvetica,sans-Serif" font-size="10.00">int</text>
<polyline fill="none" stroke="#bfbfbf" points="98,-198.5 127,-198.5 "/>
<text text-anchor="middle" x="112.5" y="-186.5" font-family="Helvetica,sans-Serif" font-size="10.00"> </text>
<polyline fill="none" stroke="#bfbfbf" points="98,-179.5 127,-179.5 "/>
<text text-anchor="middle" x="112.5" y="-167.5" font-family="Helvetica,sans-Serif" font-size="10.00"> </text>
</g>
<!-- Node3&#45;&gt;Node1 -->
<g id="edge2" class="edge"><title>Node3&#45;&gt;Node1</title>
<path fill="none" stroke="#404040" d="M106.342,-160.272C102.22,-142.398 96.472,-118.71 90.5,-98 89.8872,-95.8749 89.2456,-93.7107 88.5841,-91.5287"/>
<polygon fill="none" stroke="#404040" points="88.4991,-91.2575 82.8869,-86.7294 84.9082,-79.8073 90.5204,-84.3355 88.4991,-91.2575"/>
<text text-anchor="middle" x="156.5" y="-134" font-family="Helvetica,sans-Serif" font-size="10.00"> +continuousMaxTimeBin</text>
<text text-anchor="middle" x="156.5" y="-123" font-family="Helvetica,sans-Serif" font-size="10.00">+needsClusterer</text>
<text text-anchor="middle" x="156.5" y="-112" font-family="Helvetica,sans-Serif" font-size="10.00">+constBz</text>
<text text-anchor="middle" x="156.5" y="-101" font-family="Helvetica,sans-Serif" font-size="10.00">+homemadeEvents</text>
</g>
</g>
</svg>
