<?xml version="1.0" encoding="UTF-8" standalone="no"?>
<!DOCTYPE svg PUBLIC "-//W3C//DTD SVG 1.1//EN"
 "http://www.w3.org/Graphics/SVG/1.1/DTD/svg11.dtd">
<!-- Generated by graphviz version 2.38.0 (20140413.2041)
 -->
<!-- Title: /home/travis/build/AliceO2Group/AliceO2/Framework/Core/include/Framework/DeviceExecution.h Pages: 1 -->
<!--zoomable 328 -->
<svg id="main" version="1.1" xmlns="http://www.w3.org/2000/svg" xmlns:xlink="http://www.w3.org/1999/xlink" xml:space="preserve" onload="init(evt)">
<style type="text/css"><![CDATA[
.edge:hover path { stroke: red; }
.edge:hover polygon { stroke: red; fill: red; }
]]></style>
<script type="text/javascript"><![CDATA[
var edges = document.getElementsByTagName('g');
if (edges && edges.length) {
  for (var i=0;i<edges.length;i++) {
    if (edges[i].id.substr(0,4)=='edge') {
      edges[i].setAttribute('class','edge');
    }
  }
}
]]></script>
        <defs>
                <circle id="rim" cx="0" cy="0" r="7"/>
                <circle id="rim2" cx="0" cy="0" r="3.5"/>
                <g id="zoomPlus">
                        <use xlink:href="#rim" fill="#404040">
                                <set attributeName="fill" to="#808080" begin="zoomplus.mouseover" end="zoomplus.mouseout"/>
                        </use>
                        <path d="M-4,0h8M0,-4v8" fill="none" stroke="white" stroke-width="1.5" pointer-events="none"/>
                </g>
                <g id="zoomMin">
                        <use xlink:href="#rim" fill="#404040">
                                <set attributeName="fill" to="#808080" begin="zoomminus.mouseover" end="zoomminus.mouseout"/>
                        </use>
                        <path d="M-4,0h8" fill="none" stroke="white" stroke-width="1.5" pointer-events="none"/>
                </g>
                <g id="dirArrow">
                        <path fill="none" stroke="white" stroke-width="1.5" d="M0,-3.0v7 M-2.5,-0.5L0,-3.0L2.5,-0.5"/>
                </g>
               <g id="resetDef">
                       <use xlink:href="#rim2" fill="#404040">
                               <set attributeName="fill" to="#808080" begin="reset.mouseover" end="reset.mouseout"/>
                       </use>
               </g>
        </defs>

<script type="text/javascript">
var viewWidth = 1750;
var viewHeight = 328;
var sectionId = 'dynsection-1';
</script>
<script xlink:href="../../svgpan.js"/>
<svg id="graph" class="graph">
<g id="viewport">
<title>/home/travis/build/AliceO2Group/AliceO2/Framework/Core/include/Framework/DeviceExecution.h</title>
<!-- Node1 -->
<g id="node1" class="node"><title>Node1</title>
<polygon fill="#bfbfbf" stroke="black" points="1014,-267.5 1014,-319.5 1168,-319.5 1168,-267.5 1014,-267.5"/>
<text text-anchor="start" x="1022" y="-307.5" font-family="Helvetica,sans-Serif" font-size="10.00">/home/travis/build</text>
<text text-anchor="start" x="1022" y="-296.5" font-family="Helvetica,sans-Serif" font-size="10.00">/AliceO2Group/AliceO2</text>
<text text-anchor="start" x="1022" y="-285.5" font-family="Helvetica,sans-Serif" font-size="10.00">/Framework/Core/include</text>
<text text-anchor="middle" x="1091" y="-274.5" font-family="Helvetica,sans-Serif" font-size="10.00">/Framework/DeviceExecution.h</text>
</g>
<!-- Node2 -->
<g id="node2" class="node"><title>Node2</title>
<g id="a_node2"><a xlink:href="../../d3/dc0/DDSConfigHelpers_8h.html" target="_top" xlink:title="/home/travis/build\l/AliceO2Group/AliceO2\l/Framework/Core/src/DDSConfig\lHelpers.h">
<polygon fill="none" stroke="black" points="339,-178.5 339,-230.5 501,-230.5 501,-178.5 339,-178.5"/>
<text text-anchor="start" x="347" y="-218.5" font-family="Helvetica,sans-Serif" font-size="10.00">/home/travis/build</text>
<text text-anchor="start" x="347" y="-207.5" font-family="Helvetica,sans-Serif" font-size="10.00">/AliceO2Group/AliceO2</text>
<text text-anchor="start" x="347" y="-196.5" font-family="Helvetica,sans-Serif" font-size="10.00">/Framework/Core/src/DDSConfig</text>
<text text-anchor="middle" x="420" y="-185.5" font-family="Helvetica,sans-Serif" font-size="10.00">Helpers.h</text>
</a>
</g>
</g>
<!-- Node1&#45;&gt;Node2 -->
<g id="edge1" class="edge"><title>Node1&#45;&gt;Node2</title>
<path fill="none" stroke="midnightblue" d="M1003.72,-281.184C873.017,-264.237 628.246,-232.501 501.191,-216.027"/>
<polygon fill="midnightblue" stroke="midnightblue" points="1003.33,-284.663 1013.7,-282.478 1004.23,-277.721 1003.33,-284.663"/>
</g>
<!-- Node4 -->
<g id="node4" class="node"><title>Node4</title>
<g id="a_node4"><a xlink:href="../../d7/d54/runDataProcessing_8cxx.html" target="_top" xlink:title="/home/travis/build\l/AliceO2Group/AliceO2\l/Framework/Core/src/runDataProcessing.cxx">
<polygon fill="none" stroke="black" points="1148,-95 1148,-136 1362,-136 1362,-95 1148,-95"/>
<text text-anchor="start" x="1156" y="-124" font-family="Helvetica,sans-Serif" font-size="10.00">/home/travis/build</text>
<text text-anchor="start" x="1156" y="-113" font-family="Helvetica,sans-Serif" font-size="10.00">/AliceO2Group/AliceO2</text>
<text text-anchor="middle" x="1255" y="-102" font-family="Helvetica,sans-Serif" font-size="10.00">/Framework/Core/src/runDataProcessing.cxx</text>
</a>
</g>
</g>
<!-- Node1&#45;&gt;Node4 -->
<g id="edge20" class="edge"><title>Node1&#45;&gt;Node4</title>
<path fill="none" stroke="midnightblue" d="M1103.56,-257.994C1113.76,-233.511 1130.06,-201.038 1152,-178 1168.52,-160.656 1190.98,-146.484 1210.71,-136.134"/>
<polygon fill="midnightblue" stroke="midnightblue" points="1100.31,-256.697 1099.82,-267.281 1106.8,-259.312 1100.31,-256.697"/>
</g>
<!-- Node6 -->
<g id="node6" class="node"><title>Node6</title>
<g id="a_node6"><a xlink:href="../../df/dda/DeviceSpecHelpers_8h.html" target="_top" xlink:title="/home/travis/build\l/AliceO2Group/AliceO2\l/Framework/Core/src/DeviceSpec\lHelpers.h">
<polygon fill="none" stroke="black" points="753.5,-178.5 753.5,-230.5 918.5,-230.5 918.5,-178.5 753.5,-178.5"/>
<text text-anchor="start" x="761.5" y="-218.5" font-family="Helvetica,sans-Serif" font-size="10.00">/home/travis/build</text>
<text text-anchor="start" x="761.5" y="-207.5" font-family="Helvetica,sans-Serif" font-size="10.00">/AliceO2Group/AliceO2</text>
<text text-anchor="start" x="761.5" y="-196.5" font-family="Helvetica,sans-Serif" font-size="10.00">/Framework/Core/src/DeviceSpec</text>
<text text-anchor="middle" x="836" y="-185.5" font-family="Helvetica,sans-Serif" font-size="10.00">Helpers.h</text>
</a>
</g>
</g>
<!-- Node1&#45;&gt;Node6 -->
<g id="edge5" class="edge"><title>Node1&#45;&gt;Node6</title>
<path fill="none" stroke="midnightblue" d="M1007.87,-264.138C976.1,-253.299 940.13,-241.027 909.338,-230.521"/>
<polygon fill="midnightblue" stroke="midnightblue" points="1006.99,-267.536 1017.59,-267.453 1009.25,-260.911 1006.99,-267.536"/>
</g>
<!-- Node9 -->
<g id="node9" class="node"><title>Node9</title>
<g id="a_node9"><a xlink:href="../../d4/de8/test__DeviceSpecHelpers_8cxx.html" target="_top" xlink:title="/home/travis/build\l/AliceO2Group/AliceO2\l/Framework/Core/test/test\l_DeviceSpecHelpers.cxx">
<polygon fill="none" stroke="black" points="998.5,-89.5 998.5,-141.5 1129.5,-141.5 1129.5,-89.5 998.5,-89.5"/>
<text text-anchor="start" x="1006.5" y="-129.5" font-family="Helvetica,sans-Serif" font-size="10.00">/home/travis/build</text>
<text text-anchor="start" x="1006.5" y="-118.5" font-family="Helvetica,sans-Serif" font-size="10.00">/AliceO2Group/AliceO2</text>
<text text-anchor="start" x="1006.5" y="-107.5" font-family="Helvetica,sans-Serif" font-size="10.00">/Framework/Core/test/test</text>
<text text-anchor="middle" x="1064" y="-96.5" font-family="Helvetica,sans-Serif" font-size="10.00">_DeviceSpecHelpers.cxx</text>
</a>
</g>
</g>
<!-- Node1&#45;&gt;Node9 -->
<g id="edge21" class="edge"><title>Node1&#45;&gt;Node9</title>
<path fill="none" stroke="midnightblue" d="M1085.59,-257.249C1080.34,-223.038 1072.51,-171.969 1067.86,-141.67"/>
<polygon fill="midnightblue" stroke="midnightblue" points="1082.16,-257.93 1087.13,-267.283 1089.07,-256.868 1082.16,-257.93"/>
</g>
<!-- Node12 -->
<g id="node12" class="node"><title>Node12</title>
<g id="a_node12"><a xlink:href="../../de/d66/DriverControl_8h.html" target="_top" xlink:title="/home/travis/build\l/AliceO2Group/AliceO2\l/Framework/Core/src/DriverControl.h">
<polygon fill="none" stroke="black" points="1161,-184 1161,-225 1339,-225 1339,-184 1161,-184"/>
<text text-anchor="start" x="1169" y="-213" font-family="Helvetica,sans-Serif" font-size="10.00">/home/travis/build</text>
<text text-anchor="start" x="1169" y="-202" font-family="Helvetica,sans-Serif" font-size="10.00">/AliceO2Group/AliceO2</text>
<text text-anchor="middle" x="1250" y="-191" font-family="Helvetica,sans-Serif" font-size="10.00">/Framework/Core/src/DriverControl.h</text>
</a>
</g>
</g>
<!-- Node1&#45;&gt;Node12 -->
<g id="edge13" class="edge"><title>Node1&#45;&gt;Node12</title>
<path fill="none" stroke="midnightblue" d="M1145.83,-262.501C1168.46,-250.116 1194.06,-236.111 1214.21,-225.082"/>
<polygon fill="midnightblue" stroke="midnightblue" points="1144.08,-259.465 1136.99,-267.336 1147.44,-265.606 1144.08,-259.465"/>
</g>
<!-- Node15 -->
<g id="node15" class="node"><title>Node15</title>
<g id="a_node15"><a xlink:href="../../d3/d6a/O2ControlHelpers_8h.html" target="_top" xlink:title="/home/travis/build\l/AliceO2Group/AliceO2\l/Framework/Core/src/O2Control\lHelpers.h">
<polygon fill="none" stroke="black" points="1357,-178.5 1357,-230.5 1513,-230.5 1513,-178.5 1357,-178.5"/>
<text text-anchor="start" x="1365" y="-218.5" font-family="Helvetica,sans-Serif" font-size="10.00">/home/travis/build</text>
<text text-anchor="start" x="1365" y="-207.5" font-family="Helvetica,sans-Serif" font-size="10.00">/AliceO2Group/AliceO2</text>
<text text-anchor="start" x="1365" y="-196.5" font-family="Helvetica,sans-Serif" font-size="10.00">/Framework/Core/src/O2Control</text>
<text text-anchor="middle" x="1435" y="-185.5" font-family="Helvetica,sans-Serif" font-size="10.00">Helpers.h</text>
</a>
</g>
</g>
<!-- Node1&#45;&gt;Node15 -->
<g id="edge17" class="edge"><title>Node1&#45;&gt;Node15</title>
<path fill="none" stroke="midnightblue" d="M1177.8,-272.872C1227.74,-261.295 1291.58,-246.01 1348,-231 1350.89,-230.231 1353.83,-229.436 1356.8,-228.623"/>
<polygon fill="midnightblue" stroke="midnightblue" points="1176.96,-269.475 1168.01,-275.137 1178.54,-276.295 1176.96,-269.475"/>
</g>
<!-- Node3 -->
<g id="node3" class="node"><title>Node3</title>
<g id="a_node3"><a xlink:href="../../d3/d15/DDSConfigHelpers_8cxx.html" target="_top" xlink:title="/home/travis/build\l/AliceO2Group/AliceO2\l/Framework/Core/src/DDSConfig\lHelpers.cxx">
<polygon fill="none" stroke="black" points="0,-89.5 0,-141.5 162,-141.5 162,-89.5 0,-89.5"/>
<text text-anchor="start" x="8" y="-129.5" font-family="Helvetica,sans-Serif" font-size="10.00">/home/travis/build</text>
<text text-anchor="start" x="8" y="-118.5" font-family="Helvetica,sans-Serif" font-size="10.00">/AliceO2Group/AliceO2</text>
<text text-anchor="start" x="8" y="-107.5" font-family="Helvetica,sans-Serif" font-size="10.00">/Framework/Core/src/DDSConfig</text>
<text text-anchor="middle" x="81" y="-96.5" font-family="Helvetica,sans-Serif" font-size="10.00">Helpers.cxx</text>
</a>
</g>
</g>
<!-- Node2&#45;&gt;Node3 -->
<g id="edge2" class="edge"><title>Node2&#45;&gt;Node3</title>
<path fill="none" stroke="midnightblue" d="M328.903,-181.786C281.685,-170.332 223.138,-155.821 171,-142 168.174,-141.251 165.301,-140.481 162.401,-139.697"/>
<polygon fill="midnightblue" stroke="midnightblue" points="328.258,-185.23 338.801,-184.182 329.905,-178.427 328.258,-185.23"/>
</g>
<!-- Node2&#45;&gt;Node4 -->
<g id="edge3" class="edge"><title>Node2&#45;&gt;Node4</title>
<path fill="none" stroke="midnightblue" d="M511.341,-196.341C690.865,-182.172 1077.55,-151.137 1138,-142 1149,-140.338 1160.51,-138.256 1171.84,-136.004"/>
<polygon fill="midnightblue" stroke="midnightblue" points="510.818,-192.871 501.124,-197.146 511.368,-199.849 510.818,-192.871"/>
</g>
<!-- Node5 -->
<g id="node5" class="node"><title>Node5</title>
<g id="a_node5"><a xlink:href="../../d6/d53/test__FrameworkDataFlowToDDS_8cxx.html" target="_top" xlink:title="/home/travis/build\l/AliceO2Group/AliceO2\l/Framework/Core/test/test\l_FrameworkDataFlowToDDS.cxx">
<polygon fill="none" stroke="black" points="180,-89.5 180,-141.5 344,-141.5 344,-89.5 180,-89.5"/>
<text text-anchor="start" x="188" y="-129.5" font-family="Helvetica,sans-Serif" font-size="10.00">/home/travis/build</text>
<text text-anchor="start" x="188" y="-118.5" font-family="Helvetica,sans-Serif" font-size="10.00">/AliceO2Group/AliceO2</text>
<text text-anchor="start" x="188" y="-107.5" font-family="Helvetica,sans-Serif" font-size="10.00">/Framework/Core/test/test</text>
<text text-anchor="middle" x="262" y="-96.5" font-family="Helvetica,sans-Serif" font-size="10.00">_FrameworkDataFlowToDDS.cxx</text>
</a>
</g>
</g>
<!-- Node2&#45;&gt;Node5 -->
<g id="edge4" class="edge"><title>Node2&#45;&gt;Node5</title>
<path fill="none" stroke="midnightblue" d="M365.507,-173.494C346.631,-163.101 325.683,-151.566 307.597,-141.607"/>
<polygon fill="midnightblue" stroke="midnightblue" points="363.852,-176.578 374.3,-178.336 367.228,-170.447 363.852,-176.578"/>
</g>
<!-- Node6&#45;&gt;Node4 -->
<g id="edge7" class="edge"><title>Node6&#45;&gt;Node4</title>
<path fill="none" stroke="midnightblue" d="M928.909,-184.922C988.67,-172.888 1067.97,-156.762 1138,-142 1147.05,-140.092 1156.49,-138.077 1165.91,-136.049"/>
<polygon fill="midnightblue" stroke="midnightblue" points="927.852,-181.564 918.739,-186.968 929.233,-188.427 927.852,-181.564"/>
</g>
<!-- Node6&#45;&gt;Node5 -->
<g id="edge10" class="edge"><title>Node6&#45;&gt;Node5</title>
<path fill="none" stroke="midnightblue" d="M743.212,-195.758C645.483,-186.656 487.426,-169.24 353,-142 350.106,-141.413 347.168,-140.783 344.208,-140.119"/>
<polygon fill="midnightblue" stroke="midnightblue" points="743.079,-199.26 753.358,-196.693 743.721,-192.29 743.079,-199.26"/>
</g>
<!-- Node7 -->
<g id="node7" class="node"><title>Node7</title>
<g id="a_node7"><a xlink:href="../../d1/dd9/DeviceSpecHelpers_8cxx.html" target="_top" xlink:title="/home/travis/build\l/AliceO2Group/AliceO2\l/Framework/Core/src/DeviceSpec\lHelpers.cxx">
<polygon fill="none" stroke="black" points="362.5,-89.5 362.5,-141.5 527.5,-141.5 527.5,-89.5 362.5,-89.5"/>
<text text-anchor="start" x="370.5" y="-129.5" font-family="Helvetica,sans-Serif" font-size="10.00">/home/travis/build</text>
<text text-anchor="start" x="370.5" y="-118.5" font-family="Helvetica,sans-Serif" font-size="10.00">/AliceO2Group/AliceO2</text>
<text text-anchor="start" x="370.5" y="-107.5" font-family="Helvetica,sans-Serif" font-size="10.00">/Framework/Core/src/DeviceSpec</text>
<text text-anchor="middle" x="445" y="-96.5" font-family="Helvetica,sans-Serif" font-size="10.00">Helpers.cxx</text>
</a>
</g>
</g>
<!-- Node6&#45;&gt;Node7 -->
<g id="edge6" class="edge"><title>Node6&#45;&gt;Node7</title>
<path fill="none" stroke="midnightblue" d="M743.081,-186.218C683.631,-174.726 604.995,-158.716 536,-142 533.289,-141.343 530.537,-140.661 527.761,-139.96"/>
<polygon fill="midnightblue" stroke="midnightblue" points="742.72,-189.713 753.201,-188.167 744.043,-182.839 742.72,-189.713"/>
</g>
<!-- Node8 -->
<g id="node8" class="node"><title>Node8</title>
<g id="a_node8"><a xlink:href="../../d9/d51/test__DeviceSpec_8cxx.html" target="_top" xlink:title="/home/travis/build\l/AliceO2Group/AliceO2\l/Framework/Core/test/test\l_DeviceSpec.cxx">
<polygon fill="none" stroke="black" points="545.5,-89.5 545.5,-141.5 676.5,-141.5 676.5,-89.5 545.5,-89.5"/>
<text text-anchor="start" x="553.5" y="-129.5" font-family="Helvetica,sans-Serif" font-size="10.00">/home/travis/build</text>
<text text-anchor="start" x="553.5" y="-118.5" font-family="Helvetica,sans-Serif" font-size="10.00">/AliceO2Group/AliceO2</text>
<text text-anchor="start" x="553.5" y="-107.5" font-family="Helvetica,sans-Serif" font-size="10.00">/Framework/Core/test/test</text>
<text text-anchor="middle" x="611" y="-96.5" font-family="Helvetica,sans-Serif" font-size="10.00">_DeviceSpec.cxx</text>
</a>
</g>
</g>
<!-- Node6&#45;&gt;Node8 -->
<g id="edge8" class="edge"><title>Node6&#45;&gt;Node8</title>
<path fill="none" stroke="midnightblue" d="M761.561,-174.717C733.798,-163.982 702.528,-151.891 675.71,-141.521"/>
<polygon fill="midnightblue" stroke="midnightblue" points="760.633,-178.111 771.223,-178.453 763.158,-171.582 760.633,-178.111"/>
</g>
<!-- Node6&#45;&gt;Node9 -->
<g id="edge9" class="edge"><title>Node6&#45;&gt;Node9</title>
<path fill="none" stroke="midnightblue" d="M911.063,-174.858C939.288,-164.087 971.132,-151.936 998.427,-141.521"/>
<polygon fill="midnightblue" stroke="midnightblue" points="909.736,-171.618 901.641,-178.453 912.232,-178.158 909.736,-171.618"/>
</g>
<!-- Node10 -->
<g id="node10" class="node"><title>Node10</title>
<g id="a_node10"><a xlink:href="../../d4/dc4/test__Graphviz_8cxx.html" target="_top" xlink:title="/home/travis/build\l/AliceO2Group/AliceO2\l/Framework/Core/test/test\l_Graphviz.cxx">
<polygon fill="none" stroke="black" points="694.5,-89.5 694.5,-141.5 825.5,-141.5 825.5,-89.5 694.5,-89.5"/>
<text text-anchor="start" x="702.5" y="-129.5" font-family="Helvetica,sans-Serif" font-size="10.00">/home/travis/build</text>
<text text-anchor="start" x="702.5" y="-118.5" font-family="Helvetica,sans-Serif" font-size="10.00">/AliceO2Group/AliceO2</text>
<text text-anchor="start" x="702.5" y="-107.5" font-family="Helvetica,sans-Serif" font-size="10.00">/Framework/Core/test/test</text>
<text text-anchor="middle" x="760" y="-96.5" font-family="Helvetica,sans-Serif" font-size="10.00">_Graphviz.cxx</text>
</a>
</g>
</g>
<!-- Node6&#45;&gt;Node10 -->
<g id="edge11" class="edge"><title>Node6&#45;&gt;Node10</title>
<path fill="none" stroke="midnightblue" d="M807.426,-170.79C798.986,-161.129 789.884,-150.71 781.933,-141.607"/>
<polygon fill="midnightblue" stroke="midnightblue" points="804.803,-173.107 814.018,-178.336 810.075,-168.502 804.803,-173.107"/>
</g>
<!-- Node11 -->
<g id="node11" class="node"><title>Node11</title>
<g id="a_node11"><a xlink:href="../../dd/d8a/test__TimeParallelPipelining_8cxx.html" target="_top" xlink:title="/home/travis/build\l/AliceO2Group/AliceO2\l/Framework/Core/test/test\l_TimeParallelPipelining.cxx">
<polygon fill="none" stroke="black" points="843.5,-89.5 843.5,-141.5 980.5,-141.5 980.5,-89.5 843.5,-89.5"/>
<text text-anchor="start" x="851.5" y="-129.5" font-family="Helvetica,sans-Serif" font-size="10.00">/home/travis/build</text>
<text text-anchor="start" x="851.5" y="-118.5" font-family="Helvetica,sans-Serif" font-size="10.00">/AliceO2Group/AliceO2</text>
<text text-anchor="start" x="851.5" y="-107.5" font-family="Helvetica,sans-Serif" font-size="10.00">/Framework/Core/test/test</text>
<text text-anchor="middle" x="912" y="-96.5" font-family="Helvetica,sans-Serif" font-size="10.00">_TimeParallelPipelining.cxx</text>
</a>
</g>
</g>
<!-- Node6&#45;&gt;Node11 -->
<g id="edge12" class="edge"><title>Node6&#45;&gt;Node11</title>
<path fill="none" stroke="midnightblue" d="M864.574,-170.79C873.014,-161.129 882.116,-150.71 890.067,-141.607"/>
<polygon fill="midnightblue" stroke="midnightblue" points="861.925,-168.502 857.982,-178.336 867.197,-173.107 861.925,-168.502"/>
</g>
<!-- Node12&#45;&gt;Node4 -->
<g id="edge16" class="edge"><title>Node12&#45;&gt;Node4</title>
<path fill="none" stroke="midnightblue" d="M1251.73,-173.441C1252.44,-161.101 1253.24,-147.162 1253.87,-136.164"/>
<polygon fill="midnightblue" stroke="midnightblue" points="1248.21,-173.574 1251.13,-183.758 1255.2,-173.976 1248.21,-173.574"/>
</g>
<!-- Node13 -->
<g id="node13" class="node"><title>Node13</title>
<g id="a_node13"><a xlink:href="../../d5/d3a/DriverControl_8cxx.html" target="_top" xlink:title="/home/travis/build\l/AliceO2Group/AliceO2\l/Framework/Core/src/DriverControl.cxx">
<polygon fill="none" stroke="black" points="1380,-95 1380,-136 1568,-136 1568,-95 1380,-95"/>
<text text-anchor="start" x="1388" y="-124" font-family="Helvetica,sans-Serif" font-size="10.00">/home/travis/build</text>
<text text-anchor="start" x="1388" y="-113" font-family="Helvetica,sans-Serif" font-size="10.00">/AliceO2Group/AliceO2</text>
<text text-anchor="middle" x="1474" y="-102" font-family="Helvetica,sans-Serif" font-size="10.00">/Framework/Core/src/DriverControl.cxx</text>
</a>
</g>
</g>
<!-- Node12&#45;&gt;Node13 -->
<g id="edge14" class="edge"><title>Node12&#45;&gt;Node13</title>
<path fill="none" stroke="midnightblue" d="M1310.02,-180.19C1345.47,-166.419 1389.86,-149.179 1423.51,-136.11"/>
<polygon fill="midnightblue" stroke="midnightblue" points="1308.32,-177.092 1300.27,-183.976 1310.86,-183.618 1308.32,-177.092"/>
</g>
<!-- Node14 -->
<g id="node14" class="node"><title>Node14</title>
<g id="a_node14"><a xlink:href="../../d3/d29/FrameworkGUIDebugger_8cxx.html" target="_top" xlink:title="/home/travis/build\l/AliceO2Group/AliceO2\l/Framework/Core/src/Framework\lGUIDebugger.cxx">
<polygon fill="none" stroke="black" points="1393.5,-0.5 1393.5,-52.5 1554.5,-52.5 1554.5,-0.5 1393.5,-0.5"/>
<text text-anchor="start" x="1401.5" y="-40.5" font-family="Helvetica,sans-Serif" font-size="10.00">/home/travis/build</text>
<text text-anchor="start" x="1401.5" y="-29.5" font-family="Helvetica,sans-Serif" font-size="10.00">/AliceO2Group/AliceO2</text>
<text text-anchor="start" x="1401.5" y="-18.5" font-family="Helvetica,sans-Serif" font-size="10.00">/Framework/Core/src/Framework</text>
<text text-anchor="middle" x="1474" y="-7.5" font-family="Helvetica,sans-Serif" font-size="10.00">GUIDebugger.cxx</text>
</a>
</g>
</g>
<!-- Node13&#45;&gt;Node14 -->
<g id="edge15" class="edge"><title>Node13&#45;&gt;Node14</title>
<path fill="none" stroke="midnightblue" d="M1474,-84.5092C1474,-74.1743 1474,-62.71 1474,-52.7882"/>
<polygon fill="midnightblue" stroke="midnightblue" points="1470.5,-84.7583 1474,-94.7584 1477.5,-84.7584 1470.5,-84.7583"/>
</g>
<!-- Node15&#45;&gt;Node4 -->
<g id="edge19" class="edge"><title>Node15&#45;&gt;Node4</title>
<path fill="none" stroke="midnightblue" d="M1373.61,-173.829C1347.82,-161.364 1318.53,-147.208 1295.51,-136.082"/>
<polygon fill="midnightblue" stroke="midnightblue" points="1372.41,-177.135 1382.94,-178.336 1375.46,-170.833 1372.41,-177.135"/>
</g>
<!-- Node16 -->
<g id="node16" class="node"><title>Node16</title>
<g id="a_node16"><a xlink:href="../../d1/de9/O2ControlHelpers_8cxx.html" target="_top" xlink:title="/home/travis/build\l/AliceO2Group/AliceO2\l/Framework/Core/src/O2Control\lHelpers.cxx">
<polygon fill="none" stroke="black" points="1586,-89.5 1586,-141.5 1742,-141.5 1742,-89.5 1586,-89.5"/>
<text text-anchor="start" x="1594" y="-129.5" font-family="Helvetica,sans-Serif" font-size="10.00">/home/travis/build</text>
<text text-anchor="start" x="1594" y="-118.5" font-family="Helvetica,sans-Serif" font-size="10.00">/AliceO2Group/AliceO2</text>
<text text-anchor="start" x="1594" y="-107.5" font-family="Helvetica,sans-Serif" font-size="10.00">/Framework/Core/src/O2Control</text>
<text text-anchor="middle" x="1664" y="-96.5" font-family="Helvetica,sans-Serif" font-size="10.00">Helpers.cxx</text>
</a>
</g>
</g>
<!-- Node15&#45;&gt;Node16 -->
<g id="edge18" class="edge"><title>Node15&#45;&gt;Node16</title>
<path fill="none" stroke="midnightblue" d="M1510.39,-174.858C1538.74,-164.087 1570.73,-151.936 1598.14,-141.521"/>
<polygon fill="midnightblue" stroke="midnightblue" points="1509.03,-171.629 1500.93,-178.453 1511.52,-178.173 1509.03,-171.629"/>
</g>
</g>
</svg>
        <g id="navigator" transform="translate(0 0)" fill="#404254">
                <rect fill="#f2f5e9" fill-opacity="0.5" stroke="#606060" stroke-width=".5" x="0" y="0" width="60" height="60"/>
                <use id="zoomplus" xlink:href="#zoomPlus" x="17" y="9" onmousedown="handleZoom(evt,'in')"/>
                <use id="zoomminus" xlink:href="#zoomMin" x="42" y="9" onmousedown="handleZoom(evt,'out')"/>
                <use id="reset" xlink:href="#resetDef" x="30" y="36" onmousedown="handleReset()"/>
                <g id="arrowUp" xlink:href="#dirArrow" transform="translate(30 24)" onmousedown="handlePan(0,-1)">
                  <use xlink:href="#rim" fill="#404040">
                        <set attributeName="fill" to="#808080" begin="arrowUp.mouseover" end="arrowUp.mouseout"/>
                  </use>
                  <path fill="none" stroke="white" stroke-width="1.5" d="M0,-3.0v7 M-2.5,-0.5L0,-3.0L2.5,-0.5"/>
                </g>
                <g id="arrowRight" xlink:href="#dirArrow" transform="rotate(90) translate(36 -43)" onmousedown="handlePan(1,0)">
                  <use xlink:href="#rim" fill="#404040">
                        <set attributeName="fill" to="#808080" begin="arrowRight.mouseover" end="arrowRight.mouseout"/>
                  </use>
                  <path fill="none" stroke="white" stroke-width="1.5" d="M0,-3.0v7 M-2.5,-0.5L0,-3.0L2.5,-0.5"/>
                </g>
                <g id="arrowDown" xlink:href="#dirArrow" transform="rotate(180) translate(-30 -48)" onmousedown="handlePan(0,1)">
                  <use xlink:href="#rim" fill="#404040">
                        <set attributeName="fill" to="#808080" begin="arrowDown.mouseover" end="arrowDown.mouseout"/>
                  </use>
                  <path fill="none" stroke="white" stroke-width="1.5" d="M0,-3.0v7 M-2.5,-0.5L0,-3.0L2.5,-0.5"/>
                </g>
                <g id="arrowLeft" xlink:href="#dirArrow" transform="rotate(270) translate(-36 17)" onmousedown="handlePan(-1,0)">
                  <use xlink:href="#rim" fill="#404040">
                        <set attributeName="fill" to="#808080" begin="arrowLeft.mouseover" end="arrowLeft.mouseout"/>
                  </use>
                  <path fill="none" stroke="white" stroke-width="1.5" d="M0,-3.0v7 M-2.5,-0.5L0,-3.0L2.5,-0.5"/>
                </g>
        </g>
        <svg viewBox="0 0 15 15" width="100%" height="30px" preserveAspectRatio="xMaxYMin meet">
         <g id="arrow_out" transform="scale(0.3 0.3)">
          <a xlink:href="DeviceExecution_8h__dep__incl_org.svg" target="_base">
           <rect id="button" ry="5" rx="5" y="6" x="6" height="38" width="38"
                fill="#f2f5e9" fill-opacity="0.5" stroke="#606060" stroke-width="1.0"/>
           <path id="arrow"
             d="M 11.500037,31.436501 C 11.940474,20.09759 22.043105,11.32322 32.158766,21.979434 L 37.068811,17.246167 C 37.068811,17.246167 37.088388,32 37.088388,32 L 22.160133,31.978069 C 22.160133,31.978069 26.997745,27.140456 26.997745,27.140456 C 18.528582,18.264221 13.291696,25.230495 11.500037,31.436501 z"
             style="fill:#404040;"/>
          </a>
         </g>
        </svg>
</svg>
