<?xml version="1.0" encoding="UTF-8" standalone="no"?>
<!DOCTYPE svg PUBLIC "-//W3C//DTD SVG 1.1//EN"
 "http://www.w3.org/Graphics/SVG/1.1/DTD/svg11.dtd">
<!-- Generated by graphviz version 2.38.0 (20140413.2041)
 -->
<!-- Title: o2::header::Descriptor&lt; N, PrinterPolicy &gt; Pages: 1 -->
<svg width="262pt" height="347pt"
 viewBox="0.00 0.00 261.50 347.00" xmlns="http://www.w3.org/2000/svg" xmlns:xlink="http://www.w3.org/1999/xlink">
<g id="graph0" class="graph" transform="scale(1 1) rotate(0) translate(4 343)">
<title>o2::header::Descriptor&lt; N, PrinterPolicy &gt;</title>
<!-- Node1 -->
<g id="node1" class="node"><title>Node1</title>
<polygon fill="#bfbfbf" stroke="black" points="42.5,-0.5 42.5,-211.5 155.5,-211.5 155.5,-0.5 42.5,-0.5"/>
<text text-anchor="start" x="50.5" y="-199.5" font-family="Helvetica,sans-Serif" font-size="10.00">o2::header::Descriptor</text>
<text text-anchor="middle" x="99" y="-188.5" font-family="Helvetica,sans-Serif" font-size="10.00">&lt; N, PrinterPolicy &gt;</text>
<polyline fill="none" stroke="black" points="42.5,-181.5 155.5,-181.5 "/>
<text text-anchor="middle" x="99" y="-169.5" font-family="Helvetica,sans-Serif" font-size="10.00"> </text>
<polyline fill="none" stroke="black" points="42.5,-162.5 155.5,-162.5 "/>
<text text-anchor="start" x="50.5" y="-150.5" font-family="Helvetica,sans-Serif" font-size="10.00">+ Descriptor()</text>
<text text-anchor="start" x="50.5" y="-139.5" font-family="Helvetica,sans-Serif" font-size="10.00">+ Descriptor()</text>
<text text-anchor="start" x="50.5" y="-128.5" font-family="Helvetica,sans-Serif" font-size="10.00">+ Descriptor()</text>
<text text-anchor="start" x="50.5" y="-117.5" font-family="Helvetica,sans-Serif" font-size="10.00">+ operator=()</text>
<text text-anchor="start" x="50.5" y="-106.5" font-family="Helvetica,sans-Serif" font-size="10.00">+ operator ItgType()</text>
<text text-anchor="start" x="50.5" y="-95.5" font-family="Helvetica,sans-Serif" font-size="10.00">+ Descriptor()</text>
<text text-anchor="start" x="50.5" y="-84.5" font-family="Helvetica,sans-Serif" font-size="10.00">+ runtimeInit()</text>
<text text-anchor="start" x="50.5" y="-73.5" font-family="Helvetica,sans-Serif" font-size="10.00">+ operator==()</text>
<text text-anchor="start" x="50.5" y="-62.5" font-family="Helvetica,sans-Serif" font-size="10.00">+ operator&lt;()</text>
<text text-anchor="start" x="50.5" y="-51.5" font-family="Helvetica,sans-Serif" font-size="10.00">+ operator!=()</text>
<text text-anchor="start" x="50.5" y="-40.5" font-family="Helvetica,sans-Serif" font-size="10.00">+ operator==()</text>
<text text-anchor="start" x="50.5" y="-29.5" font-family="Helvetica,sans-Serif" font-size="10.00">+ operator!=()</text>
<text text-anchor="start" x="50.5" y="-18.5" font-family="Helvetica,sans-Serif" font-size="10.00">+ as()</text>
<text text-anchor="start" x="50.5" y="-7.5" font-family="Helvetica,sans-Serif" font-size="10.00">+ print()</text>
</g>
<!-- Node2 -->
<g id="node2" class="node"><title>Node2</title>
<polygon fill="none" stroke="#bfbfbf" points="0,-281.5 0,-338.5 38,-338.5 38,-281.5 0,-281.5"/>
<text text-anchor="middle" x="19" y="-326.5" font-family="Helvetica,sans-Serif" font-size="10.00">Type</text>
<polyline fill="none" stroke="#bfbfbf" points="0,-319.5 38,-319.5 "/>
<text text-anchor="middle" x="19" y="-307.5" font-family="Helvetica,sans-Serif" font-size="10.00"> </text>
<polyline fill="none" stroke="#bfbfbf" points="0,-300.5 38,-300.5 "/>
<text text-anchor="middle" x="19" y="-288.5" font-family="Helvetica,sans-Serif" font-size="10.00"> </text>
</g>
<!-- Node2&#45;&gt;Node1 -->
<g id="edge1" class="edge"><title>Node2&#45;&gt;Node1</title>
<path fill="none" stroke="#404040" d="M29.9559,-281.336C36.1509,-265.694 44.3624,-244.96 52.9548,-223.264"/>
<polygon fill="none" stroke="#404040" points="53.0555,-223.01 51.5459,-215.958 57.4741,-211.853 58.9838,-218.904 53.0555,-223.01"/>
<text text-anchor="middle" x="60" y="-244" font-family="Helvetica,sans-Serif" font-size="10.00"> +itg</text>
</g>
<!-- Node3 -->
<g id="node3" class="node"><title>Node3</title>
<polygon fill="none" stroke="#bfbfbf" points="56.5,-281.5 56.5,-338.5 91.5,-338.5 91.5,-281.5 56.5,-281.5"/>
<text text-anchor="middle" x="74" y="-326.5" font-family="Helvetica,sans-Serif" font-size="10.00">char</text>
<polyline fill="none" stroke="#bfbfbf" points="56.5,-319.5 91.5,-319.5 "/>
<text text-anchor="middle" x="74" y="-307.5" font-family="Helvetica,sans-Serif" font-size="10.00"> </text>
<polyline fill="none" stroke="#bfbfbf" points="56.5,-300.5 91.5,-300.5 "/>
<text text-anchor="middle" x="74" y="-288.5" font-family="Helvetica,sans-Serif" font-size="10.00"> </text>
</g>
<!-- Node3&#45;&gt;Node1 -->
<g id="edge2" class="edge"><title>Node3&#45;&gt;Node1</title>
<path fill="none" stroke="#404040" d="M76.0765,-281.174C77.3051,-266.022 79.0096,-246.957 81,-230 81.2422,-227.937 81.4916,-225.855 81.7473,-223.759"/>
<polygon fill="none" stroke="#404040" points="81.7758,-223.532 78.5569,-217.079 83.2753,-211.626 86.4942,-218.079 81.7758,-223.532"/>
<text text-anchor="middle" x="91.5" y="-244" font-family="Helvetica,sans-Serif" font-size="10.00"> +str</text>
</g>
<!-- Node4 -->
<g id="node4" class="node"><title>Node4</title>
<polygon fill="none" stroke="#bfbfbf" points="109.5,-281.5 109.5,-338.5 138.5,-338.5 138.5,-281.5 109.5,-281.5"/>
<text text-anchor="middle" x="124" y="-326.5" font-family="Helvetica,sans-Serif" font-size="10.00">int</text>
<polyline fill="none" stroke="#bfbfbf" points="109.5,-319.5 138.5,-319.5 "/>
<text text-anchor="middle" x="124" y="-307.5" font-family="Helvetica,sans-Serif" font-size="10.00"> </text>
<polyline fill="none" stroke="#bfbfbf" points="109.5,-300.5 138.5,-300.5 "/>
<text text-anchor="middle" x="124" y="-288.5" font-family="Helvetica,sans-Serif" font-size="10.00"> </text>
</g>
<!-- Node4&#45;&gt;Node1 -->
<g id="edge3" class="edge"><title>Node4&#45;&gt;Node1</title>
<path fill="none" stroke="#404040" d="M120.576,-281.336C118.658,-265.838 116.121,-245.34 113.463,-223.861"/>
<polygon fill="none" stroke="#404040" points="113.451,-223.762 108.744,-218.299 111.977,-211.853 116.684,-217.316 113.451,-223.762"/>
<text text-anchor="middle" x="143.5" y="-255" font-family="Helvetica,sans-Serif" font-size="10.00"> +arraySize</text>
<text text-anchor="middle" x="143.5" y="-244" font-family="Helvetica,sans-Serif" font-size="10.00">+size</text>
<text text-anchor="middle" x="143.5" y="-233" font-family="Helvetica,sans-Serif" font-size="10.00">+bitcount</text>
</g>
<!-- Node5 -->
<g id="node5" class="node"><title>Node5</title>
<polygon fill="none" stroke="#bfbfbf" points="156.5,-281.5 156.5,-338.5 253.5,-338.5 253.5,-281.5 156.5,-281.5"/>
<text text-anchor="middle" x="205" y="-326.5" font-family="Helvetica,sans-Serif" font-size="10.00">anonymous:+@24</text>
<polyline fill="none" stroke="#bfbfbf" points="156.5,-319.5 253.5,-319.5 "/>
<text text-anchor="middle" x="205" y="-307.5" font-family="Helvetica,sans-Serif" font-size="10.00"> </text>
<polyline fill="none" stroke="#bfbfbf" points="156.5,-300.5 253.5,-300.5 "/>
<text text-anchor="middle" x="205" y="-288.5" font-family="Helvetica,sans-Serif" font-size="10.00"> </text>
</g>
<!-- Node5&#45;&gt;Node1 -->
<g id="edge4" class="edge"><title>Node5&#45;&gt;Node1</title>
<path fill="none" stroke="#404040" d="M195.07,-281.478C189.214,-266.078 181.332,-246.68 173,-230 169.409,-222.81 165.548,-215.48 161.542,-208.158"/>
<polygon fill="none" stroke="#404040" points="161.421,-207.94 155.008,-204.643 155.585,-197.455 161.998,-200.752 161.421,-207.94"/>
<text text-anchor="middle" x="203.5" y="-244" font-family="Helvetica,sans-Serif" font-size="10.00"> +@24</text>
</g>
</g>
</svg>
