<?xml version="1.0" encoding="UTF-8" standalone="no"?>
<!DOCTYPE svg PUBLIC "-//W3C//DTD SVG 1.1//EN"
 "http://www.w3.org/Graphics/SVG/1.1/DTD/svg11.dtd">
<!-- Generated by graphviz version 2.38.0 (20140413.2041)
 -->
<!-- Title: /home/travis/build/AliceO2Group/AliceO2/Detectors/ITSMFT/MFT/tracking/include/MFTTracking/Tracker.h Pages: 1 -->
<svg width="413pt" height="261pt"
 viewBox="0.00 0.00 412.50 261.00" xmlns="http://www.w3.org/2000/svg" xmlns:xlink="http://www.w3.org/1999/xlink">
<g id="graph0" class="graph" transform="scale(1 1) rotate(0) translate(4 257)">
<title>/home/travis/build/AliceO2Group/AliceO2/Detectors/ITSMFT/MFT/tracking/include/MFTTracking/Tracker.h</title>
<!-- Node1 -->
<g id="node1" class="node"><title>Node1</title>
<polygon fill="#bfbfbf" stroke="black" points="147,-189.5 147,-252.5 296,-252.5 296,-189.5 147,-189.5"/>
<text text-anchor="start" x="155" y="-240.5" font-family="Helvetica,sans-Serif" font-size="10.00">/home/travis/build</text>
<text text-anchor="start" x="155" y="-229.5" font-family="Helvetica,sans-Serif" font-size="10.00">/AliceO2Group/AliceO2</text>
<text text-anchor="start" x="155" y="-218.5" font-family="Helvetica,sans-Serif" font-size="10.00">/Detectors/ITSMFT/MFT</text>
<text text-anchor="start" x="155" y="-207.5" font-family="Helvetica,sans-Serif" font-size="10.00">/tracking/include/MFTTracking</text>
<text text-anchor="middle" x="221.5" y="-196.5" font-family="Helvetica,sans-Serif" font-size="10.00">/Tracker.h</text>
</g>
<!-- Node2 -->
<g id="node2" class="node"><title>Node2</title>
<g id="a_node2"><a xlink:href="../../d4/d77/ITSMFT_2MFT_2tracking_2src_2Tracker_8cxx.html" target="_top" xlink:title="/home/travis/build\l/AliceO2Group/AliceO2\l/Detectors/ITSMFT/MFT\l/tracking/src/Tracker.cxx">
<polygon fill="none" stroke="black" points="0,-95 0,-147 125,-147 125,-95 0,-95"/>
<text text-anchor="start" x="8" y="-135" font-family="Helvetica,sans-Serif" font-size="10.00">/home/travis/build</text>
<text text-anchor="start" x="8" y="-124" font-family="Helvetica,sans-Serif" font-size="10.00">/AliceO2Group/AliceO2</text>
<text text-anchor="start" x="8" y="-113" font-family="Helvetica,sans-Serif" font-size="10.00">/Detectors/ITSMFT/MFT</text>
<text text-anchor="middle" x="62.5" y="-102" font-family="Helvetica,sans-Serif" font-size="10.00">/tracking/src/Tracker.cxx</text>
</a>
</g>
</g>
<!-- Node1&#45;&gt;Node2 -->
<g id="edge1" class="edge"><title>Node1&#45;&gt;Node2</title>
<path fill="none" stroke="midnightblue" d="M162.945,-183.91C143.07,-171.66 121.315,-158.251 103.148,-147.054"/>
<polygon fill="midnightblue" stroke="midnightblue" points="161.278,-186.994 171.628,-189.261 164.951,-181.035 161.278,-186.994"/>
</g>
<!-- Node3 -->
<g id="node3" class="node"><title>Node3</title>
<g id="a_node3"><a xlink:href="../../d8/da1/ITSMFT_2MFT_2workflow_2include_2MFTWorkflow_2TrackerSpec_8h.html" target="_top" xlink:title="/home/travis/build\l/AliceO2Group/AliceO2\l/Detectors/ITSMFT/MFT\l/workflow/include/MFTWorkflow\l/TrackerSpec.h">
<polygon fill="none" stroke="black" points="143,-89.5 143,-152.5 300,-152.5 300,-89.5 143,-89.5"/>
<text text-anchor="start" x="151" y="-140.5" font-family="Helvetica,sans-Serif" font-size="10.00">/home/travis/build</text>
<text text-anchor="start" x="151" y="-129.5" font-family="Helvetica,sans-Serif" font-size="10.00">/AliceO2Group/AliceO2</text>
<text text-anchor="start" x="151" y="-118.5" font-family="Helvetica,sans-Serif" font-size="10.00">/Detectors/ITSMFT/MFT</text>
<text text-anchor="start" x="151" y="-107.5" font-family="Helvetica,sans-Serif" font-size="10.00">/workflow/include/MFTWorkflow</text>
<text text-anchor="middle" x="221.5" y="-96.5" font-family="Helvetica,sans-Serif" font-size="10.00">/TrackerSpec.h</text>
</a>
</g>
</g>
<!-- Node1&#45;&gt;Node3 -->
<g id="edge2" class="edge"><title>Node1&#45;&gt;Node3</title>
<path fill="none" stroke="midnightblue" d="M221.5,-179.099C221.5,-170.238 221.5,-161.015 221.5,-152.63"/>
<polygon fill="midnightblue" stroke="midnightblue" points="218,-179.261 221.5,-189.261 225,-179.261 218,-179.261"/>
</g>
<!-- Node5 -->
<g id="node5" class="node"><title>Node5</title>
<g id="a_node5"><a xlink:href="../../d1/dd0/ITSMFT_2MFT_2workflow_2src_2TrackerSpec_8cxx.html" target="_top" xlink:title="/home/travis/build\l/AliceO2Group/AliceO2\l/Detectors/ITSMFT/MFT\l/workflow/src/TrackerSpec.cxx">
<polygon fill="none" stroke="black" points="252.5,-0.5 252.5,-52.5 404.5,-52.5 404.5,-0.5 252.5,-0.5"/>
<text text-anchor="start" x="260.5" y="-40.5" font-family="Helvetica,sans-Serif" font-size="10.00">/home/travis/build</text>
<text text-anchor="start" x="260.5" y="-29.5" font-family="Helvetica,sans-Serif" font-size="10.00">/AliceO2Group/AliceO2</text>
<text text-anchor="start" x="260.5" y="-18.5" font-family="Helvetica,sans-Serif" font-size="10.00">/Detectors/ITSMFT/MFT</text>
<text text-anchor="middle" x="328.5" y="-7.5" font-family="Helvetica,sans-Serif" font-size="10.00">/workflow/src/TrackerSpec.cxx</text>
</a>
</g>
</g>
<!-- Node1&#45;&gt;Node5 -->
<g id="edge5" class="edge"><title>Node1&#45;&gt;Node5</title>
<path fill="none" stroke="midnightblue" d="M282.394,-182.901C292.488,-174.25 301.825,-164.231 308.5,-153 326.875,-122.086 329.959,-79.6599 329.774,-52.9146"/>
<polygon fill="midnightblue" stroke="midnightblue" points="280.127,-180.234 274.559,-189.248 284.533,-185.673 280.127,-180.234"/>
</g>
<!-- Node4 -->
<g id="node4" class="node"><title>Node4</title>
<g id="a_node4"><a xlink:href="../../d1/df6/ITSMFT_2MFT_2workflow_2src_2RecoWorkflow_8cxx.html" target="_top" xlink:title="/home/travis/build\l/AliceO2Group/AliceO2\l/Detectors/ITSMFT/MFT\l/workflow/src/RecoWorkflow.cxx">
<polygon fill="none" stroke="black" points="73,-0.5 73,-52.5 234,-52.5 234,-0.5 73,-0.5"/>
<text text-anchor="start" x="81" y="-40.5" font-family="Helvetica,sans-Serif" font-size="10.00">/home/travis/build</text>
<text text-anchor="start" x="81" y="-29.5" font-family="Helvetica,sans-Serif" font-size="10.00">/AliceO2Group/AliceO2</text>
<text text-anchor="start" x="81" y="-18.5" font-family="Helvetica,sans-Serif" font-size="10.00">/Detectors/ITSMFT/MFT</text>
<text text-anchor="middle" x="153.5" y="-7.5" font-family="Helvetica,sans-Serif" font-size="10.00">/workflow/src/RecoWorkflow.cxx</text>
</a>
</g>
</g>
<!-- Node3&#45;&gt;Node4 -->
<g id="edge3" class="edge"><title>Node3&#45;&gt;Node4</title>
<path fill="none" stroke="midnightblue" d="M192.957,-81.1732C185.898,-71.5709 178.517,-61.5302 172.074,-52.7655"/>
<polygon fill="midnightblue" stroke="midnightblue" points="190.303,-83.4716 199.046,-89.4557 195.943,-79.3255 190.303,-83.4716"/>
</g>
<!-- Node3&#45;&gt;Node5 -->
<g id="edge4" class="edge"><title>Node3&#45;&gt;Node5</title>
<path fill="none" stroke="midnightblue" d="M264.4,-82.9139C276.107,-72.7926 288.521,-62.0614 299.274,-52.7655"/>
<polygon fill="midnightblue" stroke="midnightblue" points="262.108,-80.268 256.832,-89.4557 266.686,-85.5635 262.108,-80.268"/>
</g>
</g>
</svg>
