<?xml version="1.0" encoding="UTF-8" standalone="no"?>
<!DOCTYPE svg PUBLIC "-//W3C//DTD SVG 1.1//EN"
 "http://www.w3.org/Graphics/SVG/1.1/DTD/svg11.dtd">
<!-- Generated by graphviz version 2.38.0 (20140413.2041)
 -->
<!-- Title: o2::pmr::MessageResource Pages: 1 -->
<svg width="543pt" height="303pt"
 viewBox="0.00 0.00 543.00 303.00" xmlns="http://www.w3.org/2000/svg" xmlns:xlink="http://www.w3.org/1999/xlink">
<g id="graph0" class="graph" transform="scale(1 1) rotate(0) translate(4 299)">
<title>o2::pmr::MessageResource</title>
<!-- Node1 -->
<g id="node1" class="node"><title>Node1</title>
<polygon fill="#bfbfbf" stroke="black" points="234.5,-0.5 234.5,-189.5 371.5,-189.5 371.5,-0.5 234.5,-0.5"/>
<text text-anchor="middle" x="303" y="-177.5" font-family="Helvetica,sans-Serif" font-size="10.00">o2::pmr::MessageResource</text>
<polyline fill="none" stroke="black" points="234.5,-170.5 371.5,-170.5 "/>
<text text-anchor="middle" x="303" y="-158.5" font-family="Helvetica,sans-Serif" font-size="10.00"> </text>
<polyline fill="none" stroke="black" points="234.5,-151.5 371.5,-151.5 "/>
<text text-anchor="start" x="242.5" y="-139.5" font-family="Helvetica,sans-Serif" font-size="10.00">+ MessageResource()</text>
<text text-anchor="start" x="242.5" y="-128.5" font-family="Helvetica,sans-Serif" font-size="10.00">+ MessageResource()</text>
<text text-anchor="start" x="242.5" y="-117.5" font-family="Helvetica,sans-Serif" font-size="10.00">+ MessageResource()</text>
<text text-anchor="start" x="242.5" y="-106.5" font-family="Helvetica,sans-Serif" font-size="10.00">+ operator=()</text>
<text text-anchor="start" x="242.5" y="-95.5" font-family="Helvetica,sans-Serif" font-size="10.00">+ operator=()</text>
<text text-anchor="start" x="242.5" y="-84.5" font-family="Helvetica,sans-Serif" font-size="10.00">+ MessageResource()</text>
<text text-anchor="start" x="242.5" y="-73.5" font-family="Helvetica,sans-Serif" font-size="10.00">+ getMessage()</text>
<text text-anchor="start" x="242.5" y="-62.5" font-family="Helvetica,sans-Serif" font-size="10.00">+ setMessage()</text>
<text text-anchor="start" x="242.5" y="-51.5" font-family="Helvetica,sans-Serif" font-size="10.00">+ getTransportFactory()</text>
<text text-anchor="start" x="242.5" y="-40.5" font-family="Helvetica,sans-Serif" font-size="10.00">+ getNumberOfMessages()</text>
<text text-anchor="start" x="242.5" y="-29.5" font-family="Helvetica,sans-Serif" font-size="10.00"># do_allocate()</text>
<text text-anchor="start" x="242.5" y="-18.5" font-family="Helvetica,sans-Serif" font-size="10.00"># do_deallocate()</text>
<text text-anchor="start" x="242.5" y="-7.5" font-family="Helvetica,sans-Serif" font-size="10.00"># do_is_equal()</text>
</g>
<!-- Node2 -->
<g id="node2" class="node"><title>Node2</title>
<g id="a_node2"><a xlink:href="../../d0/d9f/classFairMQMemoryResource.html" target="_top" xlink:title="{FairMQMemoryResource\n||}">
<polygon fill="none" stroke="black" points="0,-237.5 0,-294.5 126,-294.5 126,-237.5 0,-237.5"/>
<text text-anchor="middle" x="63" y="-282.5" font-family="Helvetica,sans-Serif" font-size="10.00">FairMQMemoryResource</text>
<polyline fill="none" stroke="black" points="0,-275.5 126,-275.5 "/>
<text text-anchor="middle" x="63" y="-263.5" font-family="Helvetica,sans-Serif" font-size="10.00"> </text>
<polyline fill="none" stroke="black" points="0,-256.5 126,-256.5 "/>
<text text-anchor="middle" x="63" y="-244.5" font-family="Helvetica,sans-Serif" font-size="10.00"> </text>
</a>
</g>
</g>
<!-- Node2&#45;&gt;Node1 -->
<g id="edge1" class="edge"><title>Node2&#45;&gt;Node1</title>
<path fill="none" stroke="midnightblue" d="M110.334,-231.669C145.728,-206.746 194.649,-172.297 234.337,-144.35"/>
<polygon fill="none" stroke="midnightblue" points="108.255,-228.852 102.094,-237.471 112.286,-234.575 108.255,-228.852"/>
</g>
<!-- Node3 -->
<g id="node3" class="node"><title>Node3</title>
<polygon fill="none" stroke="#bfbfbf" points="144.5,-237.5 144.5,-294.5 277.5,-294.5 277.5,-237.5 144.5,-237.5"/>
<text text-anchor="middle" x="211" y="-282.5" font-family="Helvetica,sans-Serif" font-size="10.00">FairMQMemoryResource *</text>
<polyline fill="none" stroke="#bfbfbf" points="144.5,-275.5 277.5,-275.5 "/>
<text text-anchor="middle" x="211" y="-263.5" font-family="Helvetica,sans-Serif" font-size="10.00"> </text>
<polyline fill="none" stroke="#bfbfbf" points="144.5,-256.5 277.5,-256.5 "/>
<text text-anchor="middle" x="211" y="-244.5" font-family="Helvetica,sans-Serif" font-size="10.00"> </text>
</g>
<!-- Node3&#45;&gt;Node1 -->
<g id="edge2" class="edge"><title>Node3&#45;&gt;Node1</title>
<path fill="none" stroke="#404040" d="M224.782,-237.337C229.522,-227.978 234.917,-217.495 240,-208 241.355,-205.469 242.733,-202.91 244.128,-200.331"/>
<polygon fill="none" stroke="#404040" points="244.207,-200.185 243.563,-193.003 249.945,-189.646 250.589,-196.828 244.207,-200.185"/>
<text text-anchor="middle" x="270" y="-211" font-family="Helvetica,sans-Serif" font-size="10.00"> #mUpstream</text>
</g>
<!-- Node4 -->
<g id="node4" class="node"><title>Node4</title>
<polygon fill="none" stroke="#bfbfbf" points="295.5,-237.5 295.5,-294.5 330.5,-294.5 330.5,-237.5 295.5,-237.5"/>
<text text-anchor="middle" x="313" y="-282.5" font-family="Helvetica,sans-Serif" font-size="10.00">bool</text>
<polyline fill="none" stroke="#bfbfbf" points="295.5,-275.5 330.5,-275.5 "/>
<text text-anchor="middle" x="313" y="-263.5" font-family="Helvetica,sans-Serif" font-size="10.00"> </text>
<polyline fill="none" stroke="#bfbfbf" points="295.5,-256.5 330.5,-256.5 "/>
<text text-anchor="middle" x="313" y="-244.5" font-family="Helvetica,sans-Serif" font-size="10.00"> </text>
</g>
<!-- Node4&#45;&gt;Node1 -->
<g id="edge3" class="edge"><title>Node4&#45;&gt;Node1</title>
<path fill="none" stroke="#404040" d="M306.739,-237.393C305.613,-231.362 304.605,-224.991 304,-219 303.433,-213.386 302.972,-207.621 302.602,-201.795"/>
<polygon fill="none" stroke="#404040" points="302.601,-201.765 298.288,-195.986 301.964,-189.782 306.277,-195.561 302.601,-201.765"/>
<text text-anchor="middle" x="333.5" y="-211" font-family="Helvetica,sans-Serif" font-size="10.00"> #initialImport</text>
</g>
<!-- Node5 -->
<g id="node5" class="node"><title>Node5</title>
<polygon fill="none" stroke="#bfbfbf" points="364.5,-237.5 364.5,-294.5 405.5,-294.5 405.5,-237.5 364.5,-237.5"/>
<text text-anchor="middle" x="385" y="-282.5" font-family="Helvetica,sans-Serif" font-size="10.00">void *</text>
<polyline fill="none" stroke="#bfbfbf" points="364.5,-275.5 405.5,-275.5 "/>
<text text-anchor="middle" x="385" y="-263.5" font-family="Helvetica,sans-Serif" font-size="10.00"> </text>
<polyline fill="none" stroke="#bfbfbf" points="364.5,-256.5 405.5,-256.5 "/>
<text text-anchor="middle" x="385" y="-244.5" font-family="Helvetica,sans-Serif" font-size="10.00"> </text>
</g>
<!-- Node5&#45;&gt;Node1 -->
<g id="edge4" class="edge"><title>Node5&#45;&gt;Node1</title>
<path fill="none" stroke="#404040" d="M375.157,-237.461C371.574,-228.016 367.334,-217.449 363,-208 361.879,-205.556 360.729,-203.092 359.555,-200.613"/>
<polygon fill="none" stroke="#404040" points="359.493,-200.486 353.281,-196.826 354.27,-189.683 360.483,-193.343 359.493,-200.486"/>
<text text-anchor="middle" x="407" y="-211" font-family="Helvetica,sans-Serif" font-size="10.00"> #mMessageData</text>
</g>
<!-- Node6 -->
<g id="node6" class="node"><title>Node6</title>
<polygon fill="none" stroke="#bfbfbf" points="464.5,-237.5 464.5,-294.5 507.5,-294.5 507.5,-237.5 464.5,-237.5"/>
<text text-anchor="middle" x="486" y="-282.5" font-family="Helvetica,sans-Serif" font-size="10.00">size_t</text>
<polyline fill="none" stroke="#bfbfbf" points="464.5,-275.5 507.5,-275.5 "/>
<text text-anchor="middle" x="486" y="-263.5" font-family="Helvetica,sans-Serif" font-size="10.00"> </text>
<polyline fill="none" stroke="#bfbfbf" points="464.5,-256.5 507.5,-256.5 "/>
<text text-anchor="middle" x="486" y="-244.5" font-family="Helvetica,sans-Serif" font-size="10.00"> </text>
</g>
<!-- Node6&#45;&gt;Node1 -->
<g id="edge5" class="edge"><title>Node6&#45;&gt;Node1</title>
<path fill="none" stroke="#404040" d="M471.345,-237.494C465.416,-227.641 458.063,-216.804 450,-208 429.901,-186.055 405.07,-165.31 381.574,-147.776"/>
<polygon fill="none" stroke="#404040" points="381.281,-147.561 374.077,-147.238 371.604,-140.464 378.808,-140.787 381.281,-147.561"/>
<text text-anchor="middle" x="497" y="-211" font-family="Helvetica,sans-Serif" font-size="10.00"> #mMessageSize</text>
</g>
</g>
</svg>
