<?xml version="1.0" encoding="UTF-8" standalone="no"?>
<!DOCTYPE svg PUBLIC "-//W3C//DTD SVG 1.1//EN"
 "http://www.w3.org/Graphics/SVG/1.1/DTD/svg11.dtd">
<!-- Generated by graphviz version 2.38.0 (20140413.2041)
 -->
<!-- Title: sg_layout_desc Pages: 1 -->
<svg width="365pt" height="298pt"
 viewBox="0.00 0.00 365.00 298.00" xmlns="http://www.w3.org/2000/svg" xmlns:xlink="http://www.w3.org/1999/xlink">
<g id="graph0" class="graph" transform="scale(1 1) rotate(0) translate(4 294)">
<title>sg_layout_desc</title>
<!-- Node1 -->
<g id="node1" class="node"><title>Node1</title>
<polygon fill="#bfbfbf" stroke="black" points="150,-0.5 150,-57.5 235,-57.5 235,-0.5 150,-0.5"/>
<text text-anchor="middle" x="192.5" y="-45.5" font-family="Helvetica,sans-Serif" font-size="10.00">sg_layout_desc</text>
<polyline fill="none" stroke="black" points="150,-38.5 235,-38.5 "/>
<text text-anchor="middle" x="192.5" y="-26.5" font-family="Helvetica,sans-Serif" font-size="10.00"> </text>
<polyline fill="none" stroke="black" points="150,-19.5 235,-19.5 "/>
<text text-anchor="middle" x="192.5" y="-7.5" font-family="Helvetica,sans-Serif" font-size="10.00"> </text>
</g>
<!-- Node2 -->
<g id="node2" class="node"><title>Node2</title>
<g id="a_node2"><a xlink:href="../../d5/d83/structsg__vertex__attr__desc.html" target="_top" xlink:title="{sg_vertex_attr_desc\n||}">
<polygon fill="none" stroke="black" points="56,-105.5 56,-162.5 161,-162.5 161,-105.5 56,-105.5"/>
<text text-anchor="middle" x="108.5" y="-150.5" font-family="Helvetica,sans-Serif" font-size="10.00">sg_vertex_attr_desc</text>
<polyline fill="none" stroke="black" points="56,-143.5 161,-143.5 "/>
<text text-anchor="middle" x="108.5" y="-131.5" font-family="Helvetica,sans-Serif" font-size="10.00"> </text>
<polyline fill="none" stroke="black" points="56,-124.5 161,-124.5 "/>
<text text-anchor="middle" x="108.5" y="-112.5" font-family="Helvetica,sans-Serif" font-size="10.00"> </text>
</a>
</g>
</g>
<!-- Node2&#45;&gt;Node1 -->
<g id="edge1" class="edge"><title>Node2&#45;&gt;Node1</title>
<path fill="none" stroke="#404040" d="M131.01,-105.398C140.614,-93.6215 151.966,-79.703 162.284,-67.0505"/>
<polygon fill="none" stroke="#404040" points="162.343,-66.9779 163.035,-59.8 169.927,-57.6783 169.235,-64.8561 162.343,-66.9779"/>
<text text-anchor="middle" x="168" y="-79" font-family="Helvetica,sans-Serif" font-size="10.00"> +attrs</text>
</g>
<!-- Node3 -->
<g id="node3" class="node"><title>Node3</title>
<polygon fill="none" stroke="#bfbfbf" points="0,-232.5 0,-289.5 35,-289.5 35,-232.5 0,-232.5"/>
<text text-anchor="middle" x="17.5" y="-277.5" font-family="Helvetica,sans-Serif" font-size="10.00">char</text>
<polyline fill="none" stroke="#bfbfbf" points="0,-270.5 35,-270.5 "/>
<text text-anchor="middle" x="17.5" y="-258.5" font-family="Helvetica,sans-Serif" font-size="10.00"> </text>
<polyline fill="none" stroke="#bfbfbf" points="0,-251.5 35,-251.5 "/>
<text text-anchor="middle" x="17.5" y="-239.5" font-family="Helvetica,sans-Serif" font-size="10.00"> </text>
</g>
<!-- Node3&#45;&gt;Node2 -->
<g id="edge2" class="edge"><title>Node3&#45;&gt;Node2</title>
<path fill="none" stroke="#404040" d="M20.7831,-232.333C23.8042,-216.146 29.5644,-196.009 40.5,-181 43.1308,-177.389 46.1367,-173.973 49.3865,-170.758"/>
<polygon fill="none" stroke="#404040" points="49.4815,-170.674 51.3241,-163.702 58.4683,-162.722 56.6257,-169.694 49.4815,-170.674"/>
<text text-anchor="middle" x="68" y="-200.5" font-family="Helvetica,sans-Serif" font-size="10.00"> +name</text>
<text text-anchor="middle" x="68" y="-189.5" font-family="Helvetica,sans-Serif" font-size="10.00">+sem_name</text>
</g>
<!-- Node4 -->
<g id="node4" class="node"><title>Node4</title>
<polygon fill="none" stroke="#bfbfbf" points="53.5,-232.5 53.5,-289.5 145.5,-289.5 145.5,-232.5 53.5,-232.5"/>
<text text-anchor="middle" x="99.5" y="-277.5" font-family="Helvetica,sans-Serif" font-size="10.00">sg_vertex_format</text>
<polyline fill="none" stroke="#bfbfbf" points="53.5,-270.5 145.5,-270.5 "/>
<text text-anchor="middle" x="99.5" y="-258.5" font-family="Helvetica,sans-Serif" font-size="10.00"> </text>
<polyline fill="none" stroke="#bfbfbf" points="53.5,-251.5 145.5,-251.5 "/>
<text text-anchor="middle" x="99.5" y="-239.5" font-family="Helvetica,sans-Serif" font-size="10.00"> </text>
</g>
<!-- Node4&#45;&gt;Node2 -->
<g id="edge3" class="edge"><title>Node4&#45;&gt;Node2</title>
<path fill="none" stroke="#404040" d="M98.7714,-232.157C98.6466,-217 98.9303,-197.936 100.5,-181 100.69,-178.947 100.922,-176.848 101.184,-174.732"/>
<polygon fill="none" stroke="#404040" points="101.217,-174.508 98.1301,-167.991 102.958,-162.635 106.045,-169.152 101.217,-174.508"/>
<text text-anchor="middle" x="119" y="-195" font-family="Helvetica,sans-Serif" font-size="10.00"> +format</text>
</g>
<!-- Node5 -->
<g id="node5" class="node"><title>Node5</title>
<polygon fill="none" stroke="#bfbfbf" points="195,-232.5 195,-289.5 224,-289.5 224,-232.5 195,-232.5"/>
<text text-anchor="middle" x="209.5" y="-277.5" font-family="Helvetica,sans-Serif" font-size="10.00">int</text>
<polyline fill="none" stroke="#bfbfbf" points="195,-270.5 224,-270.5 "/>
<text text-anchor="middle" x="209.5" y="-258.5" font-family="Helvetica,sans-Serif" font-size="10.00"> </text>
<polyline fill="none" stroke="#bfbfbf" points="195,-251.5 224,-251.5 "/>
<text text-anchor="middle" x="209.5" y="-239.5" font-family="Helvetica,sans-Serif" font-size="10.00"> </text>
</g>
<!-- Node5&#45;&gt;Node2 -->
<g id="edge4" class="edge"><title>Node5&#45;&gt;Node2</title>
<path fill="none" stroke="#404040" d="M194.819,-249.424C183.46,-240.759 167.812,-227.728 156.5,-214 145.738,-200.939 146.237,-195.494 137.5,-181 135.922,-178.382 134.28,-175.691 132.614,-172.987"/>
<polygon fill="none" stroke="#404040" points="132.503,-172.808 125.936,-169.826 126.163,-162.619 132.729,-165.6 132.503,-172.808"/>
<text text-anchor="middle" x="188" y="-206" font-family="Helvetica,sans-Serif" font-size="10.00"> +buffer_index</text>
<text text-anchor="middle" x="188" y="-195" font-family="Helvetica,sans-Serif" font-size="10.00">+offset</text>
<text text-anchor="middle" x="188" y="-184" font-family="Helvetica,sans-Serif" font-size="10.00">+sem_index</text>
</g>
<!-- Node6 -->
<g id="node6" class="node"><title>Node6</title>
<g id="a_node6"><a xlink:href="../../dc/da3/structsg__buffer__layout__desc.html" target="_top" xlink:title="{sg_buffer_layout_desc\n||}">
<polygon fill="none" stroke="black" points="188,-105.5 188,-162.5 303,-162.5 303,-105.5 188,-105.5"/>
<text text-anchor="middle" x="245.5" y="-150.5" font-family="Helvetica,sans-Serif" font-size="10.00">sg_buffer_layout_desc</text>
<polyline fill="none" stroke="black" points="188,-143.5 303,-143.5 "/>
<text text-anchor="middle" x="245.5" y="-131.5" font-family="Helvetica,sans-Serif" font-size="10.00"> </text>
<polyline fill="none" stroke="black" points="188,-124.5 303,-124.5 "/>
<text text-anchor="middle" x="245.5" y="-112.5" font-family="Helvetica,sans-Serif" font-size="10.00"> </text>
</a>
</g>
</g>
<!-- Node5&#45;&gt;Node6 -->
<g id="edge6" class="edge"><title>Node5&#45;&gt;Node6</title>
<path fill="none" stroke="#404040" d="M218.047,-232.302C219.873,-226.276 221.772,-219.931 223.5,-214 227.242,-201.156 231.202,-187.096 234.714,-174.445"/>
<polygon fill="none" stroke="#404040" points="234.727,-174.399 232.47,-167.55 237.924,-162.832 240.181,-169.681 234.727,-174.399"/>
<text text-anchor="middle" x="257" y="-200.5" font-family="Helvetica,sans-Serif" font-size="10.00"> +stride</text>
<text text-anchor="middle" x="257" y="-189.5" font-family="Helvetica,sans-Serif" font-size="10.00">+step_rate</text>
</g>
<!-- Node6&#45;&gt;Node1 -->
<g id="edge5" class="edge"><title>Node6&#45;&gt;Node1</title>
<path fill="none" stroke="#404040" d="M231.297,-105.398C225.475,-94.0833 218.635,-80.7913 212.334,-68.5447"/>
<polygon fill="none" stroke="#404040" points="212.233,-68.3486 205.931,-64.8436 206.742,-57.6783 213.044,-61.1832 212.233,-68.3486"/>
<text text-anchor="middle" x="241.5" y="-79" font-family="Helvetica,sans-Serif" font-size="10.00"> +buffers</text>
</g>
<!-- Node7 -->
<g id="node7" class="node"><title>Node7</title>
<polygon fill="none" stroke="#bfbfbf" points="274,-232.5 274,-289.5 357,-289.5 357,-232.5 274,-232.5"/>
<text text-anchor="middle" x="315.5" y="-277.5" font-family="Helvetica,sans-Serif" font-size="10.00">sg_vertex_step</text>
<polyline fill="none" stroke="#bfbfbf" points="274,-270.5 357,-270.5 "/>
<text text-anchor="middle" x="315.5" y="-258.5" font-family="Helvetica,sans-Serif" font-size="10.00"> </text>
<polyline fill="none" stroke="#bfbfbf" points="274,-251.5 357,-251.5 "/>
<text text-anchor="middle" x="315.5" y="-239.5" font-family="Helvetica,sans-Serif" font-size="10.00"> </text>
</g>
<!-- Node7&#45;&gt;Node6 -->
<g id="edge7" class="edge"><title>Node7&#45;&gt;Node6</title>
<path fill="none" stroke="#404040" d="M307.129,-232.273C301.802,-216.631 294.098,-197.063 284.5,-181 282.738,-178.051 280.787,-175.102 278.724,-172.202"/>
<polygon fill="none" stroke="#404040" points="278.675,-172.138 271.855,-169.796 271.393,-162.599 278.214,-164.941 278.675,-172.138"/>
<text text-anchor="middle" x="326.5" y="-195" font-family="Helvetica,sans-Serif" font-size="10.00"> +step_func</text>
</g>
</g>
</svg>
