<?xml version="1.0" encoding="UTF-8" standalone="no"?>
<!DOCTYPE svg PUBLIC "-//W3C//DTD SVG 1.1//EN"
 "http://www.w3.org/Graphics/SVG/1.1/DTD/svg11.dtd">
<!-- Generated by graphviz version 2.38.0 (20140413.2041)
 -->
<!-- Title: o2::base::MatLayerCyl Pages: 1 -->
<svg width="516pt" height="933pt"
 viewBox="0.00 0.00 516.00 933.00" xmlns="http://www.w3.org/2000/svg" xmlns:xlink="http://www.w3.org/1999/xlink">
<g id="graph0" class="graph" transform="scale(1 1) rotate(0) translate(4 929)">
<title>o2::base::MatLayerCyl</title>
<!-- Node1 -->
<g id="node1" class="node"><title>Node1</title>
<polygon fill="#bfbfbf" stroke="black" points="164,-0.5 164,-629.5 304,-629.5 304,-0.5 164,-0.5"/>
<text text-anchor="middle" x="234" y="-617.5" font-family="Helvetica,sans-Serif" font-size="10.00">o2::base::MatLayerCyl</text>
<polyline fill="none" stroke="black" points="164,-610.5 304,-610.5 "/>
<text text-anchor="middle" x="234" y="-598.5" font-family="Helvetica,sans-Serif" font-size="10.00"> </text>
<polyline fill="none" stroke="black" points="164,-591.5 304,-591.5 "/>
<text text-anchor="start" x="172" y="-579.5" font-family="Helvetica,sans-Serif" font-size="10.00">+ MatLayerCyl()</text>
<text text-anchor="start" x="172" y="-568.5" font-family="Helvetica,sans-Serif" font-size="10.00">+ MatLayerCyl()</text>
<text text-anchor="start" x="172" y="-557.5" font-family="Helvetica,sans-Serif" font-size="10.00">+ ~MatLayerCyl()</text>
<text text-anchor="start" x="172" y="-546.5" font-family="Helvetica,sans-Serif" font-size="10.00">+ MatLayerCyl()</text>
<text text-anchor="start" x="172" y="-535.5" font-family="Helvetica,sans-Serif" font-size="10.00">+ initSegmentation()</text>
<text text-anchor="start" x="172" y="-524.5" font-family="Helvetica,sans-Serif" font-size="10.00">+ initSegmentation()</text>
<text text-anchor="start" x="172" y="-513.5" font-family="Helvetica,sans-Serif" font-size="10.00">+ populateFromTGeo()</text>
<text text-anchor="start" x="172" y="-502.5" font-family="Helvetica,sans-Serif" font-size="10.00">+ populateFromTGeo()</text>
<text text-anchor="start" x="172" y="-491.5" font-family="Helvetica,sans-Serif" font-size="10.00">+ print()</text>
<text text-anchor="start" x="172" y="-480.5" font-family="Helvetica,sans-Serif" font-size="10.00">+ GPUd()</text>
<text text-anchor="start" x="172" y="-469.5" font-family="Helvetica,sans-Serif" font-size="10.00">+ GPUd()</text>
<text text-anchor="start" x="172" y="-458.5" font-family="Helvetica,sans-Serif" font-size="10.00">+ GPUd()</text>
<text text-anchor="start" x="172" y="-447.5" font-family="Helvetica,sans-Serif" font-size="10.00">+ GPUd()</text>
<text text-anchor="start" x="172" y="-436.5" font-family="Helvetica,sans-Serif" font-size="10.00">+ GPUd()</text>
<text text-anchor="start" x="172" y="-425.5" font-family="Helvetica,sans-Serif" font-size="10.00">+ GPUd()</text>
<text text-anchor="start" x="172" y="-414.5" font-family="Helvetica,sans-Serif" font-size="10.00">+ GPUd()</text>
<text text-anchor="start" x="172" y="-403.5" font-family="Helvetica,sans-Serif" font-size="10.00">+ GPUd()</text>
<text text-anchor="start" x="172" y="-392.5" font-family="Helvetica,sans-Serif" font-size="10.00">+ GPUd()</text>
<text text-anchor="start" x="172" y="-381.5" font-family="Helvetica,sans-Serif" font-size="10.00">+ GPUd()</text>
<text text-anchor="start" x="172" y="-370.5" font-family="Helvetica,sans-Serif" font-size="10.00">+ GPUd()</text>
<text text-anchor="start" x="172" y="-359.5" font-family="Helvetica,sans-Serif" font-size="10.00">+ GPUd()</text>
<text text-anchor="start" x="172" y="-348.5" font-family="Helvetica,sans-Serif" font-size="10.00">+ GPUd()</text>
<text text-anchor="start" x="172" y="-337.5" font-family="Helvetica,sans-Serif" font-size="10.00">+ GPUd()</text>
<text text-anchor="start" x="172" y="-326.5" font-family="Helvetica,sans-Serif" font-size="10.00">+ GPUd()</text>
<text text-anchor="start" x="172" y="-315.5" font-family="Helvetica,sans-Serif" font-size="10.00">+ GPUd()</text>
<text text-anchor="start" x="172" y="-304.5" font-family="Helvetica,sans-Serif" font-size="10.00">+ GPUd()</text>
<text text-anchor="start" x="172" y="-293.5" font-family="Helvetica,sans-Serif" font-size="10.00">+ GPUd()</text>
<text text-anchor="start" x="172" y="-282.5" font-family="Helvetica,sans-Serif" font-size="10.00">+ GPUd()</text>
<text text-anchor="start" x="172" y="-271.5" font-family="Helvetica,sans-Serif" font-size="10.00">+ GPUd()</text>
<text text-anchor="start" x="172" y="-260.5" font-family="Helvetica,sans-Serif" font-size="10.00">+ GPUd()</text>
<text text-anchor="start" x="172" y="-249.5" font-family="Helvetica,sans-Serif" font-size="10.00">+ GPUd()</text>
<text text-anchor="start" x="172" y="-238.5" font-family="Helvetica,sans-Serif" font-size="10.00">+ GPUd()</text>
<text text-anchor="start" x="172" y="-227.5" font-family="Helvetica,sans-Serif" font-size="10.00">+ GPUd()</text>
<text text-anchor="start" x="172" y="-216.5" font-family="Helvetica,sans-Serif" font-size="10.00">+ getMeanRMS()</text>
<text text-anchor="start" x="172" y="-205.5" font-family="Helvetica,sans-Serif" font-size="10.00">+ cellsDiffer()</text>
<text text-anchor="start" x="172" y="-194.5" font-family="Helvetica,sans-Serif" font-size="10.00">+ canMergePhiSlices()</text>
<text text-anchor="start" x="172" y="-183.5" font-family="Helvetica,sans-Serif" font-size="10.00">+ optimizePhiSlices()</text>
<text text-anchor="start" x="172" y="-172.5" font-family="Helvetica,sans-Serif" font-size="10.00">+ flatten()</text>
<text text-anchor="start" x="172" y="-161.5" font-family="Helvetica,sans-Serif" font-size="10.00">+ estimateFlatBufferSize()</text>
<text text-anchor="start" x="172" y="-150.5" font-family="Helvetica,sans-Serif" font-size="10.00">+ fixPointers()</text>
<text text-anchor="start" x="172" y="-139.5" font-family="Helvetica,sans-Serif" font-size="10.00">+ setFlatPointer()</text>
<text text-anchor="start" x="172" y="-128.5" font-family="Helvetica,sans-Serif" font-size="10.00">+ estimateFlatBufferSize()</text>
<text text-anchor="start" x="172" y="-117.5" font-family="Helvetica,sans-Serif" font-size="10.00">+ getClassAlignmentBytes()</text>
<text text-anchor="start" x="172" y="-106.5" font-family="Helvetica,sans-Serif" font-size="10.00">+ getBufferAlignmentBytes()</text>
<text text-anchor="start" x="172" y="-95.5" font-family="Helvetica,sans-Serif" font-size="10.00"># GPUd()</text>
<text text-anchor="start" x="172" y="-84.5" font-family="Helvetica,sans-Serif" font-size="10.00"># GPUd()</text>
<text text-anchor="start" x="172" y="-73.5" font-family="Helvetica,sans-Serif" font-size="10.00"># GPUd()</text>
<text text-anchor="start" x="172" y="-62.5" font-family="Helvetica,sans-Serif" font-size="10.00"># GPUd()</text>
<text text-anchor="start" x="172" y="-51.5" font-family="Helvetica,sans-Serif" font-size="10.00"># GPUd()</text>
<text text-anchor="start" x="172" y="-40.5" font-family="Helvetica,sans-Serif" font-size="10.00"># GPUd()</text>
<text text-anchor="start" x="172" y="-29.5" font-family="Helvetica,sans-Serif" font-size="10.00"># GPUd()</text>
<text text-anchor="start" x="172" y="-18.5" font-family="Helvetica,sans-Serif" font-size="10.00"># while()</text>
<text text-anchor="start" x="172" y="-7.5" font-family="Helvetica,sans-Serif" font-size="10.00"># ClassDefNV()</text>
</g>
<!-- Node2 -->
<g id="node2" class="node"><title>Node2</title>
<g id="a_node2"><a xlink:href="../../d8/db1/classo2_1_1gpu_1_1FlatObject.html" target="_top" xlink:title="{o2::gpu::FlatObject\n||}">
<polygon fill="none" stroke="black" points="0,-731 0,-788 100,-788 100,-731 0,-731"/>
<text text-anchor="middle" x="50" y="-776" font-family="Helvetica,sans-Serif" font-size="10.00">o2::gpu::FlatObject</text>
<polyline fill="none" stroke="black" points="0,-769 100,-769 "/>
<text text-anchor="middle" x="50" y="-757" font-family="Helvetica,sans-Serif" font-size="10.00"> </text>
<polyline fill="none" stroke="black" points="0,-750 100,-750 "/>
<text text-anchor="middle" x="50" y="-738" font-family="Helvetica,sans-Serif" font-size="10.00"> </text>
</a>
</g>
</g>
<!-- Node2&#45;&gt;Node1 -->
<g id="edge1" class="edge"><title>Node2&#45;&gt;Node1</title>
<path fill="none" stroke="midnightblue" d="M65.4555,-721.331C87.1282,-669.211 127.94,-571.062 163.975,-484.402"/>
<polygon fill="none" stroke="midnightblue" points="62.1178,-720.242 61.51,-730.82 68.5813,-722.93 62.1178,-720.242"/>
</g>
<!-- Node3 -->
<g id="node3" class="node"><title>Node3</title>
<polygon fill="none" stroke="#bfbfbf" points="118.5,-731 118.5,-788 159.5,-788 159.5,-731 118.5,-731"/>
<text text-anchor="middle" x="139" y="-776" font-family="Helvetica,sans-Serif" font-size="10.00">return</text>
<polyline fill="none" stroke="#bfbfbf" points="118.5,-769 159.5,-769 "/>
<text text-anchor="middle" x="139" y="-757" font-family="Helvetica,sans-Serif" font-size="10.00"> </text>
<polyline fill="none" stroke="#bfbfbf" points="118.5,-750 159.5,-750 "/>
<text text-anchor="middle" x="139" y="-738" font-family="Helvetica,sans-Serif" font-size="10.00"> </text>
</g>
<!-- Node3&#45;&gt;Node1 -->
<g id="edge2" class="edge"><title>Node3&#45;&gt;Node1</title>
<path fill="none" stroke="#404040" d="M144.943,-730.82C149.469,-709.735 156.245,-678.176 164.075,-641.703"/>
<polygon fill="none" stroke="#404040" points="164.134,-641.428 161.483,-634.722 166.653,-629.696 169.304,-636.401 164.134,-641.428"/>
<text text-anchor="middle" x="171.5" y="-667.5" font-family="Helvetica,sans-Serif" font-size="10.00"> #dir</text>
</g>
<!-- Node4 -->
<g id="node4" class="node"><title>Node4</title>
<g id="a_node4"><a xlink:href="../../d4/dc3/classfloat.html" target="_top" xlink:title="{float\n||}">
<polygon fill="none" stroke="black" points="201.5,-867.5 201.5,-924.5 236.5,-924.5 236.5,-867.5 201.5,-867.5"/>
<text text-anchor="middle" x="219" y="-912.5" font-family="Helvetica,sans-Serif" font-size="10.00">float</text>
<polyline fill="none" stroke="black" points="201.5,-905.5 236.5,-905.5 "/>
<text text-anchor="middle" x="219" y="-893.5" font-family="Helvetica,sans-Serif" font-size="10.00"> </text>
<polyline fill="none" stroke="black" points="201.5,-886.5 236.5,-886.5 "/>
<text text-anchor="middle" x="219" y="-874.5" font-family="Helvetica,sans-Serif" font-size="10.00"> </text>
</a>
</g>
</g>
<!-- Node4&#45;&gt;Node1 -->
<g id="edge3" class="edge"><title>Node4&#45;&gt;Node1</title>
<path fill="none" stroke="#404040" d="M213.316,-867.253C210.17,-850.472 206.585,-828.601 205,-809 200.638,-755.059 200.19,-697.748 201.991,-642.007"/>
<polygon fill="none" stroke="#404040" points="202,-641.757 198.214,-635.619 202.423,-629.764 206.209,-635.901 202,-641.757"/>
<text text-anchor="middle" x="232" y="-801" font-family="Helvetica,sans-Serif" font-size="10.00"> #mSliceSin</text>
<text text-anchor="middle" x="232" y="-790" font-family="Helvetica,sans-Serif" font-size="10.00">#mDPhi</text>
<text text-anchor="middle" x="232" y="-779" font-family="Helvetica,sans-Serif" font-size="10.00">#mDZInv</text>
<text text-anchor="middle" x="232" y="-768" font-family="Helvetica,sans-Serif" font-size="10.00">#mZHalf</text>
<text text-anchor="middle" x="232" y="-757" font-family="Helvetica,sans-Serif" font-size="10.00">#mDPhiInv</text>
<text text-anchor="middle" x="232" y="-746" font-family="Helvetica,sans-Serif" font-size="10.00">#mRMin2</text>
<text text-anchor="middle" x="232" y="-735" font-family="Helvetica,sans-Serif" font-size="10.00">#mDZ</text>
<text text-anchor="middle" x="232" y="-724" font-family="Helvetica,sans-Serif" font-size="10.00">#mRMax2</text>
<text text-anchor="middle" x="232" y="-713" font-family="Helvetica,sans-Serif" font-size="10.00">#mSliceCos</text>
</g>
<!-- Node7 -->
<g id="node7" class="node"><title>Node7</title>
<g id="a_node7"><a xlink:href="../../dd/dcd/structo2_1_1base_1_1MatCell.html" target="_top" xlink:title="{o2::base::MatCell\n||+ GPUd()\l+ GPUdDefault()\l+ GPUd()\l+ ClassDefNV()\l}">
<polygon fill="none" stroke="black" points="268,-714.5 268,-804.5 362,-804.5 362,-714.5 268,-714.5"/>
<text text-anchor="middle" x="315" y="-792.5" font-family="Helvetica,sans-Serif" font-size="10.00">o2::base::MatCell</text>
<polyline fill="none" stroke="black" points="268,-785.5 362,-785.5 "/>
<text text-anchor="middle" x="315" y="-773.5" font-family="Helvetica,sans-Serif" font-size="10.00"> </text>
<polyline fill="none" stroke="black" points="268,-766.5 362,-766.5 "/>
<text text-anchor="start" x="276" y="-754.5" font-family="Helvetica,sans-Serif" font-size="10.00">+ GPUd()</text>
<text text-anchor="start" x="276" y="-743.5" font-family="Helvetica,sans-Serif" font-size="10.00">+ GPUdDefault()</text>
<text text-anchor="start" x="276" y="-732.5" font-family="Helvetica,sans-Serif" font-size="10.00">+ GPUd()</text>
<text text-anchor="start" x="276" y="-721.5" font-family="Helvetica,sans-Serif" font-size="10.00">+ ClassDefNV()</text>
</a>
</g>
</g>
<!-- Node4&#45;&gt;Node7 -->
<g id="edge7" class="edge"><title>Node4&#45;&gt;Node7</title>
<path fill="none" stroke="#404040" d="M236.608,-870.331C247.763,-854.702 262.638,-833.861 276.431,-814.536"/>
<polygon fill="none" stroke="#404040" points="276.549,-814.372 276.779,-807.164 283.52,-804.604 283.29,-811.812 276.549,-814.372"/>
<text text-anchor="middle" x="294.5" y="-841" font-family="Helvetica,sans-Serif" font-size="10.00"> +meanRho</text>
<text text-anchor="middle" x="294.5" y="-830" font-family="Helvetica,sans-Serif" font-size="10.00">+meanX2X0</text>
</g>
<!-- Node5 -->
<g id="node5" class="node"><title>Node5</title>
<g id="a_node5"><a xlink:href="../../dc/d10/classshort.html" target="_top" xlink:title="{short\n||}">
<polygon fill="none" stroke="black" points="451,-731 451,-788 489,-788 489,-731 451,-731"/>
<text text-anchor="middle" x="470" y="-776" font-family="Helvetica,sans-Serif" font-size="10.00">short</text>
<polyline fill="none" stroke="black" points="451,-769 489,-769 "/>
<text text-anchor="middle" x="470" y="-757" font-family="Helvetica,sans-Serif" font-size="10.00"> </text>
<polyline fill="none" stroke="black" points="451,-750 489,-750 "/>
<text text-anchor="middle" x="470" y="-738" font-family="Helvetica,sans-Serif" font-size="10.00"> </text>
</a>
</g>
</g>
<!-- Node5&#45;&gt;Node1 -->
<g id="edge4" class="edge"><title>Node5&#45;&gt;Node1</title>
<path fill="none" stroke="#404040" d="M455.527,-730.763C443.834,-708.394 426.926,-676.135 412,-648 378.674,-585.181 341.547,-515.832 309.858,-456.832"/>
<polygon fill="none" stroke="#404040" points="309.686,-456.511 303.323,-453.119 304.007,-445.94 310.37,-449.333 309.686,-456.511"/>
<text text-anchor="middle" x="471.5" y="-684" font-family="Helvetica,sans-Serif" font-size="10.00"> #mPhiBin2Slice</text>
<text text-anchor="middle" x="471.5" y="-673" font-family="Helvetica,sans-Serif" font-size="10.00">#mNZBins</text>
<text text-anchor="middle" x="471.5" y="-662" font-family="Helvetica,sans-Serif" font-size="10.00">#mNPhiSlices</text>
<text text-anchor="middle" x="471.5" y="-651" font-family="Helvetica,sans-Serif" font-size="10.00">#mNPhiBins</text>
</g>
<!-- Node6 -->
<g id="node6" class="node"><title>Node6</title>
<polygon fill="none" stroke="#bfbfbf" points="345.5,-867.5 345.5,-924.5 374.5,-924.5 374.5,-867.5 345.5,-867.5"/>
<text text-anchor="middle" x="360" y="-912.5" font-family="Helvetica,sans-Serif" font-size="10.00">int</text>
<polyline fill="none" stroke="#bfbfbf" points="345.5,-905.5 374.5,-905.5 "/>
<text text-anchor="middle" x="360" y="-893.5" font-family="Helvetica,sans-Serif" font-size="10.00"> </text>
<polyline fill="none" stroke="#bfbfbf" points="345.5,-886.5 374.5,-886.5 "/>
<text text-anchor="middle" x="360" y="-874.5" font-family="Helvetica,sans-Serif" font-size="10.00"> </text>
</g>
<!-- Node6&#45;&gt;Node1 -->
<g id="edge5" class="edge"><title>Node6&#45;&gt;Node1</title>
<path fill="none" stroke="#404040" d="M374.752,-871.991C378.53,-864.897 382.069,-856.874 384,-849 391.755,-817.371 394.083,-811.958 371,-710 355.349,-640.87 331.64,-567.009 308.323,-502.139"/>
<polygon fill="none" stroke="#404040" points="308.214,-501.838 302.41,-497.558 304.129,-490.555 309.932,-494.835 308.214,-501.838"/>
<text text-anchor="middle" x="407.5" y="-768" font-family="Helvetica,sans-Serif" font-size="10.00"> +const</text>
<text text-anchor="middle" x="407.5" y="-757" font-family="Helvetica,sans-Serif" font-size="10.00">+binMin</text>
<text text-anchor="middle" x="407.5" y="-746" font-family="Helvetica,sans-Serif" font-size="10.00">#const</text>
</g>
<!-- Node6&#45;&gt;Node7 -->
<g id="edge8" class="edge"><title>Node6&#45;&gt;Node7</title>
<path fill="none" stroke="#404040" d="M345.268,-873.283C340.771,-865.846 336.179,-857.302 333,-849 329.047,-838.677 325.906,-827.328 323.43,-816.301"/>
<polygon fill="none" stroke="#404040" points="323.425,-816.277 318.294,-811.211 320.997,-804.525 326.128,-809.592 323.425,-816.277"/>
<text text-anchor="middle" x="358.5" y="-835.5" font-family="Helvetica,sans-Serif" font-size="10.00"> +NParams</text>
</g>
<!-- Node7&#45;&gt;Node1 -->
<g id="edge6" class="edge"><title>Node7&#45;&gt;Node1</title>
<path fill="none" stroke="#404040" d="M306.937,-714.454C303.348,-694.848 298.779,-669.884 293.682,-642.041"/>
<polygon fill="none" stroke="#404040" points="293.628,-641.743 288.613,-636.562 291.467,-629.94 296.482,-635.121 293.628,-641.743"/>
<text text-anchor="middle" x="322" y="-667.5" font-family="Helvetica,sans-Serif" font-size="10.00"> #mCells</text>
</g>
</g>
</svg>
