<?xml version="1.0" encoding="UTF-8" standalone="no"?>
<!DOCTYPE svg PUBLIC "-//W3C//DTD SVG 1.1//EN"
 "http://www.w3.org/Graphics/SVG/1.1/DTD/svg11.dtd">
<!-- Generated by graphviz version 2.38.0 (20140413.2041)
 -->
<!-- Title: o2::algorithm::StaticSequenceAllocator Pages: 1 -->
<svg width="211pt" height="204pt"
 viewBox="0.00 0.00 211.00 204.00" xmlns="http://www.w3.org/2000/svg" xmlns:xlink="http://www.w3.org/1999/xlink">
<g id="graph0" class="graph" transform="scale(1 1) rotate(0) translate(4 200)">
<title>o2::algorithm::StaticSequenceAllocator</title>
<!-- Node1 -->
<g id="node1" class="node"><title>Node1</title>
<polygon fill="#bfbfbf" stroke="black" points="43,-0.5 43,-90.5 191,-90.5 191,-0.5 43,-0.5"/>
<text text-anchor="start" x="51" y="-78.5" font-family="Helvetica,sans-Serif" font-size="10.00">o2::algorithm::StaticSequence</text>
<text text-anchor="middle" x="117" y="-67.5" font-family="Helvetica,sans-Serif" font-size="10.00">Allocator</text>
<polyline fill="none" stroke="black" points="43,-60.5 191,-60.5 "/>
<text text-anchor="middle" x="117" y="-48.5" font-family="Helvetica,sans-Serif" font-size="10.00"> </text>
<polyline fill="none" stroke="black" points="43,-41.5 191,-41.5 "/>
<text text-anchor="start" x="51" y="-29.5" font-family="Helvetica,sans-Serif" font-size="10.00">+ size()</text>
<text text-anchor="start" x="51" y="-18.5" font-family="Helvetica,sans-Serif" font-size="10.00">+ StaticSequenceAllocator()</text>
<text text-anchor="start" x="51" y="-7.5" font-family="Helvetica,sans-Serif" font-size="10.00">+ StaticSequenceAllocator()</text>
</g>
<!-- Node2 -->
<g id="node2" class="node"><title>Node2</title>
<polygon fill="none" stroke="#bfbfbf" points="0,-138.5 0,-195.5 130,-195.5 130,-138.5 0,-138.5"/>
<text text-anchor="middle" x="65" y="-183.5" font-family="Helvetica,sans-Serif" font-size="10.00">unique_ptr&lt; value_type[]&gt;</text>
<polyline fill="none" stroke="#bfbfbf" points="0,-176.5 130,-176.5 "/>
<text text-anchor="middle" x="65" y="-164.5" font-family="Helvetica,sans-Serif" font-size="10.00"> </text>
<polyline fill="none" stroke="#bfbfbf" points="0,-157.5 130,-157.5 "/>
<text text-anchor="middle" x="65" y="-145.5" font-family="Helvetica,sans-Serif" font-size="10.00"> </text>
</g>
<!-- Node2&#45;&gt;Node1 -->
<g id="edge1" class="edge"><title>Node2&#45;&gt;Node1</title>
<path fill="none" stroke="#404040" d="M77.0605,-138.284C81.7466,-127.515 87.2903,-114.775 92.7324,-102.269"/>
<polygon fill="none" stroke="#404040" points="92.8859,-101.916 91.6122,-94.8181 97.6741,-90.9125 98.9478,-98.0102 92.8859,-101.916"/>
<text text-anchor="middle" x="107" y="-112" font-family="Helvetica,sans-Serif" font-size="10.00"> +buffer</text>
</g>
<!-- Node3 -->
<g id="node3" class="node"><title>Node3</title>
<g id="a_node3"><a xlink:href="../../dd/de2/classsize__t.html" target="_top" xlink:title="{size_t\n||}">
<polygon fill="none" stroke="black" points="148.5,-138.5 148.5,-195.5 191.5,-195.5 191.5,-138.5 148.5,-138.5"/>
<text text-anchor="middle" x="170" y="-183.5" font-family="Helvetica,sans-Serif" font-size="10.00">size_t</text>
<polyline fill="none" stroke="black" points="148.5,-176.5 191.5,-176.5 "/>
<text text-anchor="middle" x="170" y="-164.5" font-family="Helvetica,sans-Serif" font-size="10.00"> </text>
<polyline fill="none" stroke="black" points="148.5,-157.5 191.5,-157.5 "/>
<text text-anchor="middle" x="170" y="-145.5" font-family="Helvetica,sans-Serif" font-size="10.00"> </text>
</a>
</g>
</g>
<!-- Node3&#45;&gt;Node1 -->
<g id="edge2" class="edge"><title>Node3&#45;&gt;Node1</title>
<path fill="none" stroke="#404040" d="M157.708,-138.284C152.883,-127.405 147.166,-114.515 141.565,-101.886"/>
<polygon fill="none" stroke="#404040" points="141.563,-101.882 135.474,-98.019 136.698,-90.9125 142.787,-94.7755 141.563,-101.882"/>
<text text-anchor="middle" x="176" y="-112" font-family="Helvetica,sans-Serif" font-size="10.00"> +bufferSize</text>
</g>
</g>
</svg>
