<?xml version="1.0" encoding="UTF-8" standalone="no"?>
<!DOCTYPE svg PUBLIC "-//W3C//DTD SVG 1.1//EN"
 "http://www.w3.org/Graphics/SVG/1.1/DTD/svg11.dtd">
<!-- Generated by graphviz version 2.38.0 (20140413.2041)
 -->
<!-- Title: o2::framework::is_forced_non_messageable&lt; T, typename std::enable_if&lt; std::is_same&lt; typename T::non_messageable, MarkAsNonMessageable &gt;::value &gt;::type &gt; Pages: 1 -->
<svg width="175pt" height="215pt"
 viewBox="0.00 0.00 175.00 215.00" xmlns="http://www.w3.org/2000/svg" xmlns:xlink="http://www.w3.org/1999/xlink">
<g id="graph0" class="graph" transform="scale(1 1) rotate(0) translate(4 211)">
<title>o2::framework::is_forced_non_messageable&lt; T, typename std::enable_if&lt; std::is_same&lt; typename T::non_messageable, MarkAsNonMessageable &gt;::value &gt;::type &gt;</title>
<!-- Node1 -->
<g id="node1" class="node"><title>Node1</title>
<polygon fill="#bfbfbf" stroke="black" points="-1.42109e-14,-0.5 -1.42109e-14,-112.5 167,-112.5 167,-0.5 -1.42109e-14,-0.5"/>
<text text-anchor="start" x="8" y="-100.5" font-family="Helvetica,sans-Serif" font-size="10.00">o2::framework::is_forced</text>
<text text-anchor="start" x="8" y="-89.5" font-family="Helvetica,sans-Serif" font-size="10.00">_non_messageable&lt; T, typename</text>
<text text-anchor="start" x="8" y="-78.5" font-family="Helvetica,sans-Serif" font-size="10.00"> std::enable_if&lt; std::is_same</text>
<text text-anchor="start" x="8" y="-67.5" font-family="Helvetica,sans-Serif" font-size="10.00">&lt; typename T::non_messageable,</text>
<text text-anchor="start" x="8" y="-56.5" font-family="Helvetica,sans-Serif" font-size="10.00"> MarkAsNonMessageable &gt;::value</text>
<text text-anchor="middle" x="83.5" y="-45.5" font-family="Helvetica,sans-Serif" font-size="10.00"> &gt;::type &gt;</text>
<polyline fill="none" stroke="black" points="-1.42109e-14,-38.5 167,-38.5 "/>
<text text-anchor="middle" x="83.5" y="-26.5" font-family="Helvetica,sans-Serif" font-size="10.00"> </text>
<polyline fill="none" stroke="black" points="-1.42109e-14,-19.5 167,-19.5 "/>
<text text-anchor="middle" x="83.5" y="-7.5" font-family="Helvetica,sans-Serif" font-size="10.00"> </text>
</g>
<!-- Node2 -->
<g id="node2" class="node"><title>Node2</title>
<polygon fill="none" stroke="#bfbfbf" points="55,-149.5 55,-206.5 112,-206.5 112,-149.5 55,-149.5"/>
<text text-anchor="middle" x="83.5" y="-194.5" font-family="Helvetica,sans-Serif" font-size="10.00">true_type</text>
<polyline fill="none" stroke="#bfbfbf" points="55,-187.5 112,-187.5 "/>
<text text-anchor="middle" x="83.5" y="-175.5" font-family="Helvetica,sans-Serif" font-size="10.00"> </text>
<polyline fill="none" stroke="#bfbfbf" points="55,-168.5 112,-168.5 "/>
<text text-anchor="middle" x="83.5" y="-156.5" font-family="Helvetica,sans-Serif" font-size="10.00"> </text>
</g>
<!-- Node2&#45;&gt;Node1 -->
<g id="edge1" class="edge"><title>Node2&#45;&gt;Node1</title>
<path fill="none" stroke="midnightblue" d="M83.5,-139.108C83.5,-130.748 83.5,-121.725 83.5,-112.834"/>
<polygon fill="none" stroke="midnightblue" points="80.0001,-139.284 83.5,-149.284 87.0001,-139.284 80.0001,-139.284"/>
</g>
</g>
</svg>
