<?xml version="1.0" encoding="UTF-8" standalone="no"?>
<!DOCTYPE svg PUBLIC "-//W3C//DTD SVG 1.1//EN"
 "http://www.w3.org/Graphics/SVG/1.1/DTD/svg11.dtd">
<!-- Generated by graphviz version 2.38.0 (20140413.2041)
 -->
<!-- Title: /home/travis/build/AliceO2Group/AliceO2/DataFormats/simulation/include/SimulationDataFormat/MCEventHeader.h Pages: 1 -->
<svg width="1037pt" height="417pt"
 viewBox="0.00 0.00 1037.00 417.00" xmlns="http://www.w3.org/2000/svg" xmlns:xlink="http://www.w3.org/1999/xlink">
<g id="graph0" class="graph" transform="scale(1 1) rotate(0) translate(4 413)">
<title>/home/travis/build/AliceO2Group/AliceO2/DataFormats/simulation/include/SimulationDataFormat/MCEventHeader.h</title>
<!-- Node1 -->
<g id="node1" class="node"><title>Node1</title>
<polygon fill="#bfbfbf" stroke="black" points="578.5,-345.5 578.5,-408.5 729.5,-408.5 729.5,-345.5 578.5,-345.5"/>
<text text-anchor="start" x="586.5" y="-396.5" font-family="Helvetica,sans-Serif" font-size="10.00">/home/travis/build</text>
<text text-anchor="start" x="586.5" y="-385.5" font-family="Helvetica,sans-Serif" font-size="10.00">/AliceO2Group/AliceO2</text>
<text text-anchor="start" x="586.5" y="-374.5" font-family="Helvetica,sans-Serif" font-size="10.00">/DataFormats/simulation</text>
<text text-anchor="start" x="586.5" y="-363.5" font-family="Helvetica,sans-Serif" font-size="10.00">/include/SimulationDataFormat</text>
<text text-anchor="middle" x="654" y="-352.5" font-family="Helvetica,sans-Serif" font-size="10.00">/MCEventHeader.h</text>
</g>
<!-- Node2 -->
<g id="node2" class="node"><title>Node2</title>
<g id="a_node2"><a xlink:href="../../d9/d45/PrimaryChunk_8h.html" target="_top" xlink:title="/home/travis/build\l/AliceO2Group/AliceO2\l/DataFormats/simulation\l/include/SimulationDataFormat\l/PrimaryChunk.h">
<polygon fill="none" stroke="black" points="397.5,-245.5 397.5,-308.5 548.5,-308.5 548.5,-245.5 397.5,-245.5"/>
<text text-anchor="start" x="405.5" y="-296.5" font-family="Helvetica,sans-Serif" font-size="10.00">/home/travis/build</text>
<text text-anchor="start" x="405.5" y="-285.5" font-family="Helvetica,sans-Serif" font-size="10.00">/AliceO2Group/AliceO2</text>
<text text-anchor="start" x="405.5" y="-274.5" font-family="Helvetica,sans-Serif" font-size="10.00">/DataFormats/simulation</text>
<text text-anchor="start" x="405.5" y="-263.5" font-family="Helvetica,sans-Serif" font-size="10.00">/include/SimulationDataFormat</text>
<text text-anchor="middle" x="473" y="-252.5" font-family="Helvetica,sans-Serif" font-size="10.00">/PrimaryChunk.h</text>
</a>
</g>
</g>
<!-- Node1&#45;&gt;Node2 -->
<g id="edge1" class="edge"><title>Node1&#45;&gt;Node2</title>
<path fill="none" stroke="midnightblue" d="M588.23,-340.39C569.007,-329.982 548.171,-318.701 529.571,-308.63"/>
<polygon fill="midnightblue" stroke="midnightblue" points="586.767,-343.578 597.227,-345.261 590.1,-337.422 586.767,-343.578"/>
</g>
<!-- Node4 -->
<g id="node4" class="node"><title>Node4</title>
<g id="a_node4"><a xlink:href="../../db/d50/O2HitMerger_8h.html" target="_top" xlink:title="/home/travis/build\l/AliceO2Group/AliceO2\l/run/O2HitMerger.h">
<polygon fill="none" stroke="black" points="12,-78.5 12,-119.5 130,-119.5 130,-78.5 12,-78.5"/>
<text text-anchor="start" x="20" y="-107.5" font-family="Helvetica,sans-Serif" font-size="10.00">/home/travis/build</text>
<text text-anchor="start" x="20" y="-96.5" font-family="Helvetica,sans-Serif" font-size="10.00">/AliceO2Group/AliceO2</text>
<text text-anchor="middle" x="71" y="-85.5" font-family="Helvetica,sans-Serif" font-size="10.00">/run/O2HitMerger.h</text>
</a>
</g>
</g>
<!-- Node1&#45;&gt;Node4 -->
<g id="edge17" class="edge"><title>Node1&#45;&gt;Node4</title>
<path fill="none" stroke="midnightblue" d="M568.421,-364.591C419.99,-342.835 124.882,-290.226 65,-209 45.8813,-183.067 54.8005,-143.509 62.9507,-119.858"/>
<polygon fill="midnightblue" stroke="midnightblue" points="568.017,-368.069 578.416,-366.041 569.023,-361.141 568.017,-368.069"/>
</g>
<!-- Node8 -->
<g id="node8" class="node"><title>Node8</title>
<g id="a_node8"><a xlink:href="../../dc/d50/O2PrimaryServerDevice_8h.html" target="_top" xlink:title="/home/travis/build\l/AliceO2Group/AliceO2\l/run/O2PrimaryServerDevice.h">
<polygon fill="none" stroke="black" points="663,-162 663,-203 813,-203 813,-162 663,-162"/>
<text text-anchor="start" x="671" y="-191" font-family="Helvetica,sans-Serif" font-size="10.00">/home/travis/build</text>
<text text-anchor="start" x="671" y="-180" font-family="Helvetica,sans-Serif" font-size="10.00">/AliceO2Group/AliceO2</text>
<text text-anchor="middle" x="738" y="-169" font-family="Helvetica,sans-Serif" font-size="10.00">/run/O2PrimaryServerDevice.h</text>
</a>
</g>
</g>
<!-- Node1&#45;&gt;Node8 -->
<g id="edge18" class="edge"><title>Node1&#45;&gt;Node8</title>
<path fill="none" stroke="midnightblue" d="M661.819,-335.347C667.881,-308.743 677.689,-273.722 692,-245 699.552,-229.844 710.932,-214.59 720.483,-203.065"/>
<polygon fill="midnightblue" stroke="midnightblue" points="658.324,-334.944 659.601,-345.461 665.162,-336.443 658.324,-334.944"/>
</g>
<!-- Node12 -->
<g id="node12" class="node"><title>Node12</title>
<g id="a_node12"><a xlink:href="../../df/d3b/O2MCApplication_8cxx.html" target="_top" xlink:title="/home/travis/build\l/AliceO2Group/AliceO2\l/Steer/src/O2MCApplication.cxx">
<polygon fill="none" stroke="black" points="537,-78.5 537,-119.5 695,-119.5 695,-78.5 537,-78.5"/>
<text text-anchor="start" x="545" y="-107.5" font-family="Helvetica,sans-Serif" font-size="10.00">/home/travis/build</text>
<text text-anchor="start" x="545" y="-96.5" font-family="Helvetica,sans-Serif" font-size="10.00">/AliceO2Group/AliceO2</text>
<text text-anchor="middle" x="616" y="-85.5" font-family="Helvetica,sans-Serif" font-size="10.00">/Steer/src/O2MCApplication.cxx</text>
</a>
</g>
</g>
<!-- Node1&#45;&gt;Node12 -->
<g id="edge19" class="edge"><title>Node1&#45;&gt;Node12</title>
<path fill="none" stroke="midnightblue" d="M648.422,-335.483C640.126,-275.231 624.855,-164.314 618.688,-119.523"/>
<polygon fill="midnightblue" stroke="midnightblue" points="644.957,-335.979 649.788,-345.409 651.891,-335.025 644.957,-335.979"/>
</g>
<!-- Node13 -->
<g id="node13" class="node"><title>Node13</title>
<g id="a_node13"><a xlink:href="../../d8/de4/MCEventHeader_8cxx.html" target="_top" xlink:title="/home/travis/build\l/AliceO2Group/AliceO2\l/DataFormats/simulation\l/src/MCEventHeader.cxx">
<polygon fill="none" stroke="black" points="701,-251 701,-303 829,-303 829,-251 701,-251"/>
<text text-anchor="start" x="709" y="-291" font-family="Helvetica,sans-Serif" font-size="10.00">/home/travis/build</text>
<text text-anchor="start" x="709" y="-280" font-family="Helvetica,sans-Serif" font-size="10.00">/AliceO2Group/AliceO2</text>
<text text-anchor="start" x="709" y="-269" font-family="Helvetica,sans-Serif" font-size="10.00">/DataFormats/simulation</text>
<text text-anchor="middle" x="765" y="-258" font-family="Helvetica,sans-Serif" font-size="10.00">/src/MCEventHeader.cxx</text>
</a>
</g>
</g>
<!-- Node1&#45;&gt;Node13 -->
<g id="edge15" class="edge"><title>Node1&#45;&gt;Node13</title>
<path fill="none" stroke="midnightblue" d="M696.564,-338.421C709.975,-326.581 724.452,-313.799 736.623,-303.054"/>
<polygon fill="midnightblue" stroke="midnightblue" points="693.997,-336.019 688.817,-345.261 698.629,-341.266 693.997,-336.019"/>
</g>
<!-- Node14 -->
<g id="node14" class="node"><title>Node14</title>
<g id="a_node14"><a xlink:href="../../dc/d20/PrimaryGenerator_8cxx.html" target="_top" xlink:title="/home/travis/build\l/AliceO2Group/AliceO2\l/Generators/src/PrimaryGenerator.cxx">
<polygon fill="none" stroke="black" points="847,-256.5 847,-297.5 1029,-297.5 1029,-256.5 847,-256.5"/>
<text text-anchor="start" x="855" y="-285.5" font-family="Helvetica,sans-Serif" font-size="10.00">/home/travis/build</text>
<text text-anchor="start" x="855" y="-274.5" font-family="Helvetica,sans-Serif" font-size="10.00">/AliceO2Group/AliceO2</text>
<text text-anchor="middle" x="938" y="-263.5" font-family="Helvetica,sans-Serif" font-size="10.00">/Generators/src/PrimaryGenerator.cxx</text>
</a>
</g>
</g>
<!-- Node1&#45;&gt;Node14 -->
<g id="edge16" class="edge"><title>Node1&#45;&gt;Node14</title>
<path fill="none" stroke="midnightblue" d="M739.388,-346.535C785.344,-330.677 840.761,-311.554 881.367,-297.543"/>
<polygon fill="midnightblue" stroke="midnightblue" points="738.045,-343.296 729.734,-349.867 740.328,-349.913 738.045,-343.296"/>
</g>
<!-- Node3 -->
<g id="node3" class="node"><title>Node3</title>
<g id="a_node3"><a xlink:href="../../d5/d9d/test_2MCTrack_8cxx.html" target="_top" xlink:title="/home/travis/build\l/AliceO2Group/AliceO2\l/DataFormats/simulation\l/test/MCTrack.cxx">
<polygon fill="none" stroke="black" points="99,-156.5 99,-208.5 223,-208.5 223,-156.5 99,-156.5"/>
<text text-anchor="start" x="107" y="-196.5" font-family="Helvetica,sans-Serif" font-size="10.00">/home/travis/build</text>
<text text-anchor="start" x="107" y="-185.5" font-family="Helvetica,sans-Serif" font-size="10.00">/AliceO2Group/AliceO2</text>
<text text-anchor="start" x="107" y="-174.5" font-family="Helvetica,sans-Serif" font-size="10.00">/DataFormats/simulation</text>
<text text-anchor="middle" x="161" y="-163.5" font-family="Helvetica,sans-Serif" font-size="10.00">/test/MCTrack.cxx</text>
</a>
</g>
</g>
<!-- Node2&#45;&gt;Node3 -->
<g id="edge2" class="edge"><title>Node2&#45;&gt;Node3</title>
<path fill="none" stroke="midnightblue" d="M387.71,-253.931C341.401,-241.536 283.289,-225.315 232,-209 229.129,-208.087 226.201,-207.132 223.25,-206.15"/>
<polygon fill="midnightblue" stroke="midnightblue" points="386.842,-257.321 397.406,-256.516 388.645,-250.558 386.842,-257.321"/>
</g>
<!-- Node2&#45;&gt;Node4 -->
<g id="edge3" class="edge"><title>Node2&#45;&gt;Node4</title>
<path fill="none" stroke="midnightblue" d="M387.229,-272.208C287.318,-265.935 130.712,-249.737 90,-209 66.5089,-185.495 66.0906,-143.98 68.2886,-119.531"/>
<polygon fill="midnightblue" stroke="midnightblue" points="387.122,-275.708 397.315,-272.82 387.546,-268.72 387.122,-275.708"/>
</g>
<!-- Node6 -->
<g id="node6" class="node"><title>Node6</title>
<g id="a_node6"><a xlink:href="../../db/d82/O2SimDevice_8h.html" target="_top" xlink:title="/home/travis/build\l/AliceO2Group/AliceO2\l/run/O2SimDevice.h">
<polygon fill="none" stroke="black" points="241,-162 241,-203 359,-203 359,-162 241,-162"/>
<text text-anchor="start" x="249" y="-191" font-family="Helvetica,sans-Serif" font-size="10.00">/home/travis/build</text>
<text text-anchor="start" x="249" y="-180" font-family="Helvetica,sans-Serif" font-size="10.00">/AliceO2Group/AliceO2</text>
<text text-anchor="middle" x="300" y="-169" font-family="Helvetica,sans-Serif" font-size="10.00">/run/O2SimDevice.h</text>
</a>
</g>
</g>
<!-- Node2&#45;&gt;Node6 -->
<g id="edge6" class="edge"><title>Node2&#45;&gt;Node6</title>
<path fill="none" stroke="midnightblue" d="M406.871,-240.642C383.059,-227.91 357.063,-214.011 336.673,-203.108"/>
<polygon fill="midnightblue" stroke="midnightblue" points="405.405,-243.827 415.874,-245.456 408.706,-237.654 405.405,-243.827"/>
</g>
<!-- Node2&#45;&gt;Node8 -->
<g id="edge9" class="edge"><title>Node2&#45;&gt;Node8</title>
<path fill="none" stroke="midnightblue" d="M558.203,-246.259C598.786,-232.094 646.182,-215.55 682.12,-203.005"/>
<polygon fill="midnightblue" stroke="midnightblue" points="556.872,-243.017 548.584,-249.617 559.179,-249.626 556.872,-243.017"/>
</g>
<!-- Node10 -->
<g id="node10" class="node"><title>Node10</title>
<g id="a_node10"><a xlink:href="../../df/d82/O2MCApplication_8h.html" target="_top" xlink:title="/home/travis/build\l/AliceO2Group/AliceO2\l/Steer/include/Steer/O2MCApplication.h">
<polygon fill="none" stroke="black" points="377.5,-162 377.5,-203 568.5,-203 568.5,-162 377.5,-162"/>
<text text-anchor="start" x="385.5" y="-191" font-family="Helvetica,sans-Serif" font-size="10.00">/home/travis/build</text>
<text text-anchor="start" x="385.5" y="-180" font-family="Helvetica,sans-Serif" font-size="10.00">/AliceO2Group/AliceO2</text>
<text text-anchor="middle" x="473" y="-169" font-family="Helvetica,sans-Serif" font-size="10.00">/Steer/include/Steer/O2MCApplication.h</text>
</a>
</g>
</g>
<!-- Node2&#45;&gt;Node10 -->
<g id="edge11" class="edge"><title>Node2&#45;&gt;Node10</title>
<path fill="none" stroke="midnightblue" d="M473,-235.41C473,-224.252 473,-212.648 473,-203.248"/>
<polygon fill="midnightblue" stroke="midnightblue" points="469.5,-235.456 473,-245.456 476.5,-235.456 469.5,-235.456"/>
</g>
<!-- Node2&#45;&gt;Node12 -->
<g id="edge14" class="edge"><title>Node2&#45;&gt;Node12</title>
<path fill="none" stroke="midnightblue" d="M543.622,-239.581C555.961,-230.842 567.777,-220.617 577,-209 598.245,-182.241 608.472,-142.955 612.946,-119.579"/>
<polygon fill="midnightblue" stroke="midnightblue" points="541.348,-236.893 535.022,-245.392 545.268,-242.693 541.348,-236.893"/>
</g>
<!-- Node4&#45;&gt;Node4 -->
<g id="edge4" class="edge"><title>Node4&#45;&gt;Node4</title>
<path fill="none" stroke="midnightblue" d="M140.027,-109.753C144.975,-107.318 148,-103.733 148,-99 148,-91.6113 140.63,-87.0223 130.079,-85.2328"/>
<polygon fill="midnightblue" stroke="midnightblue" points="138.635,-106.518 130.079,-112.767 140.664,-113.217 138.635,-106.518"/>
</g>
<!-- Node5 -->
<g id="node5" class="node"><title>Node5</title>
<g id="a_node5"><a xlink:href="../../d9/d16/O2HitMergerRunner_8cxx.html" target="_top" xlink:title="/home/travis/build\l/AliceO2Group/AliceO2\l/run/O2HitMergerRunner.cxx">
<polygon fill="none" stroke="black" points="0,-0.5 0,-41.5 142,-41.5 142,-0.5 0,-0.5"/>
<text text-anchor="start" x="8" y="-29.5" font-family="Helvetica,sans-Serif" font-size="10.00">/home/travis/build</text>
<text text-anchor="start" x="8" y="-18.5" font-family="Helvetica,sans-Serif" font-size="10.00">/AliceO2Group/AliceO2</text>
<text text-anchor="middle" x="71" y="-7.5" font-family="Helvetica,sans-Serif" font-size="10.00">/run/O2HitMergerRunner.cxx</text>
</a>
</g>
</g>
<!-- Node4&#45;&gt;Node5 -->
<g id="edge5" class="edge"><title>Node4&#45;&gt;Node5</title>
<path fill="none" stroke="midnightblue" d="M71,-68.2965C71,-59.3009 71,-49.6532 71,-41.5056"/>
<polygon fill="midnightblue" stroke="midnightblue" points="67.5001,-68.4281 71,-78.4281 74.5001,-68.4281 67.5001,-68.4281"/>
</g>
<!-- Node6&#45;&gt;Node4 -->
<g id="edge7" class="edge"><title>Node6&#45;&gt;Node4</title>
<path fill="none" stroke="midnightblue" d="M238.45,-158.344C236.275,-157.549 234.12,-156.766 232,-156 197.766,-143.629 159.262,-130.219 128.494,-119.623"/>
<polygon fill="midnightblue" stroke="midnightblue" points="237.477,-161.715 248.07,-161.88 239.892,-155.145 237.477,-161.715"/>
</g>
<!-- Node7 -->
<g id="node7" class="node"><title>Node7</title>
<g id="a_node7"><a xlink:href="../../d6/da5/O2SimDeviceRunner_8cxx.html" target="_top" xlink:title="/home/travis/build\l/AliceO2Group/AliceO2\l/run/O2SimDeviceRunner.cxx">
<polygon fill="none" stroke="black" points="191.5,-78.5 191.5,-119.5 338.5,-119.5 338.5,-78.5 191.5,-78.5"/>
<text text-anchor="start" x="199.5" y="-107.5" font-family="Helvetica,sans-Serif" font-size="10.00">/home/travis/build</text>
<text text-anchor="start" x="199.5" y="-96.5" font-family="Helvetica,sans-Serif" font-size="10.00">/AliceO2Group/AliceO2</text>
<text text-anchor="middle" x="265" y="-85.5" font-family="Helvetica,sans-Serif" font-size="10.00">/run/O2SimDeviceRunner.cxx</text>
</a>
</g>
</g>
<!-- Node6&#45;&gt;Node7 -->
<g id="edge8" class="edge"><title>Node6&#45;&gt;Node7</title>
<path fill="none" stroke="midnightblue" d="M287.573,-152.563C282.873,-141.619 277.639,-129.43 273.395,-119.547"/>
<polygon fill="midnightblue" stroke="midnightblue" points="284.365,-153.964 291.527,-161.771 290.797,-151.201 284.365,-153.964"/>
</g>
<!-- Node9 -->
<g id="node9" class="node"><title>Node9</title>
<g id="a_node9"><a xlink:href="../../db/d8f/O2PrimaryServerDeviceRunner_8cxx.html" target="_top" xlink:title="/home/travis/build\l/AliceO2Group/AliceO2\l/run/O2PrimaryServerDeviceRunner.cxx">
<polygon fill="none" stroke="black" points="713,-78.5 713,-119.5 905,-119.5 905,-78.5 713,-78.5"/>
<text text-anchor="start" x="721" y="-107.5" font-family="Helvetica,sans-Serif" font-size="10.00">/home/travis/build</text>
<text text-anchor="start" x="721" y="-96.5" font-family="Helvetica,sans-Serif" font-size="10.00">/AliceO2Group/AliceO2</text>
<text text-anchor="middle" x="809" y="-85.5" font-family="Helvetica,sans-Serif" font-size="10.00">/run/O2PrimaryServerDeviceRunner.cxx</text>
</a>
</g>
</g>
<!-- Node8&#45;&gt;Node9 -->
<g id="edge10" class="edge"><title>Node8&#45;&gt;Node9</title>
<path fill="none" stroke="midnightblue" d="M761.773,-154.211C771.666,-142.856 782.927,-129.929 791.971,-119.547"/>
<polygon fill="midnightblue" stroke="midnightblue" points="759.117,-151.932 755.187,-161.771 764.395,-156.53 759.117,-151.932"/>
</g>
<!-- Node11 -->
<g id="node11" class="node"><title>Node11</title>
<g id="a_node11"><a xlink:href="../../d9/d9b/O2RunSim_8h.html" target="_top" xlink:title="/home/travis/build\l/AliceO2Group/AliceO2\l/Steer/include/Steer/O2RunSim.h">
<polygon fill="none" stroke="black" points="357,-78.5 357,-119.5 519,-119.5 519,-78.5 357,-78.5"/>
<text text-anchor="start" x="365" y="-107.5" font-family="Helvetica,sans-Serif" font-size="10.00">/home/travis/build</text>
<text text-anchor="start" x="365" y="-96.5" font-family="Helvetica,sans-Serif" font-size="10.00">/AliceO2Group/AliceO2</text>
<text text-anchor="middle" x="438" y="-85.5" font-family="Helvetica,sans-Serif" font-size="10.00">/Steer/include/Steer/O2RunSim.h</text>
</a>
</g>
</g>
<!-- Node10&#45;&gt;Node11 -->
<g id="edge12" class="edge"><title>Node10&#45;&gt;Node11</title>
<path fill="none" stroke="midnightblue" d="M460.573,-152.563C455.873,-141.619 450.639,-129.43 446.395,-119.547"/>
<polygon fill="midnightblue" stroke="midnightblue" points="457.365,-153.964 464.527,-161.771 463.797,-151.201 457.365,-153.964"/>
</g>
<!-- Node10&#45;&gt;Node12 -->
<g id="edge13" class="edge"><title>Node10&#45;&gt;Node12</title>
<path fill="none" stroke="midnightblue" d="M515.973,-157.008C536.943,-145.057 561.828,-130.874 581.532,-119.644"/>
<polygon fill="midnightblue" stroke="midnightblue" points="514.207,-153.986 507.252,-161.979 517.673,-160.068 514.207,-153.986"/>
</g>
</g>
</svg>
