<?xml version="1.0" encoding="UTF-8" standalone="no"?>
<!DOCTYPE svg PUBLIC "-//W3C//DTD SVG 1.1//EN"
 "http://www.w3.org/Graphics/SVG/1.1/DTD/svg11.dtd">
<!-- Generated by graphviz version 2.38.0 (20140413.2041)
 -->
<!-- Title: /home/travis/build/AliceO2Group/AliceO2/GPU/TPCSpaceChargeBase/AliTPCLookUpTable3DInterpolatorIrregularD.h Pages: 1 -->
<svg width="710pt" height="439pt"
 viewBox="0.00 0.00 709.50 439.00" xmlns="http://www.w3.org/2000/svg" xmlns:xlink="http://www.w3.org/1999/xlink">
<g id="graph0" class="graph" transform="scale(1 1) rotate(0) translate(4 435)">
<title>/home/travis/build/AliceO2Group/AliceO2/GPU/TPCSpaceChargeBase/AliTPCLookUpTable3DInterpolatorIrregularD.h</title>
<!-- Node1 -->
<g id="node1" class="node"><title>Node1</title>
<polygon fill="#bfbfbf" stroke="black" points="245.5,-367.5 245.5,-430.5 415.5,-430.5 415.5,-367.5 245.5,-367.5"/>
<text text-anchor="start" x="253.5" y="-418.5" font-family="Helvetica,sans-Serif" font-size="10.00">/home/travis/build</text>
<text text-anchor="start" x="253.5" y="-407.5" font-family="Helvetica,sans-Serif" font-size="10.00">/AliceO2Group/AliceO2</text>
<text text-anchor="start" x="253.5" y="-396.5" font-family="Helvetica,sans-Serif" font-size="10.00">/GPU/TPCSpaceChargeBase</text>
<text text-anchor="start" x="253.5" y="-385.5" font-family="Helvetica,sans-Serif" font-size="10.00">/AliTPCLookUpTable3DInterpolator</text>
<text text-anchor="middle" x="330.5" y="-374.5" font-family="Helvetica,sans-Serif" font-size="10.00">IrregularD.h</text>
</g>
<!-- Node2 -->
<g id="node2" class="node"><title>Node2</title>
<g id="a_node2"><a xlink:href="../../d7/dd1/AliTPCLookUpTable3DInterpolatorIrregularD_8cxx.html" target="_top" xlink:title="Wrap up look&#45;up table with irregular grid. ">
<polygon fill="none" stroke="black" points="156.5,-267.5 156.5,-330.5 326.5,-330.5 326.5,-267.5 156.5,-267.5"/>
<text text-anchor="start" x="164.5" y="-318.5" font-family="Helvetica,sans-Serif" font-size="10.00">/home/travis/build</text>
<text text-anchor="start" x="164.5" y="-307.5" font-family="Helvetica,sans-Serif" font-size="10.00">/AliceO2Group/AliceO2</text>
<text text-anchor="start" x="164.5" y="-296.5" font-family="Helvetica,sans-Serif" font-size="10.00">/GPU/TPCSpaceChargeBase</text>
<text text-anchor="start" x="164.5" y="-285.5" font-family="Helvetica,sans-Serif" font-size="10.00">/AliTPCLookUpTable3DInterpolator</text>
<text text-anchor="middle" x="241.5" y="-274.5" font-family="Helvetica,sans-Serif" font-size="10.00">IrregularD.cxx</text>
</a>
</g>
</g>
<!-- Node1&#45;&gt;Node2 -->
<g id="edge1" class="edge"><title>Node1&#45;&gt;Node2</title>
<path fill="none" stroke="midnightblue" d="M295.706,-359.687C286.954,-350.051 277.676,-339.835 269.317,-330.63"/>
<polygon fill="midnightblue" stroke="midnightblue" points="293.27,-362.211 302.584,-367.261 298.452,-357.505 293.27,-362.211"/>
</g>
<!-- Node3 -->
<g id="node3" class="node"><title>Node3</title>
<g id="a_node3"><a xlink:href="../../d9/d9a/AliTPCSpaceCharge3DCalc_8h.html" target="_top" xlink:title="This class provides distortion and correction map calculation with integration following electron dri...">
<polygon fill="none" stroke="black" points="344.5,-273 344.5,-325 496.5,-325 496.5,-273 344.5,-273"/>
<text text-anchor="start" x="352.5" y="-313" font-family="Helvetica,sans-Serif" font-size="10.00">/home/travis/build</text>
<text text-anchor="start" x="352.5" y="-302" font-family="Helvetica,sans-Serif" font-size="10.00">/AliceO2Group/AliceO2</text>
<text text-anchor="start" x="352.5" y="-291" font-family="Helvetica,sans-Serif" font-size="10.00">/GPU/TPCSpaceChargeBase</text>
<text text-anchor="middle" x="420.5" y="-280" font-family="Helvetica,sans-Serif" font-size="10.00">/AliTPCSpaceCharge3DCalc.h</text>
</a>
</g>
</g>
<!-- Node1&#45;&gt;Node3 -->
<g id="edge2" class="edge"><title>Node1&#45;&gt;Node3</title>
<path fill="none" stroke="midnightblue" d="M365.622,-359.756C376.323,-348.104 387.808,-335.598 397.492,-325.054"/>
<polygon fill="midnightblue" stroke="midnightblue" points="362.916,-357.528 358.73,-367.261 368.072,-362.263 362.916,-357.528"/>
</g>
<!-- Node4 -->
<g id="node4" class="node"><title>Node4</title>
<g id="a_node4"><a xlink:href="../../d3/db6/SpaceCharge_8h.html" target="_top" xlink:title="Definition of the handler for the ALICE TPC space&#45;charge distortions calculations. ">
<polygon fill="none" stroke="black" points="131.5,-178.5 131.5,-230.5 321.5,-230.5 321.5,-178.5 131.5,-178.5"/>
<text text-anchor="start" x="139.5" y="-218.5" font-family="Helvetica,sans-Serif" font-size="10.00">/home/travis/build</text>
<text text-anchor="start" x="139.5" y="-207.5" font-family="Helvetica,sans-Serif" font-size="10.00">/AliceO2Group/AliceO2</text>
<text text-anchor="start" x="139.5" y="-196.5" font-family="Helvetica,sans-Serif" font-size="10.00">/Detectors/TPC/simulation</text>
<text text-anchor="middle" x="226.5" y="-185.5" font-family="Helvetica,sans-Serif" font-size="10.00">/include/TPCSimulation/SpaceCharge.h</text>
</a>
</g>
</g>
<!-- Node3&#45;&gt;Node4 -->
<g id="edge3" class="edge"><title>Node3&#45;&gt;Node4</title>
<path fill="none" stroke="midnightblue" d="M358.739,-268.552C333.088,-256.322 303.632,-242.277 279.041,-230.552"/>
<polygon fill="midnightblue" stroke="midnightblue" points="357.468,-271.824 368.001,-272.968 360.481,-265.505 357.468,-271.824"/>
</g>
<!-- Node9 -->
<g id="node9" class="node"><title>Node9</title>
<g id="a_node9"><a xlink:href="../../d2/daf/AliTPCSpaceCharge3DCalc_8cxx.html" target="_top" xlink:title="This class provides distortion and correction map with integration following electron drift...">
<polygon fill="none" stroke="black" points="339.5,-178.5 339.5,-230.5 501.5,-230.5 501.5,-178.5 339.5,-178.5"/>
<text text-anchor="start" x="347.5" y="-218.5" font-family="Helvetica,sans-Serif" font-size="10.00">/home/travis/build</text>
<text text-anchor="start" x="347.5" y="-207.5" font-family="Helvetica,sans-Serif" font-size="10.00">/AliceO2Group/AliceO2</text>
<text text-anchor="start" x="347.5" y="-196.5" font-family="Helvetica,sans-Serif" font-size="10.00">/GPU/TPCSpaceChargeBase</text>
<text text-anchor="middle" x="420.5" y="-185.5" font-family="Helvetica,sans-Serif" font-size="10.00">/AliTPCSpaceCharge3DCalc.cxx</text>
</a>
</g>
</g>
<!-- Node3&#45;&gt;Node9 -->
<g id="edge8" class="edge"><title>Node3&#45;&gt;Node9</title>
<path fill="none" stroke="midnightblue" d="M420.5,-262.493C420.5,-251.909 420.5,-240.531 420.5,-230.745"/>
<polygon fill="midnightblue" stroke="midnightblue" points="417,-262.724 420.5,-272.724 424,-262.724 417,-262.724"/>
</g>
<!-- Node10 -->
<g id="node10" class="node"><title>Node10</title>
<g id="a_node10"><a xlink:href="../../dc/d31/testTPCSpaceChargeBase_8cxx.html" target="_top" xlink:title="/home/travis/build\l/AliceO2Group/AliceO2\l/GPU/TPCSpaceChargeBase\l/ctest/testTPCSpaceChargeBase.cxx">
<polygon fill="none" stroke="black" points="519.5,-178.5 519.5,-230.5 701.5,-230.5 701.5,-178.5 519.5,-178.5"/>
<text text-anchor="start" x="527.5" y="-218.5" font-family="Helvetica,sans-Serif" font-size="10.00">/home/travis/build</text>
<text text-anchor="start" x="527.5" y="-207.5" font-family="Helvetica,sans-Serif" font-size="10.00">/AliceO2Group/AliceO2</text>
<text text-anchor="start" x="527.5" y="-196.5" font-family="Helvetica,sans-Serif" font-size="10.00">/GPU/TPCSpaceChargeBase</text>
<text text-anchor="middle" x="610.5" y="-185.5" font-family="Helvetica,sans-Serif" font-size="10.00">/ctest/testTPCSpaceChargeBase.cxx</text>
</a>
</g>
</g>
<!-- Node3&#45;&gt;Node10 -->
<g id="edge9" class="edge"><title>Node3&#45;&gt;Node10</title>
<path fill="none" stroke="midnightblue" d="M480.988,-268.552C506.11,-256.322 534.958,-242.277 559.042,-230.552"/>
<polygon fill="midnightblue" stroke="midnightblue" points="479.376,-265.444 471.917,-272.968 482.44,-271.738 479.376,-265.444"/>
</g>
<!-- Node5 -->
<g id="node5" class="node"><title>Node5</title>
<g id="a_node5"><a xlink:href="../../de/d92/TPC_2simulation_2include_2TPCSimulation_2Digitizer_8h.html" target="_top" xlink:title="/home/travis/build\l/AliceO2Group/AliceO2\l/Detectors/TPC/simulation\l/include/TPCSimulation/Digitizer.h">
<polygon fill="none" stroke="black" points="59,-89.5 59,-141.5 226,-141.5 226,-89.5 59,-89.5"/>
<text text-anchor="start" x="67" y="-129.5" font-family="Helvetica,sans-Serif" font-size="10.00">/home/travis/build</text>
<text text-anchor="start" x="67" y="-118.5" font-family="Helvetica,sans-Serif" font-size="10.00">/AliceO2Group/AliceO2</text>
<text text-anchor="start" x="67" y="-107.5" font-family="Helvetica,sans-Serif" font-size="10.00">/Detectors/TPC/simulation</text>
<text text-anchor="middle" x="142.5" y="-96.5" font-family="Helvetica,sans-Serif" font-size="10.00">/include/TPCSimulation/Digitizer.h</text>
</a>
</g>
</g>
<!-- Node4&#45;&gt;Node5 -->
<g id="edge4" class="edge"><title>Node4&#45;&gt;Node5</title>
<path fill="none" stroke="midnightblue" d="M195.195,-171.077C185.789,-161.335 175.617,-150.8 166.742,-141.607"/>
<polygon fill="midnightblue" stroke="midnightblue" points="192.74,-173.573 202.204,-178.336 197.776,-168.711 192.74,-173.573"/>
</g>
<!-- Node8 -->
<g id="node8" class="node"><title>Node8</title>
<g id="a_node8"><a xlink:href="../../da/d8e/SpaceCharge_8cxx.html" target="_top" xlink:title="Implementation of the interface for the ALICE TPC space&#45;charge distortions calculations. ">
<polygon fill="none" stroke="black" points="244,-89.5 244,-141.5 377,-141.5 377,-89.5 244,-89.5"/>
<text text-anchor="start" x="252" y="-129.5" font-family="Helvetica,sans-Serif" font-size="10.00">/home/travis/build</text>
<text text-anchor="start" x="252" y="-118.5" font-family="Helvetica,sans-Serif" font-size="10.00">/AliceO2Group/AliceO2</text>
<text text-anchor="start" x="252" y="-107.5" font-family="Helvetica,sans-Serif" font-size="10.00">/Detectors/TPC/simulation</text>
<text text-anchor="middle" x="310.5" y="-96.5" font-family="Helvetica,sans-Serif" font-size="10.00">/src/SpaceCharge.cxx</text>
</a>
</g>
</g>
<!-- Node4&#45;&gt;Node8 -->
<g id="edge7" class="edge"><title>Node4&#45;&gt;Node8</title>
<path fill="none" stroke="midnightblue" d="M257.805,-171.077C267.211,-161.335 277.383,-150.8 286.258,-141.607"/>
<polygon fill="midnightblue" stroke="midnightblue" points="255.224,-168.711 250.796,-178.336 260.26,-173.573 255.224,-168.711"/>
</g>
<!-- Node6 -->
<g id="node6" class="node"><title>Node6</title>
<g id="a_node6"><a xlink:href="../../d7/d0a/TPC_2simulation_2src_2Digitizer_8cxx.html" target="_top" xlink:title="/home/travis/build\l/AliceO2Group/AliceO2\l/Detectors/TPC/simulation\l/src/Digitizer.cxx">
<polygon fill="none" stroke="black" points="0,-0.5 0,-52.5 133,-52.5 133,-0.5 0,-0.5"/>
<text text-anchor="start" x="8" y="-40.5" font-family="Helvetica,sans-Serif" font-size="10.00">/home/travis/build</text>
<text text-anchor="start" x="8" y="-29.5" font-family="Helvetica,sans-Serif" font-size="10.00">/AliceO2Group/AliceO2</text>
<text text-anchor="start" x="8" y="-18.5" font-family="Helvetica,sans-Serif" font-size="10.00">/Detectors/TPC/simulation</text>
<text text-anchor="middle" x="66.5" y="-7.5" font-family="Helvetica,sans-Serif" font-size="10.00">/src/Digitizer.cxx</text>
</a>
</g>
</g>
<!-- Node5&#45;&gt;Node6 -->
<g id="edge5" class="edge"><title>Node5&#45;&gt;Node6</title>
<path fill="none" stroke="midnightblue" d="M113.926,-81.79C105.486,-72.1288 96.3843,-61.7097 88.4329,-52.6075"/>
<polygon fill="midnightblue" stroke="midnightblue" points="111.303,-84.1075 120.518,-89.336 116.575,-79.5022 111.303,-84.1075"/>
</g>
<!-- Node7 -->
<g id="node7" class="node"><title>Node7</title>
<g id="a_node7"><a xlink:href="../../d2/d0b/TPCDigitizerSpec_8cxx.html" target="_top" xlink:title="/home/travis/build\l/AliceO2Group/AliceO2\l/Steer/DigitizerWorkflow\l/src/TPCDigitizerSpec.cxx">
<polygon fill="none" stroke="black" points="151.5,-0.5 151.5,-52.5 285.5,-52.5 285.5,-0.5 151.5,-0.5"/>
<text text-anchor="start" x="159.5" y="-40.5" font-family="Helvetica,sans-Serif" font-size="10.00">/home/travis/build</text>
<text text-anchor="start" x="159.5" y="-29.5" font-family="Helvetica,sans-Serif" font-size="10.00">/AliceO2Group/AliceO2</text>
<text text-anchor="start" x="159.5" y="-18.5" font-family="Helvetica,sans-Serif" font-size="10.00">/Steer/DigitizerWorkflow</text>
<text text-anchor="middle" x="218.5" y="-7.5" font-family="Helvetica,sans-Serif" font-size="10.00">/src/TPCDigitizerSpec.cxx</text>
</a>
</g>
</g>
<!-- Node5&#45;&gt;Node7 -->
<g id="edge6" class="edge"><title>Node5&#45;&gt;Node7</title>
<path fill="none" stroke="midnightblue" d="M171.074,-81.79C179.514,-72.1288 188.616,-61.7097 196.567,-52.6075"/>
<polygon fill="midnightblue" stroke="midnightblue" points="168.425,-79.5022 164.482,-89.336 173.697,-84.1075 168.425,-79.5022"/>
</g>
</g>
</svg>
