<?xml version="1.0" encoding="UTF-8" standalone="no"?>
<!DOCTYPE svg PUBLIC "-//W3C//DTD SVG 1.1//EN"
 "http://www.w3.org/Graphics/SVG/1.1/DTD/svg11.dtd">
<!-- Generated by graphviz version 2.38.0 (20140413.2041)
 -->
<!-- Title: /home/travis/build/AliceO2Group/AliceO2/Detectors/HMPID/base/src/Param.cxx Pages: 1 -->
<svg width="1098pt" height="173pt"
 viewBox="0.00 0.00 1097.50 173.00" xmlns="http://www.w3.org/2000/svg" xmlns:xlink="http://www.w3.org/1999/xlink">
<g id="graph0" class="graph" transform="scale(1 1) rotate(0) translate(4 169)">
<title>/home/travis/build/AliceO2Group/AliceO2/Detectors/HMPID/base/src/Param.cxx</title>
<!-- Node1 -->
<g id="node1" class="node"><title>Node1</title>
<polygon fill="#bfbfbf" stroke="black" points="560.5,-112.5 560.5,-164.5 682.5,-164.5 682.5,-112.5 560.5,-112.5"/>
<text text-anchor="start" x="568.5" y="-152.5" font-family="Helvetica,sans-Serif" font-size="10.00">/home/travis/build</text>
<text text-anchor="start" x="568.5" y="-141.5" font-family="Helvetica,sans-Serif" font-size="10.00">/AliceO2Group/AliceO2</text>
<text text-anchor="start" x="568.5" y="-130.5" font-family="Helvetica,sans-Serif" font-size="10.00">/Detectors/HMPID/base</text>
<text text-anchor="middle" x="621.5" y="-119.5" font-family="Helvetica,sans-Serif" font-size="10.00">/src/Param.cxx</text>
</g>
<!-- Node2 -->
<g id="node2" class="node"><title>Node2</title>
<g id="a_node2"><a xlink:href="../../de/d16/Param_8h.html" target="_top" xlink:title="HMPIDBase/Param.h">
<polygon fill="none" stroke="black" points="107.5,-56.5 107.5,-75.5 219.5,-75.5 219.5,-56.5 107.5,-56.5"/>
<text text-anchor="middle" x="163.5" y="-63.5" font-family="Helvetica,sans-Serif" font-size="10.00">HMPIDBase/Param.h</text>
</a>
</g>
</g>
<!-- Node1&#45;&gt;Node2 -->
<g id="edge1" class="edge"><title>Node1&#45;&gt;Node2</title>
<path fill="none" stroke="midnightblue" d="M560.207,-128.065C473.953,-114.788 317.43,-90.6945 228.971,-77.0779"/>
<polygon fill="midnightblue" stroke="midnightblue" points="229.47,-73.6137 219.054,-75.5515 228.405,-80.5322 229.47,-73.6137"/>
</g>
<!-- Node8 -->
<g id="node8" class="node"><title>Node8</title>
<polygon fill="none" stroke="#bfbfbf" points="237.5,-56.5 237.5,-75.5 313.5,-75.5 313.5,-56.5 237.5,-56.5"/>
<text text-anchor="middle" x="275.5" y="-63.5" font-family="Helvetica,sans-Serif" font-size="10.00">TGeoMatrix.h</text>
</g>
<!-- Node1&#45;&gt;Node8 -->
<g id="edge7" class="edge"><title>Node1&#45;&gt;Node8</title>
<path fill="none" stroke="midnightblue" d="M560.439,-125.058C492.994,-111.316 385.772,-89.4686 323.884,-76.8585"/>
<polygon fill="midnightblue" stroke="midnightblue" points="324.482,-73.4085 313.984,-74.8414 323.084,-80.2676 324.482,-73.4085"/>
</g>
<!-- Node9 -->
<g id="node9" class="node"><title>Node9</title>
<polygon fill="none" stroke="#bfbfbf" points="332,-56.5 332,-75.5 387,-75.5 387,-56.5 332,-56.5"/>
<text text-anchor="middle" x="359.5" y="-63.5" font-family="Helvetica,sans-Serif" font-size="10.00">TLatex.h</text>
</g>
<!-- Node1&#45;&gt;Node9 -->
<g id="edge8" class="edge"><title>Node1&#45;&gt;Node9</title>
<path fill="none" stroke="midnightblue" d="M560.403,-121.06C509.728,-107.424 439.317,-88.4774 396.717,-77.0146"/>
<polygon fill="midnightblue" stroke="midnightblue" points="397.599,-73.6273 387.033,-74.4086 395.78,-80.3869 397.599,-73.6273"/>
</g>
<!-- Node10 -->
<g id="node10" class="node"><title>Node10</title>
<polygon fill="none" stroke="#bfbfbf" points="405,-56.5 405,-75.5 458,-75.5 458,-56.5 405,-56.5"/>
<text text-anchor="middle" x="431.5" y="-63.5" font-family="Helvetica,sans-Serif" font-size="10.00">TView.h</text>
</g>
<!-- Node1&#45;&gt;Node10 -->
<g id="edge9" class="edge"><title>Node1&#45;&gt;Node10</title>
<path fill="none" stroke="midnightblue" d="M560.337,-114.805C528.401,-102.955 490.596,-88.9277 464.23,-79.1444"/>
<polygon fill="midnightblue" stroke="midnightblue" points="465.313,-75.8135 454.72,-75.616 462.878,-82.3762 465.313,-75.8135"/>
</g>
<!-- Node11 -->
<g id="node11" class="node"><title>Node11</title>
<polygon fill="none" stroke="#bfbfbf" points="476,-56.5 476,-75.5 569,-75.5 569,-56.5 476,-56.5"/>
<text text-anchor="middle" x="522.5" y="-63.5" font-family="Helvetica,sans-Serif" font-size="10.00">TPolyMarker3D.h</text>
</g>
<!-- Node1&#45;&gt;Node11 -->
<g id="edge10" class="edge"><title>Node1&#45;&gt;Node11</title>
<path fill="none" stroke="midnightblue" d="M586.318,-112.446C571.828,-102.127 555.547,-90.5333 543.056,-81.6384"/>
<polygon fill="midnightblue" stroke="midnightblue" points="544.887,-78.6452 534.711,-75.6955 540.826,-84.3472 544.887,-78.6452"/>
</g>
<!-- Node12 -->
<g id="node12" class="node"><title>Node12</title>
<polygon fill="none" stroke="#bfbfbf" points="587.5,-56.5 587.5,-75.5 655.5,-75.5 655.5,-56.5 587.5,-56.5"/>
<text text-anchor="middle" x="621.5" y="-63.5" font-family="Helvetica,sans-Serif" font-size="10.00">TRotation.h</text>
</g>
<!-- Node1&#45;&gt;Node12 -->
<g id="edge11" class="edge"><title>Node1&#45;&gt;Node12</title>
<path fill="none" stroke="midnightblue" d="M621.5,-112.446C621.5,-103.73 621.5,-94.1045 621.5,-85.9641"/>
<polygon fill="midnightblue" stroke="midnightblue" points="625,-85.6954 621.5,-75.6955 618,-85.6955 625,-85.6954"/>
</g>
<!-- Node13 -->
<g id="node13" class="node"><title>Node13</title>
<polygon fill="none" stroke="#bfbfbf" points="673.5,-56.5 673.5,-75.5 737.5,-75.5 737.5,-56.5 673.5,-56.5"/>
<text text-anchor="middle" x="705.5" y="-63.5" font-family="Helvetica,sans-Serif" font-size="10.00">TParticle.h</text>
</g>
<!-- Node1&#45;&gt;Node13 -->
<g id="edge12" class="edge"><title>Node1&#45;&gt;Node13</title>
<path fill="none" stroke="midnightblue" d="M651.352,-112.446C663.408,-102.328 676.924,-90.983 687.438,-82.1596"/>
<polygon fill="midnightblue" stroke="midnightblue" points="689.73,-84.8051 695.139,-75.6955 685.23,-79.4433 689.73,-84.8051"/>
</g>
<!-- Node14 -->
<g id="node14" class="node"><title>Node14</title>
<polygon fill="none" stroke="#bfbfbf" points="755.5,-56.5 755.5,-75.5 865.5,-75.5 865.5,-56.5 755.5,-56.5"/>
<text text-anchor="middle" x="810.5" y="-63.5" font-family="Helvetica,sans-Serif" font-size="10.00">TGeoPhysicalNode.h</text>
</g>
<!-- Node1&#45;&gt;Node14 -->
<g id="edge13" class="edge"><title>Node1&#45;&gt;Node14</title>
<path fill="none" stroke="midnightblue" d="M682.602,-114.708C714.352,-102.865 751.874,-88.8684 778.034,-79.1103"/>
<polygon fill="midnightblue" stroke="midnightblue" points="779.322,-82.3655 787.468,-75.5913 776.875,-75.807 779.322,-82.3655"/>
</g>
<!-- Node15 -->
<g id="node15" class="node"><title>Node15</title>
<polygon fill="none" stroke="#bfbfbf" points="884,-56.5 884,-75.5 957,-75.5 957,-56.5 884,-56.5"/>
<text text-anchor="middle" x="920.5" y="-63.5" font-family="Helvetica,sans-Serif" font-size="10.00">TGeoBBox.h</text>
</g>
<!-- Node1&#45;&gt;Node15 -->
<g id="edge14" class="edge"><title>Node1&#45;&gt;Node15</title>
<path fill="none" stroke="midnightblue" d="M682.729,-123.063C739.59,-109.656 822.995,-89.9903 874.41,-77.8675"/>
<polygon fill="midnightblue" stroke="midnightblue" points="875.319,-81.2491 884.249,-75.5476 873.712,-74.436 875.319,-81.2491"/>
</g>
<!-- Node16 -->
<g id="node16" class="node"><title>Node16</title>
<polygon fill="none" stroke="#bfbfbf" points="975.5,-56.5 975.5,-75.5 1017.5,-75.5 1017.5,-56.5 975.5,-56.5"/>
<text text-anchor="middle" x="996.5" y="-63.5" font-family="Helvetica,sans-Serif" font-size="10.00">TF1.h</text>
</g>
<!-- Node1&#45;&gt;Node16 -->
<g id="edge15" class="edge"><title>Node1&#45;&gt;Node16</title>
<path fill="none" stroke="midnightblue" d="M682.7,-128.769C749.912,-118.691 861.122,-100.585 965.521,-76.016"/>
<polygon fill="midnightblue" stroke="midnightblue" points="966.358,-79.4147 975.277,-73.6962 964.738,-72.6046 966.358,-79.4147"/>
</g>
<!-- Node17 -->
<g id="node17" class="node"><title>Node17</title>
<polygon fill="none" stroke="#bfbfbf" points="1035.5,-56.5 1035.5,-75.5 1089.5,-75.5 1089.5,-56.5 1035.5,-56.5"/>
<text text-anchor="middle" x="1062.5" y="-63.5" font-family="Helvetica,sans-Serif" font-size="10.00">iostream</text>
</g>
<!-- Node1&#45;&gt;Node17 -->
<g id="edge16" class="edge"><title>Node1&#45;&gt;Node17</title>
<path fill="none" stroke="midnightblue" d="M682.536,-130.055C760.064,-120.193 898.108,-101.279 1025.5,-76.0421"/>
<polygon fill="midnightblue" stroke="midnightblue" points="1026.31,-79.4488 1035.44,-74.0568 1024.94,-72.5845 1026.31,-79.4488"/>
</g>
<!-- Node3 -->
<g id="node3" class="node"><title>Node3</title>
<polygon fill="none" stroke="#bfbfbf" points="0,-0.5 0,-19.5 43,-19.5 43,-0.5 0,-0.5"/>
<text text-anchor="middle" x="21.5" y="-7.5" font-family="Helvetica,sans-Serif" font-size="10.00">cstdio</text>
</g>
<!-- Node2&#45;&gt;Node3 -->
<g id="edge2" class="edge"><title>Node2&#45;&gt;Node3</title>
<path fill="none" stroke="midnightblue" d="M141,-56.4435C117.284,-47.4249 79.739,-33.1472 53.0669,-23.0043"/>
<polygon fill="midnightblue" stroke="midnightblue" points="54.0195,-19.6221 43.4285,-19.339 51.5313,-26.165 54.0195,-19.6221"/>
</g>
<!-- Node4 -->
<g id="node4" class="node"><title>Node4</title>
<polygon fill="none" stroke="#bfbfbf" points="61,-0.5 61,-19.5 114,-19.5 114,-0.5 61,-0.5"/>
<text text-anchor="middle" x="87.5" y="-7.5" font-family="Helvetica,sans-Serif" font-size="10.00">TMath.h</text>
</g>
<!-- Node2&#45;&gt;Node4 -->
<g id="edge3" class="edge"><title>Node2&#45;&gt;Node4</title>
<path fill="none" stroke="midnightblue" d="M151.289,-56.324C139.724,-48.1066 122.125,-35.6017 108.339,-25.8069"/>
<polygon fill="midnightblue" stroke="midnightblue" points="110.112,-22.7729 99.9329,-19.8339 106.057,-28.4791 110.112,-22.7729"/>
</g>
<!-- Node5 -->
<g id="node5" class="node"><title>Node5</title>
<polygon fill="none" stroke="#bfbfbf" points="132.5,-0.5 132.5,-19.5 194.5,-19.5 194.5,-0.5 132.5,-0.5"/>
<text text-anchor="middle" x="163.5" y="-7.5" font-family="Helvetica,sans-Serif" font-size="10.00">TNamed.h</text>
</g>
<!-- Node2&#45;&gt;Node5 -->
<g id="edge4" class="edge"><title>Node2&#45;&gt;Node5</title>
<path fill="none" stroke="midnightblue" d="M163.5,-56.083C163.5,-49.0059 163.5,-38.8611 163.5,-29.9865"/>
<polygon fill="midnightblue" stroke="midnightblue" points="167,-29.751 163.5,-19.7511 160,-29.7511 167,-29.751"/>
</g>
<!-- Node6 -->
<g id="node6" class="node"><title>Node6</title>
<polygon fill="none" stroke="#bfbfbf" points="212.5,-0.5 212.5,-19.5 298.5,-19.5 298.5,-0.5 212.5,-0.5"/>
<text text-anchor="middle" x="255.5" y="-7.5" font-family="Helvetica,sans-Serif" font-size="10.00">TGeoManager.h</text>
</g>
<!-- Node2&#45;&gt;Node6 -->
<g id="edge5" class="edge"><title>Node2&#45;&gt;Node6</title>
<path fill="none" stroke="midnightblue" d="M178.281,-56.324C192.767,-47.8215 215.073,-34.7288 231.993,-24.7975"/>
<polygon fill="midnightblue" stroke="midnightblue" points="233.903,-27.735 240.755,-19.6545 230.359,-21.6981 233.903,-27.735"/>
</g>
<!-- Node7 -->
<g id="node7" class="node"><title>Node7</title>
<polygon fill="none" stroke="#bfbfbf" points="317,-0.5 317,-19.5 382,-19.5 382,-0.5 317,-0.5"/>
<text text-anchor="middle" x="349.5" y="-7.5" font-family="Helvetica,sans-Serif" font-size="10.00">TVector3.h</text>
</g>
<!-- Node2&#45;&gt;Node7 -->
<g id="edge6" class="edge"><title>Node2&#45;&gt;Node7</title>
<path fill="none" stroke="midnightblue" d="M192.972,-56.4435C224.671,-47.2406 275.232,-32.5617 310.275,-22.3879"/>
<polygon fill="midnightblue" stroke="midnightblue" points="311.538,-25.6658 320.166,-19.5164 309.586,-18.9434 311.538,-25.6658"/>
</g>
</g>
</svg>
