<?xml version="1.0" encoding="UTF-8" standalone="no"?>
<!DOCTYPE svg PUBLIC "-//W3C//DTD SVG 1.1//EN"
 "http://www.w3.org/Graphics/SVG/1.1/DTD/svg11.dtd">
<!-- Generated by graphviz version 2.38.0 (20140413.2041)
 -->
<!-- Title: o2::algorithm::Composite&lt; HeaderT, TrailerT &gt; Pages: 1 -->
<svg width="291pt" height="248pt"
 viewBox="0.00 0.00 291.00 248.00" xmlns="http://www.w3.org/2000/svg" xmlns:xlink="http://www.w3.org/1999/xlink">
<g id="graph0" class="graph" transform="scale(1 1) rotate(0) translate(4 244)">
<title>o2::algorithm::Composite&lt; HeaderT, TrailerT &gt;</title>
<!-- Node1 -->
<g id="node1" class="node"><title>Node1</title>
<polygon fill="#bfbfbf" stroke="black" points="35.5,-0.5 35.5,-112.5 161.5,-112.5 161.5,-0.5 35.5,-0.5"/>
<text text-anchor="start" x="43.5" y="-100.5" font-family="Helvetica,sans-Serif" font-size="10.00">o2::algorithm::Composite</text>
<text text-anchor="middle" x="98.5" y="-89.5" font-family="Helvetica,sans-Serif" font-size="10.00">&lt; HeaderT, TrailerT &gt;</text>
<polyline fill="none" stroke="black" points="35.5,-82.5 161.5,-82.5 "/>
<text text-anchor="middle" x="98.5" y="-70.5" font-family="Helvetica,sans-Serif" font-size="10.00"> </text>
<polyline fill="none" stroke="black" points="35.5,-63.5 161.5,-63.5 "/>
<text text-anchor="start" x="43.5" y="-51.5" font-family="Helvetica,sans-Serif" font-size="10.00">+ Composite()</text>
<text text-anchor="start" x="43.5" y="-40.5" font-family="Helvetica,sans-Serif" font-size="10.00">+ Composite()</text>
<text text-anchor="start" x="43.5" y="-29.5" font-family="Helvetica,sans-Serif" font-size="10.00">+ getLength()</text>
<text text-anchor="start" x="43.5" y="-18.5" font-family="Helvetica,sans-Serif" font-size="10.00">+ getDataLength()</text>
<text text-anchor="start" x="43.5" y="-7.5" font-family="Helvetica,sans-Serif" font-size="10.00">+ insert()</text>
</g>
<!-- Node2 -->
<g id="node2" class="node"><title>Node2</title>
<polygon fill="none" stroke="#bfbfbf" points="0,-182.5 0,-239.5 35,-239.5 35,-182.5 0,-182.5"/>
<text text-anchor="middle" x="17.5" y="-227.5" font-family="Helvetica,sans-Serif" font-size="10.00">char</text>
<polyline fill="none" stroke="#bfbfbf" points="0,-220.5 35,-220.5 "/>
<text text-anchor="middle" x="17.5" y="-208.5" font-family="Helvetica,sans-Serif" font-size="10.00"> </text>
<polyline fill="none" stroke="#bfbfbf" points="0,-201.5 35,-201.5 "/>
<text text-anchor="middle" x="17.5" y="-189.5" font-family="Helvetica,sans-Serif" font-size="10.00"> </text>
</g>
<!-- Node2&#45;&gt;Node1 -->
<g id="edge1" class="edge"><title>Node2&#45;&gt;Node1</title>
<path fill="none" stroke="#404040" d="M20.4869,-182.193C22.9751,-166.525 27.4679,-146.957 35.5,-131 36.807,-128.403 38.225,-125.822 39.733,-123.266"/>
<polygon fill="none" stroke="#404040" points="39.8936,-123.016 39.7757,-115.806 46.3858,-112.924 46.5038,-120.134 39.8936,-123.016"/>
<text text-anchor="middle" x="49.5" y="-145" font-family="Helvetica,sans-Serif" font-size="10.00"> +data</text>
</g>
<!-- Node3 -->
<g id="node3" class="node"><title>Node3</title>
<polygon fill="none" stroke="#bfbfbf" points="53,-182.5 53,-239.5 88,-239.5 88,-182.5 53,-182.5"/>
<text text-anchor="middle" x="70.5" y="-227.5" font-family="Helvetica,sans-Serif" font-size="10.00">type</text>
<polyline fill="none" stroke="#bfbfbf" points="53,-220.5 88,-220.5 "/>
<text text-anchor="middle" x="70.5" y="-208.5" font-family="Helvetica,sans-Serif" font-size="10.00"> </text>
<polyline fill="none" stroke="#bfbfbf" points="53,-201.5 88,-201.5 "/>
<text text-anchor="middle" x="70.5" y="-189.5" font-family="Helvetica,sans-Serif" font-size="10.00"> </text>
</g>
<!-- Node3&#45;&gt;Node1 -->
<g id="edge2" class="edge"><title>Node3&#45;&gt;Node1</title>
<path fill="none" stroke="#404040" d="M68.5751,-182.357C68.0795,-167.091 68.3908,-147.861 71.5,-131 71.8987,-128.838 72.3547,-126.656 72.8593,-124.465"/>
<polygon fill="none" stroke="#404040" points="72.8965,-124.324 70.5669,-117.5 75.9704,-112.725 78.3,-119.549 72.8965,-124.324"/>
<text text-anchor="middle" x="88.5" y="-145" font-family="Helvetica,sans-Serif" font-size="10.00"> +trailer</text>
</g>
<!-- Node4 -->
<g id="node4" class="node"><title>Node4</title>
<g id="a_node4"><a xlink:href="../../dd/de2/classsize__t.html" target="_top" xlink:title="{size_t\n||}">
<polygon fill="none" stroke="black" points="106,-182.5 106,-239.5 149,-239.5 149,-182.5 106,-182.5"/>
<text text-anchor="middle" x="127.5" y="-227.5" font-family="Helvetica,sans-Serif" font-size="10.00">size_t</text>
<polyline fill="none" stroke="black" points="106,-220.5 149,-220.5 "/>
<text text-anchor="middle" x="127.5" y="-208.5" font-family="Helvetica,sans-Serif" font-size="10.00"> </text>
<polyline fill="none" stroke="black" points="106,-201.5 149,-201.5 "/>
<text text-anchor="middle" x="127.5" y="-189.5" font-family="Helvetica,sans-Serif" font-size="10.00"> </text>
</a>
</g>
</g>
<!-- Node4&#45;&gt;Node1 -->
<g id="edge3" class="edge"><title>Node4&#45;&gt;Node1</title>
<path fill="none" stroke="#404040" d="M122.248,-182.383C119.165,-166.168 115.123,-144.916 111.251,-124.552"/>
<polygon fill="none" stroke="#404040" points="111.241,-124.498 106.19,-119.351 108.999,-112.709 114.049,-117.856 111.241,-124.498"/>
<text text-anchor="middle" x="159.5" y="-156" font-family="Helvetica,sans-Serif" font-size="10.00"> +compositeLength</text>
<text text-anchor="middle" x="159.5" y="-145" font-family="Helvetica,sans-Serif" font-size="10.00">+trailerLength</text>
<text text-anchor="middle" x="159.5" y="-134" font-family="Helvetica,sans-Serif" font-size="10.00">+dataLength</text>
</g>
<!-- Node5 -->
<g id="node5" class="node"><title>Node5</title>
<polygon fill="none" stroke="#bfbfbf" points="186,-182.5 186,-239.5 283,-239.5 283,-182.5 186,-182.5"/>
<text text-anchor="middle" x="234.5" y="-227.5" font-family="Helvetica,sans-Serif" font-size="10.00">const HeaderType</text>
<polyline fill="none" stroke="#bfbfbf" points="186,-220.5 283,-220.5 "/>
<text text-anchor="middle" x="234.5" y="-208.5" font-family="Helvetica,sans-Serif" font-size="10.00"> </text>
<polyline fill="none" stroke="#bfbfbf" points="186,-201.5 283,-201.5 "/>
<text text-anchor="middle" x="234.5" y="-189.5" font-family="Helvetica,sans-Serif" font-size="10.00"> </text>
</g>
<!-- Node5&#45;&gt;Node1 -->
<g id="edge4" class="edge"><title>Node5&#45;&gt;Node1</title>
<path fill="none" stroke="#404040" d="M228.807,-182.327C224.447,-166.138 217.15,-146 205.5,-131 196.119,-118.922 184.193,-108.082 171.73,-98.6736"/>
<polygon fill="none" stroke="#404040" points="171.405,-98.4397 164.198,-98.1877 161.659,-91.4384 168.866,-91.6904 171.405,-98.4397"/>
<text text-anchor="middle" x="242" y="-145" font-family="Helvetica,sans-Serif" font-size="10.00"> +header</text>
</g>
</g>
</svg>
