<?xml version="1.0" encoding="UTF-8" standalone="no"?>
<!DOCTYPE svg PUBLIC "-//W3C//DTD SVG 1.1//EN"
 "http://www.w3.org/Graphics/SVG/1.1/DTD/svg11.dtd">
<!-- Generated by graphviz version 2.38.0 (20140413.2041)
 -->
<!-- Title: /home/travis/build/AliceO2Group/AliceO2/Detectors/ITSMFT/ITS/tracking/include/ITStracking/json.h Pages: 1 -->
<!--zoomable 117 -->
<svg id="main" version="1.1" xmlns="http://www.w3.org/2000/svg" xmlns:xlink="http://www.w3.org/1999/xlink" xml:space="preserve" onload="init(evt)">
<style type="text/css"><![CDATA[
.edge:hover path { stroke: red; }
.edge:hover polygon { stroke: red; fill: red; }
]]></style>
<script type="text/javascript"><![CDATA[
var edges = document.getElementsByTagName('g');
if (edges && edges.length) {
  for (var i=0;i<edges.length;i++) {
    if (edges[i].id.substr(0,4)=='edge') {
      edges[i].setAttribute('class','edge');
    }
  }
}
]]></script>
        <defs>
                <circle id="rim" cx="0" cy="0" r="7"/>
                <circle id="rim2" cx="0" cy="0" r="3.5"/>
                <g id="zoomPlus">
                        <use xlink:href="#rim" fill="#404040">
                                <set attributeName="fill" to="#808080" begin="zoomplus.mouseover" end="zoomplus.mouseout"/>
                        </use>
                        <path d="M-4,0h8M0,-4v8" fill="none" stroke="white" stroke-width="1.5" pointer-events="none"/>
                </g>
                <g id="zoomMin">
                        <use xlink:href="#rim" fill="#404040">
                                <set attributeName="fill" to="#808080" begin="zoomminus.mouseover" end="zoomminus.mouseout"/>
                        </use>
                        <path d="M-4,0h8" fill="none" stroke="white" stroke-width="1.5" pointer-events="none"/>
                </g>
                <g id="dirArrow">
                        <path fill="none" stroke="white" stroke-width="1.5" d="M0,-3.0v7 M-2.5,-0.5L0,-3.0L2.5,-0.5"/>
                </g>
               <g id="resetDef">
                       <use xlink:href="#rim2" fill="#404040">
                               <set attributeName="fill" to="#808080" begin="reset.mouseover" end="reset.mouseout"/>
                       </use>
               </g>
        </defs>

<script type="text/javascript">
var viewWidth = 2200;
var viewHeight = 117;
var sectionId = 'dynsection-0';
</script>
<script xlink:href="../../svgpan.js"/>
<svg id="graph" class="graph">
<g id="viewport">
<title>/home/travis/build/AliceO2Group/AliceO2/Detectors/ITSMFT/ITS/tracking/include/ITStracking/json.h</title>
<!-- Node1 -->
<g id="node1" class="node"><title>Node1</title>
<polygon fill="#bfbfbf" stroke="black" points="1014,-56.5 1014,-108.5 1184,-108.5 1184,-56.5 1014,-56.5"/>
<text text-anchor="start" x="1022" y="-96.5" font-family="Helvetica,sans-Serif" font-size="10.00">/home/travis/build</text>
<text text-anchor="start" x="1022" y="-85.5" font-family="Helvetica,sans-Serif" font-size="10.00">/AliceO2Group/AliceO2</text>
<text text-anchor="start" x="1022" y="-74.5" font-family="Helvetica,sans-Serif" font-size="10.00">/Detectors/ITSMFT/ITS</text>
<text text-anchor="middle" x="1099" y="-63.5" font-family="Helvetica,sans-Serif" font-size="10.00">/tracking/include/ITStracking/json.h</text>
</g>
<!-- Node2 -->
<g id="node2" class="node"><title>Node2</title>
<polygon fill="none" stroke="#bfbfbf" points="0,-0.5 0,-19.5 56,-19.5 56,-0.5 0,-0.5"/>
<text text-anchor="middle" x="28" y="-7.5" font-family="Helvetica,sans-Serif" font-size="10.00">algorithm</text>
</g>
<!-- Node1&#45;&gt;Node2 -->
<g id="edge1" class="edge"><title>Node1&#45;&gt;Node2</title>
<path fill="none" stroke="midnightblue" d="M1013.69,-81.5775C837.759,-80.6187 422.037,-72.5781 66.16,-19.8971"/>
<polygon fill="midnightblue" stroke="midnightblue" points="66.586,-16.4219 56.1785,-18.4053 65.5513,-23.3451 66.586,-16.4219"/>
</g>
<!-- Node3 -->
<g id="node3" class="node"><title>Node3</title>
<polygon fill="none" stroke="#bfbfbf" points="74.5,-0.5 74.5,-19.5 123.5,-19.5 123.5,-0.5 74.5,-0.5"/>
<text text-anchor="middle" x="99" y="-7.5" font-family="Helvetica,sans-Serif" font-size="10.00">cassert</text>
</g>
<!-- Node1&#45;&gt;Node3 -->
<g id="edge2" class="edge"><title>Node1&#45;&gt;Node3</title>
<path fill="none" stroke="midnightblue" d="M1013.74,-81.6353C846.356,-80.6909 463.165,-72.5546 133.975,-19.8062"/>
<polygon fill="midnightblue" stroke="midnightblue" points="134.193,-16.2959 123.762,-18.1524 133.074,-23.2059 134.193,-16.2959"/>
</g>
<!-- Node4 -->
<g id="node4" class="node"><title>Node4</title>
<polygon fill="none" stroke="#bfbfbf" points="142,-0.5 142,-19.5 192,-19.5 192,-0.5 142,-0.5"/>
<text text-anchor="middle" x="167" y="-7.5" font-family="Helvetica,sans-Serif" font-size="10.00">ciso646</text>
</g>
<!-- Node1&#45;&gt;Node4 -->
<g id="edge3" class="edge"><title>Node1&#45;&gt;Node4</title>
<path fill="none" stroke="midnightblue" d="M1013.88,-81.0478C855.474,-79.0331 504.827,-69.0554 202.42,-19.9138"/>
<polygon fill="midnightblue" stroke="midnightblue" points="202.57,-16.3916 192.135,-18.2242 201.436,-23.299 202.57,-16.3916"/>
</g>
<!-- Node5 -->
<g id="node5" class="node"><title>Node5</title>
<polygon fill="none" stroke="#bfbfbf" points="210.5,-0.5 210.5,-19.5 259.5,-19.5 259.5,-0.5 210.5,-0.5"/>
<text text-anchor="middle" x="235" y="-7.5" font-family="Helvetica,sans-Serif" font-size="10.00">cstddef</text>
</g>
<!-- Node1&#45;&gt;Node5 -->
<g id="edge4" class="edge"><title>Node1&#45;&gt;Node5</title>
<path fill="none" stroke="midnightblue" d="M1013.71,-80.5819C864.273,-77.7924 545.555,-66.5832 269.949,-20.0411"/>
<polygon fill="midnightblue" stroke="midnightblue" points="270.198,-16.533 259.751,-18.2994 269.019,-23.4331 270.198,-16.533"/>
</g>
<!-- Node6 -->
<g id="node6" class="node"><title>Node6</title>
<polygon fill="none" stroke="#bfbfbf" points="277.5,-0.5 277.5,-19.5 336.5,-19.5 336.5,-0.5 277.5,-0.5"/>
<text text-anchor="middle" x="307" y="-7.5" font-family="Helvetica,sans-Serif" font-size="10.00">functional</text>
</g>
<!-- Node1&#45;&gt;Node6 -->
<g id="edge5" class="edge"><title>Node1&#45;&gt;Node6</title>
<path fill="none" stroke="midnightblue" d="M1013.98,-78.7529C875.736,-73.3634 593.646,-58.525 347.021,-20.1149"/>
<polygon fill="midnightblue" stroke="midnightblue" points="347.209,-16.6015 336.786,-18.5041 346.12,-23.5164 347.209,-16.6015"/>
</g>
<!-- Node7 -->
<g id="node7" class="node"><title>Node7</title>
<polygon fill="none" stroke="#bfbfbf" points="354.5,-0.5 354.5,-19.5 427.5,-19.5 427.5,-0.5 354.5,-0.5"/>
<text text-anchor="middle" x="391" y="-7.5" font-family="Helvetica,sans-Serif" font-size="10.00">initializer_list</text>
</g>
<!-- Node1&#45;&gt;Node7 -->
<g id="edge6" class="edge"><title>Node1&#45;&gt;Node7</title>
<path fill="none" stroke="midnightblue" d="M1013.89,-76.4716C889.36,-68.4773 650.092,-50.7045 437.867,-20.148"/>
<polygon fill="midnightblue" stroke="midnightblue" points="438.182,-16.657 427.782,-18.6832 437.175,-23.5843 438.182,-16.657"/>
</g>
<!-- Node8 -->
<g id="node8" class="node"><title>Node8</title>
<polygon fill="none" stroke="#bfbfbf" points="445.5,-0.5 445.5,-19.5 490.5,-19.5 490.5,-0.5 445.5,-0.5"/>
<text text-anchor="middle" x="468" y="-7.5" font-family="Helvetica,sans-Serif" font-size="10.00">iosfwd</text>
</g>
<!-- Node1&#45;&gt;Node8 -->
<g id="edge7" class="edge"><title>Node1&#45;&gt;Node8</title>
<path fill="none" stroke="midnightblue" d="M1013.83,-77.6125C898.935,-71.2905 687.989,-55.8849 500.606,-20.0091"/>
<polygon fill="midnightblue" stroke="midnightblue" points="501.055,-16.5309 490.571,-18.0636 499.722,-23.4029 501.055,-16.5309"/>
</g>
<!-- Node9 -->
<g id="node9" class="node"><title>Node9</title>
<polygon fill="none" stroke="#bfbfbf" points="508.5,-0.5 508.5,-19.5 555.5,-19.5 555.5,-0.5 508.5,-0.5"/>
<text text-anchor="middle" x="532" y="-7.5" font-family="Helvetica,sans-Serif" font-size="10.00">iterator</text>
</g>
<!-- Node1&#45;&gt;Node9 -->
<g id="edge8" class="edge"><title>Node1&#45;&gt;Node9</title>
<path fill="none" stroke="midnightblue" d="M1013.57,-75.9067C909.597,-68.152 728.703,-51.6115 565.867,-20.1086"/>
<polygon fill="midnightblue" stroke="midnightblue" points="566.15,-16.5976 555.664,-18.1101 564.805,-23.4671 566.15,-16.5976"/>
</g>
<!-- Node10 -->
<g id="node10" class="node"><title>Node10</title>
<polygon fill="none" stroke="#bfbfbf" points="573.5,-0.5 573.5,-19.5 624.5,-19.5 624.5,-0.5 573.5,-0.5"/>
<text text-anchor="middle" x="599" y="-7.5" font-family="Helvetica,sans-Serif" font-size="10.00">numeric</text>
</g>
<!-- Node1&#45;&gt;Node10 -->
<g id="edge9" class="edge"><title>Node1&#45;&gt;Node10</title>
<path fill="none" stroke="midnightblue" d="M1013.86,-73.5581C922.226,-64.2646 772.133,-46.8884 634.431,-20.0805"/>
<polygon fill="midnightblue" stroke="midnightblue" points="635.026,-16.6306 624.538,-18.134 633.675,-23.4989 635.026,-16.6306"/>
</g>
<!-- Node11 -->
<g id="node11" class="node"><title>Node11</title>
<polygon fill="none" stroke="#bfbfbf" points="642.5,-0.5 642.5,-19.5 683.5,-19.5 683.5,-0.5 642.5,-0.5"/>
<text text-anchor="middle" x="663" y="-7.5" font-family="Helvetica,sans-Serif" font-size="10.00">string</text>
</g>
<!-- Node1&#45;&gt;Node11 -->
<g id="edge10" class="edge"><title>Node1&#45;&gt;Node11</title>
<path fill="none" stroke="midnightblue" d="M1013.98,-72.1656C933.648,-62.5367 809.729,-45.5986 693.352,-19.7817"/>
<polygon fill="midnightblue" stroke="midnightblue" points="694.079,-16.358 683.556,-17.5833 692.546,-23.1882 694.079,-16.358"/>
</g>
<!-- Node12 -->
<g id="node12" class="node"><title>Node12</title>
<polygon fill="none" stroke="#bfbfbf" points="702,-0.5 702,-19.5 742,-19.5 742,-0.5 702,-0.5"/>
<text text-anchor="middle" x="722" y="-7.5" font-family="Helvetica,sans-Serif" font-size="10.00">utility</text>
</g>
<!-- Node1&#45;&gt;Node12 -->
<g id="edge11" class="edge"><title>Node1&#45;&gt;Node12</title>
<path fill="none" stroke="midnightblue" d="M1014,-69.5411C945.506,-59.1992 846.665,-42.6864 751.935,-19.9835"/>
<polygon fill="midnightblue" stroke="midnightblue" points="752.734,-16.5758 742.191,-17.6225 751.085,-23.379 752.734,-16.5758"/>
</g>
<!-- Node13 -->
<g id="node13" class="node"><title>Node13</title>
<polygon fill="none" stroke="#bfbfbf" points="760,-0.5 760,-19.5 806,-19.5 806,-0.5 760,-0.5"/>
<text text-anchor="middle" x="783" y="-7.5" font-family="Helvetica,sans-Serif" font-size="10.00">cstdint</text>
</g>
<!-- Node1&#45;&gt;Node13 -->
<g id="edge12" class="edge"><title>Node1&#45;&gt;Node13</title>
<path fill="none" stroke="midnightblue" d="M1013.87,-64.4781C959.725,-53.3192 887.941,-37.9172 815.752,-20.0751"/>
<polygon fill="midnightblue" stroke="midnightblue" points="816.577,-16.6737 806.027,-17.6573 814.887,-23.4668 816.577,-16.6737"/>
</g>
<!-- Node14 -->
<g id="node14" class="node"><title>Node14</title>
<polygon fill="none" stroke="#bfbfbf" points="824.5,-0.5 824.5,-19.5 859.5,-19.5 859.5,-0.5 824.5,-0.5"/>
<text text-anchor="middle" x="842" y="-7.5" font-family="Helvetica,sans-Serif" font-size="10.00">map</text>
</g>
<!-- Node1&#45;&gt;Node14 -->
<g id="edge13" class="edge"><title>Node1&#45;&gt;Node14</title>
<path fill="none" stroke="midnightblue" d="M1014,-60.0814C972.926,-49.4196 922.762,-35.9431 869.329,-19.9651"/>
<polygon fill="midnightblue" stroke="midnightblue" points="870.254,-16.5887 859.67,-17.0601 868.238,-23.292 870.254,-16.5887"/>
</g>
<!-- Node15 -->
<g id="node15" class="node"><title>Node15</title>
<polygon fill="none" stroke="#bfbfbf" points="878,-0.5 878,-19.5 930,-19.5 930,-0.5 878,-0.5"/>
<text text-anchor="middle" x="904" y="-7.5" font-family="Helvetica,sans-Serif" font-size="10.00">memory</text>
</g>
<!-- Node1&#45;&gt;Node15 -->
<g id="edge14" class="edge"><title>Node1&#45;&gt;Node15</title>
<path fill="none" stroke="midnightblue" d="M1029.7,-56.4458C998.196,-45.0555 962.393,-32.1112 937.078,-22.9588"/>
<polygon fill="midnightblue" stroke="midnightblue" points="938.18,-19.6355 927.585,-19.527 935.799,-26.2185 938.18,-19.6355"/>
</g>
<!-- Node16 -->
<g id="node16" class="node"><title>Node16</title>
<polygon fill="none" stroke="#bfbfbf" points="948,-0.5 948,-19.5 992,-19.5 992,-0.5 948,-0.5"/>
<text text-anchor="middle" x="970" y="-7.5" font-family="Helvetica,sans-Serif" font-size="10.00">vector</text>
</g>
<!-- Node1&#45;&gt;Node16 -->
<g id="edge15" class="edge"><title>Node1&#45;&gt;Node16</title>
<path fill="none" stroke="midnightblue" d="M1053.16,-56.4458C1033.42,-45.6603 1011.14,-33.4814 994.607,-24.448"/>
<polygon fill="midnightblue" stroke="midnightblue" points="996.056,-21.2514 985.603,-19.527 992.699,-27.394 996.056,-21.2514"/>
</g>
<!-- Node17 -->
<g id="node17" class="node"><title>Node17</title>
<polygon fill="none" stroke="#bfbfbf" points="1010,-0.5 1010,-19.5 1050,-19.5 1050,-0.5 1010,-0.5"/>
<text text-anchor="middle" x="1030" y="-7.5" font-family="Helvetica,sans-Serif" font-size="10.00">limits</text>
</g>
<!-- Node1&#45;&gt;Node17 -->
<g id="edge16" class="edge"><title>Node1&#45;&gt;Node17</title>
<path fill="none" stroke="midnightblue" d="M1074.48,-56.4458C1064.87,-46.6281 1054.13,-35.6559 1045.61,-26.9524"/>
<polygon fill="midnightblue" stroke="midnightblue" points="1048.01,-24.3941 1038.51,-19.6955 1043,-29.2903 1048.01,-24.3941"/>
</g>
<!-- Node18 -->
<g id="node18" class="node"><title>Node18</title>
<polygon fill="none" stroke="#bfbfbf" points="1068,-0.5 1068,-19.5 1130,-19.5 1130,-0.5 1068,-0.5"/>
<text text-anchor="middle" x="1099" y="-7.5" font-family="Helvetica,sans-Serif" font-size="10.00">type_traits</text>
</g>
<!-- Node1&#45;&gt;Node18 -->
<g id="edge17" class="edge"><title>Node1&#45;&gt;Node18</title>
<path fill="none" stroke="midnightblue" d="M1099,-56.4458C1099,-47.7301 1099,-38.1045 1099,-29.9641"/>
<polygon fill="midnightblue" stroke="midnightblue" points="1102.5,-29.6954 1099,-19.6955 1095.5,-29.6955 1102.5,-29.6954"/>
</g>
<!-- Node19 -->
<g id="node19" class="node"><title>Node19</title>
<polygon fill="none" stroke="#bfbfbf" points="1148.5,-0.5 1148.5,-19.5 1207.5,-19.5 1207.5,-0.5 1148.5,-0.5"/>
<text text-anchor="middle" x="1178" y="-7.5" font-family="Helvetica,sans-Serif" font-size="10.00">exception</text>
</g>
<!-- Node1&#45;&gt;Node19 -->
<g id="edge18" class="edge"><title>Node1&#45;&gt;Node19</title>
<path fill="none" stroke="midnightblue" d="M1127.07,-56.4458C1138.3,-46.4278 1150.87,-35.2075 1160.72,-26.4224"/>
<polygon fill="midnightblue" stroke="midnightblue" points="1163.13,-28.9652 1168.26,-19.6955 1158.46,-23.7424 1163.13,-28.9652"/>
</g>
<!-- Node20 -->
<g id="node20" class="node"><title>Node20</title>
<polygon fill="none" stroke="#bfbfbf" points="1225.5,-0.5 1225.5,-19.5 1284.5,-19.5 1284.5,-0.5 1225.5,-0.5"/>
<text text-anchor="middle" x="1255" y="-7.5" font-family="Helvetica,sans-Serif" font-size="10.00">stdexcept</text>
</g>
<!-- Node1&#45;&gt;Node20 -->
<g id="edge19" class="edge"><title>Node1&#45;&gt;Node20</title>
<path fill="none" stroke="midnightblue" d="M1154.44,-56.4458C1178.97,-45.3579 1206.77,-32.7974 1226.91,-23.6957"/>
<polygon fill="midnightblue" stroke="midnightblue" points="1228.46,-26.8347 1236.13,-19.527 1225.58,-20.4558 1228.46,-26.8347"/>
</g>
<!-- Node21 -->
<g id="node21" class="node"><title>Node21</title>
<polygon fill="none" stroke="#bfbfbf" points="1303,-0.5 1303,-19.5 1341,-19.5 1341,-0.5 1303,-0.5"/>
<text text-anchor="middle" x="1322" y="-7.5" font-family="Helvetica,sans-Serif" font-size="10.00">array</text>
</g>
<!-- Node1&#45;&gt;Node21 -->
<g id="edge20" class="edge"><title>Node1&#45;&gt;Node21</title>
<path fill="none" stroke="midnightblue" d="M1178.73,-56.4642C1211.57,-46.1237 1250.23,-33.9191 1292.96,-20.3201"/>
<polygon fill="midnightblue" stroke="midnightblue" points="1294.26,-23.5804 1302.72,-17.2109 1292.13,-16.9105 1294.26,-23.5804"/>
</g>
<!-- Node22 -->
<g id="node22" class="node"><title>Node22</title>
<polygon fill="none" stroke="#bfbfbf" points="1359.5,-0.5 1359.5,-19.5 1426.5,-19.5 1426.5,-0.5 1359.5,-0.5"/>
<text text-anchor="middle" x="1393" y="-7.5" font-family="Helvetica,sans-Serif" font-size="10.00">forward_list</text>
</g>
<!-- Node1&#45;&gt;Node22 -->
<g id="edge21" class="edge"><title>Node1&#45;&gt;Node22</title>
<path fill="none" stroke="midnightblue" d="M1184.04,-61.1085C1238.2,-48.1198 1306.11,-31.8366 1349.53,-21.4238"/>
<polygon fill="midnightblue" stroke="midnightblue" points="1350.57,-24.7728 1359.48,-19.0374 1348.94,-17.9658 1350.57,-24.7728"/>
</g>
<!-- Node23 -->
<g id="node23" class="node"><title>Node23</title>
<polygon fill="none" stroke="#bfbfbf" points="1445,-0.5 1445,-19.5 1483,-19.5 1483,-0.5 1445,-0.5"/>
<text text-anchor="middle" x="1464" y="-7.5" font-family="Helvetica,sans-Serif" font-size="10.00">tuple</text>
</g>
<!-- Node1&#45;&gt;Node23 -->
<g id="edge22" class="edge"><title>Node1&#45;&gt;Node23</title>
<path fill="none" stroke="midnightblue" d="M1184.14,-69.1142C1250.26,-58.7675 1344.31,-42.4653 1434.93,-20.0096"/>
<polygon fill="midnightblue" stroke="midnightblue" points="1435.97,-23.3569 1444.82,-17.5304 1434.26,-16.567 1435.97,-23.3569"/>
</g>
<!-- Node24 -->
<g id="node24" class="node"><title>Node24</title>
<polygon fill="none" stroke="#bfbfbf" points="1501.5,-0.5 1501.5,-19.5 1552.5,-19.5 1552.5,-0.5 1501.5,-0.5"/>
<text text-anchor="middle" x="1527" y="-7.5" font-family="Helvetica,sans-Serif" font-size="10.00">valarray</text>
</g>
<!-- Node1&#45;&gt;Node24 -->
<g id="edge23" class="edge"><title>Node1&#45;&gt;Node24</title>
<path fill="none" stroke="midnightblue" d="M1184.14,-70.5917C1261.69,-60.1025 1379.51,-42.785 1491.34,-19.955"/>
<polygon fill="midnightblue" stroke="midnightblue" points="1492.36,-23.3184 1501.45,-17.8728 1490.95,-16.4624 1492.36,-23.3184"/>
</g>
<!-- Node25 -->
<g id="node25" class="node"><title>Node25</title>
<polygon fill="none" stroke="#bfbfbf" points="1571,-0.5 1571,-19.5 1617,-19.5 1617,-0.5 1571,-0.5"/>
<text text-anchor="middle" x="1594" y="-7.5" font-family="Helvetica,sans-Serif" font-size="10.00">cstring</text>
</g>
<!-- Node1&#45;&gt;Node25 -->
<g id="edge24" class="edge"><title>Node1&#45;&gt;Node25</title>
<path fill="none" stroke="midnightblue" d="M1184.09,-73.8585C1275.24,-64.8445 1424.17,-47.7331 1560.86,-19.9894"/>
<polygon fill="midnightblue" stroke="midnightblue" points="1561.58,-23.4131 1570.68,-17.9734 1560.18,-16.5561 1561.58,-23.4131"/>
</g>
<!-- Node26 -->
<g id="node26" class="node"><title>Node26</title>
<polygon fill="none" stroke="#bfbfbf" points="1635.5,-0.5 1635.5,-19.5 1664.5,-19.5 1664.5,-0.5 1635.5,-0.5"/>
<text text-anchor="middle" x="1650" y="-7.5" font-family="Helvetica,sans-Serif" font-size="10.00">ios</text>
</g>
<!-- Node1&#45;&gt;Node26 -->
<g id="edge25" class="edge"><title>Node1&#45;&gt;Node26</title>
<path fill="none" stroke="midnightblue" d="M1184.08,-77.9175C1287.04,-72.1673 1465.4,-57.6658 1625.43,-19.5236"/>
<polygon fill="midnightblue" stroke="midnightblue" points="1626.56,-22.8511 1635.45,-17.0966 1624.91,-16.0476 1626.56,-22.8511"/>
</g>
<!-- Node27 -->
<g id="node27" class="node"><title>Node27</title>
<polygon fill="none" stroke="#bfbfbf" points="1682.5,-0.5 1682.5,-19.5 1731.5,-19.5 1731.5,-0.5 1682.5,-0.5"/>
<text text-anchor="middle" x="1707" y="-7.5" font-family="Helvetica,sans-Serif" font-size="10.00">istream</text>
</g>
<!-- Node1&#45;&gt;Node27 -->
<g id="edge26" class="edge"><title>Node1&#45;&gt;Node27</title>
<path fill="none" stroke="midnightblue" d="M1184.38,-76.6411C1295.13,-69.3846 1494.28,-53.0865 1672.17,-20.0995"/>
<polygon fill="midnightblue" stroke="midnightblue" points="1673.05,-23.4951 1682.23,-18.2107 1671.76,-16.6152 1673.05,-23.4951"/>
</g>
<!-- Node28 -->
<g id="node28" class="node"><title>Node28</title>
<polygon fill="none" stroke="#bfbfbf" points="1749.5,-0.5 1749.5,-19.5 1796.5,-19.5 1796.5,-0.5 1749.5,-0.5"/>
<text text-anchor="middle" x="1773" y="-7.5" font-family="Helvetica,sans-Serif" font-size="10.00">clocale</text>
</g>
<!-- Node1&#45;&gt;Node28 -->
<g id="edge27" class="edge"><title>Node1&#45;&gt;Node28</title>
<path fill="none" stroke="midnightblue" d="M1184.06,-78.1898C1305.63,-72.3856 1536,-57.4051 1739.38,-20.0162"/>
<polygon fill="midnightblue" stroke="midnightblue" points="1740.15,-23.4315 1749.35,-18.1612 1738.87,-16.5496 1740.15,-23.4315"/>
</g>
<!-- Node29 -->
<g id="node29" class="node"><title>Node29</title>
<polygon fill="none" stroke="#bfbfbf" points="1814.5,-0.5 1814.5,-19.5 1859.5,-19.5 1859.5,-0.5 1814.5,-0.5"/>
<text text-anchor="middle" x="1837" y="-7.5" font-family="Helvetica,sans-Serif" font-size="10.00">cstdlib</text>
</g>
<!-- Node1&#45;&gt;Node29 -->
<g id="edge28" class="edge"><title>Node1&#45;&gt;Node29</title>
<path fill="none" stroke="midnightblue" d="M1184.07,-79.4666C1315.64,-75.1386 1576.28,-61.8527 1804.29,-19.9907"/>
<polygon fill="midnightblue" stroke="midnightblue" points="1805.24,-23.3733 1814.44,-18.1047 1803.97,-16.4912 1805.24,-23.3733"/>
</g>
<!-- Node30 -->
<g id="node30" class="node"><title>Node30</title>
<polygon fill="none" stroke="#bfbfbf" points="1878,-0.5 1878,-19.5 1928,-19.5 1928,-0.5 1878,-0.5"/>
<text text-anchor="middle" x="1903" y="-7.5" font-family="Helvetica,sans-Serif" font-size="10.00">iomanip</text>
</g>
<!-- Node1&#45;&gt;Node30 -->
<g id="edge29" class="edge"><title>Node1&#45;&gt;Node30</title>
<path fill="none" stroke="midnightblue" d="M1184.22,-79.6689C1324.99,-75.5501 1614.86,-62.449 1867.74,-19.9124"/>
<polygon fill="midnightblue" stroke="midnightblue" points="1868.59,-23.3192 1877.86,-18.1918 1867.41,-16.4184 1868.59,-23.3192"/>
</g>
<!-- Node31 -->
<g id="node31" class="node"><title>Node31</title>
<polygon fill="none" stroke="#bfbfbf" points="1946,-0.5 1946,-19.5 1998,-19.5 1998,-0.5 1946,-0.5"/>
<text text-anchor="middle" x="1972" y="-7.5" font-family="Helvetica,sans-Serif" font-size="10.00">sstream</text>
</g>
<!-- Node1&#45;&gt;Node31 -->
<g id="edge30" class="edge"><title>Node1&#45;&gt;Node31</title>
<path fill="none" stroke="midnightblue" d="M1184.04,-80.2585C1334.31,-76.9694 1656.54,-65.0016 1935.82,-19.9083"/>
<polygon fill="midnightblue" stroke="midnightblue" points="1936.43,-23.3551 1945.73,-18.2902 1935.3,-16.4464 1936.43,-23.3551"/>
</g>
<!-- Node32 -->
<g id="node32" class="node"><title>Node32</title>
<polygon fill="none" stroke="#bfbfbf" points="2016,-0.5 2016,-19.5 2060,-19.5 2060,-0.5 2016,-0.5"/>
<text text-anchor="middle" x="2038" y="-7.5" font-family="Helvetica,sans-Serif" font-size="10.00">cmath</text>
</g>
<!-- Node1&#45;&gt;Node32 -->
<g id="edge31" class="edge"><title>Node1&#45;&gt;Node32</title>
<path fill="none" stroke="midnightblue" d="M1184.23,-81.802C1344.21,-81.0456 1700.14,-73.0873 2005.84,-19.8211"/>
<polygon fill="midnightblue" stroke="midnightblue" points="2006.54,-23.2518 2015.78,-18.0698 2005.33,-16.3579 2006.54,-23.2518"/>
</g>
<!-- Node33 -->
<g id="node33" class="node"><title>Node33</title>
<polygon fill="none" stroke="#bfbfbf" points="2078,-0.5 2078,-19.5 2130,-19.5 2130,-0.5 2078,-0.5"/>
<text text-anchor="middle" x="2104" y="-7.5" font-family="Helvetica,sans-Serif" font-size="10.00">ostream</text>
</g>
<!-- Node1&#45;&gt;Node33 -->
<g id="edge32" class="edge"><title>Node1&#45;&gt;Node33</title>
<path fill="none" stroke="midnightblue" d="M1184.25,-81.468C1352.1,-80.2362 1737.07,-71.6255 2067.49,-19.9391"/>
<polygon fill="midnightblue" stroke="midnightblue" points="2068.41,-23.3372 2077.74,-18.3188 2067.31,-16.423 2068.41,-23.3372"/>
</g>
<!-- Node34 -->
<g id="node34" class="node"><title>Node34</title>
<polygon fill="none" stroke="#bfbfbf" points="2148.5,-0.5 2148.5,-19.5 2191.5,-19.5 2191.5,-0.5 2148.5,-0.5"/>
<text text-anchor="middle" x="2170" y="-7.5" font-family="Helvetica,sans-Serif" font-size="10.00">cstdio</text>
</g>
<!-- Node1&#45;&gt;Node34 -->
<g id="edge33" class="edge"><title>Node1&#45;&gt;Node34</title>
<path fill="none" stroke="midnightblue" d="M1184.24,-78.9148C1395.07,-72.1324 1937.78,-52.2089 2138.59,-19.5829"/>
<polygon fill="midnightblue" stroke="midnightblue" points="2139.18,-23.032 2148.46,-17.9196 2138.02,-16.1293 2139.18,-23.032"/>
</g>
</g>
</svg>
        <g id="navigator" transform="translate(0 0)" fill="#404254">
                <rect fill="#f2f5e9" fill-opacity="0.5" stroke="#606060" stroke-width=".5" x="0" y="0" width="60" height="60"/>
                <use id="zoomplus" xlink:href="#zoomPlus" x="17" y="9" onmousedown="handleZoom(evt,'in')"/>
                <use id="zoomminus" xlink:href="#zoomMin" x="42" y="9" onmousedown="handleZoom(evt,'out')"/>
                <use id="reset" xlink:href="#resetDef" x="30" y="36" onmousedown="handleReset()"/>
                <g id="arrowUp" xlink:href="#dirArrow" transform="translate(30 24)" onmousedown="handlePan(0,-1)">
                  <use xlink:href="#rim" fill="#404040">
                        <set attributeName="fill" to="#808080" begin="arrowUp.mouseover" end="arrowUp.mouseout"/>
                  </use>
                  <path fill="none" stroke="white" stroke-width="1.5" d="M0,-3.0v7 M-2.5,-0.5L0,-3.0L2.5,-0.5"/>
                </g>
                <g id="arrowRight" xlink:href="#dirArrow" transform="rotate(90) translate(36 -43)" onmousedown="handlePan(1,0)">
                  <use xlink:href="#rim" fill="#404040">
                        <set attributeName="fill" to="#808080" begin="arrowRight.mouseover" end="arrowRight.mouseout"/>
                  </use>
                  <path fill="none" stroke="white" stroke-width="1.5" d="M0,-3.0v7 M-2.5,-0.5L0,-3.0L2.5,-0.5"/>
                </g>
                <g id="arrowDown" xlink:href="#dirArrow" transform="rotate(180) translate(-30 -48)" onmousedown="handlePan(0,1)">
                  <use xlink:href="#rim" fill="#404040">
                        <set attributeName="fill" to="#808080" begin="arrowDown.mouseover" end="arrowDown.mouseout"/>
                  </use>
                  <path fill="none" stroke="white" stroke-width="1.5" d="M0,-3.0v7 M-2.5,-0.5L0,-3.0L2.5,-0.5"/>
                </g>
                <g id="arrowLeft" xlink:href="#dirArrow" transform="rotate(270) translate(-36 17)" onmousedown="handlePan(-1,0)">
                  <use xlink:href="#rim" fill="#404040">
                        <set attributeName="fill" to="#808080" begin="arrowLeft.mouseover" end="arrowLeft.mouseout"/>
                  </use>
                  <path fill="none" stroke="white" stroke-width="1.5" d="M0,-3.0v7 M-2.5,-0.5L0,-3.0L2.5,-0.5"/>
                </g>
        </g>
        <svg viewBox="0 0 15 15" width="100%" height="30px" preserveAspectRatio="xMaxYMin meet">
         <g id="arrow_out" transform="scale(0.3 0.3)">
          <a xlink:href="json_8h__incl_org.svg" target="_base">
           <rect id="button" ry="5" rx="5" y="6" x="6" height="38" width="38"
                fill="#f2f5e9" fill-opacity="0.5" stroke="#606060" stroke-width="1.0"/>
           <path id="arrow"
             d="M 11.500037,31.436501 C 11.940474,20.09759 22.043105,11.32322 32.158766,21.979434 L 37.068811,17.246167 C 37.068811,17.246167 37.088388,32 37.088388,32 L 22.160133,31.978069 C 22.160133,31.978069 26.997745,27.140456 26.997745,27.140456 C 18.528582,18.264221 13.291696,25.230495 11.500037,31.436501 z"
             style="fill:#404040;"/>
          </a>
         </g>
        </svg>
</svg>
