<?xml version="1.0" encoding="UTF-8" standalone="no"?>
<!DOCTYPE svg PUBLIC "-//W3C//DTD SVG 1.1//EN"
 "http://www.w3.org/Graphics/SVG/1.1/DTD/svg11.dtd">
<!-- Generated by graphviz version 2.38.0 (20140413.2041)
 -->
<!-- Title: /home/travis/build/AliceO2Group/AliceO2/Framework/Core/include/Framework/DeviceInfo.h Pages: 1 -->
<svg width="1181pt" height="239pt"
 viewBox="0.00 0.00 1180.50 239.00" xmlns="http://www.w3.org/2000/svg" xmlns:xlink="http://www.w3.org/1999/xlink">
<g id="graph0" class="graph" transform="scale(1 1) rotate(0) translate(4 235)">
<title>/home/travis/build/AliceO2Group/AliceO2/Framework/Core/include/Framework/DeviceInfo.h</title>
<!-- Node1 -->
<g id="node1" class="node"><title>Node1</title>
<polygon fill="#bfbfbf" stroke="black" points="607.5,-178.5 607.5,-230.5 734.5,-230.5 734.5,-178.5 607.5,-178.5"/>
<text text-anchor="start" x="615.5" y="-218.5" font-family="Helvetica,sans-Serif" font-size="10.00">/home/travis/build</text>
<text text-anchor="start" x="615.5" y="-207.5" font-family="Helvetica,sans-Serif" font-size="10.00">/AliceO2Group/AliceO2</text>
<text text-anchor="start" x="615.5" y="-196.5" font-family="Helvetica,sans-Serif" font-size="10.00">/Framework/Core/include</text>
<text text-anchor="middle" x="671" y="-185.5" font-family="Helvetica,sans-Serif" font-size="10.00">/Framework/DeviceInfo.h</text>
</g>
<!-- Node2 -->
<g id="node2" class="node"><title>Node2</title>
<g id="a_node2"><a xlink:href="../../dd/d9a/FrameworkGUIDebugger_8h.html" target="_top" xlink:title="/home/travis/build\l/AliceO2Group/AliceO2\l/Framework/Core/include\l/Framework/FrameworkGUIDebugger.h">
<polygon fill="none" stroke="black" points="270,-89.5 270,-141.5 458,-141.5 458,-89.5 270,-89.5"/>
<text text-anchor="start" x="278" y="-129.5" font-family="Helvetica,sans-Serif" font-size="10.00">/home/travis/build</text>
<text text-anchor="start" x="278" y="-118.5" font-family="Helvetica,sans-Serif" font-size="10.00">/AliceO2Group/AliceO2</text>
<text text-anchor="start" x="278" y="-107.5" font-family="Helvetica,sans-Serif" font-size="10.00">/Framework/Core/include</text>
<text text-anchor="middle" x="364" y="-96.5" font-family="Helvetica,sans-Serif" font-size="10.00">/Framework/FrameworkGUIDebugger.h</text>
</a>
</g>
</g>
<!-- Node1&#45;&gt;Node2 -->
<g id="edge1" class="edge"><title>Node1&#45;&gt;Node2</title>
<path fill="none" stroke="midnightblue" d="M597.699,-182.727C554.036,-170.354 498.334,-154.569 452.265,-141.513"/>
<polygon fill="midnightblue" stroke="midnightblue" points="596.814,-186.114 607.389,-185.474 598.723,-179.38 596.814,-186.114"/>
</g>
<!-- Node5 -->
<g id="node5" class="node"><title>Node5</title>
<g id="a_node5"><a xlink:href="../../d7/d54/runDataProcessing_8cxx.html" target="_top" xlink:title="/home/travis/build\l/AliceO2Group/AliceO2\l/Framework/Core/src/runDataProcessing.cxx">
<polygon fill="none" stroke="black" points="0,-6 0,-47 214,-47 214,-6 0,-6"/>
<text text-anchor="start" x="8" y="-35" font-family="Helvetica,sans-Serif" font-size="10.00">/home/travis/build</text>
<text text-anchor="start" x="8" y="-24" font-family="Helvetica,sans-Serif" font-size="10.00">/AliceO2Group/AliceO2</text>
<text text-anchor="middle" x="107" y="-13" font-family="Helvetica,sans-Serif" font-size="10.00">/Framework/Core/src/runDataProcessing.cxx</text>
</a>
</g>
</g>
<!-- Node1&#45;&gt;Node5 -->
<g id="edge12" class="edge"><title>Node1&#45;&gt;Node5</title>
<path fill="none" stroke="midnightblue" d="M597.343,-203.115C512.989,-200.294 372.122,-188.212 261,-142 206.551,-119.356 153.776,-73.2887 126.389,-47.0127"/>
<polygon fill="midnightblue" stroke="midnightblue" points="597.244,-206.614 607.344,-203.415 597.453,-199.617 597.244,-206.614"/>
</g>
<!-- Node6 -->
<g id="node6" class="node"><title>Node6</title>
<g id="a_node6"><a xlink:href="../../dd/d49/FrameworkGUIDevicesGraph_8h.html" target="_top" xlink:title="/home/travis/build\l/AliceO2Group/AliceO2\l/Framework/Core/include\l/Framework/FrameworkGUIDevicesGraph.h">
<polygon fill="none" stroke="black" points="566.5,-89.5 566.5,-141.5 775.5,-141.5 775.5,-89.5 566.5,-89.5"/>
<text text-anchor="start" x="574.5" y="-129.5" font-family="Helvetica,sans-Serif" font-size="10.00">/home/travis/build</text>
<text text-anchor="start" x="574.5" y="-118.5" font-family="Helvetica,sans-Serif" font-size="10.00">/AliceO2Group/AliceO2</text>
<text text-anchor="start" x="574.5" y="-107.5" font-family="Helvetica,sans-Serif" font-size="10.00">/Framework/Core/include</text>
<text text-anchor="middle" x="671" y="-96.5" font-family="Helvetica,sans-Serif" font-size="10.00">/Framework/FrameworkGUIDevicesGraph.h</text>
</a>
</g>
</g>
<!-- Node1&#45;&gt;Node6 -->
<g id="edge5" class="edge"><title>Node1&#45;&gt;Node6</title>
<path fill="none" stroke="midnightblue" d="M671,-168.191C671,-159.282 671,-149.899 671,-141.607"/>
<polygon fill="midnightblue" stroke="midnightblue" points="667.5,-168.336 671,-178.336 674.5,-168.336 667.5,-168.336"/>
</g>
<!-- Node7 -->
<g id="node7" class="node"><title>Node7</title>
<g id="a_node7"><a xlink:href="../../d7/d5a/FrameworkGUIDevicesGraph_8cxx.html" target="_top" xlink:title="/home/travis/build\l/AliceO2Group/AliceO2\l/Framework/Core/src/Framework\lGUIDevicesGraph.cxx">
<polygon fill="none" stroke="black" points="590.5,-0.5 590.5,-52.5 751.5,-52.5 751.5,-0.5 590.5,-0.5"/>
<text text-anchor="start" x="598.5" y="-40.5" font-family="Helvetica,sans-Serif" font-size="10.00">/home/travis/build</text>
<text text-anchor="start" x="598.5" y="-29.5" font-family="Helvetica,sans-Serif" font-size="10.00">/AliceO2Group/AliceO2</text>
<text text-anchor="start" x="598.5" y="-18.5" font-family="Helvetica,sans-Serif" font-size="10.00">/Framework/Core/src/Framework</text>
<text text-anchor="middle" x="671" y="-7.5" font-family="Helvetica,sans-Serif" font-size="10.00">GUIDevicesGraph.cxx</text>
</a>
</g>
</g>
<!-- Node1&#45;&gt;Node7 -->
<g id="edge11" class="edge"><title>Node1&#45;&gt;Node7</title>
<path fill="none" stroke="midnightblue" d="M598.099,-179.059C581.796,-170.036 566.529,-157.968 557,-142 544.929,-121.772 544.929,-109.228 557,-89 566.277,-73.4548 580.992,-61.6049 596.808,-52.6634"/>
<polygon fill="midnightblue" stroke="midnightblue" points="596.741,-182.296 607.234,-183.764 599.946,-176.073 596.741,-182.296"/>
</g>
<!-- Node8 -->
<g id="node8" class="node"><title>Node8</title>
<g id="a_node8"><a xlink:href="../../d9/dc5/test__GUITests_8cxx.html" target="_top" xlink:title="/home/travis/build\l/AliceO2Group/AliceO2\l/Framework/Core/test/test\l_GUITests.cxx">
<polygon fill="none" stroke="black" points="769.5,-0.5 769.5,-52.5 900.5,-52.5 900.5,-0.5 769.5,-0.5"/>
<text text-anchor="start" x="777.5" y="-40.5" font-family="Helvetica,sans-Serif" font-size="10.00">/home/travis/build</text>
<text text-anchor="start" x="777.5" y="-29.5" font-family="Helvetica,sans-Serif" font-size="10.00">/AliceO2Group/AliceO2</text>
<text text-anchor="start" x="777.5" y="-18.5" font-family="Helvetica,sans-Serif" font-size="10.00">/Framework/Core/test/test</text>
<text text-anchor="middle" x="835" y="-7.5" font-family="Helvetica,sans-Serif" font-size="10.00">_GUITests.cxx</text>
</a>
</g>
</g>
<!-- Node1&#45;&gt;Node8 -->
<g id="edge13" class="edge"><title>Node1&#45;&gt;Node8</title>
<path fill="none" stroke="midnightblue" d="M743.617,-173.719C758.65,-165.125 773.416,-154.588 785,-142 808.501,-116.462 822.157,-78.1201 829.094,-52.9548"/>
<polygon fill="midnightblue" stroke="midnightblue" points="741.857,-170.692 734.756,-178.555 745.211,-176.836 741.857,-170.692"/>
</g>
<!-- Node9 -->
<g id="node9" class="node"><title>Node9</title>
<g id="a_node9"><a xlink:href="../../d8/d1c/FrameworkGUIDataRelayerUsage_8cxx.html" target="_top" xlink:title="/home/travis/build\l/AliceO2Group/AliceO2\l/Framework/Core/src/Framework\lGUIDataRelayerUsage.cxx">
<polygon fill="none" stroke="black" points="832.5,-89.5 832.5,-141.5 993.5,-141.5 993.5,-89.5 832.5,-89.5"/>
<text text-anchor="start" x="840.5" y="-129.5" font-family="Helvetica,sans-Serif" font-size="10.00">/home/travis/build</text>
<text text-anchor="start" x="840.5" y="-118.5" font-family="Helvetica,sans-Serif" font-size="10.00">/AliceO2Group/AliceO2</text>
<text text-anchor="start" x="840.5" y="-107.5" font-family="Helvetica,sans-Serif" font-size="10.00">/Framework/Core/src/Framework</text>
<text text-anchor="middle" x="913" y="-96.5" font-family="Helvetica,sans-Serif" font-size="10.00">GUIDataRelayerUsage.cxx</text>
</a>
</g>
</g>
<!-- Node1&#45;&gt;Node9 -->
<g id="edge9" class="edge"><title>Node1&#45;&gt;Node9</title>
<path fill="none" stroke="midnightblue" d="M744.144,-177.204C775.521,-165.924 812.017,-152.804 843.034,-141.653"/>
<polygon fill="midnightblue" stroke="midnightblue" points="742.809,-173.965 734.583,-180.642 745.177,-180.552 742.809,-173.965"/>
</g>
<!-- Node10 -->
<g id="node10" class="node"><title>Node10</title>
<g id="a_node10"><a xlink:href="../../d4/d72/FrameworkGUIDeviceInspector_8cxx.html" target="_top" xlink:title="/home/travis/build\l/AliceO2Group/AliceO2\l/Framework/Core/src/Framework\lGUIDeviceInspector.cxx">
<polygon fill="none" stroke="black" points="1011.5,-89.5 1011.5,-141.5 1172.5,-141.5 1172.5,-89.5 1011.5,-89.5"/>
<text text-anchor="start" x="1019.5" y="-129.5" font-family="Helvetica,sans-Serif" font-size="10.00">/home/travis/build</text>
<text text-anchor="start" x="1019.5" y="-118.5" font-family="Helvetica,sans-Serif" font-size="10.00">/AliceO2Group/AliceO2</text>
<text text-anchor="start" x="1019.5" y="-107.5" font-family="Helvetica,sans-Serif" font-size="10.00">/Framework/Core/src/Framework</text>
<text text-anchor="middle" x="1092" y="-96.5" font-family="Helvetica,sans-Serif" font-size="10.00">GUIDeviceInspector.cxx</text>
</a>
</g>
</g>
<!-- Node1&#45;&gt;Node10 -->
<g id="edge10" class="edge"><title>Node1&#45;&gt;Node10</title>
<path fill="none" stroke="midnightblue" d="M744.836,-191.909C812.397,-180.81 914.939,-162.721 1003,-142 1005.66,-141.374 1008.36,-140.719 1011.08,-140.041"/>
<polygon fill="midnightblue" stroke="midnightblue" points="744.02,-188.496 734.715,-193.562 745.148,-195.404 744.02,-188.496"/>
</g>
<!-- Node3 -->
<g id="node3" class="node"><title>Node3</title>
<g id="a_node3"><a xlink:href="../../de/ddc/FrameworkDummyDebugger_8cxx.html" target="_top" xlink:title="/home/travis/build\l/AliceO2Group/AliceO2\l/Framework/Core/src/Framework\lDummyDebugger.cxx">
<polygon fill="none" stroke="black" points="232.5,-0.5 232.5,-52.5 393.5,-52.5 393.5,-0.5 232.5,-0.5"/>
<text text-anchor="start" x="240.5" y="-40.5" font-family="Helvetica,sans-Serif" font-size="10.00">/home/travis/build</text>
<text text-anchor="start" x="240.5" y="-29.5" font-family="Helvetica,sans-Serif" font-size="10.00">/AliceO2Group/AliceO2</text>
<text text-anchor="start" x="240.5" y="-18.5" font-family="Helvetica,sans-Serif" font-size="10.00">/Framework/Core/src/Framework</text>
<text text-anchor="middle" x="313" y="-7.5" font-family="Helvetica,sans-Serif" font-size="10.00">DummyDebugger.cxx</text>
</a>
</g>
</g>
<!-- Node2&#45;&gt;Node3 -->
<g id="edge2" class="edge"><title>Node2&#45;&gt;Node3</title>
<path fill="none" stroke="midnightblue" d="M344.15,-80.6387C338.679,-71.3056 332.843,-61.3492 327.718,-52.6075"/>
<polygon fill="midnightblue" stroke="midnightblue" points="341.172,-82.479 349.249,-89.336 347.211,-78.939 341.172,-82.479"/>
</g>
<!-- Node4 -->
<g id="node4" class="node"><title>Node4</title>
<g id="a_node4"><a xlink:href="../../d3/d29/FrameworkGUIDebugger_8cxx.html" target="_top" xlink:title="/home/travis/build\l/AliceO2Group/AliceO2\l/Framework/Core/src/Framework\lGUIDebugger.cxx">
<polygon fill="none" stroke="black" points="411.5,-0.5 411.5,-52.5 572.5,-52.5 572.5,-0.5 411.5,-0.5"/>
<text text-anchor="start" x="419.5" y="-40.5" font-family="Helvetica,sans-Serif" font-size="10.00">/home/travis/build</text>
<text text-anchor="start" x="419.5" y="-29.5" font-family="Helvetica,sans-Serif" font-size="10.00">/AliceO2Group/AliceO2</text>
<text text-anchor="start" x="419.5" y="-18.5" font-family="Helvetica,sans-Serif" font-size="10.00">/Framework/Core/src/Framework</text>
<text text-anchor="middle" x="492" y="-7.5" font-family="Helvetica,sans-Serif" font-size="10.00">GUIDebugger.cxx</text>
</a>
</g>
</g>
<!-- Node2&#45;&gt;Node4 -->
<g id="edge3" class="edge"><title>Node2&#45;&gt;Node4</title>
<path fill="none" stroke="midnightblue" d="M409.604,-83.5034C424.511,-73.3714 440.873,-62.2504 455.06,-52.6075"/>
<polygon fill="midnightblue" stroke="midnightblue" points="407.326,-80.82 401.023,-89.336 411.261,-86.6093 407.326,-80.82"/>
</g>
<!-- Node2&#45;&gt;Node5 -->
<g id="edge4" class="edge"><title>Node2&#45;&gt;Node5</title>
<path fill="none" stroke="midnightblue" d="M280.068,-86.0873C242.424,-73.3439 198.955,-58.6288 164.999,-47.1338"/>
<polygon fill="midnightblue" stroke="midnightblue" points="279.415,-89.5614 290.01,-89.4527 281.66,-82.931 279.415,-89.5614"/>
</g>
<!-- Node6&#45;&gt;Node4 -->
<g id="edge6" class="edge"><title>Node6&#45;&gt;Node4</title>
<path fill="none" stroke="midnightblue" d="M610.134,-84.917C588.524,-74.414 564.425,-62.701 543.658,-52.6075"/>
<polygon fill="midnightblue" stroke="midnightblue" points="608.702,-88.1125 619.226,-89.336 611.762,-81.8167 608.702,-88.1125"/>
</g>
<!-- Node6&#45;&gt;Node7 -->
<g id="edge7" class="edge"><title>Node6&#45;&gt;Node7</title>
<path fill="none" stroke="midnightblue" d="M671,-79.1908C671,-70.2824 671,-60.8986 671,-52.6075"/>
<polygon fill="midnightblue" stroke="midnightblue" points="667.5,-79.336 671,-89.336 674.5,-79.336 667.5,-79.336"/>
</g>
<!-- Node6&#45;&gt;Node8 -->
<g id="edge8" class="edge"><title>Node6&#45;&gt;Node8</title>
<path fill="none" stroke="midnightblue" d="M727.296,-84.6354C746.958,-74.2049 768.814,-62.6109 787.671,-52.6075"/>
<polygon fill="midnightblue" stroke="midnightblue" points="725.629,-81.5578 718.436,-89.336 728.91,-87.7415 725.629,-81.5578"/>
</g>
</g>
</svg>
