<?xml version="1.0" encoding="UTF-8" standalone="no"?>
<!DOCTYPE svg PUBLIC "-//W3C//DTD SVG 1.1//EN"
 "http://www.w3.org/Graphics/SVG/1.1/DTD/svg11.dtd">
<!-- Generated by graphviz version 2.38.0 (20140413.2041)
 -->
<!-- Title: AliHLTTPCClusterMCData Pages: 1 -->
<svg width="244pt" height="381pt"
 viewBox="0.00 0.00 243.50 381.00" xmlns="http://www.w3.org/2000/svg" xmlns:xlink="http://www.w3.org/1999/xlink">
<g id="graph0" class="graph" transform="scale(1 1) rotate(0) translate(4 377)">
<title>AliHLTTPCClusterMCData</title>
<!-- Node1 -->
<g id="node1" class="node"><title>Node1</title>
<polygon fill="#bfbfbf" stroke="black" points="100.5,-0.5 100.5,-57.5 235.5,-57.5 235.5,-0.5 100.5,-0.5"/>
<text text-anchor="middle" x="168" y="-45.5" font-family="Helvetica,sans-Serif" font-size="10.00">AliHLTTPCClusterMCData</text>
<polyline fill="none" stroke="black" points="100.5,-38.5 235.5,-38.5 "/>
<text text-anchor="middle" x="168" y="-26.5" font-family="Helvetica,sans-Serif" font-size="10.00"> </text>
<polyline fill="none" stroke="black" points="100.5,-19.5 235.5,-19.5 "/>
<text text-anchor="middle" x="168" y="-7.5" font-family="Helvetica,sans-Serif" font-size="10.00"> </text>
</g>
<!-- Node2 -->
<g id="node2" class="node"><title>Node2</title>
<g id="a_node2"><a xlink:href="../../d0/d7b/structAliHLTTPCClusterMCLabel.html" target="_top" xlink:title="{AliHLTTPCClusterMCLabel\n||}">
<polygon fill="none" stroke="black" points="19.5,-105.5 19.5,-162.5 156.5,-162.5 156.5,-105.5 19.5,-105.5"/>
<text text-anchor="middle" x="88" y="-150.5" font-family="Helvetica,sans-Serif" font-size="10.00">AliHLTTPCClusterMCLabel</text>
<polyline fill="none" stroke="black" points="19.5,-143.5 156.5,-143.5 "/>
<text text-anchor="middle" x="88" y="-131.5" font-family="Helvetica,sans-Serif" font-size="10.00"> </text>
<polyline fill="none" stroke="black" points="19.5,-124.5 156.5,-124.5 "/>
<text text-anchor="middle" x="88" y="-112.5" font-family="Helvetica,sans-Serif" font-size="10.00"> </text>
</a>
</g>
</g>
<!-- Node2&#45;&gt;Node1 -->
<g id="edge1" class="edge"><title>Node2&#45;&gt;Node1</title>
<path fill="none" stroke="#404040" d="M109.439,-105.398C118.496,-93.737 129.184,-79.9757 138.934,-67.423"/>
<polygon fill="none" stroke="#404040" points="139.141,-67.1555 139.663,-59.9632 146.502,-57.6783 145.981,-64.8706 139.141,-67.1555"/>
<text text-anchor="middle" x="151.5" y="-79" font-family="Helvetica,sans-Serif" font-size="10.00"> +fLabels</text>
</g>
<!-- Node3 -->
<g id="node3" class="node"><title>Node3</title>
<g id="a_node3"><a xlink:href="../../db/d57/structAliHLTTPCClusterMCWeight.html" target="_top" xlink:title="{AliHLTTPCClusterMCWeight\n||+ AliHLTTPCClusterMCWeight()\l}">
<polygon fill="none" stroke="black" points="0,-210.5 0,-267.5 160,-267.5 160,-210.5 0,-210.5"/>
<text text-anchor="middle" x="80" y="-255.5" font-family="Helvetica,sans-Serif" font-size="10.00">AliHLTTPCClusterMCWeight</text>
<polyline fill="none" stroke="black" points="0,-248.5 160,-248.5 "/>
<text text-anchor="middle" x="80" y="-236.5" font-family="Helvetica,sans-Serif" font-size="10.00"> </text>
<polyline fill="none" stroke="black" points="0,-229.5 160,-229.5 "/>
<text text-anchor="start" x="8" y="-217.5" font-family="Helvetica,sans-Serif" font-size="10.00">+ AliHLTTPCClusterMCWeight()</text>
</a>
</g>
</g>
<!-- Node3&#45;&gt;Node2 -->
<g id="edge2" class="edge"><title>Node3&#45;&gt;Node2</title>
<path fill="none" stroke="#404040" d="M82.1439,-210.398C82.9958,-199.43 83.992,-186.603 84.9187,-174.672"/>
<polygon fill="none" stroke="#404040" points="84.9209,-174.642 81.3976,-168.351 85.8502,-162.678 89.3736,-168.97 84.9209,-174.642"/>
<text text-anchor="middle" x="112.5" y="-184" font-family="Helvetica,sans-Serif" font-size="10.00"> +fClusterID</text>
</g>
<!-- Node4 -->
<g id="node4" class="node"><title>Node4</title>
<g id="a_node4"><a xlink:href="../../d4/dc3/classfloat.html" target="_top" xlink:title="{float\n||}">
<polygon fill="none" stroke="black" points="50.5,-315.5 50.5,-372.5 85.5,-372.5 85.5,-315.5 50.5,-315.5"/>
<text text-anchor="middle" x="68" y="-360.5" font-family="Helvetica,sans-Serif" font-size="10.00">float</text>
<polyline fill="none" stroke="black" points="50.5,-353.5 85.5,-353.5 "/>
<text text-anchor="middle" x="68" y="-341.5" font-family="Helvetica,sans-Serif" font-size="10.00"> </text>
<polyline fill="none" stroke="black" points="50.5,-334.5 85.5,-334.5 "/>
<text text-anchor="middle" x="68" y="-322.5" font-family="Helvetica,sans-Serif" font-size="10.00"> </text>
</a>
</g>
</g>
<!-- Node4&#45;&gt;Node3 -->
<g id="edge3" class="edge"><title>Node4&#45;&gt;Node3</title>
<path fill="none" stroke="#404040" d="M67.2804,-315.371C67.3562,-306.014 67.7923,-295.524 69,-286 69.2747,-283.834 69.611,-281.621 69.9932,-279.395"/>
<polygon fill="none" stroke="#404040" points="70.0096,-279.313 67.2765,-272.64 72.3851,-267.551 75.1182,-274.224 70.0096,-279.313"/>
<text text-anchor="middle" x="90.5" y="-289" font-family="Helvetica,sans-Serif" font-size="10.00"> +fWeight</text>
</g>
<!-- Node5 -->
<g id="node5" class="node"><title>Node5</title>
<polygon fill="none" stroke="#bfbfbf" points="146.5,-315.5 146.5,-372.5 175.5,-372.5 175.5,-315.5 146.5,-315.5"/>
<text text-anchor="middle" x="161" y="-360.5" font-family="Helvetica,sans-Serif" font-size="10.00">int</text>
<polyline fill="none" stroke="#bfbfbf" points="146.5,-353.5 175.5,-353.5 "/>
<text text-anchor="middle" x="161" y="-341.5" font-family="Helvetica,sans-Serif" font-size="10.00"> </text>
<polyline fill="none" stroke="#bfbfbf" points="146.5,-334.5 175.5,-334.5 "/>
<text text-anchor="middle" x="161" y="-322.5" font-family="Helvetica,sans-Serif" font-size="10.00"> </text>
</g>
<!-- Node5&#45;&gt;Node1 -->
<g id="edge5" class="edge"><title>Node5&#45;&gt;Node1</title>
<path fill="none" stroke="#404040" d="M164.506,-315.265C166.152,-301.14 167.974,-283.68 169,-268 174.255,-187.697 172.889,-167.467 174,-87 174.068,-82.1116 174.317,-80.8786 174,-76 173.867,-73.9556 173.702,-71.8634 173.511,-69.7529"/>
<polygon fill="none" stroke="#404040" points="173.495,-69.6034 168.871,-64.07 172.2,-57.6734 176.824,-63.2068 173.495,-69.6034"/>
<text text-anchor="middle" x="192.5" y="-184" font-family="Helvetica,sans-Serif" font-size="10.00"> +fCount</text>
</g>
<!-- Node5&#45;&gt;Node3 -->
<g id="edge4" class="edge"><title>Node5&#45;&gt;Node3</title>
<path fill="none" stroke="#404040" d="M146.143,-324.108C135.856,-311.026 121.818,-293.176 109.321,-277.285"/>
<polygon fill="none" stroke="#404040" points="109.204,-277.136 102.351,-274.893 101.786,-267.704 108.64,-269.947 109.204,-277.136"/>
<text text-anchor="middle" x="142.5" y="-289" font-family="Helvetica,sans-Serif" font-size="10.00"> +fMCID</text>
</g>
</g>
</svg>
