<?xml version="1.0" encoding="UTF-8" standalone="no"?>
<!DOCTYPE svg PUBLIC "-//W3C//DTD SVG 1.1//EN"
 "http://www.w3.org/Graphics/SVG/1.1/DTD/svg11.dtd">
<!-- Generated by graphviz version 2.38.0 (20140413.2041)
 -->
<!-- Title: /home/travis/build/AliceO2Group/AliceO2/Framework/Core/test/unittest_DataSpecUtils.cxx Pages: 1 -->
<svg width="2591pt" height="441pt"
 viewBox="0.00 0.00 2590.50 441.00" xmlns="http://www.w3.org/2000/svg" xmlns:xlink="http://www.w3.org/1999/xlink">
<g id="graph0" class="graph" transform="scale(1 1) rotate(0) translate(4 437)">
<title>/home/travis/build/AliceO2Group/AliceO2/Framework/Core/test/unittest_DataSpecUtils.cxx</title>
<!-- Node1 -->
<g id="node1" class="node"><title>Node1</title>
<polygon fill="#bfbfbf" stroke="black" points="2285.5,-380.5 2285.5,-432.5 2432.5,-432.5 2432.5,-380.5 2285.5,-380.5"/>
<text text-anchor="start" x="2293.5" y="-420.5" font-family="Helvetica,sans-Serif" font-size="10.00">/home/travis/build</text>
<text text-anchor="start" x="2293.5" y="-409.5" font-family="Helvetica,sans-Serif" font-size="10.00">/AliceO2Group/AliceO2</text>
<text text-anchor="start" x="2293.5" y="-398.5" font-family="Helvetica,sans-Serif" font-size="10.00">/Framework/Core/test/unittest</text>
<text text-anchor="middle" x="2359" y="-387.5" font-family="Helvetica,sans-Serif" font-size="10.00">_DataSpecUtils.cxx</text>
</g>
<!-- Node2 -->
<g id="node2" class="node"><title>Node2</title>
<g id="a_node2"><a xlink:href="../../d6/d68/DataSpecUtils_8h.html" target="_top" xlink:title="Framework/DataSpecUtils.h">
<polygon fill="none" stroke="black" points="1253,-319 1253,-338 1393,-338 1393,-319 1253,-319"/>
<text text-anchor="middle" x="1323" y="-326" font-family="Helvetica,sans-Serif" font-size="10.00">Framework/DataSpecUtils.h</text>
</a>
</g>
</g>
<!-- Node1&#45;&gt;Node2 -->
<g id="edge1" class="edge"><title>Node1&#45;&gt;Node2</title>
<path fill="none" stroke="midnightblue" d="M2285.32,-400.095C2096.97,-386.277 1598.94,-349.743 1403.42,-335.399"/>
<polygon fill="midnightblue" stroke="midnightblue" points="1403.44,-331.892 1393.22,-334.651 1402.93,-338.873 1403.44,-331.892"/>
</g>
<!-- Node11 -->
<g id="node11" class="node"><title>Node11</title>
<polygon fill="none" stroke="#bfbfbf" points="2319.5,-6 2319.5,-25 2360.5,-25 2360.5,-6 2319.5,-6"/>
<text text-anchor="middle" x="2340" y="-13" font-family="Helvetica,sans-Serif" font-size="10.00">string</text>
</g>
<!-- Node1&#45;&gt;Node11 -->
<g id="edge70" class="edge"><title>Node1&#45;&gt;Node11</title>
<path fill="none" stroke="midnightblue" d="M2383.05,-380.405C2405.31,-354.441 2435,-311.641 2435,-268 2435,-268 2435,-268 2435,-137.5 2435,-90.7465 2390.58,-51.3551 2362.49,-31.1189"/>
<polygon fill="midnightblue" stroke="midnightblue" points="2364.23,-28.0662 2354.02,-25.2367 2360.23,-33.8157 2364.23,-28.0662"/>
</g>
<!-- Node42 -->
<g id="node42" class="node"><title>Node42</title>
<g id="a_node42"><a xlink:href="../../db/de2/DataDescriptorQueryBuilder_8h.html" target="_top" xlink:title="Framework/DataDescriptor\lQueryBuilder.h">
<polygon fill="none" stroke="black" points="2216,-313.5 2216,-343.5 2350,-343.5 2350,-313.5 2216,-313.5"/>
<text text-anchor="start" x="2224" y="-331.5" font-family="Helvetica,sans-Serif" font-size="10.00">Framework/DataDescriptor</text>
<text text-anchor="middle" x="2283" y="-320.5" font-family="Helvetica,sans-Serif" font-size="10.00">QueryBuilder.h</text>
</a>
</g>
</g>
<!-- Node1&#45;&gt;Node42 -->
<g id="edge64" class="edge"><title>Node1&#45;&gt;Node42</title>
<path fill="none" stroke="midnightblue" d="M2333.69,-380.193C2324.25,-370.747 2313.62,-360.119 2304.54,-351.044"/>
<polygon fill="midnightblue" stroke="midnightblue" points="2306.89,-348.441 2297.35,-343.845 2301.94,-353.391 2306.89,-348.441"/>
</g>
<!-- Node43 -->
<g id="node43" class="node"><title>Node43</title>
<polygon fill="none" stroke="#bfbfbf" points="2463.5,-319 2463.5,-338 2582.5,-338 2582.5,-319 2463.5,-319"/>
<text text-anchor="middle" x="2523" y="-326" font-family="Helvetica,sans-Serif" font-size="10.00">boost/test/unit_test.hpp</text>
</g>
<!-- Node1&#45;&gt;Node43 -->
<g id="edge69" class="edge"><title>Node1&#45;&gt;Node43</title>
<path fill="none" stroke="midnightblue" d="M2413.15,-380.404C2440.62,-367.674 2472.83,-352.751 2495.23,-342.368"/>
<polygon fill="midnightblue" stroke="midnightblue" points="2496.89,-345.458 2504.49,-338.078 2493.95,-339.107 2496.89,-345.458"/>
</g>
<!-- Node3 -->
<g id="node3" class="node"><title>Node3</title>
<g id="a_node3"><a xlink:href="../../db/d2d/OutputSpec_8h.html" target="_top" xlink:title="Framework/OutputSpec.h">
<polygon fill="none" stroke="black" points="1345,-196 1345,-215 1473,-215 1473,-196 1345,-196"/>
<text text-anchor="middle" x="1409" y="-203" font-family="Helvetica,sans-Serif" font-size="10.00">Framework/OutputSpec.h</text>
</a>
</g>
</g>
<!-- Node2&#45;&gt;Node3 -->
<g id="edge2" class="edge"><title>Node2&#45;&gt;Node3</title>
<path fill="none" stroke="midnightblue" d="M1329.18,-318.798C1343.38,-298.827 1378.49,-249.421 1397.06,-223.304"/>
<polygon fill="midnightblue" stroke="midnightblue" points="1399.93,-225.302 1402.87,-215.123 1394.22,-221.247 1399.93,-225.302"/>
</g>
<!-- Node4 -->
<g id="node4" class="node"><title>Node4</title>
<g id="a_node4"><a xlink:href="../../dc/dcd/DataHeader_8h.html" target="_top" xlink:title="Headers/DataHeader.h">
<polygon fill="none" stroke="black" points="1595.5,-67.5 1595.5,-86.5 1712.5,-86.5 1712.5,-67.5 1595.5,-67.5"/>
<text text-anchor="middle" x="1654" y="-74.5" font-family="Helvetica,sans-Serif" font-size="10.00">Headers/DataHeader.h</text>
</a>
</g>
</g>
<!-- Node2&#45;&gt;Node4 -->
<g id="edge58" class="edge"><title>Node2&#45;&gt;Node4</title>
<path fill="none" stroke="midnightblue" d="M1304.45,-318.835C1245.99,-290.453 1073.47,-197.82 1142,-123 1171.33,-90.9752 1452.14,-81.6341 1584.99,-78.9965"/>
<polygon fill="midnightblue" stroke="midnightblue" points="1585.13,-82.4945 1595.06,-78.8037 1585,-75.4958 1585.13,-82.4945"/>
</g>
<!-- Node18 -->
<g id="node18" class="node"><title>Node18</title>
<g id="a_node18"><a xlink:href="../../d5/d3f/InputSpec_8h.html" target="_top" xlink:title="Framework/InputSpec.h">
<polygon fill="none" stroke="black" points="1593.5,-257.5 1593.5,-276.5 1714.5,-276.5 1714.5,-257.5 1593.5,-257.5"/>
<text text-anchor="middle" x="1654" y="-264.5" font-family="Helvetica,sans-Serif" font-size="10.00">Framework/InputSpec.h</text>
</a>
</g>
</g>
<!-- Node2&#45;&gt;Node18 -->
<g id="edge18" class="edge"><title>Node2&#45;&gt;Node18</title>
<path fill="none" stroke="midnightblue" d="M1370.42,-318.975C1430.15,-308.239 1532.69,-289.806 1596.73,-278.295"/>
<polygon fill="midnightblue" stroke="midnightblue" points="1597.44,-281.723 1606.66,-276.509 1596.2,-274.834 1597.44,-281.723"/>
</g>
<!-- Node40 -->
<g id="node40" class="node"><title>Node40</title>
<g id="a_node40"><a xlink:href="../../d3/ddf/Output_8h.html" target="_top" xlink:title="Framework/Output.h">
<polygon fill="none" stroke="black" points="1169,-196 1169,-215 1275,-215 1275,-196 1169,-196"/>
<text text-anchor="middle" x="1222" y="-203" font-family="Helvetica,sans-Serif" font-size="10.00">Framework/Output.h</text>
</a>
</g>
</g>
<!-- Node2&#45;&gt;Node40 -->
<g id="edge59" class="edge"><title>Node2&#45;&gt;Node40</title>
<path fill="none" stroke="midnightblue" d="M1315.74,-318.798C1298.99,-298.74 1257.47,-248.989 1235.74,-222.963"/>
<polygon fill="midnightblue" stroke="midnightblue" points="1238.29,-220.557 1229.2,-215.123 1232.92,-225.043 1238.29,-220.557"/>
</g>
<!-- Node41 -->
<g id="node41" class="node"><title>Node41</title>
<polygon fill="none" stroke="#bfbfbf" points="1017,-257.5 1017,-276.5 1067,-276.5 1067,-257.5 1017,-257.5"/>
<text text-anchor="middle" x="1042" y="-264.5" font-family="Helvetica,sans-Serif" font-size="10.00">optional</text>
</g>
<!-- Node2&#45;&gt;Node41 -->
<g id="edge63" class="edge"><title>Node2&#45;&gt;Node41</title>
<path fill="none" stroke="midnightblue" d="M1280.54,-318.921C1232.17,-309.084 1150.8,-292.334 1081,-277 1079.74,-276.723 1078.46,-276.439 1077.16,-276.151"/>
<polygon fill="midnightblue" stroke="midnightblue" points="1077.68,-272.68 1067.16,-273.888 1076.14,-279.507 1077.68,-272.68"/>
</g>
<!-- Node3&#45;&gt;Node4 -->
<g id="edge3" class="edge"><title>Node3&#45;&gt;Node4</title>
<path fill="none" stroke="midnightblue" d="M1408.24,-195.924C1407.28,-179.299 1407.75,-142.604 1428,-123 1450.1,-101.607 1527.19,-89.678 1585.23,-83.5624"/>
<polygon fill="midnightblue" stroke="midnightblue" points="1585.87,-87.0157 1595.47,-82.5229 1585.17,-80.0515 1585.87,-87.0157"/>
</g>
<!-- Node15 -->
<g id="node15" class="node"><title>Node15</title>
<g id="a_node15"><a xlink:href="../../dc/dca/Lifetime_8h.html" target="_top" xlink:title="Framework/Lifetime.h">
<polygon fill="none" stroke="black" points="1161.5,-129 1161.5,-148 1272.5,-148 1272.5,-129 1161.5,-129"/>
<text text-anchor="middle" x="1217" y="-136" font-family="Helvetica,sans-Serif" font-size="10.00">Framework/Lifetime.h</text>
</a>
</g>
</g>
<!-- Node3&#45;&gt;Node15 -->
<g id="edge14" class="edge"><title>Node3&#45;&gt;Node15</title>
<path fill="none" stroke="midnightblue" d="M1383.5,-195.869C1349.7,-184.424 1289.9,-164.181 1251.92,-151.322"/>
<polygon fill="midnightblue" stroke="midnightblue" points="1252.89,-147.955 1242.3,-148.064 1250.65,-154.586 1252.89,-147.955"/>
</g>
<!-- Node16 -->
<g id="node16" class="node"><title>Node16</title>
<g id="a_node16"><a xlink:href="../../d0/d1b/ConcreteDataMatcher_8h.html" target="_top" xlink:title="Framework/ConcreteDataMatcher.h">
<polygon fill="none" stroke="black" points="1437.5,-129 1437.5,-148 1610.5,-148 1610.5,-129 1437.5,-129"/>
<text text-anchor="middle" x="1524" y="-136" font-family="Helvetica,sans-Serif" font-size="10.00">Framework/ConcreteDataMatcher.h</text>
</a>
</g>
</g>
<!-- Node3&#45;&gt;Node16 -->
<g id="edge15" class="edge"><title>Node3&#45;&gt;Node16</title>
<path fill="none" stroke="midnightblue" d="M1424.51,-195.734C1443.91,-184.769 1477.33,-165.881 1500.03,-153.049"/>
<polygon fill="midnightblue" stroke="midnightblue" points="1501.75,-156.095 1508.74,-148.127 1498.31,-150.001 1501.75,-156.095"/>
</g>
<!-- Node17 -->
<g id="node17" class="node"><title>Node17</title>
<polygon fill="none" stroke="#bfbfbf" points="1629,-129 1629,-148 1675,-148 1675,-129 1629,-129"/>
<text text-anchor="middle" x="1652" y="-136" font-family="Helvetica,sans-Serif" font-size="10.00">variant</text>
</g>
<!-- Node3&#45;&gt;Node17 -->
<g id="edge17" class="edge"><title>Node3&#45;&gt;Node17</title>
<path fill="none" stroke="midnightblue" d="M1454.72,-195.953C1497.71,-187.345 1563.57,-172.678 1619,-154 1620.87,-153.371 1622.78,-152.677 1624.69,-151.943"/>
<polygon fill="midnightblue" stroke="midnightblue" points="1626.17,-155.119 1634.07,-148.068 1623.49,-148.649 1626.17,-155.119"/>
</g>
<!-- Node5 -->
<g id="node5" class="node"><title>Node5</title>
<polygon fill="none" stroke="#bfbfbf" points="2093,-6 2093,-25 2139,-25 2139,-6 2093,-6"/>
<text text-anchor="middle" x="2116" y="-13" font-family="Helvetica,sans-Serif" font-size="10.00">cstdint</text>
</g>
<!-- Node4&#45;&gt;Node5 -->
<g id="edge4" class="edge"><title>Node4&#45;&gt;Node5</title>
<path fill="none" stroke="midnightblue" d="M1712.57,-69.8105C1786.45,-61.8095 1917.36,-46.9936 2029,-31 2046.78,-28.4528 2066.53,-25.1954 2082.72,-22.4136"/>
<polygon fill="midnightblue" stroke="midnightblue" points="2083.53,-25.8255 2092.78,-20.6664 2082.33,-18.9286 2083.53,-25.8255"/>
</g>
<!-- Node6 -->
<g id="node6" class="node"><title>Node6</title>
<polygon fill="none" stroke="#bfbfbf" points="2157,-6 2157,-25 2209,-25 2209,-6 2157,-6"/>
<text text-anchor="middle" x="2183" y="-13" font-family="Helvetica,sans-Serif" font-size="10.00">memory</text>
</g>
<!-- Node4&#45;&gt;Node6 -->
<g id="edge5" class="edge"><title>Node4&#45;&gt;Node6</title>
<path fill="none" stroke="midnightblue" d="M1712.74,-76.3277C1806.26,-75.5902 1994.15,-68.9433 2148,-31 2150.51,-30.3799 2153.08,-29.6075 2155.63,-28.7443"/>
<polygon fill="midnightblue" stroke="midnightblue" points="2157.09,-31.9328 2165.19,-25.0957 2154.6,-25.3933 2157.09,-31.9328"/>
</g>
<!-- Node7 -->
<g id="node7" class="node"><title>Node7</title>
<polygon fill="none" stroke="#bfbfbf" points="1970.5,-6 1970.5,-25 2019.5,-25 2019.5,-6 1970.5,-6"/>
<text text-anchor="middle" x="1995" y="-13" font-family="Helvetica,sans-Serif" font-size="10.00">cassert</text>
</g>
<!-- Node4&#45;&gt;Node7 -->
<g id="edge6" class="edge"><title>Node4&#45;&gt;Node7</title>
<path fill="none" stroke="midnightblue" d="M1712.65,-71.9161C1775.13,-66.5259 1876.48,-54.7865 1961,-31 1963.29,-30.3546 1965.64,-29.5915 1967.97,-28.7583"/>
<polygon fill="midnightblue" stroke="midnightblue" points="1969.3,-31.9941 1977.31,-25.0613 1966.73,-25.4847 1969.3,-31.9941"/>
</g>
<!-- Node8 -->
<g id="node8" class="node"><title>Node8</title>
<polygon fill="none" stroke="#bfbfbf" points="1411,-6 1411,-25 1457,-25 1457,-6 1411,-6"/>
<text text-anchor="middle" x="1434" y="-13" font-family="Helvetica,sans-Serif" font-size="10.00">cstring</text>
</g>
<!-- Node4&#45;&gt;Node8 -->
<g id="edge7" class="edge"><title>Node4&#45;&gt;Node8</title>
<path fill="none" stroke="midnightblue" d="M1607.72,-67.4847C1569.23,-59.7975 1513.3,-47.2132 1466,-31 1464.33,-30.429 1462.64,-29.8023 1460.94,-29.1398"/>
<polygon fill="midnightblue" stroke="midnightblue" points="1461.94,-25.7621 1451.36,-25.0914 1459.21,-32.2095 1461.94,-25.7621"/>
</g>
<!-- Node9 -->
<g id="node9" class="node"><title>Node9</title>
<polygon fill="none" stroke="#bfbfbf" points="1756,-6 1756,-25 1812,-25 1812,-6 1756,-6"/>
<text text-anchor="middle" x="1784" y="-13" font-family="Helvetica,sans-Serif" font-size="10.00">algorithm</text>
</g>
<!-- Node4&#45;&gt;Node9 -->
<g id="edge8" class="edge"><title>Node4&#45;&gt;Node9</title>
<path fill="none" stroke="midnightblue" d="M1672.63,-67.4751C1694.44,-57.4897 1730.8,-40.8476 1756.02,-29.3075"/>
<polygon fill="midnightblue" stroke="midnightblue" points="1757.77,-32.3534 1765.41,-25.0091 1754.86,-25.9884 1757.77,-32.3534"/>
</g>
<!-- Node10 -->
<g id="node10" class="node"><title>Node10</title>
<polygon fill="none" stroke="#bfbfbf" points="1830.5,-6 1830.5,-25 1889.5,-25 1889.5,-6 1830.5,-6"/>
<text text-anchor="middle" x="1860" y="-13" font-family="Helvetica,sans-Serif" font-size="10.00">stdexcept</text>
</g>
<!-- Node4&#45;&gt;Node10 -->
<g id="edge9" class="edge"><title>Node4&#45;&gt;Node10</title>
<path fill="none" stroke="midnightblue" d="M1689.46,-67.4595C1723.46,-59.0337 1776.1,-45.3626 1821,-31 1823.41,-30.2297 1825.89,-29.399 1828.37,-28.5389"/>
<polygon fill="midnightblue" stroke="midnightblue" points="1829.62,-31.8101 1837.85,-25.1405 1827.26,-25.2208 1829.62,-31.8101"/>
</g>
<!-- Node4&#45;&gt;Node11 -->
<g id="edge10" class="edge"><title>Node4&#45;&gt;Node11</title>
<path fill="none" stroke="midnightblue" d="M1712.53,-72.0796C1815.05,-65.0448 2033.75,-49.2931 2218,-31 2249.06,-27.9161 2284.48,-23.6196 2309.12,-20.5047"/>
<polygon fill="midnightblue" stroke="midnightblue" points="2309.83,-23.9432 2319.3,-19.2072 2308.94,-16.9993 2309.83,-23.9432"/>
</g>
<!-- Node12 -->
<g id="node12" class="node"><title>Node12</title>
<polygon fill="none" stroke="#bfbfbf" points="1630.5,-6 1630.5,-25 1675.5,-25 1675.5,-6 1630.5,-6"/>
<text text-anchor="middle" x="1653" y="-13" font-family="Helvetica,sans-Serif" font-size="10.00">climits</text>
</g>
<!-- Node4&#45;&gt;Node12 -->
<g id="edge11" class="edge"><title>Node4&#45;&gt;Node12</title>
<path fill="none" stroke="midnightblue" d="M1653.86,-67.4751C1653.72,-59.0803 1653.5,-45.9806 1653.31,-35.1631"/>
<polygon fill="midnightblue" stroke="midnightblue" points="1656.81,-34.9488 1653.14,-25.0091 1649.81,-35.0665 1656.81,-34.9488"/>
</g>
<!-- Node13 -->
<g id="node13" class="node"><title>Node13</title>
<g id="a_node13"><a xlink:href="../../d7/df8/Types_8h.html" target="_top" xlink:title="MemoryResources/Types.h">
<polygon fill="none" stroke="black" points="1475.5,-6 1475.5,-25 1612.5,-25 1612.5,-6 1475.5,-6"/>
<text text-anchor="middle" x="1544" y="-13" font-family="Helvetica,sans-Serif" font-size="10.00">MemoryResources/Types.h</text>
</a>
</g>
</g>
<!-- Node4&#45;&gt;Node13 -->
<g id="edge12" class="edge"><title>Node4&#45;&gt;Node13</title>
<path fill="none" stroke="midnightblue" d="M1638.24,-67.4751C1620.02,-57.6222 1589.83,-41.2883 1568.53,-29.7697"/>
<polygon fill="midnightblue" stroke="midnightblue" points="1570.19,-26.6883 1559.73,-25.0091 1566.86,-32.8453 1570.19,-26.6883"/>
</g>
<!-- Node14 -->
<g id="node14" class="node"><title>Node14</title>
<polygon fill="none" stroke="#bfbfbf" points="1694,-6 1694,-25 1738,-25 1738,-6 1694,-6"/>
<text text-anchor="middle" x="1716" y="-13" font-family="Helvetica,sans-Serif" font-size="10.00">cerrno</text>
</g>
<!-- Node4&#45;&gt;Node14 -->
<g id="edge13" class="edge"><title>Node4&#45;&gt;Node14</title>
<path fill="none" stroke="midnightblue" d="M1662.88,-67.4751C1672.46,-58.285 1687.91,-43.4563 1699.69,-32.156"/>
<polygon fill="midnightblue" stroke="midnightblue" points="1702.34,-34.4585 1707.13,-25.0091 1697.49,-29.408 1702.34,-34.4585"/>
</g>
<!-- Node16&#45;&gt;Node4 -->
<g id="edge16" class="edge"><title>Node16&#45;&gt;Node4</title>
<path fill="none" stroke="midnightblue" d="M1542.63,-128.975C1564.44,-118.99 1600.8,-102.348 1626.02,-90.8075"/>
<polygon fill="midnightblue" stroke="midnightblue" points="1627.77,-93.8534 1635.41,-86.5091 1624.86,-87.4884 1627.77,-93.8534"/>
</g>
<!-- Node18&#45;&gt;Node11 -->
<g id="edge55" class="edge"><title>Node18&#45;&gt;Node11</title>
<path fill="none" stroke="midnightblue" d="M1714.91,-265.827C1826.06,-263.123 2066.46,-246.082 2242,-154 2279.57,-134.291 2286.13,-122.075 2310,-87 2321.08,-70.7182 2329.38,-49.6871 2334.41,-34.8469"/>
<polygon fill="midnightblue" stroke="midnightblue" points="2337.75,-35.883 2337.48,-25.2915 2331.09,-33.7379 2337.75,-35.883"/>
</g>
<!-- Node18&#45;&gt;Node15 -->
<g id="edge19" class="edge"><title>Node18&#45;&gt;Node15</title>
<path fill="none" stroke="midnightblue" d="M1593.33,-265.572C1527.77,-263.268 1421.24,-254.113 1336,-221 1314.94,-212.818 1264.43,-175.669 1236.46,-154.461"/>
<polygon fill="midnightblue" stroke="midnightblue" points="1238.32,-151.471 1228.24,-148.192 1234.07,-157.038 1238.32,-151.471"/>
</g>
<!-- Node18&#45;&gt;Node16 -->
<g id="edge20" class="edge"><title>Node18&#45;&gt;Node16</title>
<path fill="none" stroke="midnightblue" d="M1645.06,-257.305C1623.45,-236.272 1568.08,-182.392 1540.34,-155.404"/>
<polygon fill="midnightblue" stroke="midnightblue" points="1542.61,-152.721 1533,-148.256 1537.72,-157.738 1542.61,-152.721"/>
</g>
<!-- Node18&#45;&gt;Node17 -->
<g id="edge57" class="edge"><title>Node18&#45;&gt;Node17</title>
<path fill="none" stroke="midnightblue" d="M1652.01,-257.433C1650.03,-248.424 1647.13,-233.805 1646,-221 1644.1,-199.412 1646.6,-174.57 1648.93,-158.043"/>
<polygon fill="midnightblue" stroke="midnightblue" points="1652.4,-158.487 1650.46,-148.072 1645.48,-157.426 1652.4,-158.487"/>
</g>
<!-- Node19 -->
<g id="node19" class="node"><title>Node19</title>
<g id="a_node19"><a xlink:href="../../d3/da3/DataDescriptorMatcher_8h.html" target="_top" xlink:title="Framework/DataDescriptor\lMatcher.h">
<polygon fill="none" stroke="black" points="1725,-190.5 1725,-220.5 1859,-220.5 1859,-190.5 1725,-190.5"/>
<text text-anchor="start" x="1733" y="-208.5" font-family="Helvetica,sans-Serif" font-size="10.00">Framework/DataDescriptor</text>
<text text-anchor="middle" x="1792" y="-197.5" font-family="Helvetica,sans-Serif" font-size="10.00">Matcher.h</text>
</a>
</g>
</g>
<!-- Node18&#45;&gt;Node19 -->
<g id="edge21" class="edge"><title>Node18&#45;&gt;Node19</title>
<path fill="none" stroke="midnightblue" d="M1673.77,-257.475C1693.6,-248.927 1724.74,-235.501 1750.08,-224.573"/>
<polygon fill="midnightblue" stroke="midnightblue" points="1751.68,-227.696 1759.48,-220.523 1748.91,-221.268 1751.68,-227.696"/>
</g>
<!-- Node39 -->
<g id="node39" class="node"><title>Node39</title>
<polygon fill="none" stroke="#bfbfbf" points="1655,-196 1655,-215 1707,-215 1707,-196 1655,-196"/>
<text text-anchor="middle" x="1681" y="-203" font-family="Helvetica,sans-Serif" font-size="10.00">ostream</text>
</g>
<!-- Node18&#45;&gt;Node39 -->
<g id="edge56" class="edge"><title>Node18&#45;&gt;Node39</title>
<path fill="none" stroke="midnightblue" d="M1657.87,-257.475C1661.8,-248.815 1668,-235.149 1672.99,-224.145"/>
<polygon fill="midnightblue" stroke="midnightblue" points="1676.19,-225.562 1677.14,-215.009 1669.82,-222.669 1676.19,-225.562"/>
</g>
<!-- Node19&#45;&gt;Node4 -->
<g id="edge29" class="edge"><title>Node19&#45;&gt;Node4</title>
<path fill="none" stroke="midnightblue" d="M1772.35,-190.4C1759.14,-180.641 1741.55,-167.1 1727,-154 1705.66,-134.788 1683.05,-110.57 1668.75,-94.703"/>
<polygon fill="midnightblue" stroke="midnightblue" points="1670.99,-91.9582 1661.72,-86.8323 1665.77,-96.6217 1670.99,-91.9582"/>
</g>
<!-- Node19&#45;&gt;Node5 -->
<g id="edge49" class="edge"><title>Node19&#45;&gt;Node5</title>
<path fill="none" stroke="midnightblue" d="M1859.42,-200.69C1966.77,-193.928 2166.67,-178.219 2188,-154 2221.84,-115.572 2165.77,-58.4351 2134.63,-31.5352"/>
<polygon fill="midnightblue" stroke="midnightblue" points="2136.86,-28.8413 2126.96,-25.0831 2132.36,-34.1984 2136.86,-28.8413"/>
</g>
<!-- Node19&#45;&gt;Node11 -->
<g id="edge51" class="edge"><title>Node19&#45;&gt;Node11</title>
<path fill="none" stroke="midnightblue" d="M1859.07,-201.758C1960.51,-196.709 2147.46,-183.616 2207,-154 2263.35,-125.973 2309.15,-64.1008 2329.14,-33.8442"/>
<polygon fill="midnightblue" stroke="midnightblue" points="2332.23,-35.5154 2334.71,-25.2146 2326.35,-31.7214 2332.23,-35.5154"/>
</g>
<!-- Node19&#45;&gt;Node16 -->
<g id="edge22" class="edge"><title>Node19&#45;&gt;Node16</title>
<path fill="none" stroke="midnightblue" d="M1734.18,-190.476C1684.68,-178.471 1614.42,-161.43 1569.02,-150.419"/>
<polygon fill="midnightblue" stroke="midnightblue" points="1569.71,-146.984 1559.16,-148.029 1568.06,-153.787 1569.71,-146.984"/>
</g>
<!-- Node19&#45;&gt;Node17 -->
<g id="edge52" class="edge"><title>Node19&#45;&gt;Node17</title>
<path fill="none" stroke="midnightblue" d="M1761.62,-190.396C1737.17,-179.041 1703.09,-163.22 1679.45,-152.244"/>
<polygon fill="midnightblue" stroke="midnightblue" points="1680.87,-149.044 1670.32,-148.007 1677.92,-155.393 1680.87,-149.044"/>
</g>
<!-- Node20 -->
<g id="node20" class="node"><title>Node20</title>
<g id="a_node20"><a xlink:href="../../d6/dc9/DataProcessingHeader_8h.html" target="_top" xlink:title="Framework/DataProcessing\lHeader.h">
<polygon fill="none" stroke="black" points="1985,-123.5 1985,-153.5 2123,-153.5 2123,-123.5 1985,-123.5"/>
<text text-anchor="start" x="1993" y="-141.5" font-family="Helvetica,sans-Serif" font-size="10.00">Framework/DataProcessing</text>
<text text-anchor="middle" x="2054" y="-130.5" font-family="Helvetica,sans-Serif" font-size="10.00">Header.h</text>
</a>
</g>
</g>
<!-- Node19&#45;&gt;Node20 -->
<g id="edge23" class="edge"><title>Node19&#45;&gt;Node20</title>
<path fill="none" stroke="midnightblue" d="M1848.53,-190.476C1889.28,-180.366 1944.43,-166.684 1987.33,-156.04"/>
<polygon fill="midnightblue" stroke="midnightblue" points="1988.26,-159.416 1997.12,-153.611 1986.57,-152.622 1988.26,-159.416"/>
</g>
<!-- Node22 -->
<g id="node22" class="node"><title>Node22</title>
<g id="a_node22"><a xlink:href="../../d4/d00/Headers_2include_2Headers_2Stack_8h.html" target="_top" xlink:title="Headers/Stack.h">
<polygon fill="none" stroke="black" points="1291,-129 1291,-148 1381,-148 1381,-129 1291,-129"/>
<text text-anchor="middle" x="1336" y="-136" font-family="Helvetica,sans-Serif" font-size="10.00">Headers/Stack.h</text>
</a>
</g>
</g>
<!-- Node19&#45;&gt;Node22 -->
<g id="edge30" class="edge"><title>Node19&#45;&gt;Node22</title>
<path fill="none" stroke="midnightblue" d="M1724.9,-191.457C1721.9,-190.949 1718.92,-190.46 1716,-190 1588.58,-169.902 1555.73,-172.044 1428,-154 1416.12,-152.321 1403.39,-150.397 1391.31,-148.511"/>
<polygon fill="midnightblue" stroke="midnightblue" points="1391.77,-145.04 1381.35,-146.942 1390.68,-151.955 1391.77,-145.04"/>
</g>
<!-- Node30 -->
<g id="node30" class="node"><title>Node30</title>
<polygon fill="none" stroke="#bfbfbf" points="1908,-6 1908,-25 1952,-25 1952,-6 1908,-6"/>
<text text-anchor="middle" x="1930" y="-13" font-family="Helvetica,sans-Serif" font-size="10.00">vector</text>
</g>
<!-- Node19&#45;&gt;Node30 -->
<g id="edge53" class="edge"><title>Node19&#45;&gt;Node30</title>
<path fill="none" stroke="midnightblue" d="M1779.11,-190.447C1765.49,-173.795 1747.56,-145.476 1760,-123 1775.72,-94.6014 1858.68,-51.0947 1902.62,-29.5377"/>
<polygon fill="midnightblue" stroke="midnightblue" points="1904.41,-32.5586 1911.88,-25.0393 1901.35,-26.2628 1904.41,-32.5586"/>
</g>
<!-- Node36 -->
<g id="node36" class="node"><title>Node36</title>
<polygon fill="none" stroke="#bfbfbf" points="2141,-129 2141,-148 2179,-148 2179,-129 2141,-129"/>
<text text-anchor="middle" x="2160" y="-136" font-family="Helvetica,sans-Serif" font-size="10.00">array</text>
</g>
<!-- Node19&#45;&gt;Node36 -->
<g id="edge48" class="edge"><title>Node19&#45;&gt;Node36</title>
<path fill="none" stroke="midnightblue" d="M1859.3,-201.054C1928.98,-195.983 2040.3,-183.643 2132,-154 2133.43,-153.537 2134.88,-153.006 2136.32,-152.427"/>
<polygon fill="midnightblue" stroke="midnightblue" points="2137.98,-155.515 2145.57,-148.123 2135.03,-149.169 2137.98,-155.515"/>
</g>
<!-- Node37 -->
<g id="node37" class="node"><title>Node37</title>
<polygon fill="none" stroke="#bfbfbf" points="1769.5,-129 1769.5,-148 1814.5,-148 1814.5,-129 1769.5,-129"/>
<text text-anchor="middle" x="1792" y="-136" font-family="Helvetica,sans-Serif" font-size="10.00">iosfwd</text>
</g>
<!-- Node19&#45;&gt;Node37 -->
<g id="edge50" class="edge"><title>Node19&#45;&gt;Node37</title>
<path fill="none" stroke="midnightblue" d="M1792,-190.396C1792,-181.064 1792,-168.714 1792,-158.517"/>
<polygon fill="midnightblue" stroke="midnightblue" points="1795.5,-158.195 1792,-148.195 1788.5,-158.195 1795.5,-158.195"/>
</g>
<!-- Node38 -->
<g id="node38" class="node"><title>Node38</title>
<polygon fill="none" stroke="#bfbfbf" points="1833,-129 1833,-148 1967,-148 1967,-129 1833,-129"/>
<text text-anchor="middle" x="1900" y="-136" font-family="Helvetica,sans-Serif" font-size="10.00">DataDescriptorMatcher.inc</text>
</g>
<!-- Node19&#45;&gt;Node38 -->
<g id="edge54" class="edge"><title>Node19&#45;&gt;Node38</title>
<path fill="none" stroke="midnightblue" d="M1815.43,-190.396C1833.71,-179.395 1858.96,-164.2 1877.1,-153.282"/>
<polygon fill="midnightblue" stroke="midnightblue" points="1879.1,-156.162 1885.87,-148.007 1875.49,-150.165 1879.1,-156.162"/>
</g>
<!-- Node20&#45;&gt;Node4 -->
<g id="edge24" class="edge"><title>Node20&#45;&gt;Node4</title>
<path fill="none" stroke="midnightblue" d="M1984.71,-124.451C1981.77,-123.951 1978.85,-123.465 1976,-123 1888.87,-108.821 1788.03,-95.1727 1722.75,-86.6978"/>
<polygon fill="midnightblue" stroke="midnightblue" points="1722.95,-83.1947 1712.58,-85.3827 1722.05,-90.1369 1722.95,-83.1947"/>
</g>
<!-- Node20&#45;&gt;Node5 -->
<g id="edge25" class="edge"><title>Node20&#45;&gt;Node5</title>
<path fill="none" stroke="midnightblue" d="M2061.36,-123.145C2072.75,-100.906 2094.64,-58.1862 2106.97,-34.1134"/>
<polygon fill="midnightblue" stroke="midnightblue" points="2110.17,-35.548 2111.62,-25.0522 2103.94,-32.3558 2110.17,-35.548"/>
</g>
<!-- Node20&#45;&gt;Node6 -->
<g id="edge27" class="edge"><title>Node20&#45;&gt;Node6</title>
<path fill="none" stroke="midnightblue" d="M2069.05,-123.383C2093.4,-100.544 2141.24,-55.6668 2166.49,-31.9824"/>
<polygon fill="midnightblue" stroke="midnightblue" points="2168.94,-34.4863 2173.84,-25.0922 2164.15,-29.3807 2168.94,-34.4863"/>
</g>
<!-- Node20&#45;&gt;Node7 -->
<g id="edge28" class="edge"><title>Node20&#45;&gt;Node7</title>
<path fill="none" stroke="midnightblue" d="M2039.57,-123.235C2030.71,-113.722 2019.8,-100.519 2013,-87 2004.76,-70.6149 2000.08,-50.139 1997.57,-35.4826"/>
<polygon fill="midnightblue" stroke="midnightblue" points="2000.96,-34.5232 1995.99,-25.1654 1994.04,-35.5789 2000.96,-34.5232"/>
</g>
<!-- Node21 -->
<g id="node21" class="node"><title>Node21</title>
<polygon fill="none" stroke="#bfbfbf" points="2021.5,-67.5 2021.5,-86.5 2064.5,-86.5 2064.5,-67.5 2021.5,-67.5"/>
<text text-anchor="middle" x="2043" y="-74.5" font-family="Helvetica,sans-Serif" font-size="10.00">cstdio</text>
</g>
<!-- Node20&#45;&gt;Node21 -->
<g id="edge26" class="edge"><title>Node20&#45;&gt;Node21</title>
<path fill="none" stroke="midnightblue" d="M2051.39,-123.399C2049.91,-115.377 2048.03,-105.233 2046.43,-96.569"/>
<polygon fill="midnightblue" stroke="midnightblue" points="2049.86,-95.8548 2044.6,-86.6578 2042.98,-97.1275 2049.86,-95.8548"/>
</g>
<!-- Node22&#45;&gt;Node4 -->
<g id="edge47" class="edge"><title>Node22&#45;&gt;Node4</title>
<path fill="none" stroke="midnightblue" d="M1368.99,-128.968C1377.44,-126.899 1386.53,-124.773 1395,-123 1460.43,-109.292 1535.79,-96.5378 1588.28,-88.1341"/>
<polygon fill="midnightblue" stroke="midnightblue" points="1589.14,-91.5414 1598.47,-86.5123 1588.04,-84.6285 1589.14,-91.5414"/>
</g>
<!-- Node23 -->
<g id="node23" class="node"><title>Node23</title>
<g id="a_node23"><a xlink:href="../../dc/d03/MemoryResources_8h.html" target="_top" xlink:title="MemoryResources/MemoryResources.h">
<polygon fill="none" stroke="black" points="937.5,-67.5 937.5,-86.5 1130.5,-86.5 1130.5,-67.5 937.5,-67.5"/>
<text text-anchor="middle" x="1034" y="-74.5" font-family="Helvetica,sans-Serif" font-size="10.00">MemoryResources/MemoryResources.h</text>
</a>
</g>
</g>
<!-- Node22&#45;&gt;Node23 -->
<g id="edge31" class="edge"><title>Node22&#45;&gt;Node23</title>
<path fill="none" stroke="midnightblue" d="M1305.27,-128.948C1297.39,-126.879 1288.9,-124.759 1281,-123 1219.1,-109.224 1147.79,-96.5734 1097.75,-88.2174"/>
<polygon fill="midnightblue" stroke="midnightblue" points="1098.16,-84.7375 1087.72,-86.5526 1097.01,-91.643 1098.16,-84.7375"/>
</g>
<!-- Node23&#45;&gt;Node8 -->
<g id="edge36" class="edge"><title>Node23&#45;&gt;Node8</title>
<path fill="none" stroke="midnightblue" d="M1130.53,-71.8577C1205.42,-66.8111 1311.24,-55.6479 1401,-31 1403.29,-30.3708 1405.63,-29.6093 1407.95,-28.7686"/>
<polygon fill="midnightblue" stroke="midnightblue" points="1409.27,-32.0088 1417.22,-25.0024 1406.64,-25.5236 1409.27,-32.0088"/>
</g>
<!-- Node23&#45;&gt;Node11 -->
<g id="edge37" class="edge"><title>Node23&#45;&gt;Node11</title>
<path fill="none" stroke="midnightblue" d="M1130.84,-74.9509C1333.1,-72.1806 1815.03,-62.5539 2218,-31 2249.12,-28.5633 2284.53,-24.174 2309.15,-20.8609"/>
<polygon fill="midnightblue" stroke="midnightblue" points="2309.89,-24.2923 2319.33,-19.4706 2308.95,-17.3568 2309.89,-24.2923"/>
</g>
<!-- Node23&#45;&gt;Node13 -->
<g id="edge46" class="edge"><title>Node23&#45;&gt;Node13</title>
<path fill="none" stroke="midnightblue" d="M1130.79,-68.1492C1218.52,-60.5032 1351.26,-47.6138 1466,-31 1474.33,-29.7941 1483.12,-28.338 1491.69,-26.8198"/>
<polygon fill="midnightblue" stroke="midnightblue" points="1492.38,-30.251 1501.6,-25.0202 1491.13,-23.3637 1492.38,-30.251"/>
</g>
<!-- Node24 -->
<g id="node24" class="node"><title>Node24</title>
<polygon fill="none" stroke="#bfbfbf" points="174,-0.5 174,-30.5 274,-30.5 274,-0.5 174,-0.5"/>
<text text-anchor="start" x="182" y="-18.5" font-family="Helvetica,sans-Serif" font-size="10.00">boost/container/flat</text>
<text text-anchor="middle" x="224" y="-7.5" font-family="Helvetica,sans-Serif" font-size="10.00">_map.hpp</text>
</g>
<!-- Node23&#45;&gt;Node24 -->
<g id="edge32" class="edge"><title>Node23&#45;&gt;Node24</title>
<path fill="none" stroke="midnightblue" d="M937.39,-75.7852C795.803,-74.2313 523.669,-66.5434 284.034,-30.9602"/>
<polygon fill="midnightblue" stroke="midnightblue" points="284.498,-27.4907 274.088,-29.4644 283.457,-34.4128 284.498,-27.4907"/>
</g>
<!-- Node25 -->
<g id="node25" class="node"><title>Node25</title>
<polygon fill="none" stroke="#bfbfbf" points="292,-0.5 292,-30.5 408,-30.5 408,-0.5 292,-0.5"/>
<text text-anchor="start" x="300" y="-18.5" font-family="Helvetica,sans-Serif" font-size="10.00">boost/container/pmr</text>
<text text-anchor="middle" x="350" y="-7.5" font-family="Helvetica,sans-Serif" font-size="10.00">/memory_resource.hpp</text>
</g>
<!-- Node23&#45;&gt;Node25 -->
<g id="edge33" class="edge"><title>Node23&#45;&gt;Node25</title>
<path fill="none" stroke="midnightblue" d="M937.46,-73.2587C817.595,-68.8901 606.808,-58.0486 418.315,-31.2212"/>
<polygon fill="midnightblue" stroke="midnightblue" points="418.617,-27.7285 408.22,-29.7658 417.618,-34.6569 418.617,-27.7285"/>
</g>
<!-- Node26 -->
<g id="node26" class="node"><title>Node26</title>
<polygon fill="none" stroke="#bfbfbf" points="642,-0.5 642,-30.5 798,-30.5 798,-0.5 642,-0.5"/>
<text text-anchor="start" x="650" y="-18.5" font-family="Helvetica,sans-Serif" font-size="10.00">boost/container/pmr</text>
<text text-anchor="middle" x="720" y="-7.5" font-family="Helvetica,sans-Serif" font-size="10.00">/monotonic_buffer_resource.hpp</text>
</g>
<!-- Node23&#45;&gt;Node26 -->
<g id="edge34" class="edge"><title>Node23&#45;&gt;Node26</title>
<path fill="none" stroke="midnightblue" d="M989.011,-67.4751C940.92,-58.3623 863.572,-43.7054 804.131,-32.442"/>
<polygon fill="midnightblue" stroke="midnightblue" points="804.48,-28.946 794.004,-30.523 803.177,-35.8236 804.48,-28.946"/>
</g>
<!-- Node27 -->
<g id="node27" class="node"><title>Node27</title>
<polygon fill="none" stroke="#bfbfbf" points="816.5,-0.5 816.5,-30.5 949.5,-30.5 949.5,-0.5 816.5,-0.5"/>
<text text-anchor="start" x="824.5" y="-18.5" font-family="Helvetica,sans-Serif" font-size="10.00">boost/container/pmr</text>
<text text-anchor="middle" x="883" y="-7.5" font-family="Helvetica,sans-Serif" font-size="10.00">/polymorphic_allocator.hpp</text>
</g>
<!-- Node23&#45;&gt;Node27 -->
<g id="edge35" class="edge"><title>Node23&#45;&gt;Node27</title>
<path fill="none" stroke="midnightblue" d="M1012.37,-67.4751C990.481,-58.8518 955.998,-45.2641 928.135,-34.2852"/>
<polygon fill="midnightblue" stroke="midnightblue" points="929.175,-30.9328 918.588,-30.523 926.608,-37.4454 929.175,-30.9328"/>
</g>
<!-- Node28 -->
<g id="node28" class="node"><title>Node28</title>
<polygon fill="none" stroke="#bfbfbf" points="968,-6 968,-25 1030,-25 1030,-6 968,-6"/>
<text text-anchor="middle" x="999" y="-13" font-family="Helvetica,sans-Serif" font-size="10.00">type_traits</text>
</g>
<!-- Node23&#45;&gt;Node28 -->
<g id="edge38" class="edge"><title>Node23&#45;&gt;Node28</title>
<path fill="none" stroke="midnightblue" d="M1028.99,-67.4751C1023.84,-58.7268 1015.69,-44.8691 1009.18,-33.8093"/>
<polygon fill="midnightblue" stroke="midnightblue" points="1012.09,-31.8539 1004.01,-25.0091 1006.06,-35.403 1012.09,-31.8539"/>
</g>
<!-- Node29 -->
<g id="node29" class="node"><title>Node29</title>
<polygon fill="none" stroke="#bfbfbf" points="1048,-6 1048,-25 1088,-25 1088,-6 1048,-6"/>
<text text-anchor="middle" x="1068" y="-13" font-family="Helvetica,sans-Serif" font-size="10.00">utility</text>
</g>
<!-- Node23&#45;&gt;Node29 -->
<g id="edge39" class="edge"><title>Node23&#45;&gt;Node29</title>
<path fill="none" stroke="midnightblue" d="M1038.87,-67.4751C1043.87,-58.7268 1051.79,-44.8691 1058.11,-33.8093"/>
<polygon fill="midnightblue" stroke="midnightblue" points="1061.22,-35.428 1063.14,-25.0091 1055.14,-31.955 1061.22,-35.428"/>
</g>
<!-- Node23&#45;&gt;Node30 -->
<g id="edge40" class="edge"><title>Node23&#45;&gt;Node30</title>
<path fill="none" stroke="midnightblue" d="M1130.71,-75.6275C1324.93,-74.1166 1756.02,-66.7086 1899,-31 1900.99,-30.5033 1903,-29.8771 1905,-29.1654"/>
<polygon fill="midnightblue" stroke="midnightblue" points="1906.81,-32.2044 1914.66,-25.0972 1904.09,-25.7533 1906.81,-32.2044"/>
</g>
<!-- Node31 -->
<g id="node31" class="node"><title>Node31</title>
<polygon fill="none" stroke="#bfbfbf" points="540.5,-6 540.5,-25 623.5,-25 623.5,-6 540.5,-6"/>
<text text-anchor="middle" x="582" y="-13" font-family="Helvetica,sans-Serif" font-size="10.00">unordered_map</text>
</g>
<!-- Node23&#45;&gt;Node31 -->
<g id="edge41" class="edge"><title>Node23&#45;&gt;Node31</title>
<path fill="none" stroke="midnightblue" d="M937.304,-69.6513C855.655,-63.2184 735.932,-51.2635 633,-31 628.281,-30.071 623.364,-28.9172 618.526,-27.669"/>
<polygon fill="midnightblue" stroke="midnightblue" points="619.364,-24.2698 608.795,-25.0163 617.523,-31.0234 619.364,-24.2698"/>
</g>
<!-- Node32 -->
<g id="node32" class="node"><title>Node32</title>
<polygon fill="none" stroke="#bfbfbf" points="425.5,-6 425.5,-25 522.5,-25 522.5,-6 425.5,-6"/>
<text text-anchor="middle" x="474" y="-13" font-family="Helvetica,sans-Serif" font-size="10.00">FairMQMessage.h</text>
</g>
<!-- Node23&#45;&gt;Node32 -->
<g id="edge42" class="edge"><title>Node23&#45;&gt;Node32</title>
<path fill="none" stroke="midnightblue" d="M937.451,-71.9509C835.751,-66.6171 671.222,-54.9495 531,-31 525.401,-30.0437 519.544,-28.8185 513.806,-27.4862"/>
<polygon fill="midnightblue" stroke="midnightblue" points="514.231,-23.9871 503.686,-25.0076 512.566,-30.7861 514.231,-23.9871"/>
</g>
<!-- Node33 -->
<g id="node33" class="node"><title>Node33</title>
<polygon fill="none" stroke="#bfbfbf" points="1106.5,-6 1106.5,-25 1237.5,-25 1237.5,-6 1106.5,-6"/>
<text text-anchor="middle" x="1172" y="-13" font-family="Helvetica,sans-Serif" font-size="10.00">FairMQTransportFactory.h</text>
</g>
<!-- Node23&#45;&gt;Node33 -->
<g id="edge43" class="edge"><title>Node23&#45;&gt;Node33</title>
<path fill="none" stroke="midnightblue" d="M1053.77,-67.4751C1077.14,-57.4013 1116.21,-40.5525 1143,-29.0023"/>
<polygon fill="midnightblue" stroke="midnightblue" points="1144.47,-32.1824 1152.26,-25.0091 1141.7,-25.7544 1144.47,-32.1824"/>
</g>
<!-- Node34 -->
<g id="node34" class="node"><title>Node34</title>
<polygon fill="none" stroke="#bfbfbf" points="1255.5,-6 1255.5,-25 1392.5,-25 1392.5,-6 1255.5,-6"/>
<text text-anchor="middle" x="1324" y="-13" font-family="Helvetica,sans-Serif" font-size="10.00">fairmq/MemoryResources.h</text>
</g>
<!-- Node23&#45;&gt;Node34 -->
<g id="edge44" class="edge"><title>Node23&#45;&gt;Node34</title>
<path fill="none" stroke="midnightblue" d="M1075.55,-67.4751C1127.45,-56.8269 1216.24,-38.6092 1272.43,-27.0806"/>
<polygon fill="midnightblue" stroke="midnightblue" points="1273.43,-30.4476 1282.53,-25.0091 1272.03,-23.5904 1273.43,-30.4476"/>
</g>
<!-- Node35 -->
<g id="node35" class="node"><title>Node35</title>
<polygon fill="none" stroke="#bfbfbf" points="0,-6 0,-25 156,-25 156,-6 0,-6"/>
<text text-anchor="middle" x="78" y="-13" font-family="Helvetica,sans-Serif" font-size="10.00">fairmq/MemoryResourceTools.h</text>
</g>
<!-- Node23&#45;&gt;Node35 -->
<g id="edge45" class="edge"><title>Node23&#45;&gt;Node35</title>
<path fill="none" stroke="midnightblue" d="M937.269,-74.5678C776.503,-71.3866 444.34,-61.4118 165,-31 154.618,-29.8697 143.592,-28.3124 133.003,-26.636"/>
<polygon fill="midnightblue" stroke="midnightblue" points="133.454,-23.1633 123.02,-25.0022 132.324,-30.0714 133.454,-23.1633"/>
</g>
<!-- Node40&#45;&gt;Node4 -->
<g id="edge60" class="edge"><title>Node40&#45;&gt;Node4</title>
<path fill="none" stroke="midnightblue" d="M1204.8,-195.781C1177.18,-180.701 1128.34,-148.878 1152,-123 1180.64,-91.681 1454.15,-81.9873 1584.96,-79.1289"/>
<polygon fill="midnightblue" stroke="midnightblue" points="1585.34,-82.6217 1595.27,-78.9114 1585.19,-75.6233 1585.34,-82.6217"/>
</g>
<!-- Node40&#45;&gt;Node15 -->
<g id="edge61" class="edge"><title>Node40&#45;&gt;Node15</title>
<path fill="none" stroke="midnightblue" d="M1221.33,-195.734C1220.59,-186.183 1219.39,-170.618 1218.44,-158.283"/>
<polygon fill="midnightblue" stroke="midnightblue" points="1221.92,-157.829 1217.66,-148.127 1214.94,-158.366 1221.92,-157.829"/>
</g>
<!-- Node40&#45;&gt;Node22 -->
<g id="edge62" class="edge"><title>Node40&#45;&gt;Node22</title>
<path fill="none" stroke="midnightblue" d="M1237.37,-195.734C1256.52,-184.818 1289.44,-166.049 1311.94,-153.221"/>
<polygon fill="midnightblue" stroke="midnightblue" points="1313.92,-156.121 1320.87,-148.127 1310.45,-150.04 1313.92,-156.121"/>
</g>
<!-- Node42&#45;&gt;Node6 -->
<g id="edge68" class="edge"><title>Node42&#45;&gt;Node6</title>
<path fill="none" stroke="midnightblue" d="M2283,-313.342C2283,-290.751 2283,-245.153 2283,-206.5 2283,-206.5 2283,-206.5 2283,-137.5 2283,-89.5867 2235.84,-50.4144 2206.29,-30.5753"/>
<polygon fill="midnightblue" stroke="midnightblue" points="2208.05,-27.5478 2197.76,-25.0508 2204.25,-33.4237 2208.05,-27.5478"/>
</g>
<!-- Node42&#45;&gt;Node11 -->
<g id="edge66" class="edge"><title>Node42&#45;&gt;Node11</title>
<path fill="none" stroke="midnightblue" d="M2311.18,-313.336C2344.94,-294.135 2397,-256.431 2397,-206.5 2397,-206.5 2397,-206.5 2397,-137.5 2397,-97.0899 2370.66,-55.7056 2353.79,-33.3451"/>
<polygon fill="midnightblue" stroke="midnightblue" points="2356.37,-30.9597 2347.45,-25.2384 2350.85,-35.2719 2356.37,-30.9597"/>
</g>
<!-- Node42&#45;&gt;Node18 -->
<g id="edge65" class="edge"><title>Node42&#45;&gt;Node18</title>
<path fill="none" stroke="midnightblue" d="M2215.98,-321.161C2096.37,-309.846 1847.2,-286.276 1724.86,-274.703"/>
<polygon fill="midnightblue" stroke="midnightblue" points="1725.14,-271.214 1714.85,-273.756 1724.48,-278.183 1725.14,-271.214"/>
</g>
<!-- Node42&#45;&gt;Node30 -->
<g id="edge67" class="edge"><title>Node42&#45;&gt;Node30</title>
<path fill="none" stroke="midnightblue" d="M2279.94,-313.479C2271.41,-277.462 2244.26,-180.5 2188,-123 2112.15,-45.4874 2063.18,-70.0369 1962,-31 1960.58,-30.4511 1959.13,-29.8712 1957.67,-29.2714"/>
<polygon fill="midnightblue" stroke="midnightblue" points="1958.69,-25.9003 1948.12,-25.1465 1955.91,-32.326 1958.69,-25.9003"/>
</g>
</g>
</svg>
