<?xml version="1.0" encoding="UTF-8" standalone="no"?>
<!DOCTYPE svg PUBLIC "-//W3C//DTD SVG 1.1//EN"
 "http://www.w3.org/Graphics/SVG/1.1/DTD/svg11.dtd">
<!-- Generated by graphviz version 2.38.0 (20140413.2041)
 -->
<!-- Title: /home/travis/build/AliceO2Group/AliceO2/Detectors/MUON/MCH/Mapping/SegContour/include/MCHMappingSegContour/CathodeSegmentationContours.h Pages: 1 -->
<svg width="998pt" height="363pt"
 viewBox="0.00 0.00 998.00 363.00" xmlns="http://www.w3.org/2000/svg" xmlns:xlink="http://www.w3.org/1999/xlink">
<g id="graph0" class="graph" transform="scale(1 1) rotate(0) translate(4 359)">
<title>/home/travis/build/AliceO2Group/AliceO2/Detectors/MUON/MCH/Mapping/SegContour/include/MCHMappingSegContour/CathodeSegmentationContours.h</title>
<!-- Node1 -->
<g id="node1" class="node"><title>Node1</title>
<polygon fill="#bfbfbf" stroke="black" points="441,-291.5 441,-354.5 661,-354.5 661,-291.5 441,-291.5"/>
<text text-anchor="start" x="449" y="-342.5" font-family="Helvetica,sans-Serif" font-size="10.00">/home/travis/build</text>
<text text-anchor="start" x="449" y="-331.5" font-family="Helvetica,sans-Serif" font-size="10.00">/AliceO2Group/AliceO2</text>
<text text-anchor="start" x="449" y="-320.5" font-family="Helvetica,sans-Serif" font-size="10.00">/Detectors/MUON/MCH/Mapping</text>
<text text-anchor="start" x="449" y="-309.5" font-family="Helvetica,sans-Serif" font-size="10.00">/SegContour/include/MCHMappingSegContour</text>
<text text-anchor="middle" x="551" y="-298.5" font-family="Helvetica,sans-Serif" font-size="10.00">/CathodeSegmentationContours.h</text>
</g>
<!-- Node2 -->
<g id="node2" class="node"><title>Node2</title>
<polygon fill="none" stroke="#bfbfbf" points="438,-112.5 438,-131.5 482,-131.5 482,-112.5 438,-112.5"/>
<text text-anchor="middle" x="460" y="-119.5" font-family="Helvetica,sans-Serif" font-size="10.00">vector</text>
</g>
<!-- Node1&#45;&gt;Node2 -->
<g id="edge1" class="edge"><title>Node1&#45;&gt;Node2</title>
<path fill="none" stroke="midnightblue" d="M511.107,-291.493C500.046,-281.087 489.129,-268.607 482,-255 462.745,-218.251 459.648,-168.542 459.536,-141.835"/>
<polygon fill="midnightblue" stroke="midnightblue" points="463.038,-141.641 459.64,-131.606 456.038,-141.57 463.038,-141.641"/>
</g>
<!-- Node3 -->
<g id="node3" class="node"><title>Node3</title>
<g id="a_node3"><a xlink:href="../../db/d08/Contour_8h.html" target="_top" xlink:title="MCHContour/Contour.h">
<polygon fill="none" stroke="black" points="491,-235.5 491,-254.5 611,-254.5 611,-235.5 491,-235.5"/>
<text text-anchor="middle" x="551" y="-242.5" font-family="Helvetica,sans-Serif" font-size="10.00">MCHContour/Contour.h</text>
</a>
</g>
</g>
<!-- Node1&#45;&gt;Node3 -->
<g id="edge2" class="edge"><title>Node1&#45;&gt;Node3</title>
<path fill="none" stroke="midnightblue" d="M551,-291.088C551,-282.15 551,-272.669 551,-264.719"/>
<polygon fill="midnightblue" stroke="midnightblue" points="554.5,-264.718 551,-254.718 547.5,-264.718 554.5,-264.718"/>
</g>
<!-- Node4 -->
<g id="node4" class="node"><title>Node4</title>
<g id="a_node4"><a xlink:href="../../dc/ddd/Polygon_8h.html" target="_top" xlink:title="Polygon.h">
<polygon fill="none" stroke="black" points="626,-174 626,-193 686,-193 686,-174 626,-174"/>
<text text-anchor="middle" x="656" y="-181" font-family="Helvetica,sans-Serif" font-size="10.00">Polygon.h</text>
</a>
</g>
</g>
<!-- Node1&#45;&gt;Node4 -->
<g id="edge24" class="edge"><title>Node1&#45;&gt;Node4</title>
<path fill="none" stroke="midnightblue" d="M587.009,-291.31C598.394,-280.54 610.477,-267.894 620,-255 632.088,-238.632 642.236,-217.614 648.644,-202.801"/>
<polygon fill="midnightblue" stroke="midnightblue" points="652.002,-203.843 652.624,-193.266 645.542,-201.146 652.002,-203.843"/>
</g>
<!-- Node10 -->
<g id="node10" class="node"><title>Node10</title>
<g id="a_node10"><a xlink:href="../../d0/ddc/BBox_8h.html" target="_top" xlink:title="BBox.h">
<polygon fill="none" stroke="black" points="904.5,-112.5 904.5,-131.5 953.5,-131.5 953.5,-112.5 904.5,-112.5"/>
<text text-anchor="middle" x="929" y="-119.5" font-family="Helvetica,sans-Serif" font-size="10.00">BBox.h</text>
</a>
</g>
</g>
<!-- Node1&#45;&gt;Node10 -->
<g id="edge25" class="edge"><title>Node1&#45;&gt;Node10</title>
<path fill="none" stroke="midnightblue" d="M609.234,-291.342C693,-247.243 843.983,-167.758 903.701,-136.319"/>
<polygon fill="midnightblue" stroke="midnightblue" points="905.58,-139.285 912.798,-131.529 902.319,-133.091 905.58,-139.285"/>
</g>
<!-- Node20 -->
<g id="node20" class="node"><title>Node20</title>
<g id="a_node20"><a xlink:href="../../df/db6/CathodeSegmentation_8h.html" target="_top" xlink:title="MCHMappingInterface\l/CathodeSegmentation.h">
<polygon fill="none" stroke="black" points="236.5,-168.5 236.5,-198.5 361.5,-198.5 361.5,-168.5 236.5,-168.5"/>
<text text-anchor="start" x="244.5" y="-186.5" font-family="Helvetica,sans-Serif" font-size="10.00">MCHMappingInterface</text>
<text text-anchor="middle" x="299" y="-175.5" font-family="Helvetica,sans-Serif" font-size="10.00">/CathodeSegmentation.h</text>
</a>
</g>
</g>
<!-- Node1&#45;&gt;Node20 -->
<g id="edge26" class="edge"><title>Node1&#45;&gt;Node20</title>
<path fill="none" stroke="midnightblue" d="M495.073,-291.484C445.734,-264.563 375.375,-226.173 333.727,-203.448"/>
<polygon fill="midnightblue" stroke="midnightblue" points="335.246,-200.29 324.791,-198.573 331.893,-206.435 335.246,-200.29"/>
</g>
<!-- Node3&#45;&gt;Node2 -->
<g id="edge21" class="edge"><title>Node3&#45;&gt;Node2</title>
<path fill="none" stroke="midnightblue" d="M542.663,-235.341C534.304,-226.496 521.239,-212.224 511,-199 496.016,-179.647 480.6,-156.069 470.697,-140.356"/>
<polygon fill="midnightblue" stroke="midnightblue" points="473.558,-138.33 465.296,-131.698 467.618,-142.035 473.558,-138.33"/>
</g>
<!-- Node3&#45;&gt;Node4 -->
<g id="edge3" class="edge"><title>Node3&#45;&gt;Node4</title>
<path fill="none" stroke="midnightblue" d="M566.044,-235.475C583.275,-225.711 611.74,-209.581 632.034,-198.081"/>
<polygon fill="midnightblue" stroke="midnightblue" points="634.009,-200.984 640.984,-193.009 630.558,-194.894 634.009,-200.984"/>
</g>
<!-- Node7 -->
<g id="node7" class="node"><title>Node7</title>
<polygon fill="none" stroke="#bfbfbf" points="500.5,-112.5 500.5,-131.5 573.5,-131.5 573.5,-112.5 500.5,-112.5"/>
<text text-anchor="middle" x="537" y="-119.5" font-family="Helvetica,sans-Serif" font-size="10.00">initializer_list</text>
</g>
<!-- Node3&#45;&gt;Node7 -->
<g id="edge23" class="edge"><title>Node3&#45;&gt;Node7</title>
<path fill="none" stroke="midnightblue" d="M558.151,-235.364C564.773,-226.763 574.157,-212.873 578,-199 581.678,-185.722 582.975,-180.848 578,-168 573.546,-156.498 564.632,-146.131 556.251,-138.255"/>
<polygon fill="midnightblue" stroke="midnightblue" points="558.372,-135.46 548.541,-131.51 553.763,-140.729 558.372,-135.46"/>
</g>
<!-- Node19 -->
<g id="node19" class="node"><title>Node19</title>
<polygon fill="none" stroke="#bfbfbf" points="520.5,-174 520.5,-193 569.5,-193 569.5,-174 520.5,-174"/>
<text text-anchor="middle" x="545" y="-181" font-family="Helvetica,sans-Serif" font-size="10.00">cassert</text>
</g>
<!-- Node3&#45;&gt;Node19 -->
<g id="edge22" class="edge"><title>Node3&#45;&gt;Node19</title>
<path fill="none" stroke="midnightblue" d="M550.14,-235.475C549.294,-227.08 547.973,-213.981 546.882,-203.163"/>
<polygon fill="midnightblue" stroke="midnightblue" points="550.344,-202.607 545.858,-193.009 543.379,-203.31 550.344,-202.607"/>
</g>
<!-- Node4&#45;&gt;Node2 -->
<g id="edge6" class="edge"><title>Node4&#45;&gt;Node2</title>
<path fill="none" stroke="midnightblue" d="M627.918,-173.975C592.022,-163.078 530.012,-144.254 492.228,-132.784"/>
<polygon fill="midnightblue" stroke="midnightblue" points="492.841,-129.312 482.256,-129.756 490.808,-136.01 492.841,-129.312"/>
</g>
<!-- Node5 -->
<g id="node5" class="node"><title>Node5</title>
<polygon fill="none" stroke="#bfbfbf" points="575,-56.5 575,-75.5 629,-75.5 629,-56.5 575,-56.5"/>
<text text-anchor="middle" x="602" y="-63.5" font-family="Helvetica,sans-Serif" font-size="10.00">iostream</text>
</g>
<!-- Node4&#45;&gt;Node5 -->
<g id="edge4" class="edge"><title>Node4&#45;&gt;Node5</title>
<path fill="none" stroke="midnightblue" d="M648.607,-173.739C640.779,-164.073 628.534,-147.789 621,-132 613.88,-117.079 608.849,-98.9366 605.76,-85.6149"/>
<polygon fill="midnightblue" stroke="midnightblue" points="609.158,-84.7669 603.62,-75.7348 602.317,-86.2492 609.158,-84.7669"/>
</g>
<!-- Node6 -->
<g id="node6" class="node"><title>Node6</title>
<polygon fill="none" stroke="#bfbfbf" points="846,-112.5 846,-131.5 886,-131.5 886,-112.5 846,-112.5"/>
<text text-anchor="middle" x="866" y="-119.5" font-family="Helvetica,sans-Serif" font-size="10.00">utility</text>
</g>
<!-- Node4&#45;&gt;Node6 -->
<g id="edge5" class="edge"><title>Node4&#45;&gt;Node6</title>
<path fill="none" stroke="midnightblue" d="M686.303,-174.177C722.115,-164.299 783.478,-147.245 836,-132 836.098,-131.972 836.196,-131.943 836.294,-131.915"/>
<polygon fill="midnightblue" stroke="midnightblue" points="837.078,-135.332 845.681,-129.149 835.1,-128.618 837.078,-135.332"/>
</g>
<!-- Node4&#45;&gt;Node7 -->
<g id="edge7" class="edge"><title>Node4&#45;&gt;Node7</title>
<path fill="none" stroke="midnightblue" d="M638.95,-173.975C619.156,-164.078 586.283,-147.642 563.23,-136.115"/>
<polygon fill="midnightblue" stroke="midnightblue" points="564.528,-132.851 554.018,-131.509 561.397,-139.112 564.528,-132.851"/>
</g>
<!-- Node8 -->
<g id="node8" class="node"><title>Node8</title>
<polygon fill="none" stroke="#bfbfbf" points="630,-112.5 630,-131.5 682,-131.5 682,-112.5 630,-112.5"/>
<text text-anchor="middle" x="656" y="-119.5" font-family="Helvetica,sans-Serif" font-size="10.00">sstream</text>
</g>
<!-- Node4&#45;&gt;Node8 -->
<g id="edge8" class="edge"><title>Node4&#45;&gt;Node8</title>
<path fill="none" stroke="midnightblue" d="M656,-173.975C656,-165.58 656,-152.481 656,-141.663"/>
<polygon fill="midnightblue" stroke="midnightblue" points="659.5,-141.509 656,-131.509 652.5,-141.509 659.5,-141.509"/>
</g>
<!-- Node9 -->
<g id="node9" class="node"><title>Node9</title>
<polygon fill="none" stroke="#bfbfbf" points="700,-112.5 700,-131.5 756,-131.5 756,-112.5 700,-112.5"/>
<text text-anchor="middle" x="728" y="-119.5" font-family="Helvetica,sans-Serif" font-size="10.00">algorithm</text>
</g>
<!-- Node4&#45;&gt;Node9 -->
<g id="edge9" class="edge"><title>Node4&#45;&gt;Node9</title>
<path fill="none" stroke="midnightblue" d="M666.316,-173.975C677.651,-164.608 696.073,-149.384 709.839,-138.008"/>
<polygon fill="midnightblue" stroke="midnightblue" points="712.224,-140.577 717.703,-131.509 707.765,-135.181 712.224,-140.577"/>
</g>
<!-- Node4&#45;&gt;Node10 -->
<g id="edge10" class="edge"><title>Node4&#45;&gt;Node10</title>
<path fill="none" stroke="midnightblue" d="M686.292,-176.61C729.993,-168.002 813.47,-151.145 894.311,-132.069"/>
<polygon fill="midnightblue" stroke="midnightblue" points="895.233,-135.447 904.154,-129.732 893.616,-128.637 895.233,-135.447"/>
</g>
<!-- Node17 -->
<g id="node17" class="node"><title>Node17</title>
<g id="a_node17"><a xlink:href="../../dd/dbc/Detectors_2MUON_2MCH_2Contour_2include_2MCHContour_2Vertex_8h.html" target="_top" xlink:title="Vertex.h">
<polygon fill="none" stroke="black" points="774.5,-112.5 774.5,-131.5 827.5,-131.5 827.5,-112.5 774.5,-112.5"/>
<text text-anchor="middle" x="801" y="-119.5" font-family="Helvetica,sans-Serif" font-size="10.00">Vertex.h</text>
</a>
</g>
</g>
<!-- Node4&#45;&gt;Node17 -->
<g id="edge17" class="edge"><title>Node4&#45;&gt;Node17</title>
<path fill="none" stroke="midnightblue" d="M676.775,-173.975C701.432,-163.857 742.745,-146.905 770.902,-135.351"/>
<polygon fill="midnightblue" stroke="midnightblue" points="772.341,-138.543 780.264,-131.509 769.683,-132.067 772.341,-138.543"/>
</g>
<!-- Node11 -->
<g id="node11" class="node"><title>Node11</title>
<g id="a_node11"><a xlink:href="../../d2/dc4/Helper_8h.html" target="_top" xlink:title="Helper.h">
<polygon fill="none" stroke="black" points="866.5,-56.5 866.5,-75.5 919.5,-75.5 919.5,-56.5 866.5,-56.5"/>
<text text-anchor="middle" x="893" y="-63.5" font-family="Helvetica,sans-Serif" font-size="10.00">Helper.h</text>
</a>
</g>
</g>
<!-- Node10&#45;&gt;Node11 -->
<g id="edge11" class="edge"><title>Node10&#45;&gt;Node11</title>
<path fill="none" stroke="midnightblue" d="M923.055,-112.083C918.023,-104.534 910.663,-93.4948 904.487,-84.2298"/>
<polygon fill="midnightblue" stroke="midnightblue" points="907.293,-82.1301 898.834,-75.7511 901.469,-86.0131 907.293,-82.1301"/>
</g>
<!-- Node15 -->
<g id="node15" class="node"><title>Node15</title>
<polygon fill="none" stroke="#bfbfbf" points="789.5,-56.5 789.5,-75.5 848.5,-75.5 848.5,-56.5 789.5,-56.5"/>
<text text-anchor="middle" x="819" y="-63.5" font-family="Helvetica,sans-Serif" font-size="10.00">stdexcept</text>
</g>
<!-- Node10&#45;&gt;Node15 -->
<g id="edge15" class="edge"><title>Node10&#45;&gt;Node15</title>
<path fill="none" stroke="midnightblue" d="M911.327,-112.324C893.606,-103.625 866.097,-90.1202 845.712,-80.113"/>
<polygon fill="midnightblue" stroke="midnightblue" points="847.149,-76.9195 836.63,-75.6545 844.064,-83.2031 847.149,-76.9195"/>
</g>
<!-- Node16 -->
<g id="node16" class="node"><title>Node16</title>
<polygon fill="none" stroke="#bfbfbf" points="938,-56.5 938,-75.5 990,-75.5 990,-56.5 938,-56.5"/>
<text text-anchor="middle" x="964" y="-63.5" font-family="Helvetica,sans-Serif" font-size="10.00">ostream</text>
</g>
<!-- Node10&#45;&gt;Node16 -->
<g id="edge16" class="edge"><title>Node10&#45;&gt;Node16</title>
<path fill="none" stroke="midnightblue" d="M934.78,-112.083C939.672,-104.534 946.827,-93.4948 952.833,-84.2298"/>
<polygon fill="midnightblue" stroke="midnightblue" points="955.826,-86.0463 958.328,-75.7511 949.952,-82.239 955.826,-86.0463"/>
</g>
<!-- Node12 -->
<g id="node12" class="node"><title>Node12</title>
<polygon fill="none" stroke="#bfbfbf" points="811,-0.5 811,-19.5 855,-19.5 855,-0.5 811,-0.5"/>
<text text-anchor="middle" x="833" y="-7.5" font-family="Helvetica,sans-Serif" font-size="10.00">cmath</text>
</g>
<!-- Node11&#45;&gt;Node12 -->
<g id="edge12" class="edge"><title>Node11&#45;&gt;Node12</title>
<path fill="none" stroke="midnightblue" d="M883.36,-56.324C874.49,-48.3414 861.125,-36.3128 850.392,-26.6529"/>
<polygon fill="midnightblue" stroke="midnightblue" points="852.59,-23.922 842.815,-19.8339 847.907,-29.1251 852.59,-23.922"/>
</g>
<!-- Node13 -->
<g id="node13" class="node"><title>Node13</title>
<polygon fill="none" stroke="#bfbfbf" points="873,-0.5 873,-19.5 913,-19.5 913,-0.5 873,-0.5"/>
<text text-anchor="middle" x="893" y="-7.5" font-family="Helvetica,sans-Serif" font-size="10.00">limits</text>
</g>
<!-- Node11&#45;&gt;Node13 -->
<g id="edge13" class="edge"><title>Node11&#45;&gt;Node13</title>
<path fill="none" stroke="midnightblue" d="M893,-56.083C893,-49.0059 893,-38.8611 893,-29.9865"/>
<polygon fill="midnightblue" stroke="midnightblue" points="896.5,-29.751 893,-19.7511 889.5,-29.7511 896.5,-29.751"/>
</g>
<!-- Node14 -->
<g id="node14" class="node"><title>Node14</title>
<polygon fill="none" stroke="#bfbfbf" points="931,-0.5 931,-19.5 977,-19.5 977,-0.5 931,-0.5"/>
<text text-anchor="middle" x="954" y="-7.5" font-family="Helvetica,sans-Serif" font-size="10.00">cstdint</text>
</g>
<!-- Node11&#45;&gt;Node14 -->
<g id="edge14" class="edge"><title>Node11&#45;&gt;Node14</title>
<path fill="none" stroke="midnightblue" d="M902.801,-56.324C911.818,-48.3414 925.406,-36.3128 936.318,-26.6529"/>
<polygon fill="midnightblue" stroke="midnightblue" points="938.853,-29.083 944.021,-19.8339 934.213,-23.8416 938.853,-29.083"/>
</g>
<!-- Node17&#45;&gt;Node5 -->
<g id="edge18" class="edge"><title>Node17&#45;&gt;Node5</title>
<path fill="none" stroke="midnightblue" d="M774.162,-113.717C739.223,-104.236 678.001,-87.6234 638.763,-76.976"/>
<polygon fill="midnightblue" stroke="midnightblue" points="639.616,-73.5808 629.048,-74.3398 637.783,-80.3365 639.616,-73.5808"/>
</g>
<!-- Node17&#45;&gt;Node11 -->
<g id="edge20" class="edge"><title>Node17&#45;&gt;Node11</title>
<path fill="none" stroke="midnightblue" d="M815.781,-112.324C830.267,-103.822 852.573,-90.7288 869.493,-80.7975"/>
<polygon fill="midnightblue" stroke="midnightblue" points="871.403,-83.735 878.255,-75.6545 867.859,-77.6981 871.403,-83.735"/>
</g>
<!-- Node18 -->
<g id="node18" class="node"><title>Node18</title>
<polygon fill="none" stroke="#bfbfbf" points="721,-56.5 721,-75.5 771,-75.5 771,-56.5 721,-56.5"/>
<text text-anchor="middle" x="746" y="-63.5" font-family="Helvetica,sans-Serif" font-size="10.00">iomanip</text>
</g>
<!-- Node17&#45;&gt;Node18 -->
<g id="edge19" class="edge"><title>Node17&#45;&gt;Node18</title>
<path fill="none" stroke="midnightblue" d="M791.918,-112.083C783.829,-104.141 771.805,-92.3354 762.09,-82.7973"/>
<polygon fill="midnightblue" stroke="midnightblue" points="764.501,-80.2595 754.913,-75.7511 759.597,-85.2545 764.501,-80.2595"/>
</g>
<!-- Node20&#45;&gt;Node2 -->
<g id="edge31" class="edge"><title>Node20&#45;&gt;Node2</title>
<path fill="none" stroke="midnightblue" d="M337.155,-168.399C365.024,-158.1 402.36,-144.302 428.53,-134.63"/>
<polygon fill="midnightblue" stroke="midnightblue" points="429.803,-137.891 437.97,-131.142 427.376,-131.325 429.803,-137.891"/>
</g>
<!-- Node20&#45;&gt;Node5 -->
<g id="edge30" class="edge"><title>Node20&#45;&gt;Node5</title>
<path fill="none" stroke="midnightblue" d="M324.545,-168.441C360.848,-148.491 423.596,-114.131 429,-112 474.457,-94.0702 529.443,-81.1726 565.039,-73.9"/>
<polygon fill="midnightblue" stroke="midnightblue" points="565.866,-77.304 574.986,-71.9112 564.494,-70.4398 565.866,-77.304"/>
</g>
<!-- Node20&#45;&gt;Node15 -->
<g id="edge28" class="edge"><title>Node20&#45;&gt;Node15</title>
<path fill="none" stroke="midnightblue" d="M255.643,-168.419C222.142,-155.364 184.778,-134.595 206,-112 248.083,-67.1949 681.805,-83.8041 779.327,-75.496"/>
<polygon fill="midnightblue" stroke="midnightblue" points="779.734,-78.9725 789.285,-74.3866 778.959,-72.0155 779.734,-78.9725"/>
</g>
<!-- Node21 -->
<g id="node21" class="node"><title>Node21</title>
<g id="a_node21"><a xlink:href="../../d0/dc7/CathodeSegmentationCInterface_8h.html" target="_top" xlink:title="CathodeSegmentationCInterface.h">
<polygon fill="none" stroke="black" points="215.5,-112.5 215.5,-131.5 382.5,-131.5 382.5,-112.5 215.5,-112.5"/>
<text text-anchor="middle" x="299" y="-119.5" font-family="Helvetica,sans-Serif" font-size="10.00">CathodeSegmentationCInterface.h</text>
</a>
</g>
</g>
<!-- Node20&#45;&gt;Node21 -->
<g id="edge27" class="edge"><title>Node20&#45;&gt;Node21</title>
<path fill="none" stroke="midnightblue" d="M299,-168.399C299,-160.466 299,-150.458 299,-141.858"/>
<polygon fill="midnightblue" stroke="midnightblue" points="302.5,-141.658 299,-131.658 295.5,-141.658 302.5,-141.658"/>
</g>
<!-- Node22 -->
<g id="node22" class="node"><title>Node22</title>
<polygon fill="none" stroke="#bfbfbf" points="0,-112.5 0,-131.5 52,-131.5 52,-112.5 0,-112.5"/>
<text text-anchor="middle" x="26" y="-119.5" font-family="Helvetica,sans-Serif" font-size="10.00">memory</text>
</g>
<!-- Node20&#45;&gt;Node22 -->
<g id="edge29" class="edge"><title>Node20&#45;&gt;Node22</title>
<path fill="none" stroke="midnightblue" d="M236.2,-169.935C190.468,-160.611 126.801,-147.27 62.284,-132.231"/>
<polygon fill="midnightblue" stroke="midnightblue" points="62.8784,-128.776 52.3436,-129.902 61.2815,-135.591 62.8784,-128.776"/>
</g>
<!-- Node23 -->
<g id="node23" class="node"><title>Node23</title>
<polygon fill="none" stroke="#bfbfbf" points="70,-112.5 70,-131.5 160,-131.5 160,-112.5 70,-112.5"/>
<text text-anchor="middle" x="115" y="-119.5" font-family="Helvetica,sans-Serif" font-size="10.00">boost/format.hpp</text>
</g>
<!-- Node20&#45;&gt;Node23 -->
<g id="edge32" class="edge"><title>Node20&#45;&gt;Node23</title>
<path fill="none" stroke="midnightblue" d="M255.395,-168.399C223.6,-158.118 181.026,-144.351 151.125,-134.682"/>
<polygon fill="midnightblue" stroke="midnightblue" points="152.097,-131.318 141.505,-131.571 149.943,-137.978 152.097,-131.318"/>
</g>
</g>
</svg>
