<?xml version="1.0" encoding="UTF-8" standalone="no"?>
<!DOCTYPE svg PUBLIC "-//W3C//DTD SVG 1.1//EN"
 "http://www.w3.org/Graphics/SVG/1.1/DTD/svg11.dtd">
<!-- Generated by graphviz version 2.38.0 (20140413.2041)
 -->
<!-- Title: o2::algorithm::TableView&lt; RowDescT, ColumnDescT, ParserT &gt;::outerIterator&lt; Direction &gt; Pages: 1 -->
<!--zoomable 838 -->
<svg id="main" version="1.1" xmlns="http://www.w3.org/2000/svg" xmlns:xlink="http://www.w3.org/1999/xlink" xml:space="preserve" onload="init(evt)">
<style type="text/css"><![CDATA[
.edge:hover path { stroke: red; }
.edge:hover polygon { stroke: red; fill: red; }
]]></style>
<script type="text/javascript"><![CDATA[
var edges = document.getElementsByTagName('g');
if (edges && edges.length) {
  for (var i=0;i<edges.length;i++) {
    if (edges[i].id.substr(0,4)=='edge') {
      edges[i].setAttribute('class','edge');
    }
  }
}
]]></script>
        <defs>
                <circle id="rim" cx="0" cy="0" r="7"/>
                <circle id="rim2" cx="0" cy="0" r="3.5"/>
                <g id="zoomPlus">
                        <use xlink:href="#rim" fill="#404040">
                                <set attributeName="fill" to="#808080" begin="zoomplus.mouseover" end="zoomplus.mouseout"/>
                        </use>
                        <path d="M-4,0h8M0,-4v8" fill="none" stroke="white" stroke-width="1.5" pointer-events="none"/>
                </g>
                <g id="zoomMin">
                        <use xlink:href="#rim" fill="#404040">
                                <set attributeName="fill" to="#808080" begin="zoomminus.mouseover" end="zoomminus.mouseout"/>
                        </use>
                        <path d="M-4,0h8" fill="none" stroke="white" stroke-width="1.5" pointer-events="none"/>
                </g>
                <g id="dirArrow">
                        <path fill="none" stroke="white" stroke-width="1.5" d="M0,-3.0v7 M-2.5,-0.5L0,-3.0L2.5,-0.5"/>
                </g>
               <g id="resetDef">
                       <use xlink:href="#rim2" fill="#404040">
                               <set attributeName="fill" to="#808080" begin="reset.mouseover" end="reset.mouseout"/>
                       </use>
               </g>
        </defs>

<script type="text/javascript">
var viewWidth = 564;
var viewHeight = 838;
var sectionId = 'dynsection-1';
</script>
<script xlink:href="../../svgpan.js"/>
<svg id="graph" class="graph">
<g id="viewport">
<title>o2::algorithm::TableView&lt; RowDescT, ColumnDescT, ParserT &gt;::outerIterator&lt; Direction &gt;</title>
<!-- Node1 -->
<g id="node1" class="node"><title>Node1</title>
<polygon fill="#bfbfbf" stroke="black" points="304,-0.5 304,-145.5 451,-145.5 451,-0.5 304,-0.5"/>
<text text-anchor="start" x="312" y="-133.5" font-family="Helvetica,sans-Serif" font-size="10.00">o2::algorithm::TableView</text>
<text text-anchor="start" x="312" y="-122.5" font-family="Helvetica,sans-Serif" font-size="10.00">&lt; RowDescT, ColumnDescT,</text>
<text text-anchor="start" x="312" y="-111.5" font-family="Helvetica,sans-Serif" font-size="10.00"> ParserT &gt;::outerIterator</text>
<text text-anchor="middle" x="377.5" y="-100.5" font-family="Helvetica,sans-Serif" font-size="10.00">&lt; Direction &gt;</text>
<polyline fill="none" stroke="black" points="304,-93.5 451,-93.5 "/>
<text text-anchor="middle" x="377.5" y="-81.5" font-family="Helvetica,sans-Serif" font-size="10.00"> </text>
<polyline fill="none" stroke="black" points="304,-74.5 451,-74.5 "/>
<text text-anchor="start" x="312" y="-62.5" font-family="Helvetica,sans-Serif" font-size="10.00">+ outerIterator()</text>
<text text-anchor="start" x="312" y="-51.5" font-family="Helvetica,sans-Serif" font-size="10.00">+ ~outerIterator()</text>
<text text-anchor="start" x="312" y="-40.5" font-family="Helvetica,sans-Serif" font-size="10.00">+ outerIterator()</text>
<text text-anchor="start" x="312" y="-29.5" font-family="Helvetica,sans-Serif" font-size="10.00">+ operator++()</text>
<text text-anchor="start" x="312" y="-18.5" font-family="Helvetica,sans-Serif" font-size="10.00">+ begin()</text>
<text text-anchor="start" x="312" y="-7.5" font-family="Helvetica,sans-Serif" font-size="10.00">+ end()</text>
</g>
<!-- Node2 -->
<g id="node2" class="node"><title>Node2</title>
<g id="a_node2"><a xlink:href="../../d3/d50/classo2_1_1algorithm_1_1TableView_1_1iterator.html" target="_top" xlink:title="Iterator class for configurable direction, i.e. either row or column. ">
<polygon fill="none" stroke="black" points="220,-193.5 220,-360.5 367,-360.5 367,-193.5 220,-193.5"/>
<text text-anchor="start" x="228" y="-348.5" font-family="Helvetica,sans-Serif" font-size="10.00">o2::algorithm::TableView</text>
<text text-anchor="start" x="228" y="-337.5" font-family="Helvetica,sans-Serif" font-size="10.00">&lt; RowDescT, ColumnDescT,</text>
<text text-anchor="middle" x="293.5" y="-326.5" font-family="Helvetica,sans-Serif" font-size="10.00"> ParserT &gt;::iterator</text>
<polyline fill="none" stroke="black" points="220,-319.5 367,-319.5 "/>
<text text-anchor="middle" x="293.5" y="-307.5" font-family="Helvetica,sans-Serif" font-size="10.00"> </text>
<polyline fill="none" stroke="black" points="220,-300.5 367,-300.5 "/>
<text text-anchor="start" x="228" y="-288.5" font-family="Helvetica,sans-Serif" font-size="10.00">+ iterator()</text>
<text text-anchor="start" x="228" y="-277.5" font-family="Helvetica,sans-Serif" font-size="10.00">+ ~iterator()</text>
<text text-anchor="start" x="228" y="-266.5" font-family="Helvetica,sans-Serif" font-size="10.00">+ iterator()</text>
<text text-anchor="start" x="228" y="-255.5" font-family="Helvetica,sans-Serif" font-size="10.00">+ operator++()</text>
<text text-anchor="start" x="228" y="-244.5" font-family="Helvetica,sans-Serif" font-size="10.00">+ operator*()</text>
<text text-anchor="start" x="228" y="-233.5" font-family="Helvetica,sans-Serif" font-size="10.00">+ operator==()</text>
<text text-anchor="start" x="228" y="-222.5" font-family="Helvetica,sans-Serif" font-size="10.00">+ operator!=()</text>
<text text-anchor="start" x="228" y="-211.5" font-family="Helvetica,sans-Serif" font-size="10.00">+ isEnd()</text>
<text text-anchor="start" x="228" y="-200.5" font-family="Helvetica,sans-Serif" font-size="10.00">+ isValid()</text>
</a>
</g>
</g>
<!-- Node2&#45;&gt;Node1 -->
<g id="edge1" class="edge"><title>Node2&#45;&gt;Node1</title>
<path fill="none" stroke="midnightblue" d="M331.782,-183.941C337.129,-171.084 342.556,-158.032 347.714,-145.627"/>
<polygon fill="none" stroke="midnightblue" points="328.516,-182.679 327.908,-193.256 334.98,-185.366 328.516,-182.679"/>
</g>
<!-- Node3 -->
<g id="node3" class="node"><title>Node3</title>
<g id="a_node3"><a xlink:href="../../da/d64/classo2_1_1algorithm_1_1TableView.html" target="_top" xlink:title="{o2::algorithm::TableView\l\&lt; RowDescT, ColumnDescT,\l ParserT \&gt;\n||+ TableView()\l+ ~TableView()\l+ addRow()\l+ clear()\l+ getNColumns()\l+ getNRows()\l+ getRowData()\l+ begin()\l+ end()\l}">
<polygon fill="none" stroke="black" points="0,-430.5 0,-597.5 147,-597.5 147,-430.5 0,-430.5"/>
<text text-anchor="start" x="8" y="-585.5" font-family="Helvetica,sans-Serif" font-size="10.00">o2::algorithm::TableView</text>
<text text-anchor="start" x="8" y="-574.5" font-family="Helvetica,sans-Serif" font-size="10.00">&lt; RowDescT, ColumnDescT,</text>
<text text-anchor="middle" x="73.5" y="-563.5" font-family="Helvetica,sans-Serif" font-size="10.00"> ParserT &gt;</text>
<polyline fill="none" stroke="black" points="0,-556.5 147,-556.5 "/>
<text text-anchor="middle" x="73.5" y="-544.5" font-family="Helvetica,sans-Serif" font-size="10.00"> </text>
<polyline fill="none" stroke="black" points="0,-537.5 147,-537.5 "/>
<text text-anchor="start" x="8" y="-525.5" font-family="Helvetica,sans-Serif" font-size="10.00">+ TableView()</text>
<text text-anchor="start" x="8" y="-514.5" font-family="Helvetica,sans-Serif" font-size="10.00">+ ~TableView()</text>
<text text-anchor="start" x="8" y="-503.5" font-family="Helvetica,sans-Serif" font-size="10.00">+ addRow()</text>
<text text-anchor="start" x="8" y="-492.5" font-family="Helvetica,sans-Serif" font-size="10.00">+ clear()</text>
<text text-anchor="start" x="8" y="-481.5" font-family="Helvetica,sans-Serif" font-size="10.00">+ getNColumns()</text>
<text text-anchor="start" x="8" y="-470.5" font-family="Helvetica,sans-Serif" font-size="10.00">+ getNRows()</text>
<text text-anchor="start" x="8" y="-459.5" font-family="Helvetica,sans-Serif" font-size="10.00">+ getRowData()</text>
<text text-anchor="start" x="8" y="-448.5" font-family="Helvetica,sans-Serif" font-size="10.00">+ begin()</text>
<text text-anchor="start" x="8" y="-437.5" font-family="Helvetica,sans-Serif" font-size="10.00">+ end()</text>
</a>
</g>
</g>
<!-- Node3&#45;&gt;Node2 -->
<g id="edge2" class="edge"><title>Node3&#45;&gt;Node2</title>
<path fill="none" stroke="#404040" d="M131.354,-430.242C144.824,-412.73 159.604,-394.784 174.5,-379 185.65,-367.186 198.103,-355.366 210.638,-344.191"/>
<polygon fill="none" stroke="#404040" points="210.747,-344.096 212.615,-337.131 219.763,-336.177 217.894,-343.142 210.747,-344.096"/>
<text text-anchor="middle" x="197.5" y="-393" font-family="Helvetica,sans-Serif" font-size="10.00"> #mParent</text>
</g>
<!-- Node4 -->
<g id="node4" class="node"><title>Node4</title>
<polygon fill="none" stroke="#bfbfbf" points="165.5,-485.5 165.5,-542.5 257.5,-542.5 257.5,-485.5 165.5,-485.5"/>
<text text-anchor="middle" x="211.5" y="-530.5" font-family="Helvetica,sans-Serif" font-size="10.00">IteratorDirections</text>
<polyline fill="none" stroke="#bfbfbf" points="165.5,-523.5 257.5,-523.5 "/>
<text text-anchor="middle" x="211.5" y="-511.5" font-family="Helvetica,sans-Serif" font-size="10.00"> </text>
<polyline fill="none" stroke="#bfbfbf" points="165.5,-504.5 257.5,-504.5 "/>
<text text-anchor="middle" x="211.5" y="-492.5" font-family="Helvetica,sans-Serif" font-size="10.00"> </text>
</g>
<!-- Node4&#45;&gt;Node2 -->
<g id="edge3" class="edge"><title>Node4&#45;&gt;Node2</title>
<path fill="none" stroke="#404040" d="M213.034,-485.294C215.256,-457.653 220.628,-414.331 233.5,-379 234.373,-376.605 235.303,-374.202 236.284,-371.8"/>
<polygon fill="none" stroke="#404040" points="236.387,-371.564 235.136,-364.462 241.21,-360.575 242.461,-367.677 236.387,-371.564"/>
<text text-anchor="middle" x="261.5" y="-393" font-family="Helvetica,sans-Serif" font-size="10.00"> #mDirection</text>
</g>
<!-- Node5 -->
<g id="node5" class="node"><title>Node5</title>
<polygon fill="none" stroke="#bfbfbf" points="276,-485.5 276,-542.5 311,-542.5 311,-485.5 276,-485.5"/>
<text text-anchor="middle" x="293.5" y="-530.5" font-family="Helvetica,sans-Serif" font-size="10.00">bool</text>
<polyline fill="none" stroke="#bfbfbf" points="276,-523.5 311,-523.5 "/>
<text text-anchor="middle" x="293.5" y="-511.5" font-family="Helvetica,sans-Serif" font-size="10.00"> </text>
<polyline fill="none" stroke="#bfbfbf" points="276,-504.5 311,-504.5 "/>
<text text-anchor="middle" x="293.5" y="-492.5" font-family="Helvetica,sans-Serif" font-size="10.00"> </text>
</g>
<!-- Node5&#45;&gt;Node2 -->
<g id="edge4" class="edge"><title>Node5&#45;&gt;Node2</title>
<path fill="none" stroke="#404040" d="M293.5,-485.12C293.5,-457.349 293.5,-413.135 293.5,-372.676"/>
<polygon fill="none" stroke="#404040" points="293.5,-372.544 289.5,-366.544 293.5,-360.544 297.5,-366.544 293.5,-372.544"/>
<text text-anchor="middle" x="323" y="-393" font-family="Helvetica,sans-Serif" font-size="10.00"> #mIsCached</text>
</g>
<!-- Node6 -->
<g id="node6" class="node"><title>Node6</title>
<g id="a_node6"><a xlink:href="../../d9/dc8/structo2_1_1algorithm_1_1TableView_1_1iterator_1_1value__type.html" target="_top" xlink:title="{o2::algorithm::TableView\l\&lt; RowDescT, ColumnDescT,\l ParserT \&gt;::iterator::value_type\n||}">
<polygon fill="none" stroke="black" points="329.5,-474.5 329.5,-553.5 481.5,-553.5 481.5,-474.5 329.5,-474.5"/>
<text text-anchor="start" x="337.5" y="-541.5" font-family="Helvetica,sans-Serif" font-size="10.00">o2::algorithm::TableView</text>
<text text-anchor="start" x="337.5" y="-530.5" font-family="Helvetica,sans-Serif" font-size="10.00">&lt; RowDescT, ColumnDescT,</text>
<text text-anchor="middle" x="405.5" y="-519.5" font-family="Helvetica,sans-Serif" font-size="10.00"> ParserT &gt;::iterator::value_type</text>
<polyline fill="none" stroke="black" points="329.5,-512.5 481.5,-512.5 "/>
<text text-anchor="middle" x="405.5" y="-500.5" font-family="Helvetica,sans-Serif" font-size="10.00"> </text>
<polyline fill="none" stroke="black" points="329.5,-493.5 481.5,-493.5 "/>
<text text-anchor="middle" x="405.5" y="-481.5" font-family="Helvetica,sans-Serif" font-size="10.00"> </text>
</a>
</g>
</g>
<!-- Node6&#45;&gt;Node2 -->
<g id="edge5" class="edge"><title>Node6&#45;&gt;Node2</title>
<path fill="none" stroke="#404040" d="M393.711,-474.297C384.847,-447.052 371.659,-410.052 356.5,-379 355.257,-376.454 353.966,-373.89 352.637,-371.319"/>
<polygon fill="none" stroke="#404040" points="352.632,-371.311 346.276,-367.906 346.974,-360.728 353.331,-364.133 352.632,-371.311"/>
<text text-anchor="middle" x="394.5" y="-393" font-family="Helvetica,sans-Serif" font-size="10.00"> #mCache</text>
</g>
<!-- Node7 -->
<g id="node7" class="node"><title>Node7</title>
<g id="a_node7"><a xlink:href="../../d9/d66/structo2_1_1algorithm_1_1TableView_1_1FrameData.html" target="_top" xlink:title="descriptor pointing to payload of one frame ">
<polygon fill="none" stroke="black" points="239,-645.5 239,-724.5 386,-724.5 386,-645.5 239,-645.5"/>
<text text-anchor="start" x="247" y="-712.5" font-family="Helvetica,sans-Serif" font-size="10.00">o2::algorithm::TableView</text>
<text text-anchor="start" x="247" y="-701.5" font-family="Helvetica,sans-Serif" font-size="10.00">&lt; RowDescT, ColumnDescT,</text>
<text text-anchor="middle" x="312.5" y="-690.5" font-family="Helvetica,sans-Serif" font-size="10.00"> ParserT &gt;::FrameData</text>
<polyline fill="none" stroke="black" points="239,-683.5 386,-683.5 "/>
<text text-anchor="middle" x="312.5" y="-671.5" font-family="Helvetica,sans-Serif" font-size="10.00"> </text>
<polyline fill="none" stroke="black" points="239,-664.5 386,-664.5 "/>
<text text-anchor="middle" x="312.5" y="-652.5" font-family="Helvetica,sans-Serif" font-size="10.00"> </text>
</a>
</g>
</g>
<!-- Node7&#45;&gt;Node6 -->
<g id="edge6" class="edge"><title>Node7&#45;&gt;Node6</title>
<path fill="none" stroke="midnightblue" d="M338.779,-636.246C353.164,-610.106 370.755,-578.138 384.263,-553.592"/>
<polygon fill="none" stroke="midnightblue" points="335.591,-634.779 333.836,-645.228 341.724,-638.154 335.591,-634.779"/>
</g>
<!-- Node8 -->
<g id="node8" class="node"><title>Node8</title>
<polygon fill="none" stroke="#bfbfbf" points="241,-772.5 241,-829.5 310,-829.5 310,-772.5 241,-772.5"/>
<text text-anchor="middle" x="275.5" y="-817.5" font-family="Helvetica,sans-Serif" font-size="10.00">const byte *</text>
<polyline fill="none" stroke="#bfbfbf" points="241,-810.5 310,-810.5 "/>
<text text-anchor="middle" x="275.5" y="-798.5" font-family="Helvetica,sans-Serif" font-size="10.00"> </text>
<polyline fill="none" stroke="#bfbfbf" points="241,-791.5 310,-791.5 "/>
<text text-anchor="middle" x="275.5" y="-779.5" font-family="Helvetica,sans-Serif" font-size="10.00"> </text>
</g>
<!-- Node8&#45;&gt;Node7 -->
<g id="edge7" class="edge"><title>Node8&#45;&gt;Node7</title>
<path fill="none" stroke="#404040" d="M284.11,-772.429C287.056,-763.077 290.393,-752.575 293.5,-743 294.224,-740.768 294.968,-738.487 295.723,-736.185"/>
<polygon fill="none" stroke="#404040" points="295.783,-736.003 293.862,-729.052 299.539,-724.606 301.46,-731.556 295.783,-736.003"/>
<text text-anchor="middle" x="310.5" y="-746" font-family="Helvetica,sans-Serif" font-size="10.00"> +buffer</text>
</g>
<!-- Node9 -->
<g id="node9" class="node"><title>Node9</title>
<g id="a_node9"><a xlink:href="../../dd/de2/classsize__t.html" target="_top" xlink:title="{size_t\n||}">
<polygon fill="none" stroke="black" points="328,-772.5 328,-829.5 371,-829.5 371,-772.5 328,-772.5"/>
<text text-anchor="middle" x="349.5" y="-817.5" font-family="Helvetica,sans-Serif" font-size="10.00">size_t</text>
<polyline fill="none" stroke="black" points="328,-810.5 371,-810.5 "/>
<text text-anchor="middle" x="349.5" y="-798.5" font-family="Helvetica,sans-Serif" font-size="10.00"> </text>
<polyline fill="none" stroke="black" points="328,-791.5 371,-791.5 "/>
<text text-anchor="middle" x="349.5" y="-779.5" font-family="Helvetica,sans-Serif" font-size="10.00"> </text>
</a>
</g>
</g>
<!-- Node9&#45;&gt;Node7 -->
<g id="edge8" class="edge"><title>Node9&#45;&gt;Node7</title>
<path fill="none" stroke="#404040" d="M340.543,-772.404C337.01,-761.518 332.837,-748.661 328.806,-736.239"/>
<polygon fill="none" stroke="#404040" points="328.713,-735.954 323.056,-731.482 325.009,-724.541 330.666,-729.013 328.713,-735.954"/>
<text text-anchor="middle" x="348.5" y="-746" font-family="Helvetica,sans-Serif" font-size="10.00"> +size</text>
</g>
<!-- Node10 -->
<g id="node10" class="node"><title>Node10</title>
<polygon fill="none" stroke="#bfbfbf" points="404.5,-656.5 404.5,-713.5 470.5,-713.5 470.5,-656.5 404.5,-656.5"/>
<text text-anchor="middle" x="437.5" y="-701.5" font-family="Helvetica,sans-Serif" font-size="10.00">RowDescT</text>
<polyline fill="none" stroke="#bfbfbf" points="404.5,-694.5 470.5,-694.5 "/>
<text text-anchor="middle" x="437.5" y="-682.5" font-family="Helvetica,sans-Serif" font-size="10.00"> </text>
<polyline fill="none" stroke="#bfbfbf" points="404.5,-675.5 470.5,-675.5 "/>
<text text-anchor="middle" x="437.5" y="-663.5" font-family="Helvetica,sans-Serif" font-size="10.00"> </text>
</g>
<!-- Node10&#45;&gt;Node6 -->
<g id="edge9" class="edge"><title>Node10&#45;&gt;Node6</title>
<path fill="none" stroke="#404040" d="M432.287,-656.471C427.633,-631.892 420.7,-595.274 415.053,-565.452"/>
<polygon fill="none" stroke="#404040" points="415.034,-565.352 409.988,-560.2 412.801,-553.561 417.848,-558.712 415.034,-565.352"/>
<text text-anchor="middle" x="442" y="-619" font-family="Helvetica,sans-Serif" font-size="10.00"> +desc</text>
</g>
<!-- Node11 -->
<g id="node11" class="node"><title>Node11</title>
<polygon fill="none" stroke="#bfbfbf" points="499.5,-485.5 499.5,-542.5 555.5,-542.5 555.5,-485.5 499.5,-485.5"/>
<text text-anchor="middle" x="527.5" y="-530.5" font-family="Helvetica,sans-Serif" font-size="10.00">unsigned</text>
<polyline fill="none" stroke="#bfbfbf" points="499.5,-523.5 555.5,-523.5 "/>
<text text-anchor="middle" x="527.5" y="-511.5" font-family="Helvetica,sans-Serif" font-size="10.00"> </text>
<polyline fill="none" stroke="#bfbfbf" points="499.5,-504.5 555.5,-504.5 "/>
<text text-anchor="middle" x="527.5" y="-492.5" font-family="Helvetica,sans-Serif" font-size="10.00"> </text>
</g>
<!-- Node11&#45;&gt;Node2 -->
<g id="edge10" class="edge"><title>Node11&#45;&gt;Node2</title>
<path fill="none" stroke="#404040" d="M519.185,-485.259C513.115,-468.121 503.642,-446.358 490.5,-430 466.616,-400.272 454.879,-397.441 421.5,-379 405.061,-369.918 396.504,-372.036 377.848,-361.755"/>
<polygon fill="none" stroke="#404040" points="377.669,-361.646 370.463,-361.916 367.442,-355.369 374.648,-355.098 377.669,-361.646"/>
<text text-anchor="middle" x="498.5" y="-404" font-family="Helvetica,sans-Serif" font-size="10.00"> #mEnd</text>
<text text-anchor="middle" x="498.5" y="-393" font-family="Helvetica,sans-Serif" font-size="10.00">#mColumn</text>
<text text-anchor="middle" x="498.5" y="-382" font-family="Helvetica,sans-Serif" font-size="10.00">#mRow</text>
</g>
<!-- Node12 -->
<g id="node12" class="node"><title>Node12</title>
<polygon fill="none" stroke="#bfbfbf" points="385,-248.5 385,-305.5 426,-305.5 426,-248.5 385,-248.5"/>
<text text-anchor="middle" x="405.5" y="-293.5" font-family="Helvetica,sans-Serif" font-size="10.00">const</text>
<polyline fill="none" stroke="#bfbfbf" points="385,-286.5 426,-286.5 "/>
<text text-anchor="middle" x="405.5" y="-274.5" font-family="Helvetica,sans-Serif" font-size="10.00"> </text>
<polyline fill="none" stroke="#bfbfbf" points="385,-267.5 426,-267.5 "/>
<text text-anchor="middle" x="405.5" y="-255.5" font-family="Helvetica,sans-Serif" font-size="10.00"> </text>
</g>
<!-- Node12&#45;&gt;Node1 -->
<g id="edge11" class="edge"><title>Node12&#45;&gt;Node1</title>
<path fill="none" stroke="#404040" d="M401.665,-248.336C398.425,-224.958 393.608,-190.207 389.125,-157.869"/>
<polygon fill="none" stroke="#404040" points="389.075,-157.508 384.29,-152.114 387.428,-145.622 392.214,-151.016 389.075,-157.508"/>
<text text-anchor="middle" x="414.5" y="-167" font-family="Helvetica,sans-Serif" font-size="10.00"> +direction</text>
</g>
</g>
</svg>
        <g id="navigator" transform="translate(0 0)" fill="#404254">
                <rect fill="#f2f5e9" fill-opacity="0.5" stroke="#606060" stroke-width=".5" x="0" y="0" width="60" height="60"/>
                <use id="zoomplus" xlink:href="#zoomPlus" x="17" y="9" onmousedown="handleZoom(evt,'in')"/>
                <use id="zoomminus" xlink:href="#zoomMin" x="42" y="9" onmousedown="handleZoom(evt,'out')"/>
                <use id="reset" xlink:href="#resetDef" x="30" y="36" onmousedown="handleReset()"/>
                <g id="arrowUp" xlink:href="#dirArrow" transform="translate(30 24)" onmousedown="handlePan(0,-1)">
                  <use xlink:href="#rim" fill="#404040">
                        <set attributeName="fill" to="#808080" begin="arrowUp.mouseover" end="arrowUp.mouseout"/>
                  </use>
                  <path fill="none" stroke="white" stroke-width="1.5" d="M0,-3.0v7 M-2.5,-0.5L0,-3.0L2.5,-0.5"/>
                </g>
                <g id="arrowRight" xlink:href="#dirArrow" transform="rotate(90) translate(36 -43)" onmousedown="handlePan(1,0)">
                  <use xlink:href="#rim" fill="#404040">
                        <set attributeName="fill" to="#808080" begin="arrowRight.mouseover" end="arrowRight.mouseout"/>
                  </use>
                  <path fill="none" stroke="white" stroke-width="1.5" d="M0,-3.0v7 M-2.5,-0.5L0,-3.0L2.5,-0.5"/>
                </g>
                <g id="arrowDown" xlink:href="#dirArrow" transform="rotate(180) translate(-30 -48)" onmousedown="handlePan(0,1)">
                  <use xlink:href="#rim" fill="#404040">
                        <set attributeName="fill" to="#808080" begin="arrowDown.mouseover" end="arrowDown.mouseout"/>
                  </use>
                  <path fill="none" stroke="white" stroke-width="1.5" d="M0,-3.0v7 M-2.5,-0.5L0,-3.0L2.5,-0.5"/>
                </g>
                <g id="arrowLeft" xlink:href="#dirArrow" transform="rotate(270) translate(-36 17)" onmousedown="handlePan(-1,0)">
                  <use xlink:href="#rim" fill="#404040">
                        <set attributeName="fill" to="#808080" begin="arrowLeft.mouseover" end="arrowLeft.mouseout"/>
                  </use>
                  <path fill="none" stroke="white" stroke-width="1.5" d="M0,-3.0v7 M-2.5,-0.5L0,-3.0L2.5,-0.5"/>
                </g>
        </g>
        <svg viewBox="0 0 15 15" width="100%" height="30px" preserveAspectRatio="xMaxYMin meet">
         <g id="arrow_out" transform="scale(0.3 0.3)">
          <a xlink:href="classo2_1_1algorithm_1_1TableView_1_1outerIterator__coll__graph_org.svg" target="_base">
           <rect id="button" ry="5" rx="5" y="6" x="6" height="38" width="38"
                fill="#f2f5e9" fill-opacity="0.5" stroke="#606060" stroke-width="1.0"/>
           <path id="arrow"
             d="M 11.500037,31.436501 C 11.940474,20.09759 22.043105,11.32322 32.158766,21.979434 L 37.068811,17.246167 C 37.068811,17.246167 37.088388,32 37.088388,32 L 22.160133,31.978069 C 22.160133,31.978069 26.997745,27.140456 26.997745,27.140456 C 18.528582,18.264221 13.291696,25.230495 11.500037,31.436501 z"
             style="fill:#404040;"/>
          </a>
         </g>
        </svg>
</svg>
