<?xml version="1.0" encoding="UTF-8" standalone="no"?>
<!DOCTYPE svg PUBLIC "-//W3C//DTD SVG 1.1//EN"
 "http://www.w3.org/Graphics/SVG/1.1/DTD/svg11.dtd">
<!-- Generated by graphviz version 2.38.0 (20140413.2041)
 -->
<!-- Title: /home/travis/build/AliceO2Group/AliceO2/Detectors/TPC/reconstruction/include/TPCReconstruction/HwClusterer.h Pages: 1 -->
<svg width="640pt" height="261pt"
 viewBox="0.00 0.00 640.00 261.00" xmlns="http://www.w3.org/2000/svg" xmlns:xlink="http://www.w3.org/1999/xlink">
<g id="graph0" class="graph" transform="scale(1 1) rotate(0) translate(4 257)">
<title>/home/travis/build/AliceO2Group/AliceO2/Detectors/TPC/reconstruction/include/TPCReconstruction/HwClusterer.h</title>
<!-- Node1 -->
<g id="node1" class="node"><title>Node1</title>
<polygon fill="#bfbfbf" stroke="black" points="252,-189.5 252,-252.5 402,-252.5 402,-189.5 252,-189.5"/>
<text text-anchor="start" x="260" y="-240.5" font-family="Helvetica,sans-Serif" font-size="10.00">/home/travis/build</text>
<text text-anchor="start" x="260" y="-229.5" font-family="Helvetica,sans-Serif" font-size="10.00">/AliceO2Group/AliceO2</text>
<text text-anchor="start" x="260" y="-218.5" font-family="Helvetica,sans-Serif" font-size="10.00">/Detectors/TPC/reconstruction</text>
<text text-anchor="start" x="260" y="-207.5" font-family="Helvetica,sans-Serif" font-size="10.00">/include/TPCReconstruction</text>
<text text-anchor="middle" x="327" y="-196.5" font-family="Helvetica,sans-Serif" font-size="10.00">/HwClusterer.h</text>
</g>
<!-- Node2 -->
<g id="node2" class="node"><title>Node2</title>
<g id="a_node2"><a xlink:href="../../de/d64/TPC_2reconstruction_2include_2TPCReconstruction_2ClustererTask_8h.html" target="_top" xlink:title="/home/travis/build\l/AliceO2Group/AliceO2\l/Detectors/TPC/reconstruction\l/include/TPCReconstruction\l/ClustererTask.h">
<polygon fill="none" stroke="black" points="-1.42109e-14,-89.5 -1.42109e-14,-152.5 150,-152.5 150,-89.5 -1.42109e-14,-89.5"/>
<text text-anchor="start" x="8" y="-140.5" font-family="Helvetica,sans-Serif" font-size="10.00">/home/travis/build</text>
<text text-anchor="start" x="8" y="-129.5" font-family="Helvetica,sans-Serif" font-size="10.00">/AliceO2Group/AliceO2</text>
<text text-anchor="start" x="8" y="-118.5" font-family="Helvetica,sans-Serif" font-size="10.00">/Detectors/TPC/reconstruction</text>
<text text-anchor="start" x="8" y="-107.5" font-family="Helvetica,sans-Serif" font-size="10.00">/include/TPCReconstruction</text>
<text text-anchor="middle" x="75" y="-96.5" font-family="Helvetica,sans-Serif" font-size="10.00">/ClustererTask.h</text>
</a>
</g>
</g>
<!-- Node1&#45;&gt;Node2 -->
<g id="edge1" class="edge"><title>Node1&#45;&gt;Node2</title>
<path fill="none" stroke="midnightblue" d="M242.202,-187.023C212.444,-175.451 179.241,-162.538 150.314,-151.289"/>
<polygon fill="midnightblue" stroke="midnightblue" points="241.144,-190.367 251.733,-190.73 243.682,-183.843 241.144,-190.367"/>
</g>
<!-- Node4 -->
<g id="node4" class="node"><title>Node4</title>
<g id="a_node4"><a xlink:href="../../d4/d6c/HwClusterer_8cxx.html" target="_top" xlink:title="Hwclusterer for the TPC. ">
<polygon fill="none" stroke="black" points="168,-95 168,-147 318,-147 318,-95 168,-95"/>
<text text-anchor="start" x="176" y="-135" font-family="Helvetica,sans-Serif" font-size="10.00">/home/travis/build</text>
<text text-anchor="start" x="176" y="-124" font-family="Helvetica,sans-Serif" font-size="10.00">/AliceO2Group/AliceO2</text>
<text text-anchor="start" x="176" y="-113" font-family="Helvetica,sans-Serif" font-size="10.00">/Detectors/TPC/reconstruction</text>
<text text-anchor="middle" x="243" y="-102" font-family="Helvetica,sans-Serif" font-size="10.00">/src/HwClusterer.cxx</text>
</a>
</g>
</g>
<!-- Node1&#45;&gt;Node4 -->
<g id="edge3" class="edge"><title>Node1&#45;&gt;Node4</title>
<path fill="none" stroke="midnightblue" d="M293.934,-181.423C284.028,-169.866 273.426,-157.497 264.474,-147.054"/>
<polygon fill="midnightblue" stroke="midnightblue" points="291.487,-183.946 300.652,-189.261 296.802,-179.391 291.487,-183.946"/>
</g>
<!-- Node5 -->
<g id="node5" class="node"><title>Node5</title>
<g id="a_node5"><a xlink:href="../../df/d47/testTPCHwClusterer_8cxx.html" target="_top" xlink:title="This task tests the TPC HwClusterer. ">
<polygon fill="none" stroke="black" points="336,-95 336,-147 486,-147 486,-95 336,-95"/>
<text text-anchor="start" x="344" y="-135" font-family="Helvetica,sans-Serif" font-size="10.00">/home/travis/build</text>
<text text-anchor="start" x="344" y="-124" font-family="Helvetica,sans-Serif" font-size="10.00">/AliceO2Group/AliceO2</text>
<text text-anchor="start" x="344" y="-113" font-family="Helvetica,sans-Serif" font-size="10.00">/Detectors/TPC/reconstruction</text>
<text text-anchor="middle" x="411" y="-102" font-family="Helvetica,sans-Serif" font-size="10.00">/test/testTPCHwClusterer.cxx</text>
</a>
</g>
</g>
<!-- Node1&#45;&gt;Node5 -->
<g id="edge4" class="edge"><title>Node1&#45;&gt;Node5</title>
<path fill="none" stroke="midnightblue" d="M360.066,-181.423C369.972,-169.866 380.574,-157.497 389.526,-147.054"/>
<polygon fill="midnightblue" stroke="midnightblue" points="357.198,-179.391 353.348,-189.261 362.513,-183.946 357.198,-179.391"/>
</g>
<!-- Node6 -->
<g id="node6" class="node"><title>Node6</title>
<g id="a_node6"><a xlink:href="../../d5/d17/TPC_2workflow_2src_2ClustererSpec_8cxx.html" target="_top" xlink:title="/home/travis/build\l/AliceO2Group/AliceO2\l/Detectors/TPC/workflow\l/src/ClustererSpec.cxx">
<polygon fill="none" stroke="black" points="504,-95 504,-147 632,-147 632,-95 504,-95"/>
<text text-anchor="start" x="512" y="-135" font-family="Helvetica,sans-Serif" font-size="10.00">/home/travis/build</text>
<text text-anchor="start" x="512" y="-124" font-family="Helvetica,sans-Serif" font-size="10.00">/AliceO2Group/AliceO2</text>
<text text-anchor="start" x="512" y="-113" font-family="Helvetica,sans-Serif" font-size="10.00">/Detectors/TPC/workflow</text>
<text text-anchor="middle" x="568" y="-102" font-family="Helvetica,sans-Serif" font-size="10.00">/src/ClustererSpec.cxx</text>
</a>
</g>
</g>
<!-- Node1&#45;&gt;Node6 -->
<g id="edge5" class="edge"><title>Node1&#45;&gt;Node6</title>
<path fill="none" stroke="midnightblue" d="M411.725,-186.634C438.421,-176.007 467.987,-164.121 495,-153 499.584,-151.113 504.322,-149.144 509.08,-147.153"/>
<polygon fill="midnightblue" stroke="midnightblue" points="410.41,-183.39 402.41,-190.336 412.996,-189.894 410.41,-183.39"/>
</g>
<!-- Node3 -->
<g id="node3" class="node"><title>Node3</title>
<g id="a_node3"><a xlink:href="../../d8/d0f/TPC_2reconstruction_2src_2ClustererTask_8cxx.html" target="_top" xlink:title="/home/travis/build\l/AliceO2Group/AliceO2\l/Detectors/TPC/reconstruction\l/src/ClustererTask.cxx">
<polygon fill="none" stroke="black" points="-1.42109e-14,-0.5 -1.42109e-14,-52.5 150,-52.5 150,-0.5 -1.42109e-14,-0.5"/>
<text text-anchor="start" x="8" y="-40.5" font-family="Helvetica,sans-Serif" font-size="10.00">/home/travis/build</text>
<text text-anchor="start" x="8" y="-29.5" font-family="Helvetica,sans-Serif" font-size="10.00">/AliceO2Group/AliceO2</text>
<text text-anchor="start" x="8" y="-18.5" font-family="Helvetica,sans-Serif" font-size="10.00">/Detectors/TPC/reconstruction</text>
<text text-anchor="middle" x="75" y="-7.5" font-family="Helvetica,sans-Serif" font-size="10.00">/src/ClustererTask.cxx</text>
</a>
</g>
</g>
<!-- Node2&#45;&gt;Node3 -->
<g id="edge2" class="edge"><title>Node2&#45;&gt;Node3</title>
<path fill="none" stroke="midnightblue" d="M75,-79.4229C75,-70.3585 75,-60.999 75,-52.7655"/>
<polygon fill="midnightblue" stroke="midnightblue" points="71.5001,-79.4556 75,-89.4557 78.5001,-79.4557 71.5001,-79.4556"/>
</g>
</g>
</svg>
