<?xml version="1.0" encoding="UTF-8" standalone="no"?>
<!DOCTYPE svg PUBLIC "-//W3C//DTD SVG 1.1//EN"
 "http://www.w3.org/Graphics/SVG/1.1/DTD/svg11.dtd">
<!-- Generated by graphviz version 2.38.0 (20140413.2041)
 -->
<!-- Title: o2::event_visualisation::DataInterpreterTPC Pages: 1 -->
<svg width="132pt" height="248pt"
 viewBox="0.00 0.00 132.00 248.00" xmlns="http://www.w3.org/2000/svg" xmlns:xlink="http://www.w3.org/1999/xlink">
<g id="graph0" class="graph" transform="scale(1 1) rotate(0) translate(4 244)">
<title>o2::event_visualisation::DataInterpreterTPC</title>
<!-- Node1 -->
<g id="node1" class="node"><title>Node1</title>
<polygon fill="#bfbfbf" stroke="black" points="-7.10543e-15,-0.5 -7.10543e-15,-90.5 124,-90.5 124,-0.5 -7.10543e-15,-0.5"/>
<text text-anchor="start" x="8" y="-78.5" font-family="Helvetica,sans-Serif" font-size="10.00">o2::event_visualisation</text>
<text text-anchor="middle" x="62" y="-67.5" font-family="Helvetica,sans-Serif" font-size="10.00">::DataInterpreterTPC</text>
<polyline fill="none" stroke="black" points="-7.10543e-15,-60.5 124,-60.5 "/>
<text text-anchor="middle" x="62" y="-48.5" font-family="Helvetica,sans-Serif" font-size="10.00"> </text>
<polyline fill="none" stroke="black" points="-7.10543e-15,-41.5 124,-41.5 "/>
<text text-anchor="start" x="8" y="-29.5" font-family="Helvetica,sans-Serif" font-size="10.00">+ DataInterpreterTPC()</text>
<text text-anchor="start" x="8" y="-18.5" font-family="Helvetica,sans-Serif" font-size="10.00">+ ~DataInterpreterTPC()</text>
<text text-anchor="start" x="8" y="-7.5" font-family="Helvetica,sans-Serif" font-size="10.00">+ interpretDataForType()</text>
</g>
<!-- Node2 -->
<g id="node2" class="node"><title>Node2</title>
<g id="a_node2"><a xlink:href="../../de/d2a/classo2_1_1event__visualisation_1_1DataInterpreter.html" target="_top" xlink:title="{o2::event_visualisation\l::DataInterpreter\n||+ DataInterpreter()\l+ ~DataInterpreter()\l+ interpretDataForType()\l+ removeInstances()\l+ getInstance()\l}">
<polygon fill="none" stroke="black" points="-7.10543e-15,-127.5 -7.10543e-15,-239.5 124,-239.5 124,-127.5 -7.10543e-15,-127.5"/>
<text text-anchor="start" x="8" y="-227.5" font-family="Helvetica,sans-Serif" font-size="10.00">o2::event_visualisation</text>
<text text-anchor="middle" x="62" y="-216.5" font-family="Helvetica,sans-Serif" font-size="10.00">::DataInterpreter</text>
<polyline fill="none" stroke="black" points="-7.10543e-15,-209.5 124,-209.5 "/>
<text text-anchor="middle" x="62" y="-197.5" font-family="Helvetica,sans-Serif" font-size="10.00"> </text>
<polyline fill="none" stroke="black" points="-7.10543e-15,-190.5 124,-190.5 "/>
<text text-anchor="start" x="8" y="-178.5" font-family="Helvetica,sans-Serif" font-size="10.00">+ DataInterpreter()</text>
<text text-anchor="start" x="8" y="-167.5" font-family="Helvetica,sans-Serif" font-size="10.00">+ ~DataInterpreter()</text>
<text text-anchor="start" x="8" y="-156.5" font-family="Helvetica,sans-Serif" font-size="10.00">+ interpretDataForType()</text>
<text text-anchor="start" x="8" y="-145.5" font-family="Helvetica,sans-Serif" font-size="10.00">+ removeInstances()</text>
<text text-anchor="start" x="8" y="-134.5" font-family="Helvetica,sans-Serif" font-size="10.00">+ getInstance()</text>
</a>
</g>
</g>
<!-- Node2&#45;&gt;Node1 -->
<g id="edge1" class="edge"><title>Node2&#45;&gt;Node1</title>
<path fill="none" stroke="midnightblue" d="M62,-117.076C62,-108.072 62,-99.0069 62,-90.5144"/>
<polygon fill="none" stroke="midnightblue" points="58.5001,-117.184 62,-127.184 65.5001,-117.184 58.5001,-117.184"/>
</g>
</g>
</svg>
