<?xml version="1.0" encoding="UTF-8" standalone="no"?>
<!DOCTYPE svg PUBLIC "-//W3C//DTD SVG 1.1//EN"
 "http://www.w3.org/Graphics/SVG/1.1/DTD/svg11.dtd">
<!-- Generated by graphviz version 2.38.0 (20140413.2041)
 -->
<!-- Title: /home/travis/build/AliceO2Group/AliceO2/DataFormats/Detectors/EMCAL/include/DataFormatsEMCAL/Cell.h Pages: 1 -->
<svg width="543pt" height="261pt"
 viewBox="0.00 0.00 543.00 261.00" xmlns="http://www.w3.org/2000/svg" xmlns:xlink="http://www.w3.org/1999/xlink">
<g id="graph0" class="graph" transform="scale(1 1) rotate(0) translate(4 257)">
<title>/home/travis/build/AliceO2Group/AliceO2/DataFormats/Detectors/EMCAL/include/DataFormatsEMCAL/Cell.h</title>
<!-- Node1 -->
<g id="node1" class="node"><title>Node1</title>
<polygon fill="#bfbfbf" stroke="black" points="112.5,-189.5 112.5,-252.5 297.5,-252.5 297.5,-189.5 112.5,-189.5"/>
<text text-anchor="start" x="120.5" y="-240.5" font-family="Helvetica,sans-Serif" font-size="10.00">/home/travis/build</text>
<text text-anchor="start" x="120.5" y="-229.5" font-family="Helvetica,sans-Serif" font-size="10.00">/AliceO2Group/AliceO2</text>
<text text-anchor="start" x="120.5" y="-218.5" font-family="Helvetica,sans-Serif" font-size="10.00">/DataFormats/Detectors</text>
<text text-anchor="start" x="120.5" y="-207.5" font-family="Helvetica,sans-Serif" font-size="10.00">/EMCAL/include/DataFormatsEMCAL/</text>
<text text-anchor="middle" x="205" y="-196.5" font-family="Helvetica,sans-Serif" font-size="10.00">Cell.h</text>
</g>
<!-- Node2 -->
<g id="node2" class="node"><title>Node2</title>
<g id="a_node2"><a xlink:href="../../d8/da8/Cell_8cxx.html" target="_top" xlink:title="/home/travis/build\l/AliceO2Group/AliceO2\l/DataFormats/Detectors\l/EMCAL/src/Cell.cxx">
<polygon fill="none" stroke="black" points="0,-95 0,-147 122,-147 122,-95 0,-95"/>
<text text-anchor="start" x="8" y="-135" font-family="Helvetica,sans-Serif" font-size="10.00">/home/travis/build</text>
<text text-anchor="start" x="8" y="-124" font-family="Helvetica,sans-Serif" font-size="10.00">/AliceO2Group/AliceO2</text>
<text text-anchor="start" x="8" y="-113" font-family="Helvetica,sans-Serif" font-size="10.00">/DataFormats/Detectors</text>
<text text-anchor="middle" x="61" y="-102" font-family="Helvetica,sans-Serif" font-size="10.00">/EMCAL/src/Cell.cxx</text>
</a>
</g>
</g>
<!-- Node1&#45;&gt;Node2 -->
<g id="edge1" class="edge"><title>Node1&#45;&gt;Node2</title>
<path fill="none" stroke="midnightblue" d="M151.242,-183.415C133.44,-171.299 114.045,-158.1 97.8134,-147.054"/>
<polygon fill="midnightblue" stroke="midnightblue" points="149.596,-186.528 159.833,-189.261 153.535,-180.741 149.596,-186.528"/>
</g>
<!-- Node3 -->
<g id="node3" class="node"><title>Node3</title>
<g id="a_node3"><a xlink:href="../../d3/d2e/testCell_8cxx.html" target="_top" xlink:title="/home/travis/build\l/AliceO2Group/AliceO2\l/DataFormats/Detectors\l/EMCAL/test/testCell.cxx">
<polygon fill="none" stroke="black" points="140.5,-95 140.5,-147 269.5,-147 269.5,-95 140.5,-95"/>
<text text-anchor="start" x="148.5" y="-135" font-family="Helvetica,sans-Serif" font-size="10.00">/home/travis/build</text>
<text text-anchor="start" x="148.5" y="-124" font-family="Helvetica,sans-Serif" font-size="10.00">/AliceO2Group/AliceO2</text>
<text text-anchor="start" x="148.5" y="-113" font-family="Helvetica,sans-Serif" font-size="10.00">/DataFormats/Detectors</text>
<text text-anchor="middle" x="205" y="-102" font-family="Helvetica,sans-Serif" font-size="10.00">/EMCAL/test/testCell.cxx</text>
</a>
</g>
</g>
<!-- Node1&#45;&gt;Node3 -->
<g id="edge2" class="edge"><title>Node1&#45;&gt;Node3</title>
<path fill="none" stroke="midnightblue" d="M205,-179.079C205,-168.21 205,-156.794 205,-147.054"/>
<polygon fill="midnightblue" stroke="midnightblue" points="201.5,-179.261 205,-189.261 208.5,-179.261 201.5,-179.261"/>
</g>
<!-- Node4 -->
<g id="node4" class="node"><title>Node4</title>
<g id="a_node4"><a xlink:href="../../d3/d98/CellConverterSpec_8h.html" target="_top" xlink:title="/home/travis/build\l/AliceO2Group/AliceO2\l/Detectors/EMCAL/workflow\l/include/EMCALWorkflow/CellConverter\lSpec.h">
<polygon fill="none" stroke="black" points="288,-89.5 288,-152.5 480,-152.5 480,-89.5 288,-89.5"/>
<text text-anchor="start" x="296" y="-140.5" font-family="Helvetica,sans-Serif" font-size="10.00">/home/travis/build</text>
<text text-anchor="start" x="296" y="-129.5" font-family="Helvetica,sans-Serif" font-size="10.00">/AliceO2Group/AliceO2</text>
<text text-anchor="start" x="296" y="-118.5" font-family="Helvetica,sans-Serif" font-size="10.00">/Detectors/EMCAL/workflow</text>
<text text-anchor="start" x="296" y="-107.5" font-family="Helvetica,sans-Serif" font-size="10.00">/include/EMCALWorkflow/CellConverter</text>
<text text-anchor="middle" x="384" y="-96.5" font-family="Helvetica,sans-Serif" font-size="10.00">Spec.h</text>
</a>
</g>
</g>
<!-- Node1&#45;&gt;Node4 -->
<g id="edge3" class="edge"><title>Node1&#45;&gt;Node4</title>
<path fill="none" stroke="midnightblue" d="M270.043,-184.39C289.054,-173.982 309.659,-162.701 328.054,-152.63"/>
<polygon fill="midnightblue" stroke="midnightblue" points="268.236,-181.389 261.146,-189.261 271.598,-187.529 268.236,-181.389"/>
</g>
<!-- Node5 -->
<g id="node5" class="node"><title>Node5</title>
<g id="a_node5"><a xlink:href="../../dc/d06/CellConverterSpec_8cxx.html" target="_top" xlink:title="/home/travis/build\l/AliceO2Group/AliceO2\l/Detectors/EMCAL/workflow\l/src/CellConverterSpec.cxx">
<polygon fill="none" stroke="black" points="233,-0.5 233,-52.5 375,-52.5 375,-0.5 233,-0.5"/>
<text text-anchor="start" x="241" y="-40.5" font-family="Helvetica,sans-Serif" font-size="10.00">/home/travis/build</text>
<text text-anchor="start" x="241" y="-29.5" font-family="Helvetica,sans-Serif" font-size="10.00">/AliceO2Group/AliceO2</text>
<text text-anchor="start" x="241" y="-18.5" font-family="Helvetica,sans-Serif" font-size="10.00">/Detectors/EMCAL/workflow</text>
<text text-anchor="middle" x="304" y="-7.5" font-family="Helvetica,sans-Serif" font-size="10.00">/src/CellConverterSpec.cxx</text>
</a>
</g>
</g>
<!-- Node4&#45;&gt;Node5 -->
<g id="edge4" class="edge"><title>Node4&#45;&gt;Node5</title>
<path fill="none" stroke="midnightblue" d="M350.923,-81.7546C342.467,-71.9771 333.585,-61.7073 325.851,-52.7655"/>
<polygon fill="midnightblue" stroke="midnightblue" points="348.394,-84.1816 357.583,-89.4557 353.689,-79.6025 348.394,-84.1816"/>
</g>
<!-- Node6 -->
<g id="node6" class="node"><title>Node6</title>
<g id="a_node6"><a xlink:href="../../d2/dbf/EMCAL_2workflow_2src_2RecoWorkflow_8cxx.html" target="_top" xlink:title="/home/travis/build\l/AliceO2Group/AliceO2\l/Detectors/EMCAL/workflow\l/src/RecoWorkflow.cxx">
<polygon fill="none" stroke="black" points="393,-0.5 393,-52.5 535,-52.5 535,-0.5 393,-0.5"/>
<text text-anchor="start" x="401" y="-40.5" font-family="Helvetica,sans-Serif" font-size="10.00">/home/travis/build</text>
<text text-anchor="start" x="401" y="-29.5" font-family="Helvetica,sans-Serif" font-size="10.00">/AliceO2Group/AliceO2</text>
<text text-anchor="start" x="401" y="-18.5" font-family="Helvetica,sans-Serif" font-size="10.00">/Detectors/EMCAL/workflow</text>
<text text-anchor="middle" x="464" y="-7.5" font-family="Helvetica,sans-Serif" font-size="10.00">/src/RecoWorkflow.cxx</text>
</a>
</g>
</g>
<!-- Node4&#45;&gt;Node6 -->
<g id="edge5" class="edge"><title>Node4&#45;&gt;Node6</title>
<path fill="none" stroke="midnightblue" d="M417.077,-81.7546C425.533,-71.9771 434.415,-61.7073 442.149,-52.7655"/>
<polygon fill="midnightblue" stroke="midnightblue" points="414.311,-79.6025 410.417,-89.4557 419.606,-84.1816 414.311,-79.6025"/>
</g>
</g>
</svg>
