<?xml version="1.0" encoding="UTF-8" standalone="no"?>
<!DOCTYPE svg PUBLIC "-//W3C//DTD SVG 1.1//EN"
 "http://www.w3.org/Graphics/SVG/1.1/DTD/svg11.dtd">
<!-- Generated by graphviz version 2.38.0 (20140413.2041)
 -->
<!-- Title: o2::trd::PadParameters&lt; T &gt; Pages: 1 -->
<svg width="155pt" height="369pt"
 viewBox="0.00 0.00 155.00 369.00" xmlns="http://www.w3.org/2000/svg" xmlns:xlink="http://www.w3.org/1999/xlink">
<g id="graph0" class="graph" transform="scale(1 1) rotate(0) translate(4 365)">
<title>o2::trd::PadParameters&lt; T &gt;</title>
<!-- Node1 -->
<g id="node1" class="node"><title>Node1</title>
<polygon fill="#bfbfbf" stroke="black" points="0,-0.5 0,-211.5 142,-211.5 142,-0.5 0,-0.5"/>
<text text-anchor="middle" x="71" y="-199.5" font-family="Helvetica,sans-Serif" font-size="10.00">o2::trd::PadParameters&lt; T &gt;</text>
<polyline fill="none" stroke="black" points="0,-192.5 142,-192.5 "/>
<text text-anchor="middle" x="71" y="-180.5" font-family="Helvetica,sans-Serif" font-size="10.00"> </text>
<polyline fill="none" stroke="black" points="0,-173.5 142,-173.5 "/>
<text text-anchor="start" x="8" y="-161.5" font-family="Helvetica,sans-Serif" font-size="10.00">+ PadParameters()</text>
<text text-anchor="start" x="8" y="-150.5" font-family="Helvetica,sans-Serif" font-size="10.00">+ PadParameters()</text>
<text text-anchor="start" x="8" y="-139.5" font-family="Helvetica,sans-Serif" font-size="10.00">+ ~PadParameters()</text>
<text text-anchor="start" x="8" y="-128.5" font-family="Helvetica,sans-Serif" font-size="10.00">+ init()</text>
<text text-anchor="start" x="8" y="-117.5" font-family="Helvetica,sans-Serif" font-size="10.00">+ getNrows()</text>
<text text-anchor="start" x="8" y="-106.5" font-family="Helvetica,sans-Serif" font-size="10.00">+ getNcols()</text>
<text text-anchor="start" x="8" y="-95.5" font-family="Helvetica,sans-Serif" font-size="10.00">+ getChannel()</text>
<text text-anchor="start" x="8" y="-84.5" font-family="Helvetica,sans-Serif" font-size="10.00">+ getNchannels()</text>
<text text-anchor="start" x="8" y="-73.5" font-family="Helvetica,sans-Serif" font-size="10.00">+ getValue()</text>
<text text-anchor="start" x="8" y="-62.5" font-family="Helvetica,sans-Serif" font-size="10.00">+ getValue()</text>
<text text-anchor="start" x="8" y="-51.5" font-family="Helvetica,sans-Serif" font-size="10.00">+ setValue()</text>
<text text-anchor="start" x="8" y="-40.5" font-family="Helvetica,sans-Serif" font-size="10.00">+ setValue()</text>
<text text-anchor="start" x="8" y="-29.5" font-family="Helvetica,sans-Serif" font-size="10.00">+ debug()</text>
<text text-anchor="start" x="8" y="-18.5" font-family="Helvetica,sans-Serif" font-size="10.00">+ reset()</text>
<text text-anchor="start" x="8" y="-7.5" font-family="Helvetica,sans-Serif" font-size="10.00">+ dumpNonZeroValues()</text>
</g>
<!-- Node2 -->
<g id="node2" class="node"><title>Node2</title>
<polygon fill="none" stroke="#bfbfbf" points="14.5,-303.5 14.5,-360.5 43.5,-360.5 43.5,-303.5 14.5,-303.5"/>
<text text-anchor="middle" x="29" y="-348.5" font-family="Helvetica,sans-Serif" font-size="10.00">int</text>
<polyline fill="none" stroke="#bfbfbf" points="14.5,-341.5 43.5,-341.5 "/>
<text text-anchor="middle" x="29" y="-329.5" font-family="Helvetica,sans-Serif" font-size="10.00"> </text>
<polyline fill="none" stroke="#bfbfbf" points="14.5,-322.5 43.5,-322.5 "/>
<text text-anchor="middle" x="29" y="-310.5" font-family="Helvetica,sans-Serif" font-size="10.00"> </text>
</g>
<!-- Node2&#45;&gt;Node1 -->
<g id="edge1" class="edge"><title>Node2&#45;&gt;Node1</title>
<path fill="none" stroke="#404040" d="M26.9731,-303.362C26.0316,-282.948 25.8898,-254.559 30,-230 30.3448,-227.94 30.7186,-225.867 31.1187,-223.785"/>
<polygon fill="none" stroke="#404040" points="31.1731,-223.53 28.515,-216.827 33.6802,-211.795 36.3384,-218.498 31.1731,-223.53"/>
<text text-anchor="middle" x="60.5" y="-277" font-family="Helvetica,sans-Serif" font-size="10.00"> #mNrows</text>
<text text-anchor="middle" x="60.5" y="-266" font-family="Helvetica,sans-Serif" font-size="10.00">#mPlane</text>
<text text-anchor="middle" x="60.5" y="-255" font-family="Helvetica,sans-Serif" font-size="10.00">#mNchannels</text>
<text text-anchor="middle" x="60.5" y="-244" font-family="Helvetica,sans-Serif" font-size="10.00">#mNcols</text>
<text text-anchor="middle" x="60.5" y="-233" font-family="Helvetica,sans-Serif" font-size="10.00">#mChamber</text>
</g>
<!-- Node3 -->
<g id="node3" class="node"><title>Node3</title>
<polygon fill="none" stroke="#bfbfbf" points="79,-303.5 79,-360.5 147,-360.5 147,-303.5 79,-303.5"/>
<text text-anchor="middle" x="113" y="-348.5" font-family="Helvetica,sans-Serif" font-size="10.00">vector&lt; T &gt;</text>
<polyline fill="none" stroke="#bfbfbf" points="79,-341.5 147,-341.5 "/>
<text text-anchor="middle" x="113" y="-329.5" font-family="Helvetica,sans-Serif" font-size="10.00"> </text>
<polyline fill="none" stroke="#bfbfbf" points="79,-322.5 147,-322.5 "/>
<text text-anchor="middle" x="113" y="-310.5" font-family="Helvetica,sans-Serif" font-size="10.00"> </text>
</g>
<!-- Node3&#45;&gt;Node1 -->
<g id="edge2" class="edge"><title>Node3&#45;&gt;Node1</title>
<path fill="none" stroke="#404040" d="M107.766,-303.083C103.922,-282.583 98.4174,-253.226 92.8342,-223.449"/>
<polygon fill="none" stroke="#404040" points="92.8219,-223.383 87.7847,-218.223 90.6104,-211.589 95.6476,-216.749 92.8219,-223.383"/>
<text text-anchor="middle" x="123" y="-255" font-family="Helvetica,sans-Serif" font-size="10.00"> #mData</text>
</g>
</g>
</svg>
