<?xml version="1.0" encoding="UTF-8" standalone="no"?>
<!DOCTYPE svg PUBLIC "-//W3C//DTD SVG 1.1//EN"
 "http://www.w3.org/Graphics/SVG/1.1/DTD/svg11.dtd">
<!-- Generated by graphviz version 2.38.0 (20140413.2041)
 -->
<!-- Title: /home/travis/build/AliceO2Group/AliceO2/Detectors/TRD/base/include/TRDBase/PadStatus.h Pages: 1 -->
<svg width="454pt" height="328pt"
 viewBox="0.00 0.00 454.00 328.00" xmlns="http://www.w3.org/2000/svg" xmlns:xlink="http://www.w3.org/1999/xlink">
<g id="graph0" class="graph" transform="scale(1 1) rotate(0) translate(4 324)">
<title>/home/travis/build/AliceO2Group/AliceO2/Detectors/TRD/base/include/TRDBase/PadStatus.h</title>
<!-- Node1 -->
<g id="node1" class="node"><title>Node1</title>
<polygon fill="#bfbfbf" stroke="black" points="233.5,-267.5 233.5,-319.5 377.5,-319.5 377.5,-267.5 233.5,-267.5"/>
<text text-anchor="start" x="241.5" y="-307.5" font-family="Helvetica,sans-Serif" font-size="10.00">/home/travis/build</text>
<text text-anchor="start" x="241.5" y="-296.5" font-family="Helvetica,sans-Serif" font-size="10.00">/AliceO2Group/AliceO2</text>
<text text-anchor="start" x="241.5" y="-285.5" font-family="Helvetica,sans-Serif" font-size="10.00">/Detectors/TRD/base/include</text>
<text text-anchor="middle" x="305.5" y="-274.5" font-family="Helvetica,sans-Serif" font-size="10.00">/TRDBase/PadStatus.h</text>
</g>
<!-- Node2 -->
<g id="node2" class="node"><title>Node2</title>
<g id="a_node2"><a xlink:href="../../d4/d17/Calibrations_8h.html" target="_top" xlink:title="/home/travis/build\l/AliceO2Group/AliceO2\l/Detectors/TRD/base/include\l/TRDBase/Calibrations.h">
<polygon fill="none" stroke="black" points="156.5,-178.5 156.5,-230.5 300.5,-230.5 300.5,-178.5 156.5,-178.5"/>
<text text-anchor="start" x="164.5" y="-218.5" font-family="Helvetica,sans-Serif" font-size="10.00">/home/travis/build</text>
<text text-anchor="start" x="164.5" y="-207.5" font-family="Helvetica,sans-Serif" font-size="10.00">/AliceO2Group/AliceO2</text>
<text text-anchor="start" x="164.5" y="-196.5" font-family="Helvetica,sans-Serif" font-size="10.00">/Detectors/TRD/base/include</text>
<text text-anchor="middle" x="228.5" y="-185.5" font-family="Helvetica,sans-Serif" font-size="10.00">/TRDBase/Calibrations.h</text>
</a>
</g>
</g>
<!-- Node1&#45;&gt;Node2 -->
<g id="edge1" class="edge"><title>Node1&#45;&gt;Node2</title>
<path fill="none" stroke="midnightblue" d="M276.55,-259.79C267.999,-250.129 258.778,-239.71 250.722,-230.607"/>
<polygon fill="midnightblue" stroke="midnightblue" points="273.98,-262.167 283.228,-267.336 279.222,-257.528 273.98,-262.167"/>
</g>
<!-- Node7 -->
<g id="node7" class="node"><title>Node7</title>
<g id="a_node7"><a xlink:href="../../d6/db7/PadStatus_8cxx.html" target="_top" xlink:title="/home/travis/build\l/AliceO2Group/AliceO2\l/Detectors/TRD/base/src\l/PadStatus.cxx">
<polygon fill="none" stroke="black" points="319,-178.5 319,-230.5 446,-230.5 446,-178.5 319,-178.5"/>
<text text-anchor="start" x="327" y="-218.5" font-family="Helvetica,sans-Serif" font-size="10.00">/home/travis/build</text>
<text text-anchor="start" x="327" y="-207.5" font-family="Helvetica,sans-Serif" font-size="10.00">/AliceO2Group/AliceO2</text>
<text text-anchor="start" x="327" y="-196.5" font-family="Helvetica,sans-Serif" font-size="10.00">/Detectors/TRD/base/src</text>
<text text-anchor="middle" x="382.5" y="-185.5" font-family="Helvetica,sans-Serif" font-size="10.00">/PadStatus.cxx</text>
</a>
</g>
</g>
<!-- Node1&#45;&gt;Node7 -->
<g id="edge7" class="edge"><title>Node1&#45;&gt;Node7</title>
<path fill="none" stroke="midnightblue" d="M334.45,-259.79C343.001,-250.129 352.222,-239.71 360.278,-230.607"/>
<polygon fill="midnightblue" stroke="midnightblue" points="331.778,-257.528 327.772,-267.336 337.02,-262.167 331.778,-257.528"/>
</g>
<!-- Node3 -->
<g id="node3" class="node"><title>Node3</title>
<g id="a_node3"><a xlink:href="../../dc/db4/Calibrations_8cxx.html" target="_top" xlink:title="/home/travis/build\l/AliceO2Group/AliceO2\l/Detectors/TRD/base/src\l/Calibrations.cxx">
<polygon fill="none" stroke="black" points="0,-89.5 0,-141.5 127,-141.5 127,-89.5 0,-89.5"/>
<text text-anchor="start" x="8" y="-129.5" font-family="Helvetica,sans-Serif" font-size="10.00">/home/travis/build</text>
<text text-anchor="start" x="8" y="-118.5" font-family="Helvetica,sans-Serif" font-size="10.00">/AliceO2Group/AliceO2</text>
<text text-anchor="start" x="8" y="-107.5" font-family="Helvetica,sans-Serif" font-size="10.00">/Detectors/TRD/base/src</text>
<text text-anchor="middle" x="63.5" y="-96.5" font-family="Helvetica,sans-Serif" font-size="10.00">/Calibrations.cxx</text>
</a>
</g>
</g>
<!-- Node2&#45;&gt;Node3 -->
<g id="edge2" class="edge"><title>Node2&#45;&gt;Node3</title>
<path fill="none" stroke="midnightblue" d="M171.86,-173.635C152.078,-163.205 130.09,-151.611 111.118,-141.607"/>
<polygon fill="midnightblue" stroke="midnightblue" points="170.297,-176.768 180.775,-178.336 173.562,-170.576 170.297,-176.768"/>
</g>
<!-- Node4 -->
<g id="node4" class="node"><title>Node4</title>
<g id="a_node4"><a xlink:href="../../d4/dae/TRD_2simulation_2include_2TRDSimulation_2Digitizer_8h.html" target="_top" xlink:title="/home/travis/build\l/AliceO2Group/AliceO2\l/Detectors/TRD/simulation\l/include/TRDSimulation/Digitizer.h">
<polygon fill="none" stroke="black" points="145,-89.5 145,-141.5 312,-141.5 312,-89.5 145,-89.5"/>
<text text-anchor="start" x="153" y="-129.5" font-family="Helvetica,sans-Serif" font-size="10.00">/home/travis/build</text>
<text text-anchor="start" x="153" y="-118.5" font-family="Helvetica,sans-Serif" font-size="10.00">/AliceO2Group/AliceO2</text>
<text text-anchor="start" x="153" y="-107.5" font-family="Helvetica,sans-Serif" font-size="10.00">/Detectors/TRD/simulation</text>
<text text-anchor="middle" x="228.5" y="-96.5" font-family="Helvetica,sans-Serif" font-size="10.00">/include/TRDSimulation/Digitizer.h</text>
</a>
</g>
</g>
<!-- Node2&#45;&gt;Node4 -->
<g id="edge3" class="edge"><title>Node2&#45;&gt;Node4</title>
<path fill="none" stroke="midnightblue" d="M228.5,-168.191C228.5,-159.282 228.5,-149.899 228.5,-141.607"/>
<polygon fill="midnightblue" stroke="midnightblue" points="225,-168.336 228.5,-178.336 232,-168.336 225,-168.336"/>
</g>
<!-- Node6 -->
<g id="node6" class="node"><title>Node6</title>
<g id="a_node6"><a xlink:href="../../d6/df2/TRDDigitizerSpec_8cxx.html" target="_top" xlink:title="/home/travis/build\l/AliceO2Group/AliceO2\l/Steer/DigitizerWorkflow\l/src/TRDDigitizerSpec.cxx">
<polygon fill="none" stroke="black" points="272.5,-0.5 272.5,-52.5 406.5,-52.5 406.5,-0.5 272.5,-0.5"/>
<text text-anchor="start" x="280.5" y="-40.5" font-family="Helvetica,sans-Serif" font-size="10.00">/home/travis/build</text>
<text text-anchor="start" x="280.5" y="-29.5" font-family="Helvetica,sans-Serif" font-size="10.00">/AliceO2Group/AliceO2</text>
<text text-anchor="start" x="280.5" y="-18.5" font-family="Helvetica,sans-Serif" font-size="10.00">/Steer/DigitizerWorkflow</text>
<text text-anchor="middle" x="339.5" y="-7.5" font-family="Helvetica,sans-Serif" font-size="10.00">/src/TRDDigitizerSpec.cxx</text>
</a>
</g>
</g>
<!-- Node2&#45;&gt;Node6 -->
<g id="edge6" class="edge"><title>Node2&#45;&gt;Node6</title>
<path fill="none" stroke="midnightblue" d="M291.306,-172.451C302.948,-164.058 313.836,-153.924 321.5,-142 338.799,-115.085 341.553,-77.434 341.156,-52.7661"/>
<polygon fill="midnightblue" stroke="midnightblue" points="289.051,-169.752 282.732,-178.256 292.975,-175.548 289.051,-169.752"/>
</g>
<!-- Node5 -->
<g id="node5" class="node"><title>Node5</title>
<g id="a_node5"><a xlink:href="../../d7/d40/TRD_2simulation_2src_2Digitizer_8cxx.html" target="_top" xlink:title="/home/travis/build\l/AliceO2Group/AliceO2\l/Detectors/TRD/simulation\l/src/Digitizer.cxx">
<polygon fill="none" stroke="black" points="120.5,-0.5 120.5,-52.5 254.5,-52.5 254.5,-0.5 120.5,-0.5"/>
<text text-anchor="start" x="128.5" y="-40.5" font-family="Helvetica,sans-Serif" font-size="10.00">/home/travis/build</text>
<text text-anchor="start" x="128.5" y="-29.5" font-family="Helvetica,sans-Serif" font-size="10.00">/AliceO2Group/AliceO2</text>
<text text-anchor="start" x="128.5" y="-18.5" font-family="Helvetica,sans-Serif" font-size="10.00">/Detectors/TRD/simulation</text>
<text text-anchor="middle" x="187.5" y="-7.5" font-family="Helvetica,sans-Serif" font-size="10.00">/src/Digitizer.cxx</text>
</a>
</g>
</g>
<!-- Node4&#45;&gt;Node5 -->
<g id="edge4" class="edge"><title>Node4&#45;&gt;Node5</title>
<path fill="none" stroke="midnightblue" d="M212.27,-80.0607C207.951,-70.8956 203.367,-61.169 199.332,-52.6075"/>
<polygon fill="midnightblue" stroke="midnightblue" points="209.212,-81.7822 216.641,-89.336 215.544,-78.7981 209.212,-81.7822"/>
</g>
<!-- Node4&#45;&gt;Node6 -->
<g id="edge5" class="edge"><title>Node4&#45;&gt;Node6</title>
<path fill="none" stroke="midnightblue" d="M268.774,-82.9342C281.504,-72.9562 295.393,-62.0702 307.466,-52.6075"/>
<polygon fill="midnightblue" stroke="midnightblue" points="266.317,-80.4124 260.606,-89.336 270.635,-85.9218 266.317,-80.4124"/>
</g>
</g>
</svg>
