<?xml version="1.0" encoding="UTF-8" standalone="no"?>
<!DOCTYPE svg PUBLIC "-//W3C//DTD SVG 1.1//EN"
 "http://www.w3.org/Graphics/SVG/1.1/DTD/svg11.dtd">
<!-- Generated by graphviz version 2.38.0 (20140413.2041)
 -->
<!-- Title: /home/travis/build/AliceO2Group/AliceO2/DataFormats/Detectors/TPC/include/DataFormatsTPC/ClusterNativeHelper.h Pages: 1 -->
<!--zoomable 361 -->
<svg id="main" version="1.1" xmlns="http://www.w3.org/2000/svg" xmlns:xlink="http://www.w3.org/1999/xlink" xml:space="preserve" onload="init(evt)">
<style type="text/css"><![CDATA[
.edge:hover path { stroke: red; }
.edge:hover polygon { stroke: red; fill: red; }
]]></style>
<script type="text/javascript"><![CDATA[
var edges = document.getElementsByTagName('g');
if (edges && edges.length) {
  for (var i=0;i<edges.length;i++) {
    if (edges[i].id.substr(0,4)=='edge') {
      edges[i].setAttribute('class','edge');
    }
  }
}
]]></script>
        <defs>
                <circle id="rim" cx="0" cy="0" r="7"/>
                <circle id="rim2" cx="0" cy="0" r="3.5"/>
                <g id="zoomPlus">
                        <use xlink:href="#rim" fill="#404040">
                                <set attributeName="fill" to="#808080" begin="zoomplus.mouseover" end="zoomplus.mouseout"/>
                        </use>
                        <path d="M-4,0h8M0,-4v8" fill="none" stroke="white" stroke-width="1.5" pointer-events="none"/>
                </g>
                <g id="zoomMin">
                        <use xlink:href="#rim" fill="#404040">
                                <set attributeName="fill" to="#808080" begin="zoomminus.mouseover" end="zoomminus.mouseout"/>
                        </use>
                        <path d="M-4,0h8" fill="none" stroke="white" stroke-width="1.5" pointer-events="none"/>
                </g>
                <g id="dirArrow">
                        <path fill="none" stroke="white" stroke-width="1.5" d="M0,-3.0v7 M-2.5,-0.5L0,-3.0L2.5,-0.5"/>
                </g>
               <g id="resetDef">
                       <use xlink:href="#rim2" fill="#404040">
                               <set attributeName="fill" to="#808080" begin="reset.mouseover" end="reset.mouseout"/>
                       </use>
               </g>
        </defs>

<script type="text/javascript">
var viewWidth = 1614;
var viewHeight = 361;
var sectionId = 'dynsection-1';
</script>
<script xlink:href="../../svgpan.js"/>
<svg id="graph" class="graph">
<g id="viewport">
<title>/home/travis/build/AliceO2Group/AliceO2/DataFormats/Detectors/TPC/include/DataFormatsTPC/ClusterNativeHelper.h</title>
<!-- Node1 -->
<g id="node1" class="node"><title>Node1</title>
<polygon fill="#bfbfbf" stroke="black" points="872.5,-289.5 872.5,-352.5 1026.5,-352.5 1026.5,-289.5 872.5,-289.5"/>
<text text-anchor="start" x="880.5" y="-340.5" font-family="Helvetica,sans-Serif" font-size="10.00">/home/travis/build</text>
<text text-anchor="start" x="880.5" y="-329.5" font-family="Helvetica,sans-Serif" font-size="10.00">/AliceO2Group/AliceO2</text>
<text text-anchor="start" x="880.5" y="-318.5" font-family="Helvetica,sans-Serif" font-size="10.00">/DataFormats/Detectors</text>
<text text-anchor="start" x="880.5" y="-307.5" font-family="Helvetica,sans-Serif" font-size="10.00">/TPC/include/DataFormatsTPC</text>
<text text-anchor="middle" x="949.5" y="-296.5" font-family="Helvetica,sans-Serif" font-size="10.00">/ClusterNativeHelper.h</text>
</g>
<!-- Node2 -->
<g id="node2" class="node"><title>Node2</title>
<g id="a_node2"><a xlink:href="../../d5/d1e/ClusterNativeHelper_8cxx.html" target="_top" xlink:title="Helper class to read the binary format of TPC ClusterNative. ">
<polygon fill="none" stroke="black" points="153,-195 153,-247 320,-247 320,-195 153,-195"/>
<text text-anchor="start" x="161" y="-235" font-family="Helvetica,sans-Serif" font-size="10.00">/home/travis/build</text>
<text text-anchor="start" x="161" y="-224" font-family="Helvetica,sans-Serif" font-size="10.00">/AliceO2Group/AliceO2</text>
<text text-anchor="start" x="161" y="-213" font-family="Helvetica,sans-Serif" font-size="10.00">/DataFormats/Detectors</text>
<text text-anchor="middle" x="236.5" y="-202" font-family="Helvetica,sans-Serif" font-size="10.00">/TPC/src/ClusterNativeHelper.cxx</text>
</a>
</g>
</g>
<!-- Node1&#45;&gt;Node2 -->
<g id="edge1" class="edge"><title>Node1&#45;&gt;Node2</title>
<path fill="none" stroke="midnightblue" d="M861.826,-316.546C740.673,-310.417 515.802,-294.146 328.5,-253 321.01,-251.355 313.276,-249.315 305.621,-247.073"/>
<polygon fill="midnightblue" stroke="midnightblue" points="861.99,-320.058 872.151,-317.056 862.336,-313.067 861.99,-320.058"/>
</g>
<!-- Node3 -->
<g id="node3" class="node"><title>Node3</title>
<g id="a_node3"><a xlink:href="../../d3/dac/MatchTPCITS_8h.html" target="_top" xlink:title="Class to perform TPC ITS matching. ">
<polygon fill="none" stroke="black" points="338,-195 338,-247 531,-247 531,-195 338,-195"/>
<text text-anchor="start" x="346" y="-235" font-family="Helvetica,sans-Serif" font-size="10.00">/home/travis/build</text>
<text text-anchor="start" x="346" y="-224" font-family="Helvetica,sans-Serif" font-size="10.00">/AliceO2Group/AliceO2</text>
<text text-anchor="start" x="346" y="-213" font-family="Helvetica,sans-Serif" font-size="10.00">/Detectors/GlobalTracking</text>
<text text-anchor="middle" x="434.5" y="-202" font-family="Helvetica,sans-Serif" font-size="10.00">/include/GlobalTracking/MatchTPCITS.h</text>
</a>
</g>
</g>
<!-- Node1&#45;&gt;Node3 -->
<g id="edge2" class="edge"><title>Node1&#45;&gt;Node3</title>
<path fill="none" stroke="midnightblue" d="M862.298,-303.406C770.462,-285.931 626.24,-258.487 531.033,-240.369"/>
<polygon fill="midnightblue" stroke="midnightblue" points="861.921,-306.897 872.399,-305.328 863.23,-300.021 861.921,-306.897"/>
</g>
<!-- Node10 -->
<g id="node10" class="node"><title>Node10</title>
<g id="a_node10"><a xlink:href="../../d6/d73/TPCITSMatchingSpec_8cxx.html" target="_top" xlink:title="/home/travis/build\l/AliceO2Group/AliceO2\l/Detectors/GlobalTrackingWorkflow\l/src/TPCITSMatchingSpec.cxx">
<polygon fill="none" stroke="black" points="552.5,-0.5 552.5,-52.5 724.5,-52.5 724.5,-0.5 552.5,-0.5"/>
<text text-anchor="start" x="560.5" y="-40.5" font-family="Helvetica,sans-Serif" font-size="10.00">/home/travis/build</text>
<text text-anchor="start" x="560.5" y="-29.5" font-family="Helvetica,sans-Serif" font-size="10.00">/AliceO2Group/AliceO2</text>
<text text-anchor="start" x="560.5" y="-18.5" font-family="Helvetica,sans-Serif" font-size="10.00">/Detectors/GlobalTrackingWorkflow</text>
<text text-anchor="middle" x="638.5" y="-7.5" font-family="Helvetica,sans-Serif" font-size="10.00">/src/TPCITSMatchingSpec.cxx</text>
</a>
</g>
</g>
<!-- Node1&#45;&gt;Node10 -->
<g id="edge11" class="edge"><title>Node1&#45;&gt;Node10</title>
<path fill="none" stroke="midnightblue" d="M862.5,-302.038C824.789,-291.623 781.382,-275.912 746.5,-253 696.771,-220.336 682.775,-206.862 657.5,-153 642.334,-120.682 638.754,-79.01 638.17,-52.7642"/>
<polygon fill="midnightblue" stroke="midnightblue" points="861.899,-305.5 872.463,-304.705 863.708,-298.738 861.899,-305.5"/>
</g>
<!-- Node11 -->
<g id="node11" class="node"><title>Node11</title>
<g id="a_node11"><a xlink:href="../../d3/d0c/TrackInterpolation_8h.html" target="_top" xlink:title="Definition of the TrackInterpolation class. ">
<polygon fill="none" stroke="black" points="755,-189.5 755,-252.5 922,-252.5 922,-189.5 755,-189.5"/>
<text text-anchor="start" x="763" y="-240.5" font-family="Helvetica,sans-Serif" font-size="10.00">/home/travis/build</text>
<text text-anchor="start" x="763" y="-229.5" font-family="Helvetica,sans-Serif" font-size="10.00">/AliceO2Group/AliceO2</text>
<text text-anchor="start" x="763" y="-218.5" font-family="Helvetica,sans-Serif" font-size="10.00">/Detectors/TPC/calibration</text>
<text text-anchor="start" x="763" y="-207.5" font-family="Helvetica,sans-Serif" font-size="10.00">/SpacePoints/include/SpacePoints</text>
<text text-anchor="middle" x="838.5" y="-196.5" font-family="Helvetica,sans-Serif" font-size="10.00">/TrackInterpolation.h</text>
</a>
</g>
</g>
<!-- Node1&#45;&gt;Node11 -->
<g id="edge12" class="edge"><title>Node1&#45;&gt;Node11</title>
<path fill="none" stroke="midnightblue" d="M907.076,-282.545C895.879,-272.659 883.929,-262.108 873.193,-252.63"/>
<polygon fill="midnightblue" stroke="midnightblue" points="904.871,-285.266 914.683,-289.261 909.503,-280.019 904.871,-285.266"/>
</g>
<!-- Node15 -->
<g id="node15" class="node"><title>Node15</title>
<g id="a_node15"><a xlink:href="../../d2/d41/HardwareClusterDecoder_8h.html" target="_top" xlink:title="Decoder to convert TPC ClusterHardware to ClusterNative. ">
<polygon fill="none" stroke="black" points="977.5,-189.5 977.5,-252.5 1127.5,-252.5 1127.5,-189.5 977.5,-189.5"/>
<text text-anchor="start" x="985.5" y="-240.5" font-family="Helvetica,sans-Serif" font-size="10.00">/home/travis/build</text>
<text text-anchor="start" x="985.5" y="-229.5" font-family="Helvetica,sans-Serif" font-size="10.00">/AliceO2Group/AliceO2</text>
<text text-anchor="start" x="985.5" y="-218.5" font-family="Helvetica,sans-Serif" font-size="10.00">/Detectors/TPC/reconstruction</text>
<text text-anchor="start" x="985.5" y="-207.5" font-family="Helvetica,sans-Serif" font-size="10.00">/include/TPCReconstruction</text>
<text text-anchor="middle" x="1052.5" y="-196.5" font-family="Helvetica,sans-Serif" font-size="10.00">/HardwareClusterDecoder.h</text>
</a>
</g>
</g>
<!-- Node1&#45;&gt;Node15 -->
<g id="edge16" class="edge"><title>Node1&#45;&gt;Node15</title>
<path fill="none" stroke="midnightblue" d="M989.166,-282.259C999.47,-272.456 1010.44,-262.017 1020.31,-252.63"/>
<polygon fill="midnightblue" stroke="midnightblue" points="986.639,-279.832 981.807,-289.261 991.465,-284.904 986.639,-279.832"/>
</g>
<!-- Node16 -->
<g id="node16" class="node"><title>Node16</title>
<g id="a_node16"><a xlink:href="../../d4/d7c/HardwareClusterDecoder_8cxx.html" target="_top" xlink:title="/home/travis/build\l/AliceO2Group/AliceO2\l/Detectors/TPC/reconstruction\l/src/HardwareClusterDecoder.cxx">
<polygon fill="none" stroke="black" points="1060,-95 1060,-147 1225,-147 1225,-95 1060,-95"/>
<text text-anchor="start" x="1068" y="-135" font-family="Helvetica,sans-Serif" font-size="10.00">/home/travis/build</text>
<text text-anchor="start" x="1068" y="-124" font-family="Helvetica,sans-Serif" font-size="10.00">/AliceO2Group/AliceO2</text>
<text text-anchor="start" x="1068" y="-113" font-family="Helvetica,sans-Serif" font-size="10.00">/Detectors/TPC/reconstruction</text>
<text text-anchor="middle" x="1142.5" y="-102" font-family="Helvetica,sans-Serif" font-size="10.00">/src/HardwareClusterDecoder.cxx</text>
</a>
</g>
</g>
<!-- Node1&#45;&gt;Node16 -->
<g id="edge19" class="edge"><title>Node1&#45;&gt;Node16</title>
<path fill="none" stroke="midnightblue" d="M945.3,-278.966C944.647,-250.787 948.478,-214.084 968.5,-189 972.097,-184.494 1025.6,-164.244 1072.34,-147.174"/>
<polygon fill="midnightblue" stroke="midnightblue" points="941.818,-279.466 945.746,-289.307 948.812,-279.165 941.818,-279.466"/>
</g>
<!-- Node18 -->
<g id="node18" class="node"><title>Node18</title>
<g id="a_node18"><a xlink:href="../../d1/df6/testGPUCATracking_8cxx.html" target="_top" xlink:title="This task tests the TPC CA Tracking library. ">
<polygon fill="none" stroke="black" points="1145.5,-195 1145.5,-247 1295.5,-247 1295.5,-195 1145.5,-195"/>
<text text-anchor="start" x="1153.5" y="-235" font-family="Helvetica,sans-Serif" font-size="10.00">/home/travis/build</text>
<text text-anchor="start" x="1153.5" y="-224" font-family="Helvetica,sans-Serif" font-size="10.00">/AliceO2Group/AliceO2</text>
<text text-anchor="start" x="1153.5" y="-213" font-family="Helvetica,sans-Serif" font-size="10.00">/Detectors/TPC/reconstruction</text>
<text text-anchor="middle" x="1220.5" y="-202" font-family="Helvetica,sans-Serif" font-size="10.00">/test/testGPUCATracking.cxx</text>
</a>
</g>
</g>
<!-- Node1&#45;&gt;Node18 -->
<g id="edge20" class="edge"><title>Node1&#45;&gt;Node18</title>
<path fill="none" stroke="midnightblue" d="M1036.53,-289.013C1068.04,-277.74 1103.9,-264.856 1136.5,-253 1141.76,-251.087 1147.2,-249.1 1152.67,-247.096"/>
<polygon fill="midnightblue" stroke="midnightblue" points="1035.13,-285.795 1026.89,-292.457 1037.49,-292.386 1035.13,-285.795"/>
</g>
<!-- Node19 -->
<g id="node19" class="node"><title>Node19</title>
<g id="a_node19"><a xlink:href="../../da/d78/CATrackerSpec_8cxx.html" target="_top" xlink:title="Processor spec for running TPC CA tracking. ">
<polygon fill="none" stroke="black" points="1313.5,-195 1313.5,-247 1441.5,-247 1441.5,-195 1313.5,-195"/>
<text text-anchor="start" x="1321.5" y="-235" font-family="Helvetica,sans-Serif" font-size="10.00">/home/travis/build</text>
<text text-anchor="start" x="1321.5" y="-224" font-family="Helvetica,sans-Serif" font-size="10.00">/AliceO2Group/AliceO2</text>
<text text-anchor="start" x="1321.5" y="-213" font-family="Helvetica,sans-Serif" font-size="10.00">/Detectors/TPC/workflow</text>
<text text-anchor="middle" x="1377.5" y="-202" font-family="Helvetica,sans-Serif" font-size="10.00">/src/CATrackerSpec.cxx</text>
</a>
</g>
</g>
<!-- Node1&#45;&gt;Node19 -->
<g id="edge21" class="edge"><title>Node1&#45;&gt;Node19</title>
<path fill="none" stroke="midnightblue" d="M1036.85,-308.864C1109.48,-298.338 1215.06,-280.085 1304.5,-253 1310.17,-251.284 1315.99,-249.27 1321.76,-247.106"/>
<polygon fill="midnightblue" stroke="midnightblue" points="1036.22,-305.418 1026.82,-310.299 1037.22,-312.347 1036.22,-305.418"/>
</g>
<!-- Node20 -->
<g id="node20" class="node"><title>Node20</title>
<g id="a_node20"><a xlink:href="../../d5/df5/DataInterpreterTPC_8cxx.html" target="_top" xlink:title="converting TPC data to Event Visualisation primitives ">
<polygon fill="none" stroke="black" points="1459.5,-195 1459.5,-247 1605.5,-247 1605.5,-195 1459.5,-195"/>
<text text-anchor="start" x="1467.5" y="-235" font-family="Helvetica,sans-Serif" font-size="10.00">/home/travis/build</text>
<text text-anchor="start" x="1467.5" y="-224" font-family="Helvetica,sans-Serif" font-size="10.00">/AliceO2Group/AliceO2</text>
<text text-anchor="start" x="1467.5" y="-213" font-family="Helvetica,sans-Serif" font-size="10.00">/EventVisualisation/Detectors</text>
<text text-anchor="middle" x="1532.5" y="-202" font-family="Helvetica,sans-Serif" font-size="10.00">/src/DataInterpreterTPC.cxx</text>
</a>
</g>
</g>
<!-- Node1&#45;&gt;Node20 -->
<g id="edge22" class="edge"><title>Node1&#45;&gt;Node20</title>
<path fill="none" stroke="midnightblue" d="M1037.07,-314.375C1137.98,-306.498 1308.19,-288.913 1450.5,-253 1457.14,-251.324 1463.98,-249.28 1470.74,-247.048"/>
<polygon fill="midnightblue" stroke="midnightblue" points="1036.63,-310.899 1026.92,-315.152 1037.16,-317.878 1036.63,-310.899"/>
</g>
<!-- Node4 -->
<g id="node4" class="node"><title>Node4</title>
<g id="a_node4"><a xlink:href="../../d0/d74/MatchTOF_8h.html" target="_top" xlink:title="Class to perform TOF calibration. ">
<polygon fill="none" stroke="black" points="94.5,-95 94.5,-147 270.5,-147 270.5,-95 94.5,-95"/>
<text text-anchor="start" x="102.5" y="-135" font-family="Helvetica,sans-Serif" font-size="10.00">/home/travis/build</text>
<text text-anchor="start" x="102.5" y="-124" font-family="Helvetica,sans-Serif" font-size="10.00">/AliceO2Group/AliceO2</text>
<text text-anchor="start" x="102.5" y="-113" font-family="Helvetica,sans-Serif" font-size="10.00">/Detectors/GlobalTracking</text>
<text text-anchor="middle" x="182.5" y="-102" font-family="Helvetica,sans-Serif" font-size="10.00">/include/GlobalTracking/MatchTOF.h</text>
</a>
</g>
</g>
<!-- Node3&#45;&gt;Node4 -->
<g id="edge3" class="edge"><title>Node3&#45;&gt;Node4</title>
<path fill="none" stroke="midnightblue" d="M360.45,-191.203C324.431,-177.195 281.546,-160.518 246.901,-147.045"/>
<polygon fill="midnightblue" stroke="midnightblue" points="359.342,-194.527 369.931,-194.89 361.88,-188.003 359.342,-194.527"/>
</g>
<!-- Node5 -->
<g id="node5" class="node"><title>Node5</title>
<g id="a_node5"><a xlink:href="../../db/d6a/MatchTOF_8cxx.html" target="_top" xlink:title="/home/travis/build\l/AliceO2Group/AliceO2\l/Detectors/GlobalTracking\l/src/MatchTOF.cxx">
<polygon fill="none" stroke="black" points="0,-0.5 0,-52.5 131,-52.5 131,-0.5 0,-0.5"/>
<text text-anchor="start" x="8" y="-40.5" font-family="Helvetica,sans-Serif" font-size="10.00">/home/travis/build</text>
<text text-anchor="start" x="8" y="-29.5" font-family="Helvetica,sans-Serif" font-size="10.00">/AliceO2Group/AliceO2</text>
<text text-anchor="start" x="8" y="-18.5" font-family="Helvetica,sans-Serif" font-size="10.00">/Detectors/GlobalTracking</text>
<text text-anchor="middle" x="65.5" y="-7.5" font-family="Helvetica,sans-Serif" font-size="10.00">/src/MatchTOF.cxx</text>
</a>
</g>
</g>
<!-- Node3&#45;&gt;Node5 -->
<g id="edge6" class="edge"><title>Node3&#45;&gt;Node5</title>
<path fill="none" stroke="midnightblue" d="M343.467,-192.508C338.421,-191.256 333.408,-190.076 328.5,-189 275.177,-177.311 124.311,-191.388 85.5,-153 59.1472,-126.934 58.7691,-81.0315 61.6232,-52.5533"/>
<polygon fill="midnightblue" stroke="midnightblue" points="342.637,-195.909 353.193,-194.996 344.372,-189.127 342.637,-195.909"/>
</g>
<!-- Node7 -->
<g id="node7" class="node"><title>Node7</title>
<g id="a_node7"><a xlink:href="../../dc/d59/MatchTPCITS_8cxx.html" target="_top" xlink:title="/home/travis/build\l/AliceO2Group/AliceO2\l/Detectors/GlobalTracking\l/src/MatchTPCITS.cxx">
<polygon fill="none" stroke="black" points="289,-95 289,-147 420,-147 420,-95 289,-95"/>
<text text-anchor="start" x="297" y="-135" font-family="Helvetica,sans-Serif" font-size="10.00">/home/travis/build</text>
<text text-anchor="start" x="297" y="-124" font-family="Helvetica,sans-Serif" font-size="10.00">/AliceO2Group/AliceO2</text>
<text text-anchor="start" x="297" y="-113" font-family="Helvetica,sans-Serif" font-size="10.00">/Detectors/GlobalTracking</text>
<text text-anchor="middle" x="354.5" y="-102" font-family="Helvetica,sans-Serif" font-size="10.00">/src/MatchTPCITS.cxx</text>
</a>
</g>
</g>
<!-- Node3&#45;&gt;Node7 -->
<g id="edge7" class="edge"><title>Node3&#45;&gt;Node7</title>
<path fill="none" stroke="midnightblue" d="M407.5,-186.925C396.891,-173.93 384.914,-159.257 375.032,-147.152"/>
<polygon fill="midnightblue" stroke="midnightblue" points="404.863,-189.229 413.898,-194.763 410.286,-184.803 404.863,-189.229"/>
</g>
<!-- Node8 -->
<g id="node8" class="node"><title>Node8</title>
<g id="a_node8"><a xlink:href="../../da/d20/TPCITSMatchingSpec_8h.html" target="_top" xlink:title="/home/travis/build\l/AliceO2Group/AliceO2\l/Detectors/GlobalTrackingWorkflow\l/include/GlobalTrackingWorkflow\l/TPCITSMatchingSpec.h">
<polygon fill="none" stroke="black" points="438.5,-89.5 438.5,-152.5 610.5,-152.5 610.5,-89.5 438.5,-89.5"/>
<text text-anchor="start" x="446.5" y="-140.5" font-family="Helvetica,sans-Serif" font-size="10.00">/home/travis/build</text>
<text text-anchor="start" x="446.5" y="-129.5" font-family="Helvetica,sans-Serif" font-size="10.00">/AliceO2Group/AliceO2</text>
<text text-anchor="start" x="446.5" y="-118.5" font-family="Helvetica,sans-Serif" font-size="10.00">/Detectors/GlobalTrackingWorkflow</text>
<text text-anchor="start" x="446.5" y="-107.5" font-family="Helvetica,sans-Serif" font-size="10.00">/include/GlobalTrackingWorkflow</text>
<text text-anchor="middle" x="524.5" y="-96.5" font-family="Helvetica,sans-Serif" font-size="10.00">/TPCITSMatchingSpec.h</text>
</a>
</g>
</g>
<!-- Node3&#45;&gt;Node8 -->
<g id="edge8" class="edge"><title>Node3&#45;&gt;Node8</title>
<path fill="none" stroke="midnightblue" d="M464.545,-187.284C474.778,-176.142 486.175,-163.732 496.261,-152.749"/>
<polygon fill="midnightblue" stroke="midnightblue" points="461.863,-185.03 457.677,-194.763 467.019,-189.765 461.863,-185.03"/>
</g>
<!-- Node4&#45;&gt;Node5 -->
<g id="edge4" class="edge"><title>Node4&#45;&gt;Node5</title>
<path fill="none" stroke="midnightblue" d="M142.791,-88.6064C127.921,-76.8496 111.237,-63.6599 97.1872,-52.5518"/>
<polygon fill="midnightblue" stroke="midnightblue" points="140.823,-91.5118 150.838,-94.9682 145.164,-86.0207 140.823,-91.5118"/>
</g>
<!-- Node6 -->
<g id="node6" class="node"><title>Node6</title>
<g id="a_node6"><a xlink:href="../../d8/d84/RecoWorkflowSpec_8cxx.html" target="_top" xlink:title="/home/travis/build\l/AliceO2Group/AliceO2\l/Detectors/GlobalTrackingWorkflow\l/tofworkflow/src/RecoWorkflowSpec.cxx">
<polygon fill="none" stroke="black" points="149,-0.5 149,-52.5 344,-52.5 344,-0.5 149,-0.5"/>
<text text-anchor="start" x="157" y="-40.5" font-family="Helvetica,sans-Serif" font-size="10.00">/home/travis/build</text>
<text text-anchor="start" x="157" y="-29.5" font-family="Helvetica,sans-Serif" font-size="10.00">/AliceO2Group/AliceO2</text>
<text text-anchor="start" x="157" y="-18.5" font-family="Helvetica,sans-Serif" font-size="10.00">/Detectors/GlobalTrackingWorkflow</text>
<text text-anchor="middle" x="246.5" y="-7.5" font-family="Helvetica,sans-Serif" font-size="10.00">/tofworkflow/src/RecoWorkflowSpec.cxx</text>
</a>
</g>
</g>
<!-- Node4&#45;&gt;Node6 -->
<g id="edge5" class="edge"><title>Node4&#45;&gt;Node6</title>
<path fill="none" stroke="midnightblue" d="M205.701,-86.4679C213.401,-75.338 221.839,-63.1427 229.033,-52.7455"/>
<polygon fill="midnightblue" stroke="midnightblue" points="202.8,-84.509 199.988,-94.724 208.556,-88.4919 202.8,-84.509"/>
</g>
<!-- Node9 -->
<g id="node9" class="node"><title>Node9</title>
<g id="a_node9"><a xlink:href="../../d5/db4/MatchTPCITSWorkflow_8cxx.html" target="_top" xlink:title="/home/travis/build\l/AliceO2Group/AliceO2\l/Detectors/GlobalTrackingWorkflow\l/src/MatchTPCITSWorkflow.cxx">
<polygon fill="none" stroke="black" points="362.5,-0.5 362.5,-52.5 534.5,-52.5 534.5,-0.5 362.5,-0.5"/>
<text text-anchor="start" x="370.5" y="-40.5" font-family="Helvetica,sans-Serif" font-size="10.00">/home/travis/build</text>
<text text-anchor="start" x="370.5" y="-29.5" font-family="Helvetica,sans-Serif" font-size="10.00">/AliceO2Group/AliceO2</text>
<text text-anchor="start" x="370.5" y="-18.5" font-family="Helvetica,sans-Serif" font-size="10.00">/Detectors/GlobalTrackingWorkflow</text>
<text text-anchor="middle" x="448.5" y="-7.5" font-family="Helvetica,sans-Serif" font-size="10.00">/src/MatchTPCITSWorkflow.cxx</text>
</a>
</g>
</g>
<!-- Node8&#45;&gt;Node9 -->
<g id="edge9" class="edge"><title>Node8&#45;&gt;Node9</title>
<path fill="none" stroke="midnightblue" d="M492.838,-81.4641C484.876,-71.7739 476.533,-61.6188 469.259,-52.7655"/>
<polygon fill="midnightblue" stroke="midnightblue" points="490.352,-83.951 499.404,-89.4557 495.76,-79.5072 490.352,-83.951"/>
</g>
<!-- Node8&#45;&gt;Node10 -->
<g id="edge10" class="edge"><title>Node8&#45;&gt;Node10</title>
<path fill="none" stroke="midnightblue" d="M570.206,-82.9139C582.68,-72.7926 595.905,-62.0614 607.362,-52.7655"/>
<polygon fill="midnightblue" stroke="midnightblue" points="567.704,-80.437 562.144,-89.4557 572.114,-85.8727 567.704,-80.437"/>
</g>
<!-- Node12 -->
<g id="node12" class="node"><title>Node12</title>
<g id="a_node12"><a xlink:href="../../da/ddb/TrackResiduals_8h.html" target="_top" xlink:title="Definition of the TrackResiduals class. ">
<polygon fill="none" stroke="black" points="666,-89.5 666,-152.5 833,-152.5 833,-89.5 666,-89.5"/>
<text text-anchor="start" x="674" y="-140.5" font-family="Helvetica,sans-Serif" font-size="10.00">/home/travis/build</text>
<text text-anchor="start" x="674" y="-129.5" font-family="Helvetica,sans-Serif" font-size="10.00">/AliceO2Group/AliceO2</text>
<text text-anchor="start" x="674" y="-118.5" font-family="Helvetica,sans-Serif" font-size="10.00">/Detectors/TPC/calibration</text>
<text text-anchor="start" x="674" y="-107.5" font-family="Helvetica,sans-Serif" font-size="10.00">/SpacePoints/include/SpacePoints</text>
<text text-anchor="middle" x="749.5" y="-96.5" font-family="Helvetica,sans-Serif" font-size="10.00">/TrackResiduals.h</text>
</a>
</g>
</g>
<!-- Node11&#45;&gt;Node12 -->
<g id="edge13" class="edge"><title>Node11&#45;&gt;Node12</title>
<path fill="none" stroke="midnightblue" d="M803.706,-181.687C794.954,-172.051 785.676,-161.835 777.317,-152.63"/>
<polygon fill="midnightblue" stroke="midnightblue" points="801.27,-184.211 810.584,-189.261 806.452,-179.505 801.27,-184.211"/>
</g>
<!-- Node14 -->
<g id="node14" class="node"><title>Node14</title>
<g id="a_node14"><a xlink:href="../../d4/d15/TrackInterpolation_8cxx.html" target="_top" xlink:title="Implementation of the TrackInterpolation class. ">
<polygon fill="none" stroke="black" points="851,-95 851,-147 1042,-147 1042,-95 851,-95"/>
<text text-anchor="start" x="859" y="-135" font-family="Helvetica,sans-Serif" font-size="10.00">/home/travis/build</text>
<text text-anchor="start" x="859" y="-124" font-family="Helvetica,sans-Serif" font-size="10.00">/AliceO2Group/AliceO2</text>
<text text-anchor="start" x="859" y="-113" font-family="Helvetica,sans-Serif" font-size="10.00">/Detectors/TPC/calibration</text>
<text text-anchor="middle" x="946.5" y="-102" font-family="Helvetica,sans-Serif" font-size="10.00">/SpacePoints/src/TrackInterpolation.cxx</text>
</a>
</g>
</g>
<!-- Node11&#45;&gt;Node14 -->
<g id="edge15" class="edge"><title>Node11&#45;&gt;Node14</title>
<path fill="none" stroke="midnightblue" d="M879.913,-182.421C892.962,-170.581 907.048,-157.799 918.89,-147.054"/>
<polygon fill="midnightblue" stroke="midnightblue" points="877.429,-179.949 872.376,-189.261 882.133,-185.133 877.429,-179.949"/>
</g>
<!-- Node13 -->
<g id="node13" class="node"><title>Node13</title>
<g id="a_node13"><a xlink:href="../../d9/df0/TrackResiduals_8cxx.html" target="_top" xlink:title="Implementation of the TrackResiduals class. ">
<polygon fill="none" stroke="black" points="742.5,-0.5 742.5,-52.5 924.5,-52.5 924.5,-0.5 742.5,-0.5"/>
<text text-anchor="start" x="750.5" y="-40.5" font-family="Helvetica,sans-Serif" font-size="10.00">/home/travis/build</text>
<text text-anchor="start" x="750.5" y="-29.5" font-family="Helvetica,sans-Serif" font-size="10.00">/AliceO2Group/AliceO2</text>
<text text-anchor="start" x="750.5" y="-18.5" font-family="Helvetica,sans-Serif" font-size="10.00">/Detectors/TPC/calibration</text>
<text text-anchor="middle" x="833.5" y="-7.5" font-family="Helvetica,sans-Serif" font-size="10.00">/SpacePoints/src/TrackResiduals.cxx</text>
</a>
</g>
</g>
<!-- Node12&#45;&gt;Node13 -->
<g id="edge14" class="edge"><title>Node12&#45;&gt;Node13</title>
<path fill="none" stroke="midnightblue" d="M783.967,-82.0449C792.925,-72.1806 802.356,-61.7958 810.556,-52.7655"/>
<polygon fill="midnightblue" stroke="midnightblue" points="781.369,-79.6997 777.238,-89.4557 786.551,-84.4056 781.369,-79.6997"/>
</g>
<!-- Node15&#45;&gt;Node16 -->
<g id="edge17" class="edge"><title>Node15&#45;&gt;Node16</title>
<path fill="none" stroke="midnightblue" d="M1087.62,-181.756C1098.32,-170.104 1109.81,-157.598 1119.49,-147.054"/>
<polygon fill="midnightblue" stroke="midnightblue" points="1084.92,-179.528 1080.73,-189.261 1090.07,-184.263 1084.92,-179.528"/>
</g>
<!-- Node17 -->
<g id="node17" class="node"><title>Node17</title>
<g id="a_node17"><a xlink:href="../../d9/d7b/ClusterDecoderRawSpec_8cxx.html" target="_top" xlink:title="Processor spec for decoder of TPC raw cluster data. ">
<polygon fill="none" stroke="black" points="1243.5,-95 1243.5,-147 1409.5,-147 1409.5,-95 1243.5,-95"/>
<text text-anchor="start" x="1251.5" y="-135" font-family="Helvetica,sans-Serif" font-size="10.00">/home/travis/build</text>
<text text-anchor="start" x="1251.5" y="-124" font-family="Helvetica,sans-Serif" font-size="10.00">/AliceO2Group/AliceO2</text>
<text text-anchor="start" x="1251.5" y="-113" font-family="Helvetica,sans-Serif" font-size="10.00">/Detectors/TPC/workflow</text>
<text text-anchor="middle" x="1326.5" y="-102" font-family="Helvetica,sans-Serif" font-size="10.00">/src/ClusterDecoderRawSpec.cxx</text>
</a>
</g>
</g>
<!-- Node15&#45;&gt;Node17 -->
<g id="edge18" class="edge"><title>Node15&#45;&gt;Node17</title>
<path fill="none" stroke="midnightblue" d="M1137.07,-188.808C1181.24,-172.9 1221.46,-158.704 1254.69,-147.048"/>
<polygon fill="midnightblue" stroke="midnightblue" points="1135.81,-185.544 1127.59,-192.228 1138.18,-192.129 1135.81,-185.544"/>
</g>
</g>
</svg>
        <g id="navigator" transform="translate(0 0)" fill="#404254">
                <rect fill="#f2f5e9" fill-opacity="0.5" stroke="#606060" stroke-width=".5" x="0" y="0" width="60" height="60"/>
                <use id="zoomplus" xlink:href="#zoomPlus" x="17" y="9" onmousedown="handleZoom(evt,'in')"/>
                <use id="zoomminus" xlink:href="#zoomMin" x="42" y="9" onmousedown="handleZoom(evt,'out')"/>
                <use id="reset" xlink:href="#resetDef" x="30" y="36" onmousedown="handleReset()"/>
                <g id="arrowUp" xlink:href="#dirArrow" transform="translate(30 24)" onmousedown="handlePan(0,-1)">
                  <use xlink:href="#rim" fill="#404040">
                        <set attributeName="fill" to="#808080" begin="arrowUp.mouseover" end="arrowUp.mouseout"/>
                  </use>
                  <path fill="none" stroke="white" stroke-width="1.5" d="M0,-3.0v7 M-2.5,-0.5L0,-3.0L2.5,-0.5"/>
                </g>
                <g id="arrowRight" xlink:href="#dirArrow" transform="rotate(90) translate(36 -43)" onmousedown="handlePan(1,0)">
                  <use xlink:href="#rim" fill="#404040">
                        <set attributeName="fill" to="#808080" begin="arrowRight.mouseover" end="arrowRight.mouseout"/>
                  </use>
                  <path fill="none" stroke="white" stroke-width="1.5" d="M0,-3.0v7 M-2.5,-0.5L0,-3.0L2.5,-0.5"/>
                </g>
                <g id="arrowDown" xlink:href="#dirArrow" transform="rotate(180) translate(-30 -48)" onmousedown="handlePan(0,1)">
                  <use xlink:href="#rim" fill="#404040">
                        <set attributeName="fill" to="#808080" begin="arrowDown.mouseover" end="arrowDown.mouseout"/>
                  </use>
                  <path fill="none" stroke="white" stroke-width="1.5" d="M0,-3.0v7 M-2.5,-0.5L0,-3.0L2.5,-0.5"/>
                </g>
                <g id="arrowLeft" xlink:href="#dirArrow" transform="rotate(270) translate(-36 17)" onmousedown="handlePan(-1,0)">
                  <use xlink:href="#rim" fill="#404040">
                        <set attributeName="fill" to="#808080" begin="arrowLeft.mouseover" end="arrowLeft.mouseout"/>
                  </use>
                  <path fill="none" stroke="white" stroke-width="1.5" d="M0,-3.0v7 M-2.5,-0.5L0,-3.0L2.5,-0.5"/>
                </g>
        </g>
        <svg viewBox="0 0 15 15" width="100%" height="30px" preserveAspectRatio="xMaxYMin meet">
         <g id="arrow_out" transform="scale(0.3 0.3)">
          <a xlink:href="ClusterNativeHelper_8h__dep__incl_org.svg" target="_base">
           <rect id="button" ry="5" rx="5" y="6" x="6" height="38" width="38"
                fill="#f2f5e9" fill-opacity="0.5" stroke="#606060" stroke-width="1.0"/>
           <path id="arrow"
             d="M 11.500037,31.436501 C 11.940474,20.09759 22.043105,11.32322 32.158766,21.979434 L 37.068811,17.246167 C 37.068811,17.246167 37.088388,32 37.088388,32 L 22.160133,31.978069 C 22.160133,31.978069 26.997745,27.140456 26.997745,27.140456 C 18.528582,18.264221 13.291696,25.230495 11.500037,31.436501 z"
             style="fill:#404040;"/>
          </a>
         </g>
        </svg>
</svg>
