<?xml version="1.0" encoding="UTF-8" standalone="no"?>
<!DOCTYPE svg PUBLIC "-//W3C//DTD SVG 1.1//EN"
 "http://www.w3.org/Graphics/SVG/1.1/DTD/svg11.dtd">
<!-- Generated by graphviz version 2.38.0 (20140413.2041)
 -->
<!-- Title: o2::event_visualisation::DataReaderTPC Pages: 1 -->
<svg width="124pt" height="248pt"
 viewBox="0.00 0.00 124.00 248.00" xmlns="http://www.w3.org/2000/svg" xmlns:xlink="http://www.w3.org/1999/xlink">
<g id="graph0" class="graph" transform="scale(1 1) rotate(0) translate(4 244)">
<title>o2::event_visualisation::DataReaderTPC</title>
<!-- Node1 -->
<g id="node1" class="node"><title>Node1</title>
<polygon fill="#bfbfbf" stroke="black" points="-7.10543e-15,-0.5 -7.10543e-15,-101.5 116,-101.5 116,-0.5 -7.10543e-15,-0.5"/>
<text text-anchor="start" x="8" y="-89.5" font-family="Helvetica,sans-Serif" font-size="10.00">o2::event_visualisation</text>
<text text-anchor="middle" x="58" y="-78.5" font-family="Helvetica,sans-Serif" font-size="10.00">::DataReaderTPC</text>
<polyline fill="none" stroke="black" points="-7.10543e-15,-71.5 116,-71.5 "/>
<text text-anchor="middle" x="58" y="-59.5" font-family="Helvetica,sans-Serif" font-size="10.00"> </text>
<polyline fill="none" stroke="black" points="-7.10543e-15,-52.5 116,-52.5 "/>
<text text-anchor="start" x="8" y="-40.5" font-family="Helvetica,sans-Serif" font-size="10.00">+ DataReaderTPC()</text>
<text text-anchor="start" x="8" y="-29.5" font-family="Helvetica,sans-Serif" font-size="10.00">+ open()</text>
<text text-anchor="start" x="8" y="-18.5" font-family="Helvetica,sans-Serif" font-size="10.00">+ GetEventCount()</text>
<text text-anchor="start" x="8" y="-7.5" font-family="Helvetica,sans-Serif" font-size="10.00">+ getEventData()</text>
</g>
<!-- Node2 -->
<g id="node2" class="node"><title>Node2</title>
<g id="a_node2"><a xlink:href="../../d9/ded/classo2_1_1event__visualisation_1_1DataReader.html" target="_top" xlink:title="{o2::event_visualisation\l::DataReader\n||+ GetEventCount()\l+ ~DataReader()\l+ open()\l+ getEventData()\l}">
<polygon fill="none" stroke="black" points="-7.10543e-15,-138.5 -7.10543e-15,-239.5 116,-239.5 116,-138.5 -7.10543e-15,-138.5"/>
<text text-anchor="start" x="8" y="-227.5" font-family="Helvetica,sans-Serif" font-size="10.00">o2::event_visualisation</text>
<text text-anchor="middle" x="58" y="-216.5" font-family="Helvetica,sans-Serif" font-size="10.00">::DataReader</text>
<polyline fill="none" stroke="black" points="-7.10543e-15,-209.5 116,-209.5 "/>
<text text-anchor="middle" x="58" y="-197.5" font-family="Helvetica,sans-Serif" font-size="10.00"> </text>
<polyline fill="none" stroke="black" points="-7.10543e-15,-190.5 116,-190.5 "/>
<text text-anchor="start" x="8" y="-178.5" font-family="Helvetica,sans-Serif" font-size="10.00">+ GetEventCount()</text>
<text text-anchor="start" x="8" y="-167.5" font-family="Helvetica,sans-Serif" font-size="10.00">+ ~DataReader()</text>
<text text-anchor="start" x="8" y="-156.5" font-family="Helvetica,sans-Serif" font-size="10.00">+ open()</text>
<text text-anchor="start" x="8" y="-145.5" font-family="Helvetica,sans-Serif" font-size="10.00">+ getEventData()</text>
</a>
</g>
</g>
<!-- Node2&#45;&gt;Node1 -->
<g id="edge1" class="edge"><title>Node2&#45;&gt;Node1</title>
<path fill="none" stroke="midnightblue" d="M58,-128C58,-119.271 58,-110.363 58,-101.863"/>
<polygon fill="none" stroke="midnightblue" points="54.5001,-128.131 58,-138.131 61.5001,-128.131 54.5001,-128.131"/>
</g>
</g>
</svg>
