<?xml version="1.0" encoding="UTF-8" standalone="no"?>
<!DOCTYPE svg PUBLIC "-//W3C//DTD SVG 1.1//EN"
 "http://www.w3.org/Graphics/SVG/1.1/DTD/svg11.dtd">
<!-- Generated by graphviz version 2.38.0 (20140413.2041)
 -->
<!-- Title: /home/travis/build/AliceO2Group/AliceO2/Detectors/ITSMFT/ITS/base/include/ITSBase/MisalignmentParameter.h Pages: 1 -->
<svg width="268pt" height="128pt"
 viewBox="0.00 0.00 267.50 128.00" xmlns="http://www.w3.org/2000/svg" xmlns:xlink="http://www.w3.org/1999/xlink">
<g id="graph0" class="graph" transform="scale(1 1) rotate(0) translate(4 124)">
<title>/home/travis/build/AliceO2Group/AliceO2/Detectors/ITSMFT/ITS/base/include/ITSBase/MisalignmentParameter.h</title>
<!-- Node1 -->
<g id="node1" class="node"><title>Node1</title>
<polygon fill="#bfbfbf" stroke="black" points="63.5,-56.5 63.5,-119.5 239.5,-119.5 239.5,-56.5 63.5,-56.5"/>
<text text-anchor="start" x="71.5" y="-107.5" font-family="Helvetica,sans-Serif" font-size="10.00">/home/travis/build</text>
<text text-anchor="start" x="71.5" y="-96.5" font-family="Helvetica,sans-Serif" font-size="10.00">/AliceO2Group/AliceO2</text>
<text text-anchor="start" x="71.5" y="-85.5" font-family="Helvetica,sans-Serif" font-size="10.00">/Detectors/ITSMFT/ITS</text>
<text text-anchor="start" x="71.5" y="-74.5" font-family="Helvetica,sans-Serif" font-size="10.00">/base/include/ITSBase/Misalignment</text>
<text text-anchor="middle" x="151.5" y="-63.5" font-family="Helvetica,sans-Serif" font-size="10.00">Parameter.h</text>
</g>
<!-- Node2 -->
<g id="node2" class="node"><title>Node2</title>
<polygon fill="none" stroke="#bfbfbf" points="0,-0.5 0,-19.5 105,-19.5 105,-0.5 0,-0.5"/>
<text text-anchor="middle" x="52.5" y="-7.5" font-family="Helvetica,sans-Serif" font-size="10.00">FairParGenericSet.h</text>
</g>
<!-- Node1&#45;&gt;Node2 -->
<g id="edge1" class="edge"><title>Node1&#45;&gt;Node2</title>
<path fill="none" stroke="midnightblue" d="M111.518,-56.307C97.968,-45.9047 83.4289,-34.7434 72.1718,-26.1016"/>
<polygon fill="midnightblue" stroke="midnightblue" points="73.9926,-23.0869 63.9291,-19.7738 69.73,-28.6395 73.9926,-23.0869"/>
</g>
<!-- Node3 -->
<g id="node3" class="node"><title>Node3</title>
<polygon fill="none" stroke="#bfbfbf" points="123.5,-0.5 123.5,-19.5 179.5,-19.5 179.5,-0.5 123.5,-0.5"/>
<text text-anchor="middle" x="151.5" y="-7.5" font-family="Helvetica,sans-Serif" font-size="10.00">Rtypes.h</text>
</g>
<!-- Node1&#45;&gt;Node3 -->
<g id="edge2" class="edge"><title>Node1&#45;&gt;Node3</title>
<path fill="none" stroke="midnightblue" d="M151.5,-56.0879C151.5,-47.1496 151.5,-37.6688 151.5,-29.7195"/>
<polygon fill="midnightblue" stroke="midnightblue" points="155,-29.7181 151.5,-19.7182 148,-29.7182 155,-29.7181"/>
</g>
<!-- Node4 -->
<g id="node4" class="node"><title>Node4</title>
<polygon fill="none" stroke="#bfbfbf" points="197.5,-0.5 197.5,-19.5 259.5,-19.5 259.5,-0.5 197.5,-0.5"/>
<text text-anchor="middle" x="228.5" y="-7.5" font-family="Helvetica,sans-Serif" font-size="10.00">TArrayD.h</text>
</g>
<!-- Node1&#45;&gt;Node4 -->
<g id="edge3" class="edge"><title>Node1&#45;&gt;Node4</title>
<path fill="none" stroke="midnightblue" d="M182.819,-56.0879C193.02,-46.0194 203.918,-35.2627 212.51,-26.7819"/>
<polygon fill="midnightblue" stroke="midnightblue" points="215.009,-29.2339 219.667,-19.7182 210.091,-24.2519 215.009,-29.2339"/>
</g>
</g>
</svg>
