<?xml version="1.0" encoding="UTF-8" standalone="no"?>
<!DOCTYPE svg PUBLIC "-//W3C//DTD SVG 1.1//EN"
 "http://www.w3.org/Graphics/SVG/1.1/DTD/svg11.dtd">
<!-- Generated by graphviz version 2.38.0 (20140413.2041)
 -->
<!-- Title: o2::itsmft::GroupStruct Pages: 1 -->
<svg width="506pt" height="419pt"
 viewBox="0.00 0.00 505.50 419.00" xmlns="http://www.w3.org/2000/svg" xmlns:xlink="http://www.w3.org/1999/xlink">
<g id="graph0" class="graph" transform="scale(1 1) rotate(0) translate(4 415)">
<title>o2::itsmft::GroupStruct</title>
<!-- Node1 -->
<g id="node1" class="node"><title>Node1</title>
<polygon fill="#bfbfbf" stroke="black" points="151.5,-0.5 151.5,-57.5 267.5,-57.5 267.5,-0.5 151.5,-0.5"/>
<text text-anchor="middle" x="209.5" y="-45.5" font-family="Helvetica,sans-Serif" font-size="10.00">o2::itsmft::GroupStruct</text>
<polyline fill="none" stroke="black" points="151.5,-38.5 267.5,-38.5 "/>
<text text-anchor="middle" x="209.5" y="-26.5" font-family="Helvetica,sans-Serif" font-size="10.00"> </text>
<polyline fill="none" stroke="black" points="151.5,-19.5 267.5,-19.5 "/>
<text text-anchor="start" x="159.5" y="-7.5" font-family="Helvetica,sans-Serif" font-size="10.00">+ ClassDefNV()</text>
</g>
<!-- Node2 -->
<g id="node2" class="node"><title>Node2</title>
<polygon fill="none" stroke="#bfbfbf" points="0,-182.5 0,-239.5 45,-239.5 45,-182.5 0,-182.5"/>
<text text-anchor="middle" x="22.5" y="-227.5" font-family="Helvetica,sans-Serif" font-size="10.00">double</text>
<polyline fill="none" stroke="#bfbfbf" points="0,-220.5 45,-220.5 "/>
<text text-anchor="middle" x="22.5" y="-208.5" font-family="Helvetica,sans-Serif" font-size="10.00"> </text>
<polyline fill="none" stroke="#bfbfbf" points="0,-201.5 45,-201.5 "/>
<text text-anchor="middle" x="22.5" y="-189.5" font-family="Helvetica,sans-Serif" font-size="10.00"> </text>
</g>
<!-- Node2&#45;&gt;Node1 -->
<g id="edge1" class="edge"><title>Node2&#45;&gt;Node1</title>
<path fill="none" stroke="#404040" d="M15.2358,-182.242C9.24884,-152.52 5.21383,-105.643 29.5,-76 43.637,-58.7449 95.0449,-46.707 139.321,-39.2859"/>
<polygon fill="none" stroke="#404040" points="139.438,-39.2672 144.726,-34.3647 151.286,-37.3607 145.997,-42.2631 139.438,-39.2672"/>
<text text-anchor="middle" x="61.5" y="-95.5" font-family="Helvetica,sans-Serif" font-size="10.00"> +mFrequency</text>
</g>
<!-- Node3 -->
<g id="node3" class="node"><title>Node3</title>
<g id="a_node3"><a xlink:href="../../d4/dc3/classfloat.html" target="_top" xlink:title="{float\n||}">
<polygon fill="none" stroke="black" points="92,-182.5 92,-239.5 127,-239.5 127,-182.5 92,-182.5"/>
<text text-anchor="middle" x="109.5" y="-227.5" font-family="Helvetica,sans-Serif" font-size="10.00">float</text>
<polyline fill="none" stroke="black" points="92,-220.5 127,-220.5 "/>
<text text-anchor="middle" x="109.5" y="-208.5" font-family="Helvetica,sans-Serif" font-size="10.00"> </text>
<polyline fill="none" stroke="black" points="92,-201.5 127,-201.5 "/>
<text text-anchor="middle" x="109.5" y="-189.5" font-family="Helvetica,sans-Serif" font-size="10.00"> </text>
</a>
</g>
</g>
<!-- Node3&#45;&gt;Node1 -->
<g id="edge2" class="edge"><title>Node3&#45;&gt;Node1</title>
<path fill="none" stroke="#404040" d="M101.677,-182.422C95.1884,-153.497 89.984,-107.892 110.5,-76 117.722,-64.7729 128.465,-56.2416 140.244,-49.7724"/>
<polygon fill="none" stroke="#404040" points="140.495,-49.6503 144.136,-43.426 151.282,-44.393 147.641,-50.6174 140.495,-49.6503"/>
<text text-anchor="middle" x="132.5" y="-112" font-family="Helvetica,sans-Serif" font-size="10.00"> +mErrX</text>
<text text-anchor="middle" x="132.5" y="-101" font-family="Helvetica,sans-Serif" font-size="10.00">+mZCOG</text>
<text text-anchor="middle" x="132.5" y="-90" font-family="Helvetica,sans-Serif" font-size="10.00">+mErrZ</text>
<text text-anchor="middle" x="132.5" y="-79" font-family="Helvetica,sans-Serif" font-size="10.00">+mXCOG</text>
</g>
<!-- Node4 -->
<g id="node4" class="node"><title>Node4</title>
<polygon fill="none" stroke="#bfbfbf" points="171,-353.5 171,-410.5 200,-410.5 200,-353.5 171,-353.5"/>
<text text-anchor="middle" x="185.5" y="-398.5" font-family="Helvetica,sans-Serif" font-size="10.00">int</text>
<polyline fill="none" stroke="#bfbfbf" points="171,-391.5 200,-391.5 "/>
<text text-anchor="middle" x="185.5" y="-379.5" font-family="Helvetica,sans-Serif" font-size="10.00"> </text>
<polyline fill="none" stroke="#bfbfbf" points="171,-372.5 200,-372.5 "/>
<text text-anchor="middle" x="185.5" y="-360.5" font-family="Helvetica,sans-Serif" font-size="10.00"> </text>
</g>
<!-- Node4&#45;&gt;Node1 -->
<g id="edge3" class="edge"><title>Node4&#45;&gt;Node1</title>
<path fill="none" stroke="#404040" d="M181.457,-353.493C175.511,-308.269 166.262,-215.489 177.5,-138 180.863,-114.812 188.087,-89.6728 194.822,-69.4874"/>
<polygon fill="none" stroke="#404040" points="194.897,-69.2707 193.069,-62.295 198.805,-57.925 200.633,-64.9007 194.897,-69.2707"/>
<text text-anchor="middle" x="203" y="-208.5" font-family="Helvetica,sans-Serif" font-size="10.00"> +mNpixels</text>
</g>
<!-- Node6 -->
<g id="node6" class="node"><title>Node6</title>
<g id="a_node6"><a xlink:href="../../d3/d02/classo2_1_1itsmft_1_1ClusterPattern.html" target="_top" xlink:title="{o2::itsmft::ClusterPattern\n||+ ClusterPattern()\l+ ClusterPattern()\l+ getPattern()\l+ getByte()\l+ getRowSpan()\l+ getColumnSpan()\l+ getUsedBytes()\l+ setPattern()\l+ setPattern()\l}">
<polygon fill="none" stroke="black" points="238,-138.5 238,-283.5 365,-283.5 365,-138.5 238,-138.5"/>
<text text-anchor="middle" x="301.5" y="-271.5" font-family="Helvetica,sans-Serif" font-size="10.00">o2::itsmft::ClusterPattern</text>
<polyline fill="none" stroke="black" points="238,-264.5 365,-264.5 "/>
<text text-anchor="middle" x="301.5" y="-252.5" font-family="Helvetica,sans-Serif" font-size="10.00"> </text>
<polyline fill="none" stroke="black" points="238,-245.5 365,-245.5 "/>
<text text-anchor="start" x="246" y="-233.5" font-family="Helvetica,sans-Serif" font-size="10.00">+ ClusterPattern()</text>
<text text-anchor="start" x="246" y="-222.5" font-family="Helvetica,sans-Serif" font-size="10.00">+ ClusterPattern()</text>
<text text-anchor="start" x="246" y="-211.5" font-family="Helvetica,sans-Serif" font-size="10.00">+ getPattern()</text>
<text text-anchor="start" x="246" y="-200.5" font-family="Helvetica,sans-Serif" font-size="10.00">+ getByte()</text>
<text text-anchor="start" x="246" y="-189.5" font-family="Helvetica,sans-Serif" font-size="10.00">+ getRowSpan()</text>
<text text-anchor="start" x="246" y="-178.5" font-family="Helvetica,sans-Serif" font-size="10.00">+ getColumnSpan()</text>
<text text-anchor="start" x="246" y="-167.5" font-family="Helvetica,sans-Serif" font-size="10.00">+ getUsedBytes()</text>
<text text-anchor="start" x="246" y="-156.5" font-family="Helvetica,sans-Serif" font-size="10.00">+ setPattern()</text>
<text text-anchor="start" x="246" y="-145.5" font-family="Helvetica,sans-Serif" font-size="10.00">+ setPattern()</text>
</a>
</g>
</g>
<!-- Node4&#45;&gt;Node6 -->
<g id="edge6" class="edge"><title>Node4&#45;&gt;Node6</title>
<path fill="none" stroke="#404040" d="M188.601,-353.199C191.301,-337.349 196.301,-317.599 205.5,-302 206.083,-301.011 215.767,-291.768 228.778,-279.553"/>
<polygon fill="none" stroke="#404040" points="228.988,-279.356 230.633,-272.335 237.746,-271.153 236.101,-278.174 228.988,-279.356"/>
<text text-anchor="middle" x="262" y="-316" font-family="Helvetica,sans-Serif" font-size="10.00"> +kExtendedPatternBytes</text>
</g>
<!-- Node5 -->
<g id="node5" class="node"><title>Node5</title>
<polygon fill="none" stroke="#bfbfbf" points="383,-182.5 383,-239.5 418,-239.5 418,-182.5 383,-182.5"/>
<text text-anchor="middle" x="400.5" y="-227.5" font-family="Helvetica,sans-Serif" font-size="10.00">bool</text>
<polyline fill="none" stroke="#bfbfbf" points="383,-220.5 418,-220.5 "/>
<text text-anchor="middle" x="400.5" y="-208.5" font-family="Helvetica,sans-Serif" font-size="10.00"> </text>
<polyline fill="none" stroke="#bfbfbf" points="383,-201.5 418,-201.5 "/>
<text text-anchor="middle" x="400.5" y="-189.5" font-family="Helvetica,sans-Serif" font-size="10.00"> </text>
</g>
<!-- Node5&#45;&gt;Node1 -->
<g id="edge4" class="edge"><title>Node5&#45;&gt;Node1</title>
<path fill="none" stroke="#404040" d="M393.323,-182.294C388.924,-168.299 382.405,-151.477 373.5,-138 351.491,-104.691 341.487,-98.4888 308.5,-76 299.144,-69.6216 288.763,-63.715 278.345,-58.4072"/>
<polygon fill="none" stroke="#404040" points="278.29,-58.3807 271.142,-59.331 267.516,-53.0981 274.664,-52.1478 278.29,-58.3807"/>
<text text-anchor="middle" x="386.5" y="-95.5" font-family="Helvetica,sans-Serif" font-size="10.00"> +mIsGroup</text>
</g>
<!-- Node6&#45;&gt;Node1 -->
<g id="edge5" class="edge"><title>Node6&#45;&gt;Node1</title>
<path fill="none" stroke="#404040" d="M264.875,-138.342C252.698,-114.518 239.607,-88.9042 229.211,-68.5653"/>
<polygon fill="none" stroke="#404040" points="229.198,-68.5388 222.905,-65.0167 223.736,-57.8536 230.029,-61.3757 229.198,-68.5388"/>
<text text-anchor="middle" x="280" y="-95.5" font-family="Helvetica,sans-Serif" font-size="10.00"> +mPattern</text>
</g>
<!-- Node7 -->
<g id="node7" class="node"><title>Node7</title>
<polygon fill="none" stroke="#bfbfbf" points="317,-353.5 317,-410.5 358,-410.5 358,-353.5 317,-353.5"/>
<text text-anchor="middle" x="337.5" y="-398.5" font-family="Helvetica,sans-Serif" font-size="10.00">friend</text>
<polyline fill="none" stroke="#bfbfbf" points="317,-391.5 358,-391.5 "/>
<text text-anchor="middle" x="337.5" y="-379.5" font-family="Helvetica,sans-Serif" font-size="10.00"> </text>
<polyline fill="none" stroke="#bfbfbf" points="317,-372.5 358,-372.5 "/>
<text text-anchor="middle" x="337.5" y="-360.5" font-family="Helvetica,sans-Serif" font-size="10.00"> </text>
</g>
<!-- Node7&#45;&gt;Node6 -->
<g id="edge7" class="edge"><title>Node7&#45;&gt;Node6</title>
<path fill="none" stroke="#404040" d="M331.636,-353.471C328.239,-337.525 323.763,-316.512 319.303,-295.576"/>
<polygon fill="none" stroke="#404040" points="319.261,-295.378 314.099,-290.343 316.761,-283.642 321.923,-288.676 319.261,-295.378"/>
<text text-anchor="middle" x="383.5" y="-327" font-family="Helvetica,sans-Serif" font-size="10.00"> +TopologyDictionary</text>
<text text-anchor="middle" x="383.5" y="-316" font-family="Helvetica,sans-Serif" font-size="10.00">+ClusterTopology</text>
<text text-anchor="middle" x="383.5" y="-305" font-family="Helvetica,sans-Serif" font-size="10.00">+BuildTopologyDictionary</text>
</g>
<!-- Node8 -->
<g id="node8" class="node"><title>Node8</title>
<polygon fill="none" stroke="#bfbfbf" points="441.5,-182.5 441.5,-239.5 497.5,-239.5 497.5,-182.5 441.5,-182.5"/>
<text text-anchor="middle" x="469.5" y="-227.5" font-family="Helvetica,sans-Serif" font-size="10.00">unsigned</text>
<polyline fill="none" stroke="#bfbfbf" points="441.5,-220.5 497.5,-220.5 "/>
<text text-anchor="middle" x="469.5" y="-208.5" font-family="Helvetica,sans-Serif" font-size="10.00"> </text>
<polyline fill="none" stroke="#bfbfbf" points="441.5,-201.5 497.5,-201.5 "/>
<text text-anchor="middle" x="469.5" y="-189.5" font-family="Helvetica,sans-Serif" font-size="10.00"> </text>
</g>
<!-- Node8&#45;&gt;Node1 -->
<g id="edge8" class="edge"><title>Node8&#45;&gt;Node1</title>
<path fill="none" stroke="#404040" d="M466.214,-182.231C461.075,-151.589 448.186,-103.038 416.5,-76 396.019,-58.523 331.362,-46.0001 279.699,-38.4758"/>
<polygon fill="none" stroke="#404040" points="279.436,-38.4388 272.936,-41.5615 267.553,-36.7626 274.053,-33.6399 279.436,-38.4388"/>
<text text-anchor="middle" x="469" y="-95.5" font-family="Helvetica,sans-Serif" font-size="10.00"> +mHash</text>
</g>
</g>
</svg>
