<?xml version="1.0" encoding="UTF-8" standalone="no"?>
<!DOCTYPE svg PUBLIC "-//W3C//DTD SVG 1.1//EN"
 "http://www.w3.org/Graphics/SVG/1.1/DTD/svg11.dtd">
<!-- Generated by graphviz version 2.38.0 (20140413.2041)
 -->
<!-- Title: sg_buffer_layout_desc Pages: 1 -->
<svg width="144pt" height="182pt"
 viewBox="0.00 0.00 144.00 182.00" xmlns="http://www.w3.org/2000/svg" xmlns:xlink="http://www.w3.org/1999/xlink">
<g id="graph0" class="graph" transform="scale(1 1) rotate(0) translate(4 178)">
<title>sg_buffer_layout_desc</title>
<!-- Node1 -->
<g id="node1" class="node"><title>Node1</title>
<polygon fill="#bfbfbf" stroke="black" points="-7.10543e-15,-0.5 -7.10543e-15,-57.5 115,-57.5 115,-0.5 -7.10543e-15,-0.5"/>
<text text-anchor="middle" x="57.5" y="-45.5" font-family="Helvetica,sans-Serif" font-size="10.00">sg_buffer_layout_desc</text>
<polyline fill="none" stroke="black" points="-7.10543e-15,-38.5 115,-38.5 "/>
<text text-anchor="middle" x="57.5" y="-26.5" font-family="Helvetica,sans-Serif" font-size="10.00"> </text>
<polyline fill="none" stroke="black" points="-7.10543e-15,-19.5 115,-19.5 "/>
<text text-anchor="middle" x="57.5" y="-7.5" font-family="Helvetica,sans-Serif" font-size="10.00"> </text>
</g>
<!-- Node2 -->
<g id="node2" class="node"><title>Node2</title>
<polygon fill="none" stroke="#bfbfbf" points="6,-116.5 6,-173.5 35,-173.5 35,-116.5 6,-116.5"/>
<text text-anchor="middle" x="20.5" y="-161.5" font-family="Helvetica,sans-Serif" font-size="10.00">int</text>
<polyline fill="none" stroke="#bfbfbf" points="6,-154.5 35,-154.5 "/>
<text text-anchor="middle" x="20.5" y="-142.5" font-family="Helvetica,sans-Serif" font-size="10.00"> </text>
<polyline fill="none" stroke="#bfbfbf" points="6,-135.5 35,-135.5 "/>
<text text-anchor="middle" x="20.5" y="-123.5" font-family="Helvetica,sans-Serif" font-size="10.00"> </text>
</g>
<!-- Node2&#45;&gt;Node1 -->
<g id="edge1" class="edge"><title>Node2&#45;&gt;Node1</title>
<path fill="none" stroke="#404040" d="M19.2475,-116.185C19.5075,-103.595 20.9921,-88.7195 25.5,-76 26.411,-73.4297 27.5061,-70.8707 28.7341,-68.3514"/>
<polygon fill="none" stroke="#404040" points="28.886,-68.0838 28.3697,-60.8912 34.8104,-57.6482 35.3268,-64.8408 28.886,-68.0838"/>
<text text-anchor="middle" x="49" y="-90" font-family="Helvetica,sans-Serif" font-size="10.00"> +stride</text>
<text text-anchor="middle" x="49" y="-79" font-family="Helvetica,sans-Serif" font-size="10.00">+step_rate</text>
</g>
<!-- Node3 -->
<g id="node3" class="node"><title>Node3</title>
<polygon fill="none" stroke="#bfbfbf" points="53,-116.5 53,-173.5 136,-173.5 136,-116.5 53,-116.5"/>
<text text-anchor="middle" x="94.5" y="-161.5" font-family="Helvetica,sans-Serif" font-size="10.00">sg_vertex_step</text>
<polyline fill="none" stroke="#bfbfbf" points="53,-154.5 136,-154.5 "/>
<text text-anchor="middle" x="94.5" y="-142.5" font-family="Helvetica,sans-Serif" font-size="10.00"> </text>
<polyline fill="none" stroke="#bfbfbf" points="53,-135.5 136,-135.5 "/>
<text text-anchor="middle" x="94.5" y="-123.5" font-family="Helvetica,sans-Serif" font-size="10.00"> </text>
</g>
<!-- Node3&#45;&gt;Node1 -->
<g id="edge2" class="edge"><title>Node3&#45;&gt;Node1</title>
<path fill="none" stroke="#404040" d="M85.5233,-116.204C81.5406,-103.885 76.7931,-89.2173 72.5,-76 71.7799,-73.783 71.0397,-71.5062 70.2921,-69.2085"/>
<polygon fill="none" stroke="#404040" points="70.269,-69.1371 64.6075,-64.6707 66.5529,-57.7269 72.2143,-62.1933 70.269,-69.1371"/>
<text text-anchor="middle" x="104.5" y="-84.5" font-family="Helvetica,sans-Serif" font-size="10.00"> +step_func</text>
</g>
</g>
</svg>
