<?xml version="1.0" encoding="UTF-8" standalone="no"?>
<!DOCTYPE svg PUBLIC "-//W3C//DTD SVG 1.1//EN"
 "http://www.w3.org/Graphics/SVG/1.1/DTD/svg11.dtd">
<!-- Generated by graphviz version 2.38.0 (20140413.2041)
 -->
<!-- Title: /home/travis/build/AliceO2Group/AliceO2/Detectors/ITSMFT/common/simulation/test/testAlpideSimResponse.cxx Pages: 1 -->
<svg width="453pt" height="184pt"
 viewBox="0.00 0.00 453.00 184.00" xmlns="http://www.w3.org/2000/svg" xmlns:xlink="http://www.w3.org/1999/xlink">
<g id="graph0" class="graph" transform="scale(1 1) rotate(0) translate(4 180)">
<title>/home/travis/build/AliceO2Group/AliceO2/Detectors/ITSMFT/common/simulation/test/testAlpideSimResponse.cxx</title>
<!-- Node1 -->
<g id="node1" class="node"><title>Node1</title>
<polygon fill="#bfbfbf" stroke="black" points="118.5,-123.5 118.5,-175.5 328.5,-175.5 328.5,-123.5 118.5,-123.5"/>
<text text-anchor="start" x="126.5" y="-163.5" font-family="Helvetica,sans-Serif" font-size="10.00">/home/travis/build</text>
<text text-anchor="start" x="126.5" y="-152.5" font-family="Helvetica,sans-Serif" font-size="10.00">/AliceO2Group/AliceO2</text>
<text text-anchor="start" x="126.5" y="-141.5" font-family="Helvetica,sans-Serif" font-size="10.00">/Detectors/ITSMFT/common</text>
<text text-anchor="middle" x="223.5" y="-130.5" font-family="Helvetica,sans-Serif" font-size="10.00">/simulation/test/testAlpideSimResponse.cxx</text>
</g>
<!-- Node2 -->
<g id="node2" class="node"><title>Node2</title>
<polygon fill="none" stroke="#bfbfbf" points="0,-62 0,-81 119,-81 119,-62 0,-62"/>
<text text-anchor="middle" x="59.5" y="-69" font-family="Helvetica,sans-Serif" font-size="10.00">boost/test/unit_test.hpp</text>
</g>
<!-- Node1&#45;&gt;Node2 -->
<g id="edge1" class="edge"><title>Node1&#45;&gt;Node2</title>
<path fill="none" stroke="midnightblue" d="M169.346,-123.404C141.875,-110.674 109.674,-95.7514 87.2672,-85.3677"/>
<polygon fill="midnightblue" stroke="midnightblue" points="88.555,-82.107 78.0102,-81.0779 85.6117,-88.4582 88.555,-82.107"/>
</g>
<!-- Node3 -->
<g id="node3" class="node"><title>Node3</title>
<polygon fill="none" stroke="#bfbfbf" points="137.5,-62 137.5,-81 191.5,-81 191.5,-62 137.5,-62"/>
<text text-anchor="middle" x="164.5" y="-69" font-family="Helvetica,sans-Serif" font-size="10.00">iostream</text>
</g>
<!-- Node1&#45;&gt;Node3 -->
<g id="edge2" class="edge"><title>Node1&#45;&gt;Node3</title>
<path fill="none" stroke="midnightblue" d="M203.854,-123.193C195.23,-112.085 185.338,-99.3418 177.628,-89.4109"/>
<polygon fill="midnightblue" stroke="midnightblue" points="180.158,-86.9618 171.261,-81.2089 174.628,-91.2543 180.158,-86.9618"/>
</g>
<!-- Node4 -->
<g id="node4" class="node"><title>Node4</title>
<g id="a_node4"><a xlink:href="../../dc/d1a/AlpideSimResponse_8h.html" target="_top" xlink:title="Definition of the ITSMFT Alpide simulated response parametrization. ">
<polygon fill="none" stroke="black" points="209.5,-56.5 209.5,-86.5 355.5,-86.5 355.5,-56.5 209.5,-56.5"/>
<text text-anchor="start" x="217.5" y="-74.5" font-family="Helvetica,sans-Serif" font-size="10.00">ITSMFTSimulation/AlpideSim</text>
<text text-anchor="middle" x="282.5" y="-63.5" font-family="Helvetica,sans-Serif" font-size="10.00">Response.h</text>
</a>
</g>
</g>
<!-- Node1&#45;&gt;Node4 -->
<g id="edge3" class="edge"><title>Node1&#45;&gt;Node4</title>
<path fill="none" stroke="midnightblue" d="M243.146,-123.193C250.259,-114.031 258.235,-103.756 265.138,-94.8647"/>
<polygon fill="midnightblue" stroke="midnightblue" points="267.996,-96.8907 271.364,-86.8453 262.467,-92.5981 267.996,-96.8907"/>
</g>
<!-- Node9 -->
<g id="node9" class="node"><title>Node9</title>
<polygon fill="none" stroke="#bfbfbf" points="374,-62 374,-81 445,-81 445,-62 374,-62"/>
<text text-anchor="middle" x="409.5" y="-69" font-family="Helvetica,sans-Serif" font-size="10.00">FairLogger.h</text>
</g>
<!-- Node1&#45;&gt;Node9 -->
<g id="edge8" class="edge"><title>Node1&#45;&gt;Node9</title>
<path fill="none" stroke="midnightblue" d="M284.919,-123.404C316.493,-110.503 353.579,-95.3495 379.028,-84.9511"/>
<polygon fill="midnightblue" stroke="midnightblue" points="380.574,-88.1004 388.507,-81.0779 377.926,-81.6205 380.574,-88.1004"/>
</g>
<!-- Node5 -->
<g id="node5" class="node"><title>Node5</title>
<polygon fill="none" stroke="#bfbfbf" points="174.5,-0.5 174.5,-19.5 212.5,-19.5 212.5,-0.5 174.5,-0.5"/>
<text text-anchor="middle" x="193.5" y="-7.5" font-family="Helvetica,sans-Serif" font-size="10.00">array</text>
</g>
<!-- Node4&#45;&gt;Node5 -->
<g id="edge4" class="edge"><title>Node4&#45;&gt;Node5</title>
<path fill="none" stroke="midnightblue" d="M261.408,-56.3993C247.409,-47.0402 229.089,-34.7924 215.005,-25.3771"/>
<polygon fill="midnightblue" stroke="midnightblue" points="216.709,-22.3059 206.45,-19.6578 212.818,-28.1253 216.709,-22.3059"/>
</g>
<!-- Node6 -->
<g id="node6" class="node"><title>Node6</title>
<polygon fill="none" stroke="#bfbfbf" points="231,-0.5 231,-19.5 272,-19.5 272,-0.5 231,-0.5"/>
<text text-anchor="middle" x="251.5" y="-7.5" font-family="Helvetica,sans-Serif" font-size="10.00">string</text>
</g>
<!-- Node4&#45;&gt;Node6 -->
<g id="edge5" class="edge"><title>Node4&#45;&gt;Node6</title>
<path fill="none" stroke="midnightblue" d="M275.153,-56.3993C270.835,-48.1098 265.335,-37.5542 260.726,-28.7077"/>
<polygon fill="midnightblue" stroke="midnightblue" points="263.735,-26.9091 256.011,-19.6578 257.527,-30.1435 263.735,-26.9091"/>
</g>
<!-- Node7 -->
<g id="node7" class="node"><title>Node7</title>
<polygon fill="none" stroke="#bfbfbf" points="290.5,-0.5 290.5,-19.5 334.5,-19.5 334.5,-0.5 290.5,-0.5"/>
<text text-anchor="middle" x="312.5" y="-7.5" font-family="Helvetica,sans-Serif" font-size="10.00">vector</text>
</g>
<!-- Node4&#45;&gt;Node7 -->
<g id="edge6" class="edge"><title>Node4&#45;&gt;Node7</title>
<path fill="none" stroke="midnightblue" d="M289.61,-56.3993C293.789,-48.1098 299.111,-37.5542 303.572,-28.7077"/>
<polygon fill="midnightblue" stroke="midnightblue" points="306.758,-30.1628 308.135,-19.6578 300.507,-27.0112 306.758,-30.1628"/>
</g>
<!-- Node8 -->
<g id="node8" class="node"><title>Node8</title>
<polygon fill="none" stroke="#bfbfbf" points="352.5,-0.5 352.5,-19.5 408.5,-19.5 408.5,-0.5 352.5,-0.5"/>
<text text-anchor="middle" x="380.5" y="-7.5" font-family="Helvetica,sans-Serif" font-size="10.00">Rtypes.h</text>
</g>
<!-- Node4&#45;&gt;Node8 -->
<g id="edge7" class="edge"><title>Node4&#45;&gt;Node8</title>
<path fill="none" stroke="midnightblue" d="M305.725,-56.3993C321.286,-46.9511 341.697,-34.5589 357.262,-25.1089"/>
<polygon fill="midnightblue" stroke="midnightblue" points="359.509,-27.8394 366.24,-19.6578 355.876,-21.8558 359.509,-27.8394"/>
</g>
</g>
</svg>
