<?xml version="1.0" encoding="UTF-8" standalone="no"?>
<!DOCTYPE svg PUBLIC "-//W3C//DTD SVG 1.1//EN"
 "http://www.w3.org/Graphics/SVG/1.1/DTD/svg11.dtd">
<!-- Generated by graphviz version 2.38.0 (20140413.2041)
 -->
<!-- Title: /home/travis/build/AliceO2Group/AliceO2/DataFormats/Detectors/MUON/MID/src/Track.cxx Pages: 1 -->
<svg width="208pt" height="173pt"
 viewBox="0.00 0.00 208.00 173.00" xmlns="http://www.w3.org/2000/svg" xmlns:xlink="http://www.w3.org/1999/xlink">
<g id="graph0" class="graph" transform="scale(1 1) rotate(0) translate(4 169)">
<title>/home/travis/build/AliceO2Group/AliceO2/DataFormats/Detectors/MUON/MID/src/Track.cxx</title>
<!-- Node1 -->
<g id="node1" class="node"><title>Node1</title>
<polygon fill="#bfbfbf" stroke="black" points="50.5,-112.5 50.5,-164.5 185.5,-164.5 185.5,-112.5 50.5,-112.5"/>
<text text-anchor="start" x="58.5" y="-152.5" font-family="Helvetica,sans-Serif" font-size="10.00">/home/travis/build</text>
<text text-anchor="start" x="58.5" y="-141.5" font-family="Helvetica,sans-Serif" font-size="10.00">/AliceO2Group/AliceO2</text>
<text text-anchor="start" x="58.5" y="-130.5" font-family="Helvetica,sans-Serif" font-size="10.00">/DataFormats/Detectors</text>
<text text-anchor="middle" x="118" y="-119.5" font-family="Helvetica,sans-Serif" font-size="10.00">/MUON/MID/src/Track.cxx</text>
</g>
<!-- Node2 -->
<g id="node2" class="node"><title>Node2</title>
<g id="a_node2"><a xlink:href="../../d4/d54/DataFormats_2Detectors_2MUON_2MID_2include_2DataFormatsMID_2Track_8h.html" target="_top" xlink:title="Reconstructed MID track. ">
<polygon fill="none" stroke="black" points="0,-56.5 0,-75.5 128,-75.5 128,-56.5 0,-56.5"/>
<text text-anchor="middle" x="64" y="-63.5" font-family="Helvetica,sans-Serif" font-size="10.00">DataFormatsMID/Track.h</text>
</a>
</g>
</g>
<!-- Node1&#45;&gt;Node2 -->
<g id="edge1" class="edge"><title>Node1&#45;&gt;Node2</title>
<path fill="none" stroke="midnightblue" d="M98.8096,-112.446C91.5198,-102.929 83.3991,-92.3266 76.8359,-83.758"/>
<polygon fill="midnightblue" stroke="midnightblue" points="79.5198,-81.506 70.6604,-75.6955 73.9626,-85.7626 79.5198,-81.506"/>
</g>
<!-- Node5 -->
<g id="node5" class="node"><title>Node5</title>
<polygon fill="none" stroke="#bfbfbf" points="146,-56.5 146,-75.5 200,-75.5 200,-56.5 146,-56.5"/>
<text text-anchor="middle" x="173" y="-63.5" font-family="Helvetica,sans-Serif" font-size="10.00">iostream</text>
</g>
<!-- Node1&#45;&gt;Node5 -->
<g id="edge4" class="edge"><title>Node1&#45;&gt;Node5</title>
<path fill="none" stroke="midnightblue" d="M137.546,-112.446C144.971,-102.929 153.242,-92.3266 159.926,-83.758"/>
<polygon fill="midnightblue" stroke="midnightblue" points="162.825,-85.7329 166.216,-75.6955 157.306,-81.4271 162.825,-85.7329"/>
</g>
<!-- Node3 -->
<g id="node3" class="node"><title>Node3</title>
<polygon fill="none" stroke="#bfbfbf" points="14,-0.5 14,-19.5 52,-19.5 52,-0.5 14,-0.5"/>
<text text-anchor="middle" x="33" y="-7.5" font-family="Helvetica,sans-Serif" font-size="10.00">array</text>
</g>
<!-- Node2&#45;&gt;Node3 -->
<g id="edge2" class="edge"><title>Node2&#45;&gt;Node3</title>
<path fill="none" stroke="midnightblue" d="M58.881,-56.083C54.5925,-48.6127 48.3418,-37.7244 43.0577,-28.5199"/>
<polygon fill="midnightblue" stroke="midnightblue" points="46.0379,-26.6811 38.0238,-19.7511 39.9671,-30.1662 46.0379,-26.6811"/>
</g>
<!-- Node4 -->
<g id="node4" class="node"><title>Node4</title>
<polygon fill="none" stroke="#bfbfbf" points="70,-0.5 70,-19.5 122,-19.5 122,-0.5 70,-0.5"/>
<text text-anchor="middle" x="96" y="-7.5" font-family="Helvetica,sans-Serif" font-size="10.00">ostream</text>
</g>
<!-- Node2&#45;&gt;Node4 -->
<g id="edge3" class="edge"><title>Node2&#45;&gt;Node4</title>
<path fill="none" stroke="midnightblue" d="M69.2841,-56.083C73.711,-48.6127 80.1633,-37.7244 85.6179,-28.5199"/>
<polygon fill="midnightblue" stroke="midnightblue" points="88.7271,-30.1383 90.8142,-19.7511 82.7051,-26.5697 88.7271,-30.1383"/>
</g>
</g>
</svg>
