<?xml version="1.0" encoding="UTF-8" standalone="no"?>
<!DOCTYPE svg PUBLIC "-//W3C//DTD SVG 1.1//EN"
 "http://www.w3.org/Graphics/SVG/1.1/DTD/svg11.dtd">
<!-- Generated by graphviz version 2.38.0 (20140413.2041)
 -->
<!-- Title: ImGuiWindowSettings Pages: 1 -->
<svg width="280pt" height="386pt"
 viewBox="0.00 0.00 279.50 386.00" xmlns="http://www.w3.org/2000/svg" xmlns:xlink="http://www.w3.org/1999/xlink">
<g id="graph0" class="graph" transform="scale(1 1) rotate(0) translate(4 382)">
<title>ImGuiWindowSettings</title>
<!-- Node1 -->
<g id="node1" class="node"><title>Node1</title>
<polygon fill="#bfbfbf" stroke="black" points="73,-0.5 73,-57.5 202,-57.5 202,-0.5 73,-0.5"/>
<text text-anchor="middle" x="137.5" y="-45.5" font-family="Helvetica,sans-Serif" font-size="10.00">ImGuiWindowSettings</text>
<polyline fill="none" stroke="black" points="73,-38.5 202,-38.5 "/>
<text text-anchor="middle" x="137.5" y="-26.5" font-family="Helvetica,sans-Serif" font-size="10.00"> </text>
<polyline fill="none" stroke="black" points="73,-19.5 202,-19.5 "/>
<text text-anchor="start" x="81" y="-7.5" font-family="Helvetica,sans-Serif" font-size="10.00">+ ImGuiWindowSettings()</text>
</g>
<!-- Node2 -->
<g id="node2" class="node"><title>Node2</title>
<g id="a_node2"><a xlink:href="../../d3/dc2/structImVec2.html" target="_top" xlink:title="{ImVec2\n||+ ImVec2()\l+ ImVec2()\l+ operator[]()\l+ ImVec2()\l+ ImVec2()\l+ operator[]()\l+ ImVec2()\l+ ImVec2()\l+ operator[]()\l}">
<polygon fill="none" stroke="black" points="0,-116.5 0,-261.5 73,-261.5 73,-116.5 0,-116.5"/>
<text text-anchor="middle" x="36.5" y="-249.5" font-family="Helvetica,sans-Serif" font-size="10.00">ImVec2</text>
<polyline fill="none" stroke="black" points="0,-242.5 73,-242.5 "/>
<text text-anchor="middle" x="36.5" y="-230.5" font-family="Helvetica,sans-Serif" font-size="10.00"> </text>
<polyline fill="none" stroke="black" points="0,-223.5 73,-223.5 "/>
<text text-anchor="start" x="8" y="-211.5" font-family="Helvetica,sans-Serif" font-size="10.00">+ ImVec2()</text>
<text text-anchor="start" x="8" y="-200.5" font-family="Helvetica,sans-Serif" font-size="10.00">+ ImVec2()</text>
<text text-anchor="start" x="8" y="-189.5" font-family="Helvetica,sans-Serif" font-size="10.00">+ operator[]()</text>
<text text-anchor="start" x="8" y="-178.5" font-family="Helvetica,sans-Serif" font-size="10.00">+ ImVec2()</text>
<text text-anchor="start" x="8" y="-167.5" font-family="Helvetica,sans-Serif" font-size="10.00">+ ImVec2()</text>
<text text-anchor="start" x="8" y="-156.5" font-family="Helvetica,sans-Serif" font-size="10.00">+ operator[]()</text>
<text text-anchor="start" x="8" y="-145.5" font-family="Helvetica,sans-Serif" font-size="10.00">+ ImVec2()</text>
<text text-anchor="start" x="8" y="-134.5" font-family="Helvetica,sans-Serif" font-size="10.00">+ ImVec2()</text>
<text text-anchor="start" x="8" y="-123.5" font-family="Helvetica,sans-Serif" font-size="10.00">+ operator[]()</text>
</a>
</g>
</g>
<!-- Node2&#45;&gt;Node1 -->
<g id="edge1" class="edge"><title>Node2&#45;&gt;Node1</title>
<path fill="none" stroke="#404040" d="M53.4977,-116.353C58.8171,-102.182 65.6864,-87.997 74.5,-76 77.141,-72.4052 80.1452,-68.9739 83.3756,-65.7236"/>
<polygon fill="none" stroke="#404040" points="83.4816,-65.6272 85.2302,-58.6313 92.3605,-57.5545 90.6119,-64.5505 83.4816,-65.6272"/>
<text text-anchor="middle" x="88" y="-90" font-family="Helvetica,sans-Serif" font-size="10.00"> +Pos</text>
<text text-anchor="middle" x="88" y="-79" font-family="Helvetica,sans-Serif" font-size="10.00">+Size</text>
</g>
<!-- Node3 -->
<g id="node3" class="node"><title>Node3</title>
<g id="a_node3"><a xlink:href="../../d4/dc3/classfloat.html" target="_top" xlink:title="{float\n||}">
<polygon fill="none" stroke="black" points="19,-320.5 19,-377.5 54,-377.5 54,-320.5 19,-320.5"/>
<text text-anchor="middle" x="36.5" y="-365.5" font-family="Helvetica,sans-Serif" font-size="10.00">float</text>
<polyline fill="none" stroke="black" points="19,-358.5 54,-358.5 "/>
<text text-anchor="middle" x="36.5" y="-346.5" font-family="Helvetica,sans-Serif" font-size="10.00"> </text>
<polyline fill="none" stroke="black" points="19,-339.5 54,-339.5 "/>
<text text-anchor="middle" x="36.5" y="-327.5" font-family="Helvetica,sans-Serif" font-size="10.00"> </text>
</a>
</g>
</g>
<!-- Node3&#45;&gt;Node2 -->
<g id="edge2" class="edge"><title>Node3&#45;&gt;Node2</title>
<path fill="none" stroke="#404040" d="M36.5,-320.479C36.5,-307.317 36.5,-290.778 36.5,-273.939"/>
<polygon fill="none" stroke="#404040" points="36.5001,-273.668 32.5,-267.668 36.5,-261.668 40.5,-267.668 36.5001,-273.668"/>
<text text-anchor="middle" x="44" y="-294" font-family="Helvetica,sans-Serif" font-size="10.00"> +x</text>
<text text-anchor="middle" x="44" y="-283" font-family="Helvetica,sans-Serif" font-size="10.00">+y</text>
</g>
<!-- Node4 -->
<g id="node4" class="node"><title>Node4</title>
<polygon fill="none" stroke="#bfbfbf" points="91,-160.5 91,-217.5 126,-217.5 126,-160.5 91,-160.5"/>
<text text-anchor="middle" x="108.5" y="-205.5" font-family="Helvetica,sans-Serif" font-size="10.00">char</text>
<polyline fill="none" stroke="#bfbfbf" points="91,-198.5 126,-198.5 "/>
<text text-anchor="middle" x="108.5" y="-186.5" font-family="Helvetica,sans-Serif" font-size="10.00"> </text>
<polyline fill="none" stroke="#bfbfbf" points="91,-179.5 126,-179.5 "/>
<text text-anchor="middle" x="108.5" y="-167.5" font-family="Helvetica,sans-Serif" font-size="10.00"> </text>
</g>
<!-- Node4&#45;&gt;Node1 -->
<g id="edge3" class="edge"><title>Node4&#45;&gt;Node1</title>
<path fill="none" stroke="#404040" d="M104.713,-160.26C102.518,-137.232 101.553,-103.862 109.5,-76 110.201,-73.5416 111.072,-71.0836 112.068,-68.6539"/>
<polygon fill="none" stroke="#404040" points="112.205,-68.3751 111.249,-61.2277 117.479,-57.5961 118.435,-64.7435 112.205,-68.3751"/>
<text text-anchor="middle" x="127.5" y="-84.5" font-family="Helvetica,sans-Serif" font-size="10.00"> +Name</text>
</g>
<!-- Node5 -->
<g id="node5" class="node"><title>Node5</title>
<polygon fill="none" stroke="#bfbfbf" points="150,-160.5 150,-217.5 185,-217.5 185,-160.5 150,-160.5"/>
<text text-anchor="middle" x="167.5" y="-205.5" font-family="Helvetica,sans-Serif" font-size="10.00">bool</text>
<polyline fill="none" stroke="#bfbfbf" points="150,-198.5 185,-198.5 "/>
<text text-anchor="middle" x="167.5" y="-186.5" font-family="Helvetica,sans-Serif" font-size="10.00"> </text>
<polyline fill="none" stroke="#bfbfbf" points="150,-179.5 185,-179.5 "/>
<text text-anchor="middle" x="167.5" y="-167.5" font-family="Helvetica,sans-Serif" font-size="10.00"> </text>
</g>
<!-- Node5&#45;&gt;Node1 -->
<g id="edge4" class="edge"><title>Node5&#45;&gt;Node1</title>
<path fill="none" stroke="#404040" d="M162.274,-160.479C157.507,-135.371 150.407,-97.976 145.028,-69.6477"/>
<polygon fill="none" stroke="#404040" points="145.005,-69.5256 139.956,-64.3771 142.766,-57.7362 147.815,-62.8847 145.005,-69.5256"/>
<text text-anchor="middle" x="177" y="-84.5" font-family="Helvetica,sans-Serif" font-size="10.00"> +Collapsed</text>
</g>
<!-- Node6 -->
<g id="node6" class="node"><title>Node6</title>
<polygon fill="none" stroke="#bfbfbf" points="215.5,-160.5 215.5,-217.5 271.5,-217.5 271.5,-160.5 215.5,-160.5"/>
<text text-anchor="middle" x="243.5" y="-205.5" font-family="Helvetica,sans-Serif" font-size="10.00">unsigned</text>
<polyline fill="none" stroke="#bfbfbf" points="215.5,-198.5 271.5,-198.5 "/>
<text text-anchor="middle" x="243.5" y="-186.5" font-family="Helvetica,sans-Serif" font-size="10.00"> </text>
<polyline fill="none" stroke="#bfbfbf" points="215.5,-179.5 271.5,-179.5 "/>
<text text-anchor="middle" x="243.5" y="-167.5" font-family="Helvetica,sans-Serif" font-size="10.00"> </text>
</g>
<!-- Node6&#45;&gt;Node1 -->
<g id="edge5" class="edge"><title>Node6&#45;&gt;Node1</title>
<path fill="none" stroke="#404040" d="M239.893,-160.277C235.581,-136.021 226.417,-100.873 207.5,-76 204.741,-72.372 201.608,-68.9429 198.234,-65.7183"/>
<polygon fill="none" stroke="#404040" points="197.946,-65.4712 190.787,-64.6053 188.833,-57.6641 195.992,-58.5299 197.946,-65.4712"/>
<text text-anchor="middle" x="230.5" y="-84.5" font-family="Helvetica,sans-Serif" font-size="10.00"> +Id</text>
</g>
</g>
</svg>
