<?xml version="1.0" encoding="UTF-8" standalone="no"?>
<!DOCTYPE svg PUBLIC "-//W3C//DTD SVG 1.1//EN"
 "http://www.w3.org/Graphics/SVG/1.1/DTD/svg11.dtd">
<!-- Generated by graphviz version 2.38.0 (20140413.2041)
 -->
<!-- Title: StbUndoState Pages: 1 -->
<svg width="420pt" height="298pt"
 viewBox="0.00 0.00 419.50 298.00" xmlns="http://www.w3.org/2000/svg" xmlns:xlink="http://www.w3.org/1999/xlink">
<g id="graph0" class="graph" transform="scale(1 1) rotate(0) translate(4 294)">
<title>StbUndoState</title>
<!-- Node1 -->
<g id="node1" class="node"><title>Node1</title>
<polygon fill="#bfbfbf" stroke="black" points="148.5,-0.5 148.5,-57.5 226.5,-57.5 226.5,-0.5 148.5,-0.5"/>
<text text-anchor="middle" x="187.5" y="-45.5" font-family="Helvetica,sans-Serif" font-size="10.00">StbUndoState</text>
<polyline fill="none" stroke="black" points="148.5,-38.5 226.5,-38.5 "/>
<text text-anchor="middle" x="187.5" y="-26.5" font-family="Helvetica,sans-Serif" font-size="10.00"> </text>
<polyline fill="none" stroke="black" points="148.5,-19.5 226.5,-19.5 "/>
<text text-anchor="middle" x="187.5" y="-7.5" font-family="Helvetica,sans-Serif" font-size="10.00"> </text>
</g>
<!-- Node2 -->
<g id="node2" class="node"><title>Node2</title>
<polygon fill="none" stroke="#bfbfbf" points="0,-105.5 0,-162.5 151,-162.5 151,-105.5 0,-105.5"/>
<text text-anchor="middle" x="75.5" y="-150.5" font-family="Helvetica,sans-Serif" font-size="10.00">STB_TEXTEDIT_CHARTYPE</text>
<polyline fill="none" stroke="#bfbfbf" points="0,-143.5 151,-143.5 "/>
<text text-anchor="middle" x="75.5" y="-131.5" font-family="Helvetica,sans-Serif" font-size="10.00"> </text>
<polyline fill="none" stroke="#bfbfbf" points="0,-124.5 151,-124.5 "/>
<text text-anchor="middle" x="75.5" y="-112.5" font-family="Helvetica,sans-Serif" font-size="10.00"> </text>
</g>
<!-- Node2&#45;&gt;Node1 -->
<g id="edge1" class="edge"><title>Node2&#45;&gt;Node1</title>
<path fill="none" stroke="#404040" d="M93.4758,-105.355C100.608,-95.4874 109.303,-84.6761 118.5,-76 124.481,-70.358 131.227,-64.944 138.1,-59.9371"/>
<polygon fill="none" stroke="#404040" points="138.337,-59.7716 140.975,-53.0601 148.185,-52.9135 145.547,-59.625 138.337,-59.7716"/>
<text text-anchor="middle" x="146" y="-79" font-family="Helvetica,sans-Serif" font-size="10.00"> +undo_char</text>
</g>
<!-- Node3 -->
<g id="node3" class="node"><title>Node3</title>
<g id="a_node3"><a xlink:href="../../da/d11/structStbUndoRecord.html" target="_top" xlink:title="{StbUndoRecord\n||}">
<polygon fill="none" stroke="black" points="283.5,-105.5 283.5,-162.5 369.5,-162.5 369.5,-105.5 283.5,-105.5"/>
<text text-anchor="middle" x="326.5" y="-150.5" font-family="Helvetica,sans-Serif" font-size="10.00">StbUndoRecord</text>
<polyline fill="none" stroke="black" points="283.5,-143.5 369.5,-143.5 "/>
<text text-anchor="middle" x="326.5" y="-131.5" font-family="Helvetica,sans-Serif" font-size="10.00"> </text>
<polyline fill="none" stroke="black" points="283.5,-124.5 369.5,-124.5 "/>
<text text-anchor="middle" x="326.5" y="-112.5" font-family="Helvetica,sans-Serif" font-size="10.00"> </text>
</a>
</g>
</g>
<!-- Node3&#45;&gt;Node1 -->
<g id="edge2" class="edge"><title>Node3&#45;&gt;Node1</title>
<path fill="none" stroke="#404040" d="M289.251,-105.398C272.423,-92.9288 252.355,-78.0581 234.506,-64.8315"/>
<polygon fill="none" stroke="#404040" points="234.494,-64.8227 227.292,-64.4643 224.852,-57.6783 232.054,-58.0367 234.494,-64.8227"/>
<text text-anchor="middle" x="286" y="-79" font-family="Helvetica,sans-Serif" font-size="10.00"> +undo_rec</text>
</g>
<!-- Node4 -->
<g id="node4" class="node"><title>Node4</title>
<g id="a_node4"><a xlink:href="../../dc/d10/classshort.html" target="_top" xlink:title="{short\n||}">
<polygon fill="none" stroke="black" points="177.5,-232.5 177.5,-289.5 215.5,-289.5 215.5,-232.5 177.5,-232.5"/>
<text text-anchor="middle" x="196.5" y="-277.5" font-family="Helvetica,sans-Serif" font-size="10.00">short</text>
<polyline fill="none" stroke="black" points="177.5,-270.5 215.5,-270.5 "/>
<text text-anchor="middle" x="196.5" y="-258.5" font-family="Helvetica,sans-Serif" font-size="10.00"> </text>
<polyline fill="none" stroke="black" points="177.5,-251.5 215.5,-251.5 "/>
<text text-anchor="middle" x="196.5" y="-239.5" font-family="Helvetica,sans-Serif" font-size="10.00"> </text>
</a>
</g>
</g>
<!-- Node4&#45;&gt;Node1 -->
<g id="edge5" class="edge"><title>Node4&#45;&gt;Node1</title>
<path fill="none" stroke="#404040" d="M195.414,-232.257C193.833,-191.849 190.888,-116.573 189.07,-70.1251"/>
<polygon fill="none" stroke="#404040" points="189.059,-69.8326 184.827,-63.9936 188.589,-57.8418 192.821,-63.6807 189.059,-69.8326"/>
<text text-anchor="middle" x="232.5" y="-148" font-family="Helvetica,sans-Serif" font-size="10.00"> +redo_point</text>
<text text-anchor="middle" x="232.5" y="-137" font-family="Helvetica,sans-Serif" font-size="10.00">+redo_char_point</text>
<text text-anchor="middle" x="232.5" y="-126" font-family="Helvetica,sans-Serif" font-size="10.00">+undo_char_point</text>
<text text-anchor="middle" x="232.5" y="-115" font-family="Helvetica,sans-Serif" font-size="10.00">+undo_point</text>
</g>
<!-- Node4&#45;&gt;Node3 -->
<g id="edge3" class="edge"><title>Node4&#45;&gt;Node3</title>
<path fill="none" stroke="#404040" d="M214.574,-232.22C225.793,-216.188 241.154,-196.247 257.5,-181 262.369,-176.458 267.731,-172.056 273.249,-167.891"/>
<polygon fill="none" stroke="#404040" points="273.537,-167.683 276.07,-160.932 283.276,-160.672 280.744,-167.424 273.537,-167.683"/>
<text text-anchor="middle" x="290" y="-206" font-family="Helvetica,sans-Serif" font-size="10.00"> +insert_length</text>
<text text-anchor="middle" x="290" y="-195" font-family="Helvetica,sans-Serif" font-size="10.00">+char_storage</text>
<text text-anchor="middle" x="290" y="-184" font-family="Helvetica,sans-Serif" font-size="10.00">+delete_length</text>
</g>
<!-- Node5 -->
<g id="node5" class="node"><title>Node5</title>
<polygon fill="none" stroke="#bfbfbf" points="241.5,-232.5 241.5,-289.5 411.5,-289.5 411.5,-232.5 241.5,-232.5"/>
<text text-anchor="middle" x="326.5" y="-277.5" font-family="Helvetica,sans-Serif" font-size="10.00">STB_TEXTEDIT_POSITIONTYPE</text>
<polyline fill="none" stroke="#bfbfbf" points="241.5,-270.5 411.5,-270.5 "/>
<text text-anchor="middle" x="326.5" y="-258.5" font-family="Helvetica,sans-Serif" font-size="10.00"> </text>
<polyline fill="none" stroke="#bfbfbf" points="241.5,-251.5 411.5,-251.5 "/>
<text text-anchor="middle" x="326.5" y="-239.5" font-family="Helvetica,sans-Serif" font-size="10.00"> </text>
</g>
<!-- Node5&#45;&gt;Node3 -->
<g id="edge4" class="edge"><title>Node5&#45;&gt;Node3</title>
<path fill="none" stroke="#404040" d="M326.5,-232.258C326.5,-215.347 326.5,-193.457 326.5,-174.728"/>
<polygon fill="none" stroke="#404040" points="326.5,-174.664 322.5,-168.664 326.5,-162.664 330.5,-168.664 326.5,-174.664"/>
<text text-anchor="middle" x="344.5" y="-195" font-family="Helvetica,sans-Serif" font-size="10.00"> +where</text>
</g>
</g>
</svg>
