<?xml version="1.0" encoding="UTF-8" standalone="no"?>
<!DOCTYPE svg PUBLIC "-//W3C//DTD SVG 1.1//EN"
 "http://www.w3.org/Graphics/SVG/1.1/DTD/svg11.dtd">
<!-- Generated by graphviz version 2.38.0 (20140413.2041)
 -->
<!-- Title: /home/travis/build/AliceO2Group/AliceO2/Algorithm/include/Algorithm/Parser.h Pages: 1 -->
<svg width="630pt" height="150pt"
 viewBox="0.00 0.00 629.50 150.00" xmlns="http://www.w3.org/2000/svg" xmlns:xlink="http://www.w3.org/1999/xlink">
<g id="graph0" class="graph" transform="scale(1 1) rotate(0) translate(4 146)">
<title>/home/travis/build/AliceO2Group/AliceO2/Algorithm/include/Algorithm/Parser.h</title>
<!-- Node1 -->
<g id="node1" class="node"><title>Node1</title>
<polygon fill="#bfbfbf" stroke="black" points="235,-89.5 235,-141.5 374,-141.5 374,-89.5 235,-89.5"/>
<text text-anchor="start" x="243" y="-129.5" font-family="Helvetica,sans-Serif" font-size="10.00">/home/travis/build</text>
<text text-anchor="start" x="243" y="-118.5" font-family="Helvetica,sans-Serif" font-size="10.00">/AliceO2Group/AliceO2</text>
<text text-anchor="start" x="243" y="-107.5" font-family="Helvetica,sans-Serif" font-size="10.00">/Algorithm/include/Algorithm</text>
<text text-anchor="middle" x="304.5" y="-96.5" font-family="Helvetica,sans-Serif" font-size="10.00">/Parser.h</text>
</g>
<!-- Node2 -->
<g id="node2" class="node"><title>Node2</title>
<g id="a_node2"><a xlink:href="../../da/d35/parser_8cxx.html" target="_top" xlink:title="Unit test for parser of objects in memory pages. ">
<polygon fill="none" stroke="black" points="0,-6 0,-47 129,-47 129,-6 0,-6"/>
<text text-anchor="start" x="8" y="-35" font-family="Helvetica,sans-Serif" font-size="10.00">/home/travis/build</text>
<text text-anchor="start" x="8" y="-24" font-family="Helvetica,sans-Serif" font-size="10.00">/AliceO2Group/AliceO2</text>
<text text-anchor="middle" x="64.5" y="-13" font-family="Helvetica,sans-Serif" font-size="10.00">/Algorithm/test/parser.cxx</text>
</a>
</g>
</g>
<!-- Node1&#45;&gt;Node2 -->
<g id="edge1" class="edge"><title>Node1&#45;&gt;Node2</title>
<path fill="none" stroke="midnightblue" d="M225.671,-85.9245C190.621,-73.2187 150.237,-58.5798 118.662,-47.1338"/>
<polygon fill="midnightblue" stroke="midnightblue" points="224.81,-89.3351 235.404,-89.4527 227.195,-82.7542 224.81,-89.3351"/>
</g>
<!-- Node3 -->
<g id="node3" class="node"><title>Node3</title>
<g id="a_node3"><a xlink:href="../../d4/d51/tableview_8cxx.html" target="_top" xlink:title="/home/travis/build\l/AliceO2Group/AliceO2\l/Algorithm/test/tableview.cxx">
<polygon fill="none" stroke="black" points="147,-6 147,-47 290,-47 290,-6 147,-6"/>
<text text-anchor="start" x="155" y="-35" font-family="Helvetica,sans-Serif" font-size="10.00">/home/travis/build</text>
<text text-anchor="start" x="155" y="-24" font-family="Helvetica,sans-Serif" font-size="10.00">/AliceO2Group/AliceO2</text>
<text text-anchor="middle" x="218.5" y="-13" font-family="Helvetica,sans-Serif" font-size="10.00">/Algorithm/test/tableview.cxx</text>
</a>
</g>
</g>
<!-- Node1&#45;&gt;Node3 -->
<g id="edge2" class="edge"><title>Node1&#45;&gt;Node3</title>
<path fill="none" stroke="midnightblue" d="M272.553,-82.1814C260.899,-70.3922 248.084,-57.4276 237.857,-47.0821"/>
<polygon fill="midnightblue" stroke="midnightblue" points="270.106,-84.6847 279.625,-89.336 275.084,-79.7636 270.106,-84.6847"/>
</g>
<!-- Node4 -->
<g id="node4" class="node"><title>Node4</title>
<g id="a_node4"><a xlink:href="../../d5/d1e/ClusterNativeHelper_8cxx.html" target="_top" xlink:title="Helper class to read the binary format of TPC ClusterNative. ">
<polygon fill="none" stroke="black" points="308,-0.5 308,-52.5 475,-52.5 475,-0.5 308,-0.5"/>
<text text-anchor="start" x="316" y="-40.5" font-family="Helvetica,sans-Serif" font-size="10.00">/home/travis/build</text>
<text text-anchor="start" x="316" y="-29.5" font-family="Helvetica,sans-Serif" font-size="10.00">/AliceO2Group/AliceO2</text>
<text text-anchor="start" x="316" y="-18.5" font-family="Helvetica,sans-Serif" font-size="10.00">/DataFormats/Detectors</text>
<text text-anchor="middle" x="391.5" y="-7.5" font-family="Helvetica,sans-Serif" font-size="10.00">/TPC/src/ClusterNativeHelper.cxx</text>
</a>
</g>
</g>
<!-- Node1&#45;&gt;Node4 -->
<g id="edge3" class="edge"><title>Node1&#45;&gt;Node4</title>
<path fill="none" stroke="midnightblue" d="M336.923,-82.0768C346.665,-72.3353 357.2,-61.7998 366.393,-52.6075"/>
<polygon fill="midnightblue" stroke="midnightblue" points="334.26,-79.79 329.664,-89.336 339.21,-84.7398 334.26,-79.79"/>
</g>
<!-- Node5 -->
<g id="node5" class="node"><title>Node5</title>
<g id="a_node5"><a xlink:href="../../da/d78/CATrackerSpec_8cxx.html" target="_top" xlink:title="Processor spec for running TPC CA tracking. ">
<polygon fill="none" stroke="black" points="493.5,-0.5 493.5,-52.5 621.5,-52.5 621.5,-0.5 493.5,-0.5"/>
<text text-anchor="start" x="501.5" y="-40.5" font-family="Helvetica,sans-Serif" font-size="10.00">/home/travis/build</text>
<text text-anchor="start" x="501.5" y="-29.5" font-family="Helvetica,sans-Serif" font-size="10.00">/AliceO2Group/AliceO2</text>
<text text-anchor="start" x="501.5" y="-18.5" font-family="Helvetica,sans-Serif" font-size="10.00">/Detectors/TPC/workflow</text>
<text text-anchor="middle" x="557.5" y="-7.5" font-family="Helvetica,sans-Serif" font-size="10.00">/src/CATrackerSpec.cxx</text>
</a>
</g>
</g>
<!-- Node1&#45;&gt;Node5 -->
<g id="edge4" class="edge"><title>Node1&#45;&gt;Node5</title>
<path fill="none" stroke="midnightblue" d="M383.773,-87.5455C415.157,-76.84 451.546,-64.3853 484.5,-53 487.418,-51.9917 490.402,-50.9588 493.415,-49.9138"/>
<polygon fill="midnightblue" stroke="midnightblue" points="382.538,-84.2685 374.203,-90.8086 384.797,-90.894 382.538,-84.2685"/>
</g>
</g>
</svg>
