<?xml version="1.0" encoding="UTF-8" standalone="no"?>
<!DOCTYPE svg PUBLIC "-//W3C//DTD SVG 1.1//EN"
 "http://www.w3.org/Graphics/SVG/1.1/DTD/svg11.dtd">
<!-- Generated by graphviz version 2.38.0 (20140413.2041)
 -->
<!-- Title: /home/travis/build/AliceO2Group/AliceO2/Framework/Core/src/DataSpecUtils.cxx Pages: 1 -->
<!--zoomable 430 -->
<svg id="main" version="1.1" xmlns="http://www.w3.org/2000/svg" xmlns:xlink="http://www.w3.org/1999/xlink" xml:space="preserve" onload="init(evt)">
<style type="text/css"><![CDATA[
.edge:hover path { stroke: red; }
.edge:hover polygon { stroke: red; fill: red; }
]]></style>
<script type="text/javascript"><![CDATA[
var edges = document.getElementsByTagName('g');
if (edges && edges.length) {
  for (var i=0;i<edges.length;i++) {
    if (edges[i].id.substr(0,4)=='edge') {
      edges[i].setAttribute('class','edge');
    }
  }
}
]]></script>
        <defs>
                <circle id="rim" cx="0" cy="0" r="7"/>
                <circle id="rim2" cx="0" cy="0" r="3.5"/>
                <g id="zoomPlus">
                        <use xlink:href="#rim" fill="#404040">
                                <set attributeName="fill" to="#808080" begin="zoomplus.mouseover" end="zoomplus.mouseout"/>
                        </use>
                        <path d="M-4,0h8M0,-4v8" fill="none" stroke="white" stroke-width="1.5" pointer-events="none"/>
                </g>
                <g id="zoomMin">
                        <use xlink:href="#rim" fill="#404040">
                                <set attributeName="fill" to="#808080" begin="zoomminus.mouseover" end="zoomminus.mouseout"/>
                        </use>
                        <path d="M-4,0h8" fill="none" stroke="white" stroke-width="1.5" pointer-events="none"/>
                </g>
                <g id="dirArrow">
                        <path fill="none" stroke="white" stroke-width="1.5" d="M0,-3.0v7 M-2.5,-0.5L0,-3.0L2.5,-0.5"/>
                </g>
               <g id="resetDef">
                       <use xlink:href="#rim2" fill="#404040">
                               <set attributeName="fill" to="#808080" begin="reset.mouseover" end="reset.mouseout"/>
                       </use>
               </g>
        </defs>

<script type="text/javascript">
var viewWidth = 2324;
var viewHeight = 430;
var sectionId = 'dynsection-0';
</script>
<script xlink:href="../../svgpan.js"/>
<svg id="graph" class="graph">
<g id="viewport">
<title>/home/travis/build/AliceO2Group/AliceO2/Framework/Core/src/DataSpecUtils.cxx</title>
<!-- Node1 -->
<g id="node1" class="node"><title>Node1</title>
<polygon fill="#bfbfbf" stroke="black" points="1778,-369.5 1778,-421.5 1933,-421.5 1933,-369.5 1778,-369.5"/>
<text text-anchor="start" x="1786" y="-409.5" font-family="Helvetica,sans-Serif" font-size="10.00">/home/travis/build</text>
<text text-anchor="start" x="1786" y="-398.5" font-family="Helvetica,sans-Serif" font-size="10.00">/AliceO2Group/AliceO2</text>
<text text-anchor="start" x="1786" y="-387.5" font-family="Helvetica,sans-Serif" font-size="10.00">/Framework/Core/src/DataSpec</text>
<text text-anchor="middle" x="1855.5" y="-376.5" font-family="Helvetica,sans-Serif" font-size="10.00">Utils.cxx</text>
</g>
<!-- Node2 -->
<g id="node2" class="node"><title>Node2</title>
<g id="a_node2"><a xlink:href="../../d6/d68/DataSpecUtils_8h.html" target="_top" xlink:title="Framework/DataSpecUtils.h">
<polygon fill="none" stroke="black" points="1404.5,-313.5 1404.5,-332.5 1544.5,-332.5 1544.5,-313.5 1404.5,-313.5"/>
<text text-anchor="middle" x="1474.5" y="-320.5" font-family="Helvetica,sans-Serif" font-size="10.00">Framework/DataSpecUtils.h</text>
</a>
</g>
</g>
<!-- Node1&#45;&gt;Node2 -->
<g id="edge1" class="edge"><title>Node1&#45;&gt;Node2</title>
<path fill="none" stroke="midnightblue" d="M1777.94,-380.148C1704.52,-366.563 1596.07,-346.495 1530.66,-334.391"/>
<polygon fill="midnightblue" stroke="midnightblue" points="1531.01,-330.897 1520.54,-332.519 1529.74,-337.78 1531.01,-330.897"/>
</g>
<!-- Node8 -->
<g id="node8" class="node"><title>Node8</title>
<polygon fill="none" stroke="#bfbfbf" points="1629.5,-6 1629.5,-25 1675.5,-25 1675.5,-6 1629.5,-6"/>
<text text-anchor="middle" x="1652.5" y="-13" font-family="Helvetica,sans-Serif" font-size="10.00">cstring</text>
</g>
<!-- Node1&#45;&gt;Node8 -->
<g id="edge70" class="edge"><title>Node1&#45;&gt;Node8</title>
<path fill="none" stroke="midnightblue" d="M1777.94,-389.628C1584.75,-376.459 1097.5,-336.46 1097.5,-268 1097.5,-268 1097.5,-268 1097.5,-204.5 1097.5,-157.89 1126.12,-150.848 1163.5,-123 1329.29,0.528831 1419.86,-84.7534 1619.5,-31 1621.79,-30.3823 1624.13,-29.6288 1626.46,-28.7934"/>
<polygon fill="midnightblue" stroke="midnightblue" points="1627.77,-32.0354 1635.73,-25.0366 1625.15,-25.5476 1627.77,-32.0354"/>
</g>
<!-- Node19 -->
<g id="node19" class="node"><title>Node19</title>
<g id="a_node19"><a xlink:href="../../d3/da3/DataDescriptorMatcher_8h.html" target="_top" xlink:title="Framework/DataDescriptor\lMatcher.h">
<polygon fill="none" stroke="black" points="1790.5,-190.5 1790.5,-220.5 1924.5,-220.5 1924.5,-190.5 1790.5,-190.5"/>
<text text-anchor="start" x="1798.5" y="-208.5" font-family="Helvetica,sans-Serif" font-size="10.00">Framework/DataDescriptor</text>
<text text-anchor="middle" x="1857.5" y="-197.5" font-family="Helvetica,sans-Serif" font-size="10.00">Matcher.h</text>
</a>
</g>
</g>
<!-- Node1&#45;&gt;Node19 -->
<g id="edge64" class="edge"><title>Node1&#45;&gt;Node19</title>
<path fill="none" stroke="midnightblue" d="M1836.63,-369.235C1829.82,-358.617 1822.96,-345.776 1819.5,-333 1809.66,-296.694 1828.03,-254.974 1842.5,-229.687"/>
<polygon fill="midnightblue" stroke="midnightblue" points="1845.66,-231.224 1847.79,-220.845 1839.65,-227.631 1845.66,-231.224"/>
</g>
<!-- Node42 -->
<g id="node42" class="node"><title>Node42</title>
<g id="a_node42"><a xlink:href="../../d7/dc7/DataMatcherWalker_8h.html" target="_top" xlink:title="Framework/DataMatcherWalker.h">
<polygon fill="none" stroke="black" points="1828.5,-313.5 1828.5,-332.5 1992.5,-332.5 1992.5,-313.5 1828.5,-313.5"/>
<text text-anchor="middle" x="1910.5" y="-320.5" font-family="Helvetica,sans-Serif" font-size="10.00">Framework/DataMatcherWalker.h</text>
</a>
</g>
</g>
<!-- Node1&#45;&gt;Node42 -->
<g id="edge65" class="edge"><title>Node1&#45;&gt;Node42</title>
<path fill="none" stroke="midnightblue" d="M1875.05,-369.446C1882.47,-359.929 1890.74,-349.327 1897.43,-340.758"/>
<polygon fill="midnightblue" stroke="midnightblue" points="1900.32,-342.733 1903.72,-332.695 1894.81,-338.427 1900.32,-342.733"/>
</g>
<!-- Node43 -->
<g id="node43" class="node"><title>Node43</title>
<g id="a_node43"><a xlink:href="../../d7/dbe/VariantHelpers_8h.html" target="_top" xlink:title="Framework/VariantHelpers.h">
<polygon fill="none" stroke="black" points="1948,-257.5 1948,-276.5 2089,-276.5 2089,-257.5 1948,-257.5"/>
<text text-anchor="middle" x="2018.5" y="-264.5" font-family="Helvetica,sans-Serif" font-size="10.00">Framework/VariantHelpers.h</text>
</a>
</g>
</g>
<!-- Node1&#45;&gt;Node43 -->
<g id="edge69" class="edge"><title>Node1&#45;&gt;Node43</title>
<path fill="none" stroke="midnightblue" d="M1933.14,-376.558C1958.06,-367.299 1983.76,-353.475 2001.5,-333 2012.59,-320.201 2016.57,-301.013 2017.94,-286.799"/>
<polygon fill="midnightblue" stroke="midnightblue" points="2021.44,-286.879 2018.56,-276.683 2014.45,-286.45 2021.44,-286.879"/>
</g>
<!-- Node45 -->
<g id="node45" class="node"><title>Node45</title>
<polygon fill="none" stroke="#bfbfbf" points="2048.5,-313.5 2048.5,-332.5 2104.5,-332.5 2104.5,-313.5 2048.5,-313.5"/>
<text text-anchor="middle" x="2076.5" y="-320.5" font-family="Helvetica,sans-Serif" font-size="10.00">cinttypes</text>
</g>
<!-- Node1&#45;&gt;Node45 -->
<g id="edge71" class="edge"><title>Node1&#45;&gt;Node45</title>
<path fill="none" stroke="midnightblue" d="M1933.11,-369.743C1969.49,-358.138 2011.1,-344.863 2040.09,-335.613"/>
<polygon fill="midnightblue" stroke="midnightblue" points="2041.33,-338.893 2049.79,-332.519 2039.2,-332.224 2041.33,-338.893"/>
</g>
<!-- Node3 -->
<g id="node3" class="node"><title>Node3</title>
<g id="a_node3"><a xlink:href="../../db/d2d/OutputSpec_8h.html" target="_top" xlink:title="Framework/OutputSpec.h">
<polygon fill="none" stroke="black" points="1473.5,-196 1473.5,-215 1601.5,-215 1601.5,-196 1473.5,-196"/>
<text text-anchor="middle" x="1537.5" y="-203" font-family="Helvetica,sans-Serif" font-size="10.00">Framework/OutputSpec.h</text>
</a>
</g>
</g>
<!-- Node2&#45;&gt;Node3 -->
<g id="edge2" class="edge"><title>Node2&#45;&gt;Node3</title>
<path fill="none" stroke="midnightblue" d="M1480.61,-313.234C1486.72,-304.307 1496.23,-289.972 1503.5,-277 1513.23,-259.64 1522.96,-239.07 1529.5,-224.644"/>
<polygon fill="midnightblue" stroke="midnightblue" points="1532.76,-225.916 1533.65,-215.359 1526.37,-223.057 1532.76,-225.916"/>
</g>
<!-- Node4 -->
<g id="node4" class="node"><title>Node4</title>
<g id="a_node4"><a xlink:href="../../dc/dcd/DataHeader_8h.html" target="_top" xlink:title="Headers/DataHeader.h">
<polygon fill="none" stroke="black" points="1799,-67.5 1799,-86.5 1916,-86.5 1916,-67.5 1799,-67.5"/>
<text text-anchor="middle" x="1857.5" y="-74.5" font-family="Helvetica,sans-Serif" font-size="10.00">Headers/DataHeader.h</text>
</a>
</g>
</g>
<!-- Node2&#45;&gt;Node4 -->
<g id="edge58" class="edge"><title>Node2&#45;&gt;Node4</title>
<path fill="none" stroke="midnightblue" d="M1488.13,-313.316C1545.14,-276.999 1764.74,-137.092 1835.44,-92.0546"/>
<polygon fill="midnightblue" stroke="midnightblue" points="1837.48,-94.905 1844.03,-86.58 1833.72,-89.0012 1837.48,-94.905"/>
</g>
<!-- Node18 -->
<g id="node18" class="node"><title>Node18</title>
<g id="a_node18"><a xlink:href="../../d5/d3f/InputSpec_8h.html" target="_top" xlink:title="Framework/InputSpec.h">
<polygon fill="none" stroke="black" points="1374,-257.5 1374,-276.5 1495,-276.5 1495,-257.5 1374,-257.5"/>
<text text-anchor="middle" x="1434.5" y="-264.5" font-family="Helvetica,sans-Serif" font-size="10.00">Framework/InputSpec.h</text>
</a>
</g>
</g>
<!-- Node2&#45;&gt;Node18 -->
<g id="edge18" class="edge"><title>Node2&#45;&gt;Node18</title>
<path fill="none" stroke="midnightblue" d="M1467.89,-313.083C1462.24,-305.455 1453.96,-294.264 1447.05,-284.941"/>
<polygon fill="midnightblue" stroke="midnightblue" points="1449.75,-282.703 1440.98,-276.751 1444.12,-286.87 1449.75,-282.703"/>
</g>
<!-- Node40 -->
<g id="node40" class="node"><title>Node40</title>
<g id="a_node40"><a xlink:href="../../d3/ddf/Output_8h.html" target="_top" xlink:title="Framework/Output.h">
<polygon fill="none" stroke="black" points="1203.5,-196 1203.5,-215 1309.5,-215 1309.5,-196 1203.5,-196"/>
<text text-anchor="middle" x="1256.5" y="-203" font-family="Helvetica,sans-Serif" font-size="10.00">Framework/Output.h</text>
</a>
</g>
</g>
<!-- Node2&#45;&gt;Node40 -->
<g id="edge59" class="edge"><title>Node2&#45;&gt;Node40</title>
<path fill="none" stroke="midnightblue" d="M1404.24,-317.226C1368.96,-311.802 1327.3,-300.474 1296.5,-277 1279.4,-263.971 1268.47,-241.391 1262.43,-225.295"/>
<polygon fill="midnightblue" stroke="midnightblue" points="1265.58,-223.7 1259.01,-215.386 1258.96,-225.981 1265.58,-223.7"/>
</g>
<!-- Node41 -->
<g id="node41" class="node"><title>Node41</title>
<polygon fill="none" stroke="#bfbfbf" points="1305.5,-257.5 1305.5,-276.5 1355.5,-276.5 1355.5,-257.5 1305.5,-257.5"/>
<text text-anchor="middle" x="1330.5" y="-264.5" font-family="Helvetica,sans-Serif" font-size="10.00">optional</text>
</g>
<!-- Node2&#45;&gt;Node41 -->
<g id="edge63" class="edge"><title>Node2&#45;&gt;Node41</title>
<path fill="none" stroke="midnightblue" d="M1451.68,-313.444C1427.67,-304.438 1389.67,-290.189 1362.63,-280.049"/>
<polygon fill="midnightblue" stroke="midnightblue" points="1363.8,-276.751 1353.21,-276.516 1361.34,-283.305 1363.8,-276.751"/>
</g>
<!-- Node3&#45;&gt;Node4 -->
<g id="edge3" class="edge"><title>Node3&#45;&gt;Node4</title>
<path fill="none" stroke="midnightblue" d="M1520.57,-195.812C1493.39,-180.778 1445.31,-149.023 1468.5,-123 1489.37,-99.574 1682.42,-86.5336 1788.48,-81.0819"/>
<polygon fill="midnightblue" stroke="midnightblue" points="1788.96,-84.5619 1798.77,-80.5624 1788.61,-77.5708 1788.96,-84.5619"/>
</g>
<!-- Node15 -->
<g id="node15" class="node"><title>Node15</title>
<g id="a_node15"><a xlink:href="../../dc/dca/Lifetime_8h.html" target="_top" xlink:title="Framework/Lifetime.h">
<polygon fill="none" stroke="black" points="1202,-129 1202,-148 1313,-148 1313,-129 1202,-129"/>
<text text-anchor="middle" x="1257.5" y="-136" font-family="Helvetica,sans-Serif" font-size="10.00">Framework/Lifetime.h</text>
</a>
</g>
</g>
<!-- Node3&#45;&gt;Node15 -->
<g id="edge14" class="edge"><title>Node3&#45;&gt;Node15</title>
<path fill="none" stroke="midnightblue" d="M1500.61,-195.936C1450.14,-184.22 1359.56,-163.193 1304.35,-150.377"/>
<polygon fill="midnightblue" stroke="midnightblue" points="1305.01,-146.935 1294.47,-148.083 1303.42,-153.754 1305.01,-146.935"/>
</g>
<!-- Node16 -->
<g id="node16" class="node"><title>Node16</title>
<g id="a_node16"><a xlink:href="../../d0/d1b/ConcreteDataMatcher_8h.html" target="_top" xlink:title="Framework/ConcreteDataMatcher.h">
<polygon fill="none" stroke="black" points="1542,-129 1542,-148 1715,-148 1715,-129 1542,-129"/>
<text text-anchor="middle" x="1628.5" y="-136" font-family="Helvetica,sans-Serif" font-size="10.00">Framework/ConcreteDataMatcher.h</text>
</a>
</g>
</g>
<!-- Node3&#45;&gt;Node16 -->
<g id="edge15" class="edge"><title>Node3&#45;&gt;Node16</title>
<path fill="none" stroke="midnightblue" d="M1549.77,-195.734C1564.65,-185.111 1589.93,-167.049 1607.83,-154.264"/>
<polygon fill="midnightblue" stroke="midnightblue" points="1610.32,-156.788 1616.42,-148.127 1606.25,-151.092 1610.32,-156.788"/>
</g>
<!-- Node17 -->
<g id="node17" class="node"><title>Node17</title>
<polygon fill="none" stroke="#bfbfbf" points="1477.5,-129 1477.5,-148 1523.5,-148 1523.5,-129 1477.5,-129"/>
<text text-anchor="middle" x="1500.5" y="-136" font-family="Helvetica,sans-Serif" font-size="10.00">variant</text>
</g>
<!-- Node3&#45;&gt;Node17 -->
<g id="edge17" class="edge"><title>Node3&#45;&gt;Node17</title>
<path fill="none" stroke="midnightblue" d="M1532.51,-195.734C1526.91,-185.89 1517.67,-169.66 1510.55,-157.159"/>
<polygon fill="midnightblue" stroke="midnightblue" points="1513.4,-155.087 1505.41,-148.127 1507.32,-158.549 1513.4,-155.087"/>
</g>
<!-- Node5 -->
<g id="node5" class="node"><title>Node5</title>
<polygon fill="none" stroke="#bfbfbf" points="2222.5,-6 2222.5,-25 2268.5,-25 2268.5,-6 2222.5,-6"/>
<text text-anchor="middle" x="2245.5" y="-13" font-family="Helvetica,sans-Serif" font-size="10.00">cstdint</text>
</g>
<!-- Node4&#45;&gt;Node5 -->
<g id="edge4" class="edge"><title>Node4&#45;&gt;Node5</title>
<path fill="none" stroke="midnightblue" d="M1916.19,-70.6338C1983.57,-63.8968 2097.22,-50.7709 2193.5,-31 2199.77,-29.7133 2206.39,-28.0821 2212.73,-26.3815"/>
<polygon fill="midnightblue" stroke="midnightblue" points="2213.68,-29.7497 2222.37,-23.6915 2211.8,-23.0071 2213.68,-29.7497"/>
</g>
<!-- Node6 -->
<g id="node6" class="node"><title>Node6</title>
<polygon fill="none" stroke="#bfbfbf" points="2132.5,-6 2132.5,-25 2184.5,-25 2184.5,-6 2132.5,-6"/>
<text text-anchor="middle" x="2158.5" y="-13" font-family="Helvetica,sans-Serif" font-size="10.00">memory</text>
</g>
<!-- Node4&#45;&gt;Node6 -->
<g id="edge5" class="edge"><title>Node4&#45;&gt;Node6</title>
<path fill="none" stroke="midnightblue" d="M1909.58,-67.4306C1959.12,-59.0354 2035.65,-45.4311 2101.5,-31 2108.34,-29.502 2115.6,-27.7669 2122.56,-26.029"/>
<polygon fill="midnightblue" stroke="midnightblue" points="2123.65,-29.3641 2132.48,-23.5081 2121.93,-22.5798 2123.65,-29.3641"/>
</g>
<!-- Node7 -->
<g id="node7" class="node"><title>Node7</title>
<polygon fill="none" stroke="#bfbfbf" points="2044,-6 2044,-25 2093,-25 2093,-6 2044,-6"/>
<text text-anchor="middle" x="2068.5" y="-13" font-family="Helvetica,sans-Serif" font-size="10.00">cassert</text>
</g>
<!-- Node4&#45;&gt;Node7 -->
<g id="edge6" class="edge"><title>Node4&#45;&gt;Node7</title>
<path fill="none" stroke="midnightblue" d="M1889.95,-67.4195C1923.09,-58.5784 1976,-44.256 2021.5,-31 2025.56,-29.8176 2029.8,-28.5503 2034.01,-27.2752"/>
<polygon fill="midnightblue" stroke="midnightblue" points="2035.13,-30.5951 2043.66,-24.3219 2033.08,-23.9015 2035.13,-30.5951"/>
</g>
<!-- Node4&#45;&gt;Node8 -->
<g id="edge7" class="edge"><title>Node4&#45;&gt;Node8</title>
<path fill="none" stroke="midnightblue" d="M1816.71,-67.4639C1781.28,-59.5595 1728.83,-46.6778 1684.5,-31 1682.84,-30.4127 1681.15,-29.7735 1679.45,-29.1014"/>
<polygon fill="midnightblue" stroke="midnightblue" points="1680.46,-25.7257 1669.88,-25.0274 1677.71,-32.1659 1680.46,-25.7257"/>
</g>
<!-- Node9 -->
<g id="node9" class="node"><title>Node9</title>
<polygon fill="none" stroke="#bfbfbf" points="1753.5,-6 1753.5,-25 1809.5,-25 1809.5,-6 1753.5,-6"/>
<text text-anchor="middle" x="1781.5" y="-13" font-family="Helvetica,sans-Serif" font-size="10.00">algorithm</text>
</g>
<!-- Node4&#45;&gt;Node9 -->
<g id="edge8" class="edge"><title>Node4&#45;&gt;Node9</title>
<path fill="none" stroke="midnightblue" d="M1846.61,-67.4751C1834.53,-58.0199 1814.83,-42.5961 1800.26,-31.1871"/>
<polygon fill="midnightblue" stroke="midnightblue" points="1802.4,-28.4177 1792.37,-25.0091 1798.09,-33.9295 1802.4,-28.4177"/>
</g>
<!-- Node10 -->
<g id="node10" class="node"><title>Node10</title>
<polygon fill="none" stroke="#bfbfbf" points="1828,-6 1828,-25 1887,-25 1887,-6 1828,-6"/>
<text text-anchor="middle" x="1857.5" y="-13" font-family="Helvetica,sans-Serif" font-size="10.00">stdexcept</text>
</g>
<!-- Node4&#45;&gt;Node10 -->
<g id="edge9" class="edge"><title>Node4&#45;&gt;Node10</title>
<path fill="none" stroke="midnightblue" d="M1857.5,-67.4751C1857.5,-59.0803 1857.5,-45.9806 1857.5,-35.1631"/>
<polygon fill="midnightblue" stroke="midnightblue" points="1861,-35.0091 1857.5,-25.0091 1854,-35.0091 1861,-35.0091"/>
</g>
<!-- Node11 -->
<g id="node11" class="node"><title>Node11</title>
<polygon fill="none" stroke="#bfbfbf" points="1694,-6 1694,-25 1735,-25 1735,-6 1694,-6"/>
<text text-anchor="middle" x="1714.5" y="-13" font-family="Helvetica,sans-Serif" font-size="10.00">string</text>
</g>
<!-- Node4&#45;&gt;Node11 -->
<g id="edge10" class="edge"><title>Node4&#45;&gt;Node11</title>
<path fill="none" stroke="midnightblue" d="M1834.36,-67.3393C1811.38,-58.6085 1775.23,-44.5249 1744.5,-31 1743.34,-30.4888 1742.16,-29.9587 1740.96,-29.4168"/>
<polygon fill="midnightblue" stroke="midnightblue" points="1742.39,-26.221 1731.85,-25.1458 1739.42,-32.5592 1742.39,-26.221"/>
</g>
<!-- Node12 -->
<g id="node12" class="node"><title>Node12</title>
<polygon fill="none" stroke="#bfbfbf" points="1905,-6 1905,-25 1950,-25 1950,-6 1905,-6"/>
<text text-anchor="middle" x="1927.5" y="-13" font-family="Helvetica,sans-Serif" font-size="10.00">climits</text>
</g>
<!-- Node4&#45;&gt;Node12 -->
<g id="edge11" class="edge"><title>Node4&#45;&gt;Node12</title>
<path fill="none" stroke="midnightblue" d="M1867.53,-67.4751C1878.55,-58.1082 1896.46,-42.8839 1909.84,-31.5081"/>
<polygon fill="midnightblue" stroke="midnightblue" points="1912.14,-34.1524 1917.49,-25.0091 1907.6,-28.8188 1912.14,-34.1524"/>
</g>
<!-- Node13 -->
<g id="node13" class="node"><title>Node13</title>
<g id="a_node13"><a xlink:href="../../d7/df8/Types_8h.html" target="_top" xlink:title="MemoryResources/Types.h">
<polygon fill="none" stroke="black" points="1474,-6 1474,-25 1611,-25 1611,-6 1474,-6"/>
<text text-anchor="middle" x="1542.5" y="-13" font-family="Helvetica,sans-Serif" font-size="10.00">MemoryResources/Types.h</text>
</a>
</g>
</g>
<!-- Node4&#45;&gt;Node13 -->
<g id="edge12" class="edge"><title>Node4&#45;&gt;Node13</title>
<path fill="none" stroke="midnightblue" d="M1812.37,-67.4751C1755.64,-56.7606 1658.35,-38.3821 1597.38,-26.8661"/>
<polygon fill="midnightblue" stroke="midnightblue" points="1598.02,-23.426 1587.55,-25.0091 1596.72,-30.3044 1598.02,-23.426"/>
</g>
<!-- Node14 -->
<g id="node14" class="node"><title>Node14</title>
<polygon fill="none" stroke="#bfbfbf" points="1968.5,-6 1968.5,-25 2012.5,-25 2012.5,-6 1968.5,-6"/>
<text text-anchor="middle" x="1990.5" y="-13" font-family="Helvetica,sans-Serif" font-size="10.00">cerrno</text>
</g>
<!-- Node4&#45;&gt;Node14 -->
<g id="edge13" class="edge"><title>Node4&#45;&gt;Node14</title>
<path fill="none" stroke="midnightblue" d="M1876.88,-67.4094C1897.22,-58.3805 1930.13,-43.7458 1958.5,-31 1959.69,-30.4657 1960.9,-29.9195 1962.13,-29.3671"/>
<polygon fill="midnightblue" stroke="midnightblue" points="1963.89,-32.4141 1971.56,-25.1071 1961,-26.0349 1963.89,-32.4141"/>
</g>
<!-- Node16&#45;&gt;Node4 -->
<g id="edge16" class="edge"><title>Node16&#45;&gt;Node4</title>
<path fill="none" stroke="midnightblue" d="M1661.31,-128.975C1701.7,-118.482 1770.38,-100.637 1814.83,-89.087"/>
<polygon fill="midnightblue" stroke="midnightblue" points="1815.95,-92.4114 1824.75,-86.5091 1814.19,-85.6364 1815.95,-92.4114"/>
</g>
<!-- Node18&#45;&gt;Node11 -->
<g id="edge55" class="edge"><title>Node18&#45;&gt;Node11</title>
<path fill="none" stroke="midnightblue" d="M1373.96,-258.266C1307.07,-249.162 1207.08,-233.679 1194.5,-221 1163.6,-189.846 1154.41,-156.709 1182.5,-123 1218.8,-79.4378 1630.6,-48.6086 1684.5,-31 1686.13,-30.469 1687.78,-29.8672 1689.42,-29.2182"/>
<polygon fill="midnightblue" stroke="midnightblue" points="1690.91,-32.3896 1698.64,-25.1466 1688.08,-25.9867 1690.91,-32.3896"/>
</g>
<!-- Node18&#45;&gt;Node15 -->
<g id="edge19" class="edge"><title>Node18&#45;&gt;Node15</title>
<path fill="none" stroke="midnightblue" d="M1422.33,-257.305C1392.53,-236.001 1315.57,-180.999 1278.31,-154.375"/>
<polygon fill="midnightblue" stroke="midnightblue" points="1279.92,-151.223 1269.75,-148.256 1275.85,-156.918 1279.92,-151.223"/>
</g>
<!-- Node18&#45;&gt;Node16 -->
<g id="edge20" class="edge"><title>Node18&#45;&gt;Node16</title>
<path fill="none" stroke="midnightblue" d="M1494.74,-257.457C1539.12,-249.94 1594.44,-237.602 1610.5,-221 1626.6,-204.356 1629.62,-176.727 1629.61,-158.317"/>
<polygon fill="midnightblue" stroke="midnightblue" points="1633.1,-158.116 1629.3,-148.227 1626.1,-158.328 1633.1,-158.116"/>
</g>
<!-- Node18&#45;&gt;Node17 -->
<g id="edge57" class="edge"><title>Node18&#45;&gt;Node17</title>
<path fill="none" stroke="midnightblue" d="M1423.84,-257.321C1407.52,-242.945 1379.7,-213.451 1394.5,-190 1410.38,-164.851 1442.59,-151.965 1467.35,-145.533"/>
<polygon fill="midnightblue" stroke="midnightblue" points="1468.18,-148.934 1477.11,-143.226 1466.57,-142.122 1468.18,-148.934"/>
</g>
<!-- Node18&#45;&gt;Node19 -->
<g id="edge21" class="edge"><title>Node18&#45;&gt;Node19</title>
<path fill="none" stroke="midnightblue" d="M1495.11,-257.475C1570.21,-246.91 1698.3,-228.893 1780.35,-217.352"/>
<polygon fill="midnightblue" stroke="midnightblue" points="1780.96,-220.801 1790.37,-215.943 1779.98,-213.87 1780.96,-220.801"/>
</g>
<!-- Node39 -->
<g id="node39" class="node"><title>Node39</title>
<polygon fill="none" stroke="#bfbfbf" points="1403.5,-196 1403.5,-215 1455.5,-215 1455.5,-196 1403.5,-196"/>
<text text-anchor="middle" x="1429.5" y="-203" font-family="Helvetica,sans-Serif" font-size="10.00">ostream</text>
</g>
<!-- Node18&#45;&gt;Node39 -->
<g id="edge56" class="edge"><title>Node18&#45;&gt;Node39</title>
<path fill="none" stroke="midnightblue" d="M1433.78,-257.475C1433.08,-249.08 1431.98,-235.981 1431.07,-225.163"/>
<polygon fill="midnightblue" stroke="midnightblue" points="1434.54,-224.681 1430.22,-215.009 1427.56,-225.267 1434.54,-224.681"/>
</g>
<!-- Node19&#45;&gt;Node4 -->
<g id="edge29" class="edge"><title>Node19&#45;&gt;Node4</title>
<path fill="none" stroke="midnightblue" d="M1857.5,-190.479C1857.5,-167.719 1857.5,-122.702 1857.5,-97.0582"/>
<polygon fill="midnightblue" stroke="midnightblue" points="1861,-96.7885 1857.5,-86.7885 1854,-96.7886 1861,-96.7885"/>
</g>
<!-- Node19&#45;&gt;Node5 -->
<g id="edge49" class="edge"><title>Node19&#45;&gt;Node5</title>
<path fill="none" stroke="midnightblue" d="M1924.66,-191.633C1928.32,-191.051 1931.95,-190.502 1935.5,-190 1976.29,-184.23 2276.82,-184.51 2304.5,-154 2337.38,-117.753 2289.91,-60.3853 2262.55,-32.6163"/>
<polygon fill="midnightblue" stroke="midnightblue" points="2264.71,-29.8321 2255.13,-25.3069 2259.8,-34.8185 2264.71,-29.8321"/>
</g>
<!-- Node19&#45;&gt;Node11 -->
<g id="edge51" class="edge"><title>Node19&#45;&gt;Node11</title>
<path fill="none" stroke="midnightblue" d="M1846.75,-190.369C1820.88,-156.361 1755.24,-70.0635 1727.35,-33.3968"/>
<polygon fill="midnightblue" stroke="midnightblue" points="1729.96,-31.0464 1721.12,-25.2062 1724.39,-35.2843 1729.96,-31.0464"/>
</g>
<!-- Node19&#45;&gt;Node16 -->
<g id="edge22" class="edge"><title>Node19&#45;&gt;Node16</title>
<path fill="none" stroke="midnightblue" d="M1808.09,-190.476C1766.33,-178.622 1707.27,-161.858 1668.44,-150.838"/>
<polygon fill="midnightblue" stroke="midnightblue" points="1669.12,-147.392 1658.55,-148.029 1667.21,-154.126 1669.12,-147.392"/>
</g>
<!-- Node19&#45;&gt;Node17 -->
<g id="edge52" class="edge"><title>Node19&#45;&gt;Node17</title>
<path fill="none" stroke="midnightblue" d="M1790.35,-199.418C1723.8,-193.142 1619.5,-179.944 1532.5,-154 1530.57,-153.425 1528.61,-152.757 1526.65,-152.03"/>
<polygon fill="midnightblue" stroke="midnightblue" points="1527.69,-148.67 1517.11,-148.056 1525,-155.132 1527.69,-148.67"/>
</g>
<!-- Node20 -->
<g id="node20" class="node"><title>Node20</title>
<g id="a_node20"><a xlink:href="../../d6/dc9/DataProcessingHeader_8h.html" target="_top" xlink:title="Framework/DataProcessing\lHeader.h">
<polygon fill="none" stroke="black" points="2157.5,-123.5 2157.5,-153.5 2295.5,-153.5 2295.5,-123.5 2157.5,-123.5"/>
<text text-anchor="start" x="2165.5" y="-141.5" font-family="Helvetica,sans-Serif" font-size="10.00">Framework/DataProcessing</text>
<text text-anchor="middle" x="2226.5" y="-130.5" font-family="Helvetica,sans-Serif" font-size="10.00">Header.h</text>
</a>
</g>
</g>
<!-- Node19&#45;&gt;Node20 -->
<g id="edge23" class="edge"><title>Node19&#45;&gt;Node20</title>
<path fill="none" stroke="midnightblue" d="M1924.71,-191.933C1928.36,-191.274 1931.97,-190.626 1935.5,-190 2026.89,-173.783 2052.3,-170.953 2147.16,-154.22"/>
<polygon fill="midnightblue" stroke="midnightblue" points="2147.95,-157.635 2157.19,-152.446 2146.73,-150.742 2147.95,-157.635"/>
</g>
<!-- Node22 -->
<g id="node22" class="node"><title>Node22</title>
<g id="a_node22"><a xlink:href="../../d4/d00/Headers_2include_2Headers_2Stack_8h.html" target="_top" xlink:title="Headers/Stack.h">
<polygon fill="none" stroke="black" points="1331.5,-129 1331.5,-148 1421.5,-148 1421.5,-129 1331.5,-129"/>
<text text-anchor="middle" x="1376.5" y="-136" font-family="Helvetica,sans-Serif" font-size="10.00">Headers/Stack.h</text>
</a>
</g>
</g>
<!-- Node19&#45;&gt;Node22 -->
<g id="edge30" class="edge"><title>Node19&#45;&gt;Node22</title>
<path fill="none" stroke="midnightblue" d="M1790.31,-196.341C1712.71,-186.787 1581.24,-170.2 1468.5,-154 1456.62,-152.293 1443.9,-150.357 1431.82,-148.469"/>
<polygon fill="midnightblue" stroke="midnightblue" points="1432.28,-144.998 1421.85,-146.899 1431.19,-151.913 1432.28,-144.998"/>
</g>
<!-- Node30 -->
<g id="node30" class="node"><title>Node30</title>
<polygon fill="none" stroke="#bfbfbf" points="1411.5,-6 1411.5,-25 1455.5,-25 1455.5,-6 1411.5,-6"/>
<text text-anchor="middle" x="1433.5" y="-13" font-family="Helvetica,sans-Serif" font-size="10.00">vector</text>
</g>
<!-- Node19&#45;&gt;Node30 -->
<g id="edge53" class="edge"><title>Node19&#45;&gt;Node30</title>
<path fill="none" stroke="midnightblue" d="M1837.35,-190.43C1811.75,-172.989 1765.8,-143.112 1723.5,-123 1613.18,-70.5407 1577.51,-77.3763 1464.5,-31 1463.13,-30.4361 1461.72,-29.844 1460.31,-29.2347"/>
<polygon fill="midnightblue" stroke="midnightblue" points="1461.63,-25.989 1451.07,-25.0782 1458.76,-32.3727 1461.63,-25.989"/>
</g>
<!-- Node36 -->
<g id="node36" class="node"><title>Node36</title>
<polygon fill="none" stroke="#bfbfbf" points="1885.5,-129 1885.5,-148 1923.5,-148 1923.5,-129 1885.5,-129"/>
<text text-anchor="middle" x="1904.5" y="-136" font-family="Helvetica,sans-Serif" font-size="10.00">array</text>
</g>
<!-- Node19&#45;&gt;Node36 -->
<g id="edge48" class="edge"><title>Node19&#45;&gt;Node36</title>
<path fill="none" stroke="midnightblue" d="M1867.7,-190.396C1874.88,-180.462 1884.54,-167.108 1892.16,-156.572"/>
<polygon fill="midnightblue" stroke="midnightblue" points="1895.19,-158.349 1898.21,-148.195 1889.52,-154.247 1895.19,-158.349"/>
</g>
<!-- Node37 -->
<g id="node37" class="node"><title>Node37</title>
<polygon fill="none" stroke="#bfbfbf" points="1942,-129 1942,-148 1987,-148 1987,-129 1942,-129"/>
<text text-anchor="middle" x="1964.5" y="-136" font-family="Helvetica,sans-Serif" font-size="10.00">iosfwd</text>
</g>
<!-- Node19&#45;&gt;Node37 -->
<g id="edge50" class="edge"><title>Node19&#45;&gt;Node37</title>
<path fill="none" stroke="midnightblue" d="M1880.72,-190.396C1898.83,-179.395 1923.84,-164.2 1941.81,-153.282"/>
<polygon fill="midnightblue" stroke="midnightblue" points="1943.77,-156.19 1950.5,-148.007 1940.13,-150.208 1943.77,-156.19"/>
</g>
<!-- Node38 -->
<g id="node38" class="node"><title>Node38</title>
<polygon fill="none" stroke="#bfbfbf" points="2005.5,-129 2005.5,-148 2139.5,-148 2139.5,-129 2005.5,-129"/>
<text text-anchor="middle" x="2072.5" y="-136" font-family="Helvetica,sans-Serif" font-size="10.00">DataDescriptorMatcher.inc</text>
</g>
<!-- Node19&#45;&gt;Node38 -->
<g id="edge54" class="edge"><title>Node19&#45;&gt;Node38</title>
<path fill="none" stroke="midnightblue" d="M1903.89,-190.476C1942.93,-178.673 1998.07,-162.001 2034.53,-150.979"/>
<polygon fill="midnightblue" stroke="midnightblue" points="2035.73,-154.273 2044.29,-148.029 2033.7,-147.572 2035.73,-154.273"/>
</g>
<!-- Node20&#45;&gt;Node4 -->
<g id="edge24" class="edge"><title>Node20&#45;&gt;Node4</title>
<path fill="none" stroke="midnightblue" d="M2157.2,-124.504C2154.26,-123.989 2151.35,-123.485 2148.5,-123 2072.51,-110.065 1985.09,-96.7567 1926.06,-88.0018"/>
<polygon fill="midnightblue" stroke="midnightblue" points="1926.51,-84.5308 1916.11,-86.5291 1925.49,-91.4554 1926.51,-84.5308"/>
</g>
<!-- Node20&#45;&gt;Node5 -->
<g id="edge25" class="edge"><title>Node20&#45;&gt;Node5</title>
<path fill="none" stroke="midnightblue" d="M2228.75,-123.145C2232.2,-101.203 2238.78,-59.3268 2242.58,-35.0906"/>
<polygon fill="midnightblue" stroke="midnightblue" points="2246.06,-35.4741 2244.16,-25.0522 2239.15,-34.3882 2246.06,-35.4741"/>
</g>
<!-- Node20&#45;&gt;Node6 -->
<g id="edge27" class="edge"><title>Node20&#45;&gt;Node6</title>
<path fill="none" stroke="midnightblue" d="M2218.8,-123.418C2210.98,-109.161 2198.49,-86.4961 2187.5,-67 2181.24,-55.9028 2174.12,-43.4958 2168.5,-33.7567"/>
<polygon fill="midnightblue" stroke="midnightblue" points="2171.5,-31.9586 2163.47,-25.0542 2165.44,-35.463 2171.5,-31.9586"/>
</g>
<!-- Node20&#45;&gt;Node7 -->
<g id="edge28" class="edge"><title>Node20&#45;&gt;Node7</title>
<path fill="none" stroke="midnightblue" d="M2189.65,-123.297C2169.77,-114.589 2145.48,-102.192 2126.5,-87 2107.44,-71.7444 2090.32,-49.3242 2079.7,-33.8839"/>
<polygon fill="midnightblue" stroke="midnightblue" points="2082.44,-31.6746 2073.98,-25.2987 2076.61,-35.5597 2082.44,-31.6746"/>
</g>
<!-- Node21 -->
<g id="node21" class="node"><title>Node21</title>
<polygon fill="none" stroke="#bfbfbf" points="2136,-67.5 2136,-86.5 2179,-86.5 2179,-67.5 2136,-67.5"/>
<text text-anchor="middle" x="2157.5" y="-74.5" font-family="Helvetica,sans-Serif" font-size="10.00">cstdio</text>
</g>
<!-- Node20&#45;&gt;Node21 -->
<g id="edge26" class="edge"><title>Node20&#45;&gt;Node21</title>
<path fill="none" stroke="midnightblue" d="M2210.15,-123.399C2199.6,-114.308 2185.9,-102.49 2175.12,-93.1909"/>
<polygon fill="midnightblue" stroke="midnightblue" points="2177.4,-90.5377 2167.54,-86.6578 2172.83,-95.8389 2177.4,-90.5377"/>
</g>
<!-- Node22&#45;&gt;Node4 -->
<g id="edge47" class="edge"><title>Node22&#45;&gt;Node4</title>
<path fill="none" stroke="midnightblue" d="M1407.87,-128.958C1416.75,-126.768 1426.46,-124.585 1435.5,-123 1558.98,-101.344 1704.75,-88.596 1788.62,-82.4814"/>
<polygon fill="midnightblue" stroke="midnightblue" points="1789.06,-85.9587 1798.79,-81.7508 1788.56,-78.9768 1789.06,-85.9587"/>
</g>
<!-- Node23 -->
<g id="node23" class="node"><title>Node23</title>
<g id="a_node23"><a xlink:href="../../dc/d03/MemoryResources_8h.html" target="_top" xlink:title="MemoryResources/MemoryResources.h">
<polygon fill="none" stroke="black" points="990,-67.5 990,-86.5 1183,-86.5 1183,-67.5 990,-67.5"/>
<text text-anchor="middle" x="1086.5" y="-74.5" font-family="Helvetica,sans-Serif" font-size="10.00">MemoryResources/MemoryResources.h</text>
</a>
</g>
</g>
<!-- Node22&#45;&gt;Node23 -->
<g id="edge31" class="edge"><title>Node22&#45;&gt;Node23</title>
<path fill="none" stroke="midnightblue" d="M1345.76,-128.997C1337.88,-126.927 1329.4,-124.795 1321.5,-123 1262.44,-109.577 1194.43,-96.8469 1146.82,-88.3746"/>
<polygon fill="midnightblue" stroke="midnightblue" points="1147.13,-84.8765 1136.68,-86.5798 1145.91,-91.7693 1147.13,-84.8765"/>
</g>
<!-- Node23&#45;&gt;Node8 -->
<g id="edge36" class="edge"><title>Node23&#45;&gt;Node8</title>
<path fill="none" stroke="midnightblue" d="M1183.22,-69.565C1325.39,-59.8426 1578.47,-41.4387 1619.5,-31 1621.8,-30.4142 1624.15,-29.6832 1626.47,-28.863"/>
<polygon fill="midnightblue" stroke="midnightblue" points="1627.78,-32.1097 1635.75,-25.1321 1625.17,-25.615 1627.78,-32.1097"/>
</g>
<!-- Node23&#45;&gt;Node11 -->
<g id="edge37" class="edge"><title>Node23&#45;&gt;Node11</title>
<path fill="none" stroke="midnightblue" d="M1183.17,-70.7093C1340.08,-61.8241 1637.5,-43.6383 1684.5,-31 1686.43,-30.4818 1688.38,-29.8399 1690.32,-29.1171"/>
<polygon fill="midnightblue" stroke="midnightblue" points="1691.91,-32.2412 1699.67,-25.0266 1689.1,-25.8281 1691.91,-32.2412"/>
</g>
<!-- Node23&#45;&gt;Node13 -->
<g id="edge46" class="edge"><title>Node23&#45;&gt;Node13</title>
<path fill="none" stroke="midnightblue" d="M1171.54,-67.4808C1248.29,-59.4106 1364.21,-46.2747 1464.5,-31 1472.53,-29.7762 1481.01,-28.3462 1489.3,-26.8701"/>
<polygon fill="midnightblue" stroke="midnightblue" points="1490.05,-30.2899 1499.26,-25.0574 1488.8,-23.4028 1490.05,-30.2899"/>
</g>
<!-- Node24 -->
<g id="node24" class="node"><title>Node24</title>
<polygon fill="none" stroke="#bfbfbf" points="593.5,-0.5 593.5,-30.5 693.5,-30.5 693.5,-0.5 593.5,-0.5"/>
<text text-anchor="start" x="601.5" y="-18.5" font-family="Helvetica,sans-Serif" font-size="10.00">boost/container/flat</text>
<text text-anchor="middle" x="643.5" y="-7.5" font-family="Helvetica,sans-Serif" font-size="10.00">_map.hpp</text>
</g>
<!-- Node23&#45;&gt;Node24 -->
<g id="edge32" class="edge"><title>Node23&#45;&gt;Node24</title>
<path fill="none" stroke="midnightblue" d="M989.744,-68.0181C914.235,-61.0092 806.576,-49.3102 703.573,-31.0547"/>
<polygon fill="midnightblue" stroke="midnightblue" points="704.082,-27.5902 693.621,-29.2675 702.845,-34.48 704.082,-27.5902"/>
</g>
<!-- Node25 -->
<g id="node25" class="node"><title>Node25</title>
<polygon fill="none" stroke="#bfbfbf" points="711.5,-0.5 711.5,-30.5 827.5,-30.5 827.5,-0.5 711.5,-0.5"/>
<text text-anchor="start" x="719.5" y="-18.5" font-family="Helvetica,sans-Serif" font-size="10.00">boost/container/pmr</text>
<text text-anchor="middle" x="769.5" y="-7.5" font-family="Helvetica,sans-Serif" font-size="10.00">/memory_resource.hpp</text>
</g>
<!-- Node23&#45;&gt;Node25 -->
<g id="edge33" class="edge"><title>Node23&#45;&gt;Node25</title>
<path fill="none" stroke="midnightblue" d="M1036.12,-67.466C987.738,-59.1491 912.325,-45.8738 837.633,-31.1861"/>
<polygon fill="midnightblue" stroke="midnightblue" points="838.068,-27.7045 827.579,-29.1996 836.711,-34.5717 838.068,-27.7045"/>
</g>
<!-- Node26 -->
<g id="node26" class="node"><title>Node26</title>
<polygon fill="none" stroke="#bfbfbf" points="845.5,-0.5 845.5,-30.5 1001.5,-30.5 1001.5,-0.5 845.5,-0.5"/>
<text text-anchor="start" x="853.5" y="-18.5" font-family="Helvetica,sans-Serif" font-size="10.00">boost/container/pmr</text>
<text text-anchor="middle" x="923.5" y="-7.5" font-family="Helvetica,sans-Serif" font-size="10.00">/monotonic_buffer_resource.hpp</text>
</g>
<!-- Node23&#45;&gt;Node26 -->
<g id="edge34" class="edge"><title>Node23&#45;&gt;Node26</title>
<path fill="none" stroke="midnightblue" d="M1063.15,-67.4751C1039.32,-58.7765 1001.65,-45.0264 971.436,-33.9981"/>
<polygon fill="midnightblue" stroke="midnightblue" points="972.51,-30.6642 961.916,-30.523 970.109,-37.2398 972.51,-30.6642"/>
</g>
<!-- Node27 -->
<g id="node27" class="node"><title>Node27</title>
<polygon fill="none" stroke="#bfbfbf" points="1020,-0.5 1020,-30.5 1153,-30.5 1153,-0.5 1020,-0.5"/>
<text text-anchor="start" x="1028" y="-18.5" font-family="Helvetica,sans-Serif" font-size="10.00">boost/container/pmr</text>
<text text-anchor="middle" x="1086.5" y="-7.5" font-family="Helvetica,sans-Serif" font-size="10.00">/polymorphic_allocator.hpp</text>
</g>
<!-- Node23&#45;&gt;Node27 -->
<g id="edge35" class="edge"><title>Node23&#45;&gt;Node27</title>
<path fill="none" stroke="midnightblue" d="M1086.5,-67.4751C1086.5,-60.471 1086.5,-50.1919 1086.5,-40.6956"/>
<polygon fill="midnightblue" stroke="midnightblue" points="1090,-40.5229 1086.5,-30.523 1083,-40.523 1090,-40.5229"/>
</g>
<!-- Node28 -->
<g id="node28" class="node"><title>Node28</title>
<polygon fill="none" stroke="#bfbfbf" points="1171.5,-6 1171.5,-25 1233.5,-25 1233.5,-6 1171.5,-6"/>
<text text-anchor="middle" x="1202.5" y="-13" font-family="Helvetica,sans-Serif" font-size="10.00">type_traits</text>
</g>
<!-- Node23&#45;&gt;Node28 -->
<g id="edge38" class="edge"><title>Node23&#45;&gt;Node28</title>
<path fill="none" stroke="midnightblue" d="M1103.12,-67.4751C1122.42,-57.578 1154.46,-41.1416 1176.93,-29.6151"/>
<polygon fill="midnightblue" stroke="midnightblue" points="1178.61,-32.6873 1185.91,-25.0091 1175.42,-26.4589 1178.61,-32.6873"/>
</g>
<!-- Node29 -->
<g id="node29" class="node"><title>Node29</title>
<polygon fill="none" stroke="#bfbfbf" points="1251.5,-6 1251.5,-25 1291.5,-25 1291.5,-6 1251.5,-6"/>
<text text-anchor="middle" x="1271.5" y="-13" font-family="Helvetica,sans-Serif" font-size="10.00">utility</text>
</g>
<!-- Node23&#45;&gt;Node29 -->
<g id="edge39" class="edge"><title>Node23&#45;&gt;Node29</title>
<path fill="none" stroke="midnightblue" d="M1123.06,-67.4694C1155.08,-59.5255 1202.59,-46.583 1242.5,-31 1243.88,-30.4626 1245.28,-29.8829 1246.68,-29.2753"/>
<polygon fill="midnightblue" stroke="midnightblue" points="1248.21,-32.4225 1255.78,-25.0121 1245.24,-26.083 1248.21,-32.4225"/>
</g>
<!-- Node23&#45;&gt;Node30 -->
<g id="edge40" class="edge"><title>Node23&#45;&gt;Node30</title>
<path fill="none" stroke="midnightblue" d="M1163.9,-67.4876C1242.39,-58.399 1358.28,-43.6012 1401.5,-31 1403.43,-30.4367 1405.4,-29.7776 1407.36,-29.0569"/>
<polygon fill="midnightblue" stroke="midnightblue" points="1409.01,-32.1619 1416.9,-25.0969 1406.32,-25.6963 1409.01,-32.1619"/>
</g>
<!-- Node31 -->
<g id="node31" class="node"><title>Node31</title>
<polygon fill="none" stroke="#bfbfbf" points="1310,-6 1310,-25 1393,-25 1393,-6 1310,-6"/>
<text text-anchor="middle" x="1351.5" y="-13" font-family="Helvetica,sans-Serif" font-size="10.00">unordered_map</text>
</g>
<!-- Node23&#45;&gt;Node31 -->
<g id="edge41" class="edge"><title>Node23&#45;&gt;Node31</title>
<path fill="none" stroke="midnightblue" d="M1131.8,-67.4277C1175.26,-58.979 1242.63,-45.2918 1300.5,-31 1304.57,-29.9944 1308.81,-28.8874 1313.03,-27.747"/>
<polygon fill="midnightblue" stroke="midnightblue" points="1314.03,-31.1002 1322.73,-25.0574 1312.16,-24.3543 1314.03,-31.1002"/>
</g>
<!-- Node32 -->
<g id="node32" class="node"><title>Node32</title>
<polygon fill="none" stroke="#bfbfbf" points="0,-6 0,-25 97,-25 97,-6 0,-6"/>
<text text-anchor="middle" x="48.5" y="-13" font-family="Helvetica,sans-Serif" font-size="10.00">FairMQMessage.h</text>
</g>
<!-- Node23&#45;&gt;Node32 -->
<g id="edge42" class="edge"><title>Node23&#45;&gt;Node32</title>
<path fill="none" stroke="midnightblue" d="M989.622,-74.0609C776.776,-69.3924 273.93,-56.0202 105.5,-31 99.5472,-30.1157 93.3142,-28.8701 87.2455,-27.4763"/>
<polygon fill="midnightblue" stroke="midnightblue" points="87.8118,-24.0115 77.2659,-25.0285 86.1442,-30.81 87.8118,-24.0115"/>
</g>
<!-- Node33 -->
<g id="node33" class="node"><title>Node33</title>
<polygon fill="none" stroke="#bfbfbf" points="115,-6 115,-25 246,-25 246,-6 115,-6"/>
<text text-anchor="middle" x="180.5" y="-13" font-family="Helvetica,sans-Serif" font-size="10.00">FairMQTransportFactory.h</text>
</g>
<!-- Node23&#45;&gt;Node33 -->
<g id="edge43" class="edge"><title>Node23&#45;&gt;Node33</title>
<path fill="none" stroke="midnightblue" d="M989.712,-75.1354C834.167,-72.7656 519.169,-63.9248 254.5,-31 246.096,-29.9546 237.215,-28.5116 228.633,-26.9389"/>
<polygon fill="midnightblue" stroke="midnightblue" points="229.223,-23.4883 218.744,-25.0489 227.909,-30.3639 229.223,-23.4883"/>
</g>
<!-- Node34 -->
<g id="node34" class="node"><title>Node34</title>
<polygon fill="none" stroke="#bfbfbf" points="264,-6 264,-25 401,-25 401,-6 264,-6"/>
<text text-anchor="middle" x="332.5" y="-13" font-family="Helvetica,sans-Serif" font-size="10.00">fairmq/MemoryResources.h</text>
</g>
<!-- Node23&#45;&gt;Node34 -->
<g id="edge44" class="edge"><title>Node23&#45;&gt;Node34</title>
<path fill="none" stroke="midnightblue" d="M989.887,-73.1324C858.387,-68.4176 615.894,-56.8369 410.5,-31 401.663,-29.8884 392.314,-28.4132 383.275,-26.829"/>
<polygon fill="midnightblue" stroke="midnightblue" points="383.71,-23.3508 373.245,-25.0077 382.459,-30.2382 383.71,-23.3508"/>
</g>
<!-- Node35 -->
<g id="node35" class="node"><title>Node35</title>
<polygon fill="none" stroke="#bfbfbf" points="419.5,-6 419.5,-25 575.5,-25 575.5,-6 419.5,-6"/>
<text text-anchor="middle" x="497.5" y="-13" font-family="Helvetica,sans-Serif" font-size="10.00">fairmq/MemoryResourceTools.h</text>
</g>
<!-- Node23&#45;&gt;Node35 -->
<g id="edge45" class="edge"><title>Node23&#45;&gt;Node35</title>
<path fill="none" stroke="midnightblue" d="M989.559,-69.498C888.28,-62.1931 724.89,-48.9653 584.5,-31 574.918,-29.7738 564.775,-28.2714 554.93,-26.7034"/>
<polygon fill="midnightblue" stroke="midnightblue" points="555.247,-23.209 544.814,-25.0545 554.121,-30.1178 555.247,-23.209"/>
</g>
<!-- Node40&#45;&gt;Node4 -->
<g id="edge60" class="edge"><title>Node40&#45;&gt;Node4</title>
<path fill="none" stroke="midnightblue" d="M1240.87,-195.779C1215.23,-180.425 1169.28,-147.842 1192.5,-123 1232.56,-80.1387 1626.47,-76.9454 1788.46,-77.4693"/>
<polygon fill="midnightblue" stroke="midnightblue" points="1788.78,-80.9704 1798.79,-77.5088 1788.81,-73.9705 1788.78,-80.9704"/>
</g>
<!-- Node40&#45;&gt;Node15 -->
<g id="edge61" class="edge"><title>Node40&#45;&gt;Node15</title>
<path fill="none" stroke="midnightblue" d="M1256.63,-195.734C1256.78,-186.183 1257.02,-170.618 1257.21,-158.283"/>
<polygon fill="midnightblue" stroke="midnightblue" points="1260.71,-158.18 1257.37,-148.127 1253.71,-158.072 1260.71,-158.18"/>
</g>
<!-- Node40&#45;&gt;Node22 -->
<g id="edge62" class="edge"><title>Node40&#45;&gt;Node22</title>
<path fill="none" stroke="midnightblue" d="M1272.68,-195.734C1292.93,-184.769 1327.8,-165.881 1351.49,-153.049"/>
<polygon fill="midnightblue" stroke="midnightblue" points="1353.45,-155.968 1360.57,-148.127 1350.11,-149.813 1353.45,-155.968"/>
</g>
<!-- Node42&#45;&gt;Node19 -->
<g id="edge66" class="edge"><title>Node42&#45;&gt;Node19</title>
<path fill="none" stroke="midnightblue" d="M1906.52,-313.319C1898.48,-295.812 1880.1,-255.749 1868.27,-229.97"/>
<polygon fill="midnightblue" stroke="midnightblue" points="1871.3,-228.174 1863.95,-220.545 1864.93,-231.094 1871.3,-228.174"/>
</g>
<!-- Node42&#45;&gt;Node43 -->
<g id="edge67" class="edge"><title>Node42&#45;&gt;Node43</title>
<path fill="none" stroke="midnightblue" d="M1927.85,-313.324C1945.17,-304.664 1972.02,-291.242 1992,-281.249"/>
<polygon fill="midnightblue" stroke="midnightblue" points="1993.81,-284.257 2001.19,-276.655 1990.68,-277.996 1993.81,-284.257"/>
</g>
<!-- Node44 -->
<g id="node44" class="node"><title>Node44</title>
<g id="a_node44"><a xlink:href="../../d9/de8/CompilerBuiltins_8h.html" target="_top" xlink:title="Framework/CompilerBuiltins.h">
<polygon fill="none" stroke="black" points="1944.5,-196 1944.5,-215 2092.5,-215 2092.5,-196 1944.5,-196"/>
<text text-anchor="middle" x="2018.5" y="-203" font-family="Helvetica,sans-Serif" font-size="10.00">Framework/CompilerBuiltins.h</text>
</a>
</g>
</g>
<!-- Node43&#45;&gt;Node44 -->
<g id="edge68" class="edge"><title>Node43&#45;&gt;Node44</title>
<path fill="none" stroke="midnightblue" d="M2018.5,-257.475C2018.5,-249.08 2018.5,-235.981 2018.5,-225.163"/>
<polygon fill="midnightblue" stroke="midnightblue" points="2022,-225.009 2018.5,-215.009 2015,-225.009 2022,-225.009"/>
</g>
</g>
</svg>
        <g id="navigator" transform="translate(0 0)" fill="#404254">
                <rect fill="#f2f5e9" fill-opacity="0.5" stroke="#606060" stroke-width=".5" x="0" y="0" width="60" height="60"/>
                <use id="zoomplus" xlink:href="#zoomPlus" x="17" y="9" onmousedown="handleZoom(evt,'in')"/>
                <use id="zoomminus" xlink:href="#zoomMin" x="42" y="9" onmousedown="handleZoom(evt,'out')"/>
                <use id="reset" xlink:href="#resetDef" x="30" y="36" onmousedown="handleReset()"/>
                <g id="arrowUp" xlink:href="#dirArrow" transform="translate(30 24)" onmousedown="handlePan(0,-1)">
                  <use xlink:href="#rim" fill="#404040">
                        <set attributeName="fill" to="#808080" begin="arrowUp.mouseover" end="arrowUp.mouseout"/>
                  </use>
                  <path fill="none" stroke="white" stroke-width="1.5" d="M0,-3.0v7 M-2.5,-0.5L0,-3.0L2.5,-0.5"/>
                </g>
                <g id="arrowRight" xlink:href="#dirArrow" transform="rotate(90) translate(36 -43)" onmousedown="handlePan(1,0)">
                  <use xlink:href="#rim" fill="#404040">
                        <set attributeName="fill" to="#808080" begin="arrowRight.mouseover" end="arrowRight.mouseout"/>
                  </use>
                  <path fill="none" stroke="white" stroke-width="1.5" d="M0,-3.0v7 M-2.5,-0.5L0,-3.0L2.5,-0.5"/>
                </g>
                <g id="arrowDown" xlink:href="#dirArrow" transform="rotate(180) translate(-30 -48)" onmousedown="handlePan(0,1)">
                  <use xlink:href="#rim" fill="#404040">
                        <set attributeName="fill" to="#808080" begin="arrowDown.mouseover" end="arrowDown.mouseout"/>
                  </use>
                  <path fill="none" stroke="white" stroke-width="1.5" d="M0,-3.0v7 M-2.5,-0.5L0,-3.0L2.5,-0.5"/>
                </g>
                <g id="arrowLeft" xlink:href="#dirArrow" transform="rotate(270) translate(-36 17)" onmousedown="handlePan(-1,0)">
                  <use xlink:href="#rim" fill="#404040">
                        <set attributeName="fill" to="#808080" begin="arrowLeft.mouseover" end="arrowLeft.mouseout"/>
                  </use>
                  <path fill="none" stroke="white" stroke-width="1.5" d="M0,-3.0v7 M-2.5,-0.5L0,-3.0L2.5,-0.5"/>
                </g>
        </g>
        <svg viewBox="0 0 15 15" width="100%" height="30px" preserveAspectRatio="xMaxYMin meet">
         <g id="arrow_out" transform="scale(0.3 0.3)">
          <a xlink:href="DataSpecUtils_8cxx__incl_org.svg" target="_base">
           <rect id="button" ry="5" rx="5" y="6" x="6" height="38" width="38"
                fill="#f2f5e9" fill-opacity="0.5" stroke="#606060" stroke-width="1.0"/>
           <path id="arrow"
             d="M 11.500037,31.436501 C 11.940474,20.09759 22.043105,11.32322 32.158766,21.979434 L 37.068811,17.246167 C 37.068811,17.246167 37.088388,32 37.088388,32 L 22.160133,31.978069 C 22.160133,31.978069 26.997745,27.140456 26.997745,27.140456 C 18.528582,18.264221 13.291696,25.230495 11.500037,31.436501 z"
             style="fill:#404040;"/>
          </a>
         </g>
        </svg>
</svg>
