<?xml version="1.0" encoding="UTF-8" standalone="no"?>
<!DOCTYPE svg PUBLIC "-//W3C//DTD SVG 1.1//EN"
 "http://www.w3.org/Graphics/SVG/1.1/DTD/svg11.dtd">
<!-- Generated by graphviz version 2.38.0 (20140413.2041)
 -->
<!-- Title: /home/travis/build/AliceO2Group/AliceO2/Detectors/MUON/MCH/Mapping/Interface/include/MCHMappingInterface/CathodeSegmentation.h Pages: 1 -->
<svg width="565pt" height="128pt"
 viewBox="0.00 0.00 564.50 128.00" xmlns="http://www.w3.org/2000/svg" xmlns:xlink="http://www.w3.org/1999/xlink">
<g id="graph0" class="graph" transform="scale(1 1) rotate(0) translate(4 124)">
<title>/home/travis/build/AliceO2Group/AliceO2/Detectors/MUON/MCH/Mapping/Interface/include/MCHMappingInterface/CathodeSegmentation.h</title>
<!-- Node1 -->
<g id="node1" class="node"><title>Node1</title>
<polygon fill="#bfbfbf" stroke="black" points="227,-56.5 227,-119.5 420,-119.5 420,-56.5 227,-56.5"/>
<text text-anchor="start" x="235" y="-107.5" font-family="Helvetica,sans-Serif" font-size="10.00">/home/travis/build</text>
<text text-anchor="start" x="235" y="-96.5" font-family="Helvetica,sans-Serif" font-size="10.00">/AliceO2Group/AliceO2</text>
<text text-anchor="start" x="235" y="-85.5" font-family="Helvetica,sans-Serif" font-size="10.00">/Detectors/MUON/MCH/Mapping</text>
<text text-anchor="start" x="235" y="-74.5" font-family="Helvetica,sans-Serif" font-size="10.00">/Interface/include/MCHMappingInterface</text>
<text text-anchor="middle" x="323.5" y="-63.5" font-family="Helvetica,sans-Serif" font-size="10.00">/CathodeSegmentation.h</text>
</g>
<!-- Node2 -->
<g id="node2" class="node"><title>Node2</title>
<g id="a_node2"><a xlink:href="../../d0/dc7/CathodeSegmentationCInterface_8h.html" target="_top" xlink:title="CathodeSegmentationCInterface.h">
<polygon fill="none" stroke="black" points="0,-0.5 0,-19.5 167,-19.5 167,-0.5 0,-0.5"/>
<text text-anchor="middle" x="83.5" y="-7.5" font-family="Helvetica,sans-Serif" font-size="10.00">CathodeSegmentationCInterface.h</text>
</a>
</g>
</g>
<!-- Node1&#45;&gt;Node2 -->
<g id="edge1" class="edge"><title>Node1&#45;&gt;Node2</title>
<path fill="none" stroke="midnightblue" d="M226.92,-56.4164C189.45,-44.5508 148.81,-31.6815 120.391,-22.6822"/>
<polygon fill="midnightblue" stroke="midnightblue" points="121.092,-19.233 110.502,-19.5507 118.979,-25.9064 121.092,-19.233"/>
</g>
<!-- Node3 -->
<g id="node3" class="node"><title>Node3</title>
<polygon fill="none" stroke="#bfbfbf" points="185,-0.5 185,-19.5 244,-19.5 244,-0.5 185,-0.5"/>
<text text-anchor="middle" x="214.5" y="-7.5" font-family="Helvetica,sans-Serif" font-size="10.00">stdexcept</text>
</g>
<!-- Node1&#45;&gt;Node3 -->
<g id="edge2" class="edge"><title>Node1&#45;&gt;Node3</title>
<path fill="none" stroke="midnightblue" d="M279.48,-56.307C264.265,-45.6988 247.919,-34.3011 235.427,-25.5912"/>
<polygon fill="midnightblue" stroke="midnightblue" points="237.288,-22.6223 227.084,-19.7738 233.285,-28.3644 237.288,-22.6223"/>
</g>
<!-- Node4 -->
<g id="node4" class="node"><title>Node4</title>
<polygon fill="none" stroke="#bfbfbf" points="262.5,-0.5 262.5,-19.5 314.5,-19.5 314.5,-0.5 262.5,-0.5"/>
<text text-anchor="middle" x="288.5" y="-7.5" font-family="Helvetica,sans-Serif" font-size="10.00">memory</text>
</g>
<!-- Node1&#45;&gt;Node4 -->
<g id="edge3" class="edge"><title>Node1&#45;&gt;Node4</title>
<path fill="none" stroke="midnightblue" d="M309.264,-56.0879C305.006,-46.8414 300.48,-37.0143 296.745,-28.9027"/>
<polygon fill="midnightblue" stroke="midnightblue" points="299.877,-27.3372 292.515,-19.7182 293.519,-30.2653 299.877,-27.3372"/>
</g>
<!-- Node5 -->
<g id="node5" class="node"><title>Node5</title>
<polygon fill="none" stroke="#bfbfbf" points="332.5,-0.5 332.5,-19.5 386.5,-19.5 386.5,-0.5 332.5,-0.5"/>
<text text-anchor="middle" x="359.5" y="-7.5" font-family="Helvetica,sans-Serif" font-size="10.00">iostream</text>
</g>
<!-- Node1&#45;&gt;Node5 -->
<g id="edge4" class="edge"><title>Node1&#45;&gt;Node5</title>
<path fill="none" stroke="midnightblue" d="M338.143,-56.0879C342.523,-46.8414 347.177,-37.0143 351.02,-28.9027"/>
<polygon fill="midnightblue" stroke="midnightblue" points="354.253,-30.2539 355.37,-19.7182 347.926,-27.2572 354.253,-30.2539"/>
</g>
<!-- Node6 -->
<g id="node6" class="node"><title>Node6</title>
<polygon fill="none" stroke="#bfbfbf" points="404.5,-0.5 404.5,-19.5 448.5,-19.5 448.5,-0.5 404.5,-0.5"/>
<text text-anchor="middle" x="426.5" y="-7.5" font-family="Helvetica,sans-Serif" font-size="10.00">vector</text>
</g>
<!-- Node1&#45;&gt;Node6 -->
<g id="edge5" class="edge"><title>Node1&#45;&gt;Node6</title>
<path fill="none" stroke="midnightblue" d="M365.097,-56.307C379.334,-45.8018 394.621,-34.5223 406.38,-25.8456"/>
<polygon fill="midnightblue" stroke="midnightblue" points="408.641,-28.5275 414.609,-19.7738 404.484,-22.8949 408.641,-28.5275"/>
</g>
<!-- Node7 -->
<g id="node7" class="node"><title>Node7</title>
<polygon fill="none" stroke="#bfbfbf" points="466.5,-0.5 466.5,-19.5 556.5,-19.5 556.5,-0.5 466.5,-0.5"/>
<text text-anchor="middle" x="511.5" y="-7.5" font-family="Helvetica,sans-Serif" font-size="10.00">boost/format.hpp</text>
</g>
<!-- Node1&#45;&gt;Node7 -->
<g id="edge6" class="edge"><title>Node1&#45;&gt;Node7</title>
<path fill="none" stroke="midnightblue" d="M399.154,-56.4164C427.645,-44.8989 458.475,-32.4356 480.619,-23.4839"/>
<polygon fill="midnightblue" stroke="midnightblue" points="482.183,-26.6269 490.142,-19.6341 479.559,-20.1371 482.183,-26.6269"/>
</g>
</g>
</svg>
