<?xml version="1.0" encoding="UTF-8" standalone="no"?>
<!DOCTYPE svg PUBLIC "-//W3C//DTD SVG 1.1//EN"
 "http://www.w3.org/Graphics/SVG/1.1/DTD/svg11.dtd">
<!-- Generated by graphviz version 2.38.0 (20140413.2041)
 -->
<!-- Title: o2::framework::expressions::LiteralNode Pages: 1 -->
<svg width="146pt" height="182pt"
 viewBox="0.00 0.00 145.50 182.00" xmlns="http://www.w3.org/2000/svg" xmlns:xlink="http://www.w3.org/1999/xlink">
<g id="graph0" class="graph" transform="scale(1 1) rotate(0) translate(4 178)">
<title>o2::framework::expressions::LiteralNode</title>
<!-- Node1 -->
<g id="node1" class="node"><title>Node1</title>
<polygon fill="#bfbfbf" stroke="black" points="0,-0.5 0,-68.5 137,-68.5 137,-0.5 0,-0.5"/>
<text text-anchor="start" x="8" y="-56.5" font-family="Helvetica,sans-Serif" font-size="10.00">o2::framework::expressions</text>
<text text-anchor="middle" x="68.5" y="-45.5" font-family="Helvetica,sans-Serif" font-size="10.00">::LiteralNode</text>
<polyline fill="none" stroke="black" points="0,-38.5 137,-38.5 "/>
<text text-anchor="middle" x="68.5" y="-26.5" font-family="Helvetica,sans-Serif" font-size="10.00"> </text>
<polyline fill="none" stroke="black" points="0,-19.5 137,-19.5 "/>
<text text-anchor="start" x="8" y="-7.5" font-family="Helvetica,sans-Serif" font-size="10.00">+ LiteralNode()</text>
</g>
<!-- Node2 -->
<g id="node2" class="node"><title>Node2</title>
<polygon fill="none" stroke="#bfbfbf" points="16,-116.5 16,-173.5 51,-173.5 51,-116.5 16,-116.5"/>
<text text-anchor="middle" x="33.5" y="-161.5" font-family="Helvetica,sans-Serif" font-size="10.00">type</text>
<polyline fill="none" stroke="#bfbfbf" points="16,-154.5 51,-154.5 "/>
<text text-anchor="middle" x="33.5" y="-142.5" font-family="Helvetica,sans-Serif" font-size="10.00"> </text>
<polyline fill="none" stroke="#bfbfbf" points="16,-135.5 51,-135.5 "/>
<text text-anchor="middle" x="33.5" y="-123.5" font-family="Helvetica,sans-Serif" font-size="10.00"> </text>
</g>
<!-- Node2&#45;&gt;Node1 -->
<g id="edge1" class="edge"><title>Node2&#45;&gt;Node1</title>
<path fill="none" stroke="#404040" d="M42.4225,-116.34C45.9833,-105.302 50.1735,-92.3121 54.141,-80.0129"/>
<polygon fill="none" stroke="#404040" points="54.1648,-79.9391 52.2,-73.0008 57.8489,-68.5186 59.8136,-75.4568 54.1648,-79.9391"/>
<text text-anchor="middle" x="65.5" y="-90" font-family="Helvetica,sans-Serif" font-size="10.00"> +type</text>
</g>
<!-- Node3 -->
<g id="node3" class="node"><title>Node3</title>
<polygon fill="none" stroke="#bfbfbf" points="69.5,-116.5 69.5,-173.5 137.5,-173.5 137.5,-116.5 69.5,-116.5"/>
<text text-anchor="middle" x="103.5" y="-161.5" font-family="Helvetica,sans-Serif" font-size="10.00">stored_type</text>
<polyline fill="none" stroke="#bfbfbf" points="69.5,-154.5 137.5,-154.5 "/>
<text text-anchor="middle" x="103.5" y="-142.5" font-family="Helvetica,sans-Serif" font-size="10.00"> </text>
<polyline fill="none" stroke="#bfbfbf" points="69.5,-135.5 137.5,-135.5 "/>
<text text-anchor="middle" x="103.5" y="-123.5" font-family="Helvetica,sans-Serif" font-size="10.00"> </text>
</g>
<!-- Node3&#45;&gt;Node1 -->
<g id="edge2" class="edge"><title>Node3&#45;&gt;Node1</title>
<path fill="none" stroke="#404040" d="M94.5775,-116.34C91.0167,-105.302 86.8265,-92.3121 82.859,-80.0129"/>
<polygon fill="none" stroke="#404040" points="82.8352,-79.9391 77.1864,-75.4568 79.1511,-68.5186 84.8,-73.0008 82.8352,-79.9391"/>
<text text-anchor="middle" x="105" y="-90" font-family="Helvetica,sans-Serif" font-size="10.00"> +value</text>
</g>
</g>
</svg>
