<?xml version="1.0" encoding="UTF-8" standalone="no"?>
<!DOCTYPE svg PUBLIC "-//W3C//DTD SVG 1.1//EN"
 "http://www.w3.org/Graphics/SVG/1.1/DTD/svg11.dtd">
<!-- Generated by graphviz version 2.38.0 (20140413.2041)
 -->
<!-- Title: /home/travis/build/AliceO2Group/AliceO2/DataFormats/Detectors/TRD/include/DataFormatsTRD/TriggerRecord.h Pages: 1 -->
<!--zoomable 251 -->
<svg id="main" version="1.1" xmlns="http://www.w3.org/2000/svg" xmlns:xlink="http://www.w3.org/1999/xlink" xml:space="preserve" onload="init(evt)">
<style type="text/css"><![CDATA[
.edge:hover path { stroke: red; }
.edge:hover polygon { stroke: red; fill: red; }
]]></style>
<script type="text/javascript"><![CDATA[
var edges = document.getElementsByTagName('g');
if (edges && edges.length) {
  for (var i=0;i<edges.length;i++) {
    if (edges[i].id.substr(0,4)=='edge') {
      edges[i].setAttribute('class','edge');
    }
  }
}
]]></script>
        <defs>
                <circle id="rim" cx="0" cy="0" r="7"/>
                <circle id="rim2" cx="0" cy="0" r="3.5"/>
                <g id="zoomPlus">
                        <use xlink:href="#rim" fill="#404040">
                                <set attributeName="fill" to="#808080" begin="zoomplus.mouseover" end="zoomplus.mouseout"/>
                        </use>
                        <path d="M-4,0h8M0,-4v8" fill="none" stroke="white" stroke-width="1.5" pointer-events="none"/>
                </g>
                <g id="zoomMin">
                        <use xlink:href="#rim" fill="#404040">
                                <set attributeName="fill" to="#808080" begin="zoomminus.mouseover" end="zoomminus.mouseout"/>
                        </use>
                        <path d="M-4,0h8" fill="none" stroke="white" stroke-width="1.5" pointer-events="none"/>
                </g>
                <g id="dirArrow">
                        <path fill="none" stroke="white" stroke-width="1.5" d="M0,-3.0v7 M-2.5,-0.5L0,-3.0L2.5,-0.5"/>
                </g>
               <g id="resetDef">
                       <use xlink:href="#rim2" fill="#404040">
                               <set attributeName="fill" to="#808080" begin="reset.mouseover" end="reset.mouseout"/>
                       </use>
               </g>
        </defs>

<script type="text/javascript">
var viewWidth = 573;
var viewHeight = 251;
var sectionId = 'dynsection-0';
</script>
<script xlink:href="../../svgpan.js"/>
<svg id="graph" class="graph">
<g id="viewport">
<title>/home/travis/build/AliceO2Group/AliceO2/DataFormats/Detectors/TRD/include/DataFormatsTRD/TriggerRecord.h</title>
<!-- Node1 -->
<g id="node1" class="node"><title>Node1</title>
<polygon fill="#bfbfbf" stroke="black" points="41.8546,-179.5 41.8546,-242.5 196.855,-242.5 196.855,-179.5 41.8546,-179.5"/>
<text text-anchor="start" x="49.8546" y="-230.5" font-family="Helvetica,sans-Serif" font-size="10.00">/home/travis/build</text>
<text text-anchor="start" x="49.8546" y="-219.5" font-family="Helvetica,sans-Serif" font-size="10.00">/AliceO2Group/AliceO2</text>
<text text-anchor="start" x="49.8546" y="-208.5" font-family="Helvetica,sans-Serif" font-size="10.00">/DataFormats/Detectors</text>
<text text-anchor="start" x="49.8546" y="-197.5" font-family="Helvetica,sans-Serif" font-size="10.00">/TRD/include/DataFormatsTRD</text>
<text text-anchor="middle" x="119.355" y="-186.5" font-family="Helvetica,sans-Serif" font-size="10.00">/TriggerRecord.h</text>
</g>
<!-- Node2 -->
<g id="node2" class="node"><title>Node2</title>
<polygon fill="none" stroke="#bfbfbf" points="20.8546,-56.5 20.8546,-75.5 65.8546,-75.5 65.8546,-56.5 20.8546,-56.5"/>
<text text-anchor="middle" x="43.3546" y="-63.5" font-family="Helvetica,sans-Serif" font-size="10.00">iosfwd</text>
</g>
<!-- Node1&#45;&gt;Node2 -->
<g id="edge1" class="edge"><title>Node1&#45;&gt;Node2</title>
<path fill="none" stroke="midnightblue" d="M103.051,-179.323C87.7088,-150.456 65.2714,-108.238 52.729,-84.6386"/>
<polygon fill="midnightblue" stroke="midnightblue" points="55.7928,-82.9454 48.009,-75.7576 49.6115,-86.2306 55.7928,-82.9454"/>
</g>
<!-- Node3 -->
<g id="node3" class="node"><title>Node3</title>
<polygon fill="none" stroke="#bfbfbf" points="262.355,-0.5 262.355,-19.5 318.355,-19.5 318.355,-0.5 262.355,-0.5"/>
<text text-anchor="middle" x="290.355" y="-7.5" font-family="Helvetica,sans-Serif" font-size="10.00">Rtypes.h</text>
</g>
<!-- Node1&#45;&gt;Node3 -->
<g id="edge2" class="edge"><title>Node1&#45;&gt;Node3</title>
<path fill="none" stroke="midnightblue" d="M72.4905,-179.249C29.4143,-147.247 -22.9454,-96.2756 11.3546,-56 41.8396,-20.2041 183.062,-12.7841 252.121,-11.3154"/>
<polygon fill="midnightblue" stroke="midnightblue" points="252.227,-14.8142 262.161,-11.1332 252.1,-7.81531 252.227,-14.8142"/>
</g>
<!-- Node4 -->
<g id="node4" class="node"><title>Node4</title>
<g id="a_node4"><a xlink:href="../../d9/d80/InteractionRecord_8h.html" target="_top" xlink:title="CommonDataFormat/Interaction\lRecord.h">
<polygon fill="none" stroke="black" points="128.855,-112.5 128.855,-142.5 285.855,-142.5 285.855,-112.5 128.855,-112.5"/>
<text text-anchor="start" x="136.855" y="-130.5" font-family="Helvetica,sans-Serif" font-size="10.00">CommonDataFormat/Interaction</text>
<text text-anchor="middle" x="207.355" y="-119.5" font-family="Helvetica,sans-Serif" font-size="10.00">Record.h</text>
</a>
</g>
</g>
<!-- Node1&#45;&gt;Node4 -->
<g id="edge3" class="edge"><title>Node1&#45;&gt;Node4</title>
<path fill="none" stroke="midnightblue" d="M152.373,-179.421C163.148,-169.441 174.862,-158.593 184.698,-149.483"/>
<polygon fill="midnightblue" stroke="midnightblue" points="187.171,-151.963 192.13,-142.6 182.415,-146.827 187.171,-151.963"/>
</g>
<!-- Node8 -->
<g id="node8" class="node"><title>Node8</title>
<g id="a_node8"><a xlink:href="../../de/d64/RangeReference_8h.html" target="_top" xlink:title="Class to refer to the 1st entry and N elements of some group in the continuous container. ">
<polygon fill="none" stroke="black" points="371.855,-118 371.855,-137 564.855,-137 564.855,-118 371.855,-118"/>
<text text-anchor="middle" x="468.355" y="-125" font-family="Helvetica,sans-Serif" font-size="10.00">CommonDataFormat/RangeReference.h</text>
</a>
</g>
</g>
<!-- Node1&#45;&gt;Node8 -->
<g id="edge9" class="edge"><title>Node1&#45;&gt;Node8</title>
<path fill="none" stroke="midnightblue" d="M197.243,-191.811C266.227,-175.702 364.625,-152.723 421.955,-139.336"/>
<polygon fill="midnightblue" stroke="midnightblue" points="422.88,-142.714 431.822,-137.031 421.288,-135.897 422.88,-142.714"/>
</g>
<!-- Node4&#45;&gt;Node2 -->
<g id="edge5" class="edge"><title>Node4&#45;&gt;Node2</title>
<path fill="none" stroke="midnightblue" d="M168.489,-112.399C140.268,-102.161 102.518,-88.4649 75.8858,-78.8025"/>
<polygon fill="midnightblue" stroke="midnightblue" points="76.8601,-75.4328 66.266,-75.3124 74.4727,-82.0131 76.8601,-75.4328"/>
</g>
<!-- Node4&#45;&gt;Node3 -->
<g id="edge4" class="edge"><title>Node4&#45;&gt;Node3</title>
<path fill="none" stroke="midnightblue" d="M232.071,-112.305C245.471,-103.445 261.301,-90.9004 271.355,-76 280.705,-62.1426 285.53,-43.6266 287.972,-29.9019"/>
<polygon fill="midnightblue" stroke="midnightblue" points="291.479,-30.1177 289.51,-19.7074 284.557,-29.0734 291.479,-30.1177"/>
</g>
<!-- Node5 -->
<g id="node5" class="node"><title>Node5</title>
<polygon fill="none" stroke="#bfbfbf" points="318.355,-56.5 318.355,-75.5 362.355,-75.5 362.355,-56.5 318.355,-56.5"/>
<text text-anchor="middle" x="340.355" y="-63.5" font-family="Helvetica,sans-Serif" font-size="10.00">cmath</text>
</g>
<!-- Node4&#45;&gt;Node5 -->
<g id="edge6" class="edge"><title>Node4&#45;&gt;Node5</title>
<path fill="none" stroke="midnightblue" d="M238.874,-112.399C260.99,-102.505 290.322,-89.3832 311.761,-79.7919"/>
<polygon fill="midnightblue" stroke="midnightblue" points="313.303,-82.9364 321.002,-75.6578 310.444,-76.5466 313.303,-82.9364"/>
</g>
<!-- Node6 -->
<g id="node6" class="node"><title>Node6</title>
<polygon fill="none" stroke="#bfbfbf" points="380.355,-56.5 380.355,-75.5 426.355,-75.5 426.355,-56.5 380.355,-56.5"/>
<text text-anchor="middle" x="403.355" y="-63.5" font-family="Helvetica,sans-Serif" font-size="10.00">cstdint</text>
</g>
<!-- Node4&#45;&gt;Node6 -->
<g id="edge7" class="edge"><title>Node4&#45;&gt;Node6</title>
<path fill="none" stroke="midnightblue" d="M253.804,-112.399C289.76,-101.484 338.659,-86.6398 370.604,-76.942"/>
<polygon fill="midnightblue" stroke="midnightblue" points="371.791,-80.2397 380.343,-73.9857 369.757,-73.5415 371.791,-80.2397"/>
</g>
<!-- Node7 -->
<g id="node7" class="node"><title>Node7</title>
<g id="a_node7"><a xlink:href="../../d4/dc6/LHCConstants_8h.html" target="_top" xlink:title="Header to collect LHC related constants. ">
<polygon fill="none" stroke="black" points="84.3546,-56.5 84.3546,-75.5 262.355,-75.5 262.355,-56.5 84.3546,-56.5"/>
<text text-anchor="middle" x="173.355" y="-63.5" font-family="Helvetica,sans-Serif" font-size="10.00">CommonConstants/LHCConstants.h</text>
</a>
</g>
</g>
<!-- Node4&#45;&gt;Node7 -->
<g id="edge8" class="edge"><title>Node4&#45;&gt;Node7</title>
<path fill="none" stroke="midnightblue" d="M199.297,-112.399C194.509,-104.021 188.399,-93.3269 183.311,-84.4229"/>
<polygon fill="midnightblue" stroke="midnightblue" points="186.302,-82.6037 178.302,-75.6578 180.224,-86.0767 186.302,-82.6037"/>
</g>
<!-- Node9 -->
<g id="node9" class="node"><title>Node9</title>
<g id="a_node9"><a xlink:href="../../d2/d45/GPUCommonRtypes_8h.html" target="_top" xlink:title="GPUCommonRtypes.h">
<polygon fill="none" stroke="black" points="444.355,-56.5 444.355,-75.5 562.355,-75.5 562.355,-56.5 444.355,-56.5"/>
<text text-anchor="middle" x="503.355" y="-63.5" font-family="Helvetica,sans-Serif" font-size="10.00">GPUCommonRtypes.h</text>
</a>
</g>
</g>
<!-- Node8&#45;&gt;Node9 -->
<g id="edge10" class="edge"><title>Node8&#45;&gt;Node9</title>
<path fill="none" stroke="midnightblue" d="M473.369,-117.975C478.515,-109.227 486.667,-95.3691 493.173,-84.3093"/>
<polygon fill="midnightblue" stroke="midnightblue" points="496.296,-85.903 498.349,-75.5091 490.262,-82.3539 496.296,-85.903"/>
</g>
<!-- Node9&#45;&gt;Node3 -->
<g id="edge11" class="edge"><title>Node9&#45;&gt;Node3</title>
<path fill="none" stroke="midnightblue" d="M469.604,-56.4435C431.188,-46.7041 368.58,-30.8317 328.445,-20.6567"/>
<polygon fill="midnightblue" stroke="midnightblue" points="329.059,-17.2017 318.505,-18.1368 327.339,-23.987 329.059,-17.2017"/>
</g>
</g>
</svg>
        <g id="navigator" transform="translate(0 0)" fill="#404254">
                <rect fill="#f2f5e9" fill-opacity="0.5" stroke="#606060" stroke-width=".5" x="0" y="0" width="60" height="60"/>
                <use id="zoomplus" xlink:href="#zoomPlus" x="17" y="9" onmousedown="handleZoom(evt,'in')"/>
                <use id="zoomminus" xlink:href="#zoomMin" x="42" y="9" onmousedown="handleZoom(evt,'out')"/>
                <use id="reset" xlink:href="#resetDef" x="30" y="36" onmousedown="handleReset()"/>
                <g id="arrowUp" xlink:href="#dirArrow" transform="translate(30 24)" onmousedown="handlePan(0,-1)">
                  <use xlink:href="#rim" fill="#404040">
                        <set attributeName="fill" to="#808080" begin="arrowUp.mouseover" end="arrowUp.mouseout"/>
                  </use>
                  <path fill="none" stroke="white" stroke-width="1.5" d="M0,-3.0v7 M-2.5,-0.5L0,-3.0L2.5,-0.5"/>
                </g>
                <g id="arrowRight" xlink:href="#dirArrow" transform="rotate(90) translate(36 -43)" onmousedown="handlePan(1,0)">
                  <use xlink:href="#rim" fill="#404040">
                        <set attributeName="fill" to="#808080" begin="arrowRight.mouseover" end="arrowRight.mouseout"/>
                  </use>
                  <path fill="none" stroke="white" stroke-width="1.5" d="M0,-3.0v7 M-2.5,-0.5L0,-3.0L2.5,-0.5"/>
                </g>
                <g id="arrowDown" xlink:href="#dirArrow" transform="rotate(180) translate(-30 -48)" onmousedown="handlePan(0,1)">
                  <use xlink:href="#rim" fill="#404040">
                        <set attributeName="fill" to="#808080" begin="arrowDown.mouseover" end="arrowDown.mouseout"/>
                  </use>
                  <path fill="none" stroke="white" stroke-width="1.5" d="M0,-3.0v7 M-2.5,-0.5L0,-3.0L2.5,-0.5"/>
                </g>
                <g id="arrowLeft" xlink:href="#dirArrow" transform="rotate(270) translate(-36 17)" onmousedown="handlePan(-1,0)">
                  <use xlink:href="#rim" fill="#404040">
                        <set attributeName="fill" to="#808080" begin="arrowLeft.mouseover" end="arrowLeft.mouseout"/>
                  </use>
                  <path fill="none" stroke="white" stroke-width="1.5" d="M0,-3.0v7 M-2.5,-0.5L0,-3.0L2.5,-0.5"/>
                </g>
        </g>
        <svg viewBox="0 0 15 15" width="100%" height="30px" preserveAspectRatio="xMaxYMin meet">
         <g id="arrow_out" transform="scale(0.3 0.3)">
          <a xlink:href="TRD_2include_2DataFormatsTRD_2TriggerRecord_8h__incl_org.svg" target="_base">
           <rect id="button" ry="5" rx="5" y="6" x="6" height="38" width="38"
                fill="#f2f5e9" fill-opacity="0.5" stroke="#606060" stroke-width="1.0"/>
           <path id="arrow"
             d="M 11.500037,31.436501 C 11.940474,20.09759 22.043105,11.32322 32.158766,21.979434 L 37.068811,17.246167 C 37.068811,17.246167 37.088388,32 37.088388,32 L 22.160133,31.978069 C 22.160133,31.978069 26.997745,27.140456 26.997745,27.140456 C 18.528582,18.264221 13.291696,25.230495 11.500037,31.436501 z"
             style="fill:#404040;"/>
          </a>
         </g>
        </svg>
</svg>
