<?xml version="1.0" encoding="UTF-8" standalone="no"?>
<!DOCTYPE svg PUBLIC "-//W3C//DTD SVG 1.1//EN"
 "http://www.w3.org/Graphics/SVG/1.1/DTD/svg11.dtd">
<!-- Generated by graphviz version 2.38.0 (20140413.2041)
 -->
<!-- Title: o2::framework::ConcreteDataMatcher Pages: 1 -->
<!--zoomable 810 -->
<svg id="main" version="1.1" xmlns="http://www.w3.org/2000/svg" xmlns:xlink="http://www.w3.org/1999/xlink" xml:space="preserve" onload="init(evt)">
<style type="text/css"><![CDATA[
.edge:hover path { stroke: red; }
.edge:hover polygon { stroke: red; fill: red; }
]]></style>
<script type="text/javascript"><![CDATA[
var edges = document.getElementsByTagName('g');
if (edges && edges.length) {
  for (var i=0;i<edges.length;i++) {
    if (edges[i].id.substr(0,4)=='edge') {
      edges[i].setAttribute('class','edge');
    }
  }
}
]]></script>
        <defs>
                <circle id="rim" cx="0" cy="0" r="7"/>
                <circle id="rim2" cx="0" cy="0" r="3.5"/>
                <g id="zoomPlus">
                        <use xlink:href="#rim" fill="#404040">
                                <set attributeName="fill" to="#808080" begin="zoomplus.mouseover" end="zoomplus.mouseout"/>
                        </use>
                        <path d="M-4,0h8M0,-4v8" fill="none" stroke="white" stroke-width="1.5" pointer-events="none"/>
                </g>
                <g id="zoomMin">
                        <use xlink:href="#rim" fill="#404040">
                                <set attributeName="fill" to="#808080" begin="zoomminus.mouseover" end="zoomminus.mouseout"/>
                        </use>
                        <path d="M-4,0h8" fill="none" stroke="white" stroke-width="1.5" pointer-events="none"/>
                </g>
                <g id="dirArrow">
                        <path fill="none" stroke="white" stroke-width="1.5" d="M0,-3.0v7 M-2.5,-0.5L0,-3.0L2.5,-0.5"/>
                </g>
               <g id="resetDef">
                       <use xlink:href="#rim2" fill="#404040">
                               <set attributeName="fill" to="#808080" begin="reset.mouseover" end="reset.mouseout"/>
                       </use>
               </g>
        </defs>

<script type="text/javascript">
var viewWidth = 643;
var viewHeight = 810;
var sectionId = 'dynsection-0';
</script>
<script xlink:href="../../svgpan.js"/>
<svg id="graph" class="graph">
<g id="viewport">
<title>o2::framework::ConcreteDataMatcher</title>
<!-- Node1 -->
<g id="node1" class="node"><title>Node1</title>
<polygon fill="#bfbfbf" stroke="black" points="64.6082,-0.5 64.6082,-134.5 210.608,-134.5 210.608,-0.5 64.6082,-0.5"/>
<text text-anchor="start" x="72.6082" y="-122.5" font-family="Helvetica,sans-Serif" font-size="10.00">o2::framework::ConcreteData</text>
<text text-anchor="middle" x="137.608" y="-111.5" font-family="Helvetica,sans-Serif" font-size="10.00">Matcher</text>
<polyline fill="none" stroke="black" points="64.6082,-104.5 210.608,-104.5 "/>
<text text-anchor="middle" x="137.608" y="-92.5" font-family="Helvetica,sans-Serif" font-size="10.00"> </text>
<polyline fill="none" stroke="black" points="64.6082,-85.5 210.608,-85.5 "/>
<text text-anchor="start" x="72.6082" y="-73.5" font-family="Helvetica,sans-Serif" font-size="10.00">+ ConcreteDataMatcher()</text>
<text text-anchor="start" x="72.6082" y="-62.5" font-family="Helvetica,sans-Serif" font-size="10.00">+ ConcreteDataMatcher()</text>
<text text-anchor="start" x="72.6082" y="-51.5" font-family="Helvetica,sans-Serif" font-size="10.00">+ ConcreteDataMatcher()</text>
<text text-anchor="start" x="72.6082" y="-40.5" font-family="Helvetica,sans-Serif" font-size="10.00">+ operator=()</text>
<text text-anchor="start" x="72.6082" y="-29.5" font-family="Helvetica,sans-Serif" font-size="10.00">+ operator=()</text>
<text text-anchor="start" x="72.6082" y="-18.5" font-family="Helvetica,sans-Serif" font-size="10.00">+ operator==()</text>
<text text-anchor="start" x="72.6082" y="-7.5" font-family="Helvetica,sans-Serif" font-size="10.00">+ operator!=()</text>
</g>
<!-- Node2 -->
<g id="node2" class="node"><title>Node2</title>
<polygon fill="none" stroke="#bfbfbf" points="6.10825,-265 6.10825,-322 57.1082,-322 57.1082,-265 6.10825,-265"/>
<text text-anchor="middle" x="31.6082" y="-310" font-family="Helvetica,sans-Serif" font-size="10.00">uint32_t</text>
<polyline fill="none" stroke="#bfbfbf" points="6.10825,-303 57.1082,-303 "/>
<text text-anchor="middle" x="31.6082" y="-291" font-family="Helvetica,sans-Serif" font-size="10.00"> </text>
<polyline fill="none" stroke="#bfbfbf" points="6.10825,-284 57.1082,-284 "/>
<text text-anchor="middle" x="31.6082" y="-272" font-family="Helvetica,sans-Serif" font-size="10.00"> </text>
</g>
<!-- Node2&#45;&gt;Node1 -->
<g id="edge1" class="edge"><title>Node2&#45;&gt;Node1</title>
<path fill="none" stroke="#404040" d="M37.9011,-264.959C43.6254,-242.137 53.0894,-209.16 65.6082,-182 71.2745,-169.707 78.0697,-157.157 85.1912,-145.098"/>
<polygon fill="none" stroke="#404040" points="85.3026,-144.914 84.9854,-137.71 91.5134,-134.646 91.8306,-141.851 85.3026,-144.914"/>
<text text-anchor="middle" x="105.608" y="-156" font-family="Helvetica,sans-Serif" font-size="10.00"> +subSpec</text>
</g>
<!-- Node3 -->
<g id="node3" class="node"><title>Node3</title>
<g id="a_node3"><a xlink:href="../../d9/db3/structo2_1_1header_1_1Descriptor.html" target="_top" xlink:title="{o2::header::Descriptor\l\&lt; gSizeDataOriginString,\l printDataOrigin \&gt;\n||+ Descriptor()\l+ Descriptor()\l+ Descriptor()\l+ Descriptor()\l+ operator=()\l+ operator ItgType()\l+ runtimeInit()\l+ operator==()\l+ operator==()\l+ operator\&lt;()\l+ operator!=()\l+ operator!=()\l+ as()\l+ print()\l}">
<polygon fill="none" stroke="black" points="75.1082,-182.5 75.1082,-404.5 200.108,-404.5 200.108,-182.5 75.1082,-182.5"/>
<text text-anchor="start" x="83.1082" y="-392.5" font-family="Helvetica,sans-Serif" font-size="10.00">o2::header::Descriptor</text>
<text text-anchor="start" x="83.1082" y="-381.5" font-family="Helvetica,sans-Serif" font-size="10.00">&lt; gSizeDataOriginString,</text>
<text text-anchor="middle" x="137.608" y="-370.5" font-family="Helvetica,sans-Serif" font-size="10.00"> printDataOrigin &gt;</text>
<polyline fill="none" stroke="black" points="75.1082,-363.5 200.108,-363.5 "/>
<text text-anchor="middle" x="137.608" y="-351.5" font-family="Helvetica,sans-Serif" font-size="10.00"> </text>
<polyline fill="none" stroke="black" points="75.1082,-344.5 200.108,-344.5 "/>
<text text-anchor="start" x="83.1082" y="-332.5" font-family="Helvetica,sans-Serif" font-size="10.00">+ Descriptor()</text>
<text text-anchor="start" x="83.1082" y="-321.5" font-family="Helvetica,sans-Serif" font-size="10.00">+ Descriptor()</text>
<text text-anchor="start" x="83.1082" y="-310.5" font-family="Helvetica,sans-Serif" font-size="10.00">+ Descriptor()</text>
<text text-anchor="start" x="83.1082" y="-299.5" font-family="Helvetica,sans-Serif" font-size="10.00">+ Descriptor()</text>
<text text-anchor="start" x="83.1082" y="-288.5" font-family="Helvetica,sans-Serif" font-size="10.00">+ operator=()</text>
<text text-anchor="start" x="83.1082" y="-277.5" font-family="Helvetica,sans-Serif" font-size="10.00">+ operator ItgType()</text>
<text text-anchor="start" x="83.1082" y="-266.5" font-family="Helvetica,sans-Serif" font-size="10.00">+ runtimeInit()</text>
<text text-anchor="start" x="83.1082" y="-255.5" font-family="Helvetica,sans-Serif" font-size="10.00">+ operator==()</text>
<text text-anchor="start" x="83.1082" y="-244.5" font-family="Helvetica,sans-Serif" font-size="10.00">+ operator==()</text>
<text text-anchor="start" x="83.1082" y="-233.5" font-family="Helvetica,sans-Serif" font-size="10.00">+ operator&lt;()</text>
<text text-anchor="start" x="83.1082" y="-222.5" font-family="Helvetica,sans-Serif" font-size="10.00">+ operator!=()</text>
<text text-anchor="start" x="83.1082" y="-211.5" font-family="Helvetica,sans-Serif" font-size="10.00">+ operator!=()</text>
<text text-anchor="start" x="83.1082" y="-200.5" font-family="Helvetica,sans-Serif" font-size="10.00">+ as()</text>
<text text-anchor="start" x="83.1082" y="-189.5" font-family="Helvetica,sans-Serif" font-size="10.00">+ print()</text>
</a>
</g>
</g>
<!-- Node3&#45;&gt;Node1 -->
<g id="edge2" class="edge"><title>Node3&#45;&gt;Node1</title>
<path fill="none" stroke="#404040" d="M137.608,-182.469C137.608,-170.443 137.608,-158.388 137.608,-146.857"/>
<polygon fill="none" stroke="#404040" points="137.608,-146.576 133.608,-140.576 137.608,-134.576 141.608,-140.576 137.608,-146.576"/>
<text text-anchor="middle" x="154.108" y="-156" font-family="Helvetica,sans-Serif" font-size="10.00"> +origin</text>
</g>
<!-- Node4 -->
<g id="node4" class="node"><title>Node4</title>
<polygon fill="none" stroke="#bfbfbf" points="66.6082,-744.5 66.6082,-801.5 104.608,-801.5 104.608,-744.5 66.6082,-744.5"/>
<text text-anchor="middle" x="85.6082" y="-789.5" font-family="Helvetica,sans-Serif" font-size="10.00">Type</text>
<polyline fill="none" stroke="#bfbfbf" points="66.6082,-782.5 104.608,-782.5 "/>
<text text-anchor="middle" x="85.6082" y="-770.5" font-family="Helvetica,sans-Serif" font-size="10.00"> </text>
<polyline fill="none" stroke="#bfbfbf" points="66.6082,-763.5 104.608,-763.5 "/>
<text text-anchor="middle" x="85.6082" y="-751.5" font-family="Helvetica,sans-Serif" font-size="10.00"> </text>
</g>
<!-- Node4&#45;&gt;Node3 -->
<g id="edge3" class="edge"><title>Node4&#45;&gt;Node3</title>
<path fill="none" stroke="#404040" d="M66.5608,-751.158C51.0597,-732.684 30.3669,-704.179 21.6082,-675 -5.48056,-584.756 -8.43289,-552.305 21.6082,-463 31.9244,-432.333 46.9867,-431.46 65.6082,-405 66.3824,-403.9 67.159,-402.792 67.9375,-401.678"/>
<polygon fill="none" stroke="#404040" points="68.1568,-401.36 68.2779,-394.15 74.98,-391.489 74.8588,-398.699 68.1568,-401.36"/>
<text text-anchor="middle" x="31.6082" y="-566.5" font-family="Helvetica,sans-Serif" font-size="10.00"> +itg</text>
</g>
<!-- Node8 -->
<g id="node8" class="node"><title>Node8</title>
<g id="a_node8"><a xlink:href="../../d9/db3/structo2_1_1header_1_1Descriptor.html" target="_top" xlink:title="{o2::header::Descriptor\l\&lt; N, PrinterPolicy \&gt;\n||+ Descriptor()\l+ Descriptor()\l+ Descriptor()\l+ operator=()\l+ operator ItgType()\l+ Descriptor()\l+ runtimeInit()\l+ operator==()\l+ operator\&lt;()\l+ operator!=()\l+ operator==()\l+ operator!=()\l+ as()\l+ print()\l}">
<polygon fill="none" stroke="black" points="218.108,-463.5 218.108,-674.5 331.108,-674.5 331.108,-463.5 218.108,-463.5"/>
<text text-anchor="start" x="226.108" y="-662.5" font-family="Helvetica,sans-Serif" font-size="10.00">o2::header::Descriptor</text>
<text text-anchor="middle" x="274.608" y="-651.5" font-family="Helvetica,sans-Serif" font-size="10.00">&lt; N, PrinterPolicy &gt;</text>
<polyline fill="none" stroke="black" points="218.108,-644.5 331.108,-644.5 "/>
<text text-anchor="middle" x="274.608" y="-632.5" font-family="Helvetica,sans-Serif" font-size="10.00"> </text>
<polyline fill="none" stroke="black" points="218.108,-625.5 331.108,-625.5 "/>
<text text-anchor="start" x="226.108" y="-613.5" font-family="Helvetica,sans-Serif" font-size="10.00">+ Descriptor()</text>
<text text-anchor="start" x="226.108" y="-602.5" font-family="Helvetica,sans-Serif" font-size="10.00">+ Descriptor()</text>
<text text-anchor="start" x="226.108" y="-591.5" font-family="Helvetica,sans-Serif" font-size="10.00">+ Descriptor()</text>
<text text-anchor="start" x="226.108" y="-580.5" font-family="Helvetica,sans-Serif" font-size="10.00">+ operator=()</text>
<text text-anchor="start" x="226.108" y="-569.5" font-family="Helvetica,sans-Serif" font-size="10.00">+ operator ItgType()</text>
<text text-anchor="start" x="226.108" y="-558.5" font-family="Helvetica,sans-Serif" font-size="10.00">+ Descriptor()</text>
<text text-anchor="start" x="226.108" y="-547.5" font-family="Helvetica,sans-Serif" font-size="10.00">+ runtimeInit()</text>
<text text-anchor="start" x="226.108" y="-536.5" font-family="Helvetica,sans-Serif" font-size="10.00">+ operator==()</text>
<text text-anchor="start" x="226.108" y="-525.5" font-family="Helvetica,sans-Serif" font-size="10.00">+ operator&lt;()</text>
<text text-anchor="start" x="226.108" y="-514.5" font-family="Helvetica,sans-Serif" font-size="10.00">+ operator!=()</text>
<text text-anchor="start" x="226.108" y="-503.5" font-family="Helvetica,sans-Serif" font-size="10.00">+ operator==()</text>
<text text-anchor="start" x="226.108" y="-492.5" font-family="Helvetica,sans-Serif" font-size="10.00">+ operator!=()</text>
<text text-anchor="start" x="226.108" y="-481.5" font-family="Helvetica,sans-Serif" font-size="10.00">+ as()</text>
<text text-anchor="start" x="226.108" y="-470.5" font-family="Helvetica,sans-Serif" font-size="10.00">+ print()</text>
</a>
</g>
</g>
<!-- Node4&#45;&gt;Node8 -->
<g id="edge8" class="edge"><title>Node4&#45;&gt;Node8</title>
<path fill="none" stroke="#404040" d="M104.93,-753.102C122.426,-736.424 149.267,-711.896 174.608,-693 186.769,-683.932 192.674,-685.515 203.608,-675 205.794,-672.898 207.95,-670.718 210.074,-668.474"/>
<polygon fill="none" stroke="#404040" points="210.08,-668.467 211.111,-661.33 218.096,-659.537 217.065,-666.674 210.08,-668.467"/>
<text text-anchor="middle" x="184.608" y="-707" font-family="Helvetica,sans-Serif" font-size="10.00"> +itg</text>
</g>
<!-- Node9 -->
<g id="node9" class="node"><title>Node9</title>
<g id="a_node9"><a xlink:href="../../d9/db3/structo2_1_1header_1_1Descriptor.html" target="_top" xlink:title="{o2::header::Descriptor\l\&lt; gSizeDataDescriptionString,\l printDataDescription \&gt;\n||+ Descriptor()\l+ Descriptor()\l+ Descriptor()\l+ Descriptor()\l+ operator=()\l+ operator ItgType()\l+ runtimeInit()\l+ operator==()\l+ operator==()\l+ operator\&lt;()\l+ operator!=()\l+ operator!=()\l+ as()\l+ print()\l}">
<polygon fill="none" stroke="black" points="257.108,-182.5 257.108,-404.5 406.108,-404.5 406.108,-182.5 257.108,-182.5"/>
<text text-anchor="start" x="265.108" y="-392.5" font-family="Helvetica,sans-Serif" font-size="10.00">o2::header::Descriptor</text>
<text text-anchor="start" x="265.108" y="-381.5" font-family="Helvetica,sans-Serif" font-size="10.00">&lt; gSizeDataDescriptionString,</text>
<text text-anchor="middle" x="331.608" y="-370.5" font-family="Helvetica,sans-Serif" font-size="10.00"> printDataDescription &gt;</text>
<polyline fill="none" stroke="black" points="257.108,-363.5 406.108,-363.5 "/>
<text text-anchor="middle" x="331.608" y="-351.5" font-family="Helvetica,sans-Serif" font-size="10.00"> </text>
<polyline fill="none" stroke="black" points="257.108,-344.5 406.108,-344.5 "/>
<text text-anchor="start" x="265.108" y="-332.5" font-family="Helvetica,sans-Serif" font-size="10.00">+ Descriptor()</text>
<text text-anchor="start" x="265.108" y="-321.5" font-family="Helvetica,sans-Serif" font-size="10.00">+ Descriptor()</text>
<text text-anchor="start" x="265.108" y="-310.5" font-family="Helvetica,sans-Serif" font-size="10.00">+ Descriptor()</text>
<text text-anchor="start" x="265.108" y="-299.5" font-family="Helvetica,sans-Serif" font-size="10.00">+ Descriptor()</text>
<text text-anchor="start" x="265.108" y="-288.5" font-family="Helvetica,sans-Serif" font-size="10.00">+ operator=()</text>
<text text-anchor="start" x="265.108" y="-277.5" font-family="Helvetica,sans-Serif" font-size="10.00">+ operator ItgType()</text>
<text text-anchor="start" x="265.108" y="-266.5" font-family="Helvetica,sans-Serif" font-size="10.00">+ runtimeInit()</text>
<text text-anchor="start" x="265.108" y="-255.5" font-family="Helvetica,sans-Serif" font-size="10.00">+ operator==()</text>
<text text-anchor="start" x="265.108" y="-244.5" font-family="Helvetica,sans-Serif" font-size="10.00">+ operator==()</text>
<text text-anchor="start" x="265.108" y="-233.5" font-family="Helvetica,sans-Serif" font-size="10.00">+ operator&lt;()</text>
<text text-anchor="start" x="265.108" y="-222.5" font-family="Helvetica,sans-Serif" font-size="10.00">+ operator!=()</text>
<text text-anchor="start" x="265.108" y="-211.5" font-family="Helvetica,sans-Serif" font-size="10.00">+ operator!=()</text>
<text text-anchor="start" x="265.108" y="-200.5" font-family="Helvetica,sans-Serif" font-size="10.00">+ as()</text>
<text text-anchor="start" x="265.108" y="-189.5" font-family="Helvetica,sans-Serif" font-size="10.00">+ print()</text>
</a>
</g>
</g>
<!-- Node4&#45;&gt;Node9 -->
<g id="edge13" class="edge"><title>Node4&#45;&gt;Node9</title>
<path fill="none" stroke="#404040" d="M89.9843,-744.314C101.774,-670.412 133.959,-473.383 143.608,-463 164.891,-440.099 185.427,-462.086 211.608,-445 221.348,-438.643 234.664,-424.616 248.89,-407.56"/>
<polygon fill="none" stroke="#404040" points="249.274,-407.091 249.976,-399.914 256.871,-397.802 256.168,-404.979 249.274,-407.091"/>
<text text-anchor="middle" x="153.608" y="-566.5" font-family="Helvetica,sans-Serif" font-size="10.00"> +itg</text>
</g>
<!-- Node5 -->
<g id="node5" class="node"><title>Node5</title>
<polygon fill="none" stroke="#bfbfbf" points="161.108,-744.5 161.108,-801.5 196.108,-801.5 196.108,-744.5 161.108,-744.5"/>
<text text-anchor="middle" x="178.608" y="-789.5" font-family="Helvetica,sans-Serif" font-size="10.00">char</text>
<polyline fill="none" stroke="#bfbfbf" points="161.108,-782.5 196.108,-782.5 "/>
<text text-anchor="middle" x="178.608" y="-770.5" font-family="Helvetica,sans-Serif" font-size="10.00"> </text>
<polyline fill="none" stroke="#bfbfbf" points="161.108,-763.5 196.108,-763.5 "/>
<text text-anchor="middle" x="178.608" y="-751.5" font-family="Helvetica,sans-Serif" font-size="10.00"> </text>
</g>
<!-- Node5&#45;&gt;Node3 -->
<g id="edge4" class="edge"><title>Node5&#45;&gt;Node3</title>
<path fill="none" stroke="#404040" d="M171.143,-744.291C165.212,-727.257 155.26,-706.233 139.608,-693 118.347,-675.025 96.2273,-697.336 79.6082,-675 24.6544,-601.14 45.6469,-496.577 76.7583,-415.749"/>
<polygon fill="none" stroke="#404040" points="76.7917,-415.665 75.281,-408.613 81.2086,-404.507 82.7194,-411.558 76.7917,-415.665"/>
<text text-anchor="middle" x="90.1082" y="-566.5" font-family="Helvetica,sans-Serif" font-size="10.00"> +str</text>
</g>
<!-- Node5&#45;&gt;Node8 -->
<g id="edge9" class="edge"><title>Node5&#45;&gt;Node8</title>
<path fill="none" stroke="#404040" d="M190.005,-744.398C196.424,-729.145 204.715,-709.913 212.608,-693 213.738,-690.579 214.887,-688.135 216.052,-685.675"/>
<polygon fill="none" stroke="#404040" points="216.073,-685.631 215.052,-678.492 221.248,-674.804 222.27,-681.942 216.073,-685.631"/>
<text text-anchor="middle" x="223.108" y="-707" font-family="Helvetica,sans-Serif" font-size="10.00"> +str</text>
</g>
<!-- Node5&#45;&gt;Node9 -->
<g id="edge14" class="edge"><title>Node5&#45;&gt;Node9</title>
<path fill="none" stroke="#404040" d="M175.561,-744.393C168.731,-677.144 155.21,-507.125 187.608,-463 202.083,-443.287 220.556,-460.334 239.608,-445 250.605,-436.15 260.624,-425.607 269.661,-414.269"/>
<polygon fill="none" stroke="#404040" points="269.764,-414.134 270.207,-406.937 277.021,-404.578 276.578,-411.775 269.764,-414.134"/>
<text text-anchor="middle" x="198.108" y="-566.5" font-family="Helvetica,sans-Serif" font-size="10.00"> +str</text>
</g>
<!-- Node6 -->
<g id="node6" class="node"><title>Node6</title>
<polygon fill="none" stroke="#bfbfbf" points="360.108,-744.5 360.108,-801.5 389.108,-801.5 389.108,-744.5 360.108,-744.5"/>
<text text-anchor="middle" x="374.608" y="-789.5" font-family="Helvetica,sans-Serif" font-size="10.00">int</text>
<polyline fill="none" stroke="#bfbfbf" points="360.108,-782.5 389.108,-782.5 "/>
<text text-anchor="middle" x="374.608" y="-770.5" font-family="Helvetica,sans-Serif" font-size="10.00"> </text>
<polyline fill="none" stroke="#bfbfbf" points="360.108,-763.5 389.108,-763.5 "/>
<text text-anchor="middle" x="374.608" y="-751.5" font-family="Helvetica,sans-Serif" font-size="10.00"> </text>
</g>
<!-- Node6&#45;&gt;Node3 -->
<g id="edge5" class="edge"><title>Node6&#45;&gt;Node3</title>
<path fill="none" stroke="#404040" d="M374.481,-744.214C373.704,-677.341 368.814,-509.527 339.608,-463 326.759,-442.53 266.475,-420.104 247.608,-405 234.6,-394.586 221.487,-382.791 209.072,-370.881"/>
<polygon fill="none" stroke="#404040" points="208.763,-370.58 201.674,-369.259 200.167,-362.207 207.256,-363.528 208.763,-370.58"/>
<text text-anchor="middle" x="398.108" y="-577.5" font-family="Helvetica,sans-Serif" font-size="10.00"> +arraySize</text>
<text text-anchor="middle" x="398.108" y="-566.5" font-family="Helvetica,sans-Serif" font-size="10.00">+size</text>
<text text-anchor="middle" x="398.108" y="-555.5" font-family="Helvetica,sans-Serif" font-size="10.00">+bitcount</text>
</g>
<!-- Node6&#45;&gt;Node8 -->
<g id="edge10" class="edge"><title>Node6&#45;&gt;Node8</title>
<path fill="none" stroke="#404040" d="M359.823,-771.282C333.763,-769.123 280.181,-760.49 256.608,-726 248.636,-714.336 244.63,-701.002 243.309,-687.152"/>
<polygon fill="none" stroke="#404040" points="243.297,-686.867 239.056,-681.036 242.808,-674.877 247.049,-680.709 243.297,-686.867"/>
<text text-anchor="middle" x="282.108" y="-718" font-family="Helvetica,sans-Serif" font-size="10.00"> +arraySize</text>
<text text-anchor="middle" x="282.108" y="-707" font-family="Helvetica,sans-Serif" font-size="10.00">+size</text>
<text text-anchor="middle" x="282.108" y="-696" font-family="Helvetica,sans-Serif" font-size="10.00">+bitcount</text>
</g>
<!-- Node6&#45;&gt;Node9 -->
<g id="edge15" class="edge"><title>Node6&#45;&gt;Node9</title>
<path fill="none" stroke="#404040" d="M389.359,-752.777C391.988,-749.729 394.79,-746.696 397.608,-744 434.539,-708.666 466.751,-720.715 489.608,-675 531.746,-590.725 523.964,-550.735 489.608,-463 474.237,-423.745 444.846,-388.315 415.542,-360.189"/>
<polygon fill="none" stroke="#404040" points="415.23,-359.897 408.116,-358.719 406.467,-351.699 413.581,-352.877 415.23,-359.897"/>
<text text-anchor="middle" x="543.108" y="-577.5" font-family="Helvetica,sans-Serif" font-size="10.00"> +arraySize</text>
<text text-anchor="middle" x="543.108" y="-566.5" font-family="Helvetica,sans-Serif" font-size="10.00">+size</text>
<text text-anchor="middle" x="543.108" y="-555.5" font-family="Helvetica,sans-Serif" font-size="10.00">+bitcount</text>
</g>
<!-- Node7 -->
<g id="node7" class="node"><title>Node7</title>
<polygon fill="none" stroke="#bfbfbf" points="407.108,-744.5 407.108,-801.5 504.108,-801.5 504.108,-744.5 407.108,-744.5"/>
<text text-anchor="middle" x="455.608" y="-789.5" font-family="Helvetica,sans-Serif" font-size="10.00">anonymous:+@24</text>
<polyline fill="none" stroke="#bfbfbf" points="407.108,-782.5 504.108,-782.5 "/>
<text text-anchor="middle" x="455.608" y="-770.5" font-family="Helvetica,sans-Serif" font-size="10.00"> </text>
<polyline fill="none" stroke="#bfbfbf" points="407.108,-763.5 504.108,-763.5 "/>
<text text-anchor="middle" x="455.608" y="-751.5" font-family="Helvetica,sans-Serif" font-size="10.00"> </text>
</g>
<!-- Node7&#45;&gt;Node3 -->
<g id="edge6" class="edge"><title>Node7&#45;&gt;Node3</title>
<path fill="none" stroke="#404040" d="M454.923,-744.427C452.889,-672.638 445.847,-484.036 427.608,-463 404.869,-436.773 383.861,-457.833 351.608,-445 333.476,-437.785 331.617,-430.519 313.608,-423 285.551,-411.285 273.888,-420.291 247.608,-405 234.184,-397.189 221.252,-387.329 209.266,-376.731"/>
<polygon fill="none" stroke="#404040" points="209.137,-376.613 202.011,-375.507 200.292,-368.504 207.417,-369.61 209.137,-376.613"/>
<text text-anchor="middle" x="468.108" y="-566.5" font-family="Helvetica,sans-Serif" font-size="10.00"> +@24</text>
</g>
<!-- Node7&#45;&gt;Node8 -->
<g id="edge11" class="edge"><title>Node7&#45;&gt;Node8</title>
<path fill="none" stroke="#404040" d="M419.824,-744.364C397.222,-725.996 368.14,-700.62 345.608,-675 343.326,-672.405 341.057,-669.734 338.808,-667.004"/>
<polygon fill="none" stroke="#404040" points="338.732,-666.91 331.863,-664.716 331.246,-657.531 338.116,-659.725 338.732,-666.91"/>
<text text-anchor="middle" x="413.108" y="-707" font-family="Helvetica,sans-Serif" font-size="10.00"> +@24</text>
</g>
<!-- Node7&#45;&gt;Node9 -->
<g id="edge16" class="edge"><title>Node7&#45;&gt;Node9</title>
<path fill="none" stroke="#404040" d="M504.239,-745.838C529.678,-729.247 558.413,-705.208 572.608,-675 612.681,-589.724 616.144,-546.561 572.608,-463 540.044,-400.498 472.521,-356.406 417.21,-329.044"/>
<polygon fill="none" stroke="#404040" points="417.134,-329.008 409.992,-330.004 406.325,-323.795 413.467,-322.798 417.134,-329.008"/>
<text text-anchor="middle" x="619.108" y="-566.5" font-family="Helvetica,sans-Serif" font-size="10.00"> +@24</text>
</g>
<!-- Node8&#45;&gt;Node3 -->
<g id="edge7" class="edge"><title>Node8&#45;&gt;Node3</title>
<path fill="none" stroke="orange" d="M209.998,-468.027C207.914,-466.271 205.784,-464.592 203.608,-463 180.794,-446.311 159.906,-467.356 142.608,-445 133.489,-433.215 128.183,-419.216 125.444,-404.575"/>
<polygon fill="orange" stroke="orange" points="208.058,-470.995 217.804,-475.15 212.777,-465.825 208.058,-470.995"/>
<text text-anchor="start" x="142.608" y="-437" font-family="Helvetica,sans-Serif" font-size="10.00"> &lt; gSizeDataOriginString,</text>
<text text-anchor="middle" x="198.608" y="-426" font-family="Helvetica,sans-Serif" font-size="10.00"> printDataOrigin &gt;</text>
</g>
<!-- Node8&#45;&gt;Node9 -->
<g id="edge17" class="edge"><title>Node8&#45;&gt;Node9</title>
<path fill="none" stroke="orange" d="M305.722,-453.6C306.373,-450.708 307.003,-447.838 307.608,-445 310.368,-432.062 312.965,-418.436 315.358,-404.886"/>
<polygon fill="orange" stroke="orange" points="302.276,-452.969 303.438,-463.5 309.097,-454.543 302.276,-452.969"/>
<text text-anchor="start" x="312.608" y="-437" font-family="Helvetica,sans-Serif" font-size="10.00"> &lt; gSizeDataDescriptionString,</text>
<text text-anchor="middle" x="380.608" y="-426" font-family="Helvetica,sans-Serif" font-size="10.00"> printDataDescription &gt;</text>
</g>
<!-- Node9&#45;&gt;Node1 -->
<g id="edge12" class="edge"><title>Node9&#45;&gt;Node1</title>
<path fill="none" stroke="#404040" d="M256.88,-206.216C239.016,-185.589 220.085,-163.731 202.695,-143.652"/>
<polygon fill="none" stroke="#404040" points="202.679,-143.634 195.728,-141.717 194.823,-134.563 201.775,-136.479 202.679,-143.634"/>
<text text-anchor="middle" x="246.108" y="-156" font-family="Helvetica,sans-Serif" font-size="10.00"> +description</text>
</g>
</g>
</svg>
        <g id="navigator" transform="translate(0 0)" fill="#404254">
                <rect fill="#f2f5e9" fill-opacity="0.5" stroke="#606060" stroke-width=".5" x="0" y="0" width="60" height="60"/>
                <use id="zoomplus" xlink:href="#zoomPlus" x="17" y="9" onmousedown="handleZoom(evt,'in')"/>
                <use id="zoomminus" xlink:href="#zoomMin" x="42" y="9" onmousedown="handleZoom(evt,'out')"/>
                <use id="reset" xlink:href="#resetDef" x="30" y="36" onmousedown="handleReset()"/>
                <g id="arrowUp" xlink:href="#dirArrow" transform="translate(30 24)" onmousedown="handlePan(0,-1)">
                  <use xlink:href="#rim" fill="#404040">
                        <set attributeName="fill" to="#808080" begin="arrowUp.mouseover" end="arrowUp.mouseout"/>
                  </use>
                  <path fill="none" stroke="white" stroke-width="1.5" d="M0,-3.0v7 M-2.5,-0.5L0,-3.0L2.5,-0.5"/>
                </g>
                <g id="arrowRight" xlink:href="#dirArrow" transform="rotate(90) translate(36 -43)" onmousedown="handlePan(1,0)">
                  <use xlink:href="#rim" fill="#404040">
                        <set attributeName="fill" to="#808080" begin="arrowRight.mouseover" end="arrowRight.mouseout"/>
                  </use>
                  <path fill="none" stroke="white" stroke-width="1.5" d="M0,-3.0v7 M-2.5,-0.5L0,-3.0L2.5,-0.5"/>
                </g>
                <g id="arrowDown" xlink:href="#dirArrow" transform="rotate(180) translate(-30 -48)" onmousedown="handlePan(0,1)">
                  <use xlink:href="#rim" fill="#404040">
                        <set attributeName="fill" to="#808080" begin="arrowDown.mouseover" end="arrowDown.mouseout"/>
                  </use>
                  <path fill="none" stroke="white" stroke-width="1.5" d="M0,-3.0v7 M-2.5,-0.5L0,-3.0L2.5,-0.5"/>
                </g>
                <g id="arrowLeft" xlink:href="#dirArrow" transform="rotate(270) translate(-36 17)" onmousedown="handlePan(-1,0)">
                  <use xlink:href="#rim" fill="#404040">
                        <set attributeName="fill" to="#808080" begin="arrowLeft.mouseover" end="arrowLeft.mouseout"/>
                  </use>
                  <path fill="none" stroke="white" stroke-width="1.5" d="M0,-3.0v7 M-2.5,-0.5L0,-3.0L2.5,-0.5"/>
                </g>
        </g>
        <svg viewBox="0 0 15 15" width="100%" height="30px" preserveAspectRatio="xMaxYMin meet">
         <g id="arrow_out" transform="scale(0.3 0.3)">
          <a xlink:href="structo2_1_1framework_1_1ConcreteDataMatcher__coll__graph_org.svg" target="_base">
           <rect id="button" ry="5" rx="5" y="6" x="6" height="38" width="38"
                fill="#f2f5e9" fill-opacity="0.5" stroke="#606060" stroke-width="1.0"/>
           <path id="arrow"
             d="M 11.500037,31.436501 C 11.940474,20.09759 22.043105,11.32322 32.158766,21.979434 L 37.068811,17.246167 C 37.068811,17.246167 37.088388,32 37.088388,32 L 22.160133,31.978069 C 22.160133,31.978069 26.997745,27.140456 26.997745,27.140456 C 18.528582,18.264221 13.291696,25.230495 11.500037,31.436501 z"
             style="fill:#404040;"/>
          </a>
         </g>
        </svg>
</svg>
