<?xml version="1.0" encoding="UTF-8" standalone="no"?>
<!DOCTYPE svg PUBLIC "-//W3C//DTD SVG 1.1//EN"
 "http://www.w3.org/Graphics/SVG/1.1/DTD/svg11.dtd">
<!-- Generated by graphviz version 2.38.0 (20140413.2041)
 -->
<!-- Title: sg_shader_stage_desc Pages: 1 -->
<svg width="471pt" height="403pt"
 viewBox="0.00 0.00 470.50 403.00" xmlns="http://www.w3.org/2000/svg" xmlns:xlink="http://www.w3.org/1999/xlink">
<g id="graph0" class="graph" transform="scale(1 1) rotate(0) translate(4 399)">
<title>sg_shader_stage_desc</title>
<!-- Node1 -->
<g id="node1" class="node"><title>Node1</title>
<polygon fill="#bfbfbf" stroke="black" points="123,-0.5 123,-57.5 240,-57.5 240,-0.5 123,-0.5"/>
<text text-anchor="middle" x="181.5" y="-45.5" font-family="Helvetica,sans-Serif" font-size="10.00">sg_shader_stage_desc</text>
<polyline fill="none" stroke="black" points="123,-38.5 240,-38.5 "/>
<text text-anchor="middle" x="181.5" y="-26.5" font-family="Helvetica,sans-Serif" font-size="10.00"> </text>
<polyline fill="none" stroke="black" points="123,-19.5 240,-19.5 "/>
<text text-anchor="middle" x="181.5" y="-7.5" font-family="Helvetica,sans-Serif" font-size="10.00"> </text>
</g>
<!-- Node2 -->
<g id="node2" class="node"><title>Node2</title>
<g id="a_node2"><a xlink:href="../../dd/d8f/structsg__shader__image__desc.html" target="_top" xlink:title="{sg_shader_image_desc\n||}">
<polygon fill="none" stroke="black" points="0,-232.5 0,-289.5 119,-289.5 119,-232.5 0,-232.5"/>
<text text-anchor="middle" x="59.5" y="-277.5" font-family="Helvetica,sans-Serif" font-size="10.00">sg_shader_image_desc</text>
<polyline fill="none" stroke="black" points="0,-270.5 119,-270.5 "/>
<text text-anchor="middle" x="59.5" y="-258.5" font-family="Helvetica,sans-Serif" font-size="10.00"> </text>
<polyline fill="none" stroke="black" points="0,-251.5 119,-251.5 "/>
<text text-anchor="middle" x="59.5" y="-239.5" font-family="Helvetica,sans-Serif" font-size="10.00"> </text>
</a>
</g>
</g>
<!-- Node2&#45;&gt;Node1 -->
<g id="edge1" class="edge"><title>Node2&#45;&gt;Node1</title>
<path fill="none" stroke="#404040" d="M60.0583,-232.279C61.8656,-199.654 68.5878,-144.877 92.5,-105 101.447,-90.0792 114.444,-76.7111 127.754,-65.5391"/>
<polygon fill="none" stroke="#404040" points="128.069,-65.2877 130.262,-58.4184 137.447,-57.8015 135.253,-64.6708 128.069,-65.2877"/>
<text text-anchor="middle" x="113" y="-131.5" font-family="Helvetica,sans-Serif" font-size="10.00"> +images</text>
</g>
<!-- Node3 -->
<g id="node3" class="node"><title>Node3</title>
<polygon fill="none" stroke="#bfbfbf" points="6,-337.5 6,-394.5 89,-394.5 89,-337.5 6,-337.5"/>
<text text-anchor="middle" x="47.5" y="-382.5" font-family="Helvetica,sans-Serif" font-size="10.00">sg_image_type</text>
<polyline fill="none" stroke="#bfbfbf" points="6,-375.5 89,-375.5 "/>
<text text-anchor="middle" x="47.5" y="-363.5" font-family="Helvetica,sans-Serif" font-size="10.00"> </text>
<polyline fill="none" stroke="#bfbfbf" points="6,-356.5 89,-356.5 "/>
<text text-anchor="middle" x="47.5" y="-344.5" font-family="Helvetica,sans-Serif" font-size="10.00"> </text>
</g>
<!-- Node3&#45;&gt;Node2 -->
<g id="edge2" class="edge"><title>Node3&#45;&gt;Node2</title>
<path fill="none" stroke="#404040" d="M46.7804,-337.371C46.8562,-328.014 47.2923,-317.524 48.5,-308 48.7747,-305.834 49.111,-303.621 49.4932,-301.395"/>
<polygon fill="none" stroke="#404040" points="49.5096,-301.313 46.7765,-294.64 51.8851,-289.551 54.6182,-296.224 49.5096,-301.313"/>
<text text-anchor="middle" x="62.5" y="-311" font-family="Helvetica,sans-Serif" font-size="10.00"> +type</text>
</g>
<!-- Node4 -->
<g id="node4" class="node"><title>Node4</title>
<polygon fill="none" stroke="#bfbfbf" points="127,-337.5 127,-394.5 168,-394.5 168,-337.5 127,-337.5"/>
<text text-anchor="middle" x="147.5" y="-382.5" font-family="Helvetica,sans-Serif" font-size="10.00">const</text>
<polyline fill="none" stroke="#bfbfbf" points="127,-375.5 168,-375.5 "/>
<text text-anchor="middle" x="147.5" y="-363.5" font-family="Helvetica,sans-Serif" font-size="10.00"> </text>
<polyline fill="none" stroke="#bfbfbf" points="127,-356.5 168,-356.5 "/>
<text text-anchor="middle" x="147.5" y="-344.5" font-family="Helvetica,sans-Serif" font-size="10.00"> </text>
</g>
<!-- Node4&#45;&gt;Node1 -->
<g id="edge5" class="edge"><title>Node4&#45;&gt;Node1</title>
<path fill="none" stroke="#404040" d="M148.397,-337.177C150.188,-289.475 155.064,-189.087 166.5,-105 168.077,-93.4049 170.346,-80.9052 172.643,-69.4978"/>
<polygon fill="none" stroke="#404040" points="172.666,-69.3899 169.975,-62.6996 175.116,-57.6427 177.806,-64.3331 172.666,-69.3899"/>
<text text-anchor="middle" x="184.5" y="-206" font-family="Helvetica,sans-Serif" font-size="10.00"> +entry</text>
<text text-anchor="middle" x="184.5" y="-195" font-family="Helvetica,sans-Serif" font-size="10.00">+byte_code</text>
<text text-anchor="middle" x="184.5" y="-184" font-family="Helvetica,sans-Serif" font-size="10.00">+source</text>
</g>
<!-- Node4&#45;&gt;Node2 -->
<g id="edge3" class="edge"><title>Node4&#45;&gt;Node2</title>
<path fill="none" stroke="#404040" d="M126.54,-346.581C117.794,-338.482 107.769,-328.634 99.5,-319 94.3845,-313.04 89.2893,-306.434 84.5334,-299.894"/>
<polygon fill="none" stroke="#404040" points="84.3079,-299.574 77.5792,-296.981 77.3852,-289.772 84.1138,-292.366 84.3079,-299.574"/>
<text text-anchor="middle" x="116.5" y="-311" font-family="Helvetica,sans-Serif" font-size="10.00"> +name</text>
</g>
<!-- Node7 -->
<g id="node7" class="node"><title>Node7</title>
<g id="a_node7"><a xlink:href="../../d2/d67/structsg__shader__uniform__desc.html" target="_top" xlink:title="{sg_shader_uniform_desc\n||}">
<polygon fill="none" stroke="black" points="180,-232.5 180,-289.5 305,-289.5 305,-232.5 180,-232.5"/>
<text text-anchor="middle" x="242.5" y="-277.5" font-family="Helvetica,sans-Serif" font-size="10.00">sg_shader_uniform_desc</text>
<polyline fill="none" stroke="black" points="180,-270.5 305,-270.5 "/>
<text text-anchor="middle" x="242.5" y="-258.5" font-family="Helvetica,sans-Serif" font-size="10.00"> </text>
<polyline fill="none" stroke="black" points="180,-251.5 305,-251.5 "/>
<text text-anchor="middle" x="242.5" y="-239.5" font-family="Helvetica,sans-Serif" font-size="10.00"> </text>
</a>
</g>
</g>
<!-- Node4&#45;&gt;Node7 -->
<g id="edge10" class="edge"><title>Node4&#45;&gt;Node7</title>
<path fill="none" stroke="#404040" d="M168.114,-342.651C179.954,-329.813 195.117,-313.373 208.661,-298.689"/>
<polygon fill="none" stroke="#404040" points="208.705,-298.641 209.832,-291.519 216.841,-289.82 215.713,-296.943 208.705,-298.641"/>
<text text-anchor="middle" x="215.5" y="-311" font-family="Helvetica,sans-Serif" font-size="10.00"> +name</text>
</g>
<!-- Node5 -->
<g id="node5" class="node"><title>Node5</title>
<polygon fill="none" stroke="#bfbfbf" points="350,-337.5 350,-394.5 379,-394.5 379,-337.5 350,-337.5"/>
<text text-anchor="middle" x="364.5" y="-382.5" font-family="Helvetica,sans-Serif" font-size="10.00">int</text>
<polyline fill="none" stroke="#bfbfbf" points="350,-375.5 379,-375.5 "/>
<text text-anchor="middle" x="364.5" y="-363.5" font-family="Helvetica,sans-Serif" font-size="10.00"> </text>
<polyline fill="none" stroke="#bfbfbf" points="350,-356.5 379,-356.5 "/>
<text text-anchor="middle" x="364.5" y="-344.5" font-family="Helvetica,sans-Serif" font-size="10.00"> </text>
</g>
<!-- Node5&#45;&gt;Node1 -->
<g id="edge4" class="edge"><title>Node5&#45;&gt;Node1</title>
<path fill="none" stroke="#404040" d="M371.83,-337.441C375.204,-323.361 378.824,-305.888 380.5,-290 389.344,-206.151 387.859,-173.356 338.5,-105 317.789,-76.318 283.169,-58.1822 251.7,-46.9461"/>
<polygon fill="none" stroke="#404040" points="251.657,-46.9315 244.696,-48.8137 240.281,-43.1119 247.242,-41.2297 251.657,-46.9315"/>
<text text-anchor="middle" x="423.5" y="-195" font-family="Helvetica,sans-Serif" font-size="10.00"> +byte_code_size</text>
</g>
<!-- Node6 -->
<g id="node6" class="node"><title>Node6</title>
<g id="a_node6"><a xlink:href="../../dd/d14/structsg__shader__uniform__block__desc.html" target="_top" xlink:title="{sg_shader_uniform_block_desc\n||}">
<polygon fill="none" stroke="black" points="175.5,-105.5 175.5,-162.5 329.5,-162.5 329.5,-105.5 175.5,-105.5"/>
<text text-anchor="middle" x="252.5" y="-150.5" font-family="Helvetica,sans-Serif" font-size="10.00">sg_shader_uniform_block_desc</text>
<polyline fill="none" stroke="black" points="175.5,-143.5 329.5,-143.5 "/>
<text text-anchor="middle" x="252.5" y="-131.5" font-family="Helvetica,sans-Serif" font-size="10.00"> </text>
<polyline fill="none" stroke="black" points="175.5,-124.5 329.5,-124.5 "/>
<text text-anchor="middle" x="252.5" y="-112.5" font-family="Helvetica,sans-Serif" font-size="10.00"> </text>
</a>
</g>
</g>
<!-- Node5&#45;&gt;Node6 -->
<g id="edge11" class="edge"><title>Node5&#45;&gt;Node6</title>
<path fill="none" stroke="#404040" d="M359.505,-337.451C351.678,-299.643 333.849,-230.715 300.5,-181 298.413,-177.889 296.084,-174.828 293.608,-171.854"/>
<polygon fill="none" stroke="#404040" points="293.369,-171.59 286.376,-169.828 285.313,-162.695 292.306,-164.457 293.369,-171.59"/>
<text text-anchor="middle" x="362.5" y="-258.5" font-family="Helvetica,sans-Serif" font-size="10.00"> +size</text>
</g>
<!-- Node5&#45;&gt;Node7 -->
<g id="edge8" class="edge"><title>Node5&#45;&gt;Node7</title>
<path fill="none" stroke="#404040" d="M349.728,-357.816C333.867,-349.693 308.404,-335.437 289.5,-319 282.713,-313.098 276.117,-306.153 270.118,-299.178"/>
<polygon fill="none" stroke="#404040" points="269.975,-299.006 263.073,-296.919 262.344,-289.745 269.246,-291.831 269.975,-299.006"/>
<text text-anchor="middle" x="320" y="-311" font-family="Helvetica,sans-Serif" font-size="10.00"> +array_count</text>
</g>
<!-- Node6&#45;&gt;Node1 -->
<g id="edge6" class="edge"><title>Node6&#45;&gt;Node1</title>
<path fill="none" stroke="#404040" d="M233.473,-105.398C225.515,-93.8524 216.137,-80.248 207.554,-67.7962"/>
<polygon fill="none" stroke="#404040" points="207.39,-67.5584 200.691,-64.8886 200.579,-57.6783 207.278,-60.3482 207.39,-67.5584"/>
<text text-anchor="middle" x="257.5" y="-79" font-family="Helvetica,sans-Serif" font-size="10.00"> +uniform_blocks</text>
</g>
<!-- Node7&#45;&gt;Node6 -->
<g id="edge7" class="edge"><title>Node7&#45;&gt;Node6</title>
<path fill="none" stroke="#404040" d="M244.719,-232.258C246.072,-215.347 247.823,-193.457 249.322,-174.728"/>
<polygon fill="none" stroke="#404040" points="249.33,-174.626 245.821,-168.326 250.287,-162.664 253.796,-168.964 249.33,-174.626"/>
<text text-anchor="middle" x="273" y="-195" font-family="Helvetica,sans-Serif" font-size="10.00"> +uniforms</text>
</g>
<!-- Node8 -->
<g id="node8" class="node"><title>Node8</title>
<polygon fill="none" stroke="#bfbfbf" points="193,-337.5 193,-394.5 282,-394.5 282,-337.5 193,-337.5"/>
<text text-anchor="middle" x="237.5" y="-382.5" font-family="Helvetica,sans-Serif" font-size="10.00">sg_uniform_type</text>
<polyline fill="none" stroke="#bfbfbf" points="193,-375.5 282,-375.5 "/>
<text text-anchor="middle" x="237.5" y="-363.5" font-family="Helvetica,sans-Serif" font-size="10.00"> </text>
<polyline fill="none" stroke="#bfbfbf" points="193,-356.5 282,-356.5 "/>
<text text-anchor="middle" x="237.5" y="-344.5" font-family="Helvetica,sans-Serif" font-size="10.00"> </text>
</g>
<!-- Node8&#45;&gt;Node7 -->
<g id="edge9" class="edge"><title>Node8&#45;&gt;Node7</title>
<path fill="none" stroke="#404040" d="M237.599,-337.444C237.735,-328.093 238,-317.587 238.5,-308 238.606,-305.964 238.731,-303.878 238.869,-301.772"/>
<polygon fill="none" stroke="#404040" points="238.876,-301.675 235.339,-295.391 239.778,-289.709 243.316,-295.992 238.876,-301.675"/>
<text text-anchor="middle" x="252.5" y="-311" font-family="Helvetica,sans-Serif" font-size="10.00"> +type</text>
</g>
</g>
</svg>
