<?xml version="1.0" encoding="UTF-8" standalone="no"?>
<!DOCTYPE svg PUBLIC "-//W3C//DTD SVG 1.1//EN"
 "http://www.w3.org/Graphics/SVG/1.1/DTD/svg11.dtd">
<!-- Generated by graphviz version 2.38.0 (20140413.2041)
 -->
<!-- Title: o2::trd::LocalVDrift Pages: 1 -->
<svg width="349pt" height="624pt"
 viewBox="0.00 0.00 349.00 624.00" xmlns="http://www.w3.org/2000/svg" xmlns:xlink="http://www.w3.org/1999/xlink">
<g id="graph0" class="graph" transform="scale(1 1) rotate(0) translate(4 620)">
<title>o2::trd::LocalVDrift</title>
<!-- Node1 -->
<g id="node1" class="node"><title>Node1</title>
<polygon fill="#bfbfbf" stroke="black" points="101.5,-0.5 101.5,-57.5 200.5,-57.5 200.5,-0.5 101.5,-0.5"/>
<text text-anchor="middle" x="151" y="-45.5" font-family="Helvetica,sans-Serif" font-size="10.00">o2::trd::LocalVDrift</text>
<polyline fill="none" stroke="black" points="101.5,-38.5 200.5,-38.5 "/>
<text text-anchor="middle" x="151" y="-26.5" font-family="Helvetica,sans-Serif" font-size="10.00"> </text>
<polyline fill="none" stroke="black" points="101.5,-19.5 200.5,-19.5 "/>
<text text-anchor="start" x="109.5" y="-7.5" font-family="Helvetica,sans-Serif" font-size="10.00">+ ~LocalVDrift()</text>
</g>
<!-- Node2 -->
<g id="node2" class="node"><title>Node2</title>
<g id="a_node2"><a xlink:href="../../da/dcc/classo2_1_1trd_1_1PadCalibrations.html" target="_top" xlink:title="{o2::trd::PadCalibrations\l\&lt; float \&gt;\n||+ PadCalibrations()\l+ ~PadCalibrations()\l+ getNChannels()\l+ getChamberPads()\l+ getValue()\l+ getPadValue()\l+ setPadValue()\l+ setPadValue()\l+ reset()\l+ init()\l+ dumpAllNonZeroValues()\l}">
<polygon fill="none" stroke="black" points="84,-95.5 84,-273.5 218,-273.5 218,-95.5 84,-95.5"/>
<text text-anchor="start" x="92" y="-261.5" font-family="Helvetica,sans-Serif" font-size="10.00">o2::trd::PadCalibrations</text>
<text text-anchor="middle" x="151" y="-250.5" font-family="Helvetica,sans-Serif" font-size="10.00">&lt; float &gt;</text>
<polyline fill="none" stroke="black" points="84,-243.5 218,-243.5 "/>
<text text-anchor="middle" x="151" y="-231.5" font-family="Helvetica,sans-Serif" font-size="10.00"> </text>
<polyline fill="none" stroke="black" points="84,-224.5 218,-224.5 "/>
<text text-anchor="start" x="92" y="-212.5" font-family="Helvetica,sans-Serif" font-size="10.00">+ PadCalibrations()</text>
<text text-anchor="start" x="92" y="-201.5" font-family="Helvetica,sans-Serif" font-size="10.00">+ ~PadCalibrations()</text>
<text text-anchor="start" x="92" y="-190.5" font-family="Helvetica,sans-Serif" font-size="10.00">+ getNChannels()</text>
<text text-anchor="start" x="92" y="-179.5" font-family="Helvetica,sans-Serif" font-size="10.00">+ getChamberPads()</text>
<text text-anchor="start" x="92" y="-168.5" font-family="Helvetica,sans-Serif" font-size="10.00">+ getValue()</text>
<text text-anchor="start" x="92" y="-157.5" font-family="Helvetica,sans-Serif" font-size="10.00">+ getPadValue()</text>
<text text-anchor="start" x="92" y="-146.5" font-family="Helvetica,sans-Serif" font-size="10.00">+ setPadValue()</text>
<text text-anchor="start" x="92" y="-135.5" font-family="Helvetica,sans-Serif" font-size="10.00">+ setPadValue()</text>
<text text-anchor="start" x="92" y="-124.5" font-family="Helvetica,sans-Serif" font-size="10.00">+ reset()</text>
<text text-anchor="start" x="92" y="-113.5" font-family="Helvetica,sans-Serif" font-size="10.00">+ init()</text>
<text text-anchor="start" x="92" y="-102.5" font-family="Helvetica,sans-Serif" font-size="10.00">+ dumpAllNonZeroValues()</text>
</a>
</g>
</g>
<!-- Node2&#45;&gt;Node1 -->
<g id="edge1" class="edge"><title>Node2&#45;&gt;Node1</title>
<path fill="none" stroke="midnightblue" d="M151,-85.0224C151,-75.0956 151,-65.6973 151,-57.5701"/>
<polygon fill="none" stroke="midnightblue" points="147.5,-85.0978 151,-95.0978 154.5,-85.0979 147.5,-85.0978"/>
</g>
<!-- Node3 -->
<g id="node3" class="node"><title>Node3</title>
<g id="a_node3"><a xlink:href="../../d1/dca/classstd_1_1array_3_01o2_1_1trd_1_1PadParameters_3_01float_01_4_00_01o2_1_1trd_1_1TRDSimParam_1_1kNdet_01_4.html" target="_top" xlink:title="{array\&lt; o2::trd::PadParameters\l\&lt; float \&gt;, o2::trd::TRDSimParam\l::kNdet \&gt;\n||}">
<polygon fill="none" stroke="black" points="0,-365.5 0,-444.5 160,-444.5 160,-365.5 0,-365.5"/>
<text text-anchor="start" x="8" y="-432.5" font-family="Helvetica,sans-Serif" font-size="10.00">array&lt; o2::trd::PadParameters</text>
<text text-anchor="start" x="8" y="-421.5" font-family="Helvetica,sans-Serif" font-size="10.00">&lt; float &gt;, o2::trd::TRDSimParam</text>
<text text-anchor="middle" x="80" y="-410.5" font-family="Helvetica,sans-Serif" font-size="10.00">::kNdet &gt;</text>
<polyline fill="none" stroke="black" points="0,-403.5 160,-403.5 "/>
<text text-anchor="middle" x="80" y="-391.5" font-family="Helvetica,sans-Serif" font-size="10.00"> </text>
<polyline fill="none" stroke="black" points="0,-384.5 160,-384.5 "/>
<text text-anchor="middle" x="80" y="-372.5" font-family="Helvetica,sans-Serif" font-size="10.00"> </text>
</a>
</g>
</g>
<!-- Node3&#45;&gt;Node2 -->
<g id="edge2" class="edge"><title>Node3&#45;&gt;Node2</title>
<path fill="none" stroke="#404040" d="M88.7833,-365.306C94.0236,-343.574 101.171,-316.067 109,-292 109.738,-289.732 110.499,-287.442 111.279,-285.139"/>
<polygon fill="none" stroke="#404040" points="111.375,-284.864 109.572,-277.881 115.324,-273.532 117.126,-280.514 111.375,-284.864"/>
<text text-anchor="middle" x="154.5" y="-295" font-family="Helvetica,sans-Serif" font-size="10.00"> #mreadOutChamber</text>
</g>
<!-- Node4 -->
<g id="node4" class="node"><title>Node4</title>
<g id="a_node4"><a xlink:href="../../da/dcc/classo2_1_1trd_1_1PadCalibrations.html" target="_top" xlink:title="{o2::trd::PadCalibrations\&lt; T \&gt;\n||+ PadCalibrations()\l+ ~PadCalibrations()\l+ getNChannels()\l+ getChamberPads()\l+ getValue()\l+ getPadValue()\l+ setPadValue()\l+ setPadValue()\l+ reset()\l+ init()\l+ dumpAllNonZeroValues()\l}">
<polygon fill="none" stroke="black" points="178.5,-321.5 178.5,-488.5 321.5,-488.5 321.5,-321.5 178.5,-321.5"/>
<text text-anchor="middle" x="250" y="-476.5" font-family="Helvetica,sans-Serif" font-size="10.00">o2::trd::PadCalibrations&lt; T &gt;</text>
<polyline fill="none" stroke="black" points="178.5,-469.5 321.5,-469.5 "/>
<text text-anchor="middle" x="250" y="-457.5" font-family="Helvetica,sans-Serif" font-size="10.00"> </text>
<polyline fill="none" stroke="black" points="178.5,-450.5 321.5,-450.5 "/>
<text text-anchor="start" x="186.5" y="-438.5" font-family="Helvetica,sans-Serif" font-size="10.00">+ PadCalibrations()</text>
<text text-anchor="start" x="186.5" y="-427.5" font-family="Helvetica,sans-Serif" font-size="10.00">+ ~PadCalibrations()</text>
<text text-anchor="start" x="186.5" y="-416.5" font-family="Helvetica,sans-Serif" font-size="10.00">+ getNChannels()</text>
<text text-anchor="start" x="186.5" y="-405.5" font-family="Helvetica,sans-Serif" font-size="10.00">+ getChamberPads()</text>
<text text-anchor="start" x="186.5" y="-394.5" font-family="Helvetica,sans-Serif" font-size="10.00">+ getValue()</text>
<text text-anchor="start" x="186.5" y="-383.5" font-family="Helvetica,sans-Serif" font-size="10.00">+ getPadValue()</text>
<text text-anchor="start" x="186.5" y="-372.5" font-family="Helvetica,sans-Serif" font-size="10.00">+ setPadValue()</text>
<text text-anchor="start" x="186.5" y="-361.5" font-family="Helvetica,sans-Serif" font-size="10.00">+ setPadValue()</text>
<text text-anchor="start" x="186.5" y="-350.5" font-family="Helvetica,sans-Serif" font-size="10.00">+ reset()</text>
<text text-anchor="start" x="186.5" y="-339.5" font-family="Helvetica,sans-Serif" font-size="10.00">+ init()</text>
<text text-anchor="start" x="186.5" y="-328.5" font-family="Helvetica,sans-Serif" font-size="10.00">+ dumpAllNonZeroValues()</text>
</a>
</g>
</g>
<!-- Node4&#45;&gt;Node2 -->
<g id="edge3" class="edge"><title>Node4&#45;&gt;Node2</title>
<path fill="none" stroke="orange" d="M209.069,-312.09C206.009,-305.287 202.961,-298.534 200,-292 197.269,-285.975 194.442,-279.764 191.587,-273.51"/>
<polygon fill="orange" stroke="orange" points="205.952,-313.692 213.243,-321.38 212.338,-310.824 205.952,-313.692"/>
<text text-anchor="middle" x="224" y="-295" font-family="Helvetica,sans-Serif" font-size="10.00"> &lt; float &gt;</text>
</g>
<!-- Node5 -->
<g id="node5" class="node"><title>Node5</title>
<polygon fill="none" stroke="#bfbfbf" points="175.5,-536.5 175.5,-615.5 324.5,-615.5 324.5,-536.5 175.5,-536.5"/>
<text text-anchor="start" x="183.5" y="-603.5" font-family="Helvetica,sans-Serif" font-size="10.00">array&lt; o2::trd::PadParameters</text>
<text text-anchor="start" x="183.5" y="-592.5" font-family="Helvetica,sans-Serif" font-size="10.00">&lt; T &gt;, o2::trd::TRDSimParam</text>
<text text-anchor="middle" x="250" y="-581.5" font-family="Helvetica,sans-Serif" font-size="10.00">::kNdet &gt;</text>
<polyline fill="none" stroke="#bfbfbf" points="175.5,-574.5 324.5,-574.5 "/>
<text text-anchor="middle" x="250" y="-562.5" font-family="Helvetica,sans-Serif" font-size="10.00"> </text>
<polyline fill="none" stroke="#bfbfbf" points="175.5,-555.5 324.5,-555.5 "/>
<text text-anchor="middle" x="250" y="-543.5" font-family="Helvetica,sans-Serif" font-size="10.00"> </text>
</g>
<!-- Node5&#45;&gt;Node4 -->
<g id="edge4" class="edge"><title>Node5&#45;&gt;Node4</title>
<path fill="none" stroke="#404040" d="M250,-536.228C250,-525.446 250,-513.243 250,-500.736"/>
<polygon fill="none" stroke="#404040" points="250,-500.688 246,-494.688 250,-488.688 254,-494.688 250,-500.688"/>
<text text-anchor="middle" x="295.5" y="-510" font-family="Helvetica,sans-Serif" font-size="10.00"> #mreadOutChamber</text>
</g>
</g>
</svg>
