<?xml version="1.0" encoding="UTF-8" standalone="no"?>
<!DOCTYPE svg PUBLIC "-//W3C//DTD SVG 1.1//EN"
 "http://www.w3.org/Graphics/SVG/1.1/DTD/svg11.dtd">
<!-- Generated by graphviz version 2.38.0 (20140413.2041)
 -->
<!-- Title: SizedTrailer Pages: 1 -->
<svg width="145pt" height="182pt"
 viewBox="0.00 0.00 144.50 182.00" xmlns="http://www.w3.org/2000/svg" xmlns:xlink="http://www.w3.org/1999/xlink">
<g id="graph0" class="graph" transform="scale(1 1) rotate(0) translate(4 178)">
<title>SizedTrailer</title>
<!-- Node1 -->
<g id="node1" class="node"><title>Node1</title>
<polygon fill="#bfbfbf" stroke="black" points="23,-0.5 23,-57.5 106,-57.5 106,-0.5 23,-0.5"/>
<text text-anchor="middle" x="64.5" y="-45.5" font-family="Helvetica,sans-Serif" font-size="10.00">SizedTrailer</text>
<polyline fill="none" stroke="black" points="23,-38.5 106,-38.5 "/>
<text text-anchor="middle" x="64.5" y="-26.5" font-family="Helvetica,sans-Serif" font-size="10.00"> </text>
<polyline fill="none" stroke="black" points="23,-19.5 106,-19.5 "/>
<text text-anchor="start" x="31" y="-7.5" font-family="Helvetica,sans-Serif" font-size="10.00">+ SizedTrailer()</text>
</g>
<!-- Node2 -->
<g id="node2" class="node"><title>Node2</title>
<g id="a_node2"><a xlink:href="../../dd/de2/classsize__t.html" target="_top" xlink:title="{size_t\n||}">
<polygon fill="none" stroke="black" points="0,-116.5 0,-173.5 43,-173.5 43,-116.5 0,-116.5"/>
<text text-anchor="middle" x="21.5" y="-161.5" font-family="Helvetica,sans-Serif" font-size="10.00">size_t</text>
<polyline fill="none" stroke="black" points="0,-154.5 43,-154.5 "/>
<text text-anchor="middle" x="21.5" y="-142.5" font-family="Helvetica,sans-Serif" font-size="10.00"> </text>
<polyline fill="none" stroke="black" points="0,-135.5 43,-135.5 "/>
<text text-anchor="middle" x="21.5" y="-123.5" font-family="Helvetica,sans-Serif" font-size="10.00"> </text>
</a>
</g>
</g>
<!-- Node2&#45;&gt;Node1 -->
<g id="edge1" class="edge"><title>Node2&#45;&gt;Node1</title>
<path fill="none" stroke="#404040" d="M17.523,-116.326C16.7874,-103.627 17.4973,-88.6226 22.5,-76 23.6331,-73.1411 25.0327,-70.3497 26.6256,-67.6461"/>
<polygon fill="none" stroke="#404040" points="26.7029,-67.5354 26.8584,-60.3259 33.5731,-57.6966 33.4176,-64.906 26.7029,-67.5354"/>
<text text-anchor="middle" x="54" y="-84.5" font-family="Helvetica,sans-Serif" font-size="10.00"> +payloadSize</text>
</g>
<!-- Node3 -->
<g id="node3" class="node"><title>Node3</title>
<polygon fill="none" stroke="#bfbfbf" points="79.5,-116.5 79.5,-173.5 135.5,-173.5 135.5,-116.5 79.5,-116.5"/>
<text text-anchor="middle" x="107.5" y="-161.5" font-family="Helvetica,sans-Serif" font-size="10.00">unsigned</text>
<polyline fill="none" stroke="#bfbfbf" points="79.5,-154.5 135.5,-154.5 "/>
<text text-anchor="middle" x="107.5" y="-142.5" font-family="Helvetica,sans-Serif" font-size="10.00"> </text>
<polyline fill="none" stroke="#bfbfbf" points="79.5,-135.5 135.5,-135.5 "/>
<text text-anchor="middle" x="107.5" y="-123.5" font-family="Helvetica,sans-Serif" font-size="10.00"> </text>
</g>
<!-- Node3&#45;&gt;Node1 -->
<g id="edge2" class="edge"><title>Node3&#45;&gt;Node1</title>
<path fill="none" stroke="#404040" d="M99.3285,-116.285C95.4594,-103.85 90.5779,-89.0693 85.5,-76 84.581,-73.6346 83.6017,-71.2169 82.5876,-68.7888"/>
<polygon fill="none" stroke="#404040" points="82.4682,-68.514 76.4073,-64.6068 77.6829,-57.5094 83.7437,-61.4166 82.4682,-68.514"/>
<text text-anchor="middle" x="115" y="-90" font-family="Helvetica,sans-Serif" font-size="10.00"> +flags</text>
<text text-anchor="middle" x="115" y="-79" font-family="Helvetica,sans-Serif" font-size="10.00">+identifier</text>
</g>
</g>
</svg>
