<?xml version="1.0" encoding="UTF-8" standalone="no"?>
<!DOCTYPE svg PUBLIC "-//W3C//DTD SVG 1.1//EN"
 "http://www.w3.org/Graphics/SVG/1.1/DTD/svg11.dtd">
<!-- Generated by graphviz version 2.38.0 (20140413.2041)
 -->
<!-- Title: /home/travis/build/AliceO2Group/AliceO2/DataFormats/Detectors/FIT/FT0/src/RecPoints.cxx Pages: 1 -->
<!--zoomable 352 -->
<svg id="main" version="1.1" xmlns="http://www.w3.org/2000/svg" xmlns:xlink="http://www.w3.org/1999/xlink" xml:space="preserve" onload="init(evt)">
<style type="text/css"><![CDATA[
.edge:hover path { stroke: red; }
.edge:hover polygon { stroke: red; fill: red; }
]]></style>
<script type="text/javascript"><![CDATA[
var edges = document.getElementsByTagName('g');
if (edges && edges.length) {
  for (var i=0;i<edges.length;i++) {
    if (edges[i].id.substr(0,4)=='edge') {
      edges[i].setAttribute('class','edge');
    }
  }
}
]]></script>
        <defs>
                <circle id="rim" cx="0" cy="0" r="7"/>
                <circle id="rim2" cx="0" cy="0" r="3.5"/>
                <g id="zoomPlus">
                        <use xlink:href="#rim" fill="#404040">
                                <set attributeName="fill" to="#808080" begin="zoomplus.mouseover" end="zoomplus.mouseout"/>
                        </use>
                        <path d="M-4,0h8M0,-4v8" fill="none" stroke="white" stroke-width="1.5" pointer-events="none"/>
                </g>
                <g id="zoomMin">
                        <use xlink:href="#rim" fill="#404040">
                                <set attributeName="fill" to="#808080" begin="zoomminus.mouseover" end="zoomminus.mouseout"/>
                        </use>
                        <path d="M-4,0h8" fill="none" stroke="white" stroke-width="1.5" pointer-events="none"/>
                </g>
                <g id="dirArrow">
                        <path fill="none" stroke="white" stroke-width="1.5" d="M0,-3.0v7 M-2.5,-0.5L0,-3.0L2.5,-0.5"/>
                </g>
               <g id="resetDef">
                       <use xlink:href="#rim2" fill="#404040">
                               <set attributeName="fill" to="#808080" begin="reset.mouseover" end="reset.mouseout"/>
                       </use>
               </g>
        </defs>

<script type="text/javascript">
var viewWidth = 969;
var viewHeight = 352;
var sectionId = 'dynsection-0';
</script>
<script xlink:href="../../svgpan.js"/>
<svg id="graph" class="graph">
<g id="viewport">
<title>/home/travis/build/AliceO2Group/AliceO2/DataFormats/Detectors/FIT/FT0/src/RecPoints.cxx</title>
<!-- Node1 -->
<g id="node1" class="node"><title>Node1</title>
<polygon fill="#bfbfbf" stroke="black" points="530.127,-291.5 530.127,-343.5 669.127,-343.5 669.127,-291.5 530.127,-291.5"/>
<text text-anchor="start" x="538.127" y="-331.5" font-family="Helvetica,sans-Serif" font-size="10.00">/home/travis/build</text>
<text text-anchor="start" x="538.127" y="-320.5" font-family="Helvetica,sans-Serif" font-size="10.00">/AliceO2Group/AliceO2</text>
<text text-anchor="start" x="538.127" y="-309.5" font-family="Helvetica,sans-Serif" font-size="10.00">/DataFormats/Detectors</text>
<text text-anchor="middle" x="599.627" y="-298.5" font-family="Helvetica,sans-Serif" font-size="10.00">/FIT/FT0/src/RecPoints.cxx</text>
</g>
<!-- Node2 -->
<g id="node2" class="node"><title>Node2</title>
<g id="a_node2"><a xlink:href="../../d4/d57/RecPoints_8h.html" target="_top" xlink:title="Definition of the FIT RecPoints class. ">
<polygon fill="none" stroke="black" points="181.627,-235.5 181.627,-254.5 329.627,-254.5 329.627,-235.5 181.627,-235.5"/>
<text text-anchor="middle" x="255.627" y="-242.5" font-family="Helvetica,sans-Serif" font-size="10.00">DataFormatsFT0/RecPoints.h</text>
</a>
</g>
</g>
<!-- Node1&#45;&gt;Node2 -->
<g id="edge1" class="edge"><title>Node1&#45;&gt;Node2</title>
<path fill="none" stroke="midnightblue" d="M530.014,-302.233C464.13,-288.731 366.735,-268.771 307.44,-256.619"/>
<polygon fill="midnightblue" stroke="midnightblue" points="308.044,-253.17 297.545,-254.591 306.638,-260.027 308.044,-253.17"/>
</g>
<!-- Node3 -->
<g id="node3" class="node"><title>Node3</title>
<g id="a_node3"><a xlink:href="../../d9/d80/InteractionRecord_8h.html" target="_top" xlink:title="CommonDataFormat/Interaction\lRecord.h">
<polygon fill="none" stroke="black" points="279.127,-112.5 279.127,-142.5 436.127,-142.5 436.127,-112.5 279.127,-112.5"/>
<text text-anchor="start" x="287.127" y="-130.5" font-family="Helvetica,sans-Serif" font-size="10.00">CommonDataFormat/Interaction</text>
<text text-anchor="middle" x="357.627" y="-119.5" font-family="Helvetica,sans-Serif" font-size="10.00">Record.h</text>
</a>
</g>
</g>
<!-- Node1&#45;&gt;Node3 -->
<g id="edge26" class="edge"><title>Node1&#45;&gt;Node3</title>
<path fill="none" stroke="midnightblue" d="M540.097,-291.332C497.286,-271.055 440.186,-239.312 399.627,-199 386.08,-185.536 375.204,-166.839 367.916,-152.083"/>
<polygon fill="midnightblue" stroke="midnightblue" points="370.882,-150.166 363.455,-142.61 364.549,-153.148 370.882,-150.166"/>
</g>
<!-- Node6 -->
<g id="node6" class="node"><title>Node6</title>
<polygon fill="none" stroke="#bfbfbf" points="548.627,-56.5 548.627,-75.5 592.627,-75.5 592.627,-56.5 548.627,-56.5"/>
<text text-anchor="middle" x="570.627" y="-63.5" font-family="Helvetica,sans-Serif" font-size="10.00">cmath</text>
</g>
<!-- Node1&#45;&gt;Node6 -->
<g id="edge23" class="edge"><title>Node1&#45;&gt;Node6</title>
<path fill="none" stroke="midnightblue" d="M588.625,-291.258C584.381,-280.326 579.987,-267.248 577.627,-255 565.906,-194.18 567.709,-120.302 569.432,-86.0878"/>
<polygon fill="midnightblue" stroke="midnightblue" points="572.947,-85.9075 570.015,-75.7264 565.958,-85.5138 572.947,-85.9075"/>
</g>
<!-- Node13 -->
<g id="node13" class="node"><title>Node13</title>
<g id="a_node13"><a xlink:href="../../d0/d0a/DataFormats_2Detectors_2FIT_2FT0_2include_2DataFormatsFT0_2Digit_8h.html" target="_top" xlink:title="DataFormatsFT0/Digit.h">
<polygon fill="none" stroke="black" points="408.627,-179.5 408.627,-198.5 530.627,-198.5 530.627,-179.5 408.627,-179.5"/>
<text text-anchor="middle" x="469.627" y="-186.5" font-family="Helvetica,sans-Serif" font-size="10.00">DataFormatsFT0/Digit.h</text>
</a>
</g>
</g>
<!-- Node1&#45;&gt;Node13 -->
<g id="edge22" class="edge"><title>Node1&#45;&gt;Node13</title>
<path fill="none" stroke="midnightblue" d="M573.632,-291.205C547.367,-265.647 507.619,-226.969 485.646,-205.588"/>
<polygon fill="midnightblue" stroke="midnightblue" points="488.021,-203.015 478.413,-198.55 483.139,-208.032 488.021,-203.015"/>
</g>
<!-- Node14 -->
<g id="node14" class="node"><title>Node14</title>
<g id="a_node14"><a xlink:href="../../db/df4/FIT_2FT0_2base_2include_2FT0Base_2Geometry_8h.html" target="_top" xlink:title="FT0Base/Geometry.h">
<polygon fill="none" stroke="black" points="586.627,-235.5 586.627,-254.5 696.627,-254.5 696.627,-235.5 586.627,-235.5"/>
<text text-anchor="middle" x="641.627" y="-242.5" font-family="Helvetica,sans-Serif" font-size="10.00">FT0Base/Geometry.h</text>
</a>
</g>
</g>
<!-- Node1&#45;&gt;Node14 -->
<g id="edge19" class="edge"><title>Node1&#45;&gt;Node14</title>
<path fill="none" stroke="midnightblue" d="M614.553,-291.446C620.103,-282.129 626.273,-271.772 631.32,-263.302"/>
<polygon fill="midnightblue" stroke="midnightblue" points="634.336,-265.078 636.447,-254.695 628.322,-261.495 634.336,-265.078"/>
</g>
<!-- Node16 -->
<g id="node16" class="node"><title>Node16</title>
<polygon fill="none" stroke="#bfbfbf" points="715.127,-235.5 715.127,-254.5 764.127,-254.5 764.127,-235.5 715.127,-235.5"/>
<text text-anchor="middle" x="739.627" y="-242.5" font-family="Helvetica,sans-Serif" font-size="10.00">cassert</text>
</g>
<!-- Node1&#45;&gt;Node16 -->
<g id="edge24" class="edge"><title>Node1&#45;&gt;Node16</title>
<path fill="none" stroke="midnightblue" d="M649.38,-291.446C670.998,-280.56 695.435,-268.254 713.423,-259.196"/>
<polygon fill="midnightblue" stroke="midnightblue" points="715.337,-262.151 722.694,-254.527 712.188,-255.899 715.337,-262.151"/>
</g>
<!-- Node17 -->
<g id="node17" class="node"><title>Node17</title>
<polygon fill="none" stroke="#bfbfbf" points="782.627,-235.5 782.627,-254.5 836.627,-254.5 836.627,-235.5 782.627,-235.5"/>
<text text-anchor="middle" x="809.627" y="-242.5" font-family="Helvetica,sans-Serif" font-size="10.00">iostream</text>
</g>
<!-- Node1&#45;&gt;Node17 -->
<g id="edge25" class="edge"><title>Node1&#45;&gt;Node17</title>
<path fill="none" stroke="midnightblue" d="M669.262,-293.122C704.613,-281.255 746.02,-267.354 774.655,-257.741"/>
<polygon fill="midnightblue" stroke="midnightblue" points="775.854,-261.03 784.221,-254.529 773.627,-254.394 775.854,-261.03"/>
</g>
<!-- Node18 -->
<g id="node18" class="node"><title>Node18</title>
<g id="a_node18"><a xlink:href="../../dd/da4/Logger_8h.html" target="_top" xlink:title="Framework/Logger.h">
<polygon fill="none" stroke="black" points="854.627,-235.5 854.627,-254.5 960.627,-254.5 960.627,-235.5 854.627,-235.5"/>
<text text-anchor="middle" x="907.627" y="-242.5" font-family="Helvetica,sans-Serif" font-size="10.00">Framework/Logger.h</text>
</a>
</g>
</g>
<!-- Node1&#45;&gt;Node18 -->
<g id="edge27" class="edge"><title>Node1&#45;&gt;Node18</title>
<path fill="none" stroke="midnightblue" d="M669.132,-300.591C727.516,-287.227 809.367,-268.491 860.404,-256.809"/>
<polygon fill="midnightblue" stroke="midnightblue" points="861.217,-260.214 870.184,-254.57 859.655,-253.39 861.217,-260.214"/>
</g>
<!-- Node2&#45;&gt;Node3 -->
<g id="edge2" class="edge"><title>Node2&#45;&gt;Node3</title>
<path fill="none" stroke="midnightblue" d="M246.795,-235.472C234.478,-222.522 214.998,-197.455 227.627,-179 237.838,-164.079 253.152,-153.566 269.725,-146.159"/>
<polygon fill="midnightblue" stroke="midnightblue" points="271.103,-149.377 279.037,-142.356 268.456,-142.897 271.103,-149.377"/>
</g>
<!-- Node4 -->
<g id="node4" class="node"><title>Node4</title>
<polygon fill="none" stroke="#bfbfbf" points="130.627,-0.5 130.627,-19.5 186.627,-19.5 186.627,-0.5 130.627,-0.5"/>
<text text-anchor="middle" x="158.627" y="-7.5" font-family="Helvetica,sans-Serif" font-size="10.00">Rtypes.h</text>
</g>
<!-- Node2&#45;&gt;Node4 -->
<g id="edge12" class="edge"><title>Node2&#45;&gt;Node4</title>
<path fill="none" stroke="midnightblue" d="M224.773,-235.364C166.955,-217.213 44.461,-168.903 3.62703,-76 -17.5627,-27.7903 68.1525,-15.2495 120.577,-12.0459"/>
<polygon fill="midnightblue" stroke="midnightblue" points="120.773,-15.5406 130.576,-11.5219 120.406,-8.55014 120.773,-15.5406"/>
</g>
<!-- Node9 -->
<g id="node9" class="node"><title>Node9</title>
<g id="a_node9"><a xlink:href="../../df/d5d/common_2include_2CommonDataFormat_2TimeStamp_8h.html" target="_top" xlink:title="CommonDataFormat/TimeStamp.h">
<polygon fill="none" stroke="black" points="85.627,-118 85.627,-137 255.627,-137 255.627,-118 85.627,-118"/>
<text text-anchor="middle" x="170.627" y="-125" font-family="Helvetica,sans-Serif" font-size="10.00">CommonDataFormat/TimeStamp.h</text>
</a>
</g>
</g>
<!-- Node2&#45;&gt;Node9 -->
<g id="edge8" class="edge"><title>Node2&#45;&gt;Node9</title>
<path fill="none" stroke="midnightblue" d="M238.908,-235.438C225.223,-227.643 206.283,-214.931 194.627,-199 183.311,-183.534 177.053,-162.344 173.79,-147.243"/>
<polygon fill="midnightblue" stroke="midnightblue" points="177.162,-146.241 171.844,-137.077 170.287,-147.557 177.162,-146.241"/>
</g>
<!-- Node11 -->
<g id="node11" class="node"><title>Node11</title>
<polygon fill="none" stroke="#bfbfbf" points="236.627,-179.5 236.627,-198.5 274.627,-198.5 274.627,-179.5 236.627,-179.5"/>
<text text-anchor="middle" x="255.627" y="-186.5" font-family="Helvetica,sans-Serif" font-size="10.00">array</text>
</g>
<!-- Node2&#45;&gt;Node11 -->
<g id="edge11" class="edge"><title>Node2&#45;&gt;Node11</title>
<path fill="none" stroke="midnightblue" d="M255.627,-235.083C255.627,-228.006 255.627,-217.861 255.627,-208.986"/>
<polygon fill="midnightblue" stroke="midnightblue" points="259.127,-208.751 255.627,-198.751 252.127,-208.751 259.127,-208.751"/>
</g>
<!-- Node12 -->
<g id="node12" class="node"><title>Node12</title>
<polygon fill="none" stroke="#bfbfbf" points="293.127,-179.5 293.127,-198.5 352.127,-198.5 352.127,-179.5 293.127,-179.5"/>
<text text-anchor="middle" x="322.627" y="-186.5" font-family="Helvetica,sans-Serif" font-size="10.00">TObject.h</text>
</g>
<!-- Node2&#45;&gt;Node12 -->
<g id="edge13" class="edge"><title>Node2&#45;&gt;Node12</title>
<path fill="none" stroke="midnightblue" d="M266.392,-235.324C276.393,-227.263 291.514,-215.077 303.558,-205.369"/>
<polygon fill="midnightblue" stroke="midnightblue" points="306.077,-207.834 311.666,-198.834 301.684,-202.384 306.077,-207.834"/>
</g>
<!-- Node2&#45;&gt;Node13 -->
<g id="edge14" class="edge"><title>Node2&#45;&gt;Node13</title>
<path fill="none" stroke="midnightblue" d="M289.536,-235.444C326.476,-226.122 385.681,-211.183 426.045,-200.997"/>
<polygon fill="midnightblue" stroke="midnightblue" points="427.037,-204.357 435.877,-198.516 425.324,-197.57 427.037,-204.357"/>
</g>
<!-- Node3&#45;&gt;Node4 -->
<g id="edge3" class="edge"><title>Node3&#45;&gt;Node4</title>
<path fill="none" stroke="midnightblue" d="M279.67,-112.416C238.1,-103.43 192.51,-90.7223 177.627,-76 165.492,-63.9957 161.01,-44.7006 159.404,-30.2456"/>
<polygon fill="midnightblue" stroke="midnightblue" points="162.868,-29.6373 158.641,-19.9224 155.887,-30.1532 162.868,-29.6373"/>
</g>
<!-- Node5 -->
<g id="node5" class="node"><title>Node5</title>
<polygon fill="none" stroke="#bfbfbf" points="447.127,-56.5 447.127,-75.5 492.127,-75.5 492.127,-56.5 447.127,-56.5"/>
<text text-anchor="middle" x="469.627" y="-63.5" font-family="Helvetica,sans-Serif" font-size="10.00">iosfwd</text>
</g>
<!-- Node3&#45;&gt;Node5 -->
<g id="edge4" class="edge"><title>Node3&#45;&gt;Node5</title>
<path fill="none" stroke="midnightblue" d="M384.169,-112.399C402.29,-102.773 426.163,-90.0902 444.07,-80.5772"/>
<polygon fill="midnightblue" stroke="midnightblue" points="446.141,-83.4403 453.33,-75.6578 442.857,-77.2585 446.141,-83.4403"/>
</g>
<!-- Node3&#45;&gt;Node6 -->
<g id="edge5" class="edge"><title>Node3&#45;&gt;Node6</title>
<path fill="none" stroke="midnightblue" d="M407.835,-112.475C448.185,-101.203 503.662,-85.7063 538.315,-76.0262"/>
<polygon fill="midnightblue" stroke="midnightblue" points="539.671,-79.2813 548.361,-73.2199 537.788,-72.5394 539.671,-79.2813"/>
</g>
<!-- Node7 -->
<g id="node7" class="node"><title>Node7</title>
<polygon fill="none" stroke="#bfbfbf" points="186.627,-56.5 186.627,-75.5 232.627,-75.5 232.627,-56.5 186.627,-56.5"/>
<text text-anchor="middle" x="209.627" y="-63.5" font-family="Helvetica,sans-Serif" font-size="10.00">cstdint</text>
</g>
<!-- Node3&#45;&gt;Node7 -->
<g id="edge6" class="edge"><title>Node3&#45;&gt;Node7</title>
<path fill="none" stroke="midnightblue" d="M322.553,-112.399C297.61,-102.372 264.419,-89.028 240.483,-79.405"/>
<polygon fill="midnightblue" stroke="midnightblue" points="241.746,-76.1406 231.162,-75.6578 239.135,-82.6354 241.746,-76.1406"/>
</g>
<!-- Node8 -->
<g id="node8" class="node"><title>Node8</title>
<g id="a_node8"><a xlink:href="../../d4/dc6/LHCConstants_8h.html" target="_top" xlink:title="Header to collect LHC related constants. ">
<polygon fill="none" stroke="black" points="250.627,-56.5 250.627,-75.5 428.627,-75.5 428.627,-56.5 250.627,-56.5"/>
<text text-anchor="middle" x="339.627" y="-63.5" font-family="Helvetica,sans-Serif" font-size="10.00">CommonConstants/LHCConstants.h</text>
</a>
</g>
</g>
<!-- Node3&#45;&gt;Node8 -->
<g id="edge7" class="edge"><title>Node3&#45;&gt;Node8</title>
<path fill="none" stroke="midnightblue" d="M353.361,-112.399C350.907,-104.288 347.797,-94.0071 345.157,-85.2807"/>
<polygon fill="midnightblue" stroke="midnightblue" points="348.492,-84.2159 342.246,-75.6578 341.792,-86.2429 348.492,-84.2159"/>
</g>
<!-- Node10 -->
<g id="node10" class="node"><title>Node10</title>
<g id="a_node10"><a xlink:href="../../d2/d45/GPUCommonRtypes_8h.html" target="_top" xlink:title="GPUCommonRtypes.h">
<polygon fill="none" stroke="black" points="12.627,-56.5 12.627,-75.5 130.627,-75.5 130.627,-56.5 12.627,-56.5"/>
<text text-anchor="middle" x="71.627" y="-63.5" font-family="Helvetica,sans-Serif" font-size="10.00">GPUCommonRtypes.h</text>
</a>
</g>
</g>
<!-- Node9&#45;&gt;Node10 -->
<g id="edge9" class="edge"><title>Node9&#45;&gt;Node10</title>
<path fill="none" stroke="midnightblue" d="M156.443,-117.975C140.269,-108.255 113.601,-92.2266 94.4839,-80.7372"/>
<polygon fill="midnightblue" stroke="midnightblue" points="96.1591,-77.6606 85.785,-75.5091 92.5531,-83.6603 96.1591,-77.6606"/>
</g>
<!-- Node10&#45;&gt;Node4 -->
<g id="edge10" class="edge"><title>Node10&#45;&gt;Node4</title>
<path fill="none" stroke="midnightblue" d="M85.6051,-56.324C99.1767,-47.9002 120.007,-34.9709 135.952,-25.0741"/>
<polygon fill="midnightblue" stroke="midnightblue" points="138.033,-27.9019 144.684,-19.6545 134.341,-21.9544 138.033,-27.9019"/>
</g>
<!-- Node13&#45;&gt;Node3 -->
<g id="edge15" class="edge"><title>Node13&#45;&gt;Node3</title>
<path fill="none" stroke="midnightblue" d="M453.58,-179.475C437.844,-171.115 413.326,-158.09 393.014,-147.299"/>
<polygon fill="midnightblue" stroke="midnightblue" points="394.496,-144.124 384.023,-142.523 391.212,-150.305 394.496,-144.124"/>
</g>
<!-- Node13&#45;&gt;Node4 -->
<g id="edge18" class="edge"><title>Node13&#45;&gt;Node4</title>
<path fill="none" stroke="midnightblue" d="M476.131,-179.37C492.658,-156.329 532.757,-92.6346 500.627,-56 480.821,-33.417 281.998,-18.5918 196.921,-13.2353"/>
<polygon fill="midnightblue" stroke="midnightblue" points="197.088,-9.73901 186.891,-12.6146 196.656,-16.7256 197.088,-9.73901"/>
</g>
<!-- Node13&#45;&gt;Node5 -->
<g id="edge17" class="edge"><title>Node13&#45;&gt;Node5</title>
<path fill="none" stroke="midnightblue" d="M469.627,-179.298C469.627,-159.85 469.627,-112.49 469.627,-85.9036"/>
<polygon fill="midnightblue" stroke="midnightblue" points="473.127,-85.6231 469.627,-75.6232 466.127,-85.6232 473.127,-85.6231"/>
</g>
<!-- Node13&#45;&gt;Node9 -->
<g id="edge16" class="edge"><title>Node13&#45;&gt;Node9</title>
<path fill="none" stroke="midnightblue" d="M426.788,-179.475C373.167,-168.805 281.35,-150.534 223.436,-139.009"/>
<polygon fill="midnightblue" stroke="midnightblue" points="223.878,-135.528 213.387,-137.009 222.512,-142.394 223.878,-135.528"/>
</g>
<!-- Node14&#45;&gt;Node4 -->
<g id="edge20" class="edge"><title>Node14&#45;&gt;Node4</title>
<path fill="none" stroke="midnightblue" d="M641.097,-235.346C638.853,-201.737 628.95,-80.5111 601.627,-56 571.754,-29.2018 298.874,-16.2702 196.866,-12.3414"/>
<polygon fill="midnightblue" stroke="midnightblue" points="196.821,-8.83735 186.696,-11.9579 196.557,-15.8324 196.821,-8.83735"/>
</g>
<!-- Node15 -->
<g id="node15" class="node"><title>Node15</title>
<polygon fill="none" stroke="#bfbfbf" points="649.127,-179.5 649.127,-198.5 714.127,-198.5 714.127,-179.5 649.127,-179.5"/>
<text text-anchor="middle" x="681.627" y="-186.5" font-family="Helvetica,sans-Serif" font-size="10.00">TVector3.h</text>
</g>
<!-- Node14&#45;&gt;Node15 -->
<g id="edge21" class="edge"><title>Node14&#45;&gt;Node15</title>
<path fill="none" stroke="midnightblue" d="M648.232,-235.083C653.882,-227.455 662.172,-216.264 669.078,-206.941"/>
<polygon fill="midnightblue" stroke="midnightblue" points="672.005,-208.87 675.145,-198.751 666.38,-204.703 672.005,-208.87"/>
</g>
</g>
</svg>
        <g id="navigator" transform="translate(0 0)" fill="#404254">
                <rect fill="#f2f5e9" fill-opacity="0.5" stroke="#606060" stroke-width=".5" x="0" y="0" width="60" height="60"/>
                <use id="zoomplus" xlink:href="#zoomPlus" x="17" y="9" onmousedown="handleZoom(evt,'in')"/>
                <use id="zoomminus" xlink:href="#zoomMin" x="42" y="9" onmousedown="handleZoom(evt,'out')"/>
                <use id="reset" xlink:href="#resetDef" x="30" y="36" onmousedown="handleReset()"/>
                <g id="arrowUp" xlink:href="#dirArrow" transform="translate(30 24)" onmousedown="handlePan(0,-1)">
                  <use xlink:href="#rim" fill="#404040">
                        <set attributeName="fill" to="#808080" begin="arrowUp.mouseover" end="arrowUp.mouseout"/>
                  </use>
                  <path fill="none" stroke="white" stroke-width="1.5" d="M0,-3.0v7 M-2.5,-0.5L0,-3.0L2.5,-0.5"/>
                </g>
                <g id="arrowRight" xlink:href="#dirArrow" transform="rotate(90) translate(36 -43)" onmousedown="handlePan(1,0)">
                  <use xlink:href="#rim" fill="#404040">
                        <set attributeName="fill" to="#808080" begin="arrowRight.mouseover" end="arrowRight.mouseout"/>
                  </use>
                  <path fill="none" stroke="white" stroke-width="1.5" d="M0,-3.0v7 M-2.5,-0.5L0,-3.0L2.5,-0.5"/>
                </g>
                <g id="arrowDown" xlink:href="#dirArrow" transform="rotate(180) translate(-30 -48)" onmousedown="handlePan(0,1)">
                  <use xlink:href="#rim" fill="#404040">
                        <set attributeName="fill" to="#808080" begin="arrowDown.mouseover" end="arrowDown.mouseout"/>
                  </use>
                  <path fill="none" stroke="white" stroke-width="1.5" d="M0,-3.0v7 M-2.5,-0.5L0,-3.0L2.5,-0.5"/>
                </g>
                <g id="arrowLeft" xlink:href="#dirArrow" transform="rotate(270) translate(-36 17)" onmousedown="handlePan(-1,0)">
                  <use xlink:href="#rim" fill="#404040">
                        <set attributeName="fill" to="#808080" begin="arrowLeft.mouseover" end="arrowLeft.mouseout"/>
                  </use>
                  <path fill="none" stroke="white" stroke-width="1.5" d="M0,-3.0v7 M-2.5,-0.5L0,-3.0L2.5,-0.5"/>
                </g>
        </g>
        <svg viewBox="0 0 15 15" width="100%" height="30px" preserveAspectRatio="xMaxYMin meet">
         <g id="arrow_out" transform="scale(0.3 0.3)">
          <a xlink:href="RecPoints_8cxx__incl_org.svg" target="_base">
           <rect id="button" ry="5" rx="5" y="6" x="6" height="38" width="38"
                fill="#f2f5e9" fill-opacity="0.5" stroke="#606060" stroke-width="1.0"/>
           <path id="arrow"
             d="M 11.500037,31.436501 C 11.940474,20.09759 22.043105,11.32322 32.158766,21.979434 L 37.068811,17.246167 C 37.068811,17.246167 37.088388,32 37.088388,32 L 22.160133,31.978069 C 22.160133,31.978069 26.997745,27.140456 26.997745,27.140456 C 18.528582,18.264221 13.291696,25.230495 11.500037,31.436501 z"
             style="fill:#404040;"/>
          </a>
         </g>
        </svg>
</svg>
