<?xml version="1.0" encoding="UTF-8" standalone="no"?>
<!DOCTYPE svg PUBLIC "-//W3C//DTD SVG 1.1//EN"
 "http://www.w3.org/Graphics/SVG/1.1/DTD/svg11.dtd">
<!-- Generated by graphviz version 2.38.0 (20140413.2041)
 -->
<!-- Title: GPUCA_NAMESPACE::gpu::GPUReconstructionOCLInternals Pages: 1 -->
<!--zoomable 215 -->
<svg id="main" version="1.1" xmlns="http://www.w3.org/2000/svg" xmlns:xlink="http://www.w3.org/1999/xlink" xml:space="preserve" onload="init(evt)">
<style type="text/css"><![CDATA[
.edge:hover path { stroke: red; }
.edge:hover polygon { stroke: red; fill: red; }
]]></style>
<script type="text/javascript"><![CDATA[
var edges = document.getElementsByTagName('g');
if (edges && edges.length) {
  for (var i=0;i<edges.length;i++) {
    if (edges[i].id.substr(0,4)=='edge') {
      edges[i].setAttribute('class','edge');
    }
  }
}
]]></script>
        <defs>
                <circle id="rim" cx="0" cy="0" r="7"/>
                <circle id="rim2" cx="0" cy="0" r="3.5"/>
                <g id="zoomPlus">
                        <use xlink:href="#rim" fill="#404040">
                                <set attributeName="fill" to="#808080" begin="zoomplus.mouseover" end="zoomplus.mouseout"/>
                        </use>
                        <path d="M-4,0h8M0,-4v8" fill="none" stroke="white" stroke-width="1.5" pointer-events="none"/>
                </g>
                <g id="zoomMin">
                        <use xlink:href="#rim" fill="#404040">
                                <set attributeName="fill" to="#808080" begin="zoomminus.mouseover" end="zoomminus.mouseout"/>
                        </use>
                        <path d="M-4,0h8" fill="none" stroke="white" stroke-width="1.5" pointer-events="none"/>
                </g>
                <g id="dirArrow">
                        <path fill="none" stroke="white" stroke-width="1.5" d="M0,-3.0v7 M-2.5,-0.5L0,-3.0L2.5,-0.5"/>
                </g>
               <g id="resetDef">
                       <use xlink:href="#rim2" fill="#404040">
                               <set attributeName="fill" to="#808080" begin="reset.mouseover" end="reset.mouseout"/>
                       </use>
               </g>
        </defs>

<script type="text/javascript">
var viewWidth = 943;
var viewHeight = 215;
var sectionId = 'dynsection-1';
</script>
<script xlink:href="../../svgpan.js"/>
<svg id="graph" class="graph">
<g id="viewport">
<title>GPUCA_NAMESPACE::gpu::GPUReconstructionOCLInternals</title>
<!-- Node1 -->
<g id="node1" class="node"><title>Node1</title>
<polygon fill="#bfbfbf" stroke="black" points="428.5,-0.5 428.5,-68.5 596.5,-68.5 596.5,-0.5 428.5,-0.5"/>
<text text-anchor="start" x="436.5" y="-56.5" font-family="Helvetica,sans-Serif" font-size="10.00">GPUCA_NAMESPACE::gpu</text>
<text text-anchor="middle" x="512.5" y="-45.5" font-family="Helvetica,sans-Serif" font-size="10.00">::GPUReconstructionOCLInternals</text>
<polyline fill="none" stroke="black" points="428.5,-38.5 596.5,-38.5 "/>
<text text-anchor="middle" x="512.5" y="-26.5" font-family="Helvetica,sans-Serif" font-size="10.00"> </text>
<polyline fill="none" stroke="black" points="428.5,-19.5 596.5,-19.5 "/>
<text text-anchor="middle" x="512.5" y="-7.5" font-family="Helvetica,sans-Serif" font-size="10.00"> </text>
</g>
<!-- Node2 -->
<g id="node2" class="node"><title>Node2</title>
<polygon fill="none" stroke="#bfbfbf" points="0,-144 0,-201 65,-201 65,-144 0,-144"/>
<text text-anchor="middle" x="32.5" y="-189" font-family="Helvetica,sans-Serif" font-size="10.00">cl_program</text>
<polyline fill="none" stroke="#bfbfbf" points="0,-182 65,-182 "/>
<text text-anchor="middle" x="32.5" y="-170" font-family="Helvetica,sans-Serif" font-size="10.00"> </text>
<polyline fill="none" stroke="#bfbfbf" points="0,-163 65,-163 "/>
<text text-anchor="middle" x="32.5" y="-151" font-family="Helvetica,sans-Serif" font-size="10.00"> </text>
</g>
<!-- Node2&#45;&gt;Node1 -->
<g id="edge1" class="edge"><title>Node2&#45;&gt;Node1</title>
<path fill="none" stroke="#404040" d="M60.8436,-143.836C82.4681,-124.499 113.987,-99.9123 146.5,-87 233.497,-52.4493 340.192,-40.5524 415.886,-36.7104"/>
<polygon fill="none" stroke="#404040" points="416.243,-36.694 422.053,-32.4218 428.231,-36.1411 422.421,-40.4133 416.243,-36.694"/>
<text text-anchor="middle" x="169" y="-101" font-family="Helvetica,sans-Serif" font-size="10.00"> +program</text>
</g>
<!-- Node3 -->
<g id="node3" class="node"><title>Node3</title>
<polygon fill="none" stroke="#bfbfbf" points="83.5,-144 83.5,-201 187.5,-201 187.5,-144 83.5,-144"/>
<text text-anchor="middle" x="135.5" y="-189" font-family="Helvetica,sans-Serif" font-size="10.00">cl_command_queue</text>
<polyline fill="none" stroke="#bfbfbf" points="83.5,-182 187.5,-182 "/>
<text text-anchor="middle" x="135.5" y="-170" font-family="Helvetica,sans-Serif" font-size="10.00"> </text>
<polyline fill="none" stroke="#bfbfbf" points="83.5,-163 187.5,-163 "/>
<text text-anchor="middle" x="135.5" y="-151" font-family="Helvetica,sans-Serif" font-size="10.00"> </text>
</g>
<!-- Node3&#45;&gt;Node1 -->
<g id="edge2" class="edge"><title>Node3&#45;&gt;Node1</title>
<path fill="none" stroke="#404040" d="M164.156,-143.709C185.257,-124.828 215.553,-100.856 246.5,-87 299.971,-63.0601 364.374,-50.2246 416.417,-43.355"/>
<polygon fill="none" stroke="#404040" points="416.436,-43.3527 421.89,-38.6355 428.342,-41.8559 422.888,-46.573 416.436,-43.3527"/>
<text text-anchor="middle" x="288.5" y="-101" font-family="Helvetica,sans-Serif" font-size="10.00"> +command_queue</text>
</g>
<!-- Node4 -->
<g id="node4" class="node"><title>Node4</title>
<polygon fill="none" stroke="#bfbfbf" points="206,-138.5 206,-206.5 325,-206.5 325,-138.5 206,-138.5"/>
<text text-anchor="start" x="214" y="-194.5" font-family="Helvetica,sans-Serif" font-size="10.00">unique_ptr&lt; cl_platform</text>
<text text-anchor="middle" x="265.5" y="-183.5" font-family="Helvetica,sans-Serif" font-size="10.00">_id[]&gt;</text>
<polyline fill="none" stroke="#bfbfbf" points="206,-176.5 325,-176.5 "/>
<text text-anchor="middle" x="265.5" y="-164.5" font-family="Helvetica,sans-Serif" font-size="10.00"> </text>
<polyline fill="none" stroke="#bfbfbf" points="206,-157.5 325,-157.5 "/>
<text text-anchor="middle" x="265.5" y="-145.5" font-family="Helvetica,sans-Serif" font-size="10.00"> </text>
</g>
<!-- Node4&#45;&gt;Node1 -->
<g id="edge3" class="edge"><title>Node4&#45;&gt;Node1</title>
<path fill="none" stroke="#404040" d="M307.56,-138.312C329.912,-121.612 358.322,-101.826 385.5,-87 395.499,-81.5456 406.199,-76.3303 416.989,-71.4554"/>
<polygon fill="none" stroke="#404040" points="417.256,-71.3376 421.136,-65.2592 428.239,-66.5027 424.36,-72.5811 417.256,-71.3376"/>
<text text-anchor="middle" x="410.5" y="-101" font-family="Helvetica,sans-Serif" font-size="10.00"> +platforms</text>
</g>
<!-- Node5 -->
<g id="node5" class="node"><title>Node5</title>
<polygon fill="none" stroke="#bfbfbf" points="343.5,-138.5 343.5,-206.5 455.5,-206.5 455.5,-138.5 343.5,-138.5"/>
<text text-anchor="start" x="351.5" y="-194.5" font-family="Helvetica,sans-Serif" font-size="10.00">unique_ptr&lt; cl_device</text>
<text text-anchor="middle" x="399.5" y="-183.5" font-family="Helvetica,sans-Serif" font-size="10.00">_id[]&gt;</text>
<polyline fill="none" stroke="#bfbfbf" points="343.5,-176.5 455.5,-176.5 "/>
<text text-anchor="middle" x="399.5" y="-164.5" font-family="Helvetica,sans-Serif" font-size="10.00"> </text>
<polyline fill="none" stroke="#bfbfbf" points="343.5,-157.5 455.5,-157.5 "/>
<text text-anchor="middle" x="399.5" y="-145.5" font-family="Helvetica,sans-Serif" font-size="10.00"> </text>
</g>
<!-- Node5&#45;&gt;Node1 -->
<g id="edge4" class="edge"><title>Node5&#45;&gt;Node1</title>
<path fill="none" stroke="#404040" d="M424.625,-138.126C436.708,-122.392 451.566,-103.496 465.5,-87 468.039,-83.9947 470.69,-80.9224 473.385,-77.8486"/>
<polygon fill="none" stroke="#404040" points="473.556,-77.6559 474.554,-70.5141 481.53,-68.6881 480.533,-75.8299 473.556,-77.6559"/>
<text text-anchor="middle" x="487" y="-101" font-family="Helvetica,sans-Serif" font-size="10.00"> +devices</text>
</g>
<!-- Node6 -->
<g id="node6" class="node"><title>Node6</title>
<polygon fill="none" stroke="#bfbfbf" points="474,-144 474,-201 551,-201 551,-144 474,-144"/>
<text text-anchor="middle" x="512.5" y="-189" font-family="Helvetica,sans-Serif" font-size="10.00">cl_platform_id</text>
<polyline fill="none" stroke="#bfbfbf" points="474,-182 551,-182 "/>
<text text-anchor="middle" x="512.5" y="-170" font-family="Helvetica,sans-Serif" font-size="10.00"> </text>
<polyline fill="none" stroke="#bfbfbf" points="474,-163 551,-163 "/>
<text text-anchor="middle" x="512.5" y="-151" font-family="Helvetica,sans-Serif" font-size="10.00"> </text>
</g>
<!-- Node6&#45;&gt;Node1 -->
<g id="edge5" class="edge"><title>Node6&#45;&gt;Node1</title>
<path fill="none" stroke="#404040" d="M512.5,-143.978C512.5,-125.896 512.5,-101.81 512.5,-80.9274"/>
<polygon fill="none" stroke="#404040" points="512.5,-80.7476 508.5,-74.7476 512.5,-68.7476 516.5,-74.7476 512.5,-80.7476"/>
<text text-anchor="middle" x="535" y="-101" font-family="Helvetica,sans-Serif" font-size="10.00"> +platform</text>
</g>
<!-- Node7 -->
<g id="node7" class="node"><title>Node7</title>
<polygon fill="none" stroke="#bfbfbf" points="569.5,-138.5 569.5,-206.5 695.5,-206.5 695.5,-138.5 569.5,-138.5"/>
<text text-anchor="start" x="577.5" y="-194.5" font-family="Helvetica,sans-Serif" font-size="10.00">vector&lt; std::pair&lt;</text>
<text text-anchor="middle" x="632.5" y="-183.5" font-family="Helvetica,sans-Serif" font-size="10.00"> cl_kernel, std::string &gt; &gt;</text>
<polyline fill="none" stroke="#bfbfbf" points="569.5,-176.5 695.5,-176.5 "/>
<text text-anchor="middle" x="632.5" y="-164.5" font-family="Helvetica,sans-Serif" font-size="10.00"> </text>
<polyline fill="none" stroke="#bfbfbf" points="569.5,-157.5 695.5,-157.5 "/>
<text text-anchor="middle" x="632.5" y="-145.5" font-family="Helvetica,sans-Serif" font-size="10.00"> </text>
</g>
<!-- Node7&#45;&gt;Node1 -->
<g id="edge6" class="edge"><title>Node7&#45;&gt;Node1</title>
<path fill="none" stroke="#404040" d="M605.316,-138.191C592.284,-122.471 576.317,-103.568 561.5,-87 558.743,-83.9168 555.867,-80.7582 552.952,-77.5968"/>
<polygon fill="none" stroke="#404040" points="552.879,-77.5181 545.862,-75.8565 544.697,-68.7401 551.714,-70.4017 552.879,-77.5181"/>
<text text-anchor="middle" x="610" y="-101" font-family="Helvetica,sans-Serif" font-size="10.00"> +kernels</text>
</g>
<!-- Node8 -->
<g id="node8" class="node"><title>Node8</title>
<polygon fill="none" stroke="#bfbfbf" points="714,-144 714,-201 765,-201 765,-144 714,-144"/>
<text text-anchor="middle" x="739.5" y="-189" font-family="Helvetica,sans-Serif" font-size="10.00">cl_mem</text>
<polyline fill="none" stroke="#bfbfbf" points="714,-182 765,-182 "/>
<text text-anchor="middle" x="739.5" y="-170" font-family="Helvetica,sans-Serif" font-size="10.00"> </text>
<polyline fill="none" stroke="#bfbfbf" points="714,-163 765,-163 "/>
<text text-anchor="middle" x="739.5" y="-151" font-family="Helvetica,sans-Serif" font-size="10.00"> </text>
</g>
<!-- Node8&#45;&gt;Node1 -->
<g id="edge7" class="edge"><title>Node8&#45;&gt;Node1</title>
<path fill="none" stroke="#404040" d="M713.863,-146.222C710.763,-143.387 707.597,-140.59 704.5,-138 674.974,-113.303 668.009,-105.944 634.5,-87 626.034,-82.2139 617.035,-77.6034 607.91,-73.2411"/>
<polygon fill="none" stroke="#404040" points="607.625,-73.1087 600.498,-74.2053 596.744,-68.048 603.872,-66.9514 607.625,-73.1087"/>
<text text-anchor="middle" x="719" y="-112" font-family="Helvetica,sans-Serif" font-size="10.00"> +mem_gpu</text>
<text text-anchor="middle" x="719" y="-101" font-family="Helvetica,sans-Serif" font-size="10.00">+mem_constant</text>
<text text-anchor="middle" x="719" y="-90" font-family="Helvetica,sans-Serif" font-size="10.00">+mem_host</text>
</g>
<!-- Node9 -->
<g id="node9" class="node"><title>Node9</title>
<polygon fill="none" stroke="#bfbfbf" points="783.5,-144 783.5,-201 845.5,-201 845.5,-144 783.5,-144"/>
<text text-anchor="middle" x="814.5" y="-189" font-family="Helvetica,sans-Serif" font-size="10.00">cl_context</text>
<polyline fill="none" stroke="#bfbfbf" points="783.5,-182 845.5,-182 "/>
<text text-anchor="middle" x="814.5" y="-170" font-family="Helvetica,sans-Serif" font-size="10.00"> </text>
<polyline fill="none" stroke="#bfbfbf" points="783.5,-163 845.5,-163 "/>
<text text-anchor="middle" x="814.5" y="-151" font-family="Helvetica,sans-Serif" font-size="10.00"> </text>
</g>
<!-- Node9&#45;&gt;Node1 -->
<g id="edge8" class="edge"><title>Node9&#45;&gt;Node1</title>
<path fill="none" stroke="#404040" d="M802.987,-143.693C793.728,-124.805 778.892,-100.83 758.5,-87 714.722,-57.3096 657.242,-44.1901 608.854,-38.6052"/>
<polygon fill="none" stroke="#404040" points="608.697,-38.5888 602.314,-41.9438 596.762,-37.3421 603.145,-33.9871 608.697,-38.5888"/>
<text text-anchor="middle" x="810.5" y="-101" font-family="Helvetica,sans-Serif" font-size="10.00"> +context</text>
</g>
<!-- Node10 -->
<g id="node10" class="node"><title>Node10</title>
<polygon fill="none" stroke="#bfbfbf" points="864,-144 864,-201 935,-201 935,-144 864,-144"/>
<text text-anchor="middle" x="899.5" y="-189" font-family="Helvetica,sans-Serif" font-size="10.00">cl_device_id</text>
<polyline fill="none" stroke="#bfbfbf" points="864,-182 935,-182 "/>
<text text-anchor="middle" x="899.5" y="-170" font-family="Helvetica,sans-Serif" font-size="10.00"> </text>
<polyline fill="none" stroke="#bfbfbf" points="864,-163 935,-163 "/>
<text text-anchor="middle" x="899.5" y="-151" font-family="Helvetica,sans-Serif" font-size="10.00"> </text>
</g>
<!-- Node10&#45;&gt;Node1 -->
<g id="edge9" class="edge"><title>Node10&#45;&gt;Node1</title>
<path fill="none" stroke="#404040" d="M885.829,-143.746C874.907,-124.627 857.751,-100.349 835.5,-87 798.215,-64.6327 689.955,-50.5967 608.976,-42.9285"/>
<polygon fill="none" stroke="#404040" points="608.683,-42.9015 602.341,-46.3326 596.734,-41.7976 603.077,-38.3665 608.683,-42.9015"/>
<text text-anchor="middle" x="888.5" y="-101" font-family="Helvetica,sans-Serif" font-size="10.00"> +device</text>
</g>
</g>
</svg>
        <g id="navigator" transform="translate(0 0)" fill="#404254">
                <rect fill="#f2f5e9" fill-opacity="0.5" stroke="#606060" stroke-width=".5" x="0" y="0" width="60" height="60"/>
                <use id="zoomplus" xlink:href="#zoomPlus" x="17" y="9" onmousedown="handleZoom(evt,'in')"/>
                <use id="zoomminus" xlink:href="#zoomMin" x="42" y="9" onmousedown="handleZoom(evt,'out')"/>
                <use id="reset" xlink:href="#resetDef" x="30" y="36" onmousedown="handleReset()"/>
                <g id="arrowUp" xlink:href="#dirArrow" transform="translate(30 24)" onmousedown="handlePan(0,-1)">
                  <use xlink:href="#rim" fill="#404040">
                        <set attributeName="fill" to="#808080" begin="arrowUp.mouseover" end="arrowUp.mouseout"/>
                  </use>
                  <path fill="none" stroke="white" stroke-width="1.5" d="M0,-3.0v7 M-2.5,-0.5L0,-3.0L2.5,-0.5"/>
                </g>
                <g id="arrowRight" xlink:href="#dirArrow" transform="rotate(90) translate(36 -43)" onmousedown="handlePan(1,0)">
                  <use xlink:href="#rim" fill="#404040">
                        <set attributeName="fill" to="#808080" begin="arrowRight.mouseover" end="arrowRight.mouseout"/>
                  </use>
                  <path fill="none" stroke="white" stroke-width="1.5" d="M0,-3.0v7 M-2.5,-0.5L0,-3.0L2.5,-0.5"/>
                </g>
                <g id="arrowDown" xlink:href="#dirArrow" transform="rotate(180) translate(-30 -48)" onmousedown="handlePan(0,1)">
                  <use xlink:href="#rim" fill="#404040">
                        <set attributeName="fill" to="#808080" begin="arrowDown.mouseover" end="arrowDown.mouseout"/>
                  </use>
                  <path fill="none" stroke="white" stroke-width="1.5" d="M0,-3.0v7 M-2.5,-0.5L0,-3.0L2.5,-0.5"/>
                </g>
                <g id="arrowLeft" xlink:href="#dirArrow" transform="rotate(270) translate(-36 17)" onmousedown="handlePan(-1,0)">
                  <use xlink:href="#rim" fill="#404040">
                        <set attributeName="fill" to="#808080" begin="arrowLeft.mouseover" end="arrowLeft.mouseout"/>
                  </use>
                  <path fill="none" stroke="white" stroke-width="1.5" d="M0,-3.0v7 M-2.5,-0.5L0,-3.0L2.5,-0.5"/>
                </g>
        </g>
        <svg viewBox="0 0 15 15" width="100%" height="30px" preserveAspectRatio="xMaxYMin meet">
         <g id="arrow_out" transform="scale(0.3 0.3)">
          <a xlink:href="structGPUCA__NAMESPACE_1_1gpu_1_1GPUReconstructionOCLInternals__coll__graph_org.svg" target="_base">
           <rect id="button" ry="5" rx="5" y="6" x="6" height="38" width="38"
                fill="#f2f5e9" fill-opacity="0.5" stroke="#606060" stroke-width="1.0"/>
           <path id="arrow"
             d="M 11.500037,31.436501 C 11.940474,20.09759 22.043105,11.32322 32.158766,21.979434 L 37.068811,17.246167 C 37.068811,17.246167 37.088388,32 37.088388,32 L 22.160133,31.978069 C 22.160133,31.978069 26.997745,27.140456 26.997745,27.140456 C 18.528582,18.264221 13.291696,25.230495 11.500037,31.436501 z"
             style="fill:#404040;"/>
          </a>
         </g>
        </svg>
</svg>
