<?xml version="1.0" encoding="UTF-8" standalone="no"?>
<!DOCTYPE svg PUBLIC "-//W3C//DTD SVG 1.1//EN"
 "http://www.w3.org/Graphics/SVG/1.1/DTD/svg11.dtd">
<!-- Generated by graphviz version 2.38.0 (20140413.2041)
 -->
<!-- Title: AliHLTComponentEventDoneData Pages: 1 -->
<svg width="175pt" height="182pt"
 viewBox="0.00 0.00 175.00 182.00" xmlns="http://www.w3.org/2000/svg" xmlns:xlink="http://www.w3.org/1999/xlink">
<g id="graph0" class="graph" transform="scale(1 1) rotate(0) translate(4 178)">
<title>AliHLTComponentEventDoneData</title>
<!-- Node1 -->
<g id="node1" class="node"><title>Node1</title>
<polygon fill="#bfbfbf" stroke="black" points="-1.42109e-14,-0.5 -1.42109e-14,-57.5 167,-57.5 167,-0.5 -1.42109e-14,-0.5"/>
<text text-anchor="middle" x="83.5" y="-45.5" font-family="Helvetica,sans-Serif" font-size="10.00">AliHLTComponentEventDoneData</text>
<polyline fill="none" stroke="black" points="-1.42109e-14,-38.5 167,-38.5 "/>
<text text-anchor="middle" x="83.5" y="-26.5" font-family="Helvetica,sans-Serif" font-size="10.00"> </text>
<polyline fill="none" stroke="black" points="-1.42109e-14,-19.5 167,-19.5 "/>
<text text-anchor="middle" x="83.5" y="-7.5" font-family="Helvetica,sans-Serif" font-size="10.00"> </text>
</g>
<!-- Node2 -->
<g id="node2" class="node"><title>Node2</title>
<polygon fill="none" stroke="#bfbfbf" points="16.5,-116.5 16.5,-173.5 72.5,-173.5 72.5,-116.5 16.5,-116.5"/>
<text text-anchor="middle" x="44.5" y="-161.5" font-family="Helvetica,sans-Serif" font-size="10.00">unsigned</text>
<polyline fill="none" stroke="#bfbfbf" points="16.5,-154.5 72.5,-154.5 "/>
<text text-anchor="middle" x="44.5" y="-142.5" font-family="Helvetica,sans-Serif" font-size="10.00"> </text>
<polyline fill="none" stroke="#bfbfbf" points="16.5,-135.5 72.5,-135.5 "/>
<text text-anchor="middle" x="44.5" y="-123.5" font-family="Helvetica,sans-Serif" font-size="10.00"> </text>
</g>
<!-- Node2&#45;&gt;Node1 -->
<g id="edge1" class="edge"><title>Node2&#45;&gt;Node1</title>
<path fill="none" stroke="#404040" d="M40.8089,-116.435C40.1334,-103.759 40.8113,-88.7426 45.5,-76 46.5485,-73.1504 47.8551,-70.3503 49.347,-67.6257"/>
<polygon fill="none" stroke="#404040" points="49.3487,-67.6229 49.248,-60.4124 55.865,-57.5462 55.9658,-64.7566 49.3487,-67.6229"/>
<text text-anchor="middle" x="73" y="-90" font-family="Helvetica,sans-Serif" font-size="10.00"> +fDataSize</text>
<text text-anchor="middle" x="73" y="-79" font-family="Helvetica,sans-Serif" font-size="10.00">+fStructSize</text>
</g>
<!-- Node3 -->
<g id="node3" class="node"><title>Node3</title>
<polygon fill="none" stroke="#bfbfbf" points="102,-116.5 102,-173.5 143,-173.5 143,-116.5 102,-116.5"/>
<text text-anchor="middle" x="122.5" y="-161.5" font-family="Helvetica,sans-Serif" font-size="10.00">void *</text>
<polyline fill="none" stroke="#bfbfbf" points="102,-154.5 143,-154.5 "/>
<text text-anchor="middle" x="122.5" y="-142.5" font-family="Helvetica,sans-Serif" font-size="10.00"> </text>
<polyline fill="none" stroke="#bfbfbf" points="102,-135.5 143,-135.5 "/>
<text text-anchor="middle" x="122.5" y="-123.5" font-family="Helvetica,sans-Serif" font-size="10.00"> </text>
</g>
<!-- Node3&#45;&gt;Node1 -->
<g id="edge2" class="edge"><title>Node3&#45;&gt;Node1</title>
<path fill="none" stroke="#404040" d="M113.871,-116.453C109.913,-104.05 105.089,-89.2488 100.5,-76 99.7267,-73.7675 98.9213,-71.4785 98.0998,-69.1714"/>
<polygon fill="none" stroke="#404040" points="98.0187,-68.9472 92.2148,-64.6676 93.933,-57.6642 99.7369,-61.9438 98.0187,-68.9472"/>
<text text-anchor="middle" x="124.5" y="-84.5" font-family="Helvetica,sans-Serif" font-size="10.00"> +fData</text>
</g>
</g>
</svg>
