<?xml version="1.0" encoding="UTF-8" standalone="no"?>
<!DOCTYPE svg PUBLIC "-//W3C//DTD SVG 1.1//EN"
 "http://www.w3.org/Graphics/SVG/1.1/DTD/svg11.dtd">
<!-- Generated by graphviz version 2.38.0 (20140413.2041)
 -->
<!-- Title: o2::its::TrackerTraits Pages: 1 -->
<!--zoomable 821 -->
<svg id="main" version="1.1" xmlns="http://www.w3.org/2000/svg" xmlns:xlink="http://www.w3.org/1999/xlink" xml:space="preserve" onload="init(evt)">
<style type="text/css"><![CDATA[
.edge:hover path { stroke: red; }
.edge:hover polygon { stroke: red; fill: red; }
]]></style>
<script type="text/javascript"><![CDATA[
var edges = document.getElementsByTagName('g');
if (edges && edges.length) {
  for (var i=0;i<edges.length;i++) {
    if (edges[i].id.substr(0,4)=='edge') {
      edges[i].setAttribute('class','edge');
    }
  }
}
]]></script>
        <defs>
                <circle id="rim" cx="0" cy="0" r="7"/>
                <circle id="rim2" cx="0" cy="0" r="3.5"/>
                <g id="zoomPlus">
                        <use xlink:href="#rim" fill="#404040">
                                <set attributeName="fill" to="#808080" begin="zoomplus.mouseover" end="zoomplus.mouseout"/>
                        </use>
                        <path d="M-4,0h8M0,-4v8" fill="none" stroke="white" stroke-width="1.5" pointer-events="none"/>
                </g>
                <g id="zoomMin">
                        <use xlink:href="#rim" fill="#404040">
                                <set attributeName="fill" to="#808080" begin="zoomminus.mouseover" end="zoomminus.mouseout"/>
                        </use>
                        <path d="M-4,0h8" fill="none" stroke="white" stroke-width="1.5" pointer-events="none"/>
                </g>
                <g id="dirArrow">
                        <path fill="none" stroke="white" stroke-width="1.5" d="M0,-3.0v7 M-2.5,-0.5L0,-3.0L2.5,-0.5"/>
                </g>
               <g id="resetDef">
                       <use xlink:href="#rim2" fill="#404040">
                               <set attributeName="fill" to="#808080" begin="reset.mouseover" end="reset.mouseout"/>
                       </use>
               </g>
        </defs>

<script type="text/javascript">
var viewWidth = 1656;
var viewHeight = 821;
var sectionId = 'dynsection-1';
</script>
<script xlink:href="../../svgpan.js"/>
<svg id="graph" class="graph">
<g id="viewport">
<title>o2::its::TrackerTraits</title>
<!-- Node1 -->
<g id="node1" class="node"><title>Node1</title>
<polygon fill="#bfbfbf" stroke="black" points="276,-0.5 276,-145.5 427,-145.5 427,-0.5 276,-0.5"/>
<text text-anchor="middle" x="351.5" y="-133.5" font-family="Helvetica,sans-Serif" font-size="10.00">o2::its::TrackerTraits</text>
<polyline fill="none" stroke="black" points="276,-126.5 427,-126.5 "/>
<text text-anchor="middle" x="351.5" y="-114.5" font-family="Helvetica,sans-Serif" font-size="10.00"> </text>
<polyline fill="none" stroke="black" points="276,-107.5 427,-107.5 "/>
<text text-anchor="start" x="284" y="-95.5" font-family="Helvetica,sans-Serif" font-size="10.00">+ ~TrackerTraits()</text>
<text text-anchor="start" x="284" y="-84.5" font-family="Helvetica,sans-Serif" font-size="10.00">+ SetRecoChain()</text>
<text text-anchor="start" x="284" y="-73.5" font-family="Helvetica,sans-Serif" font-size="10.00">+ computeLayerTracklets()</text>
<text text-anchor="start" x="284" y="-62.5" font-family="Helvetica,sans-Serif" font-size="10.00">+ computeLayerCells()</text>
<text text-anchor="start" x="284" y="-51.5" font-family="Helvetica,sans-Serif" font-size="10.00">+ refitTracks()</text>
<text text-anchor="start" x="284" y="-40.5" font-family="Helvetica,sans-Serif" font-size="10.00">+ UpdateTrackingParameters()</text>
<text text-anchor="start" x="284" y="-29.5" font-family="Helvetica,sans-Serif" font-size="10.00">+ getPrimaryVertexContext()</text>
<text text-anchor="start" x="284" y="-18.5" font-family="Helvetica,sans-Serif" font-size="10.00">+ getEmptyBinsRect()</text>
<text text-anchor="start" x="284" y="-7.5" font-family="Helvetica,sans-Serif" font-size="10.00">+ getBinsRect()</text>
</g>
<!-- Node2 -->
<g id="node2" class="node"><title>Node2</title>
<polygon fill="none" stroke="#bfbfbf" points="83.5,-298 83.5,-355 169.5,-355 169.5,-298 83.5,-298"/>
<text text-anchor="middle" x="126.5" y="-343" font-family="Helvetica,sans-Serif" font-size="10.00">GPUChainITS *</text>
<polyline fill="none" stroke="#bfbfbf" points="83.5,-336 169.5,-336 "/>
<text text-anchor="middle" x="126.5" y="-324" font-family="Helvetica,sans-Serif" font-size="10.00"> </text>
<polyline fill="none" stroke="#bfbfbf" points="83.5,-317 169.5,-317 "/>
<text text-anchor="middle" x="126.5" y="-305" font-family="Helvetica,sans-Serif" font-size="10.00"> </text>
</g>
<!-- Node2&#45;&gt;Node1 -->
<g id="edge1" class="edge"><title>Node2&#45;&gt;Node1</title>
<path fill="none" stroke="#404040" d="M122.664,-297.92C119.383,-263.131 119.091,-203.136 148.5,-164 176.338,-126.955 222.787,-104.856 264.234,-91.8354"/>
<polygon fill="none" stroke="#404040" points="264.271,-91.8244 268.879,-86.278 275.771,-88.3986 271.163,-93.945 264.271,-91.8244"/>
<text text-anchor="middle" x="170" y="-167" font-family="Helvetica,sans-Serif" font-size="10.00"> #mChain</text>
</g>
<!-- Node3 -->
<g id="node3" class="node"><title>Node3</title>
<g id="a_node3"><a xlink:href="../../d2/db0/structo2_1_1its_1_1TrackingParameters.html" target="_top" xlink:title="{o2::its::TrackingParameters\n||+ operator=()\l+ CellMinimumLevel()\l}">
<polygon fill="none" stroke="black" points="0,-540.5 0,-608.5 137,-608.5 137,-540.5 0,-540.5"/>
<text text-anchor="middle" x="68.5" y="-596.5" font-family="Helvetica,sans-Serif" font-size="10.00">o2::its::TrackingParameters</text>
<polyline fill="none" stroke="black" points="0,-589.5 137,-589.5 "/>
<text text-anchor="middle" x="68.5" y="-577.5" font-family="Helvetica,sans-Serif" font-size="10.00"> </text>
<polyline fill="none" stroke="black" points="0,-570.5 137,-570.5 "/>
<text text-anchor="start" x="8" y="-558.5" font-family="Helvetica,sans-Serif" font-size="10.00">+ operator=()</text>
<text text-anchor="start" x="8" y="-547.5" font-family="Helvetica,sans-Serif" font-size="10.00">+ CellMinimumLevel()</text>
</a>
</g>
</g>
<!-- Node3&#45;&gt;Node1 -->
<g id="edge2" class="edge"><title>Node3&#45;&gt;Node1</title>
<path fill="none" stroke="#404040" d="M106.882,-540.273C129.787,-519.003 158.258,-489.872 178.5,-460 243.776,-363.667 294.525,-238.702 323.721,-157.458"/>
<polygon fill="none" stroke="#404040" points="323.848,-157.102 322.092,-150.108 327.872,-145.797 329.628,-152.79 323.848,-157.102"/>
<text text-anchor="middle" x="343" y="-324" font-family="Helvetica,sans-Serif" font-size="10.00"> #mTrkParams</text>
</g>
<!-- Node4 -->
<g id="node4" class="node"><title>Node4</title>
<g id="a_node4"><a xlink:href="../../d4/dc3/classfloat.html" target="_top" xlink:title="{float\n||}">
<polygon fill="none" stroke="black" points="1039,-755.5 1039,-812.5 1074,-812.5 1074,-755.5 1039,-755.5"/>
<text text-anchor="middle" x="1056.5" y="-800.5" font-family="Helvetica,sans-Serif" font-size="10.00">float</text>
<polyline fill="none" stroke="black" points="1039,-793.5 1074,-793.5 "/>
<text text-anchor="middle" x="1056.5" y="-781.5" font-family="Helvetica,sans-Serif" font-size="10.00"> </text>
<polyline fill="none" stroke="black" points="1039,-774.5 1074,-774.5 "/>
<text text-anchor="middle" x="1056.5" y="-762.5" font-family="Helvetica,sans-Serif" font-size="10.00"> </text>
</a>
</g>
</g>
<!-- Node4&#45;&gt;Node3 -->
<g id="edge3" class="edge"><title>Node4&#45;&gt;Node3</title>
<path fill="none" stroke="#404040" d="M1038.96,-782.955C944.162,-782.136 484.742,-770.814 146.5,-631 136.68,-626.941 126.899,-621.447 117.751,-615.489"/>
<polygon fill="none" stroke="#404040" points="117.622,-615.4 110.411,-615.307 107.723,-608.616 114.934,-608.709 117.622,-615.4"/>
<text text-anchor="middle" x="578.5" y="-729" font-family="Helvetica,sans-Serif" font-size="10.00"> +NeighbourMaxDeltaN</text>
<text text-anchor="middle" x="578.5" y="-718" font-family="Helvetica,sans-Serif" font-size="10.00">+CellMaxDCA</text>
<text text-anchor="middle" x="578.5" y="-707" font-family="Helvetica,sans-Serif" font-size="10.00">+CellMaxDeltaPhi</text>
<text text-anchor="middle" x="578.5" y="-696" font-family="Helvetica,sans-Serif" font-size="10.00">+TrackletMaxDeltaZ</text>
<text text-anchor="middle" x="578.5" y="-685" font-family="Helvetica,sans-Serif" font-size="10.00">+CellMaxDeltaTanLambda</text>
<text text-anchor="middle" x="578.5" y="-674" font-family="Helvetica,sans-Serif" font-size="10.00">+CellMaxDeltaZ</text>
<text text-anchor="middle" x="578.5" y="-663" font-family="Helvetica,sans-Serif" font-size="10.00">+NeighbourMaxDeltaCurvature</text>
<text text-anchor="middle" x="578.5" y="-652" font-family="Helvetica,sans-Serif" font-size="10.00">+TrackletMaxDeltaPhi</text>
</g>
<!-- Node16 -->
<g id="node16" class="node"><title>Node16</title>
<g id="a_node16"><a xlink:href="../../d9/d19/structfloat3.html" target="_top" xlink:title="{float3\n||}">
<polygon fill="none" stroke="black" points="1603,-546 1603,-603 1644,-603 1644,-546 1603,-546"/>
<text text-anchor="middle" x="1623.5" y="-591" font-family="Helvetica,sans-Serif" font-size="10.00">float3</text>
<polyline fill="none" stroke="black" points="1603,-584 1644,-584 "/>
<text text-anchor="middle" x="1623.5" y="-572" font-family="Helvetica,sans-Serif" font-size="10.00"> </text>
<polyline fill="none" stroke="black" points="1603,-565 1644,-565 "/>
<text text-anchor="middle" x="1623.5" y="-553" font-family="Helvetica,sans-Serif" font-size="10.00"> </text>
</a>
</g>
</g>
<!-- Node4&#45;&gt;Node16 -->
<g id="edge16" class="edge"><title>Node4&#45;&gt;Node16</title>
<path fill="none" stroke="#404040" d="M1074,-782.774C1146.34,-780.964 1426.02,-765.203 1593.5,-631 1599.25,-626.393 1604.05,-620.375 1608,-614.006"/>
<polygon fill="none" stroke="#404040" points="1608.16,-613.701 1607.5,-606.521 1613.87,-603.143 1614.54,-610.323 1608.16,-613.701"/>
<text text-anchor="middle" x="1565" y="-701.5" font-family="Helvetica,sans-Serif" font-size="10.00"> +x</text>
<text text-anchor="middle" x="1565" y="-690.5" font-family="Helvetica,sans-Serif" font-size="10.00">+y</text>
<text text-anchor="middle" x="1565" y="-679.5" font-family="Helvetica,sans-Serif" font-size="10.00">+z</text>
</g>
<!-- Node5 -->
<g id="node5" class="node"><title>Node5</title>
<polygon fill="none" stroke="#bfbfbf" points="54,-755.5 54,-812.5 83,-812.5 83,-755.5 54,-755.5"/>
<text text-anchor="middle" x="68.5" y="-800.5" font-family="Helvetica,sans-Serif" font-size="10.00">int</text>
<polyline fill="none" stroke="#bfbfbf" points="54,-793.5 83,-793.5 "/>
<text text-anchor="middle" x="68.5" y="-781.5" font-family="Helvetica,sans-Serif" font-size="10.00"> </text>
<polyline fill="none" stroke="#bfbfbf" points="54,-774.5 83,-774.5 "/>
<text text-anchor="middle" x="68.5" y="-762.5" font-family="Helvetica,sans-Serif" font-size="10.00"> </text>
</g>
<!-- Node5&#45;&gt;Node3 -->
<g id="edge4" class="edge"><title>Node5&#45;&gt;Node3</title>
<path fill="none" stroke="#404040" d="M68.5,-755.446C68.5,-721.078 68.5,-661.848 68.5,-620.775"/>
<polygon fill="none" stroke="#404040" points="68.5001,-620.659 64.5,-614.659 68.5,-608.659 72.5,-614.659 68.5001,-620.659"/>
<text text-anchor="middle" x="106.5" y="-696" font-family="Helvetica,sans-Serif" font-size="10.00"> +ClusterSharing</text>
<text text-anchor="middle" x="106.5" y="-685" font-family="Helvetica,sans-Serif" font-size="10.00">+MinTrackLength</text>
</g>
<!-- Node6 -->
<g id="node6" class="node"><title>Node6</title>
<polygon fill="none" stroke="#bfbfbf" points="866.5,-259.5 866.5,-393.5 1066.5,-393.5 1066.5,-259.5 866.5,-259.5"/>
<text text-anchor="start" x="874.5" y="-381.5" font-family="Helvetica,sans-Serif" font-size="10.00">function&lt; int(o2::gpu</text>
<text text-anchor="start" x="874.5" y="-370.5" font-family="Helvetica,sans-Serif" font-size="10.00">::GPUChainITS &amp;, std</text>
<text text-anchor="start" x="874.5" y="-359.5" font-family="Helvetica,sans-Serif" font-size="10.00">::vector&lt; Road &gt; &amp;roads,</text>
<text text-anchor="start" x="874.5" y="-348.5" font-family="Helvetica,sans-Serif" font-size="10.00"> std::array&lt; const Cluster</text>
<text text-anchor="start" x="874.5" y="-337.5" font-family="Helvetica,sans-Serif" font-size="10.00"> *, 7 &gt;, std::array&lt; const</text>
<text text-anchor="start" x="874.5" y="-326.5" font-family="Helvetica,sans-Serif" font-size="10.00"> Cell *, 5 &gt;, const std::array</text>
<text text-anchor="start" x="874.5" y="-315.5" font-family="Helvetica,sans-Serif" font-size="10.00">&lt; std::vector&lt; TrackingFrameInfo</text>
<text text-anchor="middle" x="966.5" y="-304.5" font-family="Helvetica,sans-Serif" font-size="10.00"> &gt;, 7 &gt; &amp;, std::vector&lt; TrackITSExt &gt; &amp;)&gt;</text>
<polyline fill="none" stroke="#bfbfbf" points="866.5,-297.5 1066.5,-297.5 "/>
<text text-anchor="middle" x="966.5" y="-285.5" font-family="Helvetica,sans-Serif" font-size="10.00"> </text>
<polyline fill="none" stroke="#bfbfbf" points="866.5,-278.5 1066.5,-278.5 "/>
<text text-anchor="middle" x="966.5" y="-266.5" font-family="Helvetica,sans-Serif" font-size="10.00"> </text>
</g>
<!-- Node6&#45;&gt;Node1 -->
<g id="edge5" class="edge"><title>Node6&#45;&gt;Node1</title>
<path fill="none" stroke="#404040" d="M925.441,-259.178C907.382,-235.026 884.18,-209.604 857.5,-193 726.867,-111.701 545.793,-85.909 439.411,-77.7495"/>
<polygon fill="none" stroke="#404040" points="439.103,-77.7273 432.83,-81.2836 427.134,-76.8609 433.407,-73.3045 439.103,-77.7273"/>
<text text-anchor="middle" x="877.5" y="-167" font-family="Helvetica,sans-Serif" font-size="10.00"> #mChainRunITSTrackFit</text>
</g>
<!-- Node7 -->
<g id="node7" class="node"><title>Node7</title>
<g id="a_node7"><a xlink:href="../../df/dde/classo2_1_1its_1_1PrimaryVertexContext.html" target="_top" xlink:title="{o2::its::PrimaryVertexContext\n||+ PrimaryVertexContext()\l+ ~PrimaryVertexContext()\l+ PrimaryVertexContext()\l+ operator=()\l+ initialise()\l+ getPrimaryVertex()\l+ getClusters()\l+ getCells()\l+ getCellsLookupTable()\l+ getCellsNeighbours()\l+ getRoads()\l+ isClusterUsed()\l+ markUsedCluster()\l+ getIndexTables()\l+ getTracklets()\l+ getTrackletsLookupTable()\l+ initialiseRoadLabels()\l+ setRoadLabel()\l+ getRoadLabel()\l+ isRoadFake()\l}">
<polygon fill="none" stroke="black" points="702.5,-193.5 702.5,-459.5 848.5,-459.5 848.5,-193.5 702.5,-193.5"/>
<text text-anchor="middle" x="775.5" y="-447.5" font-family="Helvetica,sans-Serif" font-size="10.00">o2::its::PrimaryVertexContext</text>
<polyline fill="none" stroke="black" points="702.5,-440.5 848.5,-440.5 "/>
<text text-anchor="middle" x="775.5" y="-428.5" font-family="Helvetica,sans-Serif" font-size="10.00"> </text>
<polyline fill="none" stroke="black" points="702.5,-421.5 848.5,-421.5 "/>
<text text-anchor="start" x="710.5" y="-409.5" font-family="Helvetica,sans-Serif" font-size="10.00">+ PrimaryVertexContext()</text>
<text text-anchor="start" x="710.5" y="-398.5" font-family="Helvetica,sans-Serif" font-size="10.00">+ ~PrimaryVertexContext()</text>
<text text-anchor="start" x="710.5" y="-387.5" font-family="Helvetica,sans-Serif" font-size="10.00">+ PrimaryVertexContext()</text>
<text text-anchor="start" x="710.5" y="-376.5" font-family="Helvetica,sans-Serif" font-size="10.00">+ operator=()</text>
<text text-anchor="start" x="710.5" y="-365.5" font-family="Helvetica,sans-Serif" font-size="10.00">+ initialise()</text>
<text text-anchor="start" x="710.5" y="-354.5" font-family="Helvetica,sans-Serif" font-size="10.00">+ getPrimaryVertex()</text>
<text text-anchor="start" x="710.5" y="-343.5" font-family="Helvetica,sans-Serif" font-size="10.00">+ getClusters()</text>
<text text-anchor="start" x="710.5" y="-332.5" font-family="Helvetica,sans-Serif" font-size="10.00">+ getCells()</text>
<text text-anchor="start" x="710.5" y="-321.5" font-family="Helvetica,sans-Serif" font-size="10.00">+ getCellsLookupTable()</text>
<text text-anchor="start" x="710.5" y="-310.5" font-family="Helvetica,sans-Serif" font-size="10.00">+ getCellsNeighbours()</text>
<text text-anchor="start" x="710.5" y="-299.5" font-family="Helvetica,sans-Serif" font-size="10.00">+ getRoads()</text>
<text text-anchor="start" x="710.5" y="-288.5" font-family="Helvetica,sans-Serif" font-size="10.00">+ isClusterUsed()</text>
<text text-anchor="start" x="710.5" y="-277.5" font-family="Helvetica,sans-Serif" font-size="10.00">+ markUsedCluster()</text>
<text text-anchor="start" x="710.5" y="-266.5" font-family="Helvetica,sans-Serif" font-size="10.00">+ getIndexTables()</text>
<text text-anchor="start" x="710.5" y="-255.5" font-family="Helvetica,sans-Serif" font-size="10.00">+ getTracklets()</text>
<text text-anchor="start" x="710.5" y="-244.5" font-family="Helvetica,sans-Serif" font-size="10.00">+ getTrackletsLookupTable()</text>
<text text-anchor="start" x="710.5" y="-233.5" font-family="Helvetica,sans-Serif" font-size="10.00">+ initialiseRoadLabels()</text>
<text text-anchor="start" x="710.5" y="-222.5" font-family="Helvetica,sans-Serif" font-size="10.00">+ setRoadLabel()</text>
<text text-anchor="start" x="710.5" y="-211.5" font-family="Helvetica,sans-Serif" font-size="10.00">+ getRoadLabel()</text>
<text text-anchor="start" x="710.5" y="-200.5" font-family="Helvetica,sans-Serif" font-size="10.00">+ isRoadFake()</text>
</a>
</g>
</g>
<!-- Node7&#45;&gt;Node1 -->
<g id="edge6" class="edge"><title>Node7&#45;&gt;Node1</title>
<path fill="none" stroke="#404040" d="M702.129,-281.979C628.671,-238.407 515.67,-171.379 437.914,-125.257"/>
<polygon fill="none" stroke="#404040" points="437.505,-125.015 430.304,-125.394 427.184,-118.893 434.385,-118.513 437.505,-125.015"/>
<text text-anchor="middle" x="570.5" y="-167" font-family="Helvetica,sans-Serif" font-size="10.00"> #mPrimaryVertexContext</text>
</g>
<!-- Node8 -->
<g id="node8" class="node"><title>Node8</title>
<polygon fill="none" stroke="#bfbfbf" points="155.5,-529.5 155.5,-619.5 289.5,-619.5 289.5,-529.5 155.5,-529.5"/>
<text text-anchor="start" x="163.5" y="-607.5" font-family="Helvetica,sans-Serif" font-size="10.00">array&lt; std::vector</text>
<text text-anchor="start" x="163.5" y="-596.5" font-family="Helvetica,sans-Serif" font-size="10.00">&lt; std::vector&lt; int &gt;</text>
<text text-anchor="start" x="163.5" y="-585.5" font-family="Helvetica,sans-Serif" font-size="10.00"> &gt;, constants::its::CellsPer</text>
<text text-anchor="middle" x="222.5" y="-574.5" font-family="Helvetica,sans-Serif" font-size="10.00">Road&#45;1 &gt;</text>
<polyline fill="none" stroke="#bfbfbf" points="155.5,-567.5 289.5,-567.5 "/>
<text text-anchor="middle" x="222.5" y="-555.5" font-family="Helvetica,sans-Serif" font-size="10.00"> </text>
<polyline fill="none" stroke="#bfbfbf" points="155.5,-548.5 289.5,-548.5 "/>
<text text-anchor="middle" x="222.5" y="-536.5" font-family="Helvetica,sans-Serif" font-size="10.00"> </text>
</g>
<!-- Node8&#45;&gt;Node7 -->
<g id="edge7" class="edge"><title>Node8&#45;&gt;Node7</title>
<path fill="none" stroke="#404040" d="M281.19,-529.22C286.957,-525.302 292.788,-521.5 298.5,-518 426.363,-439.655 592.07,-382.037 690.729,-351.721"/>
<polygon fill="none" stroke="#404040" points="690.942,-351.656 695.516,-346.081 702.421,-348.159 697.847,-353.734 690.942,-351.656"/>
<text text-anchor="middle" x="404" y="-486.5" font-family="Helvetica,sans-Serif" font-size="10.00"> #mCellsNeighbours</text>
</g>
<!-- Node9 -->
<g id="node9" class="node"><title>Node9</title>
<polygon fill="none" stroke="#bfbfbf" points="307.5,-546 307.5,-603 425.5,-603 425.5,-546 307.5,-546"/>
<text text-anchor="middle" x="366.5" y="-591" font-family="Helvetica,sans-Serif" font-size="10.00">vector&lt; o2::its::Road &gt;</text>
<polyline fill="none" stroke="#bfbfbf" points="307.5,-584 425.5,-584 "/>
<text text-anchor="middle" x="366.5" y="-572" font-family="Helvetica,sans-Serif" font-size="10.00"> </text>
<polyline fill="none" stroke="#bfbfbf" points="307.5,-565 425.5,-565 "/>
<text text-anchor="middle" x="366.5" y="-553" font-family="Helvetica,sans-Serif" font-size="10.00"> </text>
</g>
<!-- Node9&#45;&gt;Node7 -->
<g id="edge8" class="edge"><title>Node9&#45;&gt;Node7</title>
<path fill="none" stroke="#404040" d="M398.12,-545.766C409.29,-536.496 422.149,-526.395 434.5,-518 518.479,-460.917 620.883,-405.436 691.425,-369.213"/>
<polygon fill="none" stroke="#404040" points="691.781,-369.031 695.302,-362.737 702.466,-363.567 698.945,-369.86 691.781,-369.031"/>
<text text-anchor="middle" x="511.5" y="-486.5" font-family="Helvetica,sans-Serif" font-size="10.00"> #mRoads</text>
</g>
<!-- Node10 -->
<g id="node10" class="node"><title>Node10</title>
<polygon fill="none" stroke="#bfbfbf" points="443.5,-535 443.5,-614 547.5,-614 547.5,-535 443.5,-535"/>
<text text-anchor="start" x="451.5" y="-602" font-family="Helvetica,sans-Serif" font-size="10.00">vector&lt; std::pair&lt;</text>
<text text-anchor="start" x="451.5" y="-591" font-family="Helvetica,sans-Serif" font-size="10.00"> unsigned long long,</text>
<text text-anchor="middle" x="495.5" y="-580" font-family="Helvetica,sans-Serif" font-size="10.00"> bool &gt; &gt;</text>
<polyline fill="none" stroke="#bfbfbf" points="443.5,-573 547.5,-573 "/>
<text text-anchor="middle" x="495.5" y="-561" font-family="Helvetica,sans-Serif" font-size="10.00"> </text>
<polyline fill="none" stroke="#bfbfbf" points="443.5,-554 547.5,-554 "/>
<text text-anchor="middle" x="495.5" y="-542" font-family="Helvetica,sans-Serif" font-size="10.00"> </text>
</g>
<!-- Node10&#45;&gt;Node7 -->
<g id="edge9" class="edge"><title>Node10&#45;&gt;Node7</title>
<path fill="none" stroke="#404040" d="M532.522,-534.985C550.019,-517.224 571.43,-496.113 591.5,-478 623.846,-448.808 660.808,-418.097 693.077,-392.084"/>
<polygon fill="none" stroke="#404040" points="693.132,-392.04 695.304,-385.164 702.487,-384.524 700.315,-391.4 693.132,-392.04"/>
<text text-anchor="middle" x="626" y="-486.5" font-family="Helvetica,sans-Serif" font-size="10.00"> #mRoadLabels</text>
</g>
<!-- Node11 -->
<g id="node11" class="node"><title>Node11</title>
<polygon fill="none" stroke="#bfbfbf" points="566,-535 566,-614 677,-614 677,-535 566,-535"/>
<text text-anchor="start" x="574" y="-602" font-family="Helvetica,sans-Serif" font-size="10.00">array&lt; std::vector</text>
<text text-anchor="start" x="574" y="-591" font-family="Helvetica,sans-Serif" font-size="10.00">&lt; int &gt;, constants::</text>
<text text-anchor="middle" x="621.5" y="-580" font-family="Helvetica,sans-Serif" font-size="10.00">its::CellsPerRoad&#45;1 &gt;</text>
<polyline fill="none" stroke="#bfbfbf" points="566,-573 677,-573 "/>
<text text-anchor="middle" x="621.5" y="-561" font-family="Helvetica,sans-Serif" font-size="10.00"> </text>
<polyline fill="none" stroke="#bfbfbf" points="566,-554 677,-554 "/>
<text text-anchor="middle" x="621.5" y="-542" font-family="Helvetica,sans-Serif" font-size="10.00"> </text>
</g>
<!-- Node11&#45;&gt;Node7 -->
<g id="edge10" class="edge"><title>Node11&#45;&gt;Node7</title>
<path fill="none" stroke="#404040" d="M643.196,-534.625C653.114,-517.171 665.159,-496.407 676.5,-478 682.652,-468.015 689.126,-457.726 695.695,-447.436"/>
<polygon fill="none" stroke="#404040" points="695.81,-447.258 695.682,-440.048 702.288,-437.157 702.416,-444.367 695.81,-447.258"/>
<text text-anchor="middle" x="724" y="-486.5" font-family="Helvetica,sans-Serif" font-size="10.00"> #mCellsLookupTable</text>
</g>
<!-- Node12 -->
<g id="node12" class="node"><title>Node12</title>
<polygon fill="none" stroke="#bfbfbf" points="695,-535 695,-614 856,-614 856,-535 695,-535"/>
<text text-anchor="start" x="703" y="-602" font-family="Helvetica,sans-Serif" font-size="10.00">array&lt; std::vector</text>
<text text-anchor="start" x="703" y="-591" font-family="Helvetica,sans-Serif" font-size="10.00">&lt; o2::its::Cluster &gt;</text>
<text text-anchor="middle" x="775.5" y="-580" font-family="Helvetica,sans-Serif" font-size="10.00">, constants::its::LayersNumber &gt;</text>
<polyline fill="none" stroke="#bfbfbf" points="695,-573 856,-573 "/>
<text text-anchor="middle" x="775.5" y="-561" font-family="Helvetica,sans-Serif" font-size="10.00"> </text>
<polyline fill="none" stroke="#bfbfbf" points="695,-554 856,-554 "/>
<text text-anchor="middle" x="775.5" y="-542" font-family="Helvetica,sans-Serif" font-size="10.00"> </text>
</g>
<!-- Node12&#45;&gt;Node7 -->
<g id="edge11" class="edge"><title>Node12&#45;&gt;Node7</title>
<path fill="none" stroke="#404040" d="M775.5,-534.792C775.5,-517.105 775.5,-494.938 775.5,-471.732"/>
<polygon fill="none" stroke="#404040" points="775.5,-471.52 771.5,-465.52 775.5,-459.52 779.5,-465.52 775.5,-471.52"/>
<text text-anchor="middle" x="822.5" y="-492" font-family="Helvetica,sans-Serif" font-size="10.00"> #mUnsortedClusters</text>
<text text-anchor="middle" x="822.5" y="-481" font-family="Helvetica,sans-Serif" font-size="10.00">#mClusters</text>
</g>
<!-- Node13 -->
<g id="node13" class="node"><title>Node13</title>
<polygon fill="none" stroke="#bfbfbf" points="874,-535 874,-614 977,-614 977,-535 874,-535"/>
<text text-anchor="start" x="882" y="-602" font-family="Helvetica,sans-Serif" font-size="10.00">array&lt; std::vector</text>
<text text-anchor="start" x="882" y="-591" font-family="Helvetica,sans-Serif" font-size="10.00">&lt; int &gt;, constants::</text>
<text text-anchor="middle" x="925.5" y="-580" font-family="Helvetica,sans-Serif" font-size="10.00">its::CellsPerRoad &gt;</text>
<polyline fill="none" stroke="#bfbfbf" points="874,-573 977,-573 "/>
<text text-anchor="middle" x="925.5" y="-561" font-family="Helvetica,sans-Serif" font-size="10.00"> </text>
<polyline fill="none" stroke="#bfbfbf" points="874,-554 977,-554 "/>
<text text-anchor="middle" x="925.5" y="-542" font-family="Helvetica,sans-Serif" font-size="10.00"> </text>
</g>
<!-- Node13&#45;&gt;Node7 -->
<g id="edge12" class="edge"><title>Node13&#45;&gt;Node7</title>
<path fill="none" stroke="#404040" d="M906.914,-534.665C897.745,-516.838 885.984,-495.762 873.5,-478 867.345,-469.243 863.896,-468.583 857.5,-460 856.939,-459.248 856.379,-458.491 855.818,-457.731"/>
<polygon fill="none" stroke="#404040" points="855.576,-457.395 848.822,-454.868 848.556,-447.662 855.31,-450.188 855.576,-457.395"/>
<text text-anchor="middle" x="943" y="-486.5" font-family="Helvetica,sans-Serif" font-size="10.00"> #mTrackletsLookupTable</text>
</g>
<!-- Node14 -->
<g id="node14" class="node"><title>Node14</title>
<polygon fill="none" stroke="#bfbfbf" points="995.5,-518.5 995.5,-630.5 1147.5,-630.5 1147.5,-518.5 995.5,-518.5"/>
<text text-anchor="start" x="1003.5" y="-618.5" font-family="Helvetica,sans-Serif" font-size="10.00">array&lt; std::array&lt;</text>
<text text-anchor="start" x="1003.5" y="-607.5" font-family="Helvetica,sans-Serif" font-size="10.00"> int, constants::index</text>
<text text-anchor="start" x="1003.5" y="-596.5" font-family="Helvetica,sans-Serif" font-size="10.00">_table::ZBins *constants</text>
<text text-anchor="start" x="1003.5" y="-585.5" font-family="Helvetica,sans-Serif" font-size="10.00">::index_table::PhiBins+1</text>
<text text-anchor="start" x="1003.5" y="-574.5" font-family="Helvetica,sans-Serif" font-size="10.00"> &gt;, constants::its::TrackletsPer</text>
<text text-anchor="middle" x="1071.5" y="-563.5" font-family="Helvetica,sans-Serif" font-size="10.00">Road &gt;</text>
<polyline fill="none" stroke="#bfbfbf" points="995.5,-556.5 1147.5,-556.5 "/>
<text text-anchor="middle" x="1071.5" y="-544.5" font-family="Helvetica,sans-Serif" font-size="10.00"> </text>
<polyline fill="none" stroke="#bfbfbf" points="995.5,-537.5 1147.5,-537.5 "/>
<text text-anchor="middle" x="1071.5" y="-525.5" font-family="Helvetica,sans-Serif" font-size="10.00"> </text>
</g>
<!-- Node14&#45;&gt;Node7 -->
<g id="edge13" class="edge"><title>Node14&#45;&gt;Node7</title>
<path fill="none" stroke="#404040" d="M1043.68,-518.437C1033.18,-502.942 1019.76,-487.689 1003.5,-478 950.515,-446.43 916.564,-489.785 859.163,-459.848"/>
<polygon fill="none" stroke="#404040" points="858.913,-459.701 851.714,-460.117 848.561,-453.631 855.76,-453.216 858.913,-459.701"/>
<text text-anchor="middle" x="1063.5" y="-486.5" font-family="Helvetica,sans-Serif" font-size="10.00"> #mIndexTables</text>
</g>
<!-- Node15 -->
<g id="node15" class="node"><title>Node15</title>
<polygon fill="none" stroke="#bfbfbf" points="1165.5,-535 1165.5,-614 1277.5,-614 1277.5,-535 1165.5,-535"/>
<text text-anchor="start" x="1173.5" y="-602" font-family="Helvetica,sans-Serif" font-size="10.00">array&lt; std::vector</text>
<text text-anchor="start" x="1173.5" y="-591" font-family="Helvetica,sans-Serif" font-size="10.00">&lt; bool &gt;, constants</text>
<text text-anchor="middle" x="1221.5" y="-580" font-family="Helvetica,sans-Serif" font-size="10.00">::its::LayersNumber &gt;</text>
<polyline fill="none" stroke="#bfbfbf" points="1165.5,-573 1277.5,-573 "/>
<text text-anchor="middle" x="1221.5" y="-561" font-family="Helvetica,sans-Serif" font-size="10.00"> </text>
<polyline fill="none" stroke="#bfbfbf" points="1165.5,-554 1277.5,-554 "/>
<text text-anchor="middle" x="1221.5" y="-542" font-family="Helvetica,sans-Serif" font-size="10.00"> </text>
</g>
<!-- Node15&#45;&gt;Node7 -->
<g id="edge14" class="edge"><title>Node15&#45;&gt;Node7</title>
<path fill="none" stroke="#404040" d="M1186.1,-534.845C1164.27,-513.862 1134.41,-489.846 1102.5,-478 1054.42,-460.152 921.649,-484.929 859.792,-459.623"/>
<polygon fill="none" stroke="#404040" points="859.482,-459.467 852.325,-460.349 848.758,-454.082 855.915,-453.2 859.482,-459.467"/>
<text text-anchor="middle" x="1182" y="-486.5" font-family="Helvetica,sans-Serif" font-size="10.00"> #mUsedClusters</text>
</g>
<!-- Node16&#45;&gt;Node7 -->
<g id="edge15" class="edge"><title>Node16&#45;&gt;Node7</title>
<path fill="none" stroke="#404040" d="M1613.79,-545.953C1609.05,-535.929 1602.4,-525.283 1593.5,-518 1546.39,-479.448 1522.57,-487.882 1462.5,-478 1399.06,-467.563 957.178,-491.343 859.823,-459.074"/>
<polygon fill="none" stroke="#404040" points="859.673,-459.009 852.58,-460.308 848.653,-454.26 855.746,-452.961 859.673,-459.009"/>
<text text-anchor="middle" x="1608" y="-486.5" font-family="Helvetica,sans-Serif" font-size="10.00"> #mPrimaryVertex</text>
</g>
<!-- Node17 -->
<g id="node17" class="node"><title>Node17</title>
<polygon fill="none" stroke="#bfbfbf" points="1295.5,-535 1295.5,-614 1429.5,-614 1429.5,-535 1295.5,-535"/>
<text text-anchor="start" x="1303.5" y="-602" font-family="Helvetica,sans-Serif" font-size="10.00">array&lt; std::vector</text>
<text text-anchor="start" x="1303.5" y="-591" font-family="Helvetica,sans-Serif" font-size="10.00">&lt; o2::its::Cell &gt;, constants</text>
<text text-anchor="middle" x="1362.5" y="-580" font-family="Helvetica,sans-Serif" font-size="10.00">::its::CellsPerRoad &gt;</text>
<polyline fill="none" stroke="#bfbfbf" points="1295.5,-573 1429.5,-573 "/>
<text text-anchor="middle" x="1362.5" y="-561" font-family="Helvetica,sans-Serif" font-size="10.00"> </text>
<polyline fill="none" stroke="#bfbfbf" points="1295.5,-554 1429.5,-554 "/>
<text text-anchor="middle" x="1362.5" y="-542" font-family="Helvetica,sans-Serif" font-size="10.00"> </text>
</g>
<!-- Node17&#45;&gt;Node7 -->
<g id="edge17" class="edge"><title>Node17&#45;&gt;Node7</title>
<path fill="none" stroke="#404040" d="M1320.73,-534.801C1295.04,-513.661 1260.28,-489.501 1224.5,-478 1150.03,-454.063 945.972,-497.536 859.387,-459.645"/>
<polygon fill="none" stroke="#404040" points="859.383,-459.643 852.22,-460.474 848.699,-454.181 855.862,-453.351 859.383,-459.643"/>
<text text-anchor="middle" x="1290.5" y="-486.5" font-family="Helvetica,sans-Serif" font-size="10.00"> #mCells</text>
</g>
<!-- Node18 -->
<g id="node18" class="node"><title>Node18</title>
<polygon fill="none" stroke="#bfbfbf" points="1448,-529.5 1448,-619.5 1585,-619.5 1585,-529.5 1448,-529.5"/>
<text text-anchor="start" x="1456" y="-607.5" font-family="Helvetica,sans-Serif" font-size="10.00">array&lt; std::vector</text>
<text text-anchor="start" x="1456" y="-596.5" font-family="Helvetica,sans-Serif" font-size="10.00">&lt; o2::its::Tracklet</text>
<text text-anchor="start" x="1456" y="-585.5" font-family="Helvetica,sans-Serif" font-size="10.00"> &gt;, constants::its::Tracklets</text>
<text text-anchor="middle" x="1516.5" y="-574.5" font-family="Helvetica,sans-Serif" font-size="10.00">PerRoad &gt;</text>
<polyline fill="none" stroke="#bfbfbf" points="1448,-567.5 1585,-567.5 "/>
<text text-anchor="middle" x="1516.5" y="-555.5" font-family="Helvetica,sans-Serif" font-size="10.00"> </text>
<polyline fill="none" stroke="#bfbfbf" points="1448,-548.5 1585,-548.5 "/>
<text text-anchor="middle" x="1516.5" y="-536.5" font-family="Helvetica,sans-Serif" font-size="10.00"> </text>
</g>
<!-- Node18&#45;&gt;Node7 -->
<g id="edge18" class="edge"><title>Node18&#45;&gt;Node7</title>
<path fill="none" stroke="#404040" d="M1458.51,-529.38C1451.93,-525.246 1445.18,-521.355 1438.5,-518 1386.75,-492.021 1371.52,-488.122 1314.5,-478 1267.2,-469.603 940.171,-483.875 860.008,-458.951"/>
<polygon fill="none" stroke="#404040" points="859.749,-458.844 852.671,-460.223 848.676,-454.22 855.753,-452.841 859.749,-458.844"/>
<text text-anchor="middle" x="1429.5" y="-486.5" font-family="Helvetica,sans-Serif" font-size="10.00"> #mTracklets</text>
</g>
</g>
</svg>
        <g id="navigator" transform="translate(0 0)" fill="#404254">
                <rect fill="#f2f5e9" fill-opacity="0.5" stroke="#606060" stroke-width=".5" x="0" y="0" width="60" height="60"/>
                <use id="zoomplus" xlink:href="#zoomPlus" x="17" y="9" onmousedown="handleZoom(evt,'in')"/>
                <use id="zoomminus" xlink:href="#zoomMin" x="42" y="9" onmousedown="handleZoom(evt,'out')"/>
                <use id="reset" xlink:href="#resetDef" x="30" y="36" onmousedown="handleReset()"/>
                <g id="arrowUp" xlink:href="#dirArrow" transform="translate(30 24)" onmousedown="handlePan(0,-1)">
                  <use xlink:href="#rim" fill="#404040">
                        <set attributeName="fill" to="#808080" begin="arrowUp.mouseover" end="arrowUp.mouseout"/>
                  </use>
                  <path fill="none" stroke="white" stroke-width="1.5" d="M0,-3.0v7 M-2.5,-0.5L0,-3.0L2.5,-0.5"/>
                </g>
                <g id="arrowRight" xlink:href="#dirArrow" transform="rotate(90) translate(36 -43)" onmousedown="handlePan(1,0)">
                  <use xlink:href="#rim" fill="#404040">
                        <set attributeName="fill" to="#808080" begin="arrowRight.mouseover" end="arrowRight.mouseout"/>
                  </use>
                  <path fill="none" stroke="white" stroke-width="1.5" d="M0,-3.0v7 M-2.5,-0.5L0,-3.0L2.5,-0.5"/>
                </g>
                <g id="arrowDown" xlink:href="#dirArrow" transform="rotate(180) translate(-30 -48)" onmousedown="handlePan(0,1)">
                  <use xlink:href="#rim" fill="#404040">
                        <set attributeName="fill" to="#808080" begin="arrowDown.mouseover" end="arrowDown.mouseout"/>
                  </use>
                  <path fill="none" stroke="white" stroke-width="1.5" d="M0,-3.0v7 M-2.5,-0.5L0,-3.0L2.5,-0.5"/>
                </g>
                <g id="arrowLeft" xlink:href="#dirArrow" transform="rotate(270) translate(-36 17)" onmousedown="handlePan(-1,0)">
                  <use xlink:href="#rim" fill="#404040">
                        <set attributeName="fill" to="#808080" begin="arrowLeft.mouseover" end="arrowLeft.mouseout"/>
                  </use>
                  <path fill="none" stroke="white" stroke-width="1.5" d="M0,-3.0v7 M-2.5,-0.5L0,-3.0L2.5,-0.5"/>
                </g>
        </g>
        <svg viewBox="0 0 15 15" width="100%" height="30px" preserveAspectRatio="xMaxYMin meet">
         <g id="arrow_out" transform="scale(0.3 0.3)">
          <a xlink:href="classo2_1_1its_1_1TrackerTraits__coll__graph_org.svg" target="_base">
           <rect id="button" ry="5" rx="5" y="6" x="6" height="38" width="38"
                fill="#f2f5e9" fill-opacity="0.5" stroke="#606060" stroke-width="1.0"/>
           <path id="arrow"
             d="M 11.500037,31.436501 C 11.940474,20.09759 22.043105,11.32322 32.158766,21.979434 L 37.068811,17.246167 C 37.068811,17.246167 37.088388,32 37.088388,32 L 22.160133,31.978069 C 22.160133,31.978069 26.997745,27.140456 26.997745,27.140456 C 18.528582,18.264221 13.291696,25.230495 11.500037,31.436501 z"
             style="fill:#404040;"/>
          </a>
         </g>
        </svg>
</svg>
