<?xml version="1.0" encoding="UTF-8" standalone="no"?>
<!DOCTYPE svg PUBLIC "-//W3C//DTD SVG 1.1//EN"
 "http://www.w3.org/Graphics/SVG/1.1/DTD/svg11.dtd">
<!-- Generated by graphviz version 2.38.0 (20140413.2041)
 -->
<!-- Title: /home/travis/build/AliceO2Group/AliceO2/EventVisualisation/Base/include/EventVisualisationBase/EventRegistration.h Pages: 1 -->
<svg width="684pt" height="261pt"
 viewBox="0.00 0.00 684.00 261.00" xmlns="http://www.w3.org/2000/svg" xmlns:xlink="http://www.w3.org/1999/xlink">
<g id="graph0" class="graph" transform="scale(1 1) rotate(0) translate(4 257)">
<title>/home/travis/build/AliceO2Group/AliceO2/EventVisualisation/Base/include/EventVisualisationBase/EventRegistration.h</title>
<!-- Node1 -->
<g id="node1" class="node"><title>Node1</title>
<polygon fill="#bfbfbf" stroke="black" points="146,-189.5 146,-252.5 303,-252.5 303,-189.5 146,-189.5"/>
<text text-anchor="start" x="154" y="-240.5" font-family="Helvetica,sans-Serif" font-size="10.00">/home/travis/build</text>
<text text-anchor="start" x="154" y="-229.5" font-family="Helvetica,sans-Serif" font-size="10.00">/AliceO2Group/AliceO2</text>
<text text-anchor="start" x="154" y="-218.5" font-family="Helvetica,sans-Serif" font-size="10.00">/EventVisualisation/Base</text>
<text text-anchor="start" x="154" y="-207.5" font-family="Helvetica,sans-Serif" font-size="10.00">/include/EventVisualisationBase</text>
<text text-anchor="middle" x="224.5" y="-196.5" font-family="Helvetica,sans-Serif" font-size="10.00">/EventRegistration.h</text>
</g>
<!-- Node2 -->
<g id="node2" class="node"><title>Node2</title>
<g id="a_node2"><a xlink:href="../../dd/d4b/EventRegistration_8cxx.html" target="_top" xlink:title="breaking link dependency between EventVisualisation modules (here MultiView can register) ...">
<polygon fill="none" stroke="black" points="0,-95 0,-147 133,-147 133,-95 0,-95"/>
<text text-anchor="start" x="8" y="-135" font-family="Helvetica,sans-Serif" font-size="10.00">/home/travis/build</text>
<text text-anchor="start" x="8" y="-124" font-family="Helvetica,sans-Serif" font-size="10.00">/AliceO2Group/AliceO2</text>
<text text-anchor="start" x="8" y="-113" font-family="Helvetica,sans-Serif" font-size="10.00">/EventVisualisation/Base</text>
<text text-anchor="middle" x="66.5" y="-102" font-family="Helvetica,sans-Serif" font-size="10.00">/src/EventRegistration.cxx</text>
</a>
</g>
</g>
<!-- Node1&#45;&gt;Node2 -->
<g id="edge1" class="edge"><title>Node1&#45;&gt;Node2</title>
<path fill="none" stroke="midnightblue" d="M166.314,-183.91C146.564,-171.66 124.945,-158.251 106.892,-147.054"/>
<polygon fill="midnightblue" stroke="midnightblue" points="164.598,-186.964 174.941,-189.261 168.288,-181.016 164.598,-186.964"/>
</g>
<!-- Node3 -->
<g id="node3" class="node"><title>Node3</title>
<g id="a_node3"><a xlink:href="../../dd/d02/DataReaderVSD_8cxx.html" target="_top" xlink:title="VSD specific reading from file(s) (Visualisation Summary Data) ">
<polygon fill="none" stroke="black" points="151.5,-95 151.5,-147 297.5,-147 297.5,-95 151.5,-95"/>
<text text-anchor="start" x="159.5" y="-135" font-family="Helvetica,sans-Serif" font-size="10.00">/home/travis/build</text>
<text text-anchor="start" x="159.5" y="-124" font-family="Helvetica,sans-Serif" font-size="10.00">/AliceO2Group/AliceO2</text>
<text text-anchor="start" x="159.5" y="-113" font-family="Helvetica,sans-Serif" font-size="10.00">/EventVisualisation/Detectors</text>
<text text-anchor="middle" x="224.5" y="-102" font-family="Helvetica,sans-Serif" font-size="10.00">/src/DataReaderVSD.cxx</text>
</a>
</g>
</g>
<!-- Node1&#45;&gt;Node3 -->
<g id="edge2" class="edge"><title>Node1&#45;&gt;Node3</title>
<path fill="none" stroke="midnightblue" d="M224.5,-179.079C224.5,-168.21 224.5,-156.794 224.5,-147.054"/>
<polygon fill="midnightblue" stroke="midnightblue" points="221,-179.261 224.5,-189.261 228,-179.261 221,-179.261"/>
</g>
<!-- Node4 -->
<g id="node4" class="node"><title>Node4</title>
<g id="a_node4"><a xlink:href="../../d7/d29/MultiView_8h.html" target="_top" xlink:title="/home/travis/build\l/AliceO2Group/AliceO2\l/EventVisualisation/View\l/include/EventVisualisationView\l/MultiView.h">
<polygon fill="none" stroke="black" points="315.5,-89.5 315.5,-152.5 471.5,-152.5 471.5,-89.5 315.5,-89.5"/>
<text text-anchor="start" x="323.5" y="-140.5" font-family="Helvetica,sans-Serif" font-size="10.00">/home/travis/build</text>
<text text-anchor="start" x="323.5" y="-129.5" font-family="Helvetica,sans-Serif" font-size="10.00">/AliceO2Group/AliceO2</text>
<text text-anchor="start" x="323.5" y="-118.5" font-family="Helvetica,sans-Serif" font-size="10.00">/EventVisualisation/View</text>
<text text-anchor="start" x="323.5" y="-107.5" font-family="Helvetica,sans-Serif" font-size="10.00">/include/EventVisualisationView</text>
<text text-anchor="middle" x="393.5" y="-96.5" font-family="Helvetica,sans-Serif" font-size="10.00">/MultiView.h</text>
</a>
</g>
</g>
<!-- Node1&#45;&gt;Node4 -->
<g id="edge3" class="edge"><title>Node1&#45;&gt;Node4</title>
<path fill="none" stroke="midnightblue" d="M286.641,-183.966C304.386,-173.676 323.548,-162.564 340.679,-152.63"/>
<polygon fill="midnightblue" stroke="midnightblue" points="284.404,-181.217 277.509,-189.261 287.916,-187.272 284.404,-181.217"/>
</g>
<!-- Node5 -->
<g id="node5" class="node"><title>Node5</title>
<g id="a_node5"><a xlink:href="../../dd/d21/EventManager_8cxx.html" target="_top" xlink:title="/home/travis/build\l/AliceO2Group/AliceO2\l/EventVisualisation/View\l/src/EventManager.cxx">
<polygon fill="none" stroke="black" points="100,-0.5 100,-52.5 225,-52.5 225,-0.5 100,-0.5"/>
<text text-anchor="start" x="108" y="-40.5" font-family="Helvetica,sans-Serif" font-size="10.00">/home/travis/build</text>
<text text-anchor="start" x="108" y="-29.5" font-family="Helvetica,sans-Serif" font-size="10.00">/AliceO2Group/AliceO2</text>
<text text-anchor="start" x="108" y="-18.5" font-family="Helvetica,sans-Serif" font-size="10.00">/EventVisualisation/View</text>
<text text-anchor="middle" x="162.5" y="-7.5" font-family="Helvetica,sans-Serif" font-size="10.00">/src/EventManager.cxx</text>
</a>
</g>
</g>
<!-- Node4&#45;&gt;Node5 -->
<g id="edge4" class="edge"><title>Node4&#45;&gt;Node5</title>
<path fill="none" stroke="midnightblue" d="M307.662,-85.6275C280.322,-74.6799 250.605,-62.78 225.22,-52.6152"/>
<polygon fill="midnightblue" stroke="midnightblue" points="306.637,-88.9874 317.222,-89.4557 309.239,-82.4891 306.637,-88.9874"/>
</g>
<!-- Node6 -->
<g id="node6" class="node"><title>Node6</title>
<g id="a_node6"><a xlink:href="../../d0/dc0/EventManagerFrame_8cxx.html" target="_top" xlink:title="GUI (bottom buttons) for visualisation. ">
<polygon fill="none" stroke="black" points="243.5,-0.5 243.5,-52.5 389.5,-52.5 389.5,-0.5 243.5,-0.5"/>
<text text-anchor="start" x="251.5" y="-40.5" font-family="Helvetica,sans-Serif" font-size="10.00">/home/travis/build</text>
<text text-anchor="start" x="251.5" y="-29.5" font-family="Helvetica,sans-Serif" font-size="10.00">/AliceO2Group/AliceO2</text>
<text text-anchor="start" x="251.5" y="-18.5" font-family="Helvetica,sans-Serif" font-size="10.00">/EventVisualisation/View</text>
<text text-anchor="middle" x="316.5" y="-7.5" font-family="Helvetica,sans-Serif" font-size="10.00">/src/EventManagerFrame.cxx</text>
</a>
</g>
</g>
<!-- Node4&#45;&gt;Node6 -->
<g id="edge5" class="edge"><title>Node4&#45;&gt;Node6</title>
<path fill="none" stroke="midnightblue" d="M361.663,-81.7546C353.524,-71.9771 344.975,-61.7073 337.532,-52.7655"/>
<polygon fill="midnightblue" stroke="midnightblue" points="358.986,-84.0093 368.074,-89.4557 364.366,-79.5308 358.986,-84.0093"/>
</g>
<!-- Node7 -->
<g id="node7" class="node"><title>Node7</title>
<g id="a_node7"><a xlink:href="../../df/d2a/Initializer_8cxx.html" target="_top" xlink:title="/home/travis/build\l/AliceO2Group/AliceO2\l/EventVisualisation/View\l/src/Initializer.cxx">
<polygon fill="none" stroke="black" points="408,-0.5 408,-52.5 533,-52.5 533,-0.5 408,-0.5"/>
<text text-anchor="start" x="416" y="-40.5" font-family="Helvetica,sans-Serif" font-size="10.00">/home/travis/build</text>
<text text-anchor="start" x="416" y="-29.5" font-family="Helvetica,sans-Serif" font-size="10.00">/AliceO2Group/AliceO2</text>
<text text-anchor="start" x="416" y="-18.5" font-family="Helvetica,sans-Serif" font-size="10.00">/EventVisualisation/View</text>
<text text-anchor="middle" x="470.5" y="-7.5" font-family="Helvetica,sans-Serif" font-size="10.00">/src/Initializer.cxx</text>
</a>
</g>
</g>
<!-- Node4&#45;&gt;Node7 -->
<g id="edge6" class="edge"><title>Node4&#45;&gt;Node7</title>
<path fill="none" stroke="midnightblue" d="M425.337,-81.7546C433.476,-71.9771 442.025,-61.7073 449.468,-52.7655"/>
<polygon fill="midnightblue" stroke="midnightblue" points="422.634,-79.5308 418.926,-89.4557 428.014,-84.0093 422.634,-79.5308"/>
</g>
<!-- Node8 -->
<g id="node8" class="node"><title>Node8</title>
<g id="a_node8"><a xlink:href="../../da/d7a/MultiView_8cxx.html" target="_top" xlink:title="/home/travis/build\l/AliceO2Group/AliceO2\l/EventVisualisation/View\l/src/MultiView.cxx">
<polygon fill="none" stroke="black" points="551,-0.5 551,-52.5 676,-52.5 676,-0.5 551,-0.5"/>
<text text-anchor="start" x="559" y="-40.5" font-family="Helvetica,sans-Serif" font-size="10.00">/home/travis/build</text>
<text text-anchor="start" x="559" y="-29.5" font-family="Helvetica,sans-Serif" font-size="10.00">/AliceO2Group/AliceO2</text>
<text text-anchor="start" x="559" y="-18.5" font-family="Helvetica,sans-Serif" font-size="10.00">/EventVisualisation/View</text>
<text text-anchor="middle" x="613.5" y="-7.5" font-family="Helvetica,sans-Serif" font-size="10.00">/src/MultiView.cxx</text>
</a>
</g>
</g>
<!-- Node4&#45;&gt;Node8 -->
<g id="edge7" class="edge"><title>Node4&#45;&gt;Node8</title>
<path fill="none" stroke="midnightblue" d="M475.592,-85.484C501.535,-74.576 529.696,-62.7356 553.766,-52.6152"/>
<polygon fill="midnightblue" stroke="midnightblue" points="474.008,-82.3533 466.146,-89.4557 476.721,-88.8062 474.008,-82.3533"/>
</g>
</g>
</svg>
