<?xml version="1.0" encoding="UTF-8" standalone="no"?>
<!DOCTYPE svg PUBLIC "-//W3C//DTD SVG 1.1//EN"
 "http://www.w3.org/Graphics/SVG/1.1/DTD/svg11.dtd">
<!-- Generated by graphviz version 2.38.0 (20140413.2041)
 -->
<!-- Title: /home/travis/build/AliceO2Group/AliceO2/Utilities/DataFlow/include/DataFlow/TimeframeValidatorDevice.h Pages: 1 -->
<!--zoomable 352 -->
<svg id="main" version="1.1" xmlns="http://www.w3.org/2000/svg" xmlns:xlink="http://www.w3.org/1999/xlink" xml:space="preserve" onload="init(evt)">
<style type="text/css"><![CDATA[
.edge:hover path { stroke: red; }
.edge:hover polygon { stroke: red; fill: red; }
]]></style>
<script type="text/javascript"><![CDATA[
var edges = document.getElementsByTagName('g');
if (edges && edges.length) {
  for (var i=0;i<edges.length;i++) {
    if (edges[i].id.substr(0,4)=='edge') {
      edges[i].setAttribute('class','edge');
    }
  }
}
]]></script>
        <defs>
                <circle id="rim" cx="0" cy="0" r="7"/>
                <circle id="rim2" cx="0" cy="0" r="3.5"/>
                <g id="zoomPlus">
                        <use xlink:href="#rim" fill="#404040">
                                <set attributeName="fill" to="#808080" begin="zoomplus.mouseover" end="zoomplus.mouseout"/>
                        </use>
                        <path d="M-4,0h8M0,-4v8" fill="none" stroke="white" stroke-width="1.5" pointer-events="none"/>
                </g>
                <g id="zoomMin">
                        <use xlink:href="#rim" fill="#404040">
                                <set attributeName="fill" to="#808080" begin="zoomminus.mouseover" end="zoomminus.mouseout"/>
                        </use>
                        <path d="M-4,0h8" fill="none" stroke="white" stroke-width="1.5" pointer-events="none"/>
                </g>
                <g id="dirArrow">
                        <path fill="none" stroke="white" stroke-width="1.5" d="M0,-3.0v7 M-2.5,-0.5L0,-3.0L2.5,-0.5"/>
                </g>
               <g id="resetDef">
                       <use xlink:href="#rim2" fill="#404040">
                               <set attributeName="fill" to="#808080" begin="reset.mouseover" end="reset.mouseout"/>
                       </use>
               </g>
        </defs>

<script type="text/javascript">
var viewWidth = 2137;
var viewHeight = 352;
var sectionId = 'dynsection-0';
</script>
<script xlink:href="../../svgpan.js"/>
<svg id="graph" class="graph">
<g id="viewport">
<title>/home/travis/build/AliceO2Group/AliceO2/Utilities/DataFlow/include/DataFlow/TimeframeValidatorDevice.h</title>
<!-- Node1 -->
<g id="node1" class="node"><title>Node1</title>
<polygon fill="#bfbfbf" stroke="black" points="1621,-291.5 1621,-343.5 1809,-343.5 1809,-291.5 1621,-291.5"/>
<text text-anchor="start" x="1629" y="-331.5" font-family="Helvetica,sans-Serif" font-size="10.00">/home/travis/build</text>
<text text-anchor="start" x="1629" y="-320.5" font-family="Helvetica,sans-Serif" font-size="10.00">/AliceO2Group/AliceO2</text>
<text text-anchor="start" x="1629" y="-309.5" font-family="Helvetica,sans-Serif" font-size="10.00">/Utilities/DataFlow/include</text>
<text text-anchor="middle" x="1715" y="-298.5" font-family="Helvetica,sans-Serif" font-size="10.00">/DataFlow/TimeframeValidatorDevice.h</text>
</g>
<!-- Node2 -->
<g id="node2" class="node"><title>Node2</title>
<g id="a_node2"><a xlink:href="../../d2/dee/O2Device_8h.html" target="_top" xlink:title="O2Device/O2Device.h">
<polygon fill="none" stroke="black" points="1657.5,-235.5 1657.5,-254.5 1772.5,-254.5 1772.5,-235.5 1657.5,-235.5"/>
<text text-anchor="middle" x="1715" y="-242.5" font-family="Helvetica,sans-Serif" font-size="10.00">O2Device/O2Device.h</text>
</a>
</g>
</g>
<!-- Node1&#45;&gt;Node2 -->
<g id="edge1" class="edge"><title>Node1&#45;&gt;Node2</title>
<path fill="none" stroke="midnightblue" d="M1715,-291.446C1715,-282.73 1715,-273.104 1715,-264.964"/>
<polygon fill="midnightblue" stroke="midnightblue" points="1718.5,-264.695 1715,-254.695 1711.5,-264.696 1718.5,-264.695"/>
</g>
<!-- Node3 -->
<g id="node3" class="node"><title>Node3</title>
<polygon fill="none" stroke="#bfbfbf" points="1393,-179.5 1393,-198.5 1481,-198.5 1481,-179.5 1393,-179.5"/>
<text text-anchor="middle" x="1437" y="-186.5" font-family="Helvetica,sans-Serif" font-size="10.00">FairMQDevice.h</text>
</g>
<!-- Node2&#45;&gt;Node3 -->
<g id="edge2" class="edge"><title>Node2&#45;&gt;Node3</title>
<path fill="none" stroke="midnightblue" d="M1670.95,-235.444C1622.15,-225.964 1543.44,-210.675 1490.97,-200.483"/>
<polygon fill="midnightblue" stroke="midnightblue" points="1491.33,-196.988 1480.84,-198.516 1489.99,-203.859 1491.33,-196.988"/>
</g>
<!-- Node4 -->
<g id="node4" class="node"><title>Node4</title>
<polygon fill="none" stroke="#bfbfbf" points="1499,-179.5 1499,-198.5 1645,-198.5 1645,-179.5 1499,-179.5"/>
<text text-anchor="middle" x="1572" y="-186.5" font-family="Helvetica,sans-Serif" font-size="10.00">options/FairMQProgOptions.h</text>
</g>
<!-- Node2&#45;&gt;Node4 -->
<g id="edge3" class="edge"><title>Node2&#45;&gt;Node4</title>
<path fill="none" stroke="midnightblue" d="M1692.34,-235.444C1668.6,-226.478 1631.09,-212.314 1604.26,-202.183"/>
<polygon fill="midnightblue" stroke="midnightblue" points="1605.14,-198.775 1594.55,-198.516 1602.67,-205.324 1605.14,-198.775"/>
</g>
<!-- Node5 -->
<g id="node5" class="node"><title>Node5</title>
<g id="a_node5"><a xlink:href="../../d7/db2/Utilities_8h.html" target="_top" xlink:title="O2Device/Utilities.h">
<polygon fill="none" stroke="black" points="1663,-179.5 1663,-198.5 1767,-198.5 1767,-179.5 1663,-179.5"/>
<text text-anchor="middle" x="1715" y="-186.5" font-family="Helvetica,sans-Serif" font-size="10.00">O2Device/Utilities.h</text>
</a>
</g>
</g>
<!-- Node2&#45;&gt;Node5 -->
<g id="edge4" class="edge"><title>Node2&#45;&gt;Node5</title>
<path fill="none" stroke="midnightblue" d="M1715,-235.083C1715,-228.006 1715,-217.861 1715,-208.986"/>
<polygon fill="midnightblue" stroke="midnightblue" points="1718.5,-208.751 1715,-198.751 1711.5,-208.751 1718.5,-208.751"/>
</g>
<!-- Node27 -->
<g id="node27" class="node"><title>Node27</title>
<polygon fill="none" stroke="#bfbfbf" points="2069.5,-6 2069.5,-25 2128.5,-25 2128.5,-6 2069.5,-6"/>
<text text-anchor="middle" x="2099" y="-13" font-family="Helvetica,sans-Serif" font-size="10.00">stdexcept</text>
</g>
<!-- Node2&#45;&gt;Node27 -->
<g id="edge38" class="edge"><title>Node2&#45;&gt;Node27</title>
<path fill="none" stroke="midnightblue" d="M1729.58,-235.36C1787.8,-200.871 2003.83,-72.8832 2075.63,-30.3457"/>
<polygon fill="midnightblue" stroke="midnightblue" points="2077.58,-33.2575 2084.4,-25.1491 2074.01,-27.235 2077.58,-33.2575"/>
</g>
<!-- Node32 -->
<g id="node32" class="node"><title>Node32</title>
<polygon fill="none" stroke="#bfbfbf" points="1845.5,-179.5 1845.5,-198.5 1996.5,-198.5 1996.5,-179.5 1845.5,-179.5"/>
<text text-anchor="middle" x="1921" y="-186.5" font-family="Helvetica,sans-Serif" font-size="10.00">Monitoring/MonitoringFactory.h</text>
</g>
<!-- Node2&#45;&gt;Node32 -->
<g id="edge37" class="edge"><title>Node2&#45;&gt;Node32</title>
<path fill="none" stroke="midnightblue" d="M1747.64,-235.444C1783.05,-226.162 1839.71,-211.309 1878.55,-201.127"/>
<polygon fill="midnightblue" stroke="midnightblue" points="1879.73,-204.438 1888.51,-198.516 1877.95,-197.667 1879.73,-204.438"/>
</g>
<!-- Node6 -->
<g id="node6" class="node"><title>Node6</title>
<g id="a_node6"><a xlink:href="../../dc/d03/MemoryResources_8h.html" target="_top" xlink:title="MemoryResources/MemoryResources.h">
<polygon fill="none" stroke="black" points="831.5,-67.5 831.5,-86.5 1024.5,-86.5 1024.5,-67.5 831.5,-67.5"/>
<text text-anchor="middle" x="928" y="-74.5" font-family="Helvetica,sans-Serif" font-size="10.00">MemoryResources/MemoryResources.h</text>
</a>
</g>
</g>
<!-- Node5&#45;&gt;Node6 -->
<g id="edge5" class="edge"><title>Node5&#45;&gt;Node6</title>
<path fill="none" stroke="midnightblue" d="M1662.76,-180.264C1659.8,-179.834 1656.86,-179.41 1654,-179 1415.15,-144.766 1131.83,-105.835 1000.95,-87.9465"/>
<polygon fill="midnightblue" stroke="midnightblue" points="1001.04,-84.4262 990.661,-86.54 1000.1,-91.3617 1001.04,-84.4262"/>
</g>
<!-- Node14 -->
<g id="node14" class="node"><title>Node14</title>
<polygon fill="none" stroke="#bfbfbf" points="0,-6 0,-25 40,-25 40,-6 0,-6"/>
<text text-anchor="middle" x="20" y="-13" font-family="Helvetica,sans-Serif" font-size="10.00">utility</text>
</g>
<!-- Node5&#45;&gt;Node14 -->
<g id="edge35" class="edge"><title>Node5&#45;&gt;Node14</title>
<path fill="none" stroke="midnightblue" d="M1662.78,-180.098C1659.81,-179.71 1656.87,-179.341 1654,-179 1477.19,-157.997 1432.31,-159.232 1255,-143 718.935,-93.9248 566.62,-178.794 49,-31 47.3255,-30.5219 45.6321,-29.9475 43.949,-29.3072"/>
<polygon fill="midnightblue" stroke="midnightblue" points="45.1795,-26.0234 34.6225,-25.1291 42.3176,-32.4117 45.1795,-26.0234"/>
</g>
<!-- Node22 -->
<g id="node22" class="node"><title>Node22</title>
<g id="a_node22"><a xlink:href="../../dc/dcd/DataHeader_8h.html" target="_top" xlink:title="Headers/DataHeader.h">
<polygon fill="none" stroke="black" points="1664.5,-67.5 1664.5,-86.5 1781.5,-86.5 1781.5,-67.5 1664.5,-67.5"/>
<text text-anchor="middle" x="1723" y="-74.5" font-family="Helvetica,sans-Serif" font-size="10.00">Headers/DataHeader.h</text>
</a>
</g>
</g>
<!-- Node5&#45;&gt;Node22 -->
<g id="edge21" class="edge"><title>Node5&#45;&gt;Node22</title>
<path fill="none" stroke="midnightblue" d="M1715.63,-179.368C1716.92,-161.617 1719.9,-120.666 1721.65,-96.5974"/>
<polygon fill="midnightblue" stroke="midnightblue" points="1725.14,-96.819 1722.38,-86.5914 1718.16,-96.3112 1725.14,-96.819"/>
</g>
<!-- Node30 -->
<g id="node30" class="node"><title>Node30</title>
<g id="a_node30"><a xlink:href="../../d4/d00/Headers_2include_2Headers_2Stack_8h.html" target="_top" xlink:title="Headers/Stack.h">
<polygon fill="none" stroke="black" points="1597,-123.5 1597,-142.5 1687,-142.5 1687,-123.5 1597,-123.5"/>
<text text-anchor="middle" x="1642" y="-130.5" font-family="Helvetica,sans-Serif" font-size="10.00">Headers/Stack.h</text>
</a>
</g>
</g>
<!-- Node5&#45;&gt;Node30 -->
<g id="edge32" class="edge"><title>Node5&#45;&gt;Node30</title>
<path fill="none" stroke="midnightblue" d="M1703.27,-179.324C1692.16,-171.107 1675.26,-158.602 1662.02,-148.807"/>
<polygon fill="midnightblue" stroke="midnightblue" points="1664.06,-145.967 1653.94,-142.834 1659.9,-151.595 1664.06,-145.967"/>
</g>
<!-- Node31 -->
<g id="node31" class="node"><title>Node31</title>
<polygon fill="none" stroke="#bfbfbf" points="1743.5,-123.5 1743.5,-142.5 1788.5,-142.5 1788.5,-123.5 1743.5,-123.5"/>
<text text-anchor="middle" x="1766" y="-130.5" font-family="Helvetica,sans-Serif" font-size="10.00">gsl/gsl</text>
</g>
<!-- Node5&#45;&gt;Node31 -->
<g id="edge36" class="edge"><title>Node5&#45;&gt;Node31</title>
<path fill="none" stroke="midnightblue" d="M1723.42,-179.083C1730.85,-171.22 1741.85,-159.569 1750.81,-150.081"/>
<polygon fill="midnightblue" stroke="midnightblue" points="1753.41,-152.424 1757.74,-142.751 1748.32,-147.618 1753.41,-152.424"/>
</g>
<!-- Node7 -->
<g id="node7" class="node"><title>Node7</title>
<polygon fill="none" stroke="#bfbfbf" points="58,-0.5 58,-30.5 158,-30.5 158,-0.5 58,-0.5"/>
<text text-anchor="start" x="66" y="-18.5" font-family="Helvetica,sans-Serif" font-size="10.00">boost/container/flat</text>
<text text-anchor="middle" x="108" y="-7.5" font-family="Helvetica,sans-Serif" font-size="10.00">_map.hpp</text>
</g>
<!-- Node6&#45;&gt;Node7 -->
<g id="edge6" class="edge"><title>Node6&#45;&gt;Node7</title>
<path fill="none" stroke="midnightblue" d="M831.31,-75.8952C688.188,-74.4936 411.555,-67.0127 168.188,-30.982"/>
<polygon fill="midnightblue" stroke="midnightblue" points="168.496,-27.4891 158.088,-29.4671 167.458,-34.4117 168.496,-27.4891"/>
</g>
<!-- Node8 -->
<g id="node8" class="node"><title>Node8</title>
<polygon fill="none" stroke="#bfbfbf" points="176,-0.5 176,-30.5 292,-30.5 292,-0.5 176,-0.5"/>
<text text-anchor="start" x="184" y="-18.5" font-family="Helvetica,sans-Serif" font-size="10.00">boost/container/pmr</text>
<text text-anchor="middle" x="234" y="-7.5" font-family="Helvetica,sans-Serif" font-size="10.00">/memory_resource.hpp</text>
</g>
<!-- Node6&#45;&gt;Node8 -->
<g id="edge7" class="edge"><title>Node6&#45;&gt;Node8</title>
<path fill="none" stroke="midnightblue" d="M831.412,-73.3064C709.999,-68.9672 495.122,-58.1326 302.063,-31.0104"/>
<polygon fill="midnightblue" stroke="midnightblue" points="302.407,-27.5241 292.014,-29.5808 301.421,-34.4543 302.407,-27.5241"/>
</g>
<!-- Node9 -->
<g id="node9" class="node"><title>Node9</title>
<polygon fill="none" stroke="#bfbfbf" points="310,-0.5 310,-30.5 466,-30.5 466,-0.5 310,-0.5"/>
<text text-anchor="start" x="318" y="-18.5" font-family="Helvetica,sans-Serif" font-size="10.00">boost/container/pmr</text>
<text text-anchor="middle" x="388" y="-7.5" font-family="Helvetica,sans-Serif" font-size="10.00">/monotonic_buffer_resource.hpp</text>
</g>
<!-- Node6&#45;&gt;Node9 -->
<g id="edge8" class="edge"><title>Node6&#45;&gt;Node9</title>
<path fill="none" stroke="midnightblue" d="M831.244,-68.1739C741.909,-60.5316 605.308,-47.7954 476.242,-30.9706"/>
<polygon fill="midnightblue" stroke="midnightblue" points="476.542,-27.48 466.171,-29.6474 475.63,-34.4204 476.542,-27.48"/>
</g>
<!-- Node10 -->
<g id="node10" class="node"><title>Node10</title>
<polygon fill="none" stroke="#bfbfbf" points="484.5,-0.5 484.5,-30.5 617.5,-30.5 617.5,-0.5 484.5,-0.5"/>
<text text-anchor="start" x="492.5" y="-18.5" font-family="Helvetica,sans-Serif" font-size="10.00">boost/container/pmr</text>
<text text-anchor="middle" x="551" y="-7.5" font-family="Helvetica,sans-Serif" font-size="10.00">/polymorphic_allocator.hpp</text>
</g>
<!-- Node6&#45;&gt;Node10 -->
<g id="edge9" class="edge"><title>Node6&#45;&gt;Node10</title>
<path fill="none" stroke="midnightblue" d="M865.913,-67.4597C807.173,-59.2113 716.291,-46.0159 627.657,-31.0706"/>
<polygon fill="midnightblue" stroke="midnightblue" points="628.145,-27.6034 617.701,-29.3826 626.975,-34.5049 628.145,-27.6034"/>
</g>
<!-- Node11 -->
<g id="node11" class="node"><title>Node11</title>
<polygon fill="none" stroke="#bfbfbf" points="1473,-6 1473,-25 1519,-25 1519,-6 1473,-6"/>
<text text-anchor="middle" x="1496" y="-13" font-family="Helvetica,sans-Serif" font-size="10.00">cstring</text>
</g>
<!-- Node6&#45;&gt;Node11 -->
<g id="edge10" class="edge"><title>Node6&#45;&gt;Node11</title>
<path fill="none" stroke="midnightblue" d="M1024.56,-71.8428C1155.85,-65.5114 1383.57,-51.9325 1464,-31 1466.16,-30.4383 1468.35,-29.7413 1470.53,-28.9591"/>
<polygon fill="midnightblue" stroke="midnightblue" points="1471.88,-32.1894 1479.79,-25.1397 1469.21,-25.7186 1471.88,-32.1894"/>
</g>
<!-- Node12 -->
<g id="node12" class="node"><title>Node12</title>
<polygon fill="none" stroke="#bfbfbf" points="1537.5,-6 1537.5,-25 1578.5,-25 1578.5,-6 1537.5,-6"/>
<text text-anchor="middle" x="1558" y="-13" font-family="Helvetica,sans-Serif" font-size="10.00">string</text>
</g>
<!-- Node6&#45;&gt;Node12 -->
<g id="edge11" class="edge"><title>Node6&#45;&gt;Node12</title>
<path fill="none" stroke="midnightblue" d="M1024.62,-73.1402C1169.49,-68.1089 1435.82,-55.7727 1528,-31 1529.93,-30.482 1531.88,-29.8403 1533.82,-29.1176"/>
<polygon fill="midnightblue" stroke="midnightblue" points="1535.41,-32.2418 1543.17,-25.0273 1532.6,-25.8286 1535.41,-32.2418"/>
</g>
<!-- Node13 -->
<g id="node13" class="node"><title>Node13</title>
<polygon fill="none" stroke="#bfbfbf" points="636,-6 636,-25 698,-25 698,-6 636,-6"/>
<text text-anchor="middle" x="667" y="-13" font-family="Helvetica,sans-Serif" font-size="10.00">type_traits</text>
</g>
<!-- Node6&#45;&gt;Node13 -->
<g id="edge12" class="edge"><title>Node6&#45;&gt;Node13</title>
<path fill="none" stroke="midnightblue" d="M874.787,-67.427C829.694,-59.6253 763.537,-46.9104 707,-31 704.2,-30.2121 701.315,-29.3236 698.438,-28.384"/>
<polygon fill="midnightblue" stroke="midnightblue" points="699.412,-25.0177 688.818,-25.0648 697.129,-31.635 699.412,-25.0177"/>
</g>
<!-- Node6&#45;&gt;Node14 -->
<g id="edge13" class="edge"><title>Node6&#45;&gt;Node14</title>
<path fill="none" stroke="midnightblue" d="M831.223,-73.286C618.443,-66.9956 122.931,-50.4615 49,-31 47.2785,-30.5468 45.5397,-29.9843 43.8143,-29.3465"/>
<polygon fill="midnightblue" stroke="midnightblue" points="44.8489,-25.9759 34.29,-25.1048 42.0011,-32.3704 44.8489,-25.9759"/>
</g>
<!-- Node15 -->
<g id="node15" class="node"><title>Node15</title>
<polygon fill="none" stroke="#bfbfbf" points="716,-6 716,-25 760,-25 760,-6 716,-6"/>
<text text-anchor="middle" x="738" y="-13" font-family="Helvetica,sans-Serif" font-size="10.00">vector</text>
</g>
<!-- Node6&#45;&gt;Node15 -->
<g id="edge14" class="edge"><title>Node6&#45;&gt;Node15</title>
<path fill="none" stroke="midnightblue" d="M892.379,-67.4628C860.038,-59.3342 811.238,-46.1212 770,-31 768.386,-30.4081 766.739,-29.7708 765.087,-29.1052"/>
<polygon fill="midnightblue" stroke="midnightblue" points="766.316,-25.8242 755.746,-25.1036 763.56,-32.2587 766.316,-25.8242"/>
</g>
<!-- Node16 -->
<g id="node16" class="node"><title>Node16</title>
<polygon fill="none" stroke="#bfbfbf" points="778.5,-6 778.5,-25 861.5,-25 861.5,-6 778.5,-6"/>
<text text-anchor="middle" x="820" y="-13" font-family="Helvetica,sans-Serif" font-size="10.00">unordered_map</text>
</g>
<!-- Node6&#45;&gt;Node16 -->
<g id="edge15" class="edge"><title>Node6&#45;&gt;Node16</title>
<path fill="none" stroke="midnightblue" d="M912.526,-67.4751C894.722,-57.6664 865.259,-41.4346 844.368,-29.925"/>
<polygon fill="midnightblue" stroke="midnightblue" points="845.893,-26.769 835.445,-25.0091 842.515,-32.9001 845.893,-26.769"/>
</g>
<!-- Node17 -->
<g id="node17" class="node"><title>Node17</title>
<polygon fill="none" stroke="#bfbfbf" points="879.5,-6 879.5,-25 976.5,-25 976.5,-6 879.5,-6"/>
<text text-anchor="middle" x="928" y="-13" font-family="Helvetica,sans-Serif" font-size="10.00">FairMQMessage.h</text>
</g>
<!-- Node6&#45;&gt;Node17 -->
<g id="edge16" class="edge"><title>Node6&#45;&gt;Node17</title>
<path fill="none" stroke="midnightblue" d="M928,-67.4751C928,-59.0803 928,-45.9806 928,-35.1631"/>
<polygon fill="midnightblue" stroke="midnightblue" points="931.5,-35.0091 928,-25.0091 924.5,-35.0091 931.5,-35.0091"/>
</g>
<!-- Node18 -->
<g id="node18" class="node"><title>Node18</title>
<polygon fill="none" stroke="#bfbfbf" points="994.5,-6 994.5,-25 1125.5,-25 1125.5,-6 994.5,-6"/>
<text text-anchor="middle" x="1060" y="-13" font-family="Helvetica,sans-Serif" font-size="10.00">FairMQTransportFactory.h</text>
</g>
<!-- Node6&#45;&gt;Node18 -->
<g id="edge17" class="edge"><title>Node6&#45;&gt;Node18</title>
<path fill="none" stroke="midnightblue" d="M946.912,-67.4751C969.163,-57.4455 1006.31,-40.7002 1031.93,-29.1546"/>
<polygon fill="midnightblue" stroke="midnightblue" points="1033.44,-32.3094 1041.12,-25.0091 1030.57,-25.9277 1033.44,-32.3094"/>
</g>
<!-- Node19 -->
<g id="node19" class="node"><title>Node19</title>
<polygon fill="none" stroke="#bfbfbf" points="1143.5,-6 1143.5,-25 1280.5,-25 1280.5,-6 1143.5,-6"/>
<text text-anchor="middle" x="1212" y="-13" font-family="Helvetica,sans-Serif" font-size="10.00">fairmq/MemoryResources.h</text>
</g>
<!-- Node6&#45;&gt;Node19 -->
<g id="edge18" class="edge"><title>Node6&#45;&gt;Node19</title>
<path fill="none" stroke="midnightblue" d="M968.69,-67.4751C1019.52,-56.8269 1106.47,-38.6092 1161.5,-27.0806"/>
<polygon fill="midnightblue" stroke="midnightblue" points="1162.32,-30.4853 1171.39,-25.0091 1160.88,-23.6341 1162.32,-30.4853"/>
</g>
<!-- Node20 -->
<g id="node20" class="node"><title>Node20</title>
<polygon fill="none" stroke="#bfbfbf" points="1299,-6 1299,-25 1455,-25 1455,-6 1299,-6"/>
<text text-anchor="middle" x="1377" y="-13" font-family="Helvetica,sans-Serif" font-size="10.00">fairmq/MemoryResourceTools.h</text>
</g>
<!-- Node6&#45;&gt;Node20 -->
<g id="edge19" class="edge"><title>Node6&#45;&gt;Node20</title>
<path fill="none" stroke="midnightblue" d="M1004.05,-67.4757C1077.38,-59.0358 1191.45,-45.3317 1290,-31 1299.01,-29.6892 1308.54,-28.2047 1317.84,-26.6979"/>
<polygon fill="midnightblue" stroke="midnightblue" points="1318.52,-30.1333 1327.82,-25.0614 1317.39,-23.2256 1318.52,-30.1333"/>
</g>
<!-- Node21 -->
<g id="node21" class="node"><title>Node21</title>
<g id="a_node21"><a xlink:href="../../d7/df8/Types_8h.html" target="_top" xlink:title="Types.h">
<polygon fill="none" stroke="black" points="1597,-6 1597,-25 1649,-25 1649,-6 1597,-6"/>
<text text-anchor="middle" x="1623" y="-13" font-family="Helvetica,sans-Serif" font-size="10.00">Types.h</text>
</a>
</g>
</g>
<!-- Node6&#45;&gt;Node21 -->
<g id="edge20" class="edge"><title>Node6&#45;&gt;Node21</title>
<path fill="none" stroke="midnightblue" d="M1024.78,-73.2488C1181.51,-68.1467 1483.8,-55.443 1588,-31 1590.67,-30.3738 1593.4,-29.567 1596.09,-28.6551"/>
<polygon fill="midnightblue" stroke="midnightblue" points="1597.48,-31.8727 1605.56,-25.0265 1594.97,-25.3361 1597.48,-31.8727"/>
</g>
<!-- Node22&#45;&gt;Node11 -->
<g id="edge25" class="edge"><title>Node22&#45;&gt;Node11</title>
<path fill="none" stroke="midnightblue" d="M1674.88,-67.4278C1635.2,-59.7458 1577.72,-47.1979 1529,-31 1527.13,-30.3781 1525.22,-29.6897 1523.31,-28.9606"/>
<polygon fill="midnightblue" stroke="midnightblue" points="1524.5,-25.665 1513.92,-25.0952 1521.83,-32.1381 1524.5,-25.665"/>
</g>
<!-- Node22&#45;&gt;Node12 -->
<g id="edge28" class="edge"><title>Node22&#45;&gt;Node12</title>
<path fill="none" stroke="midnightblue" d="M1693.9,-67.4872C1666.3,-59.1325 1623.82,-45.5559 1588,-31 1586.63,-30.4419 1585.23,-29.8503 1583.82,-29.2374"/>
<polygon fill="midnightblue" stroke="midnightblue" points="1585.19,-26.0163 1574.65,-25.0149 1582.27,-32.3752 1585.19,-26.0163"/>
</g>
<!-- Node22&#45;&gt;Node21 -->
<g id="edge30" class="edge"><title>Node22&#45;&gt;Node21</title>
<path fill="none" stroke="midnightblue" d="M1708.67,-67.4751C1692.34,-57.7548 1665.4,-41.7266 1646.09,-30.2372"/>
<polygon fill="midnightblue" stroke="midnightblue" points="1647.68,-27.1146 1637.3,-25.0091 1644.11,-33.1303 1647.68,-27.1146"/>
</g>
<!-- Node23 -->
<g id="node23" class="node"><title>Node23</title>
<polygon fill="none" stroke="#bfbfbf" points="1667,-6 1667,-25 1713,-25 1713,-6 1667,-6"/>
<text text-anchor="middle" x="1690" y="-13" font-family="Helvetica,sans-Serif" font-size="10.00">cstdint</text>
</g>
<!-- Node22&#45;&gt;Node23 -->
<g id="edge22" class="edge"><title>Node22&#45;&gt;Node23</title>
<path fill="none" stroke="midnightblue" d="M1718.27,-67.4751C1713.42,-58.7268 1705.73,-44.8691 1699.6,-33.8093"/>
<polygon fill="midnightblue" stroke="midnightblue" points="1702.63,-32.0566 1694.72,-25.0091 1696.51,-35.4517 1702.63,-32.0566"/>
</g>
<!-- Node24 -->
<g id="node24" class="node"><title>Node24</title>
<polygon fill="none" stroke="#bfbfbf" points="1731,-6 1731,-25 1783,-25 1783,-6 1731,-6"/>
<text text-anchor="middle" x="1757" y="-13" font-family="Helvetica,sans-Serif" font-size="10.00">memory</text>
</g>
<!-- Node22&#45;&gt;Node24 -->
<g id="edge23" class="edge"><title>Node22&#45;&gt;Node24</title>
<path fill="none" stroke="midnightblue" d="M1727.87,-67.4751C1732.87,-58.7268 1740.79,-44.8691 1747.11,-33.8093"/>
<polygon fill="midnightblue" stroke="midnightblue" points="1750.22,-35.428 1752.14,-25.0091 1744.14,-31.955 1750.22,-35.428"/>
</g>
<!-- Node25 -->
<g id="node25" class="node"><title>Node25</title>
<polygon fill="none" stroke="#bfbfbf" points="1801.5,-6 1801.5,-25 1850.5,-25 1850.5,-6 1801.5,-6"/>
<text text-anchor="middle" x="1826" y="-13" font-family="Helvetica,sans-Serif" font-size="10.00">cassert</text>
</g>
<!-- Node22&#45;&gt;Node25 -->
<g id="edge24" class="edge"><title>Node22&#45;&gt;Node25</title>
<path fill="none" stroke="midnightblue" d="M1737.76,-67.4751C1754.66,-57.7106 1782.58,-41.5807 1802.49,-30.0808"/>
<polygon fill="midnightblue" stroke="midnightblue" points="1804.36,-33.0419 1811.27,-25.0091 1800.86,-26.9805 1804.36,-33.0419"/>
</g>
<!-- Node26 -->
<g id="node26" class="node"><title>Node26</title>
<polygon fill="none" stroke="#bfbfbf" points="1869,-6 1869,-25 1925,-25 1925,-6 1869,-6"/>
<text text-anchor="middle" x="1897" y="-13" font-family="Helvetica,sans-Serif" font-size="10.00">algorithm</text>
</g>
<!-- Node22&#45;&gt;Node26 -->
<g id="edge26" class="edge"><title>Node22&#45;&gt;Node26</title>
<path fill="none" stroke="midnightblue" d="M1750.45,-67.4836C1778.22,-58.7504 1822.31,-44.563 1860,-31 1861.9,-30.3167 1863.85,-29.6002 1865.81,-28.8671"/>
<polygon fill="midnightblue" stroke="midnightblue" points="1867.47,-31.9804 1875.56,-25.1392 1864.97,-25.4423 1867.47,-31.9804"/>
</g>
<!-- Node22&#45;&gt;Node27 -->
<g id="edge27" class="edge"><title>Node22&#45;&gt;Node27</title>
<path fill="none" stroke="midnightblue" d="M1781.73,-68.8824C1871.09,-57.942 2033.65,-37.5688 2060,-31 2062.99,-30.2551 2066.06,-29.3562 2069.11,-28.3754"/>
<polygon fill="midnightblue" stroke="midnightblue" points="2070.34,-31.6533 2078.63,-25.0509 2068.03,-25.045 2070.34,-31.6533"/>
</g>
<!-- Node28 -->
<g id="node28" class="node"><title>Node28</title>
<polygon fill="none" stroke="#bfbfbf" points="1943.5,-6 1943.5,-25 1988.5,-25 1988.5,-6 1943.5,-6"/>
<text text-anchor="middle" x="1966" y="-13" font-family="Helvetica,sans-Serif" font-size="10.00">climits</text>
</g>
<!-- Node22&#45;&gt;Node28 -->
<g id="edge29" class="edge"><title>Node22&#45;&gt;Node28</title>
<path fill="none" stroke="midnightblue" d="M1778.95,-67.451C1821.99,-60.069 1882.59,-47.9117 1934,-31 1935.87,-30.3854 1937.77,-29.6955 1939.68,-28.9591"/>
<polygon fill="midnightblue" stroke="midnightblue" points="1941.15,-32.137 1949,-25.022 1938.43,-25.6886 1941.15,-32.137"/>
</g>
<!-- Node29 -->
<g id="node29" class="node"><title>Node29</title>
<polygon fill="none" stroke="#bfbfbf" points="2007,-6 2007,-25 2051,-25 2051,-6 2007,-6"/>
<text text-anchor="middle" x="2029" y="-13" font-family="Helvetica,sans-Serif" font-size="10.00">cerrno</text>
</g>
<!-- Node22&#45;&gt;Node29 -->
<g id="edge31" class="edge"><title>Node22&#45;&gt;Node29</title>
<path fill="none" stroke="midnightblue" d="M1781.65,-68.33C1850.02,-59.0516 1958.66,-43.1643 1998,-31 1999.87,-30.4208 2001.78,-29.7501 2003.68,-29.0209"/>
<polygon fill="midnightblue" stroke="midnightblue" points="2005.12,-32.2094 2012.92,-25.0424 2002.36,-25.7792 2005.12,-32.2094"/>
</g>
<!-- Node30&#45;&gt;Node6 -->
<g id="edge33" class="edge"><title>Node30&#45;&gt;Node6</title>
<path fill="none" stroke="midnightblue" d="M1596.79,-128.581C1485.13,-120.136 1193.85,-98.1064 1035.04,-86.0954"/>
<polygon fill="midnightblue" stroke="midnightblue" points="1035.01,-82.5832 1024.77,-85.319 1034.48,-89.5633 1035.01,-82.5832"/>
</g>
<!-- Node30&#45;&gt;Node22 -->
<g id="edge34" class="edge"><title>Node30&#45;&gt;Node22</title>
<path fill="none" stroke="midnightblue" d="M1655.01,-123.324C1667.53,-114.979 1686.68,-102.212 1701.47,-92.3524"/>
<polygon fill="midnightblue" stroke="midnightblue" points="1703.64,-95.1137 1710.02,-86.6545 1699.76,-89.2894 1703.64,-95.1137"/>
</g>
</g>
</svg>
        <g id="navigator" transform="translate(0 0)" fill="#404254">
                <rect fill="#f2f5e9" fill-opacity="0.5" stroke="#606060" stroke-width=".5" x="0" y="0" width="60" height="60"/>
                <use id="zoomplus" xlink:href="#zoomPlus" x="17" y="9" onmousedown="handleZoom(evt,'in')"/>
                <use id="zoomminus" xlink:href="#zoomMin" x="42" y="9" onmousedown="handleZoom(evt,'out')"/>
                <use id="reset" xlink:href="#resetDef" x="30" y="36" onmousedown="handleReset()"/>
                <g id="arrowUp" xlink:href="#dirArrow" transform="translate(30 24)" onmousedown="handlePan(0,-1)">
                  <use xlink:href="#rim" fill="#404040">
                        <set attributeName="fill" to="#808080" begin="arrowUp.mouseover" end="arrowUp.mouseout"/>
                  </use>
                  <path fill="none" stroke="white" stroke-width="1.5" d="M0,-3.0v7 M-2.5,-0.5L0,-3.0L2.5,-0.5"/>
                </g>
                <g id="arrowRight" xlink:href="#dirArrow" transform="rotate(90) translate(36 -43)" onmousedown="handlePan(1,0)">
                  <use xlink:href="#rim" fill="#404040">
                        <set attributeName="fill" to="#808080" begin="arrowRight.mouseover" end="arrowRight.mouseout"/>
                  </use>
                  <path fill="none" stroke="white" stroke-width="1.5" d="M0,-3.0v7 M-2.5,-0.5L0,-3.0L2.5,-0.5"/>
                </g>
                <g id="arrowDown" xlink:href="#dirArrow" transform="rotate(180) translate(-30 -48)" onmousedown="handlePan(0,1)">
                  <use xlink:href="#rim" fill="#404040">
                        <set attributeName="fill" to="#808080" begin="arrowDown.mouseover" end="arrowDown.mouseout"/>
                  </use>
                  <path fill="none" stroke="white" stroke-width="1.5" d="M0,-3.0v7 M-2.5,-0.5L0,-3.0L2.5,-0.5"/>
                </g>
                <g id="arrowLeft" xlink:href="#dirArrow" transform="rotate(270) translate(-36 17)" onmousedown="handlePan(-1,0)">
                  <use xlink:href="#rim" fill="#404040">
                        <set attributeName="fill" to="#808080" begin="arrowLeft.mouseover" end="arrowLeft.mouseout"/>
                  </use>
                  <path fill="none" stroke="white" stroke-width="1.5" d="M0,-3.0v7 M-2.5,-0.5L0,-3.0L2.5,-0.5"/>
                </g>
        </g>
        <svg viewBox="0 0 15 15" width="100%" height="30px" preserveAspectRatio="xMaxYMin meet">
         <g id="arrow_out" transform="scale(0.3 0.3)">
          <a xlink:href="TimeframeValidatorDevice_8h__incl_org.svg" target="_base">
           <rect id="button" ry="5" rx="5" y="6" x="6" height="38" width="38"
                fill="#f2f5e9" fill-opacity="0.5" stroke="#606060" stroke-width="1.0"/>
           <path id="arrow"
             d="M 11.500037,31.436501 C 11.940474,20.09759 22.043105,11.32322 32.158766,21.979434 L 37.068811,17.246167 C 37.068811,17.246167 37.088388,32 37.088388,32 L 22.160133,31.978069 C 22.160133,31.978069 26.997745,27.140456 26.997745,27.140456 C 18.528582,18.264221 13.291696,25.230495 11.500037,31.436501 z"
             style="fill:#404040;"/>
          </a>
         </g>
        </svg>
</svg>
