<?xml version="1.0" encoding="UTF-8" standalone="no"?>
<!DOCTYPE svg PUBLIC "-//W3C//DTD SVG 1.1//EN"
 "http://www.w3.org/Graphics/SVG/1.1/DTD/svg11.dtd">
<!-- Generated by graphviz version 2.38.0 (20140413.2041)
 -->
<!-- Title: /home/travis/build/AliceO2Group/AliceO2/Framework/Core/src/DataProcessorInfo.h Pages: 1 -->
<svg width="493pt" height="229pt"
 viewBox="0.00 0.00 492.50 229.00" xmlns="http://www.w3.org/2000/svg" xmlns:xlink="http://www.w3.org/1999/xlink">
<g id="graph0" class="graph" transform="scale(1 1) rotate(0) translate(4 225)">
<title>/home/travis/build/AliceO2Group/AliceO2/Framework/Core/src/DataProcessorInfo.h</title>
<!-- Node1 -->
<g id="node1" class="node"><title>Node1</title>
<polygon fill="#bfbfbf" stroke="black" points="248.5,-168.5 248.5,-220.5 425.5,-220.5 425.5,-168.5 248.5,-168.5"/>
<text text-anchor="start" x="256.5" y="-208.5" font-family="Helvetica,sans-Serif" font-size="10.00">/home/travis/build</text>
<text text-anchor="start" x="256.5" y="-197.5" font-family="Helvetica,sans-Serif" font-size="10.00">/AliceO2Group/AliceO2</text>
<text text-anchor="start" x="256.5" y="-186.5" font-family="Helvetica,sans-Serif" font-size="10.00">/Framework/Core/src/DataProcessor</text>
<text text-anchor="middle" x="337" y="-175.5" font-family="Helvetica,sans-Serif" font-size="10.00">Info.h</text>
</g>
<!-- Node2 -->
<g id="node2" class="node"><title>Node2</title>
<g id="a_node2"><a xlink:href="../../d0/d1c/ConfigParamSpec_8h.html" target="_top" xlink:title="Framework/ConfigParamSpec.h">
<polygon fill="none" stroke="black" points="153,-112.5 153,-131.5 309,-131.5 309,-112.5 153,-112.5"/>
<text text-anchor="middle" x="231" y="-119.5" font-family="Helvetica,sans-Serif" font-size="10.00">Framework/ConfigParamSpec.h</text>
</a>
</g>
</g>
<!-- Node1&#45;&gt;Node2 -->
<g id="edge1" class="edge"><title>Node1&#45;&gt;Node2</title>
<path fill="none" stroke="midnightblue" d="M299.33,-168.446C283.568,-157.963 265.827,-146.163 252.373,-137.215"/>
<polygon fill="midnightblue" stroke="midnightblue" points="254.086,-134.151 243.821,-131.527 250.209,-139.979 254.086,-134.151"/>
</g>
<!-- Node11 -->
<g id="node11" class="node"><title>Node11</title>
<polygon fill="none" stroke="#bfbfbf" points="309.5,-56.5 309.5,-75.5 350.5,-75.5 350.5,-56.5 309.5,-56.5"/>
<text text-anchor="middle" x="330" y="-63.5" font-family="Helvetica,sans-Serif" font-size="10.00">string</text>
</g>
<!-- Node1&#45;&gt;Node11 -->
<g id="edge11" class="edge"><title>Node1&#45;&gt;Node11</title>
<path fill="none" stroke="midnightblue" d="M335.6,-168.205C334.254,-143.88 332.251,-107.671 331.04,-85.8001"/>
<polygon fill="midnightblue" stroke="midnightblue" points="334.52,-85.341 330.473,-75.5497 327.531,-85.7279 334.52,-85.341"/>
</g>
<!-- Node12 -->
<g id="node12" class="node"><title>Node12</title>
<polygon fill="none" stroke="#bfbfbf" points="365,-112.5 365,-131.5 409,-131.5 409,-112.5 365,-112.5"/>
<text text-anchor="middle" x="387" y="-119.5" font-family="Helvetica,sans-Serif" font-size="10.00">vector</text>
</g>
<!-- Node1&#45;&gt;Node12 -->
<g id="edge12" class="edge"><title>Node1&#45;&gt;Node12</title>
<path fill="none" stroke="midnightblue" d="M354.769,-168.446C361.448,-159.029 368.88,-148.55 374.923,-140.029"/>
<polygon fill="midnightblue" stroke="midnightblue" points="377.903,-141.877 380.833,-131.695 372.193,-137.828 377.903,-141.877"/>
</g>
<!-- Node3 -->
<g id="node3" class="node"><title>Node3</title>
<g id="a_node3"><a xlink:href="../../de/d56/Variant_8h.html" target="_top" xlink:title="Framework/Variant.h">
<polygon fill="none" stroke="black" points="177.5,-56.5 177.5,-75.5 284.5,-75.5 284.5,-56.5 177.5,-56.5"/>
<text text-anchor="middle" x="231" y="-63.5" font-family="Helvetica,sans-Serif" font-size="10.00">Framework/Variant.h</text>
</a>
</g>
</g>
<!-- Node2&#45;&gt;Node3 -->
<g id="edge2" class="edge"><title>Node2&#45;&gt;Node3</title>
<path fill="none" stroke="midnightblue" d="M231,-112.083C231,-105.006 231,-94.8611 231,-85.9865"/>
<polygon fill="midnightblue" stroke="midnightblue" points="234.5,-85.751 231,-75.7511 227.5,-85.7511 234.5,-85.751"/>
</g>
<!-- Node2&#45;&gt;Node11 -->
<g id="edge10" class="edge"><title>Node2&#45;&gt;Node11</title>
<path fill="none" stroke="midnightblue" d="M246.906,-112.324C262.638,-103.743 286.942,-90.486 305.209,-80.5224"/>
<polygon fill="midnightblue" stroke="midnightblue" points="307.03,-83.5157 314.133,-75.6545 303.678,-77.3704 307.03,-83.5157"/>
</g>
<!-- Node4 -->
<g id="node4" class="node"><title>Node4</title>
<polygon fill="none" stroke="#bfbfbf" points="0,-0.5 0,-19.5 62,-19.5 62,-0.5 0,-0.5"/>
<text text-anchor="middle" x="31" y="-7.5" font-family="Helvetica,sans-Serif" font-size="10.00">type_traits</text>
</g>
<!-- Node3&#45;&gt;Node4 -->
<g id="edge3" class="edge"><title>Node3&#45;&gt;Node4</title>
<path fill="none" stroke="midnightblue" d="M199.309,-56.4435C164.831,-47.1343 109.599,-32.2218 71.8787,-22.0372"/>
<polygon fill="midnightblue" stroke="midnightblue" points="72.7798,-18.6553 62.2131,-19.4275 70.955,-25.4133 72.7798,-18.6553"/>
</g>
<!-- Node5 -->
<g id="node5" class="node"><title>Node5</title>
<polygon fill="none" stroke="#bfbfbf" points="80,-0.5 80,-19.5 126,-19.5 126,-0.5 80,-0.5"/>
<text text-anchor="middle" x="103" y="-7.5" font-family="Helvetica,sans-Serif" font-size="10.00">cstring</text>
</g>
<!-- Node3&#45;&gt;Node5 -->
<g id="edge4" class="edge"><title>Node3&#45;&gt;Node5</title>
<path fill="none" stroke="midnightblue" d="M210.718,-56.4435C189.653,-47.5566 156.483,-33.5632 132.514,-23.4514"/>
<polygon fill="midnightblue" stroke="midnightblue" points="133.761,-20.1787 123.187,-19.5164 131.04,-26.6283 133.761,-20.1787"/>
</g>
<!-- Node6 -->
<g id="node6" class="node"><title>Node6</title>
<polygon fill="none" stroke="#bfbfbf" points="144,-0.5 144,-19.5 190,-19.5 190,-0.5 144,-0.5"/>
<text text-anchor="middle" x="167" y="-7.5" font-family="Helvetica,sans-Serif" font-size="10.00">cstdint</text>
</g>
<!-- Node3&#45;&gt;Node6 -->
<g id="edge5" class="edge"><title>Node3&#45;&gt;Node6</title>
<path fill="none" stroke="midnightblue" d="M220.717,-56.324C211.164,-48.2631 196.72,-36.0765 185.216,-26.3695"/>
<polygon fill="midnightblue" stroke="midnightblue" points="187.37,-23.6076 177.47,-19.8339 182.856,-28.9577 187.37,-23.6076"/>
</g>
<!-- Node7 -->
<g id="node7" class="node"><title>Node7</title>
<polygon fill="none" stroke="#bfbfbf" points="208.5,-0.5 208.5,-19.5 253.5,-19.5 253.5,-0.5 208.5,-0.5"/>
<text text-anchor="middle" x="231" y="-7.5" font-family="Helvetica,sans-Serif" font-size="10.00">cstdlib</text>
</g>
<!-- Node3&#45;&gt;Node7 -->
<g id="edge6" class="edge"><title>Node3&#45;&gt;Node7</title>
<path fill="none" stroke="midnightblue" d="M231,-56.083C231,-49.0059 231,-38.8611 231,-29.9865"/>
<polygon fill="midnightblue" stroke="midnightblue" points="234.5,-29.751 231,-19.7511 227.5,-29.7511 234.5,-29.751"/>
</g>
<!-- Node8 -->
<g id="node8" class="node"><title>Node8</title>
<polygon fill="none" stroke="#bfbfbf" points="271.5,-0.5 271.5,-19.5 330.5,-19.5 330.5,-0.5 271.5,-0.5"/>
<text text-anchor="middle" x="301" y="-7.5" font-family="Helvetica,sans-Serif" font-size="10.00">stdexcept</text>
</g>
<!-- Node3&#45;&gt;Node8 -->
<g id="edge7" class="edge"><title>Node3&#45;&gt;Node8</title>
<path fill="none" stroke="midnightblue" d="M242.247,-56.324C252.797,-48.1849 268.801,-35.8395 281.442,-26.0874"/>
<polygon fill="midnightblue" stroke="midnightblue" points="283.769,-28.7132 289.549,-19.8339 279.493,-23.1707 283.769,-28.7132"/>
</g>
<!-- Node9 -->
<g id="node9" class="node"><title>Node9</title>
<polygon fill="none" stroke="#bfbfbf" points="348.5,-0.5 348.5,-19.5 393.5,-19.5 393.5,-0.5 348.5,-0.5"/>
<text text-anchor="middle" x="371" y="-7.5" font-family="Helvetica,sans-Serif" font-size="10.00">iosfwd</text>
</g>
<!-- Node3&#45;&gt;Node9 -->
<g id="edge8" class="edge"><title>Node3&#45;&gt;Node9</title>
<path fill="none" stroke="midnightblue" d="M253.183,-56.4435C276.428,-47.4776 313.149,-33.314 339.415,-23.1827"/>
<polygon fill="midnightblue" stroke="midnightblue" points="340.85,-26.3807 348.92,-19.5164 338.331,-19.8497 340.85,-26.3807"/>
</g>
<!-- Node10 -->
<g id="node10" class="node"><title>Node10</title>
<polygon fill="none" stroke="#bfbfbf" points="411.5,-0.5 411.5,-19.5 484.5,-19.5 484.5,-0.5 411.5,-0.5"/>
<text text-anchor="middle" x="448" y="-7.5" font-family="Helvetica,sans-Serif" font-size="10.00">initializer_list</text>
</g>
<!-- Node3&#45;&gt;Node10 -->
<g id="edge9" class="edge"><title>Node3&#45;&gt;Node10</title>
<path fill="none" stroke="midnightblue" d="M265.384,-56.4435C302.922,-47.1024 363.131,-32.1194 404.067,-21.9326"/>
<polygon fill="midnightblue" stroke="midnightblue" points="404.918,-25.3278 413.777,-19.5164 403.227,-18.5349 404.918,-25.3278"/>
</g>
</g>
</svg>
