<?xml version="1.0" encoding="UTF-8" standalone="no"?>
<!DOCTYPE svg PUBLIC "-//W3C//DTD SVG 1.1//EN"
 "http://www.w3.org/Graphics/SVG/1.1/DTD/svg11.dtd">
<!-- Generated by graphviz version 2.38.0 (20140413.2041)
 -->
<!-- Title: ROOT::RDF::RCombinedDSIndex Pages: 1 -->
<!--zoomable 215 -->
<svg id="main" version="1.1" xmlns="http://www.w3.org/2000/svg" xmlns:xlink="http://www.w3.org/1999/xlink" xml:space="preserve" onload="init(evt)">
<style type="text/css"><![CDATA[
.edge:hover path { stroke: red; }
.edge:hover polygon { stroke: red; fill: red; }
]]></style>
<script type="text/javascript"><![CDATA[
var edges = document.getElementsByTagName('g');
if (edges && edges.length) {
  for (var i=0;i<edges.length;i++) {
    if (edges[i].id.substr(0,4)=='edge') {
      edges[i].setAttribute('class','edge');
    }
  }
}
]]></script>
        <defs>
                <circle id="rim" cx="0" cy="0" r="7"/>
                <circle id="rim2" cx="0" cy="0" r="3.5"/>
                <g id="zoomPlus">
                        <use xlink:href="#rim" fill="#404040">
                                <set attributeName="fill" to="#808080" begin="zoomplus.mouseover" end="zoomplus.mouseout"/>
                        </use>
                        <path d="M-4,0h8M0,-4v8" fill="none" stroke="white" stroke-width="1.5" pointer-events="none"/>
                </g>
                <g id="zoomMin">
                        <use xlink:href="#rim" fill="#404040">
                                <set attributeName="fill" to="#808080" begin="zoomminus.mouseover" end="zoomminus.mouseout"/>
                        </use>
                        <path d="M-4,0h8" fill="none" stroke="white" stroke-width="1.5" pointer-events="none"/>
                </g>
                <g id="dirArrow">
                        <path fill="none" stroke="white" stroke-width="1.5" d="M0,-3.0v7 M-2.5,-0.5L0,-3.0L2.5,-0.5"/>
                </g>
               <g id="resetDef">
                       <use xlink:href="#rim2" fill="#404040">
                               <set attributeName="fill" to="#808080" begin="reset.mouseover" end="reset.mouseout"/>
                       </use>
               </g>
        </defs>

<script type="text/javascript">
var viewWidth = 750;
var viewHeight = 215;
var sectionId = 'dynsection-0';
</script>
<script xlink:href="../../svgpan.js"/>
<svg id="graph" class="graph">
<g id="viewport">
<title>ROOT::RDF::RCombinedDSIndex</title>
<!-- Node1 -->
<g id="node1" class="node"><title>Node1</title>
<polygon fill="#bfbfbf" stroke="black" points="287.5,-127.5 287.5,-206.5 455.5,-206.5 455.5,-127.5 287.5,-127.5"/>
<text text-anchor="middle" x="371.5" y="-194.5" font-family="Helvetica,sans-Serif" font-size="10.00">ROOT::RDF::RCombinedDSIndex</text>
<polyline fill="none" stroke="black" points="287.5,-187.5 455.5,-187.5 "/>
<text text-anchor="middle" x="371.5" y="-175.5" font-family="Helvetica,sans-Serif" font-size="10.00"> </text>
<polyline fill="none" stroke="black" points="287.5,-168.5 455.5,-168.5 "/>
<text text-anchor="start" x="295.5" y="-156.5" font-family="Helvetica,sans-Serif" font-size="10.00">+ ~RCombinedDSIndex()</text>
<text text-anchor="start" x="295.5" y="-145.5" font-family="Helvetica,sans-Serif" font-size="10.00">+ BuildIndex()</text>
<text text-anchor="start" x="295.5" y="-134.5" font-family="Helvetica,sans-Serif" font-size="10.00">+ GetAssociatedEntries()</text>
</g>
<!-- Node2 -->
<g id="node2" class="node"><title>Node2</title>
<g id="a_node2"><a xlink:href="../../d3/d75/classROOT_1_1RDF_1_1RCombinedDSBlockJoinIndex.html" target="_top" xlink:title="{ROOT::RDF::RCombinedDSBlock\lJoinIndex\&lt; INDEX_TYPE \&gt;\n||+ RCombinedDSBlockJoinIndex()\l+ GetAssociatedEntries()\l+ BuildIndex()\l}">
<polygon fill="none" stroke="black" points="0,-0.5 0,-90.5 169,-90.5 169,-0.5 0,-0.5"/>
<text text-anchor="start" x="8" y="-78.5" font-family="Helvetica,sans-Serif" font-size="10.00">ROOT::RDF::RCombinedDSBlock</text>
<text text-anchor="middle" x="84.5" y="-67.5" font-family="Helvetica,sans-Serif" font-size="10.00">JoinIndex&lt; INDEX_TYPE &gt;</text>
<polyline fill="none" stroke="black" points="0,-60.5 169,-60.5 "/>
<text text-anchor="middle" x="84.5" y="-48.5" font-family="Helvetica,sans-Serif" font-size="10.00"> </text>
<polyline fill="none" stroke="black" points="0,-41.5 169,-41.5 "/>
<text text-anchor="start" x="8" y="-29.5" font-family="Helvetica,sans-Serif" font-size="10.00">+ RCombinedDSBlockJoinIndex()</text>
<text text-anchor="start" x="8" y="-18.5" font-family="Helvetica,sans-Serif" font-size="10.00">+ GetAssociatedEntries()</text>
<text text-anchor="start" x="8" y="-7.5" font-family="Helvetica,sans-Serif" font-size="10.00">+ BuildIndex()</text>
</a>
</g>
</g>
<!-- Node1&#45;&gt;Node2 -->
<g id="edge1" class="edge"><title>Node1&#45;&gt;Node2</title>
<path fill="none" stroke="midnightblue" d="M277.994,-131.529C245.917,-119.26 209.936,-105.005 177.5,-91 174.706,-89.7938 171.874,-88.5516 169.02,-87.2834"/>
<polygon fill="none" stroke="midnightblue" points="276.781,-134.812 287.372,-135.102 279.273,-128.271 276.781,-134.812"/>
</g>
<!-- Node3 -->
<g id="node3" class="node"><title>Node3</title>
<g id="a_node3"><a xlink:href="../../dc/df9/classROOT_1_1RDF_1_1RCombinedDSColumnJoinIndex.html" target="_top" xlink:title="{ROOT::RDF::RCombinedDSColumn\lJoinIndex\&lt; INDEX_TYPE \&gt;\n||+ RCombinedDSColumnJoinIndex()\l+ GetAssociatedEntries()\l+ BuildIndex()\l}">
<polygon fill="none" stroke="black" points="186.5,-0.5 186.5,-90.5 364.5,-90.5 364.5,-0.5 186.5,-0.5"/>
<text text-anchor="start" x="194.5" y="-78.5" font-family="Helvetica,sans-Serif" font-size="10.00">ROOT::RDF::RCombinedDSColumn</text>
<text text-anchor="middle" x="275.5" y="-67.5" font-family="Helvetica,sans-Serif" font-size="10.00">JoinIndex&lt; INDEX_TYPE &gt;</text>
<polyline fill="none" stroke="black" points="186.5,-60.5 364.5,-60.5 "/>
<text text-anchor="middle" x="275.5" y="-48.5" font-family="Helvetica,sans-Serif" font-size="10.00"> </text>
<polyline fill="none" stroke="black" points="186.5,-41.5 364.5,-41.5 "/>
<text text-anchor="start" x="194.5" y="-29.5" font-family="Helvetica,sans-Serif" font-size="10.00">+ RCombinedDSColumnJoinIndex()</text>
<text text-anchor="start" x="194.5" y="-18.5" font-family="Helvetica,sans-Serif" font-size="10.00">+ GetAssociatedEntries()</text>
<text text-anchor="start" x="194.5" y="-7.5" font-family="Helvetica,sans-Serif" font-size="10.00">+ BuildIndex()</text>
</a>
</g>
</g>
<!-- Node1&#45;&gt;Node3 -->
<g id="edge2" class="edge"><title>Node1&#45;&gt;Node3</title>
<path fill="none" stroke="midnightblue" d="M333.876,-119.166C326.405,-109.866 318.581,-100.127 311.178,-90.9111"/>
<polygon fill="none" stroke="midnightblue" points="331.34,-121.598 340.332,-127.202 336.797,-117.214 331.34,-121.598"/>
</g>
<!-- Node4 -->
<g id="node4" class="node"><title>Node4</title>
<g id="a_node4"><a xlink:href="../../df/d02/classROOT_1_1RDF_1_1RCombinedDSCrossJoinIndex.html" target="_top" xlink:title="{ROOT::RDF::RCombinedDSCross\lJoinIndex\n||+ GetAssociatedEntries()\l+ BuildIndex()\l}">
<polygon fill="none" stroke="black" points="382.5,-6 382.5,-85 552.5,-85 552.5,-6 382.5,-6"/>
<text text-anchor="start" x="390.5" y="-73" font-family="Helvetica,sans-Serif" font-size="10.00">ROOT::RDF::RCombinedDSCross</text>
<text text-anchor="middle" x="467.5" y="-62" font-family="Helvetica,sans-Serif" font-size="10.00">JoinIndex</text>
<polyline fill="none" stroke="black" points="382.5,-55 552.5,-55 "/>
<text text-anchor="middle" x="467.5" y="-43" font-family="Helvetica,sans-Serif" font-size="10.00"> </text>
<polyline fill="none" stroke="black" points="382.5,-36 552.5,-36 "/>
<text text-anchor="start" x="390.5" y="-24" font-family="Helvetica,sans-Serif" font-size="10.00">+ GetAssociatedEntries()</text>
<text text-anchor="start" x="390.5" y="-13" font-family="Helvetica,sans-Serif" font-size="10.00">+ BuildIndex()</text>
</a>
</g>
</g>
<!-- Node1&#45;&gt;Node4 -->
<g id="edge3" class="edge"><title>Node1&#45;&gt;Node4</title>
<path fill="none" stroke="midnightblue" d="M409.151,-119.133C418.205,-107.862 427.775,-95.9492 436.488,-85.1036"/>
<polygon fill="none" stroke="midnightblue" points="406.203,-117.214 402.668,-127.202 411.66,-121.598 406.203,-117.214"/>
</g>
<!-- Node5 -->
<g id="node5" class="node"><title>Node5</title>
<g id="a_node5"><a xlink:href="../../df/dc7/classROOT_1_1RDF_1_1RCombinedDSFriendIndex.html" target="_top" xlink:title="{ROOT::RDF::RCombinedDSFriend\lIndex\n||+ GetAssociatedEntries()\l+ BuildIndex()\l}">
<polygon fill="none" stroke="black" points="571,-6 571,-85 742,-85 742,-6 571,-6"/>
<text text-anchor="start" x="579" y="-73" font-family="Helvetica,sans-Serif" font-size="10.00">ROOT::RDF::RCombinedDSFriend</text>
<text text-anchor="middle" x="656.5" y="-62" font-family="Helvetica,sans-Serif" font-size="10.00">Index</text>
<polyline fill="none" stroke="black" points="571,-55 742,-55 "/>
<text text-anchor="middle" x="656.5" y="-43" font-family="Helvetica,sans-Serif" font-size="10.00"> </text>
<polyline fill="none" stroke="black" points="571,-36 742,-36 "/>
<text text-anchor="start" x="579" y="-24" font-family="Helvetica,sans-Serif" font-size="10.00">+ GetAssociatedEntries()</text>
<text text-anchor="start" x="579" y="-13" font-family="Helvetica,sans-Serif" font-size="10.00">+ BuildIndex()</text>
</a>
</g>
</g>
<!-- Node1&#45;&gt;Node5 -->
<g id="edge4" class="edge"><title>Node1&#45;&gt;Node5</title>
<path fill="none" stroke="midnightblue" d="M465.124,-130.376C495.983,-118.28 530.364,-104.422 561.5,-91 565.932,-89.0894 570.465,-87.0975 575.029,-85.0616"/>
<polygon fill="none" stroke="midnightblue" points="463.708,-127.171 455.668,-134.071 466.256,-133.691 463.708,-127.171"/>
</g>
</g>
</svg>
        <g id="navigator" transform="translate(0 0)" fill="#404254">
                <rect fill="#f2f5e9" fill-opacity="0.5" stroke="#606060" stroke-width=".5" x="0" y="0" width="60" height="60"/>
                <use id="zoomplus" xlink:href="#zoomPlus" x="17" y="9" onmousedown="handleZoom(evt,'in')"/>
                <use id="zoomminus" xlink:href="#zoomMin" x="42" y="9" onmousedown="handleZoom(evt,'out')"/>
                <use id="reset" xlink:href="#resetDef" x="30" y="36" onmousedown="handleReset()"/>
                <g id="arrowUp" xlink:href="#dirArrow" transform="translate(30 24)" onmousedown="handlePan(0,-1)">
                  <use xlink:href="#rim" fill="#404040">
                        <set attributeName="fill" to="#808080" begin="arrowUp.mouseover" end="arrowUp.mouseout"/>
                  </use>
                  <path fill="none" stroke="white" stroke-width="1.5" d="M0,-3.0v7 M-2.5,-0.5L0,-3.0L2.5,-0.5"/>
                </g>
                <g id="arrowRight" xlink:href="#dirArrow" transform="rotate(90) translate(36 -43)" onmousedown="handlePan(1,0)">
                  <use xlink:href="#rim" fill="#404040">
                        <set attributeName="fill" to="#808080" begin="arrowRight.mouseover" end="arrowRight.mouseout"/>
                  </use>
                  <path fill="none" stroke="white" stroke-width="1.5" d="M0,-3.0v7 M-2.5,-0.5L0,-3.0L2.5,-0.5"/>
                </g>
                <g id="arrowDown" xlink:href="#dirArrow" transform="rotate(180) translate(-30 -48)" onmousedown="handlePan(0,1)">
                  <use xlink:href="#rim" fill="#404040">
                        <set attributeName="fill" to="#808080" begin="arrowDown.mouseover" end="arrowDown.mouseout"/>
                  </use>
                  <path fill="none" stroke="white" stroke-width="1.5" d="M0,-3.0v7 M-2.5,-0.5L0,-3.0L2.5,-0.5"/>
                </g>
                <g id="arrowLeft" xlink:href="#dirArrow" transform="rotate(270) translate(-36 17)" onmousedown="handlePan(-1,0)">
                  <use xlink:href="#rim" fill="#404040">
                        <set attributeName="fill" to="#808080" begin="arrowLeft.mouseover" end="arrowLeft.mouseout"/>
                  </use>
                  <path fill="none" stroke="white" stroke-width="1.5" d="M0,-3.0v7 M-2.5,-0.5L0,-3.0L2.5,-0.5"/>
                </g>
        </g>
        <svg viewBox="0 0 15 15" width="100%" height="30px" preserveAspectRatio="xMaxYMin meet">
         <g id="arrow_out" transform="scale(0.3 0.3)">
          <a xlink:href="classROOT_1_1RDF_1_1RCombinedDSIndex__inherit__graph_org.svg" target="_base">
           <rect id="button" ry="5" rx="5" y="6" x="6" height="38" width="38"
                fill="#f2f5e9" fill-opacity="0.5" stroke="#606060" stroke-width="1.0"/>
           <path id="arrow"
             d="M 11.500037,31.436501 C 11.940474,20.09759 22.043105,11.32322 32.158766,21.979434 L 37.068811,17.246167 C 37.068811,17.246167 37.088388,32 37.088388,32 L 22.160133,31.978069 C 22.160133,31.978069 26.997745,27.140456 26.997745,27.140456 C 18.528582,18.264221 13.291696,25.230495 11.500037,31.436501 z"
             style="fill:#404040;"/>
          </a>
         </g>
        </svg>
</svg>
