<?xml version="1.0" encoding="UTF-8" standalone="no"?>
<!DOCTYPE svg PUBLIC "-//W3C//DTD SVG 1.1//EN"
 "http://www.w3.org/Graphics/SVG/1.1/DTD/svg11.dtd">
<!-- Generated by graphviz version 2.38.0 (20140413.2041)
 -->
<!-- Title: TestCluster Pages: 1 -->
<svg width="120pt" height="204pt"
 viewBox="0.00 0.00 119.50 204.00" xmlns="http://www.w3.org/2000/svg" xmlns:xlink="http://www.w3.org/1999/xlink">
<g id="graph0" class="graph" transform="scale(1 1) rotate(0) translate(4 200)">
<title>TestCluster</title>
<!-- Node1 -->
<g id="node1" class="node"><title>Node1</title>
<polygon fill="#bfbfbf" stroke="black" points="18.5,-0.5 18.5,-57.5 86.5,-57.5 86.5,-0.5 18.5,-0.5"/>
<text text-anchor="middle" x="52.5" y="-45.5" font-family="Helvetica,sans-Serif" font-size="10.00">TestCluster</text>
<polyline fill="none" stroke="black" points="18.5,-38.5 86.5,-38.5 "/>
<text text-anchor="middle" x="52.5" y="-26.5" font-family="Helvetica,sans-Serif" font-size="10.00"> </text>
<polyline fill="none" stroke="black" points="18.5,-19.5 86.5,-19.5 "/>
<text text-anchor="start" x="26.5" y="-7.5" font-family="Helvetica,sans-Serif" font-size="10.00">+ serialize()</text>
</g>
<!-- Node2 -->
<g id="node2" class="node"><title>Node2</title>
<g id="a_node2"><a xlink:href="../../d4/dc3/classfloat.html" target="_top" xlink:title="{float\n||}">
<polygon fill="none" stroke="black" points="0,-138.5 0,-195.5 35,-195.5 35,-138.5 0,-138.5"/>
<text text-anchor="middle" x="17.5" y="-183.5" font-family="Helvetica,sans-Serif" font-size="10.00">float</text>
<polyline fill="none" stroke="black" points="0,-176.5 35,-176.5 "/>
<text text-anchor="middle" x="17.5" y="-164.5" font-family="Helvetica,sans-Serif" font-size="10.00"> </text>
<polyline fill="none" stroke="black" points="0,-157.5 35,-157.5 "/>
<text text-anchor="middle" x="17.5" y="-145.5" font-family="Helvetica,sans-Serif" font-size="10.00"> </text>
</a>
</g>
</g>
<!-- Node2&#45;&gt;Node1 -->
<g id="edge1" class="edge"><title>Node2&#45;&gt;Node1</title>
<path fill="none" stroke="#404040" d="M13.496,-138.494C11.8786,-120.288 11.7383,-96.1469 18.5,-76 19.4065,-73.2992 20.5367,-70.626 21.8292,-68.0082"/>
<polygon fill="none" stroke="#404040" points="21.8409,-67.9882 21.4169,-60.7896 27.8987,-57.6295 28.3227,-64.8281 21.8409,-67.9882"/>
<text text-anchor="middle" x="42.5" y="-112" font-family="Helvetica,sans-Serif" font-size="10.00"> +sigmaX2</text>
<text text-anchor="middle" x="42.5" y="-101" font-family="Helvetica,sans-Serif" font-size="10.00">+xCoor</text>
<text text-anchor="middle" x="42.5" y="-90" font-family="Helvetica,sans-Serif" font-size="10.00">+yCoor</text>
<text text-anchor="middle" x="42.5" y="-79" font-family="Helvetica,sans-Serif" font-size="10.00">+sigmaY2</text>
</g>
<!-- Node3 -->
<g id="node3" class="node"><title>Node3</title>
<polygon fill="none" stroke="#bfbfbf" points="65.5,-138.5 65.5,-195.5 111.5,-195.5 111.5,-138.5 65.5,-138.5"/>
<text text-anchor="middle" x="88.5" y="-183.5" font-family="Helvetica,sans-Serif" font-size="10.00">uint8_t</text>
<polyline fill="none" stroke="#bfbfbf" points="65.5,-176.5 111.5,-176.5 "/>
<text text-anchor="middle" x="88.5" y="-164.5" font-family="Helvetica,sans-Serif" font-size="10.00"> </text>
<polyline fill="none" stroke="#bfbfbf" points="65.5,-157.5 111.5,-157.5 "/>
<text text-anchor="middle" x="88.5" y="-145.5" font-family="Helvetica,sans-Serif" font-size="10.00"> </text>
</g>
<!-- Node3&#45;&gt;Node1 -->
<g id="edge2" class="edge"><title>Node3&#45;&gt;Node1</title>
<path fill="none" stroke="#404040" d="M82.1559,-138.325C77.9596,-120.471 72.1991,-96.7869 66.5,-76 65.913,-73.859 65.2969,-71.6664 64.664,-69.4561"/>
<polygon fill="none" stroke="#404040" points="64.5797,-69.1693 59.0478,-64.5434 61.1902,-57.6579 66.7221,-62.2838 64.5797,-69.1693"/>
<text text-anchor="middle" x="91.5" y="-95.5" font-family="Helvetica,sans-Serif" font-size="10.00"> +deId</text>
</g>
</g>
</svg>
