<?xml version="1.0" encoding="UTF-8" standalone="no"?>
<!DOCTYPE svg PUBLIC "-//W3C//DTD SVG 1.1//EN"
 "http://www.w3.org/Graphics/SVG/1.1/DTD/svg11.dtd">
<!-- Generated by graphviz version 2.38.0 (20140413.2041)
 -->
<!-- Title: /home/travis/build/AliceO2Group/AliceO2/Detectors/MUON/MID/Simulation/include/MIDSimulation/ChamberEfficiencyResponse.h Pages: 1 -->
<svg width="246pt" height="184pt"
 viewBox="0.00 0.00 246.00 184.00" xmlns="http://www.w3.org/2000/svg" xmlns:xlink="http://www.w3.org/1999/xlink">
<g id="graph0" class="graph" transform="scale(1 1) rotate(0) translate(4 180)">
<title>/home/travis/build/AliceO2Group/AliceO2/Detectors/MUON/MID/Simulation/include/MIDSimulation/ChamberEfficiencyResponse.h</title>
<!-- Node1 -->
<g id="node1" class="node"><title>Node1</title>
<polygon fill="#bfbfbf" stroke="black" points="-1.42109e-14,-112.5 -1.42109e-14,-175.5 204,-175.5 204,-112.5 -1.42109e-14,-112.5"/>
<text text-anchor="start" x="8" y="-163.5" font-family="Helvetica,sans-Serif" font-size="10.00">/home/travis/build</text>
<text text-anchor="start" x="8" y="-152.5" font-family="Helvetica,sans-Serif" font-size="10.00">/AliceO2Group/AliceO2</text>
<text text-anchor="start" x="8" y="-141.5" font-family="Helvetica,sans-Serif" font-size="10.00">/Detectors/MUON/MID/Simulation</text>
<text text-anchor="start" x="8" y="-130.5" font-family="Helvetica,sans-Serif" font-size="10.00">/include/MIDSimulation/ChamberEfficiency</text>
<text text-anchor="middle" x="102" y="-119.5" font-family="Helvetica,sans-Serif" font-size="10.00">Response.h</text>
</g>
<!-- Node2 -->
<g id="node2" class="node"><title>Node2</title>
<polygon fill="none" stroke="#bfbfbf" points="18.5,-56.5 18.5,-75.5 67.5,-75.5 67.5,-56.5 18.5,-56.5"/>
<text text-anchor="middle" x="43" y="-63.5" font-family="Helvetica,sans-Serif" font-size="10.00">random</text>
</g>
<!-- Node1&#45;&gt;Node2 -->
<g id="edge1" class="edge"><title>Node1&#45;&gt;Node2</title>
<path fill="none" stroke="midnightblue" d="M78.0024,-112.088C70.5052,-102.43 62.5163,-92.1397 56.0666,-83.8315"/>
<polygon fill="midnightblue" stroke="midnightblue" points="58.665,-81.471 49.7681,-75.7182 53.1356,-85.7636 58.665,-81.471"/>
</g>
<!-- Node3 -->
<g id="node3" class="node"><title>Node3</title>
<g id="a_node3"><a xlink:href="../../d3/dbe/ChamberEfficiency_8h.html" target="_top" xlink:title="Measured values of the RPC efficiency. ">
<polygon fill="none" stroke="black" points="86,-56.5 86,-75.5 238,-75.5 238,-56.5 86,-56.5"/>
<text text-anchor="middle" x="162" y="-63.5" font-family="Helvetica,sans-Serif" font-size="10.00">MIDBase/ChamberEfficiency.h</text>
</a>
</g>
</g>
<!-- Node1&#45;&gt;Node3 -->
<g id="edge2" class="edge"><title>Node1&#45;&gt;Node3</title>
<path fill="none" stroke="midnightblue" d="M126.404,-112.088C134.11,-102.328 142.326,-91.9206 148.921,-83.567"/>
<polygon fill="midnightblue" stroke="midnightblue" points="151.668,-85.7358 155.117,-75.7182 146.174,-81.3982 151.668,-85.7358"/>
</g>
<!-- Node4 -->
<g id="node4" class="node"><title>Node4</title>
<polygon fill="none" stroke="#bfbfbf" points="116.5,-0.5 116.5,-19.5 151.5,-19.5 151.5,-0.5 116.5,-0.5"/>
<text text-anchor="middle" x="134" y="-7.5" font-family="Helvetica,sans-Serif" font-size="10.00">map</text>
</g>
<!-- Node3&#45;&gt;Node4 -->
<g id="edge3" class="edge"><title>Node3&#45;&gt;Node4</title>
<path fill="none" stroke="midnightblue" d="M157.376,-56.083C153.544,-48.6913 147.976,-37.9533 143.235,-28.8111"/>
<polygon fill="midnightblue" stroke="midnightblue" points="146.248,-27.0175 138.538,-19.7511 140.034,-30.2398 146.248,-27.0175"/>
</g>
<!-- Node5 -->
<g id="node5" class="node"><title>Node5</title>
<polygon fill="none" stroke="#bfbfbf" points="170,-0.5 170,-19.5 208,-19.5 208,-0.5 170,-0.5"/>
<text text-anchor="middle" x="189" y="-7.5" font-family="Helvetica,sans-Serif" font-size="10.00">array</text>
</g>
<!-- Node3&#45;&gt;Node5 -->
<g id="edge4" class="edge"><title>Node3&#45;&gt;Node5</title>
<path fill="none" stroke="midnightblue" d="M166.459,-56.083C170.154,-48.6913 175.523,-37.9533 180.094,-28.8111"/>
<polygon fill="midnightblue" stroke="midnightblue" points="183.283,-30.2606 184.624,-19.7511 177.022,-27.1301 183.283,-30.2606"/>
</g>
</g>
</svg>
