<?xml version="1.0" encoding="UTF-8" standalone="no"?>
<!DOCTYPE svg PUBLIC "-//W3C//DTD SVG 1.1//EN"
 "http://www.w3.org/Graphics/SVG/1.1/DTD/svg11.dtd">
<!-- Generated by graphviz version 2.38.0 (20140413.2041)
 -->
<!-- Title: GPUCA_NAMESPACE::gpu::trackInterface&lt; T &gt; Pages: 1 -->
<svg width="248pt" height="226pt"
 viewBox="0.00 0.00 248.00 226.00" xmlns="http://www.w3.org/2000/svg" xmlns:xlink="http://www.w3.org/1999/xlink">
<g id="graph0" class="graph" transform="scale(1 1) rotate(0) translate(4 222)">
<title>GPUCA_NAMESPACE::gpu::trackInterface&lt; T &gt;</title>
<!-- Node1 -->
<g id="node1" class="node"><title>Node1</title>
<polygon fill="#bfbfbf" stroke="black" points="26.5,-149.5 26.5,-217.5 169.5,-217.5 169.5,-149.5 26.5,-149.5"/>
<text text-anchor="start" x="34.5" y="-205.5" font-family="Helvetica,sans-Serif" font-size="10.00">GPUCA_NAMESPACE::gpu</text>
<text text-anchor="middle" x="98" y="-194.5" font-family="Helvetica,sans-Serif" font-size="10.00">::trackInterface&lt; T &gt;</text>
<polyline fill="none" stroke="black" points="26.5,-187.5 169.5,-187.5 "/>
<text text-anchor="middle" x="98" y="-175.5" font-family="Helvetica,sans-Serif" font-size="10.00"> </text>
<polyline fill="none" stroke="black" points="26.5,-168.5 169.5,-168.5 "/>
<text text-anchor="middle" x="98" y="-156.5" font-family="Helvetica,sans-Serif" font-size="10.00"> </text>
</g>
<!-- Node2 -->
<g id="node2" class="node"><title>Node2</title>
<g id="a_node2"><a xlink:href="../../d9/d7e/classGPUCA__NAMESPACE_1_1gpu_1_1trackInterface.html" target="_top" xlink:title="{GPUCA_NAMESPACE::gpu\l::trackInterface\&lt; GPUCA\l_NAMESPACE::gpu::GPUTPCGMTrack\lParam \&gt;\n||}">
<polygon fill="none" stroke="black" points="-1.42109e-14,-0.5 -1.42109e-14,-90.5 196,-90.5 196,-0.5 -1.42109e-14,-0.5"/>
<text text-anchor="start" x="8" y="-78.5" font-family="Helvetica,sans-Serif" font-size="10.00">GPUCA_NAMESPACE::gpu</text>
<text text-anchor="start" x="8" y="-67.5" font-family="Helvetica,sans-Serif" font-size="10.00">::trackInterface&lt; GPUCA</text>
<text text-anchor="start" x="8" y="-56.5" font-family="Helvetica,sans-Serif" font-size="10.00">_NAMESPACE::gpu::GPUTPCGMTrack</text>
<text text-anchor="middle" x="98" y="-45.5" font-family="Helvetica,sans-Serif" font-size="10.00">Param &gt;</text>
<polyline fill="none" stroke="black" points="-1.42109e-14,-38.5 196,-38.5 "/>
<text text-anchor="middle" x="98" y="-26.5" font-family="Helvetica,sans-Serif" font-size="10.00"> </text>
<polyline fill="none" stroke="black" points="-1.42109e-14,-19.5 196,-19.5 "/>
<text text-anchor="middle" x="98" y="-7.5" font-family="Helvetica,sans-Serif" font-size="10.00"> </text>
</a>
</g>
</g>
<!-- Node1&#45;&gt;Node2 -->
<g id="edge1" class="edge"><title>Node1&#45;&gt;Node2</title>
<path fill="none" stroke="orange" d="M98,-138.921C98,-123.516 98,-106.183 98,-90.7258"/>
<polygon fill="orange" stroke="orange" points="94.5001,-139.231 98,-149.231 101.5,-139.231 94.5001,-139.231"/>
<text text-anchor="start" x="98" y="-123" font-family="Helvetica,sans-Serif" font-size="10.00"> &lt; GPUCA_NAMESPACE::</text>
<text text-anchor="middle" x="169" y="-112" font-family="Helvetica,sans-Serif" font-size="10.00">gpu::GPUTPCGMTrackParam &gt;</text>
</g>
</g>
</svg>
