<?xml version="1.0" encoding="UTF-8" standalone="no"?>
<!DOCTYPE svg PUBLIC "-//W3C//DTD SVG 1.1//EN"
 "http://www.w3.org/Graphics/SVG/1.1/DTD/svg11.dtd">
<!-- Generated by graphviz version 2.38.0 (20140413.2041)
 -->
<!-- Title: /home/travis/build/AliceO2Group/AliceO2/Detectors/ITSMFT/ITS/tracking/cuda/include/ITStrackingCUDA/Utils.h Pages: 1 -->
<svg width="315pt" height="296pt"
 viewBox="0.00 0.00 314.50 296.00" xmlns="http://www.w3.org/2000/svg" xmlns:xlink="http://www.w3.org/1999/xlink">
<g id="graph0" class="graph" transform="scale(1 1) rotate(0) translate(4 292)">
<title>/home/travis/build/AliceO2Group/AliceO2/Detectors/ITSMFT/ITS/tracking/cuda/include/ITStrackingCUDA/Utils.h</title>
<!-- Node1 -->
<g id="node1" class="node"><title>Node1</title>
<polygon fill="#bfbfbf" stroke="black" points="122.5,-224.5 122.5,-287.5 253.5,-287.5 253.5,-224.5 122.5,-224.5"/>
<text text-anchor="start" x="130.5" y="-275.5" font-family="Helvetica,sans-Serif" font-size="10.00">/home/travis/build</text>
<text text-anchor="start" x="130.5" y="-264.5" font-family="Helvetica,sans-Serif" font-size="10.00">/AliceO2Group/AliceO2</text>
<text text-anchor="start" x="130.5" y="-253.5" font-family="Helvetica,sans-Serif" font-size="10.00">/Detectors/ITSMFT/ITS</text>
<text text-anchor="start" x="130.5" y="-242.5" font-family="Helvetica,sans-Serif" font-size="10.00">/tracking/cuda/include</text>
<text text-anchor="middle" x="188" y="-231.5" font-family="Helvetica,sans-Serif" font-size="10.00">/ITStrackingCUDA/Utils.h</text>
</g>
<!-- Node2 -->
<g id="node2" class="node"><title>Node2</title>
<g id="a_node2"><a xlink:href="../../df/d21/GPUCommonDef_8h.html" target="_top" xlink:title="GPUCommonDef.h">
<polygon fill="none" stroke="black" points="91,-56.5 91,-75.5 193,-75.5 193,-56.5 91,-56.5"/>
<text text-anchor="middle" x="142" y="-63.5" font-family="Helvetica,sans-Serif" font-size="10.00">GPUCommonDef.h</text>
</a>
</g>
</g>
<!-- Node1&#45;&gt;Node2 -->
<g id="edge1" class="edge"><title>Node1&#45;&gt;Node2</title>
<path fill="none" stroke="midnightblue" d="M172.029,-224.343C166.814,-213.167 161.476,-200.262 158,-188 148.018,-152.785 144.222,-110.004 142.809,-85.8991"/>
<polygon fill="midnightblue" stroke="midnightblue" points="146.293,-85.4908 142.29,-75.6812 139.302,-85.8459 146.293,-85.4908"/>
</g>
<!-- Node5 -->
<g id="node5" class="node"><title>Node5</title>
<g id="a_node5"><a xlink:href="../../de/dd1/Stream_8h.html" target="_top" xlink:title="ITStrackingCUDA/Stream.h">
<polygon fill="none" stroke="black" points="167.5,-168.5 167.5,-187.5 306.5,-187.5 306.5,-168.5 167.5,-168.5"/>
<text text-anchor="middle" x="237" y="-175.5" font-family="Helvetica,sans-Serif" font-size="10.00">ITStrackingCUDA/Stream.h</text>
</a>
</g>
</g>
<!-- Node1&#45;&gt;Node5 -->
<g id="edge4" class="edge"><title>Node1&#45;&gt;Node5</title>
<path fill="none" stroke="midnightblue" d="M207.93,-224.088C214.024,-214.636 220.509,-204.577 225.804,-196.364"/>
<polygon fill="midnightblue" stroke="midnightblue" points="228.902,-198.019 231.379,-187.718 223.019,-194.226 228.902,-198.019"/>
</g>
<!-- Node3 -->
<g id="node3" class="node"><title>Node3</title>
<g id="a_node3"><a xlink:href="../../d5/d93/GPUCommonDefSettings_8h.html" target="_top" xlink:title="GPUCommonDefSettings.h">
<polygon fill="none" stroke="black" points="0,-0.5 0,-19.5 138,-19.5 138,-0.5 0,-0.5"/>
<text text-anchor="middle" x="69" y="-7.5" font-family="Helvetica,sans-Serif" font-size="10.00">GPUCommonDefSettings.h</text>
</a>
</g>
</g>
<!-- Node2&#45;&gt;Node3 -->
<g id="edge2" class="edge"><title>Node2&#45;&gt;Node3</title>
<path fill="none" stroke="midnightblue" d="M130.271,-56.324C119.163,-48.1066 102.258,-35.6017 89.0167,-25.8069"/>
<polygon fill="midnightblue" stroke="midnightblue" points="91.0631,-22.9671 80.9421,-19.8339 86.9001,-28.5948 91.0631,-22.9671"/>
</g>
<!-- Node4 -->
<g id="node4" class="node"><title>Node4</title>
<g id="a_node4"><a xlink:href="../../da/d5a/GPUCommonDefAPI_8h.html" target="_top" xlink:title="GPUCommonDefAPI.h">
<polygon fill="none" stroke="black" points="156.5,-0.5 156.5,-19.5 275.5,-19.5 275.5,-0.5 156.5,-0.5"/>
<text text-anchor="middle" x="216" y="-7.5" font-family="Helvetica,sans-Serif" font-size="10.00">GPUCommonDefAPI.h</text>
</a>
</g>
</g>
<!-- Node2&#45;&gt;Node4 -->
<g id="edge3" class="edge"><title>Node2&#45;&gt;Node4</title>
<path fill="none" stroke="midnightblue" d="M153.889,-56.324C165.15,-48.1066 182.287,-35.6017 195.709,-25.8069"/>
<polygon fill="midnightblue" stroke="midnightblue" points="197.88,-28.5559 203.894,-19.8339 193.753,-22.9014 197.88,-28.5559"/>
</g>
<!-- Node6 -->
<g id="node6" class="node"><title>Node6</title>
<g id="a_node6"><a xlink:href="../../df/d3d/Definitions_8h.html" target="_top" xlink:title="ITStracking/Definitions.h">
<polygon fill="none" stroke="black" points="170.5,-112.5 170.5,-131.5 295.5,-131.5 295.5,-112.5 170.5,-112.5"/>
<text text-anchor="middle" x="233" y="-119.5" font-family="Helvetica,sans-Serif" font-size="10.00">ITStracking/Definitions.h</text>
</a>
</g>
</g>
<!-- Node5&#45;&gt;Node6 -->
<g id="edge5" class="edge"><title>Node5&#45;&gt;Node6</title>
<path fill="none" stroke="midnightblue" d="M236.339,-168.083C235.815,-161.006 235.064,-150.861 234.406,-141.986"/>
<polygon fill="midnightblue" stroke="midnightblue" points="237.877,-141.465 233.648,-131.751 230.897,-141.982 237.877,-141.465"/>
</g>
<!-- Node6&#45;&gt;Node2 -->
<g id="edge7" class="edge"><title>Node6&#45;&gt;Node2</title>
<path fill="none" stroke="midnightblue" d="M218.379,-112.324C204.051,-103.822 181.987,-90.7288 165.251,-80.7975"/>
<polygon fill="midnightblue" stroke="midnightblue" points="166.97,-77.7478 156.584,-75.6545 163.398,-83.7677 166.97,-77.7478"/>
</g>
<!-- Node7 -->
<g id="node7" class="node"><title>Node7</title>
<polygon fill="none" stroke="#bfbfbf" points="214,-56.5 214,-75.5 252,-75.5 252,-56.5 214,-56.5"/>
<text text-anchor="middle" x="233" y="-63.5" font-family="Helvetica,sans-Serif" font-size="10.00">array</text>
</g>
<!-- Node6&#45;&gt;Node7 -->
<g id="edge6" class="edge"><title>Node6&#45;&gt;Node7</title>
<path fill="none" stroke="midnightblue" d="M233,-112.083C233,-105.006 233,-94.8611 233,-85.9865"/>
<polygon fill="midnightblue" stroke="midnightblue" points="236.5,-85.751 233,-75.7511 229.5,-85.7511 236.5,-85.751"/>
</g>
</g>
</svg>
