<?xml version="1.0" encoding="UTF-8" standalone="no"?>
<!DOCTYPE svg PUBLIC "-//W3C//DTD SVG 1.1//EN"
 "http://www.w3.org/Graphics/SVG/1.1/DTD/svg11.dtd">
<!-- Generated by graphviz version 2.38.0 (20140413.2041)
 -->
<!-- Title: o2::header::internal::NumberOfActiveBits&lt; 0 &gt; Pages: 1 -->
<svg width="144pt" height="182pt"
 viewBox="0.00 0.00 144.00 182.00" xmlns="http://www.w3.org/2000/svg" xmlns:xlink="http://www.w3.org/1999/xlink">
<g id="graph0" class="graph" transform="scale(1 1) rotate(0) translate(4 178)">
<title>o2::header::internal::NumberOfActiveBits&lt; 0 &gt;</title>
<!-- Node1 -->
<g id="node1" class="node"><title>Node1</title>
<polygon fill="#bfbfbf" stroke="black" points="0,-0.5 0,-68.5 136,-68.5 136,-0.5 0,-0.5"/>
<text text-anchor="start" x="8" y="-56.5" font-family="Helvetica,sans-Serif" font-size="10.00">o2::header::internal</text>
<text text-anchor="middle" x="68" y="-45.5" font-family="Helvetica,sans-Serif" font-size="10.00">::NumberOfActiveBits&lt; 0 &gt;</text>
<polyline fill="none" stroke="black" points="0,-38.5 136,-38.5 "/>
<text text-anchor="middle" x="68" y="-26.5" font-family="Helvetica,sans-Serif" font-size="10.00"> </text>
<polyline fill="none" stroke="black" points="0,-19.5 136,-19.5 "/>
<text text-anchor="middle" x="68" y="-7.5" font-family="Helvetica,sans-Serif" font-size="10.00"> </text>
</g>
<!-- Node2 -->
<g id="node2" class="node"><title>Node2</title>
<polygon fill="none" stroke="#bfbfbf" points="53.5,-116.5 53.5,-173.5 82.5,-173.5 82.5,-116.5 53.5,-116.5"/>
<text text-anchor="middle" x="68" y="-161.5" font-family="Helvetica,sans-Serif" font-size="10.00">int</text>
<polyline fill="none" stroke="#bfbfbf" points="53.5,-154.5 82.5,-154.5 "/>
<text text-anchor="middle" x="68" y="-142.5" font-family="Helvetica,sans-Serif" font-size="10.00"> </text>
<polyline fill="none" stroke="#bfbfbf" points="53.5,-135.5 82.5,-135.5 "/>
<text text-anchor="middle" x="68" y="-123.5" font-family="Helvetica,sans-Serif" font-size="10.00"> </text>
</g>
<!-- Node2&#45;&gt;Node1 -->
<g id="edge1" class="edge"><title>Node2&#45;&gt;Node1</title>
<path fill="none" stroke="#404040" d="M68,-116.34C68,-105.529 68,-92.847 68,-80.7745"/>
<polygon fill="none" stroke="#404040" points="68.0001,-80.5186 64,-74.5186 68,-68.5186 72,-74.5185 68.0001,-80.5186"/>
<text text-anchor="middle" x="84.5" y="-90" font-family="Helvetica,sans-Serif" font-size="10.00"> +value</text>
</g>
</g>
</svg>
