<?xml version="1.0" encoding="UTF-8" standalone="no"?>
<!DOCTYPE svg PUBLIC "-//W3C//DTD SVG 1.1//EN"
 "http://www.w3.org/Graphics/SVG/1.1/DTD/svg11.dtd">
<!-- Generated by graphviz version 2.38.0 (20140413.2041)
 -->
<!-- Title: /home/travis/build/AliceO2Group/AliceO2/Detectors/Passive/src/Absorber.cxx Pages: 1 -->
<svg width="2489pt" height="296pt"
 viewBox="0.00 0.00 2488.50 296.00" xmlns="http://www.w3.org/2000/svg" xmlns:xlink="http://www.w3.org/1999/xlink">
<g id="graph0" class="graph" transform="scale(1 1) rotate(0) translate(4 292)">
<title>/home/travis/build/AliceO2Group/AliceO2/Detectors/Passive/src/Absorber.cxx</title>
<!-- Node1 -->
<g id="node1" class="node"><title>Node1</title>
<polygon fill="#bfbfbf" stroke="black" points="1819.5,-235.5 1819.5,-287.5 1937.5,-287.5 1937.5,-235.5 1819.5,-235.5"/>
<text text-anchor="start" x="1827.5" y="-275.5" font-family="Helvetica,sans-Serif" font-size="10.00">/home/travis/build</text>
<text text-anchor="start" x="1827.5" y="-264.5" font-family="Helvetica,sans-Serif" font-size="10.00">/AliceO2Group/AliceO2</text>
<text text-anchor="start" x="1827.5" y="-253.5" font-family="Helvetica,sans-Serif" font-size="10.00">/Detectors/Passive/src</text>
<text text-anchor="middle" x="1878.5" y="-242.5" font-family="Helvetica,sans-Serif" font-size="10.00">/Absorber.cxx</text>
</g>
<!-- Node2 -->
<g id="node2" class="node"><title>Node2</title>
<g id="a_node2"><a xlink:href="../../d1/d3a/Base_2include_2DetectorsBase_2Detector_8h.html" target="_top" xlink:title="DetectorsBase/Detector.h">
<polygon fill="none" stroke="black" points="683,-179.5 683,-198.5 814,-198.5 814,-179.5 683,-179.5"/>
<text text-anchor="middle" x="748.5" y="-186.5" font-family="Helvetica,sans-Serif" font-size="10.00">DetectorsBase/Detector.h</text>
</a>
</g>
</g>
<!-- Node1&#45;&gt;Node2 -->
<g id="edge1" class="edge"><title>Node1&#45;&gt;Node2</title>
<path fill="none" stroke="midnightblue" d="M1819.34,-256.809C1629.45,-244.962 1035.47,-207.904 824.105,-194.717"/>
<polygon fill="midnightblue" stroke="midnightblue" points="824.23,-191.218 814.031,-194.088 823.794,-198.204 824.23,-191.218"/>
</g>
<!-- Node9 -->
<g id="node9" class="node"><title>Node9</title>
<g id="a_node9"><a xlink:href="../../d0/d9a/MaterialManager_8h.html" target="_top" xlink:title="DetectorsBase/MaterialManager.h">
<polygon fill="none" stroke="black" points="44,-123.5 44,-142.5 209,-142.5 209,-123.5 44,-123.5"/>
<text text-anchor="middle" x="126.5" y="-130.5" font-family="Helvetica,sans-Serif" font-size="10.00">DetectorsBase/MaterialManager.h</text>
</a>
</g>
</g>
<!-- Node1&#45;&gt;Node9 -->
<g id="edge30" class="edge"><title>Node1&#45;&gt;Node9</title>
<path fill="none" stroke="midnightblue" d="M1819.47,-258.895C1644.41,-253.831 1112.86,-236.274 673.5,-199 501.97,-184.448 301.216,-158.223 197.143,-143.936"/>
<polygon fill="midnightblue" stroke="midnightblue" points="197.456,-140.446 187.072,-142.549 196.501,-147.381 197.456,-140.446"/>
</g>
<!-- Node23 -->
<g id="node23" class="node"><title>Node23</title>
<polygon fill="none" stroke="#bfbfbf" points="1209,-67.5 1209,-86.5 1258,-86.5 1258,-67.5 1209,-67.5"/>
<text text-anchor="middle" x="1233.5" y="-74.5" font-family="Helvetica,sans-Serif" font-size="10.00">cassert</text>
</g>
<!-- Node1&#45;&gt;Node23 -->
<g id="edge42" class="edge"><title>Node1&#45;&gt;Node23</title>
<path fill="none" stroke="midnightblue" d="M1819.27,-258.822C1714.1,-254.779 1500.19,-241.439 1440.5,-199 1409.56,-177 1431.04,-146.849 1401.5,-123 1363.12,-92.0123 1305.3,-82.2488 1268.49,-79.2402"/>
<polygon fill="midnightblue" stroke="midnightblue" points="1268.46,-75.7298 1258.24,-78.5327 1267.98,-82.7131 1268.46,-75.7298"/>
</g>
<!-- Node26 -->
<g id="node26" class="node"><title>Node26</title>
<g id="a_node26"><a xlink:href="../../d9/da3/Absorber_8h.html" target="_top" xlink:title="DetectorsPassive/Absorber.h">
<polygon fill="none" stroke="black" points="1450,-179.5 1450,-198.5 1595,-198.5 1595,-179.5 1450,-179.5"/>
<text text-anchor="middle" x="1522.5" y="-186.5" font-family="Helvetica,sans-Serif" font-size="10.00">DetectorsPassive/Absorber.h</text>
</a>
</g>
</g>
<!-- Node1&#45;&gt;Node26 -->
<g id="edge31" class="edge"><title>Node1&#45;&gt;Node26</title>
<path fill="none" stroke="midnightblue" d="M1819.31,-248.779C1751.38,-235.325 1640.94,-213.455 1575.65,-200.525"/>
<polygon fill="midnightblue" stroke="midnightblue" points="1576.06,-197.039 1565.57,-198.529 1574.7,-203.905 1576.06,-197.039"/>
</g>
<!-- Node28 -->
<g id="node28" class="node"><title>Node28</title>
<polygon fill="none" stroke="#bfbfbf" points="1613,-179.5 1613,-198.5 1682,-198.5 1682,-179.5 1613,-179.5"/>
<text text-anchor="middle" x="1647.5" y="-186.5" font-family="Helvetica,sans-Serif" font-size="10.00">TGeoArb8.h</text>
</g>
<!-- Node1&#45;&gt;Node28 -->
<g id="edge33" class="edge"><title>Node1&#45;&gt;Node28</title>
<path fill="none" stroke="midnightblue" d="M1819.31,-242.436C1777.03,-229.533 1721.43,-212.563 1685.1,-201.474"/>
<polygon fill="midnightblue" stroke="midnightblue" points="1685.97,-198.082 1675.38,-198.51 1683.93,-204.777 1685.97,-198.082"/>
</g>
<!-- Node29 -->
<g id="node29" class="node"><title>Node29</title>
<polygon fill="none" stroke="#bfbfbf" points="1700.5,-179.5 1700.5,-198.5 1824.5,-198.5 1824.5,-179.5 1700.5,-179.5"/>
<text text-anchor="middle" x="1762.5" y="-186.5" font-family="Helvetica,sans-Serif" font-size="10.00">TGeoCompositeShape.h</text>
</g>
<!-- Node1&#45;&gt;Node29 -->
<g id="edge34" class="edge"><title>Node1&#45;&gt;Node29</title>
<path fill="none" stroke="midnightblue" d="M1837.28,-235.446C1819.86,-224.862 1800.24,-212.936 1785.47,-203.958"/>
<polygon fill="midnightblue" stroke="midnightblue" points="1786.89,-200.73 1776.53,-198.527 1783.26,-206.712 1786.89,-200.73"/>
</g>
<!-- Node30 -->
<g id="node30" class="node"><title>Node30</title>
<polygon fill="none" stroke="#bfbfbf" points="1842.5,-179.5 1842.5,-198.5 1914.5,-198.5 1914.5,-179.5 1842.5,-179.5"/>
<text text-anchor="middle" x="1878.5" y="-186.5" font-family="Helvetica,sans-Serif" font-size="10.00">TGeoCone.h</text>
</g>
<!-- Node1&#45;&gt;Node30 -->
<g id="edge35" class="edge"><title>Node1&#45;&gt;Node30</title>
<path fill="none" stroke="midnightblue" d="M1878.5,-235.446C1878.5,-226.73 1878.5,-217.104 1878.5,-208.964"/>
<polygon fill="midnightblue" stroke="midnightblue" points="1882,-208.695 1878.5,-198.695 1875,-208.696 1882,-208.695"/>
</g>
<!-- Node31 -->
<g id="node31" class="node"><title>Node31</title>
<polygon fill="none" stroke="#bfbfbf" points="1932.5,-179.5 1932.5,-198.5 2018.5,-198.5 2018.5,-179.5 1932.5,-179.5"/>
<text text-anchor="middle" x="1975.5" y="-186.5" font-family="Helvetica,sans-Serif" font-size="10.00">TGeoManager.h</text>
</g>
<!-- Node1&#45;&gt;Node31 -->
<g id="edge36" class="edge"><title>Node1&#45;&gt;Node31</title>
<path fill="none" stroke="midnightblue" d="M1912.97,-235.446C1927.17,-225.127 1943.12,-213.533 1955.36,-204.638"/>
<polygon fill="midnightblue" stroke="midnightblue" points="1957.5,-207.406 1963.54,-198.695 1953.39,-201.744 1957.5,-207.406"/>
</g>
<!-- Node32 -->
<g id="node32" class="node"><title>Node32</title>
<polygon fill="none" stroke="#bfbfbf" points="2036.5,-179.5 2036.5,-198.5 2112.5,-198.5 2112.5,-179.5 2036.5,-179.5"/>
<text text-anchor="middle" x="2074.5" y="-186.5" font-family="Helvetica,sans-Serif" font-size="10.00">TGeoMatrix.h</text>
</g>
<!-- Node1&#45;&gt;Node32 -->
<g id="edge37" class="edge"><title>Node1&#45;&gt;Node32</title>
<path fill="none" stroke="midnightblue" d="M1937.57,-239.252C1971.45,-227.066 2012.74,-212.215 2041.06,-202.026"/>
<polygon fill="midnightblue" stroke="midnightblue" points="2042.28,-205.307 2050.51,-198.629 2039.92,-198.721 2042.28,-205.307"/>
</g>
<!-- Node33 -->
<g id="node33" class="node"><title>Node33</title>
<polygon fill="none" stroke="#bfbfbf" points="2131,-179.5 2131,-198.5 2202,-198.5 2202,-179.5 2131,-179.5"/>
<text text-anchor="middle" x="2166.5" y="-186.5" font-family="Helvetica,sans-Serif" font-size="10.00">TGeoPcon.h</text>
</g>
<!-- Node1&#45;&gt;Node33 -->
<g id="edge38" class="edge"><title>Node1&#45;&gt;Node33</title>
<path fill="none" stroke="midnightblue" d="M1937.82,-245.978C1992.51,-232.591 2072.47,-213.017 2121.91,-200.916"/>
<polygon fill="midnightblue" stroke="midnightblue" points="2122.79,-204.303 2131.67,-198.526 2121.12,-197.504 2122.79,-204.303"/>
</g>
<!-- Node34 -->
<g id="node34" class="node"><title>Node34</title>
<polygon fill="none" stroke="#bfbfbf" points="2220,-179.5 2220,-198.5 2291,-198.5 2291,-179.5 2220,-179.5"/>
<text text-anchor="middle" x="2255.5" y="-186.5" font-family="Helvetica,sans-Serif" font-size="10.00">TGeoPgon.h</text>
</g>
<!-- Node1&#45;&gt;Node34 -->
<g id="edge39" class="edge"><title>Node1&#45;&gt;Node34</title>
<path fill="none" stroke="midnightblue" d="M1937.51,-249.953C2001.98,-238.352 2108.56,-218.943 2209.87,-199.292"/>
<polygon fill="midnightblue" stroke="midnightblue" points="2210.82,-202.672 2219.97,-197.328 2209.49,-195.801 2210.82,-202.672"/>
</g>
<!-- Node35 -->
<g id="node35" class="node"><title>Node35</title>
<polygon fill="none" stroke="#bfbfbf" points="2309,-179.5 2309,-198.5 2380,-198.5 2380,-179.5 2309,-179.5"/>
<text text-anchor="middle" x="2344.5" y="-186.5" font-family="Helvetica,sans-Serif" font-size="10.00">TGeoTube.h</text>
</g>
<!-- Node1&#45;&gt;Node35 -->
<g id="edge40" class="edge"><title>Node1&#45;&gt;Node35</title>
<path fill="none" stroke="midnightblue" d="M1937.73,-252.953C2017.53,-242.543 2164.21,-222.563 2298.9,-199.204"/>
<polygon fill="midnightblue" stroke="midnightblue" points="2299.74,-202.611 2308.99,-197.444 2298.54,-195.715 2299.74,-202.611"/>
</g>
<!-- Node36 -->
<g id="node36" class="node"><title>Node36</title>
<polygon fill="none" stroke="#bfbfbf" points="2398.5,-179.5 2398.5,-198.5 2480.5,-198.5 2480.5,-179.5 2398.5,-179.5"/>
<text text-anchor="middle" x="2439.5" y="-186.5" font-family="Helvetica,sans-Serif" font-size="10.00">TGeoVolume.h</text>
</g>
<!-- Node1&#45;&gt;Node36 -->
<g id="edge41" class="edge"><title>Node1&#45;&gt;Node36</title>
<path fill="none" stroke="midnightblue" d="M1937.66,-254.512C2031.15,-244.802 2218.94,-224.285 2388.24,-199.116"/>
<polygon fill="midnightblue" stroke="midnightblue" points="2388.96,-202.547 2398.33,-197.607 2387.92,-195.624 2388.96,-202.547"/>
</g>
<!-- Node3 -->
<g id="node3" class="node"><title>Node3</title>
<polygon fill="none" stroke="#bfbfbf" points="0,-67.5 0,-86.5 35,-86.5 35,-67.5 0,-67.5"/>
<text text-anchor="middle" x="17.5" y="-74.5" font-family="Helvetica,sans-Serif" font-size="10.00">map</text>
</g>
<!-- Node2&#45;&gt;Node3 -->
<g id="edge2" class="edge"><title>Node2&#45;&gt;Node3</title>
<path fill="none" stroke="midnightblue" d="M682.775,-188.174C515.593,-188.018 83.8451,-183.64 34.5,-143 21.1548,-132.009 17.5641,-111.956 16.9061,-97.0188"/>
<polygon fill="midnightblue" stroke="midnightblue" points="20.4054,-96.8128 16.8617,-86.8282 13.4054,-96.8435 20.4054,-96.8128"/>
</g>
<!-- Node4 -->
<g id="node4" class="node"><title>Node4</title>
<polygon fill="none" stroke="#bfbfbf" points="303.5,-123.5 303.5,-142.5 347.5,-142.5 347.5,-123.5 303.5,-123.5"/>
<text text-anchor="middle" x="325.5" y="-130.5" font-family="Helvetica,sans-Serif" font-size="10.00">vector</text>
</g>
<!-- Node2&#45;&gt;Node4 -->
<g id="edge3" class="edge"><title>Node2&#45;&gt;Node4</title>
<path fill="none" stroke="midnightblue" d="M682.776,-183.848C606.62,-178.279 477.31,-166.489 357.795,-142.955"/>
<polygon fill="midnightblue" stroke="midnightblue" points="358.232,-139.473 347.74,-140.942 356.858,-146.337 358.232,-139.473"/>
</g>
<!-- Node5 -->
<g id="node5" class="node"><title>Node5</title>
<polygon fill="none" stroke="#bfbfbf" points="156,-67.5 156,-86.5 229,-86.5 229,-67.5 156,-67.5"/>
<text text-anchor="middle" x="192.5" y="-74.5" font-family="Helvetica,sans-Serif" font-size="10.00">initializer_list</text>
</g>
<!-- Node2&#45;&gt;Node5 -->
<g id="edge4" class="edge"><title>Node2&#45;&gt;Node5</title>
<path fill="none" stroke="midnightblue" d="M682.563,-186.164C570.87,-182.316 349.567,-171.288 277.5,-143 249.815,-132.133 223.515,-109.437 207.694,-93.9574"/>
<polygon fill="midnightblue" stroke="midnightblue" points="209.949,-91.2607 200.424,-86.621 204.977,-96.1878 209.949,-91.2607"/>
</g>
<!-- Node6 -->
<g id="node6" class="node"><title>Node6</title>
<polygon fill="none" stroke="#bfbfbf" points="365.5,-123.5 365.5,-142.5 417.5,-142.5 417.5,-123.5 365.5,-123.5"/>
<text text-anchor="middle" x="391.5" y="-130.5" font-family="Helvetica,sans-Serif" font-size="10.00">memory</text>
</g>
<!-- Node2&#45;&gt;Node6 -->
<g id="edge5" class="edge"><title>Node2&#45;&gt;Node6</title>
<path fill="none" stroke="midnightblue" d="M682.766,-181.015C619.667,-173.811 521.533,-161.306 427.74,-143.061"/>
<polygon fill="midnightblue" stroke="midnightblue" points="428.288,-139.602 417.8,-141.102 426.935,-146.47 428.288,-139.602"/>
</g>
<!-- Node7 -->
<g id="node7" class="node"><title>Node7</title>
<polygon fill="none" stroke="#bfbfbf" points="436,-123.5 436,-142.5 515,-142.5 515,-123.5 436,-123.5"/>
<text text-anchor="middle" x="475.5" y="-130.5" font-family="Helvetica,sans-Serif" font-size="10.00">FairDetector.h</text>
</g>
<!-- Node2&#45;&gt;Node7 -->
<g id="edge6" class="edge"><title>Node2&#45;&gt;Node7</title>
<path fill="none" stroke="midnightblue" d="M705.242,-179.444C656.191,-169.741 576.368,-153.952 524.906,-143.773"/>
<polygon fill="midnightblue" stroke="midnightblue" points="525.499,-140.322 515.01,-141.815 524.14,-147.189 525.499,-140.322"/>
</g>
<!-- Node8 -->
<g id="node8" class="node"><title>Node8</title>
<polygon fill="none" stroke="#bfbfbf" points="533.5,-123.5 533.5,-142.5 633.5,-142.5 633.5,-123.5 533.5,-123.5"/>
<text text-anchor="middle" x="583.5" y="-130.5" font-family="Helvetica,sans-Serif" font-size="10.00">FairRootManager.h</text>
</g>
<!-- Node2&#45;&gt;Node8 -->
<g id="edge7" class="edge"><title>Node2&#45;&gt;Node8</title>
<path fill="none" stroke="midnightblue" d="M722.355,-179.444C694.477,-170.32 650.152,-155.813 619.1,-145.651"/>
<polygon fill="midnightblue" stroke="midnightblue" points="620.115,-142.3 609.522,-142.516 617.938,-148.953 620.115,-142.3"/>
</g>
<!-- Node2&#45;&gt;Node9 -->
<g id="edge8" class="edge"><title>Node2&#45;&gt;Node9</title>
<path fill="none" stroke="midnightblue" d="M682.598,-182.501C583.115,-174.165 388.651,-157.739 223.5,-143 222.026,-142.868 220.539,-142.735 219.043,-142.601"/>
<polygon fill="midnightblue" stroke="midnightblue" points="219.323,-139.112 209.048,-141.699 218.693,-146.084 219.323,-139.112"/>
</g>
<!-- Node10 -->
<g id="node10" class="node"><title>Node10</title>
<polygon fill="none" stroke="#bfbfbf" points="247.5,-67.5 247.5,-86.5 303.5,-86.5 303.5,-67.5 247.5,-67.5"/>
<text text-anchor="middle" x="275.5" y="-74.5" font-family="Helvetica,sans-Serif" font-size="10.00">Rtypes.h</text>
</g>
<!-- Node2&#45;&gt;Node10 -->
<g id="edge13" class="edge"><title>Node2&#45;&gt;Node10</title>
<path fill="none" stroke="midnightblue" d="M682.585,-185.501C563.878,-180.416 323.721,-167.245 294.5,-143 281.089,-131.873 276.838,-111.841 275.636,-96.9464"/>
<polygon fill="midnightblue" stroke="midnightblue" points="279.126,-96.6343 275.21,-86.7899 272.133,-96.9279 279.126,-96.6343"/>
</g>
<!-- Node12 -->
<g id="node12" class="node"><title>Node12</title>
<polygon fill="none" stroke="#bfbfbf" points="652,-123.5 652,-142.5 705,-142.5 705,-123.5 652,-123.5"/>
<text text-anchor="middle" x="678.5" y="-130.5" font-family="Helvetica,sans-Serif" font-size="10.00">cxxabi.h</text>
</g>
<!-- Node2&#45;&gt;Node12 -->
<g id="edge14" class="edge"><title>Node2&#45;&gt;Node12</title>
<path fill="none" stroke="midnightblue" d="M737.253,-179.324C726.703,-171.185 710.699,-158.839 698.058,-149.087"/>
<polygon fill="midnightblue" stroke="midnightblue" points="700.007,-146.171 689.951,-142.834 695.731,-151.713 700.007,-146.171"/>
</g>
<!-- Node13 -->
<g id="node13" class="node"><title>Node13</title>
<polygon fill="none" stroke="#bfbfbf" points="723,-123.5 723,-142.5 774,-142.5 774,-123.5 723,-123.5"/>
<text text-anchor="middle" x="748.5" y="-130.5" font-family="Helvetica,sans-Serif" font-size="10.00">typeinfo</text>
</g>
<!-- Node2&#45;&gt;Node13 -->
<g id="edge15" class="edge"><title>Node2&#45;&gt;Node13</title>
<path fill="none" stroke="midnightblue" d="M748.5,-179.083C748.5,-172.006 748.5,-161.861 748.5,-152.986"/>
<polygon fill="midnightblue" stroke="midnightblue" points="752,-152.751 748.5,-142.751 745,-152.751 752,-152.751"/>
</g>
<!-- Node14 -->
<g id="node14" class="node"><title>Node14</title>
<polygon fill="none" stroke="#bfbfbf" points="792.5,-123.5 792.5,-142.5 854.5,-142.5 854.5,-123.5 792.5,-123.5"/>
<text text-anchor="middle" x="823.5" y="-130.5" font-family="Helvetica,sans-Serif" font-size="10.00">type_traits</text>
</g>
<!-- Node2&#45;&gt;Node14 -->
<g id="edge16" class="edge"><title>Node2&#45;&gt;Node14</title>
<path fill="none" stroke="midnightblue" d="M760.55,-179.324C771.963,-171.107 789.331,-158.602 802.935,-148.807"/>
<polygon fill="midnightblue" stroke="midnightblue" points="805.16,-151.517 811.231,-142.834 801.07,-145.837 805.16,-151.517"/>
</g>
<!-- Node15 -->
<g id="node15" class="node"><title>Node15</title>
<polygon fill="none" stroke="#bfbfbf" points="873,-123.5 873,-142.5 914,-142.5 914,-123.5 873,-123.5"/>
<text text-anchor="middle" x="893.5" y="-130.5" font-family="Helvetica,sans-Serif" font-size="10.00">string</text>
</g>
<!-- Node2&#45;&gt;Node15 -->
<g id="edge17" class="edge"><title>Node2&#45;&gt;Node15</title>
<path fill="none" stroke="midnightblue" d="M771.476,-179.444C796.368,-170.173 836.181,-155.346 863.519,-145.165"/>
<polygon fill="midnightblue" stroke="midnightblue" points="864.827,-148.413 872.976,-141.643 862.383,-141.853 864.827,-148.413"/>
</g>
<!-- Node16 -->
<g id="node16" class="node"><title>Node16</title>
<polygon fill="none" stroke="#bfbfbf" points="932,-123.5 932,-142.5 1003,-142.5 1003,-123.5 932,-123.5"/>
<text text-anchor="middle" x="967.5" y="-130.5" font-family="Helvetica,sans-Serif" font-size="10.00">TMessage.h</text>
</g>
<!-- Node2&#45;&gt;Node16 -->
<g id="edge18" class="edge"><title>Node2&#45;&gt;Node16</title>
<path fill="none" stroke="midnightblue" d="M783.201,-179.444C821.085,-170.102 881.849,-155.119 923.162,-144.933"/>
<polygon fill="midnightblue" stroke="midnightblue" points="924.09,-148.309 932.961,-142.516 922.414,-141.512 924.09,-148.309"/>
</g>
<!-- Node17 -->
<g id="node17" class="node"><title>Node17</title>
<g id="a_node17"><a xlink:href="../../de/d61/ShmManager_8h.html" target="_top" xlink:title="CommonUtils/ShmManager.h">
<polygon fill="none" stroke="black" points="1001.5,-67.5 1001.5,-86.5 1147.5,-86.5 1147.5,-67.5 1001.5,-67.5"/>
<text text-anchor="middle" x="1074.5" y="-74.5" font-family="Helvetica,sans-Serif" font-size="10.00">CommonUtils/ShmManager.h</text>
</a>
</g>
</g>
<!-- Node2&#45;&gt;Node17 -->
<g id="edge19" class="edge"><title>Node2&#45;&gt;Node17</title>
<path fill="none" stroke="midnightblue" d="M814.264,-187.939C869.775,-185.354 949.831,-175.517 1011.5,-143 1032.91,-131.709 1051.37,-110.474 1062.67,-95.3485"/>
<polygon fill="midnightblue" stroke="midnightblue" points="1065.77,-97.0319 1068.74,-86.8639 1060.08,-92.9562 1065.77,-97.0319"/>
</g>
<!-- Node22 -->
<g id="node22" class="node"><title>Node22</title>
<g id="a_node22"><a xlink:href="../../d0/d91/ShmAllocator_8h.html" target="_top" xlink:title="CommonUtils/ShmAllocator.h">
<polygon fill="none" stroke="black" points="1059.5,-123.5 1059.5,-142.5 1205.5,-142.5 1205.5,-123.5 1059.5,-123.5"/>
<text text-anchor="middle" x="1132.5" y="-130.5" font-family="Helvetica,sans-Serif" font-size="10.00">CommonUtils/ShmAllocator.h</text>
</a>
</g>
</g>
<!-- Node2&#45;&gt;Node22 -->
<g id="edge24" class="edge"><title>Node2&#45;&gt;Node22</title>
<path fill="none" stroke="midnightblue" d="M809.346,-179.444C878.019,-169.786 989.571,-154.099 1061.99,-143.916"/>
<polygon fill="midnightblue" stroke="midnightblue" points="1062.52,-147.375 1071.94,-142.516 1061.55,-140.443 1062.52,-147.375"/>
</g>
<!-- Node2&#45;&gt;Node23 -->
<g id="edge29" class="edge"><title>Node2&#45;&gt;Node23</title>
<path fill="none" stroke="midnightblue" d="M814.257,-185.69C935.413,-180.85 1184.33,-167.971 1214.5,-143 1227.92,-131.89 1232.17,-111.856 1233.37,-96.9554"/>
<polygon fill="midnightblue" stroke="midnightblue" points="1236.88,-96.9316 1233.79,-86.7947 1229.88,-96.6405 1236.88,-96.9316"/>
</g>
<!-- Node24 -->
<g id="node24" class="node"><title>Node24</title>
<polygon fill="none" stroke="#bfbfbf" points="1261.5,-123.5 1261.5,-142.5 1323.5,-142.5 1323.5,-123.5 1261.5,-123.5"/>
<text text-anchor="middle" x="1292.5" y="-130.5" font-family="Helvetica,sans-Serif" font-size="10.00">sys/shm.h</text>
</g>
<!-- Node2&#45;&gt;Node24 -->
<g id="edge27" class="edge"><title>Node2&#45;&gt;Node24</title>
<path fill="none" stroke="midnightblue" d="M814.151,-184.335C909.817,-178.484 1092.97,-165.354 1247.5,-143 1248.6,-142.84 1249.72,-142.671 1250.85,-142.494"/>
<polygon fill="midnightblue" stroke="midnightblue" points="1251.84,-145.874 1261.1,-140.727 1250.65,-138.976 1251.84,-145.874"/>
</g>
<!-- Node25 -->
<g id="node25" class="node"><title>Node25</title>
<polygon fill="none" stroke="#bfbfbf" points="1342,-123.5 1342,-142.5 1393,-142.5 1393,-123.5 1342,-123.5"/>
<text text-anchor="middle" x="1367.5" y="-130.5" font-family="Helvetica,sans-Serif" font-size="10.00">unistd.h</text>
</g>
<!-- Node2&#45;&gt;Node25 -->
<g id="edge28" class="edge"><title>Node2&#45;&gt;Node25</title>
<path fill="none" stroke="midnightblue" d="M814.198,-186.673C920.912,-183.699 1138.55,-174.226 1331.93,-142.768"/>
<polygon fill="midnightblue" stroke="midnightblue" points="1332.7,-146.189 1342,-141.107 1331.56,-139.282 1332.7,-146.189"/>
</g>
<!-- Node9&#45;&gt;Node3 -->
<g id="edge10" class="edge"><title>Node9&#45;&gt;Node3</title>
<path fill="none" stroke="midnightblue" d="M108.987,-123.324C91.4276,-114.625 64.1686,-101.12 43.9688,-91.113"/>
<polygon fill="midnightblue" stroke="midnightblue" points="45.4837,-87.9575 34.9693,-86.6545 42.3762,-94.23 45.4837,-87.9575"/>
</g>
<!-- Node9&#45;&gt;Node5 -->
<g id="edge12" class="edge"><title>Node9&#45;&gt;Node5</title>
<path fill="none" stroke="midnightblue" d="M137.104,-123.324C146.956,-115.263 161.851,-103.077 173.715,-93.3695"/>
<polygon fill="midnightblue" stroke="midnightblue" points="176.18,-95.8752 181.703,-86.8339 171.747,-90.4575 176.18,-95.8752"/>
</g>
<!-- Node9&#45;&gt;Node10 -->
<g id="edge9" class="edge"><title>Node9&#45;&gt;Node10</title>
<path fill="none" stroke="midnightblue" d="M150.109,-123.444C174.958,-114.438 214.274,-100.189 242.254,-90.049"/>
<polygon fill="midnightblue" stroke="midnightblue" points="243.792,-93.2144 252.001,-86.5164 241.407,-86.6332 243.792,-93.2144"/>
</g>
<!-- Node11 -->
<g id="node11" class="node"><title>Node11</title>
<polygon fill="none" stroke="#bfbfbf" points="55,-67.5 55,-86.5 138,-86.5 138,-67.5 55,-67.5"/>
<text text-anchor="middle" x="96.5" y="-74.5" font-family="Helvetica,sans-Serif" font-size="10.00">unordered_map</text>
</g>
<!-- Node9&#45;&gt;Node11 -->
<g id="edge11" class="edge"><title>Node9&#45;&gt;Node11</title>
<path fill="none" stroke="midnightblue" d="M121.546,-123.083C117.396,-115.613 111.347,-104.724 106.233,-95.5199"/>
<polygon fill="midnightblue" stroke="midnightblue" points="109.278,-93.7929 101.362,-86.7511 103.159,-97.1924 109.278,-93.7929"/>
</g>
<!-- Node18 -->
<g id="node18" class="node"><title>Node18</title>
<polygon fill="none" stroke="#bfbfbf" points="944,-6 944,-25 973,-25 973,-6 944,-6"/>
<text text-anchor="middle" x="958.5" y="-13" font-family="Helvetica,sans-Serif" font-size="10.00">list</text>
</g>
<!-- Node17&#45;&gt;Node18 -->
<g id="edge20" class="edge"><title>Node17&#45;&gt;Node18</title>
<path fill="none" stroke="midnightblue" d="M1055.3,-67.4739C1036.27,-58.8451 1006.44,-44.8372 981.5,-31 981.087,-30.771 980.672,-30.5377 980.254,-30.3009"/>
<polygon fill="midnightblue" stroke="midnightblue" points="981.859,-27.1823 971.483,-25.039 978.258,-33.1849 981.859,-27.1823"/>
</g>
<!-- Node19 -->
<g id="node19" class="node"><title>Node19</title>
<polygon fill="none" stroke="#bfbfbf" points="991,-6 991,-25 1040,-25 1040,-6 991,-6"/>
<text text-anchor="middle" x="1015.5" y="-13" font-family="Helvetica,sans-Serif" font-size="10.00">cstddef</text>
</g>
<!-- Node17&#45;&gt;Node19 -->
<g id="edge21" class="edge"><title>Node17&#45;&gt;Node19</title>
<path fill="none" stroke="midnightblue" d="M1066.05,-67.4751C1056.93,-58.285 1042.23,-43.4563 1031.02,-32.156"/>
<polygon fill="midnightblue" stroke="midnightblue" points="1033.46,-29.6455 1023.94,-25.0091 1028.49,-34.5744 1033.46,-29.6455"/>
</g>
<!-- Node20 -->
<g id="node20" class="node"><title>Node20</title>
<polygon fill="none" stroke="#bfbfbf" points="1058.5,-0.5 1058.5,-30.5 1206.5,-30.5 1206.5,-0.5 1058.5,-0.5"/>
<text text-anchor="start" x="1066.5" y="-18.5" font-family="Helvetica,sans-Serif" font-size="10.00">boost/interprocess</text>
<text text-anchor="middle" x="1132.5" y="-7.5" font-family="Helvetica,sans-Serif" font-size="10.00">/managed_external_buffer.hpp</text>
</g>
<!-- Node17&#45;&gt;Node20 -->
<g id="edge22" class="edge"><title>Node17&#45;&gt;Node20</title>
<path fill="none" stroke="midnightblue" d="M1082.81,-67.4751C1090.3,-59.7932 1101.63,-48.1717 1111.58,-37.9643"/>
<polygon fill="midnightblue" stroke="midnightblue" points="1114.36,-40.1268 1118.83,-30.523 1109.34,-35.2407 1114.36,-40.1268"/>
</g>
<!-- Node21 -->
<g id="node21" class="node"><title>Node21</title>
<polygon fill="none" stroke="#bfbfbf" points="1224.5,-0.5 1224.5,-30.5 1344.5,-30.5 1344.5,-0.5 1224.5,-0.5"/>
<text text-anchor="start" x="1232.5" y="-18.5" font-family="Helvetica,sans-Serif" font-size="10.00">boost/interprocess</text>
<text text-anchor="middle" x="1284.5" y="-7.5" font-family="Helvetica,sans-Serif" font-size="10.00">/allocators/allocator.hpp</text>
</g>
<!-- Node17&#45;&gt;Node21 -->
<g id="edge23" class="edge"><title>Node17&#45;&gt;Node21</title>
<path fill="none" stroke="midnightblue" d="M1104.59,-67.4751C1135.95,-58.5882 1185.93,-44.4288 1225.26,-33.2859"/>
<polygon fill="midnightblue" stroke="midnightblue" points="1226.34,-36.6165 1235.01,-30.523 1224.43,-29.8816 1226.34,-36.6165"/>
</g>
<!-- Node22&#45;&gt;Node17 -->
<g id="edge25" class="edge"><title>Node22&#45;&gt;Node17</title>
<path fill="none" stroke="midnightblue" d="M1123.18,-123.324C1114.61,-115.341 1101.69,-103.313 1091.31,-93.6529"/>
<polygon fill="midnightblue" stroke="midnightblue" points="1093.69,-91.0865 1083.99,-86.8339 1088.92,-96.2098 1093.69,-91.0865"/>
</g>
<!-- Node22&#45;&gt;Node23 -->
<g id="edge26" class="edge"><title>Node22&#45;&gt;Node23</title>
<path fill="none" stroke="midnightblue" d="M1148.73,-123.324C1164.85,-114.703 1189.8,-101.364 1208.46,-91.3855"/>
<polygon fill="midnightblue" stroke="midnightblue" points="1210.14,-94.456 1217.31,-86.6545 1206.84,-88.283 1210.14,-94.456"/>
</g>
<!-- Node27 -->
<g id="node27" class="node"><title>Node27</title>
<polygon fill="none" stroke="#bfbfbf" points="1486,-123.5 1486,-142.5 1559,-142.5 1559,-123.5 1486,-123.5"/>
<text text-anchor="middle" x="1522.5" y="-130.5" font-family="Helvetica,sans-Serif" font-size="10.00">FairModule.h</text>
</g>
<!-- Node26&#45;&gt;Node27 -->
<g id="edge32" class="edge"><title>Node26&#45;&gt;Node27</title>
<path fill="none" stroke="midnightblue" d="M1522.5,-179.083C1522.5,-172.006 1522.5,-161.861 1522.5,-152.986"/>
<polygon fill="midnightblue" stroke="midnightblue" points="1526,-152.751 1522.5,-142.751 1519,-152.751 1526,-152.751"/>
</g>
</g>
</svg>
