<?xml version="1.0" encoding="UTF-8" standalone="no"?>
<!DOCTYPE svg PUBLIC "-//W3C//DTD SVG 1.1//EN"
 "http://www.w3.org/Graphics/SVG/1.1/DTD/svg11.dtd">
<!-- Generated by graphviz version 2.38.0 (20140413.2041)
 -->
<!-- Title: /home/travis/build/AliceO2Group/AliceO2/Detectors/PHOS/simulation/include/PHOSSimulation/MCLabel.h Pages: 1 -->
<svg width="186pt" height="240pt"
 viewBox="0.00 0.00 186.00 240.00" xmlns="http://www.w3.org/2000/svg" xmlns:xlink="http://www.w3.org/1999/xlink">
<g id="graph0" class="graph" transform="scale(1 1) rotate(0) translate(4 236)">
<title>/home/travis/build/AliceO2Group/AliceO2/Detectors/PHOS/simulation/include/PHOSSimulation/MCLabel.h</title>
<!-- Node1 -->
<g id="node1" class="node"><title>Node1</title>
<polygon fill="#bfbfbf" stroke="black" points="-1.42109e-14,-179.5 -1.42109e-14,-231.5 178,-231.5 178,-179.5 -1.42109e-14,-179.5"/>
<text text-anchor="start" x="8" y="-219.5" font-family="Helvetica,sans-Serif" font-size="10.00">/home/travis/build</text>
<text text-anchor="start" x="8" y="-208.5" font-family="Helvetica,sans-Serif" font-size="10.00">/AliceO2Group/AliceO2</text>
<text text-anchor="start" x="8" y="-197.5" font-family="Helvetica,sans-Serif" font-size="10.00">/Detectors/PHOS/simulation</text>
<text text-anchor="middle" x="89" y="-186.5" font-family="Helvetica,sans-Serif" font-size="10.00">/include/PHOSSimulation/MCLabel.h</text>
</g>
<!-- Node2 -->
<g id="node2" class="node"><title>Node2</title>
<g id="a_node2"><a xlink:href="../../d7/dcd/MCCompLabel_8h.html" target="_top" xlink:title="SimulationDataFormat\l/MCCompLabel.h">
<polygon fill="none" stroke="black" points="32,-112.5 32,-142.5 146,-142.5 146,-112.5 32,-112.5"/>
<text text-anchor="start" x="40" y="-130.5" font-family="Helvetica,sans-Serif" font-size="10.00">SimulationDataFormat</text>
<text text-anchor="middle" x="89" y="-119.5" font-family="Helvetica,sans-Serif" font-size="10.00">/MCCompLabel.h</text>
</a>
</g>
</g>
<!-- Node1&#45;&gt;Node2 -->
<g id="edge1" class="edge"><title>Node1&#45;&gt;Node2</title>
<path fill="none" stroke="midnightblue" d="M89,-179.193C89,-170.786 89,-161.443 89,-153.091"/>
<polygon fill="midnightblue" stroke="midnightblue" points="92.5001,-152.845 89,-142.845 85.5001,-152.845 92.5001,-152.845"/>
</g>
<!-- Node3 -->
<g id="node3" class="node"><title>Node3</title>
<g id="a_node3"><a xlink:href="../../d2/d45/GPUCommonRtypes_8h.html" target="_top" xlink:title="GPUCommonRtypes.h">
<polygon fill="none" stroke="black" points="30,-56.5 30,-75.5 148,-75.5 148,-56.5 30,-56.5"/>
<text text-anchor="middle" x="89" y="-63.5" font-family="Helvetica,sans-Serif" font-size="10.00">GPUCommonRtypes.h</text>
</a>
</g>
</g>
<!-- Node2&#45;&gt;Node3 -->
<g id="edge2" class="edge"><title>Node2&#45;&gt;Node3</title>
<path fill="none" stroke="midnightblue" d="M89,-112.399C89,-104.466 89,-94.458 89,-85.8583"/>
<polygon fill="midnightblue" stroke="midnightblue" points="92.5001,-85.6577 89,-75.6578 85.5001,-85.6578 92.5001,-85.6577"/>
</g>
<!-- Node4 -->
<g id="node4" class="node"><title>Node4</title>
<polygon fill="none" stroke="#bfbfbf" points="61,-0.5 61,-19.5 117,-19.5 117,-0.5 61,-0.5"/>
<text text-anchor="middle" x="89" y="-7.5" font-family="Helvetica,sans-Serif" font-size="10.00">Rtypes.h</text>
</g>
<!-- Node3&#45;&gt;Node4 -->
<g id="edge3" class="edge"><title>Node3&#45;&gt;Node4</title>
<path fill="none" stroke="midnightblue" d="M89,-56.083C89,-49.0059 89,-38.8611 89,-29.9865"/>
<polygon fill="midnightblue" stroke="midnightblue" points="92.5001,-29.751 89,-19.7511 85.5001,-29.7511 92.5001,-29.751"/>
</g>
</g>
</svg>
