<?xml version="1.0" encoding="UTF-8" standalone="no"?>
<!DOCTYPE svg PUBLIC "-//W3C//DTD SVG 1.1//EN"
 "http://www.w3.org/Graphics/SVG/1.1/DTD/svg11.dtd">
<!-- Generated by graphviz version 2.38.0 (20140413.2041)
 -->
<!-- Title: /home/travis/build/AliceO2Group/AliceO2/Detectors/TRD/base/include/TRDBase/TRDGeometry.h Pages: 1 -->
<!--zoomable 441 -->
<svg id="main" version="1.1" xmlns="http://www.w3.org/2000/svg" xmlns:xlink="http://www.w3.org/1999/xlink" xml:space="preserve" onload="init(evt)">
<style type="text/css"><![CDATA[
.edge:hover path { stroke: red; }
.edge:hover polygon { stroke: red; fill: red; }
]]></style>
<script type="text/javascript"><![CDATA[
var edges = document.getElementsByTagName('g');
if (edges && edges.length) {
  for (var i=0;i<edges.length;i++) {
    if (edges[i].id.substr(0,4)=='edge') {
      edges[i].setAttribute('class','edge');
    }
  }
}
]]></script>
        <defs>
                <circle id="rim" cx="0" cy="0" r="7"/>
                <circle id="rim2" cx="0" cy="0" r="3.5"/>
                <g id="zoomPlus">
                        <use xlink:href="#rim" fill="#404040">
                                <set attributeName="fill" to="#808080" begin="zoomplus.mouseover" end="zoomplus.mouseout"/>
                        </use>
                        <path d="M-4,0h8M0,-4v8" fill="none" stroke="white" stroke-width="1.5" pointer-events="none"/>
                </g>
                <g id="zoomMin">
                        <use xlink:href="#rim" fill="#404040">
                                <set attributeName="fill" to="#808080" begin="zoomminus.mouseover" end="zoomminus.mouseout"/>
                        </use>
                        <path d="M-4,0h8" fill="none" stroke="white" stroke-width="1.5" pointer-events="none"/>
                </g>
                <g id="dirArrow">
                        <path fill="none" stroke="white" stroke-width="1.5" d="M0,-3.0v7 M-2.5,-0.5L0,-3.0L2.5,-0.5"/>
                </g>
               <g id="resetDef">
                       <use xlink:href="#rim2" fill="#404040">
                               <set attributeName="fill" to="#808080" begin="reset.mouseover" end="reset.mouseout"/>
                       </use>
               </g>
        </defs>

<script type="text/javascript">
var viewWidth = 2044;
var viewHeight = 441;
var sectionId = 'dynsection-0';
</script>
<script xlink:href="../../svgpan.js"/>
<svg id="graph" class="graph">
<g id="viewport">
<title>/home/travis/build/AliceO2Group/AliceO2/Detectors/TRD/base/include/TRDBase/TRDGeometry.h</title>
<!-- Node1 -->
<g id="node1" class="node"><title>Node1</title>
<polygon fill="#bfbfbf" stroke="black" points="1792.63,-380.5 1792.63,-432.5 1936.63,-432.5 1936.63,-380.5 1792.63,-380.5"/>
<text text-anchor="start" x="1800.63" y="-420.5" font-family="Helvetica,sans-Serif" font-size="10.00">/home/travis/build</text>
<text text-anchor="start" x="1800.63" y="-409.5" font-family="Helvetica,sans-Serif" font-size="10.00">/AliceO2Group/AliceO2</text>
<text text-anchor="start" x="1800.63" y="-398.5" font-family="Helvetica,sans-Serif" font-size="10.00">/Detectors/TRD/base/include</text>
<text text-anchor="middle" x="1864.63" y="-387.5" font-family="Helvetica,sans-Serif" font-size="10.00">/TRDBase/TRDGeometry.h</text>
</g>
<!-- Node2 -->
<g id="node2" class="node"><title>Node2</title>
<g id="a_node2"><a xlink:href="../../d8/dad/TRDGeometryBase_8h.html" target="_top" xlink:title="TRDBase/TRDGeometryBase.h">
<polygon fill="none" stroke="black" points="96.6263,-319 96.6263,-338 254.626,-338 254.626,-319 96.6263,-319"/>
<text text-anchor="middle" x="175.626" y="-326" font-family="Helvetica,sans-Serif" font-size="10.00">TRDBase/TRDGeometryBase.h</text>
</a>
</g>
</g>
<!-- Node1&#45;&gt;Node2 -->
<g id="edge1" class="edge"><title>Node1&#45;&gt;Node2</title>
<path fill="none" stroke="midnightblue" d="M1792.59,-402.259C1521.59,-390.064 563.596,-346.958 265.106,-333.526"/>
<polygon fill="midnightblue" stroke="midnightblue" points="264.916,-330.014 254.768,-333.061 264.601,-337.007 264.916,-330.014"/>
</g>
<!-- Node10 -->
<g id="node10" class="node"><title>Node10</title>
<g id="a_node10"><a xlink:href="../../d4/d20/DetMatrixCache_8h.html" target="_top" xlink:title="DetectorsCommonDataFormats\l/DetMatrixCache.h">
<polygon fill="none" stroke="black" points="1661.63,-313.5 1661.63,-343.5 1817.63,-343.5 1817.63,-313.5 1661.63,-313.5"/>
<text text-anchor="start" x="1669.63" y="-331.5" font-family="Helvetica,sans-Serif" font-size="10.00">DetectorsCommonDataFormats</text>
<text text-anchor="middle" x="1739.63" y="-320.5" font-family="Helvetica,sans-Serif" font-size="10.00">/DetMatrixCache.h</text>
</a>
</g>
</g>
<!-- Node1&#45;&gt;Node10 -->
<g id="edge11" class="edge"><title>Node1&#45;&gt;Node10</title>
<path fill="none" stroke="midnightblue" d="M1823.35,-380.404C1806.59,-370.212 1787.51,-358.614 1771.81,-349.066"/>
<polygon fill="midnightblue" stroke="midnightblue" points="1773.36,-345.911 1762.99,-343.707 1769.72,-351.892 1773.36,-345.911"/>
</g>
<!-- Node15 -->
<g id="node15" class="node"><title>Node15</title>
<polygon fill="none" stroke="#bfbfbf" points="1941.63,-252 1941.63,-271 1985.63,-271 1985.63,-252 1941.63,-252"/>
<text text-anchor="middle" x="1963.63" y="-259" font-family="Helvetica,sans-Serif" font-size="10.00">vector</text>
</g>
<!-- Node1&#45;&gt;Node15 -->
<g id="edge48" class="edge"><title>Node1&#45;&gt;Node15</title>
<path fill="none" stroke="midnightblue" d="M1871.68,-380.287C1877.97,-360.689 1888.53,-333.484 1903.63,-313 1914.03,-298.888 1929.14,-286.198 1941.6,-277.068"/>
<polygon fill="midnightblue" stroke="midnightblue" points="1943.94,-279.702 1950.09,-271.08 1939.9,-273.98 1943.94,-279.702"/>
</g>
<!-- Node16 -->
<g id="node16" class="node"><title>Node16</title>
<g id="a_node16"><a xlink:href="../../d6/d31/DetID_8h.html" target="_top" xlink:title="DetectorsCommonDataFormats\l/DetID.h">
<polygon fill="none" stroke="black" points="1767.63,-246.5 1767.63,-276.5 1923.63,-276.5 1923.63,-246.5 1767.63,-246.5"/>
<text text-anchor="start" x="1775.63" y="-264.5" font-family="Helvetica,sans-Serif" font-size="10.00">DetectorsCommonDataFormats</text>
<text text-anchor="middle" x="1845.63" y="-253.5" font-family="Helvetica,sans-Serif" font-size="10.00">/DetID.h</text>
</a>
</g>
</g>
<!-- Node1&#45;&gt;Node16 -->
<g id="edge46" class="edge"><title>Node1&#45;&gt;Node16</title>
<path fill="none" stroke="midnightblue" d="M1861.27,-380.264C1857.77,-353.884 1852.31,-312.781 1848.85,-286.769"/>
<polygon fill="midnightblue" stroke="midnightblue" points="1852.29,-286.083 1847.5,-276.631 1845.35,-287.005 1852.29,-286.083"/>
</g>
<!-- Node37 -->
<g id="node37" class="node"><title>Node37</title>
<polygon fill="none" stroke="#bfbfbf" points="1912.13,-319 1912.13,-338 1953.13,-338 1953.13,-319 1912.13,-319"/>
<text text-anchor="middle" x="1932.63" y="-326" font-family="Helvetica,sans-Serif" font-size="10.00">string</text>
</g>
<!-- Node1&#45;&gt;Node37 -->
<g id="edge47" class="edge"><title>Node1&#45;&gt;Node37</title>
<path fill="none" stroke="midnightblue" d="M1887.27,-380.193C1897.41,-368.858 1909.08,-355.821 1918.04,-345.806"/>
<polygon fill="midnightblue" stroke="midnightblue" points="1920.77,-347.995 1924.83,-338.209 1915.56,-343.328 1920.77,-347.995"/>
</g>
<!-- Node38 -->
<g id="node38" class="node"><title>Node38</title>
<polygon fill="none" stroke="#bfbfbf" points="1971.63,-319 1971.63,-338 2023.63,-338 2023.63,-319 1971.63,-319"/>
<text text-anchor="middle" x="1997.63" y="-326" font-family="Helvetica,sans-Serif" font-size="10.00">memory</text>
</g>
<!-- Node1&#45;&gt;Node38 -->
<g id="edge49" class="edge"><title>Node1&#45;&gt;Node38</title>
<path fill="none" stroke="midnightblue" d="M1908.54,-380.404C1930.32,-367.959 1955.77,-353.419 1973.87,-343.073"/>
<polygon fill="midnightblue" stroke="midnightblue" points="1975.67,-346.078 1982.61,-338.078 1972.2,-340 1975.67,-346.078"/>
</g>
<!-- Node3 -->
<g id="node3" class="node"><title>Node3</title>
<g id="a_node3"><a xlink:href="../../df/d21/GPUCommonDef_8h.html" target="_top" xlink:title="GPUCommonDef.h">
<polygon fill="none" stroke="black" points="724.626,-56.5 724.626,-75.5 826.626,-75.5 826.626,-56.5 724.626,-56.5"/>
<text text-anchor="middle" x="775.626" y="-63.5" font-family="Helvetica,sans-Serif" font-size="10.00">GPUCommonDef.h</text>
</a>
</g>
</g>
<!-- Node2&#45;&gt;Node3 -->
<g id="edge2" class="edge"><title>Node2&#45;&gt;Node3</title>
<path fill="none" stroke="midnightblue" d="M96.5794,-321.783C66.5695,-315.297 35.1815,-302.362 16.6263,-277 -35.8553,-205.266 50.1182,-151.73 129.626,-112 181.085,-86.286 563.185,-72.9247 714.338,-68.6005"/>
<polygon fill="midnightblue" stroke="midnightblue" points="714.488,-72.0978 724.385,-68.3167 714.29,-65.1005 714.488,-72.0978"/>
</g>
<!-- Node6 -->
<g id="node6" class="node"><title>Node6</title>
<g id="a_node6"><a xlink:href="../../da/d32/TRDCommonParam_8h.html" target="_top" xlink:title="TRDBase/TRDCommonParam.h">
<polygon fill="none" stroke="black" points="178.126,-252 178.126,-271 339.126,-271 339.126,-252 178.126,-252"/>
<text text-anchor="middle" x="258.626" y="-259" font-family="Helvetica,sans-Serif" font-size="10.00">TRDBase/TRDCommonParam.h</text>
</a>
</g>
</g>
<!-- Node2&#45;&gt;Node6 -->
<g id="edge5" class="edge"><title>Node2&#45;&gt;Node6</title>
<path fill="none" stroke="midnightblue" d="M186.82,-318.734C200.261,-308.208 223.027,-290.379 239.323,-277.617"/>
<polygon fill="midnightblue" stroke="midnightblue" points="241.895,-280.049 247.61,-271.127 237.579,-274.537 241.895,-280.049"/>
</g>
<!-- Node9 -->
<g id="node9" class="node"><title>Node9</title>
<g id="a_node9"><a xlink:href="../../de/df3/TRDPadPlane_8h.html" target="_top" xlink:title="TRDBase/TRDPadPlane.h">
<polygon fill="none" stroke="black" points="25.6263,-252 25.6263,-271 159.626,-271 159.626,-252 25.6263,-252"/>
<text text-anchor="middle" x="92.6263" y="-259" font-family="Helvetica,sans-Serif" font-size="10.00">TRDBase/TRDPadPlane.h</text>
</a>
</g>
</g>
<!-- Node2&#45;&gt;Node9 -->
<g id="edge8" class="edge"><title>Node2&#45;&gt;Node9</title>
<path fill="none" stroke="midnightblue" d="M164.433,-318.734C150.992,-308.208 128.226,-290.379 111.93,-277.617"/>
<polygon fill="midnightblue" stroke="midnightblue" points="113.674,-274.537 103.643,-271.127 109.358,-280.049 113.674,-274.537"/>
</g>
<!-- Node4 -->
<g id="node4" class="node"><title>Node4</title>
<g id="a_node4"><a xlink:href="../../d5/d93/GPUCommonDefSettings_8h.html" target="_top" xlink:title="GPUCommonDefSettings.h">
<polygon fill="none" stroke="black" points="633.626,-0.5 633.626,-19.5 771.626,-19.5 771.626,-0.5 633.626,-0.5"/>
<text text-anchor="middle" x="702.626" y="-7.5" font-family="Helvetica,sans-Serif" font-size="10.00">GPUCommonDefSettings.h</text>
</a>
</g>
</g>
<!-- Node3&#45;&gt;Node4 -->
<g id="edge3" class="edge"><title>Node3&#45;&gt;Node4</title>
<path fill="none" stroke="midnightblue" d="M763.898,-56.324C752.789,-48.1066 735.884,-35.6017 722.643,-25.8069"/>
<polygon fill="midnightblue" stroke="midnightblue" points="724.689,-22.9671 714.568,-19.8339 720.526,-28.5948 724.689,-22.9671"/>
</g>
<!-- Node5 -->
<g id="node5" class="node"><title>Node5</title>
<g id="a_node5"><a xlink:href="../../da/d5a/GPUCommonDefAPI_8h.html" target="_top" xlink:title="GPUCommonDefAPI.h">
<polygon fill="none" stroke="black" points="790.126,-0.5 790.126,-19.5 909.126,-19.5 909.126,-0.5 790.126,-0.5"/>
<text text-anchor="middle" x="849.626" y="-7.5" font-family="Helvetica,sans-Serif" font-size="10.00">GPUCommonDefAPI.h</text>
</a>
</g>
</g>
<!-- Node3&#45;&gt;Node5 -->
<g id="edge4" class="edge"><title>Node3&#45;&gt;Node5</title>
<path fill="none" stroke="midnightblue" d="M787.516,-56.324C798.777,-48.1066 815.913,-35.6017 829.335,-25.8069"/>
<polygon fill="midnightblue" stroke="midnightblue" points="831.506,-28.5559 837.521,-19.8339 827.38,-22.9014 831.506,-28.5559"/>
</g>
<!-- Node7 -->
<g id="node7" class="node"><title>Node7</title>
<g id="a_node7"><a xlink:href="../../d2/d45/GPUCommonRtypes_8h.html" target="_top" xlink:title="GPUCommonRtypes.h">
<polygon fill="none" stroke="black" points="91.6263,-185 91.6263,-204 209.626,-204 209.626,-185 91.6263,-185"/>
<text text-anchor="middle" x="150.626" y="-192" font-family="Helvetica,sans-Serif" font-size="10.00">GPUCommonRtypes.h</text>
</a>
</g>
</g>
<!-- Node6&#45;&gt;Node7 -->
<g id="edge6" class="edge"><title>Node6&#45;&gt;Node7</title>
<path fill="none" stroke="midnightblue" d="M244.061,-251.734C226.005,-240.867 195.016,-222.216 173.71,-209.393"/>
<polygon fill="midnightblue" stroke="midnightblue" points="175.334,-206.285 164.961,-204.127 171.724,-212.283 175.334,-206.285"/>
</g>
<!-- Node8 -->
<g id="node8" class="node"><title>Node8</title>
<polygon fill="none" stroke="#bfbfbf" points="343.626,-118 343.626,-137 399.626,-137 399.626,-118 343.626,-118"/>
<text text-anchor="middle" x="371.626" y="-125" font-family="Helvetica,sans-Serif" font-size="10.00">Rtypes.h</text>
</g>
<!-- Node7&#45;&gt;Node8 -->
<g id="edge7" class="edge"><title>Node7&#45;&gt;Node8</title>
<path fill="none" stroke="midnightblue" d="M179.973,-184.869C219.624,-173.207 290.343,-152.407 333.9,-139.596"/>
<polygon fill="midnightblue" stroke="midnightblue" points="334.95,-142.936 343.556,-136.756 332.975,-136.22 334.95,-142.936"/>
</g>
<!-- Node9&#45;&gt;Node3 -->
<g id="edge10" class="edge"><title>Node9&#45;&gt;Node3</title>
<path fill="none" stroke="midnightblue" d="M87.9357,-251.834C79.9098,-235.693 65.9432,-200.698 82.6263,-179 158.965,-79.7128 559.405,-67.6593 714.337,-66.7658"/>
<polygon fill="midnightblue" stroke="midnightblue" points="714.636,-70.2646 724.621,-66.721 714.606,-63.2647 714.636,-70.2646"/>
</g>
<!-- Node9&#45;&gt;Node7 -->
<g id="edge9" class="edge"><title>Node9&#45;&gt;Node7</title>
<path fill="none" stroke="midnightblue" d="M100.448,-251.734C109.58,-241.5 124.871,-224.364 136.178,-211.692"/>
<polygon fill="midnightblue" stroke="midnightblue" points="138.882,-213.919 142.928,-204.127 133.659,-209.258 138.882,-213.919"/>
</g>
<!-- Node10&#45;&gt;Node7 -->
<g id="edge15" class="edge"><title>Node10&#45;&gt;Node7</title>
<path fill="none" stroke="midnightblue" d="M1661.45,-327.418C1391.13,-326.745 505.943,-321.158 386.626,-277 365.861,-269.315 367.454,-255.855 347.626,-246 334.149,-239.301 251.229,-219.122 197.351,-206.392"/>
<polygon fill="midnightblue" stroke="midnightblue" points="197.859,-202.916 187.323,-204.03 196.253,-209.73 197.859,-202.916"/>
</g>
<!-- Node11 -->
<g id="node11" class="node"><title>Node11</title>
<g id="a_node11"><a xlink:href="../../df/d5b/GPUCommonLogger_8h.html" target="_top" xlink:title="GPUCommonLogger.h">
<polygon fill="none" stroke="black" points="395.626,-252 395.626,-271 511.626,-271 511.626,-252 395.626,-252"/>
<text text-anchor="middle" x="453.626" y="-259" font-family="Helvetica,sans-Serif" font-size="10.00">GPUCommonLogger.h</text>
</a>
</g>
</g>
<!-- Node10&#45;&gt;Node11 -->
<g id="edge12" class="edge"><title>Node10&#45;&gt;Node11</title>
<path fill="none" stroke="midnightblue" d="M1661.6,-323.556C1428.71,-311.785 741.192,-277.035 521.759,-265.944"/>
<polygon fill="midnightblue" stroke="midnightblue" points="521.832,-262.443 511.668,-265.434 521.478,-269.434 521.832,-262.443"/>
</g>
<!-- Node14 -->
<g id="node14" class="node"><title>Node14</title>
<polygon fill="none" stroke="#bfbfbf" points="1892.63,-118 1892.63,-137 1930.63,-137 1930.63,-118 1892.63,-118"/>
<text text-anchor="middle" x="1911.63" y="-125" font-family="Helvetica,sans-Serif" font-size="10.00">array</text>
</g>
<!-- Node10&#45;&gt;Node14 -->
<g id="edge16" class="edge"><title>Node10&#45;&gt;Node14</title>
<path fill="none" stroke="midnightblue" d="M1736.92,-313.218C1732.3,-284.157 1726.35,-217.632 1759.63,-179 1797.08,-135.52 1830.34,-164.296 1883.63,-143 1884.83,-142.52 1886.04,-142.005 1887.27,-141.466"/>
<polygon fill="midnightblue" stroke="midnightblue" points="1888.98,-144.523 1896.47,-137.03 1885.95,-138.217 1888.98,-144.523"/>
</g>
<!-- Node10&#45;&gt;Node15 -->
<g id="edge17" class="edge"><title>Node10&#45;&gt;Node15</title>
<path fill="none" stroke="midnightblue" d="M1805.3,-313.445C1843.06,-304.591 1891.09,-292.006 1932.63,-277 1934.24,-276.417 1935.88,-275.781 1937.53,-275.112"/>
<polygon fill="midnightblue" stroke="midnightblue" points="1939.05,-278.266 1946.81,-271.044 1936.24,-271.855 1939.05,-278.266"/>
</g>
<!-- Node10&#45;&gt;Node16 -->
<g id="edge18" class="edge"><title>Node10&#45;&gt;Node16</title>
<path fill="none" stroke="midnightblue" d="M1762.63,-313.396C1777.63,-304.197 1797.41,-292.066 1813.9,-281.955"/>
<polygon fill="midnightblue" stroke="midnightblue" points="1815.98,-284.788 1822.67,-276.577 1812.32,-278.82 1815.98,-284.788"/>
</g>
<!-- Node26 -->
<g id="node26" class="node"><title>Node26</title>
<g id="a_node26"><a xlink:href="../../dd/d76/Cartesian3D_8h.html" target="_top" xlink:title="MathUtils/Cartesian3D.h">
<polygon fill="none" stroke="black" points="934.126,-252 934.126,-271 1059.13,-271 1059.13,-252 934.126,-252"/>
<text text-anchor="middle" x="996.626" y="-259" font-family="Helvetica,sans-Serif" font-size="10.00">MathUtils/Cartesian3D.h</text>
</a>
</g>
</g>
<!-- Node10&#45;&gt;Node26 -->
<g id="edge34" class="edge"><title>Node10&#45;&gt;Node26</title>
<path fill="none" stroke="midnightblue" d="M1661.52,-320.667C1517.03,-308.027 1209.99,-281.165 1069.52,-268.877"/>
<polygon fill="midnightblue" stroke="midnightblue" points="1069.56,-265.367 1059.29,-267.982 1068.95,-272.34 1069.56,-265.367"/>
</g>
<!-- Node12 -->
<g id="node12" class="node"><title>Node12</title>
<polygon fill="none" stroke="#bfbfbf" points="227.626,-185 227.626,-204 281.626,-204 281.626,-185 227.626,-185"/>
<text text-anchor="middle" x="254.626" y="-192" font-family="Helvetica,sans-Serif" font-size="10.00">iostream</text>
</g>
<!-- Node11&#45;&gt;Node12 -->
<g id="edge13" class="edge"><title>Node11&#45;&gt;Node12</title>
<path fill="none" stroke="midnightblue" d="M423.339,-251.929C390.424,-242.426 336.404,-226.279 290.626,-210 288.722,-209.323 286.769,-208.605 284.806,-207.866"/>
<polygon fill="midnightblue" stroke="midnightblue" points="285.664,-204.444 275.075,-204.076 283.123,-210.967 285.664,-204.444"/>
</g>
<!-- Node13 -->
<g id="node13" class="node"><title>Node13</title>
<polygon fill="none" stroke="#bfbfbf" points="300.126,-185 300.126,-204 343.126,-204 343.126,-185 300.126,-185"/>
<text text-anchor="middle" x="321.626" y="-192" font-family="Helvetica,sans-Serif" font-size="10.00">cstdio</text>
</g>
<!-- Node11&#45;&gt;Node13 -->
<g id="edge14" class="edge"><title>Node11&#45;&gt;Node13</title>
<path fill="none" stroke="midnightblue" d="M436.098,-251.869C413.612,-240.796 374.398,-221.486 348.225,-208.598"/>
<polygon fill="midnightblue" stroke="midnightblue" points="349.745,-205.445 339.227,-204.167 346.652,-211.725 349.745,-205.445"/>
</g>
<!-- Node16&#45;&gt;Node8 -->
<g id="edge19" class="edge"><title>Node16&#45;&gt;Node8</title>
<path fill="none" stroke="midnightblue" d="M1767.58,-254.924C1673.56,-247.359 1521.74,-232.191 1469.63,-210 1449.25,-201.325 1451.35,-186.792 1430.63,-179 1333.7,-142.559 588.918,-131.163 410.122,-128.938"/>
<polygon fill="midnightblue" stroke="midnightblue" points="409.925,-125.436 399.883,-128.814 409.84,-132.435 409.925,-125.436"/>
</g>
<!-- Node16&#45;&gt;Node14 -->
<g id="edge20" class="edge"><title>Node16&#45;&gt;Node14</title>
<path fill="none" stroke="midnightblue" d="M1911.52,-246.494C1961.24,-235.258 2022.16,-219.796 2029.63,-210 2057.51,-173.434 1983.74,-147.209 1940.48,-135.436"/>
<polygon fill="midnightblue" stroke="midnightblue" points="1941.29,-132.031 1930.73,-132.885 1939.52,-138.803 1941.29,-132.031"/>
</g>
<!-- Node17 -->
<g id="node17" class="node"><title>Node17</title>
<polygon fill="none" stroke="#bfbfbf" points="1768.13,-185 1768.13,-204 1809.13,-204 1809.13,-185 1768.13,-185"/>
<text text-anchor="middle" x="1788.63" y="-192" font-family="Helvetica,sans-Serif" font-size="10.00">bitset</text>
</g>
<!-- Node16&#45;&gt;Node17 -->
<g id="edge21" class="edge"><title>Node16&#45;&gt;Node17</title>
<path fill="none" stroke="midnightblue" d="M1833.26,-246.396C1824.37,-236.261 1812.36,-222.567 1803.04,-211.937"/>
<polygon fill="midnightblue" stroke="midnightblue" points="1805.48,-209.406 1796.25,-204.195 1800.21,-214.021 1805.48,-209.406"/>
</g>
<!-- Node18 -->
<g id="node18" class="node"><title>Node18</title>
<polygon fill="none" stroke="#bfbfbf" points="1827.13,-185 1827.13,-204 1876.13,-204 1876.13,-185 1827.13,-185"/>
<text text-anchor="middle" x="1851.63" y="-192" font-family="Helvetica,sans-Serif" font-size="10.00">cassert</text>
</g>
<!-- Node16&#45;&gt;Node18 -->
<g id="edge22" class="edge"><title>Node16&#45;&gt;Node18</title>
<path fill="none" stroke="midnightblue" d="M1846.93,-246.396C1847.8,-236.963 1848.95,-224.448 1849.9,-214.189"/>
<polygon fill="midnightblue" stroke="midnightblue" points="1853.39,-214.474 1850.82,-204.195 1846.42,-213.83 1853.39,-214.474"/>
</g>
<!-- Node19 -->
<g id="node19" class="node"><title>Node19</title>
<polygon fill="none" stroke="#bfbfbf" points="1894.63,-185 1894.63,-204 1940.63,-204 1940.63,-185 1894.63,-185"/>
<text text-anchor="middle" x="1917.63" y="-192" font-family="Helvetica,sans-Serif" font-size="10.00">cstdint</text>
</g>
<!-- Node16&#45;&gt;Node19 -->
<g id="edge23" class="edge"><title>Node16&#45;&gt;Node19</title>
<path fill="none" stroke="midnightblue" d="M1861.25,-246.396C1872.81,-235.96 1888.55,-221.751 1900.46,-210.998"/>
<polygon fill="midnightblue" stroke="midnightblue" points="1902.92,-213.494 1908,-204.195 1898.23,-208.298 1902.92,-213.494"/>
</g>
<!-- Node20 -->
<g id="node20" class="node"><title>Node20</title>
<polygon fill="none" stroke="#bfbfbf" points="1958.63,-185 1958.63,-204 2020.63,-204 2020.63,-185 1958.63,-185"/>
<text text-anchor="middle" x="1989.63" y="-192" font-family="Helvetica,sans-Serif" font-size="10.00">type_traits</text>
</g>
<!-- Node16&#45;&gt;Node20 -->
<g id="edge24" class="edge"><title>Node16&#45;&gt;Node20</title>
<path fill="none" stroke="midnightblue" d="M1876.87,-246.396C1902.03,-235.041 1937.08,-219.22 1961.39,-208.244"/>
<polygon fill="midnightblue" stroke="midnightblue" points="1963.11,-211.311 1970.78,-204.007 1960.23,-204.931 1963.11,-211.311"/>
</g>
<!-- Node21 -->
<g id="node21" class="node"><title>Node21</title>
<g id="a_node21"><a xlink:href="../../d9/d52/Common_2MathUtils_2include_2MathUtils_2Utils_8h.html" target="_top" xlink:title="MathUtils/Utils.h">
<polygon fill="none" stroke="black" points="1621.63,-185 1621.63,-204 1711.63,-204 1711.63,-185 1621.63,-185"/>
<text text-anchor="middle" x="1666.63" y="-192" font-family="Helvetica,sans-Serif" font-size="10.00">MathUtils/Utils.h</text>
</a>
</g>
</g>
<!-- Node16&#45;&gt;Node21 -->
<g id="edge25" class="edge"><title>Node16&#45;&gt;Node21</title>
<path fill="none" stroke="midnightblue" d="M1806.79,-246.396C1774.82,-234.789 1730.01,-218.515 1699.73,-207.519"/>
<polygon fill="midnightblue" stroke="midnightblue" points="1700.65,-204.13 1690.05,-204.007 1698.26,-210.71 1700.65,-204.13"/>
</g>
<!-- Node21&#45;&gt;Node3 -->
<g id="edge28" class="edge"><title>Node21&#45;&gt;Node3</title>
<path fill="none" stroke="midnightblue" d="M1638.38,-184.95C1602.27,-173.801 1541.99,-154.381 1521.63,-143 1502.6,-132.365 1503.92,-119.961 1483.63,-112 1424.3,-88.7257 998.186,-73.6728 837.094,-68.7593"/>
<polygon fill="midnightblue" stroke="midnightblue" points="836.974,-65.2542 826.873,-68.4504 836.762,-72.251 836.974,-65.2542"/>
</g>
<!-- Node21&#45;&gt;Node14 -->
<g id="edge26" class="edge"><title>Node21&#45;&gt;Node14</title>
<path fill="none" stroke="midnightblue" d="M1700.92,-184.968C1709.02,-182.982 1717.62,-180.896 1725.63,-179 1795.71,-162.405 1815.99,-167.759 1883.63,-143 1884.87,-142.545 1886.13,-142.046 1887.39,-141.516"/>
<polygon fill="midnightblue" stroke="midnightblue" points="1889.29,-144.489 1896.83,-137.049 1886.3,-138.161 1889.29,-144.489"/>
</g>
<!-- Node22 -->
<g id="node22" class="node"><title>Node22</title>
<polygon fill="none" stroke="#bfbfbf" points="1637.63,-56.5 1637.63,-75.5 1681.63,-75.5 1681.63,-56.5 1637.63,-56.5"/>
<text text-anchor="middle" x="1659.63" y="-63.5" font-family="Helvetica,sans-Serif" font-size="10.00">cmath</text>
</g>
<!-- Node21&#45;&gt;Node22 -->
<g id="edge27" class="edge"><title>Node21&#45;&gt;Node22</title>
<path fill="none" stroke="midnightblue" d="M1666.15,-184.805C1665.02,-164.494 1662.2,-113.553 1660.67,-85.7768"/>
<polygon fill="midnightblue" stroke="midnightblue" points="1664.16,-85.547 1660.11,-75.7557 1657.17,-85.9338 1664.16,-85.547"/>
</g>
<!-- Node23 -->
<g id="node23" class="node"><title>Node23</title>
<g id="a_node23"><a xlink:href="../../d6/da2/GPUCommonMath_8h.html" target="_top" xlink:title="GPUCommonMath.h">
<polygon fill="none" stroke="black" points="1530.63,-118 1530.63,-137 1638.63,-137 1638.63,-118 1530.63,-118"/>
<text text-anchor="middle" x="1584.63" y="-125" font-family="Helvetica,sans-Serif" font-size="10.00">GPUCommonMath.h</text>
</a>
</g>
</g>
<!-- Node21&#45;&gt;Node23 -->
<g id="edge29" class="edge"><title>Node21&#45;&gt;Node23</title>
<path fill="none" stroke="midnightblue" d="M1655.57,-184.734C1642.29,-174.208 1619.8,-156.379 1603.7,-143.617"/>
<polygon fill="midnightblue" stroke="midnightblue" points="1605.52,-140.596 1595.51,-137.127 1601.17,-146.082 1605.52,-140.596"/>
</g>
<!-- Node25 -->
<g id="node25" class="node"><title>Node25</title>
<g id="a_node25"><a xlink:href="../../d6/d84/MathConstants_8h.html" target="_top" xlink:title="useful math constants ">
<polygon fill="none" stroke="black" points="1695.13,-118 1695.13,-137 1874.13,-137 1874.13,-118 1695.13,-118"/>
<text text-anchor="middle" x="1784.63" y="-125" font-family="Helvetica,sans-Serif" font-size="10.00">CommonConstants/MathConstants.h</text>
</a>
</g>
</g>
<!-- Node21&#45;&gt;Node25 -->
<g id="edge33" class="edge"><title>Node21&#45;&gt;Node25</title>
<path fill="none" stroke="midnightblue" d="M1682.54,-184.734C1702.44,-173.769 1736.73,-154.881 1760.03,-142.049"/>
<polygon fill="midnightblue" stroke="midnightblue" points="1761.89,-145.018 1768.96,-137.127 1758.52,-138.887 1761.89,-145.018"/>
</g>
<!-- Node23&#45;&gt;Node3 -->
<g id="edge30" class="edge"><title>Node23&#45;&gt;Node3</title>
<path fill="none" stroke="midnightblue" d="M1549.51,-117.966C1538.99,-115.694 1527.39,-113.466 1516.63,-112 1266.03,-77.8675 964.22,-69.6216 836.956,-67.6318"/>
<polygon fill="midnightblue" stroke="midnightblue" points="836.693,-64.1275 826.642,-67.4783 836.589,-71.1268 836.693,-64.1275"/>
</g>
<!-- Node23&#45;&gt;Node22 -->
<g id="edge31" class="edge"><title>Node23&#45;&gt;Node22</title>
<path fill="none" stroke="midnightblue" d="M1595.37,-117.975C1607.18,-108.608 1626.37,-93.3839 1640.71,-82.0081"/>
<polygon fill="midnightblue" stroke="midnightblue" points="1643.24,-84.4661 1648.9,-75.5091 1638.89,-78.9822 1643.24,-84.4661"/>
</g>
<!-- Node24 -->
<g id="node24" class="node"><title>Node24</title>
<polygon fill="none" stroke="#bfbfbf" points="1556.63,-56.5 1556.63,-75.5 1612.63,-75.5 1612.63,-56.5 1556.63,-56.5"/>
<text text-anchor="middle" x="1584.63" y="-63.5" font-family="Helvetica,sans-Serif" font-size="10.00">algorithm</text>
</g>
<!-- Node23&#45;&gt;Node24 -->
<g id="edge32" class="edge"><title>Node23&#45;&gt;Node24</title>
<path fill="none" stroke="midnightblue" d="M1584.63,-117.975C1584.63,-109.58 1584.63,-96.4806 1584.63,-85.6631"/>
<polygon fill="midnightblue" stroke="midnightblue" points="1588.13,-85.5091 1584.63,-75.5091 1581.13,-85.5091 1588.13,-85.5091"/>
</g>
<!-- Node26&#45;&gt;Node8 -->
<g id="edge40" class="edge"><title>Node26&#45;&gt;Node8</title>
<path fill="none" stroke="midnightblue" d="M934.001,-259.432C787.158,-256.35 429.986,-245.271 389.626,-210 371.924,-194.529 369.43,-165.933 369.978,-147.062"/>
<polygon fill="midnightblue" stroke="midnightblue" points="373.476,-147.202 370.581,-137.01 366.488,-146.782 373.476,-147.202"/>
</g>
<!-- Node27 -->
<g id="node27" class="node"><title>Node27</title>
<polygon fill="none" stroke="#bfbfbf" points="1076.13,-179.5 1076.13,-209.5 1227.13,-209.5 1227.13,-179.5 1076.13,-179.5"/>
<text text-anchor="start" x="1084.13" y="-197.5" font-family="Helvetica,sans-Serif" font-size="10.00">Math/GenVector/Displacement</text>
<text text-anchor="middle" x="1151.63" y="-186.5" font-family="Helvetica,sans-Serif" font-size="10.00">Vector3D.h</text>
</g>
<!-- Node26&#45;&gt;Node27 -->
<g id="edge35" class="edge"><title>Node26&#45;&gt;Node27</title>
<path fill="none" stroke="midnightblue" d="M1017.21,-251.869C1040.47,-242.115 1078.97,-225.97 1108.82,-213.452"/>
<polygon fill="midnightblue" stroke="midnightblue" points="1110.31,-216.623 1118.17,-209.528 1107.6,-210.168 1110.31,-216.623"/>
</g>
<!-- Node28 -->
<g id="node28" class="node"><title>Node28</title>
<polygon fill="none" stroke="#bfbfbf" points="1245.63,-185 1245.63,-204 1421.63,-204 1421.63,-185 1245.63,-185"/>
<text text-anchor="middle" x="1333.63" y="-192" font-family="Helvetica,sans-Serif" font-size="10.00">Math/GenVector/PositionVector3D.h</text>
</g>
<!-- Node26&#45;&gt;Node28 -->
<g id="edge36" class="edge"><title>Node26&#45;&gt;Node28</title>
<path fill="none" stroke="midnightblue" d="M1041.03,-251.936C1102.49,-240.082 1213.36,-218.696 1279.56,-205.928"/>
<polygon fill="midnightblue" stroke="midnightblue" points="1280.24,-209.362 1289.39,-204.032 1278.91,-202.489 1280.24,-209.362"/>
</g>
<!-- Node29 -->
<g id="node29" class="node"><title>Node29</title>
<polygon fill="none" stroke="#bfbfbf" points="399.126,-185 399.126,-204 548.126,-204 548.126,-185 399.126,-185"/>
<text text-anchor="middle" x="473.626" y="-192" font-family="Helvetica,sans-Serif" font-size="10.00">Math/GenVector/Rotation3D.h</text>
</g>
<!-- Node26&#45;&gt;Node29 -->
<g id="edge37" class="edge"><title>Node26&#45;&gt;Node29</title>
<path fill="none" stroke="midnightblue" d="M933.963,-254.414C848.654,-245.873 691.277,-229.207 557.626,-210 548.793,-208.731 539.459,-207.254 530.352,-205.74"/>
<polygon fill="midnightblue" stroke="midnightblue" points="530.649,-202.24 520.205,-204.022 529.48,-209.142 530.649,-202.24"/>
</g>
<!-- Node30 -->
<g id="node30" class="node"><title>Node30</title>
<polygon fill="none" stroke="#bfbfbf" points="566.626,-185 566.626,-204 722.626,-204 722.626,-185 566.626,-185"/>
<text text-anchor="middle" x="644.626" y="-192" font-family="Helvetica,sans-Serif" font-size="10.00">Math/GenVector/Transform3D.h</text>
</g>
<!-- Node26&#45;&gt;Node30 -->
<g id="edge38" class="edge"><title>Node26&#45;&gt;Node30</title>
<path fill="none" stroke="midnightblue" d="M950.246,-251.936C885.923,-240.058 769.766,-218.608 700.67,-205.849"/>
<polygon fill="midnightblue" stroke="midnightblue" points="701.298,-202.406 690.829,-204.032 700.027,-209.29 701.298,-202.406"/>
</g>
<!-- Node31 -->
<g id="node31" class="node"><title>Node31</title>
<polygon fill="none" stroke="#bfbfbf" points="740.626,-185 740.626,-204 900.626,-204 900.626,-185 740.626,-185"/>
<text text-anchor="middle" x="820.626" y="-192" font-family="Helvetica,sans-Serif" font-size="10.00">Math/GenVector/Translation3D.h</text>
</g>
<!-- Node26&#45;&gt;Node31 -->
<g id="edge39" class="edge"><title>Node26&#45;&gt;Node31</title>
<path fill="none" stroke="midnightblue" d="M973.255,-251.869C942.532,-240.522 888.385,-220.525 853.531,-207.652"/>
<polygon fill="midnightblue" stroke="midnightblue" points="854.407,-204.245 843.814,-204.064 851.982,-210.811 854.407,-204.245"/>
</g>
<!-- Node32 -->
<g id="node32" class="node"><title>Node32</title>
<polygon fill="none" stroke="#bfbfbf" points="918.626,-185 918.626,-204 994.626,-204 994.626,-185 918.626,-185"/>
<text text-anchor="middle" x="956.626" y="-192" font-family="Helvetica,sans-Serif" font-size="10.00">TGeoMatrix.h</text>
</g>
<!-- Node26&#45;&gt;Node32 -->
<g id="edge41" class="edge"><title>Node26&#45;&gt;Node32</title>
<path fill="none" stroke="midnightblue" d="M991.232,-251.734C985.114,-241.793 974.988,-225.338 967.266,-212.789"/>
<polygon fill="midnightblue" stroke="midnightblue" points="970.157,-210.81 961.935,-204.127 964.196,-214.478 970.157,-210.81"/>
</g>
<!-- Node33 -->
<g id="node33" class="node"><title>Node33</title>
<polygon fill="none" stroke="#bfbfbf" points="1013.13,-185 1013.13,-204 1058.13,-204 1058.13,-185 1013.13,-185"/>
<text text-anchor="middle" x="1035.63" y="-192" font-family="Helvetica,sans-Serif" font-size="10.00">iosfwd</text>
</g>
<!-- Node26&#45;&gt;Node33 -->
<g id="edge42" class="edge"><title>Node26&#45;&gt;Node33</title>
<path fill="none" stroke="midnightblue" d="M1001.89,-251.734C1007.85,-241.793 1017.72,-225.338 1025.25,-212.789"/>
<polygon fill="midnightblue" stroke="midnightblue" points="1028.31,-214.503 1030.45,-204.127 1022.3,-210.901 1028.31,-214.503"/>
</g>
<!-- Node34 -->
<g id="node34" class="node"><title>Node34</title>
<g id="a_node34"><a xlink:href="../../d2/dd0/Cartesian2D_8h.html" target="_top" xlink:title="MathUtils/Cartesian2D.h">
<polygon fill="none" stroke="black" points="1478.13,-185 1478.13,-204 1603.13,-204 1603.13,-185 1478.13,-185"/>
<text text-anchor="middle" x="1540.63" y="-192" font-family="Helvetica,sans-Serif" font-size="10.00">MathUtils/Cartesian2D.h</text>
</a>
</g>
</g>
<!-- Node26&#45;&gt;Node34 -->
<g id="edge43" class="edge"><title>Node26&#45;&gt;Node34</title>
<path fill="none" stroke="midnightblue" d="M1059.19,-253.523C1143.57,-244.043 1298.51,-226.393 1430.63,-210 1442.77,-208.493 1455.66,-206.842 1468.17,-205.21"/>
<polygon fill="midnightblue" stroke="midnightblue" points="1468.65,-208.677 1478.11,-203.908 1467.74,-201.737 1468.65,-208.677"/>
</g>
<!-- Node35 -->
<g id="node35" class="node"><title>Node35</title>
<polygon fill="none" stroke="#bfbfbf" points="1323.13,-112.5 1323.13,-142.5 1474.13,-142.5 1474.13,-112.5 1323.13,-112.5"/>
<text text-anchor="start" x="1331.13" y="-130.5" font-family="Helvetica,sans-Serif" font-size="10.00">Math/GenVector/Displacement</text>
<text text-anchor="middle" x="1398.63" y="-119.5" font-family="Helvetica,sans-Serif" font-size="10.00">Vector2D.h</text>
</g>
<!-- Node34&#45;&gt;Node35 -->
<g id="edge44" class="edge"><title>Node34&#45;&gt;Node35</title>
<path fill="none" stroke="midnightblue" d="M1521.77,-184.869C1500.65,-175.199 1465.8,-159.249 1438.56,-146.778"/>
<polygon fill="midnightblue" stroke="midnightblue" points="1439.82,-143.508 1429.27,-142.528 1436.91,-149.873 1439.82,-143.508"/>
</g>
<!-- Node36 -->
<g id="node36" class="node"><title>Node36</title>
<polygon fill="none" stroke="#bfbfbf" points="1128.63,-118 1128.63,-137 1304.63,-137 1304.63,-118 1128.63,-118"/>
<text text-anchor="middle" x="1216.63" y="-125" font-family="Helvetica,sans-Serif" font-size="10.00">Math/GenVector/PositionVector2D.h</text>
</g>
<!-- Node34&#45;&gt;Node36 -->
<g id="edge45" class="edge"><title>Node34&#45;&gt;Node36</title>
<path fill="none" stroke="midnightblue" d="M1497.94,-184.936C1438.97,-173.106 1332.69,-151.784 1269,-139.006"/>
<polygon fill="midnightblue" stroke="midnightblue" points="1269.65,-135.567 1259.15,-137.032 1268.27,-142.43 1269.65,-135.567"/>
</g>
</g>
</svg>
        <g id="navigator" transform="translate(0 0)" fill="#404254">
                <rect fill="#f2f5e9" fill-opacity="0.5" stroke="#606060" stroke-width=".5" x="0" y="0" width="60" height="60"/>
                <use id="zoomplus" xlink:href="#zoomPlus" x="17" y="9" onmousedown="handleZoom(evt,'in')"/>
                <use id="zoomminus" xlink:href="#zoomMin" x="42" y="9" onmousedown="handleZoom(evt,'out')"/>
                <use id="reset" xlink:href="#resetDef" x="30" y="36" onmousedown="handleReset()"/>
                <g id="arrowUp" xlink:href="#dirArrow" transform="translate(30 24)" onmousedown="handlePan(0,-1)">
                  <use xlink:href="#rim" fill="#404040">
                        <set attributeName="fill" to="#808080" begin="arrowUp.mouseover" end="arrowUp.mouseout"/>
                  </use>
                  <path fill="none" stroke="white" stroke-width="1.5" d="M0,-3.0v7 M-2.5,-0.5L0,-3.0L2.5,-0.5"/>
                </g>
                <g id="arrowRight" xlink:href="#dirArrow" transform="rotate(90) translate(36 -43)" onmousedown="handlePan(1,0)">
                  <use xlink:href="#rim" fill="#404040">
                        <set attributeName="fill" to="#808080" begin="arrowRight.mouseover" end="arrowRight.mouseout"/>
                  </use>
                  <path fill="none" stroke="white" stroke-width="1.5" d="M0,-3.0v7 M-2.5,-0.5L0,-3.0L2.5,-0.5"/>
                </g>
                <g id="arrowDown" xlink:href="#dirArrow" transform="rotate(180) translate(-30 -48)" onmousedown="handlePan(0,1)">
                  <use xlink:href="#rim" fill="#404040">
                        <set attributeName="fill" to="#808080" begin="arrowDown.mouseover" end="arrowDown.mouseout"/>
                  </use>
                  <path fill="none" stroke="white" stroke-width="1.5" d="M0,-3.0v7 M-2.5,-0.5L0,-3.0L2.5,-0.5"/>
                </g>
                <g id="arrowLeft" xlink:href="#dirArrow" transform="rotate(270) translate(-36 17)" onmousedown="handlePan(-1,0)">
                  <use xlink:href="#rim" fill="#404040">
                        <set attributeName="fill" to="#808080" begin="arrowLeft.mouseover" end="arrowLeft.mouseout"/>
                  </use>
                  <path fill="none" stroke="white" stroke-width="1.5" d="M0,-3.0v7 M-2.5,-0.5L0,-3.0L2.5,-0.5"/>
                </g>
        </g>
        <svg viewBox="0 0 15 15" width="100%" height="30px" preserveAspectRatio="xMaxYMin meet">
         <g id="arrow_out" transform="scale(0.3 0.3)">
          <a xlink:href="TRDGeometry_8h__incl_org.svg" target="_base">
           <rect id="button" ry="5" rx="5" y="6" x="6" height="38" width="38"
                fill="#f2f5e9" fill-opacity="0.5" stroke="#606060" stroke-width="1.0"/>
           <path id="arrow"
             d="M 11.500037,31.436501 C 11.940474,20.09759 22.043105,11.32322 32.158766,21.979434 L 37.068811,17.246167 C 37.068811,17.246167 37.088388,32 37.088388,32 L 22.160133,31.978069 C 22.160133,31.978069 26.997745,27.140456 26.997745,27.140456 C 18.528582,18.264221 13.291696,25.230495 11.500037,31.436501 z"
             style="fill:#404040;"/>
          </a>
         </g>
        </svg>
</svg>
