<?xml version="1.0" encoding="UTF-8" standalone="no"?>
<!DOCTYPE svg PUBLIC "-//W3C//DTD SVG 1.1//EN"
 "http://www.w3.org/Graphics/SVG/1.1/DTD/svg11.dtd">
<!-- Generated by graphviz version 2.38.0 (20140413.2041)
 -->
<!-- Title: o2::tof::compressed::CrateTrailer_t Pages: 1 -->
<svg width="121pt" height="303pt"
 viewBox="0.00 0.00 121.00 303.00" xmlns="http://www.w3.org/2000/svg" xmlns:xlink="http://www.w3.org/1999/xlink">
<g id="graph0" class="graph" transform="scale(1 1) rotate(0) translate(4 299)">
<title>o2::tof::compressed::CrateTrailer_t</title>
<!-- Node1 -->
<g id="node1" class="node"><title>Node1</title>
<polygon fill="#bfbfbf" stroke="black" points="0,-0.5 0,-79.5 104,-79.5 104,-0.5 0,-0.5"/>
<text text-anchor="start" x="8" y="-67.5" font-family="Helvetica,sans-Serif" font-size="10.00">o2::tof::compressed</text>
<text text-anchor="middle" x="52" y="-56.5" font-family="Helvetica,sans-Serif" font-size="10.00">::CrateTrailer_t</text>
<polyline fill="none" stroke="black" points="0,-49.5 104,-49.5 "/>
<text text-anchor="start" x="8" y="-37.5" font-family="Helvetica,sans-Serif" font-size="10.00">+ trmFault11</text>
<text text-anchor="start" x="8" y="-26.5" font-family="Helvetica,sans-Serif" font-size="10.00">+ trmFault12</text>
<polyline fill="none" stroke="black" points="0,-19.5 104,-19.5 "/>
<text text-anchor="middle" x="52" y="-7.5" font-family="Helvetica,sans-Serif" font-size="10.00"> </text>
</g>
<!-- Node2 -->
<g id="node2" class="node"><title>Node2</title>
<polygon fill="none" stroke="#bfbfbf" points="26.5,-237.5 26.5,-294.5 77.5,-294.5 77.5,-237.5 26.5,-237.5"/>
<text text-anchor="middle" x="52" y="-282.5" font-family="Helvetica,sans-Serif" font-size="10.00">uint32_t</text>
<polyline fill="none" stroke="#bfbfbf" points="26.5,-275.5 77.5,-275.5 "/>
<text text-anchor="middle" x="52" y="-263.5" font-family="Helvetica,sans-Serif" font-size="10.00"> </text>
<polyline fill="none" stroke="#bfbfbf" points="26.5,-256.5 77.5,-256.5 "/>
<text text-anchor="middle" x="52" y="-244.5" font-family="Helvetica,sans-Serif" font-size="10.00"> </text>
</g>
<!-- Node2&#45;&gt;Node1 -->
<g id="edge1" class="edge"><title>Node2&#45;&gt;Node1</title>
<path fill="none" stroke="#404040" d="M52,-237.083C52,-200.849 52,-136.946 52,-91.9601"/>
<polygon fill="none" stroke="#404040" points="52.0001,-91.812 48,-85.812 52,-79.812 56,-85.812 52.0001,-91.812"/>
<text text-anchor="middle" x="82.5" y="-211" font-family="Helvetica,sans-Serif" font-size="10.00"> +mustBeOne</text>
<text text-anchor="middle" x="82.5" y="-200" font-family="Helvetica,sans-Serif" font-size="10.00">+trmFault03</text>
<text text-anchor="middle" x="82.5" y="-189" font-family="Helvetica,sans-Serif" font-size="10.00">+trmFault04</text>
<text text-anchor="middle" x="82.5" y="-178" font-family="Helvetica,sans-Serif" font-size="10.00">+trmFault05</text>
<text text-anchor="middle" x="82.5" y="-167" font-family="Helvetica,sans-Serif" font-size="10.00">+trmFault06</text>
<text text-anchor="middle" x="82.5" y="-156" font-family="Helvetica,sans-Serif" font-size="10.00">+trmFault07</text>
<text text-anchor="middle" x="82.5" y="-145" font-family="Helvetica,sans-Serif" font-size="10.00">+trmFault08</text>
<text text-anchor="middle" x="82.5" y="-134" font-family="Helvetica,sans-Serif" font-size="10.00">+trmFault09</text>
<text text-anchor="middle" x="82.5" y="-123" font-family="Helvetica,sans-Serif" font-size="10.00">+crateFault</text>
<text text-anchor="middle" x="82.5" y="-112" font-family="Helvetica,sans-Serif" font-size="10.00">+trmFault10</text>
<text text-anchor="middle" x="82.5" y="-101" font-family="Helvetica,sans-Serif" font-size="10.00">...</text>
</g>
</g>
</svg>
