<?xml version="1.0" encoding="UTF-8" standalone="no"?>
<!DOCTYPE svg PUBLIC "-//W3C//DTD SVG 1.1//EN"
 "http://www.w3.org/Graphics/SVG/1.1/DTD/svg11.dtd">
<!-- Generated by graphviz version 2.38.0 (20140413.2041)
 -->
<!-- Title: /home/travis/build/AliceO2Group/AliceO2/DataFormats/Detectors/FIT/FT0/include/DataFormatsFT0/RecPoints.h Pages: 1 -->
<!--zoomable 307 -->
<svg id="main" version="1.1" xmlns="http://www.w3.org/2000/svg" xmlns:xlink="http://www.w3.org/1999/xlink" xml:space="preserve" onload="init(evt)">
<style type="text/css"><![CDATA[
.edge:hover path { stroke: red; }
.edge:hover polygon { stroke: red; fill: red; }
]]></style>
<script type="text/javascript"><![CDATA[
var edges = document.getElementsByTagName('g');
if (edges && edges.length) {
  for (var i=0;i<edges.length;i++) {
    if (edges[i].id.substr(0,4)=='edge') {
      edges[i].setAttribute('class','edge');
    }
  }
}
]]></script>
        <defs>
                <circle id="rim" cx="0" cy="0" r="7"/>
                <circle id="rim2" cx="0" cy="0" r="3.5"/>
                <g id="zoomPlus">
                        <use xlink:href="#rim" fill="#404040">
                                <set attributeName="fill" to="#808080" begin="zoomplus.mouseover" end="zoomplus.mouseout"/>
                        </use>
                        <path d="M-4,0h8M0,-4v8" fill="none" stroke="white" stroke-width="1.5" pointer-events="none"/>
                </g>
                <g id="zoomMin">
                        <use xlink:href="#rim" fill="#404040">
                                <set attributeName="fill" to="#808080" begin="zoomminus.mouseover" end="zoomminus.mouseout"/>
                        </use>
                        <path d="M-4,0h8" fill="none" stroke="white" stroke-width="1.5" pointer-events="none"/>
                </g>
                <g id="dirArrow">
                        <path fill="none" stroke="white" stroke-width="1.5" d="M0,-3.0v7 M-2.5,-0.5L0,-3.0L2.5,-0.5"/>
                </g>
               <g id="resetDef">
                       <use xlink:href="#rim2" fill="#404040">
                               <set attributeName="fill" to="#808080" begin="reset.mouseover" end="reset.mouseout"/>
                       </use>
               </g>
        </defs>

<script type="text/javascript">
var viewWidth = 627;
var viewHeight = 307;
var sectionId = 'dynsection-0';
</script>
<script xlink:href="../../svgpan.js"/>
<svg id="graph" class="graph">
<g id="viewport">
<title>/home/travis/build/AliceO2Group/AliceO2/DataFormats/Detectors/FIT/FT0/include/DataFormatsFT0/RecPoints.h</title>
<!-- Node1 -->
<g id="node1" class="node"><title>Node1</title>
<polygon fill="#bfbfbf" stroke="black" points="285.931,-235.5 285.931,-298.5 451.931,-298.5 451.931,-235.5 285.931,-235.5"/>
<text text-anchor="start" x="293.931" y="-286.5" font-family="Helvetica,sans-Serif" font-size="10.00">/home/travis/build</text>
<text text-anchor="start" x="293.931" y="-275.5" font-family="Helvetica,sans-Serif" font-size="10.00">/AliceO2Group/AliceO2</text>
<text text-anchor="start" x="293.931" y="-264.5" font-family="Helvetica,sans-Serif" font-size="10.00">/DataFormats/Detectors</text>
<text text-anchor="start" x="293.931" y="-253.5" font-family="Helvetica,sans-Serif" font-size="10.00">/FIT/FT0/include/DataFormatsFT0</text>
<text text-anchor="middle" x="368.931" y="-242.5" font-family="Helvetica,sans-Serif" font-size="10.00">/RecPoints.h</text>
</g>
<!-- Node2 -->
<g id="node2" class="node"><title>Node2</title>
<g id="a_node2"><a xlink:href="../../d9/d80/InteractionRecord_8h.html" target="_top" xlink:title="CommonDataFormat/Interaction\lRecord.h">
<polygon fill="none" stroke="black" points="152.431,-112.5 152.431,-142.5 309.431,-142.5 309.431,-112.5 152.431,-112.5"/>
<text text-anchor="start" x="160.431" y="-130.5" font-family="Helvetica,sans-Serif" font-size="10.00">CommonDataFormat/Interaction</text>
<text text-anchor="middle" x="230.931" y="-119.5" font-family="Helvetica,sans-Serif" font-size="10.00">Record.h</text>
</a>
</g>
</g>
<!-- Node1&#45;&gt;Node2 -->
<g id="edge1" class="edge"><title>Node1&#45;&gt;Node2</title>
<path fill="none" stroke="midnightblue" d="M293.417,-235.413C277.156,-225.832 261.424,-213.79 249.931,-199 239.704,-185.839 234.97,-167.6 232.785,-152.971"/>
<polygon fill="midnightblue" stroke="midnightblue" points="236.212,-152.151 231.562,-142.631 229.261,-152.973 236.212,-152.151"/>
</g>
<!-- Node3 -->
<g id="node3" class="node"><title>Node3</title>
<polygon fill="none" stroke="#bfbfbf" points="180.931,-0.5 180.931,-19.5 236.931,-19.5 236.931,-0.5 180.931,-0.5"/>
<text text-anchor="middle" x="208.931" y="-7.5" font-family="Helvetica,sans-Serif" font-size="10.00">Rtypes.h</text>
</g>
<!-- Node1&#45;&gt;Node3 -->
<g id="edge11" class="edge"><title>Node1&#45;&gt;Node3</title>
<path fill="none" stroke="midnightblue" d="M285.597,-249.125C197.952,-226.434 64.5177,-176.696 3.93116,-76 -0.651525,-68.3835 -1.63982,-62.9265 3.93116,-56 24.4307,-30.5125 117,-18.6418 170.472,-13.8243"/>
<polygon fill="midnightblue" stroke="midnightblue" points="170.949,-17.2964 180.613,-12.9529 170.35,-10.3221 170.949,-17.2964"/>
</g>
<!-- Node8 -->
<g id="node8" class="node"><title>Node8</title>
<g id="a_node8"><a xlink:href="../../df/d5d/common_2include_2CommonDataFormat_2TimeStamp_8h.html" target="_top" xlink:title="CommonDataFormat/TimeStamp.h">
<polygon fill="none" stroke="black" points="448.931,-118 448.931,-137 618.931,-137 618.931,-118 448.931,-118"/>
<text text-anchor="middle" x="533.931" y="-125" font-family="Helvetica,sans-Serif" font-size="10.00">CommonDataFormat/TimeStamp.h</text>
</a>
</g>
</g>
<!-- Node1&#45;&gt;Node8 -->
<g id="edge7" class="edge"><title>Node1&#45;&gt;Node8</title>
<path fill="none" stroke="midnightblue" d="M452.047,-247.495C478.88,-237.473 506.235,-222.189 523.931,-199 535.047,-184.434 536.643,-163.102 536.017,-147.722"/>
<polygon fill="midnightblue" stroke="midnightblue" points="539.475,-147.036 535.226,-137.331 532.495,-147.568 539.475,-147.036"/>
</g>
<!-- Node10 -->
<g id="node10" class="node"><title>Node10</title>
<polygon fill="none" stroke="#bfbfbf" points="398.931,-179.5 398.931,-198.5 436.931,-198.5 436.931,-179.5 398.931,-179.5"/>
<text text-anchor="middle" x="417.931" y="-186.5" font-family="Helvetica,sans-Serif" font-size="10.00">array</text>
</g>
<!-- Node1&#45;&gt;Node10 -->
<g id="edge10" class="edge"><title>Node1&#45;&gt;Node10</title>
<path fill="none" stroke="midnightblue" d="M388.861,-235.088C394.955,-225.636 401.441,-215.577 406.736,-207.364"/>
<polygon fill="midnightblue" stroke="midnightblue" points="409.833,-209.019 412.31,-198.718 403.95,-205.226 409.833,-209.019"/>
</g>
<!-- Node11 -->
<g id="node11" class="node"><title>Node11</title>
<polygon fill="none" stroke="#bfbfbf" points="455.431,-179.5 455.431,-198.5 514.431,-198.5 514.431,-179.5 455.431,-179.5"/>
<text text-anchor="middle" x="484.931" y="-186.5" font-family="Helvetica,sans-Serif" font-size="10.00">TObject.h</text>
</g>
<!-- Node1&#45;&gt;Node11 -->
<g id="edge12" class="edge"><title>Node1&#45;&gt;Node11</title>
<path fill="none" stroke="midnightblue" d="M415.778,-235.307C432.229,-224.529 449.924,-212.936 463.296,-204.175"/>
<polygon fill="midnightblue" stroke="midnightblue" points="465.348,-207.015 471.795,-198.607 461.512,-201.159 465.348,-207.015"/>
</g>
<!-- Node12 -->
<g id="node12" class="node"><title>Node12</title>
<g id="a_node12"><a xlink:href="../../d0/d0a/DataFormats_2Detectors_2FIT_2FT0_2include_2DataFormatsFT0_2Digit_8h.html" target="_top" xlink:title="DataFormatsFT0/Digit.h">
<polygon fill="none" stroke="black" points="258.931,-179.5 258.931,-198.5 380.931,-198.5 380.931,-179.5 258.931,-179.5"/>
<text text-anchor="middle" x="319.931" y="-186.5" font-family="Helvetica,sans-Serif" font-size="10.00">DataFormatsFT0/Digit.h</text>
</a>
</g>
</g>
<!-- Node1&#45;&gt;Node12 -->
<g id="edge13" class="edge"><title>Node1&#45;&gt;Node12</title>
<path fill="none" stroke="midnightblue" d="M349.001,-235.088C342.907,-225.636 336.422,-215.577 331.127,-207.364"/>
<polygon fill="midnightblue" stroke="midnightblue" points="333.912,-205.226 325.552,-198.718 328.029,-209.019 333.912,-205.226"/>
</g>
<!-- Node2&#45;&gt;Node3 -->
<g id="edge2" class="edge"><title>Node2&#45;&gt;Node3</title>
<path fill="none" stroke="midnightblue" d="M152.193,-118.228C98.047,-110.727 32.9563,-97.4874 15.9312,-76 -26.1697,-22.8646 103.067,-12.8609 170.598,-11.1867"/>
<polygon fill="midnightblue" stroke="midnightblue" points="170.942,-14.6807 180.871,-10.9842 170.804,-7.68203 170.942,-14.6807"/>
</g>
<!-- Node4 -->
<g id="node4" class="node"><title>Node4</title>
<polygon fill="none" stroke="#bfbfbf" points="347.431,-56.5 347.431,-75.5 392.431,-75.5 392.431,-56.5 347.431,-56.5"/>
<text text-anchor="middle" x="369.931" y="-63.5" font-family="Helvetica,sans-Serif" font-size="10.00">iosfwd</text>
</g>
<!-- Node2&#45;&gt;Node4 -->
<g id="edge3" class="edge"><title>Node2&#45;&gt;Node4</title>
<path fill="none" stroke="midnightblue" d="M263.872,-112.399C287.09,-102.461 317.917,-89.2649 340.35,-79.6625"/>
<polygon fill="midnightblue" stroke="midnightblue" points="341.89,-82.8106 349.705,-75.6578 339.135,-76.3754 341.89,-82.8106"/>
</g>
<!-- Node5 -->
<g id="node5" class="node"><title>Node5</title>
<polygon fill="none" stroke="#bfbfbf" points="24.9312,-56.5 24.9312,-75.5 68.9312,-75.5 68.9312,-56.5 24.9312,-56.5"/>
<text text-anchor="middle" x="46.9312" y="-63.5" font-family="Helvetica,sans-Serif" font-size="10.00">cmath</text>
</g>
<!-- Node2&#45;&gt;Node5 -->
<g id="edge4" class="edge"><title>Node2&#45;&gt;Node5</title>
<path fill="none" stroke="midnightblue" d="M187.326,-112.399C153.908,-101.593 108.582,-86.9359 78.5794,-77.2341"/>
<polygon fill="midnightblue" stroke="midnightblue" points="79.6234,-73.8933 69.0315,-74.1466 77.4695,-80.5537 79.6234,-73.8933"/>
</g>
<!-- Node6 -->
<g id="node6" class="node"><title>Node6</title>
<polygon fill="none" stroke="#bfbfbf" points="86.9312,-56.5 86.9312,-75.5 132.931,-75.5 132.931,-56.5 86.9312,-56.5"/>
<text text-anchor="middle" x="109.931" y="-63.5" font-family="Helvetica,sans-Serif" font-size="10.00">cstdint</text>
</g>
<!-- Node2&#45;&gt;Node6 -->
<g id="edge5" class="edge"><title>Node2&#45;&gt;Node6</title>
<path fill="none" stroke="midnightblue" d="M202.256,-112.399C182.407,-102.639 156.17,-89.7373 136.74,-80.1826"/>
<polygon fill="midnightblue" stroke="midnightblue" points="138.056,-76.9297 127.538,-75.6578 134.967,-83.2114 138.056,-76.9297"/>
</g>
<!-- Node7 -->
<g id="node7" class="node"><title>Node7</title>
<g id="a_node7"><a xlink:href="../../d4/dc6/LHCConstants_8h.html" target="_top" xlink:title="Header to collect LHC related constants. ">
<polygon fill="none" stroke="black" points="150.931,-56.5 150.931,-75.5 328.931,-75.5 328.931,-56.5 150.931,-56.5"/>
<text text-anchor="middle" x="239.931" y="-63.5" font-family="Helvetica,sans-Serif" font-size="10.00">CommonConstants/LHCConstants.h</text>
</a>
</g>
</g>
<!-- Node2&#45;&gt;Node7 -->
<g id="edge6" class="edge"><title>Node2&#45;&gt;Node7</title>
<path fill="none" stroke="midnightblue" d="M233.064,-112.399C234.277,-104.377 235.812,-94.2328 237.122,-85.569"/>
<polygon fill="midnightblue" stroke="midnightblue" points="240.587,-86.0688 238.622,-75.6578 233.665,-85.0218 240.587,-86.0688"/>
</g>
<!-- Node9 -->
<g id="node9" class="node"><title>Node9</title>
<g id="a_node9"><a xlink:href="../../d2/d45/GPUCommonRtypes_8h.html" target="_top" xlink:title="GPUCommonRtypes.h">
<polygon fill="none" stroke="black" points="461.931,-56.5 461.931,-75.5 579.931,-75.5 579.931,-56.5 461.931,-56.5"/>
<text text-anchor="middle" x="520.931" y="-63.5" font-family="Helvetica,sans-Serif" font-size="10.00">GPUCommonRtypes.h</text>
</a>
</g>
</g>
<!-- Node8&#45;&gt;Node9 -->
<g id="edge8" class="edge"><title>Node8&#45;&gt;Node9</title>
<path fill="none" stroke="midnightblue" d="M532.069,-117.975C530.215,-109.492 527.312,-96.2043 524.934,-85.3222"/>
<polygon fill="midnightblue" stroke="midnightblue" points="528.344,-84.5315 522.79,-75.5091 521.506,-86.0257 528.344,-84.5315"/>
</g>
<!-- Node9&#45;&gt;Node3 -->
<g id="edge9" class="edge"><title>Node9&#45;&gt;Node3</title>
<path fill="none" stroke="midnightblue" d="M471.494,-56.4435C409.217,-45.6648 303.537,-27.3741 247.112,-17.6081"/>
<polygon fill="midnightblue" stroke="midnightblue" points="247.621,-14.1443 237.17,-15.8876 246.427,-21.0418 247.621,-14.1443"/>
</g>
<!-- Node12&#45;&gt;Node2 -->
<g id="edge14" class="edge"><title>Node12&#45;&gt;Node2</title>
<path fill="none" stroke="midnightblue" d="M307.18,-179.475C295.013,-171.341 276.24,-158.791 260.367,-148.179"/>
<polygon fill="midnightblue" stroke="midnightblue" points="262.165,-145.171 251.907,-142.523 258.275,-150.99 262.165,-145.171"/>
</g>
<!-- Node12&#45;&gt;Node3 -->
<g id="edge17" class="edge"><title>Node12&#45;&gt;Node3</title>
<path fill="none" stroke="midnightblue" d="M332.817,-179.194C363.338,-157.283 435.005,-98.9829 400.931,-56 382.118,-32.2674 297.61,-19.8454 247.193,-14.4355"/>
<polygon fill="midnightblue" stroke="midnightblue" points="247.294,-10.9275 236.988,-13.386 246.578,-17.8907 247.294,-10.9275"/>
</g>
<!-- Node12&#45;&gt;Node4 -->
<g id="edge16" class="edge"><title>Node12&#45;&gt;Node4</title>
<path fill="none" stroke="midnightblue" d="M323.527,-179.298C331.635,-159.676 351.486,-111.638 362.413,-85.1933"/>
<polygon fill="midnightblue" stroke="midnightblue" points="365.783,-86.2019 366.368,-75.6232 359.314,-83.5285 365.783,-86.2019"/>
</g>
<!-- Node12&#45;&gt;Node8 -->
<g id="edge15" class="edge"><title>Node12&#45;&gt;Node8</title>
<path fill="none" stroke="midnightblue" d="M350.592,-179.475C388.175,-169.026 451.975,-151.287 493.529,-139.733"/>
<polygon fill="midnightblue" stroke="midnightblue" points="494.63,-143.06 503.327,-137.009 492.755,-136.316 494.63,-143.06"/>
</g>
</g>
</svg>
        <g id="navigator" transform="translate(0 0)" fill="#404254">
                <rect fill="#f2f5e9" fill-opacity="0.5" stroke="#606060" stroke-width=".5" x="0" y="0" width="60" height="60"/>
                <use id="zoomplus" xlink:href="#zoomPlus" x="17" y="9" onmousedown="handleZoom(evt,'in')"/>
                <use id="zoomminus" xlink:href="#zoomMin" x="42" y="9" onmousedown="handleZoom(evt,'out')"/>
                <use id="reset" xlink:href="#resetDef" x="30" y="36" onmousedown="handleReset()"/>
                <g id="arrowUp" xlink:href="#dirArrow" transform="translate(30 24)" onmousedown="handlePan(0,-1)">
                  <use xlink:href="#rim" fill="#404040">
                        <set attributeName="fill" to="#808080" begin="arrowUp.mouseover" end="arrowUp.mouseout"/>
                  </use>
                  <path fill="none" stroke="white" stroke-width="1.5" d="M0,-3.0v7 M-2.5,-0.5L0,-3.0L2.5,-0.5"/>
                </g>
                <g id="arrowRight" xlink:href="#dirArrow" transform="rotate(90) translate(36 -43)" onmousedown="handlePan(1,0)">
                  <use xlink:href="#rim" fill="#404040">
                        <set attributeName="fill" to="#808080" begin="arrowRight.mouseover" end="arrowRight.mouseout"/>
                  </use>
                  <path fill="none" stroke="white" stroke-width="1.5" d="M0,-3.0v7 M-2.5,-0.5L0,-3.0L2.5,-0.5"/>
                </g>
                <g id="arrowDown" xlink:href="#dirArrow" transform="rotate(180) translate(-30 -48)" onmousedown="handlePan(0,1)">
                  <use xlink:href="#rim" fill="#404040">
                        <set attributeName="fill" to="#808080" begin="arrowDown.mouseover" end="arrowDown.mouseout"/>
                  </use>
                  <path fill="none" stroke="white" stroke-width="1.5" d="M0,-3.0v7 M-2.5,-0.5L0,-3.0L2.5,-0.5"/>
                </g>
                <g id="arrowLeft" xlink:href="#dirArrow" transform="rotate(270) translate(-36 17)" onmousedown="handlePan(-1,0)">
                  <use xlink:href="#rim" fill="#404040">
                        <set attributeName="fill" to="#808080" begin="arrowLeft.mouseover" end="arrowLeft.mouseout"/>
                  </use>
                  <path fill="none" stroke="white" stroke-width="1.5" d="M0,-3.0v7 M-2.5,-0.5L0,-3.0L2.5,-0.5"/>
                </g>
        </g>
        <svg viewBox="0 0 15 15" width="100%" height="30px" preserveAspectRatio="xMaxYMin meet">
         <g id="arrow_out" transform="scale(0.3 0.3)">
          <a xlink:href="RecPoints_8h__incl_org.svg" target="_base">
           <rect id="button" ry="5" rx="5" y="6" x="6" height="38" width="38"
                fill="#f2f5e9" fill-opacity="0.5" stroke="#606060" stroke-width="1.0"/>
           <path id="arrow"
             d="M 11.500037,31.436501 C 11.940474,20.09759 22.043105,11.32322 32.158766,21.979434 L 37.068811,17.246167 C 37.068811,17.246167 37.088388,32 37.088388,32 L 22.160133,31.978069 C 22.160133,31.978069 26.997745,27.140456 26.997745,27.140456 C 18.528582,18.264221 13.291696,25.230495 11.500037,31.436501 z"
             style="fill:#404040;"/>
          </a>
         </g>
        </svg>
</svg>
