<?xml version="1.0" encoding="UTF-8" standalone="no"?>
<!DOCTYPE svg PUBLIC "-//W3C//DTD SVG 1.1//EN"
 "http://www.w3.org/Graphics/SVG/1.1/DTD/svg11.dtd">
<!-- Generated by graphviz version 2.38.0 (20140413.2041)
 -->
<!-- Title: o2::framework::data_matcher::StartTimeValueMatcher Pages: 1 -->
<!--zoomable 525 -->
<svg id="main" version="1.1" xmlns="http://www.w3.org/2000/svg" xmlns:xlink="http://www.w3.org/1999/xlink" xml:space="preserve" onload="init(evt)">
<style type="text/css"><![CDATA[
.edge:hover path { stroke: red; }
.edge:hover polygon { stroke: red; fill: red; }
]]></style>
<script type="text/javascript"><![CDATA[
var edges = document.getElementsByTagName('g');
if (edges && edges.length) {
  for (var i=0;i<edges.length;i++) {
    if (edges[i].id.substr(0,4)=='edge') {
      edges[i].setAttribute('class','edge');
    }
  }
}
]]></script>
        <defs>
                <circle id="rim" cx="0" cy="0" r="7"/>
                <circle id="rim2" cx="0" cy="0" r="3.5"/>
                <g id="zoomPlus">
                        <use xlink:href="#rim" fill="#404040">
                                <set attributeName="fill" to="#808080" begin="zoomplus.mouseover" end="zoomplus.mouseout"/>
                        </use>
                        <path d="M-4,0h8M0,-4v8" fill="none" stroke="white" stroke-width="1.5" pointer-events="none"/>
                </g>
                <g id="zoomMin">
                        <use xlink:href="#rim" fill="#404040">
                                <set attributeName="fill" to="#808080" begin="zoomminus.mouseover" end="zoomminus.mouseout"/>
                        </use>
                        <path d="M-4,0h8" fill="none" stroke="white" stroke-width="1.5" pointer-events="none"/>
                </g>
                <g id="dirArrow">
                        <path fill="none" stroke="white" stroke-width="1.5" d="M0,-3.0v7 M-2.5,-0.5L0,-3.0L2.5,-0.5"/>
                </g>
               <g id="resetDef">
                       <use xlink:href="#rim2" fill="#404040">
                               <set attributeName="fill" to="#808080" begin="reset.mouseover" end="reset.mouseout"/>
                       </use>
               </g>
        </defs>

<script type="text/javascript">
var viewWidth = 292;
var viewHeight = 525;
var sectionId = 'dynsection-1';
</script>
<script xlink:href="../../svgpan.js"/>
<svg id="graph" class="graph">
<g id="viewport">
<title>o2::framework::data_matcher::StartTimeValueMatcher</title>
<!-- Node1 -->
<g id="node1" class="node"><title>Node1</title>
<polygon fill="#bfbfbf" stroke="black" points="31,-0.5 31,-101.5 197,-101.5 197,-0.5 31,-0.5"/>
<text text-anchor="start" x="39" y="-89.5" font-family="Helvetica,sans-Serif" font-size="10.00">o2::framework::data</text>
<text text-anchor="middle" x="114" y="-78.5" font-family="Helvetica,sans-Serif" font-size="10.00">_matcher::StartTimeValueMatcher</text>
<polyline fill="none" stroke="black" points="31,-71.5 197,-71.5 "/>
<text text-anchor="middle" x="114" y="-59.5" font-family="Helvetica,sans-Serif" font-size="10.00"> </text>
<polyline fill="none" stroke="black" points="31,-52.5 197,-52.5 "/>
<text text-anchor="start" x="39" y="-40.5" font-family="Helvetica,sans-Serif" font-size="10.00">+ StartTimeValueMatcher()</text>
<text text-anchor="start" x="39" y="-29.5" font-family="Helvetica,sans-Serif" font-size="10.00">+ StartTimeValueMatcher()</text>
<text text-anchor="start" x="39" y="-18.5" font-family="Helvetica,sans-Serif" font-size="10.00">+ StartTimeValueMatcher()</text>
<text text-anchor="start" x="39" y="-7.5" font-family="Helvetica,sans-Serif" font-size="10.00">+ match()</text>
</g>
<!-- Node2 -->
<g id="node2" class="node"><title>Node2</title>
<g id="a_node2"><a xlink:href="../../dc/d72/classo2_1_1framework_1_1data__matcher_1_1ValueHolder.html" target="_top" xlink:title="{o2::framework::data\l_matcher::ValueHolder\l\&lt; uint64_t \&gt;\n||+ ValueHolder()\l+ ValueHolder()\l+ operator==()\l+ visit()\l}">
<polygon fill="none" stroke="black" points="56,-139.5 56,-251.5 172,-251.5 172,-139.5 56,-139.5"/>
<text text-anchor="start" x="64" y="-239.5" font-family="Helvetica,sans-Serif" font-size="10.00">o2::framework::data</text>
<text text-anchor="start" x="64" y="-228.5" font-family="Helvetica,sans-Serif" font-size="10.00">_matcher::ValueHolder</text>
<text text-anchor="middle" x="114" y="-217.5" font-family="Helvetica,sans-Serif" font-size="10.00">&lt; uint64_t &gt;</text>
<polyline fill="none" stroke="black" points="56,-210.5 172,-210.5 "/>
<text text-anchor="middle" x="114" y="-198.5" font-family="Helvetica,sans-Serif" font-size="10.00"> </text>
<polyline fill="none" stroke="black" points="56,-191.5 172,-191.5 "/>
<text text-anchor="start" x="64" y="-179.5" font-family="Helvetica,sans-Serif" font-size="10.00">+ ValueHolder()</text>
<text text-anchor="start" x="64" y="-168.5" font-family="Helvetica,sans-Serif" font-size="10.00">+ ValueHolder()</text>
<text text-anchor="start" x="64" y="-157.5" font-family="Helvetica,sans-Serif" font-size="10.00">+ operator==()</text>
<text text-anchor="start" x="64" y="-146.5" font-family="Helvetica,sans-Serif" font-size="10.00">+ visit()</text>
</a>
</g>
</g>
<!-- Node2&#45;&gt;Node1 -->
<g id="edge1" class="edge"><title>Node2&#45;&gt;Node1</title>
<path fill="none" stroke="midnightblue" d="M114,-129.134C114,-119.957 114,-110.65 114,-101.826"/>
<polygon fill="none" stroke="midnightblue" points="110.5,-129.406 114,-139.406 117.5,-129.406 110.5,-129.406"/>
</g>
<!-- Node3 -->
<g id="node3" class="node"><title>Node3</title>
<g id="a_node3"><a xlink:href="../../d5/d87/classstd_1_1variant_3_01uint64__t_00_01o2_1_1framework_1_1data__matcher_1_1ContextRef_01_4.html" target="_top" xlink:title="{variant\&lt; uint64_t,\l o2::framework::data\l_matcher::ContextRef \&gt;\n||}">
<polygon fill="none" stroke="black" points="0,-310.5 0,-389.5 122,-389.5 122,-310.5 0,-310.5"/>
<text text-anchor="start" x="8" y="-377.5" font-family="Helvetica,sans-Serif" font-size="10.00">variant&lt; uint64_t,</text>
<text text-anchor="start" x="8" y="-366.5" font-family="Helvetica,sans-Serif" font-size="10.00"> o2::framework::data</text>
<text text-anchor="middle" x="61" y="-355.5" font-family="Helvetica,sans-Serif" font-size="10.00">_matcher::ContextRef &gt;</text>
<polyline fill="none" stroke="black" points="0,-348.5 122,-348.5 "/>
<text text-anchor="middle" x="61" y="-336.5" font-family="Helvetica,sans-Serif" font-size="10.00"> </text>
<polyline fill="none" stroke="black" points="0,-329.5 122,-329.5 "/>
<text text-anchor="middle" x="61" y="-317.5" font-family="Helvetica,sans-Serif" font-size="10.00"> </text>
</a>
</g>
</g>
<!-- Node3&#45;&gt;Node2 -->
<g id="edge2" class="edge"><title>Node3&#45;&gt;Node2</title>
<path fill="none" stroke="#404040" d="M74.5113,-310.123C79.4718,-295.85 85.2389,-279.256 90.8081,-263.231"/>
<polygon fill="none" stroke="#404040" points="90.8745,-263.04 89.0659,-256.059 94.814,-251.705 96.6226,-258.686 90.8745,-263.04"/>
<text text-anchor="middle" x="108" y="-273" font-family="Helvetica,sans-Serif" font-size="10.00"> #mValue</text>
</g>
<!-- Node4 -->
<g id="node4" class="node"><title>Node4</title>
<g id="a_node4"><a xlink:href="../../dc/d72/classo2_1_1framework_1_1data__matcher_1_1ValueHolder.html" target="_top" xlink:title="{o2::framework::data\l_matcher::ValueHolder\&lt; T \&gt;\n||+ ValueHolder()\l+ ValueHolder()\l+ operator==()\l+ visit()\l}">
<polygon fill="none" stroke="black" points="140,-299.5 140,-400.5 280,-400.5 280,-299.5 140,-299.5"/>
<text text-anchor="start" x="148" y="-388.5" font-family="Helvetica,sans-Serif" font-size="10.00">o2::framework::data</text>
<text text-anchor="middle" x="210" y="-377.5" font-family="Helvetica,sans-Serif" font-size="10.00">_matcher::ValueHolder&lt; T &gt;</text>
<polyline fill="none" stroke="black" points="140,-370.5 280,-370.5 "/>
<text text-anchor="middle" x="210" y="-358.5" font-family="Helvetica,sans-Serif" font-size="10.00"> </text>
<polyline fill="none" stroke="black" points="140,-351.5 280,-351.5 "/>
<text text-anchor="start" x="148" y="-339.5" font-family="Helvetica,sans-Serif" font-size="10.00">+ ValueHolder()</text>
<text text-anchor="start" x="148" y="-328.5" font-family="Helvetica,sans-Serif" font-size="10.00">+ ValueHolder()</text>
<text text-anchor="start" x="148" y="-317.5" font-family="Helvetica,sans-Serif" font-size="10.00">+ operator==()</text>
<text text-anchor="start" x="148" y="-306.5" font-family="Helvetica,sans-Serif" font-size="10.00">+ visit()</text>
</a>
</g>
</g>
<!-- Node4&#45;&gt;Node2 -->
<g id="edge3" class="edge"><title>Node4&#45;&gt;Node2</title>
<path fill="none" stroke="orange" d="M173.314,-290.723C165.222,-277.869 156.676,-264.292 148.667,-251.569"/>
<polygon fill="orange" stroke="orange" points="170.542,-292.889 178.832,-299.488 176.466,-289.16 170.542,-292.889"/>
<text text-anchor="middle" x="192" y="-273" font-family="Helvetica,sans-Serif" font-size="10.00"> &lt; uint64_t &gt;</text>
</g>
<!-- Node5 -->
<g id="node5" class="node"><title>Node5</title>
<polygon fill="none" stroke="#bfbfbf" points="136.5,-448.5 136.5,-516.5 283.5,-516.5 283.5,-448.5 136.5,-448.5"/>
<text text-anchor="start" x="144.5" y="-504.5" font-family="Helvetica,sans-Serif" font-size="10.00">variant&lt; T, o2::framework</text>
<text text-anchor="middle" x="210" y="-493.5" font-family="Helvetica,sans-Serif" font-size="10.00">::data_matcher::ContextRef &gt;</text>
<polyline fill="none" stroke="#bfbfbf" points="136.5,-486.5 283.5,-486.5 "/>
<text text-anchor="middle" x="210" y="-474.5" font-family="Helvetica,sans-Serif" font-size="10.00"> </text>
<polyline fill="none" stroke="#bfbfbf" points="136.5,-467.5 283.5,-467.5 "/>
<text text-anchor="middle" x="210" y="-455.5" font-family="Helvetica,sans-Serif" font-size="10.00"> </text>
</g>
<!-- Node5&#45;&gt;Node4 -->
<g id="edge4" class="edge"><title>Node5&#45;&gt;Node4</title>
<path fill="none" stroke="#404040" d="M210,-448.232C210,-437.471 210,-425.168 210,-413.015"/>
<polygon fill="none" stroke="#404040" points="210,-412.975 206,-406.975 210,-400.975 214,-406.975 210,-412.975"/>
<text text-anchor="middle" x="231" y="-422" font-family="Helvetica,sans-Serif" font-size="10.00"> #mValue</text>
</g>
</g>
</svg>
        <g id="navigator" transform="translate(0 0)" fill="#404254">
                <rect fill="#f2f5e9" fill-opacity="0.5" stroke="#606060" stroke-width=".5" x="0" y="0" width="60" height="60"/>
                <use id="zoomplus" xlink:href="#zoomPlus" x="17" y="9" onmousedown="handleZoom(evt,'in')"/>
                <use id="zoomminus" xlink:href="#zoomMin" x="42" y="9" onmousedown="handleZoom(evt,'out')"/>
                <use id="reset" xlink:href="#resetDef" x="30" y="36" onmousedown="handleReset()"/>
                <g id="arrowUp" xlink:href="#dirArrow" transform="translate(30 24)" onmousedown="handlePan(0,-1)">
                  <use xlink:href="#rim" fill="#404040">
                        <set attributeName="fill" to="#808080" begin="arrowUp.mouseover" end="arrowUp.mouseout"/>
                  </use>
                  <path fill="none" stroke="white" stroke-width="1.5" d="M0,-3.0v7 M-2.5,-0.5L0,-3.0L2.5,-0.5"/>
                </g>
                <g id="arrowRight" xlink:href="#dirArrow" transform="rotate(90) translate(36 -43)" onmousedown="handlePan(1,0)">
                  <use xlink:href="#rim" fill="#404040">
                        <set attributeName="fill" to="#808080" begin="arrowRight.mouseover" end="arrowRight.mouseout"/>
                  </use>
                  <path fill="none" stroke="white" stroke-width="1.5" d="M0,-3.0v7 M-2.5,-0.5L0,-3.0L2.5,-0.5"/>
                </g>
                <g id="arrowDown" xlink:href="#dirArrow" transform="rotate(180) translate(-30 -48)" onmousedown="handlePan(0,1)">
                  <use xlink:href="#rim" fill="#404040">
                        <set attributeName="fill" to="#808080" begin="arrowDown.mouseover" end="arrowDown.mouseout"/>
                  </use>
                  <path fill="none" stroke="white" stroke-width="1.5" d="M0,-3.0v7 M-2.5,-0.5L0,-3.0L2.5,-0.5"/>
                </g>
                <g id="arrowLeft" xlink:href="#dirArrow" transform="rotate(270) translate(-36 17)" onmousedown="handlePan(-1,0)">
                  <use xlink:href="#rim" fill="#404040">
                        <set attributeName="fill" to="#808080" begin="arrowLeft.mouseover" end="arrowLeft.mouseout"/>
                  </use>
                  <path fill="none" stroke="white" stroke-width="1.5" d="M0,-3.0v7 M-2.5,-0.5L0,-3.0L2.5,-0.5"/>
                </g>
        </g>
        <svg viewBox="0 0 15 15" width="100%" height="30px" preserveAspectRatio="xMaxYMin meet">
         <g id="arrow_out" transform="scale(0.3 0.3)">
          <a xlink:href="classo2_1_1framework_1_1data__matcher_1_1StartTimeValueMatcher__coll__graph_org.svg" target="_base">
           <rect id="button" ry="5" rx="5" y="6" x="6" height="38" width="38"
                fill="#f2f5e9" fill-opacity="0.5" stroke="#606060" stroke-width="1.0"/>
           <path id="arrow"
             d="M 11.500037,31.436501 C 11.940474,20.09759 22.043105,11.32322 32.158766,21.979434 L 37.068811,17.246167 C 37.068811,17.246167 37.088388,32 37.088388,32 L 22.160133,31.978069 C 22.160133,31.978069 26.997745,27.140456 26.997745,27.140456 C 18.528582,18.264221 13.291696,25.230495 11.500037,31.436501 z"
             style="fill:#404040;"/>
          </a>
         </g>
        </svg>
</svg>
