<?xml version="1.0" encoding="UTF-8" standalone="no"?>
<!DOCTYPE svg PUBLIC "-//W3C//DTD SVG 1.1//EN"
 "http://www.w3.org/Graphics/SVG/1.1/DTD/svg11.dtd">
<!-- Generated by graphviz version 2.38.0 (20140413.2041)
 -->
<!-- Title: /home/travis/build/AliceO2Group/AliceO2/Detectors/ITSMFT/MFT/base/src/HalfDisk.cxx Pages: 1 -->
<svg width="974pt" height="341pt"
 viewBox="0.00 0.00 974.00 341.00" xmlns="http://www.w3.org/2000/svg" xmlns:xlink="http://www.w3.org/1999/xlink">
<g id="graph0" class="graph" transform="scale(1 1) rotate(0) translate(4 337)">
<title>/home/travis/build/AliceO2Group/AliceO2/Detectors/ITSMFT/MFT/base/src/HalfDisk.cxx</title>
<!-- Node1 -->
<g id="node1" class="node"><title>Node1</title>
<polygon fill="#bfbfbf" stroke="black" points="518.5,-280.5 518.5,-332.5 643.5,-332.5 643.5,-280.5 518.5,-280.5"/>
<text text-anchor="start" x="526.5" y="-320.5" font-family="Helvetica,sans-Serif" font-size="10.00">/home/travis/build</text>
<text text-anchor="start" x="526.5" y="-309.5" font-family="Helvetica,sans-Serif" font-size="10.00">/AliceO2Group/AliceO2</text>
<text text-anchor="start" x="526.5" y="-298.5" font-family="Helvetica,sans-Serif" font-size="10.00">/Detectors/ITSMFT/MFT</text>
<text text-anchor="middle" x="581" y="-287.5" font-family="Helvetica,sans-Serif" font-size="10.00">/base/src/HalfDisk.cxx</text>
</g>
<!-- Node2 -->
<g id="node2" class="node"><title>Node2</title>
<polygon fill="none" stroke="#bfbfbf" points="273,-0.5 273,-19.5 349,-19.5 349,-0.5 273,-0.5"/>
<text text-anchor="middle" x="311" y="-7.5" font-family="Helvetica,sans-Serif" font-size="10.00">TGeoMatrix.h</text>
</g>
<!-- Node1&#45;&gt;Node2 -->
<g id="edge1" class="edge"><title>Node1&#45;&gt;Node2</title>
<path fill="none" stroke="midnightblue" d="M518.271,-304.985C368.037,-302.061 0,-284.167 0,-179 0,-179 0,-179 0,-121 0,-65.9103 175.636,-31.4979 262.928,-17.7967"/>
<polygon fill="midnightblue" stroke="midnightblue" points="263.514,-21.2478 272.865,-16.2667 262.449,-14.3293 263.514,-21.2478"/>
</g>
<!-- Node3 -->
<g id="node3" class="node"><title>Node3</title>
<polygon fill="none" stroke="#bfbfbf" points="628,-224.5 628,-243.5 714,-243.5 714,-224.5 628,-224.5"/>
<text text-anchor="middle" x="671" y="-231.5" font-family="Helvetica,sans-Serif" font-size="10.00">TGeoManager.h</text>
</g>
<!-- Node1&#45;&gt;Node3 -->
<g id="edge2" class="edge"><title>Node1&#45;&gt;Node3</title>
<path fill="none" stroke="midnightblue" d="M612.984,-280.446C626.029,-270.227 640.67,-258.758 651.981,-249.898"/>
<polygon fill="midnightblue" stroke="midnightblue" points="654.185,-252.617 659.899,-243.695 649.869,-247.107 654.185,-252.617"/>
</g>
<!-- Node4 -->
<g id="node4" class="node"><title>Node4</title>
<polygon fill="none" stroke="#bfbfbf" points="732.5,-224.5 732.5,-243.5 805.5,-243.5 805.5,-224.5 732.5,-224.5"/>
<text text-anchor="middle" x="769" y="-231.5" font-family="Helvetica,sans-Serif" font-size="10.00">TGeoBBox.h</text>
</g>
<!-- Node1&#45;&gt;Node4 -->
<g id="edge3" class="edge"><title>Node1&#45;&gt;Node4</title>
<path fill="none" stroke="midnightblue" d="M643.601,-282.025C674.72,-270.355 711.024,-256.741 736.539,-247.173"/>
<polygon fill="midnightblue" stroke="midnightblue" points="737.957,-250.379 746.091,-243.591 735.499,-243.825 737.957,-250.379"/>
</g>
<!-- Node5 -->
<g id="node5" class="node"><title>Node5</title>
<polygon fill="none" stroke="#bfbfbf" points="844.5,-168.5 844.5,-187.5 915.5,-187.5 915.5,-168.5 844.5,-168.5"/>
<text text-anchor="middle" x="880" y="-175.5" font-family="Helvetica,sans-Serif" font-size="10.00">FairLogger.h</text>
</g>
<!-- Node1&#45;&gt;Node5 -->
<g id="edge4" class="edge"><title>Node1&#45;&gt;Node5</title>
<path fill="none" stroke="midnightblue" d="M643.692,-297.943C692.607,-289.99 760.929,-274.24 814,-244 835.726,-231.621 855.408,-210.301 867.514,-195.468"/>
<polygon fill="midnightblue" stroke="midnightblue" points="870.275,-197.618 873.724,-187.6 864.781,-193.281 870.275,-197.618"/>
</g>
<!-- Node6 -->
<g id="node6" class="node"><title>Node6</title>
<g id="a_node6"><a xlink:href="../../dc/d53/HalfDiskSegmentation_8h.html" target="_top" xlink:title="Class for the description of the structure of a half&#45;disk. ">
<polygon fill="none" stroke="black" points="255.5,-224.5 255.5,-243.5 424.5,-243.5 424.5,-224.5 255.5,-224.5"/>
<text text-anchor="middle" x="340" y="-231.5" font-family="Helvetica,sans-Serif" font-size="10.00">MFTBase/HalfDiskSegmentation.h</text>
</a>
</g>
</g>
<!-- Node1&#45;&gt;Node6 -->
<g id="edge5" class="edge"><title>Node1&#45;&gt;Node6</title>
<path fill="none" stroke="midnightblue" d="M518.309,-287.161C474.328,-274.295 416.882,-257.49 379.242,-246.479"/>
<polygon fill="midnightblue" stroke="midnightblue" points="379.758,-242.984 369.178,-243.535 377.793,-249.702 379.758,-242.984"/>
</g>
<!-- Node13 -->
<g id="node13" class="node"><title>Node13</title>
<g id="a_node13"><a xlink:href="../../d0/d12/Ladder_8h.html" target="_top" xlink:title="Class building the Ladder geometry. ">
<polygon fill="none" stroke="black" points="554,-56.5 554,-75.5 654,-75.5 654,-56.5 554,-56.5"/>
<text text-anchor="middle" x="604" y="-63.5" font-family="Helvetica,sans-Serif" font-size="10.00">MFTBase/Ladder.h</text>
</a>
</g>
</g>
<!-- Node1&#45;&gt;Node13 -->
<g id="edge16" class="edge"><title>Node1&#45;&gt;Node13</title>
<path fill="none" stroke="midnightblue" d="M565.581,-280.149C550.762,-252.553 532.101,-207.127 543,-168 552.111,-135.292 574.995,-102.598 589.998,-83.6121"/>
<polygon fill="midnightblue" stroke="midnightblue" points="592.857,-85.6449 596.448,-75.6772 587.424,-81.2299 592.857,-85.6449"/>
</g>
<!-- Node15 -->
<g id="node15" class="node"><title>Node15</title>
<g id="a_node15"><a xlink:href="../../d7/d73/HalfDisk_8h.html" target="_top" xlink:title="Class building geometry of one half of an MFT disk. ">
<polygon fill="none" stroke="black" points="552.5,-168.5 552.5,-187.5 661.5,-187.5 661.5,-168.5 552.5,-168.5"/>
<text text-anchor="middle" x="607" y="-175.5" font-family="Helvetica,sans-Serif" font-size="10.00">MFTBase/HalfDisk.h</text>
</a>
</g>
</g>
<!-- Node1&#45;&gt;Node15 -->
<g id="edge19" class="edge"><title>Node1&#45;&gt;Node15</title>
<path fill="none" stroke="midnightblue" d="M580.136,-280.157C580.169,-263.877 581.32,-242.41 586,-224 588.416,-214.496 592.831,-204.553 596.992,-196.438"/>
<polygon fill="midnightblue" stroke="midnightblue" points="600.096,-198.057 601.789,-187.598 593.943,-194.718 600.096,-198.057"/>
</g>
<!-- Node16 -->
<g id="node16" class="node"><title>Node16</title>
<g id="a_node16"><a xlink:href="../../d6/d2e/ITSMFT_2MFT_2base_2include_2MFTBase_2Geometry_8h.html" target="_top" xlink:title="MFTBase/Geometry.h">
<polygon fill="none" stroke="black" points="679.5,-168.5 679.5,-187.5 792.5,-187.5 792.5,-168.5 679.5,-168.5"/>
<text text-anchor="middle" x="736" y="-175.5" font-family="Helvetica,sans-Serif" font-size="10.00">MFTBase/Geometry.h</text>
</a>
</g>
</g>
<!-- Node1&#45;&gt;Node16 -->
<g id="edge21" class="edge"><title>Node1&#45;&gt;Node16</title>
<path fill="none" stroke="midnightblue" d="M587.253,-280.407C592.873,-262.546 602.792,-239.125 619,-224 636.386,-207.776 660.245,-197.204 681.884,-190.414"/>
<polygon fill="midnightblue" stroke="midnightblue" points="683.028,-193.726 691.639,-187.554 681.058,-187.009 683.028,-193.726"/>
</g>
<!-- Node17 -->
<g id="node17" class="node"><title>Node17</title>
<g id="a_node17"><a xlink:href="../../dd/dd3/HeatExchanger_8h.html" target="_top" xlink:title="MFT heat exchanger builder. ">
<polygon fill="none" stroke="black" points="398,-56.5 398,-75.5 536,-75.5 536,-56.5 398,-56.5"/>
<text text-anchor="middle" x="467" y="-63.5" font-family="Helvetica,sans-Serif" font-size="10.00">MFTBase/HeatExchanger.h</text>
</a>
</g>
</g>
<!-- Node1&#45;&gt;Node17 -->
<g id="edge23" class="edge"><title>Node1&#45;&gt;Node17</title>
<path fill="none" stroke="midnightblue" d="M562.681,-280.462C555.141,-269.564 546.638,-256.457 540,-244 510.367,-188.389 484.591,-118.08 473.209,-85.336"/>
<polygon fill="midnightblue" stroke="midnightblue" points="476.475,-84.0681 469.917,-75.7469 469.854,-86.3416 476.475,-84.0681"/>
</g>
<!-- Node18 -->
<g id="node18" class="node"><title>Node18</title>
<g id="a_node18"><a xlink:href="../../d0/d97/Support_8h.html" target="_top" xlink:title="Class describing geometry of one MFT half&#45;disk support. ">
<polygon fill="none" stroke="black" points="862,-224.5 862,-243.5 966,-243.5 966,-224.5 862,-224.5"/>
<text text-anchor="middle" x="914" y="-231.5" font-family="Helvetica,sans-Serif" font-size="10.00">MFTBase/Support.h</text>
</a>
</g>
</g>
<!-- Node1&#45;&gt;Node18 -->
<g id="edge27" class="edge"><title>Node1&#45;&gt;Node18</title>
<path fill="none" stroke="midnightblue" d="M643.635,-292.239C707.394,-278.741 804.987,-258.079 863.831,-245.621"/>
<polygon fill="midnightblue" stroke="midnightblue" points="864.583,-249.04 873.641,-243.545 863.133,-242.192 864.583,-249.04"/>
</g>
<!-- Node7 -->
<g id="node7" class="node"><title>Node7</title>
<polygon fill="none" stroke="#bfbfbf" points="28.5,-112.5 28.5,-131.5 109.5,-131.5 109.5,-112.5 28.5,-112.5"/>
<text text-anchor="middle" x="69" y="-119.5" font-family="Helvetica,sans-Serif" font-size="10.00">TXMLEngine.h</text>
</g>
<!-- Node6&#45;&gt;Node7 -->
<g id="edge6" class="edge"><title>Node6&#45;&gt;Node7</title>
<path fill="none" stroke="midnightblue" d="M315.323,-224.487C290.363,-215.757 250.755,-201.572 217,-188 174.658,-170.976 126.39,-149.352 96.8101,-135.842"/>
<polygon fill="midnightblue" stroke="midnightblue" points="98.0796,-132.573 87.5306,-131.589 95.1633,-138.937 98.0796,-132.573"/>
</g>
<!-- Node8 -->
<g id="node8" class="node"><title>Node8</title>
<g id="a_node8"><a xlink:href="../../d9/de7/LadderSegmentation_8h.html" target="_top" xlink:title="Description of the virtual segmentation of a ladder. ">
<polygon fill="none" stroke="black" points="226,-168.5 226,-187.5 386,-187.5 386,-168.5 226,-168.5"/>
<text text-anchor="middle" x="306" y="-175.5" font-family="Helvetica,sans-Serif" font-size="10.00">MFTBase/LadderSegmentation.h</text>
</a>
</g>
</g>
<!-- Node6&#45;&gt;Node8 -->
<g id="edge7" class="edge"><title>Node6&#45;&gt;Node8</title>
<path fill="none" stroke="midnightblue" d="M334.386,-224.083C329.633,-216.534 322.682,-205.495 316.848,-196.23"/>
<polygon fill="midnightblue" stroke="midnightblue" points="319.8,-194.349 311.51,-187.751 313.876,-198.078 319.8,-194.349"/>
</g>
<!-- Node10 -->
<g id="node10" class="node"><title>Node10</title>
<g id="a_node10"><a xlink:href="../../d3/de7/VSegmentation_8h.html" target="_top" xlink:title="Abstract base class for MFT Segmentation description. ">
<polygon fill="none" stroke="black" points="242.5,-56.5 242.5,-75.5 379.5,-75.5 379.5,-56.5 242.5,-56.5"/>
<text text-anchor="middle" x="311" y="-63.5" font-family="Helvetica,sans-Serif" font-size="10.00">MFTBase/VSegmentation.h</text>
</a>
</g>
</g>
<!-- Node6&#45;&gt;Node10 -->
<g id="edge15" class="edge"><title>Node6&#45;&gt;Node10</title>
<path fill="none" stroke="midnightblue" d="M355.59,-224.41C368.244,-216.598 385.493,-203.877 395,-188 412.533,-158.718 424.251,-140.84 406,-112 395.954,-96.1257 378.627,-85.7417 361.499,-78.9994"/>
<polygon fill="midnightblue" stroke="midnightblue" points="362.646,-75.6924 352.051,-75.6165 360.286,-82.2827 362.646,-75.6924"/>
</g>
<!-- Node8&#45;&gt;Node7 -->
<g id="edge9" class="edge"><title>Node8&#45;&gt;Node7</title>
<path fill="none" stroke="midnightblue" d="M268.447,-168.444C227.189,-159.043 160.856,-143.929 116.134,-133.739"/>
<polygon fill="midnightblue" stroke="midnightblue" points="116.905,-130.326 106.378,-131.516 115.35,-137.151 116.905,-130.326"/>
</g>
<!-- Node9 -->
<g id="node9" class="node"><title>Node9</title>
<polygon fill="none" stroke="#bfbfbf" points="127.5,-112.5 127.5,-131.5 212.5,-131.5 212.5,-112.5 127.5,-112.5"/>
<text text-anchor="middle" x="170" y="-119.5" font-family="Helvetica,sans-Serif" font-size="10.00">TClonesArray.h</text>
</g>
<!-- Node8&#45;&gt;Node9 -->
<g id="edge8" class="edge"><title>Node8&#45;&gt;Node9</title>
<path fill="none" stroke="midnightblue" d="M284.45,-168.444C261.969,-159.517 226.512,-145.439 201.02,-135.317"/>
<polygon fill="midnightblue" stroke="midnightblue" points="202.035,-131.954 191.449,-131.516 199.451,-138.46 202.035,-131.954"/>
</g>
<!-- Node8&#45;&gt;Node10 -->
<g id="edge10" class="edge"><title>Node8&#45;&gt;Node10</title>
<path fill="none" stroke="midnightblue" d="M338.986,-168.438C357.463,-161.769 378.952,-150.453 390,-132 403.752,-109.031 373.924,-90.5766 347.066,-79.2827"/>
<polygon fill="midnightblue" stroke="midnightblue" points="348.352,-76.0276 337.767,-75.5909 345.77,-82.5337 348.352,-76.0276"/>
</g>
<!-- Node12 -->
<g id="node12" class="node"><title>Node12</title>
<g id="a_node12"><a xlink:href="../../d3/dbd/ChipSegmentation_8h.html" target="_top" xlink:title="Chip (sensor) segmentation description. ">
<polygon fill="none" stroke="black" points="230.5,-112.5 230.5,-131.5 381.5,-131.5 381.5,-112.5 230.5,-112.5"/>
<text text-anchor="middle" x="306" y="-119.5" font-family="Helvetica,sans-Serif" font-size="10.00">MFTBase/ChipSegmentation.h</text>
</a>
</g>
</g>
<!-- Node8&#45;&gt;Node12 -->
<g id="edge13" class="edge"><title>Node8&#45;&gt;Node12</title>
<path fill="none" stroke="midnightblue" d="M306,-168.083C306,-161.006 306,-150.861 306,-141.986"/>
<polygon fill="midnightblue" stroke="midnightblue" points="309.5,-141.751 306,-131.751 302.5,-141.751 309.5,-141.751"/>
</g>
<!-- Node10&#45;&gt;Node2 -->
<g id="edge12" class="edge"><title>Node10&#45;&gt;Node2</title>
<path fill="none" stroke="midnightblue" d="M311,-56.083C311,-49.0059 311,-38.8611 311,-29.9865"/>
<polygon fill="midnightblue" stroke="midnightblue" points="314.5,-29.751 311,-19.7511 307.5,-29.7511 314.5,-29.751"/>
</g>
<!-- Node11 -->
<g id="node11" class="node"><title>Node11</title>
<polygon fill="none" stroke="#bfbfbf" points="573,-0.5 573,-19.5 635,-19.5 635,-0.5 573,-0.5"/>
<text text-anchor="middle" x="604" y="-7.5" font-family="Helvetica,sans-Serif" font-size="10.00">TNamed.h</text>
</g>
<!-- Node10&#45;&gt;Node11 -->
<g id="edge11" class="edge"><title>Node10&#45;&gt;Node11</title>
<path fill="none" stroke="midnightblue" d="M357.427,-56.4435C413.971,-46.0224 508.615,-28.5796 562.721,-18.6078"/>
<polygon fill="midnightblue" stroke="midnightblue" points="563.456,-22.0313 572.656,-16.7767 562.187,-15.1473 563.456,-22.0313"/>
</g>
<!-- Node12&#45;&gt;Node10 -->
<g id="edge14" class="edge"><title>Node12&#45;&gt;Node10</title>
<path fill="none" stroke="midnightblue" d="M306.826,-112.083C307.481,-105.006 308.42,-94.8611 309.242,-85.9865"/>
<polygon fill="midnightblue" stroke="midnightblue" points="312.753,-86.0312 310.19,-75.7511 305.783,-85.3858 312.753,-86.0312"/>
</g>
<!-- Node13&#45;&gt;Node11 -->
<g id="edge17" class="edge"><title>Node13&#45;&gt;Node11</title>
<path fill="none" stroke="midnightblue" d="M604,-56.083C604,-49.0059 604,-38.8611 604,-29.9865"/>
<polygon fill="midnightblue" stroke="midnightblue" points="607.5,-29.751 604,-19.7511 600.5,-29.7511 607.5,-29.751"/>
</g>
<!-- Node14 -->
<g id="node14" class="node"><title>Node14</title>
<polygon fill="none" stroke="#bfbfbf" points="449,-0.5 449,-19.5 531,-19.5 531,-0.5 449,-0.5"/>
<text text-anchor="middle" x="490" y="-7.5" font-family="Helvetica,sans-Serif" font-size="10.00">TGeoVolume.h</text>
</g>
<!-- Node13&#45;&gt;Node14 -->
<g id="edge18" class="edge"><title>Node13&#45;&gt;Node14</title>
<path fill="none" stroke="midnightblue" d="M585.936,-56.4435C567.425,-47.6751 538.419,-33.9355 517.145,-23.8579"/>
<polygon fill="midnightblue" stroke="midnightblue" points="518.515,-20.6343 507.979,-19.5164 515.518,-26.9604 518.515,-20.6343"/>
</g>
<!-- Node15&#45;&gt;Node11 -->
<g id="edge20" class="edge"><title>Node15&#45;&gt;Node11</title>
<path fill="none" stroke="midnightblue" d="M616.502,-168.419C637.346,-148.51 683.639,-97.6986 663,-56 656.397,-42.6595 643.735,-32.1941 631.829,-24.7262"/>
<polygon fill="midnightblue" stroke="midnightblue" points="633.391,-21.5866 622.984,-19.6018 629.882,-27.6435 633.391,-21.5866"/>
</g>
<!-- Node16&#45;&gt;Node11 -->
<g id="edge22" class="edge"><title>Node16&#45;&gt;Node11</title>
<path fill="none" stroke="midnightblue" d="M733.926,-168.388C728.422,-147.069 711.66,-91.0356 680,-56 667.57,-42.2446 649.929,-31.4447 634.771,-23.8768"/>
<polygon fill="midnightblue" stroke="midnightblue" points="636.258,-20.7085 625.723,-19.5848 633.258,-27.033 636.258,-20.7085"/>
</g>
<!-- Node17&#45;&gt;Node2 -->
<g id="edge26" class="edge"><title>Node17&#45;&gt;Node2</title>
<path fill="none" stroke="midnightblue" d="M442.281,-56.4435C416.152,-47.3986 374.741,-33.064 345.424,-22.9158"/>
<polygon fill="midnightblue" stroke="midnightblue" points="346.198,-19.4801 335.603,-19.5164 343.908,-26.0951 346.198,-19.4801"/>
</g>
<!-- Node17&#45;&gt;Node11 -->
<g id="edge24" class="edge"><title>Node17&#45;&gt;Node11</title>
<path fill="none" stroke="midnightblue" d="M488.708,-56.4435C511.355,-47.5171 547.072,-33.4387 572.752,-23.3168"/>
<polygon fill="midnightblue" stroke="midnightblue" points="574.374,-26.4397 582.394,-19.5164 571.807,-19.9273 574.374,-26.4397"/>
</g>
<!-- Node17&#45;&gt;Node14 -->
<g id="edge25" class="edge"><title>Node17&#45;&gt;Node14</title>
<path fill="none" stroke="midnightblue" d="M470.798,-56.083C473.913,-48.77 478.423,-38.1814 482.289,-29.1034"/>
<polygon fill="midnightblue" stroke="midnightblue" points="485.574,-30.3229 486.273,-19.7511 479.134,-27.5798 485.574,-30.3229"/>
</g>
<!-- Node18&#45;&gt;Node5 -->
<g id="edge28" class="edge"><title>Node18&#45;&gt;Node5</title>
<path fill="none" stroke="midnightblue" d="M908.386,-224.083C903.633,-216.534 896.682,-205.495 890.848,-196.23"/>
<polygon fill="midnightblue" stroke="midnightblue" points="893.8,-194.349 885.51,-187.751 887.876,-198.078 893.8,-194.349"/>
</g>
</g>
</svg>
