<?xml version="1.0" encoding="UTF-8" standalone="no"?>
<!DOCTYPE svg PUBLIC "-//W3C//DTD SVG 1.1//EN"
 "http://www.w3.org/Graphics/SVG/1.1/DTD/svg11.dtd">
<!-- Generated by graphviz version 2.38.0 (20140413.2041)
 -->
<!-- Title: /home/travis/build/AliceO2Group/AliceO2/GPU/GPUTracking/gpucf/src/gpucf/common/ClEnv.h Pages: 1 -->
<svg width="786pt" height="262pt"
 viewBox="0.00 0.00 786.00 262.00" xmlns="http://www.w3.org/2000/svg" xmlns:xlink="http://www.w3.org/1999/xlink">
<g id="graph0" class="graph" transform="scale(1 1) rotate(0) translate(4 258)">
<title>/home/travis/build/AliceO2Group/AliceO2/GPU/GPUTracking/gpucf/src/gpucf/common/ClEnv.h</title>
<!-- Node1 -->
<g id="node1" class="node"><title>Node1</title>
<polygon fill="#bfbfbf" stroke="black" points="470.5,-201.5 470.5,-253.5 609.5,-253.5 609.5,-201.5 470.5,-201.5"/>
<text text-anchor="start" x="478.5" y="-241.5" font-family="Helvetica,sans-Serif" font-size="10.00">/home/travis/build</text>
<text text-anchor="start" x="478.5" y="-230.5" font-family="Helvetica,sans-Serif" font-size="10.00">/AliceO2Group/AliceO2</text>
<text text-anchor="start" x="478.5" y="-219.5" font-family="Helvetica,sans-Serif" font-size="10.00">/GPU/GPUTracking/gpucf</text>
<text text-anchor="middle" x="540" y="-208.5" font-family="Helvetica,sans-Serif" font-size="10.00">/src/gpucf/common/ClEnv.h</text>
</g>
<!-- Node2 -->
<g id="node2" class="node"><title>Node2</title>
<g id="a_node2"><a xlink:href="../../da/dac/ClusterFinderConfig_8h.html" target="_top" xlink:title="gpucf/algorithms/Cluster\lFinderConfig.h">
<polygon fill="none" stroke="black" points="198.5,-134.5 198.5,-164.5 321.5,-164.5 321.5,-134.5 198.5,-134.5"/>
<text text-anchor="start" x="206.5" y="-152.5" font-family="Helvetica,sans-Serif" font-size="10.00">gpucf/algorithms/Cluster</text>
<text text-anchor="middle" x="260" y="-141.5" font-family="Helvetica,sans-Serif" font-size="10.00">FinderConfig.h</text>
</a>
</g>
</g>
<!-- Node1&#45;&gt;Node2 -->
<g id="edge1" class="edge"><title>Node1&#45;&gt;Node2</title>
<path fill="none" stroke="midnightblue" d="M470.427,-207.616C424.652,-195.191 365.294,-179.08 321.297,-167.138"/>
<polygon fill="midnightblue" stroke="midnightblue" points="322.158,-163.745 311.591,-164.503 320.325,-170.501 322.158,-163.745"/>
</g>
<!-- Node8 -->
<g id="node8" class="node"><title>Node8</title>
<polygon fill="none" stroke="#bfbfbf" points="339.5,-140 339.5,-159 392.5,-159 392.5,-140 339.5,-140"/>
<text text-anchor="middle" x="366" y="-147" font-family="Helvetica,sans-Serif" font-size="10.00">CL/cl2.h</text>
</g>
<!-- Node1&#45;&gt;Node8 -->
<g id="edge9" class="edge"><title>Node1&#45;&gt;Node8</title>
<path fill="none" stroke="midnightblue" d="M482.544,-201.404C453.137,-188.56 418.62,-173.484 394.823,-163.089"/>
<polygon fill="midnightblue" stroke="midnightblue" points="396.204,-159.873 385.639,-159.078 393.402,-166.288 396.204,-159.873"/>
</g>
<!-- Node9 -->
<g id="node9" class="node"><title>Node9</title>
<polygon fill="none" stroke="#bfbfbf" points="410.5,-140 410.5,-159 475.5,-159 475.5,-140 410.5,-140"/>
<text text-anchor="middle" x="443" y="-147" font-family="Helvetica,sans-Serif" font-size="10.00">args/args.h</text>
</g>
<!-- Node1&#45;&gt;Node9 -->
<g id="edge10" class="edge"><title>Node1&#45;&gt;Node9</title>
<path fill="none" stroke="midnightblue" d="M507.97,-201.404C492.905,-189.601 475.434,-175.912 462.406,-165.705"/>
<polygon fill="midnightblue" stroke="midnightblue" points="464.211,-162.672 454.18,-159.26 459.893,-168.182 464.211,-162.672"/>
</g>
<!-- Node10 -->
<g id="node10" class="node"><title>Node10</title>
<polygon fill="none" stroke="#bfbfbf" points="494,-140 494,-159 586,-159 586,-140 494,-140"/>
<text text-anchor="middle" x="540" y="-147" font-family="Helvetica,sans-Serif" font-size="10.00">filesystem/path.h</text>
</g>
<!-- Node1&#45;&gt;Node10 -->
<g id="edge11" class="edge"><title>Node1&#45;&gt;Node10</title>
<path fill="none" stroke="midnightblue" d="M540,-201.193C540,-190.765 540,-178.896 540,-169.266"/>
<polygon fill="midnightblue" stroke="midnightblue" points="543.5,-169.209 540,-159.209 536.5,-169.209 543.5,-169.209"/>
</g>
<!-- Node11 -->
<g id="node11" class="node"><title>Node11</title>
<polygon fill="none" stroke="#bfbfbf" points="604,-140 604,-159 656,-159 656,-140 604,-140"/>
<text text-anchor="middle" x="630" y="-147" font-family="Helvetica,sans-Serif" font-size="10.00">memory</text>
</g>
<!-- Node1&#45;&gt;Node11 -->
<g id="edge12" class="edge"><title>Node1&#45;&gt;Node11</title>
<path fill="none" stroke="midnightblue" d="M569.969,-201.193C583.794,-189.518 599.759,-176.037 611.747,-165.913"/>
<polygon fill="midnightblue" stroke="midnightblue" points="614.305,-168.335 619.687,-159.209 609.788,-162.987 614.305,-168.335"/>
</g>
<!-- Node12 -->
<g id="node12" class="node"><title>Node12</title>
<polygon fill="none" stroke="#bfbfbf" points="674.5,-140 674.5,-159 715.5,-159 715.5,-140 674.5,-140"/>
<text text-anchor="middle" x="695" y="-147" font-family="Helvetica,sans-Serif" font-size="10.00">string</text>
</g>
<!-- Node1&#45;&gt;Node12 -->
<g id="edge13" class="edge"><title>Node1&#45;&gt;Node12</title>
<path fill="none" stroke="midnightblue" d="M591.182,-201.404C617.029,-188.731 647.306,-173.885 668.471,-163.508"/>
<polygon fill="midnightblue" stroke="midnightblue" points="670.068,-166.623 677.506,-159.078 666.986,-160.338 670.068,-166.623"/>
</g>
<!-- Node13 -->
<g id="node13" class="node"><title>Node13</title>
<polygon fill="none" stroke="#bfbfbf" points="734,-140 734,-159 778,-159 778,-140 734,-140"/>
<text text-anchor="middle" x="756" y="-147" font-family="Helvetica,sans-Serif" font-size="10.00">vector</text>
</g>
<!-- Node1&#45;&gt;Node13 -->
<g id="edge14" class="edge"><title>Node1&#45;&gt;Node13</title>
<path fill="none" stroke="midnightblue" d="M609.654,-205.462C644.621,-194.368 687.427,-179.973 725,-165 726.38,-164.45 727.786,-163.869 729.2,-163.269"/>
<polygon fill="midnightblue" stroke="midnightblue" points="730.745,-166.412 738.451,-159.142 727.893,-160.02 730.745,-166.412"/>
</g>
<!-- Node3 -->
<g id="node3" class="node"><title>Node3</title>
<g id="a_node3"><a xlink:href="../../dc/db2/ChargemapLayout_8h.html" target="_top" xlink:title="gpucf/algorithms/Chargemap\lLayout.h">
<polygon fill="none" stroke="black" points="0,-67.5 0,-97.5 142,-97.5 142,-67.5 0,-67.5"/>
<text text-anchor="start" x="8" y="-85.5" font-family="Helvetica,sans-Serif" font-size="10.00">gpucf/algorithms/Chargemap</text>
<text text-anchor="middle" x="71" y="-74.5" font-family="Helvetica,sans-Serif" font-size="10.00">Layout.h</text>
</a>
</g>
</g>
<!-- Node2&#45;&gt;Node3 -->
<g id="edge2" class="edge"><title>Node2&#45;&gt;Node3</title>
<path fill="none" stroke="midnightblue" d="M218.99,-134.396C190.384,-124.558 152.028,-111.367 121.533,-100.879"/>
<polygon fill="midnightblue" stroke="midnightblue" points="122.525,-97.519 111.93,-97.5765 120.248,-104.139 122.525,-97.519"/>
</g>
<!-- Node4 -->
<g id="node4" class="node"><title>Node4</title>
<polygon fill="none" stroke="#bfbfbf" points="108.5,-0.5 108.5,-30.5 231.5,-30.5 231.5,-0.5 108.5,-0.5"/>
<text text-anchor="start" x="116.5" y="-18.5" font-family="Helvetica,sans-Serif" font-size="10.00">gpucf/algorithms/Cluster</text>
<text text-anchor="middle" x="170" y="-7.5" font-family="Helvetica,sans-Serif" font-size="10.00">FinderFlags.def</text>
</g>
<!-- Node2&#45;&gt;Node4 -->
<g id="edge8" class="edge"><title>Node2&#45;&gt;Node4</title>
<path fill="none" stroke="midnightblue" d="M231.646,-134.355C217.136,-125.736 200.388,-113.407 190,-98 178.575,-81.0553 173.666,-58.2104 171.562,-41.0187"/>
<polygon fill="midnightblue" stroke="midnightblue" points="175.005,-40.2665 170.544,-30.6565 168.038,-40.9507 175.005,-40.2665"/>
</g>
<!-- Node5 -->
<g id="node5" class="node"><title>Node5</title>
<g id="a_node5"><a xlink:href="../../d4/d9b/ClusterBuilder_8h.html" target="_top" xlink:title="gpucf/algorithms/Cluster\lBuilder.h">
<polygon fill="none" stroke="black" points="198.5,-67.5 198.5,-97.5 321.5,-97.5 321.5,-67.5 198.5,-67.5"/>
<text text-anchor="start" x="206.5" y="-85.5" font-family="Helvetica,sans-Serif" font-size="10.00">gpucf/algorithms/Cluster</text>
<text text-anchor="middle" x="260" y="-74.5" font-family="Helvetica,sans-Serif" font-size="10.00">Builder.h</text>
</a>
</g>
</g>
<!-- Node2&#45;&gt;Node5 -->
<g id="edge4" class="edge"><title>Node2&#45;&gt;Node5</title>
<path fill="none" stroke="midnightblue" d="M260,-134.396C260,-126.645 260,-116.812 260,-107.86"/>
<polygon fill="midnightblue" stroke="midnightblue" points="263.5,-107.576 260,-97.5765 256.5,-107.577 263.5,-107.576"/>
</g>
<!-- Node6 -->
<g id="node6" class="node"><title>Node6</title>
<polygon fill="none" stroke="#bfbfbf" points="339.5,-73 339.5,-92 388.5,-92 388.5,-73 339.5,-73"/>
<text text-anchor="middle" x="364" y="-80" font-family="Helvetica,sans-Serif" font-size="10.00">cstddef</text>
</g>
<!-- Node2&#45;&gt;Node6 -->
<g id="edge6" class="edge"><title>Node2&#45;&gt;Node6</title>
<path fill="none" stroke="midnightblue" d="M282.566,-134.396C300.007,-123.496 324.034,-108.479 341.466,-97.5835"/>
<polygon fill="midnightblue" stroke="midnightblue" points="343.764,-100.275 350.389,-92.007 340.054,-94.339 343.764,-100.275"/>
</g>
<!-- Node7 -->
<g id="node7" class="node"><title>Node7</title>
<polygon fill="none" stroke="#bfbfbf" points="406.5,-73 406.5,-92 451.5,-92 451.5,-73 406.5,-73"/>
<text text-anchor="middle" x="429" y="-80" font-family="Helvetica,sans-Serif" font-size="10.00">iosfwd</text>
</g>
<!-- Node2&#45;&gt;Node7 -->
<g id="edge7" class="edge"><title>Node2&#45;&gt;Node7</title>
<path fill="none" stroke="midnightblue" d="M301.422,-134.397C329.019,-124.744 365.964,-111.325 398,-98 399.371,-97.4296 400.771,-96.8323 402.179,-96.2188"/>
<polygon fill="midnightblue" stroke="midnightblue" points="403.74,-99.3544 411.413,-92.0486 400.859,-92.9748 403.74,-99.3544"/>
</g>
<!-- Node3&#45;&gt;Node4 -->
<g id="edge3" class="edge"><title>Node3&#45;&gt;Node4</title>
<path fill="none" stroke="midnightblue" d="M92.4815,-67.396C106.363,-58.282 124.627,-46.2902 139.941,-36.236"/>
<polygon fill="midnightblue" stroke="midnightblue" points="142.122,-38.9907 148.56,-30.5765 138.28,-33.1392 142.122,-38.9907"/>
</g>
<!-- Node5&#45;&gt;Node4 -->
<g id="edge5" class="edge"><title>Node5&#45;&gt;Node4</title>
<path fill="none" stroke="midnightblue" d="M240.471,-67.396C227.97,-58.3672 211.558,-46.5141 197.718,-36.5184"/>
<polygon fill="midnightblue" stroke="midnightblue" points="199.647,-33.5941 189.491,-30.5765 195.548,-39.2688 199.647,-33.5941"/>
</g>
</g>
</svg>
