<?xml version="1.0" encoding="UTF-8" standalone="no"?>
<!DOCTYPE svg PUBLIC "-//W3C//DTD SVG 1.1//EN"
 "http://www.w3.org/Graphics/SVG/1.1/DTD/svg11.dtd">
<!-- Generated by graphviz version 2.38.0 (20140413.2041)
 -->
<!-- Title: /home/travis/build/AliceO2Group/AliceO2/Framework/Core/src/SourceInfoHeader.cxx Pages: 1 -->
<!--zoomable 229 -->
<svg id="main" version="1.1" xmlns="http://www.w3.org/2000/svg" xmlns:xlink="http://www.w3.org/1999/xlink" xml:space="preserve" onload="init(evt)">
<style type="text/css"><![CDATA[
.edge:hover path { stroke: red; }
.edge:hover polygon { stroke: red; fill: red; }
]]></style>
<script type="text/javascript"><![CDATA[
var edges = document.getElementsByTagName('g');
if (edges && edges.length) {
  for (var i=0;i<edges.length;i++) {
    if (edges[i].id.substr(0,4)=='edge') {
      edges[i].setAttribute('class','edge');
    }
  }
}
]]></script>
        <defs>
                <circle id="rim" cx="0" cy="0" r="7"/>
                <circle id="rim2" cx="0" cy="0" r="3.5"/>
                <g id="zoomPlus">
                        <use xlink:href="#rim" fill="#404040">
                                <set attributeName="fill" to="#808080" begin="zoomplus.mouseover" end="zoomplus.mouseout"/>
                        </use>
                        <path d="M-4,0h8M0,-4v8" fill="none" stroke="white" stroke-width="1.5" pointer-events="none"/>
                </g>
                <g id="zoomMin">
                        <use xlink:href="#rim" fill="#404040">
                                <set attributeName="fill" to="#808080" begin="zoomminus.mouseover" end="zoomminus.mouseout"/>
                        </use>
                        <path d="M-4,0h8" fill="none" stroke="white" stroke-width="1.5" pointer-events="none"/>
                </g>
                <g id="dirArrow">
                        <path fill="none" stroke="white" stroke-width="1.5" d="M0,-3.0v7 M-2.5,-0.5L0,-3.0L2.5,-0.5"/>
                </g>
               <g id="resetDef">
                       <use xlink:href="#rim2" fill="#404040">
                               <set attributeName="fill" to="#808080" begin="reset.mouseover" end="reset.mouseout"/>
                       </use>
               </g>
        </defs>

<script type="text/javascript">
var viewWidth = 748;
var viewHeight = 229;
var sectionId = 'dynsection-0';
</script>
<script xlink:href="../../svgpan.js"/>
<svg id="graph" class="graph">
<g id="viewport">
<title>/home/travis/build/AliceO2Group/AliceO2/Framework/Core/src/SourceInfoHeader.cxx</title>
<!-- Node1 -->
<g id="node1" class="node"><title>Node1</title>
<polygon fill="#bfbfbf" stroke="black" points="153.5,-168.5 153.5,-220.5 312.5,-220.5 312.5,-168.5 153.5,-168.5"/>
<text text-anchor="start" x="161.5" y="-208.5" font-family="Helvetica,sans-Serif" font-size="10.00">/home/travis/build</text>
<text text-anchor="start" x="161.5" y="-197.5" font-family="Helvetica,sans-Serif" font-size="10.00">/AliceO2Group/AliceO2</text>
<text text-anchor="start" x="161.5" y="-186.5" font-family="Helvetica,sans-Serif" font-size="10.00">/Framework/Core/src/SourceInfo</text>
<text text-anchor="middle" x="233" y="-175.5" font-family="Helvetica,sans-Serif" font-size="10.00">Header.cxx</text>
</g>
<!-- Node2 -->
<g id="node2" class="node"><title>Node2</title>
<g id="a_node2"><a xlink:href="../../db/d11/SourceInfoHeader_8h.html" target="_top" xlink:title="Framework/SourceInfoHeader.h">
<polygon fill="none" stroke="black" points="102.5,-112.5 102.5,-131.5 257.5,-131.5 257.5,-112.5 102.5,-112.5"/>
<text text-anchor="middle" x="180" y="-119.5" font-family="Helvetica,sans-Serif" font-size="10.00">Framework/SourceInfoHeader.h</text>
</a>
</g>
</g>
<!-- Node1&#45;&gt;Node2 -->
<g id="edge1" class="edge"><title>Node1&#45;&gt;Node2</title>
<path fill="none" stroke="midnightblue" d="M214.165,-168.446C207.01,-158.929 199.04,-148.327 192.598,-139.758"/>
<polygon fill="midnightblue" stroke="midnightblue" points="195.344,-137.586 186.537,-131.695 189.749,-141.792 195.344,-137.586"/>
</g>
<!-- Node3 -->
<g id="node3" class="node"><title>Node3</title>
<g id="a_node3"><a xlink:href="../../dc/dcd/DataHeader_8h.html" target="_top" xlink:title="Headers/DataHeader.h">
<polygon fill="none" stroke="black" points="227.5,-56.5 227.5,-75.5 344.5,-75.5 344.5,-56.5 227.5,-56.5"/>
<text text-anchor="middle" x="286" y="-63.5" font-family="Helvetica,sans-Serif" font-size="10.00">Headers/DataHeader.h</text>
</a>
</g>
</g>
<!-- Node1&#45;&gt;Node3 -->
<g id="edge19" class="edge"><title>Node1&#45;&gt;Node3</title>
<path fill="none" stroke="midnightblue" d="M247.947,-168.308C254.05,-157.384 260.865,-144.3 266,-132 272.397,-116.678 277.801,-98.5759 281.372,-85.371"/>
<polygon fill="midnightblue" stroke="midnightblue" points="284.784,-86.1592 283.923,-75.5994 278.011,-84.3911 284.784,-86.1592"/>
</g>
<!-- Node2&#45;&gt;Node3 -->
<g id="edge2" class="edge"><title>Node2&#45;&gt;Node3</title>
<path fill="none" stroke="midnightblue" d="M197.031,-112.324C214.03,-103.664 240.376,-90.2424 259.993,-80.249"/>
<polygon fill="midnightblue" stroke="midnightblue" points="261.69,-83.3125 269.012,-75.6545 258.512,-77.0752 261.69,-83.3125"/>
</g>
<!-- Node4 -->
<g id="node4" class="node"><title>Node4</title>
<polygon fill="none" stroke="#bfbfbf" points="0,-0.5 0,-19.5 46,-19.5 46,-0.5 0,-0.5"/>
<text text-anchor="middle" x="23" y="-7.5" font-family="Helvetica,sans-Serif" font-size="10.00">cstdint</text>
</g>
<!-- Node2&#45;&gt;Node4 -->
<g id="edge15" class="edge"><title>Node2&#45;&gt;Node4</title>
<path fill="none" stroke="midnightblue" d="M167.68,-112.368C140.854,-93.5728 76.9058,-48.7684 43.7431,-25.5334"/>
<polygon fill="midnightblue" stroke="midnightblue" points="45.4605,-22.4631 35.2623,-19.5914 41.4438,-28.196 45.4605,-22.4631"/>
</g>
<!-- Node5 -->
<g id="node5" class="node"><title>Node5</title>
<polygon fill="none" stroke="#bfbfbf" points="64,-0.5 64,-19.5 116,-19.5 116,-0.5 64,-0.5"/>
<text text-anchor="middle" x="90" y="-7.5" font-family="Helvetica,sans-Serif" font-size="10.00">memory</text>
</g>
<!-- Node2&#45;&gt;Node5 -->
<g id="edge17" class="edge"><title>Node2&#45;&gt;Node5</title>
<path fill="none" stroke="midnightblue" d="M172.938,-112.368C157.954,-94.0547 122.767,-51.0489 103.387,-27.3624"/>
<polygon fill="midnightblue" stroke="midnightblue" points="106.071,-25.1147 97.0293,-19.5914 100.653,-29.5474 106.071,-25.1147"/>
</g>
<!-- Node6 -->
<g id="node6" class="node"><title>Node6</title>
<polygon fill="none" stroke="#bfbfbf" points="134.5,-0.5 134.5,-19.5 183.5,-19.5 183.5,-0.5 134.5,-0.5"/>
<text text-anchor="middle" x="159" y="-7.5" font-family="Helvetica,sans-Serif" font-size="10.00">cassert</text>
</g>
<!-- Node2&#45;&gt;Node6 -->
<g id="edge18" class="edge"><title>Node2&#45;&gt;Node6</title>
<path fill="none" stroke="midnightblue" d="M178.352,-112.368C174.963,-94.617 167.145,-53.6664 162.55,-29.5974"/>
<polygon fill="midnightblue" stroke="midnightblue" points="165.953,-28.7577 160.64,-19.5914 159.078,-30.0704 165.953,-28.7577"/>
</g>
<!-- Node14 -->
<g id="node14" class="node"><title>Node14</title>
<g id="a_node14"><a xlink:href="../../dd/de5/ChannelInfo_8h.html" target="_top" xlink:title="Framework/ChannelInfo.h">
<polygon fill="none" stroke="black" points="362.5,-56.5 362.5,-75.5 491.5,-75.5 491.5,-56.5 362.5,-56.5"/>
<text text-anchor="middle" x="427" y="-63.5" font-family="Helvetica,sans-Serif" font-size="10.00">Framework/ChannelInfo.h</text>
</a>
</g>
</g>
<!-- Node2&#45;&gt;Node14 -->
<g id="edge13" class="edge"><title>Node2&#45;&gt;Node14</title>
<path fill="none" stroke="midnightblue" d="M219.138,-112.444C262.226,-103.023 331.559,-87.8656 378.171,-77.6752"/>
<polygon fill="midnightblue" stroke="midnightblue" points="379.024,-81.0715 388.045,-75.5164 377.528,-74.2331 379.024,-81.0715"/>
</g>
<!-- Node15 -->
<g id="node15" class="node"><title>Node15</title>
<polygon fill="none" stroke="#bfbfbf" points="509.5,-56.5 509.5,-75.5 552.5,-75.5 552.5,-56.5 509.5,-56.5"/>
<text text-anchor="middle" x="531" y="-63.5" font-family="Helvetica,sans-Serif" font-size="10.00">cstdio</text>
</g>
<!-- Node2&#45;&gt;Node15 -->
<g id="edge16" class="edge"><title>Node2&#45;&gt;Node15</title>
<path fill="none" stroke="midnightblue" d="M257.77,-113.451C320.783,-106.564 411.94,-94.8632 499.627,-76.0335"/>
<polygon fill="midnightblue" stroke="midnightblue" points="500.449,-79.4368 509.473,-73.8857 498.956,-72.5976 500.449,-79.4368"/>
</g>
<!-- Node3&#45;&gt;Node4 -->
<g id="edge3" class="edge"><title>Node3&#45;&gt;Node4</title>
<path fill="none" stroke="midnightblue" d="M235.729,-56.4301C190.965,-48.5239 123.504,-35.9367 55.9745,-20.0785"/>
<polygon fill="midnightblue" stroke="midnightblue" points="56.5512,-16.6183 46.0134,-17.7152 54.9353,-23.4292 56.5512,-16.6183"/>
</g>
<!-- Node3&#45;&gt;Node5 -->
<g id="edge4" class="edge"><title>Node3&#45;&gt;Node5</title>
<path fill="none" stroke="midnightblue" d="M254.943,-56.4435C219.917,-46.7934 163.035,-31.122 126.07,-20.9377"/>
<polygon fill="midnightblue" stroke="midnightblue" points="126.778,-17.5022 116.207,-18.2203 124.918,-24.2508 126.778,-17.5022"/>
</g>
<!-- Node3&#45;&gt;Node6 -->
<g id="edge5" class="edge"><title>Node3&#45;&gt;Node6</title>
<path fill="none" stroke="midnightblue" d="M265.876,-56.4435C244.976,-47.5566 212.065,-33.5632 188.284,-23.4514"/>
<polygon fill="midnightblue" stroke="midnightblue" points="189.602,-20.2085 179.029,-19.5164 186.862,-26.6504 189.602,-20.2085"/>
</g>
<!-- Node7 -->
<g id="node7" class="node"><title>Node7</title>
<polygon fill="none" stroke="#bfbfbf" points="202,-0.5 202,-19.5 248,-19.5 248,-0.5 202,-0.5"/>
<text text-anchor="middle" x="225" y="-7.5" font-family="Helvetica,sans-Serif" font-size="10.00">cstring</text>
</g>
<!-- Node3&#45;&gt;Node7 -->
<g id="edge6" class="edge"><title>Node3&#45;&gt;Node7</title>
<path fill="none" stroke="midnightblue" d="M276.199,-56.324C267.182,-48.3414 253.594,-36.3128 242.682,-26.6529"/>
<polygon fill="midnightblue" stroke="midnightblue" points="244.787,-23.8416 234.979,-19.8339 240.147,-29.083 244.787,-23.8416"/>
</g>
<!-- Node8 -->
<g id="node8" class="node"><title>Node8</title>
<polygon fill="none" stroke="#bfbfbf" points="266,-0.5 266,-19.5 322,-19.5 322,-0.5 266,-0.5"/>
<text text-anchor="middle" x="294" y="-7.5" font-family="Helvetica,sans-Serif" font-size="10.00">algorithm</text>
</g>
<!-- Node3&#45;&gt;Node8 -->
<g id="edge7" class="edge"><title>Node3&#45;&gt;Node8</title>
<path fill="none" stroke="midnightblue" d="M287.321,-56.083C288.381,-48.9272 289.906,-38.6353 291.231,-29.6911"/>
<polygon fill="midnightblue" stroke="midnightblue" points="294.7,-30.1561 292.704,-19.7511 287.776,-29.1302 294.7,-30.1561"/>
</g>
<!-- Node9 -->
<g id="node9" class="node"><title>Node9</title>
<polygon fill="none" stroke="#bfbfbf" points="340.5,-0.5 340.5,-19.5 399.5,-19.5 399.5,-0.5 340.5,-0.5"/>
<text text-anchor="middle" x="370" y="-7.5" font-family="Helvetica,sans-Serif" font-size="10.00">stdexcept</text>
</g>
<!-- Node3&#45;&gt;Node9 -->
<g id="edge8" class="edge"><title>Node3&#45;&gt;Node9</title>
<path fill="none" stroke="midnightblue" d="M299.496,-56.324C312.6,-47.9002 332.712,-34.9709 348.107,-25.0741"/>
<polygon fill="midnightblue" stroke="midnightblue" points="350.018,-28.0063 356.537,-19.6545 346.233,-22.118 350.018,-28.0063"/>
</g>
<!-- Node10 -->
<g id="node10" class="node"><title>Node10</title>
<polygon fill="none" stroke="#bfbfbf" points="698.5,-0.5 698.5,-19.5 739.5,-19.5 739.5,-0.5 698.5,-0.5"/>
<text text-anchor="middle" x="719" y="-7.5" font-family="Helvetica,sans-Serif" font-size="10.00">string</text>
</g>
<!-- Node3&#45;&gt;Node10 -->
<g id="edge9" class="edge"><title>Node3&#45;&gt;Node10</title>
<path fill="none" stroke="midnightblue" d="M344.815,-57.0088C347.581,-56.6615 350.32,-56.3235 353,-56 498.902,-38.3876 540.024,-49.2155 688.531,-19.7067"/>
<polygon fill="midnightblue" stroke="midnightblue" points="689.358,-23.1103 698.47,-17.704 687.976,-16.2483 689.358,-23.1103"/>
</g>
<!-- Node11 -->
<g id="node11" class="node"><title>Node11</title>
<polygon fill="none" stroke="#bfbfbf" points="417.5,-0.5 417.5,-19.5 462.5,-19.5 462.5,-0.5 417.5,-0.5"/>
<text text-anchor="middle" x="440" y="-7.5" font-family="Helvetica,sans-Serif" font-size="10.00">climits</text>
</g>
<!-- Node3&#45;&gt;Node11 -->
<g id="edge10" class="edge"><title>Node3&#45;&gt;Node11</title>
<path fill="none" stroke="midnightblue" d="M310.402,-56.4435C336.652,-47.239 378.524,-32.5565 407.539,-22.3826"/>
<polygon fill="midnightblue" stroke="midnightblue" points="408.94,-25.6002 417.219,-18.9883 406.624,-18.9945 408.94,-25.6002"/>
</g>
<!-- Node12 -->
<g id="node12" class="node"><title>Node12</title>
<g id="a_node12"><a xlink:href="../../d7/df8/Types_8h.html" target="_top" xlink:title="MemoryResources/Types.h">
<polygon fill="none" stroke="black" points="480.5,-0.5 480.5,-19.5 617.5,-19.5 617.5,-0.5 480.5,-0.5"/>
<text text-anchor="middle" x="549" y="-7.5" font-family="Helvetica,sans-Serif" font-size="10.00">MemoryResources/Types.h</text>
</a>
</g>
</g>
<!-- Node3&#45;&gt;Node12 -->
<g id="edge11" class="edge"><title>Node3&#45;&gt;Node12</title>
<path fill="none" stroke="midnightblue" d="M327.673,-56.4435C373.745,-46.9839 447.996,-31.7384 497.631,-21.5472"/>
<polygon fill="midnightblue" stroke="midnightblue" points="498.43,-24.9563 507.522,-19.5164 497.022,-18.0993 498.43,-24.9563"/>
</g>
<!-- Node13 -->
<g id="node13" class="node"><title>Node13</title>
<polygon fill="none" stroke="#bfbfbf" points="636,-0.5 636,-19.5 680,-19.5 680,-0.5 636,-0.5"/>
<text text-anchor="middle" x="658" y="-7.5" font-family="Helvetica,sans-Serif" font-size="10.00">cerrno</text>
</g>
<!-- Node3&#45;&gt;Node13 -->
<g id="edge12" class="edge"><title>Node3&#45;&gt;Node13</title>
<path fill="none" stroke="midnightblue" d="M344.825,-57.0884C347.588,-56.7198 350.324,-56.3555 353,-56 471.544,-40.2505 505.036,-44.9267 625.749,-19.9901"/>
<polygon fill="midnightblue" stroke="midnightblue" points="626.679,-23.3713 635.751,-17.898 625.246,-16.5195 626.679,-23.3713"/>
</g>
<!-- Node14&#45;&gt;Node10 -->
<g id="edge14" class="edge"><title>Node14&#45;&gt;Node10</title>
<path fill="none" stroke="midnightblue" d="M489.363,-56.4663C540.425,-48.9835 614.669,-36.975 688.493,-19.8644"/>
<polygon fill="midnightblue" stroke="midnightblue" points="689.498,-23.2237 698.432,-17.5288 687.896,-16.4093 689.498,-23.2237"/>
</g>
</g>
</svg>
        <g id="navigator" transform="translate(0 0)" fill="#404254">
                <rect fill="#f2f5e9" fill-opacity="0.5" stroke="#606060" stroke-width=".5" x="0" y="0" width="60" height="60"/>
                <use id="zoomplus" xlink:href="#zoomPlus" x="17" y="9" onmousedown="handleZoom(evt,'in')"/>
                <use id="zoomminus" xlink:href="#zoomMin" x="42" y="9" onmousedown="handleZoom(evt,'out')"/>
                <use id="reset" xlink:href="#resetDef" x="30" y="36" onmousedown="handleReset()"/>
                <g id="arrowUp" xlink:href="#dirArrow" transform="translate(30 24)" onmousedown="handlePan(0,-1)">
                  <use xlink:href="#rim" fill="#404040">
                        <set attributeName="fill" to="#808080" begin="arrowUp.mouseover" end="arrowUp.mouseout"/>
                  </use>
                  <path fill="none" stroke="white" stroke-width="1.5" d="M0,-3.0v7 M-2.5,-0.5L0,-3.0L2.5,-0.5"/>
                </g>
                <g id="arrowRight" xlink:href="#dirArrow" transform="rotate(90) translate(36 -43)" onmousedown="handlePan(1,0)">
                  <use xlink:href="#rim" fill="#404040">
                        <set attributeName="fill" to="#808080" begin="arrowRight.mouseover" end="arrowRight.mouseout"/>
                  </use>
                  <path fill="none" stroke="white" stroke-width="1.5" d="M0,-3.0v7 M-2.5,-0.5L0,-3.0L2.5,-0.5"/>
                </g>
                <g id="arrowDown" xlink:href="#dirArrow" transform="rotate(180) translate(-30 -48)" onmousedown="handlePan(0,1)">
                  <use xlink:href="#rim" fill="#404040">
                        <set attributeName="fill" to="#808080" begin="arrowDown.mouseover" end="arrowDown.mouseout"/>
                  </use>
                  <path fill="none" stroke="white" stroke-width="1.5" d="M0,-3.0v7 M-2.5,-0.5L0,-3.0L2.5,-0.5"/>
                </g>
                <g id="arrowLeft" xlink:href="#dirArrow" transform="rotate(270) translate(-36 17)" onmousedown="handlePan(-1,0)">
                  <use xlink:href="#rim" fill="#404040">
                        <set attributeName="fill" to="#808080" begin="arrowLeft.mouseover" end="arrowLeft.mouseout"/>
                  </use>
                  <path fill="none" stroke="white" stroke-width="1.5" d="M0,-3.0v7 M-2.5,-0.5L0,-3.0L2.5,-0.5"/>
                </g>
        </g>
        <svg viewBox="0 0 15 15" width="100%" height="30px" preserveAspectRatio="xMaxYMin meet">
         <g id="arrow_out" transform="scale(0.3 0.3)">
          <a xlink:href="SourceInfoHeader_8cxx__incl_org.svg" target="_base">
           <rect id="button" ry="5" rx="5" y="6" x="6" height="38" width="38"
                fill="#f2f5e9" fill-opacity="0.5" stroke="#606060" stroke-width="1.0"/>
           <path id="arrow"
             d="M 11.500037,31.436501 C 11.940474,20.09759 22.043105,11.32322 32.158766,21.979434 L 37.068811,17.246167 C 37.068811,17.246167 37.088388,32 37.088388,32 L 22.160133,31.978069 C 22.160133,31.978069 26.997745,27.140456 26.997745,27.140456 C 18.528582,18.264221 13.291696,25.230495 11.500037,31.436501 z"
             style="fill:#404040;"/>
          </a>
         </g>
        </svg>
</svg>
