<?xml version="1.0" encoding="UTF-8" standalone="no"?>
<!DOCTYPE svg PUBLIC "-//W3C//DTD SVG 1.1//EN"
 "http://www.w3.org/Graphics/SVG/1.1/DTD/svg11.dtd">
<!-- Generated by graphviz version 2.38.0 (20140413.2041)
 -->
<!-- Title: nlohmann::detail::parse_error Pages: 1 -->
<svg width="213pt" height="299pt"
 viewBox="0.00 0.00 213.00 299.00" xmlns="http://www.w3.org/2000/svg" xmlns:xlink="http://www.w3.org/1999/xlink">
<g id="graph0" class="graph" transform="scale(1 1) rotate(0) translate(4 295)">
<title>nlohmann::detail::parse_error</title>
<!-- Node1 -->
<g id="node1" class="node"><title>Node1</title>
<polygon fill="#bfbfbf" stroke="black" points="87,-0.5 87,-68.5 205,-68.5 205,-0.5 87,-0.5"/>
<text text-anchor="start" x="95" y="-56.5" font-family="Helvetica,sans-Serif" font-size="10.00">nlohmann::detail::parse</text>
<text text-anchor="middle" x="146" y="-45.5" font-family="Helvetica,sans-Serif" font-size="10.00">_error</text>
<polyline fill="none" stroke="black" points="87,-38.5 205,-38.5 "/>
<text text-anchor="middle" x="146" y="-26.5" font-family="Helvetica,sans-Serif" font-size="10.00"> </text>
<polyline fill="none" stroke="black" points="87,-19.5 205,-19.5 "/>
<text text-anchor="start" x="95" y="-7.5" font-family="Helvetica,sans-Serif" font-size="10.00">+ create()</text>
</g>
<!-- Node2 -->
<g id="node2" class="node"><title>Node2</title>
<g id="a_node2"><a xlink:href="../../de/df2/classnlohmann_1_1detail_1_1exception.html" target="_top" xlink:title="general exception of the basic_json class ">
<polygon fill="none" stroke="black" points="0,-106.5 0,-185.5 136,-185.5 136,-106.5 0,-106.5"/>
<text text-anchor="middle" x="68" y="-173.5" font-family="Helvetica,sans-Serif" font-size="10.00">nlohmann::detail::exception</text>
<polyline fill="none" stroke="black" points="0,-166.5 136,-166.5 "/>
<text text-anchor="middle" x="68" y="-154.5" font-family="Helvetica,sans-Serif" font-size="10.00"> </text>
<polyline fill="none" stroke="black" points="0,-147.5 136,-147.5 "/>
<text text-anchor="start" x="8" y="-135.5" font-family="Helvetica,sans-Serif" font-size="10.00">+ what()</text>
<text text-anchor="start" x="8" y="-124.5" font-family="Helvetica,sans-Serif" font-size="10.00"># exception()</text>
<text text-anchor="start" x="8" y="-113.5" font-family="Helvetica,sans-Serif" font-size="10.00"># name()</text>
</a>
</g>
</g>
<!-- Node2&#45;&gt;Node1 -->
<g id="edge1" class="edge"><title>Node2&#45;&gt;Node1</title>
<path fill="none" stroke="midnightblue" d="M101.358,-98.1705C108.428,-88.2458 115.75,-77.9663 122.369,-68.674"/>
<polygon fill="none" stroke="midnightblue" points="98.451,-96.2189 95.4999,-106.394 104.152,-100.28 98.451,-96.2189"/>
</g>
<!-- Node3 -->
<g id="node3" class="node"><title>Node3</title>
<polygon fill="none" stroke="#bfbfbf" points="38.5,-233.5 38.5,-290.5 97.5,-290.5 97.5,-233.5 38.5,-233.5"/>
<text text-anchor="middle" x="68" y="-278.5" font-family="Helvetica,sans-Serif" font-size="10.00">exception</text>
<polyline fill="none" stroke="#bfbfbf" points="38.5,-271.5 97.5,-271.5 "/>
<text text-anchor="middle" x="68" y="-259.5" font-family="Helvetica,sans-Serif" font-size="10.00"> </text>
<polyline fill="none" stroke="#bfbfbf" points="38.5,-252.5 97.5,-252.5 "/>
<text text-anchor="middle" x="68" y="-240.5" font-family="Helvetica,sans-Serif" font-size="10.00"> </text>
</g>
<!-- Node3&#45;&gt;Node2 -->
<g id="edge2" class="edge"><title>Node3&#45;&gt;Node2</title>
<path fill="none" stroke="midnightblue" d="M68,-223.176C68,-211.082 68,-197.685 68,-185.541"/>
<polygon fill="none" stroke="midnightblue" points="64.5001,-223.404 68,-233.404 71.5001,-223.404 64.5001,-223.404"/>
</g>
<!-- Node4 -->
<g id="node4" class="node"><title>Node4</title>
<polygon fill="none" stroke="#bfbfbf" points="125.5,-233.5 125.5,-290.5 166.5,-290.5 166.5,-233.5 125.5,-233.5"/>
<text text-anchor="middle" x="146" y="-278.5" font-family="Helvetica,sans-Serif" font-size="10.00">const</text>
<polyline fill="none" stroke="#bfbfbf" points="125.5,-271.5 166.5,-271.5 "/>
<text text-anchor="middle" x="146" y="-259.5" font-family="Helvetica,sans-Serif" font-size="10.00"> </text>
<polyline fill="none" stroke="#bfbfbf" points="125.5,-252.5 166.5,-252.5 "/>
<text text-anchor="middle" x="146" y="-240.5" font-family="Helvetica,sans-Serif" font-size="10.00"> </text>
</g>
<!-- Node4&#45;&gt;Node1 -->
<g id="edge4" class="edge"><title>Node4&#45;&gt;Node1</title>
<path fill="none" stroke="#404040" d="M146,-233.349C146,-195.294 146,-126.317 146,-80.702"/>
<polygon fill="none" stroke="#404040" points="146,-80.5009 142,-74.5009 146,-68.5009 150,-74.5009 146,-80.5009"/>
<text text-anchor="middle" x="160" y="-143.5" font-family="Helvetica,sans-Serif" font-size="10.00"> +byte</text>
</g>
<!-- Node4&#45;&gt;Node2 -->
<g id="edge3" class="edge"><title>Node4&#45;&gt;Node2</title>
<path fill="none" stroke="#404040" d="M127.118,-233.404C119.363,-222.069 110.145,-208.597 101.324,-195.704"/>
<polygon fill="none" stroke="#404040" points="101.146,-195.444 94.4567,-192.751 94.3699,-185.541 101.059,-188.234 101.146,-195.444"/>
<text text-anchor="middle" x="122.5" y="-207" font-family="Helvetica,sans-Serif" font-size="10.00"> +id</text>
</g>
</g>
</svg>
