<?xml version="1.0" encoding="UTF-8" standalone="no"?>
<!DOCTYPE svg PUBLIC "-//W3C//DTD SVG 1.1//EN"
 "http://www.w3.org/Graphics/SVG/1.1/DTD/svg11.dtd">
<!-- Generated by graphviz version 2.38.0 (20140413.2041)
 -->
<!-- Title: /home/travis/build/AliceO2Group/AliceO2/Common/Utils/include/CommonUtils/HBFUtils.h Pages: 1 -->
<svg width="569pt" height="250pt"
 viewBox="0.00 0.00 568.50 250.00" xmlns="http://www.w3.org/2000/svg" xmlns:xlink="http://www.w3.org/1999/xlink">
<g id="graph0" class="graph" transform="scale(1 1) rotate(0) translate(4 246)">
<title>/home/travis/build/AliceO2Group/AliceO2/Common/Utils/include/CommonUtils/HBFUtils.h</title>
<!-- Node1 -->
<g id="node1" class="node"><title>Node1</title>
<polygon fill="#bfbfbf" stroke="black" points="204,-189.5 204,-241.5 335,-241.5 335,-189.5 204,-189.5"/>
<text text-anchor="start" x="212" y="-229.5" font-family="Helvetica,sans-Serif" font-size="10.00">/home/travis/build</text>
<text text-anchor="start" x="212" y="-218.5" font-family="Helvetica,sans-Serif" font-size="10.00">/AliceO2Group/AliceO2</text>
<text text-anchor="start" x="212" y="-207.5" font-family="Helvetica,sans-Serif" font-size="10.00">/Common/Utils/include</text>
<text text-anchor="middle" x="269.5" y="-196.5" font-family="Helvetica,sans-Serif" font-size="10.00">/CommonUtils/HBFUtils.h</text>
</g>
<!-- Node2 -->
<g id="node2" class="node"><title>Node2</title>
<g id="a_node2"><a xlink:href="../../dc/da0/HBFUtils_8cxx.html" target="_top" xlink:title="/home/travis/build\l/AliceO2Group/AliceO2\l/Common/Utils/src/HBFUtils.cxx">
<polygon fill="none" stroke="black" points="0,-100.5 0,-141.5 161,-141.5 161,-100.5 0,-100.5"/>
<text text-anchor="start" x="8" y="-129.5" font-family="Helvetica,sans-Serif" font-size="10.00">/home/travis/build</text>
<text text-anchor="start" x="8" y="-118.5" font-family="Helvetica,sans-Serif" font-size="10.00">/AliceO2Group/AliceO2</text>
<text text-anchor="middle" x="80.5" y="-107.5" font-family="Helvetica,sans-Serif" font-size="10.00">/Common/Utils/src/HBFUtils.cxx</text>
</a>
</g>
</g>
<!-- Node1&#45;&gt;Node2 -->
<g id="edge1" class="edge"><title>Node1&#45;&gt;Node2</title>
<path fill="none" stroke="midnightblue" d="M209.147,-184.962C180.206,-170.798 146.327,-154.217 120.603,-141.627"/>
<polygon fill="midnightblue" stroke="midnightblue" points="207.833,-188.216 218.354,-189.468 210.91,-181.928 207.833,-188.216"/>
</g>
<!-- Node3 -->
<g id="node3" class="node"><title>Node3</title>
<g id="a_node3"><a xlink:href="../../dd/d85/testHBFUtils_8cxx.html" target="_top" xlink:title="/home/travis/build\l/AliceO2Group/AliceO2\l/Common/Utils/test/testHBFUtils.cxx">
<polygon fill="none" stroke="black" points="179,-100.5 179,-141.5 360,-141.5 360,-100.5 179,-100.5"/>
<text text-anchor="start" x="187" y="-129.5" font-family="Helvetica,sans-Serif" font-size="10.00">/home/travis/build</text>
<text text-anchor="start" x="187" y="-118.5" font-family="Helvetica,sans-Serif" font-size="10.00">/AliceO2Group/AliceO2</text>
<text text-anchor="middle" x="269.5" y="-107.5" font-family="Helvetica,sans-Serif" font-size="10.00">/Common/Utils/test/testHBFUtils.cxx</text>
</a>
</g>
</g>
<!-- Node1&#45;&gt;Node3 -->
<g id="edge2" class="edge"><title>Node1&#45;&gt;Node3</title>
<path fill="none" stroke="midnightblue" d="M269.5,-178.95C269.5,-166.296 269.5,-152.511 269.5,-141.673"/>
<polygon fill="midnightblue" stroke="midnightblue" points="266,-179.224 269.5,-189.224 273,-179.224 266,-179.224"/>
</g>
<!-- Node4 -->
<g id="node4" class="node"><title>Node4</title>
<g id="a_node4"><a xlink:href="../../df/d56/MC2RawEncoder_8h.html" target="_top" xlink:title="Definition of the ITS/MFT Alpide pixel MC&#45;&gt;raw converter. ">
<polygon fill="none" stroke="black" points="378.5,-89.5 378.5,-152.5 560.5,-152.5 560.5,-89.5 378.5,-89.5"/>
<text text-anchor="start" x="386.5" y="-140.5" font-family="Helvetica,sans-Serif" font-size="10.00">/home/travis/build</text>
<text text-anchor="start" x="386.5" y="-129.5" font-family="Helvetica,sans-Serif" font-size="10.00">/AliceO2Group/AliceO2</text>
<text text-anchor="start" x="386.5" y="-118.5" font-family="Helvetica,sans-Serif" font-size="10.00">/Detectors/ITSMFT/common</text>
<text text-anchor="start" x="386.5" y="-107.5" font-family="Helvetica,sans-Serif" font-size="10.00">/simulation/include/ITSMFTSimulation</text>
<text text-anchor="middle" x="469.5" y="-96.5" font-family="Helvetica,sans-Serif" font-size="10.00">/MC2RawEncoder.h</text>
</a>
</g>
</g>
<!-- Node1&#45;&gt;Node4 -->
<g id="edge3" class="edge"><title>Node1&#45;&gt;Node4</title>
<path fill="none" stroke="midnightblue" d="M332.725,-185.259C355.176,-174.875 380.501,-163.162 403.202,-152.663"/>
<polygon fill="midnightblue" stroke="midnightblue" points="331.23,-182.094 323.623,-189.468 334.168,-188.447 331.23,-182.094"/>
</g>
<!-- Node5 -->
<g id="node5" class="node"><title>Node5</title>
<g id="a_node5"><a xlink:href="../../d8/d6b/MC2RawEncoder_8cxx.html" target="_top" xlink:title="/home/travis/build\l/AliceO2Group/AliceO2\l/Detectors/ITSMFT/common\l/simulation/src/MC2RawEncoder.cxx">
<polygon fill="none" stroke="black" points="380,-0.5 380,-52.5 559,-52.5 559,-0.5 380,-0.5"/>
<text text-anchor="start" x="388" y="-40.5" font-family="Helvetica,sans-Serif" font-size="10.00">/home/travis/build</text>
<text text-anchor="start" x="388" y="-29.5" font-family="Helvetica,sans-Serif" font-size="10.00">/AliceO2Group/AliceO2</text>
<text text-anchor="start" x="388" y="-18.5" font-family="Helvetica,sans-Serif" font-size="10.00">/Detectors/ITSMFT/common</text>
<text text-anchor="middle" x="469.5" y="-7.5" font-family="Helvetica,sans-Serif" font-size="10.00">/simulation/src/MC2RawEncoder.cxx</text>
</a>
</g>
</g>
<!-- Node4&#45;&gt;Node5 -->
<g id="edge4" class="edge"><title>Node4&#45;&gt;Node5</title>
<path fill="none" stroke="midnightblue" d="M469.5,-79.4229C469.5,-70.3585 469.5,-60.999 469.5,-52.7655"/>
<polygon fill="midnightblue" stroke="midnightblue" points="466,-79.4556 469.5,-89.4557 473,-79.4557 466,-79.4556"/>
</g>
</g>
</svg>
