<?xml version="1.0" encoding="UTF-8" standalone="no"?>
<!DOCTYPE svg PUBLIC "-//W3C//DTD SVG 1.1//EN"
 "http://www.w3.org/Graphics/SVG/1.1/DTD/svg11.dtd">
<!-- Generated by graphviz version 2.38.0 (20140413.2041)
 -->
<!-- Title: o2::framework::data_matcher::ValueHolder&lt; T &gt; Pages: 1 -->
<svg width="665pt" height="475pt"
 viewBox="0.00 0.00 664.50 475.00" xmlns="http://www.w3.org/2000/svg" xmlns:xlink="http://www.w3.org/1999/xlink">
<g id="graph0" class="graph" transform="scale(1 1) rotate(0) translate(4 471)">
<title>o2::framework::data_matcher::ValueHolder&lt; T &gt;</title>
<!-- Node1 -->
<g id="node1" class="node"><title>Node1</title>
<polygon fill="#bfbfbf" stroke="black" points="329.5,-365.5 329.5,-466.5 469.5,-466.5 469.5,-365.5 329.5,-365.5"/>
<text text-anchor="start" x="337.5" y="-454.5" font-family="Helvetica,sans-Serif" font-size="10.00">o2::framework::data</text>
<text text-anchor="middle" x="399.5" y="-443.5" font-family="Helvetica,sans-Serif" font-size="10.00">_matcher::ValueHolder&lt; T &gt;</text>
<polyline fill="none" stroke="black" points="329.5,-436.5 469.5,-436.5 "/>
<text text-anchor="start" x="337.5" y="-424.5" font-family="Helvetica,sans-Serif" font-size="10.00"># mValue</text>
<polyline fill="none" stroke="black" points="329.5,-417.5 469.5,-417.5 "/>
<text text-anchor="start" x="337.5" y="-405.5" font-family="Helvetica,sans-Serif" font-size="10.00">+ ValueHolder()</text>
<text text-anchor="start" x="337.5" y="-394.5" font-family="Helvetica,sans-Serif" font-size="10.00">+ ValueHolder()</text>
<text text-anchor="start" x="337.5" y="-383.5" font-family="Helvetica,sans-Serif" font-size="10.00">+ operator==()</text>
<text text-anchor="start" x="337.5" y="-372.5" font-family="Helvetica,sans-Serif" font-size="10.00">+ visit()</text>
</g>
<!-- Node2 -->
<g id="node2" class="node"><title>Node2</title>
<g id="a_node2"><a xlink:href="../../dc/d72/classo2_1_1framework_1_1data__matcher_1_1ValueHolder.html" target="_top" xlink:title="{o2::framework::data\l_matcher::ValueHolder\l\&lt; std::string \&gt;\n|# mValue\l|+ ValueHolder()\l+ ValueHolder()\l+ operator==()\l+ visit()\l}">
<polygon fill="none" stroke="black" points="175.5,-189 175.5,-301 291.5,-301 291.5,-189 175.5,-189"/>
<text text-anchor="start" x="183.5" y="-289" font-family="Helvetica,sans-Serif" font-size="10.00">o2::framework::data</text>
<text text-anchor="start" x="183.5" y="-278" font-family="Helvetica,sans-Serif" font-size="10.00">_matcher::ValueHolder</text>
<text text-anchor="middle" x="233.5" y="-267" font-family="Helvetica,sans-Serif" font-size="10.00">&lt; std::string &gt;</text>
<polyline fill="none" stroke="black" points="175.5,-260 291.5,-260 "/>
<text text-anchor="start" x="183.5" y="-248" font-family="Helvetica,sans-Serif" font-size="10.00"># mValue</text>
<polyline fill="none" stroke="black" points="175.5,-241 291.5,-241 "/>
<text text-anchor="start" x="183.5" y="-229" font-family="Helvetica,sans-Serif" font-size="10.00">+ ValueHolder()</text>
<text text-anchor="start" x="183.5" y="-218" font-family="Helvetica,sans-Serif" font-size="10.00">+ ValueHolder()</text>
<text text-anchor="start" x="183.5" y="-207" font-family="Helvetica,sans-Serif" font-size="10.00">+ operator==()</text>
<text text-anchor="start" x="183.5" y="-196" font-family="Helvetica,sans-Serif" font-size="10.00">+ visit()</text>
</a>
</g>
</g>
<!-- Node1&#45;&gt;Node2 -->
<g id="edge1" class="edge"><title>Node1&#45;&gt;Node2</title>
<path fill="none" stroke="orange" d="M341.582,-358.152C337.821,-354.389 334.1,-350.647 330.5,-347 315.897,-332.207 300.228,-316.029 285.835,-301.042"/>
<polygon fill="orange" stroke="orange" points="339.292,-360.811 348.845,-365.394 344.235,-355.855 339.292,-360.811"/>
<text text-anchor="middle" x="363" y="-333.5" font-family="Helvetica,sans-Serif" font-size="10.00"> &lt; std::string &gt;</text>
</g>
<!-- Node5 -->
<g id="node5" class="node"><title>Node5</title>
<g id="a_node5"><a xlink:href="../../dc/d72/classo2_1_1framework_1_1data__matcher_1_1ValueHolder.html" target="_top" xlink:title="{o2::framework::data\l_matcher::ValueHolder\l\&lt; header::DataHeader::\lSubSpecificationType \&gt;\n|# mValue\l|+ ValueHolder()\l+ ValueHolder()\l+ operator==()\l+ visit()\l}">
<polygon fill="none" stroke="black" points="339,-183.5 339,-306.5 460,-306.5 460,-183.5 339,-183.5"/>
<text text-anchor="start" x="347" y="-294.5" font-family="Helvetica,sans-Serif" font-size="10.00">o2::framework::data</text>
<text text-anchor="start" x="347" y="-283.5" font-family="Helvetica,sans-Serif" font-size="10.00">_matcher::ValueHolder</text>
<text text-anchor="start" x="347" y="-272.5" font-family="Helvetica,sans-Serif" font-size="10.00">&lt; header::DataHeader::</text>
<text text-anchor="middle" x="399.5" y="-261.5" font-family="Helvetica,sans-Serif" font-size="10.00">SubSpecificationType &gt;</text>
<polyline fill="none" stroke="black" points="339,-254.5 460,-254.5 "/>
<text text-anchor="start" x="347" y="-242.5" font-family="Helvetica,sans-Serif" font-size="10.00"># mValue</text>
<polyline fill="none" stroke="black" points="339,-235.5 460,-235.5 "/>
<text text-anchor="start" x="347" y="-223.5" font-family="Helvetica,sans-Serif" font-size="10.00">+ ValueHolder()</text>
<text text-anchor="start" x="347" y="-212.5" font-family="Helvetica,sans-Serif" font-size="10.00">+ ValueHolder()</text>
<text text-anchor="start" x="347" y="-201.5" font-family="Helvetica,sans-Serif" font-size="10.00">+ operator==()</text>
<text text-anchor="start" x="347" y="-190.5" font-family="Helvetica,sans-Serif" font-size="10.00">+ visit()</text>
</a>
</g>
</g>
<!-- Node1&#45;&gt;Node5 -->
<g id="edge4" class="edge"><title>Node1&#45;&gt;Node5</title>
<path fill="none" stroke="orange" d="M399.5,-355.112C399.5,-339.438 399.5,-322.525 399.5,-306.804"/>
<polygon fill="orange" stroke="orange" points="396,-355.208 399.5,-365.208 403,-355.209 396,-355.208"/>
<text text-anchor="start" x="399.5" y="-339" font-family="Helvetica,sans-Serif" font-size="10.00"> &lt; header::DataHeader</text>
<text text-anchor="middle" x="455" y="-328" font-family="Helvetica,sans-Serif" font-size="10.00">::SubSpecificationType &gt;</text>
</g>
<!-- Node7 -->
<g id="node7" class="node"><title>Node7</title>
<g id="a_node7"><a xlink:href="../../dc/d72/classo2_1_1framework_1_1data__matcher_1_1ValueHolder.html" target="_top" xlink:title="{o2::framework::data\l_matcher::ValueHolder\l\&lt; uint64_t \&gt;\n|# mValue\l|+ ValueHolder()\l+ ValueHolder()\l+ operator==()\l+ visit()\l}">
<polygon fill="none" stroke="black" points="505.5,-189 505.5,-301 621.5,-301 621.5,-189 505.5,-189"/>
<text text-anchor="start" x="513.5" y="-289" font-family="Helvetica,sans-Serif" font-size="10.00">o2::framework::data</text>
<text text-anchor="start" x="513.5" y="-278" font-family="Helvetica,sans-Serif" font-size="10.00">_matcher::ValueHolder</text>
<text text-anchor="middle" x="563.5" y="-267" font-family="Helvetica,sans-Serif" font-size="10.00">&lt; uint64_t &gt;</text>
<polyline fill="none" stroke="black" points="505.5,-260 621.5,-260 "/>
<text text-anchor="start" x="513.5" y="-248" font-family="Helvetica,sans-Serif" font-size="10.00"># mValue</text>
<polyline fill="none" stroke="black" points="505.5,-241 621.5,-241 "/>
<text text-anchor="start" x="513.5" y="-229" font-family="Helvetica,sans-Serif" font-size="10.00">+ ValueHolder()</text>
<text text-anchor="start" x="513.5" y="-218" font-family="Helvetica,sans-Serif" font-size="10.00">+ ValueHolder()</text>
<text text-anchor="start" x="513.5" y="-207" font-family="Helvetica,sans-Serif" font-size="10.00">+ operator==()</text>
<text text-anchor="start" x="513.5" y="-196" font-family="Helvetica,sans-Serif" font-size="10.00">+ visit()</text>
</a>
</g>
</g>
<!-- Node1&#45;&gt;Node7 -->
<g id="edge6" class="edge"><title>Node1&#45;&gt;Node7</title>
<path fill="none" stroke="orange" d="M478.352,-376.851C491.45,-368.246 504.124,-358.267 514.5,-347 526.646,-333.811 536.391,-317.057 543.891,-301.004"/>
<polygon fill="orange" stroke="orange" points="476.294,-374.012 469.704,-382.308 480.029,-379.932 476.294,-374.012"/>
<text text-anchor="middle" x="559.5" y="-333.5" font-family="Helvetica,sans-Serif" font-size="10.00"> &lt; uint64_t &gt;</text>
</g>
<!-- Node3 -->
<g id="node3" class="node"><title>Node3</title>
<g id="a_node3"><a xlink:href="../../d8/db4/classo2_1_1framework_1_1data__matcher_1_1DescriptionValueMatcher.html" target="_top" xlink:title="Something which can be matched against a header::DataDescription. ">
<polygon fill="none" stroke="black" points="0,-17 0,-129 141,-129 141,-17 0,-17"/>
<text text-anchor="start" x="8" y="-117" font-family="Helvetica,sans-Serif" font-size="10.00">o2::framework::data</text>
<text text-anchor="start" x="8" y="-106" font-family="Helvetica,sans-Serif" font-size="10.00">_matcher::DescriptionValue</text>
<text text-anchor="middle" x="70.5" y="-95" font-family="Helvetica,sans-Serif" font-size="10.00">Matcher</text>
<polyline fill="none" stroke="black" points="0,-88 141,-88 "/>
<text text-anchor="middle" x="70.5" y="-76" font-family="Helvetica,sans-Serif" font-size="10.00"> </text>
<polyline fill="none" stroke="black" points="0,-69 141,-69 "/>
<text text-anchor="start" x="8" y="-57" font-family="Helvetica,sans-Serif" font-size="10.00">+ DescriptionValueMatcher()</text>
<text text-anchor="start" x="8" y="-46" font-family="Helvetica,sans-Serif" font-size="10.00">+ DescriptionValueMatcher()</text>
<text text-anchor="start" x="8" y="-35" font-family="Helvetica,sans-Serif" font-size="10.00">+ DescriptionValueMatcher()</text>
<text text-anchor="start" x="8" y="-24" font-family="Helvetica,sans-Serif" font-size="10.00">+ match()</text>
</a>
</g>
</g>
<!-- Node2&#45;&gt;Node3 -->
<g id="edge2" class="edge"><title>Node2&#45;&gt;Node3</title>
<path fill="none" stroke="midnightblue" d="M173.617,-181.545C157.171,-164.393 139.459,-145.921 123.435,-129.208"/>
<polygon fill="none" stroke="midnightblue" points="171.131,-184.01 180.579,-188.806 176.184,-179.165 171.131,-184.01"/>
</g>
<!-- Node4 -->
<g id="node4" class="node"><title>Node4</title>
<g id="a_node4"><a xlink:href="../../d4/d3e/classo2_1_1framework_1_1data__matcher_1_1OriginValueMatcher.html" target="_top" xlink:title="Something which can be matched against a header::DataOrigin. ">
<polygon fill="none" stroke="black" points="159,-22.5 159,-123.5 308,-123.5 308,-22.5 159,-22.5"/>
<text text-anchor="start" x="167" y="-111.5" font-family="Helvetica,sans-Serif" font-size="10.00">o2::framework::data</text>
<text text-anchor="middle" x="233.5" y="-100.5" font-family="Helvetica,sans-Serif" font-size="10.00">_matcher::OriginValueMatcher</text>
<polyline fill="none" stroke="black" points="159,-93.5 308,-93.5 "/>
<text text-anchor="middle" x="233.5" y="-81.5" font-family="Helvetica,sans-Serif" font-size="10.00"> </text>
<polyline fill="none" stroke="black" points="159,-74.5 308,-74.5 "/>
<text text-anchor="start" x="167" y="-62.5" font-family="Helvetica,sans-Serif" font-size="10.00">+ OriginValueMatcher()</text>
<text text-anchor="start" x="167" y="-51.5" font-family="Helvetica,sans-Serif" font-size="10.00">+ OriginValueMatcher()</text>
<text text-anchor="start" x="167" y="-40.5" font-family="Helvetica,sans-Serif" font-size="10.00">+ OriginValueMatcher()</text>
<text text-anchor="start" x="167" y="-29.5" font-family="Helvetica,sans-Serif" font-size="10.00">+ match()</text>
</a>
</g>
</g>
<!-- Node2&#45;&gt;Node4 -->
<g id="edge3" class="edge"><title>Node2&#45;&gt;Node4</title>
<path fill="none" stroke="midnightblue" d="M233.5,-178.556C233.5,-160.356 233.5,-140.891 233.5,-123.75"/>
<polygon fill="none" stroke="midnightblue" points="230,-178.806 233.5,-188.806 237,-178.806 230,-178.806"/>
</g>
<!-- Node6 -->
<g id="node6" class="node"><title>Node6</title>
<g id="a_node6"><a xlink:href="../../d4/d9f/classo2_1_1framework_1_1data__matcher_1_1SubSpecificationTypeValueMatcher.html" target="_top" xlink:title="Something which can be matched against a header::SubSpecificationType. ">
<polygon fill="none" stroke="black" points="326.5,-0.5 326.5,-145.5 472.5,-145.5 472.5,-0.5 326.5,-0.5"/>
<text text-anchor="start" x="334.5" y="-133.5" font-family="Helvetica,sans-Serif" font-size="10.00">o2::framework::data</text>
<text text-anchor="start" x="334.5" y="-122.5" font-family="Helvetica,sans-Serif" font-size="10.00">_matcher::SubSpecification</text>
<text text-anchor="middle" x="399.5" y="-111.5" font-family="Helvetica,sans-Serif" font-size="10.00">TypeValueMatcher</text>
<polyline fill="none" stroke="black" points="326.5,-104.5 472.5,-104.5 "/>
<text text-anchor="middle" x="399.5" y="-92.5" font-family="Helvetica,sans-Serif" font-size="10.00"> </text>
<polyline fill="none" stroke="black" points="326.5,-85.5 472.5,-85.5 "/>
<text text-anchor="start" x="334.5" y="-73.5" font-family="Helvetica,sans-Serif" font-size="10.00">+ SubSpecificationTypeValue</text>
<text text-anchor="start" x="334.5" y="-62.5" font-family="Helvetica,sans-Serif" font-size="10.00">Matcher()</text>
<text text-anchor="start" x="334.5" y="-51.5" font-family="Helvetica,sans-Serif" font-size="10.00">+ SubSpecificationTypeValue</text>
<text text-anchor="start" x="334.5" y="-40.5" font-family="Helvetica,sans-Serif" font-size="10.00">Matcher()</text>
<text text-anchor="start" x="334.5" y="-29.5" font-family="Helvetica,sans-Serif" font-size="10.00">+ SubSpecificationTypeValue</text>
<text text-anchor="start" x="334.5" y="-18.5" font-family="Helvetica,sans-Serif" font-size="10.00">Matcher()</text>
<text text-anchor="start" x="334.5" y="-7.5" font-family="Helvetica,sans-Serif" font-size="10.00">+ match()</text>
</a>
</g>
</g>
<!-- Node5&#45;&gt;Node6 -->
<g id="edge5" class="edge"><title>Node5&#45;&gt;Node6</title>
<path fill="none" stroke="midnightblue" d="M399.5,-173.044C399.5,-164.03 399.5,-154.799 399.5,-145.773"/>
<polygon fill="none" stroke="midnightblue" points="396,-173.106 399.5,-183.106 403,-173.106 396,-173.106"/>
</g>
<!-- Node8 -->
<g id="node8" class="node"><title>Node8</title>
<g id="a_node8"><a xlink:href="../../d7/d4b/classo2_1_1framework_1_1data__matcher_1_1StartTimeValueMatcher.html" target="_top" xlink:title="Matcher on actual time, as reported in the DataProcessingHeader. ">
<polygon fill="none" stroke="black" points="490.5,-22.5 490.5,-123.5 656.5,-123.5 656.5,-22.5 490.5,-22.5"/>
<text text-anchor="start" x="498.5" y="-111.5" font-family="Helvetica,sans-Serif" font-size="10.00">o2::framework::data</text>
<text text-anchor="middle" x="573.5" y="-100.5" font-family="Helvetica,sans-Serif" font-size="10.00">_matcher::StartTimeValueMatcher</text>
<polyline fill="none" stroke="black" points="490.5,-93.5 656.5,-93.5 "/>
<text text-anchor="middle" x="573.5" y="-81.5" font-family="Helvetica,sans-Serif" font-size="10.00"> </text>
<polyline fill="none" stroke="black" points="490.5,-74.5 656.5,-74.5 "/>
<text text-anchor="start" x="498.5" y="-62.5" font-family="Helvetica,sans-Serif" font-size="10.00">+ StartTimeValueMatcher()</text>
<text text-anchor="start" x="498.5" y="-51.5" font-family="Helvetica,sans-Serif" font-size="10.00">+ StartTimeValueMatcher()</text>
<text text-anchor="start" x="498.5" y="-40.5" font-family="Helvetica,sans-Serif" font-size="10.00">+ StartTimeValueMatcher()</text>
<text text-anchor="start" x="498.5" y="-29.5" font-family="Helvetica,sans-Serif" font-size="10.00">+ match()</text>
</a>
</g>
</g>
<!-- Node7&#45;&gt;Node8 -->
<g id="edge7" class="edge"><title>Node7&#45;&gt;Node8</title>
<path fill="none" stroke="midnightblue" d="M567.335,-178.81C568.41,-160.537 569.561,-140.97 570.574,-123.75"/>
<polygon fill="none" stroke="midnightblue" points="563.84,-178.618 566.747,-188.806 570.828,-179.029 563.84,-178.618"/>
</g>
</g>
</svg>
