<?xml version="1.0" encoding="UTF-8" standalone="no"?>
<!DOCTYPE svg PUBLIC "-//W3C//DTD SVG 1.1//EN"
 "http://www.w3.org/Graphics/SVG/1.1/DTD/svg11.dtd">
<!-- Generated by graphviz version 2.38.0 (20140413.2041)
 -->
<!-- Title: /home/travis/build/AliceO2Group/AliceO2/Common/MathUtils/src/Cartesian2D.cxx Pages: 1 -->
<svg width="354pt" height="184pt"
 viewBox="0.00 0.00 353.50 184.00" xmlns="http://www.w3.org/2000/svg" xmlns:xlink="http://www.w3.org/1999/xlink">
<g id="graph0" class="graph" transform="scale(1 1) rotate(0) translate(4 180)">
<title>/home/travis/build/AliceO2Group/AliceO2/Common/MathUtils/src/Cartesian2D.cxx</title>
<!-- Node1 -->
<g id="node1" class="node"><title>Node1</title>
<polygon fill="#bfbfbf" stroke="black" points="106,-123.5 106,-175.5 227,-175.5 227,-123.5 106,-123.5"/>
<text text-anchor="start" x="114" y="-163.5" font-family="Helvetica,sans-Serif" font-size="10.00">/home/travis/build</text>
<text text-anchor="start" x="114" y="-152.5" font-family="Helvetica,sans-Serif" font-size="10.00">/AliceO2Group/AliceO2</text>
<text text-anchor="start" x="114" y="-141.5" font-family="Helvetica,sans-Serif" font-size="10.00">/Common/MathUtils/src</text>
<text text-anchor="middle" x="166.5" y="-130.5" font-family="Helvetica,sans-Serif" font-size="10.00">/Cartesian2D.cxx</text>
</g>
<!-- Node2 -->
<g id="node2" class="node"><title>Node2</title>
<g id="a_node2"><a xlink:href="../../d2/dd0/Cartesian2D_8h.html" target="_top" xlink:title="MathUtils/Cartesian2D.h">
<polygon fill="none" stroke="black" points="104,-67.5 104,-86.5 229,-86.5 229,-67.5 104,-67.5"/>
<text text-anchor="middle" x="166.5" y="-74.5" font-family="Helvetica,sans-Serif" font-size="10.00">MathUtils/Cartesian2D.h</text>
</a>
</g>
</g>
<!-- Node1&#45;&gt;Node2 -->
<g id="edge1" class="edge"><title>Node1&#45;&gt;Node2</title>
<path fill="none" stroke="midnightblue" d="M166.5,-123.446C166.5,-114.73 166.5,-105.104 166.5,-96.9641"/>
<polygon fill="midnightblue" stroke="midnightblue" points="170,-96.6954 166.5,-86.6955 163,-96.6955 170,-96.6954"/>
</g>
<!-- Node3 -->
<g id="node3" class="node"><title>Node3</title>
<polygon fill="none" stroke="#bfbfbf" points="0,-0.5 0,-30.5 151,-30.5 151,-0.5 0,-0.5"/>
<text text-anchor="start" x="8" y="-18.5" font-family="Helvetica,sans-Serif" font-size="10.00">Math/GenVector/Displacement</text>
<text text-anchor="middle" x="75.5" y="-7.5" font-family="Helvetica,sans-Serif" font-size="10.00">Vector2D.h</text>
</g>
<!-- Node2&#45;&gt;Node3 -->
<g id="edge2" class="edge"><title>Node2&#45;&gt;Node3</title>
<path fill="none" stroke="midnightblue" d="M153.462,-67.4751C141.022,-59.3413 121.827,-46.7909 105.597,-36.1788"/>
<polygon fill="midnightblue" stroke="midnightblue" points="107.232,-33.0661 96.9469,-30.523 103.401,-38.9249 107.232,-33.0661"/>
</g>
<!-- Node4 -->
<g id="node4" class="node"><title>Node4</title>
<polygon fill="none" stroke="#bfbfbf" points="169.5,-6 169.5,-25 345.5,-25 345.5,-6 169.5,-6"/>
<text text-anchor="middle" x="257.5" y="-13" font-family="Helvetica,sans-Serif" font-size="10.00">Math/GenVector/PositionVector2D.h</text>
</g>
<!-- Node2&#45;&gt;Node4 -->
<g id="edge3" class="edge"><title>Node2&#45;&gt;Node4</title>
<path fill="none" stroke="midnightblue" d="M179.538,-67.4751C194.269,-57.8431 218.473,-42.0175 236.009,-30.5517"/>
<polygon fill="midnightblue" stroke="midnightblue" points="238.032,-33.411 244.486,-25.0091 234.201,-27.5522 238.032,-33.411"/>
</g>
</g>
</svg>
