<?xml version="1.0" encoding="UTF-8" standalone="no"?>
<!DOCTYPE svg PUBLIC "-//W3C//DTD SVG 1.1//EN"
 "http://www.w3.org/Graphics/SVG/1.1/DTD/svg11.dtd">
<!-- Generated by graphviz version 2.38.0 (20140413.2041)
 -->
<!-- Title: /home/travis/build/AliceO2Group/AliceO2/Detectors/EMCAL/calib/src/CalibDB.cxx Pages: 1 -->
<!--zoomable 240 -->
<svg id="main" version="1.1" xmlns="http://www.w3.org/2000/svg" xmlns:xlink="http://www.w3.org/1999/xlink" xml:space="preserve" onload="init(evt)">
<style type="text/css"><![CDATA[
.edge:hover path { stroke: red; }
.edge:hover polygon { stroke: red; fill: red; }
]]></style>
<script type="text/javascript"><![CDATA[
var edges = document.getElementsByTagName('g');
if (edges && edges.length) {
  for (var i=0;i<edges.length;i++) {
    if (edges[i].id.substr(0,4)=='edge') {
      edges[i].setAttribute('class','edge');
    }
  }
}
]]></script>
        <defs>
                <circle id="rim" cx="0" cy="0" r="7"/>
                <circle id="rim2" cx="0" cy="0" r="3.5"/>
                <g id="zoomPlus">
                        <use xlink:href="#rim" fill="#404040">
                                <set attributeName="fill" to="#808080" begin="zoomplus.mouseover" end="zoomplus.mouseout"/>
                        </use>
                        <path d="M-4,0h8M0,-4v8" fill="none" stroke="white" stroke-width="1.5" pointer-events="none"/>
                </g>
                <g id="zoomMin">
                        <use xlink:href="#rim" fill="#404040">
                                <set attributeName="fill" to="#808080" begin="zoomminus.mouseover" end="zoomminus.mouseout"/>
                        </use>
                        <path d="M-4,0h8" fill="none" stroke="white" stroke-width="1.5" pointer-events="none"/>
                </g>
                <g id="dirArrow">
                        <path fill="none" stroke="white" stroke-width="1.5" d="M0,-3.0v7 M-2.5,-0.5L0,-3.0L2.5,-0.5"/>
                </g>
               <g id="resetDef">
                       <use xlink:href="#rim2" fill="#404040">
                               <set attributeName="fill" to="#808080" begin="reset.mouseover" end="reset.mouseout"/>
                       </use>
               </g>
        </defs>

<script type="text/javascript">
var viewWidth = 1011;
var viewHeight = 240;
var sectionId = 'dynsection-0';
</script>
<script xlink:href="../../svgpan.js"/>
<svg id="graph" class="graph">
<g id="viewport">
<title>/home/travis/build/AliceO2Group/AliceO2/Detectors/EMCAL/calib/src/CalibDB.cxx</title>
<!-- Node1 -->
<g id="node1" class="node"><title>Node1</title>
<polygon fill="#bfbfbf" stroke="black" points="457,-179.5 457,-231.5 580,-231.5 580,-179.5 457,-179.5"/>
<text text-anchor="start" x="465" y="-219.5" font-family="Helvetica,sans-Serif" font-size="10.00">/home/travis/build</text>
<text text-anchor="start" x="465" y="-208.5" font-family="Helvetica,sans-Serif" font-size="10.00">/AliceO2Group/AliceO2</text>
<text text-anchor="start" x="465" y="-197.5" font-family="Helvetica,sans-Serif" font-size="10.00">/Detectors/EMCAL/calib</text>
<text text-anchor="middle" x="518.5" y="-186.5" font-family="Helvetica,sans-Serif" font-size="10.00">/src/CalibDB.cxx</text>
</g>
<!-- Node2 -->
<g id="node2" class="node"><title>Node2</title>
<g id="a_node2"><a xlink:href="../../d2/d65/EMCAL_2calib_2include_2EMCALCalib_2BadChannelMap_8h.html" target="_top" xlink:title="EMCALCalib/BadChannelMap.h">
<polygon fill="none" stroke="black" points="0,-118 0,-137 157,-137 157,-118 0,-118"/>
<text text-anchor="middle" x="78.5" y="-125" font-family="Helvetica,sans-Serif" font-size="10.00">EMCALCalib/BadChannelMap.h</text>
</a>
</g>
</g>
<!-- Node1&#45;&gt;Node2 -->
<g id="edge1" class="edge"><title>Node1&#45;&gt;Node2</title>
<path fill="none" stroke="midnightblue" d="M456.857,-193.853C372.283,-179.244 221.291,-153.164 137.907,-138.761"/>
<polygon fill="midnightblue" stroke="midnightblue" points="138.286,-135.275 127.836,-137.022 137.094,-142.173 138.286,-135.275"/>
</g>
<!-- Node13 -->
<g id="node13" class="node"><title>Node13</title>
<g id="a_node13"><a xlink:href="../../d9/dd2/TimeCalibrationParams_8h.html" target="_top" xlink:title="EMCALCalib/TimeCalibration\lParams.h">
<polygon fill="none" stroke="black" points="536,-112.5 536,-142.5 681,-142.5 681,-112.5 536,-112.5"/>
<text text-anchor="start" x="544" y="-130.5" font-family="Helvetica,sans-Serif" font-size="10.00">EMCALCalib/TimeCalibration</text>
<text text-anchor="middle" x="608.5" y="-119.5" font-family="Helvetica,sans-Serif" font-size="10.00">Params.h</text>
</a>
</g>
</g>
<!-- Node1&#45;&gt;Node13 -->
<g id="edge13" class="edge"><title>Node1&#45;&gt;Node13</title>
<path fill="none" stroke="midnightblue" d="M548.469,-179.193C559.96,-169.49 572.928,-158.539 583.863,-149.304"/>
<polygon fill="midnightblue" stroke="midnightblue" points="586.389,-151.753 591.771,-142.627 581.873,-146.404 586.389,-151.753"/>
</g>
<!-- Node15 -->
<g id="node15" class="node"><title>Node15</title>
<g id="a_node15"><a xlink:href="../../dc/dc3/TempCalibrationParams_8h.html" target="_top" xlink:title="EMCALCalib/TempCalibration\lParams.h">
<polygon fill="none" stroke="black" points="699.5,-112.5 699.5,-142.5 847.5,-142.5 847.5,-112.5 699.5,-112.5"/>
<text text-anchor="start" x="707.5" y="-130.5" font-family="Helvetica,sans-Serif" font-size="10.00">EMCALCalib/TempCalibration</text>
<text text-anchor="middle" x="773.5" y="-119.5" font-family="Helvetica,sans-Serif" font-size="10.00">Params.h</text>
</a>
</g>
</g>
<!-- Node1&#45;&gt;Node15 -->
<g id="edge17" class="edge"><title>Node1&#45;&gt;Node15</title>
<path fill="none" stroke="midnightblue" d="M580.228,-186.103C621.76,-173.724 676.114,-157.525 716.599,-145.459"/>
<polygon fill="midnightblue" stroke="midnightblue" points="717.732,-148.773 726.316,-142.563 715.733,-142.065 717.732,-148.773"/>
</g>
<!-- Node16 -->
<g id="node16" class="node"><title>Node16</title>
<g id="a_node16"><a xlink:href="../../df/df8/TimeCalibParamL1Phase_8h.html" target="_top" xlink:title="EMCALCalib/TimeCalibParam\lL1Phase.h">
<polygon fill="none" stroke="black" points="175,-112.5 175,-142.5 324,-142.5 324,-112.5 175,-112.5"/>
<text text-anchor="start" x="183" y="-130.5" font-family="Helvetica,sans-Serif" font-size="10.00">EMCALCalib/TimeCalibParam</text>
<text text-anchor="middle" x="249.5" y="-119.5" font-family="Helvetica,sans-Serif" font-size="10.00">L1Phase.h</text>
</a>
</g>
</g>
<!-- Node1&#45;&gt;Node16 -->
<g id="edge21" class="edge"><title>Node1&#45;&gt;Node16</title>
<path fill="none" stroke="midnightblue" d="M456.786,-187.064C412.37,-174.515 352.8,-157.685 308.919,-145.288"/>
<polygon fill="midnightblue" stroke="midnightblue" points="309.82,-141.905 299.245,-142.554 307.917,-148.642 309.82,-141.905"/>
</g>
<!-- Node17 -->
<g id="node17" class="node"><title>Node17</title>
<g id="a_node17"><a xlink:href="../../db/dba/TempCalibParamSM_8h.html" target="_top" xlink:title="EMCALCalib/TempCalibParamSM.h">
<polygon fill="none" stroke="black" points="341.5,-118 341.5,-137 517.5,-137 517.5,-118 341.5,-118"/>
<text text-anchor="middle" x="429.5" y="-125" font-family="Helvetica,sans-Serif" font-size="10.00">EMCALCalib/TempCalibParamSM.h</text>
</a>
</g>
</g>
<!-- Node1&#45;&gt;Node17 -->
<g id="edge25" class="edge"><title>Node1&#45;&gt;Node17</title>
<path fill="none" stroke="midnightblue" d="M488.864,-179.193C475.192,-167.518 459.405,-154.037 447.55,-143.913"/>
<polygon fill="midnightblue" stroke="midnightblue" points="449.576,-141.041 439.699,-137.209 445.03,-146.364 449.576,-141.041"/>
</g>
<!-- Node18 -->
<g id="node18" class="node"><title>Node18</title>
<g id="a_node18"><a xlink:href="../../d3/de9/EMCAL_2calib_2include_2EMCALCalib_2CalibDB_8h.html" target="_top" xlink:title="EMCALCalib/CalibDB.h">
<polygon fill="none" stroke="black" points="865.5,-118 865.5,-137 987.5,-137 987.5,-118 865.5,-118"/>
<text text-anchor="middle" x="926.5" y="-125" font-family="Helvetica,sans-Serif" font-size="10.00">EMCALCalib/CalibDB.h</text>
</a>
</g>
</g>
<!-- Node1&#45;&gt;Node18 -->
<g id="edge29" class="edge"><title>Node1&#45;&gt;Node18</title>
<path fill="none" stroke="midnightblue" d="M580.262,-193.726C648.091,-181.786 760.191,-161.734 856.5,-143 862.816,-141.771 869.444,-140.446 876,-139.113"/>
<polygon fill="midnightblue" stroke="midnightblue" points="877.093,-142.462 886.186,-137.025 875.687,-135.604 877.093,-142.462"/>
</g>
<!-- Node3 -->
<g id="node3" class="node"><title>Node3</title>
<polygon fill="none" stroke="#bfbfbf" points="384,-0.5 384,-19.5 429,-19.5 429,-0.5 384,-0.5"/>
<text text-anchor="middle" x="406.5" y="-7.5" font-family="Helvetica,sans-Serif" font-size="10.00">iosfwd</text>
</g>
<!-- Node2&#45;&gt;Node3 -->
<g id="edge2" class="edge"><title>Node2&#45;&gt;Node3</title>
<path fill="none" stroke="midnightblue" d="M130.477,-117.979C189.829,-107.804 282.922,-90.3572 315.5,-76 330.557,-69.3644 365.569,-43.0205 387.51,-25.9754"/>
<polygon fill="midnightblue" stroke="midnightblue" points="389.755,-28.6625 395.479,-19.7469 385.445,-23.1471 389.755,-28.6625"/>
</g>
<!-- Node4 -->
<g id="node4" class="node"><title>Node4</title>
<polygon fill="none" stroke="#bfbfbf" points="266,-56.5 266,-75.5 307,-75.5 307,-56.5 266,-56.5"/>
<text text-anchor="middle" x="286.5" y="-63.5" font-family="Helvetica,sans-Serif" font-size="10.00">bitset</text>
</g>
<!-- Node2&#45;&gt;Node4 -->
<g id="edge3" class="edge"><title>Node2&#45;&gt;Node4</title>
<path fill="none" stroke="midnightblue" d="M109.092,-117.971C142.714,-108.565 198.562,-92.8435 256.214,-76.0513"/>
<polygon fill="midnightblue" stroke="midnightblue" points="257.236,-79.399 265.855,-73.2378 255.275,-72.6792 257.236,-79.399"/>
</g>
<!-- Node5 -->
<g id="node5" class="node"><title>Node5</title>
<polygon fill="none" stroke="#bfbfbf" points="439.5,-56.5 439.5,-75.5 495.5,-75.5 495.5,-56.5 439.5,-56.5"/>
<text text-anchor="middle" x="467.5" y="-63.5" font-family="Helvetica,sans-Serif" font-size="10.00">Rtypes.h</text>
</g>
<!-- Node2&#45;&gt;Node5 -->
<g id="edge4" class="edge"><title>Node2&#45;&gt;Node5</title>
<path fill="none" stroke="midnightblue" d="M128.622,-117.995C140.692,-115.989 153.551,-113.886 165.5,-112 260.143,-97.063 371.691,-80.7856 429.091,-72.5069"/>
<polygon fill="midnightblue" stroke="midnightblue" points="429.764,-75.9462 439.163,-71.0562 428.766,-69.0177 429.764,-75.9462"/>
</g>
<!-- Node6 -->
<g id="node6" class="node"><title>Node6</title>
<g id="a_node6"><a xlink:href="../../d7/d44/TObjectWrapper_8h.html" target="_top" xlink:title="CCDB/TObjectWrapper.h">
<polygon fill="none" stroke="black" points="119.5,-56.5 119.5,-75.5 247.5,-75.5 247.5,-56.5 119.5,-56.5"/>
<text text-anchor="middle" x="183.5" y="-63.5" font-family="Helvetica,sans-Serif" font-size="10.00">CCDB/TObjectWrapper.h</text>
</a>
</g>
</g>
<!-- Node2&#45;&gt;Node6 -->
<g id="edge5" class="edge"><title>Node2&#45;&gt;Node6</title>
<path fill="none" stroke="midnightblue" d="M93.5439,-117.975C110.775,-108.211 139.24,-92.0807 159.534,-80.5808"/>
<polygon fill="midnightblue" stroke="midnightblue" points="161.509,-83.4843 168.484,-75.5091 158.058,-77.3942 161.509,-83.4843"/>
</g>
<!-- Node6&#45;&gt;Node3 -->
<g id="edge9" class="edge"><title>Node6&#45;&gt;Node3</title>
<path fill="none" stroke="midnightblue" d="M218.835,-56.4435C261.518,-46.1077 332.725,-28.8647 374.065,-18.8542"/>
<polygon fill="midnightblue" stroke="midnightblue" points="375.001,-22.2289 383.896,-16.4736 373.353,-15.4255 375.001,-22.2289"/>
</g>
<!-- Node7 -->
<g id="node7" class="node"><title>Node7</title>
<polygon fill="none" stroke="#bfbfbf" points="119.5,-0.5 119.5,-19.5 175.5,-19.5 175.5,-0.5 119.5,-0.5"/>
<text text-anchor="middle" x="147.5" y="-7.5" font-family="Helvetica,sans-Serif" font-size="10.00">TClass.h</text>
</g>
<!-- Node6&#45;&gt;Node7 -->
<g id="edge6" class="edge"><title>Node6&#45;&gt;Node7</title>
<path fill="none" stroke="midnightblue" d="M177.555,-56.083C172.523,-48.5341 165.163,-37.4948 158.987,-28.2298"/>
<polygon fill="midnightblue" stroke="midnightblue" points="161.793,-26.1301 153.334,-19.7511 155.969,-30.0131 161.793,-26.1301"/>
</g>
<!-- Node8 -->
<g id="node8" class="node"><title>Node8</title>
<polygon fill="none" stroke="#bfbfbf" points="464,-0.5 464,-19.5 523,-19.5 523,-0.5 464,-0.5"/>
<text text-anchor="middle" x="493.5" y="-7.5" font-family="Helvetica,sans-Serif" font-size="10.00">TObject.h</text>
</g>
<!-- Node6&#45;&gt;Node8 -->
<g id="edge7" class="edge"><title>Node6&#45;&gt;Node8</title>
<path fill="none" stroke="midnightblue" d="M232.62,-56.4435C293.856,-45.7768 397.323,-27.7533 453.801,-17.9153"/>
<polygon fill="midnightblue" stroke="midnightblue" points="454.528,-21.3414 463.779,-16.1772 453.327,-14.4453 454.528,-21.3414"/>
</g>
<!-- Node9 -->
<g id="node9" class="node"><title>Node9</title>
<polygon fill="none" stroke="#bfbfbf" points="194,-0.5 194,-19.5 247,-19.5 247,-0.5 194,-0.5"/>
<text text-anchor="middle" x="220.5" y="-7.5" font-family="Helvetica,sans-Serif" font-size="10.00">cxxabi.h</text>
</g>
<!-- Node6&#45;&gt;Node9 -->
<g id="edge8" class="edge"><title>Node6&#45;&gt;Node9</title>
<path fill="none" stroke="midnightblue" d="M189.61,-56.083C194.782,-48.5341 202.346,-37.4948 208.694,-28.2298"/>
<polygon fill="midnightblue" stroke="midnightblue" points="211.739,-29.9787 214.504,-19.7511 205.964,-26.0221 211.739,-29.9787"/>
</g>
<!-- Node10 -->
<g id="node10" class="node"><title>Node10</title>
<polygon fill="none" stroke="#bfbfbf" points="576.5,-0.5 576.5,-19.5 628.5,-19.5 628.5,-0.5 576.5,-0.5"/>
<text text-anchor="middle" x="602.5" y="-7.5" font-family="Helvetica,sans-Serif" font-size="10.00">memory</text>
</g>
<!-- Node6&#45;&gt;Node10 -->
<g id="edge10" class="edge"><title>Node6&#45;&gt;Node10</title>
<path fill="none" stroke="midnightblue" d="M247.593,-56.7398C336.559,-45.274 494.557,-24.9115 565.827,-15.7264"/>
<polygon fill="midnightblue" stroke="midnightblue" points="566.626,-19.1525 576.096,-14.4029 565.731,-12.2099 566.626,-19.1525"/>
</g>
<!-- Node11 -->
<g id="node11" class="node"><title>Node11</title>
<polygon fill="none" stroke="#bfbfbf" points="265,-0.5 265,-19.5 324,-19.5 324,-0.5 265,-0.5"/>
<text text-anchor="middle" x="294.5" y="-7.5" font-family="Helvetica,sans-Serif" font-size="10.00">stdexcept</text>
</g>
<!-- Node6&#45;&gt;Node11 -->
<g id="edge11" class="edge"><title>Node6&#45;&gt;Node11</title>
<path fill="none" stroke="midnightblue" d="M201.334,-56.324C219.216,-47.6247 246.975,-34.1202 267.546,-24.113"/>
<polygon fill="midnightblue" stroke="midnightblue" points="269.249,-27.1765 276.71,-19.6545 266.187,-20.8819 269.249,-27.1765"/>
</g>
<!-- Node12 -->
<g id="node12" class="node"><title>Node12</title>
<polygon fill="none" stroke="#bfbfbf" points="50,-0.5 50,-19.5 101,-19.5 101,-0.5 50,-0.5"/>
<text text-anchor="middle" x="75.5" y="-7.5" font-family="Helvetica,sans-Serif" font-size="10.00">typeinfo</text>
</g>
<!-- Node6&#45;&gt;Node12 -->
<g id="edge12" class="edge"><title>Node6&#45;&gt;Node12</title>
<path fill="none" stroke="midnightblue" d="M166.148,-56.324C148.828,-47.6641 121.985,-34.2424 101.998,-24.249"/>
<polygon fill="midnightblue" stroke="midnightblue" points="103.319,-20.9962 92.809,-19.6545 100.188,-27.2572 103.319,-20.9962"/>
</g>
<!-- Node13&#45;&gt;Node3 -->
<g id="edge14" class="edge"><title>Node13&#45;&gt;Node3</title>
<path fill="none" stroke="midnightblue" d="M602.516,-112.421C595.004,-96.4191 580.62,-70.6287 560.5,-56 541.112,-41.9034 478.18,-26.4203 439.021,-17.7874"/>
<polygon fill="midnightblue" stroke="midnightblue" points="439.656,-14.3437 429.141,-15.6431 438.171,-21.1845 439.656,-14.3437"/>
</g>
<!-- Node13&#45;&gt;Node5 -->
<g id="edge16" class="edge"><title>Node13&#45;&gt;Node5</title>
<path fill="none" stroke="midnightblue" d="M575.085,-112.399C551.533,-102.461 520.262,-89.2649 497.507,-79.6625"/>
<polygon fill="midnightblue" stroke="midnightblue" points="498.591,-76.3211 488.017,-75.6578 495.869,-82.7704 498.591,-76.3211"/>
</g>
<!-- Node14 -->
<g id="node14" class="node"><title>Node14</title>
<polygon fill="none" stroke="#bfbfbf" points="513.5,-56.5 513.5,-75.5 551.5,-75.5 551.5,-56.5 513.5,-56.5"/>
<text text-anchor="middle" x="532.5" y="-63.5" font-family="Helvetica,sans-Serif" font-size="10.00">array</text>
</g>
<!-- Node13&#45;&gt;Node14 -->
<g id="edge15" class="edge"><title>Node13&#45;&gt;Node14</title>
<path fill="none" stroke="midnightblue" d="M590.489,-112.399C578.762,-103.218 563.485,-91.2579 551.555,-81.9182"/>
<polygon fill="midnightblue" stroke="midnightblue" points="553.59,-79.0664 543.559,-75.6578 549.275,-84.5782 553.59,-79.0664"/>
</g>
<!-- Node15&#45;&gt;Node3 -->
<g id="edge18" class="edge"><title>Node15&#45;&gt;Node3</title>
<path fill="none" stroke="midnightblue" d="M735.062,-112.494C707.571,-102.438 669.712,-88.5073 636.5,-76 613.327,-67.2733 608.101,-63.4923 584.5,-56 534.451,-40.1115 475.106,-26.0371 439.154,-18.0215"/>
<polygon fill="midnightblue" stroke="midnightblue" points="439.742,-14.5671 429.222,-15.829 438.233,-21.4025 439.742,-14.5671"/>
</g>
<!-- Node15&#45;&gt;Node5 -->
<g id="edge20" class="edge"><title>Node15&#45;&gt;Node5</title>
<path fill="none" stroke="midnightblue" d="M699.359,-113.673C647.648,-104.473 576.819,-91.3699 505.771,-76.1896"/>
<polygon fill="midnightblue" stroke="midnightblue" points="506.259,-72.7145 495.746,-74.034 504.787,-79.5581 506.259,-72.7145"/>
</g>
<!-- Node15&#45;&gt;Node14 -->
<g id="edge19" class="edge"><title>Node15&#45;&gt;Node14</title>
<path fill="none" stroke="midnightblue" d="M716.692,-112.475C667.973,-100.447 599.763,-83.6065 561.494,-74.1583"/>
<polygon fill="midnightblue" stroke="midnightblue" points="562.083,-70.6986 551.535,-71.6996 560.405,-77.4946 562.083,-70.6986"/>
</g>
<!-- Node16&#45;&gt;Node3 -->
<g id="edge22" class="edge"><title>Node16&#45;&gt;Node3</title>
<path fill="none" stroke="midnightblue" d="M285.213,-112.48C305.212,-103.677 329.976,-91.1299 349.5,-76 367.407,-62.1235 384.013,-42.0144 394.627,-27.846"/>
<polygon fill="midnightblue" stroke="midnightblue" points="397.634,-29.6628 400.69,-19.5184 391.975,-25.5425 397.634,-29.6628"/>
</g>
<!-- Node16&#45;&gt;Node5 -->
<g id="edge24" class="edge"><title>Node16&#45;&gt;Node5</title>
<path fill="none" stroke="midnightblue" d="M300.887,-112.475C340.299,-101.718 393.814,-87.1117 429.445,-77.3866"/>
<polygon fill="midnightblue" stroke="midnightblue" points="430.718,-80.6673 439.443,-74.6577 428.874,-73.9143 430.718,-80.6673"/>
</g>
<!-- Node16&#45;&gt;Node14 -->
<g id="edge23" class="edge"><title>Node16&#45;&gt;Node14</title>
<path fill="none" stroke="midnightblue" d="M324.197,-112.697C382.273,-101.795 459.055,-86.9697 503.526,-75.9851"/>
<polygon fill="midnightblue" stroke="midnightblue" points="504.48,-79.3538 513.306,-73.4918 502.751,-72.5708 504.48,-79.3538"/>
</g>
<!-- Node17&#45;&gt;Node3 -->
<g id="edge26" class="edge"><title>Node17&#45;&gt;Node3</title>
<path fill="none" stroke="midnightblue" d="M427.771,-117.819C424.058,-99.1732 415.251,-54.943 410.21,-29.6317"/>
<polygon fill="midnightblue" stroke="midnightblue" points="413.634,-28.9059 408.249,-19.782 406.769,-30.273 413.634,-28.9059"/>
</g>
<!-- Node17&#45;&gt;Node5 -->
<g id="edge28" class="edge"><title>Node17&#45;&gt;Node5</title>
<path fill="none" stroke="midnightblue" d="M434.944,-117.975C440.588,-109.138 449.561,-95.0886 456.659,-83.975"/>
<polygon fill="midnightblue" stroke="midnightblue" points="459.633,-85.8208 462.066,-75.5091 453.733,-82.0531 459.633,-85.8208"/>
</g>
<!-- Node17&#45;&gt;Node14 -->
<g id="edge27" class="edge"><title>Node17&#45;&gt;Node14</title>
<path fill="none" stroke="midnightblue" d="M444.257,-117.975C461.161,-108.211 489.083,-92.0807 508.99,-80.5808"/>
<polygon fill="midnightblue" stroke="midnightblue" points="510.862,-83.5419 517.77,-75.5091 507.36,-77.4805 510.862,-83.5419"/>
</g>
<!-- Node18&#45;&gt;Node5 -->
<g id="edge33" class="edge"><title>Node18&#45;&gt;Node5</title>
<path fill="none" stroke="midnightblue" d="M888.847,-117.963C878.409,-115.798 867.048,-113.628 856.5,-112 704.266,-88.5113 661.24,-102.063 505.623,-75.9714"/>
<polygon fill="midnightblue" stroke="midnightblue" points="506.145,-72.5099 495.699,-74.2798 504.968,-79.4104 506.145,-72.5099"/>
</g>
<!-- Node19 -->
<g id="node19" class="node"><title>Node19</title>
<polygon fill="none" stroke="#bfbfbf" points="857,-56.5 857,-75.5 916,-75.5 916,-56.5 857,-56.5"/>
<text text-anchor="middle" x="886.5" y="-63.5" font-family="Helvetica,sans-Serif" font-size="10.00">exception</text>
</g>
<!-- Node18&#45;&gt;Node19 -->
<g id="edge30" class="edge"><title>Node18&#45;&gt;Node19</title>
<path fill="none" stroke="midnightblue" d="M920.769,-117.975C914.828,-109.138 905.383,-95.0886 897.912,-83.975"/>
<polygon fill="midnightblue" stroke="midnightblue" points="900.704,-81.8554 892.22,-75.5091 894.895,-85.7608 900.704,-81.8554"/>
</g>
<!-- Node20 -->
<g id="node20" class="node"><title>Node20</title>
<polygon fill="none" stroke="#bfbfbf" points="909,-0.5 909,-19.5 944,-19.5 944,-0.5 909,-0.5"/>
<text text-anchor="middle" x="926.5" y="-7.5" font-family="Helvetica,sans-Serif" font-size="10.00">map</text>
</g>
<!-- Node18&#45;&gt;Node20 -->
<g id="edge31" class="edge"><title>Node18&#45;&gt;Node20</title>
<path fill="none" stroke="midnightblue" d="M926.5,-117.819C926.5,-99.2568 926.5,-55.3391 926.5,-29.9734"/>
<polygon fill="midnightblue" stroke="midnightblue" points="930,-29.782 926.5,-19.782 923,-29.782 930,-29.782"/>
</g>
<!-- Node21 -->
<g id="node21" class="node"><title>Node21</title>
<polygon fill="none" stroke="#bfbfbf" points="962,-0.5 962,-19.5 1003,-19.5 1003,-0.5 962,-0.5"/>
<text text-anchor="middle" x="982.5" y="-7.5" font-family="Helvetica,sans-Serif" font-size="10.00">string</text>
</g>
<!-- Node18&#45;&gt;Node21 -->
<g id="edge32" class="edge"><title>Node18&#45;&gt;Node21</title>
<path fill="none" stroke="midnightblue" d="M930.709,-117.819C939.83,-99.006 961.58,-54.1475 973.794,-28.9553"/>
<polygon fill="midnightblue" stroke="midnightblue" points="977.029,-30.3071 978.242,-19.782 970.73,-27.2532 977.029,-30.3071"/>
</g>
<!-- Node22 -->
<g id="node22" class="node"><title>Node22</title>
<polygon fill="none" stroke="#bfbfbf" points="645.5,-56.5 645.5,-75.5 725.5,-75.5 725.5,-56.5 645.5,-56.5"/>
<text text-anchor="middle" x="685.5" y="-63.5" font-family="Helvetica,sans-Serif" font-size="10.00">RStringView.h</text>
</g>
<!-- Node18&#45;&gt;Node22 -->
<g id="edge34" class="edge"><title>Node18&#45;&gt;Node22</title>
<path fill="none" stroke="midnightblue" d="M891.971,-117.975C849.288,-107.437 776.579,-89.4863 729.818,-77.9415"/>
<polygon fill="midnightblue" stroke="midnightblue" points="730.513,-74.5081 719.965,-75.5091 728.835,-81.304 730.513,-74.5081"/>
</g>
<!-- Node23 -->
<g id="node23" class="node"><title>Node23</title>
<g id="a_node23"><a xlink:href="../../dd/d3e/CcdbApi_8h.html" target="_top" xlink:title="CCDB/CcdbApi.h">
<polygon fill="none" stroke="black" points="744,-56.5 744,-75.5 839,-75.5 839,-56.5 744,-56.5"/>
<text text-anchor="middle" x="791.5" y="-63.5" font-family="Helvetica,sans-Serif" font-size="10.00">CCDB/CcdbApi.h</text>
</a>
</g>
</g>
<!-- Node18&#45;&gt;Node23 -->
<g id="edge35" class="edge"><title>Node18&#45;&gt;Node23</title>
<path fill="none" stroke="midnightblue" d="M907.158,-117.975C884.401,-107.945 846.408,-91.2002 820.212,-79.6546"/>
<polygon fill="midnightblue" stroke="midnightblue" points="821.369,-76.3395 810.806,-75.5091 818.545,-82.7449 821.369,-76.3395"/>
</g>
<!-- Node23&#45;&gt;Node8 -->
<g id="edge41" class="edge"><title>Node23&#45;&gt;Node8</title>
<path fill="none" stroke="midnightblue" d="M744.281,-56.4435C686.001,-45.8827 587.925,-28.1107 533.293,-18.2108"/>
<polygon fill="midnightblue" stroke="midnightblue" points="533.758,-14.7381 523.294,-16.3989 532.509,-21.6259 533.758,-14.7381"/>
</g>
<!-- Node23&#45;&gt;Node10 -->
<g id="edge37" class="edge"><title>Node23&#45;&gt;Node10</title>
<path fill="none" stroke="midnightblue" d="M761.552,-56.4435C728.205,-46.9158 674.315,-31.5187 638.648,-21.328"/>
<polygon fill="midnightblue" stroke="midnightblue" points="639.232,-17.855 628.656,-18.473 637.309,-24.5856 639.232,-17.855"/>
</g>
<!-- Node23&#45;&gt;Node20 -->
<g id="edge39" class="edge"><title>Node23&#45;&gt;Node20</title>
<path fill="none" stroke="midnightblue" d="M812.891,-56.4435C836.257,-47.097 873.744,-32.1023 899.212,-21.9151"/>
<polygon fill="midnightblue" stroke="midnightblue" points="900.673,-25.1005 908.658,-18.1368 898.073,-18.6011 900.673,-25.1005"/>
</g>
<!-- Node23&#45;&gt;Node21 -->
<g id="edge36" class="edge"><title>Node23&#45;&gt;Node21</title>
<path fill="none" stroke="midnightblue" d="M822.715,-56.4634C853.221,-48.0793 901.22,-34.7783 952.008,-20.1021"/>
<polygon fill="midnightblue" stroke="midnightblue" points="953.227,-23.3929 961.858,-17.2484 951.279,-16.6693 953.227,-23.3929"/>
</g>
<!-- Node24 -->
<g id="node24" class="node"><title>Node24</title>
<polygon fill="none" stroke="#bfbfbf" points="836.5,-0.5 836.5,-19.5 890.5,-19.5 890.5,-0.5 836.5,-0.5"/>
<text text-anchor="middle" x="863.5" y="-7.5" font-family="Helvetica,sans-Serif" font-size="10.00">iostream</text>
</g>
<!-- Node23&#45;&gt;Node24 -->
<g id="edge38" class="edge"><title>Node23&#45;&gt;Node24</title>
<path fill="none" stroke="midnightblue" d="M803.068,-56.324C813.92,-48.1849 830.381,-35.8395 843.383,-26.0874"/>
<polygon fill="midnightblue" stroke="midnightblue" points="845.821,-28.6339 851.721,-19.8339 841.621,-23.0339 845.821,-28.6339"/>
</g>
<!-- Node25 -->
<g id="node25" class="node"><title>Node25</title>
<polygon fill="none" stroke="#bfbfbf" points="670,-0.5 670,-19.5 729,-19.5 729,-0.5 670,-0.5"/>
<text text-anchor="middle" x="699.5" y="-7.5" font-family="Helvetica,sans-Serif" font-size="10.00">curl/curl.h</text>
</g>
<!-- Node23&#45;&gt;Node25 -->
<g id="edge40" class="edge"><title>Node23&#45;&gt;Node25</title>
<path fill="none" stroke="midnightblue" d="M776.719,-56.324C762.233,-47.8215 739.927,-34.7288 723.007,-24.7975"/>
<polygon fill="midnightblue" stroke="midnightblue" points="724.641,-21.6981 714.245,-19.6545 721.097,-27.735 724.641,-21.6981"/>
</g>
<!-- Node26 -->
<g id="node26" class="node"><title>Node26</title>
<polygon fill="none" stroke="#bfbfbf" points="747,-0.5 747,-19.5 818,-19.5 818,-0.5 747,-0.5"/>
<text text-anchor="middle" x="782.5" y="-7.5" font-family="Helvetica,sans-Serif" font-size="10.00">TMessage.h</text>
</g>
<!-- Node23&#45;&gt;Node26 -->
<g id="edge42" class="edge"><title>Node23&#45;&gt;Node26</title>
<path fill="none" stroke="midnightblue" d="M790.014,-56.083C788.821,-48.9272 787.106,-38.6353 785.615,-29.6911"/>
<polygon fill="midnightblue" stroke="midnightblue" points="789.055,-29.0396 783.959,-19.7511 782.15,-30.1904 789.055,-29.0396"/>
</g>
</g>
</svg>
        <g id="navigator" transform="translate(0 0)" fill="#404254">
                <rect fill="#f2f5e9" fill-opacity="0.5" stroke="#606060" stroke-width=".5" x="0" y="0" width="60" height="60"/>
                <use id="zoomplus" xlink:href="#zoomPlus" x="17" y="9" onmousedown="handleZoom(evt,'in')"/>
                <use id="zoomminus" xlink:href="#zoomMin" x="42" y="9" onmousedown="handleZoom(evt,'out')"/>
                <use id="reset" xlink:href="#resetDef" x="30" y="36" onmousedown="handleReset()"/>
                <g id="arrowUp" xlink:href="#dirArrow" transform="translate(30 24)" onmousedown="handlePan(0,-1)">
                  <use xlink:href="#rim" fill="#404040">
                        <set attributeName="fill" to="#808080" begin="arrowUp.mouseover" end="arrowUp.mouseout"/>
                  </use>
                  <path fill="none" stroke="white" stroke-width="1.5" d="M0,-3.0v7 M-2.5,-0.5L0,-3.0L2.5,-0.5"/>
                </g>
                <g id="arrowRight" xlink:href="#dirArrow" transform="rotate(90) translate(36 -43)" onmousedown="handlePan(1,0)">
                  <use xlink:href="#rim" fill="#404040">
                        <set attributeName="fill" to="#808080" begin="arrowRight.mouseover" end="arrowRight.mouseout"/>
                  </use>
                  <path fill="none" stroke="white" stroke-width="1.5" d="M0,-3.0v7 M-2.5,-0.5L0,-3.0L2.5,-0.5"/>
                </g>
                <g id="arrowDown" xlink:href="#dirArrow" transform="rotate(180) translate(-30 -48)" onmousedown="handlePan(0,1)">
                  <use xlink:href="#rim" fill="#404040">
                        <set attributeName="fill" to="#808080" begin="arrowDown.mouseover" end="arrowDown.mouseout"/>
                  </use>
                  <path fill="none" stroke="white" stroke-width="1.5" d="M0,-3.0v7 M-2.5,-0.5L0,-3.0L2.5,-0.5"/>
                </g>
                <g id="arrowLeft" xlink:href="#dirArrow" transform="rotate(270) translate(-36 17)" onmousedown="handlePan(-1,0)">
                  <use xlink:href="#rim" fill="#404040">
                        <set attributeName="fill" to="#808080" begin="arrowLeft.mouseover" end="arrowLeft.mouseout"/>
                  </use>
                  <path fill="none" stroke="white" stroke-width="1.5" d="M0,-3.0v7 M-2.5,-0.5L0,-3.0L2.5,-0.5"/>
                </g>
        </g>
        <svg viewBox="0 0 15 15" width="100%" height="30px" preserveAspectRatio="xMaxYMin meet">
         <g id="arrow_out" transform="scale(0.3 0.3)">
          <a xlink:href="EMCAL_2calib_2src_2CalibDB_8cxx__incl_org.svg" target="_base">
           <rect id="button" ry="5" rx="5" y="6" x="6" height="38" width="38"
                fill="#f2f5e9" fill-opacity="0.5" stroke="#606060" stroke-width="1.0"/>
           <path id="arrow"
             d="M 11.500037,31.436501 C 11.940474,20.09759 22.043105,11.32322 32.158766,21.979434 L 37.068811,17.246167 C 37.068811,17.246167 37.088388,32 37.088388,32 L 22.160133,31.978069 C 22.160133,31.978069 26.997745,27.140456 26.997745,27.140456 C 18.528582,18.264221 13.291696,25.230495 11.500037,31.436501 z"
             style="fill:#404040;"/>
          </a>
         </g>
        </svg>
</svg>
