<?xml version="1.0" encoding="UTF-8" standalone="no"?>
<!DOCTYPE svg PUBLIC "-//W3C//DTD SVG 1.1//EN"
 "http://www.w3.org/Graphics/SVG/1.1/DTD/svg11.dtd">
<!-- Generated by graphviz version 2.38.0 (20140413.2041)
 -->
<!-- Title: /home/travis/build/AliceO2Group/AliceO2/Common/Utils/include/CommonUtils/HBFUtils.h Pages: 1 -->
<!--zoomable 184 -->
<svg id="main" version="1.1" xmlns="http://www.w3.org/2000/svg" xmlns:xlink="http://www.w3.org/1999/xlink" xml:space="preserve" onload="init(evt)">
<style type="text/css"><![CDATA[
.edge:hover path { stroke: red; }
.edge:hover polygon { stroke: red; fill: red; }
]]></style>
<script type="text/javascript"><![CDATA[
var edges = document.getElementsByTagName('g');
if (edges && edges.length) {
  for (var i=0;i<edges.length;i++) {
    if (edges[i].id.substr(0,4)=='edge') {
      edges[i].setAttribute('class','edge');
    }
  }
}
]]></script>
        <defs>
                <circle id="rim" cx="0" cy="0" r="7"/>
                <circle id="rim2" cx="0" cy="0" r="3.5"/>
                <g id="zoomPlus">
                        <use xlink:href="#rim" fill="#404040">
                                <set attributeName="fill" to="#808080" begin="zoomplus.mouseover" end="zoomplus.mouseout"/>
                        </use>
                        <path d="M-4,0h8M0,-4v8" fill="none" stroke="white" stroke-width="1.5" pointer-events="none"/>
                </g>
                <g id="zoomMin">
                        <use xlink:href="#rim" fill="#404040">
                                <set attributeName="fill" to="#808080" begin="zoomminus.mouseover" end="zoomminus.mouseout"/>
                        </use>
                        <path d="M-4,0h8" fill="none" stroke="white" stroke-width="1.5" pointer-events="none"/>
                </g>
                <g id="dirArrow">
                        <path fill="none" stroke="white" stroke-width="1.5" d="M0,-3.0v7 M-2.5,-0.5L0,-3.0L2.5,-0.5"/>
                </g>
               <g id="resetDef">
                       <use xlink:href="#rim2" fill="#404040">
                               <set attributeName="fill" to="#808080" begin="reset.mouseover" end="reset.mouseout"/>
                       </use>
               </g>
        </defs>

<script type="text/javascript">
var viewWidth = 558;
var viewHeight = 184;
var sectionId = 'dynsection-0';
</script>
<script xlink:href="../../svgpan.js"/>
<svg id="graph" class="graph">
<g id="viewport">
<title>/home/travis/build/AliceO2Group/AliceO2/Common/Utils/include/CommonUtils/HBFUtils.h</title>
<!-- Node1 -->
<g id="node1" class="node"><title>Node1</title>
<polygon fill="#bfbfbf" stroke="black" points="104.186,-123.5 104.186,-175.5 235.186,-175.5 235.186,-123.5 104.186,-123.5"/>
<text text-anchor="start" x="112.186" y="-163.5" font-family="Helvetica,sans-Serif" font-size="10.00">/home/travis/build</text>
<text text-anchor="start" x="112.186" y="-152.5" font-family="Helvetica,sans-Serif" font-size="10.00">/AliceO2Group/AliceO2</text>
<text text-anchor="start" x="112.186" y="-141.5" font-family="Helvetica,sans-Serif" font-size="10.00">/Common/Utils/include</text>
<text text-anchor="middle" x="169.686" y="-130.5" font-family="Helvetica,sans-Serif" font-size="10.00">/CommonUtils/HBFUtils.h</text>
</g>
<!-- Node2 -->
<g id="node2" class="node"><title>Node2</title>
<polygon fill="none" stroke="#bfbfbf" points="60.6859,-0.5 60.6859,-19.5 116.686,-19.5 116.686,-0.5 60.6859,-0.5"/>
<text text-anchor="middle" x="88.6859" y="-7.5" font-family="Helvetica,sans-Serif" font-size="10.00">Rtypes.h</text>
</g>
<!-- Node1&#45;&gt;Node2 -->
<g id="edge1" class="edge"><title>Node1&#45;&gt;Node2</title>
<path fill="none" stroke="midnightblue" d="M103.898,-141.657C68.536,-134.246 27.7695,-118.867 5.6859,-87 -2.16186,-75.6757 -1.36219,-67.8386 5.6859,-56 15.5691,-39.3993 33.9463,-28.5458 50.9008,-21.6664"/>
<polygon fill="midnightblue" stroke="midnightblue" points="52.4797,-24.8141 60.6439,-18.0617 50.0507,-18.249 52.4797,-24.8141"/>
</g>
<!-- Node3 -->
<g id="node3" class="node"><title>Node3</title>
<g id="a_node3"><a xlink:href="../../d9/d80/InteractionRecord_8h.html" target="_top" xlink:title="CommonDataFormat/Interaction\lRecord.h">
<polygon fill="none" stroke="black" points="340.186,-56.5 340.186,-86.5 497.186,-86.5 497.186,-56.5 340.186,-56.5"/>
<text text-anchor="start" x="348.186" y="-74.5" font-family="Helvetica,sans-Serif" font-size="10.00">CommonDataFormat/Interaction</text>
<text text-anchor="middle" x="418.686" y="-63.5" font-family="Helvetica,sans-Serif" font-size="10.00">Record.h</text>
</a>
</g>
</g>
<!-- Node1&#45;&gt;Node3 -->
<g id="edge2" class="edge"><title>Node1&#45;&gt;Node3</title>
<path fill="none" stroke="midnightblue" d="M235.433,-128.432C275.113,-116.321 325.124,-101.057 362.872,-89.5355"/>
<polygon fill="midnightblue" stroke="midnightblue" points="364.14,-92.8082 372.682,-86.5413 362.096,-86.1131 364.14,-92.8082"/>
</g>
<!-- Node8 -->
<g id="node8" class="node"><title>Node8</title>
<g id="a_node8"><a xlink:href="../../d4/d78/DataFormats_2Headers_2include_2Headers_2RAWDataHeader_8h.html" target="_top" xlink:title="Headers/RAWDataHeader.h">
<polygon fill="none" stroke="black" points="181.186,-62 181.186,-81 322.186,-81 322.186,-62 181.186,-62"/>
<text text-anchor="middle" x="251.686" y="-69" font-family="Helvetica,sans-Serif" font-size="10.00">Headers/RAWDataHeader.h</text>
</a>
</g>
</g>
<!-- Node1&#45;&gt;Node8 -->
<g id="edge8" class="edge"><title>Node1&#45;&gt;Node8</title>
<path fill="none" stroke="midnightblue" d="M196.991,-123.193C209.465,-111.632 223.85,-98.2988 234.736,-88.2093"/>
<polygon fill="midnightblue" stroke="midnightblue" points="237.334,-90.5736 242.289,-81.2089 232.576,-85.4396 237.334,-90.5736"/>
</g>
<!-- Node9 -->
<g id="node9" class="node"><title>Node9</title>
<g id="a_node9"><a xlink:href="../../de/da4/Triggers_8h.html" target="_top" xlink:title="Definition of the Alpide triggers defined in https://twiki.cern.ch/twiki/pub/ALICE/NoteForFEDeveloper...">
<polygon fill="none" stroke="black" points="14.6859,-62 14.6859,-81 162.686,-81 162.686,-62 14.6859,-62"/>
<text text-anchor="middle" x="88.6859" y="-69" font-family="Helvetica,sans-Serif" font-size="10.00">CommonConstants/Triggers.h</text>
</a>
</g>
</g>
<!-- Node1&#45;&gt;Node9 -->
<g id="edge10" class="edge"><title>Node1&#45;&gt;Node9</title>
<path fill="none" stroke="midnightblue" d="M142.714,-123.193C130.392,-111.632 116.182,-98.2988 105.429,-88.2093"/>
<polygon fill="midnightblue" stroke="midnightblue" points="107.655,-85.4989 97.9678,-81.2089 102.865,-90.6037 107.655,-85.4989"/>
</g>
<!-- Node3&#45;&gt;Node2 -->
<g id="edge3" class="edge"><title>Node3&#45;&gt;Node2</title>
<path fill="none" stroke="midnightblue" d="M340.898,-56.4747C273.691,-44.3569 179.392,-27.3547 127.22,-17.9478"/>
<polygon fill="midnightblue" stroke="midnightblue" points="127.522,-14.4459 117.06,-16.1159 126.28,-21.3348 127.522,-14.4459"/>
</g>
<!-- Node4 -->
<g id="node4" class="node"><title>Node4</title>
<polygon fill="none" stroke="#bfbfbf" points="442.186,-0.5 442.186,-19.5 487.186,-19.5 487.186,-0.5 442.186,-0.5"/>
<text text-anchor="middle" x="464.686" y="-7.5" font-family="Helvetica,sans-Serif" font-size="10.00">iosfwd</text>
</g>
<!-- Node3&#45;&gt;Node4 -->
<g id="edge4" class="edge"><title>Node3&#45;&gt;Node4</title>
<path fill="none" stroke="midnightblue" d="M429.587,-56.3993C436.272,-47.7533 444.862,-36.642 451.871,-27.576"/>
<polygon fill="midnightblue" stroke="midnightblue" points="454.645,-29.7099 457.992,-19.6578 449.107,-25.4284 454.645,-29.7099"/>
</g>
<!-- Node5 -->
<g id="node5" class="node"><title>Node5</title>
<polygon fill="none" stroke="#bfbfbf" points="505.686,-0.5 505.686,-19.5 549.686,-19.5 549.686,-0.5 505.686,-0.5"/>
<text text-anchor="middle" x="527.686" y="-7.5" font-family="Helvetica,sans-Serif" font-size="10.00">cmath</text>
</g>
<!-- Node3&#45;&gt;Node5 -->
<g id="edge5" class="edge"><title>Node3&#45;&gt;Node5</title>
<path fill="none" stroke="midnightblue" d="M444.517,-56.3993C462.153,-46.7728 485.386,-34.0902 502.813,-24.5772"/>
<polygon fill="midnightblue" stroke="midnightblue" points="504.725,-27.5213 511.825,-19.6578 501.371,-21.3771 504.725,-27.5213"/>
</g>
<!-- Node6 -->
<g id="node6" class="node"><title>Node6</title>
<polygon fill="none" stroke="#bfbfbf" points="181.686,-0.5 181.686,-19.5 227.686,-19.5 227.686,-0.5 181.686,-0.5"/>
<text text-anchor="middle" x="204.686" y="-7.5" font-family="Helvetica,sans-Serif" font-size="10.00">cstdint</text>
</g>
<!-- Node3&#45;&gt;Node6 -->
<g id="edge6" class="edge"><title>Node3&#45;&gt;Node6</title>
<path fill="none" stroke="midnightblue" d="M367.68,-56.3987C333.467,-46.9283 287.132,-34.0799 237.684,-20.2723"/>
<polygon fill="midnightblue" stroke="midnightblue" points="238.328,-16.8183 227.755,-17.4987 236.445,-23.5602 238.328,-16.8183"/>
</g>
<!-- Node7 -->
<g id="node7" class="node"><title>Node7</title>
<g id="a_node7"><a xlink:href="../../d4/dc6/LHCConstants_8h.html" target="_top" xlink:title="Header to collect LHC related constants. ">
<polygon fill="none" stroke="black" points="245.686,-0.5 245.686,-19.5 423.686,-19.5 423.686,-0.5 245.686,-0.5"/>
<text text-anchor="middle" x="334.686" y="-7.5" font-family="Helvetica,sans-Serif" font-size="10.00">CommonConstants/LHCConstants.h</text>
</a>
</g>
</g>
<!-- Node3&#45;&gt;Node7 -->
<g id="edge7" class="edge"><title>Node3&#45;&gt;Node7</title>
<path fill="none" stroke="midnightblue" d="M398.779,-56.3993C385.692,-47.1293 368.604,-35.0254 355.364,-25.6469"/>
<polygon fill="midnightblue" stroke="midnightblue" points="357.092,-22.5819 346.909,-19.6578 353.046,-28.2941 357.092,-22.5819"/>
</g>
<!-- Node8&#45;&gt;Node6 -->
<g id="edge9" class="edge"><title>Node8&#45;&gt;Node6</title>
<path fill="none" stroke="midnightblue" d="M244.952,-61.9751C237.902,-53.0501 226.651,-38.8071 217.832,-27.6425"/>
<polygon fill="midnightblue" stroke="midnightblue" points="220.352,-25.1867 211.407,-19.5091 214.859,-29.5258 220.352,-25.1867"/>
</g>
<!-- Node9&#45;&gt;Node2 -->
<g id="edge12" class="edge"><title>Node9&#45;&gt;Node2</title>
<path fill="none" stroke="midnightblue" d="M88.6859,-61.9751C88.6859,-53.5803 88.6859,-40.4806 88.6859,-29.6631"/>
<polygon fill="midnightblue" stroke="midnightblue" points="92.186,-29.5091 88.6859,-19.5091 85.186,-29.5091 92.186,-29.5091"/>
</g>
<!-- Node9&#45;&gt;Node6 -->
<g id="edge11" class="edge"><title>Node9&#45;&gt;Node6</title>
<path fill="none" stroke="midnightblue" d="M105.306,-61.9751C124.601,-52.078 156.645,-35.6416 179.117,-24.1151"/>
<polygon fill="midnightblue" stroke="midnightblue" points="180.796,-27.1873 188.097,-19.5091 177.602,-20.9589 180.796,-27.1873"/>
</g>
</g>
</svg>
        <g id="navigator" transform="translate(0 0)" fill="#404254">
                <rect fill="#f2f5e9" fill-opacity="0.5" stroke="#606060" stroke-width=".5" x="0" y="0" width="60" height="60"/>
                <use id="zoomplus" xlink:href="#zoomPlus" x="17" y="9" onmousedown="handleZoom(evt,'in')"/>
                <use id="zoomminus" xlink:href="#zoomMin" x="42" y="9" onmousedown="handleZoom(evt,'out')"/>
                <use id="reset" xlink:href="#resetDef" x="30" y="36" onmousedown="handleReset()"/>
                <g id="arrowUp" xlink:href="#dirArrow" transform="translate(30 24)" onmousedown="handlePan(0,-1)">
                  <use xlink:href="#rim" fill="#404040">
                        <set attributeName="fill" to="#808080" begin="arrowUp.mouseover" end="arrowUp.mouseout"/>
                  </use>
                  <path fill="none" stroke="white" stroke-width="1.5" d="M0,-3.0v7 M-2.5,-0.5L0,-3.0L2.5,-0.5"/>
                </g>
                <g id="arrowRight" xlink:href="#dirArrow" transform="rotate(90) translate(36 -43)" onmousedown="handlePan(1,0)">
                  <use xlink:href="#rim" fill="#404040">
                        <set attributeName="fill" to="#808080" begin="arrowRight.mouseover" end="arrowRight.mouseout"/>
                  </use>
                  <path fill="none" stroke="white" stroke-width="1.5" d="M0,-3.0v7 M-2.5,-0.5L0,-3.0L2.5,-0.5"/>
                </g>
                <g id="arrowDown" xlink:href="#dirArrow" transform="rotate(180) translate(-30 -48)" onmousedown="handlePan(0,1)">
                  <use xlink:href="#rim" fill="#404040">
                        <set attributeName="fill" to="#808080" begin="arrowDown.mouseover" end="arrowDown.mouseout"/>
                  </use>
                  <path fill="none" stroke="white" stroke-width="1.5" d="M0,-3.0v7 M-2.5,-0.5L0,-3.0L2.5,-0.5"/>
                </g>
                <g id="arrowLeft" xlink:href="#dirArrow" transform="rotate(270) translate(-36 17)" onmousedown="handlePan(-1,0)">
                  <use xlink:href="#rim" fill="#404040">
                        <set attributeName="fill" to="#808080" begin="arrowLeft.mouseover" end="arrowLeft.mouseout"/>
                  </use>
                  <path fill="none" stroke="white" stroke-width="1.5" d="M0,-3.0v7 M-2.5,-0.5L0,-3.0L2.5,-0.5"/>
                </g>
        </g>
        <svg viewBox="0 0 15 15" width="100%" height="30px" preserveAspectRatio="xMaxYMin meet">
         <g id="arrow_out" transform="scale(0.3 0.3)">
          <a xlink:href="HBFUtils_8h__incl_org.svg" target="_base">
           <rect id="button" ry="5" rx="5" y="6" x="6" height="38" width="38"
                fill="#f2f5e9" fill-opacity="0.5" stroke="#606060" stroke-width="1.0"/>
           <path id="arrow"
             d="M 11.500037,31.436501 C 11.940474,20.09759 22.043105,11.32322 32.158766,21.979434 L 37.068811,17.246167 C 37.068811,17.246167 37.088388,32 37.088388,32 L 22.160133,31.978069 C 22.160133,31.978069 26.997745,27.140456 26.997745,27.140456 C 18.528582,18.264221 13.291696,25.230495 11.500037,31.436501 z"
             style="fill:#404040;"/>
          </a>
         </g>
        </svg>
</svg>
