<?xml version="1.0" encoding="UTF-8" standalone="no"?>
<!DOCTYPE svg PUBLIC "-//W3C//DTD SVG 1.1//EN"
 "http://www.w3.org/Graphics/SVG/1.1/DTD/svg11.dtd">
<!-- Generated by graphviz version 2.38.0 (20140413.2041)
 -->
<!-- Title: o2::framework::MetricInfo Pages: 1 -->
<svg width="162pt" height="182pt"
 viewBox="0.00 0.00 161.50 182.00" xmlns="http://www.w3.org/2000/svg" xmlns:xlink="http://www.w3.org/1999/xlink">
<g id="graph0" class="graph" transform="scale(1 1) rotate(0) translate(4 178)">
<title>o2::framework::MetricInfo</title>
<!-- Node1 -->
<g id="node1" class="node"><title>Node1</title>
<polygon fill="#bfbfbf" stroke="black" points="0.5,-0.5 0.5,-57.5 128.5,-57.5 128.5,-0.5 0.5,-0.5"/>
<text text-anchor="middle" x="64.5" y="-45.5" font-family="Helvetica,sans-Serif" font-size="10.00">o2::framework::MetricInfo</text>
<polyline fill="none" stroke="black" points="0.5,-38.5 128.5,-38.5 "/>
<text text-anchor="middle" x="64.5" y="-26.5" font-family="Helvetica,sans-Serif" font-size="10.00"> </text>
<polyline fill="none" stroke="black" points="0.5,-19.5 128.5,-19.5 "/>
<text text-anchor="middle" x="64.5" y="-7.5" font-family="Helvetica,sans-Serif" font-size="10.00"> </text>
</g>
<!-- Node2 -->
<g id="node2" class="node"><title>Node2</title>
<g id="a_node2"><a xlink:href="../../dd/de2/classsize__t.html" target="_top" xlink:title="{size_t\n||}">
<polygon fill="none" stroke="black" points="0,-116.5 0,-173.5 43,-173.5 43,-116.5 0,-116.5"/>
<text text-anchor="middle" x="21.5" y="-161.5" font-family="Helvetica,sans-Serif" font-size="10.00">size_t</text>
<polyline fill="none" stroke="black" points="0,-154.5 43,-154.5 "/>
<text text-anchor="middle" x="21.5" y="-142.5" font-family="Helvetica,sans-Serif" font-size="10.00"> </text>
<polyline fill="none" stroke="black" points="0,-135.5 43,-135.5 "/>
<text text-anchor="middle" x="21.5" y="-123.5" font-family="Helvetica,sans-Serif" font-size="10.00"> </text>
</a>
</g>
</g>
<!-- Node2&#45;&gt;Node1 -->
<g id="edge1" class="edge"><title>Node2&#45;&gt;Node1</title>
<path fill="none" stroke="#404040" d="M29.6715,-116.285C33.5406,-103.85 38.4221,-89.0693 43.5,-76 44.419,-73.6346 45.3983,-71.2169 46.4124,-68.7888"/>
<polygon fill="none" stroke="#404040" points="46.5318,-68.514 45.2563,-61.4166 51.3171,-57.5094 52.5927,-64.6068 46.5318,-68.514"/>
<text text-anchor="middle" x="64.5" y="-90" font-family="Helvetica,sans-Serif" font-size="10.00"> +pos</text>
<text text-anchor="middle" x="64.5" y="-79" font-family="Helvetica,sans-Serif" font-size="10.00">+storeIdx</text>
</g>
<!-- Node3 -->
<g id="node3" class="node"><title>Node3</title>
<polygon fill="none" stroke="#bfbfbf" points="61.5,-116.5 61.5,-173.5 153.5,-173.5 153.5,-116.5 61.5,-116.5"/>
<text text-anchor="middle" x="107.5" y="-161.5" font-family="Helvetica,sans-Serif" font-size="10.00">enum MetricType</text>
<polyline fill="none" stroke="#bfbfbf" points="61.5,-154.5 153.5,-154.5 "/>
<text text-anchor="middle" x="107.5" y="-142.5" font-family="Helvetica,sans-Serif" font-size="10.00"> </text>
<polyline fill="none" stroke="#bfbfbf" points="61.5,-135.5 153.5,-135.5 "/>
<text text-anchor="middle" x="107.5" y="-123.5" font-family="Helvetica,sans-Serif" font-size="10.00"> </text>
</g>
<!-- Node3&#45;&gt;Node1 -->
<g id="edge2" class="edge"><title>Node3&#45;&gt;Node1</title>
<path fill="none" stroke="#404040" d="M99.3285,-116.285C95.4594,-103.85 90.5779,-89.0693 85.5,-76 84.581,-73.6346 83.6017,-71.2169 82.5876,-68.7888"/>
<polygon fill="none" stroke="#404040" points="82.4682,-68.514 76.4073,-64.6068 77.6829,-57.5094 83.7437,-61.4166 82.4682,-68.514"/>
<text text-anchor="middle" x="107.5" y="-84.5" font-family="Helvetica,sans-Serif" font-size="10.00"> +type</text>
</g>
</g>
</svg>
