<?xml version="1.0" encoding="UTF-8" standalone="no"?>
<!DOCTYPE svg PUBLIC "-//W3C//DTD SVG 1.1//EN"
 "http://www.w3.org/Graphics/SVG/1.1/DTD/svg11.dtd">
<!-- Generated by graphviz version 2.38.0 (20140413.2041)
 -->
<!-- Title: o2::trd::PadStatus Pages: 1 -->
<svg width="349pt" height="756pt"
 viewBox="0.00 0.00 349.00 756.00" xmlns="http://www.w3.org/2000/svg" xmlns:xlink="http://www.w3.org/1999/xlink">
<g id="graph0" class="graph" transform="scale(1 1) rotate(0) translate(4 752)">
<title>o2::trd::PadStatus</title>
<!-- Node1 -->
<g id="node1" class="node"><title>Node1</title>
<polygon fill="#bfbfbf" stroke="black" points="100,-0.5 100,-189.5 202,-189.5 202,-0.5 100,-0.5"/>
<text text-anchor="middle" x="151" y="-177.5" font-family="Helvetica,sans-Serif" font-size="10.00">o2::trd::PadStatus</text>
<polyline fill="none" stroke="black" points="100,-170.5 202,-170.5 "/>
<text text-anchor="middle" x="151" y="-158.5" font-family="Helvetica,sans-Serif" font-size="10.00"> </text>
<polyline fill="none" stroke="black" points="100,-151.5 202,-151.5 "/>
<text text-anchor="start" x="108" y="-139.5" font-family="Helvetica,sans-Serif" font-size="10.00">+ ~PadStatus()</text>
<text text-anchor="start" x="108" y="-128.5" font-family="Helvetica,sans-Serif" font-size="10.00">+ isMasked()</text>
<text text-anchor="start" x="108" y="-117.5" font-family="Helvetica,sans-Serif" font-size="10.00">+ isBridgedLeft()</text>
<text text-anchor="start" x="108" y="-106.5" font-family="Helvetica,sans-Serif" font-size="10.00">+ isBridgedRight()</text>
<text text-anchor="start" x="108" y="-95.5" font-family="Helvetica,sans-Serif" font-size="10.00">+ isNotConnected()</text>
<text text-anchor="start" x="108" y="-84.5" font-family="Helvetica,sans-Serif" font-size="10.00">+ getNrows()</text>
<text text-anchor="start" x="108" y="-73.5" font-family="Helvetica,sans-Serif" font-size="10.00">+ getNcols()</text>
<text text-anchor="start" x="108" y="-62.5" font-family="Helvetica,sans-Serif" font-size="10.00">+ getChannel()</text>
<text text-anchor="start" x="108" y="-51.5" font-family="Helvetica,sans-Serif" font-size="10.00">+ getNChannels()</text>
<text text-anchor="start" x="108" y="-40.5" font-family="Helvetica,sans-Serif" font-size="10.00">+ getStatus()</text>
<text text-anchor="start" x="108" y="-29.5" font-family="Helvetica,sans-Serif" font-size="10.00">+ getStatus()</text>
<text text-anchor="start" x="108" y="-18.5" font-family="Helvetica,sans-Serif" font-size="10.00">+ setStatus()</text>
<text text-anchor="start" x="108" y="-7.5" font-family="Helvetica,sans-Serif" font-size="10.00">+ setStatus()</text>
</g>
<!-- Node2 -->
<g id="node2" class="node"><title>Node2</title>
<g id="a_node2"><a xlink:href="../../da/dcc/classo2_1_1trd_1_1PadCalibrations.html" target="_top" xlink:title="{o2::trd::PadCalibrations\l\&lt; char \&gt;\n||+ PadCalibrations()\l+ ~PadCalibrations()\l+ getNChannels()\l+ getChamberPads()\l+ getValue()\l+ getPadValue()\l+ setPadValue()\l+ setPadValue()\l+ reset()\l+ init()\l+ dumpAllNonZeroValues()\l}">
<polygon fill="none" stroke="black" points="84,-227.5 84,-405.5 218,-405.5 218,-227.5 84,-227.5"/>
<text text-anchor="start" x="92" y="-393.5" font-family="Helvetica,sans-Serif" font-size="10.00">o2::trd::PadCalibrations</text>
<text text-anchor="middle" x="151" y="-382.5" font-family="Helvetica,sans-Serif" font-size="10.00">&lt; char &gt;</text>
<polyline fill="none" stroke="black" points="84,-375.5 218,-375.5 "/>
<text text-anchor="middle" x="151" y="-363.5" font-family="Helvetica,sans-Serif" font-size="10.00"> </text>
<polyline fill="none" stroke="black" points="84,-356.5 218,-356.5 "/>
<text text-anchor="start" x="92" y="-344.5" font-family="Helvetica,sans-Serif" font-size="10.00">+ PadCalibrations()</text>
<text text-anchor="start" x="92" y="-333.5" font-family="Helvetica,sans-Serif" font-size="10.00">+ ~PadCalibrations()</text>
<text text-anchor="start" x="92" y="-322.5" font-family="Helvetica,sans-Serif" font-size="10.00">+ getNChannels()</text>
<text text-anchor="start" x="92" y="-311.5" font-family="Helvetica,sans-Serif" font-size="10.00">+ getChamberPads()</text>
<text text-anchor="start" x="92" y="-300.5" font-family="Helvetica,sans-Serif" font-size="10.00">+ getValue()</text>
<text text-anchor="start" x="92" y="-289.5" font-family="Helvetica,sans-Serif" font-size="10.00">+ getPadValue()</text>
<text text-anchor="start" x="92" y="-278.5" font-family="Helvetica,sans-Serif" font-size="10.00">+ setPadValue()</text>
<text text-anchor="start" x="92" y="-267.5" font-family="Helvetica,sans-Serif" font-size="10.00">+ setPadValue()</text>
<text text-anchor="start" x="92" y="-256.5" font-family="Helvetica,sans-Serif" font-size="10.00">+ reset()</text>
<text text-anchor="start" x="92" y="-245.5" font-family="Helvetica,sans-Serif" font-size="10.00">+ init()</text>
<text text-anchor="start" x="92" y="-234.5" font-family="Helvetica,sans-Serif" font-size="10.00">+ dumpAllNonZeroValues()</text>
</a>
</g>
</g>
<!-- Node2&#45;&gt;Node1 -->
<g id="edge1" class="edge"><title>Node2&#45;&gt;Node1</title>
<path fill="none" stroke="midnightblue" d="M151,-217.238C151,-208.108 151,-198.872 151,-189.784"/>
<polygon fill="none" stroke="midnightblue" points="147.5,-217.486 151,-227.486 154.5,-217.486 147.5,-217.486"/>
</g>
<!-- Node3 -->
<g id="node3" class="node"><title>Node3</title>
<g id="a_node3"><a xlink:href="../../da/dd5/classstd_1_1array_3_01o2_1_1trd_1_1PadParameters_3_01char_01_4_00_01o2_1_1trd_1_1TRDSimParam_1_1kNdet_01_4.html" target="_top" xlink:title="{array\&lt; o2::trd::PadParameters\l\&lt; char \&gt;, o2::trd::TRDSimParam\l::kNdet \&gt;\n||}">
<polygon fill="none" stroke="black" points="0,-497.5 0,-576.5 160,-576.5 160,-497.5 0,-497.5"/>
<text text-anchor="start" x="8" y="-564.5" font-family="Helvetica,sans-Serif" font-size="10.00">array&lt; o2::trd::PadParameters</text>
<text text-anchor="start" x="8" y="-553.5" font-family="Helvetica,sans-Serif" font-size="10.00">&lt; char &gt;, o2::trd::TRDSimParam</text>
<text text-anchor="middle" x="80" y="-542.5" font-family="Helvetica,sans-Serif" font-size="10.00">::kNdet &gt;</text>
<polyline fill="none" stroke="black" points="0,-535.5 160,-535.5 "/>
<text text-anchor="middle" x="80" y="-523.5" font-family="Helvetica,sans-Serif" font-size="10.00"> </text>
<polyline fill="none" stroke="black" points="0,-516.5 160,-516.5 "/>
<text text-anchor="middle" x="80" y="-504.5" font-family="Helvetica,sans-Serif" font-size="10.00"> </text>
</a>
</g>
</g>
<!-- Node3&#45;&gt;Node2 -->
<g id="edge2" class="edge"><title>Node3&#45;&gt;Node2</title>
<path fill="none" stroke="#404040" d="M88.7833,-497.306C94.0236,-475.574 101.171,-448.067 109,-424 109.738,-421.732 110.499,-419.442 111.279,-417.139"/>
<polygon fill="none" stroke="#404040" points="111.375,-416.864 109.572,-409.881 115.324,-405.532 117.126,-412.514 111.375,-416.864"/>
<text text-anchor="middle" x="154.5" y="-427" font-family="Helvetica,sans-Serif" font-size="10.00"> #mreadOutChamber</text>
</g>
<!-- Node4 -->
<g id="node4" class="node"><title>Node4</title>
<g id="a_node4"><a xlink:href="../../da/dcc/classo2_1_1trd_1_1PadCalibrations.html" target="_top" xlink:title="{o2::trd::PadCalibrations\&lt; T \&gt;\n||+ PadCalibrations()\l+ ~PadCalibrations()\l+ getNChannels()\l+ getChamberPads()\l+ getValue()\l+ getPadValue()\l+ setPadValue()\l+ setPadValue()\l+ reset()\l+ init()\l+ dumpAllNonZeroValues()\l}">
<polygon fill="none" stroke="black" points="178.5,-453.5 178.5,-620.5 321.5,-620.5 321.5,-453.5 178.5,-453.5"/>
<text text-anchor="middle" x="250" y="-608.5" font-family="Helvetica,sans-Serif" font-size="10.00">o2::trd::PadCalibrations&lt; T &gt;</text>
<polyline fill="none" stroke="black" points="178.5,-601.5 321.5,-601.5 "/>
<text text-anchor="middle" x="250" y="-589.5" font-family="Helvetica,sans-Serif" font-size="10.00"> </text>
<polyline fill="none" stroke="black" points="178.5,-582.5 321.5,-582.5 "/>
<text text-anchor="start" x="186.5" y="-570.5" font-family="Helvetica,sans-Serif" font-size="10.00">+ PadCalibrations()</text>
<text text-anchor="start" x="186.5" y="-559.5" font-family="Helvetica,sans-Serif" font-size="10.00">+ ~PadCalibrations()</text>
<text text-anchor="start" x="186.5" y="-548.5" font-family="Helvetica,sans-Serif" font-size="10.00">+ getNChannels()</text>
<text text-anchor="start" x="186.5" y="-537.5" font-family="Helvetica,sans-Serif" font-size="10.00">+ getChamberPads()</text>
<text text-anchor="start" x="186.5" y="-526.5" font-family="Helvetica,sans-Serif" font-size="10.00">+ getValue()</text>
<text text-anchor="start" x="186.5" y="-515.5" font-family="Helvetica,sans-Serif" font-size="10.00">+ getPadValue()</text>
<text text-anchor="start" x="186.5" y="-504.5" font-family="Helvetica,sans-Serif" font-size="10.00">+ setPadValue()</text>
<text text-anchor="start" x="186.5" y="-493.5" font-family="Helvetica,sans-Serif" font-size="10.00">+ setPadValue()</text>
<text text-anchor="start" x="186.5" y="-482.5" font-family="Helvetica,sans-Serif" font-size="10.00">+ reset()</text>
<text text-anchor="start" x="186.5" y="-471.5" font-family="Helvetica,sans-Serif" font-size="10.00">+ init()</text>
<text text-anchor="start" x="186.5" y="-460.5" font-family="Helvetica,sans-Serif" font-size="10.00">+ dumpAllNonZeroValues()</text>
</a>
</g>
</g>
<!-- Node4&#45;&gt;Node2 -->
<g id="edge3" class="edge"><title>Node4&#45;&gt;Node2</title>
<path fill="none" stroke="orange" d="M209.069,-444.09C206.009,-437.287 202.961,-430.534 200,-424 197.269,-417.975 194.442,-411.764 191.587,-405.51"/>
<polygon fill="orange" stroke="orange" points="205.952,-445.692 213.243,-453.38 212.338,-442.824 205.952,-445.692"/>
<text text-anchor="middle" x="224" y="-427" font-family="Helvetica,sans-Serif" font-size="10.00"> &lt; char &gt;</text>
</g>
<!-- Node5 -->
<g id="node5" class="node"><title>Node5</title>
<polygon fill="none" stroke="#bfbfbf" points="175.5,-668.5 175.5,-747.5 324.5,-747.5 324.5,-668.5 175.5,-668.5"/>
<text text-anchor="start" x="183.5" y="-735.5" font-family="Helvetica,sans-Serif" font-size="10.00">array&lt; o2::trd::PadParameters</text>
<text text-anchor="start" x="183.5" y="-724.5" font-family="Helvetica,sans-Serif" font-size="10.00">&lt; T &gt;, o2::trd::TRDSimParam</text>
<text text-anchor="middle" x="250" y="-713.5" font-family="Helvetica,sans-Serif" font-size="10.00">::kNdet &gt;</text>
<polyline fill="none" stroke="#bfbfbf" points="175.5,-706.5 324.5,-706.5 "/>
<text text-anchor="middle" x="250" y="-694.5" font-family="Helvetica,sans-Serif" font-size="10.00"> </text>
<polyline fill="none" stroke="#bfbfbf" points="175.5,-687.5 324.5,-687.5 "/>
<text text-anchor="middle" x="250" y="-675.5" font-family="Helvetica,sans-Serif" font-size="10.00"> </text>
</g>
<!-- Node5&#45;&gt;Node4 -->
<g id="edge4" class="edge"><title>Node5&#45;&gt;Node4</title>
<path fill="none" stroke="#404040" d="M250,-668.228C250,-657.446 250,-645.243 250,-632.736"/>
<polygon fill="none" stroke="#404040" points="250,-632.688 246,-626.688 250,-620.688 254,-626.688 250,-632.688"/>
<text text-anchor="middle" x="295.5" y="-642" font-family="Helvetica,sans-Serif" font-size="10.00"> #mreadOutChamber</text>
</g>
</g>
</svg>
