<?xml version="1.0" encoding="UTF-8" standalone="no"?>
<!DOCTYPE svg PUBLIC "-//W3C//DTD SVG 1.1//EN"
 "http://www.w3.org/Graphics/SVG/1.1/DTD/svg11.dtd">
<!-- Generated by graphviz version 2.38.0 (20140413.2041)
 -->
<!-- Title: GPUCA_NAMESPACE::gpu::GPUTRDTrackerGPU Pages: 1 -->
<svg width="254pt" height="376pt"
 viewBox="0.00 0.00 254.00 376.00" xmlns="http://www.w3.org/2000/svg" xmlns:xlink="http://www.w3.org/1999/xlink">
<g id="graph0" class="graph" transform="scale(1 1) rotate(0) translate(4 372)">
<title>GPUCA_NAMESPACE::gpu::GPUTRDTrackerGPU</title>
<!-- Node1 -->
<g id="node1" class="node"><title>Node1</title>
<polygon fill="#bfbfbf" stroke="black" points="0,-0.5 0,-90.5 143,-90.5 143,-0.5 0,-0.5"/>
<text text-anchor="start" x="8" y="-78.5" font-family="Helvetica,sans-Serif" font-size="10.00">GPUCA_NAMESPACE::gpu</text>
<text text-anchor="middle" x="71.5" y="-67.5" font-family="Helvetica,sans-Serif" font-size="10.00">::GPUTRDTrackerGPU</text>
<polyline fill="none" stroke="black" points="0,-60.5 143,-60.5 "/>
<text text-anchor="middle" x="71.5" y="-48.5" font-family="Helvetica,sans-Serif" font-size="10.00"> </text>
<polyline fill="none" stroke="black" points="0,-41.5 143,-41.5 "/>
<text text-anchor="start" x="8" y="-29.5" font-family="Helvetica,sans-Serif" font-size="10.00">+ GPUhdi()</text>
<text text-anchor="start" x="8" y="-18.5" font-family="Helvetica,sans-Serif" font-size="10.00">+ GPUd()</text>
<text text-anchor="start" x="8" y="-7.5" font-family="Helvetica,sans-Serif" font-size="10.00">+ GPUsharedref()</text>
</g>
<!-- Node2 -->
<g id="node2" class="node"><title>Node2</title>
<g id="a_node2"><a xlink:href="../../d3/d60/classGPUCA__NAMESPACE_1_1gpu_1_1GPUKernelTemplate.html" target="_top" xlink:title="{GPUCA_NAMESPACE::gpu\l::GPUKernelTemplate\n||+ GPUconstantref()\l+ GPUhdi()\l+ GPUhdi()\l+ GPUd()\l+ GPUsharedref()\l}">
<polygon fill="none" stroke="black" points="103,-128.5 103,-240.5 246,-240.5 246,-128.5 103,-128.5"/>
<text text-anchor="start" x="111" y="-228.5" font-family="Helvetica,sans-Serif" font-size="10.00">GPUCA_NAMESPACE::gpu</text>
<text text-anchor="middle" x="174.5" y="-217.5" font-family="Helvetica,sans-Serif" font-size="10.00">::GPUKernelTemplate</text>
<polyline fill="none" stroke="black" points="103,-210.5 246,-210.5 "/>
<text text-anchor="middle" x="174.5" y="-198.5" font-family="Helvetica,sans-Serif" font-size="10.00"> </text>
<polyline fill="none" stroke="black" points="103,-191.5 246,-191.5 "/>
<text text-anchor="start" x="111" y="-179.5" font-family="Helvetica,sans-Serif" font-size="10.00">+ GPUconstantref()</text>
<text text-anchor="start" x="111" y="-168.5" font-family="Helvetica,sans-Serif" font-size="10.00">+ GPUhdi()</text>
<text text-anchor="start" x="111" y="-157.5" font-family="Helvetica,sans-Serif" font-size="10.00">+ GPUhdi()</text>
<text text-anchor="start" x="111" y="-146.5" font-family="Helvetica,sans-Serif" font-size="10.00">+ GPUd()</text>
<text text-anchor="start" x="111" y="-135.5" font-family="Helvetica,sans-Serif" font-size="10.00">+ GPUsharedref()</text>
</a>
</g>
</g>
<!-- Node2&#45;&gt;Node1 -->
<g id="edge1" class="edge"><title>Node2&#45;&gt;Node1</title>
<path fill="none" stroke="midnightblue" d="M126.696,-119.916C119.261,-110.027 111.723,-100 104.706,-90.6667"/>
<polygon fill="none" stroke="midnightblue" points="124.096,-122.282 132.903,-128.172 129.691,-118.075 124.096,-122.282"/>
</g>
<!-- Node3 -->
<g id="node3" class="node"><title>Node3</title>
<polygon fill="none" stroke="#bfbfbf" points="59,-310.5 59,-367.5 88,-367.5 88,-310.5 59,-310.5"/>
<text text-anchor="middle" x="73.5" y="-355.5" font-family="Helvetica,sans-Serif" font-size="10.00">int</text>
<polyline fill="none" stroke="#bfbfbf" points="59,-348.5 88,-348.5 "/>
<text text-anchor="middle" x="73.5" y="-336.5" font-family="Helvetica,sans-Serif" font-size="10.00"> </text>
<polyline fill="none" stroke="#bfbfbf" points="59,-329.5 88,-329.5 "/>
<text text-anchor="middle" x="73.5" y="-317.5" font-family="Helvetica,sans-Serif" font-size="10.00"> </text>
</g>
<!-- Node3&#45;&gt;Node1 -->
<g id="edge3" class="edge"><title>Node3&#45;&gt;Node1</title>
<path fill="none" stroke="#404040" d="M60.9488,-310.23C53.0505,-291.186 43.6015,-265.101 39.5,-241 31.0742,-191.49 30.1595,-177.346 39.5,-128 41.1132,-119.477 43.5972,-110.705 46.4835,-102.217"/>
<polygon fill="none" stroke="#404040" points="46.5106,-102.143 44.8102,-95.135 50.6249,-90.8701 52.3253,-97.8778 46.5106,-102.143"/>
<text text-anchor="middle" x="67" y="-198.5" font-family="Helvetica,sans-Serif" font-size="10.00"> +iThread</text>
<text text-anchor="middle" x="67" y="-187.5" font-family="Helvetica,sans-Serif" font-size="10.00">+iBlock</text>
<text text-anchor="middle" x="67" y="-176.5" font-family="Helvetica,sans-Serif" font-size="10.00">+processors</text>
<text text-anchor="middle" x="67" y="-165.5" font-family="Helvetica,sans-Serif" font-size="10.00">+nThreads</text>
</g>
<!-- Node3&#45;&gt;Node2 -->
<g id="edge2" class="edge"><title>Node3&#45;&gt;Node2</title>
<path fill="none" stroke="#404040" d="M88.1863,-315.825C99.529,-298.699 115.838,-274.074 131.232,-250.831"/>
<polygon fill="none" stroke="#404040" points="131.36,-250.637 131.339,-243.425 137.986,-240.632 138.008,-247.843 131.36,-250.637"/>
<text text-anchor="middle" x="147" y="-284" font-family="Helvetica,sans-Serif" font-size="10.00"> +iThread</text>
<text text-anchor="middle" x="147" y="-273" font-family="Helvetica,sans-Serif" font-size="10.00">+iBlock</text>
<text text-anchor="middle" x="147" y="-262" font-family="Helvetica,sans-Serif" font-size="10.00">+nThreads</text>
</g>
</g>
</svg>
