<?xml version="1.0" encoding="UTF-8" standalone="no"?>
<!DOCTYPE svg PUBLIC "-//W3C//DTD SVG 1.1//EN"
 "http://www.w3.org/Graphics/SVG/1.1/DTD/svg11.dtd">
<!-- Generated by graphviz version 2.38.0 (20140413.2041)
 -->
<!-- Title: nlohmann::detail::output_adapter_protocol&lt; CharType &gt; Pages: 1 -->
<svg width="486pt" height="226pt"
 viewBox="0.00 0.00 485.50 226.00" xmlns="http://www.w3.org/2000/svg" xmlns:xlink="http://www.w3.org/1999/xlink">
<g id="graph0" class="graph" transform="scale(1 1) rotate(0) translate(4 222)">
<title>nlohmann::detail::output_adapter_protocol&lt; CharType &gt;</title>
<!-- Node1 -->
<g id="node1" class="node"><title>Node1</title>
<polygon fill="#bfbfbf" stroke="black" points="162.5,-127.5 162.5,-217.5 317.5,-217.5 317.5,-127.5 162.5,-127.5"/>
<text text-anchor="start" x="170.5" y="-205.5" font-family="Helvetica,sans-Serif" font-size="10.00">nlohmann::detail::output</text>
<text text-anchor="middle" x="240" y="-194.5" font-family="Helvetica,sans-Serif" font-size="10.00">_adapter_protocol&lt; CharType &gt;</text>
<polyline fill="none" stroke="black" points="162.5,-187.5 317.5,-187.5 "/>
<text text-anchor="middle" x="240" y="-175.5" font-family="Helvetica,sans-Serif" font-size="10.00"> </text>
<polyline fill="none" stroke="black" points="162.5,-168.5 317.5,-168.5 "/>
<text text-anchor="start" x="170.5" y="-156.5" font-family="Helvetica,sans-Serif" font-size="10.00">+ write_character()</text>
<text text-anchor="start" x="170.5" y="-145.5" font-family="Helvetica,sans-Serif" font-size="10.00">+ write_characters()</text>
<text text-anchor="start" x="170.5" y="-134.5" font-family="Helvetica,sans-Serif" font-size="10.00">+ ~output_adapter_protocol()</text>
</g>
<!-- Node2 -->
<g id="node2" class="node"><title>Node2</title>
<g id="a_node2"><a xlink:href="../../d8/d94/classnlohmann_1_1detail_1_1output__stream__adapter.html" target="_top" xlink:title="output adapter for output streams ">
<polygon fill="none" stroke="black" points="0,-0.5 0,-90.5 150,-90.5 150,-0.5 0,-0.5"/>
<text text-anchor="start" x="8" y="-78.5" font-family="Helvetica,sans-Serif" font-size="10.00">nlohmann::detail::output</text>
<text text-anchor="middle" x="75" y="-67.5" font-family="Helvetica,sans-Serif" font-size="10.00">_stream_adapter&lt; CharType &gt;</text>
<polyline fill="none" stroke="black" points="0,-60.5 150,-60.5 "/>
<text text-anchor="middle" x="75" y="-48.5" font-family="Helvetica,sans-Serif" font-size="10.00"> </text>
<polyline fill="none" stroke="black" points="0,-41.5 150,-41.5 "/>
<text text-anchor="start" x="8" y="-29.5" font-family="Helvetica,sans-Serif" font-size="10.00">+ output_stream_adapter()</text>
<text text-anchor="start" x="8" y="-18.5" font-family="Helvetica,sans-Serif" font-size="10.00">+ write_character()</text>
<text text-anchor="start" x="8" y="-7.5" font-family="Helvetica,sans-Serif" font-size="10.00">+ write_characters()</text>
</a>
</g>
</g>
<!-- Node1&#45;&gt;Node2 -->
<g id="edge1" class="edge"><title>Node1&#45;&gt;Node2</title>
<path fill="none" stroke="midnightblue" d="M173.592,-121.191C160.223,-111.063 146.267,-100.49 133.204,-90.5937"/>
<polygon fill="none" stroke="midnightblue" points="171.743,-124.181 181.827,-127.43 175.97,-118.601 171.743,-124.181"/>
</g>
<!-- Node3 -->
<g id="node3" class="node"><title>Node3</title>
<g id="a_node3"><a xlink:href="../../d2/d39/classnlohmann_1_1detail_1_1output__string__adapter.html" target="_top" xlink:title="output adapter for basic_string ">
<polygon fill="none" stroke="black" points="168,-0.5 168,-90.5 312,-90.5 312,-0.5 168,-0.5"/>
<text text-anchor="start" x="176" y="-78.5" font-family="Helvetica,sans-Serif" font-size="10.00">nlohmann::detail::output</text>
<text text-anchor="middle" x="240" y="-67.5" font-family="Helvetica,sans-Serif" font-size="10.00">_string_adapter&lt; CharType &gt;</text>
<polyline fill="none" stroke="black" points="168,-60.5 312,-60.5 "/>
<text text-anchor="middle" x="240" y="-48.5" font-family="Helvetica,sans-Serif" font-size="10.00"> </text>
<polyline fill="none" stroke="black" points="168,-41.5 312,-41.5 "/>
<text text-anchor="start" x="176" y="-29.5" font-family="Helvetica,sans-Serif" font-size="10.00">+ output_string_adapter()</text>
<text text-anchor="start" x="176" y="-18.5" font-family="Helvetica,sans-Serif" font-size="10.00">+ write_character()</text>
<text text-anchor="start" x="176" y="-7.5" font-family="Helvetica,sans-Serif" font-size="10.00">+ write_characters()</text>
</a>
</g>
</g>
<!-- Node1&#45;&gt;Node3 -->
<g id="edge2" class="edge"><title>Node1&#45;&gt;Node3</title>
<path fill="none" stroke="midnightblue" d="M240,-117.157C240,-108.282 240,-99.1831 240,-90.5937"/>
<polygon fill="none" stroke="midnightblue" points="236.5,-117.43 240,-127.43 243.5,-117.43 236.5,-117.43"/>
</g>
<!-- Node4 -->
<g id="node4" class="node"><title>Node4</title>
<g id="a_node4"><a xlink:href="../../d5/d66/classnlohmann_1_1detail_1_1output__vector__adapter.html" target="_top" xlink:title="output adapter for byte vectors ">
<polygon fill="none" stroke="black" points="330.5,-0.5 330.5,-90.5 477.5,-90.5 477.5,-0.5 330.5,-0.5"/>
<text text-anchor="start" x="338.5" y="-78.5" font-family="Helvetica,sans-Serif" font-size="10.00">nlohmann::detail::output</text>
<text text-anchor="middle" x="404" y="-67.5" font-family="Helvetica,sans-Serif" font-size="10.00">_vector_adapter&lt; CharType &gt;</text>
<polyline fill="none" stroke="black" points="330.5,-60.5 477.5,-60.5 "/>
<text text-anchor="middle" x="404" y="-48.5" font-family="Helvetica,sans-Serif" font-size="10.00"> </text>
<polyline fill="none" stroke="black" points="330.5,-41.5 477.5,-41.5 "/>
<text text-anchor="start" x="338.5" y="-29.5" font-family="Helvetica,sans-Serif" font-size="10.00">+ output_vector_adapter()</text>
<text text-anchor="start" x="338.5" y="-18.5" font-family="Helvetica,sans-Serif" font-size="10.00">+ write_character()</text>
<text text-anchor="start" x="338.5" y="-7.5" font-family="Helvetica,sans-Serif" font-size="10.00">+ write_characters()</text>
</a>
</g>
</g>
<!-- Node1&#45;&gt;Node4 -->
<g id="edge3" class="edge"><title>Node1&#45;&gt;Node4</title>
<path fill="none" stroke="midnightblue" d="M306.006,-121.191C319.294,-111.063 333.165,-100.49 346.149,-90.5937"/>
<polygon fill="none" stroke="midnightblue" points="303.652,-118.584 297.82,-127.43 307.895,-124.151 303.652,-118.584"/>
</g>
</g>
</svg>
