<?xml version="1.0" encoding="UTF-8" standalone="no"?>
<!DOCTYPE svg PUBLIC "-//W3C//DTD SVG 1.1//EN"
 "http://www.w3.org/Graphics/SVG/1.1/DTD/svg11.dtd">
<!-- Generated by graphviz version 2.38.0 (20140413.2041)
 -->
<!-- Title: o2::tof::ClustererTask Pages: 1 -->
<svg width="120pt" height="193pt"
 viewBox="0.00 0.00 120.00 193.00" xmlns="http://www.w3.org/2000/svg" xmlns:xlink="http://www.w3.org/1999/xlink">
<g id="graph0" class="graph" transform="scale(1 1) rotate(0) translate(4 189)">
<title>o2::tof::ClustererTask</title>
<!-- Node1 -->
<g id="node1" class="node"><title>Node1</title>
<polygon fill="#bfbfbf" stroke="black" points="-7.10543e-15,-0.5 -7.10543e-15,-90.5 112,-90.5 112,-0.5 -7.10543e-15,-0.5"/>
<text text-anchor="middle" x="56" y="-78.5" font-family="Helvetica,sans-Serif" font-size="10.00">o2::tof::ClustererTask</text>
<polyline fill="none" stroke="black" points="-7.10543e-15,-71.5 112,-71.5 "/>
<text text-anchor="middle" x="56" y="-59.5" font-family="Helvetica,sans-Serif" font-size="10.00"> </text>
<polyline fill="none" stroke="black" points="-7.10543e-15,-52.5 112,-52.5 "/>
<text text-anchor="start" x="8" y="-40.5" font-family="Helvetica,sans-Serif" font-size="10.00">+ ClustererTask()</text>
<text text-anchor="start" x="8" y="-29.5" font-family="Helvetica,sans-Serif" font-size="10.00">+ ~ClustererTask()</text>
<text text-anchor="start" x="8" y="-18.5" font-family="Helvetica,sans-Serif" font-size="10.00">+ Init()</text>
<text text-anchor="start" x="8" y="-7.5" font-family="Helvetica,sans-Serif" font-size="10.00">+ Exec()</text>
</g>
<!-- Node2 -->
<g id="node2" class="node"><title>Node2</title>
<g id="a_node2"><a xlink:href="../../d2/d9e/classFairTask.html" target="_top" xlink:title="{FairTask\n||}">
<polygon fill="none" stroke="black" points="28.5,-127.5 28.5,-184.5 83.5,-184.5 83.5,-127.5 28.5,-127.5"/>
<text text-anchor="middle" x="56" y="-172.5" font-family="Helvetica,sans-Serif" font-size="10.00">FairTask</text>
<polyline fill="none" stroke="black" points="28.5,-165.5 83.5,-165.5 "/>
<text text-anchor="middle" x="56" y="-153.5" font-family="Helvetica,sans-Serif" font-size="10.00"> </text>
<polyline fill="none" stroke="black" points="28.5,-146.5 83.5,-146.5 "/>
<text text-anchor="middle" x="56" y="-134.5" font-family="Helvetica,sans-Serif" font-size="10.00"> </text>
</a>
</g>
</g>
<!-- Node2&#45;&gt;Node1 -->
<g id="edge1" class="edge"><title>Node2&#45;&gt;Node1</title>
<path fill="none" stroke="midnightblue" d="M56,-117.214C56,-108.609 56,-99.3943 56,-90.5541"/>
<polygon fill="none" stroke="midnightblue" points="52.5001,-117.34 56,-127.34 59.5001,-117.34 52.5001,-117.34"/>
</g>
</g>
</svg>
