<?xml version="1.0" encoding="UTF-8" standalone="no"?>
<!DOCTYPE svg PUBLIC "-//W3C//DTD SVG 1.1//EN"
 "http://www.w3.org/Graphics/SVG/1.1/DTD/svg11.dtd">
<!-- Generated by graphviz version 2.38.0 (20140413.2041)
 -->
<!-- Title: o2::its::GPU::ArrayHIP&lt; T, Size &gt; Pages: 1 -->
<svg width="647pt" height="347pt"
 viewBox="0.00 0.00 647.00 347.00" xmlns="http://www.w3.org/2000/svg" xmlns:xlink="http://www.w3.org/1999/xlink">
<g id="graph0" class="graph" transform="scale(1 1) rotate(0) translate(4 343)">
<title>o2::its::GPU::ArrayHIP&lt; T, Size &gt;</title>
<!-- Node1 -->
<g id="node1" class="node"><title>Node1</title>
<polygon fill="#bfbfbf" stroke="black" points="232,-215.5 232,-338.5 350,-338.5 350,-215.5 232,-215.5"/>
<text text-anchor="start" x="240" y="-326.5" font-family="Helvetica,sans-Serif" font-size="10.00">o2::its::GPU::ArrayHIP</text>
<text text-anchor="middle" x="291" y="-315.5" font-family="Helvetica,sans-Serif" font-size="10.00">&lt; T, Size &gt;</text>
<polyline fill="none" stroke="black" points="232,-308.5 350,-308.5 "/>
<text text-anchor="start" x="240" y="-296.5" font-family="Helvetica,sans-Serif" font-size="10.00">+ InternalArray</text>
<polyline fill="none" stroke="black" points="232,-289.5 350,-289.5 "/>
<text text-anchor="start" x="240" y="-277.5" font-family="Helvetica,sans-Serif" font-size="10.00">+ copy()</text>
<text text-anchor="start" x="240" y="-266.5" font-family="Helvetica,sans-Serif" font-size="10.00">+ GPUhd()</text>
<text text-anchor="start" x="240" y="-255.5" font-family="Helvetica,sans-Serif" font-size="10.00">+ GPUhd()</text>
<text text-anchor="start" x="240" y="-244.5" font-family="Helvetica,sans-Serif" font-size="10.00">+ GPUhd()</text>
<text text-anchor="start" x="240" y="-233.5" font-family="Helvetica,sans-Serif" font-size="10.00">+ GPUhd()</text>
<text text-anchor="start" x="240" y="-222.5" font-family="Helvetica,sans-Serif" font-size="10.00">+ GPUhd()</text>
</g>
<!-- Node2 -->
<g id="node2" class="node"><title>Node2</title>
<g id="a_node2"><a xlink:href="../../dd/da6/structo2_1_1its_1_1GPU_1_1ArrayHIP.html" target="_top" xlink:title="{o2::its::GPU::ArrayHIP\l\&lt; o2::its::GPU::VectorHIP\l\&lt; int \&gt;, 3 \&gt;\n|+ InternalArray\l|+ copy()\l+ GPUhd()\l+ GPUhd()\l+ GPUhd()\l+ GPUhd()\l+ GPUhd()\l}">
<polygon fill="none" stroke="black" points="0,-6 0,-140 132,-140 132,-6 0,-6"/>
<text text-anchor="start" x="8" y="-128" font-family="Helvetica,sans-Serif" font-size="10.00">o2::its::GPU::ArrayHIP</text>
<text text-anchor="start" x="8" y="-117" font-family="Helvetica,sans-Serif" font-size="10.00">&lt; o2::its::GPU::VectorHIP</text>
<text text-anchor="middle" x="66" y="-106" font-family="Helvetica,sans-Serif" font-size="10.00">&lt; int &gt;, 3 &gt;</text>
<polyline fill="none" stroke="black" points="0,-99 132,-99 "/>
<text text-anchor="start" x="8" y="-87" font-family="Helvetica,sans-Serif" font-size="10.00">+ InternalArray</text>
<polyline fill="none" stroke="black" points="0,-80 132,-80 "/>
<text text-anchor="start" x="8" y="-68" font-family="Helvetica,sans-Serif" font-size="10.00">+ copy()</text>
<text text-anchor="start" x="8" y="-57" font-family="Helvetica,sans-Serif" font-size="10.00">+ GPUhd()</text>
<text text-anchor="start" x="8" y="-46" font-family="Helvetica,sans-Serif" font-size="10.00">+ GPUhd()</text>
<text text-anchor="start" x="8" y="-35" font-family="Helvetica,sans-Serif" font-size="10.00">+ GPUhd()</text>
<text text-anchor="start" x="8" y="-24" font-family="Helvetica,sans-Serif" font-size="10.00">+ GPUhd()</text>
<text text-anchor="start" x="8" y="-13" font-family="Helvetica,sans-Serif" font-size="10.00">+ GPUhd()</text>
</a>
</g>
</g>
<!-- Node1&#45;&gt;Node2 -->
<g id="edge1" class="edge"><title>Node1&#45;&gt;Node2</title>
<path fill="none" stroke="orange" d="M222.204,-264.808C179.637,-254.347 127.155,-234.44 95,-197 81.4919,-181.271 74.0048,-160.394 69.9344,-140.313"/>
<polygon fill="orange" stroke="orange" points="221.423,-268.22 231.957,-267.085 223.015,-261.403 221.423,-268.22"/>
<text text-anchor="start" x="95" y="-183.5" font-family="Helvetica,sans-Serif" font-size="10.00"> &lt; o2::its::GPU::VectorHIP</text>
<text text-anchor="middle" x="154.5" y="-172.5" font-family="Helvetica,sans-Serif" font-size="10.00">&lt; int &gt;, 3 &gt;</text>
</g>
<!-- Node3 -->
<g id="node3" class="node"><title>Node3</title>
<g id="a_node3"><a xlink:href="../../dd/da6/structo2_1_1its_1_1GPU_1_1ArrayHIP.html" target="_top" xlink:title="{o2::its::GPU::ArrayHIP\l\&lt; o2::its::GPU::VectorHIP\l\&lt; int \&gt;, 2 \&gt;\n|+ InternalArray\l|+ copy()\l+ GPUhd()\l+ GPUhd()\l+ GPUhd()\l+ GPUhd()\l+ GPUhd()\l}">
<polygon fill="none" stroke="black" points="150,-6 150,-140 282,-140 282,-6 150,-6"/>
<text text-anchor="start" x="158" y="-128" font-family="Helvetica,sans-Serif" font-size="10.00">o2::its::GPU::ArrayHIP</text>
<text text-anchor="start" x="158" y="-117" font-family="Helvetica,sans-Serif" font-size="10.00">&lt; o2::its::GPU::VectorHIP</text>
<text text-anchor="middle" x="216" y="-106" font-family="Helvetica,sans-Serif" font-size="10.00">&lt; int &gt;, 2 &gt;</text>
<polyline fill="none" stroke="black" points="150,-99 282,-99 "/>
<text text-anchor="start" x="158" y="-87" font-family="Helvetica,sans-Serif" font-size="10.00">+ InternalArray</text>
<polyline fill="none" stroke="black" points="150,-80 282,-80 "/>
<text text-anchor="start" x="158" y="-68" font-family="Helvetica,sans-Serif" font-size="10.00">+ copy()</text>
<text text-anchor="start" x="158" y="-57" font-family="Helvetica,sans-Serif" font-size="10.00">+ GPUhd()</text>
<text text-anchor="start" x="158" y="-46" font-family="Helvetica,sans-Serif" font-size="10.00">+ GPUhd()</text>
<text text-anchor="start" x="158" y="-35" font-family="Helvetica,sans-Serif" font-size="10.00">+ GPUhd()</text>
<text text-anchor="start" x="158" y="-24" font-family="Helvetica,sans-Serif" font-size="10.00">+ GPUhd()</text>
<text text-anchor="start" x="158" y="-13" font-family="Helvetica,sans-Serif" font-size="10.00">+ GPUhd()</text>
</a>
</g>
</g>
<!-- Node1&#45;&gt;Node3 -->
<g id="edge2" class="edge"><title>Node1&#45;&gt;Node3</title>
<path fill="none" stroke="orange" d="M230.426,-206.57C228.793,-203.42 227.306,-200.226 226,-197 218.842,-179.326 215.453,-159.075 214.077,-140.175"/>
<polygon fill="orange" stroke="orange" points="227.407,-208.341 235.383,-215.314 233.496,-204.889 227.407,-208.341"/>
<text text-anchor="start" x="226" y="-183.5" font-family="Helvetica,sans-Serif" font-size="10.00"> &lt; o2::its::GPU::VectorHIP</text>
<text text-anchor="middle" x="285.5" y="-172.5" font-family="Helvetica,sans-Serif" font-size="10.00">&lt; int &gt;, 2 &gt;</text>
</g>
<!-- Node4 -->
<g id="node4" class="node"><title>Node4</title>
<g id="a_node4"><a xlink:href="../../dd/da6/structo2_1_1its_1_1GPU_1_1ArrayHIP.html" target="_top" xlink:title="{o2::its::GPU::ArrayHIP\l\&lt; o2::its::GPU::VectorHIP\l\&lt; int \&gt;, constants::its::\lLayersNumberVertexer&#45;1 \&gt;\n|+ InternalArray\l|+ copy()\l+ GPUhd()\l+ GPUhd()\l+ GPUhd()\l+ GPUhd()\l+ GPUhd()\l}">
<polygon fill="none" stroke="black" points="300,-0.5 300,-145.5 434,-145.5 434,-0.5 300,-0.5"/>
<text text-anchor="start" x="308" y="-133.5" font-family="Helvetica,sans-Serif" font-size="10.00">o2::its::GPU::ArrayHIP</text>
<text text-anchor="start" x="308" y="-122.5" font-family="Helvetica,sans-Serif" font-size="10.00">&lt; o2::its::GPU::VectorHIP</text>
<text text-anchor="start" x="308" y="-111.5" font-family="Helvetica,sans-Serif" font-size="10.00">&lt; int &gt;, constants::its::</text>
<text text-anchor="middle" x="367" y="-100.5" font-family="Helvetica,sans-Serif" font-size="10.00">LayersNumberVertexer&#45;1 &gt;</text>
<polyline fill="none" stroke="black" points="300,-93.5 434,-93.5 "/>
<text text-anchor="start" x="308" y="-81.5" font-family="Helvetica,sans-Serif" font-size="10.00">+ InternalArray</text>
<polyline fill="none" stroke="black" points="300,-74.5 434,-74.5 "/>
<text text-anchor="start" x="308" y="-62.5" font-family="Helvetica,sans-Serif" font-size="10.00">+ copy()</text>
<text text-anchor="start" x="308" y="-51.5" font-family="Helvetica,sans-Serif" font-size="10.00">+ GPUhd()</text>
<text text-anchor="start" x="308" y="-40.5" font-family="Helvetica,sans-Serif" font-size="10.00">+ GPUhd()</text>
<text text-anchor="start" x="308" y="-29.5" font-family="Helvetica,sans-Serif" font-size="10.00">+ GPUhd()</text>
<text text-anchor="start" x="308" y="-18.5" font-family="Helvetica,sans-Serif" font-size="10.00">+ GPUhd()</text>
<text text-anchor="start" x="308" y="-7.5" font-family="Helvetica,sans-Serif" font-size="10.00">+ GPUhd()</text>
</a>
</g>
</g>
<!-- Node1&#45;&gt;Node4 -->
<g id="edge3" class="edge"><title>Node1&#45;&gt;Node4</title>
<path fill="none" stroke="orange" d="M340.855,-206.212C342.351,-203.152 343.742,-200.075 345,-197 351.571,-180.937 356.183,-162.902 359.419,-145.696"/>
<polygon fill="orange" stroke="orange" points="337.624,-204.837 336.083,-215.319 343.825,-208.086 337.624,-204.837"/>
<text text-anchor="start" x="356" y="-189" font-family="Helvetica,sans-Serif" font-size="10.00"> &lt; o2::its::GPU::VectorHIP</text>
<text text-anchor="start" x="356" y="-178" font-family="Helvetica,sans-Serif" font-size="10.00">&lt; int &gt;, constants::its</text>
<text text-anchor="middle" x="418" y="-167" font-family="Helvetica,sans-Serif" font-size="10.00">::LayersNumberVertexer&#45;1 &gt;</text>
</g>
<!-- Node5 -->
<g id="node5" class="node"><title>Node5</title>
<g id="a_node5"><a xlink:href="../../dd/da6/structo2_1_1its_1_1GPU_1_1ArrayHIP.html" target="_top" xlink:title="{o2::its::GPU::ArrayHIP\l\&lt; o2::its::GPU::VectorHIP\l\&lt; o2::its::Cluster \&gt;, constants\l::its::LayersNumberVertexer \&gt;\n|+ InternalArray\l|+ copy()\l+ GPUhd()\l+ GPUhd()\l+ GPUhd()\l+ GPUhd()\l+ GPUhd()\l}">
<polygon fill="none" stroke="black" points="452.5,-0.5 452.5,-145.5 601.5,-145.5 601.5,-0.5 452.5,-0.5"/>
<text text-anchor="start" x="460.5" y="-133.5" font-family="Helvetica,sans-Serif" font-size="10.00">o2::its::GPU::ArrayHIP</text>
<text text-anchor="start" x="460.5" y="-122.5" font-family="Helvetica,sans-Serif" font-size="10.00">&lt; o2::its::GPU::VectorHIP</text>
<text text-anchor="start" x="460.5" y="-111.5" font-family="Helvetica,sans-Serif" font-size="10.00">&lt; o2::its::Cluster &gt;, constants</text>
<text text-anchor="middle" x="527" y="-100.5" font-family="Helvetica,sans-Serif" font-size="10.00">::its::LayersNumberVertexer &gt;</text>
<polyline fill="none" stroke="black" points="452.5,-93.5 601.5,-93.5 "/>
<text text-anchor="start" x="460.5" y="-81.5" font-family="Helvetica,sans-Serif" font-size="10.00">+ InternalArray</text>
<polyline fill="none" stroke="black" points="452.5,-74.5 601.5,-74.5 "/>
<text text-anchor="start" x="460.5" y="-62.5" font-family="Helvetica,sans-Serif" font-size="10.00">+ copy()</text>
<text text-anchor="start" x="460.5" y="-51.5" font-family="Helvetica,sans-Serif" font-size="10.00">+ GPUhd()</text>
<text text-anchor="start" x="460.5" y="-40.5" font-family="Helvetica,sans-Serif" font-size="10.00">+ GPUhd()</text>
<text text-anchor="start" x="460.5" y="-29.5" font-family="Helvetica,sans-Serif" font-size="10.00">+ GPUhd()</text>
<text text-anchor="start" x="460.5" y="-18.5" font-family="Helvetica,sans-Serif" font-size="10.00">+ GPUhd()</text>
<text text-anchor="start" x="460.5" y="-7.5" font-family="Helvetica,sans-Serif" font-size="10.00">+ GPUhd()</text>
</a>
</g>
</g>
<!-- Node1&#45;&gt;Node5 -->
<g id="edge4" class="edge"><title>Node1&#45;&gt;Node5</title>
<path fill="none" stroke="orange" d="M360.152,-262.659C401.086,-251.477 451.189,-231.571 484,-197 497.471,-182.807 506.747,-164.163 513.126,-145.695"/>
<polygon fill="orange" stroke="orange" points="359.02,-259.337 350.228,-265.251 360.788,-266.11 359.02,-259.337"/>
<text text-anchor="start" x="506" y="-189" font-family="Helvetica,sans-Serif" font-size="10.00"> &lt; o2::its::GPU::VectorHIP</text>
<text text-anchor="start" x="506" y="-178" font-family="Helvetica,sans-Serif" font-size="10.00">&lt; o2::its::Cluster &gt;, constants</text>
<text text-anchor="middle" x="572.5" y="-167" font-family="Helvetica,sans-Serif" font-size="10.00">::its::LayersNumberVertexer &gt;</text>
</g>
</g>
</svg>
