<?xml version="1.0" encoding="UTF-8" standalone="no"?>
<!DOCTYPE svg PUBLIC "-//W3C//DTD SVG 1.1//EN"
 "http://www.w3.org/Graphics/SVG/1.1/DTD/svg11.dtd">
<!-- Generated by graphviz version 2.38.0 (20140413.2041)
 -->
<!-- Title: o2::framework::data_matcher::OriginValueMatcher Pages: 1 -->
<svg width="292pt" height="525pt"
 viewBox="0.00 0.00 291.50 525.00" xmlns="http://www.w3.org/2000/svg" xmlns:xlink="http://www.w3.org/1999/xlink">
<g id="graph0" class="graph" transform="scale(1 1) rotate(0) translate(4 521)">
<title>o2::framework::data_matcher::OriginValueMatcher</title>
<!-- Node1 -->
<g id="node1" class="node"><title>Node1</title>
<polygon fill="#bfbfbf" stroke="black" points="39.5,-0.5 39.5,-101.5 188.5,-101.5 188.5,-0.5 39.5,-0.5"/>
<text text-anchor="start" x="47.5" y="-89.5" font-family="Helvetica,sans-Serif" font-size="10.00">o2::framework::data</text>
<text text-anchor="middle" x="114" y="-78.5" font-family="Helvetica,sans-Serif" font-size="10.00">_matcher::OriginValueMatcher</text>
<polyline fill="none" stroke="black" points="39.5,-71.5 188.5,-71.5 "/>
<text text-anchor="middle" x="114" y="-59.5" font-family="Helvetica,sans-Serif" font-size="10.00"> </text>
<polyline fill="none" stroke="black" points="39.5,-52.5 188.5,-52.5 "/>
<text text-anchor="start" x="47.5" y="-40.5" font-family="Helvetica,sans-Serif" font-size="10.00">+ OriginValueMatcher()</text>
<text text-anchor="start" x="47.5" y="-29.5" font-family="Helvetica,sans-Serif" font-size="10.00">+ OriginValueMatcher()</text>
<text text-anchor="start" x="47.5" y="-18.5" font-family="Helvetica,sans-Serif" font-size="10.00">+ OriginValueMatcher()</text>
<text text-anchor="start" x="47.5" y="-7.5" font-family="Helvetica,sans-Serif" font-size="10.00">+ match()</text>
</g>
<!-- Node2 -->
<g id="node2" class="node"><title>Node2</title>
<g id="a_node2"><a xlink:href="../../dc/d72/classo2_1_1framework_1_1data__matcher_1_1ValueHolder.html" target="_top" xlink:title="{o2::framework::data\l_matcher::ValueHolder\l\&lt; std::string \&gt;\n||+ ValueHolder()\l+ ValueHolder()\l+ operator==()\l+ visit()\l}">
<polygon fill="none" stroke="black" points="56,-139.5 56,-251.5 172,-251.5 172,-139.5 56,-139.5"/>
<text text-anchor="start" x="64" y="-239.5" font-family="Helvetica,sans-Serif" font-size="10.00">o2::framework::data</text>
<text text-anchor="start" x="64" y="-228.5" font-family="Helvetica,sans-Serif" font-size="10.00">_matcher::ValueHolder</text>
<text text-anchor="middle" x="114" y="-217.5" font-family="Helvetica,sans-Serif" font-size="10.00">&lt; std::string &gt;</text>
<polyline fill="none" stroke="black" points="56,-210.5 172,-210.5 "/>
<text text-anchor="middle" x="114" y="-198.5" font-family="Helvetica,sans-Serif" font-size="10.00"> </text>
<polyline fill="none" stroke="black" points="56,-191.5 172,-191.5 "/>
<text text-anchor="start" x="64" y="-179.5" font-family="Helvetica,sans-Serif" font-size="10.00">+ ValueHolder()</text>
<text text-anchor="start" x="64" y="-168.5" font-family="Helvetica,sans-Serif" font-size="10.00">+ ValueHolder()</text>
<text text-anchor="start" x="64" y="-157.5" font-family="Helvetica,sans-Serif" font-size="10.00">+ operator==()</text>
<text text-anchor="start" x="64" y="-146.5" font-family="Helvetica,sans-Serif" font-size="10.00">+ visit()</text>
</a>
</g>
</g>
<!-- Node2&#45;&gt;Node1 -->
<g id="edge1" class="edge"><title>Node2&#45;&gt;Node1</title>
<path fill="none" stroke="midnightblue" d="M114,-129.134C114,-119.957 114,-110.65 114,-101.826"/>
<polygon fill="none" stroke="midnightblue" points="110.5,-129.406 114,-139.406 117.5,-129.406 110.5,-129.406"/>
</g>
<!-- Node3 -->
<g id="node3" class="node"><title>Node3</title>
<g id="a_node3"><a xlink:href="../../d8/dca/classstd_1_1variant_3_01std_1_1string_00_01o2_1_1framework_1_1data__matcher_1_1ContextRef_01_4.html" target="_top" xlink:title="{variant\&lt; std::string,\l o2::framework::data\l_matcher::ContextRef \&gt;\n||}">
<polygon fill="none" stroke="black" points="0,-310.5 0,-389.5 122,-389.5 122,-310.5 0,-310.5"/>
<text text-anchor="start" x="8" y="-377.5" font-family="Helvetica,sans-Serif" font-size="10.00">variant&lt; std::string,</text>
<text text-anchor="start" x="8" y="-366.5" font-family="Helvetica,sans-Serif" font-size="10.00"> o2::framework::data</text>
<text text-anchor="middle" x="61" y="-355.5" font-family="Helvetica,sans-Serif" font-size="10.00">_matcher::ContextRef &gt;</text>
<polyline fill="none" stroke="black" points="0,-348.5 122,-348.5 "/>
<text text-anchor="middle" x="61" y="-336.5" font-family="Helvetica,sans-Serif" font-size="10.00"> </text>
<polyline fill="none" stroke="black" points="0,-329.5 122,-329.5 "/>
<text text-anchor="middle" x="61" y="-317.5" font-family="Helvetica,sans-Serif" font-size="10.00"> </text>
</a>
</g>
</g>
<!-- Node3&#45;&gt;Node2 -->
<g id="edge2" class="edge"><title>Node3&#45;&gt;Node2</title>
<path fill="none" stroke="#404040" d="M74.5113,-310.123C79.4718,-295.85 85.2389,-279.256 90.8081,-263.231"/>
<polygon fill="none" stroke="#404040" points="90.8745,-263.04 89.0659,-256.059 94.814,-251.705 96.6226,-258.686 90.8745,-263.04"/>
<text text-anchor="middle" x="108" y="-273" font-family="Helvetica,sans-Serif" font-size="10.00"> #mValue</text>
</g>
<!-- Node4 -->
<g id="node4" class="node"><title>Node4</title>
<g id="a_node4"><a xlink:href="../../dc/d72/classo2_1_1framework_1_1data__matcher_1_1ValueHolder.html" target="_top" xlink:title="{o2::framework::data\l_matcher::ValueHolder\&lt; T \&gt;\n||+ ValueHolder()\l+ ValueHolder()\l+ operator==()\l+ visit()\l}">
<polygon fill="none" stroke="black" points="140,-299.5 140,-400.5 280,-400.5 280,-299.5 140,-299.5"/>
<text text-anchor="start" x="148" y="-388.5" font-family="Helvetica,sans-Serif" font-size="10.00">o2::framework::data</text>
<text text-anchor="middle" x="210" y="-377.5" font-family="Helvetica,sans-Serif" font-size="10.00">_matcher::ValueHolder&lt; T &gt;</text>
<polyline fill="none" stroke="black" points="140,-370.5 280,-370.5 "/>
<text text-anchor="middle" x="210" y="-358.5" font-family="Helvetica,sans-Serif" font-size="10.00"> </text>
<polyline fill="none" stroke="black" points="140,-351.5 280,-351.5 "/>
<text text-anchor="start" x="148" y="-339.5" font-family="Helvetica,sans-Serif" font-size="10.00">+ ValueHolder()</text>
<text text-anchor="start" x="148" y="-328.5" font-family="Helvetica,sans-Serif" font-size="10.00">+ ValueHolder()</text>
<text text-anchor="start" x="148" y="-317.5" font-family="Helvetica,sans-Serif" font-size="10.00">+ operator==()</text>
<text text-anchor="start" x="148" y="-306.5" font-family="Helvetica,sans-Serif" font-size="10.00">+ visit()</text>
</a>
</g>
</g>
<!-- Node4&#45;&gt;Node2 -->
<g id="edge3" class="edge"><title>Node4&#45;&gt;Node2</title>
<path fill="none" stroke="orange" d="M173.314,-290.723C165.222,-277.869 156.676,-264.292 148.667,-251.569"/>
<polygon fill="orange" stroke="orange" points="170.542,-292.889 178.832,-299.488 176.466,-289.16 170.542,-292.889"/>
<text text-anchor="middle" x="196.5" y="-273" font-family="Helvetica,sans-Serif" font-size="10.00"> &lt; std::string &gt;</text>
</g>
<!-- Node5 -->
<g id="node5" class="node"><title>Node5</title>
<polygon fill="none" stroke="#bfbfbf" points="136.5,-448.5 136.5,-516.5 283.5,-516.5 283.5,-448.5 136.5,-448.5"/>
<text text-anchor="start" x="144.5" y="-504.5" font-family="Helvetica,sans-Serif" font-size="10.00">variant&lt; T, o2::framework</text>
<text text-anchor="middle" x="210" y="-493.5" font-family="Helvetica,sans-Serif" font-size="10.00">::data_matcher::ContextRef &gt;</text>
<polyline fill="none" stroke="#bfbfbf" points="136.5,-486.5 283.5,-486.5 "/>
<text text-anchor="middle" x="210" y="-474.5" font-family="Helvetica,sans-Serif" font-size="10.00"> </text>
<polyline fill="none" stroke="#bfbfbf" points="136.5,-467.5 283.5,-467.5 "/>
<text text-anchor="middle" x="210" y="-455.5" font-family="Helvetica,sans-Serif" font-size="10.00"> </text>
</g>
<!-- Node5&#45;&gt;Node4 -->
<g id="edge4" class="edge"><title>Node5&#45;&gt;Node4</title>
<path fill="none" stroke="#404040" d="M210,-448.232C210,-437.471 210,-425.168 210,-413.015"/>
<polygon fill="none" stroke="#404040" points="210,-412.975 206,-406.975 210,-400.975 214,-406.975 210,-412.975"/>
<text text-anchor="middle" x="231" y="-422" font-family="Helvetica,sans-Serif" font-size="10.00"> #mValue</text>
</g>
</g>
</svg>
