<?xml version="1.0" encoding="UTF-8" standalone="no"?>
<!DOCTYPE svg PUBLIC "-//W3C//DTD SVG 1.1//EN"
 "http://www.w3.org/Graphics/SVG/1.1/DTD/svg11.dtd">
<!-- Generated by graphviz version 2.38.0 (20140413.2041)
 -->
<!-- Title: GPUTRDTrackData Pages: 1 -->
<svg width="220pt" height="364pt"
 viewBox="0.00 0.00 219.50 364.00" xmlns="http://www.w3.org/2000/svg" xmlns:xlink="http://www.w3.org/1999/xlink">
<g id="graph0" class="graph" transform="scale(1 1) rotate(0) translate(4 360)">
<title>GPUTRDTrackData</title>
<!-- Node1 -->
<g id="node1" class="node"><title>Node1</title>
<polygon fill="#bfbfbf" stroke="black" points="97,-0.5 97,-68.5 202,-68.5 202,-0.5 97,-0.5"/>
<text text-anchor="middle" x="149.5" y="-56.5" font-family="Helvetica,sans-Serif" font-size="10.00">GPUTRDTrackData</text>
<polyline fill="none" stroke="black" points="97,-49.5 202,-49.5 "/>
<text text-anchor="middle" x="149.5" y="-37.5" font-family="Helvetica,sans-Serif" font-size="10.00"> </text>
<polyline fill="none" stroke="black" points="97,-30.5 202,-30.5 "/>
<text text-anchor="start" x="105" y="-18.5" font-family="Helvetica,sans-Serif" font-size="10.00">+ GetSize()</text>
<text text-anchor="start" x="105" y="-7.5" font-family="Helvetica,sans-Serif" font-size="10.00">+ GetSize()</text>
</g>
<!-- Node2 -->
<g id="node2" class="node"><title>Node2</title>
<g id="a_node2"><a xlink:href="../../d7/d46/structGPUTRDTrackDataRecord.html" target="_top" xlink:title="{GPUTRDTrackDataRecord\n||+ GetNTracklets()\l}">
<polygon fill="none" stroke="black" points="0,-116.5 0,-173.5 137,-173.5 137,-116.5 0,-116.5"/>
<text text-anchor="middle" x="68.5" y="-161.5" font-family="Helvetica,sans-Serif" font-size="10.00">GPUTRDTrackDataRecord</text>
<polyline fill="none" stroke="black" points="0,-154.5 137,-154.5 "/>
<text text-anchor="middle" x="68.5" y="-142.5" font-family="Helvetica,sans-Serif" font-size="10.00"> </text>
<polyline fill="none" stroke="black" points="0,-135.5 137,-135.5 "/>
<text text-anchor="start" x="8" y="-123.5" font-family="Helvetica,sans-Serif" font-size="10.00">+ GetNTracklets()</text>
</a>
</g>
</g>
<!-- Node2&#45;&gt;Node1 -->
<g id="edge1" class="edge"><title>Node2&#45;&gt;Node1</title>
<path fill="none" stroke="#404040" d="M89.1493,-116.34C97.7297,-104.847 107.89,-91.2375 117.402,-78.495"/>
<polygon fill="none" stroke="#404040" points="117.671,-78.1345 118.056,-70.9336 124.85,-68.5186 124.466,-75.7194 117.671,-78.1345"/>
<text text-anchor="middle" x="131" y="-90" font-family="Helvetica,sans-Serif" font-size="10.00"> +fTracks</text>
</g>
<!-- Node3 -->
<g id="node3" class="node"><title>Node3</title>
<g id="a_node3"><a xlink:href="../../d4/dc3/classfloat.html" target="_top" xlink:title="{float\n||}">
<polygon fill="none" stroke="black" points="18,-298.5 18,-355.5 53,-355.5 53,-298.5 18,-298.5"/>
<text text-anchor="middle" x="35.5" y="-343.5" font-family="Helvetica,sans-Serif" font-size="10.00">float</text>
<polyline fill="none" stroke="black" points="18,-336.5 53,-336.5 "/>
<text text-anchor="middle" x="35.5" y="-324.5" font-family="Helvetica,sans-Serif" font-size="10.00"> </text>
<polyline fill="none" stroke="black" points="18,-317.5 53,-317.5 "/>
<text text-anchor="middle" x="35.5" y="-305.5" font-family="Helvetica,sans-Serif" font-size="10.00"> </text>
</a>
</g>
</g>
<!-- Node3&#45;&gt;Node2 -->
<g id="edge2" class="edge"><title>Node3&#45;&gt;Node2</title>
<path fill="none" stroke="#404040" d="M31.0294,-298.309C27.6409,-270.679 25.2639,-227.365 36.5,-192 37.3257,-189.401 38.3543,-186.82 39.5314,-184.283"/>
<polygon fill="none" stroke="#404040" points="39.6677,-184.037 39.0707,-176.85 45.4746,-173.535 46.0716,-180.722 39.6677,-184.037"/>
<text text-anchor="middle" x="58" y="-272" font-family="Helvetica,sans-Serif" font-size="10.00"> +mAlpha</text>
<text text-anchor="middle" x="58" y="-261" font-family="Helvetica,sans-Serif" font-size="10.00">+fC</text>
<text text-anchor="middle" x="58" y="-250" font-family="Helvetica,sans-Serif" font-size="10.00">+mSinPhi</text>
<text text-anchor="middle" x="58" y="-239" font-family="Helvetica,sans-Serif" font-size="10.00">+fX</text>
<text text-anchor="middle" x="58" y="-228" font-family="Helvetica,sans-Serif" font-size="10.00">+fTgl</text>
<text text-anchor="middle" x="58" y="-217" font-family="Helvetica,sans-Serif" font-size="10.00">+fY</text>
<text text-anchor="middle" x="58" y="-206" font-family="Helvetica,sans-Serif" font-size="10.00">+fq1Pt</text>
<text text-anchor="middle" x="58" y="-195" font-family="Helvetica,sans-Serif" font-size="10.00">+fZ</text>
</g>
<!-- Node4 -->
<g id="node4" class="node"><title>Node4</title>
<polygon fill="none" stroke="#bfbfbf" points="87,-298.5 87,-355.5 116,-355.5 116,-298.5 87,-298.5"/>
<text text-anchor="middle" x="101.5" y="-343.5" font-family="Helvetica,sans-Serif" font-size="10.00">int</text>
<polyline fill="none" stroke="#bfbfbf" points="87,-336.5 116,-336.5 "/>
<text text-anchor="middle" x="101.5" y="-324.5" font-family="Helvetica,sans-Serif" font-size="10.00"> </text>
<polyline fill="none" stroke="#bfbfbf" points="87,-317.5 116,-317.5 "/>
<text text-anchor="middle" x="101.5" y="-305.5" font-family="Helvetica,sans-Serif" font-size="10.00"> </text>
</g>
<!-- Node4&#45;&gt;Node2 -->
<g id="edge3" class="edge"><title>Node4&#45;&gt;Node2</title>
<path fill="none" stroke="#404040" d="M97.5674,-298.435C93.5525,-271.27 86.877,-228.631 79.5,-192 79.0689,-189.859 78.6087,-187.667 78.13,-185.457"/>
<polygon fill="none" stroke="#404040" points="78.1086,-185.362 72.8808,-180.395 75.4551,-173.659 80.6828,-178.626 78.1086,-185.362"/>
<text text-anchor="middle" x="139" y="-239" font-family="Helvetica,sans-Serif" font-size="10.00"> +fTPCTrackID</text>
<text text-anchor="middle" x="139" y="-228" font-family="Helvetica,sans-Serif" font-size="10.00">+fAttachedTracklets</text>
</g>
<!-- Node5 -->
<g id="node5" class="node"><title>Node5</title>
<polygon fill="none" stroke="#bfbfbf" points="155.5,-116.5 155.5,-173.5 211.5,-173.5 211.5,-116.5 155.5,-116.5"/>
<text text-anchor="middle" x="183.5" y="-161.5" font-family="Helvetica,sans-Serif" font-size="10.00">unsigned</text>
<polyline fill="none" stroke="#bfbfbf" points="155.5,-154.5 211.5,-154.5 "/>
<text text-anchor="middle" x="183.5" y="-142.5" font-family="Helvetica,sans-Serif" font-size="10.00"> </text>
<polyline fill="none" stroke="#bfbfbf" points="155.5,-135.5 211.5,-135.5 "/>
<text text-anchor="middle" x="183.5" y="-123.5" font-family="Helvetica,sans-Serif" font-size="10.00"> </text>
</g>
<!-- Node5&#45;&gt;Node1 -->
<g id="edge4" class="edge"><title>Node5&#45;&gt;Node1</title>
<path fill="none" stroke="#404040" d="M174.832,-116.34C171.373,-105.302 167.303,-92.3121 163.449,-80.0129"/>
<polygon fill="none" stroke="#404040" points="163.435,-79.9695 157.824,-75.4401 159.847,-68.5186 165.458,-73.0479 163.435,-79.9695"/>
<text text-anchor="middle" x="189" y="-90" font-family="Helvetica,sans-Serif" font-size="10.00"> +fCount</text>
</g>
</g>
</svg>
