<?xml version="1.0" encoding="UTF-8" standalone="no"?>
<!DOCTYPE svg PUBLIC "-//W3C//DTD SVG 1.1//EN"
 "http://www.w3.org/Graphics/SVG/1.1/DTD/svg11.dtd">
<!-- Generated by graphviz version 2.38.0 (20140413.2041)
 -->
<!-- Title: /home/travis/build/AliceO2Group/AliceO2/Framework/Core/src/TMessageSerializer.cxx Pages: 1 -->
<svg width="1658pt" height="240pt"
 viewBox="0.00 0.00 1657.50 240.00" xmlns="http://www.w3.org/2000/svg" xmlns:xlink="http://www.w3.org/1999/xlink">
<g id="graph0" class="graph" transform="scale(1 1) rotate(0) translate(4 236)">
<title>/home/travis/build/AliceO2Group/AliceO2/Framework/Core/src/TMessageSerializer.cxx</title>
<!-- Node1 -->
<g id="node1" class="node"><title>Node1</title>
<polygon fill="#bfbfbf" stroke="black" points="708.5,-179.5 708.5,-231.5 866.5,-231.5 866.5,-179.5 708.5,-179.5"/>
<text text-anchor="start" x="716.5" y="-219.5" font-family="Helvetica,sans-Serif" font-size="10.00">/home/travis/build</text>
<text text-anchor="start" x="716.5" y="-208.5" font-family="Helvetica,sans-Serif" font-size="10.00">/AliceO2Group/AliceO2</text>
<text text-anchor="start" x="716.5" y="-197.5" font-family="Helvetica,sans-Serif" font-size="10.00">/Framework/Core/src/TMessage</text>
<text text-anchor="middle" x="787.5" y="-186.5" font-family="Helvetica,sans-Serif" font-size="10.00">Serializer.cxx</text>
</g>
<!-- Node2 -->
<g id="node2" class="node"><title>Node2</title>
<g id="a_node2"><a xlink:href="../../d8/d3c/TMessageSerializer_8h.html" target="_top" xlink:title="Framework/TMessageSerializer.h">
<polygon fill="none" stroke="black" points="441,-123.5 441,-142.5 604,-142.5 604,-123.5 441,-123.5"/>
<text text-anchor="middle" x="522.5" y="-130.5" font-family="Helvetica,sans-Serif" font-size="10.00">Framework/TMessageSerializer.h</text>
</a>
</g>
</g>
<!-- Node1&#45;&gt;Node2 -->
<g id="edge1" class="edge"><title>Node1&#45;&gt;Node2</title>
<path fill="none" stroke="midnightblue" d="M708.35,-183.443C661.17,-170.891 603.155,-155.457 564.622,-145.206"/>
<polygon fill="midnightblue" stroke="midnightblue" points="565.344,-141.776 554.78,-142.588 563.544,-148.541 565.344,-141.776"/>
</g>
<!-- Node10 -->
<g id="node10" class="node"><title>Node10</title>
<polygon fill="none" stroke="#bfbfbf" points="917.5,-67.5 917.5,-86.5 969.5,-86.5 969.5,-67.5 917.5,-67.5"/>
<text text-anchor="middle" x="943.5" y="-74.5" font-family="Helvetica,sans-Serif" font-size="10.00">memory</text>
</g>
<!-- Node1&#45;&gt;Node10 -->
<g id="edge28" class="edge"><title>Node1&#45;&gt;Node10</title>
<path fill="none" stroke="midnightblue" d="M787.161,-179.462C788.248,-161.629 792.57,-138.218 806.5,-123 813.541,-115.308 869.447,-98.5676 907.63,-87.8146"/>
<polygon fill="midnightblue" stroke="midnightblue" points="908.705,-91.1483 917.394,-85.0861 906.821,-84.4066 908.705,-91.1483"/>
</g>
<!-- Node28 -->
<g id="node28" class="node"><title>Node28</title>
<polygon fill="none" stroke="#bfbfbf" points="815.5,-123.5 815.5,-142.5 871.5,-142.5 871.5,-123.5 815.5,-123.5"/>
<text text-anchor="middle" x="843.5" y="-130.5" font-family="Helvetica,sans-Serif" font-size="10.00">algorithm</text>
</g>
<!-- Node1&#45;&gt;Node28 -->
<g id="edge27" class="edge"><title>Node1&#45;&gt;Node28</title>
<path fill="none" stroke="midnightblue" d="M807.401,-179.446C814.961,-169.929 823.382,-159.327 830.189,-150.758"/>
<polygon fill="midnightblue" stroke="midnightblue" points="833.114,-152.703 836.593,-142.695 827.632,-148.349 833.114,-152.703"/>
</g>
<!-- Node3 -->
<g id="node3" class="node"><title>Node3</title>
<polygon fill="none" stroke="#bfbfbf" points="0,-67.5 0,-86.5 127,-86.5 127,-67.5 0,-67.5"/>
<text text-anchor="middle" x="63.5" y="-74.5" font-family="Helvetica,sans-Serif" font-size="10.00">fairmq/FairMQMessage.h</text>
</g>
<!-- Node2&#45;&gt;Node3 -->
<g id="edge2" class="edge"><title>Node2&#45;&gt;Node3</title>
<path fill="none" stroke="midnightblue" d="M447.564,-123.48C371.796,-114.821 251.03,-100.899 137.047,-87.1791"/>
<polygon fill="midnightblue" stroke="midnightblue" points="137.447,-83.7019 127.1,-85.98 136.609,-90.6516 137.447,-83.7019"/>
</g>
<!-- Node4 -->
<g id="node4" class="node"><title>Node4</title>
<polygon fill="none" stroke="#bfbfbf" points="145,-67.5 145,-86.5 192,-86.5 192,-67.5 145,-67.5"/>
<text text-anchor="middle" x="168.5" y="-74.5" font-family="Helvetica,sans-Serif" font-size="10.00">TList.h</text>
</g>
<!-- Node2&#45;&gt;Node4 -->
<g id="edge3" class="edge"><title>Node2&#45;&gt;Node4</title>
<path fill="none" stroke="midnightblue" d="M441.21,-123.495C378.443,-116.26 289.301,-104.54 202.259,-86.9163"/>
<polygon fill="midnightblue" stroke="midnightblue" points="202.706,-83.4351 192.206,-84.8522 201.298,-90.292 202.706,-83.4351"/>
</g>
<!-- Node5 -->
<g id="node5" class="node"><title>Node5</title>
<polygon fill="none" stroke="#bfbfbf" points="210,-67.5 210,-86.5 281,-86.5 281,-67.5 210,-67.5"/>
<text text-anchor="middle" x="245.5" y="-74.5" font-family="Helvetica,sans-Serif" font-size="10.00">TMessage.h</text>
</g>
<!-- Node2&#45;&gt;Node5 -->
<g id="edge4" class="edge"><title>Node2&#45;&gt;Node5</title>
<path fill="none" stroke="midnightblue" d="M478.009,-123.45C433.394,-114.858 362.445,-101.147 291.383,-87.1652"/>
<polygon fill="midnightblue" stroke="midnightblue" points="291.845,-83.6891 281.358,-85.191 290.493,-90.5573 291.845,-83.6891"/>
</g>
<!-- Node6 -->
<g id="node6" class="node"><title>Node6</title>
<polygon fill="none" stroke="#bfbfbf" points="299,-67.5 299,-86.5 368,-86.5 368,-67.5 299,-67.5"/>
<text text-anchor="middle" x="333.5" y="-74.5" font-family="Helvetica,sans-Serif" font-size="10.00">TObjArray.h</text>
</g>
<!-- Node2&#45;&gt;Node6 -->
<g id="edge5" class="edge"><title>Node2&#45;&gt;Node6</title>
<path fill="none" stroke="midnightblue" d="M492.552,-123.444C460.342,-114.241 408.966,-99.5617 373.358,-89.3879"/>
<polygon fill="midnightblue" stroke="midnightblue" points="373.884,-85.8984 363.308,-86.5164 371.961,-92.629 373.884,-85.8984"/>
</g>
<!-- Node7 -->
<g id="node7" class="node"><title>Node7</title>
<polygon fill="none" stroke="#bfbfbf" points="386,-67.5 386,-86.5 473,-86.5 473,-67.5 386,-67.5"/>
<text text-anchor="middle" x="429.5" y="-74.5" font-family="Helvetica,sans-Serif" font-size="10.00">TStreamerInfo.h</text>
</g>
<!-- Node2&#45;&gt;Node7 -->
<g id="edge6" class="edge"><title>Node2&#45;&gt;Node7</title>
<path fill="none" stroke="midnightblue" d="M507.558,-123.324C492.915,-114.822 470.366,-101.729 453.262,-91.7975"/>
<polygon fill="midnightblue" stroke="midnightblue" points="454.81,-88.6491 444.405,-86.6545 451.295,-94.7027 454.81,-88.6491"/>
</g>
<!-- Node8 -->
<g id="node8" class="node"><title>Node8</title>
<polygon fill="none" stroke="#bfbfbf" points="491,-67.5 491,-86.5 554,-86.5 554,-67.5 491,-67.5"/>
<text text-anchor="middle" x="522.5" y="-74.5" font-family="Helvetica,sans-Serif" font-size="10.00">gsl/gsl_util</text>
</g>
<!-- Node2&#45;&gt;Node8 -->
<g id="edge7" class="edge"><title>Node2&#45;&gt;Node8</title>
<path fill="none" stroke="midnightblue" d="M522.5,-123.083C522.5,-116.006 522.5,-105.861 522.5,-96.9865"/>
<polygon fill="midnightblue" stroke="midnightblue" points="526,-96.751 522.5,-86.7511 519,-96.7511 526,-96.751"/>
</g>
<!-- Node9 -->
<g id="node9" class="node"><title>Node9</title>
<polygon fill="none" stroke="#bfbfbf" points="572,-67.5 572,-86.5 625,-86.5 625,-67.5 572,-67.5"/>
<text text-anchor="middle" x="598.5" y="-74.5" font-family="Helvetica,sans-Serif" font-size="10.00">gsl/span</text>
</g>
<!-- Node2&#45;&gt;Node9 -->
<g id="edge8" class="edge"><title>Node2&#45;&gt;Node9</title>
<path fill="none" stroke="midnightblue" d="M534.711,-123.324C546.276,-115.107 563.875,-102.602 577.661,-92.8069"/>
<polygon fill="midnightblue" stroke="midnightblue" points="579.943,-95.4791 586.067,-86.8339 575.888,-89.7729 579.943,-95.4791"/>
</g>
<!-- Node2&#45;&gt;Node10 -->
<g id="edge9" class="edge"><title>Node2&#45;&gt;Node10</title>
<path fill="none" stroke="midnightblue" d="M604.31,-125.705C680.476,-119.104 797.274,-107.097 907.272,-87.0084"/>
<polygon fill="midnightblue" stroke="midnightblue" points="908.017,-90.4302 917.212,-85.1674 906.742,-83.5472 908.017,-90.4302"/>
</g>
<!-- Node11 -->
<g id="node11" class="node"><title>Node11</title>
<polygon fill="none" stroke="#bfbfbf" points="643.5,-67.5 643.5,-86.5 687.5,-86.5 687.5,-67.5 643.5,-67.5"/>
<text text-anchor="middle" x="665.5" y="-74.5" font-family="Helvetica,sans-Serif" font-size="10.00">mutex</text>
</g>
<!-- Node2&#45;&gt;Node11 -->
<g id="edge10" class="edge"><title>Node2&#45;&gt;Node11</title>
<path fill="none" stroke="midnightblue" d="M545.159,-123.444C569.042,-114.425 606.851,-100.147 633.711,-90.0043"/>
<polygon fill="midnightblue" stroke="midnightblue" points="635.298,-93.1461 643.417,-86.339 632.825,-86.5975 635.298,-93.1461"/>
</g>
<!-- Node12 -->
<g id="node12" class="node"><title>Node12</title>
<g id="a_node12"><a xlink:href="../../dc/d03/MemoryResources_8h.html" target="_top" xlink:title="MemoryResources/MemoryResources.h">
<polygon fill="none" stroke="black" points="706,-67.5 706,-86.5 899,-86.5 899,-67.5 706,-67.5"/>
<text text-anchor="middle" x="802.5" y="-74.5" font-family="Helvetica,sans-Serif" font-size="10.00">MemoryResources/MemoryResources.h</text>
</a>
</g>
</g>
<!-- Node2&#45;&gt;Node12 -->
<g id="edge11" class="edge"><title>Node2&#45;&gt;Node12</title>
<path fill="none" stroke="midnightblue" d="M566.867,-123.444C616.122,-113.944 695.628,-98.611 748.471,-88.4198"/>
<polygon fill="midnightblue" stroke="midnightblue" points="749.184,-91.8469 758.341,-86.5164 747.859,-84.9735 749.184,-91.8469"/>
</g>
<!-- Node13 -->
<g id="node13" class="node"><title>Node13</title>
<polygon fill="none" stroke="#bfbfbf" points="0.5,-0.5 0.5,-30.5 100.5,-30.5 100.5,-0.5 0.5,-0.5"/>
<text text-anchor="start" x="8.5" y="-18.5" font-family="Helvetica,sans-Serif" font-size="10.00">boost/container/flat</text>
<text text-anchor="middle" x="50.5" y="-7.5" font-family="Helvetica,sans-Serif" font-size="10.00">_map.hpp</text>
</g>
<!-- Node12&#45;&gt;Node13 -->
<g id="edge12" class="edge"><title>Node12&#45;&gt;Node13</title>
<path fill="none" stroke="midnightblue" d="M705.745,-67.6908C702.627,-67.4531 699.539,-67.2222 696.5,-67 439.126,-48.1841 369.656,-69.787 110.674,-30.9865"/>
<polygon fill="midnightblue" stroke="midnightblue" points="111,-27.496 100.589,-29.4595 109.952,-34.4171 111,-27.496"/>
</g>
<!-- Node14 -->
<g id="node14" class="node"><title>Node14</title>
<polygon fill="none" stroke="#bfbfbf" points="118.5,-0.5 118.5,-30.5 234.5,-30.5 234.5,-0.5 118.5,-0.5"/>
<text text-anchor="start" x="126.5" y="-18.5" font-family="Helvetica,sans-Serif" font-size="10.00">boost/container/pmr</text>
<text text-anchor="middle" x="176.5" y="-7.5" font-family="Helvetica,sans-Serif" font-size="10.00">/memory_resource.hpp</text>
</g>
<!-- Node12&#45;&gt;Node14 -->
<g id="edge13" class="edge"><title>Node12&#45;&gt;Node14</title>
<path fill="none" stroke="midnightblue" d="M705.739,-67.7628C702.623,-67.5044 699.537,-67.2496 696.5,-67 498.454,-50.7231 445.024,-60.1117 244.49,-31.0141"/>
<polygon fill="midnightblue" stroke="midnightblue" points="244.919,-27.5398 234.518,-29.5533 243.905,-34.4659 244.919,-27.5398"/>
</g>
<!-- Node15 -->
<g id="node15" class="node"><title>Node15</title>
<polygon fill="none" stroke="#bfbfbf" points="252.5,-0.5 252.5,-30.5 408.5,-30.5 408.5,-0.5 252.5,-0.5"/>
<text text-anchor="start" x="260.5" y="-18.5" font-family="Helvetica,sans-Serif" font-size="10.00">boost/container/pmr</text>
<text text-anchor="middle" x="330.5" y="-7.5" font-family="Helvetica,sans-Serif" font-size="10.00">/monotonic_buffer_resource.hpp</text>
</g>
<!-- Node12&#45;&gt;Node15 -->
<g id="edge14" class="edge"><title>Node12&#45;&gt;Node15</title>
<path fill="none" stroke="midnightblue" d="M720.333,-67.4929C644.765,-59.4113 529.356,-46.4217 418.687,-30.9811"/>
<polygon fill="midnightblue" stroke="midnightblue" points="419.071,-27.5007 408.681,-29.5764 418.097,-34.4327 419.071,-27.5007"/>
</g>
<!-- Node16 -->
<g id="node16" class="node"><title>Node16</title>
<polygon fill="none" stroke="#bfbfbf" points="427,-0.5 427,-30.5 560,-30.5 560,-0.5 427,-0.5"/>
<text text-anchor="start" x="435" y="-18.5" font-family="Helvetica,sans-Serif" font-size="10.00">boost/container/pmr</text>
<text text-anchor="middle" x="493.5" y="-7.5" font-family="Helvetica,sans-Serif" font-size="10.00">/polymorphic_allocator.hpp</text>
</g>
<!-- Node12&#45;&gt;Node16 -->
<g id="edge15" class="edge"><title>Node12&#45;&gt;Node16</title>
<path fill="none" stroke="midnightblue" d="M758.228,-67.4751C709.246,-58.0433 629.422,-42.6727 570.216,-31.2722"/>
<polygon fill="midnightblue" stroke="midnightblue" points="570.639,-27.7894 560.158,-29.3354 569.315,-34.6631 570.639,-27.7894"/>
</g>
<!-- Node17 -->
<g id="node17" class="node"><title>Node17</title>
<polygon fill="none" stroke="#bfbfbf" points="578.5,-6 578.5,-25 624.5,-25 624.5,-6 578.5,-6"/>
<text text-anchor="middle" x="601.5" y="-13" font-family="Helvetica,sans-Serif" font-size="10.00">cstring</text>
</g>
<!-- Node12&#45;&gt;Node17 -->
<g id="edge16" class="edge"><title>Node12&#45;&gt;Node17</title>
<path fill="none" stroke="midnightblue" d="M763.964,-67.4446C729.582,-59.3959 678.086,-46.3131 634.5,-31 632.836,-30.4153 631.138,-29.7836 629.434,-29.1223"/>
<polygon fill="midnightblue" stroke="midnightblue" points="630.38,-25.7258 619.802,-25.1327 627.701,-32.193 630.38,-25.7258"/>
</g>
<!-- Node18 -->
<g id="node18" class="node"><title>Node18</title>
<polygon fill="none" stroke="#bfbfbf" points="643,-6 643,-25 684,-25 684,-6 643,-6"/>
<text text-anchor="middle" x="663.5" y="-13" font-family="Helvetica,sans-Serif" font-size="10.00">string</text>
</g>
<!-- Node12&#45;&gt;Node18 -->
<g id="edge17" class="edge"><title>Node12&#45;&gt;Node18</title>
<path fill="none" stroke="midnightblue" d="M780.625,-67.4077C758.502,-58.6154 723.398,-44.3831 693.5,-31 692.342,-30.4815 691.162,-29.9454 689.972,-29.3985"/>
<polygon fill="midnightblue" stroke="midnightblue" points="691.407,-26.2055 680.869,-25.1082 688.422,-32.5375 691.407,-26.2055"/>
</g>
<!-- Node19 -->
<g id="node19" class="node"><title>Node19</title>
<polygon fill="none" stroke="#bfbfbf" points="702.5,-6 702.5,-25 764.5,-25 764.5,-6 702.5,-6"/>
<text text-anchor="middle" x="733.5" y="-13" font-family="Helvetica,sans-Serif" font-size="10.00">type_traits</text>
</g>
<!-- Node12&#45;&gt;Node19 -->
<g id="edge18" class="edge"><title>Node12&#45;&gt;Node19</title>
<path fill="none" stroke="midnightblue" d="M792.614,-67.4751C781.854,-58.1966 764.429,-43.1706 751.279,-31.831"/>
<polygon fill="midnightblue" stroke="midnightblue" points="753.227,-28.889 743.368,-25.0091 748.655,-34.1902 753.227,-28.889"/>
</g>
<!-- Node20 -->
<g id="node20" class="node"><title>Node20</title>
<polygon fill="none" stroke="#bfbfbf" points="782.5,-6 782.5,-25 822.5,-25 822.5,-6 782.5,-6"/>
<text text-anchor="middle" x="802.5" y="-13" font-family="Helvetica,sans-Serif" font-size="10.00">utility</text>
</g>
<!-- Node12&#45;&gt;Node20 -->
<g id="edge19" class="edge"><title>Node12&#45;&gt;Node20</title>
<path fill="none" stroke="midnightblue" d="M802.5,-67.4751C802.5,-59.0803 802.5,-45.9806 802.5,-35.1631"/>
<polygon fill="midnightblue" stroke="midnightblue" points="806,-35.0091 802.5,-25.0091 799,-35.0091 806,-35.0091"/>
</g>
<!-- Node21 -->
<g id="node21" class="node"><title>Node21</title>
<polygon fill="none" stroke="#bfbfbf" points="840.5,-6 840.5,-25 884.5,-25 884.5,-6 840.5,-6"/>
<text text-anchor="middle" x="862.5" y="-13" font-family="Helvetica,sans-Serif" font-size="10.00">vector</text>
</g>
<!-- Node12&#45;&gt;Node21 -->
<g id="edge20" class="edge"><title>Node12&#45;&gt;Node21</title>
<path fill="none" stroke="midnightblue" d="M811.097,-67.4751C820.364,-58.285 835.317,-43.4563 846.712,-32.156"/>
<polygon fill="midnightblue" stroke="midnightblue" points="849.283,-34.5358 853.919,-25.0091 844.354,-29.5653 849.283,-34.5358"/>
</g>
<!-- Node22 -->
<g id="node22" class="node"><title>Node22</title>
<polygon fill="none" stroke="#bfbfbf" points="903,-6 903,-25 986,-25 986,-6 903,-6"/>
<text text-anchor="middle" x="944.5" y="-13" font-family="Helvetica,sans-Serif" font-size="10.00">unordered_map</text>
</g>
<!-- Node12&#45;&gt;Node22 -->
<g id="edge21" class="edge"><title>Node12&#45;&gt;Node22</title>
<path fill="none" stroke="midnightblue" d="M822.845,-67.4751C846.887,-57.4013 887.097,-40.5525 914.663,-29.0023"/>
<polygon fill="midnightblue" stroke="midnightblue" points="916.322,-32.1018 924.193,-25.0091 913.617,-25.6457 916.322,-32.1018"/>
</g>
<!-- Node23 -->
<g id="node23" class="node"><title>Node23</title>
<polygon fill="none" stroke="#bfbfbf" points="1004,-6 1004,-25 1101,-25 1101,-6 1004,-6"/>
<text text-anchor="middle" x="1052.5" y="-13" font-family="Helvetica,sans-Serif" font-size="10.00">FairMQMessage.h</text>
</g>
<!-- Node12&#45;&gt;Node23 -->
<g id="edge22" class="edge"><title>Node12&#45;&gt;Node23</title>
<path fill="none" stroke="midnightblue" d="M840.275,-67.4278C879.221,-58.5345 941.683,-44.1179 995.5,-31 1000.09,-29.8801 1004.89,-28.6909 1009.67,-27.494"/>
<polygon fill="midnightblue" stroke="midnightblue" points="1010.53,-30.8858 1019.37,-25.0464 1008.82,-24.0984 1010.53,-30.8858"/>
</g>
<!-- Node24 -->
<g id="node24" class="node"><title>Node24</title>
<polygon fill="none" stroke="#bfbfbf" points="1119,-6 1119,-25 1250,-25 1250,-6 1119,-6"/>
<text text-anchor="middle" x="1184.5" y="-13" font-family="Helvetica,sans-Serif" font-size="10.00">FairMQTransportFactory.h</text>
</g>
<!-- Node12&#45;&gt;Node24 -->
<g id="edge23" class="edge"><title>Node12&#45;&gt;Node24</title>
<path fill="none" stroke="midnightblue" d="M867.241,-67.4691C929.666,-59.0244 1026.74,-45.3169 1110.5,-31 1117.69,-29.7717 1125.25,-28.3917 1132.68,-26.9841"/>
<polygon fill="midnightblue" stroke="midnightblue" points="1133.53,-30.3847 1142.69,-25.0591 1132.21,-23.5107 1133.53,-30.3847"/>
</g>
<!-- Node25 -->
<g id="node25" class="node"><title>Node25</title>
<polygon fill="none" stroke="#bfbfbf" points="1268,-6 1268,-25 1405,-25 1405,-6 1268,-6"/>
<text text-anchor="middle" x="1336.5" y="-13" font-family="Helvetica,sans-Serif" font-size="10.00">fairmq/MemoryResources.h</text>
</g>
<!-- Node12&#45;&gt;Node25 -->
<g id="edge24" class="edge"><title>Node12&#45;&gt;Node25</title>
<path fill="none" stroke="midnightblue" d="M899.362,-67.4716C1012.37,-57.3431 1192.32,-40.614 1259.5,-31 1267.64,-29.8355 1276.22,-28.4128 1284.59,-26.9187"/>
<polygon fill="midnightblue" stroke="midnightblue" points="1285.45,-30.3207 1294.65,-25.0734 1284.18,-23.4356 1285.45,-30.3207"/>
</g>
<!-- Node26 -->
<g id="node26" class="node"><title>Node26</title>
<polygon fill="none" stroke="#bfbfbf" points="1423.5,-6 1423.5,-25 1579.5,-25 1579.5,-6 1423.5,-6"/>
<text text-anchor="middle" x="1501.5" y="-13" font-family="Helvetica,sans-Serif" font-size="10.00">fairmq/MemoryResourceTools.h</text>
</g>
<!-- Node12&#45;&gt;Node26 -->
<g id="edge25" class="edge"><title>Node12&#45;&gt;Node26</title>
<path fill="none" stroke="midnightblue" d="M899.258,-67.7298C902.375,-67.4809 905.462,-67.237 908.5,-67 1133.27,-49.4626 1190.61,-57.5619 1414.5,-31 1424.42,-29.8229 1434.94,-28.3038 1445.1,-26.6936"/>
<polygon fill="midnightblue" stroke="midnightblue" points="1445.8,-30.1253 1455.11,-25.0623 1444.68,-23.2164 1445.8,-30.1253"/>
</g>
<!-- Node27 -->
<g id="node27" class="node"><title>Node27</title>
<g id="a_node27"><a xlink:href="../../d7/df8/Types_8h.html" target="_top" xlink:title="Types.h">
<polygon fill="none" stroke="black" points="1597.5,-6 1597.5,-25 1649.5,-25 1649.5,-6 1597.5,-6"/>
<text text-anchor="middle" x="1623.5" y="-13" font-family="Helvetica,sans-Serif" font-size="10.00">Types.h</text>
</a>
</g>
</g>
<!-- Node12&#45;&gt;Node27 -->
<g id="edge26" class="edge"><title>Node12&#45;&gt;Node27</title>
<path fill="none" stroke="midnightblue" d="M899.253,-67.6574C902.371,-67.4294 905.46,-67.2095 908.5,-67 1210.43,-46.1953 1293.34,-97.8807 1588.5,-31 1591.17,-30.3941 1593.91,-29.601 1596.6,-28.6978"/>
<polygon fill="midnightblue" stroke="midnightblue" points="1597.98,-31.9177 1606.08,-25.0816 1595.49,-25.378 1597.98,-31.9177"/>
</g>
</g>
</svg>
