<?xml version="1.0" encoding="UTF-8" standalone="no"?>
<!DOCTYPE svg PUBLIC "-//W3C//DTD SVG 1.1//EN"
 "http://www.w3.org/Graphics/SVG/1.1/DTD/svg11.dtd">
<!-- Generated by graphviz version 2.38.0 (20140413.2041)
 -->
<!-- Title: /home/travis/build/AliceO2Group/AliceO2/Framework/Core/src/ComputingResourceHelpers.h Pages: 1 -->
<svg width="1366pt" height="150pt"
 viewBox="0.00 0.00 1366.00 150.00" xmlns="http://www.w3.org/2000/svg" xmlns:xlink="http://www.w3.org/1999/xlink">
<g id="graph0" class="graph" transform="scale(1 1) rotate(0) translate(4 146)">
<title>/home/travis/build/AliceO2Group/AliceO2/Framework/Core/src/ComputingResourceHelpers.h</title>
<!-- Node1 -->
<g id="node1" class="node"><title>Node1</title>
<polygon fill="#bfbfbf" stroke="black" points="651,-89.5 651,-141.5 810,-141.5 810,-89.5 651,-89.5"/>
<text text-anchor="start" x="659" y="-129.5" font-family="Helvetica,sans-Serif" font-size="10.00">/home/travis/build</text>
<text text-anchor="start" x="659" y="-118.5" font-family="Helvetica,sans-Serif" font-size="10.00">/AliceO2Group/AliceO2</text>
<text text-anchor="start" x="659" y="-107.5" font-family="Helvetica,sans-Serif" font-size="10.00">/Framework/Core/src/Computing</text>
<text text-anchor="middle" x="730.5" y="-96.5" font-family="Helvetica,sans-Serif" font-size="10.00">ResourceHelpers.h</text>
</g>
<!-- Node2 -->
<g id="node2" class="node"><title>Node2</title>
<g id="a_node2"><a xlink:href="../../d2/dcd/ComputingResourceHelpers_8cxx.html" target="_top" xlink:title="/home/travis/build\l/AliceO2Group/AliceO2\l/Framework/Core/src/Computing\lResourceHelpers.cxx">
<polygon fill="none" stroke="black" points="0,-0.5 0,-52.5 159,-52.5 159,-0.5 0,-0.5"/>
<text text-anchor="start" x="8" y="-40.5" font-family="Helvetica,sans-Serif" font-size="10.00">/home/travis/build</text>
<text text-anchor="start" x="8" y="-29.5" font-family="Helvetica,sans-Serif" font-size="10.00">/AliceO2Group/AliceO2</text>
<text text-anchor="start" x="8" y="-18.5" font-family="Helvetica,sans-Serif" font-size="10.00">/Framework/Core/src/Computing</text>
<text text-anchor="middle" x="79.5" y="-7.5" font-family="Helvetica,sans-Serif" font-size="10.00">ResourceHelpers.cxx</text>
</a>
</g>
</g>
<!-- Node1&#45;&gt;Node2 -->
<g id="edge1" class="edge"><title>Node1&#45;&gt;Node2</title>
<path fill="none" stroke="midnightblue" d="M640.37,-109.481C528.586,-102.152 332.586,-85.6792 167.5,-53 164.847,-52.4749 162.159,-51.9071 159.451,-51.3046"/>
<polygon fill="midnightblue" stroke="midnightblue" points="640.385,-112.989 650.59,-110.14 640.836,-106.003 640.385,-112.989"/>
</g>
<!-- Node3 -->
<g id="node3" class="node"><title>Node3</title>
<g id="a_node3"><a xlink:href="../../d7/d54/runDataProcessing_8cxx.html" target="_top" xlink:title="/home/travis/build\l/AliceO2Group/AliceO2\l/Framework/Core/src/runDataProcessing.cxx">
<polygon fill="none" stroke="black" points="176.5,-6 176.5,-47 390.5,-47 390.5,-6 176.5,-6"/>
<text text-anchor="start" x="184.5" y="-35" font-family="Helvetica,sans-Serif" font-size="10.00">/home/travis/build</text>
<text text-anchor="start" x="184.5" y="-24" font-family="Helvetica,sans-Serif" font-size="10.00">/AliceO2Group/AliceO2</text>
<text text-anchor="middle" x="283.5" y="-13" font-family="Helvetica,sans-Serif" font-size="10.00">/Framework/Core/src/runDataProcessing.cxx</text>
</a>
</g>
</g>
<!-- Node1&#45;&gt;Node3 -->
<g id="edge2" class="edge"><title>Node1&#45;&gt;Node3</title>
<path fill="none" stroke="midnightblue" d="M640.717,-98.6371C574.049,-86.6593 480.957,-69.516 399.5,-53 390.204,-51.1152 380.504,-49.0844 370.844,-47.0209"/>
<polygon fill="midnightblue" stroke="midnightblue" points="640.309,-102.12 650.77,-100.44 641.545,-95.2297 640.309,-102.12"/>
</g>
<!-- Node4 -->
<g id="node4" class="node"><title>Node4</title>
<g id="a_node4"><a xlink:href="../../d7/d69/test__ComputingResourceHelpers_8cxx.html" target="_top" xlink:title="/home/travis/build\l/AliceO2Group/AliceO2\l/Framework/Core/test/test\l_ComputingResourceHelpers.cxx">
<polygon fill="none" stroke="black" points="408.5,-0.5 408.5,-52.5 572.5,-52.5 572.5,-0.5 408.5,-0.5"/>
<text text-anchor="start" x="416.5" y="-40.5" font-family="Helvetica,sans-Serif" font-size="10.00">/home/travis/build</text>
<text text-anchor="start" x="416.5" y="-29.5" font-family="Helvetica,sans-Serif" font-size="10.00">/AliceO2Group/AliceO2</text>
<text text-anchor="start" x="416.5" y="-18.5" font-family="Helvetica,sans-Serif" font-size="10.00">/Framework/Core/test/test</text>
<text text-anchor="middle" x="490.5" y="-7.5" font-family="Helvetica,sans-Serif" font-size="10.00">_ComputingResourceHelpers.cxx</text>
</a>
</g>
</g>
<!-- Node1&#45;&gt;Node4 -->
<g id="edge3" class="edge"><title>Node1&#45;&gt;Node4</title>
<path fill="none" stroke="midnightblue" d="M651.874,-85.9981C622.067,-75.1932 588.38,-62.9816 559.524,-52.5211"/>
<polygon fill="midnightblue" stroke="midnightblue" points="650.81,-89.3351 661.404,-89.4527 653.195,-82.7542 650.81,-89.3351"/>
</g>
<!-- Node5 -->
<g id="node5" class="node"><title>Node5</title>
<g id="a_node5"><a xlink:href="../../d9/d51/test__DeviceSpec_8cxx.html" target="_top" xlink:title="/home/travis/build\l/AliceO2Group/AliceO2\l/Framework/Core/test/test\l_DeviceSpec.cxx">
<polygon fill="none" stroke="black" points="591,-0.5 591,-52.5 722,-52.5 722,-0.5 591,-0.5"/>
<text text-anchor="start" x="599" y="-40.5" font-family="Helvetica,sans-Serif" font-size="10.00">/home/travis/build</text>
<text text-anchor="start" x="599" y="-29.5" font-family="Helvetica,sans-Serif" font-size="10.00">/AliceO2Group/AliceO2</text>
<text text-anchor="start" x="599" y="-18.5" font-family="Helvetica,sans-Serif" font-size="10.00">/Framework/Core/test/test</text>
<text text-anchor="middle" x="656.5" y="-7.5" font-family="Helvetica,sans-Serif" font-size="10.00">_DeviceSpec.cxx</text>
</a>
</g>
</g>
<!-- Node1&#45;&gt;Node5 -->
<g id="edge4" class="edge"><title>Node1&#45;&gt;Node5</title>
<path fill="none" stroke="midnightblue" d="M702.433,-81.5029C694.285,-71.9226 685.521,-61.6196 677.856,-52.6075"/>
<polygon fill="midnightblue" stroke="midnightblue" points="699.951,-83.9864 709.096,-89.336 705.283,-79.4511 699.951,-83.9864"/>
</g>
<!-- Node6 -->
<g id="node6" class="node"><title>Node6</title>
<g id="a_node6"><a xlink:href="../../d4/de8/test__DeviceSpecHelpers_8cxx.html" target="_top" xlink:title="/home/travis/build\l/AliceO2Group/AliceO2\l/Framework/Core/test/test\l_DeviceSpecHelpers.cxx">
<polygon fill="none" stroke="black" points="740,-0.5 740,-52.5 871,-52.5 871,-0.5 740,-0.5"/>
<text text-anchor="start" x="748" y="-40.5" font-family="Helvetica,sans-Serif" font-size="10.00">/home/travis/build</text>
<text text-anchor="start" x="748" y="-29.5" font-family="Helvetica,sans-Serif" font-size="10.00">/AliceO2Group/AliceO2</text>
<text text-anchor="start" x="748" y="-18.5" font-family="Helvetica,sans-Serif" font-size="10.00">/Framework/Core/test/test</text>
<text text-anchor="middle" x="805.5" y="-7.5" font-family="Helvetica,sans-Serif" font-size="10.00">_DeviceSpecHelpers.cxx</text>
</a>
</g>
</g>
<!-- Node1&#45;&gt;Node6 -->
<g id="edge5" class="edge"><title>Node1&#45;&gt;Node6</title>
<path fill="none" stroke="midnightblue" d="M758.946,-81.5029C767.205,-71.9226 776.087,-61.6196 783.856,-52.6075"/>
<polygon fill="midnightblue" stroke="midnightblue" points="756.072,-79.4766 752.193,-89.336 761.373,-84.0472 756.072,-79.4766"/>
</g>
<!-- Node7 -->
<g id="node7" class="node"><title>Node7</title>
<g id="a_node7"><a xlink:href="../../d6/d53/test__FrameworkDataFlowToDDS_8cxx.html" target="_top" xlink:title="/home/travis/build\l/AliceO2Group/AliceO2\l/Framework/Core/test/test\l_FrameworkDataFlowToDDS.cxx">
<polygon fill="none" stroke="black" points="889.5,-0.5 889.5,-52.5 1053.5,-52.5 1053.5,-0.5 889.5,-0.5"/>
<text text-anchor="start" x="897.5" y="-40.5" font-family="Helvetica,sans-Serif" font-size="10.00">/home/travis/build</text>
<text text-anchor="start" x="897.5" y="-29.5" font-family="Helvetica,sans-Serif" font-size="10.00">/AliceO2Group/AliceO2</text>
<text text-anchor="start" x="897.5" y="-18.5" font-family="Helvetica,sans-Serif" font-size="10.00">/Framework/Core/test/test</text>
<text text-anchor="middle" x="971.5" y="-7.5" font-family="Helvetica,sans-Serif" font-size="10.00">_FrameworkDataFlowToDDS.cxx</text>
</a>
</g>
</g>
<!-- Node1&#45;&gt;Node7 -->
<g id="edge6" class="edge"><title>Node1&#45;&gt;Node7</title>
<path fill="none" stroke="midnightblue" d="M809.454,-85.9981C839.384,-75.1932 873.212,-62.9816 902.189,-52.5211"/>
<polygon fill="midnightblue" stroke="midnightblue" points="808.101,-82.7651 799.884,-89.4527 810.478,-89.3492 808.101,-82.7651"/>
</g>
<!-- Node8 -->
<g id="node8" class="node"><title>Node8</title>
<g id="a_node8"><a xlink:href="../../d4/dc4/test__Graphviz_8cxx.html" target="_top" xlink:title="/home/travis/build\l/AliceO2Group/AliceO2\l/Framework/Core/test/test\l_Graphviz.cxx">
<polygon fill="none" stroke="black" points="1072,-0.5 1072,-52.5 1203,-52.5 1203,-0.5 1072,-0.5"/>
<text text-anchor="start" x="1080" y="-40.5" font-family="Helvetica,sans-Serif" font-size="10.00">/home/travis/build</text>
<text text-anchor="start" x="1080" y="-29.5" font-family="Helvetica,sans-Serif" font-size="10.00">/AliceO2Group/AliceO2</text>
<text text-anchor="start" x="1080" y="-18.5" font-family="Helvetica,sans-Serif" font-size="10.00">/Framework/Core/test/test</text>
<text text-anchor="middle" x="1137.5" y="-7.5" font-family="Helvetica,sans-Serif" font-size="10.00">_Graphviz.cxx</text>
</a>
</g>
</g>
<!-- Node1&#45;&gt;Node8 -->
<g id="edge7" class="edge"><title>Node1&#45;&gt;Node8</title>
<path fill="none" stroke="midnightblue" d="M820.168,-101.492C887.42,-90.8686 981.443,-74.1685 1062.5,-53 1065.56,-52.2007 1068.68,-51.3392 1071.81,-50.4332"/>
<polygon fill="midnightblue" stroke="midnightblue" points="819.366,-98.075 810.028,-103.08 820.449,-104.991 819.366,-98.075"/>
</g>
<!-- Node9 -->
<g id="node9" class="node"><title>Node9</title>
<g id="a_node9"><a xlink:href="../../dd/d8a/test__TimeParallelPipelining_8cxx.html" target="_top" xlink:title="/home/travis/build\l/AliceO2Group/AliceO2\l/Framework/Core/test/test\l_TimeParallelPipelining.cxx">
<polygon fill="none" stroke="black" points="1221,-0.5 1221,-52.5 1358,-52.5 1358,-0.5 1221,-0.5"/>
<text text-anchor="start" x="1229" y="-40.5" font-family="Helvetica,sans-Serif" font-size="10.00">/home/travis/build</text>
<text text-anchor="start" x="1229" y="-29.5" font-family="Helvetica,sans-Serif" font-size="10.00">/AliceO2Group/AliceO2</text>
<text text-anchor="start" x="1229" y="-18.5" font-family="Helvetica,sans-Serif" font-size="10.00">/Framework/Core/test/test</text>
<text text-anchor="middle" x="1289.5" y="-7.5" font-family="Helvetica,sans-Serif" font-size="10.00">_TimeParallelPipelining.cxx</text>
</a>
</g>
</g>
<!-- Node1&#45;&gt;Node9 -->
<g id="edge8" class="edge"><title>Node1&#45;&gt;Node9</title>
<path fill="none" stroke="midnightblue" d="M820.33,-108.246C917.82,-100.255 1077.63,-83.6348 1212.5,-53 1215.25,-52.3762 1218.03,-51.6942 1220.84,-50.9669"/>
<polygon fill="midnightblue" stroke="midnightblue" points="819.903,-104.769 810.217,-109.063 820.467,-111.747 819.903,-104.769"/>
</g>
</g>
</svg>
