<?xml version="1.0" encoding="UTF-8" standalone="no"?>
<!DOCTYPE svg PUBLIC "-//W3C//DTD SVG 1.1//EN"
 "http://www.w3.org/Graphics/SVG/1.1/DTD/svg11.dtd">
<!-- Generated by graphviz version 2.38.0 (20140413.2041)
 -->
<!-- Title: /home/travis/build/AliceO2Group/AliceO2/EventVisualisation/Detectors/include/EventVisualisationDetectors/DataReaderVSD.h Pages: 1 -->
<svg width="462pt" height="161pt"
 viewBox="0.00 0.00 462.00 161.00" xmlns="http://www.w3.org/2000/svg" xmlns:xlink="http://www.w3.org/1999/xlink">
<g id="graph0" class="graph" transform="scale(1 1) rotate(0) translate(4 157)">
<title>/home/travis/build/AliceO2Group/AliceO2/EventVisualisation/Detectors/include/EventVisualisationDetectors/DataReaderVSD.h</title>
<!-- Node1 -->
<g id="node1" class="node"><title>Node1</title>
<polygon fill="#bfbfbf" stroke="black" points="138.5,-89.5 138.5,-152.5 315.5,-152.5 315.5,-89.5 138.5,-89.5"/>
<text text-anchor="start" x="146.5" y="-140.5" font-family="Helvetica,sans-Serif" font-size="10.00">/home/travis/build</text>
<text text-anchor="start" x="146.5" y="-129.5" font-family="Helvetica,sans-Serif" font-size="10.00">/AliceO2Group/AliceO2</text>
<text text-anchor="start" x="146.5" y="-118.5" font-family="Helvetica,sans-Serif" font-size="10.00">/EventVisualisation/Detectors</text>
<text text-anchor="start" x="146.5" y="-107.5" font-family="Helvetica,sans-Serif" font-size="10.00">/include/EventVisualisationDetectors</text>
<text text-anchor="middle" x="227" y="-96.5" font-family="Helvetica,sans-Serif" font-size="10.00">/DataReaderVSD.h</text>
</g>
<!-- Node2 -->
<g id="node2" class="node"><title>Node2</title>
<g id="a_node2"><a xlink:href="../../dd/d02/DataReaderVSD_8cxx.html" target="_top" xlink:title="VSD specific reading from file(s) (Visualisation Summary Data) ">
<polygon fill="none" stroke="black" points="0,-0.5 0,-52.5 146,-52.5 146,-0.5 0,-0.5"/>
<text text-anchor="start" x="8" y="-40.5" font-family="Helvetica,sans-Serif" font-size="10.00">/home/travis/build</text>
<text text-anchor="start" x="8" y="-29.5" font-family="Helvetica,sans-Serif" font-size="10.00">/AliceO2Group/AliceO2</text>
<text text-anchor="start" x="8" y="-18.5" font-family="Helvetica,sans-Serif" font-size="10.00">/EventVisualisation/Detectors</text>
<text text-anchor="middle" x="73" y="-7.5" font-family="Helvetica,sans-Serif" font-size="10.00">/src/DataReaderVSD.cxx</text>
</a>
</g>
</g>
<!-- Node1&#45;&gt;Node2 -->
<g id="edge1" class="edge"><title>Node1&#45;&gt;Node2</title>
<path fill="none" stroke="midnightblue" d="M167.137,-84.0436C149.652,-73.5407 130.924,-62.2917 114.813,-52.6152"/>
<polygon fill="midnightblue" stroke="midnightblue" points="165.773,-87.307 176.148,-89.4557 169.378,-81.3062 165.773,-87.307"/>
</g>
<!-- Node3 -->
<g id="node3" class="node"><title>Node3</title>
<g id="a_node3"><a xlink:href="../../dd/d21/EventManager_8cxx.html" target="_top" xlink:title="/home/travis/build\l/AliceO2Group/AliceO2\l/EventVisualisation/View\l/src/EventManager.cxx">
<polygon fill="none" stroke="black" points="164.5,-0.5 164.5,-52.5 289.5,-52.5 289.5,-0.5 164.5,-0.5"/>
<text text-anchor="start" x="172.5" y="-40.5" font-family="Helvetica,sans-Serif" font-size="10.00">/home/travis/build</text>
<text text-anchor="start" x="172.5" y="-29.5" font-family="Helvetica,sans-Serif" font-size="10.00">/AliceO2Group/AliceO2</text>
<text text-anchor="start" x="172.5" y="-18.5" font-family="Helvetica,sans-Serif" font-size="10.00">/EventVisualisation/View</text>
<text text-anchor="middle" x="227" y="-7.5" font-family="Helvetica,sans-Serif" font-size="10.00">/src/EventManager.cxx</text>
</a>
</g>
</g>
<!-- Node1&#45;&gt;Node3 -->
<g id="edge2" class="edge"><title>Node1&#45;&gt;Node3</title>
<path fill="none" stroke="midnightblue" d="M227,-79.4229C227,-70.3585 227,-60.999 227,-52.7655"/>
<polygon fill="midnightblue" stroke="midnightblue" points="223.5,-79.4556 227,-89.4557 230.5,-79.4557 223.5,-79.4556"/>
</g>
<!-- Node4 -->
<g id="node4" class="node"><title>Node4</title>
<g id="a_node4"><a xlink:href="../../d0/dc0/EventManagerFrame_8cxx.html" target="_top" xlink:title="GUI (bottom buttons) for visualisation. ">
<polygon fill="none" stroke="black" points="308,-0.5 308,-52.5 454,-52.5 454,-0.5 308,-0.5"/>
<text text-anchor="start" x="316" y="-40.5" font-family="Helvetica,sans-Serif" font-size="10.00">/home/travis/build</text>
<text text-anchor="start" x="316" y="-29.5" font-family="Helvetica,sans-Serif" font-size="10.00">/AliceO2Group/AliceO2</text>
<text text-anchor="start" x="316" y="-18.5" font-family="Helvetica,sans-Serif" font-size="10.00">/EventVisualisation/View</text>
<text text-anchor="middle" x="381" y="-7.5" font-family="Helvetica,sans-Serif" font-size="10.00">/src/EventManagerFrame.cxx</text>
</a>
</g>
</g>
<!-- Node1&#45;&gt;Node4 -->
<g id="edge3" class="edge"><title>Node1&#45;&gt;Node4</title>
<path fill="none" stroke="midnightblue" d="M286.863,-84.0436C304.348,-73.5407 323.076,-62.2917 339.187,-52.6152"/>
<polygon fill="midnightblue" stroke="midnightblue" points="284.622,-81.3062 277.852,-89.4557 288.227,-87.307 284.622,-81.3062"/>
</g>
</g>
</svg>
