<?xml version="1.0" encoding="UTF-8" standalone="no"?>
<!DOCTYPE svg PUBLIC "-//W3C//DTD SVG 1.1//EN"
 "http://www.w3.org/Graphics/SVG/1.1/DTD/svg11.dtd">
<!-- Generated by graphviz version 2.38.0 (20140413.2041)
 -->
<!-- Title: /home/travis/build/AliceO2Group/AliceO2/Detectors/ZDC/base/src/Geometry.cxx Pages: 1 -->
<svg width="214pt" height="173pt"
 viewBox="0.00 0.00 214.00 173.00" xmlns="http://www.w3.org/2000/svg" xmlns:xlink="http://www.w3.org/1999/xlink">
<g id="graph0" class="graph" transform="scale(1 1) rotate(0) translate(4 169)">
<title>/home/travis/build/AliceO2Group/AliceO2/Detectors/ZDC/base/src/Geometry.cxx</title>
<!-- Node1 -->
<g id="node1" class="node"><title>Node1</title>
<polygon fill="#bfbfbf" stroke="black" points="51,-112.5 51,-164.5 178,-164.5 178,-112.5 51,-112.5"/>
<text text-anchor="start" x="59" y="-152.5" font-family="Helvetica,sans-Serif" font-size="10.00">/home/travis/build</text>
<text text-anchor="start" x="59" y="-141.5" font-family="Helvetica,sans-Serif" font-size="10.00">/AliceO2Group/AliceO2</text>
<text text-anchor="start" x="59" y="-130.5" font-family="Helvetica,sans-Serif" font-size="10.00">/Detectors/ZDC/base/src</text>
<text text-anchor="middle" x="114.5" y="-119.5" font-family="Helvetica,sans-Serif" font-size="10.00">/Geometry.cxx</text>
</g>
<!-- Node2 -->
<g id="node2" class="node"><title>Node2</title>
<g id="a_node2"><a xlink:href="../../db/d64/ZDC_2base_2include_2ZDCBase_2Geometry_8h.html" target="_top" xlink:title="ZDCBase/Geometry.h">
<polygon fill="none" stroke="black" points="2.5,-56.5 2.5,-75.5 116.5,-75.5 116.5,-56.5 2.5,-56.5"/>
<text text-anchor="middle" x="59.5" y="-63.5" font-family="Helvetica,sans-Serif" font-size="10.00">ZDCBase/Geometry.h</text>
</a>
</g>
</g>
<!-- Node1&#45;&gt;Node2 -->
<g id="edge1" class="edge"><title>Node1&#45;&gt;Node2</title>
<path fill="none" stroke="midnightblue" d="M94.9542,-112.446C87.5294,-102.929 79.2583,-92.3266 72.5736,-83.758"/>
<polygon fill="midnightblue" stroke="midnightblue" points="75.1943,-81.4271 66.2837,-75.6955 69.6752,-85.7329 75.1943,-81.4271"/>
</g>
<!-- Node5 -->
<g id="node5" class="node"><title>Node5</title>
<polygon fill="none" stroke="#bfbfbf" points="135,-56.5 135,-75.5 206,-75.5 206,-56.5 135,-56.5"/>
<text text-anchor="middle" x="170.5" y="-63.5" font-family="Helvetica,sans-Serif" font-size="10.00">FairLogger.h</text>
</g>
<!-- Node1&#45;&gt;Node5 -->
<g id="edge4" class="edge"><title>Node1&#45;&gt;Node5</title>
<path fill="none" stroke="midnightblue" d="M134.401,-112.446C141.961,-102.929 150.382,-92.3266 157.189,-83.758"/>
<polygon fill="midnightblue" stroke="midnightblue" points="160.114,-85.7028 163.593,-75.6955 154.632,-81.3489 160.114,-85.7028"/>
</g>
<!-- Node3 -->
<g id="node3" class="node"><title>Node3</title>
<polygon fill="none" stroke="#bfbfbf" points="0,-0.5 0,-19.5 53,-19.5 53,-0.5 0,-0.5"/>
<text text-anchor="middle" x="26.5" y="-7.5" font-family="Helvetica,sans-Serif" font-size="10.00">TMath.h</text>
</g>
<!-- Node2&#45;&gt;Node3 -->
<g id="edge2" class="edge"><title>Node2&#45;&gt;Node3</title>
<path fill="none" stroke="midnightblue" d="M54.0507,-56.083C49.4855,-48.6127 42.8316,-37.7244 37.2066,-28.5199"/>
<polygon fill="midnightblue" stroke="midnightblue" points="40.0489,-26.4588 31.8479,-19.7511 34.0759,-30.109 40.0489,-26.4588"/>
</g>
<!-- Node4 -->
<g id="node4" class="node"><title>Node4</title>
<polygon fill="none" stroke="#bfbfbf" points="71.5,-0.5 71.5,-19.5 115.5,-19.5 115.5,-0.5 71.5,-0.5"/>
<text text-anchor="middle" x="93.5" y="-7.5" font-family="Helvetica,sans-Serif" font-size="10.00">cmath</text>
</g>
<!-- Node2&#45;&gt;Node4 -->
<g id="edge3" class="edge"><title>Node2&#45;&gt;Node4</title>
<path fill="none" stroke="midnightblue" d="M65.1144,-56.083C69.8674,-48.5341 76.8181,-37.4948 82.6516,-28.2298"/>
<polygon fill="midnightblue" stroke="midnightblue" points="85.6237,-30.0783 87.9901,-19.7511 79.7001,-26.3486 85.6237,-30.0783"/>
</g>
</g>
</svg>
