<?xml version="1.0" encoding="UTF-8" standalone="no"?>
<!DOCTYPE svg PUBLIC "-//W3C//DTD SVG 1.1//EN"
 "http://www.w3.org/Graphics/SVG/1.1/DTD/svg11.dtd">
<!-- Generated by graphviz version 2.38.0 (20140413.2041)
 -->
<!-- Title: /home/travis/build/AliceO2Group/AliceO2/Detectors/MUON/MCH/Mapping/Impl3/src/CathodeSegmentationCreator.h Pages: 1 -->
<!--zoomable 161 -->
<svg id="main" version="1.1" xmlns="http://www.w3.org/2000/svg" xmlns:xlink="http://www.w3.org/1999/xlink" xml:space="preserve" onload="init(evt)">
<style type="text/css"><![CDATA[
.edge:hover path { stroke: red; }
.edge:hover polygon { stroke: red; fill: red; }
]]></style>
<script type="text/javascript"><![CDATA[
var edges = document.getElementsByTagName('g');
if (edges && edges.length) {
  for (var i=0;i<edges.length;i++) {
    if (edges[i].id.substr(0,4)=='edge') {
      edges[i].setAttribute('class','edge');
    }
  }
}
]]></script>
        <defs>
                <circle id="rim" cx="0" cy="0" r="7"/>
                <circle id="rim2" cx="0" cy="0" r="3.5"/>
                <g id="zoomPlus">
                        <use xlink:href="#rim" fill="#404040">
                                <set attributeName="fill" to="#808080" begin="zoomplus.mouseover" end="zoomplus.mouseout"/>
                        </use>
                        <path d="M-4,0h8M0,-4v8" fill="none" stroke="white" stroke-width="1.5" pointer-events="none"/>
                </g>
                <g id="zoomMin">
                        <use xlink:href="#rim" fill="#404040">
                                <set attributeName="fill" to="#808080" begin="zoomminus.mouseover" end="zoomminus.mouseout"/>
                        </use>
                        <path d="M-4,0h8" fill="none" stroke="white" stroke-width="1.5" pointer-events="none"/>
                </g>
                <g id="dirArrow">
                        <path fill="none" stroke="white" stroke-width="1.5" d="M0,-3.0v7 M-2.5,-0.5L0,-3.0L2.5,-0.5"/>
                </g>
               <g id="resetDef">
                       <use xlink:href="#rim2" fill="#404040">
                               <set attributeName="fill" to="#808080" begin="reset.mouseover" end="reset.mouseout"/>
                       </use>
               </g>
        </defs>

<script type="text/javascript">
var viewWidth = 5229;
var viewHeight = 161;
var sectionId = 'dynsection-1';
</script>
<script xlink:href="../../svgpan.js"/>
<svg id="graph" class="graph">
<g id="viewport">
<title>/home/travis/build/AliceO2Group/AliceO2/Detectors/MUON/MCH/Mapping/Impl3/src/CathodeSegmentationCreator.h</title>
<!-- Node1 -->
<g id="node1" class="node"><title>Node1</title>
<polygon fill="#bfbfbf" stroke="black" points="2507.5,-100.5 2507.5,-152.5 2707.5,-152.5 2707.5,-100.5 2507.5,-100.5"/>
<text text-anchor="start" x="2515.5" y="-140.5" font-family="Helvetica,sans-Serif" font-size="10.00">/home/travis/build</text>
<text text-anchor="start" x="2515.5" y="-129.5" font-family="Helvetica,sans-Serif" font-size="10.00">/AliceO2Group/AliceO2</text>
<text text-anchor="start" x="2515.5" y="-118.5" font-family="Helvetica,sans-Serif" font-size="10.00">/Detectors/MUON/MCH/Mapping</text>
<text text-anchor="middle" x="2607.5" y="-107.5" font-family="Helvetica,sans-Serif" font-size="10.00">/Impl3/src/CathodeSegmentationCreator.h</text>
</g>
<!-- Node2 -->
<g id="node2" class="node"><title>Node2</title>
<g id="a_node2"><a xlink:href="../../d2/d3d/CathodeSegmentationCreator_8cxx.html" target="_top" xlink:title="/home/travis/build\l/AliceO2Group/AliceO2\l/Detectors/MUON/MCH/Mapping\l/Impl3/src/CathodeSegmentationCreator.cxx">
<polygon fill="none" stroke="black" points="0,-6 0,-58 211,-58 211,-6 0,-6"/>
<text text-anchor="start" x="8" y="-46" font-family="Helvetica,sans-Serif" font-size="10.00">/home/travis/build</text>
<text text-anchor="start" x="8" y="-35" font-family="Helvetica,sans-Serif" font-size="10.00">/AliceO2Group/AliceO2</text>
<text text-anchor="start" x="8" y="-24" font-family="Helvetica,sans-Serif" font-size="10.00">/Detectors/MUON/MCH/Mapping</text>
<text text-anchor="middle" x="105.5" y="-13" font-family="Helvetica,sans-Serif" font-size="10.00">/Impl3/src/CathodeSegmentationCreator.cxx</text>
</a>
</g>
</g>
<!-- Node1&#45;&gt;Node2 -->
<g id="edge1" class="edge"><title>Node1&#45;&gt;Node2</title>
<path fill="none" stroke="midnightblue" d="M2497.09,-124.213C2057.68,-118.878 445.963,-97.2147 219.5,-64 209.353,-62.5118 198.822,-60.4224 188.442,-58.0234"/>
<polygon fill="midnightblue" stroke="midnightblue" points="2497.21,-127.715 2507.25,-124.336 2497.29,-120.715 2497.21,-127.715"/>
</g>
<!-- Node3 -->
<g id="node3" class="node"><title>Node3</title>
<g id="a_node3"><a xlink:href="../../d7/d47/CathodeSegmentationImpl3_8cxx.html" target="_top" xlink:title="/home/travis/build\l/AliceO2Group/AliceO2\l/Detectors/MUON/MCH/Mapping\l/Impl3/src/CathodeSegmentationImpl3.cxx">
<polygon fill="none" stroke="black" points="229,-6 229,-58 432,-58 432,-6 229,-6"/>
<text text-anchor="start" x="237" y="-46" font-family="Helvetica,sans-Serif" font-size="10.00">/home/travis/build</text>
<text text-anchor="start" x="237" y="-35" font-family="Helvetica,sans-Serif" font-size="10.00">/AliceO2Group/AliceO2</text>
<text text-anchor="start" x="237" y="-24" font-family="Helvetica,sans-Serif" font-size="10.00">/Detectors/MUON/MCH/Mapping</text>
<text text-anchor="middle" x="330.5" y="-13" font-family="Helvetica,sans-Serif" font-size="10.00">/Impl3/src/CathodeSegmentationImpl3.cxx</text>
</a>
</g>
</g>
<!-- Node1&#45;&gt;Node3 -->
<g id="edge2" class="edge"><title>Node1&#45;&gt;Node3</title>
<path fill="none" stroke="midnightblue" d="M2496.95,-125.917C2113.76,-126.809 843.953,-124.974 441.5,-64 431.609,-62.5014 421.347,-60.4057 411.237,-58.0032"/>
<polygon fill="midnightblue" stroke="midnightblue" points="2497.22,-129.417 2507.21,-125.892 2497.2,-122.417 2497.22,-129.417"/>
</g>
<!-- Node4 -->
<g id="node4" class="node"><title>Node4</title>
<g id="a_node4"><a xlink:href="../../d1/d7d/GenCathodeSegmentationCreatorForSegType0_8cxx.html" target="_top" xlink:title="/home/travis/build\l/AliceO2Group/AliceO2\l/Detectors/MUON/MCH/Mapping\l/Impl3/src/GenCathodeSegmentationCreator\lForSegType0.cxx">
<polygon fill="none" stroke="black" points="450.5,-0.5 450.5,-63.5 660.5,-63.5 660.5,-0.5 450.5,-0.5"/>
<text text-anchor="start" x="458.5" y="-51.5" font-family="Helvetica,sans-Serif" font-size="10.00">/home/travis/build</text>
<text text-anchor="start" x="458.5" y="-40.5" font-family="Helvetica,sans-Serif" font-size="10.00">/AliceO2Group/AliceO2</text>
<text text-anchor="start" x="458.5" y="-29.5" font-family="Helvetica,sans-Serif" font-size="10.00">/Detectors/MUON/MCH/Mapping</text>
<text text-anchor="start" x="458.5" y="-18.5" font-family="Helvetica,sans-Serif" font-size="10.00">/Impl3/src/GenCathodeSegmentationCreator</text>
<text text-anchor="middle" x="555.5" y="-7.5" font-family="Helvetica,sans-Serif" font-size="10.00">ForSegType0.cxx</text>
</a>
</g>
</g>
<!-- Node1&#45;&gt;Node4 -->
<g id="edge3" class="edge"><title>Node1&#45;&gt;Node4</title>
<path fill="none" stroke="midnightblue" d="M2497.22,-125.385C2141.34,-124.48 1025.83,-117.35 669.5,-64 666.559,-63.5596 663.585,-63.0697 660.592,-62.5372"/>
<polygon fill="midnightblue" stroke="midnightblue" points="2497.27,-128.885 2507.28,-125.409 2497.28,-121.885 2497.27,-128.885"/>
</g>
<!-- Node5 -->
<g id="node5" class="node"><title>Node5</title>
<g id="a_node5"><a xlink:href="../../d8/def/GenCathodeSegmentationCreatorForSegType1_8cxx.html" target="_top" xlink:title="/home/travis/build\l/AliceO2Group/AliceO2\l/Detectors/MUON/MCH/Mapping\l/Impl3/src/GenCathodeSegmentationCreator\lForSegType1.cxx">
<polygon fill="none" stroke="black" points="678.5,-0.5 678.5,-63.5 888.5,-63.5 888.5,-0.5 678.5,-0.5"/>
<text text-anchor="start" x="686.5" y="-51.5" font-family="Helvetica,sans-Serif" font-size="10.00">/home/travis/build</text>
<text text-anchor="start" x="686.5" y="-40.5" font-family="Helvetica,sans-Serif" font-size="10.00">/AliceO2Group/AliceO2</text>
<text text-anchor="start" x="686.5" y="-29.5" font-family="Helvetica,sans-Serif" font-size="10.00">/Detectors/MUON/MCH/Mapping</text>
<text text-anchor="start" x="686.5" y="-18.5" font-family="Helvetica,sans-Serif" font-size="10.00">/Impl3/src/GenCathodeSegmentationCreator</text>
<text text-anchor="middle" x="783.5" y="-7.5" font-family="Helvetica,sans-Serif" font-size="10.00">ForSegType1.cxx</text>
</a>
</g>
</g>
<!-- Node1&#45;&gt;Node5 -->
<g id="edge4" class="edge"><title>Node1&#45;&gt;Node5</title>
<path fill="none" stroke="midnightblue" d="M2496.96,-124.835C2169.42,-122.339 1207.56,-111.093 897.5,-64 894.56,-63.5534 891.587,-63.058 888.594,-62.5207"/>
<polygon fill="midnightblue" stroke="midnightblue" points="2497.38,-128.338 2507.4,-124.913 2497.43,-121.338 2497.38,-128.338"/>
</g>
<!-- Node6 -->
<g id="node6" class="node"><title>Node6</title>
<g id="a_node6"><a xlink:href="../../d2/d13/GenCathodeSegmentationCreatorForSegType10_8cxx.html" target="_top" xlink:title="/home/travis/build\l/AliceO2Group/AliceO2\l/Detectors/MUON/MCH/Mapping\l/Impl3/src/GenCathodeSegmentationCreator\lForSegType10.cxx">
<polygon fill="none" stroke="black" points="906.5,-0.5 906.5,-63.5 1116.5,-63.5 1116.5,-0.5 906.5,-0.5"/>
<text text-anchor="start" x="914.5" y="-51.5" font-family="Helvetica,sans-Serif" font-size="10.00">/home/travis/build</text>
<text text-anchor="start" x="914.5" y="-40.5" font-family="Helvetica,sans-Serif" font-size="10.00">/AliceO2Group/AliceO2</text>
<text text-anchor="start" x="914.5" y="-29.5" font-family="Helvetica,sans-Serif" font-size="10.00">/Detectors/MUON/MCH/Mapping</text>
<text text-anchor="start" x="914.5" y="-18.5" font-family="Helvetica,sans-Serif" font-size="10.00">/Impl3/src/GenCathodeSegmentationCreator</text>
<text text-anchor="middle" x="1011.5" y="-7.5" font-family="Helvetica,sans-Serif" font-size="10.00">ForSegType10.cxx</text>
</a>
</g>
</g>
<!-- Node1&#45;&gt;Node6 -->
<g id="edge5" class="edge"><title>Node1&#45;&gt;Node6</title>
<path fill="none" stroke="midnightblue" d="M2496.94,-124.119C2199.98,-119.897 1389.66,-104.867 1125.5,-64 1122.56,-63.5453 1119.59,-63.0427 1116.6,-62.499"/>
<polygon fill="midnightblue" stroke="midnightblue" points="2497.24,-127.623 2507.29,-124.264 2497.34,-120.624 2497.24,-127.623"/>
</g>
<!-- Node7 -->
<g id="node7" class="node"><title>Node7</title>
<g id="a_node7"><a xlink:href="../../d1/dcc/GenCathodeSegmentationCreatorForSegType11_8cxx.html" target="_top" xlink:title="/home/travis/build\l/AliceO2Group/AliceO2\l/Detectors/MUON/MCH/Mapping\l/Impl3/src/GenCathodeSegmentationCreator\lForSegType11.cxx">
<polygon fill="none" stroke="black" points="1134.5,-0.5 1134.5,-63.5 1344.5,-63.5 1344.5,-0.5 1134.5,-0.5"/>
<text text-anchor="start" x="1142.5" y="-51.5" font-family="Helvetica,sans-Serif" font-size="10.00">/home/travis/build</text>
<text text-anchor="start" x="1142.5" y="-40.5" font-family="Helvetica,sans-Serif" font-size="10.00">/AliceO2Group/AliceO2</text>
<text text-anchor="start" x="1142.5" y="-29.5" font-family="Helvetica,sans-Serif" font-size="10.00">/Detectors/MUON/MCH/Mapping</text>
<text text-anchor="start" x="1142.5" y="-18.5" font-family="Helvetica,sans-Serif" font-size="10.00">/Impl3/src/GenCathodeSegmentationCreator</text>
<text text-anchor="middle" x="1239.5" y="-7.5" font-family="Helvetica,sans-Serif" font-size="10.00">ForSegType11.cxx</text>
</a>
</g>
</g>
<!-- Node1&#45;&gt;Node7 -->
<g id="edge6" class="edge"><title>Node1&#45;&gt;Node7</title>
<path fill="none" stroke="midnightblue" d="M2496.75,-123.142C2232.73,-117.024 1572.05,-98.6546 1353.5,-64 1350.56,-63.5342 1347.59,-63.0218 1344.6,-62.4694"/>
<polygon fill="midnightblue" stroke="midnightblue" points="2497.04,-126.65 2507.12,-123.381 2497.2,-119.651 2497.04,-126.65"/>
</g>
<!-- Node8 -->
<g id="node8" class="node"><title>Node8</title>
<g id="a_node8"><a xlink:href="../../d9/de8/GenCathodeSegmentationCreatorForSegType12_8cxx.html" target="_top" xlink:title="/home/travis/build\l/AliceO2Group/AliceO2\l/Detectors/MUON/MCH/Mapping\l/Impl3/src/GenCathodeSegmentationCreator\lForSegType12.cxx">
<polygon fill="none" stroke="black" points="1362.5,-0.5 1362.5,-63.5 1572.5,-63.5 1572.5,-0.5 1362.5,-0.5"/>
<text text-anchor="start" x="1370.5" y="-51.5" font-family="Helvetica,sans-Serif" font-size="10.00">/home/travis/build</text>
<text text-anchor="start" x="1370.5" y="-40.5" font-family="Helvetica,sans-Serif" font-size="10.00">/AliceO2Group/AliceO2</text>
<text text-anchor="start" x="1370.5" y="-29.5" font-family="Helvetica,sans-Serif" font-size="10.00">/Detectors/MUON/MCH/Mapping</text>
<text text-anchor="start" x="1370.5" y="-18.5" font-family="Helvetica,sans-Serif" font-size="10.00">/Impl3/src/GenCathodeSegmentationCreator</text>
<text text-anchor="middle" x="1467.5" y="-7.5" font-family="Helvetica,sans-Serif" font-size="10.00">ForSegType12.cxx</text>
</a>
</g>
</g>
<!-- Node1&#45;&gt;Node8 -->
<g id="edge7" class="edge"><title>Node1&#45;&gt;Node8</title>
<path fill="none" stroke="midnightblue" d="M2497.13,-126.287C2308.27,-125.987 1911.54,-118.172 1581.5,-64 1578.57,-63.5183 1575.6,-62.9917 1572.61,-62.4269"/>
<polygon fill="midnightblue" stroke="midnightblue" points="2497.34,-129.787 2507.34,-126.296 2497.34,-122.787 2497.34,-129.787"/>
</g>
<!-- Node9 -->
<g id="node9" class="node"><title>Node9</title>
<g id="a_node9"><a xlink:href="../../d1/d7b/GenCathodeSegmentationCreatorForSegType13_8cxx.html" target="_top" xlink:title="/home/travis/build\l/AliceO2Group/AliceO2\l/Detectors/MUON/MCH/Mapping\l/Impl3/src/GenCathodeSegmentationCreator\lForSegType13.cxx">
<polygon fill="none" stroke="black" points="1590.5,-0.5 1590.5,-63.5 1800.5,-63.5 1800.5,-0.5 1590.5,-0.5"/>
<text text-anchor="start" x="1598.5" y="-51.5" font-family="Helvetica,sans-Serif" font-size="10.00">/home/travis/build</text>
<text text-anchor="start" x="1598.5" y="-40.5" font-family="Helvetica,sans-Serif" font-size="10.00">/AliceO2Group/AliceO2</text>
<text text-anchor="start" x="1598.5" y="-29.5" font-family="Helvetica,sans-Serif" font-size="10.00">/Detectors/MUON/MCH/Mapping</text>
<text text-anchor="start" x="1598.5" y="-18.5" font-family="Helvetica,sans-Serif" font-size="10.00">/Impl3/src/GenCathodeSegmentationCreator</text>
<text text-anchor="middle" x="1695.5" y="-7.5" font-family="Helvetica,sans-Serif" font-size="10.00">ForSegType13.cxx</text>
</a>
</g>
</g>
<!-- Node1&#45;&gt;Node9 -->
<g id="edge8" class="edge"><title>Node1&#45;&gt;Node9</title>
<path fill="none" stroke="midnightblue" d="M2496.77,-123.547C2341.93,-119.326 2052.43,-106.004 1809.5,-64 1806.57,-63.4933 1803.61,-62.9445 1800.62,-62.3601"/>
<polygon fill="midnightblue" stroke="midnightblue" points="2497.14,-127.057 2507.23,-123.823 2497.32,-120.06 2497.14,-127.057"/>
</g>
<!-- Node10 -->
<g id="node10" class="node"><title>Node10</title>
<g id="a_node10"><a xlink:href="../../da/d91/GenCathodeSegmentationCreatorForSegType14_8cxx.html" target="_top" xlink:title="/home/travis/build\l/AliceO2Group/AliceO2\l/Detectors/MUON/MCH/Mapping\l/Impl3/src/GenCathodeSegmentationCreator\lForSegType14.cxx">
<polygon fill="none" stroke="black" points="1818.5,-0.5 1818.5,-63.5 2028.5,-63.5 2028.5,-0.5 1818.5,-0.5"/>
<text text-anchor="start" x="1826.5" y="-51.5" font-family="Helvetica,sans-Serif" font-size="10.00">/home/travis/build</text>
<text text-anchor="start" x="1826.5" y="-40.5" font-family="Helvetica,sans-Serif" font-size="10.00">/AliceO2Group/AliceO2</text>
<text text-anchor="start" x="1826.5" y="-29.5" font-family="Helvetica,sans-Serif" font-size="10.00">/Detectors/MUON/MCH/Mapping</text>
<text text-anchor="start" x="1826.5" y="-18.5" font-family="Helvetica,sans-Serif" font-size="10.00">/Impl3/src/GenCathodeSegmentationCreator</text>
<text text-anchor="middle" x="1923.5" y="-7.5" font-family="Helvetica,sans-Serif" font-size="10.00">ForSegType14.cxx</text>
</a>
</g>
</g>
<!-- Node1&#45;&gt;Node10 -->
<g id="edge9" class="edge"><title>Node1&#45;&gt;Node10</title>
<path fill="none" stroke="midnightblue" d="M2497.18,-118.786C2381.81,-110.555 2195.81,-93.8719 2037.5,-64 2034.58,-63.4486 2031.62,-62.8602 2028.64,-62.2407"/>
<polygon fill="midnightblue" stroke="midnightblue" points="2497.21,-122.297 2507.43,-119.508 2497.71,-115.314 2497.21,-122.297"/>
</g>
<!-- Node11 -->
<g id="node11" class="node"><title>Node11</title>
<g id="a_node11"><a xlink:href="../../db/d75/GenCathodeSegmentationCreatorForSegType15_8cxx.html" target="_top" xlink:title="/home/travis/build\l/AliceO2Group/AliceO2\l/Detectors/MUON/MCH/Mapping\l/Impl3/src/GenCathodeSegmentationCreator\lForSegType15.cxx">
<polygon fill="none" stroke="black" points="2046.5,-0.5 2046.5,-63.5 2256.5,-63.5 2256.5,-0.5 2046.5,-0.5"/>
<text text-anchor="start" x="2054.5" y="-51.5" font-family="Helvetica,sans-Serif" font-size="10.00">/home/travis/build</text>
<text text-anchor="start" x="2054.5" y="-40.5" font-family="Helvetica,sans-Serif" font-size="10.00">/AliceO2Group/AliceO2</text>
<text text-anchor="start" x="2054.5" y="-29.5" font-family="Helvetica,sans-Serif" font-size="10.00">/Detectors/MUON/MCH/Mapping</text>
<text text-anchor="start" x="2054.5" y="-18.5" font-family="Helvetica,sans-Serif" font-size="10.00">/Impl3/src/GenCathodeSegmentationCreator</text>
<text text-anchor="middle" x="2151.5" y="-7.5" font-family="Helvetica,sans-Serif" font-size="10.00">ForSegType15.cxx</text>
</a>
</g>
</g>
<!-- Node1&#45;&gt;Node11 -->
<g id="edge10" class="edge"><title>Node1&#45;&gt;Node11</title>
<path fill="none" stroke="midnightblue" d="M2496.96,-108.145C2429.74,-96.9674 2342.33,-81.3189 2265.5,-64 2262.6,-63.346 2259.66,-62.6666 2256.7,-61.9669"/>
<polygon fill="midnightblue" stroke="midnightblue" points="2496.71,-111.652 2507.14,-109.831 2497.85,-104.745 2496.71,-111.652"/>
</g>
<!-- Node12 -->
<g id="node12" class="node"><title>Node12</title>
<g id="a_node12"><a xlink:href="../../dd/dae/GenCathodeSegmentationCreatorForSegType16_8cxx.html" target="_top" xlink:title="/home/travis/build\l/AliceO2Group/AliceO2\l/Detectors/MUON/MCH/Mapping\l/Impl3/src/GenCathodeSegmentationCreator\lForSegType16.cxx">
<polygon fill="none" stroke="black" points="2274.5,-0.5 2274.5,-63.5 2484.5,-63.5 2484.5,-0.5 2274.5,-0.5"/>
<text text-anchor="start" x="2282.5" y="-51.5" font-family="Helvetica,sans-Serif" font-size="10.00">/home/travis/build</text>
<text text-anchor="start" x="2282.5" y="-40.5" font-family="Helvetica,sans-Serif" font-size="10.00">/AliceO2Group/AliceO2</text>
<text text-anchor="start" x="2282.5" y="-29.5" font-family="Helvetica,sans-Serif" font-size="10.00">/Detectors/MUON/MCH/Mapping</text>
<text text-anchor="start" x="2282.5" y="-18.5" font-family="Helvetica,sans-Serif" font-size="10.00">/Impl3/src/GenCathodeSegmentationCreator</text>
<text text-anchor="middle" x="2379.5" y="-7.5" font-family="Helvetica,sans-Serif" font-size="10.00">ForSegType16.cxx</text>
</a>
</g>
</g>
<!-- Node1&#45;&gt;Node12 -->
<g id="edge11" class="edge"><title>Node1&#45;&gt;Node12</title>
<path fill="none" stroke="midnightblue" d="M2536.45,-96.6731C2510.6,-86.1872 2481.3,-74.3018 2455.08,-63.6626"/>
<polygon fill="midnightblue" stroke="midnightblue" points="2535.22,-99.952 2545.8,-100.468 2537.85,-93.4654 2535.22,-99.952"/>
</g>
<!-- Node13 -->
<g id="node13" class="node"><title>Node13</title>
<g id="a_node13"><a xlink:href="../../da/d34/GenCathodeSegmentationCreatorForSegType17_8cxx.html" target="_top" xlink:title="/home/travis/build\l/AliceO2Group/AliceO2\l/Detectors/MUON/MCH/Mapping\l/Impl3/src/GenCathodeSegmentationCreator\lForSegType17.cxx">
<polygon fill="none" stroke="black" points="2502.5,-0.5 2502.5,-63.5 2712.5,-63.5 2712.5,-0.5 2502.5,-0.5"/>
<text text-anchor="start" x="2510.5" y="-51.5" font-family="Helvetica,sans-Serif" font-size="10.00">/home/travis/build</text>
<text text-anchor="start" x="2510.5" y="-40.5" font-family="Helvetica,sans-Serif" font-size="10.00">/AliceO2Group/AliceO2</text>
<text text-anchor="start" x="2510.5" y="-29.5" font-family="Helvetica,sans-Serif" font-size="10.00">/Detectors/MUON/MCH/Mapping</text>
<text text-anchor="start" x="2510.5" y="-18.5" font-family="Helvetica,sans-Serif" font-size="10.00">/Impl3/src/GenCathodeSegmentationCreator</text>
<text text-anchor="middle" x="2607.5" y="-7.5" font-family="Helvetica,sans-Serif" font-size="10.00">ForSegType17.cxx</text>
</a>
</g>
</g>
<!-- Node1&#45;&gt;Node13 -->
<g id="edge12" class="edge"><title>Node1&#45;&gt;Node13</title>
<path fill="none" stroke="midnightblue" d="M2607.5,-89.9446C2607.5,-81.2257 2607.5,-71.9703 2607.5,-63.5122"/>
<polygon fill="midnightblue" stroke="midnightblue" points="2604,-90.2239 2607.5,-100.224 2611,-90.224 2604,-90.2239"/>
</g>
<!-- Node14 -->
<g id="node14" class="node"><title>Node14</title>
<g id="a_node14"><a xlink:href="../../d5/d23/GenCathodeSegmentationCreatorForSegType18_8cxx.html" target="_top" xlink:title="/home/travis/build\l/AliceO2Group/AliceO2\l/Detectors/MUON/MCH/Mapping\l/Impl3/src/GenCathodeSegmentationCreator\lForSegType18.cxx">
<polygon fill="none" stroke="black" points="2730.5,-0.5 2730.5,-63.5 2940.5,-63.5 2940.5,-0.5 2730.5,-0.5"/>
<text text-anchor="start" x="2738.5" y="-51.5" font-family="Helvetica,sans-Serif" font-size="10.00">/home/travis/build</text>
<text text-anchor="start" x="2738.5" y="-40.5" font-family="Helvetica,sans-Serif" font-size="10.00">/AliceO2Group/AliceO2</text>
<text text-anchor="start" x="2738.5" y="-29.5" font-family="Helvetica,sans-Serif" font-size="10.00">/Detectors/MUON/MCH/Mapping</text>
<text text-anchor="start" x="2738.5" y="-18.5" font-family="Helvetica,sans-Serif" font-size="10.00">/Impl3/src/GenCathodeSegmentationCreator</text>
<text text-anchor="middle" x="2835.5" y="-7.5" font-family="Helvetica,sans-Serif" font-size="10.00">ForSegType18.cxx</text>
</a>
</g>
</g>
<!-- Node1&#45;&gt;Node14 -->
<g id="edge13" class="edge"><title>Node1&#45;&gt;Node14</title>
<path fill="none" stroke="midnightblue" d="M2678.55,-96.6731C2704.4,-86.1872 2733.7,-74.3018 2759.92,-63.6626"/>
<polygon fill="midnightblue" stroke="midnightblue" points="2677.15,-93.4654 2669.2,-100.468 2679.78,-99.952 2677.15,-93.4654"/>
</g>
<!-- Node15 -->
<g id="node15" class="node"><title>Node15</title>
<g id="a_node15"><a xlink:href="../../d8/d63/GenCathodeSegmentationCreatorForSegType19_8cxx.html" target="_top" xlink:title="/home/travis/build\l/AliceO2Group/AliceO2\l/Detectors/MUON/MCH/Mapping\l/Impl3/src/GenCathodeSegmentationCreator\lForSegType19.cxx">
<polygon fill="none" stroke="black" points="2958.5,-0.5 2958.5,-63.5 3168.5,-63.5 3168.5,-0.5 2958.5,-0.5"/>
<text text-anchor="start" x="2966.5" y="-51.5" font-family="Helvetica,sans-Serif" font-size="10.00">/home/travis/build</text>
<text text-anchor="start" x="2966.5" y="-40.5" font-family="Helvetica,sans-Serif" font-size="10.00">/AliceO2Group/AliceO2</text>
<text text-anchor="start" x="2966.5" y="-29.5" font-family="Helvetica,sans-Serif" font-size="10.00">/Detectors/MUON/MCH/Mapping</text>
<text text-anchor="start" x="2966.5" y="-18.5" font-family="Helvetica,sans-Serif" font-size="10.00">/Impl3/src/GenCathodeSegmentationCreator</text>
<text text-anchor="middle" x="3063.5" y="-7.5" font-family="Helvetica,sans-Serif" font-size="10.00">ForSegType19.cxx</text>
</a>
</g>
</g>
<!-- Node1&#45;&gt;Node15 -->
<g id="edge14" class="edge"><title>Node1&#45;&gt;Node15</title>
<path fill="none" stroke="midnightblue" d="M2718.04,-108.145C2785.26,-96.9674 2872.67,-81.3189 2949.5,-64 2952.4,-63.346 2955.34,-62.6666 2958.3,-61.9669"/>
<polygon fill="midnightblue" stroke="midnightblue" points="2717.15,-104.745 2707.86,-109.831 2718.29,-111.652 2717.15,-104.745"/>
</g>
<!-- Node16 -->
<g id="node16" class="node"><title>Node16</title>
<g id="a_node16"><a xlink:href="../../da/d28/GenCathodeSegmentationCreatorForSegType2_8cxx.html" target="_top" xlink:title="/home/travis/build\l/AliceO2Group/AliceO2\l/Detectors/MUON/MCH/Mapping\l/Impl3/src/GenCathodeSegmentationCreator\lForSegType2.cxx">
<polygon fill="none" stroke="black" points="3186.5,-0.5 3186.5,-63.5 3396.5,-63.5 3396.5,-0.5 3186.5,-0.5"/>
<text text-anchor="start" x="3194.5" y="-51.5" font-family="Helvetica,sans-Serif" font-size="10.00">/home/travis/build</text>
<text text-anchor="start" x="3194.5" y="-40.5" font-family="Helvetica,sans-Serif" font-size="10.00">/AliceO2Group/AliceO2</text>
<text text-anchor="start" x="3194.5" y="-29.5" font-family="Helvetica,sans-Serif" font-size="10.00">/Detectors/MUON/MCH/Mapping</text>
<text text-anchor="start" x="3194.5" y="-18.5" font-family="Helvetica,sans-Serif" font-size="10.00">/Impl3/src/GenCathodeSegmentationCreator</text>
<text text-anchor="middle" x="3291.5" y="-7.5" font-family="Helvetica,sans-Serif" font-size="10.00">ForSegType2.cxx</text>
</a>
</g>
</g>
<!-- Node1&#45;&gt;Node16 -->
<g id="edge15" class="edge"><title>Node1&#45;&gt;Node16</title>
<path fill="none" stroke="midnightblue" d="M2717.82,-118.786C2833.19,-110.555 3019.19,-93.8719 3177.5,-64 3180.42,-63.4486 3183.38,-62.8602 3186.36,-62.2407"/>
<polygon fill="midnightblue" stroke="midnightblue" points="2717.29,-115.314 2707.57,-119.508 2717.79,-122.297 2717.29,-115.314"/>
</g>
<!-- Node17 -->
<g id="node17" class="node"><title>Node17</title>
<g id="a_node17"><a xlink:href="../../d1/d5c/GenCathodeSegmentationCreatorForSegType20_8cxx.html" target="_top" xlink:title="/home/travis/build\l/AliceO2Group/AliceO2\l/Detectors/MUON/MCH/Mapping\l/Impl3/src/GenCathodeSegmentationCreator\lForSegType20.cxx">
<polygon fill="none" stroke="black" points="3414.5,-0.5 3414.5,-63.5 3624.5,-63.5 3624.5,-0.5 3414.5,-0.5"/>
<text text-anchor="start" x="3422.5" y="-51.5" font-family="Helvetica,sans-Serif" font-size="10.00">/home/travis/build</text>
<text text-anchor="start" x="3422.5" y="-40.5" font-family="Helvetica,sans-Serif" font-size="10.00">/AliceO2Group/AliceO2</text>
<text text-anchor="start" x="3422.5" y="-29.5" font-family="Helvetica,sans-Serif" font-size="10.00">/Detectors/MUON/MCH/Mapping</text>
<text text-anchor="start" x="3422.5" y="-18.5" font-family="Helvetica,sans-Serif" font-size="10.00">/Impl3/src/GenCathodeSegmentationCreator</text>
<text text-anchor="middle" x="3519.5" y="-7.5" font-family="Helvetica,sans-Serif" font-size="10.00">ForSegType20.cxx</text>
</a>
</g>
</g>
<!-- Node1&#45;&gt;Node17 -->
<g id="edge16" class="edge"><title>Node1&#45;&gt;Node17</title>
<path fill="none" stroke="midnightblue" d="M2718.23,-123.547C2873.07,-119.326 3162.57,-106.004 3405.5,-64 3408.43,-63.4933 3411.39,-62.9445 3414.38,-62.3601"/>
<polygon fill="midnightblue" stroke="midnightblue" points="2717.68,-120.06 2707.77,-123.823 2717.86,-127.057 2717.68,-120.06"/>
</g>
<!-- Node18 -->
<g id="node18" class="node"><title>Node18</title>
<g id="a_node18"><a xlink:href="../../d0/dbc/GenCathodeSegmentationCreatorForSegType3_8cxx.html" target="_top" xlink:title="/home/travis/build\l/AliceO2Group/AliceO2\l/Detectors/MUON/MCH/Mapping\l/Impl3/src/GenCathodeSegmentationCreator\lForSegType3.cxx">
<polygon fill="none" stroke="black" points="3642.5,-0.5 3642.5,-63.5 3852.5,-63.5 3852.5,-0.5 3642.5,-0.5"/>
<text text-anchor="start" x="3650.5" y="-51.5" font-family="Helvetica,sans-Serif" font-size="10.00">/home/travis/build</text>
<text text-anchor="start" x="3650.5" y="-40.5" font-family="Helvetica,sans-Serif" font-size="10.00">/AliceO2Group/AliceO2</text>
<text text-anchor="start" x="3650.5" y="-29.5" font-family="Helvetica,sans-Serif" font-size="10.00">/Detectors/MUON/MCH/Mapping</text>
<text text-anchor="start" x="3650.5" y="-18.5" font-family="Helvetica,sans-Serif" font-size="10.00">/Impl3/src/GenCathodeSegmentationCreator</text>
<text text-anchor="middle" x="3747.5" y="-7.5" font-family="Helvetica,sans-Serif" font-size="10.00">ForSegType3.cxx</text>
</a>
</g>
</g>
<!-- Node1&#45;&gt;Node18 -->
<g id="edge17" class="edge"><title>Node1&#45;&gt;Node18</title>
<path fill="none" stroke="midnightblue" d="M2717.87,-126.287C2906.73,-125.987 3303.46,-118.172 3633.5,-64 3636.43,-63.5183 3639.4,-62.9917 3642.39,-62.4269"/>
<polygon fill="midnightblue" stroke="midnightblue" points="2717.66,-122.787 2707.66,-126.296 2717.66,-129.787 2717.66,-122.787"/>
</g>
<!-- Node19 -->
<g id="node19" class="node"><title>Node19</title>
<g id="a_node19"><a xlink:href="../../d1/da9/GenCathodeSegmentationCreatorForSegType4_8cxx.html" target="_top" xlink:title="/home/travis/build\l/AliceO2Group/AliceO2\l/Detectors/MUON/MCH/Mapping\l/Impl3/src/GenCathodeSegmentationCreator\lForSegType4.cxx">
<polygon fill="none" stroke="black" points="3870.5,-0.5 3870.5,-63.5 4080.5,-63.5 4080.5,-0.5 3870.5,-0.5"/>
<text text-anchor="start" x="3878.5" y="-51.5" font-family="Helvetica,sans-Serif" font-size="10.00">/home/travis/build</text>
<text text-anchor="start" x="3878.5" y="-40.5" font-family="Helvetica,sans-Serif" font-size="10.00">/AliceO2Group/AliceO2</text>
<text text-anchor="start" x="3878.5" y="-29.5" font-family="Helvetica,sans-Serif" font-size="10.00">/Detectors/MUON/MCH/Mapping</text>
<text text-anchor="start" x="3878.5" y="-18.5" font-family="Helvetica,sans-Serif" font-size="10.00">/Impl3/src/GenCathodeSegmentationCreator</text>
<text text-anchor="middle" x="3975.5" y="-7.5" font-family="Helvetica,sans-Serif" font-size="10.00">ForSegType4.cxx</text>
</a>
</g>
</g>
<!-- Node1&#45;&gt;Node19 -->
<g id="edge18" class="edge"><title>Node1&#45;&gt;Node19</title>
<path fill="none" stroke="midnightblue" d="M2718.25,-123.142C2982.27,-117.024 3642.95,-98.6546 3861.5,-64 3864.44,-63.5342 3867.41,-63.0218 3870.4,-62.4694"/>
<polygon fill="midnightblue" stroke="midnightblue" points="2717.8,-119.651 2707.88,-123.381 2717.96,-126.65 2717.8,-119.651"/>
</g>
<!-- Node20 -->
<g id="node20" class="node"><title>Node20</title>
<g id="a_node20"><a xlink:href="../../de/dfe/GenCathodeSegmentationCreatorForSegType5_8cxx.html" target="_top" xlink:title="/home/travis/build\l/AliceO2Group/AliceO2\l/Detectors/MUON/MCH/Mapping\l/Impl3/src/GenCathodeSegmentationCreator\lForSegType5.cxx">
<polygon fill="none" stroke="black" points="4098.5,-0.5 4098.5,-63.5 4308.5,-63.5 4308.5,-0.5 4098.5,-0.5"/>
<text text-anchor="start" x="4106.5" y="-51.5" font-family="Helvetica,sans-Serif" font-size="10.00">/home/travis/build</text>
<text text-anchor="start" x="4106.5" y="-40.5" font-family="Helvetica,sans-Serif" font-size="10.00">/AliceO2Group/AliceO2</text>
<text text-anchor="start" x="4106.5" y="-29.5" font-family="Helvetica,sans-Serif" font-size="10.00">/Detectors/MUON/MCH/Mapping</text>
<text text-anchor="start" x="4106.5" y="-18.5" font-family="Helvetica,sans-Serif" font-size="10.00">/Impl3/src/GenCathodeSegmentationCreator</text>
<text text-anchor="middle" x="4203.5" y="-7.5" font-family="Helvetica,sans-Serif" font-size="10.00">ForSegType5.cxx</text>
</a>
</g>
</g>
<!-- Node1&#45;&gt;Node20 -->
<g id="edge19" class="edge"><title>Node1&#45;&gt;Node20</title>
<path fill="none" stroke="midnightblue" d="M2718.06,-124.119C3015.02,-119.897 3825.34,-104.867 4089.5,-64 4092.44,-63.5453 4095.41,-63.0427 4098.4,-62.499"/>
<polygon fill="midnightblue" stroke="midnightblue" points="2717.66,-120.624 2707.71,-124.264 2717.76,-127.623 2717.66,-120.624"/>
</g>
<!-- Node21 -->
<g id="node21" class="node"><title>Node21</title>
<g id="a_node21"><a xlink:href="../../d4/dfb/GenCathodeSegmentationCreatorForSegType6_8cxx.html" target="_top" xlink:title="/home/travis/build\l/AliceO2Group/AliceO2\l/Detectors/MUON/MCH/Mapping\l/Impl3/src/GenCathodeSegmentationCreator\lForSegType6.cxx">
<polygon fill="none" stroke="black" points="4326.5,-0.5 4326.5,-63.5 4536.5,-63.5 4536.5,-0.5 4326.5,-0.5"/>
<text text-anchor="start" x="4334.5" y="-51.5" font-family="Helvetica,sans-Serif" font-size="10.00">/home/travis/build</text>
<text text-anchor="start" x="4334.5" y="-40.5" font-family="Helvetica,sans-Serif" font-size="10.00">/AliceO2Group/AliceO2</text>
<text text-anchor="start" x="4334.5" y="-29.5" font-family="Helvetica,sans-Serif" font-size="10.00">/Detectors/MUON/MCH/Mapping</text>
<text text-anchor="start" x="4334.5" y="-18.5" font-family="Helvetica,sans-Serif" font-size="10.00">/Impl3/src/GenCathodeSegmentationCreator</text>
<text text-anchor="middle" x="4431.5" y="-7.5" font-family="Helvetica,sans-Serif" font-size="10.00">ForSegType6.cxx</text>
</a>
</g>
</g>
<!-- Node1&#45;&gt;Node21 -->
<g id="edge20" class="edge"><title>Node1&#45;&gt;Node21</title>
<path fill="none" stroke="midnightblue" d="M2718.04,-124.835C3045.58,-122.339 4007.44,-111.093 4317.5,-64 4320.44,-63.5534 4323.41,-63.058 4326.41,-62.5207"/>
<polygon fill="midnightblue" stroke="midnightblue" points="2717.57,-121.338 2707.6,-124.913 2717.62,-128.338 2717.57,-121.338"/>
</g>
<!-- Node22 -->
<g id="node22" class="node"><title>Node22</title>
<g id="a_node22"><a xlink:href="../../d8/d47/GenCathodeSegmentationCreatorForSegType7_8cxx.html" target="_top" xlink:title="/home/travis/build\l/AliceO2Group/AliceO2\l/Detectors/MUON/MCH/Mapping\l/Impl3/src/GenCathodeSegmentationCreator\lForSegType7.cxx">
<polygon fill="none" stroke="black" points="4554.5,-0.5 4554.5,-63.5 4764.5,-63.5 4764.5,-0.5 4554.5,-0.5"/>
<text text-anchor="start" x="4562.5" y="-51.5" font-family="Helvetica,sans-Serif" font-size="10.00">/home/travis/build</text>
<text text-anchor="start" x="4562.5" y="-40.5" font-family="Helvetica,sans-Serif" font-size="10.00">/AliceO2Group/AliceO2</text>
<text text-anchor="start" x="4562.5" y="-29.5" font-family="Helvetica,sans-Serif" font-size="10.00">/Detectors/MUON/MCH/Mapping</text>
<text text-anchor="start" x="4562.5" y="-18.5" font-family="Helvetica,sans-Serif" font-size="10.00">/Impl3/src/GenCathodeSegmentationCreator</text>
<text text-anchor="middle" x="4659.5" y="-7.5" font-family="Helvetica,sans-Serif" font-size="10.00">ForSegType7.cxx</text>
</a>
</g>
</g>
<!-- Node1&#45;&gt;Node22 -->
<g id="edge21" class="edge"><title>Node1&#45;&gt;Node22</title>
<path fill="none" stroke="midnightblue" d="M2717.78,-125.385C3073.66,-124.48 4189.17,-117.35 4545.5,-64 4548.44,-63.5596 4551.41,-63.0697 4554.41,-62.5372"/>
<polygon fill="midnightblue" stroke="midnightblue" points="2717.72,-121.885 2707.72,-125.409 2717.73,-128.885 2717.72,-121.885"/>
</g>
<!-- Node23 -->
<g id="node23" class="node"><title>Node23</title>
<g id="a_node23"><a xlink:href="../../df/dac/GenCathodeSegmentationCreatorForSegType8_8cxx.html" target="_top" xlink:title="/home/travis/build\l/AliceO2Group/AliceO2\l/Detectors/MUON/MCH/Mapping\l/Impl3/src/GenCathodeSegmentationCreator\lForSegType8.cxx">
<polygon fill="none" stroke="black" points="4782.5,-0.5 4782.5,-63.5 4992.5,-63.5 4992.5,-0.5 4782.5,-0.5"/>
<text text-anchor="start" x="4790.5" y="-51.5" font-family="Helvetica,sans-Serif" font-size="10.00">/home/travis/build</text>
<text text-anchor="start" x="4790.5" y="-40.5" font-family="Helvetica,sans-Serif" font-size="10.00">/AliceO2Group/AliceO2</text>
<text text-anchor="start" x="4790.5" y="-29.5" font-family="Helvetica,sans-Serif" font-size="10.00">/Detectors/MUON/MCH/Mapping</text>
<text text-anchor="start" x="4790.5" y="-18.5" font-family="Helvetica,sans-Serif" font-size="10.00">/Impl3/src/GenCathodeSegmentationCreator</text>
<text text-anchor="middle" x="4887.5" y="-7.5" font-family="Helvetica,sans-Serif" font-size="10.00">ForSegType8.cxx</text>
</a>
</g>
</g>
<!-- Node1&#45;&gt;Node23 -->
<g id="edge22" class="edge"><title>Node1&#45;&gt;Node23</title>
<path fill="none" stroke="midnightblue" d="M2718.03,-125.819C3101.18,-126.383 4370.84,-123.599 4773.5,-64 4776.44,-63.5645 4779.42,-63.079 4782.41,-62.5503"/>
<polygon fill="midnightblue" stroke="midnightblue" points="2717.78,-122.318 2707.78,-125.803 2717.77,-129.318 2717.78,-122.318"/>
</g>
<!-- Node24 -->
<g id="node24" class="node"><title>Node24</title>
<g id="a_node24"><a xlink:href="../../db/d1e/GenCathodeSegmentationCreatorForSegType9_8cxx.html" target="_top" xlink:title="/home/travis/build\l/AliceO2Group/AliceO2\l/Detectors/MUON/MCH/Mapping\l/Impl3/src/GenCathodeSegmentationCreator\lForSegType9.cxx">
<polygon fill="none" stroke="black" points="5010.5,-0.5 5010.5,-63.5 5220.5,-63.5 5220.5,-0.5 5010.5,-0.5"/>
<text text-anchor="start" x="5018.5" y="-51.5" font-family="Helvetica,sans-Serif" font-size="10.00">/home/travis/build</text>
<text text-anchor="start" x="5018.5" y="-40.5" font-family="Helvetica,sans-Serif" font-size="10.00">/AliceO2Group/AliceO2</text>
<text text-anchor="start" x="5018.5" y="-29.5" font-family="Helvetica,sans-Serif" font-size="10.00">/Detectors/MUON/MCH/Mapping</text>
<text text-anchor="start" x="5018.5" y="-18.5" font-family="Helvetica,sans-Serif" font-size="10.00">/Impl3/src/GenCathodeSegmentationCreator</text>
<text text-anchor="middle" x="5115.5" y="-7.5" font-family="Helvetica,sans-Serif" font-size="10.00">ForSegType9.cxx</text>
</a>
</g>
</g>
<!-- Node1&#45;&gt;Node24 -->
<g id="edge23" class="edge"><title>Node1&#45;&gt;Node24</title>
<path fill="none" stroke="midnightblue" d="M2717.82,-124.222C3157.8,-118.911 4774.4,-97.3002 5001.5,-64 5004.44,-63.5685 5007.42,-63.0865 5010.41,-62.561"/>
<polygon fill="midnightblue" stroke="midnightblue" points="2717.6,-120.724 2707.64,-124.344 2717.68,-127.724 2717.6,-120.724"/>
</g>
</g>
</svg>
        <g id="navigator" transform="translate(0 0)" fill="#404254">
                <rect fill="#f2f5e9" fill-opacity="0.5" stroke="#606060" stroke-width=".5" x="0" y="0" width="60" height="60"/>
                <use id="zoomplus" xlink:href="#zoomPlus" x="17" y="9" onmousedown="handleZoom(evt,'in')"/>
                <use id="zoomminus" xlink:href="#zoomMin" x="42" y="9" onmousedown="handleZoom(evt,'out')"/>
                <use id="reset" xlink:href="#resetDef" x="30" y="36" onmousedown="handleReset()"/>
                <g id="arrowUp" xlink:href="#dirArrow" transform="translate(30 24)" onmousedown="handlePan(0,-1)">
                  <use xlink:href="#rim" fill="#404040">
                        <set attributeName="fill" to="#808080" begin="arrowUp.mouseover" end="arrowUp.mouseout"/>
                  </use>
                  <path fill="none" stroke="white" stroke-width="1.5" d="M0,-3.0v7 M-2.5,-0.5L0,-3.0L2.5,-0.5"/>
                </g>
                <g id="arrowRight" xlink:href="#dirArrow" transform="rotate(90) translate(36 -43)" onmousedown="handlePan(1,0)">
                  <use xlink:href="#rim" fill="#404040">
                        <set attributeName="fill" to="#808080" begin="arrowRight.mouseover" end="arrowRight.mouseout"/>
                  </use>
                  <path fill="none" stroke="white" stroke-width="1.5" d="M0,-3.0v7 M-2.5,-0.5L0,-3.0L2.5,-0.5"/>
                </g>
                <g id="arrowDown" xlink:href="#dirArrow" transform="rotate(180) translate(-30 -48)" onmousedown="handlePan(0,1)">
                  <use xlink:href="#rim" fill="#404040">
                        <set attributeName="fill" to="#808080" begin="arrowDown.mouseover" end="arrowDown.mouseout"/>
                  </use>
                  <path fill="none" stroke="white" stroke-width="1.5" d="M0,-3.0v7 M-2.5,-0.5L0,-3.0L2.5,-0.5"/>
                </g>
                <g id="arrowLeft" xlink:href="#dirArrow" transform="rotate(270) translate(-36 17)" onmousedown="handlePan(-1,0)">
                  <use xlink:href="#rim" fill="#404040">
                        <set attributeName="fill" to="#808080" begin="arrowLeft.mouseover" end="arrowLeft.mouseout"/>
                  </use>
                  <path fill="none" stroke="white" stroke-width="1.5" d="M0,-3.0v7 M-2.5,-0.5L0,-3.0L2.5,-0.5"/>
                </g>
        </g>
        <svg viewBox="0 0 15 15" width="100%" height="30px" preserveAspectRatio="xMaxYMin meet">
         <g id="arrow_out" transform="scale(0.3 0.3)">
          <a xlink:href="CathodeSegmentationCreator_8h__dep__incl_org.svg" target="_base">
           <rect id="button" ry="5" rx="5" y="6" x="6" height="38" width="38"
                fill="#f2f5e9" fill-opacity="0.5" stroke="#606060" stroke-width="1.0"/>
           <path id="arrow"
             d="M 11.500037,31.436501 C 11.940474,20.09759 22.043105,11.32322 32.158766,21.979434 L 37.068811,17.246167 C 37.068811,17.246167 37.088388,32 37.088388,32 L 22.160133,31.978069 C 22.160133,31.978069 26.997745,27.140456 26.997745,27.140456 C 18.528582,18.264221 13.291696,25.230495 11.500037,31.436501 z"
             style="fill:#404040;"/>
          </a>
         </g>
        </svg>
</svg>
