<?xml version="1.0" encoding="UTF-8" standalone="no"?>
<!DOCTYPE svg PUBLIC "-//W3C//DTD SVG 1.1//EN"
 "http://www.w3.org/Graphics/SVG/1.1/DTD/svg11.dtd">
<!-- Generated by graphviz version 2.38.0 (20140413.2041)
 -->
<!-- Title: o2::itsmft::RUDecodeData Pages: 1 -->
<!--zoomable 375 -->
<svg id="main" version="1.1" xmlns="http://www.w3.org/2000/svg" xmlns:xlink="http://www.w3.org/1999/xlink" xml:space="preserve" onload="init(evt)">
<style type="text/css"><![CDATA[
.edge:hover path { stroke: red; }
.edge:hover polygon { stroke: red; fill: red; }
]]></style>
<script type="text/javascript"><![CDATA[
var edges = document.getElementsByTagName('g');
if (edges && edges.length) {
  for (var i=0;i<edges.length;i++) {
    if (edges[i].id.substr(0,4)=='edge') {
      edges[i].setAttribute('class','edge');
    }
  }
}
]]></script>
        <defs>
                <circle id="rim" cx="0" cy="0" r="7"/>
                <circle id="rim2" cx="0" cy="0" r="3.5"/>
                <g id="zoomPlus">
                        <use xlink:href="#rim" fill="#404040">
                                <set attributeName="fill" to="#808080" begin="zoomplus.mouseover" end="zoomplus.mouseout"/>
                        </use>
                        <path d="M-4,0h8M0,-4v8" fill="none" stroke="white" stroke-width="1.5" pointer-events="none"/>
                </g>
                <g id="zoomMin">
                        <use xlink:href="#rim" fill="#404040">
                                <set attributeName="fill" to="#808080" begin="zoomminus.mouseover" end="zoomminus.mouseout"/>
                        </use>
                        <path d="M-4,0h8" fill="none" stroke="white" stroke-width="1.5" pointer-events="none"/>
                </g>
                <g id="dirArrow">
                        <path fill="none" stroke="white" stroke-width="1.5" d="M0,-3.0v7 M-2.5,-0.5L0,-3.0L2.5,-0.5"/>
                </g>
               <g id="resetDef">
                       <use xlink:href="#rim2" fill="#404040">
                               <set attributeName="fill" to="#808080" begin="reset.mouseover" end="reset.mouseout"/>
                       </use>
               </g>
        </defs>

<script type="text/javascript">
var viewWidth = 759;
var viewHeight = 375;
var sectionId = 'dynsection-0';
</script>
<script xlink:href="../../svgpan.js"/>
<svg id="graph" class="graph">
<g id="viewport">
<title>o2::itsmft::RUDecodeData</title>
<!-- Node1 -->
<g id="node1" class="node"><title>Node1</title>
<polygon fill="#bfbfbf" stroke="black" points="314,-0.5 314,-90.5 448,-90.5 448,-0.5 314,-0.5"/>
<text text-anchor="middle" x="381" y="-78.5" font-family="Helvetica,sans-Serif" font-size="10.00">o2::itsmft::RUDecodeData</text>
<polyline fill="none" stroke="black" points="314,-71.5 448,-71.5 "/>
<text text-anchor="middle" x="381" y="-59.5" font-family="Helvetica,sans-Serif" font-size="10.00"> </text>
<polyline fill="none" stroke="black" points="314,-52.5 448,-52.5 "/>
<text text-anchor="start" x="322" y="-40.5" font-family="Helvetica,sans-Serif" font-size="10.00">+ RUDecodeData()</text>
<text text-anchor="start" x="322" y="-29.5" font-family="Helvetica,sans-Serif" font-size="10.00">+ RUDecodeData()</text>
<text text-anchor="start" x="322" y="-18.5" font-family="Helvetica,sans-Serif" font-size="10.00">+ clear()</text>
<text text-anchor="start" x="322" y="-7.5" font-family="Helvetica,sans-Serif" font-size="10.00">+ clearTrigger()</text>
</g>
<!-- Node2 -->
<g id="node2" class="node"><title>Node2</title>
<polygon fill="none" stroke="#bfbfbf" points="0,-166 0,-234 108,-234 108,-166 0,-166"/>
<text text-anchor="start" x="8" y="-222" font-family="Helvetica,sans-Serif" font-size="10.00">array&lt; std::uint8_t,</text>
<text text-anchor="middle" x="54" y="-211" font-family="Helvetica,sans-Serif" font-size="10.00"> MaxCablesPerRU &gt;</text>
<polyline fill="none" stroke="#bfbfbf" points="0,-204 108,-204 "/>
<text text-anchor="middle" x="54" y="-192" font-family="Helvetica,sans-Serif" font-size="10.00"> </text>
<polyline fill="none" stroke="#bfbfbf" points="0,-185 108,-185 "/>
<text text-anchor="middle" x="54" y="-173" font-family="Helvetica,sans-Serif" font-size="10.00"> </text>
</g>
<!-- Node2&#45;&gt;Node1 -->
<g id="edge1" class="edge"><title>Node2&#45;&gt;Node1</title>
<path fill="none" stroke="#404040" d="M90.9021,-165.943C113.553,-147.076 143.908,-124.224 174,-109 214.309,-88.6071 262.462,-73.576 302.177,-63.3721"/>
<polygon fill="none" stroke="#404040" points="302.304,-63.3405 307.152,-58.0027 313.944,-60.4254 309.096,-65.7631 302.304,-63.3405"/>
<text text-anchor="middle" x="204.5" y="-128.5" font-family="Helvetica,sans-Serif" font-size="10.00"> +cableHWID</text>
<text text-anchor="middle" x="204.5" y="-117.5" font-family="Helvetica,sans-Serif" font-size="10.00">+cableLinkID</text>
</g>
<!-- Node3 -->
<g id="node3" class="node"><title>Node3</title>
<polygon fill="none" stroke="#bfbfbf" points="126,-166 126,-234 296,-234 296,-166 126,-166"/>
<text text-anchor="start" x="134" y="-222" font-family="Helvetica,sans-Serif" font-size="10.00">array&lt; o2::itsmft::</text>
<text text-anchor="middle" x="211" y="-211" font-family="Helvetica,sans-Serif" font-size="10.00">PayLoadCont, MaxCablesPerRU &gt;</text>
<polyline fill="none" stroke="#bfbfbf" points="126,-204 296,-204 "/>
<text text-anchor="middle" x="211" y="-192" font-family="Helvetica,sans-Serif" font-size="10.00"> </text>
<polyline fill="none" stroke="#bfbfbf" points="126,-185 296,-185 "/>
<text text-anchor="middle" x="211" y="-173" font-family="Helvetica,sans-Serif" font-size="10.00"> </text>
</g>
<!-- Node3&#45;&gt;Node1 -->
<g id="edge2" class="edge"><title>Node3&#45;&gt;Node1</title>
<path fill="none" stroke="#404040" d="M224.735,-165.588C233.572,-147.178 246.499,-124.904 263,-109 274.638,-97.7826 288.691,-88.0391 302.979,-79.7989"/>
<polygon fill="none" stroke="#404040" points="303.397,-79.569 306.73,-73.1743 313.914,-73.7911 310.582,-80.1859 303.397,-79.569"/>
<text text-anchor="middle" x="290" y="-123" font-family="Helvetica,sans-Serif" font-size="10.00"> +cableData</text>
</g>
<!-- Node4 -->
<g id="node4" class="node"><title>Node4</title>
<polygon fill="none" stroke="#bfbfbf" points="314.5,-171.5 314.5,-228.5 343.5,-228.5 343.5,-171.5 314.5,-171.5"/>
<text text-anchor="middle" x="329" y="-216.5" font-family="Helvetica,sans-Serif" font-size="10.00">int</text>
<polyline fill="none" stroke="#bfbfbf" points="314.5,-209.5 343.5,-209.5 "/>
<text text-anchor="middle" x="329" y="-197.5" font-family="Helvetica,sans-Serif" font-size="10.00"> </text>
<polyline fill="none" stroke="#bfbfbf" points="314.5,-190.5 343.5,-190.5 "/>
<text text-anchor="middle" x="329" y="-178.5" font-family="Helvetica,sans-Serif" font-size="10.00"> </text>
</g>
<!-- Node4&#45;&gt;Node1 -->
<g id="edge3" class="edge"><title>Node4&#45;&gt;Node1</title>
<path fill="none" stroke="#404040" d="M322.692,-171.326C319.809,-153.05 318.494,-128.893 326,-109 327.012,-106.319 328.197,-103.678 329.522,-101.087"/>
<polygon fill="none" stroke="#404040" points="329.54,-101.057 329.171,-93.8553 335.677,-90.7447 336.046,-97.9463 329.54,-101.057"/>
<text text-anchor="middle" x="367" y="-134" font-family="Helvetica,sans-Serif" font-size="10.00"> +nChipsFired</text>
<text text-anchor="middle" x="367" y="-123" font-family="Helvetica,sans-Serif" font-size="10.00">+lastChipChecked</text>
<text text-anchor="middle" x="367" y="-112" font-family="Helvetica,sans-Serif" font-size="10.00">+nCables</text>
</g>
<!-- Node5 -->
<g id="node5" class="node"><title>Node5</title>
<g id="a_node5"><a xlink:href="../../dd/d8d/structo2_1_1itsmft_1_1RUInfo.html" target="_top" xlink:title="{o2::itsmft::RUInfo\n||}">
<polygon fill="none" stroke="black" points="361.5,-171.5 361.5,-228.5 456.5,-228.5 456.5,-171.5 361.5,-171.5"/>
<text text-anchor="middle" x="409" y="-216.5" font-family="Helvetica,sans-Serif" font-size="10.00">o2::itsmft::RUInfo</text>
<polyline fill="none" stroke="black" points="361.5,-209.5 456.5,-209.5 "/>
<text text-anchor="middle" x="409" y="-197.5" font-family="Helvetica,sans-Serif" font-size="10.00"> </text>
<polyline fill="none" stroke="black" points="361.5,-190.5 456.5,-190.5 "/>
<text text-anchor="middle" x="409" y="-178.5" font-family="Helvetica,sans-Serif" font-size="10.00"> </text>
</a>
</g>
</g>
<!-- Node5&#45;&gt;Node1 -->
<g id="edge4" class="edge"><title>Node5&#45;&gt;Node1</title>
<path fill="none" stroke="#404040" d="M413.605,-171.46C415.718,-153.453 416.816,-129.549 412,-109 411.461,-106.7 410.824,-104.389 410.108,-102.08"/>
<polygon fill="none" stroke="#404040" points="410.045,-101.907 404.236,-97.6353 405.945,-90.6295 411.754,-94.9015 410.045,-101.907"/>
<text text-anchor="middle" x="433" y="-123" font-family="Helvetica,sans-Serif" font-size="10.00"> +ruInfo</text>
</g>
<!-- Node6 -->
<g id="node6" class="node"><title>Node6</title>
<polygon fill="none" stroke="#bfbfbf" points="287.5,-309.5 287.5,-366.5 338.5,-366.5 338.5,-309.5 287.5,-309.5"/>
<text text-anchor="middle" x="313" y="-354.5" font-family="Helvetica,sans-Serif" font-size="10.00">uint16_t</text>
<polyline fill="none" stroke="#bfbfbf" points="287.5,-347.5 338.5,-347.5 "/>
<text text-anchor="middle" x="313" y="-335.5" font-family="Helvetica,sans-Serif" font-size="10.00"> </text>
<polyline fill="none" stroke="#bfbfbf" points="287.5,-328.5 338.5,-328.5 "/>
<text text-anchor="middle" x="313" y="-316.5" font-family="Helvetica,sans-Serif" font-size="10.00"> </text>
</g>
<!-- Node6&#45;&gt;Node5 -->
<g id="edge5" class="edge"><title>Node6&#45;&gt;Node5</title>
<path fill="none" stroke="#404040" d="M314.972,-309.166C317.209,-293.115 321.955,-273.173 332,-258 334.216,-254.652 345.716,-245.72 359.181,-235.893"/>
<polygon fill="none" stroke="#404040" points="359.495,-235.666 362.021,-228.912 369.227,-228.646 366.701,-235.4 359.495,-235.666"/>
<text text-anchor="middle" x="368.5" y="-283" font-family="Helvetica,sans-Serif" font-size="10.00"> +firstChipIDSW</text>
<text text-anchor="middle" x="368.5" y="-272" font-family="Helvetica,sans-Serif" font-size="10.00">+idHW</text>
<text text-anchor="middle" x="368.5" y="-261" font-family="Helvetica,sans-Serif" font-size="10.00">+idSW</text>
</g>
<!-- Node7 -->
<g id="node7" class="node"><title>Node7</title>
<polygon fill="none" stroke="#bfbfbf" points="386,-309.5 386,-366.5 432,-366.5 432,-309.5 386,-309.5"/>
<text text-anchor="middle" x="409" y="-354.5" font-family="Helvetica,sans-Serif" font-size="10.00">uint8_t</text>
<polyline fill="none" stroke="#bfbfbf" points="386,-347.5 432,-347.5 "/>
<text text-anchor="middle" x="409" y="-335.5" font-family="Helvetica,sans-Serif" font-size="10.00"> </text>
<polyline fill="none" stroke="#bfbfbf" points="386,-328.5 432,-328.5 "/>
<text text-anchor="middle" x="409" y="-316.5" font-family="Helvetica,sans-Serif" font-size="10.00"> </text>
</g>
<!-- Node7&#45;&gt;Node5 -->
<g id="edge6" class="edge"><title>Node7&#45;&gt;Node5</title>
<path fill="none" stroke="#404040" d="M409,-309.478C409,-289.792 409,-262.99 409,-240.953"/>
<polygon fill="none" stroke="#404040" points="409,-240.947 405,-234.948 409,-228.947 413,-234.947 409,-240.947"/>
<text text-anchor="middle" x="430.5" y="-283" font-family="Helvetica,sans-Serif" font-size="10.00"> +layer</text>
<text text-anchor="middle" x="430.5" y="-272" font-family="Helvetica,sans-Serif" font-size="10.00">+ruType</text>
<text text-anchor="middle" x="430.5" y="-261" font-family="Helvetica,sans-Serif" font-size="10.00">+nCables</text>
</g>
<!-- Node8 -->
<g id="node8" class="node"><title>Node8</title>
<polygon fill="none" stroke="#bfbfbf" points="454.5,-309.5 454.5,-366.5 495.5,-366.5 495.5,-309.5 454.5,-309.5"/>
<text text-anchor="middle" x="475" y="-354.5" font-family="Helvetica,sans-Serif" font-size="10.00">const</text>
<polyline fill="none" stroke="#bfbfbf" points="454.5,-347.5 495.5,-347.5 "/>
<text text-anchor="middle" x="475" y="-335.5" font-family="Helvetica,sans-Serif" font-size="10.00"> </text>
<polyline fill="none" stroke="#bfbfbf" points="454.5,-328.5 495.5,-328.5 "/>
<text text-anchor="middle" x="475" y="-316.5" font-family="Helvetica,sans-Serif" font-size="10.00"> </text>
</g>
<!-- Node8&#45;&gt;Node5 -->
<g id="edge7" class="edge"><title>Node8&#45;&gt;Node5</title>
<path fill="none" stroke="#404040" d="M470.041,-309.351C466.578,-293.734 461.1,-274.165 453,-258 449.619,-251.252 445.385,-244.517 440.889,-238.163"/>
<polygon fill="none" stroke="#404040" points="440.883,-238.154 434.085,-235.747 433.693,-228.547 440.491,-230.954 440.883,-238.154"/>
<text text-anchor="middle" x="494" y="-277.5" font-family="Helvetica,sans-Serif" font-size="10.00"> +DUMMY16</text>
<text text-anchor="middle" x="494" y="-266.5" font-family="Helvetica,sans-Serif" font-size="10.00">+DUMMY8</text>
</g>
<!-- Node9 -->
<g id="node9" class="node"><title>Node9</title>
<polygon fill="none" stroke="#bfbfbf" points="475,-160.5 475,-239.5 605,-239.5 605,-160.5 475,-160.5"/>
<text text-anchor="start" x="483" y="-227.5" font-family="Helvetica,sans-Serif" font-size="10.00">array&lt; o2::itsmft::</text>
<text text-anchor="start" x="483" y="-216.5" font-family="Helvetica,sans-Serif" font-size="10.00">o2::itsmft::ChipPixelData,</text>
<text text-anchor="middle" x="540" y="-205.5" font-family="Helvetica,sans-Serif" font-size="10.00"> MaxChipsPerRU &gt;</text>
<polyline fill="none" stroke="#bfbfbf" points="475,-198.5 605,-198.5 "/>
<text text-anchor="middle" x="540" y="-186.5" font-family="Helvetica,sans-Serif" font-size="10.00"> </text>
<polyline fill="none" stroke="#bfbfbf" points="475,-179.5 605,-179.5 "/>
<text text-anchor="middle" x="540" y="-167.5" font-family="Helvetica,sans-Serif" font-size="10.00"> </text>
</g>
<!-- Node9&#45;&gt;Node1 -->
<g id="edge8" class="edge"><title>Node9&#45;&gt;Node1</title>
<path fill="none" stroke="#404040" d="M504.417,-160.075C489.236,-143.916 471.106,-125.196 454,-109 450.388,-105.58 446.628,-102.109 442.802,-98.6456"/>
<polygon fill="none" stroke="#404040" points="442.747,-98.5968 435.607,-97.5841 433.796,-90.6041 440.936,-91.6168 442.747,-98.5968"/>
<text text-anchor="middle" x="513" y="-123" font-family="Helvetica,sans-Serif" font-size="10.00"> +chipsData</text>
</g>
<!-- Node10 -->
<g id="node10" class="node"><title>Node10</title>
<polygon fill="none" stroke="#bfbfbf" points="623,-160.5 623,-239.5 751,-239.5 751,-160.5 623,-160.5"/>
<text text-anchor="start" x="631" y="-227.5" font-family="Helvetica,sans-Serif" font-size="10.00">array&lt; std::unique</text>
<text text-anchor="start" x="631" y="-216.5" font-family="Helvetica,sans-Serif" font-size="10.00">_ptr&lt; o2::itsmft::GBTLink</text>
<text text-anchor="middle" x="687" y="-205.5" font-family="Helvetica,sans-Serif" font-size="10.00"> &gt;, MaxLinksPerRU &gt;</text>
<polyline fill="none" stroke="#bfbfbf" points="623,-198.5 751,-198.5 "/>
<text text-anchor="middle" x="687" y="-186.5" font-family="Helvetica,sans-Serif" font-size="10.00"> </text>
<polyline fill="none" stroke="#bfbfbf" points="623,-179.5 751,-179.5 "/>
<text text-anchor="middle" x="687" y="-167.5" font-family="Helvetica,sans-Serif" font-size="10.00"> </text>
</g>
<!-- Node10&#45;&gt;Node1 -->
<g id="edge9" class="edge"><title>Node10&#45;&gt;Node1</title>
<path fill="none" stroke="#404040" d="M631.421,-160.459C605.534,-143.448 573.906,-123.964 544,-109 517.201,-95.5907 486.788,-83.2161 459.55,-73.0774"/>
<polygon fill="none" stroke="#404040" points="459.356,-73.0064 452.346,-74.6947 448.091,-68.8726 455.102,-67.1843 459.356,-73.0064"/>
<text text-anchor="middle" x="616" y="-123" font-family="Helvetica,sans-Serif" font-size="10.00"> +links</text>
</g>
</g>
</svg>
        <g id="navigator" transform="translate(0 0)" fill="#404254">
                <rect fill="#f2f5e9" fill-opacity="0.5" stroke="#606060" stroke-width=".5" x="0" y="0" width="60" height="60"/>
                <use id="zoomplus" xlink:href="#zoomPlus" x="17" y="9" onmousedown="handleZoom(evt,'in')"/>
                <use id="zoomminus" xlink:href="#zoomMin" x="42" y="9" onmousedown="handleZoom(evt,'out')"/>
                <use id="reset" xlink:href="#resetDef" x="30" y="36" onmousedown="handleReset()"/>
                <g id="arrowUp" xlink:href="#dirArrow" transform="translate(30 24)" onmousedown="handlePan(0,-1)">
                  <use xlink:href="#rim" fill="#404040">
                        <set attributeName="fill" to="#808080" begin="arrowUp.mouseover" end="arrowUp.mouseout"/>
                  </use>
                  <path fill="none" stroke="white" stroke-width="1.5" d="M0,-3.0v7 M-2.5,-0.5L0,-3.0L2.5,-0.5"/>
                </g>
                <g id="arrowRight" xlink:href="#dirArrow" transform="rotate(90) translate(36 -43)" onmousedown="handlePan(1,0)">
                  <use xlink:href="#rim" fill="#404040">
                        <set attributeName="fill" to="#808080" begin="arrowRight.mouseover" end="arrowRight.mouseout"/>
                  </use>
                  <path fill="none" stroke="white" stroke-width="1.5" d="M0,-3.0v7 M-2.5,-0.5L0,-3.0L2.5,-0.5"/>
                </g>
                <g id="arrowDown" xlink:href="#dirArrow" transform="rotate(180) translate(-30 -48)" onmousedown="handlePan(0,1)">
                  <use xlink:href="#rim" fill="#404040">
                        <set attributeName="fill" to="#808080" begin="arrowDown.mouseover" end="arrowDown.mouseout"/>
                  </use>
                  <path fill="none" stroke="white" stroke-width="1.5" d="M0,-3.0v7 M-2.5,-0.5L0,-3.0L2.5,-0.5"/>
                </g>
                <g id="arrowLeft" xlink:href="#dirArrow" transform="rotate(270) translate(-36 17)" onmousedown="handlePan(-1,0)">
                  <use xlink:href="#rim" fill="#404040">
                        <set attributeName="fill" to="#808080" begin="arrowLeft.mouseover" end="arrowLeft.mouseout"/>
                  </use>
                  <path fill="none" stroke="white" stroke-width="1.5" d="M0,-3.0v7 M-2.5,-0.5L0,-3.0L2.5,-0.5"/>
                </g>
        </g>
        <svg viewBox="0 0 15 15" width="100%" height="30px" preserveAspectRatio="xMaxYMin meet">
         <g id="arrow_out" transform="scale(0.3 0.3)">
          <a xlink:href="structo2_1_1itsmft_1_1RUDecodeData__coll__graph_org.svg" target="_base">
           <rect id="button" ry="5" rx="5" y="6" x="6" height="38" width="38"
                fill="#f2f5e9" fill-opacity="0.5" stroke="#606060" stroke-width="1.0"/>
           <path id="arrow"
             d="M 11.500037,31.436501 C 11.940474,20.09759 22.043105,11.32322 32.158766,21.979434 L 37.068811,17.246167 C 37.068811,17.246167 37.088388,32 37.088388,32 L 22.160133,31.978069 C 22.160133,31.978069 26.997745,27.140456 26.997745,27.140456 C 18.528582,18.264221 13.291696,25.230495 11.500037,31.436501 z"
             style="fill:#404040;"/>
          </a>
         </g>
        </svg>
</svg>
