<?xml version="1.0" encoding="UTF-8" standalone="no"?>
<!DOCTYPE svg PUBLIC "-//W3C//DTD SVG 1.1//EN"
 "http://www.w3.org/Graphics/SVG/1.1/DTD/svg11.dtd">
<!-- Generated by graphviz version 2.38.0 (20140413.2041)
 -->
<!-- Title: ROOT::Math::PositionVector3D&lt; CoordSystem, Tag &gt; Pages: 1 -->
<!--zoomable 424 -->
<svg id="main" version="1.1" xmlns="http://www.w3.org/2000/svg" xmlns:xlink="http://www.w3.org/1999/xlink" xml:space="preserve" onload="init(evt)">
<style type="text/css"><![CDATA[
.edge:hover path { stroke: red; }
.edge:hover polygon { stroke: red; fill: red; }
]]></style>
<script type="text/javascript"><![CDATA[
var edges = document.getElementsByTagName('g');
if (edges && edges.length) {
  for (var i=0;i<edges.length;i++) {
    if (edges[i].id.substr(0,4)=='edge') {
      edges[i].setAttribute('class','edge');
    }
  }
}
]]></script>
        <defs>
                <circle id="rim" cx="0" cy="0" r="7"/>
                <circle id="rim2" cx="0" cy="0" r="3.5"/>
                <g id="zoomPlus">
                        <use xlink:href="#rim" fill="#404040">
                                <set attributeName="fill" to="#808080" begin="zoomplus.mouseover" end="zoomplus.mouseout"/>
                        </use>
                        <path d="M-4,0h8M0,-4v8" fill="none" stroke="white" stroke-width="1.5" pointer-events="none"/>
                </g>
                <g id="zoomMin">
                        <use xlink:href="#rim" fill="#404040">
                                <set attributeName="fill" to="#808080" begin="zoomminus.mouseover" end="zoomminus.mouseout"/>
                        </use>
                        <path d="M-4,0h8" fill="none" stroke="white" stroke-width="1.5" pointer-events="none"/>
                </g>
                <g id="dirArrow">
                        <path fill="none" stroke="white" stroke-width="1.5" d="M0,-3.0v7 M-2.5,-0.5L0,-3.0L2.5,-0.5"/>
                </g>
               <g id="resetDef">
                       <use xlink:href="#rim2" fill="#404040">
                               <set attributeName="fill" to="#808080" begin="reset.mouseover" end="reset.mouseout"/>
                       </use>
               </g>
        </defs>

<script type="text/javascript">
var viewWidth = 636;
var viewHeight = 424;
var sectionId = 'dynsection-0';
</script>
<script xlink:href="../../svgpan.js"/>
<svg id="graph" class="graph">
<g id="viewport">
<title>ROOT::Math::PositionVector3D&lt; CoordSystem, Tag &gt;</title>
<!-- Node1 -->
<g id="node1" class="node"><title>Node1</title>
<polygon fill="#bfbfbf" stroke="black" points="231,-347.5 231,-415.5 379,-415.5 379,-347.5 231,-347.5"/>
<text text-anchor="start" x="239" y="-403.5" font-family="Helvetica,sans-Serif" font-size="10.00">ROOT::Math::PositionVector3</text>
<text text-anchor="middle" x="305" y="-392.5" font-family="Helvetica,sans-Serif" font-size="10.00">D&lt; CoordSystem, Tag &gt;</text>
<polyline fill="none" stroke="black" points="231,-385.5 379,-385.5 "/>
<text text-anchor="middle" x="305" y="-373.5" font-family="Helvetica,sans-Serif" font-size="10.00"> </text>
<polyline fill="none" stroke="black" points="231,-366.5 379,-366.5 "/>
<text text-anchor="middle" x="305" y="-354.5" font-family="Helvetica,sans-Serif" font-size="10.00"> </text>
</g>
<!-- Node2 -->
<g id="node2" class="node"><title>Node2</title>
<g id="a_node2"><a xlink:href="../../d9/d70/classo2_1_1emcal_1_1Cluster.html" target="_top" xlink:title="EMCAL Cluster. ">
<polygon fill="none" stroke="black" points="0,-0.5 0,-299.5 130,-299.5 130,-0.5 0,-0.5"/>
<text text-anchor="start" x="8" y="-287.5" font-family="Helvetica,sans-Serif" font-size="10.00">o2::emcal::Cluster</text>
<text text-anchor="middle" x="65" y="-276.5" font-family="Helvetica,sans-Serif" font-size="10.00">&lt; Float16_t &gt;</text>
<polyline fill="none" stroke="black" points="0,-269.5 130,-269.5 "/>
<text text-anchor="middle" x="65" y="-257.5" font-family="Helvetica,sans-Serif" font-size="10.00"> </text>
<polyline fill="none" stroke="black" points="0,-250.5 130,-250.5 "/>
<text text-anchor="start" x="8" y="-238.5" font-family="Helvetica,sans-Serif" font-size="10.00">+ Cluster()</text>
<text text-anchor="start" x="8" y="-227.5" font-family="Helvetica,sans-Serif" font-size="10.00">+ Cluster()</text>
<text text-anchor="start" x="8" y="-216.5" font-family="Helvetica,sans-Serif" font-size="10.00">+ Cluster()</text>
<text text-anchor="start" x="8" y="-205.5" font-family="Helvetica,sans-Serif" font-size="10.00">+ ~Cluster()</text>
<text text-anchor="start" x="8" y="-194.5" font-family="Helvetica,sans-Serif" font-size="10.00">+ getM02()</text>
<text text-anchor="start" x="8" y="-183.5" font-family="Helvetica,sans-Serif" font-size="10.00">+ getM20()</text>
<text text-anchor="start" x="8" y="-172.5" font-family="Helvetica,sans-Serif" font-size="10.00">+ getDispersion()</text>
<text text-anchor="start" x="8" y="-161.5" font-family="Helvetica,sans-Serif" font-size="10.00">+ getDistanceToBadCell()</text>
<text text-anchor="start" x="8" y="-150.5" font-family="Helvetica,sans-Serif" font-size="10.00">+ isExotic()</text>
<text text-anchor="start" x="8" y="-139.5" font-family="Helvetica,sans-Serif" font-size="10.00">+ getNCells()</text>
<text text-anchor="start" x="8" y="-128.5" font-family="Helvetica,sans-Serif" font-size="10.00">+ getCellIndexFirst()</text>
<text text-anchor="start" x="8" y="-117.5" font-family="Helvetica,sans-Serif" font-size="10.00">+ getCellIndexRange()</text>
<text text-anchor="start" x="8" y="-106.5" font-family="Helvetica,sans-Serif" font-size="10.00">+ setIsExotic()</text>
<text text-anchor="start" x="8" y="-95.5" font-family="Helvetica,sans-Serif" font-size="10.00">+ setM02()</text>
<text text-anchor="start" x="8" y="-84.5" font-family="Helvetica,sans-Serif" font-size="10.00">+ setM20()</text>
<text text-anchor="start" x="8" y="-73.5" font-family="Helvetica,sans-Serif" font-size="10.00">+ setDispersion()</text>
<text text-anchor="start" x="8" y="-62.5" font-family="Helvetica,sans-Serif" font-size="10.00">+ setDistanceToBadCell()</text>
<text text-anchor="start" x="8" y="-51.5" font-family="Helvetica,sans-Serif" font-size="10.00">+ setCellIndices()</text>
<text text-anchor="start" x="8" y="-40.5" font-family="Helvetica,sans-Serif" font-size="10.00">+ setFirstCell()</text>
<text text-anchor="start" x="8" y="-29.5" font-family="Helvetica,sans-Serif" font-size="10.00">+ setNCells()</text>
<text text-anchor="start" x="8" y="-18.5" font-family="Helvetica,sans-Serif" font-size="10.00">+ getMomentum()</text>
<text text-anchor="start" x="8" y="-7.5" font-family="Helvetica,sans-Serif" font-size="10.00">+ PrintStream()</text>
</a>
</g>
</g>
<!-- Node1&#45;&gt;Node2 -->
<g id="edge1" class="edge"><title>Node1&#45;&gt;Node2</title>
<path fill="none" stroke="midnightblue" d="M221.457,-352.765C192.707,-340.121 161.997,-322.781 139,-300 135.922,-296.951 132.951,-293.748 130.084,-290.419"/>
<polygon fill="none" stroke="midnightblue" points="220.138,-356.008 230.71,-356.706 222.881,-349.568 220.138,-356.008"/>
</g>
<!-- Node3 -->
<g id="node3" class="node"><title>Node3</title>
<g id="a_node3"><a xlink:href="../../d5/daf/classROOT_1_1Math_1_1PositionVector3D.html" target="_top" xlink:title="{ROOT::Math::PositionVector3\lD\&lt; float \&gt;\n||}">
<polygon fill="none" stroke="black" points="148,-116 148,-184 296,-184 296,-116 148,-116"/>
<text text-anchor="start" x="156" y="-172" font-family="Helvetica,sans-Serif" font-size="10.00">ROOT::Math::PositionVector3</text>
<text text-anchor="middle" x="222" y="-161" font-family="Helvetica,sans-Serif" font-size="10.00">D&lt; float &gt;</text>
<polyline fill="none" stroke="black" points="148,-154 296,-154 "/>
<text text-anchor="middle" x="222" y="-142" font-family="Helvetica,sans-Serif" font-size="10.00"> </text>
<polyline fill="none" stroke="black" points="148,-135 296,-135 "/>
<text text-anchor="middle" x="222" y="-123" font-family="Helvetica,sans-Serif" font-size="10.00"> </text>
</a>
</g>
</g>
<!-- Node1&#45;&gt;Node3 -->
<g id="edge2" class="edge"><title>Node1&#45;&gt;Node3</title>
<path fill="none" stroke="orange" d="M289.437,-337.467C273.344,-292.968 248.565,-224.454 233.949,-184.039"/>
<polygon fill="orange" stroke="orange" points="286.239,-338.915 292.931,-347.129 292.821,-336.534 286.239,-338.915"/>
<text text-anchor="middle" x="305" y="-321" font-family="Helvetica,sans-Serif" font-size="10.00"> &lt; float &gt;</text>
</g>
<!-- Node4 -->
<g id="node4" class="node"><title>Node4</title>
<g id="a_node4"><a xlink:href="../../d5/daf/classROOT_1_1Math_1_1PositionVector3D.html" target="_top" xlink:title="{ROOT::Math::PositionVector3\lD\&lt; T \&gt;\n||}">
<polygon fill="none" stroke="black" points="314,-116 314,-184 462,-184 462,-116 314,-116"/>
<text text-anchor="start" x="322" y="-172" font-family="Helvetica,sans-Serif" font-size="10.00">ROOT::Math::PositionVector3</text>
<text text-anchor="middle" x="388" y="-161" font-family="Helvetica,sans-Serif" font-size="10.00">D&lt; T &gt;</text>
<polyline fill="none" stroke="black" points="314,-154 462,-154 "/>
<text text-anchor="middle" x="388" y="-142" font-family="Helvetica,sans-Serif" font-size="10.00"> </text>
<polyline fill="none" stroke="black" points="314,-135 462,-135 "/>
<text text-anchor="middle" x="388" y="-123" font-family="Helvetica,sans-Serif" font-size="10.00"> </text>
</a>
</g>
</g>
<!-- Node1&#45;&gt;Node4 -->
<g id="edge3" class="edge"><title>Node1&#45;&gt;Node4</title>
<path fill="none" stroke="orange" d="M325.355,-337.805C326.626,-334.842 327.854,-331.886 329,-329 348.709,-279.379 367.379,-220.283 378.253,-184.217"/>
<polygon fill="orange" stroke="orange" points="322.033,-336.664 321.192,-347.226 328.435,-339.494 322.033,-336.664"/>
<text text-anchor="middle" x="347" y="-321" font-family="Helvetica,sans-Serif" font-size="10.00"> &lt; T &gt;</text>
</g>
<!-- Node5 -->
<g id="node5" class="node"><title>Node5</title>
<g id="a_node5"><a xlink:href="../../d5/daf/classROOT_1_1Math_1_1PositionVector3D.html" target="_top" xlink:title="{ROOT::Math::PositionVector3\lD\&lt; Float_t \&gt;\n||}">
<polygon fill="none" stroke="black" points="480,-116 480,-184 628,-184 628,-116 480,-116"/>
<text text-anchor="start" x="488" y="-172" font-family="Helvetica,sans-Serif" font-size="10.00">ROOT::Math::PositionVector3</text>
<text text-anchor="middle" x="554" y="-161" font-family="Helvetica,sans-Serif" font-size="10.00">D&lt; Float_t &gt;</text>
<polyline fill="none" stroke="black" points="480,-154 628,-154 "/>
<text text-anchor="middle" x="554" y="-142" font-family="Helvetica,sans-Serif" font-size="10.00"> </text>
<polyline fill="none" stroke="black" points="480,-135 628,-135 "/>
<text text-anchor="middle" x="554" y="-123" font-family="Helvetica,sans-Serif" font-size="10.00"> </text>
</a>
</g>
</g>
<!-- Node1&#45;&gt;Node5 -->
<g id="edge4" class="edge"><title>Node1&#45;&gt;Node5</title>
<path fill="none" stroke="orange" d="M388.343,-351.99C416.924,-339.301 447.576,-322.131 471,-300 505.545,-267.361 529.398,-217.081 542.388,-184.109"/>
<polygon fill="orange" stroke="orange" points="386.946,-348.781 379.148,-355.953 389.717,-355.209 386.946,-348.781"/>
<text text-anchor="middle" x="473" y="-321" font-family="Helvetica,sans-Serif" font-size="10.00"> &lt; Float_t &gt;</text>
</g>
</g>
</svg>
        <g id="navigator" transform="translate(0 0)" fill="#404254">
                <rect fill="#f2f5e9" fill-opacity="0.5" stroke="#606060" stroke-width=".5" x="0" y="0" width="60" height="60"/>
                <use id="zoomplus" xlink:href="#zoomPlus" x="17" y="9" onmousedown="handleZoom(evt,'in')"/>
                <use id="zoomminus" xlink:href="#zoomMin" x="42" y="9" onmousedown="handleZoom(evt,'out')"/>
                <use id="reset" xlink:href="#resetDef" x="30" y="36" onmousedown="handleReset()"/>
                <g id="arrowUp" xlink:href="#dirArrow" transform="translate(30 24)" onmousedown="handlePan(0,-1)">
                  <use xlink:href="#rim" fill="#404040">
                        <set attributeName="fill" to="#808080" begin="arrowUp.mouseover" end="arrowUp.mouseout"/>
                  </use>
                  <path fill="none" stroke="white" stroke-width="1.5" d="M0,-3.0v7 M-2.5,-0.5L0,-3.0L2.5,-0.5"/>
                </g>
                <g id="arrowRight" xlink:href="#dirArrow" transform="rotate(90) translate(36 -43)" onmousedown="handlePan(1,0)">
                  <use xlink:href="#rim" fill="#404040">
                        <set attributeName="fill" to="#808080" begin="arrowRight.mouseover" end="arrowRight.mouseout"/>
                  </use>
                  <path fill="none" stroke="white" stroke-width="1.5" d="M0,-3.0v7 M-2.5,-0.5L0,-3.0L2.5,-0.5"/>
                </g>
                <g id="arrowDown" xlink:href="#dirArrow" transform="rotate(180) translate(-30 -48)" onmousedown="handlePan(0,1)">
                  <use xlink:href="#rim" fill="#404040">
                        <set attributeName="fill" to="#808080" begin="arrowDown.mouseover" end="arrowDown.mouseout"/>
                  </use>
                  <path fill="none" stroke="white" stroke-width="1.5" d="M0,-3.0v7 M-2.5,-0.5L0,-3.0L2.5,-0.5"/>
                </g>
                <g id="arrowLeft" xlink:href="#dirArrow" transform="rotate(270) translate(-36 17)" onmousedown="handlePan(-1,0)">
                  <use xlink:href="#rim" fill="#404040">
                        <set attributeName="fill" to="#808080" begin="arrowLeft.mouseover" end="arrowLeft.mouseout"/>
                  </use>
                  <path fill="none" stroke="white" stroke-width="1.5" d="M0,-3.0v7 M-2.5,-0.5L0,-3.0L2.5,-0.5"/>
                </g>
        </g>
        <svg viewBox="0 0 15 15" width="100%" height="30px" preserveAspectRatio="xMaxYMin meet">
         <g id="arrow_out" transform="scale(0.3 0.3)">
          <a xlink:href="classROOT_1_1Math_1_1PositionVector3D__inherit__graph_org.svg" target="_base">
           <rect id="button" ry="5" rx="5" y="6" x="6" height="38" width="38"
                fill="#f2f5e9" fill-opacity="0.5" stroke="#606060" stroke-width="1.0"/>
           <path id="arrow"
             d="M 11.500037,31.436501 C 11.940474,20.09759 22.043105,11.32322 32.158766,21.979434 L 37.068811,17.246167 C 37.068811,17.246167 37.088388,32 37.088388,32 L 22.160133,31.978069 C 22.160133,31.978069 26.997745,27.140456 26.997745,27.140456 C 18.528582,18.264221 13.291696,25.230495 11.500037,31.436501 z"
             style="fill:#404040;"/>
          </a>
         </g>
        </svg>
</svg>
