<?xml version="1.0" encoding="UTF-8" standalone="no"?>
<!DOCTYPE svg PUBLIC "-//W3C//DTD SVG 1.1//EN"
 "http://www.w3.org/Graphics/SVG/1.1/DTD/svg11.dtd">
<!-- Generated by graphviz version 2.38.0 (20140413.2041)
 -->
<!-- Title: /home/travis/build/AliceO2Group/AliceO2/Utilities/aliceHLTwrapper/include/aliceHLTwrapper/MessageFormat.h Pages: 1 -->
<svg width="594pt" height="261pt"
 viewBox="0.00 0.00 594.00 261.00" xmlns="http://www.w3.org/2000/svg" xmlns:xlink="http://www.w3.org/1999/xlink">
<g id="graph0" class="graph" transform="scale(1 1) rotate(0) translate(4 257)">
<title>/home/travis/build/AliceO2Group/AliceO2/Utilities/aliceHLTwrapper/include/aliceHLTwrapper/MessageFormat.h</title>
<!-- Node1 -->
<g id="node1" class="node"><title>Node1</title>
<polygon fill="#bfbfbf" stroke="black" points="294,-189.5 294,-252.5 423,-252.5 423,-189.5 294,-189.5"/>
<text text-anchor="start" x="302" y="-240.5" font-family="Helvetica,sans-Serif" font-size="10.00">/home/travis/build</text>
<text text-anchor="start" x="302" y="-229.5" font-family="Helvetica,sans-Serif" font-size="10.00">/AliceO2Group/AliceO2</text>
<text text-anchor="start" x="302" y="-218.5" font-family="Helvetica,sans-Serif" font-size="10.00">/Utilities/aliceHLTwrapper</text>
<text text-anchor="start" x="302" y="-207.5" font-family="Helvetica,sans-Serif" font-size="10.00">/include/aliceHLTwrapper</text>
<text text-anchor="middle" x="358.5" y="-196.5" font-family="Helvetica,sans-Serif" font-size="10.00">/MessageFormat.h</text>
</g>
<!-- Node2 -->
<g id="node2" class="node"><title>Node2</title>
<g id="a_node2"><a xlink:href="../../d0/da1/Component_8h.html" target="_top" xlink:title="/home/travis/build\l/AliceO2Group/AliceO2\l/Utilities/aliceHLTwrapper\l/include/aliceHLTwrapper\l/Component.h">
<polygon fill="none" stroke="black" points="147,-89.5 147,-152.5 276,-152.5 276,-89.5 147,-89.5"/>
<text text-anchor="start" x="155" y="-140.5" font-family="Helvetica,sans-Serif" font-size="10.00">/home/travis/build</text>
<text text-anchor="start" x="155" y="-129.5" font-family="Helvetica,sans-Serif" font-size="10.00">/AliceO2Group/AliceO2</text>
<text text-anchor="start" x="155" y="-118.5" font-family="Helvetica,sans-Serif" font-size="10.00">/Utilities/aliceHLTwrapper</text>
<text text-anchor="start" x="155" y="-107.5" font-family="Helvetica,sans-Serif" font-size="10.00">/include/aliceHLTwrapper</text>
<text text-anchor="middle" x="211.5" y="-96.5" font-family="Helvetica,sans-Serif" font-size="10.00">/Component.h</text>
</a>
</g>
</g>
<!-- Node1&#45;&gt;Node2 -->
<g id="edge1" class="edge"><title>Node1&#45;&gt;Node2</title>
<path fill="none" stroke="midnightblue" d="M304.023,-183.682C288.708,-173.472 272.209,-162.473 257.445,-152.63"/>
<polygon fill="midnightblue" stroke="midnightblue" points="302.13,-186.626 312.392,-189.261 306.013,-180.802 302.13,-186.626"/>
</g>
<!-- Node6 -->
<g id="node6" class="node"><title>Node6</title>
<g id="a_node6"><a xlink:href="../../d6/d62/MessageFormat_8cxx.html" target="_top" xlink:title="/home/travis/build\l/AliceO2Group/AliceO2\l/Utilities/aliceHLTwrapper\l/src/MessageFormat.cxx">
<polygon fill="none" stroke="black" points="294,-95 294,-147 423,-147 423,-95 294,-95"/>
<text text-anchor="start" x="302" y="-135" font-family="Helvetica,sans-Serif" font-size="10.00">/home/travis/build</text>
<text text-anchor="start" x="302" y="-124" font-family="Helvetica,sans-Serif" font-size="10.00">/AliceO2Group/AliceO2</text>
<text text-anchor="start" x="302" y="-113" font-family="Helvetica,sans-Serif" font-size="10.00">/Utilities/aliceHLTwrapper</text>
<text text-anchor="middle" x="358.5" y="-102" font-family="Helvetica,sans-Serif" font-size="10.00">/src/MessageFormat.cxx</text>
</a>
</g>
</g>
<!-- Node1&#45;&gt;Node6 -->
<g id="edge5" class="edge"><title>Node1&#45;&gt;Node6</title>
<path fill="none" stroke="midnightblue" d="M358.5,-179.079C358.5,-168.21 358.5,-156.794 358.5,-147.054"/>
<polygon fill="midnightblue" stroke="midnightblue" points="355,-179.261 358.5,-189.261 362,-179.261 355,-179.261"/>
</g>
<!-- Node7 -->
<g id="node7" class="node"><title>Node7</title>
<g id="a_node7"><a xlink:href="../../d5/db0/testMessageFormat_8cxx.html" target="_top" xlink:title="/home/travis/build\l/AliceO2Group/AliceO2\l/Utilities/aliceHLTwrapper\l/test/testMessageFormat.cxx">
<polygon fill="none" stroke="black" points="441,-95 441,-147 586,-147 586,-95 441,-95"/>
<text text-anchor="start" x="449" y="-135" font-family="Helvetica,sans-Serif" font-size="10.00">/home/travis/build</text>
<text text-anchor="start" x="449" y="-124" font-family="Helvetica,sans-Serif" font-size="10.00">/AliceO2Group/AliceO2</text>
<text text-anchor="start" x="449" y="-113" font-family="Helvetica,sans-Serif" font-size="10.00">/Utilities/aliceHLTwrapper</text>
<text text-anchor="middle" x="513.5" y="-102" font-family="Helvetica,sans-Serif" font-size="10.00">/test/testMessageFormat.cxx</text>
</a>
</g>
</g>
<!-- Node1&#45;&gt;Node7 -->
<g id="edge6" class="edge"><title>Node1&#45;&gt;Node7</title>
<path fill="none" stroke="midnightblue" d="M415.581,-183.91C434.956,-171.66 456.165,-158.251 473.874,-147.054"/>
<polygon fill="midnightblue" stroke="midnightblue" points="413.7,-180.959 407.118,-189.261 417.44,-186.875 413.7,-180.959"/>
</g>
<!-- Node3 -->
<g id="node3" class="node"><title>Node3</title>
<g id="a_node3"><a xlink:href="../../d8/dd8/Component_8cxx.html" target="_top" xlink:title="/home/travis/build\l/AliceO2Group/AliceO2\l/Utilities/aliceHLTwrapper\l/src/Component.cxx">
<polygon fill="none" stroke="black" points="0,-0.5 0,-52.5 129,-52.5 129,-0.5 0,-0.5"/>
<text text-anchor="start" x="8" y="-40.5" font-family="Helvetica,sans-Serif" font-size="10.00">/home/travis/build</text>
<text text-anchor="start" x="8" y="-29.5" font-family="Helvetica,sans-Serif" font-size="10.00">/AliceO2Group/AliceO2</text>
<text text-anchor="start" x="8" y="-18.5" font-family="Helvetica,sans-Serif" font-size="10.00">/Utilities/aliceHLTwrapper</text>
<text text-anchor="middle" x="64.5" y="-7.5" font-family="Helvetica,sans-Serif" font-size="10.00">/src/Component.cxx</text>
</a>
</g>
</g>
<!-- Node2&#45;&gt;Node3 -->
<g id="edge2" class="edge"><title>Node2&#45;&gt;Node3</title>
<path fill="none" stroke="midnightblue" d="M154.397,-84.0678C137.781,-73.6123 119.987,-62.4156 104.652,-52.7655"/>
<polygon fill="midnightblue" stroke="midnightblue" points="152.631,-87.0921 162.959,-89.4557 156.36,-81.1675 152.631,-87.0921"/>
</g>
<!-- Node4 -->
<g id="node4" class="node"><title>Node4</title>
<g id="a_node4"><a xlink:href="../../de/d0e/runComponent_8cxx.html" target="_top" xlink:title="/home/travis/build\l/AliceO2Group/AliceO2\l/Utilities/aliceHLTwrapper\l/src/runComponent.cxx">
<polygon fill="none" stroke="black" points="147,-0.5 147,-52.5 276,-52.5 276,-0.5 147,-0.5"/>
<text text-anchor="start" x="155" y="-40.5" font-family="Helvetica,sans-Serif" font-size="10.00">/home/travis/build</text>
<text text-anchor="start" x="155" y="-29.5" font-family="Helvetica,sans-Serif" font-size="10.00">/AliceO2Group/AliceO2</text>
<text text-anchor="start" x="155" y="-18.5" font-family="Helvetica,sans-Serif" font-size="10.00">/Utilities/aliceHLTwrapper</text>
<text text-anchor="middle" x="211.5" y="-7.5" font-family="Helvetica,sans-Serif" font-size="10.00">/src/runComponent.cxx</text>
</a>
</g>
</g>
<!-- Node2&#45;&gt;Node4 -->
<g id="edge3" class="edge"><title>Node2&#45;&gt;Node4</title>
<path fill="none" stroke="midnightblue" d="M211.5,-79.4229C211.5,-70.3585 211.5,-60.999 211.5,-52.7655"/>
<polygon fill="midnightblue" stroke="midnightblue" points="208,-79.4556 211.5,-89.4557 215,-79.4557 208,-79.4556"/>
</g>
<!-- Node5 -->
<g id="node5" class="node"><title>Node5</title>
<g id="a_node5"><a xlink:href="../../dd/d50/WrapperDevice_8cxx.html" target="_top" xlink:title="/home/travis/build\l/AliceO2Group/AliceO2\l/Utilities/aliceHLTwrapper\l/src/WrapperDevice.cxx">
<polygon fill="none" stroke="black" points="294,-0.5 294,-52.5 423,-52.5 423,-0.5 294,-0.5"/>
<text text-anchor="start" x="302" y="-40.5" font-family="Helvetica,sans-Serif" font-size="10.00">/home/travis/build</text>
<text text-anchor="start" x="302" y="-29.5" font-family="Helvetica,sans-Serif" font-size="10.00">/AliceO2Group/AliceO2</text>
<text text-anchor="start" x="302" y="-18.5" font-family="Helvetica,sans-Serif" font-size="10.00">/Utilities/aliceHLTwrapper</text>
<text text-anchor="middle" x="358.5" y="-7.5" font-family="Helvetica,sans-Serif" font-size="10.00">/src/WrapperDevice.cxx</text>
</a>
</g>
</g>
<!-- Node2&#45;&gt;Node5 -->
<g id="edge4" class="edge"><title>Node2&#45;&gt;Node5</title>
<path fill="none" stroke="midnightblue" d="M268.603,-84.0678C285.219,-73.6123 303.013,-62.4156 318.348,-52.7655"/>
<polygon fill="midnightblue" stroke="midnightblue" points="266.64,-81.1675 260.041,-89.4557 270.369,-87.0921 266.64,-81.1675"/>
</g>
</g>
</svg>
