<?xml version="1.0" encoding="UTF-8" standalone="no"?>
<!DOCTYPE svg PUBLIC "-//W3C//DTD SVG 1.1//EN"
 "http://www.w3.org/Graphics/SVG/1.1/DTD/svg11.dtd">
<!-- Generated by graphviz version 2.38.0 (20140413.2041)
 -->
<!-- Title: /home/travis/build/AliceO2Group/AliceO2/Detectors/EMCAL/base/src/Mapper.cxx Pages: 1 -->
<svg width="851pt" height="229pt"
 viewBox="0.00 0.00 850.56 229.00" xmlns="http://www.w3.org/2000/svg" xmlns:xlink="http://www.w3.org/1999/xlink">
<g id="graph0" class="graph" transform="scale(1 1) rotate(0) translate(4 225)">
<title>/home/travis/build/AliceO2Group/AliceO2/Detectors/EMCAL/base/src/Mapper.cxx</title>
<!-- Node1 -->
<g id="node1" class="node"><title>Node1</title>
<polygon fill="#bfbfbf" stroke="black" points="298,-168.5 298,-220.5 422,-220.5 422,-168.5 298,-168.5"/>
<text text-anchor="start" x="306" y="-208.5" font-family="Helvetica,sans-Serif" font-size="10.00">/home/travis/build</text>
<text text-anchor="start" x="306" y="-197.5" font-family="Helvetica,sans-Serif" font-size="10.00">/AliceO2Group/AliceO2</text>
<text text-anchor="start" x="306" y="-186.5" font-family="Helvetica,sans-Serif" font-size="10.00">/Detectors/EMCAL/base</text>
<text text-anchor="middle" x="360" y="-175.5" font-family="Helvetica,sans-Serif" font-size="10.00">/src/Mapper.cxx</text>
</g>
<!-- Node2 -->
<g id="node2" class="node"><title>Node2</title>
<polygon fill="none" stroke="#bfbfbf" points="210,-112.5 210,-131.5 260,-131.5 260,-112.5 210,-112.5"/>
<text text-anchor="middle" x="235" y="-119.5" font-family="Helvetica,sans-Serif" font-size="10.00">fstream</text>
</g>
<!-- Node1&#45;&gt;Node2 -->
<g id="edge1" class="edge"><title>Node1&#45;&gt;Node2</title>
<path fill="none" stroke="midnightblue" d="M315.578,-168.446C296.454,-157.66 274.861,-145.481 258.844,-136.448"/>
<polygon fill="midnightblue" stroke="midnightblue" points="260.548,-133.391 250.119,-131.527 257.11,-139.488 260.548,-133.391"/>
</g>
<!-- Node3 -->
<g id="node3" class="node"><title>Node3</title>
<polygon fill="none" stroke="#bfbfbf" points="278,-112.5 278,-131.5 332,-131.5 332,-112.5 278,-112.5"/>
<text text-anchor="middle" x="305" y="-119.5" font-family="Helvetica,sans-Serif" font-size="10.00">iostream</text>
</g>
<!-- Node1&#45;&gt;Node3 -->
<g id="edge2" class="edge"><title>Node1&#45;&gt;Node3</title>
<path fill="none" stroke="midnightblue" d="M340.454,-168.446C333.029,-158.929 324.758,-148.327 318.074,-139.758"/>
<polygon fill="midnightblue" stroke="midnightblue" points="320.694,-137.427 311.784,-131.695 315.175,-141.733 320.694,-137.427"/>
</g>
<!-- Node4 -->
<g id="node4" class="node"><title>Node4</title>
<polygon fill="none" stroke="#bfbfbf" points="0,-56.5 0,-75.5 52,-75.5 52,-56.5 0,-56.5"/>
<text text-anchor="middle" x="26" y="-63.5" font-family="Helvetica,sans-Serif" font-size="10.00">sstream</text>
</g>
<!-- Node1&#45;&gt;Node4 -->
<g id="edge3" class="edge"><title>Node1&#45;&gt;Node4</title>
<path fill="none" stroke="midnightblue" d="M361.129,-168.468C360.508,-150.155 356.424,-126.135 341,-112 330.781,-102.635 142.907,-80.2879 62.2707,-71.0763"/>
<polygon fill="midnightblue" stroke="midnightblue" points="62.4153,-67.5703 52.0838,-69.9174 61.624,-74.5254 62.4153,-67.5703"/>
</g>
<!-- Node5 -->
<g id="node5" class="node"><title>Node5</title>
<polygon fill="none" stroke="#bfbfbf" points="523.5,-112.5 523.5,-131.5 588.5,-131.5 588.5,-112.5 523.5,-112.5"/>
<text text-anchor="middle" x="556" y="-119.5" font-family="Helvetica,sans-Serif" font-size="10.00">TSystem.h</text>
</g>
<!-- Node1&#45;&gt;Node5 -->
<g id="edge4" class="edge"><title>Node1&#45;&gt;Node5</title>
<path fill="none" stroke="midnightblue" d="M422.016,-171.193C455.377,-159.193 495.2,-144.869 522.715,-134.972"/>
<polygon fill="midnightblue" stroke="midnightblue" points="524.035,-138.217 532.26,-131.539 521.666,-131.63 524.035,-138.217"/>
</g>
<!-- Node6 -->
<g id="node6" class="node"><title>Node6</title>
<g id="a_node6"><a xlink:href="../../d1/d7a/EMCAL_2base_2include_2EMCALBase_2Mapper_8h.html" target="_top" xlink:title="EMCALBase/Mapper.h">
<polygon fill="none" stroke="black" points="388.5,-112.5 388.5,-131.5 505.5,-131.5 505.5,-112.5 388.5,-112.5"/>
<text text-anchor="middle" x="447" y="-119.5" font-family="Helvetica,sans-Serif" font-size="10.00">EMCALBase/Mapper.h</text>
</a>
</g>
</g>
<!-- Node1&#45;&gt;Node6 -->
<g id="edge5" class="edge"><title>Node1&#45;&gt;Node6</title>
<path fill="none" stroke="midnightblue" d="M390.918,-168.446C403.404,-158.328 417.404,-146.983 428.292,-138.16"/>
<polygon fill="midnightblue" stroke="midnightblue" points="430.704,-140.711 436.269,-131.695 426.296,-135.272 430.704,-140.711"/>
</g>
<!-- Node6&#45;&gt;Node4 -->
<g id="edge12" class="edge"><title>Node6&#45;&gt;Node4</title>
<path fill="none" stroke="midnightblue" d="M388.433,-113.746C383.551,-113.152 378.691,-112.563 374,-112 237.162,-95.568 201.861,-99.1586 66,-76 64.737,-75.7847 63.4538,-75.5552 62.1596,-75.3145"/>
<polygon fill="midnightblue" stroke="midnightblue" points="62.6662,-71.8463 52.1718,-73.302 61.2834,-78.7084 62.6662,-71.8463"/>
</g>
<!-- Node7 -->
<g id="node7" class="node"><title>Node7</title>
<polygon fill="none" stroke="#bfbfbf" points="752,-56.5 752,-75.5 790,-75.5 790,-56.5 752,-56.5"/>
<text text-anchor="middle" x="771" y="-63.5" font-family="Helvetica,sans-Serif" font-size="10.00">array</text>
</g>
<!-- Node6&#45;&gt;Node7 -->
<g id="edge6" class="edge"><title>Node6&#45;&gt;Node7</title>
<path fill="none" stroke="midnightblue" d="M505.75,-112.584C578.728,-102.058 698.134,-84.5737 741.822,-75.7911"/>
<polygon fill="midnightblue" stroke="midnightblue" points="742.81,-79.1579 751.834,-73.6069 741.318,-72.3187 742.81,-79.1579"/>
</g>
<!-- Node8 -->
<g id="node8" class="node"><title>Node8</title>
<polygon fill="none" stroke="#bfbfbf" points="240,-0.5 240,-19.5 286,-19.5 286,-0.5 240,-0.5"/>
<text text-anchor="middle" x="263" y="-7.5" font-family="Helvetica,sans-Serif" font-size="10.00">cstdint</text>
</g>
<!-- Node6&#45;&gt;Node8 -->
<g id="edge7" class="edge"><title>Node6&#45;&gt;Node8</title>
<path fill="none" stroke="midnightblue" d="M505.823,-113.072C508.587,-112.708 511.323,-112.349 514,-112 577.301,-103.751 756.784,-123.884 799,-76 804.878,-69.3324 805.017,-62.543 799,-56 781.912,-37.4171 411.144,-18.1153 296.482,-12.5722"/>
<polygon fill="midnightblue" stroke="midnightblue" points="296.362,-9.06246 286.206,-12.0792 296.027,-16.0544 296.362,-9.06246"/>
</g>
<!-- Node9 -->
<g id="node9" class="node"><title>Node9</title>
<polygon fill="none" stroke="#bfbfbf" points="582.5,-0.5 582.5,-19.5 641.5,-19.5 641.5,-0.5 582.5,-0.5"/>
<text text-anchor="middle" x="612" y="-7.5" font-family="Helvetica,sans-Serif" font-size="10.00">exception</text>
</g>
<!-- Node6&#45;&gt;Node9 -->
<g id="edge8" class="edge"><title>Node6&#45;&gt;Node9</title>
<path fill="none" stroke="midnightblue" d="M505.817,-113.029C508.583,-112.676 511.321,-112.332 514,-112 584.58,-103.265 784.625,-129.041 832,-76 883.818,-17.9852 728.509,-10.6591 651.964,-10.4458"/>
<polygon fill="midnightblue" stroke="midnightblue" points="651.711,-6.94602 641.715,-10.4584 651.719,-13.946 651.711,-6.94602"/>
</g>
<!-- Node10 -->
<g id="node10" class="node"><title>Node10</title>
<polygon fill="none" stroke="#bfbfbf" points="328.5,-56.5 328.5,-75.5 387.5,-75.5 387.5,-56.5 328.5,-56.5"/>
<text text-anchor="middle" x="358" y="-63.5" font-family="Helvetica,sans-Serif" font-size="10.00">functional</text>
</g>
<!-- Node6&#45;&gt;Node10 -->
<g id="edge9" class="edge"><title>Node6&#45;&gt;Node10</title>
<path fill="none" stroke="midnightblue" d="M432.701,-112.324C418.817,-103.9 397.508,-90.9709 381.196,-81.0741"/>
<polygon fill="midnightblue" stroke="midnightblue" points="382.629,-77.8495 372.264,-75.6545 378.998,-83.8341 382.629,-77.8495"/>
</g>
<!-- Node11 -->
<g id="node11" class="node"><title>Node11</title>
<polygon fill="none" stroke="#bfbfbf" points="95.5,-0.5 95.5,-19.5 140.5,-19.5 140.5,-0.5 95.5,-0.5"/>
<text text-anchor="middle" x="118" y="-7.5" font-family="Helvetica,sans-Serif" font-size="10.00">iosfwd</text>
</g>
<!-- Node6&#45;&gt;Node11 -->
<g id="edge10" class="edge"><title>Node6&#45;&gt;Node11</title>
<path fill="none" stroke="midnightblue" d="M388.253,-113.573C297.632,-101.995 133.62,-80.4967 129,-76 116.843,-64.1681 115.076,-44.248 115.743,-29.5717"/>
<polygon fill="midnightblue" stroke="midnightblue" points="119.232,-29.8532 116.596,-19.5916 112.257,-29.2573 119.232,-29.8532"/>
</g>
<!-- Node12 -->
<g id="node12" class="node"><title>Node12</title>
<polygon fill="none" stroke="#bfbfbf" points="405.5,-56.5 405.5,-75.5 488.5,-75.5 488.5,-56.5 405.5,-56.5"/>
<text text-anchor="middle" x="447" y="-63.5" font-family="Helvetica,sans-Serif" font-size="10.00">unordered_map</text>
</g>
<!-- Node6&#45;&gt;Node12 -->
<g id="edge11" class="edge"><title>Node6&#45;&gt;Node12</title>
<path fill="none" stroke="midnightblue" d="M447,-112.083C447,-105.006 447,-94.8611 447,-85.9865"/>
<polygon fill="midnightblue" stroke="midnightblue" points="450.5,-85.751 447,-75.7511 443.5,-85.7511 450.5,-85.751"/>
</g>
<!-- Node13 -->
<g id="node13" class="node"><title>Node13</title>
<polygon fill="none" stroke="#bfbfbf" points="506.5,-56.5 506.5,-75.5 547.5,-75.5 547.5,-56.5 506.5,-56.5"/>
<text text-anchor="middle" x="527" y="-63.5" font-family="Helvetica,sans-Serif" font-size="10.00">string</text>
</g>
<!-- Node6&#45;&gt;Node13 -->
<g id="edge13" class="edge"><title>Node6&#45;&gt;Node13</title>
<path fill="none" stroke="midnightblue" d="M459.853,-112.324C472.216,-103.979 491.13,-91.2122 505.737,-81.3524"/>
<polygon fill="midnightblue" stroke="midnightblue" points="507.848,-84.1503 514.179,-75.6545 503.932,-78.3483 507.848,-84.1503"/>
</g>
<!-- Node14 -->
<g id="node14" class="node"><title>Node14</title>
<polygon fill="none" stroke="#bfbfbf" points="566,-56.5 566,-75.5 636,-75.5 636,-56.5 566,-56.5"/>
<text text-anchor="middle" x="601" y="-63.5" font-family="Helvetica,sans-Serif" font-size="10.00">fmt/format.h</text>
</g>
<!-- Node6&#45;&gt;Node14 -->
<g id="edge14" class="edge"><title>Node6&#45;&gt;Node14</title>
<path fill="none" stroke="midnightblue" d="M471.402,-112.444C497.197,-103.399 538.077,-89.064 567.018,-78.9158"/>
<polygon fill="midnightblue" stroke="midnightblue" points="568.434,-82.1283 576.712,-75.5164 566.118,-75.5226 568.434,-82.1283"/>
</g>
<!-- Node15 -->
<g id="node15" class="node"><title>Node15</title>
<polygon fill="none" stroke="#bfbfbf" points="654,-56.5 654,-75.5 734,-75.5 734,-56.5 654,-56.5"/>
<text text-anchor="middle" x="694" y="-63.5" font-family="Helvetica,sans-Serif" font-size="10.00">RStringView.h</text>
</g>
<!-- Node6&#45;&gt;Node15 -->
<g id="edge15" class="edge"><title>Node6&#45;&gt;Node15</title>
<path fill="none" stroke="midnightblue" d="M486.138,-112.444C529.226,-103.023 598.559,-87.8656 645.171,-77.6752"/>
<polygon fill="midnightblue" stroke="midnightblue" points="646.024,-81.0715 655.045,-75.5164 644.528,-74.2331 646.024,-81.0715"/>
</g>
<!-- Node16 -->
<g id="node16" class="node"><title>Node16</title>
<polygon fill="none" stroke="#bfbfbf" points="164,-0.5 164,-19.5 220,-19.5 220,-0.5 164,-0.5"/>
<text text-anchor="middle" x="192" y="-7.5" font-family="Helvetica,sans-Serif" font-size="10.00">Rtypes.h</text>
</g>
<!-- Node6&#45;&gt;Node16 -->
<g id="edge16" class="edge"><title>Node6&#45;&gt;Node16</title>
<path fill="none" stroke="midnightblue" d="M388.2,-113.446C299.448,-101.907 141.092,-80.7293 137,-76 121.85,-58.4919 145.825,-38.0765 166.722,-24.8649"/>
<polygon fill="midnightblue" stroke="midnightblue" points="168.596,-27.8225 175.367,-19.6733 164.992,-21.8216 168.596,-27.8225"/>
</g>
<!-- Node17 -->
<g id="node17" class="node"><title>Node17</title>
<g id="a_node17"><a xlink:href="../../dd/dda/DataFormats_2Detectors_2EMCAL_2include_2DataFormatsEMCAL_2Constants_8h.html" target="_top" xlink:title="DataFormatsEMCAL/Constants.h">
<polygon fill="none" stroke="black" points="146,-56.5 146,-75.5 310,-75.5 310,-56.5 146,-56.5"/>
<text text-anchor="middle" x="228" y="-63.5" font-family="Helvetica,sans-Serif" font-size="10.00">DataFormatsEMCAL/Constants.h</text>
</a>
</g>
</g>
<!-- Node6&#45;&gt;Node17 -->
<g id="edge17" class="edge"><title>Node6&#45;&gt;Node17</title>
<path fill="none" stroke="midnightblue" d="M412.299,-112.444C374.415,-103.102 313.651,-88.1194 272.338,-77.9326"/>
<polygon fill="midnightblue" stroke="midnightblue" points="273.086,-74.5123 262.539,-75.5164 271.41,-81.3088 273.086,-74.5123"/>
</g>
<!-- Node17&#45;&gt;Node8 -->
<g id="edge21" class="edge"><title>Node17&#45;&gt;Node8</title>
<path fill="none" stroke="midnightblue" d="M233.78,-56.083C238.672,-48.5341 245.827,-37.4948 251.833,-28.2298"/>
<polygon fill="midnightblue" stroke="midnightblue" points="254.826,-30.0463 257.328,-19.7511 248.952,-26.239 254.826,-30.0463"/>
</g>
<!-- Node17&#45;&gt;Node9 -->
<g id="edge20" class="edge"><title>Node17&#45;&gt;Node9</title>
<path fill="none" stroke="midnightblue" d="M288.846,-56.4435C368.138,-45.293 504.597,-26.1035 571.973,-16.6288"/>
<polygon fill="midnightblue" stroke="midnightblue" points="572.759,-20.0528 582.174,-15.1943 571.784,-13.121 572.759,-20.0528"/>
</g>
<!-- Node17&#45;&gt;Node11 -->
<g id="edge19" class="edge"><title>Node17&#45;&gt;Node11</title>
<path fill="none" stroke="midnightblue" d="M210.327,-56.324C192.606,-47.6247 165.097,-34.1202 144.712,-24.113"/>
<polygon fill="midnightblue" stroke="midnightblue" points="146.149,-20.9195 135.63,-19.6545 143.064,-27.2031 146.149,-20.9195"/>
</g>
<!-- Node17&#45;&gt;Node16 -->
<g id="edge18" class="edge"><title>Node17&#45;&gt;Node16</title>
<path fill="none" stroke="midnightblue" d="M222.055,-56.083C217.023,-48.5341 209.663,-37.4948 203.487,-28.2298"/>
<polygon fill="midnightblue" stroke="midnightblue" points="206.293,-26.1301 197.834,-19.7511 200.469,-30.0131 206.293,-26.1301"/>
</g>
</g>
</svg>
