<?xml version="1.0" encoding="UTF-8" standalone="no"?>
<!DOCTYPE svg PUBLIC "-//W3C//DTD SVG 1.1//EN"
 "http://www.w3.org/Graphics/SVG/1.1/DTD/svg11.dtd">
<!-- Generated by graphviz version 2.38.0 (20140413.2041)
 -->
<!-- Title: Header Pages: 1 -->
<svg width="145pt" height="171pt"
 viewBox="0.00 0.00 144.50 171.00" xmlns="http://www.w3.org/2000/svg" xmlns:xlink="http://www.w3.org/1999/xlink">
<g id="graph0" class="graph" transform="scale(1 1) rotate(0) translate(4 167)">
<title>Header</title>
<!-- Node1 -->
<g id="node1" class="node"><title>Node1</title>
<polygon fill="#bfbfbf" stroke="black" points="33,-0.5 33,-57.5 96,-57.5 96,-0.5 33,-0.5"/>
<text text-anchor="middle" x="64.5" y="-45.5" font-family="Helvetica,sans-Serif" font-size="10.00">Header</text>
<polyline fill="none" stroke="black" points="33,-38.5 96,-38.5 "/>
<text text-anchor="middle" x="64.5" y="-26.5" font-family="Helvetica,sans-Serif" font-size="10.00"> </text>
<polyline fill="none" stroke="black" points="33,-19.5 96,-19.5 "/>
<text text-anchor="start" x="41" y="-7.5" font-family="Helvetica,sans-Serif" font-size="10.00">+ Header()</text>
</g>
<!-- Node2 -->
<g id="node2" class="node"><title>Node2</title>
<g id="a_node2"><a xlink:href="../../dd/de2/classsize__t.html" target="_top" xlink:title="{size_t\n||}">
<polygon fill="none" stroke="black" points="0,-105.5 0,-162.5 43,-162.5 43,-105.5 0,-105.5"/>
<text text-anchor="middle" x="21.5" y="-150.5" font-family="Helvetica,sans-Serif" font-size="10.00">size_t</text>
<polyline fill="none" stroke="black" points="0,-143.5 43,-143.5 "/>
<text text-anchor="middle" x="21.5" y="-131.5" font-family="Helvetica,sans-Serif" font-size="10.00"> </text>
<polyline fill="none" stroke="black" points="0,-124.5 43,-124.5 "/>
<text text-anchor="middle" x="21.5" y="-112.5" font-family="Helvetica,sans-Serif" font-size="10.00"> </text>
</a>
</g>
</g>
<!-- Node2&#45;&gt;Node1 -->
<g id="edge1" class="edge"><title>Node2&#45;&gt;Node1</title>
<path fill="none" stroke="#404040" d="M18.0789,-105.253C17.9065,-95.691 18.8769,-85.1039 22.5,-76 23.6371,-73.1427 25.0399,-70.3525 26.6353,-67.6499"/>
<polygon fill="none" stroke="#404040" points="26.7134,-67.538 26.8726,-60.3287 33.5886,-57.7027 33.4294,-64.9121 26.7134,-67.538"/>
<text text-anchor="middle" x="54" y="-79" font-family="Helvetica,sans-Serif" font-size="10.00"> +payloadSize</text>
</g>
<!-- Node3 -->
<g id="node3" class="node"><title>Node3</title>
<polygon fill="none" stroke="#bfbfbf" points="79.5,-105.5 79.5,-162.5 135.5,-162.5 135.5,-105.5 79.5,-105.5"/>
<text text-anchor="middle" x="107.5" y="-150.5" font-family="Helvetica,sans-Serif" font-size="10.00">unsigned</text>
<polyline fill="none" stroke="#bfbfbf" points="79.5,-143.5 135.5,-143.5 "/>
<text text-anchor="middle" x="107.5" y="-131.5" font-family="Helvetica,sans-Serif" font-size="10.00"> </text>
<polyline fill="none" stroke="#bfbfbf" points="79.5,-124.5 135.5,-124.5 "/>
<text text-anchor="middle" x="107.5" y="-112.5" font-family="Helvetica,sans-Serif" font-size="10.00"> </text>
</g>
<!-- Node3&#45;&gt;Node1 -->
<g id="edge2" class="edge"><title>Node3&#45;&gt;Node1</title>
<path fill="none" stroke="#404040" d="M97.2004,-105.324C93.6158,-95.964 89.4907,-85.4837 85.5,-76 84.5157,-73.661 83.486,-71.2637 82.4336,-68.8511"/>
<polygon fill="none" stroke="#404040" points="82.3105,-68.5744 76.2159,-64.72 77.4297,-57.6118 83.5243,-61.4662 82.3105,-68.5744"/>
<text text-anchor="middle" x="113.5" y="-79" font-family="Helvetica,sans-Serif" font-size="10.00"> +identifier</text>
</g>
</g>
</svg>
