<?xml version="1.0" encoding="UTF-8" standalone="no"?>
<!DOCTYPE svg PUBLIC "-//W3C//DTD SVG 1.1//EN"
 "http://www.w3.org/Graphics/SVG/1.1/DTD/svg11.dtd">
<!-- Generated by graphviz version 2.38.0 (20140413.2041)
 -->
<!-- Title: /home/travis/build/AliceO2Group/AliceO2/Framework/Core/src/DataDescriptorQueryBuilder.cxx Pages: 1 -->
<!--zoomable 441 -->
<svg id="main" version="1.1" xmlns="http://www.w3.org/2000/svg" xmlns:xlink="http://www.w3.org/1999/xlink" xml:space="preserve" onload="init(evt)">
<style type="text/css"><![CDATA[
.edge:hover path { stroke: red; }
.edge:hover polygon { stroke: red; fill: red; }
]]></style>
<script type="text/javascript"><![CDATA[
var edges = document.getElementsByTagName('g');
if (edges && edges.length) {
  for (var i=0;i<edges.length;i++) {
    if (edges[i].id.substr(0,4)=='edge') {
      edges[i].setAttribute('class','edge');
    }
  }
}
]]></script>
        <defs>
                <circle id="rim" cx="0" cy="0" r="7"/>
                <circle id="rim2" cx="0" cy="0" r="3.5"/>
                <g id="zoomPlus">
                        <use xlink:href="#rim" fill="#404040">
                                <set attributeName="fill" to="#808080" begin="zoomplus.mouseover" end="zoomplus.mouseout"/>
                        </use>
                        <path d="M-4,0h8M0,-4v8" fill="none" stroke="white" stroke-width="1.5" pointer-events="none"/>
                </g>
                <g id="zoomMin">
                        <use xlink:href="#rim" fill="#404040">
                                <set attributeName="fill" to="#808080" begin="zoomminus.mouseover" end="zoomminus.mouseout"/>
                        </use>
                        <path d="M-4,0h8" fill="none" stroke="white" stroke-width="1.5" pointer-events="none"/>
                </g>
                <g id="dirArrow">
                        <path fill="none" stroke="white" stroke-width="1.5" d="M0,-3.0v7 M-2.5,-0.5L0,-3.0L2.5,-0.5"/>
                </g>
               <g id="resetDef">
                       <use xlink:href="#rim2" fill="#404040">
                               <set attributeName="fill" to="#808080" begin="reset.mouseover" end="reset.mouseout"/>
                       </use>
               </g>
        </defs>

<script type="text/javascript">
var viewWidth = 2453;
var viewHeight = 441;
var sectionId = 'dynsection-0';
</script>
<script xlink:href="../../svgpan.js"/>
<svg id="graph" class="graph">
<g id="viewport">
<title>/home/travis/build/AliceO2Group/AliceO2/Framework/Core/src/DataDescriptorQueryBuilder.cxx</title>
<!-- Node1 -->
<g id="node1" class="node"><title>Node1</title>
<polygon fill="#bfbfbf" stroke="black" points="2132,-380.5 2132,-432.5 2310,-432.5 2310,-380.5 2132,-380.5"/>
<text text-anchor="start" x="2140" y="-420.5" font-family="Helvetica,sans-Serif" font-size="10.00">/home/travis/build</text>
<text text-anchor="start" x="2140" y="-409.5" font-family="Helvetica,sans-Serif" font-size="10.00">/AliceO2Group/AliceO2</text>
<text text-anchor="start" x="2140" y="-398.5" font-family="Helvetica,sans-Serif" font-size="10.00">/Framework/Core/src/DataDescriptor</text>
<text text-anchor="middle" x="2221" y="-387.5" font-family="Helvetica,sans-Serif" font-size="10.00">QueryBuilder.cxx</text>
</g>
<!-- Node2 -->
<g id="node2" class="node"><title>Node2</title>
<g id="a_node2"><a xlink:href="../../db/de2/DataDescriptorQueryBuilder_8h.html" target="_top" xlink:title="Framework/DataDescriptor\lQueryBuilder.h">
<polygon fill="none" stroke="black" points="2107,-313.5 2107,-343.5 2241,-343.5 2241,-313.5 2107,-313.5"/>
<text text-anchor="start" x="2115" y="-331.5" font-family="Helvetica,sans-Serif" font-size="10.00">Framework/DataDescriptor</text>
<text text-anchor="middle" x="2174" y="-320.5" font-family="Helvetica,sans-Serif" font-size="10.00">QueryBuilder.h</text>
</a>
</g>
</g>
<!-- Node1&#45;&gt;Node2 -->
<g id="edge1" class="edge"><title>Node1&#45;&gt;Node2</title>
<path fill="none" stroke="midnightblue" d="M2205.35,-380.193C2199.8,-371.22 2193.59,-361.179 2188.17,-352.416"/>
<polygon fill="midnightblue" stroke="midnightblue" points="2191.11,-350.509 2182.87,-343.845 2185.15,-354.191 2191.11,-350.509"/>
</g>
<!-- Node3 -->
<g id="node3" class="node"><title>Node3</title>
<g id="a_node3"><a xlink:href="../../d5/d3f/InputSpec_8h.html" target="_top" xlink:title="Framework/InputSpec.h">
<polygon fill="none" stroke="black" points="1997.5,-257.5 1997.5,-276.5 2118.5,-276.5 2118.5,-257.5 1997.5,-257.5"/>
<text text-anchor="middle" x="2058" y="-264.5" font-family="Helvetica,sans-Serif" font-size="10.00">Framework/InputSpec.h</text>
</a>
</g>
</g>
<!-- Node1&#45;&gt;Node3 -->
<g id="edge57" class="edge"><title>Node1&#45;&gt;Node3</title>
<path fill="none" stroke="midnightblue" d="M2152.28,-380.424C2133.11,-371.099 2113.35,-359.035 2098,-344 2081.4,-327.739 2070.18,-303.108 2063.95,-286.325"/>
<polygon fill="midnightblue" stroke="midnightblue" points="2067.16,-284.893 2060.57,-276.597 2060.55,-287.192 2067.16,-284.893"/>
</g>
<!-- Node8 -->
<g id="node8" class="node"><title>Node8</title>
<polygon fill="none" stroke="#bfbfbf" points="2202,-6 2202,-25 2254,-25 2254,-6 2202,-6"/>
<text text-anchor="middle" x="2228" y="-13" font-family="Helvetica,sans-Serif" font-size="10.00">memory</text>
</g>
<!-- Node1&#45;&gt;Node8 -->
<g id="edge58" class="edge"><title>Node1&#45;&gt;Node8</title>
<path fill="none" stroke="midnightblue" d="M2251.93,-380.44C2263.02,-370.135 2274.79,-357.462 2283,-344 2301.44,-313.759 2307,-303.422 2307,-268 2307,-268 2307,-268 2307,-137.5 2307,-93.5139 2269.94,-53.0222 2246.59,-31.8704"/>
<polygon fill="midnightblue" stroke="midnightblue" points="2248.82,-29.1678 2238.98,-25.2212 2244.21,-34.4379 2248.82,-29.1678"/>
</g>
<!-- Node13 -->
<g id="node13" class="node"><title>Node13</title>
<polygon fill="none" stroke="#bfbfbf" points="2101.5,-6 2101.5,-25 2142.5,-25 2142.5,-6 2101.5,-6"/>
<text text-anchor="middle" x="2122" y="-13" font-family="Helvetica,sans-Serif" font-size="10.00">string</text>
</g>
<!-- Node1&#45;&gt;Node13 -->
<g id="edge61" class="edge"><title>Node1&#45;&gt;Node13</title>
<path fill="none" stroke="midnightblue" d="M2235.66,-380.066C2249.78,-353.142 2269,-308.961 2269,-268 2269,-268 2269,-268 2269,-204.5 2269,-124.766 2185.93,-58.6693 2144.68,-30.7652"/>
<polygon fill="midnightblue" stroke="midnightblue" points="2146.37,-27.6856 2136.09,-25.1 2142.51,-33.5285 2146.37,-27.6856"/>
</g>
<!-- Node17 -->
<g id="node17" class="node"><title>Node17</title>
<g id="a_node17"><a xlink:href="../../d3/da3/DataDescriptorMatcher_8h.html" target="_top" xlink:title="Framework/DataDescriptor\lMatcher.h">
<polygon fill="none" stroke="black" points="1677,-190.5 1677,-220.5 1811,-220.5 1811,-190.5 1677,-190.5"/>
<text text-anchor="start" x="1685" y="-208.5" font-family="Helvetica,sans-Serif" font-size="10.00">Framework/DataDescriptor</text>
<text text-anchor="middle" x="1744" y="-197.5" font-family="Helvetica,sans-Serif" font-size="10.00">Matcher.h</text>
</a>
</g>
</g>
<!-- Node1&#45;&gt;Node17 -->
<g id="edge56" class="edge"><title>Node1&#45;&gt;Node17</title>
<path fill="none" stroke="midnightblue" d="M2160.5,-380.393C2133.69,-369.258 2101.77,-355.988 2073,-344 1970.49,-301.278 1850.08,-250.907 1787.2,-224.589"/>
<polygon fill="midnightblue" stroke="midnightblue" points="1788.19,-221.209 1777.62,-220.576 1785.49,-227.666 1788.19,-221.209"/>
</g>
<!-- Node28 -->
<g id="node28" class="node"><title>Node28</title>
<polygon fill="none" stroke="#bfbfbf" points="0,-6 0,-25 44,-25 44,-6 0,-6"/>
<text text-anchor="middle" x="22" y="-13" font-family="Helvetica,sans-Serif" font-size="10.00">vector</text>
</g>
<!-- Node1&#45;&gt;Node28 -->
<g id="edge62" class="edge"><title>Node1&#45;&gt;Node28</title>
<path fill="none" stroke="midnightblue" d="M2131.89,-404.484C1728.39,-399.308 92,-371.911 92,-268 92,-268 92,-268 92,-137.5 92,-95.1061 59.4071,-54.2288 38.7014,-32.5374"/>
<polygon fill="midnightblue" stroke="midnightblue" points="40.9623,-29.8463 31.4405,-25.2002 35.9868,-34.7701 40.9623,-29.8463"/>
</g>
<!-- Node39 -->
<g id="node39" class="node"><title>Node39</title>
<polygon fill="none" stroke="#bfbfbf" points="2335,-319 2335,-338 2385,-338 2385,-319 2335,-319"/>
<text text-anchor="middle" x="2360" y="-326" font-family="Helvetica,sans-Serif" font-size="10.00">optional</text>
</g>
<!-- Node1&#45;&gt;Node39 -->
<g id="edge59" class="edge"><title>Node1&#45;&gt;Node39</title>
<path fill="none" stroke="midnightblue" d="M2266.9,-380.404C2289.76,-367.902 2316.5,-353.286 2335.44,-342.931"/>
<polygon fill="midnightblue" stroke="midnightblue" points="2337.22,-345.946 2344.31,-338.078 2333.86,-339.804 2337.22,-345.946"/>
</g>
<!-- Node40 -->
<g id="node40" class="node"><title>Node40</title>
<polygon fill="none" stroke="#bfbfbf" points="2403.5,-319 2403.5,-338 2444.5,-338 2444.5,-319 2403.5,-319"/>
<text text-anchor="middle" x="2424" y="-326" font-family="Helvetica,sans-Serif" font-size="10.00">regex</text>
</g>
<!-- Node1&#45;&gt;Node40 -->
<g id="edge60" class="edge"><title>Node1&#45;&gt;Node40</title>
<path fill="none" stroke="midnightblue" d="M2297.04,-380.469C2327.48,-369.934 2362.68,-357.091 2394,-344 2395.2,-343.498 2396.42,-342.972 2397.65,-342.431"/>
<polygon fill="midnightblue" stroke="midnightblue" points="2399.4,-345.478 2407.01,-338.106 2396.47,-339.123 2399.4,-345.478"/>
</g>
<!-- Node2&#45;&gt;Node3 -->
<g id="edge2" class="edge"><title>Node2&#45;&gt;Node3</title>
<path fill="none" stroke="midnightblue" d="M2146.51,-313.399C2127.57,-303.684 2102.56,-290.855 2083.96,-281.314"/>
<polygon fill="midnightblue" stroke="midnightblue" points="2085.37,-278.108 2074.88,-276.658 2082.18,-284.336 2085.37,-278.108"/>
</g>
<!-- Node2&#45;&gt;Node8 -->
<g id="edge55" class="edge"><title>Node2&#45;&gt;Node8</title>
<path fill="none" stroke="midnightblue" d="M2184.01,-313.192C2190.29,-303.452 2197.93,-290.013 2202,-277 2229.25,-189.787 2229.74,-78.9031 2228.69,-35.3083"/>
<polygon fill="midnightblue" stroke="midnightblue" points="2232.19,-35.1889 2228.39,-25.2982 2225.19,-35.3985 2232.19,-35.1889"/>
</g>
<!-- Node2&#45;&gt;Node13 -->
<g id="edge53" class="edge"><title>Node2&#45;&gt;Node13</title>
<path fill="none" stroke="midnightblue" d="M2177.66,-313.455C2183.18,-291.017 2193,-245.626 2193,-206.5 2193,-206.5 2193,-206.5 2193,-137.5 2193,-94.9535 2159.94,-54.1318 2138.94,-32.4912"/>
<polygon fill="midnightblue" stroke="midnightblue" points="2141.14,-29.7389 2131.58,-25.1728 2136.2,-34.7042 2141.14,-29.7389"/>
</g>
<!-- Node2&#45;&gt;Node28 -->
<g id="edge54" class="edge"><title>Node2&#45;&gt;Node28</title>
<path fill="none" stroke="midnightblue" d="M2106.79,-326.032C1801.7,-318.936 562,-285.257 562,-206.5 562,-206.5 562,-206.5 562,-137.5 562,-21.9395 162.625,-67.5581 53,-31 51.3337,-30.4443 49.6389,-29.8236 47.9443,-29.1603"/>
<polygon fill="midnightblue" stroke="midnightblue" points="49.0102,-25.8081 38.4424,-25.0518 46.232,-32.2332 49.0102,-25.8081"/>
</g>
<!-- Node4 -->
<g id="node4" class="node"><title>Node4</title>
<g id="a_node4"><a xlink:href="../../dc/dca/Lifetime_8h.html" target="_top" xlink:title="Framework/Lifetime.h">
<polygon fill="none" stroke="black" points="1860.5,-196 1860.5,-215 1971.5,-215 1971.5,-196 1860.5,-196"/>
<text text-anchor="middle" x="1916" y="-203" font-family="Helvetica,sans-Serif" font-size="10.00">Framework/Lifetime.h</text>
</a>
</g>
</g>
<!-- Node3&#45;&gt;Node4 -->
<g id="edge3" class="edge"><title>Node3&#45;&gt;Node4</title>
<path fill="none" stroke="midnightblue" d="M2037.65,-257.475C2013.61,-247.401 1973.4,-230.553 1945.84,-219.002"/>
<polygon fill="midnightblue" stroke="midnightblue" points="1946.88,-215.646 1936.31,-215.009 1944.18,-222.102 1946.88,-215.646"/>
</g>
<!-- Node5 -->
<g id="node5" class="node"><title>Node5</title>
<g id="a_node5"><a xlink:href="../../d0/d1b/ConcreteDataMatcher_8h.html" target="_top" xlink:title="Framework/ConcreteDataMatcher.h">
<polygon fill="none" stroke="black" points="1657.5,-129 1657.5,-148 1830.5,-148 1830.5,-129 1657.5,-129"/>
<text text-anchor="middle" x="1744" y="-136" font-family="Helvetica,sans-Serif" font-size="10.00">Framework/ConcreteDataMatcher.h</text>
</a>
</g>
</g>
<!-- Node3&#45;&gt;Node5 -->
<g id="edge4" class="edge"><title>Node3&#45;&gt;Node5</title>
<path fill="none" stroke="midnightblue" d="M2050.34,-257.425C2034.14,-239.467 1996.5,-198.836 1980,-190 1951.28,-174.622 1870.37,-159.293 1811.27,-149.627"/>
<polygon fill="midnightblue" stroke="midnightblue" points="1811.68,-146.148 1801.25,-148.008 1810.57,-153.058 1811.68,-146.148"/>
</g>
<!-- Node3&#45;&gt;Node13 -->
<g id="edge50" class="edge"><title>Node3&#45;&gt;Node13</title>
<path fill="none" stroke="midnightblue" d="M2070.53,-257.248C2081.61,-248.974 2097.6,-235.67 2108,-221 2126.67,-194.676 2129.65,-185.643 2136,-154 2144.42,-112.005 2134.29,-61.7238 2127.39,-35.1287"/>
<polygon fill="midnightblue" stroke="midnightblue" points="2130.71,-33.9949 2124.69,-25.2742 2123.95,-35.8436 2130.71,-33.9949"/>
</g>
<!-- Node3&#45;&gt;Node17 -->
<g id="edge16" class="edge"><title>Node3&#45;&gt;Node17</title>
<path fill="none" stroke="midnightblue" d="M2013.01,-257.475C1962.97,-247.993 1881.26,-232.51 1821,-221.091"/>
<polygon fill="midnightblue" stroke="midnightblue" points="1821.63,-217.647 1811.15,-219.224 1820.32,-224.525 1821.63,-217.647"/>
</g>
<!-- Node36 -->
<g id="node36" class="node"><title>Node36</title>
<polygon fill="none" stroke="#bfbfbf" points="2081,-129 2081,-148 2127,-148 2127,-129 2081,-129"/>
<text text-anchor="middle" x="2104" y="-136" font-family="Helvetica,sans-Serif" font-size="10.00">variant</text>
</g>
<!-- Node3&#45;&gt;Node36 -->
<g id="edge52" class="edge"><title>Node3&#45;&gt;Node36</title>
<path fill="none" stroke="midnightblue" d="M2065.63,-257.354C2072.8,-248.744 2083.26,-234.849 2089,-221 2097.41,-200.696 2101.12,-175.606 2102.75,-158.67"/>
<polygon fill="midnightblue" stroke="midnightblue" points="2106.26,-158.655 2103.58,-148.407 2099.29,-158.094 2106.26,-158.655"/>
</g>
<!-- Node38 -->
<g id="node38" class="node"><title>Node38</title>
<polygon fill="none" stroke="#bfbfbf" points="2028,-196 2028,-215 2080,-215 2080,-196 2028,-196"/>
<text text-anchor="middle" x="2054" y="-203" font-family="Helvetica,sans-Serif" font-size="10.00">ostream</text>
</g>
<!-- Node3&#45;&gt;Node38 -->
<g id="edge51" class="edge"><title>Node3&#45;&gt;Node38</title>
<path fill="none" stroke="midnightblue" d="M2057.43,-257.475C2056.86,-249.08 2055.98,-235.981 2055.25,-225.163"/>
<polygon fill="midnightblue" stroke="midnightblue" points="2058.74,-224.752 2054.57,-215.009 2051.75,-225.221 2058.74,-224.752"/>
</g>
<!-- Node6 -->
<g id="node6" class="node"><title>Node6</title>
<g id="a_node6"><a xlink:href="../../dc/dcd/DataHeader_8h.html" target="_top" xlink:title="Headers/DataHeader.h">
<polygon fill="none" stroke="black" points="1723.5,-67.5 1723.5,-86.5 1840.5,-86.5 1840.5,-67.5 1723.5,-67.5"/>
<text text-anchor="middle" x="1782" y="-74.5" font-family="Helvetica,sans-Serif" font-size="10.00">Headers/DataHeader.h</text>
</a>
</g>
</g>
<!-- Node5&#45;&gt;Node6 -->
<g id="edge5" class="edge"><title>Node5&#45;&gt;Node6</title>
<path fill="none" stroke="midnightblue" d="M1749.44,-128.975C1755.09,-120.138 1764.06,-106.089 1771.16,-94.975"/>
<polygon fill="midnightblue" stroke="midnightblue" points="1774.13,-96.8208 1776.57,-86.5091 1768.23,-93.0531 1774.13,-96.8208"/>
</g>
<!-- Node7 -->
<g id="node7" class="node"><title>Node7</title>
<polygon fill="none" stroke="#bfbfbf" points="2037,-6 2037,-25 2083,-25 2083,-6 2037,-6"/>
<text text-anchor="middle" x="2060" y="-13" font-family="Helvetica,sans-Serif" font-size="10.00">cstdint</text>
</g>
<!-- Node6&#45;&gt;Node7 -->
<g id="edge6" class="edge"><title>Node6&#45;&gt;Node7</title>
<path fill="none" stroke="midnightblue" d="M1840.83,-69.1024C1891.04,-62.2942 1964.78,-50.0988 2027,-31 2028.93,-30.4078 2030.9,-29.7347 2032.86,-29.0104"/>
<polygon fill="midnightblue" stroke="midnightblue" points="2034.53,-32.1096 2042.48,-25.1011 2031.89,-25.625 2034.53,-32.1096"/>
</g>
<!-- Node6&#45;&gt;Node8 -->
<g id="edge7" class="edge"><title>Node6&#45;&gt;Node8</title>
<path fill="none" stroke="midnightblue" d="M1840.7,-69.0536C1937.05,-57.6191 2121.11,-35.6327 2151,-31 2164.36,-28.9289 2178.96,-26.2795 2191.82,-23.8133"/>
<polygon fill="midnightblue" stroke="midnightblue" points="2192.55,-27.2361 2201.7,-21.8894 2191.22,-20.3652 2192.55,-27.2361"/>
</g>
<!-- Node9 -->
<g id="node9" class="node"><title>Node9</title>
<polygon fill="none" stroke="#bfbfbf" points="1969.5,-6 1969.5,-25 2018.5,-25 2018.5,-6 1969.5,-6"/>
<text text-anchor="middle" x="1994" y="-13" font-family="Helvetica,sans-Serif" font-size="10.00">cassert</text>
</g>
<!-- Node6&#45;&gt;Node9 -->
<g id="edge8" class="edge"><title>Node6&#45;&gt;Node9</title>
<path fill="none" stroke="midnightblue" d="M1823.53,-67.4221C1859.95,-59.4478 1914.09,-46.4874 1960,-31 1961.92,-30.3538 1963.87,-29.6472 1965.84,-28.9046"/>
<polygon fill="midnightblue" stroke="midnightblue" points="1967.53,-31.9947 1975.5,-25.0076 1964.91,-25.5031 1967.53,-31.9947"/>
</g>
<!-- Node10 -->
<g id="node10" class="node"><title>Node10</title>
<polygon fill="none" stroke="#bfbfbf" points="1473,-6 1473,-25 1519,-25 1519,-6 1473,-6"/>
<text text-anchor="middle" x="1496" y="-13" font-family="Helvetica,sans-Serif" font-size="10.00">cstring</text>
</g>
<!-- Node6&#45;&gt;Node10 -->
<g id="edge9" class="edge"><title>Node6&#45;&gt;Node10</title>
<path fill="none" stroke="midnightblue" d="M1723.26,-69.8226C1671.14,-63.349 1593.34,-51.2418 1528,-31 1526.12,-30.418 1524.21,-29.7524 1522.3,-29.0337"/>
<polygon fill="midnightblue" stroke="midnightblue" points="1523.54,-25.7595 1512.96,-25.137 1520.84,-32.2192 1523.54,-25.7595"/>
</g>
<!-- Node11 -->
<g id="node11" class="node"><title>Node11</title>
<polygon fill="none" stroke="#bfbfbf" points="1818,-6 1818,-25 1874,-25 1874,-6 1818,-6"/>
<text text-anchor="middle" x="1846" y="-13" font-family="Helvetica,sans-Serif" font-size="10.00">algorithm</text>
</g>
<!-- Node6&#45;&gt;Node11 -->
<g id="edge10" class="edge"><title>Node6&#45;&gt;Node11</title>
<path fill="none" stroke="midnightblue" d="M1791.17,-67.4751C1801.15,-58.1966 1817.31,-43.1706 1829.51,-31.831"/>
<polygon fill="midnightblue" stroke="midnightblue" points="1831.91,-34.3814 1836.85,-25.0091 1827.14,-29.2547 1831.91,-34.3814"/>
</g>
<!-- Node12 -->
<g id="node12" class="node"><title>Node12</title>
<polygon fill="none" stroke="#bfbfbf" points="1892.5,-6 1892.5,-25 1951.5,-25 1951.5,-6 1892.5,-6"/>
<text text-anchor="middle" x="1922" y="-13" font-family="Helvetica,sans-Serif" font-size="10.00">stdexcept</text>
</g>
<!-- Node6&#45;&gt;Node12 -->
<g id="edge11" class="edge"><title>Node6&#45;&gt;Node12</title>
<path fill="none" stroke="midnightblue" d="M1802.06,-67.4751C1825.76,-57.4013 1865.41,-40.5525 1892.58,-29.0023"/>
<polygon fill="midnightblue" stroke="midnightblue" points="1894.14,-32.1417 1901.98,-25.0091 1891.41,-25.6994 1894.14,-32.1417"/>
</g>
<!-- Node6&#45;&gt;Node13 -->
<g id="edge12" class="edge"><title>Node6&#45;&gt;Node13</title>
<path fill="none" stroke="midnightblue" d="M1840.52,-68.4867C1923.65,-57.6637 2068.5,-38.1963 2092,-31 2093.67,-30.4876 2095.37,-29.8938 2097.06,-29.245"/>
<polygon fill="midnightblue" stroke="midnightblue" points="2098.73,-32.3333 2106.49,-25.1118 2095.92,-25.9226 2098.73,-32.3333"/>
</g>
<!-- Node14 -->
<g id="node14" class="node"><title>Node14</title>
<polygon fill="none" stroke="#bfbfbf" points="1692.5,-6 1692.5,-25 1737.5,-25 1737.5,-6 1692.5,-6"/>
<text text-anchor="middle" x="1715" y="-13" font-family="Helvetica,sans-Serif" font-size="10.00">climits</text>
</g>
<!-- Node6&#45;&gt;Node14 -->
<g id="edge13" class="edge"><title>Node6&#45;&gt;Node14</title>
<path fill="none" stroke="midnightblue" d="M1772.4,-67.4751C1761.95,-58.1966 1745.03,-43.1706 1732.26,-31.831"/>
<polygon fill="midnightblue" stroke="midnightblue" points="1734.38,-29.0323 1724.58,-25.0091 1729.73,-34.2663 1734.38,-29.0323"/>
</g>
<!-- Node15 -->
<g id="node15" class="node"><title>Node15</title>
<g id="a_node15"><a xlink:href="../../d7/df8/Types_8h.html" target="_top" xlink:title="MemoryResources/Types.h">
<polygon fill="none" stroke="black" points="1537.5,-6 1537.5,-25 1674.5,-25 1674.5,-6 1537.5,-6"/>
<text text-anchor="middle" x="1606" y="-13" font-family="Helvetica,sans-Serif" font-size="10.00">MemoryResources/Types.h</text>
</a>
</g>
</g>
<!-- Node6&#45;&gt;Node15 -->
<g id="edge14" class="edge"><title>Node6&#45;&gt;Node15</title>
<path fill="none" stroke="midnightblue" d="M1756.78,-67.4751C1726.33,-57.1804 1674.95,-39.8103 1640.76,-28.2502"/>
<polygon fill="midnightblue" stroke="midnightblue" points="1641.76,-24.8961 1631.17,-25.0091 1639.52,-31.5274 1641.76,-24.8961"/>
</g>
<!-- Node16 -->
<g id="node16" class="node"><title>Node16</title>
<polygon fill="none" stroke="#bfbfbf" points="1756,-6 1756,-25 1800,-25 1800,-6 1756,-6"/>
<text text-anchor="middle" x="1778" y="-13" font-family="Helvetica,sans-Serif" font-size="10.00">cerrno</text>
</g>
<!-- Node6&#45;&gt;Node16 -->
<g id="edge15" class="edge"><title>Node6&#45;&gt;Node16</title>
<path fill="none" stroke="midnightblue" d="M1781.43,-67.4751C1780.86,-59.0803 1779.98,-45.9806 1779.25,-35.1631"/>
<polygon fill="midnightblue" stroke="midnightblue" points="1782.74,-34.7518 1778.57,-25.0091 1775.75,-35.2214 1782.74,-34.7518"/>
</g>
<!-- Node17&#45;&gt;Node5 -->
<g id="edge17" class="edge"><title>Node17&#45;&gt;Node5</title>
<path fill="none" stroke="midnightblue" d="M1744,-190.396C1744,-181.064 1744,-168.714 1744,-158.517"/>
<polygon fill="midnightblue" stroke="midnightblue" points="1747.5,-158.195 1744,-148.195 1740.5,-158.195 1747.5,-158.195"/>
</g>
<!-- Node17&#45;&gt;Node6 -->
<g id="edge24" class="edge"><title>Node17&#45;&gt;Node6</title>
<path fill="none" stroke="midnightblue" d="M1694.38,-190.404C1676.55,-182.683 1658.32,-171.088 1648,-154 1640.88,-142.206 1639.96,-134.186 1648,-123 1663.18,-101.893 1688.74,-90.5483 1713.49,-84.5015"/>
<polygon fill="midnightblue" stroke="midnightblue" points="1714.26,-87.9168 1723.28,-82.3631 1712.77,-81.078 1714.26,-87.9168"/>
</g>
<!-- Node17&#45;&gt;Node7 -->
<g id="edge44" class="edge"><title>Node17&#45;&gt;Node7</title>
<path fill="none" stroke="midnightblue" d="M1811.09,-194.257C1880.72,-183.122 1981.51,-165.396 1996,-154 2001.09,-150 2036.1,-71.0544 2052.08,-34.6304"/>
<polygon fill="midnightblue" stroke="midnightblue" points="2055.41,-35.7642 2056.21,-25.1999 2048.99,-32.9571 2055.41,-35.7642"/>
</g>
<!-- Node17&#45;&gt;Node13 -->
<g id="edge46" class="edge"><title>Node17&#45;&gt;Node13</title>
<path fill="none" stroke="midnightblue" d="M1811.07,-194.735C1886.43,-183.356 2000.58,-164.746 2018,-154 2065.85,-124.48 2099.48,-64.2457 2113.99,-34.2683"/>
<polygon fill="midnightblue" stroke="midnightblue" points="2117.24,-35.5672 2118.31,-25.0267 2110.9,-32.5987 2117.24,-35.5672"/>
</g>
<!-- Node18 -->
<g id="node18" class="node"><title>Node18</title>
<g id="a_node18"><a xlink:href="../../d6/dc9/DataProcessingHeader_8h.html" target="_top" xlink:title="Framework/DataProcessing\lHeader.h">
<polygon fill="none" stroke="black" points="1849,-123.5 1849,-153.5 1987,-153.5 1987,-123.5 1849,-123.5"/>
<text text-anchor="start" x="1857" y="-141.5" font-family="Helvetica,sans-Serif" font-size="10.00">Framework/DataProcessing</text>
<text text-anchor="middle" x="1918" y="-130.5" font-family="Helvetica,sans-Serif" font-size="10.00">Header.h</text>
</a>
</g>
</g>
<!-- Node17&#45;&gt;Node18 -->
<g id="edge18" class="edge"><title>Node17&#45;&gt;Node18</title>
<path fill="none" stroke="midnightblue" d="M1781.76,-190.396C1807.86,-180.643 1842.79,-167.595 1870.75,-157.152"/>
<polygon fill="midnightblue" stroke="midnightblue" points="1872.18,-160.355 1880.32,-153.577 1869.73,-153.797 1872.18,-160.355"/>
</g>
<!-- Node20 -->
<g id="node20" class="node"><title>Node20</title>
<g id="a_node20"><a xlink:href="../../d4/d00/Headers_2include_2Headers_2Stack_8h.html" target="_top" xlink:title="Headers/Stack.h">
<polygon fill="none" stroke="black" points="1511,-129 1511,-148 1601,-148 1601,-129 1511,-129"/>
<text text-anchor="middle" x="1556" y="-136" font-family="Helvetica,sans-Serif" font-size="10.00">Headers/Stack.h</text>
</a>
</g>
</g>
<!-- Node17&#45;&gt;Node20 -->
<g id="edge25" class="edge"><title>Node17&#45;&gt;Node20</title>
<path fill="none" stroke="midnightblue" d="M1703.21,-190.396C1669.49,-178.739 1622.16,-162.373 1590.35,-151.376"/>
<polygon fill="midnightblue" stroke="midnightblue" points="1591.2,-147.967 1580.6,-148.007 1588.91,-154.583 1591.2,-147.967"/>
</g>
<!-- Node17&#45;&gt;Node28 -->
<g id="edge48" class="edge"><title>Node17&#45;&gt;Node28</title>
<path fill="none" stroke="midnightblue" d="M1676.98,-198.655C1578.79,-189.923 1390.11,-172.509 1230,-154 938.713,-120.326 867.748,-96.4163 576,-67 344.181,-43.6262 278.57,-89.3473 53,-31 51.0155,-30.4867 49.0028,-29.8484 47.0057,-29.1281"/>
<polygon fill="midnightblue" stroke="midnightblue" points="47.9244,-25.7164 37.351,-25.0426 45.1964,-32.163 47.9244,-25.7164"/>
</g>
<!-- Node34 -->
<g id="node34" class="node"><title>Node34</title>
<polygon fill="none" stroke="#bfbfbf" points="1239,-129 1239,-148 1277,-148 1277,-129 1239,-129"/>
<text text-anchor="middle" x="1258" y="-136" font-family="Helvetica,sans-Serif" font-size="10.00">array</text>
</g>
<!-- Node17&#45;&gt;Node34 -->
<g id="edge43" class="edge"><title>Node17&#45;&gt;Node34</title>
<path fill="none" stroke="midnightblue" d="M1676.87,-204.727C1586.23,-203.329 1420.57,-194.718 1286,-154 1284.53,-153.554 1283.04,-153.031 1281.56,-152.453"/>
<polygon fill="midnightblue" stroke="midnightblue" points="1282.65,-149.102 1272.1,-148.084 1279.71,-155.456 1282.65,-149.102"/>
</g>
<!-- Node35 -->
<g id="node35" class="node"><title>Node35</title>
<polygon fill="none" stroke="#bfbfbf" points="1295.5,-129 1295.5,-148 1340.5,-148 1340.5,-129 1295.5,-129"/>
<text text-anchor="middle" x="1318" y="-136" font-family="Helvetica,sans-Serif" font-size="10.00">iosfwd</text>
</g>
<!-- Node17&#45;&gt;Node35 -->
<g id="edge45" class="edge"><title>Node17&#45;&gt;Node35</title>
<path fill="none" stroke="midnightblue" d="M1676.91,-201.97C1597.51,-197.595 1461.95,-185.765 1350,-154 1348.06,-153.451 1346.09,-152.802 1344.13,-152.089"/>
<polygon fill="midnightblue" stroke="midnightblue" points="1345.16,-148.727 1334.58,-148.145 1342.49,-155.197 1345.16,-148.727"/>
</g>
<!-- Node17&#45;&gt;Node36 -->
<g id="edge47" class="edge"><title>Node17&#45;&gt;Node36</title>
<path fill="none" stroke="midnightblue" d="M1811.11,-194.807C1898.45,-182.068 2042.83,-160.542 2067,-154 2069.6,-153.298 2072.26,-152.473 2074.91,-151.58"/>
<polygon fill="midnightblue" stroke="midnightblue" points="2076.11,-154.866 2084.3,-148.14 2073.7,-148.293 2076.11,-154.866"/>
</g>
<!-- Node37 -->
<g id="node37" class="node"><title>Node37</title>
<polygon fill="none" stroke="#bfbfbf" points="1359,-129 1359,-148 1493,-148 1493,-129 1359,-129"/>
<text text-anchor="middle" x="1426" y="-136" font-family="Helvetica,sans-Serif" font-size="10.00">DataDescriptorMatcher.inc</text>
</g>
<!-- Node17&#45;&gt;Node37 -->
<g id="edge49" class="edge"><title>Node17&#45;&gt;Node37</title>
<path fill="none" stroke="midnightblue" d="M1676.95,-190.795C1617.55,-178.653 1532.06,-161.178 1477.78,-150.084"/>
<polygon fill="midnightblue" stroke="midnightblue" points="1478.19,-146.595 1467.69,-148.021 1476.78,-153.453 1478.19,-146.595"/>
</g>
<!-- Node18&#45;&gt;Node6 -->
<g id="edge19" class="edge"><title>Node18&#45;&gt;Node6</title>
<path fill="none" stroke="midnightblue" d="M1885.77,-123.399C1863.16,-113.505 1833.16,-100.383 1811.24,-90.7919"/>
<polygon fill="midnightblue" stroke="midnightblue" points="1812.35,-87.4595 1801.79,-86.6578 1809.55,-93.8726 1812.35,-87.4595"/>
</g>
<!-- Node18&#45;&gt;Node7 -->
<g id="edge20" class="edge"><title>Node18&#45;&gt;Node7</title>
<path fill="none" stroke="midnightblue" d="M1934.57,-123.383C1961.49,-100.445 2014.49,-55.2779 2042.19,-31.676"/>
<polygon fill="midnightblue" stroke="midnightblue" points="2044.58,-34.242 2049.92,-25.0922 2040.04,-28.914 2044.58,-34.242"/>
</g>
<!-- Node18&#45;&gt;Node8 -->
<g id="edge22" class="edge"><title>Node18&#45;&gt;Node8</title>
<path fill="none" stroke="midnightblue" d="M1954.17,-123.383C2015.47,-99.4568 2138.73,-51.3428 2196.62,-28.7478"/>
<polygon fill="midnightblue" stroke="midnightblue" points="2197.94,-31.9887 2205.99,-25.0922 2195.4,-25.4679 2197.94,-31.9887"/>
</g>
<!-- Node18&#45;&gt;Node9 -->
<g id="edge23" class="edge"><title>Node18&#45;&gt;Node9</title>
<path fill="none" stroke="midnightblue" d="M1927.02,-123.145C1941.05,-100.806 1968.06,-57.8044 1983.14,-33.7921"/>
<polygon fill="midnightblue" stroke="midnightblue" points="1986.27,-35.382 1988.63,-25.0522 1980.35,-31.6587 1986.27,-35.382"/>
</g>
<!-- Node19 -->
<g id="node19" class="node"><title>Node19</title>
<polygon fill="none" stroke="#bfbfbf" points="1867.5,-67.5 1867.5,-86.5 1910.5,-86.5 1910.5,-67.5 1867.5,-67.5"/>
<text text-anchor="middle" x="1889" y="-74.5" font-family="Helvetica,sans-Serif" font-size="10.00">cstdio</text>
</g>
<!-- Node18&#45;&gt;Node19 -->
<g id="edge21" class="edge"><title>Node18&#45;&gt;Node19</title>
<path fill="none" stroke="midnightblue" d="M1911.13,-123.399C1907.09,-115.11 1901.94,-104.554 1897.63,-95.7077"/>
<polygon fill="midnightblue" stroke="midnightblue" points="1900.75,-94.1135 1893.22,-86.6578 1894.45,-97.1804 1900.75,-94.1135"/>
</g>
<!-- Node20&#45;&gt;Node6 -->
<g id="edge42" class="edge"><title>Node20&#45;&gt;Node6</title>
<path fill="none" stroke="midnightblue" d="M1588.38,-128.975C1628.24,-118.482 1696.02,-100.637 1739.89,-89.087"/>
<polygon fill="midnightblue" stroke="midnightblue" points="1740.9,-92.4398 1749.68,-86.5091 1739.12,-85.6705 1740.9,-92.4398"/>
</g>
<!-- Node21 -->
<g id="node21" class="node"><title>Node21</title>
<g id="a_node21"><a xlink:href="../../dc/d03/MemoryResources_8h.html" target="_top" xlink:title="MemoryResources/MemoryResources.h">
<polygon fill="none" stroke="black" points="913.5,-67.5 913.5,-86.5 1106.5,-86.5 1106.5,-67.5 913.5,-67.5"/>
<text text-anchor="middle" x="1010" y="-74.5" font-family="Helvetica,sans-Serif" font-size="10.00">MemoryResources/MemoryResources.h</text>
</a>
</g>
</g>
<!-- Node20&#45;&gt;Node21 -->
<g id="edge26" class="edge"><title>Node20&#45;&gt;Node21</title>
<path fill="none" stroke="midnightblue" d="M1527.9,-128.979C1519.62,-126.735 1510.5,-124.519 1502,-123 1370.57,-99.5222 1217.08,-87.9583 1116.94,-82.5001"/>
<polygon fill="midnightblue" stroke="midnightblue" points="1116.99,-78.9977 1106.81,-81.9591 1116.61,-85.9877 1116.99,-78.9977"/>
</g>
<!-- Node21&#45;&gt;Node10 -->
<g id="edge31" class="edge"><title>Node21&#45;&gt;Node10</title>
<path fill="none" stroke="midnightblue" d="M1106.85,-75.4855C1199.89,-72.8788 1343.7,-63.2751 1464,-31 1466.15,-30.4221 1468.35,-29.7135 1470.52,-28.9234"/>
<polygon fill="midnightblue" stroke="midnightblue" points="1471.87,-32.1509 1479.77,-25.0893 1469.19,-25.6841 1471.87,-32.1509"/>
</g>
<!-- Node21&#45;&gt;Node13 -->
<g id="edge32" class="edge"><title>Node21&#45;&gt;Node13</title>
<path fill="none" stroke="midnightblue" d="M1106.5,-74.2269C1353.92,-69.3633 1998.03,-54.5839 2092,-31 2093.94,-30.5142 2095.89,-29.896 2097.84,-29.1899"/>
<polygon fill="midnightblue" stroke="midnightblue" points="2099.41,-32.3215 2107.19,-25.1329 2096.63,-25.8989 2099.41,-32.3215"/>
</g>
<!-- Node21&#45;&gt;Node15 -->
<g id="edge41" class="edge"><title>Node21&#45;&gt;Node15</title>
<path fill="none" stroke="midnightblue" d="M1106.74,-70.4137C1211.02,-63.7346 1381.76,-50.8974 1528,-31 1536.53,-29.8389 1545.55,-28.3798 1554.31,-26.8377"/>
<polygon fill="midnightblue" stroke="midnightblue" points="1555.21,-30.2314 1564.43,-25.0021 1553.96,-23.3439 1555.21,-30.2314"/>
</g>
<!-- Node22 -->
<g id="node22" class="node"><title>Node22</title>
<polygon fill="none" stroke="#bfbfbf" points="757,-0.5 757,-30.5 857,-30.5 857,-0.5 757,-0.5"/>
<text text-anchor="start" x="765" y="-18.5" font-family="Helvetica,sans-Serif" font-size="10.00">boost/container/flat</text>
<text text-anchor="middle" x="807" y="-7.5" font-family="Helvetica,sans-Serif" font-size="10.00">_map.hpp</text>
</g>
<!-- Node21&#45;&gt;Node22 -->
<g id="edge27" class="edge"><title>Node21&#45;&gt;Node22</title>
<path fill="none" stroke="midnightblue" d="M980.915,-67.4751C950.724,-58.6259 902.696,-44.5487 864.753,-33.4277"/>
<polygon fill="midnightblue" stroke="midnightblue" points="865.424,-29.977 854.843,-30.523 863.455,-36.6944 865.424,-29.977"/>
</g>
<!-- Node23 -->
<g id="node23" class="node"><title>Node23</title>
<polygon fill="none" stroke="#bfbfbf" points="875,-0.5 875,-30.5 991,-30.5 991,-0.5 875,-0.5"/>
<text text-anchor="start" x="883" y="-18.5" font-family="Helvetica,sans-Serif" font-size="10.00">boost/container/pmr</text>
<text text-anchor="middle" x="933" y="-7.5" font-family="Helvetica,sans-Serif" font-size="10.00">/memory_resource.hpp</text>
</g>
<!-- Node21&#45;&gt;Node23 -->
<g id="edge28" class="edge"><title>Node21&#45;&gt;Node23</title>
<path fill="none" stroke="midnightblue" d="M998.968,-67.4751C988.637,-59.492 972.8,-47.2542 959.232,-36.7703"/>
<polygon fill="midnightblue" stroke="midnightblue" points="961.2,-33.868 951.147,-30.523 956.92,-39.407 961.2,-33.868"/>
</g>
<!-- Node24 -->
<g id="node24" class="node"><title>Node24</title>
<polygon fill="none" stroke="#bfbfbf" points="1009,-0.5 1009,-30.5 1165,-30.5 1165,-0.5 1009,-0.5"/>
<text text-anchor="start" x="1017" y="-18.5" font-family="Helvetica,sans-Serif" font-size="10.00">boost/container/pmr</text>
<text text-anchor="middle" x="1087" y="-7.5" font-family="Helvetica,sans-Serif" font-size="10.00">/monotonic_buffer_resource.hpp</text>
</g>
<!-- Node21&#45;&gt;Node24 -->
<g id="edge29" class="edge"><title>Node21&#45;&gt;Node24</title>
<path fill="none" stroke="midnightblue" d="M1021.03,-67.4751C1031.36,-59.492 1047.2,-47.2542 1060.77,-36.7703"/>
<polygon fill="midnightblue" stroke="midnightblue" points="1063.08,-39.407 1068.85,-30.523 1058.8,-33.868 1063.08,-39.407"/>
</g>
<!-- Node25 -->
<g id="node25" class="node"><title>Node25</title>
<polygon fill="none" stroke="#bfbfbf" points="1183.5,-0.5 1183.5,-30.5 1316.5,-30.5 1316.5,-0.5 1183.5,-0.5"/>
<text text-anchor="start" x="1191.5" y="-18.5" font-family="Helvetica,sans-Serif" font-size="10.00">boost/container/pmr</text>
<text text-anchor="middle" x="1250" y="-7.5" font-family="Helvetica,sans-Serif" font-size="10.00">/polymorphic_allocator.hpp</text>
</g>
<!-- Node21&#45;&gt;Node25 -->
<g id="edge30" class="edge"><title>Node21&#45;&gt;Node25</title>
<path fill="none" stroke="midnightblue" d="M1044.39,-67.4751C1080.61,-58.4941 1138.56,-44.1282 1183.72,-32.9328"/>
<polygon fill="midnightblue" stroke="midnightblue" points="1184.57,-36.3265 1193.44,-30.523 1182.89,-29.5322 1184.57,-36.3265"/>
</g>
<!-- Node26 -->
<g id="node26" class="node"><title>Node26</title>
<polygon fill="none" stroke="#bfbfbf" points="1335,-6 1335,-25 1397,-25 1397,-6 1335,-6"/>
<text text-anchor="middle" x="1366" y="-13" font-family="Helvetica,sans-Serif" font-size="10.00">type_traits</text>
</g>
<!-- Node21&#45;&gt;Node26 -->
<g id="edge33" class="edge"><title>Node21&#45;&gt;Node26</title>
<path fill="none" stroke="midnightblue" d="M1103.97,-67.4987C1167.08,-60.5902 1251.77,-48.9912 1325,-31 1328.05,-30.2496 1331.2,-29.3595 1334.33,-28.395"/>
<polygon fill="midnightblue" stroke="midnightblue" points="1335.73,-31.6172 1344.11,-25.1408 1333.52,-24.9748 1335.73,-31.6172"/>
</g>
<!-- Node27 -->
<g id="node27" class="node"><title>Node27</title>
<polygon fill="none" stroke="#bfbfbf" points="1415,-6 1415,-25 1455,-25 1455,-6 1415,-6"/>
<text text-anchor="middle" x="1435" y="-13" font-family="Helvetica,sans-Serif" font-size="10.00">utility</text>
</g>
<!-- Node21&#45;&gt;Node27 -->
<g id="edge34" class="edge"><title>Node21&#45;&gt;Node27</title>
<path fill="none" stroke="midnightblue" d="M1106.68,-74.409C1188.04,-70.8606 1306.66,-60.4702 1406,-31 1407.67,-30.5047 1409.36,-29.9173 1411.04,-29.2674"/>
<polygon fill="midnightblue" stroke="midnightblue" points="1412.68,-32.3666 1420.36,-25.0661 1409.8,-25.9851 1412.68,-32.3666"/>
</g>
<!-- Node21&#45;&gt;Node28 -->
<g id="edge35" class="edge"><title>Node21&#45;&gt;Node28</title>
<path fill="none" stroke="midnightblue" d="M913.21,-73.583C686.648,-67.6197 134.796,-51.2119 53,-31 51.01,-30.5083 48.9934,-29.8857 46.9934,-29.1766"/>
<polygon fill="midnightblue" stroke="midnightblue" points="47.9079,-25.7643 37.3331,-25.1135 45.194,-32.2168 47.9079,-25.7643"/>
</g>
<!-- Node29 -->
<g id="node29" class="node"><title>Node29</title>
<polygon fill="none" stroke="#bfbfbf" points="62.5,-6 62.5,-25 145.5,-25 145.5,-6 62.5,-6"/>
<text text-anchor="middle" x="104" y="-13" font-family="Helvetica,sans-Serif" font-size="10.00">unordered_map</text>
</g>
<!-- Node21&#45;&gt;Node29 -->
<g id="edge36" class="edge"><title>Node21&#45;&gt;Node29</title>
<path fill="none" stroke="midnightblue" d="M913.205,-73.7089C721.01,-68.6992 297.435,-55.2363 154,-31 149.132,-30.1774 144.065,-29.0457 139.105,-27.7742"/>
<polygon fill="midnightblue" stroke="midnightblue" points="139.746,-24.3199 129.174,-25.0223 137.876,-31.0657 139.746,-24.3199"/>
</g>
<!-- Node30 -->
<g id="node30" class="node"><title>Node30</title>
<polygon fill="none" stroke="#bfbfbf" points="163.5,-6 163.5,-25 260.5,-25 260.5,-6 163.5,-6"/>
<text text-anchor="middle" x="212" y="-13" font-family="Helvetica,sans-Serif" font-size="10.00">FairMQMessage.h</text>
</g>
<!-- Node21&#45;&gt;Node30 -->
<g id="edge37" class="edge"><title>Node21&#45;&gt;Node30</title>
<path fill="none" stroke="midnightblue" d="M913.455,-72.4022C741.853,-65.6296 390.371,-49.9495 269,-31 263.119,-30.0817 256.96,-28.8298 250.955,-27.4437"/>
<polygon fill="midnightblue" stroke="midnightblue" points="251.617,-24.0024 241.072,-25.0196 249.95,-30.8009 251.617,-24.0024"/>
</g>
<!-- Node31 -->
<g id="node31" class="node"><title>Node31</title>
<polygon fill="none" stroke="#bfbfbf" points="278.5,-6 278.5,-25 409.5,-25 409.5,-6 278.5,-6"/>
<text text-anchor="middle" x="344" y="-13" font-family="Helvetica,sans-Serif" font-size="10.00">FairMQTransportFactory.h</text>
</g>
<!-- Node21&#45;&gt;Node31 -->
<g id="edge38" class="edge"><title>Node21&#45;&gt;Node31</title>
<path fill="none" stroke="midnightblue" d="M913.247,-72.1426C795.724,-66.6522 591.639,-54.5284 418,-31 409.884,-29.9002 401.315,-28.472 392.999,-26.9415"/>
<polygon fill="midnightblue" stroke="midnightblue" points="393.508,-23.4756 383.03,-25.0392 392.196,-30.3515 393.508,-23.4756"/>
</g>
<!-- Node32 -->
<g id="node32" class="node"><title>Node32</title>
<polygon fill="none" stroke="#bfbfbf" points="427.5,-6 427.5,-25 564.5,-25 564.5,-6 427.5,-6"/>
<text text-anchor="middle" x="496" y="-13" font-family="Helvetica,sans-Serif" font-size="10.00">fairmq/MemoryResources.h</text>
</g>
<!-- Node21&#45;&gt;Node32 -->
<g id="edge39" class="edge"><title>Node21&#45;&gt;Node32</title>
<path fill="none" stroke="midnightblue" d="M913.179,-68.27C824.642,-60.6647 690.175,-47.7656 574,-31 565.671,-29.7981 556.876,-28.344 548.31,-26.8266"/>
<polygon fill="midnightblue" stroke="midnightblue" points="548.867,-23.3706 538.403,-25.0275 547.616,-30.2579 548.867,-23.3706"/>
</g>
<!-- Node33 -->
<g id="node33" class="node"><title>Node33</title>
<polygon fill="none" stroke="#bfbfbf" points="583,-6 583,-25 739,-25 739,-6 583,-6"/>
<text text-anchor="middle" x="661" y="-13" font-family="Helvetica,sans-Serif" font-size="10.00">fairmq/MemoryResourceTools.h</text>
</g>
<!-- Node21&#45;&gt;Node33 -->
<g id="edge40" class="edge"><title>Node21&#45;&gt;Node33</title>
<path fill="none" stroke="midnightblue" d="M959.997,-67.4751C896.891,-56.7164 788.461,-38.2304 720.969,-26.724"/>
<polygon fill="midnightblue" stroke="midnightblue" points="721.356,-23.2396 710.91,-25.0091 720.18,-30.14 721.356,-23.2396"/>
</g>
</g>
</svg>
        <g id="navigator" transform="translate(0 0)" fill="#404254">
                <rect fill="#f2f5e9" fill-opacity="0.5" stroke="#606060" stroke-width=".5" x="0" y="0" width="60" height="60"/>
                <use id="zoomplus" xlink:href="#zoomPlus" x="17" y="9" onmousedown="handleZoom(evt,'in')"/>
                <use id="zoomminus" xlink:href="#zoomMin" x="42" y="9" onmousedown="handleZoom(evt,'out')"/>
                <use id="reset" xlink:href="#resetDef" x="30" y="36" onmousedown="handleReset()"/>
                <g id="arrowUp" xlink:href="#dirArrow" transform="translate(30 24)" onmousedown="handlePan(0,-1)">
                  <use xlink:href="#rim" fill="#404040">
                        <set attributeName="fill" to="#808080" begin="arrowUp.mouseover" end="arrowUp.mouseout"/>
                  </use>
                  <path fill="none" stroke="white" stroke-width="1.5" d="M0,-3.0v7 M-2.5,-0.5L0,-3.0L2.5,-0.5"/>
                </g>
                <g id="arrowRight" xlink:href="#dirArrow" transform="rotate(90) translate(36 -43)" onmousedown="handlePan(1,0)">
                  <use xlink:href="#rim" fill="#404040">
                        <set attributeName="fill" to="#808080" begin="arrowRight.mouseover" end="arrowRight.mouseout"/>
                  </use>
                  <path fill="none" stroke="white" stroke-width="1.5" d="M0,-3.0v7 M-2.5,-0.5L0,-3.0L2.5,-0.5"/>
                </g>
                <g id="arrowDown" xlink:href="#dirArrow" transform="rotate(180) translate(-30 -48)" onmousedown="handlePan(0,1)">
                  <use xlink:href="#rim" fill="#404040">
                        <set attributeName="fill" to="#808080" begin="arrowDown.mouseover" end="arrowDown.mouseout"/>
                  </use>
                  <path fill="none" stroke="white" stroke-width="1.5" d="M0,-3.0v7 M-2.5,-0.5L0,-3.0L2.5,-0.5"/>
                </g>
                <g id="arrowLeft" xlink:href="#dirArrow" transform="rotate(270) translate(-36 17)" onmousedown="handlePan(-1,0)">
                  <use xlink:href="#rim" fill="#404040">
                        <set attributeName="fill" to="#808080" begin="arrowLeft.mouseover" end="arrowLeft.mouseout"/>
                  </use>
                  <path fill="none" stroke="white" stroke-width="1.5" d="M0,-3.0v7 M-2.5,-0.5L0,-3.0L2.5,-0.5"/>
                </g>
        </g>
        <svg viewBox="0 0 15 15" width="100%" height="30px" preserveAspectRatio="xMaxYMin meet">
         <g id="arrow_out" transform="scale(0.3 0.3)">
          <a xlink:href="DataDescriptorQueryBuilder_8cxx__incl_org.svg" target="_base">
           <rect id="button" ry="5" rx="5" y="6" x="6" height="38" width="38"
                fill="#f2f5e9" fill-opacity="0.5" stroke="#606060" stroke-width="1.0"/>
           <path id="arrow"
             d="M 11.500037,31.436501 C 11.940474,20.09759 22.043105,11.32322 32.158766,21.979434 L 37.068811,17.246167 C 37.068811,17.246167 37.088388,32 37.088388,32 L 22.160133,31.978069 C 22.160133,31.978069 26.997745,27.140456 26.997745,27.140456 C 18.528582,18.264221 13.291696,25.230495 11.500037,31.436501 z"
             style="fill:#404040;"/>
          </a>
         </g>
        </svg>
</svg>
