<?xml version="1.0" encoding="UTF-8" standalone="no"?>
<!DOCTYPE svg PUBLIC "-//W3C//DTD SVG 1.1//EN"
 "http://www.w3.org/Graphics/SVG/1.1/DTD/svg11.dtd">
<!-- Generated by graphviz version 2.38.0 (20140413.2041)
 -->
<!-- Title: o2::trd::Detector Pages: 1 -->
<svg width="726pt" height="1324pt"
 viewBox="0.00 0.00 725.50 1324.00" xmlns="http://www.w3.org/2000/svg" xmlns:xlink="http://www.w3.org/1999/xlink">
<g id="graph0" class="graph" transform="scale(1 1) rotate(0) translate(4 1320)">
<title>o2::trd::Detector</title>
<!-- Node1 -->
<g id="node1" class="node"><title>Node1</title>
<polygon fill="#bfbfbf" stroke="black" points="263,-0.5 263,-178.5 388,-178.5 388,-0.5 263,-0.5"/>
<text text-anchor="middle" x="325.5" y="-166.5" font-family="Helvetica,sans-Serif" font-size="10.00">o2::trd::Detector</text>
<polyline fill="none" stroke="black" points="263,-159.5 388,-159.5 "/>
<text text-anchor="middle" x="325.5" y="-147.5" font-family="Helvetica,sans-Serif" font-size="10.00"> </text>
<polyline fill="none" stroke="black" points="263,-140.5 388,-140.5 "/>
<text text-anchor="start" x="271" y="-128.5" font-family="Helvetica,sans-Serif" font-size="10.00">+ Detector()</text>
<text text-anchor="start" x="271" y="-117.5" font-family="Helvetica,sans-Serif" font-size="10.00">+ ~Detector()</text>
<text text-anchor="start" x="271" y="-106.5" font-family="Helvetica,sans-Serif" font-size="10.00">+ InitializeO2Detector()</text>
<text text-anchor="start" x="271" y="-95.5" font-family="Helvetica,sans-Serif" font-size="10.00">+ ProcessHits()</text>
<text text-anchor="start" x="271" y="-84.5" font-family="Helvetica,sans-Serif" font-size="10.00">+ Register()</text>
<text text-anchor="start" x="271" y="-73.5" font-family="Helvetica,sans-Serif" font-size="10.00">+ getHits()</text>
<text text-anchor="start" x="271" y="-62.5" font-family="Helvetica,sans-Serif" font-size="10.00">+ FinishEvent()</text>
<text text-anchor="start" x="271" y="-51.5" font-family="Helvetica,sans-Serif" font-size="10.00">+ Reset()</text>
<text text-anchor="start" x="271" y="-40.5" font-family="Helvetica,sans-Serif" font-size="10.00">+ EndOfEvent()</text>
<text text-anchor="start" x="271" y="-29.5" font-family="Helvetica,sans-Serif" font-size="10.00">+ createMaterials()</text>
<text text-anchor="start" x="271" y="-18.5" font-family="Helvetica,sans-Serif" font-size="10.00">+ ConstructGeometry()</text>
<text text-anchor="start" x="271" y="-7.5" font-family="Helvetica,sans-Serif" font-size="10.00">+ addAlignableVolumes()</text>
</g>
<!-- Node2 -->
<g id="node2" class="node"><title>Node2</title>
<g id="a_node2"><a xlink:href="../../de/dc8/classo2_1_1base_1_1DetImpl.html" target="_top" xlink:title="{o2::base::DetImpl\&lt;\l Detector \&gt;\n||+ getHitBranchNames()\l+ updateHitTrackIndices()\l+ attachHits()\l+ mergeAndAdjustHits()\l+ mergeHitEntries()\l+ fillHitBranch()\l+ CloneModule()\l+ freeHitBuffers()\l+ setHits()\l+ createHitBuffers()\l+ initializeLate()\l+ BeginEvent()\l+ ~DetImpl()\l# ClassDefOverride()\l}">
<polygon fill="none" stroke="black" points="260.5,-216.5 260.5,-427.5 390.5,-427.5 390.5,-216.5 260.5,-216.5"/>
<text text-anchor="start" x="268.5" y="-415.5" font-family="Helvetica,sans-Serif" font-size="10.00">o2::base::DetImpl&lt;</text>
<text text-anchor="middle" x="325.5" y="-404.5" font-family="Helvetica,sans-Serif" font-size="10.00"> Detector &gt;</text>
<polyline fill="none" stroke="black" points="260.5,-397.5 390.5,-397.5 "/>
<text text-anchor="middle" x="325.5" y="-385.5" font-family="Helvetica,sans-Serif" font-size="10.00"> </text>
<polyline fill="none" stroke="black" points="260.5,-378.5 390.5,-378.5 "/>
<text text-anchor="start" x="268.5" y="-366.5" font-family="Helvetica,sans-Serif" font-size="10.00">+ getHitBranchNames()</text>
<text text-anchor="start" x="268.5" y="-355.5" font-family="Helvetica,sans-Serif" font-size="10.00">+ updateHitTrackIndices()</text>
<text text-anchor="start" x="268.5" y="-344.5" font-family="Helvetica,sans-Serif" font-size="10.00">+ attachHits()</text>
<text text-anchor="start" x="268.5" y="-333.5" font-family="Helvetica,sans-Serif" font-size="10.00">+ mergeAndAdjustHits()</text>
<text text-anchor="start" x="268.5" y="-322.5" font-family="Helvetica,sans-Serif" font-size="10.00">+ mergeHitEntries()</text>
<text text-anchor="start" x="268.5" y="-311.5" font-family="Helvetica,sans-Serif" font-size="10.00">+ fillHitBranch()</text>
<text text-anchor="start" x="268.5" y="-300.5" font-family="Helvetica,sans-Serif" font-size="10.00">+ CloneModule()</text>
<text text-anchor="start" x="268.5" y="-289.5" font-family="Helvetica,sans-Serif" font-size="10.00">+ freeHitBuffers()</text>
<text text-anchor="start" x="268.5" y="-278.5" font-family="Helvetica,sans-Serif" font-size="10.00">+ setHits()</text>
<text text-anchor="start" x="268.5" y="-267.5" font-family="Helvetica,sans-Serif" font-size="10.00">+ createHitBuffers()</text>
<text text-anchor="start" x="268.5" y="-256.5" font-family="Helvetica,sans-Serif" font-size="10.00">+ initializeLate()</text>
<text text-anchor="start" x="268.5" y="-245.5" font-family="Helvetica,sans-Serif" font-size="10.00">+ BeginEvent()</text>
<text text-anchor="start" x="268.5" y="-234.5" font-family="Helvetica,sans-Serif" font-size="10.00">+ ~DetImpl()</text>
<text text-anchor="start" x="268.5" y="-223.5" font-family="Helvetica,sans-Serif" font-size="10.00"># ClassDefOverride()</text>
</a>
</g>
</g>
<!-- Node2&#45;&gt;Node1 -->
<g id="edge1" class="edge"><title>Node2&#45;&gt;Node1</title>
<path fill="none" stroke="midnightblue" d="M325.5,-205.936C325.5,-196.83 325.5,-187.722 325.5,-178.84"/>
<polygon fill="none" stroke="midnightblue" points="322,-206.204 325.5,-216.204 329,-206.204 322,-206.204"/>
</g>
<!-- Node3 -->
<g id="node3" class="node"><title>Node3</title>
<g id="a_node3"><a xlink:href="../../d2/d00/classo2_1_1base_1_1Detector.html" target="_top" xlink:title="{o2::base::Detector\n||+ Detector()\l+ Detector()\l+ ~Detector()\l+ Material()\l+ Mixture()\l+ Medium()\l+ SpecialCuts()\l+ SpecialCut()\l+ SpecialProcesses()\l+ SpecialProcess()\l+ Matrix()\l+ SetSpecialPhysicsCuts()\l+ addAlignableVolumes()\l+ defineWrapperVolume()\l+ setNumberOfWrapperVolumes()\l+ defineLayer()\l+ defineLayerTurbo()\l+ getMaterialID()\l+ getMediumID()\l+ getMediumIDMappingAsVector()\l+ addNameTo()\l+ getHitBranchNames()\l+ updateHitTrackIndices()\l+ attachHits()\l+ fillHitBranch()\l+ mergeHitEntries()\l+ InitializeO2Detector()\l+ Initialize()\l+ initializeLate()\l+ registerSensitiveVolumeAnd\lGetVolID()\l+ registerSensitiveVolumeAnd\lGetVolID()\l+ GetCollection()\l+ setDensityFactor()\l+ getDensityFactor()\l+ initFieldTrackingParams()\l# Detector()\l# operator=()\l}">
<polygon fill="none" stroke="black" points="0,-745.5 0,-1220.5 167,-1220.5 167,-745.5 0,-745.5"/>
<text text-anchor="middle" x="83.5" y="-1208.5" font-family="Helvetica,sans-Serif" font-size="10.00">o2::base::Detector</text>
<polyline fill="none" stroke="black" points="0,-1201.5 167,-1201.5 "/>
<text text-anchor="middle" x="83.5" y="-1189.5" font-family="Helvetica,sans-Serif" font-size="10.00"> </text>
<polyline fill="none" stroke="black" points="0,-1182.5 167,-1182.5 "/>
<text text-anchor="start" x="8" y="-1170.5" font-family="Helvetica,sans-Serif" font-size="10.00">+ Detector()</text>
<text text-anchor="start" x="8" y="-1159.5" font-family="Helvetica,sans-Serif" font-size="10.00">+ Detector()</text>
<text text-anchor="start" x="8" y="-1148.5" font-family="Helvetica,sans-Serif" font-size="10.00">+ ~Detector()</text>
<text text-anchor="start" x="8" y="-1137.5" font-family="Helvetica,sans-Serif" font-size="10.00">+ Material()</text>
<text text-anchor="start" x="8" y="-1126.5" font-family="Helvetica,sans-Serif" font-size="10.00">+ Mixture()</text>
<text text-anchor="start" x="8" y="-1115.5" font-family="Helvetica,sans-Serif" font-size="10.00">+ Medium()</text>
<text text-anchor="start" x="8" y="-1104.5" font-family="Helvetica,sans-Serif" font-size="10.00">+ SpecialCuts()</text>
<text text-anchor="start" x="8" y="-1093.5" font-family="Helvetica,sans-Serif" font-size="10.00">+ SpecialCut()</text>
<text text-anchor="start" x="8" y="-1082.5" font-family="Helvetica,sans-Serif" font-size="10.00">+ SpecialProcesses()</text>
<text text-anchor="start" x="8" y="-1071.5" font-family="Helvetica,sans-Serif" font-size="10.00">+ SpecialProcess()</text>
<text text-anchor="start" x="8" y="-1060.5" font-family="Helvetica,sans-Serif" font-size="10.00">+ Matrix()</text>
<text text-anchor="start" x="8" y="-1049.5" font-family="Helvetica,sans-Serif" font-size="10.00">+ SetSpecialPhysicsCuts()</text>
<text text-anchor="start" x="8" y="-1038.5" font-family="Helvetica,sans-Serif" font-size="10.00">+ addAlignableVolumes()</text>
<text text-anchor="start" x="8" y="-1027.5" font-family="Helvetica,sans-Serif" font-size="10.00">+ defineWrapperVolume()</text>
<text text-anchor="start" x="8" y="-1016.5" font-family="Helvetica,sans-Serif" font-size="10.00">+ setNumberOfWrapperVolumes()</text>
<text text-anchor="start" x="8" y="-1005.5" font-family="Helvetica,sans-Serif" font-size="10.00">+ defineLayer()</text>
<text text-anchor="start" x="8" y="-994.5" font-family="Helvetica,sans-Serif" font-size="10.00">+ defineLayerTurbo()</text>
<text text-anchor="start" x="8" y="-983.5" font-family="Helvetica,sans-Serif" font-size="10.00">+ getMaterialID()</text>
<text text-anchor="start" x="8" y="-972.5" font-family="Helvetica,sans-Serif" font-size="10.00">+ getMediumID()</text>
<text text-anchor="start" x="8" y="-961.5" font-family="Helvetica,sans-Serif" font-size="10.00">+ getMediumIDMappingAsVector()</text>
<text text-anchor="start" x="8" y="-950.5" font-family="Helvetica,sans-Serif" font-size="10.00">+ addNameTo()</text>
<text text-anchor="start" x="8" y="-939.5" font-family="Helvetica,sans-Serif" font-size="10.00">+ getHitBranchNames()</text>
<text text-anchor="start" x="8" y="-928.5" font-family="Helvetica,sans-Serif" font-size="10.00">+ updateHitTrackIndices()</text>
<text text-anchor="start" x="8" y="-917.5" font-family="Helvetica,sans-Serif" font-size="10.00">+ attachHits()</text>
<text text-anchor="start" x="8" y="-906.5" font-family="Helvetica,sans-Serif" font-size="10.00">+ fillHitBranch()</text>
<text text-anchor="start" x="8" y="-895.5" font-family="Helvetica,sans-Serif" font-size="10.00">+ mergeHitEntries()</text>
<text text-anchor="start" x="8" y="-884.5" font-family="Helvetica,sans-Serif" font-size="10.00">+ InitializeO2Detector()</text>
<text text-anchor="start" x="8" y="-873.5" font-family="Helvetica,sans-Serif" font-size="10.00">+ Initialize()</text>
<text text-anchor="start" x="8" y="-862.5" font-family="Helvetica,sans-Serif" font-size="10.00">+ initializeLate()</text>
<text text-anchor="start" x="8" y="-851.5" font-family="Helvetica,sans-Serif" font-size="10.00">+ registerSensitiveVolumeAnd</text>
<text text-anchor="start" x="8" y="-840.5" font-family="Helvetica,sans-Serif" font-size="10.00">GetVolID()</text>
<text text-anchor="start" x="8" y="-829.5" font-family="Helvetica,sans-Serif" font-size="10.00">+ registerSensitiveVolumeAnd</text>
<text text-anchor="start" x="8" y="-818.5" font-family="Helvetica,sans-Serif" font-size="10.00">GetVolID()</text>
<text text-anchor="start" x="8" y="-807.5" font-family="Helvetica,sans-Serif" font-size="10.00">+ GetCollection()</text>
<text text-anchor="start" x="8" y="-796.5" font-family="Helvetica,sans-Serif" font-size="10.00">+ setDensityFactor()</text>
<text text-anchor="start" x="8" y="-785.5" font-family="Helvetica,sans-Serif" font-size="10.00">+ getDensityFactor()</text>
<text text-anchor="start" x="8" y="-774.5" font-family="Helvetica,sans-Serif" font-size="10.00">+ initFieldTrackingParams()</text>
<text text-anchor="start" x="8" y="-763.5" font-family="Helvetica,sans-Serif" font-size="10.00"># Detector()</text>
<text text-anchor="start" x="8" y="-752.5" font-family="Helvetica,sans-Serif" font-size="10.00"># operator=()</text>
</a>
</g>
</g>
<!-- Node3&#45;&gt;Node2 -->
<g id="edge2" class="edge"><title>Node3&#45;&gt;Node2</title>
<path fill="none" stroke="midnightblue" d="M108.608,-735.282C122.44,-650.709 143.754,-556.816 176.5,-475 193.389,-432.802 228.446,-396.064 260.313,-369.282"/>
<polygon fill="none" stroke="midnightblue" points="105.132,-734.853 107,-745.282 112.043,-735.965 105.132,-734.853"/>
</g>
<!-- Node9 -->
<g id="node9" class="node"><title>Node9</title>
<g id="a_node9"><a xlink:href="../../de/dc8/classo2_1_1base_1_1DetImpl.html" target="_top" xlink:title="{o2::base::DetImpl\&lt;\l Det \&gt;\n||+ getHitBranchNames()\l+ updateHitTrackIndices()\l+ attachHits()\l+ mergeAndAdjustHits()\l+ mergeHitEntries()\l+ fillHitBranch()\l+ CloneModule()\l+ freeHitBuffers()\l+ setHits()\l+ createHitBuffers()\l+ initializeLate()\l+ BeginEvent()\l+ ~DetImpl()\l# ClassDefOverride()\l}">
<polygon fill="none" stroke="black" points="359.5,-475.5 359.5,-686.5 489.5,-686.5 489.5,-475.5 359.5,-475.5"/>
<text text-anchor="start" x="367.5" y="-674.5" font-family="Helvetica,sans-Serif" font-size="10.00">o2::base::DetImpl&lt;</text>
<text text-anchor="middle" x="424.5" y="-663.5" font-family="Helvetica,sans-Serif" font-size="10.00"> Det &gt;</text>
<polyline fill="none" stroke="black" points="359.5,-656.5 489.5,-656.5 "/>
<text text-anchor="middle" x="424.5" y="-644.5" font-family="Helvetica,sans-Serif" font-size="10.00"> </text>
<polyline fill="none" stroke="black" points="359.5,-637.5 489.5,-637.5 "/>
<text text-anchor="start" x="367.5" y="-625.5" font-family="Helvetica,sans-Serif" font-size="10.00">+ getHitBranchNames()</text>
<text text-anchor="start" x="367.5" y="-614.5" font-family="Helvetica,sans-Serif" font-size="10.00">+ updateHitTrackIndices()</text>
<text text-anchor="start" x="367.5" y="-603.5" font-family="Helvetica,sans-Serif" font-size="10.00">+ attachHits()</text>
<text text-anchor="start" x="367.5" y="-592.5" font-family="Helvetica,sans-Serif" font-size="10.00">+ mergeAndAdjustHits()</text>
<text text-anchor="start" x="367.5" y="-581.5" font-family="Helvetica,sans-Serif" font-size="10.00">+ mergeHitEntries()</text>
<text text-anchor="start" x="367.5" y="-570.5" font-family="Helvetica,sans-Serif" font-size="10.00">+ fillHitBranch()</text>
<text text-anchor="start" x="367.5" y="-559.5" font-family="Helvetica,sans-Serif" font-size="10.00">+ CloneModule()</text>
<text text-anchor="start" x="367.5" y="-548.5" font-family="Helvetica,sans-Serif" font-size="10.00">+ freeHitBuffers()</text>
<text text-anchor="start" x="367.5" y="-537.5" font-family="Helvetica,sans-Serif" font-size="10.00">+ setHits()</text>
<text text-anchor="start" x="367.5" y="-526.5" font-family="Helvetica,sans-Serif" font-size="10.00">+ createHitBuffers()</text>
<text text-anchor="start" x="367.5" y="-515.5" font-family="Helvetica,sans-Serif" font-size="10.00">+ initializeLate()</text>
<text text-anchor="start" x="367.5" y="-504.5" font-family="Helvetica,sans-Serif" font-size="10.00">+ BeginEvent()</text>
<text text-anchor="start" x="367.5" y="-493.5" font-family="Helvetica,sans-Serif" font-size="10.00">+ ~DetImpl()</text>
<text text-anchor="start" x="367.5" y="-482.5" font-family="Helvetica,sans-Serif" font-size="10.00"># ClassDefOverride()</text>
</a>
</g>
</g>
<!-- Node3&#45;&gt;Node9 -->
<g id="edge9" class="edge"><title>Node3&#45;&gt;Node9</title>
<path fill="none" stroke="midnightblue" d="M173.767,-747.808C174.669,-746.862 175.58,-745.926 176.5,-745 210.237,-711.041 231.03,-719.96 276.5,-705 306.606,-695.095 319.173,-704.645 345.5,-687 350.332,-683.761 354.986,-680.126 359.448,-676.205"/>
<polygon fill="none" stroke="midnightblue" points="171.145,-745.489 167.019,-755.247 176.33,-750.192 171.145,-745.489"/>
</g>
<!-- Node4 -->
<g id="node4" class="node"><title>Node4</title>
<g id="a_node4"><a xlink:href="../../d6/d0c/classFairDetector.html" target="_top" xlink:title="{FairDetector\n||}">
<polygon fill="none" stroke="black" points="48,-1258.5 48,-1315.5 119,-1315.5 119,-1258.5 48,-1258.5"/>
<text text-anchor="middle" x="83.5" y="-1303.5" font-family="Helvetica,sans-Serif" font-size="10.00">FairDetector</text>
<polyline fill="none" stroke="black" points="48,-1296.5 119,-1296.5 "/>
<text text-anchor="middle" x="83.5" y="-1284.5" font-family="Helvetica,sans-Serif" font-size="10.00"> </text>
<polyline fill="none" stroke="black" points="48,-1277.5 119,-1277.5 "/>
<text text-anchor="middle" x="83.5" y="-1265.5" font-family="Helvetica,sans-Serif" font-size="10.00"> </text>
</a>
</g>
</g>
<!-- Node4&#45;&gt;Node3 -->
<g id="edge3" class="edge"><title>Node4&#45;&gt;Node3</title>
<path fill="none" stroke="midnightblue" d="M83.5,-1248.23C83.5,-1240.01 83.5,-1230.74 83.5,-1220.72"/>
<polygon fill="none" stroke="midnightblue" points="80.0001,-1248.4 83.5,-1258.4 87.0001,-1248.4 80.0001,-1248.4"/>
</g>
<!-- Node5 -->
<g id="node5" class="node"><title>Node5</title>
<polygon fill="none" stroke="#bfbfbf" points="185.5,-954.5 185.5,-1011.5 285.5,-1011.5 285.5,-954.5 185.5,-954.5"/>
<text text-anchor="middle" x="235.5" y="-999.5" font-family="Helvetica,sans-Serif" font-size="10.00">static constexpr int</text>
<polyline fill="none" stroke="#bfbfbf" points="185.5,-992.5 285.5,-992.5 "/>
<text text-anchor="middle" x="235.5" y="-980.5" font-family="Helvetica,sans-Serif" font-size="10.00"> </text>
<polyline fill="none" stroke="#bfbfbf" points="185.5,-973.5 285.5,-973.5 "/>
<text text-anchor="middle" x="235.5" y="-961.5" font-family="Helvetica,sans-Serif" font-size="10.00"> </text>
</g>
<!-- Node5&#45;&gt;Node2 -->
<g id="edge4" class="edge"><title>Node5&#45;&gt;Node2</title>
<path fill="none" stroke="#404040" d="M229.875,-954.308C211.56,-861.741 156.72,-563.903 190.5,-475 203.284,-441.355 227.305,-410.395 251.582,-385.32"/>
<polygon fill="none" stroke="#404040" points="251.695,-385.206 253.093,-378.132 260.161,-376.702 258.763,-383.776 251.695,-385.206"/>
<text text-anchor="middle" x="230.5" y="-578.5" font-family="Helvetica,sans-Serif" font-size="10.00"> #NHITBUFFERS</text>
</g>
<!-- Node5&#45;&gt;Node9 -->
<g id="edge10" class="edge"><title>Node5&#45;&gt;Node9</title>
<path fill="none" stroke="#404040" d="M232.999,-954.139C229.676,-899.356 230.345,-776.721 293.5,-705 309.663,-686.645 325.731,-701.399 345.5,-687 346.998,-685.909 348.481,-684.781 349.948,-683.62"/>
<polygon fill="none" stroke="#404040" points="350.284,-683.331 352.231,-676.388 359.389,-675.515 357.442,-682.458 350.284,-683.331"/>
<text text-anchor="middle" x="333.5" y="-713.5" font-family="Helvetica,sans-Serif" font-size="10.00"> #NHITBUFFERS</text>
</g>
<!-- Node6 -->
<g id="node6" class="node"><title>Node6</title>
<polygon fill="none" stroke="#bfbfbf" points="325,-954.5 325,-1011.5 366,-1011.5 366,-954.5 325,-954.5"/>
<text text-anchor="middle" x="345.5" y="-999.5" font-family="Helvetica,sans-Serif" font-size="10.00">bool *</text>
<polyline fill="none" stroke="#bfbfbf" points="325,-992.5 366,-992.5 "/>
<text text-anchor="middle" x="345.5" y="-980.5" font-family="Helvetica,sans-Serif" font-size="10.00"> </text>
<polyline fill="none" stroke="#bfbfbf" points="325,-973.5 366,-973.5 "/>
<text text-anchor="middle" x="345.5" y="-961.5" font-family="Helvetica,sans-Serif" font-size="10.00"> </text>
</g>
<!-- Node6&#45;&gt;Node2 -->
<g id="edge5" class="edge"><title>Node6&#45;&gt;Node2</title>
<path fill="none" stroke="#404040" d="M345.973,-954.411C345.883,-903.137 341.096,-790.602 304.5,-705 300.516,-695.681 293.789,-696.586 290.5,-687 259.921,-597.878 279.861,-568.62 290.5,-475 291.819,-463.397 293.686,-451.389 295.88,-439.443"/>
<polygon fill="none" stroke="#404040" points="295.904,-439.318 293.112,-432.669 298.175,-427.535 300.968,-434.183 295.904,-439.318"/>
<text text-anchor="middle" x="320.5" y="-578.5" font-family="Helvetica,sans-Serif" font-size="10.00"> #mShmBusy</text>
</g>
<!-- Node6&#45;&gt;Node9 -->
<g id="edge11" class="edge"><title>Node6&#45;&gt;Node9</title>
<path fill="none" stroke="#404040" d="M347.01,-954.12C350.181,-903.77 359.09,-794.575 380.5,-705 381.044,-702.725 381.615,-700.434 382.211,-698.132"/>
<polygon fill="none" stroke="#404040" points="382.213,-698.123 379.938,-691.281 385.379,-686.549 387.654,-693.392 382.213,-698.123"/>
<text text-anchor="middle" x="410.5" y="-713.5" font-family="Helvetica,sans-Serif" font-size="10.00"> #mShmBusy</text>
</g>
<!-- Node7 -->
<g id="node7" class="node"><title>Node7</title>
<polygon fill="none" stroke="#bfbfbf" points="574,-954.5 574,-1011.5 603,-1011.5 603,-954.5 574,-954.5"/>
<text text-anchor="middle" x="588.5" y="-999.5" font-family="Helvetica,sans-Serif" font-size="10.00">int</text>
<polyline fill="none" stroke="#bfbfbf" points="574,-992.5 603,-992.5 "/>
<text text-anchor="middle" x="588.5" y="-980.5" font-family="Helvetica,sans-Serif" font-size="10.00"> </text>
<polyline fill="none" stroke="#bfbfbf" points="574,-973.5 603,-973.5 "/>
<text text-anchor="middle" x="588.5" y="-961.5" font-family="Helvetica,sans-Serif" font-size="10.00"> </text>
</g>
<!-- Node7&#45;&gt;Node2 -->
<g id="edge6" class="edge"><title>Node7&#45;&gt;Node2</title>
<path fill="none" stroke="#404040" d="M597.959,-954.385C623.969,-873.081 688.192,-630.536 587.5,-475 544.879,-409.165 462.998,-368.45 402.065,-345.93"/>
<polygon fill="none" stroke="#404040" points="401.855,-345.855 394.857,-347.593 390.561,-341.801 397.56,-340.063 401.855,-345.855"/>
<text text-anchor="middle" x="679.5" y="-584" font-family="Helvetica,sans-Serif" font-size="10.00"> #mCurrentBuffer</text>
<text text-anchor="middle" x="679.5" y="-573" font-family="Helvetica,sans-Serif" font-size="10.00">#mInitialized</text>
</g>
<!-- Node7&#45;&gt;Node9 -->
<g id="edge12" class="edge"><title>Node7&#45;&gt;Node9</title>
<path fill="none" stroke="#404040" d="M587.712,-954.159C585.53,-908.612 577.324,-816.123 546.5,-745 546.012,-743.874 522.987,-713.048 497.071,-678.503"/>
<polygon fill="none" stroke="#404040" points="496.904,-678.281 490.103,-675.883 489.701,-668.683 496.501,-671.081 496.904,-678.281"/>
<text text-anchor="middle" x="569.5" y="-719" font-family="Helvetica,sans-Serif" font-size="10.00"> #mCurrentBuffer</text>
<text text-anchor="middle" x="569.5" y="-708" font-family="Helvetica,sans-Serif" font-size="10.00">#mInitialized</text>
</g>
<!-- Node8 -->
<g id="node8" class="node"><title>Node8</title>
<polygon fill="none" stroke="#bfbfbf" points="451.5,-954.5 451.5,-1011.5 537.5,-1011.5 537.5,-954.5 451.5,-954.5"/>
<text text-anchor="middle" x="494.5" y="-999.5" font-family="Helvetica,sans-Serif" font-size="10.00">vector&lt; void * &gt;</text>
<polyline fill="none" stroke="#bfbfbf" points="451.5,-992.5 537.5,-992.5 "/>
<text text-anchor="middle" x="494.5" y="-980.5" font-family="Helvetica,sans-Serif" font-size="10.00"> </text>
<polyline fill="none" stroke="#bfbfbf" points="451.5,-973.5 537.5,-973.5 "/>
<text text-anchor="middle" x="494.5" y="-961.5" font-family="Helvetica,sans-Serif" font-size="10.00"> </text>
</g>
<!-- Node8&#45;&gt;Node2 -->
<g id="edge7" class="edge"><title>Node8&#45;&gt;Node2</title>
<path fill="none" stroke="#404040" d="M497.887,-954.35C508.805,-861.252 540.027,-560.271 498.5,-475 477.219,-431.302 437.136,-394.828 400.908,-368.573"/>
<polygon fill="none" stroke="#404040" points="400.612,-368.364 393.403,-368.169 390.81,-361.441 398.019,-361.635 400.612,-368.364"/>
<text text-anchor="middle" x="551.5" y="-578.5" font-family="Helvetica,sans-Serif" font-size="10.00"> #mCachedPtr</text>
</g>
<!-- Node8&#45;&gt;Node9 -->
<g id="edge13" class="edge"><title>Node8&#45;&gt;Node9</title>
<path fill="none" stroke="#404040" d="M489.197,-954.494C480.246,-907.79 461.724,-809.97 447.5,-727 445.925,-717.815 444.331,-708.296 442.755,-698.725"/>
<polygon fill="none" stroke="#404040" points="442.709,-698.439 437.793,-693.163 440.772,-686.596 445.688,-691.872 442.709,-698.439"/>
<text text-anchor="middle" x="479.5" y="-713.5" font-family="Helvetica,sans-Serif" font-size="10.00"> #mCachedPtr</text>
</g>
<!-- Node9&#45;&gt;Node2 -->
<g id="edge8" class="edge"><title>Node9&#45;&gt;Node2</title>
<path fill="none" stroke="orange" d="M380.526,-465.846C375.657,-453.204 370.715,-440.375 365.892,-427.856"/>
<polygon fill="orange" stroke="orange" points="377.372,-467.395 384.233,-475.468 383.904,-464.879 377.372,-467.395"/>
<text text-anchor="middle" x="405" y="-449" font-family="Helvetica,sans-Serif" font-size="10.00"> &lt; Detector &gt;</text>
</g>
</g>
</svg>
