<?xml version="1.0" encoding="UTF-8" standalone="no"?>
<!DOCTYPE svg PUBLIC "-//W3C//DTD SVG 1.1//EN"
 "http://www.w3.org/Graphics/SVG/1.1/DTD/svg11.dtd">
<!-- Generated by graphviz version 2.38.0 (20140413.2041)
 -->
<!-- Title: /home/travis/build/AliceO2Group/AliceO2/GPU/GPUTracking/gpucf/cl/config.h Pages: 1 -->
<svg width="145pt" height="229pt"
 viewBox="0.00 0.00 145.00 229.00" xmlns="http://www.w3.org/2000/svg" xmlns:xlink="http://www.w3.org/1999/xlink">
<g id="graph0" class="graph" transform="scale(1 1) rotate(0) translate(4 225)">
<title>/home/travis/build/AliceO2Group/AliceO2/GPU/GPUTracking/gpucf/cl/config.h</title>
<!-- Node1 -->
<g id="node1" class="node"><title>Node1</title>
<polygon fill="#bfbfbf" stroke="black" points="6,-168.5 6,-220.5 137,-220.5 137,-168.5 6,-168.5"/>
<text text-anchor="start" x="14" y="-208.5" font-family="Helvetica,sans-Serif" font-size="10.00">/home/travis/build</text>
<text text-anchor="start" x="14" y="-197.5" font-family="Helvetica,sans-Serif" font-size="10.00">/AliceO2Group/AliceO2</text>
<text text-anchor="start" x="14" y="-186.5" font-family="Helvetica,sans-Serif" font-size="10.00">/GPU/GPUTracking/gpucf</text>
<text text-anchor="middle" x="71.5" y="-175.5" font-family="Helvetica,sans-Serif" font-size="10.00">/cl/config.h</text>
</g>
<!-- Node2 -->
<g id="node2" class="node"><title>Node2</title>
<g id="a_node2"><a xlink:href="../../d0/d95/GPU_2GPUTracking_2gpucf_2cl_2shared_2Digit_8h.html" target="_top" xlink:title="shared/Digit.h">
<polygon fill="none" stroke="black" points="0,-112.5 0,-131.5 77,-131.5 77,-112.5 0,-112.5"/>
<text text-anchor="middle" x="38.5" y="-119.5" font-family="Helvetica,sans-Serif" font-size="10.00">shared/Digit.h</text>
</a>
</g>
</g>
<!-- Node1&#45;&gt;Node2 -->
<g id="edge1" class="edge"><title>Node1&#45;&gt;Node2</title>
<path fill="none" stroke="midnightblue" d="M59.7725,-168.446C55.5052,-159.329 50.772,-149.217 46.8558,-140.851"/>
<polygon fill="midnightblue" stroke="midnightblue" points="49.9796,-139.269 42.5702,-131.695 43.6398,-142.236 49.9796,-139.269"/>
</g>
<!-- Node3 -->
<g id="node3" class="node"><title>Node3</title>
<g id="a_node3"><a xlink:href="../../d9/d09/tpc_8h.html" target="_top" xlink:title="tpc.h">
<polygon fill="none" stroke="black" points="52.5,-56.5 52.5,-75.5 90.5,-75.5 90.5,-56.5 52.5,-56.5"/>
<text text-anchor="middle" x="71.5" y="-63.5" font-family="Helvetica,sans-Serif" font-size="10.00">tpc.h</text>
</a>
</g>
</g>
<!-- Node1&#45;&gt;Node3 -->
<g id="edge4" class="edge"><title>Node1&#45;&gt;Node3</title>
<path fill="none" stroke="midnightblue" d="M80.6835,-168.217C85.3966,-152.148 89.565,-130.888 86.5,-112 85.0325,-102.957 82.0077,-93.275 79.0562,-85.2176"/>
<polygon fill="midnightblue" stroke="midnightblue" points="82.2564,-83.7907 75.3557,-75.7514 75.7368,-86.3393 82.2564,-83.7907"/>
</g>
<!-- Node2&#45;&gt;Node3 -->
<g id="edge2" class="edge"><title>Node2&#45;&gt;Node3</title>
<path fill="none" stroke="midnightblue" d="M43.9493,-112.083C48.5145,-104.613 55.1684,-93.7244 60.7934,-84.5199"/>
<polygon fill="midnightblue" stroke="midnightblue" points="63.9241,-86.109 66.1521,-75.7511 57.9511,-82.4588 63.9241,-86.109"/>
</g>
<!-- Node4 -->
<g id="node4" class="node"><title>Node4</title>
<g id="a_node4"><a xlink:href="../../d9/d49/types_8h.html" target="_top" xlink:title="types.h">
<polygon fill="none" stroke="black" points="47,-0.5 47,-19.5 96,-19.5 96,-0.5 47,-0.5"/>
<text text-anchor="middle" x="71.5" y="-7.5" font-family="Helvetica,sans-Serif" font-size="10.00">types.h</text>
</a>
</g>
</g>
<!-- Node3&#45;&gt;Node4 -->
<g id="edge3" class="edge"><title>Node3&#45;&gt;Node4</title>
<path fill="none" stroke="midnightblue" d="M71.5,-56.083C71.5,-49.0059 71.5,-38.8611 71.5,-29.9865"/>
<polygon fill="midnightblue" stroke="midnightblue" points="75.0001,-29.751 71.5,-19.7511 68.0001,-29.7511 75.0001,-29.751"/>
</g>
</g>
</svg>
