<?xml version="1.0" encoding="UTF-8" standalone="no"?>
<!DOCTYPE svg PUBLIC "-//W3C//DTD SVG 1.1//EN"
 "http://www.w3.org/Graphics/SVG/1.1/DTD/svg11.dtd">
<!-- Generated by graphviz version 2.38.0 (20140413.2041)
 -->
<!-- Title: /home/travis/build/AliceO2Group/AliceO2/EventVisualisation/View/src/main.cxx Pages: 1 -->
<svg width="1155pt" height="575pt"
 viewBox="0.00 0.00 1155.00 575.00" xmlns="http://www.w3.org/2000/svg" xmlns:xlink="http://www.w3.org/1999/xlink">
<g id="graph0" class="graph" transform="scale(1 1) rotate(0) translate(4 571)">
<title>/home/travis/build/AliceO2Group/AliceO2/EventVisualisation/View/src/main.cxx</title>
<!-- Node1 -->
<g id="node1" class="node"><title>Node1</title>
<polygon fill="#bfbfbf" stroke="black" points="524.5,-514.5 524.5,-566.5 649.5,-566.5 649.5,-514.5 524.5,-514.5"/>
<text text-anchor="start" x="532.5" y="-554.5" font-family="Helvetica,sans-Serif" font-size="10.00">/home/travis/build</text>
<text text-anchor="start" x="532.5" y="-543.5" font-family="Helvetica,sans-Serif" font-size="10.00">/AliceO2Group/AliceO2</text>
<text text-anchor="start" x="532.5" y="-532.5" font-family="Helvetica,sans-Serif" font-size="10.00">/EventVisualisation/View</text>
<text text-anchor="middle" x="587" y="-521.5" font-family="Helvetica,sans-Serif" font-size="10.00">/src/main.cxx</text>
</g>
<!-- Node2 -->
<g id="node2" class="node"><title>Node2</title>
<g id="a_node2"><a xlink:href="../../d8/df3/Initializer_8h.html" target="_top" xlink:title="EventVisualisationView\l/Initializer.h">
<polygon fill="none" stroke="black" points="292.5,-447.5 292.5,-477.5 411.5,-477.5 411.5,-447.5 292.5,-447.5"/>
<text text-anchor="start" x="300.5" y="-465.5" font-family="Helvetica,sans-Serif" font-size="10.00">EventVisualisationView</text>
<text text-anchor="middle" x="352" y="-454.5" font-family="Helvetica,sans-Serif" font-size="10.00">/Initializer.h</text>
</a>
</g>
</g>
<!-- Node1&#45;&gt;Node2 -->
<g id="edge1" class="edge"><title>Node1&#45;&gt;Node2</title>
<path fill="none" stroke="midnightblue" d="M524.333,-519.233C487.172,-507.215 440.58,-492.147 405.213,-480.709"/>
<polygon fill="midnightblue" stroke="midnightblue" points="406.145,-477.332 395.553,-477.585 403.991,-483.993 406.145,-477.332"/>
</g>
<!-- Node6 -->
<g id="node6" class="node"><title>Node6</title>
<g id="a_node6"><a xlink:href="../../dd/dbf/DataInterpreter_8h.html" target="_top" xlink:title="EventVisualisationBase\l/DataInterpreter.h">
<polygon fill="none" stroke="black" points="58,-313.5 58,-343.5 178,-343.5 178,-313.5 58,-313.5"/>
<text text-anchor="start" x="66" y="-331.5" font-family="Helvetica,sans-Serif" font-size="10.00">EventVisualisationBase</text>
<text text-anchor="middle" x="118" y="-320.5" font-family="Helvetica,sans-Serif" font-size="10.00">/DataInterpreter.h</text>
</a>
</g>
</g>
<!-- Node1&#45;&gt;Node6 -->
<g id="edge43" class="edge"><title>Node1&#45;&gt;Node6</title>
<path fill="none" stroke="midnightblue" d="M524.472,-536.478C460.715,-531.247 360.441,-516.969 283,-478 220.162,-446.379 163.049,-384.355 135.443,-351.359"/>
<polygon fill="midnightblue" stroke="midnightblue" points="138.135,-349.123 129.074,-343.632 132.733,-353.575 138.135,-349.123"/>
</g>
<!-- Node15 -->
<g id="node15" class="node"><title>Node15</title>
<polygon fill="none" stroke="#bfbfbf" points="76.5,-118 76.5,-137 117.5,-137 117.5,-118 76.5,-118"/>
<text text-anchor="middle" x="97" y="-125" font-family="Helvetica,sans-Serif" font-size="10.00">ctime</text>
</g>
<!-- Node1&#45;&gt;Node15 -->
<g id="edge50" class="edge"><title>Node1&#45;&gt;Node15</title>
<path fill="none" stroke="midnightblue" d="M524.459,-537.452C373.208,-530.804 0,-503.553 0,-396.5 0,-396.5 0,-396.5 0,-260.5 0,-209.47 47.6561,-165.125 76.1613,-143.165"/>
<polygon fill="midnightblue" stroke="midnightblue" points="78.392,-145.867 84.3189,-137.086 74.2091,-140.255 78.392,-145.867"/>
</g>
<!-- Node29 -->
<g id="node29" class="node"><title>Node29</title>
<g id="a_node29"><a xlink:href="../../db/d9e/ConfigurationManager_8h.html" target="_top" xlink:title="EventVisualisationBase\l/ConfigurationManager.h">
<polygon fill="none" stroke="black" points="468.5,-447.5 468.5,-477.5 591.5,-477.5 591.5,-447.5 468.5,-447.5"/>
<text text-anchor="start" x="476.5" y="-465.5" font-family="Helvetica,sans-Serif" font-size="10.00">EventVisualisationBase</text>
<text text-anchor="middle" x="530" y="-454.5" font-family="Helvetica,sans-Serif" font-size="10.00">/ConfigurationManager.h</text>
</a>
</g>
</g>
<!-- Node1&#45;&gt;Node29 -->
<g id="edge41" class="edge"><title>Node1&#45;&gt;Node29</title>
<path fill="none" stroke="midnightblue" d="M568.02,-514.193C561.148,-505.031 553.442,-494.756 546.774,-485.865"/>
<polygon fill="midnightblue" stroke="midnightblue" points="549.559,-483.745 540.759,-477.845 543.959,-487.945 549.559,-483.745"/>
</g>
<!-- Node30 -->
<g id="node30" class="node"><title>Node30</title>
<polygon fill="none" stroke="#bfbfbf" points="506,-386 506,-405 554,-405 554,-386 506,-386"/>
<text text-anchor="middle" x="530" y="-393" font-family="Helvetica,sans-Serif" font-size="10.00">TEnv.h</text>
</g>
<!-- Node1&#45;&gt;Node30 -->
<g id="edge48" class="edge"><title>Node1&#45;&gt;Node30</title>
<path fill="none" stroke="midnightblue" d="M524.348,-524.955C499.57,-515.804 473.57,-501.165 459,-478 451.665,-466.337 452.683,-459.244 459,-447 467.557,-430.413 484.36,-418.083 499.472,-409.761"/>
<polygon fill="midnightblue" stroke="midnightblue" points="501.272,-412.771 508.573,-405.094 498.078,-406.542 501.272,-412.771"/>
</g>
<!-- Node31 -->
<g id="node31" class="node"><title>Node31</title>
<polygon fill="none" stroke="#bfbfbf" points="609.5,-453 609.5,-472 680.5,-472 680.5,-453 609.5,-453"/>
<text text-anchor="middle" x="645" y="-460" font-family="Helvetica,sans-Serif" font-size="10.00">FairLogger.h</text>
</g>
<!-- Node1&#45;&gt;Node31 -->
<g id="edge44" class="edge"><title>Node1&#45;&gt;Node31</title>
<path fill="none" stroke="midnightblue" d="M606.313,-514.193C614.79,-503.085 624.515,-490.342 632.094,-480.411"/>
<polygon fill="midnightblue" stroke="midnightblue" points="635.069,-482.282 638.354,-472.209 629.505,-478.035 635.069,-482.282"/>
</g>
<!-- Node32 -->
<g id="node32" class="node"><title>Node32</title>
<polygon fill="none" stroke="#bfbfbf" points="698.5,-453 698.5,-472 777.5,-472 777.5,-453 698.5,-453"/>
<text text-anchor="middle" x="738" y="-460" font-family="Helvetica,sans-Serif" font-size="10.00">TApplication.h</text>
</g>
<!-- Node1&#45;&gt;Node32 -->
<g id="edge45" class="edge"><title>Node1&#45;&gt;Node32</title>
<path fill="none" stroke="midnightblue" d="M636.862,-514.404C661.927,-501.788 691.272,-487.019 711.877,-476.648"/>
<polygon fill="midnightblue" stroke="midnightblue" points="713.598,-479.7 720.957,-472.078 710.451,-473.447 713.598,-479.7"/>
</g>
<!-- Node33 -->
<g id="node33" class="node"><title>Node33</title>
<polygon fill="none" stroke="#bfbfbf" points="795,-453 795,-472 879,-472 879,-453 795,-453"/>
<text text-anchor="middle" x="837" y="-460" font-family="Helvetica,sans-Serif" font-size="10.00">TEveBrowser.h</text>
</g>
<!-- Node1&#45;&gt;Node33 -->
<g id="edge46" class="edge"><title>Node1&#45;&gt;Node33</title>
<path fill="none" stroke="midnightblue" d="M649.763,-520.42C696.732,-506.142 759.44,-487.078 799.029,-475.043"/>
<polygon fill="midnightblue" stroke="midnightblue" points="800.266,-478.325 808.816,-472.068 798.23,-471.628 800.266,-478.325"/>
</g>
<!-- Node34 -->
<g id="node34" class="node"><title>Node34</title>
<polygon fill="none" stroke="#bfbfbf" points="897,-453 897,-472 983,-472 983,-453 897,-453"/>
<text text-anchor="middle" x="940" y="-460" font-family="Helvetica,sans-Serif" font-size="10.00">TEveManager.h</text>
</g>
<!-- Node1&#45;&gt;Node34 -->
<g id="edge47" class="edge"><title>Node1&#45;&gt;Node34</title>
<path fill="none" stroke="midnightblue" d="M649.543,-528.052C710.622,-516.559 806.079,-497.765 888,-478 892.151,-476.998 896.472,-475.894 900.77,-474.755"/>
<polygon fill="midnightblue" stroke="midnightblue" points="901.935,-478.066 910.669,-472.068 900.101,-471.31 901.935,-478.066"/>
</g>
<!-- Node35 -->
<g id="node35" class="node"><title>Node35</title>
<polygon fill="none" stroke="#bfbfbf" points="1001.5,-453 1001.5,-472 1052.5,-472 1052.5,-453 1001.5,-453"/>
<text text-anchor="middle" x="1027" y="-460" font-family="Helvetica,sans-Serif" font-size="10.00">unistd.h</text>
</g>
<!-- Node1&#45;&gt;Node35 -->
<g id="edge49" class="edge"><title>Node1&#45;&gt;Node35</title>
<path fill="none" stroke="midnightblue" d="M649.736,-534.712C730.191,-527.499 873.479,-511.022 992,-478 994.439,-477.32 996.937,-476.517 999.419,-475.643"/>
<polygon fill="midnightblue" stroke="midnightblue" points="1000.7,-478.9 1008.77,-472.031 998.178,-472.37 1000.7,-478.9"/>
</g>
<!-- Node3 -->
<g id="node3" class="node"><title>Node3</title>
<g id="a_node3"><a xlink:href="../../d8/d25/EventManager_8h.html" target="_top" xlink:title="EventVisualisationView\l/EventManager.h">
<polygon fill="none" stroke="black" points="368.5,-380.5 368.5,-410.5 487.5,-410.5 487.5,-380.5 368.5,-380.5"/>
<text text-anchor="start" x="376.5" y="-398.5" font-family="Helvetica,sans-Serif" font-size="10.00">EventVisualisationView</text>
<text text-anchor="middle" x="428" y="-387.5" font-family="Helvetica,sans-Serif" font-size="10.00">/EventManager.h</text>
</a>
</g>
</g>
<!-- Node2&#45;&gt;Node3 -->
<g id="edge2" class="edge"><title>Node2&#45;&gt;Node3</title>
<path fill="none" stroke="midnightblue" d="M368.491,-447.396C378.848,-438.538 392.385,-426.96 403.93,-417.086"/>
<polygon fill="midnightblue" stroke="midnightblue" points="406.217,-419.736 411.541,-410.577 401.667,-414.416 406.217,-419.736"/>
</g>
<!-- Node4 -->
<g id="node4" class="node"><title>Node4</title>
<g id="a_node4"><a xlink:href="../../d6/d7c/VisualisationConstants_8h.html" target="_top" xlink:title="EventVisualisationBase\l/VisualisationConstants.h">
<polygon fill="none" stroke="black" points="208,-246.5 208,-276.5 336,-276.5 336,-246.5 208,-246.5"/>
<text text-anchor="start" x="216" y="-264.5" font-family="Helvetica,sans-Serif" font-size="10.00">EventVisualisationBase</text>
<text text-anchor="middle" x="272" y="-253.5" font-family="Helvetica,sans-Serif" font-size="10.00">/VisualisationConstants.h</text>
</a>
</g>
</g>
<!-- Node3&#45;&gt;Node4 -->
<g id="edge3" class="edge"><title>Node3&#45;&gt;Node4</title>
<path fill="none" stroke="midnightblue" d="M368.281,-387.761C314.931,-380.366 242.558,-366.461 225,-344 210.037,-324.858 228.331,-300.445 246.285,-283.349"/>
<polygon fill="midnightblue" stroke="midnightblue" points="248.786,-285.807 253.862,-276.507 244.094,-280.612 248.786,-285.807"/>
</g>
<!-- Node5 -->
<g id="node5" class="node"><title>Node5</title>
<polygon fill="none" stroke="#bfbfbf" points="592.5,-0.5 592.5,-19.5 633.5,-19.5 633.5,-0.5 592.5,-0.5"/>
<text text-anchor="middle" x="613" y="-7.5" font-family="Helvetica,sans-Serif" font-size="10.00">string</text>
</g>
<!-- Node3&#45;&gt;Node5 -->
<g id="edge40" class="edge"><title>Node3&#45;&gt;Node5</title>
<path fill="none" stroke="midnightblue" d="M487.776,-381.588C490.891,-381.025 493.979,-380.491 497,-380 641.883,-356.442 1147,-409.286 1147,-262.5 1147,-262.5 1147,-262.5 1147,-126.5 1147,-22.7815 757.291,-11.981 643.713,-11.0357"/>
<polygon fill="midnightblue" stroke="midnightblue" points="643.628,-7.53523 633.606,-10.9722 643.584,-14.5351 643.628,-7.53523"/>
</g>
<!-- Node3&#45;&gt;Node6 -->
<g id="edge5" class="edge"><title>Node3&#45;&gt;Node6</title>
<path fill="none" stroke="midnightblue" d="M368.229,-381.967C316.717,-371.166 242.295,-355.562 188.008,-344.179"/>
<polygon fill="midnightblue" stroke="midnightblue" points="188.621,-340.732 178.116,-342.105 187.185,-347.583 188.621,-340.732"/>
</g>
<!-- Node16 -->
<g id="node16" class="node"><title>Node16</title>
<polygon fill="none" stroke="#bfbfbf" points="354,-252 354,-271 438,-271 438,-252 354,-252"/>
<text text-anchor="middle" x="396" y="-259" font-family="Helvetica,sans-Serif" font-size="10.00">TEveElement.h</text>
</g>
<!-- Node3&#45;&gt;Node16 -->
<g id="edge37" class="edge"><title>Node3&#45;&gt;Node16</title>
<path fill="none" stroke="midnightblue" d="M487.589,-381.766C524.192,-372.599 566.098,-359.206 577,-344 585.028,-332.803 585.342,-323.966 577,-313 540.702,-265.285 504.723,-293.198 447,-277 443.375,-275.983 439.606,-274.92 435.832,-273.853"/>
<polygon fill="midnightblue" stroke="midnightblue" points="436.5,-270.405 425.924,-271.045 434.591,-277.139 436.5,-270.405"/>
</g>
<!-- Node17 -->
<g id="node17" class="node"><title>Node17</title>
<g id="a_node17"><a xlink:href="../../d7/dec/EventVisualisation_2Base_2include_2EventVisualisationBase_2DataReader_8h.html" target="_top" xlink:title="EventVisualisationBase\l/DataReader.h">
<polygon fill="none" stroke="black" points="234,-313.5 234,-343.5 354,-343.5 354,-313.5 234,-313.5"/>
<text text-anchor="start" x="242" y="-331.5" font-family="Helvetica,sans-Serif" font-size="10.00">EventVisualisationBase</text>
<text text-anchor="middle" x="294" y="-320.5" font-family="Helvetica,sans-Serif" font-size="10.00">/DataReader.h</text>
</a>
</g>
</g>
<!-- Node3&#45;&gt;Node17 -->
<g id="edge23" class="edge"><title>Node3&#45;&gt;Node17</title>
<path fill="none" stroke="midnightblue" d="M398.924,-380.396C379.345,-370.899 353.324,-358.276 332.093,-347.978"/>
<polygon fill="midnightblue" stroke="midnightblue" points="333.544,-344.792 323.019,-343.577 330.489,-351.09 333.544,-344.792"/>
</g>
<!-- Node18 -->
<g id="node18" class="node"><title>Node18</title>
<g id="a_node18"><a xlink:href="../../d5/df3/BasicCCDBManager_8h.html" target="_top" xlink:title="CCDB/BasicCCDBManager.h">
<polygon fill="none" stroke="black" points="624.5,-319 624.5,-338 773.5,-338 773.5,-319 624.5,-319"/>
<text text-anchor="middle" x="699" y="-326" font-family="Helvetica,sans-Serif" font-size="10.00">CCDB/BasicCCDBManager.h</text>
</a>
</g>
</g>
<!-- Node3&#45;&gt;Node18 -->
<g id="edge24" class="edge"><title>Node3&#45;&gt;Node18</title>
<path fill="none" stroke="midnightblue" d="M486.469,-380.476C536.521,-368.471 607.571,-351.43 653.478,-340.419"/>
<polygon fill="midnightblue" stroke="midnightblue" points="654.534,-343.765 663.442,-338.029 652.901,-336.958 654.534,-343.765"/>
</g>
<!-- Node19 -->
<g id="node19" class="node"><title>Node19</title>
<g id="a_node19"><a xlink:href="../../dd/d3e/CcdbApi_8h.html" target="_top" xlink:title="CCDB/CcdbApi.h">
<polygon fill="none" stroke="black" points="772.5,-252 772.5,-271 867.5,-271 867.5,-252 772.5,-252"/>
<text text-anchor="middle" x="820" y="-259" font-family="Helvetica,sans-Serif" font-size="10.00">CCDB/CcdbApi.h</text>
</a>
</g>
</g>
<!-- Node3&#45;&gt;Node19 -->
<g id="edge36" class="edge"><title>Node3&#45;&gt;Node19</title>
<path fill="none" stroke="midnightblue" d="M487.783,-381.626C490.896,-381.053 493.982,-380.507 497,-380 559.955,-369.427 730.421,-381.613 782,-344 802.562,-329.006 812.345,-300.062 816.74,-281.014"/>
<polygon fill="midnightblue" stroke="midnightblue" points="820.188,-281.618 818.745,-271.122 813.328,-280.227 820.188,-281.618"/>
</g>
<!-- Node27 -->
<g id="node27" class="node"><title>Node27</title>
<polygon fill="none" stroke="#bfbfbf" points="372.5,-319 372.5,-338 483.5,-338 483.5,-319 372.5,-319"/>
<text text-anchor="middle" x="428" y="-326" font-family="Helvetica,sans-Serif" font-size="10.00">TEveEventManager.h</text>
</g>
<!-- Node3&#45;&gt;Node27 -->
<g id="edge38" class="edge"><title>Node3&#45;&gt;Node27</title>
<path fill="none" stroke="midnightblue" d="M428,-380.396C428,-371.064 428,-358.714 428,-348.517"/>
<polygon fill="midnightblue" stroke="midnightblue" points="431.5,-348.195 428,-338.195 424.5,-348.195 431.5,-348.195"/>
</g>
<!-- Node28 -->
<g id="node28" class="node"><title>Node28</title>
<polygon fill="none" stroke="#bfbfbf" points="501.5,-319 501.5,-338 568.5,-338 568.5,-319 501.5,-319"/>
<text text-anchor="middle" x="535" y="-326" font-family="Helvetica,sans-Serif" font-size="10.00">TQObject.h</text>
</g>
<!-- Node3&#45;&gt;Node28 -->
<g id="edge39" class="edge"><title>Node3&#45;&gt;Node28</title>
<path fill="none" stroke="midnightblue" d="M451.217,-380.396C469.327,-369.395 494.34,-354.2 512.313,-343.282"/>
<polygon fill="midnightblue" stroke="midnightblue" points="514.267,-346.19 520.996,-338.007 510.632,-340.208 514.267,-346.19"/>
</g>
<!-- Node4&#45;&gt;Node5 -->
<g id="edge4" class="edge"><title>Node4&#45;&gt;Node5</title>
<path fill="none" stroke="midnightblue" d="M305.949,-246.351C365.919,-220.039 492.001,-158.657 574,-76 587.574,-62.3173 598.381,-43.0167 605.144,-29.0042"/>
<polygon fill="midnightblue" stroke="midnightblue" points="608.337,-30.439 609.336,-19.8914 601.977,-27.5135 608.337,-30.439"/>
</g>
<!-- Node6&#45;&gt;Node4 -->
<g id="edge6" class="edge"><title>Node6&#45;&gt;Node4</title>
<path fill="none" stroke="midnightblue" d="M151.416,-313.396C174.22,-303.771 204.628,-290.936 229.203,-280.564"/>
<polygon fill="midnightblue" stroke="midnightblue" points="230.798,-283.69 238.65,-276.577 228.075,-277.241 230.798,-283.69"/>
</g>
<!-- Node7 -->
<g id="node7" class="node"><title>Node7</title>
<g id="a_node7"><a xlink:href="../../d0/d35/VisualisationEvent_8h.html" target="_top" xlink:title="EventVisualisationDataConverter\l/VisualisationEvent.h">
<polygon fill="none" stroke="black" points="28.5,-246.5 28.5,-276.5 189.5,-276.5 189.5,-246.5 28.5,-246.5"/>
<text text-anchor="start" x="36.5" y="-264.5" font-family="Helvetica,sans-Serif" font-size="10.00">EventVisualisationDataConverter</text>
<text text-anchor="middle" x="109" y="-253.5" font-family="Helvetica,sans-Serif" font-size="10.00">/VisualisationEvent.h</text>
</a>
</g>
</g>
<!-- Node6&#45;&gt;Node7 -->
<g id="edge7" class="edge"><title>Node6&#45;&gt;Node7</title>
<path fill="none" stroke="midnightblue" d="M116.047,-313.396C114.962,-305.56 113.582,-295.596 112.332,-286.565"/>
<polygon fill="midnightblue" stroke="midnightblue" points="115.788,-286.002 110.949,-276.577 108.854,-286.962 115.788,-286.002"/>
</g>
<!-- Node6&#45;&gt;Node16 -->
<g id="edge22" class="edge"><title>Node6&#45;&gt;Node16</title>
<path fill="none" stroke="midnightblue" d="M178.446,-315.052C224.311,-305.365 288.836,-291.219 345,-277 348.904,-276.012 352.963,-274.938 357.01,-273.836"/>
<polygon fill="midnightblue" stroke="midnightblue" points="358.253,-277.123 366.951,-271.074 356.379,-270.379 358.253,-277.123"/>
</g>
<!-- Node8 -->
<g id="node8" class="node"><title>Node8</title>
<g id="a_node8"><a xlink:href="../../d0/d40/VisualisationTrack_8h.html" target="_top" xlink:title="EventVisualisationDataConverter\l/VisualisationTrack.h">
<polygon fill="none" stroke="black" points="223.5,-112.5 223.5,-142.5 384.5,-142.5 384.5,-112.5 223.5,-112.5"/>
<text text-anchor="start" x="231.5" y="-130.5" font-family="Helvetica,sans-Serif" font-size="10.00">EventVisualisationDataConverter</text>
<text text-anchor="middle" x="304" y="-119.5" font-family="Helvetica,sans-Serif" font-size="10.00">/VisualisationTrack.h</text>
</a>
</g>
</g>
<!-- Node7&#45;&gt;Node8 -->
<g id="edge8" class="edge"><title>Node7&#45;&gt;Node8</title>
<path fill="none" stroke="midnightblue" d="M185.043,-246.407C225.545,-237.418 269.871,-224.71 284,-210 298.611,-194.788 303.093,-170.717 304.229,-152.671"/>
<polygon fill="midnightblue" stroke="midnightblue" points="307.729,-152.712 304.564,-142.601 300.733,-152.48 307.729,-152.712"/>
</g>
<!-- Node11 -->
<g id="node11" class="node"><title>Node11</title>
<polygon fill="none" stroke="#bfbfbf" points="164,-56.5 164,-75.5 208,-75.5 208,-56.5 164,-56.5"/>
<text text-anchor="middle" x="186" y="-63.5" font-family="Helvetica,sans-Serif" font-size="10.00">vector</text>
</g>
<!-- Node7&#45;&gt;Node11 -->
<g id="edge20" class="edge"><title>Node7&#45;&gt;Node11</title>
<path fill="none" stroke="midnightblue" d="M97.6035,-246.113C76.8078,-217.994 37.4528,-154.763 67,-112 86.3724,-83.9631 125.619,-73.3758 153.747,-69.3886"/>
<polygon fill="midnightblue" stroke="midnightblue" points="154.409,-72.8341 163.918,-68.161 153.571,-65.8845 154.409,-72.8341"/>
</g>
<!-- Node14 -->
<g id="node14" class="node"><title>Node14</title>
<g id="a_node14"><a xlink:href="../../d5/d20/VisualisationCluster_8h.html" target="_top" xlink:title="EventVisualisationDataConverter\l/VisualisationCluster.h">
<polygon fill="none" stroke="black" points="114.5,-179.5 114.5,-209.5 275.5,-209.5 275.5,-179.5 114.5,-179.5"/>
<text text-anchor="start" x="122.5" y="-197.5" font-family="Helvetica,sans-Serif" font-size="10.00">EventVisualisationDataConverter</text>
<text text-anchor="middle" x="195" y="-186.5" font-family="Helvetica,sans-Serif" font-size="10.00">/VisualisationCluster.h</text>
</a>
</g>
</g>
<!-- Node7&#45;&gt;Node14 -->
<g id="edge16" class="edge"><title>Node7&#45;&gt;Node14</title>
<path fill="none" stroke="midnightblue" d="M127.661,-246.396C139.494,-237.452 154.994,-225.737 168.139,-215.802"/>
<polygon fill="midnightblue" stroke="midnightblue" points="170.508,-218.398 176.376,-209.577 166.288,-212.814 170.508,-218.398"/>
</g>
<!-- Node7&#45;&gt;Node15 -->
<g id="edge21" class="edge"><title>Node7&#45;&gt;Node15</title>
<path fill="none" stroke="midnightblue" d="M107.716,-246.374C105.546,-222.504 101.153,-174.181 98.7195,-147.415"/>
<polygon fill="midnightblue" stroke="midnightblue" points="102.173,-146.739 97.7816,-137.097 95.2014,-147.373 102.173,-146.739"/>
</g>
<!-- Node8&#45;&gt;Node5 -->
<g id="edge12" class="edge"><title>Node8&#45;&gt;Node5</title>
<path fill="none" stroke="midnightblue" d="M330.138,-112.441C367.283,-92.4916 431.485,-58.1319 437,-56 486.32,-36.9349 546.527,-23.5409 582.207,-16.567"/>
<polygon fill="midnightblue" stroke="midnightblue" points="583.288,-19.9239 592.454,-14.6096 581.975,-13.0482 583.288,-19.9239"/>
</g>
<!-- Node9 -->
<g id="node9" class="node"><title>Node9</title>
<g id="a_node9"><a xlink:href="../../de/ddf/ConversionConstants_8h.html" target="_top" xlink:title="ConversionConstants.h">
<polygon fill="none" stroke="black" points="446.5,-56.5 446.5,-75.5 565.5,-75.5 565.5,-56.5 446.5,-56.5"/>
<text text-anchor="middle" x="506" y="-63.5" font-family="Helvetica,sans-Serif" font-size="10.00">ConversionConstants.h</text>
</a>
</g>
</g>
<!-- Node8&#45;&gt;Node9 -->
<g id="edge9" class="edge"><title>Node8&#45;&gt;Node9</title>
<path fill="none" stroke="midnightblue" d="M351.615,-112.475C386.921,-102.075 434.44,-88.0783 467.392,-78.3722"/>
<polygon fill="midnightblue" stroke="midnightblue" points="468.518,-81.6893 477.121,-75.5064 466.54,-74.9746 468.518,-81.6893"/>
</g>
<!-- Node10 -->
<g id="node10" class="node"><title>Node10</title>
<polygon fill="none" stroke="#bfbfbf" points="344.5,-56.5 344.5,-75.5 389.5,-75.5 389.5,-56.5 344.5,-56.5"/>
<text text-anchor="middle" x="367" y="-63.5" font-family="Helvetica,sans-Serif" font-size="10.00">iosfwd</text>
</g>
<!-- Node8&#45;&gt;Node10 -->
<g id="edge11" class="edge"><title>Node8&#45;&gt;Node10</title>
<path fill="none" stroke="midnightblue" d="M318.93,-112.399C328.368,-103.486 340.58,-91.9523 350.333,-82.7408"/>
<polygon fill="midnightblue" stroke="midnightblue" points="352.966,-85.0686 357.833,-75.6578 348.16,-79.9795 352.966,-85.0686"/>
</g>
<!-- Node8&#45;&gt;Node11 -->
<g id="edge13" class="edge"><title>Node8&#45;&gt;Node11</title>
<path fill="none" stroke="midnightblue" d="M276.036,-112.399C256.679,-102.639 231.092,-89.7373 212.144,-80.1826"/>
<polygon fill="midnightblue" stroke="midnightblue" points="213.675,-77.035 203.17,-75.6578 210.523,-83.2854 213.675,-77.035"/>
</g>
<!-- Node12 -->
<g id="node12" class="node"><title>Node12</title>
<polygon fill="none" stroke="#bfbfbf" points="226,-56.5 226,-75.5 264,-75.5 264,-56.5 226,-56.5"/>
<text text-anchor="middle" x="245" y="-63.5" font-family="Helvetica,sans-Serif" font-size="10.00">array</text>
</g>
<!-- Node8&#45;&gt;Node12 -->
<g id="edge14" class="edge"><title>Node8&#45;&gt;Node12</title>
<path fill="none" stroke="midnightblue" d="M290.018,-112.399C281.268,-103.575 269.971,-92.1827 260.883,-83.0178"/>
<polygon fill="midnightblue" stroke="midnightblue" points="263.112,-80.2942 253.585,-75.6578 258.141,-85.2231 263.112,-80.2942"/>
</g>
<!-- Node13 -->
<g id="node13" class="node"><title>Node13</title>
<polygon fill="none" stroke="#bfbfbf" points="282,-56.5 282,-75.5 326,-75.5 326,-56.5 282,-56.5"/>
<text text-anchor="middle" x="304" y="-63.5" font-family="Helvetica,sans-Serif" font-size="10.00">cmath</text>
</g>
<!-- Node8&#45;&gt;Node13 -->
<g id="edge15" class="edge"><title>Node8&#45;&gt;Node13</title>
<path fill="none" stroke="midnightblue" d="M304,-112.399C304,-104.466 304,-94.458 304,-85.8583"/>
<polygon fill="midnightblue" stroke="midnightblue" points="307.5,-85.6577 304,-75.6578 300.5,-85.6578 307.5,-85.6577"/>
</g>
<!-- Node9&#45;&gt;Node5 -->
<g id="edge10" class="edge"><title>Node9&#45;&gt;Node5</title>
<path fill="none" stroke="midnightblue" d="M523.191,-56.324C540.351,-47.6641 566.946,-34.2424 586.747,-24.249"/>
<polygon fill="midnightblue" stroke="midnightblue" points="588.501,-27.2847 595.851,-19.6545 585.347,-21.0354 588.501,-27.2847"/>
</g>
<!-- Node14&#45;&gt;Node8 -->
<g id="edge17" class="edge"><title>Node14&#45;&gt;Node8</title>
<path fill="none" stroke="midnightblue" d="M218.651,-179.396C234.078,-170.197 254.42,-158.066 271.376,-147.955"/>
<polygon fill="midnightblue" stroke="midnightblue" points="273.599,-150.704 280.395,-142.577 270.013,-144.692 273.599,-150.704"/>
</g>
<!-- Node14&#45;&gt;Node11 -->
<g id="edge18" class="edge"><title>Node14&#45;&gt;Node11</title>
<path fill="none" stroke="midnightblue" d="M194.002,-179.479C192.383,-156.719 189.18,-111.702 187.356,-86.0582"/>
<polygon fill="midnightblue" stroke="midnightblue" points="190.826,-85.5149 186.625,-75.7885 183.844,-86.0117 190.826,-85.5149"/>
</g>
<!-- Node14&#45;&gt;Node15 -->
<g id="edge19" class="edge"><title>Node14&#45;&gt;Node15</title>
<path fill="none" stroke="midnightblue" d="M173.735,-179.396C157.301,-168.496 134.66,-153.479 118.234,-142.584"/>
<polygon fill="midnightblue" stroke="midnightblue" points="120.094,-139.618 109.826,-137.007 116.225,-145.451 120.094,-139.618"/>
</g>
<!-- Node18&#45;&gt;Node5 -->
<g id="edge34" class="edge"><title>Node18&#45;&gt;Node5</title>
<path fill="none" stroke="midnightblue" d="M694.775,-318.871C685.556,-299.723 663.466,-252.042 651,-210 631.782,-145.187 620.002,-65.5245 615.323,-29.8428"/>
<polygon fill="midnightblue" stroke="midnightblue" points="618.79,-29.3552 614.054,-19.8779 611.846,-30.2401 618.79,-29.3552"/>
</g>
<!-- Node18&#45;&gt;Node19 -->
<g id="edge25" class="edge"><title>Node18&#45;&gt;Node19</title>
<path fill="none" stroke="midnightblue" d="M715.319,-318.734C735.82,-307.721 771.204,-288.713 795.095,-275.879"/>
<polygon fill="midnightblue" stroke="midnightblue" points="796.787,-278.943 803.94,-271.127 793.474,-272.776 796.787,-278.943"/>
</g>
<!-- Node22 -->
<g id="node22" class="node"><title>Node22</title>
<polygon fill="none" stroke="#bfbfbf" points="660.5,-185 660.5,-204 695.5,-204 695.5,-185 660.5,-185"/>
<text text-anchor="middle" x="678" y="-192" font-family="Helvetica,sans-Serif" font-size="10.00">map</text>
</g>
<!-- Node18&#45;&gt;Node22 -->
<g id="edge35" class="edge"><title>Node18&#45;&gt;Node22</title>
<path fill="none" stroke="midnightblue" d="M697.622,-318.839C694.255,-297.674 685.549,-242.948 680.948,-214.033"/>
<polygon fill="midnightblue" stroke="midnightblue" points="684.383,-213.347 679.356,-204.021 677.47,-214.447 684.383,-213.347"/>
</g>
<!-- Node26 -->
<g id="node26" class="node"><title>Node26</title>
<g id="a_node26"><a xlink:href="../../da/d86/CCDBTimeStampUtils_8h.html" target="_top" xlink:title="CCDB/CCDBTimeStampUtils.h">
<polygon fill="none" stroke="black" points="456.5,-252 456.5,-271 613.5,-271 613.5,-252 456.5,-252"/>
<text text-anchor="middle" x="535" y="-259" font-family="Helvetica,sans-Serif" font-size="10.00">CCDB/CCDBTimeStampUtils.h</text>
</a>
</g>
</g>
<!-- Node18&#45;&gt;Node26 -->
<g id="edge33" class="edge"><title>Node18&#45;&gt;Node26</title>
<path fill="none" stroke="midnightblue" d="M677.222,-318.869C648.717,-307.571 598.572,-287.696 566.08,-274.818"/>
<polygon fill="midnightblue" stroke="midnightblue" points="567.193,-271.495 556.607,-271.064 564.614,-278.002 567.193,-271.495"/>
</g>
<!-- Node19&#45;&gt;Node5 -->
<g id="edge26" class="edge"><title>Node19&#45;&gt;Node5</title>
<path fill="none" stroke="midnightblue" d="M867.689,-258.65C937.507,-254.826 1062.28,-243.387 1090,-210 1098.8,-199.4 1097.96,-190.245 1090,-179 983.585,-28.6988 731.331,-11.9118 643.66,-10.7518"/>
<polygon fill="midnightblue" stroke="midnightblue" points="643.596,-7.25135 633.571,-10.6797 643.546,-14.2512 643.596,-7.25135"/>
</g>
<!-- Node20 -->
<g id="node20" class="node"><title>Node20</title>
<polygon fill="none" stroke="#bfbfbf" points="957,-185 957,-204 1009,-204 1009,-185 957,-185"/>
<text text-anchor="middle" x="983" y="-192" font-family="Helvetica,sans-Serif" font-size="10.00">memory</text>
</g>
<!-- Node19&#45;&gt;Node20 -->
<g id="edge27" class="edge"><title>Node19&#45;&gt;Node20</title>
<path fill="none" stroke="midnightblue" d="M841.584,-251.951C866.862,-241.931 909.991,-224.811 947,-210 948.634,-209.346 950.31,-208.674 952.001,-207.996"/>
<polygon fill="midnightblue" stroke="midnightblue" points="953.713,-211.08 961.686,-204.103 951.102,-204.585 953.713,-211.08"/>
</g>
<!-- Node21 -->
<g id="node21" class="node"><title>Node21</title>
<polygon fill="none" stroke="#bfbfbf" points="1027,-185 1027,-204 1081,-204 1081,-185 1027,-185"/>
<text text-anchor="middle" x="1054" y="-192" font-family="Helvetica,sans-Serif" font-size="10.00">iostream</text>
</g>
<!-- Node19&#45;&gt;Node21 -->
<g id="edge28" class="edge"><title>Node19&#45;&gt;Node21</title>
<path fill="none" stroke="midnightblue" d="M859.89,-251.97C900.198,-242.969 964.055,-227.656 1018,-210 1020.13,-209.302 1022.32,-208.54 1024.51,-207.742"/>
<polygon fill="midnightblue" stroke="midnightblue" points="1025.91,-210.956 1033.99,-204.108 1023.4,-204.42 1025.91,-210.956"/>
</g>
<!-- Node19&#45;&gt;Node22 -->
<g id="edge29" class="edge"><title>Node19&#45;&gt;Node22</title>
<path fill="none" stroke="midnightblue" d="M798.76,-251.988C775.28,-242.41 736.48,-226.078 704,-210 703.189,-209.599 702.368,-209.185 701.541,-208.761"/>
<polygon fill="midnightblue" stroke="midnightblue" points="703.183,-205.67 692.715,-204.036 699.879,-211.841 703.183,-205.67"/>
</g>
<!-- Node23 -->
<g id="node23" class="node"><title>Node23</title>
<polygon fill="none" stroke="#bfbfbf" points="713.5,-185 713.5,-204 772.5,-204 772.5,-185 713.5,-185"/>
<text text-anchor="middle" x="743" y="-192" font-family="Helvetica,sans-Serif" font-size="10.00">curl/curl.h</text>
</g>
<!-- Node19&#45;&gt;Node23 -->
<g id="edge30" class="edge"><title>Node19&#45;&gt;Node23</title>
<path fill="none" stroke="midnightblue" d="M809.615,-251.734C797.146,-241.208 776.026,-223.379 760.908,-210.617"/>
<polygon fill="midnightblue" stroke="midnightblue" points="763.119,-207.903 753.22,-204.127 758.604,-213.252 763.119,-207.903"/>
</g>
<!-- Node24 -->
<g id="node24" class="node"><title>Node24</title>
<polygon fill="none" stroke="#bfbfbf" points="790.5,-185 790.5,-204 849.5,-204 849.5,-185 790.5,-185"/>
<text text-anchor="middle" x="820" y="-192" font-family="Helvetica,sans-Serif" font-size="10.00">TObject.h</text>
</g>
<!-- Node19&#45;&gt;Node24 -->
<g id="edge31" class="edge"><title>Node19&#45;&gt;Node24</title>
<path fill="none" stroke="midnightblue" d="M820,-251.734C820,-242.183 820,-226.618 820,-214.283"/>
<polygon fill="midnightblue" stroke="midnightblue" points="823.5,-214.127 820,-204.127 816.5,-214.127 823.5,-214.127"/>
</g>
<!-- Node25 -->
<g id="node25" class="node"><title>Node25</title>
<polygon fill="none" stroke="#bfbfbf" points="867.5,-185 867.5,-204 938.5,-204 938.5,-185 867.5,-185"/>
<text text-anchor="middle" x="903" y="-192" font-family="Helvetica,sans-Serif" font-size="10.00">TMessage.h</text>
</g>
<!-- Node19&#45;&gt;Node25 -->
<g id="edge32" class="edge"><title>Node19&#45;&gt;Node25</title>
<path fill="none" stroke="midnightblue" d="M831.194,-251.734C844.634,-241.208 867.4,-223.379 883.696,-210.617"/>
<polygon fill="midnightblue" stroke="midnightblue" points="886.269,-213.049 891.984,-204.127 881.953,-207.537 886.269,-213.049"/>
</g>
<!-- Node29&#45;&gt;Node30 -->
<g id="edge42" class="edge"><title>Node29&#45;&gt;Node30</title>
<path fill="none" stroke="midnightblue" d="M530,-447.396C530,-438.064 530,-425.714 530,-415.517"/>
<polygon fill="midnightblue" stroke="midnightblue" points="533.5,-415.195 530,-405.195 526.5,-415.195 533.5,-415.195"/>
</g>
</g>
</svg>
