<?xml version="1.0" encoding="UTF-8" standalone="no"?>
<!DOCTYPE svg PUBLIC "-//W3C//DTD SVG 1.1//EN"
 "http://www.w3.org/Graphics/SVG/1.1/DTD/svg11.dtd">
<!-- Generated by graphviz version 2.38.0 (20140413.2041)
 -->
<!-- Title: /home/travis/build/AliceO2Group/AliceO2/Detectors/TPC/base/src/CalDet.cxx Pages: 1 -->
<!--zoomable 699 -->
<svg id="main" version="1.1" xmlns="http://www.w3.org/2000/svg" xmlns:xlink="http://www.w3.org/1999/xlink" xml:space="preserve" onload="init(evt)">
<style type="text/css"><![CDATA[
.edge:hover path { stroke: red; }
.edge:hover polygon { stroke: red; fill: red; }
]]></style>
<script type="text/javascript"><![CDATA[
var edges = document.getElementsByTagName('g');
if (edges && edges.length) {
  for (var i=0;i<edges.length;i++) {
    if (edges[i].id.substr(0,4)=='edge') {
      edges[i].setAttribute('class','edge');
    }
  }
}
]]></script>
        <defs>
                <circle id="rim" cx="0" cy="0" r="7"/>
                <circle id="rim2" cx="0" cy="0" r="3.5"/>
                <g id="zoomPlus">
                        <use xlink:href="#rim" fill="#404040">
                                <set attributeName="fill" to="#808080" begin="zoomplus.mouseover" end="zoomplus.mouseout"/>
                        </use>
                        <path d="M-4,0h8M0,-4v8" fill="none" stroke="white" stroke-width="1.5" pointer-events="none"/>
                </g>
                <g id="zoomMin">
                        <use xlink:href="#rim" fill="#404040">
                                <set attributeName="fill" to="#808080" begin="zoomminus.mouseover" end="zoomminus.mouseout"/>
                        </use>
                        <path d="M-4,0h8" fill="none" stroke="white" stroke-width="1.5" pointer-events="none"/>
                </g>
                <g id="dirArrow">
                        <path fill="none" stroke="white" stroke-width="1.5" d="M0,-3.0v7 M-2.5,-0.5L0,-3.0L2.5,-0.5"/>
                </g>
               <g id="resetDef">
                       <use xlink:href="#rim2" fill="#404040">
                               <set attributeName="fill" to="#808080" begin="reset.mouseover" end="reset.mouseout"/>
                       </use>
               </g>
        </defs>

<script type="text/javascript">
var viewWidth = 1558;
var viewHeight = 699;
var sectionId = 'dynsection-0';
</script>
<script xlink:href="../../svgpan.js"/>
<svg id="graph" class="graph">
<g id="viewport">
<title>/home/travis/build/AliceO2Group/AliceO2/Detectors/TPC/base/src/CalDet.cxx</title>
<!-- Node1 -->
<g id="node1" class="node"><title>Node1</title>
<polygon fill="#bfbfbf" stroke="black" points="999.5,-638.5 999.5,-690.5 1125.5,-690.5 1125.5,-638.5 999.5,-638.5"/>
<text text-anchor="start" x="1007.5" y="-678.5" font-family="Helvetica,sans-Serif" font-size="10.00">/home/travis/build</text>
<text text-anchor="start" x="1007.5" y="-667.5" font-family="Helvetica,sans-Serif" font-size="10.00">/AliceO2Group/AliceO2</text>
<text text-anchor="start" x="1007.5" y="-656.5" font-family="Helvetica,sans-Serif" font-size="10.00">/Detectors/TPC/base/src</text>
<text text-anchor="middle" x="1062.5" y="-645.5" font-family="Helvetica,sans-Serif" font-size="10.00">/CalDet.cxx</text>
</g>
<!-- Node2 -->
<g id="node2" class="node"><title>Node2</title>
<g id="a_node2"><a xlink:href="../../d6/d2b/TPC_2base_2include_2TPCBase_2CalDet_8h.html" target="_top" xlink:title="TPCBase/CalDet.h">
<polygon fill="none" stroke="black" points="1012,-582.5 1012,-601.5 1113,-601.5 1113,-582.5 1012,-582.5"/>
<text text-anchor="middle" x="1062.5" y="-589.5" font-family="Helvetica,sans-Serif" font-size="10.00">TPCBase/CalDet.h</text>
</a>
</g>
</g>
<!-- Node1&#45;&gt;Node2 -->
<g id="edge1" class="edge"><title>Node1&#45;&gt;Node2</title>
<path fill="none" stroke="midnightblue" d="M1062.5,-638.446C1062.5,-629.73 1062.5,-620.104 1062.5,-611.964"/>
<polygon fill="midnightblue" stroke="midnightblue" points="1066,-611.695 1062.5,-601.695 1059,-611.696 1066,-611.695"/>
</g>
<!-- Node3 -->
<g id="node3" class="node"><title>Node3</title>
<polygon fill="none" stroke="#bfbfbf" points="852.5,-470.5 852.5,-489.5 904.5,-489.5 904.5,-470.5 852.5,-470.5"/>
<text text-anchor="middle" x="878.5" y="-477.5" font-family="Helvetica,sans-Serif" font-size="10.00">memory</text>
</g>
<!-- Node2&#45;&gt;Node3 -->
<g id="edge2" class="edge"><title>Node2&#45;&gt;Node3</title>
<path fill="none" stroke="midnightblue" d="M1048.06,-582.368C1016.35,-563.412 940.392,-518.001 901.822,-494.942"/>
<polygon fill="midnightblue" stroke="midnightblue" points="903.25,-491.719 892.871,-489.591 899.658,-497.727 903.25,-491.719"/>
</g>
<!-- Node4 -->
<g id="node4" class="node"><title>Node4</title>
<polygon fill="none" stroke="#bfbfbf" points="1318.5,-358.5 1318.5,-377.5 1362.5,-377.5 1362.5,-358.5 1318.5,-358.5"/>
<text text-anchor="middle" x="1340.5" y="-365.5" font-family="Helvetica,sans-Serif" font-size="10.00">vector</text>
</g>
<!-- Node2&#45;&gt;Node4 -->
<g id="edge3" class="edge"><title>Node2&#45;&gt;Node4</title>
<path fill="none" stroke="midnightblue" d="M1063.22,-582.315C1065.59,-559.817 1075.19,-499.355 1111.5,-470 1183.43,-411.838 1245.48,-493.272 1316.5,-434 1330.19,-422.576 1336.07,-402.591 1338.6,-387.788"/>
<polygon fill="midnightblue" stroke="midnightblue" points="1342.09,-388.083 1339.95,-377.706 1335.15,-387.152 1342.09,-388.083"/>
</g>
<!-- Node5 -->
<g id="node5" class="node"><title>Node5</title>
<polygon fill="none" stroke="#bfbfbf" points="449,-414.5 449,-433.5 490,-433.5 490,-414.5 449,-414.5"/>
<text text-anchor="middle" x="469.5" y="-421.5" font-family="Helvetica,sans-Serif" font-size="10.00">string</text>
</g>
<!-- Node2&#45;&gt;Node5 -->
<g id="edge4" class="edge"><title>Node2&#45;&gt;Node5</title>
<path fill="none" stroke="midnightblue" d="M1031.87,-582.425C929.716,-553.83 601.464,-461.941 499.803,-433.483"/>
<polygon fill="midnightblue" stroke="midnightblue" points="500.722,-430.106 490.149,-430.78 498.835,-436.847 500.722,-430.106"/>
</g>
<!-- Node6 -->
<g id="node6" class="node"><title>Node6</title>
<polygon fill="none" stroke="#bfbfbf" points="1370.5,-470.5 1370.5,-489.5 1460.5,-489.5 1460.5,-470.5 1370.5,-470.5"/>
<text text-anchor="middle" x="1415.5" y="-477.5" font-family="Helvetica,sans-Serif" font-size="10.00">boost/format.hpp</text>
</g>
<!-- Node2&#45;&gt;Node6 -->
<g id="edge5" class="edge"><title>Node2&#45;&gt;Node6</title>
<path fill="none" stroke="midnightblue" d="M1104.37,-582.48C1140.42,-574.628 1193.58,-561.813 1238.5,-546 1258.76,-538.867 1262.52,-533.897 1282.5,-526 1314.26,-513.446 1351.09,-501.155 1377.93,-492.599"/>
<polygon fill="midnightblue" stroke="midnightblue" points="1379.22,-495.863 1387.7,-489.51 1377.11,-489.189 1379.22,-495.863"/>
</g>
<!-- Node7 -->
<g id="node7" class="node"><title>Node7</title>
<polygon fill="none" stroke="#bfbfbf" points="1324.5,-526.5 1324.5,-545.5 1450.5,-545.5 1450.5,-526.5 1324.5,-526.5"/>
<text text-anchor="middle" x="1387.5" y="-533.5" font-family="Helvetica,sans-Serif" font-size="10.00">boost/range/combine.hpp</text>
</g>
<!-- Node2&#45;&gt;Node7 -->
<g id="edge6" class="edge"><title>Node2&#45;&gt;Node7</title>
<path fill="none" stroke="midnightblue" d="M1113.28,-582.562C1170.86,-572.995 1264.72,-557.4 1326.3,-547.169"/>
<polygon fill="midnightblue" stroke="midnightblue" points="1326.98,-550.604 1336.27,-545.512 1325.83,-543.698 1326.98,-550.604"/>
</g>
<!-- Node8 -->
<g id="node8" class="node"><title>Node8</title>
<polygon fill="none" stroke="#bfbfbf" points="1469,-526.5 1469,-545.5 1518,-545.5 1518,-526.5 1469,-526.5"/>
<text text-anchor="middle" x="1493.5" y="-533.5" font-family="Helvetica,sans-Serif" font-size="10.00">cassert</text>
</g>
<!-- Node2&#45;&gt;Node8 -->
<g id="edge7" class="edge"><title>Node2&#45;&gt;Node8</title>
<path fill="none" stroke="midnightblue" d="M1113.3,-587.626C1187.23,-582.192 1328.86,-569.813 1458.6,-545.901"/>
<polygon fill="midnightblue" stroke="midnightblue" points="1459.53,-549.288 1468.71,-544.008 1458.24,-542.407 1459.53,-549.288"/>
</g>
<!-- Node9 -->
<g id="node9" class="node"><title>Node9</title>
<polygon fill="none" stroke="#bfbfbf" points="1479,-470.5 1479,-489.5 1550,-489.5 1550,-470.5 1479,-470.5"/>
<text text-anchor="middle" x="1514.5" y="-477.5" font-family="Helvetica,sans-Serif" font-size="10.00">FairLogger.h</text>
</g>
<!-- Node2&#45;&gt;Node9 -->
<g id="edge8" class="edge"><title>Node2&#45;&gt;Node9</title>
<path fill="none" stroke="midnightblue" d="M1113.12,-583.831C1156.67,-576.825 1220.78,-564.491 1274.5,-546 1293.67,-539.401 1296.37,-532.725 1315.5,-526 1329.86,-520.95 1414.68,-502.388 1468.85,-490.74"/>
<polygon fill="midnightblue" stroke="midnightblue" points="1469.87,-494.1 1478.91,-488.579 1468.4,-487.256 1469.87,-494.1"/>
</g>
<!-- Node10 -->
<g id="node10" class="node"><title>Node10</title>
<g id="a_node10"><a xlink:href="../../d1/d73/Defs_8h.html" target="_top" xlink:title="Common definitions for 2D coordinates. ">
<polygon fill="none" stroke="black" points="647.5,-190.5 647.5,-209.5 773.5,-209.5 773.5,-190.5 647.5,-190.5"/>
<text text-anchor="middle" x="710.5" y="-197.5" font-family="Helvetica,sans-Serif" font-size="10.00">DataFormatsTPC/Defs.h</text>
</a>
</g>
</g>
<!-- Node2&#45;&gt;Node10 -->
<g id="edge9" class="edge"><title>Node2&#45;&gt;Node10</title>
<path fill="none" stroke="midnightblue" d="M1011.89,-590.001C860.852,-586.706 420.176,-574.714 362.5,-546 328.365,-529.006 306.5,-519.132 306.5,-481 306.5,-481 306.5,-481 306.5,-311 306.5,-243.26 520.63,-215.85 637.104,-205.952"/>
<polygon fill="midnightblue" stroke="midnightblue" points="637.697,-209.415 647.375,-205.103 637.121,-202.439 637.697,-209.415"/>
</g>
<!-- Node24 -->
<g id="node24" class="node"><title>Node24</title>
<g id="a_node24"><a xlink:href="../../d5/d1d/TPC_2base_2include_2TPCBase_2Mapper_8h.html" target="_top" xlink:title="TPCBase/Mapper.h">
<polygon fill="none" stroke="black" points="961,-470.5 961,-489.5 1064,-489.5 1064,-470.5 961,-470.5"/>
<text text-anchor="middle" x="1012.5" y="-477.5" font-family="Helvetica,sans-Serif" font-size="10.00">TPCBase/Mapper.h</text>
</a>
</g>
</g>
<!-- Node2&#45;&gt;Node24 -->
<g id="edge24" class="edge"><title>Node2&#45;&gt;Node24</title>
<path fill="none" stroke="midnightblue" d="M1058.58,-582.368C1050.43,-564.456 1031.56,-522.923 1020.66,-498.948"/>
<polygon fill="midnightblue" stroke="midnightblue" points="1023.73,-497.247 1016.41,-489.591 1017.36,-500.143 1023.73,-497.247"/>
</g>
<!-- Node29 -->
<g id="node29" class="node"><title>Node29</title>
<g id="a_node29"><a xlink:href="../../d3/dd6/Sector_8h.html" target="_top" xlink:title="TPCBase/Sector.h">
<polygon fill="none" stroke="black" points="454,-246.5 454,-265.5 553,-265.5 553,-246.5 454,-246.5"/>
<text text-anchor="middle" x="503.5" y="-253.5" font-family="Helvetica,sans-Serif" font-size="10.00">TPCBase/Sector.h</text>
</a>
</g>
</g>
<!-- Node2&#45;&gt;Node29 -->
<g id="edge60" class="edge"><title>Node2&#45;&gt;Node29</title>
<path fill="none" stroke="midnightblue" d="M1011.89,-591.761C913.805,-592.169 691.534,-587.868 510.5,-546 433.305,-528.147 344.5,-560.232 344.5,-481 344.5,-481 344.5,-481 344.5,-367 344.5,-312.316 408.891,-282.684 455.719,-268.365"/>
<polygon fill="midnightblue" stroke="midnightblue" points="456.795,-271.697 465.416,-265.538 454.836,-264.977 456.795,-271.697"/>
</g>
<!-- Node32 -->
<g id="node32" class="node"><title>Node32</title>
<g id="a_node32"><a xlink:href="../../dc/d14/ROC_8h.html" target="_top" xlink:title="TPCBase/ROC.h">
<polygon fill="none" stroke="black" points="551,-302.5 551,-321.5 644,-321.5 644,-302.5 551,-302.5"/>
<text text-anchor="middle" x="597.5" y="-309.5" font-family="Helvetica,sans-Serif" font-size="10.00">TPCBase/ROC.h</text>
</a>
</g>
</g>
<!-- Node2&#45;&gt;Node32 -->
<g id="edge59" class="edge"><title>Node2&#45;&gt;Node32</title>
<path fill="none" stroke="midnightblue" d="M1011.86,-587.661C860.259,-576.997 420.5,-540.898 420.5,-481 420.5,-481 420.5,-481 420.5,-423 420.5,-392.902 418.144,-379.209 439.5,-358 466.093,-331.59 507.016,-320.436 540.55,-315.835"/>
<polygon fill="midnightblue" stroke="midnightblue" points="541.189,-319.283 550.696,-314.608 540.348,-312.334 541.189,-319.283"/>
</g>
<!-- Node38 -->
<g id="node38" class="node"><title>Node38</title>
<g id="a_node38"><a xlink:href="../../db/d9b/CalArray_8h.html" target="_top" xlink:title="TPCBase/CalArray.h">
<polygon fill="none" stroke="black" points="1121,-526.5 1121,-545.5 1230,-545.5 1230,-526.5 1121,-526.5"/>
<text text-anchor="middle" x="1175.5" y="-533.5" font-family="Helvetica,sans-Serif" font-size="10.00">TPCBase/CalArray.h</text>
</a>
</g>
</g>
<!-- Node2&#45;&gt;Node38 -->
<g id="edge61" class="edge"><title>Node2&#45;&gt;Node38</title>
<path fill="none" stroke="midnightblue" d="M1080.41,-582.444C1098.75,-573.675 1127.51,-559.935 1148.59,-549.858"/>
<polygon fill="midnightblue" stroke="midnightblue" points="1150.17,-552.986 1157.68,-545.516 1147.15,-546.67 1150.17,-552.986"/>
</g>
<!-- Node11 -->
<g id="node11" class="node"><title>Node11</title>
<polygon fill="none" stroke="#bfbfbf" points="1024.5,-134.5 1024.5,-153.5 1068.5,-153.5 1068.5,-134.5 1024.5,-134.5"/>
<text text-anchor="middle" x="1046.5" y="-141.5" font-family="Helvetica,sans-Serif" font-size="10.00">cmath</text>
</g>
<!-- Node10&#45;&gt;Node11 -->
<g id="edge10" class="edge"><title>Node10&#45;&gt;Node11</title>
<path fill="none" stroke="midnightblue" d="M763.74,-190.444C834.292,-179.105 956.567,-159.453 1014.41,-150.157"/>
<polygon fill="midnightblue" stroke="midnightblue" points="1015.11,-153.589 1024.43,-148.547 1014,-146.678 1015.11,-153.589"/>
</g>
<!-- Node12 -->
<g id="node12" class="node"><title>Node12</title>
<g id="a_node12"><a xlink:href="../../d2/dd0/Cartesian2D_8h.html" target="_top" xlink:title="MathUtils/Cartesian2D.h">
<polygon fill="none" stroke="black" points="104,-73 104,-92 229,-92 229,-73 104,-73"/>
<text text-anchor="middle" x="166.5" y="-80" font-family="Helvetica,sans-Serif" font-size="10.00">MathUtils/Cartesian2D.h</text>
</a>
</g>
</g>
<!-- Node10&#45;&gt;Node12 -->
<g id="edge11" class="edge"><title>Node10&#45;&gt;Node12</title>
<path fill="none" stroke="midnightblue" d="M670.056,-190.413C572.373,-169.673 323.761,-116.889 216.745,-94.1678"/>
<polygon fill="midnightblue" stroke="midnightblue" points="217.349,-90.7182 206.841,-92.065 215.896,-97.5656 217.349,-90.7182"/>
</g>
<!-- Node15 -->
<g id="node15" class="node"><title>Node15</title>
<g id="a_node15"><a xlink:href="../../dd/d76/Cartesian3D_8h.html" target="_top" xlink:title="MathUtils/Cartesian3D.h">
<polygon fill="none" stroke="black" points="690,-134.5 690,-153.5 815,-153.5 815,-134.5 690,-134.5"/>
<text text-anchor="middle" x="752.5" y="-141.5" font-family="Helvetica,sans-Serif" font-size="10.00">MathUtils/Cartesian3D.h</text>
</a>
</g>
</g>
<!-- Node10&#45;&gt;Node15 -->
<g id="edge14" class="edge"><title>Node10&#45;&gt;Node15</title>
<path fill="none" stroke="midnightblue" d="M717.435,-190.083C723.429,-182.377 732.252,-171.033 739.548,-161.653"/>
<polygon fill="midnightblue" stroke="midnightblue" points="742.317,-163.793 745.694,-153.751 736.791,-159.496 742.317,-163.793"/>
</g>
<!-- Node13 -->
<g id="node13" class="node"><title>Node13</title>
<polygon fill="none" stroke="#bfbfbf" points="0,-0.5 0,-30.5 151,-30.5 151,-0.5 0,-0.5"/>
<text text-anchor="start" x="8" y="-18.5" font-family="Helvetica,sans-Serif" font-size="10.00">Math/GenVector/Displacement</text>
<text text-anchor="middle" x="75.5" y="-7.5" font-family="Helvetica,sans-Serif" font-size="10.00">Vector2D.h</text>
</g>
<!-- Node12&#45;&gt;Node13 -->
<g id="edge12" class="edge"><title>Node12&#45;&gt;Node13</title>
<path fill="none" stroke="midnightblue" d="M154.227,-72.7338C141.338,-63.527 120.626,-48.7328 103.681,-36.6293"/>
<polygon fill="midnightblue" stroke="midnightblue" points="105.396,-33.5534 95.2246,-30.589 101.328,-39.2495 105.396,-33.5534"/>
</g>
<!-- Node14 -->
<g id="node14" class="node"><title>Node14</title>
<polygon fill="none" stroke="#bfbfbf" points="169.5,-6 169.5,-25 345.5,-25 345.5,-6 169.5,-6"/>
<text text-anchor="middle" x="257.5" y="-13" font-family="Helvetica,sans-Serif" font-size="10.00">Math/GenVector/PositionVector2D.h</text>
</g>
<!-- Node12&#45;&gt;Node14 -->
<g id="edge13" class="edge"><title>Node12&#45;&gt;Node14</title>
<path fill="none" stroke="midnightblue" d="M178.773,-72.7338C193.645,-62.1106 218.932,-44.0485 236.83,-31.2642"/>
<polygon fill="midnightblue" stroke="midnightblue" points="239.319,-33.7878 245.422,-25.1273 235.25,-28.0917 239.319,-33.7878"/>
</g>
<!-- Node15&#45;&gt;Node12 -->
<g id="edge23" class="edge"><title>Node15&#45;&gt;Node12</title>
<path fill="none" stroke="midnightblue" d="M689.604,-139.827C592.306,-134.395 399.592,-121.555 237.5,-98 229.969,-96.9056 222.032,-95.5187 214.303,-94.0388"/>
<polygon fill="midnightblue" stroke="midnightblue" points="214.802,-90.5697 204.312,-92.0564 213.439,-97.4358 214.802,-90.5697"/>
</g>
<!-- Node16 -->
<g id="node16" class="node"><title>Node16</title>
<polygon fill="none" stroke="#bfbfbf" points="935,-67.5 935,-97.5 1086,-97.5 1086,-67.5 935,-67.5"/>
<text text-anchor="start" x="943" y="-85.5" font-family="Helvetica,sans-Serif" font-size="10.00">Math/GenVector/Displacement</text>
<text text-anchor="middle" x="1010.5" y="-74.5" font-family="Helvetica,sans-Serif" font-size="10.00">Vector3D.h</text>
</g>
<!-- Node15&#45;&gt;Node16 -->
<g id="edge15" class="edge"><title>Node15&#45;&gt;Node16</title>
<path fill="none" stroke="midnightblue" d="M789.465,-134.475C828.571,-125.456 891.223,-111.008 939.855,-99.7921"/>
<polygon fill="midnightblue" stroke="midnightblue" points="940.737,-103.181 949.695,-97.523 939.164,-96.3598 940.737,-103.181"/>
</g>
<!-- Node17 -->
<g id="node17" class="node"><title>Node17</title>
<polygon fill="none" stroke="#bfbfbf" points="1104.5,-73 1104.5,-92 1280.5,-92 1280.5,-73 1104.5,-73"/>
<text text-anchor="middle" x="1192.5" y="-80" font-family="Helvetica,sans-Serif" font-size="10.00">Math/GenVector/PositionVector3D.h</text>
</g>
<!-- Node15&#45;&gt;Node17 -->
<g id="edge16" class="edge"><title>Node15&#45;&gt;Node17</title>
<path fill="none" stroke="midnightblue" d="M815.261,-135.049C883.886,-126.284 997.083,-111.615 1094.5,-98 1104.7,-96.5748 1115.49,-95.0232 1126.03,-93.4822"/>
<polygon fill="midnightblue" stroke="midnightblue" points="1126.65,-96.9285 1136.04,-92.0126 1125.63,-90.0028 1126.65,-96.9285"/>
</g>
<!-- Node18 -->
<g id="node18" class="node"><title>Node18</title>
<polygon fill="none" stroke="#bfbfbf" points="247,-73 247,-92 396,-92 396,-73 247,-73"/>
<text text-anchor="middle" x="321.5" y="-80" font-family="Helvetica,sans-Serif" font-size="10.00">Math/GenVector/Rotation3D.h</text>
</g>
<!-- Node15&#45;&gt;Node18 -->
<g id="edge17" class="edge"><title>Node15&#45;&gt;Node18</title>
<path fill="none" stroke="midnightblue" d="M689.703,-135.66C620.111,-127.339 504.609,-112.974 405.5,-98 396.888,-96.6989 387.797,-95.2297 378.901,-93.7385"/>
<polygon fill="midnightblue" stroke="midnightblue" points="379.422,-90.2769 368.977,-92.0533 378.25,-97.1781 379.422,-90.2769"/>
</g>
<!-- Node19 -->
<g id="node19" class="node"><title>Node19</title>
<polygon fill="none" stroke="#bfbfbf" points="414.5,-73 414.5,-92 570.5,-92 570.5,-73 414.5,-73"/>
<text text-anchor="middle" x="492.5" y="-80" font-family="Helvetica,sans-Serif" font-size="10.00">Math/GenVector/Transform3D.h</text>
</g>
<!-- Node15&#45;&gt;Node19 -->
<g id="edge18" class="edge"><title>Node15&#45;&gt;Node19</title>
<path fill="none" stroke="midnightblue" d="M715.248,-134.475C669.008,-123.893 590.101,-105.836 539.678,-94.2966"/>
<polygon fill="midnightblue" stroke="midnightblue" points="540.211,-90.8282 529.683,-92.0091 538.65,-97.6518 540.211,-90.8282"/>
</g>
<!-- Node20 -->
<g id="node20" class="node"><title>Node20</title>
<polygon fill="none" stroke="#bfbfbf" points="588.5,-73 588.5,-92 748.5,-92 748.5,-73 588.5,-73"/>
<text text-anchor="middle" x="668.5" y="-80" font-family="Helvetica,sans-Serif" font-size="10.00">Math/GenVector/Translation3D.h</text>
</g>
<!-- Node15&#45;&gt;Node20 -->
<g id="edge19" class="edge"><title>Node15&#45;&gt;Node20</title>
<path fill="none" stroke="midnightblue" d="M740.465,-134.475C726.992,-124.931 704.934,-109.307 688.785,-97.8683"/>
<polygon fill="midnightblue" stroke="midnightblue" points="690.696,-94.9332 680.513,-92.0091 686.65,-100.645 690.696,-94.9332"/>
</g>
<!-- Node21 -->
<g id="node21" class="node"><title>Node21</title>
<polygon fill="none" stroke="#bfbfbf" points="766.5,-73 766.5,-92 822.5,-92 822.5,-73 766.5,-73"/>
<text text-anchor="middle" x="794.5" y="-80" font-family="Helvetica,sans-Serif" font-size="10.00">Rtypes.h</text>
</g>
<!-- Node15&#45;&gt;Node21 -->
<g id="edge20" class="edge"><title>Node15&#45;&gt;Node21</title>
<path fill="none" stroke="midnightblue" d="M758.518,-134.475C764.755,-125.638 774.673,-111.589 782.518,-100.475"/>
<polygon fill="midnightblue" stroke="midnightblue" points="785.586,-102.197 788.494,-92.0091 779.867,-98.1604 785.586,-102.197"/>
</g>
<!-- Node22 -->
<g id="node22" class="node"><title>Node22</title>
<polygon fill="none" stroke="#bfbfbf" points="840.5,-73 840.5,-92 916.5,-92 916.5,-73 840.5,-73"/>
<text text-anchor="middle" x="878.5" y="-80" font-family="Helvetica,sans-Serif" font-size="10.00">TGeoMatrix.h</text>
</g>
<!-- Node15&#45;&gt;Node22 -->
<g id="edge21" class="edge"><title>Node15&#45;&gt;Node22</title>
<path fill="none" stroke="midnightblue" d="M770.553,-134.475C791.698,-124.49 826.94,-107.848 851.378,-96.3075"/>
<polygon fill="midnightblue" stroke="midnightblue" points="852.933,-99.4441 860.481,-92.0091 849.944,-93.1143 852.933,-99.4441"/>
</g>
<!-- Node23 -->
<g id="node23" class="node"><title>Node23</title>
<polygon fill="none" stroke="#bfbfbf" points="1299,-73 1299,-92 1344,-92 1344,-73 1299,-73"/>
<text text-anchor="middle" x="1321.5" y="-80" font-family="Helvetica,sans-Serif" font-size="10.00">iosfwd</text>
</g>
<!-- Node15&#45;&gt;Node23 -->
<g id="edge22" class="edge"><title>Node15&#45;&gt;Node23</title>
<path fill="none" stroke="midnightblue" d="M815.339,-140.423C937.214,-134.983 1201.45,-120.908 1289.5,-98 1291.66,-97.4385 1293.85,-96.7416 1296.03,-95.9595"/>
<polygon fill="midnightblue" stroke="midnightblue" points="1297.38,-99.1898 1305.29,-92.1402 1294.71,-92.719 1297.38,-99.1898"/>
</g>
<!-- Node24&#45;&gt;Node4 -->
<g id="edge26" class="edge"><title>Node24&#45;&gt;Node4</title>
<path fill="none" stroke="midnightblue" d="M1064,-471.706C1141.93,-460.524 1281.83,-439.825 1291.5,-434 1309.97,-422.87 1323.83,-401.918 1332.01,-386.805"/>
<polygon fill="midnightblue" stroke="midnightblue" points="1335.14,-388.377 1336.56,-377.879 1328.9,-385.198 1335.14,-388.377"/>
</g>
<!-- Node24&#45;&gt;Node5 -->
<g id="edge28" class="edge"><title>Node24&#45;&gt;Node5</title>
<path fill="none" stroke="midnightblue" d="M960.652,-471.659C955.871,-471.064 951.099,-470.5 946.5,-470 750.562,-448.677 698.87,-466.661 504.5,-434 503.031,-433.753 501.532,-433.475 500.024,-433.172"/>
<polygon fill="midnightblue" stroke="midnightblue" points="500.63,-429.721 490.103,-430.919 499.08,-436.547 500.63,-429.721"/>
</g>
<!-- Node24&#45;&gt;Node10 -->
<g id="edge30" class="edge"><title>Node24&#45;&gt;Node10</title>
<path fill="none" stroke="midnightblue" d="M1064.01,-470.906C1107.29,-463.119 1164.71,-450.16 1181.5,-434 1203.28,-413.04 1201.5,-399.225 1201.5,-369 1201.5,-369 1201.5,-369 1201.5,-311 1201.5,-226.416 920.534,-206.855 783.681,-202.345"/>
<polygon fill="midnightblue" stroke="midnightblue" points="783.789,-198.846 773.684,-202.033 783.571,-205.843 783.789,-198.846"/>
</g>
<!-- Node24&#45;&gt;Node11 -->
<g id="edge29" class="edge"><title>Node24&#45;&gt;Node11</title>
<path fill="none" stroke="midnightblue" d="M1064.23,-471.63C1113.03,-463.835 1181.84,-450.403 1203.5,-434 1229.83,-414.062 1239.5,-402.024 1239.5,-369 1239.5,-369 1239.5,-369 1239.5,-255 1239.5,-181.811 1133.45,-156.685 1078.57,-148.582"/>
<polygon fill="midnightblue" stroke="midnightblue" points="1079.02,-145.111 1068.64,-147.219 1078.07,-152.046 1079.02,-145.111"/>
</g>
<!-- Node25 -->
<g id="node25" class="node"><title>Node25</title>
<polygon fill="none" stroke="#bfbfbf" points="940,-414.5 940,-433.5 975,-433.5 975,-414.5 940,-414.5"/>
<text text-anchor="middle" x="957.5" y="-421.5" font-family="Helvetica,sans-Serif" font-size="10.00">map</text>
</g>
<!-- Node24&#45;&gt;Node25 -->
<g id="edge25" class="edge"><title>Node24&#45;&gt;Node25</title>
<path fill="none" stroke="midnightblue" d="M1003.42,-470.083C995.329,-462.141 983.305,-450.335 973.59,-440.797"/>
<polygon fill="midnightblue" stroke="midnightblue" points="976.001,-438.26 966.413,-433.751 971.097,-443.254 976.001,-438.26"/>
</g>
<!-- Node26 -->
<g id="node26" class="node"><title>Node26</title>
<polygon fill="none" stroke="#bfbfbf" points="993.5,-414.5 993.5,-433.5 1031.5,-433.5 1031.5,-414.5 993.5,-414.5"/>
<text text-anchor="middle" x="1012.5" y="-421.5" font-family="Helvetica,sans-Serif" font-size="10.00">array</text>
</g>
<!-- Node24&#45;&gt;Node26 -->
<g id="edge27" class="edge"><title>Node24&#45;&gt;Node26</title>
<path fill="none" stroke="midnightblue" d="M1012.5,-470.083C1012.5,-463.006 1012.5,-452.861 1012.5,-443.986"/>
<polygon fill="midnightblue" stroke="midnightblue" points="1016,-443.751 1012.5,-433.751 1009,-443.751 1016,-443.751"/>
</g>
<!-- Node27 -->
<g id="node27" class="node"><title>Node27</title>
<g id="a_node27"><a xlink:href="../../de/d41/PadPos_8h.html" target="_top" xlink:title="TPCBase/PadPos.h">
<polygon fill="none" stroke="black" points="842,-302.5 842,-321.5 947,-321.5 947,-302.5 842,-302.5"/>
<text text-anchor="middle" x="894.5" y="-309.5" font-family="Helvetica,sans-Serif" font-size="10.00">TPCBase/PadPos.h</text>
</a>
</g>
</g>
<!-- Node24&#45;&gt;Node27 -->
<g id="edge31" class="edge"><title>Node24&#45;&gt;Node27</title>
<path fill="none" stroke="midnightblue" d="M960.848,-470.813C893.454,-459.884 783.356,-441.084 777.5,-434 771.836,-427.149 772.202,-421.138 777.5,-414 810.433,-369.63 863.567,-422.37 896.5,-378 906.366,-364.707 904.275,-345.319 900.686,-331.177"/>
<polygon fill="midnightblue" stroke="midnightblue" points="904.035,-330.158 897.824,-321.574 897.326,-332.157 904.035,-330.158"/>
</g>
<!-- Node28 -->
<g id="node28" class="node"><title>Node28</title>
<g id="a_node28"><a xlink:href="../../dd/d0b/PadSecPos_8h.html" target="_top" xlink:title="TPCBase/PadSecPos.h">
<polygon fill="none" stroke="black" points="448.5,-358.5 448.5,-377.5 570.5,-377.5 570.5,-358.5 448.5,-358.5"/>
<text text-anchor="middle" x="509.5" y="-365.5" font-family="Helvetica,sans-Serif" font-size="10.00">TPCBase/PadSecPos.h</text>
</a>
</g>
</g>
<!-- Node24&#45;&gt;Node28 -->
<g id="edge32" class="edge"><title>Node24&#45;&gt;Node28</title>
<path fill="none" stroke="midnightblue" d="M960.643,-471.735C955.865,-471.124 951.095,-470.536 946.5,-470 864.226,-460.402 650.539,-469.075 575.5,-434 552.604,-423.298 532.946,-401.239 521.18,-385.801"/>
<polygon fill="midnightblue" stroke="midnightblue" points="523.923,-383.623 515.199,-377.612 518.27,-387.752 523.923,-383.623"/>
</g>
<!-- Node24&#45;&gt;Node29 -->
<g id="edge58" class="edge"><title>Node24&#45;&gt;Node29</title>
<path fill="none" stroke="midnightblue" d="M960.647,-471.7C955.868,-471.096 951.096,-470.519 946.5,-470 768.693,-449.906 717.08,-484.788 545.5,-434 532.727,-430.219 446.376,-389.409 439.5,-378 417.252,-341.084 458.653,-295.741 484.682,-272.442"/>
<polygon fill="midnightblue" stroke="midnightblue" points="487.216,-274.878 492.493,-265.69 482.639,-269.582 487.216,-274.878"/>
</g>
<!-- Node31 -->
<g id="node31" class="node"><title>Node31</title>
<g id="a_node31"><a xlink:href="../../da/d61/PadROCPos_8h.html" target="_top" xlink:title="TPCBase/PadROCPos.h">
<polygon fill="none" stroke="black" points="738.5,-358.5 738.5,-377.5 866.5,-377.5 866.5,-358.5 738.5,-358.5"/>
<text text-anchor="middle" x="802.5" y="-365.5" font-family="Helvetica,sans-Serif" font-size="10.00">TPCBase/PadROCPos.h</text>
</a>
</g>
</g>
<!-- Node24&#45;&gt;Node31 -->
<g id="edge37" class="edge"><title>Node24&#45;&gt;Node31</title>
<path fill="none" stroke="midnightblue" d="M960.717,-471.163C883.807,-459.402 747.99,-438.125 744.5,-434 729.217,-415.937 754.274,-395.676 776.074,-382.65"/>
<polygon fill="midnightblue" stroke="midnightblue" points="777.818,-385.684 784.785,-377.702 774.361,-379.597 777.818,-385.684"/>
</g>
<!-- Node33 -->
<g id="node33" class="node"><title>Node33</title>
<g id="a_node33"><a xlink:href="../../d3/d54/DigitPos_8h.html" target="_top" xlink:title="TPCBase/DigitPos.h">
<polygon fill="none" stroke="black" points="584.5,-414.5 584.5,-433.5 692.5,-433.5 692.5,-414.5 584.5,-414.5"/>
<text text-anchor="middle" x="638.5" y="-421.5" font-family="Helvetica,sans-Serif" font-size="10.00">TPCBase/DigitPos.h</text>
</a>
</g>
</g>
<!-- Node24&#45;&gt;Node33 -->
<g id="edge43" class="edge"><title>Node24&#45;&gt;Node33</title>
<path fill="none" stroke="midnightblue" d="M960.89,-471.548C893.522,-461.821 775.627,-444.799 702.604,-434.256"/>
<polygon fill="midnightblue" stroke="midnightblue" points="703.006,-430.777 692.608,-432.812 702.005,-437.706 703.006,-430.777"/>
</g>
<!-- Node35 -->
<g id="node35" class="node"><title>Node35</title>
<g id="a_node35"><a xlink:href="../../d1/d1f/FECInfo_8h.html" target="_top" xlink:title="TPCBase/FECInfo.h">
<polygon fill="none" stroke="black" points="1268,-246.5 1268,-265.5 1375,-265.5 1375,-246.5 1268,-246.5"/>
<text text-anchor="middle" x="1321.5" y="-253.5" font-family="Helvetica,sans-Serif" font-size="10.00">TPCBase/FECInfo.h</text>
</a>
</g>
</g>
<!-- Node24&#45;&gt;Node35 -->
<g id="edge51" class="edge"><title>Node24&#45;&gt;Node35</title>
<path fill="none" stroke="midnightblue" d="M1064.18,-472.074C1130.59,-462.759 1239.11,-445.983 1253.5,-434 1302.58,-393.137 1316.32,-312.557 1320.1,-275.924"/>
<polygon fill="midnightblue" stroke="midnightblue" points="1323.61,-275.951 1321.01,-265.681 1316.64,-275.333 1323.61,-275.951"/>
</g>
<!-- Node36 -->
<g id="node36" class="node"><title>Node36</title>
<g id="a_node36"><a xlink:href="../../da/d9d/PadRegionInfo_8h.html" target="_top" xlink:title="TPCBase/PadRegionInfo.h">
<polygon fill="none" stroke="black" points="787,-414.5 787,-433.5 922,-433.5 922,-414.5 787,-414.5"/>
<text text-anchor="middle" x="854.5" y="-421.5" font-family="Helvetica,sans-Serif" font-size="10.00">TPCBase/PadRegionInfo.h</text>
</a>
</g>
</g>
<!-- Node24&#45;&gt;Node36 -->
<g id="edge53" class="edge"><title>Node24&#45;&gt;Node36</title>
<path fill="none" stroke="midnightblue" d="M987.464,-470.444C960.884,-461.359 918.691,-446.939 888.977,-436.783"/>
<polygon fill="midnightblue" stroke="midnightblue" points="890.013,-433.439 879.418,-433.516 887.749,-440.062 890.013,-433.439"/>
</g>
<!-- Node37 -->
<g id="node37" class="node"><title>Node37</title>
<g id="a_node37"><a xlink:href="../../d6/d42/PartitionInfo_8h.html" target="_top" xlink:title="TPCBase/PartitionInfo.h">
<polygon fill="none" stroke="black" points="1050,-414.5 1050,-433.5 1173,-433.5 1173,-414.5 1050,-414.5"/>
<text text-anchor="middle" x="1111.5" y="-421.5" font-family="Helvetica,sans-Serif" font-size="10.00">TPCBase/PartitionInfo.h</text>
</a>
</g>
</g>
<!-- Node24&#45;&gt;Node37 -->
<g id="edge57" class="edge"><title>Node24&#45;&gt;Node37</title>
<path fill="none" stroke="midnightblue" d="M1028.41,-470.324C1044.14,-461.743 1068.44,-448.486 1086.71,-438.522"/>
<polygon fill="midnightblue" stroke="midnightblue" points="1088.53,-441.516 1095.63,-433.655 1085.18,-435.37 1088.53,-441.516"/>
</g>
<!-- Node28&#45;&gt;Node27 -->
<g id="edge36" class="edge"><title>Node28&#45;&gt;Node27</title>
<path fill="none" stroke="midnightblue" d="M570.504,-358.444C641.843,-348.438 759.333,-331.958 831.513,-321.834"/>
<polygon fill="midnightblue" stroke="midnightblue" points="832.406,-325.244 841.823,-320.388 831.434,-318.311 832.406,-325.244"/>
</g>
<!-- Node28&#45;&gt;Node29 -->
<g id="edge33" class="edge"><title>Node28&#45;&gt;Node29</title>
<path fill="none" stroke="midnightblue" d="M509.029,-358.368C508.061,-340.617 505.827,-299.666 504.514,-275.597"/>
<polygon fill="midnightblue" stroke="midnightblue" points="508.008,-275.386 503.969,-265.591 501.019,-275.767 508.008,-275.386"/>
</g>
<!-- Node29&#45;&gt;Node10 -->
<g id="edge35" class="edge"><title>Node29&#45;&gt;Node10</title>
<path fill="none" stroke="midnightblue" d="M536.3,-246.444C571.88,-237.162 628.814,-222.309 667.847,-212.127"/>
<polygon fill="midnightblue" stroke="midnightblue" points="669.061,-215.427 677.854,-209.516 667.294,-208.654 669.061,-215.427"/>
</g>
<!-- Node30 -->
<g id="node30" class="node"><title>Node30</title>
<g id="a_node30"><a xlink:href="../../d0/dda/DataFormats_2Detectors_2TPC_2include_2DataFormatsTPC_2Constants_8h.html" target="_top" xlink:title="DataFormatsTPC/Constants.h">
<polygon fill="none" stroke="black" points="428.5,-190.5 428.5,-209.5 578.5,-209.5 578.5,-190.5 428.5,-190.5"/>
<text text-anchor="middle" x="503.5" y="-197.5" font-family="Helvetica,sans-Serif" font-size="10.00">DataFormatsTPC/Constants.h</text>
</a>
</g>
</g>
<!-- Node29&#45;&gt;Node30 -->
<g id="edge34" class="edge"><title>Node29&#45;&gt;Node30</title>
<path fill="none" stroke="midnightblue" d="M503.5,-246.083C503.5,-239.006 503.5,-228.861 503.5,-219.986"/>
<polygon fill="midnightblue" stroke="midnightblue" points="507,-219.751 503.5,-209.751 500,-219.751 507,-219.751"/>
</g>
<!-- Node31&#45;&gt;Node10 -->
<g id="edge38" class="edge"><title>Node31&#45;&gt;Node10</title>
<path fill="none" stroke="midnightblue" d="M797.554,-358.075C782.947,-331.719 739.806,-253.878 720.288,-218.661"/>
<polygon fill="midnightblue" stroke="midnightblue" points="723.157,-216.618 715.249,-209.568 717.035,-220.011 723.157,-216.618"/>
</g>
<!-- Node31&#45;&gt;Node27 -->
<g id="edge42" class="edge"><title>Node31&#45;&gt;Node27</title>
<path fill="none" stroke="midnightblue" d="M817.281,-358.324C831.767,-349.822 854.073,-336.729 870.993,-326.797"/>
<polygon fill="midnightblue" stroke="midnightblue" points="872.903,-329.735 879.755,-321.655 869.359,-323.698 872.903,-329.735"/>
</g>
<!-- Node31&#45;&gt;Node32 -->
<g id="edge39" class="edge"><title>Node31&#45;&gt;Node32</title>
<path fill="none" stroke="midnightblue" d="M770.017,-358.444C734.78,-349.162 678.396,-334.309 639.741,-324.127"/>
<polygon fill="midnightblue" stroke="midnightblue" points="640.393,-320.679 629.831,-321.516 638.609,-327.448 640.393,-320.679"/>
</g>
<!-- Node32&#45;&gt;Node10 -->
<g id="edge40" class="edge"><title>Node32&#45;&gt;Node10</title>
<path fill="none" stroke="midnightblue" d="M605.125,-302.317C616.414,-289.592 638.41,-265.296 658.5,-246 669.263,-235.662 681.913,-224.691 692.041,-216.17"/>
<polygon fill="midnightblue" stroke="midnightblue" points="694.417,-218.746 699.859,-209.656 689.936,-213.368 694.417,-218.746"/>
</g>
<!-- Node32&#45;&gt;Node29 -->
<g id="edge41" class="edge"><title>Node32&#45;&gt;Node29</title>
<path fill="none" stroke="midnightblue" d="M582.397,-302.324C567.597,-293.822 544.806,-280.729 527.518,-270.797"/>
<polygon fill="midnightblue" stroke="midnightblue" points="528.98,-267.601 518.565,-265.655 525.493,-273.671 528.98,-267.601"/>
</g>
<!-- Node33&#45;&gt;Node10 -->
<g id="edge44" class="edge"><title>Node33&#45;&gt;Node10</title>
<path fill="none" stroke="midnightblue" d="M653.569,-414.392C665.734,-406.57 682.151,-393.843 690.5,-378 717.84,-326.117 715.649,-253.972 712.676,-220.055"/>
<polygon fill="midnightblue" stroke="midnightblue" points="716.123,-219.348 711.639,-209.749 709.158,-220.049 716.123,-219.348"/>
</g>
<!-- Node33&#45;&gt;Node27 -->
<g id="edge49" class="edge"><title>Node33&#45;&gt;Node27</title>
<path fill="none" stroke="midnightblue" d="M692.66,-419.206C754.122,-413.813 849.256,-401.82 875.5,-378 888.403,-366.288 892.734,-346.349 894.094,-331.635"/>
<polygon fill="midnightblue" stroke="midnightblue" points="897.59,-331.803 894.647,-321.625 890.601,-331.417 897.59,-331.803"/>
</g>
<!-- Node33&#45;&gt;Node28 -->
<g id="edge50" class="edge"><title>Node33&#45;&gt;Node28</title>
<path fill="none" stroke="midnightblue" d="M618.06,-414.444C596.83,-405.557 563.401,-391.563 539.245,-381.451"/>
<polygon fill="midnightblue" stroke="midnightblue" points="540.421,-378.149 529.845,-377.516 537.718,-384.606 540.421,-378.149"/>
</g>
<!-- Node34 -->
<g id="node34" class="node"><title>Node34</title>
<g id="a_node34"><a xlink:href="../../df/d26/CRU_8h.html" target="_top" xlink:title="TPCBase/CRU.h">
<polygon fill="none" stroke="black" points="589,-358.5 589,-377.5 682,-377.5 682,-358.5 589,-358.5"/>
<text text-anchor="middle" x="635.5" y="-365.5" font-family="Helvetica,sans-Serif" font-size="10.00">TPCBase/CRU.h</text>
</a>
</g>
</g>
<!-- Node33&#45;&gt;Node34 -->
<g id="edge45" class="edge"><title>Node33&#45;&gt;Node34</title>
<path fill="none" stroke="midnightblue" d="M638.005,-414.083C637.611,-407.006 637.048,-396.861 636.555,-387.986"/>
<polygon fill="midnightblue" stroke="midnightblue" points="640.036,-387.542 635.986,-377.751 633.046,-387.93 640.036,-387.542"/>
</g>
<!-- Node34&#45;&gt;Node10 -->
<g id="edge46" class="edge"><title>Node34&#45;&gt;Node10</title>
<path fill="none" stroke="midnightblue" d="M639.532,-358.075C651.389,-331.832 686.308,-254.545 702.315,-219.117"/>
<polygon fill="midnightblue" stroke="midnightblue" points="705.701,-220.122 706.629,-209.568 699.322,-217.24 705.701,-220.122"/>
</g>
<!-- Node34&#45;&gt;Node29 -->
<g id="edge47" class="edge"><title>Node34&#45;&gt;Node29</title>
<path fill="none" stroke="midnightblue" d="M606.998,-358.377C586.878,-351.176 560.268,-339.279 541.5,-322 527.261,-308.891 516.782,-289.202 510.476,-274.93"/>
<polygon fill="midnightblue" stroke="midnightblue" points="513.696,-273.559 506.628,-265.667 507.232,-276.244 513.696,-273.559"/>
</g>
<!-- Node34&#45;&gt;Node32 -->
<g id="edge48" class="edge"><title>Node34&#45;&gt;Node32</title>
<path fill="none" stroke="midnightblue" d="M629.225,-358.083C623.858,-350.455 615.982,-339.264 609.421,-329.941"/>
<polygon fill="midnightblue" stroke="midnightblue" points="612.275,-327.915 603.658,-321.751 606.551,-331.943 612.275,-327.915"/>
</g>
<!-- Node35&#45;&gt;Node23 -->
<g id="edge52" class="edge"><title>Node35&#45;&gt;Node23</title>
<path fill="none" stroke="midnightblue" d="M1321.5,-246.26C1321.5,-219.651 1321.5,-139.215 1321.5,-102.338"/>
<polygon fill="midnightblue" stroke="midnightblue" points="1325,-102.019 1321.5,-92.0194 1318,-102.019 1325,-102.019"/>
</g>
<!-- Node36&#45;&gt;Node4 -->
<g id="edge54" class="edge"><title>Node36&#45;&gt;Node4</title>
<path fill="none" stroke="midnightblue" d="M922.042,-414.971C924.899,-414.641 927.728,-414.316 930.5,-414 1070.97,-397.974 1238.64,-379.901 1308,-372.471"/>
<polygon fill="midnightblue" stroke="midnightblue" points="1308.7,-375.917 1318.27,-371.372 1307.96,-368.956 1308.7,-375.917"/>
</g>
<!-- Node36&#45;&gt;Node10 -->
<g id="edge55" class="edge"><title>Node36&#45;&gt;Node10</title>
<path fill="none" stroke="midnightblue" d="M906.03,-414.44C927.233,-408.104 949.768,-397.098 962.5,-378 972.112,-363.583 972.186,-323.856 955.5,-302 914.414,-248.185 839.602,-222.865 783.416,-211.063"/>
<polygon fill="midnightblue" stroke="midnightblue" points="784.001,-207.611 773.509,-209.08 782.627,-214.475 784.001,-207.611"/>
</g>
<!-- Node36&#45;&gt;Node27 -->
<g id="edge56" class="edge"><title>Node36&#45;&gt;Node27</title>
<path fill="none" stroke="midnightblue" d="M893.345,-414.364C912.877,-407.847 934.827,-396.704 946.5,-378 958.191,-359.267 937.4,-339.739 918.738,-327.04"/>
<polygon fill="midnightblue" stroke="midnightblue" points="920.477,-323.997 910.169,-321.55 916.701,-329.892 920.477,-323.997"/>
</g>
<!-- Node38&#45;&gt;Node3 -->
<g id="edge63" class="edge"><title>Node38&#45;&gt;Node3</title>
<path fill="none" stroke="midnightblue" d="M1122.2,-526.434C1070.13,-517.884 988.68,-504.031 918.5,-490 917.244,-489.749 915.966,-489.488 914.677,-489.221"/>
<polygon fill="midnightblue" stroke="midnightblue" points="915.223,-485.759 904.712,-487.087 913.757,-492.604 915.223,-485.759"/>
</g>
<!-- Node38&#45;&gt;Node4 -->
<g id="edge64" class="edge"><title>Node38&#45;&gt;Node4</title>
<path fill="none" stroke="midnightblue" d="M1180.24,-526.362C1188.4,-512.32 1206.47,-484.642 1229.5,-470 1282.99,-435.988 1328.75,-484.16 1367.5,-434 1378.76,-419.426 1367.4,-399.482 1356.16,-385.543"/>
<polygon fill="midnightblue" stroke="midnightblue" points="1358.58,-382.991 1349.37,-377.742 1353.29,-387.585 1358.58,-382.991"/>
</g>
<!-- Node38&#45;&gt;Node5 -->
<g id="edge65" class="edge"><title>Node38&#45;&gt;Node5</title>
<path fill="none" stroke="midnightblue" d="M1120.93,-528.489C1074.83,-521.945 1007.57,-509.919 951.5,-490 933.516,-483.611 931.809,-475.387 913.5,-470 738.439,-418.495 684.358,-464.826 504.5,-434 503.031,-433.748 501.534,-433.466 500.026,-433.16"/>
<polygon fill="midnightblue" stroke="midnightblue" points="500.635,-429.71 490.107,-430.897 499.077,-436.534 500.635,-429.71"/>
</g>
<!-- Node38&#45;&gt;Node6 -->
<g id="edge68" class="edge"><title>Node38&#45;&gt;Node6</title>
<path fill="none" stroke="midnightblue" d="M1213.53,-526.444C1255.31,-517.043 1322.48,-501.929 1367.77,-491.739"/>
<polygon fill="midnightblue" stroke="midnightblue" points="1368.66,-495.126 1377.65,-489.516 1367.12,-488.297 1368.66,-495.126"/>
</g>
<!-- Node38&#45;&gt;Node9 -->
<g id="edge69" class="edge"><title>Node38&#45;&gt;Node9</title>
<path fill="none" stroke="midnightblue" d="M1230.08,-527.404C1287.06,-519.304 1379.27,-505.718 1468.63,-490.086"/>
<polygon fill="midnightblue" stroke="midnightblue" points="1469.42,-493.5 1478.67,-488.32 1468.21,-486.606 1469.42,-493.5"/>
</g>
<!-- Node38&#45;&gt;Node24 -->
<g id="edge70" class="edge"><title>Node38&#45;&gt;Node24</title>
<path fill="none" stroke="midnightblue" d="M1149.67,-526.444C1122.25,-517.359 1078.72,-502.939 1048.07,-492.783"/>
<polygon fill="midnightblue" stroke="midnightblue" points="1048.8,-489.339 1038.21,-489.516 1046.6,-495.984 1048.8,-489.339"/>
</g>
<!-- Node39 -->
<g id="node39" class="node"><title>Node39</title>
<polygon fill="none" stroke="#bfbfbf" points="1238.5,-470.5 1238.5,-489.5 1282.5,-489.5 1282.5,-470.5 1238.5,-470.5"/>
<text text-anchor="middle" x="1260.5" y="-477.5" font-family="Helvetica,sans-Serif" font-size="10.00">Vc/Vc</text>
</g>
<!-- Node38&#45;&gt;Node39 -->
<g id="edge62" class="edge"><title>Node38&#45;&gt;Node39</title>
<path fill="none" stroke="midnightblue" d="M1189.16,-526.324C1202.42,-517.9 1222.77,-504.971 1238.35,-495.074"/>
<polygon fill="midnightblue" stroke="midnightblue" points="1240.31,-497.971 1246.88,-489.655 1236.56,-492.063 1240.31,-497.971"/>
</g>
<!-- Node40 -->
<g id="node40" class="node"><title>Node40</title>
<polygon fill="none" stroke="#bfbfbf" points="1301,-470.5 1301,-489.5 1352,-489.5 1352,-470.5 1301,-470.5"/>
<text text-anchor="middle" x="1326.5" y="-477.5" font-family="Helvetica,sans-Serif" font-size="10.00">numeric</text>
</g>
<!-- Node38&#45;&gt;Node40 -->
<g id="edge66" class="edge"><title>Node38&#45;&gt;Node40</title>
<path fill="none" stroke="midnightblue" d="M1199.43,-526.444C1224.72,-517.399 1264.8,-503.064 1293.18,-492.916"/>
<polygon fill="midnightblue" stroke="midnightblue" points="1294.45,-496.179 1302.69,-489.516 1292.09,-489.588 1294.45,-496.179"/>
</g>
<!-- Node41 -->
<g id="node41" class="node"><title>Node41</title>
<polygon fill="none" stroke="#bfbfbf" points="1120.5,-470.5 1120.5,-489.5 1182.5,-489.5 1182.5,-470.5 1120.5,-470.5"/>
<text text-anchor="middle" x="1151.5" y="-477.5" font-family="Helvetica,sans-Serif" font-size="10.00">type_traits</text>
</g>
<!-- Node38&#45;&gt;Node41 -->
<g id="edge67" class="edge"><title>Node38&#45;&gt;Node41</title>
<path fill="none" stroke="midnightblue" d="M1171.54,-526.083C1168.29,-518.77 1163.58,-508.181 1159.55,-499.103"/>
<polygon fill="midnightblue" stroke="midnightblue" points="1162.65,-497.468 1155.39,-489.751 1156.25,-500.311 1162.65,-497.468"/>
</g>
</g>
</svg>
        <g id="navigator" transform="translate(0 0)" fill="#404254">
                <rect fill="#f2f5e9" fill-opacity="0.5" stroke="#606060" stroke-width=".5" x="0" y="0" width="60" height="60"/>
                <use id="zoomplus" xlink:href="#zoomPlus" x="17" y="9" onmousedown="handleZoom(evt,'in')"/>
                <use id="zoomminus" xlink:href="#zoomMin" x="42" y="9" onmousedown="handleZoom(evt,'out')"/>
                <use id="reset" xlink:href="#resetDef" x="30" y="36" onmousedown="handleReset()"/>
                <g id="arrowUp" xlink:href="#dirArrow" transform="translate(30 24)" onmousedown="handlePan(0,-1)">
                  <use xlink:href="#rim" fill="#404040">
                        <set attributeName="fill" to="#808080" begin="arrowUp.mouseover" end="arrowUp.mouseout"/>
                  </use>
                  <path fill="none" stroke="white" stroke-width="1.5" d="M0,-3.0v7 M-2.5,-0.5L0,-3.0L2.5,-0.5"/>
                </g>
                <g id="arrowRight" xlink:href="#dirArrow" transform="rotate(90) translate(36 -43)" onmousedown="handlePan(1,0)">
                  <use xlink:href="#rim" fill="#404040">
                        <set attributeName="fill" to="#808080" begin="arrowRight.mouseover" end="arrowRight.mouseout"/>
                  </use>
                  <path fill="none" stroke="white" stroke-width="1.5" d="M0,-3.0v7 M-2.5,-0.5L0,-3.0L2.5,-0.5"/>
                </g>
                <g id="arrowDown" xlink:href="#dirArrow" transform="rotate(180) translate(-30 -48)" onmousedown="handlePan(0,1)">
                  <use xlink:href="#rim" fill="#404040">
                        <set attributeName="fill" to="#808080" begin="arrowDown.mouseover" end="arrowDown.mouseout"/>
                  </use>
                  <path fill="none" stroke="white" stroke-width="1.5" d="M0,-3.0v7 M-2.5,-0.5L0,-3.0L2.5,-0.5"/>
                </g>
                <g id="arrowLeft" xlink:href="#dirArrow" transform="rotate(270) translate(-36 17)" onmousedown="handlePan(-1,0)">
                  <use xlink:href="#rim" fill="#404040">
                        <set attributeName="fill" to="#808080" begin="arrowLeft.mouseover" end="arrowLeft.mouseout"/>
                  </use>
                  <path fill="none" stroke="white" stroke-width="1.5" d="M0,-3.0v7 M-2.5,-0.5L0,-3.0L2.5,-0.5"/>
                </g>
        </g>
        <svg viewBox="0 0 15 15" width="100%" height="30px" preserveAspectRatio="xMaxYMin meet">
         <g id="arrow_out" transform="scale(0.3 0.3)">
          <a xlink:href="TPC_2base_2src_2CalDet_8cxx__incl_org.svg" target="_base">
           <rect id="button" ry="5" rx="5" y="6" x="6" height="38" width="38"
                fill="#f2f5e9" fill-opacity="0.5" stroke="#606060" stroke-width="1.0"/>
           <path id="arrow"
             d="M 11.500037,31.436501 C 11.940474,20.09759 22.043105,11.32322 32.158766,21.979434 L 37.068811,17.246167 C 37.068811,17.246167 37.088388,32 37.088388,32 L 22.160133,31.978069 C 22.160133,31.978069 26.997745,27.140456 26.997745,27.140456 C 18.528582,18.264221 13.291696,25.230495 11.500037,31.436501 z"
             style="fill:#404040;"/>
          </a>
         </g>
        </svg>
</svg>
