<?xml version="1.0" encoding="UTF-8" standalone="no"?>
<!DOCTYPE svg PUBLIC "-//W3C//DTD SVG 1.1//EN"
 "http://www.w3.org/Graphics/SVG/1.1/DTD/svg11.dtd">
<!-- Generated by graphviz version 2.38.0 (20140413.2041)
 -->
<!-- Title: ex4::A Pages: 1 -->
<svg width="81pt" height="182pt"
 viewBox="0.00 0.00 81.00 182.00" xmlns="http://www.w3.org/2000/svg" xmlns:xlink="http://www.w3.org/1999/xlink">
<g id="graph0" class="graph" transform="scale(1 1) rotate(0) translate(4 178)">
<title>ex4::A</title>
<!-- Node1 -->
<g id="node1" class="node"><title>Node1</title>
<polygon fill="#bfbfbf" stroke="black" points="0,-0.5 0,-79.5 73,-79.5 73,-0.5 0,-0.5"/>
<text text-anchor="middle" x="36.5" y="-67.5" font-family="Helvetica,sans-Serif" font-size="10.00">ex4::A</text>
<polyline fill="none" stroke="black" points="0,-60.5 73,-60.5 "/>
<text text-anchor="middle" x="36.5" y="-48.5" font-family="Helvetica,sans-Serif" font-size="10.00"> </text>
<polyline fill="none" stroke="black" points="0,-41.5 73,-41.5 "/>
<text text-anchor="start" x="8" y="-29.5" font-family="Helvetica,sans-Serif" font-size="10.00">+ A()</text>
<text text-anchor="start" x="8" y="-18.5" font-family="Helvetica,sans-Serif" font-size="10.00">+ value()</text>
<text text-anchor="start" x="8" y="-7.5" font-family="Helvetica,sans-Serif" font-size="10.00">+ ClassDef()</text>
</g>
<!-- Node2 -->
<g id="node2" class="node"><title>Node2</title>
<g id="a_node2"><a xlink:href="../../d5/d0f/classTObject.html" target="_top" xlink:title="{TObject\n||}">
<polygon fill="none" stroke="black" points="11,-116.5 11,-173.5 62,-173.5 62,-116.5 11,-116.5"/>
<text text-anchor="middle" x="36.5" y="-161.5" font-family="Helvetica,sans-Serif" font-size="10.00">TObject</text>
<polyline fill="none" stroke="black" points="11,-154.5 62,-154.5 "/>
<text text-anchor="middle" x="36.5" y="-142.5" font-family="Helvetica,sans-Serif" font-size="10.00"> </text>
<polyline fill="none" stroke="black" points="11,-135.5 62,-135.5 "/>
<text text-anchor="middle" x="36.5" y="-123.5" font-family="Helvetica,sans-Serif" font-size="10.00"> </text>
</a>
</g>
</g>
<!-- Node2&#45;&gt;Node1 -->
<g id="edge1" class="edge"><title>Node2&#45;&gt;Node1</title>
<path fill="none" stroke="midnightblue" d="M36.5,-106.156C36.5,-97.4733 36.5,-88.2318 36.5,-79.5205"/>
<polygon fill="none" stroke="midnightblue" points="33.0001,-106.398 36.5,-116.398 40.0001,-106.398 33.0001,-106.398"/>
</g>
</g>
</svg>
