<?xml version="1.0" encoding="UTF-8" standalone="no"?>
<!DOCTYPE svg PUBLIC "-//W3C//DTD SVG 1.1//EN"
 "http://www.w3.org/Graphics/SVG/1.1/DTD/svg11.dtd">
<!-- Generated by graphviz version 2.38.0 (20140413.2041)
 -->
<!-- Title: o2::experimental::mergers::MergerConfig Pages: 1 -->
<svg width="1629pt" height="414pt"
 viewBox="0.00 0.00 1628.50 414.00" xmlns="http://www.w3.org/2000/svg" xmlns:xlink="http://www.w3.org/1999/xlink">
<g id="graph0" class="graph" transform="scale(1 1) rotate(0) translate(4 410)">
<title>o2::experimental::mergers::MergerConfig</title>
<!-- Node1 -->
<g id="node1" class="node"><title>Node1</title>
<polygon fill="#bfbfbf" stroke="black" points="582.5,-0.5 582.5,-68.5 712.5,-68.5 712.5,-0.5 582.5,-0.5"/>
<text text-anchor="start" x="590.5" y="-56.5" font-family="Helvetica,sans-Serif" font-size="10.00">o2::experimental::mergers</text>
<text text-anchor="middle" x="647.5" y="-45.5" font-family="Helvetica,sans-Serif" font-size="10.00">::MergerConfig</text>
<polyline fill="none" stroke="black" points="582.5,-38.5 712.5,-38.5 "/>
<text text-anchor="middle" x="647.5" y="-26.5" font-family="Helvetica,sans-Serif" font-size="10.00"> </text>
<polyline fill="none" stroke="black" points="582.5,-19.5 712.5,-19.5 "/>
<text text-anchor="middle" x="647.5" y="-7.5" font-family="Helvetica,sans-Serif" font-size="10.00"> </text>
</g>
<!-- Node2 -->
<g id="node2" class="node"><title>Node2</title>
<g id="a_node2"><a xlink:href="../../d3/d80/structo2_1_1experimental_1_1mergers_1_1ConfigEntry.html" target="_top" xlink:title="{o2::experimental::mergers\l::ConfigEntry\&lt; UnpackingMethod \&gt;\n||}">
<polygon fill="none" stroke="black" points="177,-116.5 177,-184.5 348,-184.5 348,-116.5 177,-116.5"/>
<text text-anchor="start" x="185" y="-172.5" font-family="Helvetica,sans-Serif" font-size="10.00">o2::experimental::mergers</text>
<text text-anchor="middle" x="262.5" y="-161.5" font-family="Helvetica,sans-Serif" font-size="10.00">::ConfigEntry&lt; UnpackingMethod &gt;</text>
<polyline fill="none" stroke="black" points="177,-154.5 348,-154.5 "/>
<text text-anchor="middle" x="262.5" y="-142.5" font-family="Helvetica,sans-Serif" font-size="10.00"> </text>
<polyline fill="none" stroke="black" points="177,-135.5 348,-135.5 "/>
<text text-anchor="middle" x="262.5" y="-123.5" font-family="Helvetica,sans-Serif" font-size="10.00"> </text>
</a>
</g>
</g>
<!-- Node2&#45;&gt;Node1 -->
<g id="edge1" class="edge"><title>Node2&#45;&gt;Node1</title>
<path fill="none" stroke="#404040" d="M348.062,-119.591C351.587,-118.375 355.077,-117.174 358.5,-116 396.654,-102.91 405.811,-98.4124 444.5,-87 485.723,-74.84 532.159,-62.9293 570.204,-53.6304"/>
<polygon fill="none" stroke="#404040" points="570.583,-53.5384 575.469,-48.2352 582.244,-50.7061 577.358,-56.0092 570.583,-53.5384"/>
<text text-anchor="middle" x="487.5" y="-90" font-family="Helvetica,sans-Serif" font-size="10.00"> +unpackingMethod</text>
</g>
<!-- Node3 -->
<g id="node3" class="node"><title>Node3</title>
<polygon fill="none" stroke="#bfbfbf" points="480,-238 480,-295 525,-295 525,-238 480,-238"/>
<text text-anchor="middle" x="502.5" y="-283" font-family="Helvetica,sans-Serif" font-size="10.00">double</text>
<polyline fill="none" stroke="#bfbfbf" points="480,-276 525,-276 "/>
<text text-anchor="middle" x="502.5" y="-264" font-family="Helvetica,sans-Serif" font-size="10.00"> </text>
<polyline fill="none" stroke="#bfbfbf" points="480,-257 525,-257 "/>
<text text-anchor="middle" x="502.5" y="-245" font-family="Helvetica,sans-Serif" font-size="10.00"> </text>
</g>
<!-- Node3&#45;&gt;Node2 -->
<g id="edge2" class="edge"><title>Node3&#45;&gt;Node2</title>
<path fill="none" stroke="#404040" d="M479.802,-255.561C461.055,-247.807 433.552,-237.464 408.5,-232 386.052,-227.104 218.023,-230.939 202.5,-214 196.698,-207.669 196.468,-201.053 199.614,-194.594"/>
<polygon fill="none" stroke="#404040" points="199.858,-194.266 200.229,-187.065 207.02,-184.638 206.648,-191.839 199.858,-194.266"/>
<text text-anchor="middle" x="221" y="-206" font-family="Helvetica,sans-Serif" font-size="10.00"> +param</text>
</g>
<!-- Node8 -->
<g id="node8" class="node"><title>Node8</title>
<g id="a_node8"><a xlink:href="../../d3/d80/structo2_1_1experimental_1_1mergers_1_1ConfigEntry.html" target="_top" xlink:title="{o2::experimental::mergers\l::ConfigEntry\&lt; Timespan \&gt;\n||}">
<polygon fill="none" stroke="black" points="20,-116.5 20,-184.5 155,-184.5 155,-116.5 20,-116.5"/>
<text text-anchor="start" x="28" y="-172.5" font-family="Helvetica,sans-Serif" font-size="10.00">o2::experimental::mergers</text>
<text text-anchor="middle" x="87.5" y="-161.5" font-family="Helvetica,sans-Serif" font-size="10.00">::ConfigEntry&lt; Timespan &gt;</text>
<polyline fill="none" stroke="black" points="20,-154.5 155,-154.5 "/>
<text text-anchor="middle" x="87.5" y="-142.5" font-family="Helvetica,sans-Serif" font-size="10.00"> </text>
<polyline fill="none" stroke="black" points="20,-135.5 155,-135.5 "/>
<text text-anchor="middle" x="87.5" y="-123.5" font-family="Helvetica,sans-Serif" font-size="10.00"> </text>
</a>
</g>
</g>
<!-- Node3&#45;&gt;Node8 -->
<g id="edge8" class="edge"><title>Node3&#45;&gt;Node8</title>
<path fill="none" stroke="#404040" d="M479.842,-255.37C461.119,-247.504 433.627,-237.106 408.5,-232 375.015,-225.196 127.535,-236.13 101.5,-214 96.2047,-209.499 92.6606,-203.47 90.3281,-196.929"/>
<polygon fill="none" stroke="#404040" points="90.213,-196.464 84.8852,-191.605 87.3219,-184.818 92.6496,-189.677 90.213,-196.464"/>
<text text-anchor="middle" x="120" y="-206" font-family="Helvetica,sans-Serif" font-size="10.00"> +param</text>
</g>
<!-- Node10 -->
<g id="node10" class="node"><title>Node10</title>
<g id="a_node10"><a xlink:href="../../d3/d80/structo2_1_1experimental_1_1mergers_1_1ConfigEntry.html" target="_top" xlink:title="{o2::experimental::mergers\l::ConfigEntry\&lt; PublicationDecision \&gt;\n||}">
<polygon fill="none" stroke="black" points="368,-116.5 368,-184.5 547,-184.5 547,-116.5 368,-116.5"/>
<text text-anchor="start" x="376" y="-172.5" font-family="Helvetica,sans-Serif" font-size="10.00">o2::experimental::mergers</text>
<text text-anchor="middle" x="457.5" y="-161.5" font-family="Helvetica,sans-Serif" font-size="10.00">::ConfigEntry&lt; PublicationDecision &gt;</text>
<polyline fill="none" stroke="black" points="368,-154.5 547,-154.5 "/>
<text text-anchor="middle" x="457.5" y="-142.5" font-family="Helvetica,sans-Serif" font-size="10.00"> </text>
<polyline fill="none" stroke="black" points="368,-135.5 547,-135.5 "/>
<text text-anchor="middle" x="457.5" y="-123.5" font-family="Helvetica,sans-Serif" font-size="10.00"> </text>
</a>
</g>
</g>
<!-- Node3&#45;&gt;Node10 -->
<g id="edge12" class="edge"><title>Node3&#45;&gt;Node10</title>
<path fill="none" stroke="#404040" d="M479.737,-260.593C456.461,-254.23 421.515,-240.635 405.5,-214 401.727,-207.725 401.618,-201.426 403.844,-195.372"/>
<polygon fill="none" stroke="#404040" points="403.986,-195.13 403.589,-187.93 410.083,-184.795 410.48,-191.995 403.986,-195.13"/>
<text text-anchor="middle" x="424" y="-206" font-family="Helvetica,sans-Serif" font-size="10.00"> +param</text>
</g>
<!-- Node12 -->
<g id="node12" class="node"><title>Node12</title>
<g id="a_node12"><a xlink:href="../../d3/d80/structo2_1_1experimental_1_1mergers_1_1ConfigEntry.html" target="_top" xlink:title="{o2::experimental::mergers\l::ConfigEntry\&lt; MergingMode \&gt;\n||}">
<polygon fill="none" stroke="black" points="829,-116.5 829,-184.5 980,-184.5 980,-116.5 829,-116.5"/>
<text text-anchor="start" x="837" y="-172.5" font-family="Helvetica,sans-Serif" font-size="10.00">o2::experimental::mergers</text>
<text text-anchor="middle" x="904.5" y="-161.5" font-family="Helvetica,sans-Serif" font-size="10.00">::ConfigEntry&lt; MergingMode &gt;</text>
<polyline fill="none" stroke="black" points="829,-154.5 980,-154.5 "/>
<text text-anchor="middle" x="904.5" y="-142.5" font-family="Helvetica,sans-Serif" font-size="10.00"> </text>
<polyline fill="none" stroke="black" points="829,-135.5 980,-135.5 "/>
<text text-anchor="middle" x="904.5" y="-123.5" font-family="Helvetica,sans-Serif" font-size="10.00"> </text>
</a>
</g>
</g>
<!-- Node3&#45;&gt;Node12 -->
<g id="edge16" class="edge"><title>Node3&#45;&gt;Node12</title>
<path fill="none" stroke="#404040" d="M525.058,-255.362C543.38,-247.602 570.092,-237.35 594.5,-232 689.464,-211.183 720.832,-246.38 812.5,-214 816.967,-212.422 831.528,-202.87 847.788,-191.689"/>
<polygon fill="none" stroke="#404040" points="848.193,-191.408 850.846,-184.703 858.056,-184.574 855.403,-191.279 848.193,-191.408"/>
<text text-anchor="middle" x="850" y="-206" font-family="Helvetica,sans-Serif" font-size="10.00"> +param</text>
</g>
<!-- Node17 -->
<g id="node17" class="node"><title>Node17</title>
<g id="a_node17"><a xlink:href="../../d3/d80/structo2_1_1experimental_1_1mergers_1_1ConfigEntry.html" target="_top" xlink:title="{o2::experimental::mergers\l::ConfigEntry\&lt; OwnershipMode \&gt;\n||}">
<polygon fill="none" stroke="black" points="566,-116.5 566,-184.5 729,-184.5 729,-116.5 566,-116.5"/>
<text text-anchor="start" x="574" y="-172.5" font-family="Helvetica,sans-Serif" font-size="10.00">o2::experimental::mergers</text>
<text text-anchor="middle" x="647.5" y="-161.5" font-family="Helvetica,sans-Serif" font-size="10.00">::ConfigEntry&lt; OwnershipMode &gt;</text>
<polyline fill="none" stroke="black" points="566,-154.5 729,-154.5 "/>
<text text-anchor="middle" x="647.5" y="-142.5" font-family="Helvetica,sans-Serif" font-size="10.00"> </text>
<polyline fill="none" stroke="black" points="566,-135.5 729,-135.5 "/>
<text text-anchor="middle" x="647.5" y="-123.5" font-family="Helvetica,sans-Serif" font-size="10.00"> </text>
</a>
</g>
</g>
<!-- Node3&#45;&gt;Node17 -->
<g id="edge24" class="edge"><title>Node3&#45;&gt;Node17</title>
<path fill="none" stroke="#404040" d="M525.156,-247.688C544.071,-232.816 571.76,-211.047 596.014,-191.979"/>
<polygon fill="none" stroke="#404040" points="596.029,-191.967 598.274,-185.114 605.463,-184.55 603.218,-191.403 596.029,-191.967"/>
<text text-anchor="middle" x="598" y="-206" font-family="Helvetica,sans-Serif" font-size="10.00"> +param</text>
</g>
<!-- Node19 -->
<g id="node19" class="node"><title>Node19</title>
<g id="a_node19"><a xlink:href="../../d3/d80/structo2_1_1experimental_1_1mergers_1_1ConfigEntry.html" target="_top" xlink:title="{o2::experimental::mergers\l::ConfigEntry\&lt; MergingTime \&gt;\n||}">
<polygon fill="none" stroke="black" points="1068,-116.5 1068,-184.5 1217,-184.5 1217,-116.5 1068,-116.5"/>
<text text-anchor="start" x="1076" y="-172.5" font-family="Helvetica,sans-Serif" font-size="10.00">o2::experimental::mergers</text>
<text text-anchor="middle" x="1142.5" y="-161.5" font-family="Helvetica,sans-Serif" font-size="10.00">::ConfigEntry&lt; MergingTime &gt;</text>
<polyline fill="none" stroke="black" points="1068,-154.5 1217,-154.5 "/>
<text text-anchor="middle" x="1142.5" y="-142.5" font-family="Helvetica,sans-Serif" font-size="10.00"> </text>
<polyline fill="none" stroke="black" points="1068,-135.5 1217,-135.5 "/>
<text text-anchor="middle" x="1142.5" y="-123.5" font-family="Helvetica,sans-Serif" font-size="10.00"> </text>
</a>
</g>
</g>
<!-- Node3&#45;&gt;Node19 -->
<g id="edge28" class="edge"><title>Node3&#45;&gt;Node19</title>
<path fill="none" stroke="#404040" d="M525.371,-254.901C543.646,-246.993 570.145,-236.768 594.5,-232 646.986,-221.726 1026.12,-234.533 1075.5,-214 1086.96,-209.237 1097.65,-201.574 1106.99,-193.22"/>
<polygon fill="none" stroke="#404040" points="1107.19,-193.028 1108.75,-185.987 1115.84,-184.719 1114.29,-191.759 1107.19,-193.028"/>
<text text-anchor="middle" x="1112" y="-206" font-family="Helvetica,sans-Serif" font-size="10.00"> +param</text>
</g>
<!-- Node4 -->
<g id="node4" class="node"><title>Node4</title>
<polygon fill="none" stroke="#bfbfbf" points="98,-238 98,-295 193,-295 193,-238 98,-238"/>
<text text-anchor="middle" x="145.5" y="-283" font-family="Helvetica,sans-Serif" font-size="10.00">UnpackingMethod</text>
<polyline fill="none" stroke="#bfbfbf" points="98,-276 193,-276 "/>
<text text-anchor="middle" x="145.5" y="-264" font-family="Helvetica,sans-Serif" font-size="10.00"> </text>
<polyline fill="none" stroke="#bfbfbf" points="98,-257 193,-257 "/>
<text text-anchor="middle" x="145.5" y="-245" font-family="Helvetica,sans-Serif" font-size="10.00"> </text>
</g>
<!-- Node4&#45;&gt;Node2 -->
<g id="edge3" class="edge"><title>Node4&#45;&gt;Node2</title>
<path fill="none" stroke="#404040" d="M139.702,-237.73C138.783,-226.131 139.853,-213.046 146.5,-203 149.768,-198.06 156.781,-192.923 165.82,-187.89"/>
<polygon fill="none" stroke="#404040" points="166.115,-187.739 169.631,-181.444 176.795,-182.268 173.279,-188.564 166.115,-187.739"/>
<text text-anchor="middle" x="163" y="-206" font-family="Helvetica,sans-Serif" font-size="10.00"> +value</text>
</g>
<!-- Node5 -->
<g id="node5" class="node"><title>Node5</title>
<g id="a_node5"><a xlink:href="../../d3/d80/structo2_1_1experimental_1_1mergers_1_1ConfigEntry.html" target="_top" xlink:title="{o2::experimental::mergers\l::ConfigEntry\&lt; V, P \&gt;\n||}">
<polygon fill="none" stroke="black" points="829.5,-232.5 829.5,-300.5 959.5,-300.5 959.5,-232.5 829.5,-232.5"/>
<text text-anchor="start" x="837.5" y="-288.5" font-family="Helvetica,sans-Serif" font-size="10.00">o2::experimental::mergers</text>
<text text-anchor="middle" x="894.5" y="-277.5" font-family="Helvetica,sans-Serif" font-size="10.00">::ConfigEntry&lt; V, P &gt;</text>
<polyline fill="none" stroke="black" points="829.5,-270.5 959.5,-270.5 "/>
<text text-anchor="middle" x="894.5" y="-258.5" font-family="Helvetica,sans-Serif" font-size="10.00"> </text>
<polyline fill="none" stroke="black" points="829.5,-251.5 959.5,-251.5 "/>
<text text-anchor="middle" x="894.5" y="-239.5" font-family="Helvetica,sans-Serif" font-size="10.00"> </text>
</a>
</g>
</g>
<!-- Node5&#45;&gt;Node2 -->
<g id="edge4" class="edge"><title>Node5&#45;&gt;Node2</title>
<path fill="none" stroke="orange" d="M819.312,-250.907C783.196,-244.328 739.226,-236.943 699.5,-232 596.87,-219.231 567.808,-239.183 467.5,-214 455.726,-211.044 454.05,-206.735 442.5,-203 406.172,-191.251 395.263,-195.31 358.5,-185 355.101,-184.047 351.647,-183.038 348.167,-181.988"/>
<polygon fill="orange" stroke="orange" points="818.812,-254.374 829.28,-252.739 820.077,-247.489 818.812,-254.374"/>
<text text-anchor="middle" x="517.5" y="-206" font-family="Helvetica,sans-Serif" font-size="10.00"> &lt; UnpackingMethod &gt;</text>
</g>
<!-- Node5&#45;&gt;Node8 -->
<g id="edge10" class="edge"><title>Node5&#45;&gt;Node8</title>
<path fill="none" stroke="orange" d="M819.38,-250.317C783.279,-243.606 739.303,-236.28 699.5,-232 519.031,-212.595 471.311,-238.774 291.5,-214 277.483,-212.069 180.961,-189.359 167.5,-185 163.489,-183.701 159.398,-182.286 155.293,-180.795"/>
<polygon fill="orange" stroke="orange" points="818.869,-253.782 829.343,-252.191 820.163,-246.903 818.869,-253.782"/>
<text text-anchor="middle" x="323.5" y="-206" font-family="Helvetica,sans-Serif" font-size="10.00"> &lt; Timespan &gt;</text>
</g>
<!-- Node5&#45;&gt;Node10 -->
<g id="edge14" class="edge"><title>Node5&#45;&gt;Node10</title>
<path fill="none" stroke="orange" d="M819.202,-250.419C782.621,-241.866 738.471,-229.703 700.5,-214 691.483,-210.271 690.719,-206.198 681.5,-203 628.471,-184.605 611.09,-198.05 556.5,-185 553.412,-184.262 550.283,-183.468 547.134,-182.629"/>
<polygon fill="orange" stroke="orange" points="818.778,-253.913 829.307,-252.736 820.342,-247.09 818.778,-253.913"/>
<text text-anchor="middle" x="754.5" y="-206" font-family="Helvetica,sans-Serif" font-size="10.00"> &lt; PublicationDecision &gt;</text>
</g>
<!-- Node5&#45;&gt;Node12 -->
<g id="edge18" class="edge"><title>Node5&#45;&gt;Node12</title>
<path fill="none" stroke="orange" d="M968.203,-235.311C975.861,-229.34 982.614,-222.291 987.5,-214 994.46,-202.189 989.973,-191.883 980.221,-183.228"/>
<polygon fill="orange" stroke="orange" points="965.749,-232.757 959.584,-241.374 969.777,-238.483 965.749,-232.757"/>
<text text-anchor="middle" x="1031.5" y="-206" font-family="Helvetica,sans-Serif" font-size="10.00"> &lt; MergingMode &gt;</text>
</g>
<!-- Node14 -->
<g id="node14" class="node"><title>Node14</title>
<g id="a_node14"><a xlink:href="../../d3/d80/structo2_1_1experimental_1_1mergers_1_1ConfigEntry.html" target="_top" xlink:title="{o2::experimental::mergers\l::ConfigEntry\&lt; TopologySize, int \&gt;\n||}">
<polygon fill="none" stroke="black" points="1336.5,-116.5 1336.5,-184.5 1504.5,-184.5 1504.5,-116.5 1336.5,-116.5"/>
<text text-anchor="start" x="1344.5" y="-172.5" font-family="Helvetica,sans-Serif" font-size="10.00">o2::experimental::mergers</text>
<text text-anchor="middle" x="1420.5" y="-161.5" font-family="Helvetica,sans-Serif" font-size="10.00">::ConfigEntry&lt; TopologySize, int &gt;</text>
<polyline fill="none" stroke="black" points="1336.5,-154.5 1504.5,-154.5 "/>
<text text-anchor="middle" x="1420.5" y="-142.5" font-family="Helvetica,sans-Serif" font-size="10.00"> </text>
<polyline fill="none" stroke="black" points="1336.5,-135.5 1504.5,-135.5 "/>
<text text-anchor="middle" x="1420.5" y="-123.5" font-family="Helvetica,sans-Serif" font-size="10.00"> </text>
</a>
</g>
</g>
<!-- Node5&#45;&gt;Node14 -->
<g id="edge22" class="edge"><title>Node5&#45;&gt;Node14</title>
<path fill="none" stroke="orange" d="M970.175,-262.307C1049.97,-257.381 1178.67,-244.982 1285.5,-214 1310.55,-206.734 1336.85,-195.473 1359.51,-184.5"/>
<polygon fill="orange" stroke="orange" points="969.505,-258.84 959.73,-262.926 969.92,-265.828 969.505,-258.84"/>
<text text-anchor="middle" x="1364" y="-206" font-family="Helvetica,sans-Serif" font-size="10.00"> &lt; TopologySize, int &gt;</text>
</g>
<!-- Node5&#45;&gt;Node17 -->
<g id="edge26" class="edge"><title>Node5&#45;&gt;Node17</title>
<path fill="none" stroke="orange" d="M885.996,-222.83C882.826,-215.385 878.474,-208.332 872.5,-203 861.513,-193.194 788.955,-177.668 729.16,-166.225"/>
<polygon fill="orange" stroke="orange" points="882.745,-224.134 889.412,-232.368 889.335,-221.774 882.745,-224.134"/>
<text text-anchor="middle" x="927.5" y="-206" font-family="Helvetica,sans-Serif" font-size="10.00"> &lt; OwnershipMode &gt;</text>
</g>
<!-- Node5&#45;&gt;Node19 -->
<g id="edge30" class="edge"><title>Node5&#45;&gt;Node19</title>
<path fill="none" stroke="orange" d="M969.701,-260.698C1036.84,-254.656 1127.96,-241.524 1150.5,-214 1157.15,-205.875 1157.69,-195.055 1155.77,-184.703"/>
<polygon fill="orange" stroke="orange" points="969.225,-257.226 959.563,-261.573 969.827,-264.2 969.225,-257.226"/>
<text text-anchor="middle" x="1194.5" y="-206" font-family="Helvetica,sans-Serif" font-size="10.00"> &lt; MergingTime &gt;</text>
</g>
<!-- Node6 -->
<g id="node6" class="node"><title>Node6</title>
<polygon fill="none" stroke="#bfbfbf" points="852,-348.5 852,-405.5 881,-405.5 881,-348.5 852,-348.5"/>
<text text-anchor="middle" x="866.5" y="-393.5" font-family="Helvetica,sans-Serif" font-size="10.00">V</text>
<polyline fill="none" stroke="#bfbfbf" points="852,-386.5 881,-386.5 "/>
<text text-anchor="middle" x="866.5" y="-374.5" font-family="Helvetica,sans-Serif" font-size="10.00"> </text>
<polyline fill="none" stroke="#bfbfbf" points="852,-367.5 881,-367.5 "/>
<text text-anchor="middle" x="866.5" y="-355.5" font-family="Helvetica,sans-Serif" font-size="10.00"> </text>
</g>
<!-- Node6&#45;&gt;Node5 -->
<g id="edge5" class="edge"><title>Node6&#45;&gt;Node5</title>
<path fill="none" stroke="#404040" d="M864.428,-348.403C864.389,-338.953 865.098,-328.397 867.5,-319 868.115,-316.593 868.862,-314.173 869.708,-311.764"/>
<polygon fill="none" stroke="#404040" points="869.708,-311.764 868.3,-304.692 874.286,-300.671 875.695,-307.744 869.708,-311.764"/>
<text text-anchor="middle" x="884" y="-322" font-family="Helvetica,sans-Serif" font-size="10.00"> +value</text>
</g>
<!-- Node7 -->
<g id="node7" class="node"><title>Node7</title>
<polygon fill="none" stroke="#bfbfbf" points="908,-348.5 908,-405.5 937,-405.5 937,-348.5 908,-348.5"/>
<text text-anchor="middle" x="922.5" y="-393.5" font-family="Helvetica,sans-Serif" font-size="10.00">P</text>
<polyline fill="none" stroke="#bfbfbf" points="908,-386.5 937,-386.5 "/>
<text text-anchor="middle" x="922.5" y="-374.5" font-family="Helvetica,sans-Serif" font-size="10.00"> </text>
<polyline fill="none" stroke="#bfbfbf" points="908,-367.5 937,-367.5 "/>
<text text-anchor="middle" x="922.5" y="-355.5" font-family="Helvetica,sans-Serif" font-size="10.00"> </text>
</g>
<!-- Node7&#45;&gt;Node5 -->
<g id="edge6" class="edge"><title>Node7&#45;&gt;Node5</title>
<path fill="none" stroke="#404040" d="M915.362,-348.34C912.543,-337.416 909.23,-324.58 906.085,-312.393"/>
<polygon fill="none" stroke="#404040" points="906.02,-312.138 900.647,-307.328 903.021,-300.519 908.393,-305.329 906.02,-312.138"/>
<text text-anchor="middle" x="929" y="-322" font-family="Helvetica,sans-Serif" font-size="10.00"> +param</text>
</g>
<!-- Node8&#45;&gt;Node1 -->
<g id="edge7" class="edge"><title>Node8&#45;&gt;Node1</title>
<path fill="none" stroke="#404040" d="M155.2,-119.9C159.328,-118.486 163.45,-117.171 167.5,-116 306.506,-75.8228 474.323,-53.3762 570.207,-42.9169"/>
<polygon fill="none" stroke="#404040" points="570.461,-42.8898 576,-38.2728 582.392,-41.6102 576.853,-46.2272 570.461,-42.8898"/>
<text text-anchor="middle" x="309" y="-90" font-family="Helvetica,sans-Serif" font-size="10.00"> +timespan</text>
</g>
<!-- Node9 -->
<g id="node9" class="node"><title>Node9</title>
<polygon fill="none" stroke="#bfbfbf" points="0,-238 0,-295 59,-295 59,-238 0,-238"/>
<text text-anchor="middle" x="29.5" y="-283" font-family="Helvetica,sans-Serif" font-size="10.00">Timespan</text>
<polyline fill="none" stroke="#bfbfbf" points="0,-276 59,-276 "/>
<text text-anchor="middle" x="29.5" y="-264" font-family="Helvetica,sans-Serif" font-size="10.00"> </text>
<polyline fill="none" stroke="#bfbfbf" points="0,-257 59,-257 "/>
<text text-anchor="middle" x="29.5" y="-245" font-family="Helvetica,sans-Serif" font-size="10.00"> </text>
</g>
<!-- Node9&#45;&gt;Node8 -->
<g id="edge9" class="edge"><title>Node9&#45;&gt;Node8</title>
<path fill="none" stroke="#404040" d="M25.2751,-237.998C24.7048,-226.701 25.6117,-213.771 30.5,-203 31.8736,-199.973 33.5199,-197.048 35.3728,-194.233"/>
<polygon fill="none" stroke="#404040" points="35.529,-194.031 36.0342,-186.837 42.8686,-184.537 42.3634,-191.73 35.529,-194.031"/>
<text text-anchor="middle" x="47" y="-206" font-family="Helvetica,sans-Serif" font-size="10.00"> +value</text>
</g>
<!-- Node10&#45;&gt;Node1 -->
<g id="edge11" class="edge"><title>Node10&#45;&gt;Node1</title>
<path fill="none" stroke="#404040" d="M504.11,-116.342C518.451,-106.549 534.431,-96.0385 549.5,-87 556.614,-82.733 564.115,-78.4409 571.669,-74.2535"/>
<polygon fill="none" stroke="#404040" points="571.821,-74.1706 575.169,-67.7835 582.352,-68.4167 579.004,-74.8039 571.821,-74.1706"/>
<text text-anchor="middle" x="596.5" y="-90" font-family="Helvetica,sans-Serif" font-size="10.00"> +publicationDecision</text>
</g>
<!-- Node11 -->
<g id="node11" class="node"><title>Node11</title>
<polygon fill="none" stroke="#bfbfbf" points="297,-238 297,-295 400,-295 400,-238 297,-238"/>
<text text-anchor="middle" x="348.5" y="-283" font-family="Helvetica,sans-Serif" font-size="10.00">PublicationDecision</text>
<polyline fill="none" stroke="#bfbfbf" points="297,-276 400,-276 "/>
<text text-anchor="middle" x="348.5" y="-264" font-family="Helvetica,sans-Serif" font-size="10.00"> </text>
<polyline fill="none" stroke="#bfbfbf" points="297,-257 400,-257 "/>
<text text-anchor="middle" x="348.5" y="-245" font-family="Helvetica,sans-Serif" font-size="10.00"> </text>
</g>
<!-- Node11&#45;&gt;Node10 -->
<g id="edge13" class="edge"><title>Node11&#45;&gt;Node10</title>
<path fill="none" stroke="#404040" d="M351.227,-237.843C353.525,-226.13 357.748,-212.926 365.5,-203 368.457,-199.213 371.776,-195.661 375.35,-192.336"/>
<polygon fill="none" stroke="#404040" points="375.487,-192.222 377.531,-185.306 384.7,-184.533 382.656,-191.449 375.487,-192.222"/>
<text text-anchor="middle" x="382" y="-206" font-family="Helvetica,sans-Serif" font-size="10.00"> +value</text>
</g>
<!-- Node12&#45;&gt;Node1 -->
<g id="edge15" class="edge"><title>Node12&#45;&gt;Node1</title>
<path fill="none" stroke="#404040" d="M829.82,-116.373C796.532,-101.608 757.363,-84.233 723.879,-69.3802"/>
<polygon fill="none" stroke="#404040" points="723.727,-69.313 716.621,-70.5365 712.758,-64.4472 719.865,-63.2237 723.727,-69.313"/>
<text text-anchor="middle" x="818.5" y="-90" font-family="Helvetica,sans-Serif" font-size="10.00"> +mergingMode</text>
</g>
<!-- Node13 -->
<g id="node13" class="node"><title>Node13</title>
<polygon fill="none" stroke="#bfbfbf" points="1236,-238 1236,-295 1311,-295 1311,-238 1236,-238"/>
<text text-anchor="middle" x="1273.5" y="-283" font-family="Helvetica,sans-Serif" font-size="10.00">MergingMode</text>
<polyline fill="none" stroke="#bfbfbf" points="1236,-276 1311,-276 "/>
<text text-anchor="middle" x="1273.5" y="-264" font-family="Helvetica,sans-Serif" font-size="10.00"> </text>
<polyline fill="none" stroke="#bfbfbf" points="1236,-257 1311,-257 "/>
<text text-anchor="middle" x="1273.5" y="-245" font-family="Helvetica,sans-Serif" font-size="10.00"> </text>
</g>
<!-- Node13&#45;&gt;Node12 -->
<g id="edge17" class="edge"><title>Node13&#45;&gt;Node12</title>
<path fill="none" stroke="#404040" d="M1264.35,-237.917C1258.67,-225.172 1250.01,-211.097 1237.5,-203 1204.13,-181.395 1098.77,-191.209 1059.5,-185 1037.59,-181.535 1014.11,-176.933 992.232,-172.252"/>
<polygon fill="none" stroke="#404040" points="991.985,-172.199 985.272,-174.833 980.259,-169.65 986.971,-167.016 991.985,-172.199"/>
<text text-anchor="middle" x="1265" y="-206" font-family="Helvetica,sans-Serif" font-size="10.00"> +value</text>
</g>
<!-- Node14&#45;&gt;Node1 -->
<g id="edge19" class="edge"><title>Node14&#45;&gt;Node1</title>
<path fill="none" stroke="#404040" d="M1336.13,-134.404C1301.84,-128.426 1261.82,-121.647 1225.5,-116 1046.5,-88.1668 835.589,-59.9446 724.657,-45.4538"/>
<polygon fill="none" stroke="#404040" points="724.509,-45.4346 718.043,-48.6251 712.61,-43.8828 719.077,-40.6923 724.509,-45.4346"/>
<text text-anchor="middle" x="1132.5" y="-90" font-family="Helvetica,sans-Serif" font-size="10.00"> +topologySize</text>
</g>
<!-- Node15 -->
<g id="node15" class="node"><title>Node15</title>
<polygon fill="none" stroke="#bfbfbf" points="1497,-238 1497,-295 1526,-295 1526,-238 1497,-238"/>
<text text-anchor="middle" x="1511.5" y="-283" font-family="Helvetica,sans-Serif" font-size="10.00">int</text>
<polyline fill="none" stroke="#bfbfbf" points="1497,-276 1526,-276 "/>
<text text-anchor="middle" x="1511.5" y="-264" font-family="Helvetica,sans-Serif" font-size="10.00"> </text>
<polyline fill="none" stroke="#bfbfbf" points="1497,-257 1526,-257 "/>
<text text-anchor="middle" x="1511.5" y="-245" font-family="Helvetica,sans-Serif" font-size="10.00"> </text>
</g>
<!-- Node15&#45;&gt;Node14 -->
<g id="edge20" class="edge"><title>Node15&#45;&gt;Node14</title>
<path fill="none" stroke="#404040" d="M1503.92,-237.73C1499.92,-226.262 1494.22,-213.278 1486.5,-203 1483.98,-199.645 1481.19,-196.391 1478.22,-193.259"/>
<polygon fill="none" stroke="#404040" points="1478.07,-193.12 1470.98,-191.818 1469.46,-184.77 1476.55,-186.072 1478.07,-193.12"/>
<text text-anchor="middle" x="1511" y="-206" font-family="Helvetica,sans-Serif" font-size="10.00"> +param</text>
</g>
<!-- Node16 -->
<g id="node16" class="node"><title>Node16</title>
<polygon fill="none" stroke="#bfbfbf" points="1544.5,-238 1544.5,-295 1620.5,-295 1620.5,-238 1544.5,-238"/>
<text text-anchor="middle" x="1582.5" y="-283" font-family="Helvetica,sans-Serif" font-size="10.00">TopologySize</text>
<polyline fill="none" stroke="#bfbfbf" points="1544.5,-276 1620.5,-276 "/>
<text text-anchor="middle" x="1582.5" y="-264" font-family="Helvetica,sans-Serif" font-size="10.00"> </text>
<polyline fill="none" stroke="#bfbfbf" points="1544.5,-257 1620.5,-257 "/>
<text text-anchor="middle" x="1582.5" y="-245" font-family="Helvetica,sans-Serif" font-size="10.00"> </text>
</g>
<!-- Node16&#45;&gt;Node14 -->
<g id="edge21" class="edge"><title>Node16&#45;&gt;Node14</title>
<path fill="none" stroke="#404040" d="M1565.17,-237.802C1556.73,-225.942 1545.74,-212.636 1533.5,-203 1527.86,-198.558 1521.77,-194.401 1515.45,-190.528"/>
<polygon fill="none" stroke="#404040" points="1515.02,-190.28 1507.82,-190.745 1504.62,-184.28 1511.82,-183.816 1515.02,-190.28"/>
<text text-anchor="middle" x="1561" y="-206" font-family="Helvetica,sans-Serif" font-size="10.00"> +value</text>
</g>
<!-- Node17&#45;&gt;Node1 -->
<g id="edge23" class="edge"><title>Node17&#45;&gt;Node1</title>
<path fill="none" stroke="#404040" d="M647.5,-116.22C647.5,-105.099 647.5,-92.5117 647.5,-80.6422"/>
<polygon fill="none" stroke="#404040" points="647.5,-80.6243 643.5,-74.6243 647.5,-68.6243 651.5,-74.6242 647.5,-80.6243"/>
<text text-anchor="middle" x="686.5" y="-90" font-family="Helvetica,sans-Serif" font-size="10.00"> +ownershipMode</text>
</g>
<!-- Node18 -->
<g id="node18" class="node"><title>Node18</title>
<polygon fill="none" stroke="#bfbfbf" points="604,-238 604,-295 691,-295 691,-238 604,-238"/>
<text text-anchor="middle" x="647.5" y="-283" font-family="Helvetica,sans-Serif" font-size="10.00">OwnershipMode</text>
<polyline fill="none" stroke="#bfbfbf" points="604,-276 691,-276 "/>
<text text-anchor="middle" x="647.5" y="-264" font-family="Helvetica,sans-Serif" font-size="10.00"> </text>
<polyline fill="none" stroke="#bfbfbf" points="604,-257 691,-257 "/>
<text text-anchor="middle" x="647.5" y="-245" font-family="Helvetica,sans-Serif" font-size="10.00"> </text>
</g>
<!-- Node18&#45;&gt;Node17 -->
<g id="edge25" class="edge"><title>Node18&#45;&gt;Node17</title>
<path fill="none" stroke="#404040" d="M647.5,-237.904C647.5,-225.594 647.5,-210.764 647.5,-196.892"/>
<polygon fill="none" stroke="#404040" points="647.5,-196.521 643.5,-190.521 647.5,-184.521 651.5,-190.521 647.5,-196.521"/>
<text text-anchor="middle" x="664" y="-206" font-family="Helvetica,sans-Serif" font-size="10.00"> +value</text>
</g>
<!-- Node19&#45;&gt;Node1 -->
<g id="edge27" class="edge"><title>Node19&#45;&gt;Node1</title>
<path fill="none" stroke="#404040" d="M1067.86,-132.31C975.357,-111.007 818.516,-74.8856 724.802,-53.3029"/>
<polygon fill="none" stroke="#404040" points="724.547,-53.2443 717.803,-55.7957 712.854,-50.5511 719.598,-47.9998 724.547,-53.2443"/>
<text text-anchor="middle" x="943.5" y="-90" font-family="Helvetica,sans-Serif" font-size="10.00"> +mergingTime</text>
</g>
<!-- Node20 -->
<g id="node20" class="node"><title>Node20</title>
<polygon fill="none" stroke="#bfbfbf" points="1406,-238 1406,-295 1479,-295 1479,-238 1406,-238"/>
<text text-anchor="middle" x="1442.5" y="-283" font-family="Helvetica,sans-Serif" font-size="10.00">MergingTime</text>
<polyline fill="none" stroke="#bfbfbf" points="1406,-276 1479,-276 "/>
<text text-anchor="middle" x="1442.5" y="-264" font-family="Helvetica,sans-Serif" font-size="10.00"> </text>
<polyline fill="none" stroke="#bfbfbf" points="1406,-257 1479,-257 "/>
<text text-anchor="middle" x="1442.5" y="-245" font-family="Helvetica,sans-Serif" font-size="10.00"> </text>
</g>
<!-- Node20&#45;&gt;Node19 -->
<g id="edge29" class="edge"><title>Node20&#45;&gt;Node19</title>
<path fill="none" stroke="#404040" d="M1442.39,-237.841C1440.87,-225.552 1436.91,-211.886 1427.5,-203 1394.66,-171.998 1371.94,-193.023 1327.5,-185 1295.46,-179.215 1260.29,-172.851 1229.31,-167.239"/>
<polygon fill="none" stroke="#404040" points="1229.02,-167.186 1222.4,-170.052 1217.21,-165.047 1223.83,-162.18 1229.02,-167.186"/>
<text text-anchor="middle" x="1452" y="-206" font-family="Helvetica,sans-Serif" font-size="10.00"> +value</text>
</g>
</g>
</svg>
