<?xml version="1.0" encoding="UTF-8" standalone="no"?>
<!DOCTYPE svg PUBLIC "-//W3C//DTD SVG 1.1//EN"
 "http://www.w3.org/Graphics/SVG/1.1/DTD/svg11.dtd">
<!-- Generated by graphviz version 2.38.0 (20140413.2041)
 -->
<!-- Title: /home/travis/build/AliceO2Group/AliceO2/Framework/Foundation/include/Framework/StructToTuple.h Pages: 1 -->
<!--zoomable 239 -->
<svg id="main" version="1.1" xmlns="http://www.w3.org/2000/svg" xmlns:xlink="http://www.w3.org/1999/xlink" xml:space="preserve" onload="init(evt)">
<style type="text/css"><![CDATA[
.edge:hover path { stroke: red; }
.edge:hover polygon { stroke: red; fill: red; }
]]></style>
<script type="text/javascript"><![CDATA[
var edges = document.getElementsByTagName('g');
if (edges && edges.length) {
  for (var i=0;i<edges.length;i++) {
    if (edges[i].id.substr(0,4)=='edge') {
      edges[i].setAttribute('class','edge');
    }
  }
}
]]></script>
        <defs>
                <circle id="rim" cx="0" cy="0" r="7"/>
                <circle id="rim2" cx="0" cy="0" r="3.5"/>
                <g id="zoomPlus">
                        <use xlink:href="#rim" fill="#404040">
                                <set attributeName="fill" to="#808080" begin="zoomplus.mouseover" end="zoomplus.mouseout"/>
                        </use>
                        <path d="M-4,0h8M0,-4v8" fill="none" stroke="white" stroke-width="1.5" pointer-events="none"/>
                </g>
                <g id="zoomMin">
                        <use xlink:href="#rim" fill="#404040">
                                <set attributeName="fill" to="#808080" begin="zoomminus.mouseover" end="zoomminus.mouseout"/>
                        </use>
                        <path d="M-4,0h8" fill="none" stroke="white" stroke-width="1.5" pointer-events="none"/>
                </g>
                <g id="dirArrow">
                        <path fill="none" stroke="white" stroke-width="1.5" d="M0,-3.0v7 M-2.5,-0.5L0,-3.0L2.5,-0.5"/>
                </g>
               <g id="resetDef">
                       <use xlink:href="#rim2" fill="#404040">
                               <set attributeName="fill" to="#808080" begin="reset.mouseover" end="reset.mouseout"/>
                       </use>
               </g>
        </defs>

<script type="text/javascript">
var viewWidth = 1779;
var viewHeight = 239;
var sectionId = 'dynsection-1';
</script>
<script xlink:href="../../svgpan.js"/>
<svg id="graph" class="graph">
<g id="viewport">
<title>/home/travis/build/AliceO2Group/AliceO2/Framework/Foundation/include/Framework/StructToTuple.h</title>
<!-- Node1 -->
<g id="node1" class="node"><title>Node1</title>
<polygon fill="#bfbfbf" stroke="black" points="871,-178.5 871,-230.5 1046,-230.5 1046,-178.5 871,-178.5"/>
<text text-anchor="start" x="879" y="-218.5" font-family="Helvetica,sans-Serif" font-size="10.00">/home/travis/build</text>
<text text-anchor="start" x="879" y="-207.5" font-family="Helvetica,sans-Serif" font-size="10.00">/AliceO2Group/AliceO2</text>
<text text-anchor="start" x="879" y="-196.5" font-family="Helvetica,sans-Serif" font-size="10.00">/Framework/Foundation</text>
<text text-anchor="middle" x="958.5" y="-185.5" font-family="Helvetica,sans-Serif" font-size="10.00">/include/Framework/StructToTuple.h</text>
</g>
<!-- Node2 -->
<g id="node2" class="node"><title>Node2</title>
<g id="a_node2"><a xlink:href="../../d6/d57/AnalysisTask_8h.html" target="_top" xlink:title="/home/travis/build\l/AliceO2Group/AliceO2\l/Framework/Core/include\l/Framework/AnalysisTask.h">
<polygon fill="none" stroke="black" points="810,-89.5 810,-141.5 949,-141.5 949,-89.5 810,-89.5"/>
<text text-anchor="start" x="818" y="-129.5" font-family="Helvetica,sans-Serif" font-size="10.00">/home/travis/build</text>
<text text-anchor="start" x="818" y="-118.5" font-family="Helvetica,sans-Serif" font-size="10.00">/AliceO2Group/AliceO2</text>
<text text-anchor="start" x="818" y="-107.5" font-family="Helvetica,sans-Serif" font-size="10.00">/Framework/Core/include</text>
<text text-anchor="middle" x="879.5" y="-96.5" font-family="Helvetica,sans-Serif" font-size="10.00">/Framework/AnalysisTask.h</text>
</a>
</g>
</g>
<!-- Node1&#45;&gt;Node2 -->
<g id="edge1" class="edge"><title>Node1&#45;&gt;Node2</title>
<path fill="none" stroke="midnightblue" d="M928.798,-170.79C920.025,-161.129 910.564,-150.71 902.299,-141.607"/>
<polygon fill="midnightblue" stroke="midnightblue" points="926.336,-173.286 935.65,-178.336 931.519,-168.58 926.336,-173.286"/>
</g>
<!-- Node14 -->
<g id="node14" class="node"><title>Node14</title>
<g id="a_node14"><a xlink:href="../../d3/d2a/test__StructToTuple_8cxx.html" target="_top" xlink:title="/home/travis/build\l/AliceO2Group/AliceO2\l/Framework/Foundation\l/test/test_StructToTuple.cxx">
<polygon fill="none" stroke="black" points="967,-89.5 967,-141.5 1108,-141.5 1108,-89.5 967,-89.5"/>
<text text-anchor="start" x="975" y="-129.5" font-family="Helvetica,sans-Serif" font-size="10.00">/home/travis/build</text>
<text text-anchor="start" x="975" y="-118.5" font-family="Helvetica,sans-Serif" font-size="10.00">/AliceO2Group/AliceO2</text>
<text text-anchor="start" x="975" y="-107.5" font-family="Helvetica,sans-Serif" font-size="10.00">/Framework/Foundation</text>
<text text-anchor="middle" x="1037.5" y="-96.5" font-family="Helvetica,sans-Serif" font-size="10.00">/test/test_StructToTuple.cxx</text>
</a>
</g>
</g>
<!-- Node1&#45;&gt;Node14 -->
<g id="edge13" class="edge"><title>Node1&#45;&gt;Node14</title>
<path fill="none" stroke="midnightblue" d="M988.202,-170.79C996.975,-161.129 1006.44,-150.71 1014.7,-141.607"/>
<polygon fill="midnightblue" stroke="midnightblue" points="985.481,-168.58 981.35,-178.336 990.664,-173.286 985.481,-168.58"/>
</g>
<!-- Node3 -->
<g id="node3" class="node"><title>Node3</title>
<g id="a_node3"><a xlink:href="../../d6/dcb/associatedExample_8cxx.html" target="_top" xlink:title="/home/travis/build\l/AliceO2Group/AliceO2\l/Framework/AnalysisTutorial\l/src/associatedExample.cxx">
<polygon fill="none" stroke="black" points="0,-0.5 0,-52.5 141,-52.5 141,-0.5 0,-0.5"/>
<text text-anchor="start" x="8" y="-40.5" font-family="Helvetica,sans-Serif" font-size="10.00">/home/travis/build</text>
<text text-anchor="start" x="8" y="-29.5" font-family="Helvetica,sans-Serif" font-size="10.00">/AliceO2Group/AliceO2</text>
<text text-anchor="start" x="8" y="-18.5" font-family="Helvetica,sans-Serif" font-size="10.00">/Framework/AnalysisTutorial</text>
<text text-anchor="middle" x="70.5" y="-7.5" font-family="Helvetica,sans-Serif" font-size="10.00">/src/associatedExample.cxx</text>
</a>
</g>
</g>
<!-- Node2&#45;&gt;Node3 -->
<g id="edge2" class="edge"><title>Node2&#45;&gt;Node3</title>
<path fill="none" stroke="midnightblue" d="M799.553,-113.703C664.359,-111.038 382.535,-99.7868 149.5,-53 146.815,-52.461 144.094,-51.8615 141.356,-51.2135"/>
<polygon fill="midnightblue" stroke="midnightblue" points="799.754,-117.207 809.818,-113.895 799.885,-110.209 799.754,-117.207"/>
</g>
<!-- Node4 -->
<g id="node4" class="node"><title>Node4</title>
<g id="a_node4"><a xlink:href="../../d4/dd5/collisionTracksIteration_8cxx.html" target="_top" xlink:title="/home/travis/build\l/AliceO2Group/AliceO2\l/Framework/AnalysisTutorial\l/src/collisionTracksIteration.cxx">
<polygon fill="none" stroke="black" points="159,-0.5 159,-52.5 314,-52.5 314,-0.5 159,-0.5"/>
<text text-anchor="start" x="167" y="-40.5" font-family="Helvetica,sans-Serif" font-size="10.00">/home/travis/build</text>
<text text-anchor="start" x="167" y="-29.5" font-family="Helvetica,sans-Serif" font-size="10.00">/AliceO2Group/AliceO2</text>
<text text-anchor="start" x="167" y="-18.5" font-family="Helvetica,sans-Serif" font-size="10.00">/Framework/AnalysisTutorial</text>
<text text-anchor="middle" x="236.5" y="-7.5" font-family="Helvetica,sans-Serif" font-size="10.00">/src/collisionTracksIteration.cxx</text>
</a>
</g>
</g>
<!-- Node2&#45;&gt;Node4 -->
<g id="edge3" class="edge"><title>Node2&#45;&gt;Node4</title>
<path fill="none" stroke="midnightblue" d="M799.617,-110.167C690.833,-103.249 490.413,-86.8821 322.5,-53 319.752,-52.4455 316.966,-51.843 314.159,-51.2018"/>
<polygon fill="midnightblue" stroke="midnightblue" points="799.655,-113.676 809.854,-110.807 800.092,-106.69 799.655,-113.676"/>
</g>
<!-- Node5 -->
<g id="node5" class="node"><title>Node5</title>
<g id="a_node5"><a xlink:href="../../d2/df5/dynamicColumns_8cxx.html" target="_top" xlink:title="/home/travis/build\l/AliceO2Group/AliceO2\l/Framework/AnalysisTutorial\l/src/dynamicColumns.cxx">
<polygon fill="none" stroke="black" points="332,-0.5 332,-52.5 473,-52.5 473,-0.5 332,-0.5"/>
<text text-anchor="start" x="340" y="-40.5" font-family="Helvetica,sans-Serif" font-size="10.00">/home/travis/build</text>
<text text-anchor="start" x="340" y="-29.5" font-family="Helvetica,sans-Serif" font-size="10.00">/AliceO2Group/AliceO2</text>
<text text-anchor="start" x="340" y="-18.5" font-family="Helvetica,sans-Serif" font-size="10.00">/Framework/AnalysisTutorial</text>
<text text-anchor="middle" x="402.5" y="-7.5" font-family="Helvetica,sans-Serif" font-size="10.00">/src/dynamicColumns.cxx</text>
</a>
</g>
</g>
<!-- Node2&#45;&gt;Node5 -->
<g id="edge4" class="edge"><title>Node2&#45;&gt;Node5</title>
<path fill="none" stroke="midnightblue" d="M799.72,-105.954C718.848,-96.41 590.453,-78.829 481.5,-53 478.836,-52.3684 476.131,-51.69 473.408,-50.9754"/>
<polygon fill="midnightblue" stroke="midnightblue" points="799.492,-109.451 809.83,-107.135 800.304,-102.499 799.492,-109.451"/>
</g>
<!-- Node6 -->
<g id="node6" class="node"><title>Node6</title>
<g id="a_node6"><a xlink:href="../../d6/d77/filters_8cxx.html" target="_top" xlink:title="/home/travis/build\l/AliceO2Group/AliceO2\l/Framework/AnalysisTutorial\l/src/filters.cxx">
<polygon fill="none" stroke="black" points="491,-0.5 491,-52.5 632,-52.5 632,-0.5 491,-0.5"/>
<text text-anchor="start" x="499" y="-40.5" font-family="Helvetica,sans-Serif" font-size="10.00">/home/travis/build</text>
<text text-anchor="start" x="499" y="-29.5" font-family="Helvetica,sans-Serif" font-size="10.00">/AliceO2Group/AliceO2</text>
<text text-anchor="start" x="499" y="-18.5" font-family="Helvetica,sans-Serif" font-size="10.00">/Framework/AnalysisTutorial</text>
<text text-anchor="middle" x="561.5" y="-7.5" font-family="Helvetica,sans-Serif" font-size="10.00">/src/filters.cxx</text>
</a>
</g>
</g>
<!-- Node2&#45;&gt;Node6 -->
<g id="edge5" class="edge"><title>Node2&#45;&gt;Node6</title>
<path fill="none" stroke="midnightblue" d="M800.163,-95.3605C753.487,-83.7831 693.422,-68.3352 640.5,-53 637.731,-52.1978 634.913,-51.3653 632.07,-50.5121"/>
<polygon fill="midnightblue" stroke="midnightblue" points="799.364,-98.7684 809.912,-97.7708 801.045,-91.973 799.364,-98.7684"/>
</g>
<!-- Node7 -->
<g id="node7" class="node"><title>Node7</title>
<g id="a_node7"><a xlink:href="../../d2/d4e/fullTrackIteration_8cxx.html" target="_top" xlink:title="/home/travis/build\l/AliceO2Group/AliceO2\l/Framework/AnalysisTutorial\l/src/fullTrackIteration.cxx">
<polygon fill="none" stroke="black" points="650,-0.5 650,-52.5 791,-52.5 791,-0.5 650,-0.5"/>
<text text-anchor="start" x="658" y="-40.5" font-family="Helvetica,sans-Serif" font-size="10.00">/home/travis/build</text>
<text text-anchor="start" x="658" y="-29.5" font-family="Helvetica,sans-Serif" font-size="10.00">/AliceO2Group/AliceO2</text>
<text text-anchor="start" x="658" y="-18.5" font-family="Helvetica,sans-Serif" font-size="10.00">/Framework/AnalysisTutorial</text>
<text text-anchor="middle" x="720.5" y="-7.5" font-family="Helvetica,sans-Serif" font-size="10.00">/src/fullTrackIteration.cxx</text>
</a>
</g>
</g>
<!-- Node2&#45;&gt;Node7 -->
<g id="edge6" class="edge"><title>Node2&#45;&gt;Node7</title>
<path fill="none" stroke="midnightblue" d="M824.662,-84.4944C805.666,-74.1005 784.586,-62.5658 766.386,-52.6075"/>
<polygon fill="midnightblue" stroke="midnightblue" points="823.058,-87.6063 833.511,-89.336 826.418,-81.4654 823.058,-87.6063"/>
</g>
<!-- Node8 -->
<g id="node8" class="node"><title>Node8</title>
<g id="a_node8"><a xlink:href="../../df/d90/histograms_8cxx.html" target="_top" xlink:title="/home/travis/build\l/AliceO2Group/AliceO2\l/Framework/AnalysisTutorial\l/src/histograms.cxx">
<polygon fill="none" stroke="black" points="809,-0.5 809,-52.5 950,-52.5 950,-0.5 809,-0.5"/>
<text text-anchor="start" x="817" y="-40.5" font-family="Helvetica,sans-Serif" font-size="10.00">/home/travis/build</text>
<text text-anchor="start" x="817" y="-29.5" font-family="Helvetica,sans-Serif" font-size="10.00">/AliceO2Group/AliceO2</text>
<text text-anchor="start" x="817" y="-18.5" font-family="Helvetica,sans-Serif" font-size="10.00">/Framework/AnalysisTutorial</text>
<text text-anchor="middle" x="879.5" y="-7.5" font-family="Helvetica,sans-Serif" font-size="10.00">/src/histograms.cxx</text>
</a>
</g>
</g>
<!-- Node2&#45;&gt;Node8 -->
<g id="edge7" class="edge"><title>Node2&#45;&gt;Node8</title>
<path fill="none" stroke="midnightblue" d="M879.5,-79.1908C879.5,-70.2824 879.5,-60.8986 879.5,-52.6075"/>
<polygon fill="midnightblue" stroke="midnightblue" points="876,-79.336 879.5,-89.336 883,-79.336 876,-79.336"/>
</g>
<!-- Node9 -->
<g id="node9" class="node"><title>Node9</title>
<g id="a_node9"><a xlink:href="../../d7/d10/newCollections_8cxx.html" target="_top" xlink:title="/home/travis/build\l/AliceO2Group/AliceO2\l/Framework/AnalysisTutorial\l/src/newCollections.cxx">
<polygon fill="none" stroke="black" points="968,-0.5 968,-52.5 1109,-52.5 1109,-0.5 968,-0.5"/>
<text text-anchor="start" x="976" y="-40.5" font-family="Helvetica,sans-Serif" font-size="10.00">/home/travis/build</text>
<text text-anchor="start" x="976" y="-29.5" font-family="Helvetica,sans-Serif" font-size="10.00">/AliceO2Group/AliceO2</text>
<text text-anchor="start" x="976" y="-18.5" font-family="Helvetica,sans-Serif" font-size="10.00">/Framework/AnalysisTutorial</text>
<text text-anchor="middle" x="1038.5" y="-7.5" font-family="Helvetica,sans-Serif" font-size="10.00">/src/newCollections.cxx</text>
</a>
</g>
</g>
<!-- Node2&#45;&gt;Node9 -->
<g id="edge8" class="edge"><title>Node2&#45;&gt;Node9</title>
<path fill="none" stroke="midnightblue" d="M934.338,-84.4944C953.334,-74.1005 974.414,-62.5658 992.614,-52.6075"/>
<polygon fill="midnightblue" stroke="midnightblue" points="932.582,-81.4654 925.489,-89.336 935.942,-87.6063 932.582,-81.4654"/>
</g>
<!-- Node10 -->
<g id="node10" class="node"><title>Node10</title>
<g id="a_node10"><a xlink:href="../../d4/ded/trackCollectionIteration_8cxx.html" target="_top" xlink:title="/home/travis/build\l/AliceO2Group/AliceO2\l/Framework/AnalysisTutorial\l/src/trackCollectionIteration.cxx">
<polygon fill="none" stroke="black" points="1127,-0.5 1127,-52.5 1282,-52.5 1282,-0.5 1127,-0.5"/>
<text text-anchor="start" x="1135" y="-40.5" font-family="Helvetica,sans-Serif" font-size="10.00">/home/travis/build</text>
<text text-anchor="start" x="1135" y="-29.5" font-family="Helvetica,sans-Serif" font-size="10.00">/AliceO2Group/AliceO2</text>
<text text-anchor="start" x="1135" y="-18.5" font-family="Helvetica,sans-Serif" font-size="10.00">/Framework/AnalysisTutorial</text>
<text text-anchor="middle" x="1204.5" y="-7.5" font-family="Helvetica,sans-Serif" font-size="10.00">/src/trackCollectionIteration.cxx</text>
</a>
</g>
</g>
<!-- Node2&#45;&gt;Node10 -->
<g id="edge9" class="edge"><title>Node2&#45;&gt;Node10</title>
<path fill="none" stroke="midnightblue" d="M959.122,-88.9384C1030.55,-69.8846 1050.99,-70.5813 1118.5,-53 1121.21,-52.2935 1123.97,-51.5603 1126.75,-50.8076"/>
<polygon fill="midnightblue" stroke="midnightblue" points="957.922,-85.637 949.184,-91.6277 959.751,-92.394 957.922,-85.637"/>
</g>
<!-- Node11 -->
<g id="node11" class="node"><title>Node11</title>
<g id="a_node11"><a xlink:href="../../db/d7e/trackIteration_8cxx.html" target="_top" xlink:title="/home/travis/build\l/AliceO2Group/AliceO2\l/Framework/AnalysisTutorial\l/src/trackIteration.cxx">
<polygon fill="none" stroke="black" points="1300,-0.5 1300,-52.5 1441,-52.5 1441,-0.5 1300,-0.5"/>
<text text-anchor="start" x="1308" y="-40.5" font-family="Helvetica,sans-Serif" font-size="10.00">/home/travis/build</text>
<text text-anchor="start" x="1308" y="-29.5" font-family="Helvetica,sans-Serif" font-size="10.00">/AliceO2Group/AliceO2</text>
<text text-anchor="start" x="1308" y="-18.5" font-family="Helvetica,sans-Serif" font-size="10.00">/Framework/AnalysisTutorial</text>
<text text-anchor="middle" x="1370.5" y="-7.5" font-family="Helvetica,sans-Serif" font-size="10.00">/src/trackIteration.cxx</text>
</a>
</g>
</g>
<!-- Node2&#45;&gt;Node11 -->
<g id="edge10" class="edge"><title>Node2&#45;&gt;Node11</title>
<path fill="none" stroke="midnightblue" d="M958.914,-89.1291C1105.94,-59.0673 1149.03,-83.3592 1291.5,-53 1294.18,-52.4293 1296.89,-51.8028 1299.63,-51.132"/>
<polygon fill="midnightblue" stroke="midnightblue" points="958.147,-85.7136 949.077,-91.189 959.582,-92.565 958.147,-85.7136"/>
</g>
<!-- Node12 -->
<g id="node12" class="node"><title>Node12</title>
<g id="a_node12"><a xlink:href="../../d9/d09/test__AnalysisTask_8cxx.html" target="_top" xlink:title="/home/travis/build\l/AliceO2Group/AliceO2\l/Framework/Core/test/test\l_AnalysisTask.cxx">
<polygon fill="none" stroke="black" points="1459,-0.5 1459,-52.5 1590,-52.5 1590,-0.5 1459,-0.5"/>
<text text-anchor="start" x="1467" y="-40.5" font-family="Helvetica,sans-Serif" font-size="10.00">/home/travis/build</text>
<text text-anchor="start" x="1467" y="-29.5" font-family="Helvetica,sans-Serif" font-size="10.00">/AliceO2Group/AliceO2</text>
<text text-anchor="start" x="1467" y="-18.5" font-family="Helvetica,sans-Serif" font-size="10.00">/Framework/Core/test/test</text>
<text text-anchor="middle" x="1524.5" y="-7.5" font-family="Helvetica,sans-Serif" font-size="10.00">_AnalysisTask.cxx</text>
</a>
</g>
</g>
<!-- Node2&#45;&gt;Node12 -->
<g id="edge11" class="edge"><title>Node2&#45;&gt;Node12</title>
<path fill="none" stroke="midnightblue" d="M959.14,-89.1188C1175.61,-48.5194 1238.98,-96.4167 1450.5,-53 1453.3,-52.4262 1456.13,-51.775 1458.98,-51.0629"/>
<polygon fill="midnightblue" stroke="midnightblue" points="958.211,-85.733 949.05,-91.0541 959.53,-92.6077 958.211,-85.733"/>
</g>
<!-- Node13 -->
<g id="node13" class="node"><title>Node13</title>
<g id="a_node13"><a xlink:href="../../d1/d61/o2AnalysisTaskExample_8cxx.html" target="_top" xlink:title="/home/travis/build\l/AliceO2Group/AliceO2\l/Framework/TestWorkflows\l/src/o2AnalysisTaskExample.cxx">
<polygon fill="none" stroke="black" points="1608,-0.5 1608,-52.5 1771,-52.5 1771,-0.5 1608,-0.5"/>
<text text-anchor="start" x="1616" y="-40.5" font-family="Helvetica,sans-Serif" font-size="10.00">/home/travis/build</text>
<text text-anchor="start" x="1616" y="-29.5" font-family="Helvetica,sans-Serif" font-size="10.00">/AliceO2Group/AliceO2</text>
<text text-anchor="start" x="1616" y="-18.5" font-family="Helvetica,sans-Serif" font-size="10.00">/Framework/TestWorkflows</text>
<text text-anchor="middle" x="1689.5" y="-7.5" font-family="Helvetica,sans-Serif" font-size="10.00">/src/o2AnalysisTaskExample.cxx</text>
</a>
</g>
</g>
<!-- Node2&#45;&gt;Node13 -->
<g id="edge12" class="edge"><title>Node2&#45;&gt;Node13</title>
<path fill="none" stroke="midnightblue" d="M959.145,-89.1292C1240.89,-38.2187 1321.39,-99.6242 1599.5,-53 1602.22,-52.5435 1604.98,-52.0352 1607.76,-51.484"/>
<polygon fill="midnightblue" stroke="midnightblue" points="958.239,-85.737 949.037,-90.988 959.505,-92.6216 958.239,-85.737"/>
</g>
</g>
</svg>
        <g id="navigator" transform="translate(0 0)" fill="#404254">
                <rect fill="#f2f5e9" fill-opacity="0.5" stroke="#606060" stroke-width=".5" x="0" y="0" width="60" height="60"/>
                <use id="zoomplus" xlink:href="#zoomPlus" x="17" y="9" onmousedown="handleZoom(evt,'in')"/>
                <use id="zoomminus" xlink:href="#zoomMin" x="42" y="9" onmousedown="handleZoom(evt,'out')"/>
                <use id="reset" xlink:href="#resetDef" x="30" y="36" onmousedown="handleReset()"/>
                <g id="arrowUp" xlink:href="#dirArrow" transform="translate(30 24)" onmousedown="handlePan(0,-1)">
                  <use xlink:href="#rim" fill="#404040">
                        <set attributeName="fill" to="#808080" begin="arrowUp.mouseover" end="arrowUp.mouseout"/>
                  </use>
                  <path fill="none" stroke="white" stroke-width="1.5" d="M0,-3.0v7 M-2.5,-0.5L0,-3.0L2.5,-0.5"/>
                </g>
                <g id="arrowRight" xlink:href="#dirArrow" transform="rotate(90) translate(36 -43)" onmousedown="handlePan(1,0)">
                  <use xlink:href="#rim" fill="#404040">
                        <set attributeName="fill" to="#808080" begin="arrowRight.mouseover" end="arrowRight.mouseout"/>
                  </use>
                  <path fill="none" stroke="white" stroke-width="1.5" d="M0,-3.0v7 M-2.5,-0.5L0,-3.0L2.5,-0.5"/>
                </g>
                <g id="arrowDown" xlink:href="#dirArrow" transform="rotate(180) translate(-30 -48)" onmousedown="handlePan(0,1)">
                  <use xlink:href="#rim" fill="#404040">
                        <set attributeName="fill" to="#808080" begin="arrowDown.mouseover" end="arrowDown.mouseout"/>
                  </use>
                  <path fill="none" stroke="white" stroke-width="1.5" d="M0,-3.0v7 M-2.5,-0.5L0,-3.0L2.5,-0.5"/>
                </g>
                <g id="arrowLeft" xlink:href="#dirArrow" transform="rotate(270) translate(-36 17)" onmousedown="handlePan(-1,0)">
                  <use xlink:href="#rim" fill="#404040">
                        <set attributeName="fill" to="#808080" begin="arrowLeft.mouseover" end="arrowLeft.mouseout"/>
                  </use>
                  <path fill="none" stroke="white" stroke-width="1.5" d="M0,-3.0v7 M-2.5,-0.5L0,-3.0L2.5,-0.5"/>
                </g>
        </g>
        <svg viewBox="0 0 15 15" width="100%" height="30px" preserveAspectRatio="xMaxYMin meet">
         <g id="arrow_out" transform="scale(0.3 0.3)">
          <a xlink:href="StructToTuple_8h__dep__incl_org.svg" target="_base">
           <rect id="button" ry="5" rx="5" y="6" x="6" height="38" width="38"
                fill="#f2f5e9" fill-opacity="0.5" stroke="#606060" stroke-width="1.0"/>
           <path id="arrow"
             d="M 11.500037,31.436501 C 11.940474,20.09759 22.043105,11.32322 32.158766,21.979434 L 37.068811,17.246167 C 37.068811,17.246167 37.088388,32 37.088388,32 L 22.160133,31.978069 C 22.160133,31.978069 26.997745,27.140456 26.997745,27.140456 C 18.528582,18.264221 13.291696,25.230495 11.500037,31.436501 z"
             style="fill:#404040;"/>
          </a>
         </g>
        </svg>
</svg>
