<?xml version="1.0" encoding="UTF-8" standalone="no"?>
<!DOCTYPE svg PUBLIC "-//W3C//DTD SVG 1.1//EN"
 "http://www.w3.org/Graphics/SVG/1.1/DTD/svg11.dtd">
<!-- Generated by graphviz version 2.38.0 (20140413.2041)
 -->
<!-- Title: sg_shader_uniform_desc Pages: 1 -->
<svg width="210pt" height="171pt"
 viewBox="0.00 0.00 210.00 171.00" xmlns="http://www.w3.org/2000/svg" xmlns:xlink="http://www.w3.org/1999/xlink">
<g id="graph0" class="graph" transform="scale(1 1) rotate(0) translate(4 167)">
<title>sg_shader_uniform_desc</title>
<!-- Node1 -->
<g id="node1" class="node"><title>Node1</title>
<polygon fill="#bfbfbf" stroke="black" points="36,-0.5 36,-57.5 161,-57.5 161,-0.5 36,-0.5"/>
<text text-anchor="middle" x="98.5" y="-45.5" font-family="Helvetica,sans-Serif" font-size="10.00">sg_shader_uniform_desc</text>
<polyline fill="none" stroke="black" points="36,-38.5 161,-38.5 "/>
<text text-anchor="middle" x="98.5" y="-26.5" font-family="Helvetica,sans-Serif" font-size="10.00"> </text>
<polyline fill="none" stroke="black" points="36,-19.5 161,-19.5 "/>
<text text-anchor="middle" x="98.5" y="-7.5" font-family="Helvetica,sans-Serif" font-size="10.00"> </text>
</g>
<!-- Node2 -->
<g id="node2" class="node"><title>Node2</title>
<polygon fill="none" stroke="#bfbfbf" points="0,-105.5 0,-162.5 29,-162.5 29,-105.5 0,-105.5"/>
<text text-anchor="middle" x="14.5" y="-150.5" font-family="Helvetica,sans-Serif" font-size="10.00">int</text>
<polyline fill="none" stroke="#bfbfbf" points="0,-143.5 29,-143.5 "/>
<text text-anchor="middle" x="14.5" y="-131.5" font-family="Helvetica,sans-Serif" font-size="10.00"> </text>
<polyline fill="none" stroke="#bfbfbf" points="0,-124.5 29,-124.5 "/>
<text text-anchor="middle" x="14.5" y="-112.5" font-family="Helvetica,sans-Serif" font-size="10.00"> </text>
</g>
<!-- Node2&#45;&gt;Node1 -->
<g id="edge1" class="edge"><title>Node2&#45;&gt;Node1</title>
<path fill="none" stroke="#404040" d="M19.972,-105.212C22.8561,-95.3292 27.1602,-84.5446 33.5,-76 36.1695,-72.4021 39.2047,-68.978 42.4703,-65.7413"/>
<polygon fill="none" stroke="#404040" points="42.6108,-65.6158 44.4202,-58.6354 51.5596,-57.6208 49.7502,-64.6012 42.6108,-65.6158"/>
<text text-anchor="middle" x="64" y="-79" font-family="Helvetica,sans-Serif" font-size="10.00"> +array_count</text>
</g>
<!-- Node3 -->
<g id="node3" class="node"><title>Node3</title>
<polygon fill="none" stroke="#bfbfbf" points="54,-105.5 54,-162.5 143,-162.5 143,-105.5 54,-105.5"/>
<text text-anchor="middle" x="98.5" y="-150.5" font-family="Helvetica,sans-Serif" font-size="10.00">sg_uniform_type</text>
<polyline fill="none" stroke="#bfbfbf" points="54,-143.5 143,-143.5 "/>
<text text-anchor="middle" x="98.5" y="-131.5" font-family="Helvetica,sans-Serif" font-size="10.00"> </text>
<polyline fill="none" stroke="#bfbfbf" points="54,-124.5 143,-124.5 "/>
<text text-anchor="middle" x="98.5" y="-112.5" font-family="Helvetica,sans-Serif" font-size="10.00"> </text>
</g>
<!-- Node3&#45;&gt;Node1 -->
<g id="edge2" class="edge"><title>Node3&#45;&gt;Node1</title>
<path fill="none" stroke="#404040" d="M98.5,-105.398C98.5,-94.5451 98.5,-81.8731 98.5,-70.0493"/>
<polygon fill="none" stroke="#404040" points="98.5001,-69.6783 94.5,-63.6783 98.5,-57.6783 102.5,-63.6783 98.5001,-69.6783"/>
<text text-anchor="middle" x="112.5" y="-79" font-family="Helvetica,sans-Serif" font-size="10.00"> +type</text>
</g>
<!-- Node4 -->
<g id="node4" class="node"><title>Node4</title>
<polygon fill="none" stroke="#bfbfbf" points="161,-105.5 161,-162.5 202,-162.5 202,-105.5 161,-105.5"/>
<text text-anchor="middle" x="181.5" y="-150.5" font-family="Helvetica,sans-Serif" font-size="10.00">const</text>
<polyline fill="none" stroke="#bfbfbf" points="161,-143.5 202,-143.5 "/>
<text text-anchor="middle" x="181.5" y="-131.5" font-family="Helvetica,sans-Serif" font-size="10.00"> </text>
<polyline fill="none" stroke="#bfbfbf" points="161,-124.5 202,-124.5 "/>
<text text-anchor="middle" x="181.5" y="-112.5" font-family="Helvetica,sans-Serif" font-size="10.00"> </text>
</g>
<!-- Node4&#45;&gt;Node1 -->
<g id="edge3" class="edge"><title>Node4&#45;&gt;Node1</title>
<path fill="none" stroke="#404040" d="M160.983,-107.539C151.171,-95.3632 139.236,-80.5518 128.436,-67.1495"/>
<polygon fill="none" stroke="#404040" points="128.349,-67.0412 121.469,-64.8791 120.819,-57.6974 127.699,-59.8594 128.349,-67.0412"/>
<text text-anchor="middle" x="158.5" y="-79" font-family="Helvetica,sans-Serif" font-size="10.00"> +name</text>
</g>
</g>
</svg>
