<?xml version="1.0" encoding="UTF-8" standalone="no"?>
<!DOCTYPE svg PUBLIC "-//W3C//DTD SVG 1.1//EN"
 "http://www.w3.org/Graphics/SVG/1.1/DTD/svg11.dtd">
<!-- Generated by graphviz version 2.38.0 (20140413.2041)
 -->
<!-- Title: /home/travis/build/AliceO2Group/AliceO2/Common/Field/src/MagFieldParam.cxx Pages: 1 -->
<svg width="1785pt" height="408pt"
 viewBox="0.00 0.00 1785.35 408.00" xmlns="http://www.w3.org/2000/svg" xmlns:xlink="http://www.w3.org/1999/xlink">
<g id="graph0" class="graph" transform="scale(1 1) rotate(0) translate(4 404)">
<title>/home/travis/build/AliceO2Group/AliceO2/Common/Field/src/MagFieldParam.cxx</title>
<!-- Node1 -->
<g id="node1" class="node"><title>Node1</title>
<polygon fill="#bfbfbf" stroke="black" points="459.847,-358.5 459.847,-399.5 649.847,-399.5 649.847,-358.5 459.847,-358.5"/>
<text text-anchor="start" x="467.847" y="-387.5" font-family="Helvetica,sans-Serif" font-size="10.00">/home/travis/build</text>
<text text-anchor="start" x="467.847" y="-376.5" font-family="Helvetica,sans-Serif" font-size="10.00">/AliceO2Group/AliceO2</text>
<text text-anchor="middle" x="554.847" y="-365.5" font-family="Helvetica,sans-Serif" font-size="10.00">/Common/Field/src/MagFieldParam.cxx</text>
</g>
<!-- Node2 -->
<g id="node2" class="node"><title>Node2</title>
<g id="a_node2"><a xlink:href="../../d3/d91/MagFieldParam_8h.html" target="_top" xlink:title="Definition of the MagFieldParam: container for ALICE mag. field parameters. ">
<polygon fill="none" stroke="black" points="113.347,-246.5 113.347,-265.5 230.347,-265.5 230.347,-246.5 113.347,-246.5"/>
<text text-anchor="middle" x="171.847" y="-253.5" font-family="Helvetica,sans-Serif" font-size="10.00">Field/MagFieldParam.h</text>
</a>
</g>
</g>
<!-- Node1&#45;&gt;Node2 -->
<g id="edge1" class="edge"><title>Node1&#45;&gt;Node2</title>
<path fill="none" stroke="midnightblue" d="M491.497,-358.431C456.988,-347.736 413.547,-334.216 374.847,-322 316.451,-303.568 248.731,-281.806 208.139,-268.72"/>
<polygon fill="midnightblue" stroke="midnightblue" points="209.018,-265.326 198.426,-265.588 206.869,-271.988 209.018,-265.326"/>
</g>
<!-- Node5 -->
<g id="node5" class="node"><title>Node5</title>
<g id="a_node5"><a xlink:href="../../db/d4b/MagneticField_8h.html" target="_top" xlink:title="Definition of the MagF class. ">
<polygon fill="none" stroke="black" points="383.847,-302.5 383.847,-321.5 493.847,-321.5 493.847,-302.5 383.847,-302.5"/>
<text text-anchor="middle" x="438.847" y="-309.5" font-family="Helvetica,sans-Serif" font-size="10.00">Field/MagneticField.h</text>
</a>
</g>
</g>
<!-- Node1&#45;&gt;Node5 -->
<g id="edge4" class="edge"><title>Node1&#45;&gt;Node5</title>
<path fill="none" stroke="midnightblue" d="M520.043,-358.498C501.745,-348.245 479.759,-335.925 463.283,-326.693"/>
<polygon fill="midnightblue" stroke="midnightblue" points="464.723,-323.488 454.288,-321.652 461.301,-329.594 464.723,-323.488"/>
</g>
<!-- Node30 -->
<g id="node30" class="node"><title>Node30</title>
<polygon fill="none" stroke="#bfbfbf" points="511.847,-302.5 511.847,-321.5 597.847,-321.5 597.847,-302.5 511.847,-302.5"/>
<text text-anchor="middle" x="554.847" y="-309.5" font-family="Helvetica,sans-Serif" font-size="10.00">FairParamList.h</text>
</g>
<!-- Node1&#45;&gt;Node30 -->
<g id="edge42" class="edge"><title>Node1&#45;&gt;Node30</title>
<path fill="none" stroke="midnightblue" d="M554.847,-358.498C554.847,-350.065 554.847,-340.235 554.847,-331.874"/>
<polygon fill="midnightblue" stroke="midnightblue" points="558.347,-331.652 554.847,-321.652 551.347,-331.653 558.347,-331.652"/>
</g>
<!-- Node31 -->
<g id="node31" class="node"><title>Node31</title>
<polygon fill="none" stroke="#bfbfbf" points="616.347,-302.5 616.347,-321.5 675.347,-321.5 675.347,-302.5 616.347,-302.5"/>
<text text-anchor="middle" x="645.847" y="-309.5" font-family="Helvetica,sans-Serif" font-size="10.00">FairRun.h</text>
</g>
<!-- Node1&#45;&gt;Node31 -->
<g id="edge43" class="edge"><title>Node1&#45;&gt;Node31</title>
<path fill="none" stroke="midnightblue" d="M582.15,-358.498C596.102,-348.532 612.787,-336.614 625.58,-327.476"/>
<polygon fill="midnightblue" stroke="midnightblue" points="627.631,-330.313 633.734,-321.652 623.562,-324.617 627.631,-330.313"/>
</g>
<!-- Node32 -->
<g id="node32" class="node"><title>Node32</title>
<polygon fill="none" stroke="#bfbfbf" points="693.347,-302.5 693.347,-321.5 784.347,-321.5 784.347,-302.5 693.347,-302.5"/>
<text text-anchor="middle" x="738.847" y="-309.5" font-family="Helvetica,sans-Serif" font-size="10.00">FairRuntimeDb.h</text>
</g>
<!-- Node1&#45;&gt;Node32 -->
<g id="edge44" class="edge"><title>Node1&#45;&gt;Node32</title>
<path fill="none" stroke="midnightblue" d="M610.053,-358.498C640.841,-347.622 678.21,-334.421 704.749,-325.045"/>
<polygon fill="midnightblue" stroke="midnightblue" points="706.091,-328.284 714.354,-321.652 703.759,-321.683 706.091,-328.284"/>
</g>
<!-- Node3 -->
<g id="node3" class="node"><title>Node3</title>
<polygon fill="none" stroke="#bfbfbf" points="17.3471,-190.5 17.3471,-209.5 122.347,-209.5 122.347,-190.5 17.3471,-190.5"/>
<text text-anchor="middle" x="69.8471" y="-197.5" font-family="Helvetica,sans-Serif" font-size="10.00">FairParGenericSet.h</text>
</g>
<!-- Node2&#45;&gt;Node3 -->
<g id="edge2" class="edge"><title>Node2&#45;&gt;Node3</title>
<path fill="none" stroke="midnightblue" d="M155.459,-246.324C139.176,-237.703 113.98,-224.364 95.1309,-214.386"/>
<polygon fill="midnightblue" stroke="midnightblue" points="96.67,-211.24 86.1945,-209.655 93.3948,-217.427 96.67,-211.24"/>
</g>
<!-- Node4 -->
<g id="node4" class="node"><title>Node4</title>
<polygon fill="none" stroke="#bfbfbf" points="91.8471,-134.5 91.8471,-153.5 147.847,-153.5 147.847,-134.5 91.8471,-134.5"/>
<text text-anchor="middle" x="119.847" y="-141.5" font-family="Helvetica,sans-Serif" font-size="10.00">TString.h</text>
</g>
<!-- Node2&#45;&gt;Node4 -->
<g id="edge3" class="edge"><title>Node2&#45;&gt;Node4</title>
<path fill="none" stroke="midnightblue" d="M167.767,-246.368C159.299,-228.456 139.665,-186.923 128.332,-162.948"/>
<polygon fill="midnightblue" stroke="midnightblue" points="131.347,-161.136 123.909,-153.591 125.018,-164.128 131.347,-161.136"/>
</g>
<!-- Node5&#45;&gt;Node2 -->
<g id="edge6" class="edge"><title>Node5&#45;&gt;Node2</title>
<path fill="none" stroke="midnightblue" d="M396.54,-302.444C349.767,-292.984 274.387,-277.738 223.997,-267.547"/>
<polygon fill="midnightblue" stroke="midnightblue" points="224.452,-264.068 213.956,-265.516 223.064,-270.929 224.452,-264.068"/>
</g>
<!-- Node6 -->
<g id="node6" class="node"><title>Node6</title>
<polygon fill="none" stroke="#bfbfbf" points="270.847,-246.5 270.847,-265.5 332.847,-265.5 332.847,-246.5 270.847,-246.5"/>
<text text-anchor="middle" x="301.847" y="-253.5" font-family="Helvetica,sans-Serif" font-size="10.00">FairField.h</text>
</g>
<!-- Node5&#45;&gt;Node6 -->
<g id="edge5" class="edge"><title>Node5&#45;&gt;Node6</title>
<path fill="none" stroke="midnightblue" d="M417.139,-302.444C394.492,-293.517 358.775,-279.439 333.095,-269.317"/>
<polygon fill="midnightblue" stroke="midnightblue" points="334.04,-265.927 323.454,-265.516 331.474,-272.44 334.04,-265.927"/>
</g>
<!-- Node7 -->
<g id="node7" class="node"><title>Node7</title>
<g id="a_node7"><a xlink:href="../../dd/dfb/MagneticWrapperChebyshev_8h.html" target="_top" xlink:title="Field/MagneticWrapperChebyshev.h">
<polygon fill="none" stroke="black" points="351.347,-246.5 351.347,-265.5 526.347,-265.5 526.347,-246.5 351.347,-246.5"/>
<text text-anchor="middle" x="438.847" y="-253.5" font-family="Helvetica,sans-Serif" font-size="10.00">Field/MagneticWrapperChebyshev.h</text>
</a>
</g>
</g>
<!-- Node5&#45;&gt;Node7 -->
<g id="edge7" class="edge"><title>Node5&#45;&gt;Node7</title>
<path fill="none" stroke="midnightblue" d="M438.847,-302.083C438.847,-295.006 438.847,-284.861 438.847,-275.986"/>
<polygon fill="midnightblue" stroke="midnightblue" points="442.347,-275.751 438.847,-265.751 435.347,-275.751 442.347,-275.751"/>
</g>
<!-- Node9 -->
<g id="node9" class="node"><title>Node9</title>
<polygon fill="none" stroke="#bfbfbf" points="207.847,-73 207.847,-92 269.847,-92 269.847,-73 207.847,-73"/>
<text text-anchor="middle" x="238.847" y="-80" font-family="Helvetica,sans-Serif" font-size="10.00">TNamed.h</text>
</g>
<!-- Node5&#45;&gt;Node9 -->
<g id="edge40" class="edge"><title>Node5&#45;&gt;Node9</title>
<path fill="none" stroke="midnightblue" d="M383.668,-310.18C315.998,-307.695 198.614,-298.545 103.847,-266 57.1299,-249.956 32.449,-252.833 7.84712,-210 -36.5051,-132.781 120.32,-99.8395 197.895,-88.4975"/>
<polygon fill="midnightblue" stroke="midnightblue" points="198.424,-91.9575 207.839,-87.0983 197.449,-85.0258 198.424,-91.9575"/>
</g>
<!-- Node14 -->
<g id="node14" class="node"><title>Node14</title>
<polygon fill="none" stroke="#bfbfbf" points="538.847,-73 538.847,-92 594.847,-92 594.847,-73 538.847,-73"/>
<text text-anchor="middle" x="566.847" y="-80" font-family="Helvetica,sans-Serif" font-size="10.00">Rtypes.h</text>
</g>
<!-- Node5&#45;&gt;Node14 -->
<g id="edge39" class="edge"><title>Node5&#45;&gt;Node14</title>
<path fill="none" stroke="midnightblue" d="M472.632,-302.364C493.112,-295.554 518.381,-284.116 534.847,-266 576.079,-220.638 579.658,-195.112 574.847,-134 574.006,-123.314 572.178,-111.474 570.482,-101.945"/>
<polygon fill="midnightblue" stroke="midnightblue" points="573.906,-101.21 568.618,-92.0292 567.026,-102.504 573.906,-101.21"/>
</g>
<!-- Node15 -->
<g id="node15" class="node"><title>Node15</title>
<g id="a_node15"><a xlink:href="../../da/df4/MagFieldFast_8h.html" target="_top" xlink:title="Definition of the fast magnetic field parametrization MagFieldFast. ">
<polygon fill="none" stroke="black" points="729.847,-190.5 729.847,-209.5 837.847,-209.5 837.847,-190.5 729.847,-190.5"/>
<text text-anchor="middle" x="783.847" y="-197.5" font-family="Helvetica,sans-Serif" font-size="10.00">Field/MagFieldFast.h</text>
</a>
</g>
</g>
<!-- Node5&#45;&gt;Node15 -->
<g id="edge23" class="edge"><title>Node5&#45;&gt;Node15</title>
<path fill="none" stroke="midnightblue" d="M494.004,-303.232C496.995,-302.815 499.958,-302.402 502.847,-302 561.057,-293.908 720.336,-304.374 764.847,-266 778.045,-254.622 782.33,-234.63 783.598,-219.813"/>
<polygon fill="midnightblue" stroke="midnightblue" points="787.099,-219.874 784.077,-209.719 780.107,-219.542 787.099,-219.874"/>
</g>
<!-- Node28 -->
<g id="node28" class="node"><title>Node28</title>
<polygon fill="none" stroke="#bfbfbf" points="620.347,-246.5 620.347,-265.5 685.347,-265.5 685.347,-246.5 620.347,-246.5"/>
<text text-anchor="middle" x="652.847" y="-253.5" font-family="Helvetica,sans-Serif" font-size="10.00">TSystem.h</text>
</g>
<!-- Node5&#45;&gt;Node28 -->
<g id="edge38" class="edge"><title>Node5&#45;&gt;Node28</title>
<path fill="none" stroke="midnightblue" d="M472.756,-302.444C510.022,-293.04 569.947,-277.919 610.33,-267.729"/>
<polygon fill="midnightblue" stroke="midnightblue" points="611.31,-271.091 620.15,-265.251 609.597,-264.304 611.31,-271.091"/>
</g>
<!-- Node29 -->
<g id="node29" class="node"><title>Node29</title>
<polygon fill="none" stroke="#bfbfbf" points="703.847,-246.5 703.847,-265.5 755.847,-265.5 755.847,-246.5 703.847,-246.5"/>
<text text-anchor="middle" x="729.847" y="-253.5" font-family="Helvetica,sans-Serif" font-size="10.00">memory</text>
</g>
<!-- Node5&#45;&gt;Node29 -->
<g id="edge41" class="edge"><title>Node5&#45;&gt;Node29</title>
<path fill="none" stroke="midnightblue" d="M493.78,-302.452C543.344,-294.48 618.459,-281.759 693.453,-265.949"/>
<polygon fill="midnightblue" stroke="midnightblue" points="694.498,-269.305 703.551,-263.801 693.041,-262.458 694.498,-269.305"/>
</g>
<!-- Node8 -->
<g id="node8" class="node"><title>Node8</title>
<polygon fill="none" stroke="#bfbfbf" points="467.347,-190.5 467.347,-209.5 520.347,-209.5 520.347,-190.5 467.347,-190.5"/>
<text text-anchor="middle" x="493.847" y="-197.5" font-family="Helvetica,sans-Serif" font-size="10.00">TMath.h</text>
</g>
<!-- Node7&#45;&gt;Node8 -->
<g id="edge8" class="edge"><title>Node7&#45;&gt;Node8</title>
<path fill="none" stroke="midnightblue" d="M447.929,-246.083C456.018,-238.141 468.043,-226.335 477.757,-216.797"/>
<polygon fill="midnightblue" stroke="midnightblue" points="480.25,-219.254 484.934,-209.751 475.346,-214.26 480.25,-219.254"/>
</g>
<!-- Node7&#45;&gt;Node9 -->
<g id="edge9" class="edge"><title>Node7&#45;&gt;Node9</title>
<path fill="none" stroke="midnightblue" d="M355.46,-246.418C320.167,-240.086 279.707,-229.091 246.847,-210 211.459,-189.44 180.492,-172.328 194.847,-134 199.945,-120.388 210.555,-108.029 220.079,-98.9443"/>
<polygon fill="midnightblue" stroke="midnightblue" points="222.571,-101.411 227.678,-92.128 217.897,-96.1996 222.571,-101.411"/>
</g>
<!-- Node10 -->
<g id="node10" class="node"><title>Node10</title>
<polygon fill="none" stroke="#bfbfbf" points="204.347,-134.5 204.347,-153.5 273.347,-153.5 273.347,-134.5 204.347,-134.5"/>
<text text-anchor="middle" x="238.847" y="-141.5" font-family="Helvetica,sans-Serif" font-size="10.00">TObjArray.h</text>
</g>
<!-- Node7&#45;&gt;Node10 -->
<g id="edge10" class="edge"><title>Node7&#45;&gt;Node10</title>
<path fill="none" stroke="midnightblue" d="M384.407,-246.432C340.272,-238.508 282.59,-225.615 264.847,-210 251.324,-198.099 244.744,-178.19 241.601,-163.535"/>
<polygon fill="midnightblue" stroke="midnightblue" points="245.024,-162.795 239.809,-153.572 238.135,-164.034 245.024,-162.795"/>
</g>
<!-- Node11 -->
<g id="node11" class="node"><title>Node11</title>
<g id="a_node11"><a xlink:href="../../d8/d64/Chebyshev3D_8h.html" target="_top" xlink:title="MathUtils/Chebyshev3D.h">
<polygon fill="none" stroke="black" points="273.847,-190.5 273.847,-209.5 405.847,-209.5 405.847,-190.5 273.847,-190.5"/>
<text text-anchor="middle" x="339.847" y="-197.5" font-family="Helvetica,sans-Serif" font-size="10.00">MathUtils/Chebyshev3D.h</text>
</a>
</g>
</g>
<!-- Node7&#45;&gt;Node11 -->
<g id="edge11" class="edge"><title>Node7&#45;&gt;Node11</title>
<path fill="none" stroke="midnightblue" d="M422.941,-246.324C407.209,-237.743 382.905,-224.486 364.638,-214.522"/>
<polygon fill="midnightblue" stroke="midnightblue" points="366.169,-211.37 355.714,-209.655 362.817,-217.516 366.169,-211.37"/>
</g>
<!-- Node13 -->
<g id="node13" class="node"><title>Node13</title>
<g id="a_node13"><a xlink:href="../../d4/d08/Chebyshev3DCalc_8h.html" target="_top" xlink:title="MathUtils/Chebyshev3DCalc.h">
<polygon fill="none" stroke="black" points="367.847,-134.5 367.847,-153.5 519.847,-153.5 519.847,-134.5 367.847,-134.5"/>
<text text-anchor="middle" x="443.847" y="-141.5" font-family="Helvetica,sans-Serif" font-size="10.00">MathUtils/Chebyshev3DCalc.h</text>
</a>
</g>
</g>
<!-- Node7&#45;&gt;Node13 -->
<g id="edge21" class="edge"><title>Node7&#45;&gt;Node13</title>
<path fill="none" stroke="midnightblue" d="M439.239,-246.368C440.046,-228.617 441.908,-187.666 443.002,-163.597"/>
<polygon fill="midnightblue" stroke="midnightblue" points="446.499,-163.74 443.457,-153.591 439.506,-163.422 446.499,-163.74"/>
</g>
<!-- Node7&#45;&gt;Node14 -->
<g id="edge22" class="edge"><title>Node7&#45;&gt;Node14</title>
<path fill="none" stroke="midnightblue" d="M468.128,-246.391C487.571,-239.361 512.442,-227.665 528.847,-210 556.974,-179.712 564.331,-129.362 566.223,-102.217"/>
<polygon fill="midnightblue" stroke="midnightblue" points="569.723,-102.298 566.743,-92.1305 562.733,-101.937 569.723,-102.298"/>
</g>
<!-- Node11&#45;&gt;Node4 -->
<g id="edge20" class="edge"><title>Node11&#45;&gt;Node4</title>
<path fill="none" stroke="midnightblue" d="M304.987,-190.444C264.889,-180.601 199.273,-164.496 157.883,-154.336"/>
<polygon fill="midnightblue" stroke="midnightblue" points="158.458,-150.873 147.912,-151.889 156.789,-157.672 158.458,-150.873"/>
</g>
<!-- Node11&#45;&gt;Node9 -->
<g id="edge12" class="edge"><title>Node11&#45;&gt;Node9</title>
<path fill="none" stroke="midnightblue" d="M332.256,-190.319C315.512,-171.172 275.176,-125.044 253.39,-100.131"/>
<polygon fill="midnightblue" stroke="midnightblue" points="255.744,-97.5059 246.527,-92.282 250.475,-102.114 255.744,-97.5059"/>
</g>
<!-- Node11&#45;&gt;Node10 -->
<g id="edge13" class="edge"><title>Node11&#45;&gt;Node10</title>
<path fill="none" stroke="midnightblue" d="M323.62,-190.324C307.496,-181.703 282.547,-168.364 263.883,-158.386"/>
<polygon fill="midnightblue" stroke="midnightblue" points="265.503,-155.283 255.034,-153.655 262.203,-161.456 265.503,-155.283"/>
</g>
<!-- Node12 -->
<g id="node12" class="node"><title>Node12</title>
<polygon fill="none" stroke="#bfbfbf" points="370.347,-73 370.347,-92 413.347,-92 413.347,-73 370.347,-73"/>
<text text-anchor="middle" x="391.847" y="-80" font-family="Helvetica,sans-Serif" font-size="10.00">cstdio</text>
</g>
<!-- Node11&#45;&gt;Node12 -->
<g id="edge14" class="edge"><title>Node11&#45;&gt;Node12</title>
<path fill="none" stroke="midnightblue" d="M341.536,-190.298C344.198,-177.548 349.994,-153.222 358.847,-134 364.292,-122.177 372.228,-109.932 378.953,-100.46"/>
<polygon fill="midnightblue" stroke="midnightblue" points="381.82,-102.469 384.908,-92.3338 376.174,-98.3307 381.82,-102.469"/>
</g>
<!-- Node11&#45;&gt;Node13 -->
<g id="edge15" class="edge"><title>Node11&#45;&gt;Node13</title>
<path fill="none" stroke="midnightblue" d="M356.557,-190.324C373.159,-181.703 398.849,-168.364 418.068,-158.386"/>
<polygon fill="midnightblue" stroke="midnightblue" points="419.917,-161.369 427.179,-153.655 416.691,-155.156 419.917,-161.369"/>
</g>
<!-- Node11&#45;&gt;Node14 -->
<g id="edge19" class="edge"><title>Node11&#45;&gt;Node14</title>
<path fill="none" stroke="midnightblue" d="M405.963,-196.545C445.138,-192.072 493.808,-180.919 528.847,-154 545.689,-141.061 555.962,-118.463 561.508,-102.339"/>
<polygon fill="midnightblue" stroke="midnightblue" points="564.969,-102.998 564.616,-92.4092 558.289,-100.908 564.969,-102.998"/>
</g>
<!-- Node13&#45;&gt;Node9 -->
<g id="edge16" class="edge"><title>Node13&#45;&gt;Node9</title>
<path fill="none" stroke="midnightblue" d="M414.476,-134.475C378.55,-124.048 317.615,-106.362 277.803,-94.8066"/>
<polygon fill="midnightblue" stroke="midnightblue" points="278.743,-91.4353 268.164,-92.0091 276.792,-98.1578 278.743,-91.4353"/>
</g>
<!-- Node13&#45;&gt;Node12 -->
<g id="edge17" class="edge"><title>Node13&#45;&gt;Node12</title>
<path fill="none" stroke="midnightblue" d="M436.397,-134.475C428.52,-125.462 415.902,-111.025 406.103,-99.8118"/>
<polygon fill="midnightblue" stroke="midnightblue" points="408.5,-97.2356 399.284,-92.0091 403.229,-101.842 408.5,-97.2356"/>
</g>
<!-- Node13&#45;&gt;Node14 -->
<g id="edge18" class="edge"><title>Node13&#45;&gt;Node14</title>
<path fill="none" stroke="midnightblue" d="M461.47,-134.475C482.021,-124.534 516.211,-107.995 540.054,-96.461"/>
<polygon fill="midnightblue" stroke="midnightblue" points="541.779,-99.5145 549.257,-92.0091 538.731,-93.2131 541.779,-99.5145"/>
</g>
<!-- Node15&#45;&gt;Node14 -->
<g id="edge24" class="edge"><title>Node15&#45;&gt;Node14</title>
<path fill="none" stroke="midnightblue" d="M767.537,-190.319C729.979,-170.328 637.169,-120.929 592.148,-96.9667"/>
<polygon fill="midnightblue" stroke="midnightblue" points="593.523,-93.7334 583.051,-92.1245 590.234,-99.9126 593.523,-93.7334"/>
</g>
<!-- Node16 -->
<g id="node16" class="node"><title>Node16</title>
<polygon fill="none" stroke="#bfbfbf" points="763.347,-134.5 763.347,-153.5 804.347,-153.5 804.347,-134.5 763.347,-134.5"/>
<text text-anchor="middle" x="783.847" y="-141.5" font-family="Helvetica,sans-Serif" font-size="10.00">string</text>
</g>
<!-- Node15&#45;&gt;Node16 -->
<g id="edge25" class="edge"><title>Node15&#45;&gt;Node16</title>
<path fill="none" stroke="midnightblue" d="M783.847,-190.083C783.847,-183.006 783.847,-172.861 783.847,-163.986"/>
<polygon fill="midnightblue" stroke="midnightblue" points="787.347,-163.751 783.847,-153.751 780.347,-163.751 787.347,-163.751"/>
</g>
<!-- Node17 -->
<g id="node17" class="node"><title>Node17</title>
<g id="a_node17"><a xlink:href="../../dd/d76/Cartesian3D_8h.html" target="_top" xlink:title="MathUtils/Cartesian3D.h">
<polygon fill="none" stroke="black" points="980.347,-134.5 980.347,-153.5 1105.35,-153.5 1105.35,-134.5 980.347,-134.5"/>
<text text-anchor="middle" x="1042.85" y="-141.5" font-family="Helvetica,sans-Serif" font-size="10.00">MathUtils/Cartesian3D.h</text>
</a>
</g>
</g>
<!-- Node15&#45;&gt;Node17 -->
<g id="edge26" class="edge"><title>Node15&#45;&gt;Node17</title>
<path fill="none" stroke="midnightblue" d="M824.886,-190.444C870.163,-181.004 943.074,-165.802 991.953,-155.611"/>
<polygon fill="midnightblue" stroke="midnightblue" points="992.925,-158.984 1002,-153.516 991.496,-152.131 992.925,-158.984"/>
</g>
<!-- Node17&#45;&gt;Node14 -->
<g id="edge32" class="edge"><title>Node17&#45;&gt;Node14</title>
<path fill="none" stroke="midnightblue" d="M980.153,-141.893C894.147,-139.177 735.266,-129.857 603.847,-98 601.018,-97.3143 598.117,-96.4608 595.244,-95.5135"/>
<polygon fill="midnightblue" stroke="midnightblue" points="596.325,-92.1822 585.731,-92.0384 593.923,-98.7572 596.325,-92.1822"/>
</g>
<!-- Node18 -->
<g id="node18" class="node"><title>Node18</title>
<polygon fill="none" stroke="#bfbfbf" points="1265.35,-67.5 1265.35,-97.5 1416.35,-97.5 1416.35,-67.5 1265.35,-67.5"/>
<text text-anchor="start" x="1273.35" y="-85.5" font-family="Helvetica,sans-Serif" font-size="10.00">Math/GenVector/Displacement</text>
<text text-anchor="middle" x="1340.85" y="-74.5" font-family="Helvetica,sans-Serif" font-size="10.00">Vector3D.h</text>
</g>
<!-- Node17&#45;&gt;Node18 -->
<g id="edge27" class="edge"><title>Node17&#45;&gt;Node18</title>
<path fill="none" stroke="midnightblue" d="M1085.54,-134.475C1131.09,-125.381 1204.29,-110.766 1260.65,-99.5118"/>
<polygon fill="midnightblue" stroke="midnightblue" points="1261.49,-102.913 1270.61,-97.523 1260.12,-96.0488 1261.49,-102.913"/>
</g>
<!-- Node19 -->
<g id="node19" class="node"><title>Node19</title>
<polygon fill="none" stroke="#bfbfbf" points="1434.85,-73 1434.85,-92 1610.85,-92 1610.85,-73 1434.85,-73"/>
<text text-anchor="middle" x="1522.85" y="-80" font-family="Helvetica,sans-Serif" font-size="10.00">Math/GenVector/PositionVector3D.h</text>
</g>
<!-- Node17&#45;&gt;Node19 -->
<g id="edge28" class="edge"><title>Node17&#45;&gt;Node19</title>
<path fill="none" stroke="midnightblue" d="M1105.62,-136.237C1181.54,-127.916 1313.2,-113.034 1425.85,-98 1436.21,-96.6174 1447.18,-95.0642 1457.87,-93.5017"/>
<polygon fill="midnightblue" stroke="midnightblue" points="1458.62,-96.9286 1468,-92.006 1457.6,-90.0036 1458.62,-96.9286"/>
</g>
<!-- Node20 -->
<g id="node20" class="node"><title>Node20</title>
<polygon fill="none" stroke="#bfbfbf" points="1628.35,-73 1628.35,-92 1777.35,-92 1777.35,-73 1628.35,-73"/>
<text text-anchor="middle" x="1702.85" y="-80" font-family="Helvetica,sans-Serif" font-size="10.00">Math/GenVector/Rotation3D.h</text>
</g>
<!-- Node17&#45;&gt;Node20 -->
<g id="edge29" class="edge"><title>Node17&#45;&gt;Node20</title>
<path fill="none" stroke="midnightblue" d="M1105.37,-140.076C1211.48,-134.679 1433.43,-121.499 1619.85,-98 1629.12,-96.8312 1638.93,-95.3426 1648.44,-93.7667"/>
<polygon fill="midnightblue" stroke="midnightblue" points="1649.33,-97.1659 1658.6,-92.0334 1648.15,-90.2656 1649.33,-97.1659"/>
</g>
<!-- Node21 -->
<g id="node21" class="node"><title>Node21</title>
<polygon fill="none" stroke="#bfbfbf" points="612.847,-73 612.847,-92 768.847,-92 768.847,-73 612.847,-73"/>
<text text-anchor="middle" x="690.847" y="-80" font-family="Helvetica,sans-Serif" font-size="10.00">Math/GenVector/Transform3D.h</text>
</g>
<!-- Node17&#45;&gt;Node21 -->
<g id="edge30" class="edge"><title>Node17&#45;&gt;Node21</title>
<path fill="none" stroke="midnightblue" d="M992.414,-134.475C928.766,-123.716 819.403,-105.23 751.332,-93.724"/>
<polygon fill="midnightblue" stroke="midnightblue" points="751.63,-90.2248 741.187,-92.0091 750.463,-97.1269 751.63,-90.2248"/>
</g>
<!-- Node22 -->
<g id="node22" class="node"><title>Node22</title>
<polygon fill="none" stroke="#bfbfbf" points="786.847,-73 786.847,-92 946.847,-92 946.847,-73 786.847,-73"/>
<text text-anchor="middle" x="866.847" y="-80" font-family="Helvetica,sans-Serif" font-size="10.00">Math/GenVector/Translation3D.h</text>
</g>
<!-- Node17&#45;&gt;Node22 -->
<g id="edge31" class="edge"><title>Node17&#45;&gt;Node22</title>
<path fill="none" stroke="midnightblue" d="M1017.63,-134.475C987.179,-124.18 935.799,-106.81 901.604,-95.2502"/>
<polygon fill="midnightblue" stroke="midnightblue" points="902.611,-91.8961 892.017,-92.0091 900.369,-98.5274 902.611,-91.8961"/>
</g>
<!-- Node23 -->
<g id="node23" class="node"><title>Node23</title>
<polygon fill="none" stroke="#bfbfbf" points="964.847,-73 964.847,-92 1040.85,-92 1040.85,-73 964.847,-73"/>
<text text-anchor="middle" x="1002.85" y="-80" font-family="Helvetica,sans-Serif" font-size="10.00">TGeoMatrix.h</text>
</g>
<!-- Node17&#45;&gt;Node23 -->
<g id="edge33" class="edge"><title>Node17&#45;&gt;Node23</title>
<path fill="none" stroke="midnightblue" d="M1037.12,-134.475C1031.18,-125.638 1021.73,-111.589 1014.26,-100.475"/>
<polygon fill="midnightblue" stroke="midnightblue" points="1017.05,-98.3554 1008.57,-92.0091 1011.24,-102.261 1017.05,-98.3554"/>
</g>
<!-- Node24 -->
<g id="node24" class="node"><title>Node24</title>
<polygon fill="none" stroke="#bfbfbf" points="1059.35,-73 1059.35,-92 1104.35,-92 1104.35,-73 1059.35,-73"/>
<text text-anchor="middle" x="1081.85" y="-80" font-family="Helvetica,sans-Serif" font-size="10.00">iosfwd</text>
</g>
<!-- Node17&#45;&gt;Node24 -->
<g id="edge34" class="edge"><title>Node17&#45;&gt;Node24</title>
<path fill="none" stroke="midnightblue" d="M1048.43,-134.475C1054.23,-125.638 1063.44,-111.589 1070.72,-100.475"/>
<polygon fill="midnightblue" stroke="midnightblue" points="1073.71,-102.291 1076.27,-92.0091 1067.86,-98.4539 1073.71,-102.291"/>
</g>
<!-- Node25 -->
<g id="node25" class="node"><title>Node25</title>
<g id="a_node25"><a xlink:href="../../d2/dd0/Cartesian2D_8h.html" target="_top" xlink:title="MathUtils/Cartesian2D.h">
<polygon fill="none" stroke="black" points="1122.35,-73 1122.35,-92 1247.35,-92 1247.35,-73 1122.35,-73"/>
<text text-anchor="middle" x="1184.85" y="-80" font-family="Helvetica,sans-Serif" font-size="10.00">MathUtils/Cartesian2D.h</text>
</a>
</g>
</g>
<!-- Node17&#45;&gt;Node25 -->
<g id="edge35" class="edge"><title>Node17&#45;&gt;Node25</title>
<path fill="none" stroke="midnightblue" d="M1063.19,-134.475C1087.23,-124.401 1127.44,-107.553 1155.01,-96.0023"/>
<polygon fill="midnightblue" stroke="midnightblue" points="1156.67,-99.1018 1164.54,-92.0091 1153.96,-92.6457 1156.67,-99.1018"/>
</g>
<!-- Node26 -->
<g id="node26" class="node"><title>Node26</title>
<polygon fill="none" stroke="#bfbfbf" points="1018.35,-0.5 1018.35,-30.5 1169.35,-30.5 1169.35,-0.5 1018.35,-0.5"/>
<text text-anchor="start" x="1026.35" y="-18.5" font-family="Helvetica,sans-Serif" font-size="10.00">Math/GenVector/Displacement</text>
<text text-anchor="middle" x="1093.85" y="-7.5" font-family="Helvetica,sans-Serif" font-size="10.00">Vector2D.h</text>
</g>
<!-- Node25&#45;&gt;Node26 -->
<g id="edge36" class="edge"><title>Node25&#45;&gt;Node26</title>
<path fill="none" stroke="midnightblue" d="M1172.57,-72.7338C1159.68,-63.527 1138.97,-48.7328 1122.03,-36.6293"/>
<polygon fill="midnightblue" stroke="midnightblue" points="1123.74,-33.5534 1113.57,-30.589 1119.67,-39.2495 1123.74,-33.5534"/>
</g>
<!-- Node27 -->
<g id="node27" class="node"><title>Node27</title>
<polygon fill="none" stroke="#bfbfbf" points="1187.85,-6 1187.85,-25 1363.85,-25 1363.85,-6 1187.85,-6"/>
<text text-anchor="middle" x="1275.85" y="-13" font-family="Helvetica,sans-Serif" font-size="10.00">Math/GenVector/PositionVector2D.h</text>
</g>
<!-- Node25&#45;&gt;Node27 -->
<g id="edge37" class="edge"><title>Node25&#45;&gt;Node27</title>
<path fill="none" stroke="midnightblue" d="M1197.12,-72.7338C1211.99,-62.1106 1237.28,-44.0485 1255.18,-31.2642"/>
<polygon fill="midnightblue" stroke="midnightblue" points="1257.67,-33.7878 1263.77,-25.1273 1253.6,-28.0917 1257.67,-33.7878"/>
</g>
</g>
</svg>
