<?xml version="1.0" encoding="UTF-8" standalone="no"?>
<!DOCTYPE svg PUBLIC "-//W3C//DTD SVG 1.1//EN"
 "http://www.w3.org/Graphics/SVG/1.1/DTD/svg11.dtd">
<!-- Generated by graphviz version 2.38.0 (20140413.2041)
 -->
<!-- Title: /home/travis/build/AliceO2Group/AliceO2/DataFormats/Detectors/FIT/FV0/include/DataFormatsFV0/Hit.h Pages: 1 -->
<svg width="1665pt" height="318pt"
 viewBox="0.00 0.00 1664.50 318.00" xmlns="http://www.w3.org/2000/svg" xmlns:xlink="http://www.w3.org/1999/xlink">
<g id="graph0" class="graph" transform="scale(1 1) rotate(0) translate(4 314)">
<title>/home/travis/build/AliceO2Group/AliceO2/DataFormats/Detectors/FIT/FV0/include/DataFormatsFV0/Hit.h</title>
<!-- Node1 -->
<g id="node1" class="node"><title>Node1</title>
<polygon fill="#bfbfbf" stroke="black" points="945,-257.5 945,-309.5 1136,-309.5 1136,-257.5 945,-257.5"/>
<text text-anchor="start" x="953" y="-297.5" font-family="Helvetica,sans-Serif" font-size="10.00">/home/travis/build</text>
<text text-anchor="start" x="953" y="-286.5" font-family="Helvetica,sans-Serif" font-size="10.00">/AliceO2Group/AliceO2</text>
<text text-anchor="start" x="953" y="-275.5" font-family="Helvetica,sans-Serif" font-size="10.00">/DataFormats/Detectors</text>
<text text-anchor="middle" x="1040.5" y="-264.5" font-family="Helvetica,sans-Serif" font-size="10.00">/FIT/FV0/include/DataFormatsFV0/Hit.h</text>
</g>
<!-- Node2 -->
<g id="node2" class="node"><title>Node2</title>
<polygon fill="none" stroke="#bfbfbf" points="0,-73 0,-92 45,-92 45,-73 0,-73"/>
<text text-anchor="middle" x="22.5" y="-80" font-family="Helvetica,sans-Serif" font-size="10.00">iosfwd</text>
</g>
<!-- Node1&#45;&gt;Node2 -->
<g id="edge1" class="edge"><title>Node1&#45;&gt;Node2</title>
<path fill="none" stroke="midnightblue" d="M944.978,-272.768C766.455,-252.811 371.505,-200.27 53.5,-98 51.8279,-97.4622 50.1285,-96.8553 48.4306,-96.2024"/>
<polygon fill="midnightblue" stroke="midnightblue" points="49.4897,-92.8482 38.9198,-92.1207 46.729,-99.2809 49.4897,-92.8482"/>
</g>
<!-- Node3 -->
<g id="node3" class="node"><title>Node3</title>
<g id="a_node3"><a xlink:href="../../d4/d25/BaseHits_8h.html" target="_top" xlink:title="SimulationDataFormat\l/BaseHits.h">
<polygon fill="none" stroke="black" points="800.5,-190.5 800.5,-220.5 914.5,-220.5 914.5,-190.5 800.5,-190.5"/>
<text text-anchor="start" x="808.5" y="-208.5" font-family="Helvetica,sans-Serif" font-size="10.00">SimulationDataFormat</text>
<text text-anchor="middle" x="857.5" y="-197.5" font-family="Helvetica,sans-Serif" font-size="10.00">/BaseHits.h</text>
</a>
</g>
</g>
<!-- Node1&#45;&gt;Node3 -->
<g id="edge2" class="edge"><title>Node1&#45;&gt;Node3</title>
<path fill="none" stroke="midnightblue" d="M980.072,-257.404C954.177,-246.65 924.514,-234.331 900.856,-224.506"/>
<polygon fill="midnightblue" stroke="midnightblue" points="902.022,-221.2 891.444,-220.597 899.337,-227.665 902.022,-221.2"/>
</g>
<!-- Node10 -->
<g id="node10" class="node"><title>Node10</title>
<polygon fill="none" stroke="#bfbfbf" points="1182.5,-73 1182.5,-92 1238.5,-92 1238.5,-73 1182.5,-73"/>
<text text-anchor="middle" x="1210.5" y="-80" font-family="Helvetica,sans-Serif" font-size="10.00">Rtypes.h</text>
</g>
<!-- Node1&#45;&gt;Node10 -->
<g id="edge15" class="edge"><title>Node1&#45;&gt;Node10</title>
<path fill="none" stroke="midnightblue" d="M1040.72,-257.439C1042,-237.671 1046.3,-210.164 1059.5,-190 1089.21,-144.611 1145.55,-112.717 1180.38,-96.2934"/>
<polygon fill="midnightblue" stroke="midnightblue" points="1181.96,-99.4198 1189.6,-92.0732 1179.05,-93.0557 1181.96,-99.4198"/>
</g>
<!-- Node15 -->
<g id="node15" class="node"><title>Node15</title>
<polygon fill="none" stroke="#bfbfbf" points="1069,-196 1069,-215 1134,-215 1134,-196 1069,-196"/>
<text text-anchor="middle" x="1101.5" y="-203" font-family="Helvetica,sans-Serif" font-size="10.00">TVector3.h</text>
</g>
<!-- Node1&#45;&gt;Node15 -->
<g id="edge16" class="edge"><title>Node1&#45;&gt;Node15</title>
<path fill="none" stroke="midnightblue" d="M1060.81,-257.193C1069.82,-245.972 1080.16,-233.082 1088.17,-223.108"/>
<polygon fill="midnightblue" stroke="midnightblue" points="1090.98,-225.198 1094.51,-215.209 1085.52,-220.817 1090.98,-225.198"/>
</g>
<!-- Node16 -->
<g id="node16" class="node"><title>Node16</title>
<g id="a_node16"><a xlink:href="../../d0/d91/ShmAllocator_8h.html" target="_top" xlink:title="CommonUtils/ShmAllocator.h">
<polygon fill="none" stroke="black" points="1254.5,-196 1254.5,-215 1400.5,-215 1400.5,-196 1254.5,-196"/>
<text text-anchor="middle" x="1327.5" y="-203" font-family="Helvetica,sans-Serif" font-size="10.00">CommonUtils/ShmAllocator.h</text>
</a>
</g>
</g>
<!-- Node1&#45;&gt;Node16 -->
<g id="edge17" class="edge"><title>Node1&#45;&gt;Node16</title>
<path fill="none" stroke="midnightblue" d="M1135.27,-257.404C1186.04,-243.96 1246.04,-228.072 1285.34,-217.666"/>
<polygon fill="midnightblue" stroke="midnightblue" points="1286.34,-221.021 1295.11,-215.078 1284.54,-214.254 1286.34,-221.021"/>
</g>
<!-- Node4 -->
<g id="node4" class="node"><title>Node4</title>
<g id="a_node4"><a xlink:href="../../dd/d76/Cartesian3D_8h.html" target="_top" xlink:title="MathUtils/Cartesian3D.h">
<polygon fill="none" stroke="black" points="697,-134.5 697,-153.5 822,-153.5 822,-134.5 697,-134.5"/>
<text text-anchor="middle" x="759.5" y="-141.5" font-family="Helvetica,sans-Serif" font-size="10.00">MathUtils/Cartesian3D.h</text>
</a>
</g>
</g>
<!-- Node3&#45;&gt;Node4 -->
<g id="edge3" class="edge"><title>Node3&#45;&gt;Node4</title>
<path fill="none" stroke="midnightblue" d="M834.275,-190.399C818.714,-180.951 798.303,-168.559 782.738,-159.109"/>
<polygon fill="midnightblue" stroke="midnightblue" points="784.124,-155.856 773.76,-153.658 780.491,-161.839 784.124,-155.856"/>
</g>
<!-- Node4&#45;&gt;Node2 -->
<g id="edge11" class="edge"><title>Node4&#45;&gt;Node2</title>
<path fill="none" stroke="midnightblue" d="M696.777,-141.987C547.438,-139.095 174.267,-128.912 53.5,-98 51.5142,-97.4917 49.5006,-96.8571 47.5028,-96.1394"/>
<polygon fill="midnightblue" stroke="midnightblue" points="48.4205,-92.7276 37.8468,-92.0591 45.6958,-99.1755 48.4205,-92.7276"/>
</g>
<!-- Node5 -->
<g id="node5" class="node"><title>Node5</title>
<polygon fill="none" stroke="#bfbfbf" points="63,-67.5 63,-97.5 214,-97.5 214,-67.5 63,-67.5"/>
<text text-anchor="start" x="71" y="-85.5" font-family="Helvetica,sans-Serif" font-size="10.00">Math/GenVector/Displacement</text>
<text text-anchor="middle" x="138.5" y="-74.5" font-family="Helvetica,sans-Serif" font-size="10.00">Vector3D.h</text>
</g>
<!-- Node4&#45;&gt;Node5 -->
<g id="edge4" class="edge"><title>Node4&#45;&gt;Node5</title>
<path fill="none" stroke="midnightblue" d="M696.603,-139.462C598.141,-133.539 401.428,-120.163 224.467,-98.0499"/>
<polygon fill="midnightblue" stroke="midnightblue" points="224.812,-94.5657 214.452,-96.7863 223.935,-101.511 224.812,-94.5657"/>
</g>
<!-- Node6 -->
<g id="node6" class="node"><title>Node6</title>
<polygon fill="none" stroke="#bfbfbf" points="232.5,-73 232.5,-92 408.5,-92 408.5,-73 232.5,-73"/>
<text text-anchor="middle" x="320.5" y="-80" font-family="Helvetica,sans-Serif" font-size="10.00">Math/GenVector/PositionVector3D.h</text>
</g>
<!-- Node4&#45;&gt;Node6 -->
<g id="edge5" class="edge"><title>Node4&#45;&gt;Node6</title>
<path fill="none" stroke="midnightblue" d="M696.861,-135.154C628.059,-126.448 514.328,-111.804 416.5,-98 406.548,-96.5958 396.025,-95.0591 385.735,-93.5278"/>
<polygon fill="midnightblue" stroke="midnightblue" points="385.962,-90.0228 375.554,-92.0034 384.925,-96.9456 385.962,-90.0228"/>
</g>
<!-- Node7 -->
<g id="node7" class="node"><title>Node7</title>
<polygon fill="none" stroke="#bfbfbf" points="426,-73 426,-92 575,-92 575,-73 426,-73"/>
<text text-anchor="middle" x="500.5" y="-80" font-family="Helvetica,sans-Serif" font-size="10.00">Math/GenVector/Rotation3D.h</text>
</g>
<!-- Node4&#45;&gt;Node7 -->
<g id="edge6" class="edge"><title>Node4&#45;&gt;Node7</title>
<path fill="none" stroke="midnightblue" d="M722.392,-134.475C676.329,-123.893 597.726,-105.836 547.497,-94.2966"/>
<polygon fill="midnightblue" stroke="midnightblue" points="548.069,-90.837 537.54,-92.0091 546.502,-97.6593 548.069,-90.837"/>
</g>
<!-- Node8 -->
<g id="node8" class="node"><title>Node8</title>
<polygon fill="none" stroke="#bfbfbf" points="593.5,-73 593.5,-92 749.5,-92 749.5,-73 593.5,-73"/>
<text text-anchor="middle" x="671.5" y="-80" font-family="Helvetica,sans-Serif" font-size="10.00">Math/GenVector/Transform3D.h</text>
</g>
<!-- Node4&#45;&gt;Node8 -->
<g id="edge7" class="edge"><title>Node4&#45;&gt;Node8</title>
<path fill="none" stroke="midnightblue" d="M746.892,-134.475C732.777,-124.931 709.669,-109.307 692.751,-97.8683"/>
<polygon fill="midnightblue" stroke="midnightblue" points="694.329,-94.7109 684.085,-92.0091 690.409,-100.51 694.329,-94.7109"/>
</g>
<!-- Node9 -->
<g id="node9" class="node"><title>Node9</title>
<polygon fill="none" stroke="#bfbfbf" points="767.5,-73 767.5,-92 927.5,-92 927.5,-73 767.5,-73"/>
<text text-anchor="middle" x="847.5" y="-80" font-family="Helvetica,sans-Serif" font-size="10.00">Math/GenVector/Translation3D.h</text>
</g>
<!-- Node4&#45;&gt;Node9 -->
<g id="edge8" class="edge"><title>Node4&#45;&gt;Node9</title>
<path fill="none" stroke="midnightblue" d="M772.108,-134.475C786.223,-124.931 809.331,-109.307 826.249,-97.8683"/>
<polygon fill="midnightblue" stroke="midnightblue" points="828.591,-100.51 834.915,-92.0091 824.671,-94.7109 828.591,-100.51"/>
</g>
<!-- Node4&#45;&gt;Node10 -->
<g id="edge9" class="edge"><title>Node4&#45;&gt;Node10</title>
<path fill="none" stroke="midnightblue" d="M822.115,-141.344C903.979,-138.015 1051.33,-128.011 1173.5,-98 1176.33,-97.3056 1179.23,-96.4463 1182.1,-95.4953"/>
<polygon fill="midnightblue" stroke="midnightblue" points="1183.42,-98.7382 1191.61,-92.0151 1181.02,-92.1644 1183.42,-98.7382"/>
</g>
<!-- Node11 -->
<g id="node11" class="node"><title>Node11</title>
<polygon fill="none" stroke="#bfbfbf" points="945.5,-73 945.5,-92 1021.5,-92 1021.5,-73 945.5,-73"/>
<text text-anchor="middle" x="983.5" y="-80" font-family="Helvetica,sans-Serif" font-size="10.00">TGeoMatrix.h</text>
</g>
<!-- Node4&#45;&gt;Node11 -->
<g id="edge10" class="edge"><title>Node4&#45;&gt;Node11</title>
<path fill="none" stroke="midnightblue" d="M795.237,-134.473C831.087,-125.789 887.816,-111.689 936.5,-98 939.891,-97.0465 943.409,-96.0239 946.926,-94.979"/>
<polygon fill="midnightblue" stroke="midnightblue" points="948.168,-98.2603 956.726,-92.0149 946.141,-91.56 948.168,-98.2603"/>
</g>
<!-- Node12 -->
<g id="node12" class="node"><title>Node12</title>
<g id="a_node12"><a xlink:href="../../d2/dd0/Cartesian2D_8h.html" target="_top" xlink:title="MathUtils/Cartesian2D.h">
<polygon fill="none" stroke="black" points="1040,-73 1040,-92 1165,-92 1165,-73 1040,-73"/>
<text text-anchor="middle" x="1102.5" y="-80" font-family="Helvetica,sans-Serif" font-size="10.00">MathUtils/Cartesian2D.h</text>
</a>
</g>
</g>
<!-- Node4&#45;&gt;Node12 -->
<g id="edge12" class="edge"><title>Node4&#45;&gt;Node12</title>
<path fill="none" stroke="midnightblue" d="M814.097,-134.496C868.895,-125.828 955.681,-111.742 1030.5,-98 1037.24,-96.7619 1044.33,-95.4045 1051.31,-94.0325"/>
<polygon fill="midnightblue" stroke="midnightblue" points="1052.3,-97.4049 1061.43,-92.0241 1050.94,-90.5389 1052.3,-97.4049"/>
</g>
<!-- Node13 -->
<g id="node13" class="node"><title>Node13</title>
<polygon fill="none" stroke="#bfbfbf" points="936,-0.5 936,-30.5 1087,-30.5 1087,-0.5 936,-0.5"/>
<text text-anchor="start" x="944" y="-18.5" font-family="Helvetica,sans-Serif" font-size="10.00">Math/GenVector/Displacement</text>
<text text-anchor="middle" x="1011.5" y="-7.5" font-family="Helvetica,sans-Serif" font-size="10.00">Vector2D.h</text>
</g>
<!-- Node12&#45;&gt;Node13 -->
<g id="edge13" class="edge"><title>Node12&#45;&gt;Node13</title>
<path fill="none" stroke="midnightblue" d="M1090.23,-72.7338C1077.34,-63.527 1056.63,-48.7328 1039.68,-36.6293"/>
<polygon fill="midnightblue" stroke="midnightblue" points="1041.4,-33.5534 1031.22,-30.589 1037.33,-39.2495 1041.4,-33.5534"/>
</g>
<!-- Node14 -->
<g id="node14" class="node"><title>Node14</title>
<polygon fill="none" stroke="#bfbfbf" points="1105.5,-6 1105.5,-25 1281.5,-25 1281.5,-6 1105.5,-6"/>
<text text-anchor="middle" x="1193.5" y="-13" font-family="Helvetica,sans-Serif" font-size="10.00">Math/GenVector/PositionVector2D.h</text>
</g>
<!-- Node12&#45;&gt;Node14 -->
<g id="edge14" class="edge"><title>Node12&#45;&gt;Node14</title>
<path fill="none" stroke="midnightblue" d="M1114.77,-72.7338C1129.65,-62.1106 1154.93,-44.0485 1172.83,-31.2642"/>
<polygon fill="midnightblue" stroke="midnightblue" points="1175.32,-33.7878 1181.42,-25.1273 1171.25,-28.0917 1175.32,-33.7878"/>
</g>
<!-- Node17 -->
<g id="node17" class="node"><title>Node17</title>
<g id="a_node17"><a xlink:href="../../de/d61/ShmManager_8h.html" target="_top" xlink:title="CommonUtils/ShmManager.h">
<polygon fill="none" stroke="black" points="1254.5,-134.5 1254.5,-153.5 1400.5,-153.5 1400.5,-134.5 1254.5,-134.5"/>
<text text-anchor="middle" x="1327.5" y="-141.5" font-family="Helvetica,sans-Serif" font-size="10.00">CommonUtils/ShmManager.h</text>
</a>
</g>
</g>
<!-- Node16&#45;&gt;Node17 -->
<g id="edge18" class="edge"><title>Node16&#45;&gt;Node17</title>
<path fill="none" stroke="midnightblue" d="M1327.5,-195.975C1327.5,-187.58 1327.5,-174.481 1327.5,-163.663"/>
<polygon fill="midnightblue" stroke="midnightblue" points="1331,-163.509 1327.5,-153.509 1324,-163.509 1331,-163.509"/>
</g>
<!-- Node22 -->
<g id="node22" class="node"><title>Node22</title>
<polygon fill="none" stroke="#bfbfbf" points="1419,-134.5 1419,-153.5 1468,-153.5 1468,-134.5 1419,-134.5"/>
<text text-anchor="middle" x="1443.5" y="-141.5" font-family="Helvetica,sans-Serif" font-size="10.00">cassert</text>
</g>
<!-- Node16&#45;&gt;Node22 -->
<g id="edge23" class="edge"><title>Node16&#45;&gt;Node22</title>
<path fill="none" stroke="midnightblue" d="M1344.12,-195.975C1363.42,-186.078 1395.46,-169.642 1417.93,-158.115"/>
<polygon fill="midnightblue" stroke="midnightblue" points="1419.61,-161.187 1426.91,-153.509 1416.42,-154.959 1419.61,-161.187"/>
</g>
<!-- Node18 -->
<g id="node18" class="node"><title>Node18</title>
<polygon fill="none" stroke="#bfbfbf" points="1256,-73 1256,-92 1285,-92 1285,-73 1256,-73"/>
<text text-anchor="middle" x="1270.5" y="-80" font-family="Helvetica,sans-Serif" font-size="10.00">list</text>
</g>
<!-- Node17&#45;&gt;Node18 -->
<g id="edge19" class="edge"><title>Node17&#45;&gt;Node18</title>
<path fill="none" stroke="midnightblue" d="M1319.33,-134.475C1310.61,-125.373 1296.6,-110.741 1285.81,-99.483"/>
<polygon fill="midnightblue" stroke="midnightblue" points="1288.1,-96.809 1278.65,-92.0091 1283.04,-101.651 1288.1,-96.809"/>
</g>
<!-- Node19 -->
<g id="node19" class="node"><title>Node19</title>
<polygon fill="none" stroke="#bfbfbf" points="1303,-73 1303,-92 1352,-92 1352,-73 1303,-73"/>
<text text-anchor="middle" x="1327.5" y="-80" font-family="Helvetica,sans-Serif" font-size="10.00">cstddef</text>
</g>
<!-- Node17&#45;&gt;Node19 -->
<g id="edge20" class="edge"><title>Node17&#45;&gt;Node19</title>
<path fill="none" stroke="midnightblue" d="M1327.5,-134.475C1327.5,-126.08 1327.5,-112.981 1327.5,-102.163"/>
<polygon fill="midnightblue" stroke="midnightblue" points="1331,-102.009 1327.5,-92.0091 1324,-102.009 1331,-102.009"/>
</g>
<!-- Node20 -->
<g id="node20" class="node"><title>Node20</title>
<polygon fill="none" stroke="#bfbfbf" points="1370.5,-67.5 1370.5,-97.5 1518.5,-97.5 1518.5,-67.5 1370.5,-67.5"/>
<text text-anchor="start" x="1378.5" y="-85.5" font-family="Helvetica,sans-Serif" font-size="10.00">boost/interprocess</text>
<text text-anchor="middle" x="1444.5" y="-74.5" font-family="Helvetica,sans-Serif" font-size="10.00">/managed_external_buffer.hpp</text>
</g>
<!-- Node17&#45;&gt;Node20 -->
<g id="edge21" class="edge"><title>Node17&#45;&gt;Node20</title>
<path fill="none" stroke="midnightblue" d="M1344.26,-134.475C1360.78,-126.078 1386.55,-112.973 1407.82,-102.153"/>
<polygon fill="midnightblue" stroke="midnightblue" points="1409.6,-105.176 1416.93,-97.523 1406.43,-98.9362 1409.6,-105.176"/>
</g>
<!-- Node21 -->
<g id="node21" class="node"><title>Node21</title>
<polygon fill="none" stroke="#bfbfbf" points="1536.5,-67.5 1536.5,-97.5 1656.5,-97.5 1656.5,-67.5 1536.5,-67.5"/>
<text text-anchor="start" x="1544.5" y="-85.5" font-family="Helvetica,sans-Serif" font-size="10.00">boost/interprocess</text>
<text text-anchor="middle" x="1596.5" y="-74.5" font-family="Helvetica,sans-Serif" font-size="10.00">/allocators/allocator.hpp</text>
</g>
<!-- Node17&#45;&gt;Node21 -->
<g id="edge22" class="edge"><title>Node17&#45;&gt;Node21</title>
<path fill="none" stroke="midnightblue" d="M1366.04,-134.475C1407.79,-125.242 1475.26,-110.317 1526.44,-98.997"/>
<polygon fill="midnightblue" stroke="midnightblue" points="1527.44,-102.361 1536.44,-96.7838 1525.92,-95.5262 1527.44,-102.361"/>
</g>
</g>
</svg>
