<?xml version="1.0" encoding="UTF-8" standalone="no"?>
<!DOCTYPE svg PUBLIC "-//W3C//DTD SVG 1.1//EN"
 "http://www.w3.org/Graphics/SVG/1.1/DTD/svg11.dtd">
<!-- Generated by graphviz version 2.38.0 (20140413.2041)
 -->
<!-- Title: o2::trd::PadCalibrations&lt; T &gt; Pages: 1 -->
<svg width="581pt" height="629pt"
 viewBox="0.00 0.00 581.00 629.00" xmlns="http://www.w3.org/2000/svg" xmlns:xlink="http://www.w3.org/1999/xlink">
<g id="graph0" class="graph" transform="scale(1 1) rotate(0) translate(4 625)">
<title>o2::trd::PadCalibrations&lt; T &gt;</title>
<!-- Node1 -->
<g id="node1" class="node"><title>Node1</title>
<polygon fill="#bfbfbf" stroke="black" points="356.5,-453.5 356.5,-620.5 499.5,-620.5 499.5,-453.5 356.5,-453.5"/>
<text text-anchor="middle" x="428" y="-608.5" font-family="Helvetica,sans-Serif" font-size="10.00">o2::trd::PadCalibrations&lt; T &gt;</text>
<polyline fill="none" stroke="black" points="356.5,-601.5 499.5,-601.5 "/>
<text text-anchor="start" x="364.5" y="-589.5" font-family="Helvetica,sans-Serif" font-size="10.00"># mreadOutChamber</text>
<polyline fill="none" stroke="black" points="356.5,-582.5 499.5,-582.5 "/>
<text text-anchor="start" x="364.5" y="-570.5" font-family="Helvetica,sans-Serif" font-size="10.00">+ PadCalibrations()</text>
<text text-anchor="start" x="364.5" y="-559.5" font-family="Helvetica,sans-Serif" font-size="10.00">+ ~PadCalibrations()</text>
<text text-anchor="start" x="364.5" y="-548.5" font-family="Helvetica,sans-Serif" font-size="10.00">+ getNChannels()</text>
<text text-anchor="start" x="364.5" y="-537.5" font-family="Helvetica,sans-Serif" font-size="10.00">+ getChamberPads()</text>
<text text-anchor="start" x="364.5" y="-526.5" font-family="Helvetica,sans-Serif" font-size="10.00">+ getValue()</text>
<text text-anchor="start" x="364.5" y="-515.5" font-family="Helvetica,sans-Serif" font-size="10.00">+ getPadValue()</text>
<text text-anchor="start" x="364.5" y="-504.5" font-family="Helvetica,sans-Serif" font-size="10.00">+ setPadValue()</text>
<text text-anchor="start" x="364.5" y="-493.5" font-family="Helvetica,sans-Serif" font-size="10.00">+ setPadValue()</text>
<text text-anchor="start" x="364.5" y="-482.5" font-family="Helvetica,sans-Serif" font-size="10.00">+ reset()</text>
<text text-anchor="start" x="364.5" y="-471.5" font-family="Helvetica,sans-Serif" font-size="10.00">+ init()</text>
<text text-anchor="start" x="364.5" y="-460.5" font-family="Helvetica,sans-Serif" font-size="10.00">+ dumpAllNonZeroValues()</text>
</g>
<!-- Node2 -->
<g id="node2" class="node"><title>Node2</title>
<g id="a_node2"><a xlink:href="../../da/dcc/classo2_1_1trd_1_1PadCalibrations.html" target="_top" xlink:title="{o2::trd::PadCalibrations\l\&lt; float \&gt;\n|# mreadOutChamber\l|+ PadCalibrations()\l+ ~PadCalibrations()\l+ getNChannels()\l+ getChamberPads()\l+ getValue()\l+ getPadValue()\l+ setPadValue()\l+ setPadValue()\l+ reset()\l+ init()\l+ dumpAllNonZeroValues()\l}">
<polygon fill="none" stroke="black" points="226,-227.5 226,-405.5 360,-405.5 360,-227.5 226,-227.5"/>
<text text-anchor="start" x="234" y="-393.5" font-family="Helvetica,sans-Serif" font-size="10.00">o2::trd::PadCalibrations</text>
<text text-anchor="middle" x="293" y="-382.5" font-family="Helvetica,sans-Serif" font-size="10.00">&lt; float &gt;</text>
<polyline fill="none" stroke="black" points="226,-375.5 360,-375.5 "/>
<text text-anchor="start" x="234" y="-363.5" font-family="Helvetica,sans-Serif" font-size="10.00"># mreadOutChamber</text>
<polyline fill="none" stroke="black" points="226,-356.5 360,-356.5 "/>
<text text-anchor="start" x="234" y="-344.5" font-family="Helvetica,sans-Serif" font-size="10.00">+ PadCalibrations()</text>
<text text-anchor="start" x="234" y="-333.5" font-family="Helvetica,sans-Serif" font-size="10.00">+ ~PadCalibrations()</text>
<text text-anchor="start" x="234" y="-322.5" font-family="Helvetica,sans-Serif" font-size="10.00">+ getNChannels()</text>
<text text-anchor="start" x="234" y="-311.5" font-family="Helvetica,sans-Serif" font-size="10.00">+ getChamberPads()</text>
<text text-anchor="start" x="234" y="-300.5" font-family="Helvetica,sans-Serif" font-size="10.00">+ getValue()</text>
<text text-anchor="start" x="234" y="-289.5" font-family="Helvetica,sans-Serif" font-size="10.00">+ getPadValue()</text>
<text text-anchor="start" x="234" y="-278.5" font-family="Helvetica,sans-Serif" font-size="10.00">+ setPadValue()</text>
<text text-anchor="start" x="234" y="-267.5" font-family="Helvetica,sans-Serif" font-size="10.00">+ setPadValue()</text>
<text text-anchor="start" x="234" y="-256.5" font-family="Helvetica,sans-Serif" font-size="10.00">+ reset()</text>
<text text-anchor="start" x="234" y="-245.5" font-family="Helvetica,sans-Serif" font-size="10.00">+ init()</text>
<text text-anchor="start" x="234" y="-234.5" font-family="Helvetica,sans-Serif" font-size="10.00">+ dumpAllNonZeroValues()</text>
</a>
</g>
</g>
<!-- Node1&#45;&gt;Node2 -->
<g id="edge1" class="edge"><title>Node1&#45;&gt;Node2</title>
<path fill="none" stroke="orange" d="M371.5,-444.553C363.553,-431.691 355.397,-418.49 347.489,-405.691"/>
<polygon fill="orange" stroke="orange" points="368.729,-446.727 376.962,-453.395 374.684,-443.048 368.729,-446.727"/>
<text text-anchor="middle" x="385" y="-427" font-family="Helvetica,sans-Serif" font-size="10.00"> &lt; float &gt;</text>
</g>
<!-- Node7 -->
<g id="node7" class="node"><title>Node7</title>
<g id="a_node7"><a xlink:href="../../da/dcc/classo2_1_1trd_1_1PadCalibrations.html" target="_top" xlink:title="{o2::trd::PadCalibrations\l\&lt; char \&gt;\n|# mreadOutChamber\l|+ PadCalibrations()\l+ ~PadCalibrations()\l+ getNChannels()\l+ getChamberPads()\l+ getValue()\l+ getPadValue()\l+ setPadValue()\l+ setPadValue()\l+ reset()\l+ init()\l+ dumpAllNonZeroValues()\l}">
<polygon fill="none" stroke="black" points="434,-227.5 434,-405.5 568,-405.5 568,-227.5 434,-227.5"/>
<text text-anchor="start" x="442" y="-393.5" font-family="Helvetica,sans-Serif" font-size="10.00">o2::trd::PadCalibrations</text>
<text text-anchor="middle" x="501" y="-382.5" font-family="Helvetica,sans-Serif" font-size="10.00">&lt; char &gt;</text>
<polyline fill="none" stroke="black" points="434,-375.5 568,-375.5 "/>
<text text-anchor="start" x="442" y="-363.5" font-family="Helvetica,sans-Serif" font-size="10.00"># mreadOutChamber</text>
<polyline fill="none" stroke="black" points="434,-356.5 568,-356.5 "/>
<text text-anchor="start" x="442" y="-344.5" font-family="Helvetica,sans-Serif" font-size="10.00">+ PadCalibrations()</text>
<text text-anchor="start" x="442" y="-333.5" font-family="Helvetica,sans-Serif" font-size="10.00">+ ~PadCalibrations()</text>
<text text-anchor="start" x="442" y="-322.5" font-family="Helvetica,sans-Serif" font-size="10.00">+ getNChannels()</text>
<text text-anchor="start" x="442" y="-311.5" font-family="Helvetica,sans-Serif" font-size="10.00">+ getChamberPads()</text>
<text text-anchor="start" x="442" y="-300.5" font-family="Helvetica,sans-Serif" font-size="10.00">+ getValue()</text>
<text text-anchor="start" x="442" y="-289.5" font-family="Helvetica,sans-Serif" font-size="10.00">+ getPadValue()</text>
<text text-anchor="start" x="442" y="-278.5" font-family="Helvetica,sans-Serif" font-size="10.00">+ setPadValue()</text>
<text text-anchor="start" x="442" y="-267.5" font-family="Helvetica,sans-Serif" font-size="10.00">+ setPadValue()</text>
<text text-anchor="start" x="442" y="-256.5" font-family="Helvetica,sans-Serif" font-size="10.00">+ reset()</text>
<text text-anchor="start" x="442" y="-245.5" font-family="Helvetica,sans-Serif" font-size="10.00">+ init()</text>
<text text-anchor="start" x="442" y="-234.5" font-family="Helvetica,sans-Serif" font-size="10.00">+ dumpAllNonZeroValues()</text>
</a>
</g>
</g>
<!-- Node1&#45;&gt;Node7 -->
<g id="edge6" class="edge"><title>Node1&#45;&gt;Node7</title>
<path fill="none" stroke="orange" d="M458.8,-443.811C463.019,-431.183 467.342,-418.244 471.536,-405.691"/>
<polygon fill="orange" stroke="orange" points="455.447,-442.801 455.598,-453.395 462.087,-445.019 455.447,-442.801"/>
<text text-anchor="middle" x="485" y="-427" font-family="Helvetica,sans-Serif" font-size="10.00"> &lt; char &gt;</text>
</g>
<!-- Node3 -->
<g id="node3" class="node"><title>Node3</title>
<g id="a_node3"><a xlink:href="../../d6/db0/classo2_1_1trd_1_1LocalGainFactor.html" target="_top" xlink:title="{o2::trd::LocalGainFactor\n||+ ~LocalGainFactor()\l}">
<polygon fill="none" stroke="black" points="0,-66.5 0,-123.5 122,-123.5 122,-66.5 0,-66.5"/>
<text text-anchor="middle" x="61" y="-111.5" font-family="Helvetica,sans-Serif" font-size="10.00">o2::trd::LocalGainFactor</text>
<polyline fill="none" stroke="black" points="0,-104.5 122,-104.5 "/>
<text text-anchor="middle" x="61" y="-92.5" font-family="Helvetica,sans-Serif" font-size="10.00"> </text>
<polyline fill="none" stroke="black" points="0,-85.5 122,-85.5 "/>
<text text-anchor="start" x="8" y="-73.5" font-family="Helvetica,sans-Serif" font-size="10.00">+ ~LocalGainFactor()</text>
</a>
</g>
</g>
<!-- Node2&#45;&gt;Node3 -->
<g id="edge2" class="edge"><title>Node2&#45;&gt;Node3</title>
<path fill="none" stroke="midnightblue" d="M217.438,-263.648C188.914,-242.405 157.08,-216.581 131,-190 111.05,-169.666 91.985,-143.46 78.8038,-123.885"/>
<polygon fill="none" stroke="midnightblue" points="215.655,-266.682 225.78,-269.802 219.81,-261.049 215.655,-266.682"/>
</g>
<!-- Node4 -->
<g id="node4" class="node"><title>Node4</title>
<g id="a_node4"><a xlink:href="../../d5/d64/classo2_1_1trd_1_1LocalT0.html" target="_top" xlink:title="{o2::trd::LocalT0\n||+ ~LocalT0()\l}">
<polygon fill="none" stroke="black" points="140.5,-66.5 140.5,-123.5 225.5,-123.5 225.5,-66.5 140.5,-66.5"/>
<text text-anchor="middle" x="183" y="-111.5" font-family="Helvetica,sans-Serif" font-size="10.00">o2::trd::LocalT0</text>
<polyline fill="none" stroke="black" points="140.5,-104.5 225.5,-104.5 "/>
<text text-anchor="middle" x="183" y="-92.5" font-family="Helvetica,sans-Serif" font-size="10.00"> </text>
<polyline fill="none" stroke="black" points="140.5,-85.5 225.5,-85.5 "/>
<text text-anchor="start" x="148.5" y="-73.5" font-family="Helvetica,sans-Serif" font-size="10.00">+ ~LocalT0()</text>
</a>
</g>
</g>
<!-- Node2&#45;&gt;Node4 -->
<g id="edge3" class="edge"><title>Node2&#45;&gt;Node4</title>
<path fill="none" stroke="midnightblue" d="M244.288,-218.298C227.019,-183.838 208.912,-147.706 196.898,-123.732"/>
<polygon fill="none" stroke="midnightblue" points="241.283,-220.114 248.893,-227.486 247.541,-216.977 241.283,-220.114"/>
</g>
<!-- Node5 -->
<g id="node5" class="node"><title>Node5</title>
<g id="a_node5"><a xlink:href="../../d9/d2f/classo2_1_1trd_1_1LocalVDrift.html" target="_top" xlink:title="{o2::trd::LocalVDrift\n||+ ~LocalVDrift()\l}">
<polygon fill="none" stroke="black" points="243.5,-66.5 243.5,-123.5 342.5,-123.5 342.5,-66.5 243.5,-66.5"/>
<text text-anchor="middle" x="293" y="-111.5" font-family="Helvetica,sans-Serif" font-size="10.00">o2::trd::LocalVDrift</text>
<polyline fill="none" stroke="black" points="243.5,-104.5 342.5,-104.5 "/>
<text text-anchor="middle" x="293" y="-92.5" font-family="Helvetica,sans-Serif" font-size="10.00"> </text>
<polyline fill="none" stroke="black" points="243.5,-85.5 342.5,-85.5 "/>
<text text-anchor="start" x="251.5" y="-73.5" font-family="Helvetica,sans-Serif" font-size="10.00">+ ~LocalVDrift()</text>
</a>
</g>
</g>
<!-- Node2&#45;&gt;Node5 -->
<g id="edge4" class="edge"><title>Node2&#45;&gt;Node5</title>
<path fill="none" stroke="midnightblue" d="M293,-217.417C293,-183.224 293,-147.502 293,-123.732"/>
<polygon fill="none" stroke="midnightblue" points="289.5,-217.486 293,-227.486 296.5,-217.486 289.5,-217.486"/>
</g>
<!-- Node6 -->
<g id="node6" class="node"><title>Node6</title>
<g id="a_node6"><a xlink:href="../../db/d98/classo2_1_1trd_1_1PadNoise.html" target="_top" xlink:title="{o2::trd::PadNoise\n||+ ~PadNoise()\l}">
<polygon fill="none" stroke="black" points="360.5,-66.5 360.5,-123.5 453.5,-123.5 453.5,-66.5 360.5,-66.5"/>
<text text-anchor="middle" x="407" y="-111.5" font-family="Helvetica,sans-Serif" font-size="10.00">o2::trd::PadNoise</text>
<polyline fill="none" stroke="black" points="360.5,-104.5 453.5,-104.5 "/>
<text text-anchor="middle" x="407" y="-92.5" font-family="Helvetica,sans-Serif" font-size="10.00"> </text>
<polyline fill="none" stroke="black" points="360.5,-85.5 453.5,-85.5 "/>
<text text-anchor="start" x="368.5" y="-73.5" font-family="Helvetica,sans-Serif" font-size="10.00">+ ~PadNoise()</text>
</a>
</g>
</g>
<!-- Node2&#45;&gt;Node6 -->
<g id="edge5" class="edge"><title>Node2&#45;&gt;Node6</title>
<path fill="none" stroke="midnightblue" d="M343.483,-218.298C361.38,-183.838 380.146,-147.706 392.597,-123.732"/>
<polygon fill="none" stroke="midnightblue" points="340.214,-216.998 338.711,-227.486 346.426,-220.224 340.214,-216.998"/>
</g>
<!-- Node8 -->
<g id="node8" class="node"><title>Node8</title>
<g id="a_node8"><a xlink:href="../../d9/dce/classo2_1_1trd_1_1PadStatus.html" target="_top" xlink:title="{o2::trd::PadStatus\n||+ ~PadStatus()\l+ isMasked()\l+ isBridgedLeft()\l+ isBridgedRight()\l+ isNotConnected()\l+ getNrows()\l+ getNcols()\l+ getChannel()\l+ getNChannels()\l+ getStatus()\l+ getStatus()\l+ setStatus()\l+ setStatus()\l}">
<polygon fill="none" stroke="black" points="471,-0.5 471,-189.5 573,-189.5 573,-0.5 471,-0.5"/>
<text text-anchor="middle" x="522" y="-177.5" font-family="Helvetica,sans-Serif" font-size="10.00">o2::trd::PadStatus</text>
<polyline fill="none" stroke="black" points="471,-170.5 573,-170.5 "/>
<text text-anchor="middle" x="522" y="-158.5" font-family="Helvetica,sans-Serif" font-size="10.00"> </text>
<polyline fill="none" stroke="black" points="471,-151.5 573,-151.5 "/>
<text text-anchor="start" x="479" y="-139.5" font-family="Helvetica,sans-Serif" font-size="10.00">+ ~PadStatus()</text>
<text text-anchor="start" x="479" y="-128.5" font-family="Helvetica,sans-Serif" font-size="10.00">+ isMasked()</text>
<text text-anchor="start" x="479" y="-117.5" font-family="Helvetica,sans-Serif" font-size="10.00">+ isBridgedLeft()</text>
<text text-anchor="start" x="479" y="-106.5" font-family="Helvetica,sans-Serif" font-size="10.00">+ isBridgedRight()</text>
<text text-anchor="start" x="479" y="-95.5" font-family="Helvetica,sans-Serif" font-size="10.00">+ isNotConnected()</text>
<text text-anchor="start" x="479" y="-84.5" font-family="Helvetica,sans-Serif" font-size="10.00">+ getNrows()</text>
<text text-anchor="start" x="479" y="-73.5" font-family="Helvetica,sans-Serif" font-size="10.00">+ getNcols()</text>
<text text-anchor="start" x="479" y="-62.5" font-family="Helvetica,sans-Serif" font-size="10.00">+ getChannel()</text>
<text text-anchor="start" x="479" y="-51.5" font-family="Helvetica,sans-Serif" font-size="10.00">+ getNChannels()</text>
<text text-anchor="start" x="479" y="-40.5" font-family="Helvetica,sans-Serif" font-size="10.00">+ getStatus()</text>
<text text-anchor="start" x="479" y="-29.5" font-family="Helvetica,sans-Serif" font-size="10.00">+ getStatus()</text>
<text text-anchor="start" x="479" y="-18.5" font-family="Helvetica,sans-Serif" font-size="10.00">+ setStatus()</text>
<text text-anchor="start" x="479" y="-7.5" font-family="Helvetica,sans-Serif" font-size="10.00">+ setStatus()</text>
</a>
</g>
</g>
<!-- Node7&#45;&gt;Node8 -->
<g id="edge7" class="edge"><title>Node7&#45;&gt;Node8</title>
<path fill="none" stroke="midnightblue" d="M510.401,-217.238C511.274,-208.108 512.158,-198.872 513.027,-189.784"/>
<polygon fill="none" stroke="midnightblue" points="506.889,-217.198 509.421,-227.486 513.857,-217.865 506.889,-217.198"/>
</g>
</g>
</svg>
