<?xml version="1.0" encoding="UTF-8" standalone="no"?>
<!DOCTYPE svg PUBLIC "-//W3C//DTD SVG 1.1//EN"
 "http://www.w3.org/Graphics/SVG/1.1/DTD/svg11.dtd">
<!-- Generated by graphviz version 2.38.0 (20140413.2041)
 -->
<!-- Title: TestPages::RawPage Pages: 1 -->
<svg width="1182pt" height="529pt"
 viewBox="0.00 0.00 1182.00 529.00" xmlns="http://www.w3.org/2000/svg" xmlns:xlink="http://www.w3.org/1999/xlink">
<g id="graph0" class="graph" transform="scale(1 1) rotate(0) translate(4 525)">
<title>TestPages::RawPage</title>
<!-- Node1 -->
<g id="node1" class="node"><title>Node1</title>
<polygon fill="#bfbfbf" stroke="black" points="399,-0.5 399,-57.5 512,-57.5 512,-0.5 399,-0.5"/>
<text text-anchor="middle" x="455.5" y="-45.5" font-family="Helvetica,sans-Serif" font-size="10.00">TestPages::RawPage</text>
<polyline fill="none" stroke="black" points="399,-38.5 512,-38.5 "/>
<text text-anchor="middle" x="455.5" y="-26.5" font-family="Helvetica,sans-Serif" font-size="10.00"> </text>
<polyline fill="none" stroke="black" points="399,-19.5 512,-19.5 "/>
<text text-anchor="middle" x="455.5" y="-7.5" font-family="Helvetica,sans-Serif" font-size="10.00"> </text>
</g>
<!-- Node2 -->
<g id="node2" class="node"><title>Node2</title>
<polygon fill="none" stroke="#bfbfbf" points="397,-177 397,-234 432,-234 432,-177 397,-177"/>
<text text-anchor="middle" x="414.5" y="-222" font-family="Helvetica,sans-Serif" font-size="10.00">char</text>
<polyline fill="none" stroke="#bfbfbf" points="397,-215 432,-215 "/>
<text text-anchor="middle" x="414.5" y="-203" font-family="Helvetica,sans-Serif" font-size="10.00"> </text>
<polyline fill="none" stroke="#bfbfbf" points="397,-196 432,-196 "/>
<text text-anchor="middle" x="414.5" y="-184" font-family="Helvetica,sans-Serif" font-size="10.00"> </text>
</g>
<!-- Node2&#45;&gt;Node1 -->
<g id="edge1" class="edge"><title>Node2&#45;&gt;Node1</title>
<path fill="none" stroke="#404040" d="M420.997,-176.85C427.804,-147.877 438.558,-102.107 446.25,-69.3681"/>
<polygon fill="none" stroke="#404040" points="446.289,-69.2026 443.767,-62.4467 449.034,-57.5207 451.555,-64.2766 446.289,-69.2026"/>
<text text-anchor="middle" x="459.5" y="-79" font-family="Helvetica,sans-Serif" font-size="10.00"> +data</text>
</g>
<!-- Node3 -->
<g id="node3" class="node"><title>Node3</title>
<g id="a_node3"><a xlink:href="../../d8/d47/structo2_1_1header_1_1RAWDataHeaderV4.html" target="_top" xlink:title="{o2::header::RAWDataHeaderV4\n|+ word0\l+ blockLength\l+ zero0\l+ word1\l+ word2\l+ word3\l+ word4\l+ heartbeatBC\l+ zero42\l+ word5\l+ word6\l+ detectorField\l+ stop\l+ pageCnt\l|}">
<polygon fill="none" stroke="black" points="450,-105.5 450,-305.5 607,-305.5 607,-105.5 450,-105.5"/>
<text text-anchor="middle" x="528.5" y="-293.5" font-family="Helvetica,sans-Serif" font-size="10.00">o2::header::RAWDataHeaderV4</text>
<polyline fill="none" stroke="black" points="450,-286.5 607,-286.5 "/>
<text text-anchor="start" x="458" y="-274.5" font-family="Helvetica,sans-Serif" font-size="10.00">+ word0</text>
<text text-anchor="start" x="458" y="-263.5" font-family="Helvetica,sans-Serif" font-size="10.00">+ blockLength</text>
<text text-anchor="start" x="458" y="-252.5" font-family="Helvetica,sans-Serif" font-size="10.00">+ zero0</text>
<text text-anchor="start" x="458" y="-241.5" font-family="Helvetica,sans-Serif" font-size="10.00">+ word1</text>
<text text-anchor="start" x="458" y="-230.5" font-family="Helvetica,sans-Serif" font-size="10.00">+ word2</text>
<text text-anchor="start" x="458" y="-219.5" font-family="Helvetica,sans-Serif" font-size="10.00">+ word3</text>
<text text-anchor="start" x="458" y="-208.5" font-family="Helvetica,sans-Serif" font-size="10.00">+ word4</text>
<text text-anchor="start" x="458" y="-197.5" font-family="Helvetica,sans-Serif" font-size="10.00">+ heartbeatBC</text>
<text text-anchor="start" x="458" y="-186.5" font-family="Helvetica,sans-Serif" font-size="10.00">+ zero42</text>
<text text-anchor="start" x="458" y="-175.5" font-family="Helvetica,sans-Serif" font-size="10.00">+ word5</text>
<text text-anchor="start" x="458" y="-164.5" font-family="Helvetica,sans-Serif" font-size="10.00">+ word6</text>
<text text-anchor="start" x="458" y="-153.5" font-family="Helvetica,sans-Serif" font-size="10.00">+ detectorField</text>
<text text-anchor="start" x="458" y="-142.5" font-family="Helvetica,sans-Serif" font-size="10.00">+ stop</text>
<text text-anchor="start" x="458" y="-131.5" font-family="Helvetica,sans-Serif" font-size="10.00">+ pageCnt</text>
<polyline fill="none" stroke="black" points="450,-124.5 607,-124.5 "/>
<text text-anchor="middle" x="528.5" y="-112.5" font-family="Helvetica,sans-Serif" font-size="10.00"> </text>
</a>
</g>
</g>
<!-- Node3&#45;&gt;Node1 -->
<g id="edge2" class="edge"><title>Node3&#45;&gt;Node1</title>
<path fill="none" stroke="#404040" d="M486.988,-105.27C481.614,-92.4221 476.387,-79.9277 471.786,-68.9294"/>
<polygon fill="none" stroke="#404040" points="471.693,-68.7068 465.687,-64.7154 467.061,-57.6365 473.067,-61.6279 471.693,-68.7068"/>
<text text-anchor="middle" x="491" y="-79" font-family="Helvetica,sans-Serif" font-size="10.00"> +rdh</text>
</g>
<!-- Node4 -->
<g id="node4" class="node"><title>Node4</title>
<polygon fill="none" stroke="#bfbfbf" points="0,-463.5 0,-520.5 97,-520.5 97,-463.5 0,-463.5"/>
<text text-anchor="middle" x="48.5" y="-508.5" font-family="Helvetica,sans-Serif" font-size="10.00">anonymous:+@68</text>
<polyline fill="none" stroke="#bfbfbf" points="0,-501.5 97,-501.5 "/>
<text text-anchor="middle" x="48.5" y="-489.5" font-family="Helvetica,sans-Serif" font-size="10.00"> </text>
<polyline fill="none" stroke="#bfbfbf" points="0,-482.5 97,-482.5 "/>
<text text-anchor="middle" x="48.5" y="-470.5" font-family="Helvetica,sans-Serif" font-size="10.00"> </text>
</g>
<!-- Node4&#45;&gt;Node3 -->
<g id="edge3" class="edge"><title>Node4&#45;&gt;Node3</title>
<path fill="none" stroke="#404040" d="M52.3883,-463.495C59.4403,-425 78.2665,-356.17 125.5,-324 180.62,-286.458 358.805,-331.747 438.481,-305.454"/>
<polygon fill="none" stroke="#404040" points="438.819,-305.317 442.881,-299.359 449.943,-300.817 445.881,-306.775 438.819,-305.317"/>
<text text-anchor="middle" x="141" y="-382" font-family="Helvetica,sans-Serif" font-size="10.00"> +@68</text>
</g>
<!-- Node5 -->
<g id="node5" class="node"><title>Node5</title>
<polygon fill="none" stroke="#bfbfbf" points="115,-463.5 115,-520.5 212,-520.5 212,-463.5 115,-463.5"/>
<text text-anchor="middle" x="163.5" y="-508.5" font-family="Helvetica,sans-Serif" font-size="10.00">anonymous:+@70</text>
<polyline fill="none" stroke="#bfbfbf" points="115,-501.5 212,-501.5 "/>
<text text-anchor="middle" x="163.5" y="-489.5" font-family="Helvetica,sans-Serif" font-size="10.00"> </text>
<polyline fill="none" stroke="#bfbfbf" points="115,-482.5 212,-482.5 "/>
<text text-anchor="middle" x="163.5" y="-470.5" font-family="Helvetica,sans-Serif" font-size="10.00"> </text>
</g>
<!-- Node5&#45;&gt;Node3 -->
<g id="edge4" class="edge"><title>Node5&#45;&gt;Node3</title>
<path fill="none" stroke="#404040" d="M160.748,-463.239C158.709,-425.411 161.513,-358.447 201.5,-324 239.409,-291.342 374.924,-325.066 438.545,-305.268"/>
<polygon fill="none" stroke="#404040" points="438.758,-305.183 442.851,-299.246 449.905,-300.741 445.812,-306.678 438.758,-305.183"/>
<text text-anchor="middle" x="217" y="-382" font-family="Helvetica,sans-Serif" font-size="10.00"> +@70</text>
</g>
<!-- Node6 -->
<g id="node6" class="node"><title>Node6</title>
<polygon fill="none" stroke="#bfbfbf" points="230,-463.5 230,-520.5 281,-520.5 281,-463.5 230,-463.5"/>
<text text-anchor="middle" x="255.5" y="-508.5" font-family="Helvetica,sans-Serif" font-size="10.00">uint64_t</text>
<polyline fill="none" stroke="#bfbfbf" points="230,-501.5 281,-501.5 "/>
<text text-anchor="middle" x="255.5" y="-489.5" font-family="Helvetica,sans-Serif" font-size="10.00"> </text>
<polyline fill="none" stroke="#bfbfbf" points="230,-482.5 281,-482.5 "/>
<text text-anchor="middle" x="255.5" y="-470.5" font-family="Helvetica,sans-Serif" font-size="10.00"> </text>
</g>
<!-- Node6&#45;&gt;Node3 -->
<g id="edge5" class="edge"><title>Node6&#45;&gt;Node3</title>
<path fill="none" stroke="#404040" d="M246.259,-463.231C235.915,-426.323 224.789,-361.423 259.5,-324 284.947,-296.564 387.566,-320.279 438.633,-305.089"/>
<polygon fill="none" stroke="#404040" points="438.699,-305.063 442.802,-299.133 449.854,-300.639 445.751,-306.569 438.699,-305.063"/>
<text text-anchor="middle" x="287" y="-437" font-family="Helvetica,sans-Serif" font-size="10.00"> +word7</text>
<text text-anchor="middle" x="287" y="-426" font-family="Helvetica,sans-Serif" font-size="10.00">+triggerType</text>
<text text-anchor="middle" x="287" y="-415" font-family="Helvetica,sans-Serif" font-size="10.00">+zero6</text>
<text text-anchor="middle" x="287" y="-404" font-family="Helvetica,sans-Serif" font-size="10.00">+par</text>
<text text-anchor="middle" x="287" y="-393" font-family="Helvetica,sans-Serif" font-size="10.00">+feeId</text>
<text text-anchor="middle" x="287" y="-382" font-family="Helvetica,sans-Serif" font-size="10.00">+priority</text>
<text text-anchor="middle" x="287" y="-371" font-family="Helvetica,sans-Serif" font-size="10.00">+headerSize</text>
<text text-anchor="middle" x="287" y="-360" font-family="Helvetica,sans-Serif" font-size="10.00">+version</text>
<text text-anchor="middle" x="287" y="-349" font-family="Helvetica,sans-Serif" font-size="10.00">+triggerBC</text>
<text text-anchor="middle" x="287" y="-338" font-family="Helvetica,sans-Serif" font-size="10.00">+zero41</text>
<text text-anchor="middle" x="287" y="-327" font-family="Helvetica,sans-Serif" font-size="10.00">...</text>
</g>
<!-- Node7 -->
<g id="node7" class="node"><title>Node7</title>
<polygon fill="none" stroke="#bfbfbf" points="299,-463.5 299,-520.5 350,-520.5 350,-463.5 299,-463.5"/>
<text text-anchor="middle" x="324.5" y="-508.5" font-family="Helvetica,sans-Serif" font-size="10.00">uint16_t</text>
<polyline fill="none" stroke="#bfbfbf" points="299,-501.5 350,-501.5 "/>
<text text-anchor="middle" x="324.5" y="-489.5" font-family="Helvetica,sans-Serif" font-size="10.00"> </text>
<polyline fill="none" stroke="#bfbfbf" points="299,-482.5 350,-482.5 "/>
<text text-anchor="middle" x="324.5" y="-470.5" font-family="Helvetica,sans-Serif" font-size="10.00"> </text>
</g>
<!-- Node7&#45;&gt;Node3 -->
<g id="edge6" class="edge"><title>Node7&#45;&gt;Node3</title>
<path fill="none" stroke="#404040" d="M320.3,-463.498C316.351,-426.591 315.572,-361.367 351.5,-324 377.067,-297.409 401.046,-321.235 438.868,-305.564"/>
<polygon fill="none" stroke="#404040" points="439.19,-305.403 442.76,-299.137 449.916,-300.022 446.347,-306.288 439.19,-305.403"/>
<text text-anchor="middle" x="368.5" y="-382" font-family="Helvetica,sans-Serif" font-size="10.00"> +cruID</text>
</g>
<!-- Node8 -->
<g id="node8" class="node"><title>Node8</title>
<polygon fill="none" stroke="#bfbfbf" points="368.5,-463.5 368.5,-520.5 414.5,-520.5 414.5,-463.5 368.5,-463.5"/>
<text text-anchor="middle" x="391.5" y="-508.5" font-family="Helvetica,sans-Serif" font-size="10.00">uint8_t</text>
<polyline fill="none" stroke="#bfbfbf" points="368.5,-501.5 414.5,-501.5 "/>
<text text-anchor="middle" x="391.5" y="-489.5" font-family="Helvetica,sans-Serif" font-size="10.00"> </text>
<polyline fill="none" stroke="#bfbfbf" points="368.5,-482.5 414.5,-482.5 "/>
<text text-anchor="middle" x="391.5" y="-470.5" font-family="Helvetica,sans-Serif" font-size="10.00"> </text>
</g>
<!-- Node8&#45;&gt;Node3 -->
<g id="edge7" class="edge"><title>Node8&#45;&gt;Node3</title>
<path fill="none" stroke="#404040" d="M389.152,-463.386C387.512,-428.368 389.241,-367.339 415.5,-324 422.595,-312.29 430.346,-315.185 440.5,-306 440.698,-305.821 440.895,-305.642 441.093,-305.462"/>
<polygon fill="none" stroke="#404040" points="441.229,-305.335 442.869,-298.313 449.982,-297.126 448.341,-304.148 441.229,-305.335"/>
<text text-anchor="middle" x="450.5" y="-393" font-family="Helvetica,sans-Serif" font-size="10.00"> +linkID</text>
<text text-anchor="middle" x="450.5" y="-382" font-family="Helvetica,sans-Serif" font-size="10.00">+endPointID</text>
<text text-anchor="middle" x="450.5" y="-371" font-family="Helvetica,sans-Serif" font-size="10.00">+packetCounter</text>
</g>
<!-- Node9 -->
<g id="node9" class="node"><title>Node9</title>
<polygon fill="none" stroke="#bfbfbf" points="433,-463.5 433,-520.5 530,-520.5 530,-463.5 433,-463.5"/>
<text text-anchor="middle" x="481.5" y="-508.5" font-family="Helvetica,sans-Serif" font-size="10.00">anonymous:+@72</text>
<polyline fill="none" stroke="#bfbfbf" points="433,-501.5 530,-501.5 "/>
<text text-anchor="middle" x="481.5" y="-489.5" font-family="Helvetica,sans-Serif" font-size="10.00"> </text>
<polyline fill="none" stroke="#bfbfbf" points="433,-482.5 530,-482.5 "/>
<text text-anchor="middle" x="481.5" y="-470.5" font-family="Helvetica,sans-Serif" font-size="10.00"> </text>
</g>
<!-- Node9&#45;&gt;Node3 -->
<g id="edge8" class="edge"><title>Node9&#45;&gt;Node3</title>
<path fill="none" stroke="#404040" d="M486.049,-463.462C491.618,-429.755 501.39,-370.601 510.156,-317.541"/>
<polygon fill="none" stroke="#404040" points="510.169,-317.46 507.201,-310.888 512.125,-305.621 515.094,-312.192 510.169,-317.46"/>
<text text-anchor="middle" x="524" y="-382" font-family="Helvetica,sans-Serif" font-size="10.00"> +@72</text>
</g>
<!-- Node10 -->
<g id="node10" class="node"><title>Node10</title>
<polygon fill="none" stroke="#bfbfbf" points="548,-463.5 548,-520.5 599,-520.5 599,-463.5 548,-463.5"/>
<text text-anchor="middle" x="573.5" y="-508.5" font-family="Helvetica,sans-Serif" font-size="10.00">uint32_t</text>
<polyline fill="none" stroke="#bfbfbf" points="548,-501.5 599,-501.5 "/>
<text text-anchor="middle" x="573.5" y="-489.5" font-family="Helvetica,sans-Serif" font-size="10.00"> </text>
<polyline fill="none" stroke="#bfbfbf" points="548,-482.5 599,-482.5 "/>
<text text-anchor="middle" x="573.5" y="-470.5" font-family="Helvetica,sans-Serif" font-size="10.00"> </text>
</g>
<!-- Node10&#45;&gt;Node3 -->
<g id="edge9" class="edge"><title>Node10&#45;&gt;Node3</title>
<path fill="none" stroke="#404040" d="M569.144,-463.462C563.813,-429.755 554.456,-370.601 546.064,-317.541"/>
<polygon fill="none" stroke="#404040" points="546.053,-317.473 541.165,-312.172 544.178,-305.621 549.066,-310.922 546.053,-317.473"/>
<text text-anchor="middle" x="602" y="-398.5" font-family="Helvetica,sans-Serif" font-size="10.00"> +heartbeatOrbit</text>
<text text-anchor="middle" x="602" y="-387.5" font-family="Helvetica,sans-Serif" font-size="10.00">+triggerOrbit</text>
<text text-anchor="middle" x="602" y="-376.5" font-family="Helvetica,sans-Serif" font-size="10.00">+memorySize</text>
<text text-anchor="middle" x="602" y="-365.5" font-family="Helvetica,sans-Serif" font-size="10.00">+offsetToNext</text>
</g>
<!-- Node11 -->
<g id="node11" class="node"><title>Node11</title>
<polygon fill="none" stroke="#bfbfbf" points="617,-463.5 617,-520.5 714,-520.5 714,-463.5 617,-463.5"/>
<text text-anchor="middle" x="665.5" y="-508.5" font-family="Helvetica,sans-Serif" font-size="10.00">anonymous:+@74</text>
<polyline fill="none" stroke="#bfbfbf" points="617,-501.5 714,-501.5 "/>
<text text-anchor="middle" x="665.5" y="-489.5" font-family="Helvetica,sans-Serif" font-size="10.00"> </text>
<polyline fill="none" stroke="#bfbfbf" points="617,-482.5 714,-482.5 "/>
<text text-anchor="middle" x="665.5" y="-470.5" font-family="Helvetica,sans-Serif" font-size="10.00"> </text>
</g>
<!-- Node11&#45;&gt;Node3 -->
<g id="edge10" class="edge"><title>Node11&#45;&gt;Node3</title>
<path fill="none" stroke="#404040" d="M666.585,-463.481C666.843,-429.095 663.609,-369.27 641.5,-324 634.572,-309.814 625.298,-296.232 615.029,-283.663"/>
<polygon fill="none" stroke="#404040" points="614.793,-283.386 607.856,-281.417 607.006,-274.256 613.943,-276.225 614.793,-283.386"/>
<text text-anchor="middle" x="682" y="-382" font-family="Helvetica,sans-Serif" font-size="10.00"> +@74</text>
</g>
<!-- Node12 -->
<g id="node12" class="node"><title>Node12</title>
<polygon fill="none" stroke="#bfbfbf" points="732,-463.5 732,-520.5 829,-520.5 829,-463.5 732,-463.5"/>
<text text-anchor="middle" x="780.5" y="-508.5" font-family="Helvetica,sans-Serif" font-size="10.00">anonymous:+@76</text>
<polyline fill="none" stroke="#bfbfbf" points="732,-501.5 829,-501.5 "/>
<text text-anchor="middle" x="780.5" y="-489.5" font-family="Helvetica,sans-Serif" font-size="10.00"> </text>
<polyline fill="none" stroke="#bfbfbf" points="732,-482.5 829,-482.5 "/>
<text text-anchor="middle" x="780.5" y="-470.5" font-family="Helvetica,sans-Serif" font-size="10.00"> </text>
</g>
<!-- Node12&#45;&gt;Node3 -->
<g id="edge11" class="edge"><title>Node12&#45;&gt;Node3</title>
<path fill="none" stroke="#404040" d="M772.45,-463.318C761.112,-427.953 737.689,-366.273 701.5,-324 678.161,-296.737 647.053,-273.01 617.656,-254.153"/>
<polygon fill="none" stroke="#404040" points="617.511,-254.062 610.303,-254.264 607.344,-247.688 614.552,-247.486 617.511,-254.062"/>
<text text-anchor="middle" x="781" y="-382" font-family="Helvetica,sans-Serif" font-size="10.00"> +@76</text>
</g>
<!-- Node13 -->
<g id="node13" class="node"><title>Node13</title>
<polygon fill="none" stroke="#bfbfbf" points="847,-463.5 847,-520.5 944,-520.5 944,-463.5 847,-463.5"/>
<text text-anchor="middle" x="895.5" y="-508.5" font-family="Helvetica,sans-Serif" font-size="10.00">anonymous:+@78</text>
<polyline fill="none" stroke="#bfbfbf" points="847,-501.5 944,-501.5 "/>
<text text-anchor="middle" x="895.5" y="-489.5" font-family="Helvetica,sans-Serif" font-size="10.00"> </text>
<polyline fill="none" stroke="#bfbfbf" points="847,-482.5 944,-482.5 "/>
<text text-anchor="middle" x="895.5" y="-470.5" font-family="Helvetica,sans-Serif" font-size="10.00"> </text>
</g>
<!-- Node13&#45;&gt;Node3 -->
<g id="edge12" class="edge"><title>Node13&#45;&gt;Node3</title>
<path fill="none" stroke="#404040" d="M886.159,-463.435C872.565,-427.056 844.096,-363.068 800.5,-324 748.802,-277.671 676.022,-247.535 618.754,-229.393"/>
<polygon fill="none" stroke="#404040" points="618.618,-229.351 611.705,-231.405 607.151,-225.813 614.064,-223.76 618.618,-229.351"/>
<text text-anchor="middle" x="895" y="-382" font-family="Helvetica,sans-Serif" font-size="10.00"> +@78</text>
</g>
<!-- Node14 -->
<g id="node14" class="node"><title>Node14</title>
<polygon fill="none" stroke="#bfbfbf" points="962,-463.5 962,-520.5 1059,-520.5 1059,-463.5 962,-463.5"/>
<text text-anchor="middle" x="1010.5" y="-508.5" font-family="Helvetica,sans-Serif" font-size="10.00">anonymous:+@66</text>
<polyline fill="none" stroke="#bfbfbf" points="962,-501.5 1059,-501.5 "/>
<text text-anchor="middle" x="1010.5" y="-489.5" font-family="Helvetica,sans-Serif" font-size="10.00"> </text>
<polyline fill="none" stroke="#bfbfbf" points="962,-482.5 1059,-482.5 "/>
<text text-anchor="middle" x="1010.5" y="-470.5" font-family="Helvetica,sans-Serif" font-size="10.00"> </text>
</g>
<!-- Node14&#45;&gt;Node3 -->
<g id="edge13" class="edge"><title>Node14&#45;&gt;Node3</title>
<path fill="none" stroke="#404040" d="M1001.84,-463.322C988.816,-426.214 960.682,-360.759 914.5,-324 828.699,-255.704 703.487,-226.997 619.152,-215"/>
<polygon fill="none" stroke="#404040" points="618.906,-214.966 612.421,-218.121 607.015,-213.348 613.5,-210.194 618.906,-214.966"/>
<text text-anchor="middle" x="1010" y="-382" font-family="Helvetica,sans-Serif" font-size="10.00"> +@66</text>
</g>
<!-- Node15 -->
<g id="node15" class="node"><title>Node15</title>
<polygon fill="none" stroke="#bfbfbf" points="1077,-463.5 1077,-520.5 1174,-520.5 1174,-463.5 1077,-463.5"/>
<text text-anchor="middle" x="1125.5" y="-508.5" font-family="Helvetica,sans-Serif" font-size="10.00">anonymous:+@80</text>
<polyline fill="none" stroke="#bfbfbf" points="1077,-501.5 1174,-501.5 "/>
<text text-anchor="middle" x="1125.5" y="-489.5" font-family="Helvetica,sans-Serif" font-size="10.00"> </text>
<polyline fill="none" stroke="#bfbfbf" points="1077,-482.5 1174,-482.5 "/>
<text text-anchor="middle" x="1125.5" y="-470.5" font-family="Helvetica,sans-Serif" font-size="10.00"> </text>
</g>
<!-- Node15&#45;&gt;Node3 -->
<g id="edge14" class="edge"><title>Node15&#45;&gt;Node3</title>
<path fill="none" stroke="#404040" d="M1117.28,-463.2C1104.7,-425.642 1076.99,-359.336 1029.5,-324 907.863,-233.489 727.323,-211.344 619.433,-206.699"/>
<polygon fill="none" stroke="#404040" points="619.282,-206.694 613.134,-210.463 607.29,-206.237 613.438,-202.468 619.282,-206.694"/>
<text text-anchor="middle" x="1125" y="-382" font-family="Helvetica,sans-Serif" font-size="10.00"> +@80</text>
</g>
</g>
</svg>
