<?xml version="1.0" encoding="UTF-8" standalone="no"?>
<!DOCTYPE svg PUBLIC "-//W3C//DTD SVG 1.1//EN"
 "http://www.w3.org/Graphics/SVG/1.1/DTD/svg11.dtd">
<!-- Generated by graphviz version 2.38.0 (20140413.2041)
 -->
<!-- Title: /home/travis/build/AliceO2Group/AliceO2/Common/Utils/include/CommonUtils/BoostSerializer.h Pages: 1 -->
<svg width="1597pt" height="128pt"
 viewBox="0.00 0.00 1597.00 128.00" xmlns="http://www.w3.org/2000/svg" xmlns:xlink="http://www.w3.org/1999/xlink">
<g id="graph0" class="graph" transform="scale(1 1) rotate(0) translate(4 124)">
<title>/home/travis/build/AliceO2Group/AliceO2/Common/Utils/include/CommonUtils/BoostSerializer.h</title>
<!-- Node1 -->
<g id="node1" class="node"><title>Node1</title>
<polygon fill="#bfbfbf" stroke="black" points="499.5,-67.5 499.5,-119.5 656.5,-119.5 656.5,-67.5 499.5,-67.5"/>
<text text-anchor="start" x="507.5" y="-107.5" font-family="Helvetica,sans-Serif" font-size="10.00">/home/travis/build</text>
<text text-anchor="start" x="507.5" y="-96.5" font-family="Helvetica,sans-Serif" font-size="10.00">/AliceO2Group/AliceO2</text>
<text text-anchor="start" x="507.5" y="-85.5" font-family="Helvetica,sans-Serif" font-size="10.00">/Common/Utils/include</text>
<text text-anchor="middle" x="578" y="-74.5" font-family="Helvetica,sans-Serif" font-size="10.00">/CommonUtils/BoostSerializer.h</text>
</g>
<!-- Node2 -->
<g id="node2" class="node"><title>Node2</title>
<polygon fill="none" stroke="#bfbfbf" points="0,-6 0,-25 40,-25 40,-6 0,-6"/>
<text text-anchor="middle" x="20" y="-13" font-family="Helvetica,sans-Serif" font-size="10.00">utility</text>
</g>
<!-- Node1&#45;&gt;Node2 -->
<g id="edge1" class="edge"><title>Node1&#45;&gt;Node2</title>
<path fill="none" stroke="midnightblue" d="M499.205,-91.8071C394.326,-88.9877 204.061,-77.2203 49,-31 47.3311,-30.5025 45.642,-29.9135 43.962,-29.2624"/>
<polygon fill="midnightblue" stroke="midnightblue" points="45.1978,-25.9803 34.6432,-25.0582 42.3191,-32.361 45.1978,-25.9803"/>
</g>
<!-- Node3 -->
<g id="node3" class="node"><title>Node3</title>
<polygon fill="none" stroke="#bfbfbf" points="58,-6 58,-25 120,-25 120,-6 58,-6"/>
<text text-anchor="middle" x="89" y="-13" font-family="Helvetica,sans-Serif" font-size="10.00">type_traits</text>
</g>
<!-- Node1&#45;&gt;Node3 -->
<g id="edge2" class="edge"><title>Node1&#45;&gt;Node3</title>
<path fill="none" stroke="midnightblue" d="M499.184,-86.7837C408.772,-79.0606 256.567,-62.481 129,-31 125.943,-30.2456 122.795,-29.3405 119.672,-28.3557"/>
<polygon fill="midnightblue" stroke="midnightblue" points="120.511,-24.9439 109.916,-25.0257 118.249,-31.5686 120.511,-24.9439"/>
</g>
<!-- Node4 -->
<g id="node4" class="node"><title>Node4</title>
<polygon fill="none" stroke="#bfbfbf" points="138,-6 138,-25 176,-25 176,-6 138,-6"/>
<text text-anchor="middle" x="157" y="-13" font-family="Helvetica,sans-Serif" font-size="10.00">array</text>
</g>
<!-- Node1&#45;&gt;Node4 -->
<g id="edge3" class="edge"><title>Node1&#45;&gt;Node4</title>
<path fill="none" stroke="midnightblue" d="M499.459,-87.6762C418.862,-81.011 290.662,-65.6089 185,-31 183.569,-30.5314 182.123,-29.9962 180.681,-29.414"/>
<polygon fill="midnightblue" stroke="midnightblue" points="181.976,-26.1563 171.434,-25.1005 179.017,-32.5 181.976,-26.1563"/>
</g>
<!-- Node5 -->
<g id="node5" class="node"><title>Node5</title>
<polygon fill="none" stroke="#bfbfbf" points="194,-6 194,-25 238,-25 238,-6 194,-6"/>
<text text-anchor="middle" x="216" y="-13" font-family="Helvetica,sans-Serif" font-size="10.00">vector</text>
</g>
<!-- Node1&#45;&gt;Node5 -->
<g id="edge4" class="edge"><title>Node1&#45;&gt;Node5</title>
<path fill="none" stroke="midnightblue" d="M499.388,-83.9488C431.172,-75.1184 330.392,-58.6574 246,-31 244.375,-30.4674 242.725,-29.8645 241.078,-29.2145"/>
<polygon fill="midnightblue" stroke="midnightblue" points="242.425,-25.9833 231.864,-25.1406 239.594,-32.3855 242.425,-25.9833"/>
</g>
<!-- Node6 -->
<g id="node6" class="node"><title>Node6</title>
<polygon fill="none" stroke="#bfbfbf" points="255.5,-6 255.5,-25 284.5,-25 284.5,-6 255.5,-6"/>
<text text-anchor="middle" x="270" y="-13" font-family="Helvetica,sans-Serif" font-size="10.00">list</text>
</g>
<!-- Node1&#45;&gt;Node6 -->
<g id="edge5" class="edge"><title>Node1&#45;&gt;Node6</title>
<path fill="none" stroke="midnightblue" d="M499.3,-83.0727C440.807,-74.2813 359.899,-58.3052 293,-31 292.279,-30.7057 291.555,-30.3891 290.832,-30.0542"/>
<polygon fill="midnightblue" stroke="midnightblue" points="292.188,-26.8038 281.746,-25.0098 288.79,-32.9239 292.188,-26.8038"/>
</g>
<!-- Node7 -->
<g id="node7" class="node"><title>Node7</title>
<polygon fill="none" stroke="#bfbfbf" points="302.5,-6 302.5,-25 337.5,-25 337.5,-6 302.5,-6"/>
<text text-anchor="middle" x="320" y="-13" font-family="Helvetica,sans-Serif" font-size="10.00">map</text>
</g>
<!-- Node1&#45;&gt;Node7 -->
<g id="edge6" class="edge"><title>Node1&#45;&gt;Node7</title>
<path fill="none" stroke="midnightblue" d="M499.284,-76.3374C453.925,-65.8468 396.304,-50.4938 347,-31 345.961,-30.5892 344.911,-30.1482 343.858,-29.6847"/>
<polygon fill="midnightblue" stroke="midnightblue" points="345.077,-26.3839 334.558,-25.1156 341.99,-32.6666 345.077,-26.3839"/>
</g>
<!-- Node8 -->
<g id="node8" class="node"><title>Node8</title>
<polygon fill="none" stroke="#bfbfbf" points="356,-6 356,-25 386,-25 386,-6 356,-6"/>
<text text-anchor="middle" x="371" y="-13" font-family="Helvetica,sans-Serif" font-size="10.00">set</text>
</g>
<!-- Node1&#45;&gt;Node8 -->
<g id="edge7" class="edge"><title>Node1&#45;&gt;Node8</title>
<path fill="none" stroke="midnightblue" d="M499.067,-70.1447C466.245,-59.7861 428.149,-46.3572 395,-31 394.304,-30.6777 393.603,-30.3402 392.9,-29.9905"/>
<polygon fill="midnightblue" stroke="midnightblue" points="394.362,-26.7991 383.919,-25.0132 390.969,-32.9218 394.362,-26.7991"/>
</g>
<!-- Node9 -->
<g id="node9" class="node"><title>Node9</title>
<polygon fill="none" stroke="#bfbfbf" points="404,-0.5 404,-30.5 508,-30.5 508,-0.5 404,-0.5"/>
<text text-anchor="start" x="412" y="-18.5" font-family="Helvetica,sans-Serif" font-size="10.00">boost/archive/binary</text>
<text text-anchor="middle" x="456" y="-7.5" font-family="Helvetica,sans-Serif" font-size="10.00">_iarchive.hpp</text>
</g>
<!-- Node1&#45;&gt;Node9 -->
<g id="edge8" class="edge"><title>Node1&#45;&gt;Node9</title>
<path fill="none" stroke="midnightblue" d="M537.715,-67.4041C521.353,-57.2118 502.736,-45.614 487.408,-36.0656"/>
<polygon fill="midnightblue" stroke="midnightblue" points="489.144,-33.0234 478.805,-30.7066 485.442,-38.9648 489.144,-33.0234"/>
</g>
<!-- Node10 -->
<g id="node10" class="node"><title>Node10</title>
<polygon fill="none" stroke="#bfbfbf" points="526,-0.5 526,-30.5 630,-30.5 630,-0.5 526,-0.5"/>
<text text-anchor="start" x="534" y="-18.5" font-family="Helvetica,sans-Serif" font-size="10.00">boost/archive/binary</text>
<text text-anchor="middle" x="578" y="-7.5" font-family="Helvetica,sans-Serif" font-size="10.00">_oarchive.hpp</text>
</g>
<!-- Node1&#45;&gt;Node10 -->
<g id="edge9" class="edge"><title>Node1&#45;&gt;Node10</title>
<path fill="none" stroke="midnightblue" d="M578,-67.1931C578,-58.7864 578,-49.4433 578,-41.0914"/>
<polygon fill="midnightblue" stroke="midnightblue" points="581.5,-40.8452 578,-30.8453 574.5,-40.8453 581.5,-40.8452"/>
</g>
<!-- Node11 -->
<g id="node11" class="node"><title>Node11</title>
<polygon fill="none" stroke="#bfbfbf" points="648,-0.5 648,-30.5 784,-30.5 784,-0.5 648,-0.5"/>
<text text-anchor="start" x="656" y="-18.5" font-family="Helvetica,sans-Serif" font-size="10.00">boost/serialization</text>
<text text-anchor="middle" x="716" y="-7.5" font-family="Helvetica,sans-Serif" font-size="10.00">/is_bitwise_serializable.hpp</text>
</g>
<!-- Node1&#45;&gt;Node11 -->
<g id="edge10" class="edge"><title>Node1&#45;&gt;Node11</title>
<path fill="none" stroke="midnightblue" d="M623.569,-67.4041C642.422,-57.0213 663.923,-45.18 681.441,-35.5323"/>
<polygon fill="midnightblue" stroke="midnightblue" points="683.133,-38.5965 690.204,-30.7066 679.756,-32.4649 683.133,-38.5965"/>
</g>
<!-- Node12 -->
<g id="node12" class="node"><title>Node12</title>
<polygon fill="none" stroke="#bfbfbf" points="802.5,-0.5 802.5,-30.5 897.5,-30.5 897.5,-0.5 802.5,-0.5"/>
<text text-anchor="start" x="810.5" y="-18.5" font-family="Helvetica,sans-Serif" font-size="10.00">boost/serialization</text>
<text text-anchor="middle" x="850" y="-7.5" font-family="Helvetica,sans-Serif" font-size="10.00">/serialization.hpp</text>
</g>
<!-- Node1&#45;&gt;Node12 -->
<g id="edge11" class="edge"><title>Node1&#45;&gt;Node12</title>
<path fill="none" stroke="midnightblue" d="M656.674,-70.5177C700.066,-58.3934 752.988,-43.6063 792.484,-32.5706"/>
<polygon fill="midnightblue" stroke="midnightblue" points="793.533,-35.9117 802.222,-29.8497 791.649,-29.1699 793.533,-35.9117"/>
</g>
<!-- Node13 -->
<g id="node13" class="node"><title>Node13</title>
<polygon fill="none" stroke="#bfbfbf" points="915.5,-0.5 915.5,-30.5 1010.5,-30.5 1010.5,-0.5 915.5,-0.5"/>
<text text-anchor="start" x="923.5" y="-18.5" font-family="Helvetica,sans-Serif" font-size="10.00">boost/serialization</text>
<text text-anchor="middle" x="963" y="-7.5" font-family="Helvetica,sans-Serif" font-size="10.00">/array.hpp</text>
</g>
<!-- Node1&#45;&gt;Node13 -->
<g id="edge12" class="edge"><title>Node1&#45;&gt;Node13</title>
<path fill="none" stroke="midnightblue" d="M656.748,-79.3428C721.242,-68.2072 815.047,-51.1908 905.52,-31.2541"/>
<polygon fill="midnightblue" stroke="midnightblue" points="906.39,-34.6462 915.395,-29.0633 904.874,-27.8123 906.39,-34.6462"/>
</g>
<!-- Node14 -->
<g id="node14" class="node"><title>Node14</title>
<polygon fill="none" stroke="#bfbfbf" points="1028.5,-0.5 1028.5,-30.5 1123.5,-30.5 1123.5,-0.5 1028.5,-0.5"/>
<text text-anchor="start" x="1036.5" y="-18.5" font-family="Helvetica,sans-Serif" font-size="10.00">boost/serialization</text>
<text text-anchor="middle" x="1076" y="-7.5" font-family="Helvetica,sans-Serif" font-size="10.00">/vector.hpp</text>
</g>
<!-- Node1&#45;&gt;Node14 -->
<g id="edge13" class="edge"><title>Node1&#45;&gt;Node14</title>
<path fill="none" stroke="midnightblue" d="M656.702,-84.319C743.285,-74.6935 886.638,-56.917 1018.55,-31.164"/>
<polygon fill="midnightblue" stroke="midnightblue" points="1019.29,-34.5843 1028.43,-29.2157 1017.94,-27.7166 1019.29,-34.5843"/>
</g>
<!-- Node15 -->
<g id="node15" class="node"><title>Node15</title>
<polygon fill="none" stroke="#bfbfbf" points="1141.5,-0.5 1141.5,-30.5 1236.5,-30.5 1236.5,-0.5 1141.5,-0.5"/>
<text text-anchor="start" x="1149.5" y="-18.5" font-family="Helvetica,sans-Serif" font-size="10.00">boost/serialization</text>
<text text-anchor="middle" x="1189" y="-7.5" font-family="Helvetica,sans-Serif" font-size="10.00">/list.hpp</text>
</g>
<!-- Node1&#45;&gt;Node15 -->
<g id="edge14" class="edge"><title>Node1&#45;&gt;Node15</title>
<path fill="none" stroke="midnightblue" d="M656.641,-87.344C762.659,-79.6008 957.324,-62.5929 1131.58,-31.1086"/>
<polygon fill="midnightblue" stroke="midnightblue" points="1132.24,-34.5474 1141.44,-29.3073 1130.98,-27.6613 1132.24,-34.5474"/>
</g>
<!-- Node16 -->
<g id="node16" class="node"><title>Node16</title>
<polygon fill="none" stroke="#bfbfbf" points="1254.5,-0.5 1254.5,-30.5 1349.5,-30.5 1349.5,-0.5 1254.5,-0.5"/>
<text text-anchor="start" x="1262.5" y="-18.5" font-family="Helvetica,sans-Serif" font-size="10.00">boost/serialization</text>
<text text-anchor="middle" x="1302" y="-7.5" font-family="Helvetica,sans-Serif" font-size="10.00">/map.hpp</text>
</g>
<!-- Node1&#45;&gt;Node16 -->
<g id="edge15" class="edge"><title>Node1&#45;&gt;Node16</title>
<path fill="none" stroke="midnightblue" d="M656.7,-89.3751C780.263,-83.5605 1027.27,-68.2725 1244.46,-31.098"/>
<polygon fill="midnightblue" stroke="midnightblue" points="1245.2,-34.5227 1254.46,-29.3684 1244,-27.6253 1245.2,-34.5227"/>
</g>
<!-- Node17 -->
<g id="node17" class="node"><title>Node17</title>
<polygon fill="none" stroke="#bfbfbf" points="1367.5,-0.5 1367.5,-30.5 1462.5,-30.5 1462.5,-0.5 1367.5,-0.5"/>
<text text-anchor="start" x="1375.5" y="-18.5" font-family="Helvetica,sans-Serif" font-size="10.00">boost/serialization</text>
<text text-anchor="middle" x="1415" y="-7.5" font-family="Helvetica,sans-Serif" font-size="10.00">/set.hpp</text>
</g>
<!-- Node1&#45;&gt;Node17 -->
<g id="edge16" class="edge"><title>Node1&#45;&gt;Node17</title>
<path fill="none" stroke="midnightblue" d="M656.703,-90.8421C796.387,-86.9068 1096.72,-73.972 1357.43,-31.0815"/>
<polygon fill="midnightblue" stroke="midnightblue" points="1358.17,-34.5054 1367.46,-29.412 1357.02,-27.6003 1358.17,-34.5054"/>
</g>
<!-- Node18 -->
<g id="node18" class="node"><title>Node18</title>
<polygon fill="none" stroke="#bfbfbf" points="1481,-6 1481,-25 1589,-25 1589,-6 1481,-6"/>
<text text-anchor="middle" x="1535" y="-13" font-family="Helvetica,sans-Serif" font-size="10.00">boost/type_traits.hpp</text>
</g>
<!-- Node1&#45;&gt;Node18 -->
<g id="edge17" class="edge"><title>Node1&#45;&gt;Node18</title>
<path fill="none" stroke="midnightblue" d="M656.776,-91.2413C813.062,-87.8284 1173.07,-75.3992 1472,-31 1478.71,-30.0029 1485.77,-28.6679 1492.63,-27.2101"/>
<polygon fill="midnightblue" stroke="midnightblue" points="1493.49,-30.6051 1502.49,-25.0117 1491.97,-23.773 1493.49,-30.6051"/>
</g>
</g>
</svg>
