<?xml version="1.0" encoding="UTF-8" standalone="no"?>
<!DOCTYPE svg PUBLIC "-//W3C//DTD SVG 1.1//EN"
 "http://www.w3.org/Graphics/SVG/1.1/DTD/svg11.dtd">
<!-- Generated by graphviz version 2.38.0 (20140413.2041)
 -->
<!-- Title: /home/travis/build/AliceO2Group/AliceO2/Common/SimConfig/src/SimConfig.cxx Pages: 1 -->
<svg width="896pt" height="352pt"
 viewBox="0.00 0.00 895.50 352.00" xmlns="http://www.w3.org/2000/svg" xmlns:xlink="http://www.w3.org/1999/xlink">
<g id="graph0" class="graph" transform="scale(1 1) rotate(0) translate(4 348)">
<title>/home/travis/build/AliceO2Group/AliceO2/Common/SimConfig/src/SimConfig.cxx</title>
<!-- Node1 -->
<g id="node1" class="node"><title>Node1</title>
<polygon fill="#bfbfbf" stroke="black" points="591,-291.5 591,-343.5 716,-343.5 716,-291.5 591,-291.5"/>
<text text-anchor="start" x="599" y="-331.5" font-family="Helvetica,sans-Serif" font-size="10.00">/home/travis/build</text>
<text text-anchor="start" x="599" y="-320.5" font-family="Helvetica,sans-Serif" font-size="10.00">/AliceO2Group/AliceO2</text>
<text text-anchor="start" x="599" y="-309.5" font-family="Helvetica,sans-Serif" font-size="10.00">/Common/SimConfig/src</text>
<text text-anchor="middle" x="653.5" y="-298.5" font-family="Helvetica,sans-Serif" font-size="10.00">/SimConfig.cxx</text>
</g>
<!-- Node2 -->
<g id="node2" class="node"><title>Node2</title>
<g id="a_node2"><a xlink:href="../../d4/dee/SimConfig_8h.html" target="_top" xlink:title="SimConfig/SimConfig.h">
<polygon fill="none" stroke="black" points="468,-230 468,-249 587,-249 587,-230 468,-230"/>
<text text-anchor="middle" x="527.5" y="-237" font-family="Helvetica,sans-Serif" font-size="10.00">SimConfig/SimConfig.h</text>
</a>
</g>
</g>
<!-- Node1&#45;&gt;Node2 -->
<g id="edge1" class="edge"><title>Node1&#45;&gt;Node2</title>
<path fill="none" stroke="midnightblue" d="M611.894,-291.404C591.451,-279.074 567.598,-264.686 550.476,-254.359"/>
<polygon fill="midnightblue" stroke="midnightblue" points="552.092,-251.246 541.721,-249.078 548.476,-257.24 552.092,-251.246"/>
</g>
<!-- Node4 -->
<g id="node4" class="node"><title>Node4</title>
<polygon fill="none" stroke="#bfbfbf" points="491.5,-168.5 491.5,-187.5 625.5,-187.5 625.5,-168.5 491.5,-168.5"/>
<text text-anchor="middle" x="558.5" y="-175.5" font-family="Helvetica,sans-Serif" font-size="10.00">boost/program_options.hpp</text>
</g>
<!-- Node1&#45;&gt;Node4 -->
<g id="edge22" class="edge"><title>Node1&#45;&gt;Node4</title>
<path fill="none" stroke="midnightblue" d="M639.235,-291.113C628.253,-272.15 612.321,-245.847 596.5,-224 589.303,-214.062 580.504,-203.553 573.185,-195.192"/>
<polygon fill="midnightblue" stroke="midnightblue" points="575.736,-192.794 566.475,-187.648 570.506,-197.446 575.736,-192.794"/>
</g>
<!-- Node5 -->
<g id="node5" class="node"><title>Node5</title>
<g id="a_node5"><a xlink:href="../../d6/d31/DetID_8h.html" target="_top" xlink:title="DetectorsCommonDataFormats\l/DetID.h">
<polygon fill="none" stroke="black" points="180.5,-224.5 180.5,-254.5 336.5,-254.5 336.5,-224.5 180.5,-224.5"/>
<text text-anchor="start" x="188.5" y="-242.5" font-family="Helvetica,sans-Serif" font-size="10.00">DetectorsCommonDataFormats</text>
<text text-anchor="middle" x="258.5" y="-231.5" font-family="Helvetica,sans-Serif" font-size="10.00">/DetID.h</text>
</a>
</g>
</g>
<!-- Node1&#45;&gt;Node5 -->
<g id="edge4" class="edge"><title>Node1&#45;&gt;Node5</title>
<path fill="none" stroke="midnightblue" d="M590.911,-304.458C523.595,-291.506 416.225,-270.847 341.806,-256.529"/>
<polygon fill="midnightblue" stroke="midnightblue" points="342.013,-253.004 331.532,-254.552 340.69,-259.878 342.013,-253.004"/>
</g>
<!-- Node12 -->
<g id="node12" class="node"><title>Node12</title>
<polygon fill="none" stroke="#bfbfbf" points="593.5,-56.5 593.5,-75.5 637.5,-75.5 637.5,-56.5 593.5,-56.5"/>
<text text-anchor="middle" x="615.5" y="-63.5" font-family="Helvetica,sans-Serif" font-size="10.00">cmath</text>
</g>
<!-- Node1&#45;&gt;Node12 -->
<g id="edge26" class="edge"><title>Node1&#45;&gt;Node12</title>
<path fill="none" stroke="midnightblue" d="M650.752,-291.475C647.401,-261.907 641.33,-211.26 634.5,-168 629.943,-139.137 623.441,-105.869 619.347,-85.6438"/>
<polygon fill="midnightblue" stroke="midnightblue" points="622.729,-84.7138 617.298,-75.617 615.871,-86.1153 622.729,-84.7138"/>
</g>
<!-- Node19 -->
<g id="node19" class="node"><title>Node19</title>
<polygon fill="none" stroke="#bfbfbf" points="681.5,-230 681.5,-249 735.5,-249 735.5,-230 681.5,-230"/>
<text text-anchor="middle" x="708.5" y="-237" font-family="Helvetica,sans-Serif" font-size="10.00">iostream</text>
</g>
<!-- Node1&#45;&gt;Node19 -->
<g id="edge23" class="edge"><title>Node1&#45;&gt;Node19</title>
<path fill="none" stroke="midnightblue" d="M671.814,-291.193C679.853,-280.085 689.075,-267.342 696.262,-257.411"/>
<polygon fill="midnightblue" stroke="midnightblue" points="699.17,-259.362 702.198,-249.209 693.499,-255.258 699.17,-259.362"/>
</g>
<!-- Node20 -->
<g id="node20" class="node"><title>Node20</title>
<polygon fill="none" stroke="#bfbfbf" points="754,-230 754,-249 825,-249 825,-230 754,-230"/>
<text text-anchor="middle" x="789.5" y="-237" font-family="Helvetica,sans-Serif" font-size="10.00">FairLogger.h</text>
</g>
<!-- Node1&#45;&gt;Node20 -->
<g id="edge24" class="edge"><title>Node1&#45;&gt;Node20</title>
<path fill="none" stroke="midnightblue" d="M698.408,-291.404C720.678,-278.959 746.697,-264.419 765.212,-254.073"/>
<polygon fill="midnightblue" stroke="midnightblue" points="767.128,-257.011 774.15,-249.078 763.713,-250.901 767.128,-257.011"/>
</g>
<!-- Node21 -->
<g id="node21" class="node"><title>Node21</title>
<polygon fill="none" stroke="#bfbfbf" points="843.5,-230 843.5,-249 887.5,-249 887.5,-230 843.5,-230"/>
<text text-anchor="middle" x="865.5" y="-237" font-family="Helvetica,sans-Serif" font-size="10.00">thread</text>
</g>
<!-- Node1&#45;&gt;Node21 -->
<g id="edge25" class="edge"><title>Node1&#45;&gt;Node21</title>
<path fill="none" stroke="midnightblue" d="M716.109,-297.105C751.252,-285.751 795.705,-270.609 834.5,-255 835.878,-254.446 837.283,-253.861 838.695,-253.258"/>
<polygon fill="midnightblue" stroke="midnightblue" points="840.244,-256.399 847.943,-249.121 837.385,-250.01 840.244,-256.399"/>
</g>
<!-- Node3 -->
<g id="node3" class="node"><title>Node3</title>
<polygon fill="none" stroke="#bfbfbf" points="417.5,-168.5 417.5,-187.5 473.5,-187.5 473.5,-168.5 417.5,-168.5"/>
<text text-anchor="middle" x="445.5" y="-175.5" font-family="Helvetica,sans-Serif" font-size="10.00">Rtypes.h</text>
</g>
<!-- Node2&#45;&gt;Node3 -->
<g id="edge2" class="edge"><title>Node2&#45;&gt;Node3</title>
<path fill="none" stroke="midnightblue" d="M515.751,-229.975C502.721,-220.52 481.464,-205.096 465.741,-193.687"/>
<polygon fill="midnightblue" stroke="midnightblue" points="467.376,-190.549 457.227,-187.509 463.265,-196.215 467.376,-190.549"/>
</g>
<!-- Node2&#45;&gt;Node4 -->
<g id="edge3" class="edge"><title>Node2&#45;&gt;Node4</title>
<path fill="none" stroke="midnightblue" d="M531.942,-229.975C536.453,-221.315 543.574,-207.649 549.307,-196.645"/>
<polygon fill="midnightblue" stroke="midnightblue" points="552.55,-197.995 554.067,-187.509 546.342,-194.76 552.55,-197.995"/>
</g>
<!-- Node5&#45;&gt;Node3 -->
<g id="edge5" class="edge"><title>Node5&#45;&gt;Node3</title>
<path fill="none" stroke="midnightblue" d="M302.816,-224.399C335.129,-214.118 378.398,-200.351 408.786,-190.682"/>
<polygon fill="midnightblue" stroke="midnightblue" points="410.095,-193.938 418.563,-187.571 407.972,-187.268 410.095,-193.938"/>
</g>
<!-- Node6 -->
<g id="node6" class="node"><title>Node6</title>
<polygon fill="none" stroke="#bfbfbf" points="187.5,-112.5 187.5,-131.5 225.5,-131.5 225.5,-112.5 187.5,-112.5"/>
<text text-anchor="middle" x="206.5" y="-119.5" font-family="Helvetica,sans-Serif" font-size="10.00">array</text>
</g>
<!-- Node5&#45;&gt;Node6 -->
<g id="edge6" class="edge"><title>Node5&#45;&gt;Node6</title>
<path fill="none" stroke="midnightblue" d="M252.124,-224.337C242.669,-203.338 224.939,-163.955 214.585,-140.958"/>
<polygon fill="midnightblue" stroke="midnightblue" points="217.7,-139.351 210.403,-131.669 211.317,-142.225 217.7,-139.351"/>
</g>
<!-- Node7 -->
<g id="node7" class="node"><title>Node7</title>
<polygon fill="none" stroke="#bfbfbf" points="358,-168.5 358,-187.5 399,-187.5 399,-168.5 358,-168.5"/>
<text text-anchor="middle" x="378.5" y="-175.5" font-family="Helvetica,sans-Serif" font-size="10.00">bitset</text>
</g>
<!-- Node5&#45;&gt;Node7 -->
<g id="edge7" class="edge"><title>Node5&#45;&gt;Node7</title>
<path fill="none" stroke="midnightblue" d="M286.938,-224.399C306.623,-214.639 332.643,-201.737 351.913,-192.183"/>
<polygon fill="midnightblue" stroke="midnightblue" points="353.635,-195.236 361.039,-187.658 350.525,-188.964 353.635,-195.236"/>
</g>
<!-- Node8 -->
<g id="node8" class="node"><title>Node8</title>
<polygon fill="none" stroke="#bfbfbf" points="0,-168.5 0,-187.5 49,-187.5 49,-168.5 0,-168.5"/>
<text text-anchor="middle" x="24.5" y="-175.5" font-family="Helvetica,sans-Serif" font-size="10.00">cassert</text>
</g>
<!-- Node5&#45;&gt;Node8 -->
<g id="edge8" class="edge"><title>Node5&#45;&gt;Node8</title>
<path fill="none" stroke="midnightblue" d="M201.99,-224.414C164.179,-214.948 113.054,-202.066 58.8079,-188.058"/>
<polygon fill="midnightblue" stroke="midnightblue" points="59.5631,-184.638 49.0053,-185.522 57.8104,-191.415 59.5631,-184.638"/>
</g>
<!-- Node9 -->
<g id="node9" class="node"><title>Node9</title>
<polygon fill="none" stroke="#bfbfbf" points="67.5,-168.5 67.5,-187.5 113.5,-187.5 113.5,-168.5 67.5,-168.5"/>
<text text-anchor="middle" x="90.5" y="-175.5" font-family="Helvetica,sans-Serif" font-size="10.00">cstdint</text>
</g>
<!-- Node5&#45;&gt;Node9 -->
<g id="edge9" class="edge"><title>Node5&#45;&gt;Node9</title>
<path fill="none" stroke="midnightblue" d="M218.686,-224.399C189.65,-214.116 150.766,-200.344 123.465,-190.675"/>
<polygon fill="midnightblue" stroke="midnightblue" points="124.565,-187.352 113.97,-187.312 122.228,-193.95 124.565,-187.352"/>
</g>
<!-- Node10 -->
<g id="node10" class="node"><title>Node10</title>
<polygon fill="none" stroke="#bfbfbf" points="131.5,-168.5 131.5,-187.5 193.5,-187.5 193.5,-168.5 131.5,-168.5"/>
<text text-anchor="middle" x="162.5" y="-175.5" font-family="Helvetica,sans-Serif" font-size="10.00">type_traits</text>
</g>
<!-- Node5&#45;&gt;Node10 -->
<g id="edge10" class="edge"><title>Node5&#45;&gt;Node10</title>
<path fill="none" stroke="midnightblue" d="M235.749,-224.399C220.505,-214.951 200.511,-202.559 185.264,-193.109"/>
<polygon fill="midnightblue" stroke="midnightblue" points="186.813,-189.951 176.469,-187.658 183.125,-195.901 186.813,-189.951"/>
</g>
<!-- Node11 -->
<g id="node11" class="node"><title>Node11</title>
<g id="a_node11"><a xlink:href="../../d9/d52/Common_2MathUtils_2include_2MathUtils_2Utils_8h.html" target="_top" xlink:title="MathUtils/Utils.h">
<polygon fill="none" stroke="black" points="249.5,-168.5 249.5,-187.5 339.5,-187.5 339.5,-168.5 249.5,-168.5"/>
<text text-anchor="middle" x="294.5" y="-175.5" font-family="Helvetica,sans-Serif" font-size="10.00">MathUtils/Utils.h</text>
</a>
</g>
</g>
<!-- Node5&#45;&gt;Node11 -->
<g id="edge11" class="edge"><title>Node5&#45;&gt;Node11</title>
<path fill="none" stroke="midnightblue" d="M267.031,-224.399C272.101,-216.021 278.571,-205.327 283.958,-196.423"/>
<polygon fill="midnightblue" stroke="midnightblue" points="287.08,-198.025 289.262,-187.658 281.09,-194.402 287.08,-198.025"/>
</g>
<!-- Node11&#45;&gt;Node6 -->
<g id="edge12" class="edge"><title>Node11&#45;&gt;Node6</title>
<path fill="none" stroke="midnightblue" d="M280.361,-168.324C266.634,-159.9 245.564,-146.971 229.436,-137.074"/>
<polygon fill="midnightblue" stroke="midnightblue" points="230.957,-133.902 220.604,-131.655 227.296,-139.868 230.957,-133.902"/>
</g>
<!-- Node11&#45;&gt;Node12 -->
<g id="edge13" class="edge"><title>Node11&#45;&gt;Node12</title>
<path fill="none" stroke="midnightblue" d="M339.57,-169.416C342.591,-168.93 345.589,-168.454 348.5,-168 403.524,-159.422 554.46,-168.522 596.5,-132 609.655,-120.571 613.946,-100.588 615.228,-85.7862"/>
<polygon fill="midnightblue" stroke="midnightblue" points="618.728,-85.8634 615.718,-75.7051 611.736,-85.5233 618.728,-85.8634"/>
</g>
<!-- Node13 -->
<g id="node13" class="node"><title>Node13</title>
<g id="a_node13"><a xlink:href="../../df/d21/GPUCommonDef_8h.html" target="_top" xlink:title="GPUCommonDef.h">
<polygon fill="none" stroke="black" points="202.5,-56.5 202.5,-75.5 304.5,-75.5 304.5,-56.5 202.5,-56.5"/>
<text text-anchor="middle" x="253.5" y="-63.5" font-family="Helvetica,sans-Serif" font-size="10.00">GPUCommonDef.h</text>
</a>
</g>
</g>
<!-- Node11&#45;&gt;Node13 -->
<g id="edge14" class="edge"><title>Node11&#45;&gt;Node13</title>
<path fill="none" stroke="midnightblue" d="M289.659,-168.235C284.863,-159.309 277.526,-144.975 272.5,-132 266.528,-116.583 261.384,-98.4899 257.96,-85.3129"/>
<polygon fill="midnightblue" stroke="midnightblue" points="261.342,-84.411 255.508,-75.5671 254.554,-86.1189 261.342,-84.411"/>
</g>
<!-- Node16 -->
<g id="node16" class="node"><title>Node16</title>
<g id="a_node16"><a xlink:href="../../d6/da2/GPUCommonMath_8h.html" target="_top" xlink:title="GPUCommonMath.h">
<polygon fill="none" stroke="black" points="281.5,-112.5 281.5,-131.5 389.5,-131.5 389.5,-112.5 281.5,-112.5"/>
<text text-anchor="middle" x="335.5" y="-119.5" font-family="Helvetica,sans-Serif" font-size="10.00">GPUCommonMath.h</text>
</a>
</g>
</g>
<!-- Node11&#45;&gt;Node16 -->
<g id="edge17" class="edge"><title>Node11&#45;&gt;Node16</title>
<path fill="none" stroke="midnightblue" d="M301.27,-168.083C307.062,-160.455 315.558,-149.264 322.638,-139.941"/>
<polygon fill="midnightblue" stroke="midnightblue" points="325.596,-141.832 328.856,-131.751 320.021,-137.599 325.596,-141.832"/>
</g>
<!-- Node18 -->
<g id="node18" class="node"><title>Node18</title>
<g id="a_node18"><a xlink:href="../../d6/d84/MathConstants_8h.html" target="_top" xlink:title="useful math constants ">
<polygon fill="none" stroke="black" points="408,-112.5 408,-131.5 587,-131.5 587,-112.5 408,-112.5"/>
<text text-anchor="middle" x="497.5" y="-119.5" font-family="Helvetica,sans-Serif" font-size="10.00">CommonConstants/MathConstants.h</text>
</a>
</g>
</g>
<!-- Node11&#45;&gt;Node18 -->
<g id="edge21" class="edge"><title>Node11&#45;&gt;Node18</title>
<path fill="none" stroke="midnightblue" d="M326.666,-168.444C361.559,-159.162 417.393,-144.309 455.671,-134.127"/>
<polygon fill="midnightblue" stroke="midnightblue" points="456.72,-137.47 465.485,-131.516 454.921,-130.705 456.72,-137.47"/>
</g>
<!-- Node14 -->
<g id="node14" class="node"><title>Node14</title>
<g id="a_node14"><a xlink:href="../../d5/d93/GPUCommonDefSettings_8h.html" target="_top" xlink:title="GPUCommonDefSettings.h">
<polygon fill="none" stroke="black" points="111.5,-0.5 111.5,-19.5 249.5,-19.5 249.5,-0.5 111.5,-0.5"/>
<text text-anchor="middle" x="180.5" y="-7.5" font-family="Helvetica,sans-Serif" font-size="10.00">GPUCommonDefSettings.h</text>
</a>
</g>
</g>
<!-- Node13&#45;&gt;Node14 -->
<g id="edge15" class="edge"><title>Node13&#45;&gt;Node14</title>
<path fill="none" stroke="midnightblue" d="M241.771,-56.324C230.663,-48.1066 213.758,-35.6017 200.517,-25.8069"/>
<polygon fill="midnightblue" stroke="midnightblue" points="202.563,-22.9671 192.442,-19.8339 198.4,-28.5948 202.563,-22.9671"/>
</g>
<!-- Node15 -->
<g id="node15" class="node"><title>Node15</title>
<g id="a_node15"><a xlink:href="../../da/d5a/GPUCommonDefAPI_8h.html" target="_top" xlink:title="GPUCommonDefAPI.h">
<polygon fill="none" stroke="black" points="268,-0.5 268,-19.5 387,-19.5 387,-0.5 268,-0.5"/>
<text text-anchor="middle" x="327.5" y="-7.5" font-family="Helvetica,sans-Serif" font-size="10.00">GPUCommonDefAPI.h</text>
</a>
</g>
</g>
<!-- Node13&#45;&gt;Node15 -->
<g id="edge16" class="edge"><title>Node13&#45;&gt;Node15</title>
<path fill="none" stroke="midnightblue" d="M265.389,-56.324C276.65,-48.1066 293.787,-35.6017 307.209,-25.8069"/>
<polygon fill="midnightblue" stroke="midnightblue" points="309.38,-28.5559 315.394,-19.8339 305.253,-22.9014 309.38,-28.5559"/>
</g>
<!-- Node16&#45;&gt;Node12 -->
<g id="edge19" class="edge"><title>Node16&#45;&gt;Node12</title>
<path fill="none" stroke="midnightblue" d="M379.867,-112.444C436.589,-101.504 533.429,-82.828 583.467,-73.1778"/>
<polygon fill="midnightblue" stroke="midnightblue" points="584.247,-76.592 593.403,-71.2616 582.921,-69.7187 584.247,-76.592"/>
</g>
<!-- Node16&#45;&gt;Node13 -->
<g id="edge18" class="edge"><title>Node16&#45;&gt;Node13</title>
<path fill="none" stroke="midnightblue" d="M322.325,-112.324C309.653,-103.979 290.267,-91.2122 275.294,-81.3524"/>
<polygon fill="midnightblue" stroke="midnightblue" points="276.919,-78.2313 266.642,-75.6545 273.069,-84.0776 276.919,-78.2313"/>
</g>
<!-- Node17 -->
<g id="node17" class="node"><title>Node17</title>
<polygon fill="none" stroke="#bfbfbf" points="322.5,-56.5 322.5,-75.5 378.5,-75.5 378.5,-56.5 322.5,-56.5"/>
<text text-anchor="middle" x="350.5" y="-63.5" font-family="Helvetica,sans-Serif" font-size="10.00">algorithm</text>
</g>
<!-- Node16&#45;&gt;Node17 -->
<g id="edge20" class="edge"><title>Node16&#45;&gt;Node17</title>
<path fill="none" stroke="midnightblue" d="M337.977,-112.083C339.986,-104.849 342.886,-94.4087 345.39,-85.3968"/>
<polygon fill="midnightblue" stroke="midnightblue" points="348.765,-86.323 348.069,-75.7511 342.02,-84.4495 348.765,-86.323"/>
</g>
</g>
</svg>
