<?xml version="1.0" encoding="UTF-8" standalone="no"?>
<!DOCTYPE svg PUBLIC "-//W3C//DTD SVG 1.1//EN"
 "http://www.w3.org/Graphics/SVG/1.1/DTD/svg11.dtd">
<!-- Generated by graphviz version 2.38.0 (20140413.2041)
 -->
<!-- Title: o2::mft::HeatExchanger Pages: 1 -->
<svg width="191pt" height="391pt"
 viewBox="0.00 0.00 191.00 391.00" xmlns="http://www.w3.org/2000/svg" xmlns:xlink="http://www.w3.org/1999/xlink">
<g id="graph0" class="graph" transform="scale(1 1) rotate(0) translate(4 387)">
<title>o2::mft::HeatExchanger</title>
<!-- Node1 -->
<g id="node1" class="node"><title>Node1</title>
<polygon fill="#bfbfbf" stroke="black" points="30,-0.5 30,-244.5 152,-244.5 152,-0.5 30,-0.5"/>
<text text-anchor="middle" x="91" y="-232.5" font-family="Helvetica,sans-Serif" font-size="10.00">o2::mft::HeatExchanger</text>
<polyline fill="none" stroke="black" points="30,-225.5 152,-225.5 "/>
<text text-anchor="middle" x="91" y="-213.5" font-family="Helvetica,sans-Serif" font-size="10.00"> </text>
<polyline fill="none" stroke="black" points="30,-206.5 152,-206.5 "/>
<text text-anchor="start" x="38" y="-194.5" font-family="Helvetica,sans-Serif" font-size="10.00">+ HeatExchanger()</text>
<text text-anchor="start" x="38" y="-183.5" font-family="Helvetica,sans-Serif" font-size="10.00">+ HeatExchanger()</text>
<text text-anchor="start" x="38" y="-172.5" font-family="Helvetica,sans-Serif" font-size="10.00">+ ~HeatExchanger()</text>
<text text-anchor="start" x="38" y="-161.5" font-family="Helvetica,sans-Serif" font-size="10.00">+ create()</text>
<text text-anchor="start" x="38" y="-150.5" font-family="Helvetica,sans-Serif" font-size="10.00">+ createHalfDisk0()</text>
<text text-anchor="start" x="38" y="-139.5" font-family="Helvetica,sans-Serif" font-size="10.00">+ createHalfDisk1()</text>
<text text-anchor="start" x="38" y="-128.5" font-family="Helvetica,sans-Serif" font-size="10.00">+ createHalfDisk2()</text>
<text text-anchor="start" x="38" y="-117.5" font-family="Helvetica,sans-Serif" font-size="10.00">+ createHalfDisk3()</text>
<text text-anchor="start" x="38" y="-106.5" font-family="Helvetica,sans-Serif" font-size="10.00">+ createHalfDisk4()</text>
<text text-anchor="start" x="38" y="-95.5" font-family="Helvetica,sans-Serif" font-size="10.00">+ createManifold()</text>
<text text-anchor="start" x="38" y="-84.5" font-family="Helvetica,sans-Serif" font-size="10.00">+ getWaterRadius()</text>
<text text-anchor="start" x="38" y="-73.5" font-family="Helvetica,sans-Serif" font-size="10.00">+ setWaterRadius()</text>
<text text-anchor="start" x="38" y="-62.5" font-family="Helvetica,sans-Serif" font-size="10.00">+ getPipeThickness()</text>
<text text-anchor="start" x="38" y="-51.5" font-family="Helvetica,sans-Serif" font-size="10.00">+ setPipeThickness()</text>
<text text-anchor="start" x="38" y="-40.5" font-family="Helvetica,sans-Serif" font-size="10.00">+ getExchangerWidth()</text>
<text text-anchor="start" x="38" y="-29.5" font-family="Helvetica,sans-Serif" font-size="10.00">+ setExchangerWidth()</text>
<text text-anchor="start" x="38" y="-18.5" font-family="Helvetica,sans-Serif" font-size="10.00">+ getCarbonThickness()</text>
<text text-anchor="start" x="38" y="-7.5" font-family="Helvetica,sans-Serif" font-size="10.00">+ setCarbonThickness()</text>
</g>
<!-- Node2 -->
<g id="node2" class="node"><title>Node2</title>
<polygon fill="none" stroke="#bfbfbf" points="0,-325.5 0,-382.5 82,-382.5 82,-325.5 0,-325.5"/>
<text text-anchor="middle" x="41" y="-370.5" font-family="Helvetica,sans-Serif" font-size="10.00">TGeoMaterial *</text>
<polyline fill="none" stroke="#bfbfbf" points="0,-363.5 82,-363.5 "/>
<text text-anchor="middle" x="41" y="-351.5" font-family="Helvetica,sans-Serif" font-size="10.00"> </text>
<polyline fill="none" stroke="#bfbfbf" points="0,-344.5 82,-344.5 "/>
<text text-anchor="middle" x="41" y="-332.5" font-family="Helvetica,sans-Serif" font-size="10.00"> </text>
</g>
<!-- Node2&#45;&gt;Node1 -->
<g id="edge1" class="edge"><title>Node2&#45;&gt;Node1</title>
<path fill="none" stroke="#404040" d="M47.0312,-325.317C50.9278,-307.431 56.316,-282.7 61.987,-256.67"/>
<polygon fill="none" stroke="#404040" points="62.0536,-256.363 59.4226,-249.649 64.6082,-244.638 67.2392,-251.352 62.0536,-256.363"/>
<text text-anchor="middle" x="87" y="-282.5" font-family="Helvetica,sans-Serif" font-size="10.00"> +mMaterial</text>
</g>
<!-- Node3 -->
<g id="node3" class="node"><title>Node3</title>
<polygon fill="none" stroke="#bfbfbf" points="100,-325.5 100,-382.5 182,-382.5 182,-325.5 100,-325.5"/>
<text text-anchor="middle" x="141" y="-370.5" font-family="Helvetica,sans-Serif" font-size="10.00">TGeoMedium *</text>
<polyline fill="none" stroke="#bfbfbf" points="100,-363.5 182,-363.5 "/>
<text text-anchor="middle" x="141" y="-351.5" font-family="Helvetica,sans-Serif" font-size="10.00"> </text>
<polyline fill="none" stroke="#bfbfbf" points="100,-344.5 182,-344.5 "/>
<text text-anchor="middle" x="141" y="-332.5" font-family="Helvetica,sans-Serif" font-size="10.00"> </text>
</g>
<!-- Node3&#45;&gt;Node1 -->
<g id="edge2" class="edge"><title>Node3&#45;&gt;Node1</title>
<path fill="none" stroke="#404040" d="M134.969,-325.317C131.072,-307.431 125.684,-282.7 120.013,-256.67"/>
<polygon fill="none" stroke="#404040" points="119.946,-256.363 114.761,-251.352 117.392,-244.638 122.577,-249.649 119.946,-256.363"/>
<text text-anchor="middle" x="156.5" y="-299" font-family="Helvetica,sans-Serif" font-size="10.00"> +mWater</text>
<text text-anchor="middle" x="156.5" y="-288" font-family="Helvetica,sans-Serif" font-size="10.00">+mCarbon</text>
<text text-anchor="middle" x="156.5" y="-277" font-family="Helvetica,sans-Serif" font-size="10.00">+mRohacell</text>
<text text-anchor="middle" x="156.5" y="-266" font-family="Helvetica,sans-Serif" font-size="10.00">+mPipe</text>
</g>
</g>
</svg>
