<?xml version="1.0" encoding="UTF-8" standalone="no"?>
<!DOCTYPE svg PUBLIC "-//W3C//DTD SVG 1.1//EN"
 "http://www.w3.org/Graphics/SVG/1.1/DTD/svg11.dtd">
<!-- Generated by graphviz version 2.38.0 (20140413.2041)
 -->
<!-- Title: /home/travis/build/AliceO2Group/AliceO2/Detectors/TPC/base/include/TPCBase/PadRegionInfo.h Pages: 1 -->
<!--zoomable 307 -->
<svg id="main" version="1.1" xmlns="http://www.w3.org/2000/svg" xmlns:xlink="http://www.w3.org/1999/xlink" xml:space="preserve" onload="init(evt)">
<style type="text/css"><![CDATA[
.edge:hover path { stroke: red; }
.edge:hover polygon { stroke: red; fill: red; }
]]></style>
<script type="text/javascript"><![CDATA[
var edges = document.getElementsByTagName('g');
if (edges && edges.length) {
  for (var i=0;i<edges.length;i++) {
    if (edges[i].id.substr(0,4)=='edge') {
      edges[i].setAttribute('class','edge');
    }
  }
}
]]></script>
        <defs>
                <circle id="rim" cx="0" cy="0" r="7"/>
                <circle id="rim2" cx="0" cy="0" r="3.5"/>
                <g id="zoomPlus">
                        <use xlink:href="#rim" fill="#404040">
                                <set attributeName="fill" to="#808080" begin="zoomplus.mouseover" end="zoomplus.mouseout"/>
                        </use>
                        <path d="M-4,0h8M0,-4v8" fill="none" stroke="white" stroke-width="1.5" pointer-events="none"/>
                </g>
                <g id="zoomMin">
                        <use xlink:href="#rim" fill="#404040">
                                <set attributeName="fill" to="#808080" begin="zoomminus.mouseover" end="zoomminus.mouseout"/>
                        </use>
                        <path d="M-4,0h8" fill="none" stroke="white" stroke-width="1.5" pointer-events="none"/>
                </g>
                <g id="dirArrow">
                        <path fill="none" stroke="white" stroke-width="1.5" d="M0,-3.0v7 M-2.5,-0.5L0,-3.0L2.5,-0.5"/>
                </g>
               <g id="resetDef">
                       <use xlink:href="#rim2" fill="#404040">
                               <set attributeName="fill" to="#808080" begin="reset.mouseover" end="reset.mouseout"/>
                       </use>
               </g>
        </defs>

<script type="text/javascript">
var viewWidth = 1351;
var viewHeight = 307;
var sectionId = 'dynsection-0';
</script>
<script xlink:href="../../svgpan.js"/>
<svg id="graph" class="graph">
<g id="viewport">
<title>/home/travis/build/AliceO2Group/AliceO2/Detectors/TPC/base/include/TPCBase/PadRegionInfo.h</title>
<!-- Node1 -->
<g id="node1" class="node"><title>Node1</title>
<polygon fill="#bfbfbf" stroke="black" points="394,-246.5 394,-298.5 537,-298.5 537,-246.5 394,-246.5"/>
<text text-anchor="start" x="402" y="-286.5" font-family="Helvetica,sans-Serif" font-size="10.00">/home/travis/build</text>
<text text-anchor="start" x="402" y="-275.5" font-family="Helvetica,sans-Serif" font-size="10.00">/AliceO2Group/AliceO2</text>
<text text-anchor="start" x="402" y="-264.5" font-family="Helvetica,sans-Serif" font-size="10.00">/Detectors/TPC/base/include</text>
<text text-anchor="middle" x="465.5" y="-253.5" font-family="Helvetica,sans-Serif" font-size="10.00">/TPCBase/PadRegionInfo.h</text>
</g>
<!-- Node2 -->
<g id="node2" class="node"><title>Node2</title>
<polygon fill="none" stroke="#bfbfbf" points="340.5,-190.5 340.5,-209.5 384.5,-209.5 384.5,-190.5 340.5,-190.5"/>
<text text-anchor="middle" x="362.5" y="-197.5" font-family="Helvetica,sans-Serif" font-size="10.00">vector</text>
</g>
<!-- Node1&#45;&gt;Node2 -->
<g id="edge1" class="edge"><title>Node1&#45;&gt;Node2</title>
<path fill="none" stroke="midnightblue" d="M428.896,-246.446C413.674,-236.027 396.553,-224.308 383.509,-215.38"/>
<polygon fill="midnightblue" stroke="midnightblue" points="385.433,-212.456 375.204,-209.695 381.479,-218.232 385.433,-212.456"/>
</g>
<!-- Node3 -->
<g id="node3" class="node"><title>Node3</title>
<g id="a_node3"><a xlink:href="../../d1/d73/Defs_8h.html" target="_top" xlink:title="Common definitions for 2D coordinates. ">
<polygon fill="none" stroke="black" points="402.5,-190.5 402.5,-209.5 528.5,-209.5 528.5,-190.5 402.5,-190.5"/>
<text text-anchor="middle" x="465.5" y="-197.5" font-family="Helvetica,sans-Serif" font-size="10.00">DataFormatsTPC/Defs.h</text>
</a>
</g>
</g>
<!-- Node1&#45;&gt;Node3 -->
<g id="edge2" class="edge"><title>Node1&#45;&gt;Node3</title>
<path fill="none" stroke="midnightblue" d="M465.5,-246.446C465.5,-237.73 465.5,-228.104 465.5,-219.964"/>
<polygon fill="midnightblue" stroke="midnightblue" points="469,-219.695 465.5,-209.695 462,-219.696 469,-219.695"/>
</g>
<!-- Node17 -->
<g id="node17" class="node"><title>Node17</title>
<g id="a_node17"><a xlink:href="../../de/d41/PadPos_8h.html" target="_top" xlink:title="TPCBase/PadPos.h">
<polygon fill="none" stroke="black" points="547,-190.5 547,-209.5 652,-209.5 652,-190.5 547,-190.5"/>
<text text-anchor="middle" x="599.5" y="-197.5" font-family="Helvetica,sans-Serif" font-size="10.00">TPCBase/PadPos.h</text>
</a>
</g>
</g>
<!-- Node1&#45;&gt;Node17 -->
<g id="edge17" class="edge"><title>Node1&#45;&gt;Node17</title>
<path fill="none" stroke="midnightblue" d="M513.121,-246.446C533.812,-235.56 557.202,-223.254 574.419,-214.196"/>
<polygon fill="midnightblue" stroke="midnightblue" points="576.072,-217.281 583.293,-209.527 572.813,-211.086 576.072,-217.281"/>
</g>
<!-- Node4 -->
<g id="node4" class="node"><title>Node4</title>
<polygon fill="none" stroke="#bfbfbf" points="393.5,-134.5 393.5,-153.5 437.5,-153.5 437.5,-134.5 393.5,-134.5"/>
<text text-anchor="middle" x="415.5" y="-141.5" font-family="Helvetica,sans-Serif" font-size="10.00">cmath</text>
</g>
<!-- Node3&#45;&gt;Node4 -->
<g id="edge3" class="edge"><title>Node3&#45;&gt;Node4</title>
<path fill="none" stroke="midnightblue" d="M457.244,-190.083C450.035,-182.298 439.39,-170.801 430.654,-161.367"/>
<polygon fill="midnightblue" stroke="midnightblue" points="432.965,-158.711 423.603,-153.751 427.829,-163.467 432.965,-158.711"/>
</g>
<!-- Node5 -->
<g id="node5" class="node"><title>Node5</title>
<g id="a_node5"><a xlink:href="../../d2/dd0/Cartesian2D_8h.html" target="_top" xlink:title="MathUtils/Cartesian2D.h">
<polygon fill="none" stroke="black" points="104,-73 104,-92 229,-92 229,-73 104,-73"/>
<text text-anchor="middle" x="166.5" y="-80" font-family="Helvetica,sans-Serif" font-size="10.00">MathUtils/Cartesian2D.h</text>
</a>
</g>
</g>
<!-- Node3&#45;&gt;Node5 -->
<g id="edge4" class="edge"><title>Node3&#45;&gt;Node5</title>
<path fill="none" stroke="midnightblue" d="M465.675,-190.344C465.454,-176.275 462.817,-148.558 446.5,-134 376.168,-71.2489 330.131,-115.432 237.5,-98 230.938,-96.765 224.044,-95.4188 217.239,-94.0606"/>
<polygon fill="midnightblue" stroke="midnightblue" points="217.876,-90.6186 207.381,-92.0736 216.493,-97.4806 217.876,-90.6186"/>
</g>
<!-- Node8 -->
<g id="node8" class="node"><title>Node8</title>
<g id="a_node8"><a xlink:href="../../dd/d76/Cartesian3D_8h.html" target="_top" xlink:title="MathUtils/Cartesian3D.h">
<polygon fill="none" stroke="black" points="707,-134.5 707,-153.5 832,-153.5 832,-134.5 707,-134.5"/>
<text text-anchor="middle" x="769.5" y="-141.5" font-family="Helvetica,sans-Serif" font-size="10.00">MathUtils/Cartesian3D.h</text>
</a>
</g>
</g>
<!-- Node3&#45;&gt;Node8 -->
<g id="edge7" class="edge"><title>Node3&#45;&gt;Node8</title>
<path fill="none" stroke="midnightblue" d="M513.67,-190.444C567.369,-180.905 654.186,-165.483 711.554,-155.293"/>
<polygon fill="midnightblue" stroke="midnightblue" points="712.322,-158.712 721.556,-153.516 711.098,-151.819 712.322,-158.712"/>
</g>
<!-- Node6 -->
<g id="node6" class="node"><title>Node6</title>
<polygon fill="none" stroke="#bfbfbf" points="0,-0.5 0,-30.5 151,-30.5 151,-0.5 0,-0.5"/>
<text text-anchor="start" x="8" y="-18.5" font-family="Helvetica,sans-Serif" font-size="10.00">Math/GenVector/Displacement</text>
<text text-anchor="middle" x="75.5" y="-7.5" font-family="Helvetica,sans-Serif" font-size="10.00">Vector2D.h</text>
</g>
<!-- Node5&#45;&gt;Node6 -->
<g id="edge5" class="edge"><title>Node5&#45;&gt;Node6</title>
<path fill="none" stroke="midnightblue" d="M154.227,-72.7338C141.338,-63.527 120.626,-48.7328 103.681,-36.6293"/>
<polygon fill="midnightblue" stroke="midnightblue" points="105.396,-33.5534 95.2246,-30.589 101.328,-39.2495 105.396,-33.5534"/>
</g>
<!-- Node7 -->
<g id="node7" class="node"><title>Node7</title>
<polygon fill="none" stroke="#bfbfbf" points="169.5,-6 169.5,-25 345.5,-25 345.5,-6 169.5,-6"/>
<text text-anchor="middle" x="257.5" y="-13" font-family="Helvetica,sans-Serif" font-size="10.00">Math/GenVector/PositionVector2D.h</text>
</g>
<!-- Node5&#45;&gt;Node7 -->
<g id="edge6" class="edge"><title>Node5&#45;&gt;Node7</title>
<path fill="none" stroke="midnightblue" d="M178.773,-72.7338C193.645,-62.1106 218.932,-44.0485 236.83,-31.2642"/>
<polygon fill="midnightblue" stroke="midnightblue" points="239.319,-33.7878 245.422,-25.1273 235.25,-28.0917 239.319,-33.7878"/>
</g>
<!-- Node8&#45;&gt;Node5 -->
<g id="edge16" class="edge"><title>Node8&#45;&gt;Node5</title>
<path fill="none" stroke="midnightblue" d="M706.985,-140.088C607.289,-134.912 406.312,-122.292 237.5,-98 229.795,-96.8912 221.667,-95.4714 213.77,-93.9556"/>
<polygon fill="midnightblue" stroke="midnightblue" points="214.432,-90.5187 203.941,-92.0005 213.066,-97.3842 214.432,-90.5187"/>
</g>
<!-- Node9 -->
<g id="node9" class="node"><title>Node9</title>
<polygon fill="none" stroke="#bfbfbf" points="247,-67.5 247,-97.5 398,-97.5 398,-67.5 247,-67.5"/>
<text text-anchor="start" x="255" y="-85.5" font-family="Helvetica,sans-Serif" font-size="10.00">Math/GenVector/Displacement</text>
<text text-anchor="middle" x="322.5" y="-74.5" font-family="Helvetica,sans-Serif" font-size="10.00">Vector3D.h</text>
</g>
<!-- Node8&#45;&gt;Node9 -->
<g id="edge8" class="edge"><title>Node8&#45;&gt;Node9</title>
<path fill="none" stroke="midnightblue" d="M706.926,-136.093C636.785,-128.154 519.417,-114.286 408.078,-98.0417"/>
<polygon fill="midnightblue" stroke="midnightblue" points="408.418,-94.5541 398.015,-96.5646 407.401,-101.48 408.418,-94.5541"/>
</g>
<!-- Node10 -->
<g id="node10" class="node"><title>Node10</title>
<polygon fill="none" stroke="#bfbfbf" points="416.5,-73 416.5,-92 592.5,-92 592.5,-73 416.5,-73"/>
<text text-anchor="middle" x="504.5" y="-80" font-family="Helvetica,sans-Serif" font-size="10.00">Math/GenVector/PositionVector3D.h</text>
</g>
<!-- Node8&#45;&gt;Node10 -->
<g id="edge9" class="edge"><title>Node8&#45;&gt;Node10</title>
<path fill="none" stroke="midnightblue" d="M731.532,-134.475C684.304,-123.871 603.642,-105.76 552.264,-94.2244"/>
<polygon fill="midnightblue" stroke="midnightblue" points="552.921,-90.7849 542.398,-92.0091 551.388,-97.6149 552.921,-90.7849"/>
</g>
<!-- Node11 -->
<g id="node11" class="node"><title>Node11</title>
<polygon fill="none" stroke="#bfbfbf" points="610,-73 610,-92 759,-92 759,-73 610,-73"/>
<text text-anchor="middle" x="684.5" y="-80" font-family="Helvetica,sans-Serif" font-size="10.00">Math/GenVector/Rotation3D.h</text>
</g>
<!-- Node8&#45;&gt;Node11 -->
<g id="edge10" class="edge"><title>Node8&#45;&gt;Node11</title>
<path fill="none" stroke="midnightblue" d="M757.322,-134.475C743.688,-124.931 721.368,-109.307 705.026,-97.8683"/>
<polygon fill="midnightblue" stroke="midnightblue" points="706.855,-94.8764 696.656,-92.0091 702.841,-100.611 706.855,-94.8764"/>
</g>
<!-- Node12 -->
<g id="node12" class="node"><title>Node12</title>
<polygon fill="none" stroke="#bfbfbf" points="777.5,-73 777.5,-92 933.5,-92 933.5,-73 777.5,-73"/>
<text text-anchor="middle" x="855.5" y="-80" font-family="Helvetica,sans-Serif" font-size="10.00">Math/GenVector/Transform3D.h</text>
</g>
<!-- Node8&#45;&gt;Node12 -->
<g id="edge11" class="edge"><title>Node8&#45;&gt;Node12</title>
<path fill="none" stroke="midnightblue" d="M781.822,-134.475C795.616,-124.931 818.199,-109.307 834.732,-97.8683"/>
<polygon fill="midnightblue" stroke="midnightblue" points="836.969,-100.577 843.201,-92.0091 832.986,-94.8205 836.969,-100.577"/>
</g>
<!-- Node13 -->
<g id="node13" class="node"><title>Node13</title>
<polygon fill="none" stroke="#bfbfbf" points="951.5,-73 951.5,-92 1111.5,-92 1111.5,-73 951.5,-73"/>
<text text-anchor="middle" x="1031.5" y="-80" font-family="Helvetica,sans-Serif" font-size="10.00">Math/GenVector/Translation3D.h</text>
</g>
<!-- Node8&#45;&gt;Node13 -->
<g id="edge12" class="edge"><title>Node8&#45;&gt;Node13</title>
<path fill="none" stroke="midnightblue" d="M807.038,-134.475C853.731,-123.871 933.48,-105.76 984.277,-94.2244"/>
<polygon fill="midnightblue" stroke="midnightblue" points="985.055,-97.6369 994.031,-92.0091 983.505,-90.8107 985.055,-97.6369"/>
</g>
<!-- Node14 -->
<g id="node14" class="node"><title>Node14</title>
<polygon fill="none" stroke="#bfbfbf" points="1129.5,-73 1129.5,-92 1185.5,-92 1185.5,-73 1129.5,-73"/>
<text text-anchor="middle" x="1157.5" y="-80" font-family="Helvetica,sans-Serif" font-size="10.00">Rtypes.h</text>
</g>
<!-- Node8&#45;&gt;Node14 -->
<g id="edge13" class="edge"><title>Node8&#45;&gt;Node14</title>
<path fill="none" stroke="midnightblue" d="M832.189,-139.621C903.089,-134.731 1021.55,-123.319 1120.5,-98 1123.17,-97.318 1125.9,-96.4967 1128.61,-95.596"/>
<polygon fill="midnightblue" stroke="midnightblue" points="1130.02,-98.8097 1138.21,-92.0933 1127.62,-92.2339 1130.02,-98.8097"/>
</g>
<!-- Node15 -->
<g id="node15" class="node"><title>Node15</title>
<polygon fill="none" stroke="#bfbfbf" points="1203.5,-73 1203.5,-92 1279.5,-92 1279.5,-73 1203.5,-73"/>
<text text-anchor="middle" x="1241.5" y="-80" font-family="Helvetica,sans-Serif" font-size="10.00">TGeoMatrix.h</text>
</g>
<!-- Node8&#45;&gt;Node15 -->
<g id="edge14" class="edge"><title>Node8&#45;&gt;Node15</title>
<path fill="none" stroke="midnightblue" d="M832.017,-140.174C915.407,-135.543 1067.3,-124.097 1194.5,-98 1198.64,-97.1504 1202.94,-96.0873 1207.17,-94.9249"/>
<polygon fill="midnightblue" stroke="midnightblue" points="1208.24,-98.2592 1216.85,-92.0865 1206.27,-91.5421 1208.24,-98.2592"/>
</g>
<!-- Node16 -->
<g id="node16" class="node"><title>Node16</title>
<polygon fill="none" stroke="#bfbfbf" points="1298,-73 1298,-92 1343,-92 1343,-73 1298,-73"/>
<text text-anchor="middle" x="1320.5" y="-80" font-family="Helvetica,sans-Serif" font-size="10.00">iosfwd</text>
</g>
<!-- Node8&#45;&gt;Node16 -->
<g id="edge15" class="edge"><title>Node8&#45;&gt;Node16</title>
<path fill="none" stroke="midnightblue" d="M832.063,-140.225C950.649,-134.527 1203.85,-120.154 1288.5,-98 1290.66,-97.4354 1292.85,-96.7363 1295.03,-95.9526"/>
<polygon fill="midnightblue" stroke="midnightblue" points="1296.38,-99.1824 1304.28,-92.1305 1293.7,-92.7123 1296.38,-99.1824"/>
</g>
</g>
</svg>
        <g id="navigator" transform="translate(0 0)" fill="#404254">
                <rect fill="#f2f5e9" fill-opacity="0.5" stroke="#606060" stroke-width=".5" x="0" y="0" width="60" height="60"/>
                <use id="zoomplus" xlink:href="#zoomPlus" x="17" y="9" onmousedown="handleZoom(evt,'in')"/>
                <use id="zoomminus" xlink:href="#zoomMin" x="42" y="9" onmousedown="handleZoom(evt,'out')"/>
                <use id="reset" xlink:href="#resetDef" x="30" y="36" onmousedown="handleReset()"/>
                <g id="arrowUp" xlink:href="#dirArrow" transform="translate(30 24)" onmousedown="handlePan(0,-1)">
                  <use xlink:href="#rim" fill="#404040">
                        <set attributeName="fill" to="#808080" begin="arrowUp.mouseover" end="arrowUp.mouseout"/>
                  </use>
                  <path fill="none" stroke="white" stroke-width="1.5" d="M0,-3.0v7 M-2.5,-0.5L0,-3.0L2.5,-0.5"/>
                </g>
                <g id="arrowRight" xlink:href="#dirArrow" transform="rotate(90) translate(36 -43)" onmousedown="handlePan(1,0)">
                  <use xlink:href="#rim" fill="#404040">
                        <set attributeName="fill" to="#808080" begin="arrowRight.mouseover" end="arrowRight.mouseout"/>
                  </use>
                  <path fill="none" stroke="white" stroke-width="1.5" d="M0,-3.0v7 M-2.5,-0.5L0,-3.0L2.5,-0.5"/>
                </g>
                <g id="arrowDown" xlink:href="#dirArrow" transform="rotate(180) translate(-30 -48)" onmousedown="handlePan(0,1)">
                  <use xlink:href="#rim" fill="#404040">
                        <set attributeName="fill" to="#808080" begin="arrowDown.mouseover" end="arrowDown.mouseout"/>
                  </use>
                  <path fill="none" stroke="white" stroke-width="1.5" d="M0,-3.0v7 M-2.5,-0.5L0,-3.0L2.5,-0.5"/>
                </g>
                <g id="arrowLeft" xlink:href="#dirArrow" transform="rotate(270) translate(-36 17)" onmousedown="handlePan(-1,0)">
                  <use xlink:href="#rim" fill="#404040">
                        <set attributeName="fill" to="#808080" begin="arrowLeft.mouseover" end="arrowLeft.mouseout"/>
                  </use>
                  <path fill="none" stroke="white" stroke-width="1.5" d="M0,-3.0v7 M-2.5,-0.5L0,-3.0L2.5,-0.5"/>
                </g>
        </g>
        <svg viewBox="0 0 15 15" width="100%" height="30px" preserveAspectRatio="xMaxYMin meet">
         <g id="arrow_out" transform="scale(0.3 0.3)">
          <a xlink:href="PadRegionInfo_8h__incl_org.svg" target="_base">
           <rect id="button" ry="5" rx="5" y="6" x="6" height="38" width="38"
                fill="#f2f5e9" fill-opacity="0.5" stroke="#606060" stroke-width="1.0"/>
           <path id="arrow"
             d="M 11.500037,31.436501 C 11.940474,20.09759 22.043105,11.32322 32.158766,21.979434 L 37.068811,17.246167 C 37.068811,17.246167 37.088388,32 37.088388,32 L 22.160133,31.978069 C 22.160133,31.978069 26.997745,27.140456 26.997745,27.140456 C 18.528582,18.264221 13.291696,25.230495 11.500037,31.436501 z"
             style="fill:#404040;"/>
          </a>
         </g>
        </svg>
</svg>
