<?xml version="1.0" encoding="UTF-8" standalone="no"?>
<!DOCTYPE svg PUBLIC "-//W3C//DTD SVG 1.1//EN"
 "http://www.w3.org/Graphics/SVG/1.1/DTD/svg11.dtd">
<!-- Generated by graphviz version 2.38.0 (20140413.2041)
 -->
<!-- Title: /home/travis/build/AliceO2Group/AliceO2/Detectors/ITSMFT/MFT/base/include/MFTBase/HalfDetector.h Pages: 1 -->
<svg width="276pt" height="173pt"
 viewBox="0.00 0.00 275.50 173.00" xmlns="http://www.w3.org/2000/svg" xmlns:xlink="http://www.w3.org/1999/xlink">
<g id="graph0" class="graph" transform="scale(1 1) rotate(0) translate(4 169)">
<title>/home/travis/build/AliceO2Group/AliceO2/Detectors/ITSMFT/MFT/base/include/MFTBase/HalfDetector.h</title>
<!-- Node1 -->
<g id="node1" class="node"><title>Node1</title>
<polygon fill="#bfbfbf" stroke="black" points="-1.42109e-14,-112.5 -1.42109e-14,-164.5 187,-164.5 187,-112.5 -1.42109e-14,-112.5"/>
<text text-anchor="start" x="8" y="-152.5" font-family="Helvetica,sans-Serif" font-size="10.00">/home/travis/build</text>
<text text-anchor="start" x="8" y="-141.5" font-family="Helvetica,sans-Serif" font-size="10.00">/AliceO2Group/AliceO2</text>
<text text-anchor="start" x="8" y="-130.5" font-family="Helvetica,sans-Serif" font-size="10.00">/Detectors/ITSMFT/MFT</text>
<text text-anchor="middle" x="93.5" y="-119.5" font-family="Helvetica,sans-Serif" font-size="10.00">/base/include/MFTBase/HalfDetector.h</text>
</g>
<!-- Node2 -->
<g id="node2" class="node"><title>Node2</title>
<polygon fill="none" stroke="#bfbfbf" points="3.5,-56.5 3.5,-75.5 65.5,-75.5 65.5,-56.5 3.5,-56.5"/>
<text text-anchor="middle" x="34.5" y="-63.5" font-family="Helvetica,sans-Serif" font-size="10.00">TNamed.h</text>
</g>
<!-- Node1&#45;&gt;Node2 -->
<g id="edge1" class="edge"><title>Node1&#45;&gt;Node2</title>
<path fill="none" stroke="midnightblue" d="M72.5327,-112.446C64.4841,-102.828 55.5084,-92.1032 48.2985,-83.4881"/>
<polygon fill="midnightblue" stroke="midnightblue" points="50.8791,-81.1181 41.7771,-75.6955 45.5109,-85.6106 50.8791,-81.1181"/>
</g>
<!-- Node3 -->
<g id="node3" class="node"><title>Node3</title>
<polygon fill="none" stroke="#bfbfbf" points="54.5,-0.5 54.5,-19.5 136.5,-19.5 136.5,-0.5 54.5,-0.5"/>
<text text-anchor="middle" x="95.5" y="-7.5" font-family="Helvetica,sans-Serif" font-size="10.00">TGeoVolume.h</text>
</g>
<!-- Node1&#45;&gt;Node3 -->
<g id="edge2" class="edge"><title>Node1&#45;&gt;Node3</title>
<path fill="none" stroke="midnightblue" d="M93.8999,-112.205C94.2845,-87.8802 94.857,-51.6709 95.2028,-29.8001"/>
<polygon fill="midnightblue" stroke="midnightblue" points="98.7062,-29.6038 95.3648,-19.5497 91.7071,-29.4931 98.7062,-29.6038"/>
</g>
<!-- Node4 -->
<g id="node4" class="node"><title>Node4</title>
<g id="a_node4"><a xlink:href="../../dc/d37/PowerSupplyUnit_8h.html" target="_top" xlink:title="MFT heat exchanger builder. ">
<polygon fill="none" stroke="black" points="121.5,-56.5 121.5,-75.5 267.5,-75.5 267.5,-56.5 121.5,-56.5"/>
<text text-anchor="middle" x="194.5" y="-63.5" font-family="Helvetica,sans-Serif" font-size="10.00">MFTBase/PowerSupplyUnit.h</text>
</a>
</g>
</g>
<!-- Node1&#45;&gt;Node4 -->
<g id="edge3" class="edge"><title>Node1&#45;&gt;Node4</title>
<path fill="none" stroke="midnightblue" d="M129.393,-112.446C144.176,-102.127 160.786,-90.5333 173.529,-81.6384"/>
<polygon fill="midnightblue" stroke="midnightblue" points="175.846,-84.2892 182.043,-75.6955 171.839,-78.5493 175.846,-84.2892"/>
</g>
<!-- Node4&#45;&gt;Node3 -->
<g id="edge4" class="edge"><title>Node4&#45;&gt;Node3</title>
<path fill="none" stroke="midnightblue" d="M178.594,-56.324C162.862,-47.7428 138.558,-34.486 120.291,-24.5224"/>
<polygon fill="midnightblue" stroke="midnightblue" points="121.822,-21.3704 111.367,-19.6545 118.47,-27.5157 121.822,-21.3704"/>
</g>
<!-- Node5 -->
<g id="node5" class="node"><title>Node5</title>
<polygon fill="none" stroke="#bfbfbf" points="156.5,-0.5 156.5,-19.5 232.5,-19.5 232.5,-0.5 156.5,-0.5"/>
<text text-anchor="middle" x="194.5" y="-7.5" font-family="Helvetica,sans-Serif" font-size="10.00">TGeoMatrix.h</text>
</g>
<!-- Node4&#45;&gt;Node5 -->
<g id="edge5" class="edge"><title>Node4&#45;&gt;Node5</title>
<path fill="none" stroke="midnightblue" d="M194.5,-56.083C194.5,-49.0059 194.5,-38.8611 194.5,-29.9865"/>
<polygon fill="midnightblue" stroke="midnightblue" points="198,-29.751 194.5,-19.7511 191,-29.7511 198,-29.751"/>
</g>
</g>
</svg>
