<?xml version="1.0" encoding="UTF-8" standalone="no"?>
<!DOCTYPE svg PUBLIC "-//W3C//DTD SVG 1.1//EN"
 "http://www.w3.org/Graphics/SVG/1.1/DTD/svg11.dtd">
<!-- Generated by graphviz version 2.38.0 (20140413.2041)
 -->
<!-- Title: /home/travis/build/AliceO2Group/AliceO2/EventVisualisation/Detectors/include/EventVisualisationDetectors/DataReaderTPC.h Pages: 1 -->
<svg width="208pt" height="139pt"
 viewBox="0.00 0.00 207.50 139.00" xmlns="http://www.w3.org/2000/svg" xmlns:xlink="http://www.w3.org/1999/xlink">
<g id="graph0" class="graph" transform="scale(1 1) rotate(0) translate(4 135)">
<title>/home/travis/build/AliceO2Group/AliceO2/EventVisualisation/Detectors/include/EventVisualisationDetectors/DataReaderTPC.h</title>
<!-- Node1 -->
<g id="node1" class="node"><title>Node1</title>
<polygon fill="#bfbfbf" stroke="black" points="-1.42109e-14,-67.5 -1.42109e-14,-130.5 177,-130.5 177,-67.5 -1.42109e-14,-67.5"/>
<text text-anchor="start" x="8" y="-118.5" font-family="Helvetica,sans-Serif" font-size="10.00">/home/travis/build</text>
<text text-anchor="start" x="8" y="-107.5" font-family="Helvetica,sans-Serif" font-size="10.00">/AliceO2Group/AliceO2</text>
<text text-anchor="start" x="8" y="-96.5" font-family="Helvetica,sans-Serif" font-size="10.00">/EventVisualisation/Detectors</text>
<text text-anchor="start" x="8" y="-85.5" font-family="Helvetica,sans-Serif" font-size="10.00">/include/EventVisualisationDetectors</text>
<text text-anchor="middle" x="88.5" y="-74.5" font-family="Helvetica,sans-Serif" font-size="10.00">/DataReaderTPC.h</text>
</g>
<!-- Node2 -->
<g id="node2" class="node"><title>Node2</title>
<polygon fill="none" stroke="#bfbfbf" points="14,-6 14,-25 61,-25 61,-6 14,-6"/>
<text text-anchor="middle" x="37.5" y="-13" font-family="Helvetica,sans-Serif" font-size="10.00">TFile.h</text>
</g>
<!-- Node1&#45;&gt;Node2 -->
<g id="edge1" class="edge"><title>Node1&#45;&gt;Node2</title>
<path fill="none" stroke="midnightblue" d="M69.2191,-67.1883C62.1954,-55.9642 54.5013,-43.6687 48.4501,-33.9986"/>
<polygon fill="midnightblue" stroke="midnightblue" points="51.3038,-31.961 43.0322,-25.3406 45.3699,-35.6743 51.3038,-31.961"/>
</g>
<!-- Node3 -->
<g id="node3" class="node"><title>Node3</title>
<g id="a_node3"><a xlink:href="../../d7/dec/EventVisualisation_2Base_2include_2EventVisualisationBase_2DataReader_8h.html" target="_top" xlink:title="EventVisualisationBase\l/DataReader.h">
<polygon fill="none" stroke="black" points="79.5,-0.5 79.5,-30.5 199.5,-30.5 199.5,-0.5 79.5,-0.5"/>
<text text-anchor="start" x="87.5" y="-18.5" font-family="Helvetica,sans-Serif" font-size="10.00">EventVisualisationBase</text>
<text text-anchor="middle" x="139.5" y="-7.5" font-family="Helvetica,sans-Serif" font-size="10.00">/DataReader.h</text>
</a>
</g>
</g>
<!-- Node1&#45;&gt;Node3 -->
<g id="edge2" class="edge"><title>Node1&#45;&gt;Node3</title>
<path fill="none" stroke="midnightblue" d="M107.781,-67.1883C113.643,-57.8208 119.972,-47.707 125.423,-38.996"/>
<polygon fill="midnightblue" stroke="midnightblue" points="128.391,-40.8499 130.729,-30.5161 122.457,-37.1366 128.391,-40.8499"/>
</g>
</g>
</svg>
