<?xml version="1.0" encoding="UTF-8" standalone="no"?>
<!DOCTYPE svg PUBLIC "-//W3C//DTD SVG 1.1//EN"
 "http://www.w3.org/Graphics/SVG/1.1/DTD/svg11.dtd">
<!-- Generated by graphviz version 2.38.0 (20140413.2041)
 -->
<!-- Title: gpucf::Executable Pages: 1 -->
<svg width="463pt" height="237pt"
 viewBox="0.00 0.00 463.00 237.00" xmlns="http://www.w3.org/2000/svg" xmlns:xlink="http://www.w3.org/1999/xlink">
<g id="graph0" class="graph" transform="scale(1 1) rotate(0) translate(4 233)">
<title>gpucf::Executable</title>
<!-- Node1 -->
<g id="node1" class="node"><title>Node1</title>
<polygon fill="#bfbfbf" stroke="black" points="166,-116.5 166,-228.5 276,-228.5 276,-116.5 166,-116.5"/>
<text text-anchor="middle" x="221" y="-216.5" font-family="Helvetica,sans-Serif" font-size="10.00">gpucf::Executable</text>
<polyline fill="none" stroke="black" points="166,-209.5 276,-209.5 "/>
<text text-anchor="middle" x="221" y="-197.5" font-family="Helvetica,sans-Serif" font-size="10.00"> </text>
<polyline fill="none" stroke="black" points="166,-190.5 276,-190.5 "/>
<text text-anchor="start" x="174" y="-178.5" font-family="Helvetica,sans-Serif" font-size="10.00">+ Executable()</text>
<text text-anchor="start" x="174" y="-167.5" font-family="Helvetica,sans-Serif" font-size="10.00">+ ~Executable()</text>
<text text-anchor="start" x="174" y="-156.5" font-family="Helvetica,sans-Serif" font-size="10.00">+ main()</text>
<text text-anchor="start" x="174" y="-145.5" font-family="Helvetica,sans-Serif" font-size="10.00">+ showHelpAndExit()</text>
<text text-anchor="start" x="174" y="-134.5" font-family="Helvetica,sans-Serif" font-size="10.00"># setupFlags()</text>
<text text-anchor="start" x="174" y="-123.5" font-family="Helvetica,sans-Serif" font-size="10.00"># mainImpl()</text>
</g>
<!-- Node2 -->
<g id="node2" class="node"><title>Node2</title>
<g id="a_node2"><a xlink:href="../../dd/d77/classgpucf_1_1Benchmark.html" target="_top" xlink:title="{gpucf::Benchmark\n||+ Benchmark()\l# setupFlags()\l# mainImpl()\l}">
<polygon fill="none" stroke="black" points="0,-0.5 0,-79.5 96,-79.5 96,-0.5 0,-0.5"/>
<text text-anchor="middle" x="48" y="-67.5" font-family="Helvetica,sans-Serif" font-size="10.00">gpucf::Benchmark</text>
<polyline fill="none" stroke="black" points="0,-60.5 96,-60.5 "/>
<text text-anchor="middle" x="48" y="-48.5" font-family="Helvetica,sans-Serif" font-size="10.00"> </text>
<polyline fill="none" stroke="black" points="0,-41.5 96,-41.5 "/>
<text text-anchor="start" x="8" y="-29.5" font-family="Helvetica,sans-Serif" font-size="10.00">+ Benchmark()</text>
<text text-anchor="start" x="8" y="-18.5" font-family="Helvetica,sans-Serif" font-size="10.00"># setupFlags()</text>
<text text-anchor="start" x="8" y="-7.5" font-family="Helvetica,sans-Serif" font-size="10.00"># mainImpl()</text>
</a>
</g>
</g>
<!-- Node1&#45;&gt;Node2 -->
<g id="edge1" class="edge"><title>Node1&#45;&gt;Node2</title>
<path fill="none" stroke="midnightblue" d="M157.538,-123.629C137.304,-108.365 115.255,-91.7328 96.2782,-77.4179"/>
<polygon fill="none" stroke="midnightblue" points="155.695,-126.622 165.786,-129.85 159.91,-121.034 155.695,-126.622"/>
</g>
<!-- Node3 -->
<g id="node3" class="node"><title>Node3</title>
<g id="a_node3"><a xlink:href="../../d2/de6/classgpucf_1_1CfRunner.html" target="_top" xlink:title="{gpucf::CfRunner\n||+ CfRunner()\l# setupFlags()\l# mainImpl()\l}">
<polygon fill="none" stroke="black" points="114.5,-0.5 114.5,-79.5 203.5,-79.5 203.5,-0.5 114.5,-0.5"/>
<text text-anchor="middle" x="159" y="-67.5" font-family="Helvetica,sans-Serif" font-size="10.00">gpucf::CfRunner</text>
<polyline fill="none" stroke="black" points="114.5,-60.5 203.5,-60.5 "/>
<text text-anchor="middle" x="159" y="-48.5" font-family="Helvetica,sans-Serif" font-size="10.00"> </text>
<polyline fill="none" stroke="black" points="114.5,-41.5 203.5,-41.5 "/>
<text text-anchor="start" x="122.5" y="-29.5" font-family="Helvetica,sans-Serif" font-size="10.00">+ CfRunner()</text>
<text text-anchor="start" x="122.5" y="-18.5" font-family="Helvetica,sans-Serif" font-size="10.00"># setupFlags()</text>
<text text-anchor="start" x="122.5" y="-7.5" font-family="Helvetica,sans-Serif" font-size="10.00"># mainImpl()</text>
</a>
</g>
</g>
<!-- Node1&#45;&gt;Node3 -->
<g id="edge2" class="edge"><title>Node1&#45;&gt;Node3</title>
<path fill="none" stroke="midnightblue" d="M190.321,-106.925C185.919,-97.6601 181.509,-88.377 177.445,-79.823"/>
<polygon fill="none" stroke="midnightblue" points="187.254,-108.626 194.706,-116.156 193.576,-105.622 187.254,-108.626"/>
</g>
<!-- Node4 -->
<g id="node4" class="node"><title>Node4</title>
<g id="a_node4"><a xlink:href="../../df/de8/classgpucf_1_1CompareClusters.html" target="_top" xlink:title="{gpucf::CompareClusters\n||+ CompareClusters()\l# setupFlags()\l# mainImpl()\l}">
<polygon fill="none" stroke="black" points="221.5,-0.5 221.5,-79.5 344.5,-79.5 344.5,-0.5 221.5,-0.5"/>
<text text-anchor="middle" x="283" y="-67.5" font-family="Helvetica,sans-Serif" font-size="10.00">gpucf::CompareClusters</text>
<polyline fill="none" stroke="black" points="221.5,-60.5 344.5,-60.5 "/>
<text text-anchor="middle" x="283" y="-48.5" font-family="Helvetica,sans-Serif" font-size="10.00"> </text>
<polyline fill="none" stroke="black" points="221.5,-41.5 344.5,-41.5 "/>
<text text-anchor="start" x="229.5" y="-29.5" font-family="Helvetica,sans-Serif" font-size="10.00">+ CompareClusters()</text>
<text text-anchor="start" x="229.5" y="-18.5" font-family="Helvetica,sans-Serif" font-size="10.00"># setupFlags()</text>
<text text-anchor="start" x="229.5" y="-7.5" font-family="Helvetica,sans-Serif" font-size="10.00"># mainImpl()</text>
</a>
</g>
</g>
<!-- Node1&#45;&gt;Node4 -->
<g id="edge3" class="edge"><title>Node1&#45;&gt;Node4</title>
<path fill="none" stroke="midnightblue" d="M251.679,-106.925C256.081,-97.6601 260.491,-88.377 264.555,-79.823"/>
<polygon fill="none" stroke="midnightblue" points="248.424,-105.622 247.294,-116.156 254.746,-108.626 248.424,-105.622"/>
</g>
<!-- Node5 -->
<g id="node5" class="node"><title>Node5</title>
<g id="a_node5"><a xlink:href="../../db/da5/classgpucf_1_1Testbench.html" target="_top" xlink:title="{gpucf::Testbench\n||+ Testbench()\l# setupFlags()\l# mainImpl()\l}">
<polygon fill="none" stroke="black" points="363,-0.5 363,-79.5 455,-79.5 455,-0.5 363,-0.5"/>
<text text-anchor="middle" x="409" y="-67.5" font-family="Helvetica,sans-Serif" font-size="10.00">gpucf::Testbench</text>
<polyline fill="none" stroke="black" points="363,-60.5 455,-60.5 "/>
<text text-anchor="middle" x="409" y="-48.5" font-family="Helvetica,sans-Serif" font-size="10.00"> </text>
<polyline fill="none" stroke="black" points="363,-41.5 455,-41.5 "/>
<text text-anchor="start" x="371" y="-29.5" font-family="Helvetica,sans-Serif" font-size="10.00">+ Testbench()</text>
<text text-anchor="start" x="371" y="-18.5" font-family="Helvetica,sans-Serif" font-size="10.00"># setupFlags()</text>
<text text-anchor="start" x="371" y="-7.5" font-family="Helvetica,sans-Serif" font-size="10.00"># mainImpl()</text>
</a>
</g>
</g>
<!-- Node1&#45;&gt;Node5 -->
<g id="edge4" class="edge"><title>Node1&#45;&gt;Node5</title>
<path fill="none" stroke="midnightblue" d="M284.432,-128.131C306.499,-112.972 331.385,-95.7963 354,-80 356.879,-77.9891 359.838,-75.914 362.82,-73.8172"/>
<polygon fill="none" stroke="midnightblue" points="282.387,-125.289 276.123,-133.835 286.349,-131.06 282.387,-125.289"/>
</g>
</g>
</svg>
