<?xml version="1.0" encoding="UTF-8" standalone="no"?>
<!DOCTYPE svg PUBLIC "-//W3C//DTD SVG 1.1//EN"
 "http://www.w3.org/Graphics/SVG/1.1/DTD/svg11.dtd">
<!-- Generated by graphviz version 2.38.0 (20140413.2041)
 -->
<!-- Title: o2::its::TrackingParameters Pages: 1 -->
<svg width="260pt" height="259pt"
 viewBox="0.00 0.00 259.50 259.00" xmlns="http://www.w3.org/2000/svg" xmlns:xlink="http://www.w3.org/1999/xlink">
<g id="graph0" class="graph" transform="scale(1 1) rotate(0) translate(4 255)">
<title>o2::its::TrackingParameters</title>
<!-- Node1 -->
<g id="node1" class="node"><title>Node1</title>
<polygon fill="#bfbfbf" stroke="black" points="28,-0.5 28,-68.5 165,-68.5 165,-0.5 28,-0.5"/>
<text text-anchor="middle" x="96.5" y="-56.5" font-family="Helvetica,sans-Serif" font-size="10.00">o2::its::TrackingParameters</text>
<polyline fill="none" stroke="black" points="28,-49.5 165,-49.5 "/>
<text text-anchor="middle" x="96.5" y="-37.5" font-family="Helvetica,sans-Serif" font-size="10.00"> </text>
<polyline fill="none" stroke="black" points="28,-30.5 165,-30.5 "/>
<text text-anchor="start" x="36" y="-18.5" font-family="Helvetica,sans-Serif" font-size="10.00">+ operator=()</text>
<text text-anchor="start" x="36" y="-7.5" font-family="Helvetica,sans-Serif" font-size="10.00">+ CellMinimumLevel()</text>
</g>
<!-- Node2 -->
<g id="node2" class="node"><title>Node2</title>
<g id="a_node2"><a xlink:href="../../d4/dc3/classfloat.html" target="_top" xlink:title="{float\n||}">
<polygon fill="none" stroke="black" points="0,-193.5 0,-250.5 35,-250.5 35,-193.5 0,-193.5"/>
<text text-anchor="middle" x="17.5" y="-238.5" font-family="Helvetica,sans-Serif" font-size="10.00">float</text>
<polyline fill="none" stroke="black" points="0,-231.5 35,-231.5 "/>
<text text-anchor="middle" x="17.5" y="-219.5" font-family="Helvetica,sans-Serif" font-size="10.00"> </text>
<polyline fill="none" stroke="black" points="0,-212.5 35,-212.5 "/>
<text text-anchor="middle" x="17.5" y="-200.5" font-family="Helvetica,sans-Serif" font-size="10.00"> </text>
</a>
</g>
</g>
<!-- Node2&#45;&gt;Node1 -->
<g id="edge1" class="edge"><title>Node2&#45;&gt;Node1</title>
<path fill="none" stroke="#404040" d="M10.5324,-193.465C4.89456,-164.985 0.518738,-120.123 18.5,-87 20.3,-83.6843 22.4164,-80.5461 24.7769,-77.5804"/>
<polygon fill="none" stroke="#404040" points="24.8788,-77.4711 26.0414,-70.3543 33.0579,-68.6903 31.8953,-75.8071 24.8788,-77.4711"/>
<text text-anchor="middle" x="86.5" y="-167" font-family="Helvetica,sans-Serif" font-size="10.00"> +NeighbourMaxDeltaN</text>
<text text-anchor="middle" x="86.5" y="-156" font-family="Helvetica,sans-Serif" font-size="10.00">+CellMaxDCA</text>
<text text-anchor="middle" x="86.5" y="-145" font-family="Helvetica,sans-Serif" font-size="10.00">+CellMaxDeltaPhi</text>
<text text-anchor="middle" x="86.5" y="-134" font-family="Helvetica,sans-Serif" font-size="10.00">+TrackletMaxDeltaZ</text>
<text text-anchor="middle" x="86.5" y="-123" font-family="Helvetica,sans-Serif" font-size="10.00">+CellMaxDeltaTanLambda</text>
<text text-anchor="middle" x="86.5" y="-112" font-family="Helvetica,sans-Serif" font-size="10.00">+CellMaxDeltaZ</text>
<text text-anchor="middle" x="86.5" y="-101" font-family="Helvetica,sans-Serif" font-size="10.00">+NeighbourMaxDeltaCurvature</text>
<text text-anchor="middle" x="86.5" y="-90" font-family="Helvetica,sans-Serif" font-size="10.00">+TrackletMaxDeltaPhi</text>
</g>
<!-- Node3 -->
<g id="node3" class="node"><title>Node3</title>
<polygon fill="none" stroke="#bfbfbf" points="162,-193.5 162,-250.5 191,-250.5 191,-193.5 162,-193.5"/>
<text text-anchor="middle" x="176.5" y="-238.5" font-family="Helvetica,sans-Serif" font-size="10.00">int</text>
<polyline fill="none" stroke="#bfbfbf" points="162,-231.5 191,-231.5 "/>
<text text-anchor="middle" x="176.5" y="-219.5" font-family="Helvetica,sans-Serif" font-size="10.00"> </text>
<polyline fill="none" stroke="#bfbfbf" points="162,-212.5 191,-212.5 "/>
<text text-anchor="middle" x="176.5" y="-200.5" font-family="Helvetica,sans-Serif" font-size="10.00"> </text>
</g>
<!-- Node3&#45;&gt;Node1 -->
<g id="edge2" class="edge"><title>Node3&#45;&gt;Node1</title>
<path fill="none" stroke="#404040" d="M177.232,-193.334C176.823,-164.948 172.878,-120.345 154.5,-87 152.794,-83.9042 150.828,-80.9018 148.673,-78.0062"/>
<polygon fill="none" stroke="#404040" points="148.465,-77.7605 141.538,-75.757 140.723,-68.5921 147.651,-70.5956 148.465,-77.7605"/>
<text text-anchor="middle" x="213.5" y="-134" font-family="Helvetica,sans-Serif" font-size="10.00"> +ClusterSharing</text>
<text text-anchor="middle" x="213.5" y="-123" font-family="Helvetica,sans-Serif" font-size="10.00">+MinTrackLength</text>
</g>
</g>
</svg>
