<?xml version="1.0" encoding="UTF-8" standalone="no"?>
<!DOCTYPE svg PUBLIC "-//W3C//DTD SVG 1.1//EN"
 "http://www.w3.org/Graphics/SVG/1.1/DTD/svg11.dtd">
<!-- Generated by graphviz version 2.38.0 (20140413.2041)
 -->
<!-- Title: o2::zdc::Module Pages: 1 -->
<svg width="702pt" height="237pt"
 viewBox="0.00 0.00 702.00 237.00" xmlns="http://www.w3.org/2000/svg" xmlns:xlink="http://www.w3.org/1999/xlink">
<g id="graph0" class="graph" transform="scale(1 1) rotate(0) translate(4 233)">
<title>o2::zdc::Module</title>
<!-- Node1 -->
<g id="node1" class="node"><title>Node1</title>
<polygon fill="#bfbfbf" stroke="black" points="308.5,-0.5 308.5,-90.5 395.5,-90.5 395.5,-0.5 308.5,-0.5"/>
<text text-anchor="middle" x="352" y="-78.5" font-family="Helvetica,sans-Serif" font-size="10.00">o2::zdc::Module</text>
<polyline fill="none" stroke="black" points="308.5,-71.5 395.5,-71.5 "/>
<text text-anchor="middle" x="352" y="-59.5" font-family="Helvetica,sans-Serif" font-size="10.00"> </text>
<polyline fill="none" stroke="black" points="308.5,-52.5 395.5,-52.5 "/>
<text text-anchor="start" x="316.5" y="-40.5" font-family="Helvetica,sans-Serif" font-size="10.00">+ setChannel()</text>
<text text-anchor="start" x="316.5" y="-29.5" font-family="Helvetica,sans-Serif" font-size="10.00">+ print()</text>
<text text-anchor="start" x="316.5" y="-18.5" font-family="Helvetica,sans-Serif" font-size="10.00">+ check()</text>
<text text-anchor="start" x="316.5" y="-7.5" font-family="Helvetica,sans-Serif" font-size="10.00">+ ClassDefNV()</text>
</g>
<!-- Node2 -->
<g id="node2" class="node"><title>Node2</title>
<polygon fill="none" stroke="#bfbfbf" points="0,-160.5 0,-228.5 152,-228.5 152,-160.5 0,-160.5"/>
<text text-anchor="start" x="8" y="-216.5" font-family="Helvetica,sans-Serif" font-size="10.00">array&lt; o2::zdc::TriggerChannel</text>
<text text-anchor="middle" x="76" y="-205.5" font-family="Helvetica,sans-Serif" font-size="10.00">Config, MaxChannels &gt;</text>
<polyline fill="none" stroke="#bfbfbf" points="0,-198.5 152,-198.5 "/>
<text text-anchor="middle" x="76" y="-186.5" font-family="Helvetica,sans-Serif" font-size="10.00"> </text>
<polyline fill="none" stroke="#bfbfbf" points="0,-179.5 152,-179.5 "/>
<text text-anchor="middle" x="76" y="-167.5" font-family="Helvetica,sans-Serif" font-size="10.00"> </text>
</g>
<!-- Node2&#45;&gt;Node1 -->
<g id="edge1" class="edge"><title>Node2&#45;&gt;Node1</title>
<path fill="none" stroke="#404040" d="M119.643,-160.466C142.788,-143.808 172.134,-124.012 200,-109 231.046,-92.2749 267.544,-77.1314 296.992,-65.9407"/>
<polygon fill="none" stroke="#404040" points="297.08,-65.9078 301.296,-60.0574 308.318,-61.6987 304.102,-67.5491 297.08,-65.9078"/>
<text text-anchor="middle" x="240" y="-123" font-family="Helvetica,sans-Serif" font-size="10.00"> +trigChannelConf</text>
</g>
<!-- Node3 -->
<g id="node3" class="node"><title>Node3</title>
<polygon fill="none" stroke="#bfbfbf" points="170,-166 170,-223 322,-223 322,-166 170,-166"/>
<text text-anchor="middle" x="246" y="-211" font-family="Helvetica,sans-Serif" font-size="10.00">array&lt; int16_t, MaxChannels &gt;</text>
<polyline fill="none" stroke="#bfbfbf" points="170,-204 322,-204 "/>
<text text-anchor="middle" x="246" y="-192" font-family="Helvetica,sans-Serif" font-size="10.00"> </text>
<polyline fill="none" stroke="#bfbfbf" points="170,-185 322,-185 "/>
<text text-anchor="middle" x="246" y="-173" font-family="Helvetica,sans-Serif" font-size="10.00"> </text>
</g>
<!-- Node3&#45;&gt;Node1 -->
<g id="edge2" class="edge"><title>Node3&#45;&gt;Node1</title>
<path fill="none" stroke="#404040" d="M265.938,-165.85C279.148,-147.531 296.92,-122.885 312.884,-100.746"/>
<polygon fill="none" stroke="#404040" points="313.05,-100.516 313.315,-93.3095 320.068,-90.7824 319.804,-97.9886 313.05,-100.516"/>
<text text-anchor="middle" x="323.5" y="-123" font-family="Helvetica,sans-Serif" font-size="10.00"> +linkID</text>
</g>
<!-- Node4 -->
<g id="node4" class="node"><title>Node4</title>
<polygon fill="none" stroke="#bfbfbf" points="340.5,-166 340.5,-223 369.5,-223 369.5,-166 340.5,-166"/>
<text text-anchor="middle" x="355" y="-211" font-family="Helvetica,sans-Serif" font-size="10.00">int</text>
<polyline fill="none" stroke="#bfbfbf" points="340.5,-204 369.5,-204 "/>
<text text-anchor="middle" x="355" y="-192" font-family="Helvetica,sans-Serif" font-size="10.00"> </text>
<polyline fill="none" stroke="#bfbfbf" points="340.5,-185 369.5,-185 "/>
<text text-anchor="middle" x="355" y="-173" font-family="Helvetica,sans-Serif" font-size="10.00"> </text>
</g>
<!-- Node4&#45;&gt;Node1 -->
<g id="edge3" class="edge"><title>Node4&#45;&gt;Node1</title>
<path fill="none" stroke="#404040" d="M353.787,-165.976C353.484,-158.223 353.192,-149.782 353,-142 352.687,-129.313 352.472,-115.676 352.324,-102.79"/>
<polygon fill="none" stroke="#404040" points="352.324,-102.722 348.263,-96.7626 352.202,-90.7224 356.263,-96.6816 352.324,-102.722"/>
<text text-anchor="middle" x="397" y="-134" font-family="Helvetica,sans-Serif" font-size="10.00"> +MaxChannels</text>
<text text-anchor="middle" x="397" y="-123" font-family="Helvetica,sans-Serif" font-size="10.00">+id</text>
<text text-anchor="middle" x="397" y="-112" font-family="Helvetica,sans-Serif" font-size="10.00">+MaxTriggChannels</text>
</g>
<!-- Node5 -->
<g id="node5" class="node"><title>Node5</title>
<polygon fill="none" stroke="#bfbfbf" points="390,-166 390,-223 536,-223 536,-166 390,-166"/>
<text text-anchor="middle" x="463" y="-211" font-family="Helvetica,sans-Serif" font-size="10.00">array&lt; int8_t, MaxChannels &gt;</text>
<polyline fill="none" stroke="#bfbfbf" points="390,-204 536,-204 "/>
<text text-anchor="middle" x="463" y="-192" font-family="Helvetica,sans-Serif" font-size="10.00"> </text>
<polyline fill="none" stroke="#bfbfbf" points="390,-185 536,-185 "/>
<text text-anchor="middle" x="463" y="-173" font-family="Helvetica,sans-Serif" font-size="10.00"> </text>
</g>
<!-- Node5&#45;&gt;Node1 -->
<g id="edge4" class="edge"><title>Node5&#45;&gt;Node1</title>
<path fill="none" stroke="#404040" d="M460.721,-165.981C458.147,-148.393 452.667,-125.813 441,-109 431.822,-95.7737 418.885,-84.4245 405.71,-75.1692"/>
<polygon fill="none" stroke="#404040" points="405.652,-75.1306 398.441,-75.1517 395.648,-68.5035 402.859,-68.4824 405.652,-75.1306"/>
<text text-anchor="middle" x="483" y="-123" font-family="Helvetica,sans-Serif" font-size="10.00"> +channelID</text>
</g>
<!-- Node6 -->
<g id="node6" class="node"><title>Node6</title>
<polygon fill="none" stroke="#bfbfbf" points="554,-166 554,-223 694,-223 694,-166 554,-166"/>
<text text-anchor="middle" x="624" y="-211" font-family="Helvetica,sans-Serif" font-size="10.00">array&lt; bool, MaxChannels &gt;</text>
<polyline fill="none" stroke="#bfbfbf" points="554,-204 694,-204 "/>
<text text-anchor="middle" x="624" y="-192" font-family="Helvetica,sans-Serif" font-size="10.00"> </text>
<polyline fill="none" stroke="#bfbfbf" points="554,-185 694,-185 "/>
<text text-anchor="middle" x="624" y="-173" font-family="Helvetica,sans-Serif" font-size="10.00"> </text>
</g>
<!-- Node6&#45;&gt;Node1 -->
<g id="edge5" class="edge"><title>Node6&#45;&gt;Node1</title>
<path fill="none" stroke="#404040" d="M592.974,-165.775C571.817,-147.881 542.557,-125.035 514,-109 480.172,-90.0058 439.414,-74.3138 407.244,-63.4041"/>
<polygon fill="none" stroke="#404040" points="407.196,-63.3884 400.241,-65.292 395.809,-59.6039 402.764,-57.7002 407.196,-63.3884"/>
<text text-anchor="middle" x="592.5" y="-128.5" font-family="Helvetica,sans-Serif" font-size="10.00"> +trigChannel</text>
<text text-anchor="middle" x="592.5" y="-117.5" font-family="Helvetica,sans-Serif" font-size="10.00">+readChannel</text>
</g>
</g>
</svg>
