<?xml version="1.0" encoding="UTF-8" standalone="no"?>
<!DOCTYPE svg PUBLIC "-//W3C//DTD SVG 1.1//EN"
 "http://www.w3.org/Graphics/SVG/1.1/DTD/svg11.dtd">
<!-- Generated by graphviz version 2.38.0 (20140413.2041)
 -->
<!-- Title: /home/travis/build/AliceO2Group/AliceO2/Detectors/MUON/MID/TestingSimTools/src/HitFinder.cxx Pages: 1 -->
<!--zoomable 374 -->
<svg id="main" version="1.1" xmlns="http://www.w3.org/2000/svg" xmlns:xlink="http://www.w3.org/1999/xlink" xml:space="preserve" onload="init(evt)">
<style type="text/css"><![CDATA[
.edge:hover path { stroke: red; }
.edge:hover polygon { stroke: red; fill: red; }
]]></style>
<script type="text/javascript"><![CDATA[
var edges = document.getElementsByTagName('g');
if (edges && edges.length) {
  for (var i=0;i<edges.length;i++) {
    if (edges[i].id.substr(0,4)=='edge') {
      edges[i].setAttribute('class','edge');
    }
  }
}
]]></script>
        <defs>
                <circle id="rim" cx="0" cy="0" r="7"/>
                <circle id="rim2" cx="0" cy="0" r="3.5"/>
                <g id="zoomPlus">
                        <use xlink:href="#rim" fill="#404040">
                                <set attributeName="fill" to="#808080" begin="zoomplus.mouseover" end="zoomplus.mouseout"/>
                        </use>
                        <path d="M-4,0h8M0,-4v8" fill="none" stroke="white" stroke-width="1.5" pointer-events="none"/>
                </g>
                <g id="zoomMin">
                        <use xlink:href="#rim" fill="#404040">
                                <set attributeName="fill" to="#808080" begin="zoomminus.mouseover" end="zoomminus.mouseout"/>
                        </use>
                        <path d="M-4,0h8" fill="none" stroke="white" stroke-width="1.5" pointer-events="none"/>
                </g>
                <g id="dirArrow">
                        <path fill="none" stroke="white" stroke-width="1.5" d="M0,-3.0v7 M-2.5,-0.5L0,-3.0L2.5,-0.5"/>
                </g>
               <g id="resetDef">
                       <use xlink:href="#rim2" fill="#404040">
                               <set attributeName="fill" to="#808080" begin="reset.mouseover" end="reset.mouseout"/>
                       </use>
               </g>
        </defs>

<script type="text/javascript">
var viewWidth = 1483;
var viewHeight = 374;
var sectionId = 'dynsection-0';
</script>
<script xlink:href="../../svgpan.js"/>
<svg id="graph" class="graph">
<g id="viewport">
<title>/home/travis/build/AliceO2Group/AliceO2/Detectors/MUON/MID/TestingSimTools/src/HitFinder.cxx</title>
<!-- Node1 -->
<g id="node1" class="node"><title>Node1</title>
<polygon fill="#bfbfbf" stroke="black" points="1152.5,-313.5 1152.5,-365.5 1322.5,-365.5 1322.5,-313.5 1152.5,-313.5"/>
<text text-anchor="start" x="1160.5" y="-353.5" font-family="Helvetica,sans-Serif" font-size="10.00">/home/travis/build</text>
<text text-anchor="start" x="1160.5" y="-342.5" font-family="Helvetica,sans-Serif" font-size="10.00">/AliceO2Group/AliceO2</text>
<text text-anchor="start" x="1160.5" y="-331.5" font-family="Helvetica,sans-Serif" font-size="10.00">/Detectors/MUON/MID/TestingSim</text>
<text text-anchor="middle" x="1237.5" y="-320.5" font-family="Helvetica,sans-Serif" font-size="10.00">Tools/src/HitFinder.cxx</text>
</g>
<!-- Node2 -->
<g id="node2" class="node"><title>Node2</title>
<g id="a_node2"><a xlink:href="../../d7/d40/HitFinder_8h.html" target="_top" xlink:title="Hit finder for MID. ">
<polygon fill="none" stroke="black" points="890,-246.5 890,-276.5 999,-276.5 999,-246.5 890,-246.5"/>
<text text-anchor="start" x="898" y="-264.5" font-family="Helvetica,sans-Serif" font-size="10.00">MIDTestingSimTools</text>
<text text-anchor="middle" x="944.5" y="-253.5" font-family="Helvetica,sans-Serif" font-size="10.00">/HitFinder.h</text>
</a>
</g>
</g>
<!-- Node1&#45;&gt;Node2 -->
<g id="edge1" class="edge"><title>Node1&#45;&gt;Node2</title>
<path fill="none" stroke="midnightblue" d="M1152.36,-316.416C1106.53,-304.527 1050.92,-290.103 1008.75,-279.166"/>
<polygon fill="midnightblue" stroke="midnightblue" points="1009.44,-275.729 998.882,-276.606 1007.68,-282.505 1009.44,-275.729"/>
</g>
<!-- Node21 -->
<g id="node21" class="node"><title>Node21</title>
<g id="a_node21"><a xlink:href="../../dc/de4/DetectorParameters_8h.html" target="_top" xlink:title="Useful detector parameters for MID. ">
<polygon fill="none" stroke="black" points="1137,-134.5 1137,-153.5 1294,-153.5 1294,-134.5 1137,-134.5"/>
<text text-anchor="middle" x="1215.5" y="-141.5" font-family="Helvetica,sans-Serif" font-size="10.00">MIDBase/DetectorParameters.h</text>
</a>
</g>
</g>
<!-- Node1&#45;&gt;Node21 -->
<g id="edge27" class="edge"><title>Node1&#45;&gt;Node21</title>
<path fill="none" stroke="midnightblue" d="M1234.62,-313.203C1230.15,-273.811 1221.61,-198.713 1217.63,-163.761"/>
<polygon fill="midnightblue" stroke="midnightblue" points="1221.08,-163.097 1216.47,-153.556 1214.12,-163.888 1221.08,-163.097"/>
</g>
<!-- Node23 -->
<g id="node23" class="node"><title>Node23</title>
<polygon fill="none" stroke="#bfbfbf" points="1284.5,-252 1284.5,-271 1328.5,-271 1328.5,-252 1284.5,-252"/>
<text text-anchor="middle" x="1306.5" y="-259" font-family="Helvetica,sans-Serif" font-size="10.00">cmath</text>
</g>
<!-- Node1&#45;&gt;Node23 -->
<g id="edge26" class="edge"><title>Node1&#45;&gt;Node23</title>
<path fill="none" stroke="midnightblue" d="M1260.48,-313.193C1270.77,-301.858 1282.6,-288.821 1291.7,-278.806"/>
<polygon fill="midnightblue" stroke="midnightblue" points="1294.46,-280.965 1298.59,-271.209 1289.28,-276.26 1294.46,-280.965"/>
</g>
<!-- Node24 -->
<g id="node24" class="node"><title>Node24</title>
<g id="a_node24"><a xlink:href="../../db/db5/GeometryParameters_8h.html" target="_top" xlink:title="Useful geometrical parameters for MID. ">
<polygon fill="none" stroke="black" points="1312.5,-134.5 1312.5,-153.5 1474.5,-153.5 1474.5,-134.5 1312.5,-134.5"/>
<text text-anchor="middle" x="1393.5" y="-141.5" font-family="Helvetica,sans-Serif" font-size="10.00">MIDBase/GeometryParameters.h</text>
</a>
</g>
</g>
<!-- Node1&#45;&gt;Node24 -->
<g id="edge28" class="edge"><title>Node1&#45;&gt;Node24</title>
<path fill="none" stroke="midnightblue" d="M1244.29,-313.316C1250.37,-293.734 1260.64,-266.536 1275.5,-246 1302.22,-209.064 1345.12,-176.863 1371.16,-159.253"/>
<polygon fill="midnightblue" stroke="midnightblue" points="1373.22,-162.09 1379.62,-153.648 1369.35,-156.255 1373.22,-162.09"/>
</g>
<!-- Node3 -->
<g id="node3" class="node"><title>Node3</title>
<g id="a_node3"><a xlink:href="../../dd/d76/Cartesian3D_8h.html" target="_top" xlink:title="MathUtils/Cartesian3D.h">
<polygon fill="none" stroke="black" points="793,-134.5 793,-153.5 918,-153.5 918,-134.5 793,-134.5"/>
<text text-anchor="middle" x="855.5" y="-141.5" font-family="Helvetica,sans-Serif" font-size="10.00">MathUtils/Cartesian3D.h</text>
</a>
</g>
</g>
<!-- Node2&#45;&gt;Node3 -->
<g id="edge2" class="edge"><title>Node2&#45;&gt;Node3</title>
<path fill="none" stroke="midnightblue" d="M914.573,-246.409C899.53,-237.875 882.257,-225.607 871.5,-210 862.122,-196.394 858.226,-177.85 856.615,-164.051"/>
<polygon fill="midnightblue" stroke="midnightblue" points="860.076,-163.45 855.729,-153.788 853.102,-164.052 860.076,-163.45"/>
</g>
<!-- Node15 -->
<g id="node15" class="node"><title>Node15</title>
<g id="a_node15"><a xlink:href="../../d6/d31/Cluster2D_8h.html" target="_top" xlink:title="Reconstructed cluster per RPC. ">
<polygon fill="none" stroke="black" points="674.5,-190.5 674.5,-209.5 822.5,-209.5 822.5,-190.5 674.5,-190.5"/>
<text text-anchor="middle" x="748.5" y="-197.5" font-family="Helvetica,sans-Serif" font-size="10.00">DataFormatsMID/Cluster2D.h</text>
</a>
</g>
</g>
<!-- Node2&#45;&gt;Node15 -->
<g id="edge14" class="edge"><title>Node2&#45;&gt;Node15</title>
<path fill="none" stroke="midnightblue" d="M898.051,-246.399C864.035,-236.073 818.437,-222.231 786.567,-212.556"/>
<polygon fill="midnightblue" stroke="midnightblue" points="787.319,-209.127 776.734,-209.571 785.286,-215.825 787.319,-209.127"/>
</g>
<!-- Node18 -->
<g id="node18" class="node"><title>Node18</title>
<g id="a_node18"><a xlink:href="../../d4/d54/DataFormats_2Detectors_2MUON_2MID_2include_2DataFormatsMID_2Track_8h.html" target="_top" xlink:title="Reconstructed MID track. ">
<polygon fill="none" stroke="black" points="880.5,-190.5 880.5,-209.5 1008.5,-209.5 1008.5,-190.5 880.5,-190.5"/>
<text text-anchor="middle" x="944.5" y="-197.5" font-family="Helvetica,sans-Serif" font-size="10.00">DataFormatsMID/Track.h</text>
</a>
</g>
</g>
<!-- Node2&#45;&gt;Node18 -->
<g id="edge17" class="edge"><title>Node2&#45;&gt;Node18</title>
<path fill="none" stroke="midnightblue" d="M944.5,-246.399C944.5,-238.466 944.5,-228.458 944.5,-219.858"/>
<polygon fill="midnightblue" stroke="midnightblue" points="948,-219.658 944.5,-209.658 941,-219.658 948,-219.658"/>
</g>
<!-- Node20 -->
<g id="node20" class="node"><title>Node20</title>
<g id="a_node20"><a xlink:href="../../de/d0c/GeometryTransformer_8h.html" target="_top" xlink:title="Geometry transformer for MID. ">
<polygon fill="none" stroke="black" points="1026.5,-190.5 1026.5,-209.5 1190.5,-209.5 1190.5,-190.5 1026.5,-190.5"/>
<text text-anchor="middle" x="1108.5" y="-197.5" font-family="Helvetica,sans-Serif" font-size="10.00">MIDBase/GeometryTransformer.h</text>
</a>
</g>
</g>
<!-- Node2&#45;&gt;Node20 -->
<g id="edge20" class="edge"><title>Node2&#45;&gt;Node20</title>
<path fill="none" stroke="midnightblue" d="M983.366,-246.399C1011.25,-236.283 1048.44,-222.791 1075.01,-213.149"/>
<polygon fill="midnightblue" stroke="midnightblue" points="1076.43,-216.359 1084.64,-209.658 1074.04,-209.778 1076.43,-216.359"/>
</g>
<!-- Node4 -->
<g id="node4" class="node"><title>Node4</title>
<polygon fill="none" stroke="#bfbfbf" points="247,-67.5 247,-97.5 398,-97.5 398,-67.5 247,-67.5"/>
<text text-anchor="start" x="255" y="-85.5" font-family="Helvetica,sans-Serif" font-size="10.00">Math/GenVector/Displacement</text>
<text text-anchor="middle" x="322.5" y="-74.5" font-family="Helvetica,sans-Serif" font-size="10.00">Vector3D.h</text>
</g>
<!-- Node3&#45;&gt;Node4 -->
<g id="edge3" class="edge"><title>Node3&#45;&gt;Node4</title>
<path fill="none" stroke="midnightblue" d="M792.684,-135.04C789.58,-134.68 786.505,-134.332 783.5,-134 619.897,-115.947 575.627,-119.961 408.588,-98.0809"/>
<polygon fill="midnightblue" stroke="midnightblue" points="408.83,-94.5825 398.458,-96.7421 407.913,-101.522 408.83,-94.5825"/>
</g>
<!-- Node5 -->
<g id="node5" class="node"><title>Node5</title>
<polygon fill="none" stroke="#bfbfbf" points="416.5,-73 416.5,-92 592.5,-92 592.5,-73 416.5,-73"/>
<text text-anchor="middle" x="504.5" y="-80" font-family="Helvetica,sans-Serif" font-size="10.00">Math/GenVector/PositionVector3D.h</text>
</g>
<!-- Node3&#45;&gt;Node5 -->
<g id="edge4" class="edge"><title>Node3&#45;&gt;Node5</title>
<path fill="none" stroke="midnightblue" d="M805.21,-134.475C741.743,-123.716 632.691,-105.23 564.813,-93.724"/>
<polygon fill="midnightblue" stroke="midnightblue" points="565.141,-90.2297 554.696,-92.0091 563.971,-97.1313 565.141,-90.2297"/>
</g>
<!-- Node6 -->
<g id="node6" class="node"><title>Node6</title>
<polygon fill="none" stroke="#bfbfbf" points="610,-73 610,-92 759,-92 759,-73 610,-73"/>
<text text-anchor="middle" x="684.5" y="-80" font-family="Helvetica,sans-Serif" font-size="10.00">Math/GenVector/Rotation3D.h</text>
</g>
<!-- Node3&#45;&gt;Node6 -->
<g id="edge5" class="edge"><title>Node3&#45;&gt;Node6</title>
<path fill="none" stroke="midnightblue" d="M831,-134.475C801.54,-124.225 751.921,-106.959 718.698,-95.3994"/>
<polygon fill="midnightblue" stroke="midnightblue" points="719.55,-91.9898 708.955,-92.0091 717.249,-98.601 719.55,-91.9898"/>
</g>
<!-- Node7 -->
<g id="node7" class="node"><title>Node7</title>
<polygon fill="none" stroke="#bfbfbf" points="777.5,-73 777.5,-92 933.5,-92 933.5,-73 777.5,-73"/>
<text text-anchor="middle" x="855.5" y="-80" font-family="Helvetica,sans-Serif" font-size="10.00">Math/GenVector/Transform3D.h</text>
</g>
<!-- Node3&#45;&gt;Node7 -->
<g id="edge6" class="edge"><title>Node3&#45;&gt;Node7</title>
<path fill="none" stroke="midnightblue" d="M855.5,-134.475C855.5,-126.08 855.5,-112.981 855.5,-102.163"/>
<polygon fill="midnightblue" stroke="midnightblue" points="859,-102.009 855.5,-92.0091 852,-102.009 859,-102.009"/>
</g>
<!-- Node8 -->
<g id="node8" class="node"><title>Node8</title>
<polygon fill="none" stroke="#bfbfbf" points="951.5,-73 951.5,-92 1111.5,-92 1111.5,-73 951.5,-73"/>
<text text-anchor="middle" x="1031.5" y="-80" font-family="Helvetica,sans-Serif" font-size="10.00">Math/GenVector/Translation3D.h</text>
</g>
<!-- Node3&#45;&gt;Node8 -->
<g id="edge7" class="edge"><title>Node3&#45;&gt;Node8</title>
<path fill="none" stroke="midnightblue" d="M880.717,-134.475C911.168,-124.18 962.549,-106.81 996.743,-95.2502"/>
<polygon fill="midnightblue" stroke="midnightblue" points="997.978,-98.5274 1006.33,-92.0091 995.736,-91.8961 997.978,-98.5274"/>
</g>
<!-- Node9 -->
<g id="node9" class="node"><title>Node9</title>
<polygon fill="none" stroke="#bfbfbf" points="1129.5,-73 1129.5,-92 1185.5,-92 1185.5,-73 1129.5,-73"/>
<text text-anchor="middle" x="1157.5" y="-80" font-family="Helvetica,sans-Serif" font-size="10.00">Rtypes.h</text>
</g>
<!-- Node3&#45;&gt;Node9 -->
<g id="edge8" class="edge"><title>Node3&#45;&gt;Node9</title>
<path fill="none" stroke="midnightblue" d="M918.136,-136.048C972.341,-129.162 1052.49,-116.884 1120.5,-98 1123.09,-97.2807 1125.75,-96.4443 1128.4,-95.5433"/>
<polygon fill="midnightblue" stroke="midnightblue" points="1129.61,-98.8272 1137.78,-92.0901 1127.19,-92.2576 1129.61,-98.8272"/>
</g>
<!-- Node10 -->
<g id="node10" class="node"><title>Node10</title>
<polygon fill="none" stroke="#bfbfbf" points="1203.5,-73 1203.5,-92 1279.5,-92 1279.5,-73 1203.5,-73"/>
<text text-anchor="middle" x="1241.5" y="-80" font-family="Helvetica,sans-Serif" font-size="10.00">TGeoMatrix.h</text>
</g>
<!-- Node3&#45;&gt;Node10 -->
<g id="edge9" class="edge"><title>Node3&#45;&gt;Node10</title>
<path fill="none" stroke="midnightblue" d="M918.213,-137.842C986.669,-131.479 1099.24,-118.863 1194.5,-98 1198.42,-97.1408 1202.49,-96.1079 1206.52,-94.9941"/>
<polygon fill="midnightblue" stroke="midnightblue" points="1207.73,-98.2863 1216.34,-92.1118 1205.76,-91.5696 1207.73,-98.2863"/>
</g>
<!-- Node11 -->
<g id="node11" class="node"><title>Node11</title>
<polygon fill="none" stroke="#bfbfbf" points="41,-73 41,-92 86,-92 86,-73 41,-73"/>
<text text-anchor="middle" x="63.5" y="-80" font-family="Helvetica,sans-Serif" font-size="10.00">iosfwd</text>
</g>
<!-- Node3&#45;&gt;Node11 -->
<g id="edge10" class="edge"><title>Node3&#45;&gt;Node11</title>
<path fill="none" stroke="midnightblue" d="M792.7,-134.879C789.591,-134.562 786.512,-134.267 783.5,-134 630.777,-120.483 243.247,-135.167 94.5,-98 92.5113,-97.5031 90.4956,-96.8768 88.4963,-96.1649"/>
<polygon fill="midnightblue" stroke="midnightblue" points="89.4118,-92.7528 78.8373,-92.0965 86.6945,-99.2039 89.4118,-92.7528"/>
</g>
<!-- Node12 -->
<g id="node12" class="node"><title>Node12</title>
<g id="a_node12"><a xlink:href="../../d2/dd0/Cartesian2D_8h.html" target="_top" xlink:title="MathUtils/Cartesian2D.h">
<polygon fill="none" stroke="black" points="104,-73 104,-92 229,-92 229,-73 104,-73"/>
<text text-anchor="middle" x="166.5" y="-80" font-family="Helvetica,sans-Serif" font-size="10.00">MathUtils/Cartesian2D.h</text>
</a>
</g>
</g>
<!-- Node3&#45;&gt;Node12 -->
<g id="edge11" class="edge"><title>Node3&#45;&gt;Node12</title>
<path fill="none" stroke="midnightblue" d="M792.695,-134.93C789.588,-134.599 786.51,-134.287 783.5,-134 541.405,-110.908 478.525,-130.405 237.5,-98 229.697,-96.9509 221.467,-95.5483 213.484,-94.0277"/>
<polygon fill="midnightblue" stroke="midnightblue" points="214.046,-90.571 203.555,-92.0562 212.682,-97.4369 214.046,-90.571"/>
</g>
<!-- Node13 -->
<g id="node13" class="node"><title>Node13</title>
<polygon fill="none" stroke="#bfbfbf" points="0,-0.5 0,-30.5 151,-30.5 151,-0.5 0,-0.5"/>
<text text-anchor="start" x="8" y="-18.5" font-family="Helvetica,sans-Serif" font-size="10.00">Math/GenVector/Displacement</text>
<text text-anchor="middle" x="75.5" y="-7.5" font-family="Helvetica,sans-Serif" font-size="10.00">Vector2D.h</text>
</g>
<!-- Node12&#45;&gt;Node13 -->
<g id="edge12" class="edge"><title>Node12&#45;&gt;Node13</title>
<path fill="none" stroke="midnightblue" d="M154.227,-72.7338C141.338,-63.527 120.626,-48.7328 103.681,-36.6293"/>
<polygon fill="midnightblue" stroke="midnightblue" points="105.396,-33.5534 95.2246,-30.589 101.328,-39.2495 105.396,-33.5534"/>
</g>
<!-- Node14 -->
<g id="node14" class="node"><title>Node14</title>
<polygon fill="none" stroke="#bfbfbf" points="169.5,-6 169.5,-25 345.5,-25 345.5,-6 169.5,-6"/>
<text text-anchor="middle" x="257.5" y="-13" font-family="Helvetica,sans-Serif" font-size="10.00">Math/GenVector/PositionVector2D.h</text>
</g>
<!-- Node12&#45;&gt;Node14 -->
<g id="edge13" class="edge"><title>Node12&#45;&gt;Node14</title>
<path fill="none" stroke="midnightblue" d="M178.773,-72.7338C193.645,-62.1106 218.932,-44.0485 236.83,-31.2642"/>
<polygon fill="midnightblue" stroke="midnightblue" points="239.319,-33.7878 245.422,-25.1273 235.25,-28.0917 239.319,-33.7878"/>
</g>
<!-- Node16 -->
<g id="node16" class="node"><title>Node16</title>
<polygon fill="none" stroke="#bfbfbf" points="722.5,-134.5 722.5,-153.5 774.5,-153.5 774.5,-134.5 722.5,-134.5"/>
<text text-anchor="middle" x="748.5" y="-141.5" font-family="Helvetica,sans-Serif" font-size="10.00">ostream</text>
</g>
<!-- Node15&#45;&gt;Node16 -->
<g id="edge15" class="edge"><title>Node15&#45;&gt;Node16</title>
<path fill="none" stroke="midnightblue" d="M748.5,-190.083C748.5,-183.006 748.5,-172.861 748.5,-163.986"/>
<polygon fill="midnightblue" stroke="midnightblue" points="752,-163.751 748.5,-153.751 745,-163.751 752,-163.751"/>
</g>
<!-- Node17 -->
<g id="node17" class="node"><title>Node17</title>
<polygon fill="none" stroke="#bfbfbf" points="658.5,-134.5 658.5,-153.5 704.5,-153.5 704.5,-134.5 658.5,-134.5"/>
<text text-anchor="middle" x="681.5" y="-141.5" font-family="Helvetica,sans-Serif" font-size="10.00">cstdint</text>
</g>
<!-- Node15&#45;&gt;Node17 -->
<g id="edge16" class="edge"><title>Node15&#45;&gt;Node17</title>
<path fill="none" stroke="midnightblue" d="M737.735,-190.324C727.734,-182.263 712.613,-170.077 700.57,-160.369"/>
<polygon fill="midnightblue" stroke="midnightblue" points="702.443,-157.384 692.461,-153.834 698.05,-162.834 702.443,-157.384"/>
</g>
<!-- Node18&#45;&gt;Node16 -->
<g id="edge19" class="edge"><title>Node18&#45;&gt;Node16</title>
<path fill="none" stroke="midnightblue" d="M913.443,-190.444C878.417,-180.793 821.535,-165.122 784.57,-154.938"/>
<polygon fill="midnightblue" stroke="midnightblue" points="785.278,-151.502 774.707,-152.22 783.418,-158.251 785.278,-151.502"/>
</g>
<!-- Node19 -->
<g id="node19" class="node"><title>Node19</title>
<polygon fill="none" stroke="#bfbfbf" points="1297.5,-73 1297.5,-92 1335.5,-92 1335.5,-73 1297.5,-73"/>
<text text-anchor="middle" x="1316.5" y="-80" font-family="Helvetica,sans-Serif" font-size="10.00">array</text>
</g>
<!-- Node18&#45;&gt;Node19 -->
<g id="edge18" class="edge"><title>Node18&#45;&gt;Node19</title>
<path fill="none" stroke="midnightblue" d="M963.666,-190.299C994.334,-176.661 1056.58,-150.145 1111.5,-134 1188.52,-111.359 1212.8,-124.714 1288.5,-98 1289.75,-97.5594 1291.01,-97.0726 1292.27,-96.5523"/>
<polygon fill="midnightblue" stroke="midnightblue" points="1294.16,-99.5326 1301.73,-92.1177 1291.19,-93.195 1294.16,-99.5326"/>
</g>
<!-- Node20&#45;&gt;Node3 -->
<g id="edge25" class="edge"><title>Node20&#45;&gt;Node3</title>
<path fill="none" stroke="midnightblue" d="M1068.41,-190.444C1024.18,-181.004 952.961,-165.802 905.215,-155.611"/>
<polygon fill="midnightblue" stroke="midnightblue" points="905.911,-152.181 895.401,-153.516 904.45,-159.027 905.911,-152.181"/>
</g>
<!-- Node20&#45;&gt;Node19 -->
<g id="edge21" class="edge"><title>Node20&#45;&gt;Node19</title>
<path fill="none" stroke="midnightblue" d="M1108.41,-190.433C1108.75,-176.493 1111.55,-148.957 1127.5,-134 1180.99,-83.8492 1219.6,-123.067 1288.5,-98 1289.74,-97.5473 1291,-97.0508 1292.26,-96.5226"/>
<polygon fill="midnightblue" stroke="midnightblue" points="1294.16,-99.4966 1301.71,-92.0611 1291.17,-93.1671 1294.16,-99.4966"/>
</g>
<!-- Node20&#45;&gt;Node21 -->
<g id="edge22" class="edge"><title>Node20&#45;&gt;Node21</title>
<path fill="none" stroke="midnightblue" d="M1125.69,-190.324C1142.85,-181.664 1169.45,-168.242 1189.25,-158.249"/>
<polygon fill="midnightblue" stroke="midnightblue" points="1191,-161.285 1198.35,-153.655 1187.85,-155.035 1191,-161.285"/>
</g>
<!-- Node21&#45;&gt;Node19 -->
<g id="edge23" class="edge"><title>Node21&#45;&gt;Node19</title>
<path fill="none" stroke="midnightblue" d="M1229.97,-134.475C1246.47,-124.755 1273.68,-108.727 1293.18,-97.2372"/>
<polygon fill="midnightblue" stroke="midnightblue" points="1295.22,-100.101 1302.06,-92.0091 1291.66,-94.0693 1295.22,-100.101"/>
</g>
<!-- Node22 -->
<g id="node22" class="node"><title>Node22</title>
<polygon fill="none" stroke="#bfbfbf" points="1363,-73 1363,-92 1404,-92 1404,-73 1363,-73"/>
<text text-anchor="middle" x="1383.5" y="-80" font-family="Helvetica,sans-Serif" font-size="10.00">string</text>
</g>
<!-- Node21&#45;&gt;Node22 -->
<g id="edge24" class="edge"><title>Node21&#45;&gt;Node22</title>
<path fill="none" stroke="midnightblue" d="M1240.77,-134.356C1266.81,-125.405 1308.57,-110.944 1344.5,-98 1347.4,-96.9564 1350.41,-95.8583 1353.42,-94.7528"/>
<polygon fill="midnightblue" stroke="midnightblue" points="1354.72,-98.0048 1362.88,-91.254 1352.29,-91.4392 1354.72,-98.0048"/>
</g>
<!-- Node24&#45;&gt;Node19 -->
<g id="edge29" class="edge"><title>Node24&#45;&gt;Node19</title>
<path fill="none" stroke="midnightblue" d="M1382.47,-134.475C1370.23,-125.02 1350.27,-109.596 1335.51,-98.1871"/>
<polygon fill="midnightblue" stroke="midnightblue" points="1337.56,-95.3541 1327.51,-92.0091 1333.28,-100.893 1337.56,-95.3541"/>
</g>
<!-- Node24&#45;&gt;Node22 -->
<g id="edge30" class="edge"><title>Node24&#45;&gt;Node22</title>
<path fill="none" stroke="midnightblue" d="M1392.07,-134.475C1390.66,-126.08 1388.45,-112.981 1386.64,-102.163"/>
<polygon fill="midnightblue" stroke="midnightblue" points="1390.04,-101.291 1384.93,-92.0091 1383.14,-102.451 1390.04,-101.291"/>
</g>
</g>
</svg>
        <g id="navigator" transform="translate(0 0)" fill="#404254">
                <rect fill="#f2f5e9" fill-opacity="0.5" stroke="#606060" stroke-width=".5" x="0" y="0" width="60" height="60"/>
                <use id="zoomplus" xlink:href="#zoomPlus" x="17" y="9" onmousedown="handleZoom(evt,'in')"/>
                <use id="zoomminus" xlink:href="#zoomMin" x="42" y="9" onmousedown="handleZoom(evt,'out')"/>
                <use id="reset" xlink:href="#resetDef" x="30" y="36" onmousedown="handleReset()"/>
                <g id="arrowUp" xlink:href="#dirArrow" transform="translate(30 24)" onmousedown="handlePan(0,-1)">
                  <use xlink:href="#rim" fill="#404040">
                        <set attributeName="fill" to="#808080" begin="arrowUp.mouseover" end="arrowUp.mouseout"/>
                  </use>
                  <path fill="none" stroke="white" stroke-width="1.5" d="M0,-3.0v7 M-2.5,-0.5L0,-3.0L2.5,-0.5"/>
                </g>
                <g id="arrowRight" xlink:href="#dirArrow" transform="rotate(90) translate(36 -43)" onmousedown="handlePan(1,0)">
                  <use xlink:href="#rim" fill="#404040">
                        <set attributeName="fill" to="#808080" begin="arrowRight.mouseover" end="arrowRight.mouseout"/>
                  </use>
                  <path fill="none" stroke="white" stroke-width="1.5" d="M0,-3.0v7 M-2.5,-0.5L0,-3.0L2.5,-0.5"/>
                </g>
                <g id="arrowDown" xlink:href="#dirArrow" transform="rotate(180) translate(-30 -48)" onmousedown="handlePan(0,1)">
                  <use xlink:href="#rim" fill="#404040">
                        <set attributeName="fill" to="#808080" begin="arrowDown.mouseover" end="arrowDown.mouseout"/>
                  </use>
                  <path fill="none" stroke="white" stroke-width="1.5" d="M0,-3.0v7 M-2.5,-0.5L0,-3.0L2.5,-0.5"/>
                </g>
                <g id="arrowLeft" xlink:href="#dirArrow" transform="rotate(270) translate(-36 17)" onmousedown="handlePan(-1,0)">
                  <use xlink:href="#rim" fill="#404040">
                        <set attributeName="fill" to="#808080" begin="arrowLeft.mouseover" end="arrowLeft.mouseout"/>
                  </use>
                  <path fill="none" stroke="white" stroke-width="1.5" d="M0,-3.0v7 M-2.5,-0.5L0,-3.0L2.5,-0.5"/>
                </g>
        </g>
        <svg viewBox="0 0 15 15" width="100%" height="30px" preserveAspectRatio="xMaxYMin meet">
         <g id="arrow_out" transform="scale(0.3 0.3)">
          <a xlink:href="HitFinder_8cxx__incl_org.svg" target="_base">
           <rect id="button" ry="5" rx="5" y="6" x="6" height="38" width="38"
                fill="#f2f5e9" fill-opacity="0.5" stroke="#606060" stroke-width="1.0"/>
           <path id="arrow"
             d="M 11.500037,31.436501 C 11.940474,20.09759 22.043105,11.32322 32.158766,21.979434 L 37.068811,17.246167 C 37.068811,17.246167 37.088388,32 37.088388,32 L 22.160133,31.978069 C 22.160133,31.978069 26.997745,27.140456 26.997745,27.140456 C 18.528582,18.264221 13.291696,25.230495 11.500037,31.436501 z"
             style="fill:#404040;"/>
          </a>
         </g>
        </svg>
</svg>
