<?xml version="1.0" encoding="UTF-8" standalone="no"?>
<!DOCTYPE svg PUBLIC "-//W3C//DTD SVG 1.1//EN"
 "http://www.w3.org/Graphics/SVG/1.1/DTD/svg11.dtd">
<!-- Generated by graphviz version 2.38.0 (20140413.2041)
 -->
<!-- Title: /home/travis/build/AliceO2Group/AliceO2/Common/MathUtils/include/MathUtils/Utils.h Pages: 1 -->
<svg width="446pt" height="229pt"
 viewBox="0.00 0.00 445.50 229.00" xmlns="http://www.w3.org/2000/svg" xmlns:xlink="http://www.w3.org/1999/xlink">
<g id="graph0" class="graph" transform="scale(1 1) rotate(0) translate(4 225)">
<title>/home/travis/build/AliceO2Group/AliceO2/Common/MathUtils/include/MathUtils/Utils.h</title>
<!-- Node1 -->
<g id="node1" class="node"><title>Node1</title>
<polygon fill="#bfbfbf" stroke="black" points="79,-168.5 79,-220.5 217,-220.5 217,-168.5 79,-168.5"/>
<text text-anchor="start" x="87" y="-208.5" font-family="Helvetica,sans-Serif" font-size="10.00">/home/travis/build</text>
<text text-anchor="start" x="87" y="-197.5" font-family="Helvetica,sans-Serif" font-size="10.00">/AliceO2Group/AliceO2</text>
<text text-anchor="start" x="87" y="-186.5" font-family="Helvetica,sans-Serif" font-size="10.00">/Common/MathUtils/include</text>
<text text-anchor="middle" x="148" y="-175.5" font-family="Helvetica,sans-Serif" font-size="10.00">/MathUtils/Utils.h</text>
</g>
<!-- Node2 -->
<g id="node2" class="node"><title>Node2</title>
<polygon fill="none" stroke="#bfbfbf" points="0,-112.5 0,-131.5 38,-131.5 38,-112.5 0,-112.5"/>
<text text-anchor="middle" x="19" y="-119.5" font-family="Helvetica,sans-Serif" font-size="10.00">array</text>
</g>
<!-- Node1&#45;&gt;Node2 -->
<g id="edge1" class="edge"><title>Node1&#45;&gt;Node2</title>
<path fill="none" stroke="midnightblue" d="M102.156,-168.446C82.421,-157.66 60.1363,-145.481 43.6069,-136.448"/>
<polygon fill="midnightblue" stroke="midnightblue" points="45.0561,-133.251 34.6025,-131.527 41.6991,-139.394 45.0561,-133.251"/>
</g>
<!-- Node3 -->
<g id="node3" class="node"><title>Node3</title>
<polygon fill="none" stroke="#bfbfbf" points="44,-56.5 44,-75.5 88,-75.5 88,-56.5 44,-56.5"/>
<text text-anchor="middle" x="66" y="-63.5" font-family="Helvetica,sans-Serif" font-size="10.00">cmath</text>
</g>
<!-- Node1&#45;&gt;Node3 -->
<g id="edge2" class="edge"><title>Node1&#45;&gt;Node3</title>
<path fill="none" stroke="midnightblue" d="M116.076,-168.318C104.888,-158.087 93.1066,-145.496 85,-132 76.3921,-117.67 71.4849,-99.2061 68.8229,-85.6214"/>
<polygon fill="midnightblue" stroke="midnightblue" points="72.2352,-84.8134 67.083,-75.5557 65.3375,-86.0057 72.2352,-84.8134"/>
</g>
<!-- Node4 -->
<g id="node4" class="node"><title>Node4</title>
<g id="a_node4"><a xlink:href="../../df/d21/GPUCommonDef_8h.html" target="_top" xlink:title="GPUCommonDef.h">
<polygon fill="none" stroke="black" points="180,-56.5 180,-75.5 282,-75.5 282,-56.5 180,-56.5"/>
<text text-anchor="middle" x="231" y="-63.5" font-family="Helvetica,sans-Serif" font-size="10.00">GPUCommonDef.h</text>
</a>
</g>
</g>
<!-- Node1&#45;&gt;Node4 -->
<g id="edge3" class="edge"><title>Node1&#45;&gt;Node4</title>
<path fill="none" stroke="midnightblue" d="M179.822,-168.256C190.998,-158.019 202.798,-145.438 211,-132 219.746,-117.67 224.946,-99.2066 227.842,-85.6218"/>
<polygon fill="midnightblue" stroke="midnightblue" points="231.326,-86.0342 229.759,-75.5559 224.45,-84.7244 231.326,-86.0342"/>
</g>
<!-- Node7 -->
<g id="node7" class="node"><title>Node7</title>
<g id="a_node7"><a xlink:href="../../d6/da2/GPUCommonMath_8h.html" target="_top" xlink:title="GPUCommonMath.h">
<polygon fill="none" stroke="black" points="94,-112.5 94,-131.5 202,-131.5 202,-112.5 94,-112.5"/>
<text text-anchor="middle" x="148" y="-119.5" font-family="Helvetica,sans-Serif" font-size="10.00">GPUCommonMath.h</text>
</a>
</g>
</g>
<!-- Node1&#45;&gt;Node7 -->
<g id="edge6" class="edge"><title>Node1&#45;&gt;Node7</title>
<path fill="none" stroke="midnightblue" d="M148,-168.446C148,-159.73 148,-150.104 148,-141.964"/>
<polygon fill="midnightblue" stroke="midnightblue" points="151.5,-141.695 148,-131.695 144.5,-141.696 151.5,-141.695"/>
</g>
<!-- Node9 -->
<g id="node9" class="node"><title>Node9</title>
<g id="a_node9"><a xlink:href="../../d6/d84/MathConstants_8h.html" target="_top" xlink:title="useful math constants ">
<polygon fill="none" stroke="black" points="258.5,-112.5 258.5,-131.5 437.5,-131.5 437.5,-112.5 258.5,-112.5"/>
<text text-anchor="middle" x="348" y="-119.5" font-family="Helvetica,sans-Serif" font-size="10.00">CommonConstants/MathConstants.h</text>
</a>
</g>
</g>
<!-- Node1&#45;&gt;Node9 -->
<g id="edge10" class="edge"><title>Node1&#45;&gt;Node9</title>
<path fill="none" stroke="midnightblue" d="M217.109,-169.139C249.947,-157.564 287.715,-144.251 314.214,-134.909"/>
<polygon fill="midnightblue" stroke="midnightblue" points="315.517,-138.161 323.785,-131.536 313.19,-131.559 315.517,-138.161"/>
</g>
<!-- Node5 -->
<g id="node5" class="node"><title>Node5</title>
<g id="a_node5"><a xlink:href="../../d5/d93/GPUCommonDefSettings_8h.html" target="_top" xlink:title="GPUCommonDefSettings.h">
<polygon fill="none" stroke="black" points="88,-0.5 88,-19.5 226,-19.5 226,-0.5 88,-0.5"/>
<text text-anchor="middle" x="157" y="-7.5" font-family="Helvetica,sans-Serif" font-size="10.00">GPUCommonDefSettings.h</text>
</a>
</g>
</g>
<!-- Node4&#45;&gt;Node5 -->
<g id="edge4" class="edge"><title>Node4&#45;&gt;Node5</title>
<path fill="none" stroke="midnightblue" d="M219.111,-56.324C207.85,-48.1066 190.713,-35.6017 177.291,-25.8069"/>
<polygon fill="midnightblue" stroke="midnightblue" points="179.247,-22.9014 169.106,-19.8339 175.12,-28.5559 179.247,-22.9014"/>
</g>
<!-- Node6 -->
<g id="node6" class="node"><title>Node6</title>
<g id="a_node6"><a xlink:href="../../da/d5a/GPUCommonDefAPI_8h.html" target="_top" xlink:title="GPUCommonDefAPI.h">
<polygon fill="none" stroke="black" points="244.5,-0.5 244.5,-19.5 363.5,-19.5 363.5,-0.5 244.5,-0.5"/>
<text text-anchor="middle" x="304" y="-7.5" font-family="Helvetica,sans-Serif" font-size="10.00">GPUCommonDefAPI.h</text>
</a>
</g>
</g>
<!-- Node4&#45;&gt;Node6 -->
<g id="edge5" class="edge"><title>Node4&#45;&gt;Node6</title>
<path fill="none" stroke="midnightblue" d="M242.729,-56.324C253.837,-48.1066 270.742,-35.6017 283.983,-25.8069"/>
<polygon fill="midnightblue" stroke="midnightblue" points="286.1,-28.5948 292.058,-19.8339 281.937,-22.9671 286.1,-28.5948"/>
</g>
<!-- Node7&#45;&gt;Node3 -->
<g id="edge8" class="edge"><title>Node7&#45;&gt;Node3</title>
<path fill="none" stroke="midnightblue" d="M134.825,-112.324C122.153,-103.979 102.767,-91.2122 87.7944,-81.3524"/>
<polygon fill="midnightblue" stroke="midnightblue" points="89.4187,-78.2313 79.142,-75.6545 85.5688,-84.0776 89.4187,-78.2313"/>
</g>
<!-- Node7&#45;&gt;Node4 -->
<g id="edge7" class="edge"><title>Node7&#45;&gt;Node4</title>
<path fill="none" stroke="midnightblue" d="M161.335,-112.324C174.162,-103.979 193.785,-91.2122 208.94,-81.3524"/>
<polygon fill="midnightblue" stroke="midnightblue" points="211.224,-84.0417 217.698,-75.6545 207.407,-78.1742 211.224,-84.0417"/>
</g>
<!-- Node8 -->
<g id="node8" class="node"><title>Node8</title>
<polygon fill="none" stroke="#bfbfbf" points="106,-56.5 106,-75.5 162,-75.5 162,-56.5 106,-56.5"/>
<text text-anchor="middle" x="134" y="-63.5" font-family="Helvetica,sans-Serif" font-size="10.00">algorithm</text>
</g>
<!-- Node7&#45;&gt;Node8 -->
<g id="edge9" class="edge"><title>Node7&#45;&gt;Node8</title>
<path fill="none" stroke="midnightblue" d="M145.688,-112.083C143.833,-104.927 141.165,-94.6353 138.846,-85.6911"/>
<polygon fill="midnightblue" stroke="midnightblue" points="142.166,-84.5527 136.269,-75.7511 135.391,-86.3094 142.166,-84.5527"/>
</g>
</g>
</svg>
