<?xml version="1.0" encoding="UTF-8" standalone="no"?>
<!DOCTYPE svg PUBLIC "-//W3C//DTD SVG 1.1//EN"
 "http://www.w3.org/Graphics/SVG/1.1/DTD/svg11.dtd">
<!-- Generated by graphviz version 2.38.0 (20140413.2041)
 -->
<!-- Title: /home/travis/build/AliceO2Group/AliceO2/GPU/GPUTracking/SliceTracker/GPUTPCMCTrack.cxx Pages: 1 -->
<svg width="906pt" height="341pt"
 viewBox="0.00 0.00 905.50 341.00" xmlns="http://www.w3.org/2000/svg" xmlns:xlink="http://www.w3.org/1999/xlink">
<g id="graph0" class="graph" transform="scale(1 1) rotate(0) translate(4 337)">
<title>/home/travis/build/AliceO2Group/AliceO2/GPU/GPUTracking/SliceTracker/GPUTPCMCTrack.cxx</title>
<!-- Node1 -->
<g id="node1" class="node"><title>Node1</title>
<polygon fill="#bfbfbf" stroke="black" points="590,-280.5 590,-332.5 751,-332.5 751,-280.5 590,-280.5"/>
<text text-anchor="start" x="598" y="-320.5" font-family="Helvetica,sans-Serif" font-size="10.00">/home/travis/build</text>
<text text-anchor="start" x="598" y="-309.5" font-family="Helvetica,sans-Serif" font-size="10.00">/AliceO2Group/AliceO2</text>
<text text-anchor="start" x="598" y="-298.5" font-family="Helvetica,sans-Serif" font-size="10.00">/GPU/GPUTracking/SliceTracker</text>
<text text-anchor="middle" x="670.5" y="-287.5" font-family="Helvetica,sans-Serif" font-size="10.00">/GPUTPCMCTrack.cxx</text>
</g>
<!-- Node2 -->
<g id="node2" class="node"><title>Node2</title>
<g id="a_node2"><a xlink:href="../../d1/df8/GPUTPCMCTrack_8h.html" target="_top" xlink:title="GPUTPCMCTrack.h">
<polygon fill="none" stroke="black" points="420,-224.5 420,-243.5 527,-243.5 527,-224.5 420,-224.5"/>
<text text-anchor="middle" x="473.5" y="-231.5" font-family="Helvetica,sans-Serif" font-size="10.00">GPUTPCMCTrack.h</text>
</a>
</g>
</g>
<!-- Node1&#45;&gt;Node2 -->
<g id="edge1" class="edge"><title>Node1&#45;&gt;Node2</title>
<path fill="none" stroke="midnightblue" d="M600.49,-280.446C568.662,-269.056 532.492,-256.111 506.917,-246.959"/>
<polygon fill="midnightblue" stroke="midnightblue" points="507.922,-243.601 497.327,-243.527 505.563,-250.192 507.922,-243.601"/>
</g>
<!-- Node13 -->
<g id="node13" class="node"><title>Node13</title>
<g id="a_node13"><a xlink:href="../../d6/da2/GPUCommonMath_8h.html" target="_top" xlink:title="GPUCommonMath.h">
<polygon fill="none" stroke="black" points="556.5,-224.5 556.5,-243.5 664.5,-243.5 664.5,-224.5 556.5,-224.5"/>
<text text-anchor="middle" x="610.5" y="-231.5" font-family="Helvetica,sans-Serif" font-size="10.00">GPUCommonMath.h</text>
</a>
</g>
</g>
<!-- Node1&#45;&gt;Node13 -->
<g id="edge12" class="edge"><title>Node1&#45;&gt;Node13</title>
<path fill="none" stroke="midnightblue" d="M649.177,-280.446C640.992,-270.828 631.864,-260.103 624.532,-251.488"/>
<polygon fill="midnightblue" stroke="midnightblue" points="627.047,-249.042 617.9,-243.695 621.716,-253.579 627.047,-249.042"/>
</g>
<!-- Node16 -->
<g id="node16" class="node"><title>Node16</title>
<polygon fill="none" stroke="#bfbfbf" points="683,-224.5 683,-243.5 778,-243.5 778,-224.5 683,-224.5"/>
<text text-anchor="middle" x="730.5" y="-231.5" font-family="Helvetica,sans-Serif" font-size="10.00">TDatabasePDG.h</text>
</g>
<!-- Node1&#45;&gt;Node16 -->
<g id="edge16" class="edge"><title>Node1&#45;&gt;Node16</title>
<path fill="none" stroke="midnightblue" d="M691.823,-280.446C700.008,-270.828 709.136,-260.103 716.468,-251.488"/>
<polygon fill="midnightblue" stroke="midnightblue" points="719.284,-253.579 723.1,-243.695 713.953,-249.042 719.284,-253.579"/>
</g>
<!-- Node17 -->
<g id="node17" class="node"><title>Node17</title>
<polygon fill="none" stroke="#bfbfbf" points="796.5,-224.5 796.5,-243.5 860.5,-243.5 860.5,-224.5 796.5,-224.5"/>
<text text-anchor="middle" x="828.5" y="-231.5" font-family="Helvetica,sans-Serif" font-size="10.00">TParticle.h</text>
</g>
<!-- Node1&#45;&gt;Node17 -->
<g id="edge17" class="edge"><title>Node1&#45;&gt;Node17</title>
<path fill="none" stroke="midnightblue" d="M726.65,-280.446C751.499,-269.358 779.649,-256.797 800.047,-247.696"/>
<polygon fill="midnightblue" stroke="midnightblue" points="801.684,-250.798 809.39,-243.527 798.832,-244.406 801.684,-250.798"/>
</g>
<!-- Node3 -->
<g id="node3" class="node"><title>Node3</title>
<g id="a_node3"><a xlink:href="../../da/dab/GPUTPCDef_8h.html" target="_top" xlink:title="GPUTPCDef.h">
<polygon fill="none" stroke="black" points="411,-168.5 411,-187.5 494,-187.5 494,-168.5 411,-168.5"/>
<text text-anchor="middle" x="452.5" y="-175.5" font-family="Helvetica,sans-Serif" font-size="10.00">GPUTPCDef.h</text>
</a>
</g>
</g>
<!-- Node2&#45;&gt;Node3 -->
<g id="edge2" class="edge"><title>Node2&#45;&gt;Node3</title>
<path fill="none" stroke="midnightblue" d="M470.032,-224.083C467.188,-216.77 463.071,-206.181 459.54,-197.103"/>
<polygon fill="midnightblue" stroke="midnightblue" points="462.79,-195.803 455.903,-187.751 456.266,-198.34 462.79,-195.803"/>
</g>
<!-- Node4 -->
<g id="node4" class="node"><title>Node4</title>
<g id="a_node4"><a xlink:href="../../d2/d6d/GPUDef_8h.html" target="_top" xlink:title="GPUDef.h">
<polygon fill="none" stroke="black" points="383.5,-112.5 383.5,-131.5 445.5,-131.5 445.5,-112.5 383.5,-112.5"/>
<text text-anchor="middle" x="414.5" y="-119.5" font-family="Helvetica,sans-Serif" font-size="10.00">GPUDef.h</text>
</a>
</g>
</g>
<!-- Node3&#45;&gt;Node4 -->
<g id="edge3" class="edge"><title>Node3&#45;&gt;Node4</title>
<path fill="none" stroke="midnightblue" d="M446.225,-168.083C440.858,-160.455 432.982,-149.264 426.421,-139.941"/>
<polygon fill="midnightblue" stroke="midnightblue" points="429.275,-137.915 420.658,-131.751 423.551,-141.943 429.275,-137.915"/>
</g>
<!-- Node5 -->
<g id="node5" class="node"><title>Node5</title>
<g id="a_node5"><a xlink:href="../../df/d21/GPUCommonDef_8h.html" target="_top" xlink:title="GPUCommonDef.h">
<polygon fill="none" stroke="black" points="641.5,-56.5 641.5,-75.5 743.5,-75.5 743.5,-56.5 641.5,-56.5"/>
<text text-anchor="middle" x="692.5" y="-63.5" font-family="Helvetica,sans-Serif" font-size="10.00">GPUCommonDef.h</text>
</a>
</g>
</g>
<!-- Node4&#45;&gt;Node5 -->
<g id="edge4" class="edge"><title>Node4&#45;&gt;Node5</title>
<path fill="none" stroke="midnightblue" d="M445.581,-114.963C492.228,-105.902 580.983,-88.6616 638.404,-77.5079"/>
<polygon fill="midnightblue" stroke="midnightblue" points="639.243,-80.9104 648.392,-75.5678 637.908,-74.0389 639.243,-80.9104"/>
</g>
<!-- Node8 -->
<g id="node8" class="node"><title>Node8</title>
<g id="a_node8"><a xlink:href="../../d2/d37/GPUDefConstantsAndSettings_8h.html" target="_top" xlink:title="GPUDefConstantsAndSettings.h">
<polygon fill="none" stroke="black" points="0,-56.5 0,-75.5 161,-75.5 161,-56.5 0,-56.5"/>
<text text-anchor="middle" x="80.5" y="-63.5" font-family="Helvetica,sans-Serif" font-size="10.00">GPUDefConstantsAndSettings.h</text>
</a>
</g>
</g>
<!-- Node4&#45;&gt;Node8 -->
<g id="edge7" class="edge"><title>Node4&#45;&gt;Node8</title>
<path fill="none" stroke="midnightblue" d="M383.378,-115.968C328.814,-107.147 214.902,-88.7297 143.381,-77.1663"/>
<polygon fill="midnightblue" stroke="midnightblue" points="143.578,-73.6529 133.148,-75.512 142.461,-80.5632 143.578,-73.6529"/>
</g>
<!-- Node9 -->
<g id="node9" class="node"><title>Node9</title>
<g id="a_node9"><a xlink:href="../../dc/de9/GPUDefGPUParameters_8h.html" target="_top" xlink:title="GPUDefGPUParameters.h">
<polygon fill="none" stroke="black" points="179.5,-56.5 179.5,-75.5 313.5,-75.5 313.5,-56.5 179.5,-56.5"/>
<text text-anchor="middle" x="246.5" y="-63.5" font-family="Helvetica,sans-Serif" font-size="10.00">GPUDefGPUParameters.h</text>
</a>
</g>
</g>
<!-- Node4&#45;&gt;Node9 -->
<g id="edge8" class="edge"><title>Node4&#45;&gt;Node9</title>
<path fill="none" stroke="midnightblue" d="M387.88,-112.444C359.494,-103.32 314.363,-88.8133 282.747,-78.6509"/>
<polygon fill="midnightblue" stroke="midnightblue" points="283.587,-75.2445 272.996,-75.5164 281.445,-81.9087 283.587,-75.2445"/>
</g>
<!-- Node10 -->
<g id="node10" class="node"><title>Node10</title>
<g id="a_node10"><a xlink:href="../../d3/d4c/GPUDefOpenCL12Templates_8h.html" target="_top" xlink:title="GPUDefOpenCL12Templates.h">
<polygon fill="none" stroke="black" points="332,-56.5 332,-75.5 487,-75.5 487,-56.5 332,-56.5"/>
<text text-anchor="middle" x="409.5" y="-63.5" font-family="Helvetica,sans-Serif" font-size="10.00">GPUDefOpenCL12Templates.h</text>
</a>
</g>
</g>
<!-- Node4&#45;&gt;Node10 -->
<g id="edge9" class="edge"><title>Node4&#45;&gt;Node10</title>
<path fill="none" stroke="midnightblue" d="M413.674,-112.083C413.019,-105.006 412.08,-94.8611 411.258,-85.9865"/>
<polygon fill="midnightblue" stroke="midnightblue" points="414.717,-85.3858 410.31,-75.7511 407.747,-86.0312 414.717,-85.3858"/>
</g>
<!-- Node11 -->
<g id="node11" class="node"><title>Node11</title>
<g id="a_node11"><a xlink:href="../../d2/d45/GPUCommonRtypes_8h.html" target="_top" xlink:title="GPUCommonRtypes.h">
<polygon fill="none" stroke="black" points="505.5,-56.5 505.5,-75.5 623.5,-75.5 623.5,-56.5 505.5,-56.5"/>
<text text-anchor="middle" x="564.5" y="-63.5" font-family="Helvetica,sans-Serif" font-size="10.00">GPUCommonRtypes.h</text>
</a>
</g>
</g>
<!-- Node4&#45;&gt;Node11 -->
<g id="edge10" class="edge"><title>Node4&#45;&gt;Node11</title>
<path fill="none" stroke="midnightblue" d="M438.268,-112.444C463.393,-103.399 503.211,-89.064 531.4,-78.9158"/>
<polygon fill="midnightblue" stroke="midnightblue" points="532.62,-82.1968 540.843,-75.5164 530.249,-75.6106 532.62,-82.1968"/>
</g>
<!-- Node6 -->
<g id="node6" class="node"><title>Node6</title>
<g id="a_node6"><a xlink:href="../../d5/d93/GPUCommonDefSettings_8h.html" target="_top" xlink:title="GPUCommonDefSettings.h">
<polygon fill="none" stroke="black" points="759.5,-0.5 759.5,-19.5 897.5,-19.5 897.5,-0.5 759.5,-0.5"/>
<text text-anchor="middle" x="828.5" y="-7.5" font-family="Helvetica,sans-Serif" font-size="10.00">GPUCommonDefSettings.h</text>
</a>
</g>
</g>
<!-- Node5&#45;&gt;Node6 -->
<g id="edge5" class="edge"><title>Node5&#45;&gt;Node6</title>
<path fill="none" stroke="midnightblue" d="M714.05,-56.4435C736.531,-47.5171 771.988,-33.4387 797.48,-23.3168"/>
<polygon fill="midnightblue" stroke="midnightblue" points="799.049,-26.4598 807.051,-19.5164 796.465,-19.9539 799.049,-26.4598"/>
</g>
<!-- Node7 -->
<g id="node7" class="node"><title>Node7</title>
<g id="a_node7"><a xlink:href="../../da/d5a/GPUCommonDefAPI_8h.html" target="_top" xlink:title="GPUCommonDefAPI.h">
<polygon fill="none" stroke="black" points="622,-0.5 622,-19.5 741,-19.5 741,-0.5 622,-0.5"/>
<text text-anchor="middle" x="681.5" y="-7.5" font-family="Helvetica,sans-Serif" font-size="10.00">GPUCommonDefAPI.h</text>
</a>
</g>
</g>
<!-- Node5&#45;&gt;Node7 -->
<g id="edge6" class="edge"><title>Node5&#45;&gt;Node7</title>
<path fill="none" stroke="midnightblue" d="M690.684,-56.083C689.226,-48.9272 687.129,-38.6353 685.307,-29.6911"/>
<polygon fill="midnightblue" stroke="midnightblue" points="688.708,-28.8512 683.283,-19.7511 681.849,-30.2485 688.708,-28.8512"/>
</g>
<!-- Node12 -->
<g id="node12" class="node"><title>Node12</title>
<polygon fill="none" stroke="#bfbfbf" points="536.5,-0.5 536.5,-19.5 592.5,-19.5 592.5,-0.5 536.5,-0.5"/>
<text text-anchor="middle" x="564.5" y="-7.5" font-family="Helvetica,sans-Serif" font-size="10.00">Rtypes.h</text>
</g>
<!-- Node11&#45;&gt;Node12 -->
<g id="edge11" class="edge"><title>Node11&#45;&gt;Node12</title>
<path fill="none" stroke="midnightblue" d="M564.5,-56.083C564.5,-49.0059 564.5,-38.8611 564.5,-29.9865"/>
<polygon fill="midnightblue" stroke="midnightblue" points="568,-29.751 564.5,-19.7511 561,-29.7511 568,-29.751"/>
</g>
<!-- Node13&#45;&gt;Node5 -->
<g id="edge13" class="edge"><title>Node13&#45;&gt;Node5</title>
<path fill="none" stroke="midnightblue" d="M622.939,-224.422C633.853,-216.266 649.369,-203.035 658.5,-188 678.35,-155.316 686.956,-110.677 690.41,-85.7677"/>
<polygon fill="midnightblue" stroke="midnightblue" points="693.921,-85.9 691.688,-75.5431 686.975,-85.0319 693.921,-85.9"/>
</g>
<!-- Node14 -->
<g id="node14" class="node"><title>Node14</title>
<polygon fill="none" stroke="#bfbfbf" points="531.5,-168.5 531.5,-187.5 575.5,-187.5 575.5,-168.5 531.5,-168.5"/>
<text text-anchor="middle" x="553.5" y="-175.5" font-family="Helvetica,sans-Serif" font-size="10.00">cmath</text>
</g>
<!-- Node13&#45;&gt;Node14 -->
<g id="edge14" class="edge"><title>Node13&#45;&gt;Node14</title>
<path fill="none" stroke="midnightblue" d="M601.342,-224.324C592.999,-216.42 580.468,-204.548 570.323,-194.938"/>
<polygon fill="midnightblue" stroke="midnightblue" points="572.491,-192.171 562.825,-187.834 567.677,-197.252 572.491,-192.171"/>
</g>
<!-- Node15 -->
<g id="node15" class="node"><title>Node15</title>
<polygon fill="none" stroke="#bfbfbf" points="593.5,-168.5 593.5,-187.5 649.5,-187.5 649.5,-168.5 593.5,-168.5"/>
<text text-anchor="middle" x="621.5" y="-175.5" font-family="Helvetica,sans-Serif" font-size="10.00">algorithm</text>
</g>
<!-- Node13&#45;&gt;Node15 -->
<g id="edge15" class="edge"><title>Node13&#45;&gt;Node15</title>
<path fill="none" stroke="midnightblue" d="M612.316,-224.083C613.774,-216.927 615.871,-206.635 617.693,-197.691"/>
<polygon fill="midnightblue" stroke="midnightblue" points="621.151,-198.248 619.717,-187.751 614.292,-196.851 621.151,-198.248"/>
</g>
</g>
</svg>
