<?xml version="1.0" encoding="UTF-8" standalone="no"?>
<!DOCTYPE svg PUBLIC "-//W3C//DTD SVG 1.1//EN"
 "http://www.w3.org/Graphics/SVG/1.1/DTD/svg11.dtd">
<!-- Generated by graphviz version 2.38.0 (20140413.2041)
 -->
<!-- Title: /home/travis/build/AliceO2Group/AliceO2/Common/SimConfig/include/SimConfig/SimConfig.h Pages: 1 -->
<svg width="216pt" height="117pt"
 viewBox="0.00 0.00 216.00 117.00" xmlns="http://www.w3.org/2000/svg" xmlns:xlink="http://www.w3.org/1999/xlink">
<g id="graph0" class="graph" transform="scale(1 1) rotate(0) translate(4 113)">
<title>/home/travis/build/AliceO2Group/AliceO2/Common/SimConfig/include/SimConfig/SimConfig.h</title>
<!-- Node1 -->
<g id="node1" class="node"><title>Node1</title>
<polygon fill="#bfbfbf" stroke="black" points="13,-56.5 13,-108.5 155,-108.5 155,-56.5 13,-56.5"/>
<text text-anchor="start" x="21" y="-96.5" font-family="Helvetica,sans-Serif" font-size="10.00">/home/travis/build</text>
<text text-anchor="start" x="21" y="-85.5" font-family="Helvetica,sans-Serif" font-size="10.00">/AliceO2Group/AliceO2</text>
<text text-anchor="start" x="21" y="-74.5" font-family="Helvetica,sans-Serif" font-size="10.00">/Common/SimConfig/include</text>
<text text-anchor="middle" x="84" y="-63.5" font-family="Helvetica,sans-Serif" font-size="10.00">/SimConfig/SimConfig.h</text>
</g>
<!-- Node2 -->
<g id="node2" class="node"><title>Node2</title>
<polygon fill="none" stroke="#bfbfbf" points="0,-0.5 0,-19.5 56,-19.5 56,-0.5 0,-0.5"/>
<text text-anchor="middle" x="28" y="-7.5" font-family="Helvetica,sans-Serif" font-size="10.00">Rtypes.h</text>
</g>
<!-- Node1&#45;&gt;Node2 -->
<g id="edge1" class="edge"><title>Node1&#45;&gt;Node2</title>
<path fill="none" stroke="midnightblue" d="M64.0988,-56.4458C56.5391,-46.9287 48.1176,-36.3266 41.3113,-27.758"/>
<polygon fill="midnightblue" stroke="midnightblue" points="43.8675,-25.3489 34.9071,-19.6955 38.3863,-29.7028 43.8675,-25.3489"/>
</g>
<!-- Node3 -->
<g id="node3" class="node"><title>Node3</title>
<polygon fill="none" stroke="#bfbfbf" points="74,-0.5 74,-19.5 208,-19.5 208,-0.5 74,-0.5"/>
<text text-anchor="middle" x="141" y="-7.5" font-family="Helvetica,sans-Serif" font-size="10.00">boost/program_options.hpp</text>
</g>
<!-- Node1&#45;&gt;Node3 -->
<g id="edge2" class="edge"><title>Node1&#45;&gt;Node3</title>
<path fill="none" stroke="midnightblue" d="M104.257,-56.4458C112.032,-46.8285 120.704,-36.1032 127.669,-27.4881"/>
<polygon fill="midnightblue" stroke="midnightblue" points="130.404,-29.6723 133.97,-19.6955 124.961,-25.2713 130.404,-29.6723"/>
</g>
</g>
</svg>
