<?xml version="1.0" encoding="UTF-8" standalone="no"?>
<!DOCTYPE svg PUBLIC "-//W3C//DTD SVG 1.1//EN"
 "http://www.w3.org/Graphics/SVG/1.1/DTD/svg11.dtd">
<!-- Generated by graphviz version 2.38.0 (20140413.2041)
 -->
<!-- Title: /home/travis/build/AliceO2Group/AliceO2/Generators/include/Generators/Pythia8Generator.h Pages: 1 -->
<svg width="236pt" height="117pt"
 viewBox="0.00 0.00 236.00 117.00" xmlns="http://www.w3.org/2000/svg" xmlns:xlink="http://www.w3.org/1999/xlink">
<g id="graph0" class="graph" transform="scale(1 1) rotate(0) translate(4 113)">
<title>/home/travis/build/AliceO2Group/AliceO2/Generators/include/Generators/Pythia8Generator.h</title>
<!-- Node1 -->
<g id="node1" class="node"><title>Node1</title>
<polygon fill="#bfbfbf" stroke="black" points="54,-56.5 54,-108.5 206,-108.5 206,-56.5 54,-56.5"/>
<text text-anchor="start" x="62" y="-96.5" font-family="Helvetica,sans-Serif" font-size="10.00">/home/travis/build</text>
<text text-anchor="start" x="62" y="-85.5" font-family="Helvetica,sans-Serif" font-size="10.00">/AliceO2Group/AliceO2</text>
<text text-anchor="start" x="62" y="-74.5" font-family="Helvetica,sans-Serif" font-size="10.00">/Generators/include/Generators</text>
<text text-anchor="middle" x="130" y="-63.5" font-family="Helvetica,sans-Serif" font-size="10.00">/Pythia8Generator.h</text>
</g>
<!-- Node2 -->
<g id="node2" class="node"><title>Node2</title>
<polygon fill="none" stroke="#bfbfbf" points="0,-0.5 0,-19.5 84,-19.5 84,-0.5 0,-0.5"/>
<text text-anchor="middle" x="42" y="-7.5" font-family="Helvetica,sans-Serif" font-size="10.00">FairGenerator.h</text>
</g>
<!-- Node1&#45;&gt;Node2 -->
<g id="edge1" class="edge"><title>Node1&#45;&gt;Node2</title>
<path fill="none" stroke="midnightblue" d="M98.7267,-56.4458C86.0968,-46.3276 71.9363,-34.983 60.9226,-26.1596"/>
<polygon fill="midnightblue" stroke="midnightblue" points="62.8467,-23.2163 52.8539,-19.6955 58.47,-28.6794 62.8467,-23.2163"/>
</g>
<!-- Node3 -->
<g id="node3" class="node"><title>Node3</title>
<polygon fill="none" stroke="#bfbfbf" points="102,-0.5 102,-19.5 158,-19.5 158,-0.5 102,-0.5"/>
<text text-anchor="middle" x="130" y="-7.5" font-family="Helvetica,sans-Serif" font-size="10.00">Rtypes.h</text>
</g>
<!-- Node1&#45;&gt;Node3 -->
<g id="edge2" class="edge"><title>Node1&#45;&gt;Node3</title>
<path fill="none" stroke="midnightblue" d="M130,-56.4458C130,-47.7301 130,-38.1045 130,-29.9641"/>
<polygon fill="midnightblue" stroke="midnightblue" points="133.5,-29.6954 130,-19.6955 126.5,-29.6955 133.5,-29.6954"/>
</g>
<!-- Node4 -->
<g id="node4" class="node"><title>Node4</title>
<polygon fill="none" stroke="#bfbfbf" points="176,-0.5 176,-19.5 228,-19.5 228,-0.5 176,-0.5"/>
<text text-anchor="middle" x="202" y="-7.5" font-family="Helvetica,sans-Serif" font-size="10.00">memory</text>
</g>
<!-- Node1&#45;&gt;Node4 -->
<g id="edge3" class="edge"><title>Node1&#45;&gt;Node4</title>
<path fill="none" stroke="midnightblue" d="M155.587,-56.4458C165.614,-46.6281 176.82,-35.6559 185.708,-26.9524"/>
<polygon fill="midnightblue" stroke="midnightblue" points="188.423,-29.1926 193.12,-19.6955 183.526,-24.191 188.423,-29.1926"/>
</g>
</g>
</svg>
