<?xml version="1.0" encoding="UTF-8" standalone="no"?>
<!DOCTYPE svg PUBLIC "-//W3C//DTD SVG 1.1//EN"
 "http://www.w3.org/Graphics/SVG/1.1/DTD/svg11.dtd">
<!-- Generated by graphviz version 2.38.0 (20140413.2041)
 -->
<!-- Title: /home/travis/build/AliceO2Group/AliceO2/Detectors/ITSMFT/MFT/base/src/Flex.cxx Pages: 1 -->
<!--zoomable 307 -->
<svg id="main" version="1.1" xmlns="http://www.w3.org/2000/svg" xmlns:xlink="http://www.w3.org/1999/xlink" xml:space="preserve" onload="init(evt)">
<style type="text/css"><![CDATA[
.edge:hover path { stroke: red; }
.edge:hover polygon { stroke: red; fill: red; }
]]></style>
<script type="text/javascript"><![CDATA[
var edges = document.getElementsByTagName('g');
if (edges && edges.length) {
  for (var i=0;i<edges.length;i++) {
    if (edges[i].id.substr(0,4)=='edge') {
      edges[i].setAttribute('class','edge');
    }
  }
}
]]></script>
        <defs>
                <circle id="rim" cx="0" cy="0" r="7"/>
                <circle id="rim2" cx="0" cy="0" r="3.5"/>
                <g id="zoomPlus">
                        <use xlink:href="#rim" fill="#404040">
                                <set attributeName="fill" to="#808080" begin="zoomplus.mouseover" end="zoomplus.mouseout"/>
                        </use>
                        <path d="M-4,0h8M0,-4v8" fill="none" stroke="white" stroke-width="1.5" pointer-events="none"/>
                </g>
                <g id="zoomMin">
                        <use xlink:href="#rim" fill="#404040">
                                <set attributeName="fill" to="#808080" begin="zoomminus.mouseover" end="zoomminus.mouseout"/>
                        </use>
                        <path d="M-4,0h8" fill="none" stroke="white" stroke-width="1.5" pointer-events="none"/>
                </g>
                <g id="dirArrow">
                        <path fill="none" stroke="white" stroke-width="1.5" d="M0,-3.0v7 M-2.5,-0.5L0,-3.0L2.5,-0.5"/>
                </g>
               <g id="resetDef">
                       <use xlink:href="#rim2" fill="#404040">
                               <set attributeName="fill" to="#808080" begin="reset.mouseover" end="reset.mouseout"/>
                       </use>
               </g>
        </defs>

<script type="text/javascript">
var viewWidth = 1937;
var viewHeight = 307;
var sectionId = 'dynsection-0';
</script>
<script xlink:href="../../svgpan.js"/>
<svg id="graph" class="graph">
<g id="viewport">
<title>/home/travis/build/AliceO2Group/AliceO2/Detectors/ITSMFT/MFT/base/src/Flex.cxx</title>
<!-- Node1 -->
<g id="node1" class="node"><title>Node1</title>
<polygon fill="#bfbfbf" stroke="black" points="778.5,-246.5 778.5,-298.5 903.5,-298.5 903.5,-246.5 778.5,-246.5"/>
<text text-anchor="start" x="786.5" y="-286.5" font-family="Helvetica,sans-Serif" font-size="10.00">/home/travis/build</text>
<text text-anchor="start" x="786.5" y="-275.5" font-family="Helvetica,sans-Serif" font-size="10.00">/AliceO2Group/AliceO2</text>
<text text-anchor="start" x="786.5" y="-264.5" font-family="Helvetica,sans-Serif" font-size="10.00">/Detectors/ITSMFT/MFT</text>
<text text-anchor="middle" x="841" y="-253.5" font-family="Helvetica,sans-Serif" font-size="10.00">/base/src/Flex.cxx</text>
</g>
<!-- Node2 -->
<g id="node2" class="node"><title>Node2</title>
<polygon fill="none" stroke="#bfbfbf" points="0,-190.5 0,-209.5 86,-209.5 86,-190.5 0,-190.5"/>
<text text-anchor="middle" x="43" y="-197.5" font-family="Helvetica,sans-Serif" font-size="10.00">TGeoManager.h</text>
</g>
<!-- Node1&#45;&gt;Node2 -->
<g id="edge1" class="edge"><title>Node1&#45;&gt;Node2</title>
<path fill="none" stroke="midnightblue" d="M778.387,-267.869C650.577,-260.111 350.561,-240.137 100,-210 98.7411,-209.849 97.4674,-209.69 96.1834,-209.526"/>
<polygon fill="midnightblue" stroke="midnightblue" points="96.5945,-206.049 86.2133,-208.166 95.6487,-212.985 96.5945,-206.049"/>
</g>
<!-- Node3 -->
<g id="node3" class="node"><title>Node3</title>
<polygon fill="none" stroke="#bfbfbf" points="28,-134.5 28,-153.5 110,-153.5 110,-134.5 28,-134.5"/>
<text text-anchor="middle" x="69" y="-141.5" font-family="Helvetica,sans-Serif" font-size="10.00">TGeoVolume.h</text>
</g>
<!-- Node1&#45;&gt;Node3 -->
<g id="edge2" class="edge"><title>Node1&#45;&gt;Node3</title>
<path fill="none" stroke="midnightblue" d="M778.494,-271.548C627.441,-270.798 246.657,-263.493 133,-210 110.481,-199.401 91.4913,-177.319 80.1842,-161.847"/>
<polygon fill="midnightblue" stroke="midnightblue" points="83.0438,-159.829 74.4459,-153.638 77.3065,-163.84 83.0438,-159.829"/>
</g>
<!-- Node4 -->
<g id="node4" class="node"><title>Node4</title>
<polygon fill="none" stroke="#bfbfbf" points="877,-190.5 877,-209.5 945,-209.5 945,-190.5 877,-190.5"/>
<text text-anchor="middle" x="911" y="-197.5" font-family="Helvetica,sans-Serif" font-size="10.00">TGeoTrd2.h</text>
</g>
<!-- Node1&#45;&gt;Node4 -->
<g id="edge3" class="edge"><title>Node1&#45;&gt;Node4</title>
<path fill="none" stroke="midnightblue" d="M865.876,-246.446C875.625,-236.628 886.519,-225.656 895.161,-216.952"/>
<polygon fill="midnightblue" stroke="midnightblue" points="897.804,-219.258 902.366,-209.695 892.837,-214.326 897.804,-219.258"/>
</g>
<!-- Node5 -->
<g id="node5" class="node"><title>Node5</title>
<polygon fill="none" stroke="#bfbfbf" points="680,-6 680,-25 756,-25 756,-6 680,-6"/>
<text text-anchor="middle" x="718" y="-13" font-family="Helvetica,sans-Serif" font-size="10.00">TGeoMatrix.h</text>
</g>
<!-- Node1&#45;&gt;Node5 -->
<g id="edge4" class="edge"><title>Node1&#45;&gt;Node5</title>
<path fill="none" stroke="midnightblue" d="M778.111,-265.249C742.102,-258.078 699.69,-242.741 677,-210 661.769,-188.021 690.008,-179.184 699,-154 713.47,-113.472 716.998,-62.58 717.808,-35.5029"/>
<polygon fill="midnightblue" stroke="midnightblue" points="721.314,-35.2259 718.016,-25.1575 714.316,-35.0852 721.314,-35.2259"/>
</g>
<!-- Node6 -->
<g id="node6" class="node"><title>Node6</title>
<polygon fill="none" stroke="#bfbfbf" points="963.5,-190.5 963.5,-209.5 1036.5,-209.5 1036.5,-190.5 963.5,-190.5"/>
<text text-anchor="middle" x="1000" y="-197.5" font-family="Helvetica,sans-Serif" font-size="10.00">TGeoBBox.h</text>
</g>
<!-- Node1&#45;&gt;Node6 -->
<g id="edge5" class="edge"><title>Node1&#45;&gt;Node6</title>
<path fill="none" stroke="midnightblue" d="M897.505,-246.446C922.512,-235.358 950.84,-222.797 971.367,-213.696"/>
<polygon fill="midnightblue" stroke="midnightblue" points="973.046,-216.78 980.769,-209.527 970.209,-210.381 973.046,-216.78"/>
</g>
<!-- Node7 -->
<g id="node7" class="node"><title>Node7</title>
<polygon fill="none" stroke="#bfbfbf" points="1054.5,-190.5 1054.5,-209.5 1125.5,-209.5 1125.5,-190.5 1054.5,-190.5"/>
<text text-anchor="middle" x="1090" y="-197.5" font-family="Helvetica,sans-Serif" font-size="10.00">TGeoTube.h</text>
</g>
<!-- Node1&#45;&gt;Node7 -->
<g id="edge6" class="edge"><title>Node1&#45;&gt;Node7</title>
<path fill="none" stroke="midnightblue" d="M903.512,-253.801C949.498,-240.781 1010.63,-223.472 1050.15,-212.283"/>
<polygon fill="midnightblue" stroke="midnightblue" points="1051.29,-215.599 1059.95,-209.507 1049.38,-208.864 1051.29,-215.599"/>
</g>
<!-- Node8 -->
<g id="node8" class="node"><title>Node8</title>
<polygon fill="none" stroke="#bfbfbf" points="1144,-190.5 1144,-209.5 1268,-209.5 1268,-190.5 1144,-190.5"/>
<text text-anchor="middle" x="1206" y="-197.5" font-family="Helvetica,sans-Serif" font-size="10.00">TGeoCompositeShape.h</text>
</g>
<!-- Node1&#45;&gt;Node8 -->
<g id="edge7" class="edge"><title>Node1&#45;&gt;Node8</title>
<path fill="none" stroke="midnightblue" d="M903.746,-259.381C973.734,-245.862 1085.79,-224.218 1152.01,-211.428"/>
<polygon fill="midnightblue" stroke="midnightblue" points="1152.68,-214.863 1161.84,-209.53 1151.36,-207.99 1152.68,-214.863"/>
</g>
<!-- Node9 -->
<g id="node9" class="node"><title>Node9</title>
<polygon fill="none" stroke="#bfbfbf" points="1286,-190.5 1286,-209.5 1378,-209.5 1378,-190.5 1286,-190.5"/>
<text text-anchor="middle" x="1332" y="-197.5" font-family="Helvetica,sans-Serif" font-size="10.00">TGeoBoolNode.h</text>
</g>
<!-- Node1&#45;&gt;Node9 -->
<g id="edge8" class="edge"><title>Node1&#45;&gt;Node9</title>
<path fill="none" stroke="midnightblue" d="M903.517,-263.123C986.251,-251.939 1136.91,-231.231 1275.82,-210.154"/>
<polygon fill="midnightblue" stroke="midnightblue" points="1276.44,-213.6 1285.8,-208.636 1275.39,-206.68 1276.44,-213.6"/>
</g>
<!-- Node10 -->
<g id="node10" class="node"><title>Node10</title>
<polygon fill="none" stroke="#bfbfbf" points="1396.5,-190.5 1396.5,-209.5 1449.5,-209.5 1449.5,-190.5 1396.5,-190.5"/>
<text text-anchor="middle" x="1423" y="-197.5" font-family="Helvetica,sans-Serif" font-size="10.00">TMath.h</text>
</g>
<!-- Node1&#45;&gt;Node10 -->
<g id="edge9" class="edge"><title>Node1&#45;&gt;Node10</title>
<path fill="none" stroke="midnightblue" d="M903.623,-267.166C1003.69,-259.643 1205.86,-241.999 1386.41,-209.87"/>
<polygon fill="midnightblue" stroke="midnightblue" points="1387.13,-213.296 1396.35,-208.082 1385.89,-206.407 1387.13,-213.296"/>
</g>
<!-- Node11 -->
<g id="node11" class="node"><title>Node11</title>
<polygon fill="none" stroke="#bfbfbf" points="1467.5,-190.5 1467.5,-209.5 1538.5,-209.5 1538.5,-190.5 1467.5,-190.5"/>
<text text-anchor="middle" x="1503" y="-197.5" font-family="Helvetica,sans-Serif" font-size="10.00">FairLogger.h</text>
</g>
<!-- Node1&#45;&gt;Node11 -->
<g id="edge10" class="edge"><title>Node1&#45;&gt;Node11</title>
<path fill="none" stroke="midnightblue" d="M903.545,-267.407C1013.61,-259.737 1249.24,-241.238 1456.86,-210.204"/>
<polygon fill="midnightblue" stroke="midnightblue" points="1457.67,-213.622 1467.04,-208.669 1456.63,-206.7 1457.67,-213.622"/>
</g>
<!-- Node12 -->
<g id="node12" class="node"><title>Node12</title>
<g id="a_node12"><a xlink:href="../../d9/de7/LadderSegmentation_8h.html" target="_top" xlink:title="Description of the virtual segmentation of a ladder. ">
<polygon fill="none" stroke="black" points="430,-190.5 430,-209.5 590,-209.5 590,-190.5 430,-190.5"/>
<text text-anchor="middle" x="510" y="-197.5" font-family="Helvetica,sans-Serif" font-size="10.00">MFTBase/LadderSegmentation.h</text>
</a>
</g>
</g>
<!-- Node1&#45;&gt;Node12 -->
<g id="edge11" class="edge"><title>Node1&#45;&gt;Node12</title>
<path fill="none" stroke="midnightblue" d="M778.352,-258.157C715.055,-244.675 618.504,-224.11 560.108,-211.673"/>
<polygon fill="midnightblue" stroke="midnightblue" points="560.527,-208.183 550.018,-209.523 559.069,-215.03 560.527,-208.183"/>
</g>
<!-- Node17 -->
<g id="node17" class="node"><title>Node17</title>
<g id="a_node17"><a xlink:href="../../d3/dbd/ChipSegmentation_8h.html" target="_top" xlink:title="Chip (sensor) segmentation description. ">
<polygon fill="none" stroke="black" points="538.5,-134.5 538.5,-153.5 689.5,-153.5 689.5,-134.5 538.5,-134.5"/>
<text text-anchor="middle" x="614" y="-141.5" font-family="Helvetica,sans-Serif" font-size="10.00">MFTBase/ChipSegmentation.h</text>
</a>
</g>
</g>
<!-- Node1&#45;&gt;Node17 -->
<g id="edge19" class="edge"><title>Node1&#45;&gt;Node17</title>
<path fill="none" stroke="midnightblue" d="M778.174,-265.522C735.57,-258.498 680.411,-243.222 643,-210 629.452,-197.969 621.91,-178.397 617.939,-163.868"/>
<polygon fill="midnightblue" stroke="midnightblue" points="621.295,-162.856 615.557,-153.95 614.489,-164.491 621.295,-162.856"/>
</g>
<!-- Node18 -->
<g id="node18" class="node"><title>Node18</title>
<g id="a_node18"><a xlink:href="../../d2/d8d/Flex_8h.html" target="_top" xlink:title="Flex (Printed Cabled Board) class for ALICE MFT upgrade. ">
<polygon fill="none" stroke="black" points="1556.5,-190.5 1556.5,-209.5 1645.5,-209.5 1645.5,-190.5 1556.5,-190.5"/>
<text text-anchor="middle" x="1601" y="-197.5" font-family="Helvetica,sans-Serif" font-size="10.00">MFTBase/Flex.h</text>
</a>
</g>
</g>
<!-- Node1&#45;&gt;Node18 -->
<g id="edge20" class="edge"><title>Node1&#45;&gt;Node18</title>
<path fill="none" stroke="midnightblue" d="M903.602,-267.773C1025.46,-260.144 1303.19,-240.925 1546.14,-210.154"/>
<polygon fill="midnightblue" stroke="midnightblue" points="1546.74,-213.605 1556.22,-208.868 1545.86,-206.662 1546.74,-213.605"/>
</g>
<!-- Node19 -->
<g id="node19" class="node"><title>Node19</title>
<g id="a_node19"><a xlink:href="../../d0/d12/Ladder_8h.html" target="_top" xlink:title="Class building the Ladder geometry. ">
<polygon fill="none" stroke="black" points="142,-190.5 142,-209.5 242,-209.5 242,-190.5 142,-190.5"/>
<text text-anchor="middle" x="192" y="-197.5" font-family="Helvetica,sans-Serif" font-size="10.00">MFTBase/Ladder.h</text>
</a>
</g>
</g>
<!-- Node1&#45;&gt;Node19 -->
<g id="edge21" class="edge"><title>Node1&#45;&gt;Node19</title>
<path fill="none" stroke="midnightblue" d="M778.477,-264.708C653.639,-251.147 374.968,-220.876 252.128,-207.532"/>
<polygon fill="midnightblue" stroke="midnightblue" points="252.464,-204.048 242.144,-206.447 251.708,-211.007 252.464,-204.048"/>
</g>
<!-- Node20 -->
<g id="node20" class="node"><title>Node20</title>
<g id="a_node20"><a xlink:href="../../d6/d2e/ITSMFT_2MFT_2base_2include_2MFTBase_2Geometry_8h.html" target="_top" xlink:title="MFTBase/Geometry.h">
<polygon fill="none" stroke="black" points="166.5,-134.5 166.5,-153.5 279.5,-153.5 279.5,-134.5 166.5,-134.5"/>
<text text-anchor="middle" x="223" y="-141.5" font-family="Helvetica,sans-Serif" font-size="10.00">MFTBase/Geometry.h</text>
</a>
</g>
</g>
<!-- Node1&#45;&gt;Node20 -->
<g id="edge24" class="edge"><title>Node1&#45;&gt;Node20</title>
<path fill="none" stroke="midnightblue" d="M778.459,-265.733C695.846,-257.345 546.172,-239.479 421,-210 361.032,-195.877 293.237,-171.783 254.56,-157.232"/>
<polygon fill="midnightblue" stroke="midnightblue" points="255.506,-153.847 244.915,-153.573 253.024,-160.392 255.506,-153.847"/>
</g>
<!-- Node21 -->
<g id="node21" class="node"><title>Node21</title>
<g id="a_node21"><a xlink:href="../../d3/dba/SegmentationAlpide_8h.html" target="_top" xlink:title="Definition of the SegmentationAlpide class. ">
<polygon fill="none" stroke="black" points="685.5,-190.5 685.5,-209.5 858.5,-209.5 858.5,-190.5 685.5,-190.5"/>
<text text-anchor="middle" x="772" y="-197.5" font-family="Helvetica,sans-Serif" font-size="10.00">ITSMFTBase/SegmentationAlpide.h</text>
</a>
</g>
</g>
<!-- Node1&#45;&gt;Node21 -->
<g id="edge26" class="edge"><title>Node1&#45;&gt;Node21</title>
<path fill="none" stroke="midnightblue" d="M816.479,-246.446C806.87,-236.628 796.131,-225.656 787.613,-216.952"/>
<polygon fill="midnightblue" stroke="midnightblue" points="790.006,-214.394 780.51,-209.695 785.004,-219.29 790.006,-214.394"/>
</g>
<!-- Node13 -->
<g id="node13" class="node"><title>Node13</title>
<polygon fill="none" stroke="#bfbfbf" points="297.5,-134.5 297.5,-153.5 382.5,-153.5 382.5,-134.5 297.5,-134.5"/>
<text text-anchor="middle" x="340" y="-141.5" font-family="Helvetica,sans-Serif" font-size="10.00">TClonesArray.h</text>
</g>
<!-- Node12&#45;&gt;Node13 -->
<g id="edge12" class="edge"><title>Node12&#45;&gt;Node13</title>
<path fill="none" stroke="midnightblue" d="M483.063,-190.444C454.34,-181.32 408.671,-166.813 376.679,-156.651"/>
<polygon fill="midnightblue" stroke="midnightblue" points="377.401,-153.208 366.811,-153.516 375.282,-159.88 377.401,-153.208"/>
</g>
<!-- Node14 -->
<g id="node14" class="node"><title>Node14</title>
<polygon fill="none" stroke="#bfbfbf" points="400.5,-134.5 400.5,-153.5 481.5,-153.5 481.5,-134.5 400.5,-134.5"/>
<text text-anchor="middle" x="441" y="-141.5" font-family="Helvetica,sans-Serif" font-size="10.00">TXMLEngine.h</text>
</g>
<!-- Node12&#45;&gt;Node14 -->
<g id="edge13" class="edge"><title>Node12&#45;&gt;Node14</title>
<path fill="none" stroke="midnightblue" d="M498.914,-190.324C488.514,-182.185 472.739,-169.839 460.278,-160.087"/>
<polygon fill="midnightblue" stroke="midnightblue" points="462.32,-157.241 452.288,-153.834 458.006,-162.753 462.32,-157.241"/>
</g>
<!-- Node15 -->
<g id="node15" class="node"><title>Node15</title>
<g id="a_node15"><a xlink:href="../../d3/de7/VSegmentation_8h.html" target="_top" xlink:title="Abstract base class for MFT Segmentation description. ">
<polygon fill="none" stroke="black" points="493.5,-73 493.5,-92 630.5,-92 630.5,-73 493.5,-73"/>
<text text-anchor="middle" x="562" y="-80" font-family="Helvetica,sans-Serif" font-size="10.00">MFTBase/VSegmentation.h</text>
</a>
</g>
</g>
<!-- Node12&#45;&gt;Node15 -->
<g id="edge14" class="edge"><title>Node12&#45;&gt;Node15</title>
<path fill="none" stroke="midnightblue" d="M511.891,-190.319C514.833,-177.596 521.109,-153.303 530,-134 535.406,-122.263 543.123,-109.998 549.623,-100.495"/>
<polygon fill="midnightblue" stroke="midnightblue" points="552.687,-102.223 555.588,-92.0336 546.966,-98.19 552.687,-102.223"/>
</g>
<!-- Node12&#45;&gt;Node17 -->
<g id="edge17" class="edge"><title>Node12&#45;&gt;Node17</title>
<path fill="none" stroke="midnightblue" d="M526.709,-190.324C543.312,-181.703 569.002,-168.364 588.22,-158.386"/>
<polygon fill="midnightblue" stroke="midnightblue" points="590.07,-161.369 597.332,-153.655 586.844,-155.156 590.07,-161.369"/>
</g>
<!-- Node15&#45;&gt;Node5 -->
<g id="edge16" class="edge"><title>Node15&#45;&gt;Node5</title>
<path fill="none" stroke="midnightblue" d="M582.716,-72.8685C609.639,-61.6504 656.856,-41.9766 687.778,-29.0925"/>
<polygon fill="midnightblue" stroke="midnightblue" points="689.314,-32.2442 697.199,-25.1672 686.622,-25.7826 689.314,-32.2442"/>
</g>
<!-- Node16 -->
<g id="node16" class="node"><title>Node16</title>
<polygon fill="none" stroke="#bfbfbf" points="192,-6 192,-25 254,-25 254,-6 192,-6"/>
<text text-anchor="middle" x="223" y="-13" font-family="Helvetica,sans-Serif" font-size="10.00">TNamed.h</text>
</g>
<!-- Node15&#45;&gt;Node16 -->
<g id="edge15" class="edge"><title>Node15&#45;&gt;Node16</title>
<path fill="none" stroke="midnightblue" d="M517.333,-72.9355C451.253,-60.2653 328.372,-36.704 264.29,-24.417"/>
<polygon fill="midnightblue" stroke="midnightblue" points="264.635,-20.9194 254.155,-22.4736 263.317,-27.7942 264.635,-20.9194"/>
</g>
<!-- Node17&#45;&gt;Node15 -->
<g id="edge18" class="edge"><title>Node17&#45;&gt;Node15</title>
<path fill="none" stroke="midnightblue" d="M606.55,-134.475C598.672,-125.462 586.055,-111.025 576.256,-99.8118"/>
<polygon fill="midnightblue" stroke="midnightblue" points="578.653,-97.2356 569.437,-92.0091 573.382,-101.842 578.653,-97.2356"/>
</g>
<!-- Node19&#45;&gt;Node3 -->
<g id="edge23" class="edge"><title>Node19&#45;&gt;Node3</title>
<path fill="none" stroke="midnightblue" d="M172.51,-190.444C152.358,-181.596 120.677,-167.687 97.6692,-157.586"/>
<polygon fill="midnightblue" stroke="midnightblue" points="98.962,-154.332 88.3985,-153.516 96.148,-160.741 98.962,-154.332"/>
</g>
<!-- Node19&#45;&gt;Node16 -->
<g id="edge22" class="edge"><title>Node19&#45;&gt;Node16</title>
<path fill="none" stroke="midnightblue" d="M182.444,-190.45C173.912,-182.12 162.011,-168.604 157,-154 154.115,-145.592 154.75,-142.599 157,-134 167.208,-94.9825 193.593,-55.2361 209.741,-33.4325"/>
<polygon fill="midnightblue" stroke="midnightblue" points="212.7,-35.3226 215.958,-25.241 207.124,-31.0907 212.7,-35.3226"/>
</g>
<!-- Node20&#45;&gt;Node16 -->
<g id="edge25" class="edge"><title>Node20&#45;&gt;Node16</title>
<path fill="none" stroke="midnightblue" d="M223,-134.305C223,-113.994 223,-63.0532 223,-35.2768"/>
<polygon fill="midnightblue" stroke="midnightblue" points="226.5,-35.2557 223,-25.2557 219.5,-35.2557 226.5,-35.2557"/>
</g>
<!-- Node22 -->
<g id="node22" class="node"><title>Node22</title>
<polygon fill="none" stroke="#bfbfbf" points="746,-73 746,-92 802,-92 802,-73 746,-73"/>
<text text-anchor="middle" x="774" y="-80" font-family="Helvetica,sans-Serif" font-size="10.00">Rtypes.h</text>
</g>
<!-- Node21&#45;&gt;Node22 -->
<g id="edge27" class="edge"><title>Node21&#45;&gt;Node22</title>
<path fill="none" stroke="midnightblue" d="M772.15,-190.319C772.472,-171.757 773.232,-127.839 773.671,-102.473"/>
<polygon fill="midnightblue" stroke="midnightblue" points="777.174,-102.341 773.848,-92.282 770.175,-102.22 777.174,-102.341"/>
</g>
<!-- Node23 -->
<g id="node23" class="node"><title>Node23</title>
<g id="a_node23"><a xlink:href="../../dd/d76/Cartesian3D_8h.html" target="_top" xlink:title="MathUtils/Cartesian3D.h">
<polygon fill="none" stroke="black" points="1048.5,-134.5 1048.5,-153.5 1173.5,-153.5 1173.5,-134.5 1048.5,-134.5"/>
<text text-anchor="middle" x="1111" y="-141.5" font-family="Helvetica,sans-Serif" font-size="10.00">MathUtils/Cartesian3D.h</text>
</a>
</g>
</g>
<!-- Node21&#45;&gt;Node23 -->
<g id="edge28" class="edge"><title>Node21&#45;&gt;Node23</title>
<path fill="none" stroke="midnightblue" d="M825.716,-190.444C885.969,-180.846 983.614,-165.292 1047.57,-155.104"/>
<polygon fill="midnightblue" stroke="midnightblue" points="1048.21,-158.546 1057.54,-153.516 1047.11,-151.633 1048.21,-158.546"/>
</g>
<!-- Node23&#45;&gt;Node5 -->
<g id="edge35" class="edge"><title>Node23&#45;&gt;Node5</title>
<path fill="none" stroke="midnightblue" d="M1048.29,-141.163C993.505,-137.514 912.952,-127.113 849,-98 829.163,-88.9695 829.1,-79.1423 811,-67 789.725,-52.7278 764.034,-39.0207 745.05,-29.4975"/>
<polygon fill="midnightblue" stroke="midnightblue" points="746.572,-26.3451 736.057,-25.0464 743.467,-32.6189 746.572,-26.3451"/>
</g>
<!-- Node23&#45;&gt;Node22 -->
<g id="edge34" class="edge"><title>Node23&#45;&gt;Node22</title>
<path fill="none" stroke="midnightblue" d="M1048.49,-136.79C988.328,-130.035 895.096,-117.515 816,-98 812.78,-97.2054 809.456,-96.2687 806.155,-95.2599"/>
<polygon fill="midnightblue" stroke="midnightblue" points="807.037,-91.866 796.444,-92.0879 804.863,-98.52 807.037,-91.866"/>
</g>
<!-- Node24 -->
<g id="node24" class="node"><title>Node24</title>
<polygon fill="none" stroke="#bfbfbf" points="1242.5,-67.5 1242.5,-97.5 1393.5,-97.5 1393.5,-67.5 1242.5,-67.5"/>
<text text-anchor="start" x="1250.5" y="-85.5" font-family="Helvetica,sans-Serif" font-size="10.00">Math/GenVector/Displacement</text>
<text text-anchor="middle" x="1318" y="-74.5" font-family="Helvetica,sans-Serif" font-size="10.00">Vector3D.h</text>
</g>
<!-- Node23&#45;&gt;Node24 -->
<g id="edge29" class="edge"><title>Node23&#45;&gt;Node24</title>
<path fill="none" stroke="midnightblue" d="M1140.66,-134.475C1171.58,-125.588 1220.84,-111.429 1259.6,-100.286"/>
<polygon fill="midnightblue" stroke="midnightblue" points="1260.57,-103.649 1269.21,-97.523 1258.64,-96.9218 1260.57,-103.649"/>
</g>
<!-- Node25 -->
<g id="node25" class="node"><title>Node25</title>
<polygon fill="none" stroke="#bfbfbf" points="1412,-73 1412,-92 1588,-92 1588,-73 1412,-73"/>
<text text-anchor="middle" x="1500" y="-80" font-family="Helvetica,sans-Serif" font-size="10.00">Math/GenVector/PositionVector3D.h</text>
</g>
<!-- Node23&#45;&gt;Node25 -->
<g id="edge30" class="edge"><title>Node23&#45;&gt;Node25</title>
<path fill="none" stroke="midnightblue" d="M1166.73,-134.475C1237.36,-123.672 1358.92,-105.078 1434.08,-93.5825"/>
<polygon fill="midnightblue" stroke="midnightblue" points="1435.01,-96.9809 1444.37,-92.0091 1433.95,-90.0614 1435.01,-96.9809"/>
</g>
<!-- Node26 -->
<g id="node26" class="node"><title>Node26</title>
<polygon fill="none" stroke="#bfbfbf" points="1605.5,-73 1605.5,-92 1754.5,-92 1754.5,-73 1605.5,-73"/>
<text text-anchor="middle" x="1680" y="-80" font-family="Helvetica,sans-Serif" font-size="10.00">Math/GenVector/Rotation3D.h</text>
</g>
<!-- Node23&#45;&gt;Node26 -->
<g id="edge31" class="edge"><title>Node23&#45;&gt;Node26</title>
<path fill="none" stroke="midnightblue" d="M1173.71,-138.817C1266.47,-132.263 1445.61,-118.2 1597,-98 1606.05,-96.7924 1615.62,-95.3116 1624.92,-93.7626"/>
<polygon fill="midnightblue" stroke="midnightblue" points="1625.6,-97.1973 1634.87,-92.0648 1624.43,-90.2971 1625.6,-97.1973"/>
</g>
<!-- Node27 -->
<g id="node27" class="node"><title>Node27</title>
<polygon fill="none" stroke="#bfbfbf" points="1773,-73 1773,-92 1929,-92 1929,-73 1773,-73"/>
<text text-anchor="middle" x="1851" y="-80" font-family="Helvetica,sans-Serif" font-size="10.00">Math/GenVector/Transform3D.h</text>
</g>
<!-- Node23&#45;&gt;Node27 -->
<g id="edge32" class="edge"><title>Node23&#45;&gt;Node27</title>
<path fill="none" stroke="midnightblue" d="M1173.77,-140.688C1290.36,-135.946 1548.15,-123.365 1764,-98 1774.04,-96.8205 1784.68,-95.2854 1794.95,-93.6565"/>
<polygon fill="midnightblue" stroke="midnightblue" points="1795.76,-97.0714 1805.06,-92.0059 1794.63,-90.1629 1795.76,-97.0714"/>
</g>
<!-- Node28 -->
<g id="node28" class="node"><title>Node28</title>
<polygon fill="none" stroke="#bfbfbf" points="858,-73 858,-92 1018,-92 1018,-73 858,-73"/>
<text text-anchor="middle" x="938" y="-80" font-family="Helvetica,sans-Serif" font-size="10.00">Math/GenVector/Translation3D.h</text>
</g>
<!-- Node23&#45;&gt;Node28 -->
<g id="edge33" class="edge"><title>Node23&#45;&gt;Node28</title>
<path fill="none" stroke="midnightblue" d="M1086.21,-134.475C1056.41,-124.225 1006.21,-106.959 972.598,-95.3994"/>
<polygon fill="midnightblue" stroke="midnightblue" points="973.335,-91.9518 962.741,-92.0091 971.059,-98.5712 973.335,-91.9518"/>
</g>
<!-- Node29 -->
<g id="node29" class="node"><title>Node29</title>
<polygon fill="none" stroke="#bfbfbf" points="1036.5,-73 1036.5,-92 1081.5,-92 1081.5,-73 1036.5,-73"/>
<text text-anchor="middle" x="1059" y="-80" font-family="Helvetica,sans-Serif" font-size="10.00">iosfwd</text>
</g>
<!-- Node23&#45;&gt;Node29 -->
<g id="edge36" class="edge"><title>Node23&#45;&gt;Node29</title>
<path fill="none" stroke="midnightblue" d="M1103.55,-134.475C1095.67,-125.462 1083.06,-111.025 1073.26,-99.8118"/>
<polygon fill="midnightblue" stroke="midnightblue" points="1075.65,-97.2356 1066.44,-92.0091 1070.38,-101.842 1075.65,-97.2356"/>
</g>
<!-- Node30 -->
<g id="node30" class="node"><title>Node30</title>
<g id="a_node30"><a xlink:href="../../d2/dd0/Cartesian2D_8h.html" target="_top" xlink:title="MathUtils/Cartesian2D.h">
<polygon fill="none" stroke="black" points="1099.5,-73 1099.5,-92 1224.5,-92 1224.5,-73 1099.5,-73"/>
<text text-anchor="middle" x="1162" y="-80" font-family="Helvetica,sans-Serif" font-size="10.00">MathUtils/Cartesian2D.h</text>
</a>
</g>
</g>
<!-- Node23&#45;&gt;Node30 -->
<g id="edge37" class="edge"><title>Node23&#45;&gt;Node30</title>
<path fill="none" stroke="midnightblue" d="M1118.31,-134.475C1126.03,-125.462 1138.41,-111.025 1148.02,-99.8118"/>
<polygon fill="midnightblue" stroke="midnightblue" points="1150.86,-101.879 1154.71,-92.0091 1145.54,-97.3239 1150.86,-101.879"/>
</g>
<!-- Node31 -->
<g id="node31" class="node"><title>Node31</title>
<polygon fill="none" stroke="#bfbfbf" points="995.5,-0.5 995.5,-30.5 1146.5,-30.5 1146.5,-0.5 995.5,-0.5"/>
<text text-anchor="start" x="1003.5" y="-18.5" font-family="Helvetica,sans-Serif" font-size="10.00">Math/GenVector/Displacement</text>
<text text-anchor="middle" x="1071" y="-7.5" font-family="Helvetica,sans-Serif" font-size="10.00">Vector2D.h</text>
</g>
<!-- Node30&#45;&gt;Node31 -->
<g id="edge38" class="edge"><title>Node30&#45;&gt;Node31</title>
<path fill="none" stroke="midnightblue" d="M1149.73,-72.7338C1136.84,-63.527 1116.13,-48.7328 1099.18,-36.6293"/>
<polygon fill="midnightblue" stroke="midnightblue" points="1100.9,-33.5534 1090.72,-30.589 1096.83,-39.2495 1100.9,-33.5534"/>
</g>
<!-- Node32 -->
<g id="node32" class="node"><title>Node32</title>
<polygon fill="none" stroke="#bfbfbf" points="1165,-6 1165,-25 1341,-25 1341,-6 1165,-6"/>
<text text-anchor="middle" x="1253" y="-13" font-family="Helvetica,sans-Serif" font-size="10.00">Math/GenVector/PositionVector2D.h</text>
</g>
<!-- Node30&#45;&gt;Node32 -->
<g id="edge39" class="edge"><title>Node30&#45;&gt;Node32</title>
<path fill="none" stroke="midnightblue" d="M1174.27,-72.7338C1189.15,-62.1106 1214.43,-44.0485 1232.33,-31.2642"/>
<polygon fill="midnightblue" stroke="midnightblue" points="1234.82,-33.7878 1240.92,-25.1273 1230.75,-28.0917 1234.82,-33.7878"/>
</g>
</g>
</svg>
        <g id="navigator" transform="translate(0 0)" fill="#404254">
                <rect fill="#f2f5e9" fill-opacity="0.5" stroke="#606060" stroke-width=".5" x="0" y="0" width="60" height="60"/>
                <use id="zoomplus" xlink:href="#zoomPlus" x="17" y="9" onmousedown="handleZoom(evt,'in')"/>
                <use id="zoomminus" xlink:href="#zoomMin" x="42" y="9" onmousedown="handleZoom(evt,'out')"/>
                <use id="reset" xlink:href="#resetDef" x="30" y="36" onmousedown="handleReset()"/>
                <g id="arrowUp" xlink:href="#dirArrow" transform="translate(30 24)" onmousedown="handlePan(0,-1)">
                  <use xlink:href="#rim" fill="#404040">
                        <set attributeName="fill" to="#808080" begin="arrowUp.mouseover" end="arrowUp.mouseout"/>
                  </use>
                  <path fill="none" stroke="white" stroke-width="1.5" d="M0,-3.0v7 M-2.5,-0.5L0,-3.0L2.5,-0.5"/>
                </g>
                <g id="arrowRight" xlink:href="#dirArrow" transform="rotate(90) translate(36 -43)" onmousedown="handlePan(1,0)">
                  <use xlink:href="#rim" fill="#404040">
                        <set attributeName="fill" to="#808080" begin="arrowRight.mouseover" end="arrowRight.mouseout"/>
                  </use>
                  <path fill="none" stroke="white" stroke-width="1.5" d="M0,-3.0v7 M-2.5,-0.5L0,-3.0L2.5,-0.5"/>
                </g>
                <g id="arrowDown" xlink:href="#dirArrow" transform="rotate(180) translate(-30 -48)" onmousedown="handlePan(0,1)">
                  <use xlink:href="#rim" fill="#404040">
                        <set attributeName="fill" to="#808080" begin="arrowDown.mouseover" end="arrowDown.mouseout"/>
                  </use>
                  <path fill="none" stroke="white" stroke-width="1.5" d="M0,-3.0v7 M-2.5,-0.5L0,-3.0L2.5,-0.5"/>
                </g>
                <g id="arrowLeft" xlink:href="#dirArrow" transform="rotate(270) translate(-36 17)" onmousedown="handlePan(-1,0)">
                  <use xlink:href="#rim" fill="#404040">
                        <set attributeName="fill" to="#808080" begin="arrowLeft.mouseover" end="arrowLeft.mouseout"/>
                  </use>
                  <path fill="none" stroke="white" stroke-width="1.5" d="M0,-3.0v7 M-2.5,-0.5L0,-3.0L2.5,-0.5"/>
                </g>
        </g>
        <svg viewBox="0 0 15 15" width="100%" height="30px" preserveAspectRatio="xMaxYMin meet">
         <g id="arrow_out" transform="scale(0.3 0.3)">
          <a xlink:href="Flex_8cxx__incl_org.svg" target="_base">
           <rect id="button" ry="5" rx="5" y="6" x="6" height="38" width="38"
                fill="#f2f5e9" fill-opacity="0.5" stroke="#606060" stroke-width="1.0"/>
           <path id="arrow"
             d="M 11.500037,31.436501 C 11.940474,20.09759 22.043105,11.32322 32.158766,21.979434 L 37.068811,17.246167 C 37.068811,17.246167 37.088388,32 37.088388,32 L 22.160133,31.978069 C 22.160133,31.978069 26.997745,27.140456 26.997745,27.140456 C 18.528582,18.264221 13.291696,25.230495 11.500037,31.436501 z"
             style="fill:#404040;"/>
          </a>
         </g>
        </svg>
</svg>
