<?xml version="1.0" encoding="UTF-8" standalone="no"?>
<!DOCTYPE svg PUBLIC "-//W3C//DTD SVG 1.1//EN"
 "http://www.w3.org/Graphics/SVG/1.1/DTD/svg11.dtd">
<!-- Generated by graphviz version 2.38.0 (20140413.2041)
 -->
<!-- Title: GPUCA_NAMESPACE::gpu::GPUTPCSliceData Pages: 1 -->
<svg width="517pt" height="622pt"
 viewBox="0.00 0.00 516.50 622.00" xmlns="http://www.w3.org/2000/svg" xmlns:xlink="http://www.w3.org/1999/xlink">
<g id="graph0" class="graph" transform="scale(1 1) rotate(0) translate(4 618)">
<title>GPUCA_NAMESPACE::gpu::GPUTPCSliceData</title>
<!-- Node1 -->
<g id="node1" class="node"><title>Node1</title>
<polygon fill="#bfbfbf" stroke="black" points="205,-0.5 205,-475.5 348,-475.5 348,-0.5 205,-0.5"/>
<text text-anchor="start" x="213" y="-463.5" font-family="Helvetica,sans-Serif" font-size="10.00">GPUCA_NAMESPACE::gpu</text>
<text text-anchor="middle" x="276.5" y="-452.5" font-family="Helvetica,sans-Serif" font-size="10.00">::GPUTPCSliceData</text>
<polyline fill="none" stroke="black" points="205,-445.5 348,-445.5 "/>
<text text-anchor="middle" x="276.5" y="-433.5" font-family="Helvetica,sans-Serif" font-size="10.00"> </text>
<polyline fill="none" stroke="black" points="205,-426.5 348,-426.5 "/>
<text text-anchor="start" x="213" y="-414.5" font-family="Helvetica,sans-Serif" font-size="10.00">+ GPUTPCSliceData()</text>
<text text-anchor="start" x="213" y="-403.5" font-family="Helvetica,sans-Serif" font-size="10.00">+ ~GPUTPCSliceData()</text>
<text text-anchor="start" x="213" y="-392.5" font-family="Helvetica,sans-Serif" font-size="10.00">+ InitializeRows()</text>
<text text-anchor="start" x="213" y="-381.5" font-family="Helvetica,sans-Serif" font-size="10.00">+ SetMaxData()</text>
<text text-anchor="start" x="213" y="-370.5" font-family="Helvetica,sans-Serif" font-size="10.00">+ SetClusterData()</text>
<text text-anchor="start" x="213" y="-359.5" font-family="Helvetica,sans-Serif" font-size="10.00">+ SetPointersInput()</text>
<text text-anchor="start" x="213" y="-348.5" font-family="Helvetica,sans-Serif" font-size="10.00">+ SetPointersScratch()</text>
<text text-anchor="start" x="213" y="-337.5" font-family="Helvetica,sans-Serif" font-size="10.00">+ SetPointersScratchHost()</text>
<text text-anchor="start" x="213" y="-326.5" font-family="Helvetica,sans-Serif" font-size="10.00">+ SetPointersRows()</text>
<text text-anchor="start" x="213" y="-315.5" font-family="Helvetica,sans-Serif" font-size="10.00">+ InitFromClusterData()</text>
<text text-anchor="start" x="213" y="-304.5" font-family="Helvetica,sans-Serif" font-size="10.00">+ GPUhd()</text>
<text text-anchor="start" x="213" y="-293.5" font-family="Helvetica,sans-Serif" font-size="10.00">+ GPUhd()</text>
<text text-anchor="start" x="213" y="-282.5" font-family="Helvetica,sans-Serif" font-size="10.00">+ GPUhd()</text>
<text text-anchor="start" x="213" y="-271.5" font-family="Helvetica,sans-Serif" font-size="10.00">+ GPUd()</text>
<text text-anchor="start" x="213" y="-260.5" font-family="Helvetica,sans-Serif" font-size="10.00">+ GPUd()</text>
<text text-anchor="start" x="213" y="-249.5" font-family="Helvetica,sans-Serif" font-size="10.00">+ GPUhdi()</text>
<text text-anchor="start" x="213" y="-238.5" font-family="Helvetica,sans-Serif" font-size="10.00">+ GPUhd()</text>
<text text-anchor="start" x="213" y="-227.5" font-family="Helvetica,sans-Serif" font-size="10.00">+ GPUdi()</text>
<text text-anchor="start" x="213" y="-216.5" font-family="Helvetica,sans-Serif" font-size="10.00">+ GPUdi()</text>
<text text-anchor="start" x="213" y="-205.5" font-family="Helvetica,sans-Serif" font-size="10.00">+ GPUdi()</text>
<text text-anchor="start" x="213" y="-194.5" font-family="Helvetica,sans-Serif" font-size="10.00">+ GPUd()</text>
<text text-anchor="start" x="213" y="-183.5" font-family="Helvetica,sans-Serif" font-size="10.00">+ GPUd()</text>
<text text-anchor="start" x="213" y="-172.5" font-family="Helvetica,sans-Serif" font-size="10.00">+ GPUd()</text>
<text text-anchor="start" x="213" y="-161.5" font-family="Helvetica,sans-Serif" font-size="10.00">+ GPUd()</text>
<text text-anchor="start" x="213" y="-150.5" font-family="Helvetica,sans-Serif" font-size="10.00">+ GPUd()</text>
<text text-anchor="start" x="213" y="-139.5" font-family="Helvetica,sans-Serif" font-size="10.00">+ GPUd()</text>
<text text-anchor="start" x="213" y="-128.5" font-family="Helvetica,sans-Serif" font-size="10.00">+ GPUd()</text>
<text text-anchor="start" x="213" y="-117.5" font-family="Helvetica,sans-Serif" font-size="10.00">+ GPUd()</text>
<text text-anchor="start" x="213" y="-106.5" font-family="Helvetica,sans-Serif" font-size="10.00">+ GPUd()</text>
<text text-anchor="start" x="213" y="-95.5" font-family="Helvetica,sans-Serif" font-size="10.00">+ GPUhd()</text>
<text text-anchor="start" x="213" y="-84.5" font-family="Helvetica,sans-Serif" font-size="10.00">+ GPUhdi()</text>
<text text-anchor="start" x="213" y="-73.5" font-family="Helvetica,sans-Serif" font-size="10.00">+ GPUhdi()</text>
<text text-anchor="start" x="213" y="-62.5" font-family="Helvetica,sans-Serif" font-size="10.00">+ GPUhdi()</text>
<text text-anchor="start" x="213" y="-51.5" font-family="Helvetica,sans-Serif" font-size="10.00">+ GPUhdi()</text>
<text text-anchor="start" x="213" y="-40.5" font-family="Helvetica,sans-Serif" font-size="10.00">+ GPUhdi()</text>
<text text-anchor="start" x="213" y="-29.5" font-family="Helvetica,sans-Serif" font-size="10.00">+ GPUhdi()</text>
<text text-anchor="start" x="213" y="-18.5" font-family="Helvetica,sans-Serif" font-size="10.00">+ GPUhi()</text>
<text text-anchor="start" x="213" y="-7.5" font-family="Helvetica,sans-Serif" font-size="10.00">+ MaxZ()</text>
</g>
<!-- Node2 -->
<g id="node2" class="node"><title>Node2</title>
<polygon fill="none" stroke="#bfbfbf" points="0,-551 0,-608 79,-608 79,-551 0,-551"/>
<text text-anchor="middle" x="39.5" y="-596" font-family="Helvetica,sans-Serif" font-size="10.00">const calink &amp;</text>
<polyline fill="none" stroke="#bfbfbf" points="0,-589 79,-589 "/>
<text text-anchor="middle" x="39.5" y="-577" font-family="Helvetica,sans-Serif" font-size="10.00"> </text>
<polyline fill="none" stroke="#bfbfbf" points="0,-570 79,-570 "/>
<text text-anchor="middle" x="39.5" y="-558" font-family="Helvetica,sans-Serif" font-size="10.00"> </text>
</g>
<!-- Node2&#45;&gt;Node1 -->
<g id="edge1" class="edge"><title>Node2&#45;&gt;Node1</title>
<path fill="none" stroke="#404040" d="M58.8947,-550.717C89.0394,-507.535 148.795,-421.936 198.072,-351.347"/>
<polygon fill="none" stroke="#404040" points="198.082,-351.332 198.237,-344.123 204.951,-341.493 204.797,-348.702 198.082,-351.332"/>
<text text-anchor="middle" x="119.5" y="-508" font-family="Helvetica,sans-Serif" font-size="10.00"> +hitIndex</text>
</g>
<!-- Node3 -->
<g id="node3" class="node"><title>Node3</title>
<polygon fill="none" stroke="#bfbfbf" points="97,-551 97,-608 210,-608 210,-551 97,-551"/>
<text text-anchor="middle" x="153.5" y="-596" font-family="Helvetica,sans-Serif" font-size="10.00">const calink &amp;hitIndex</text>
<polyline fill="none" stroke="#bfbfbf" points="97,-589 210,-589 "/>
<text text-anchor="middle" x="153.5" y="-577" font-family="Helvetica,sans-Serif" font-size="10.00"> </text>
<polyline fill="none" stroke="#bfbfbf" points="97,-570 210,-570 "/>
<text text-anchor="middle" x="153.5" y="-558" font-family="Helvetica,sans-Serif" font-size="10.00"> </text>
</g>
<!-- Node3&#45;&gt;Node1 -->
<g id="edge2" class="edge"><title>Node3&#45;&gt;Node1</title>
<path fill="none" stroke="#404040" d="M163.566,-550.717C172.369,-526.419 186.038,-488.69 200.866,-447.763"/>
<polygon fill="none" stroke="#404040" points="200.883,-447.715 199.166,-440.712 204.971,-436.433 206.688,-443.437 200.883,-447.715"/>
<text text-anchor="middle" x="200.5" y="-508" font-family="Helvetica,sans-Serif" font-size="10.00"> +const</text>
</g>
<!-- Node4 -->
<g id="node4" class="node"><title>Node4</title>
<polygon fill="none" stroke="#bfbfbf" points="228.5,-545.5 228.5,-613.5 324.5,-613.5 324.5,-545.5 228.5,-545.5"/>
<text text-anchor="start" x="236.5" y="-601.5" font-family="Helvetica,sans-Serif" font-size="10.00">const calink const</text>
<text text-anchor="middle" x="276.5" y="-590.5" font-family="Helvetica,sans-Serif" font-size="10.00"> calink &amp;</text>
<polyline fill="none" stroke="#bfbfbf" points="228.5,-583.5 324.5,-583.5 "/>
<text text-anchor="middle" x="276.5" y="-571.5" font-family="Helvetica,sans-Serif" font-size="10.00"> </text>
<polyline fill="none" stroke="#bfbfbf" points="228.5,-564.5 324.5,-564.5 "/>
<text text-anchor="middle" x="276.5" y="-552.5" font-family="Helvetica,sans-Serif" font-size="10.00"> </text>
</g>
<!-- Node4&#45;&gt;Node1 -->
<g id="edge3" class="edge"><title>Node4&#45;&gt;Node1</title>
<path fill="none" stroke="#404040" d="M276.5,-545.329C276.5,-529.913 276.5,-510.085 276.5,-487.94"/>
<polygon fill="none" stroke="#404040" points="276.5,-487.788 272.5,-481.788 276.5,-475.788 280.5,-481.788 276.5,-487.788"/>
<text text-anchor="middle" x="293" y="-508" font-family="Helvetica,sans-Serif" font-size="10.00"> +value</text>
</g>
<!-- Node5 -->
<g id="node5" class="node"><title>Node5</title>
<polygon fill="none" stroke="#bfbfbf" points="342.5,-551 342.5,-608 398.5,-608 398.5,-551 342.5,-551"/>
<text text-anchor="middle" x="370.5" y="-596" font-family="Helvetica,sans-Serif" font-size="10.00">unsigned</text>
<polyline fill="none" stroke="#bfbfbf" points="342.5,-589 398.5,-589 "/>
<text text-anchor="middle" x="370.5" y="-577" font-family="Helvetica,sans-Serif" font-size="10.00"> </text>
<polyline fill="none" stroke="#bfbfbf" points="342.5,-570 398.5,-570 "/>
<text text-anchor="middle" x="370.5" y="-558" font-family="Helvetica,sans-Serif" font-size="10.00"> </text>
</g>
<!-- Node5&#45;&gt;Node1 -->
<g id="edge4" class="edge"><title>Node5&#45;&gt;Node1</title>
<path fill="none" stroke="#404040" d="M362.808,-550.717C358.34,-534.581 352.232,-512.521 345.314,-487.535"/>
<polygon fill="none" stroke="#404040" points="345.283,-487.425 339.827,-482.71 342.081,-475.86 347.537,-480.575 345.283,-487.425"/>
<text text-anchor="middle" x="377.5" y="-519" font-family="Helvetica,sans-Serif" font-size="10.00"> +hitIndex</text>
<text text-anchor="middle" x="377.5" y="-508" font-family="Helvetica,sans-Serif" font-size="10.00">+const</text>
<text text-anchor="middle" x="377.5" y="-497" font-family="Helvetica,sans-Serif" font-size="10.00">+weight</text>
</g>
<!-- Node6 -->
<g id="node6" class="node"><title>Node6</title>
<polygon fill="none" stroke="#bfbfbf" points="416.5,-551 416.5,-608 508.5,-608 508.5,-551 416.5,-551"/>
<text text-anchor="middle" x="462.5" y="-596" font-family="Helvetica,sans-Serif" font-size="10.00">calink binIndexes</text>
<polyline fill="none" stroke="#bfbfbf" points="416.5,-589 508.5,-589 "/>
<text text-anchor="middle" x="462.5" y="-577" font-family="Helvetica,sans-Serif" font-size="10.00"> </text>
<polyline fill="none" stroke="#bfbfbf" points="416.5,-570 508.5,-570 "/>
<text text-anchor="middle" x="462.5" y="-558" font-family="Helvetica,sans-Serif" font-size="10.00"> </text>
</g>
<!-- Node6&#45;&gt;Node1 -->
<g id="edge5" class="edge"><title>Node6&#45;&gt;Node1</title>
<path fill="none" stroke="#404040" d="M447.279,-550.717C426.773,-513.289 388.809,-443.994 353.873,-380.227"/>
<polygon fill="none" stroke="#404040" points="353.836,-380.16 347.445,-376.819 348.071,-369.636 354.461,-372.976 353.836,-380.16"/>
<text text-anchor="middle" x="448.5" y="-508" font-family="Helvetica,sans-Serif" font-size="10.00"> +const</text>
</g>
</g>
</svg>
