<?xml version="1.0" encoding="UTF-8" standalone="no"?>
<!DOCTYPE svg PUBLIC "-//W3C//DTD SVG 1.1//EN"
 "http://www.w3.org/Graphics/SVG/1.1/DTD/svg11.dtd">
<!-- Generated by graphviz version 2.38.0 (20140413.2041)
 -->
<!-- Title: AliHLTComponentTableEntry Pages: 1 -->
<svg width="159pt" height="215pt"
 viewBox="0.00 0.00 159.00 215.00" xmlns="http://www.w3.org/2000/svg" xmlns:xlink="http://www.w3.org/1999/xlink">
<g id="graph0" class="graph" transform="scale(1 1) rotate(0) translate(4 211)">
<title>AliHLTComponentTableEntry</title>
<!-- Node1 -->
<g id="node1" class="node"><title>Node1</title>
<polygon fill="#bfbfbf" stroke="black" points="0,-0.5 0,-57.5 144,-57.5 144,-0.5 0,-0.5"/>
<text text-anchor="middle" x="72" y="-45.5" font-family="Helvetica,sans-Serif" font-size="10.00">AliHLTComponentTableEntry</text>
<polyline fill="none" stroke="black" points="0,-38.5 144,-38.5 "/>
<text text-anchor="middle" x="72" y="-26.5" font-family="Helvetica,sans-Serif" font-size="10.00"> </text>
<polyline fill="none" stroke="black" points="0,-19.5 144,-19.5 "/>
<text text-anchor="middle" x="72" y="-7.5" font-family="Helvetica,sans-Serif" font-size="10.00"> </text>
</g>
<!-- Node2 -->
<g id="node2" class="node"><title>Node2</title>
<polygon fill="none" stroke="#bfbfbf" points="44,-149.5 44,-206.5 100,-206.5 100,-149.5 44,-149.5"/>
<text text-anchor="middle" x="72" y="-194.5" font-family="Helvetica,sans-Serif" font-size="10.00">unsigned</text>
<polyline fill="none" stroke="#bfbfbf" points="44,-187.5 100,-187.5 "/>
<text text-anchor="middle" x="72" y="-175.5" font-family="Helvetica,sans-Serif" font-size="10.00"> </text>
<polyline fill="none" stroke="#bfbfbf" points="44,-168.5 100,-168.5 "/>
<text text-anchor="middle" x="72" y="-156.5" font-family="Helvetica,sans-Serif" font-size="10.00"> </text>
</g>
<!-- Node2&#45;&gt;Node1 -->
<g id="edge1" class="edge"><title>Node2&#45;&gt;Node1</title>
<path fill="none" stroke="#404040" d="M72,-149.35C72,-126.868 72,-94.8549 72,-69.6431"/>
<polygon fill="none" stroke="#404040" points="72.0001,-69.5256 68,-63.5256 72,-57.5256 76,-63.5256 72.0001,-69.5256"/>
<text text-anchor="middle" x="111.5" y="-123" font-family="Helvetica,sans-Serif" font-size="10.00"> +fStructSize</text>
<text text-anchor="middle" x="111.5" y="-112" font-family="Helvetica,sans-Serif" font-size="10.00">+fBuffer</text>
<text text-anchor="middle" x="111.5" y="-101" font-family="Helvetica,sans-Serif" font-size="10.00">+fNofParents</text>
<text text-anchor="middle" x="111.5" y="-90" font-family="Helvetica,sans-Serif" font-size="10.00">+fSizeDescription</text>
<text text-anchor="middle" x="111.5" y="-79" font-family="Helvetica,sans-Serif" font-size="10.00">+fLevel</text>
</g>
</g>
</svg>
