<?xml version="1.0" encoding="UTF-8" standalone="no"?>
<!DOCTYPE svg PUBLIC "-//W3C//DTD SVG 1.1//EN"
 "http://www.w3.org/Graphics/SVG/1.1/DTD/svg11.dtd">
<!-- Generated by graphviz version 2.38.0 (20140413.2041)
 -->
<!-- Title: /home/travis/build/AliceO2Group/AliceO2/GPU/GPUTracking/TRDTracking/GPUTRDTrack.h Pages: 1 -->
<svg width="1042pt" height="520pt"
 viewBox="0.00 0.00 1041.50 520.00" xmlns="http://www.w3.org/2000/svg" xmlns:xlink="http://www.w3.org/1999/xlink">
<g id="graph0" class="graph" transform="scale(1 1) rotate(0) translate(4 516)">
<title>/home/travis/build/AliceO2Group/AliceO2/GPU/GPUTracking/TRDTracking/GPUTRDTrack.h</title>
<!-- Node1 -->
<g id="node1" class="node"><title>Node1</title>
<polygon fill="#bfbfbf" stroke="black" points="346,-459.5 346,-511.5 511,-511.5 511,-459.5 346,-459.5"/>
<text text-anchor="start" x="354" y="-499.5" font-family="Helvetica,sans-Serif" font-size="10.00">/home/travis/build</text>
<text text-anchor="start" x="354" y="-488.5" font-family="Helvetica,sans-Serif" font-size="10.00">/AliceO2Group/AliceO2</text>
<text text-anchor="start" x="354" y="-477.5" font-family="Helvetica,sans-Serif" font-size="10.00">/GPU/GPUTracking/TRDTracking</text>
<text text-anchor="middle" x="428.5" y="-466.5" font-family="Helvetica,sans-Serif" font-size="10.00">/GPUTRDTrack.h</text>
</g>
<!-- Node2 -->
<g id="node2" class="node"><title>Node2</title>
<g id="a_node2"><a xlink:href="../../d7/d4f/GPUTRDDef_8h.html" target="_top" xlink:title="GPUTRDDef.h">
<polygon fill="none" stroke="black" points="0,-347.5 0,-366.5 83,-366.5 83,-347.5 0,-347.5"/>
<text text-anchor="middle" x="41.5" y="-354.5" font-family="Helvetica,sans-Serif" font-size="10.00">GPUTRDDef.h</text>
</a>
</g>
</g>
<!-- Node1&#45;&gt;Node2 -->
<g id="edge1" class="edge"><title>Node1&#45;&gt;Node2</title>
<path fill="none" stroke="midnightblue" d="M351.579,-459.356C268.473,-432.192 139.629,-390.076 77.466,-369.756"/>
<polygon fill="midnightblue" stroke="midnightblue" points="78.3161,-366.352 67.7236,-366.572 76.1412,-373.006 78.3161,-366.352"/>
</g>
<!-- Node6 -->
<g id="node6" class="node"><title>Node6</title>
<g id="a_node6"><a xlink:href="../../d2/d6d/GPUDef_8h.html" target="_top" xlink:title="GPUDef.h">
<polygon fill="none" stroke="black" points="611.5,-112.5 611.5,-131.5 673.5,-131.5 673.5,-112.5 611.5,-112.5"/>
<text text-anchor="middle" x="642.5" y="-119.5" font-family="Helvetica,sans-Serif" font-size="10.00">GPUDef.h</text>
</a>
</g>
</g>
<!-- Node1&#45;&gt;Node6 -->
<g id="edge5" class="edge"><title>Node1&#45;&gt;Node6</title>
<path fill="none" stroke="midnightblue" d="M511.197,-484.027C675.103,-480.846 1025.5,-461.894 1025.5,-358 1025.5,-358 1025.5,-358 1025.5,-233 1025.5,-200.189 1017.53,-186.6 990.5,-168 941.571,-134.329 765.275,-125.844 684.031,-123.712"/>
<polygon fill="midnightblue" stroke="midnightblue" points="683.765,-120.205 673.683,-123.462 683.596,-127.203 683.765,-120.205"/>
</g>
<!-- Node12 -->
<g id="node12" class="node"><title>Node12</title>
<g id="a_node12"><a xlink:href="../../df/d77/GPUTRDInterfaces_8h.html" target="_top" xlink:title="GPUTRDInterfaces.h">
<polygon fill="none" stroke="black" points="373,-403.5 373,-422.5 484,-422.5 484,-403.5 373,-403.5"/>
<text text-anchor="middle" x="428.5" y="-410.5" font-family="Helvetica,sans-Serif" font-size="10.00">GPUTRDInterfaces.h</text>
</a>
</g>
</g>
<!-- Node1&#45;&gt;Node12 -->
<g id="edge12" class="edge"><title>Node1&#45;&gt;Node12</title>
<path fill="none" stroke="midnightblue" d="M428.5,-459.446C428.5,-450.73 428.5,-441.104 428.5,-432.964"/>
<polygon fill="midnightblue" stroke="midnightblue" points="432,-432.695 428.5,-422.695 425,-432.696 432,-432.695"/>
</g>
<!-- Node3 -->
<g id="node3" class="node"><title>Node3</title>
<g id="a_node3"><a xlink:href="../../df/d21/GPUCommonDef_8h.html" target="_top" xlink:title="GPUCommonDef.h">
<polygon fill="none" stroke="black" points="289.5,-56.5 289.5,-75.5 391.5,-75.5 391.5,-56.5 289.5,-56.5"/>
<text text-anchor="middle" x="340.5" y="-63.5" font-family="Helvetica,sans-Serif" font-size="10.00">GPUCommonDef.h</text>
</a>
</g>
</g>
<!-- Node2&#45;&gt;Node3 -->
<g id="edge2" class="edge"><title>Node2&#45;&gt;Node3</title>
<path fill="none" stroke="midnightblue" d="M43.4619,-347.247C47.7344,-327.394 57.5,-277.38 57.5,-235 57.5,-235 57.5,-235 57.5,-177 57.5,-143.079 69.5256,-131.185 97.5,-112 126.367,-92.2032 217.152,-79.3614 279.199,-72.651"/>
<polygon fill="midnightblue" stroke="midnightblue" points="279.702,-76.1175 289.279,-71.5871 278.967,-69.1562 279.702,-76.1175"/>
</g>
<!-- Node4 -->
<g id="node4" class="node"><title>Node4</title>
<g id="a_node4"><a xlink:href="../../d5/d93/GPUCommonDefSettings_8h.html" target="_top" xlink:title="GPUCommonDefSettings.h">
<polygon fill="none" stroke="black" points="345.5,-0.5 345.5,-19.5 483.5,-19.5 483.5,-0.5 345.5,-0.5"/>
<text text-anchor="middle" x="414.5" y="-7.5" font-family="Helvetica,sans-Serif" font-size="10.00">GPUCommonDefSettings.h</text>
</a>
</g>
</g>
<!-- Node3&#45;&gt;Node4 -->
<g id="edge3" class="edge"><title>Node3&#45;&gt;Node4</title>
<path fill="none" stroke="midnightblue" d="M352.389,-56.324C363.65,-48.1066 380.787,-35.6017 394.209,-25.8069"/>
<polygon fill="midnightblue" stroke="midnightblue" points="396.38,-28.5559 402.394,-19.8339 392.253,-22.9014 396.38,-28.5559"/>
</g>
<!-- Node5 -->
<g id="node5" class="node"><title>Node5</title>
<g id="a_node5"><a xlink:href="../../da/d5a/GPUCommonDefAPI_8h.html" target="_top" xlink:title="GPUCommonDefAPI.h">
<polygon fill="none" stroke="black" points="208,-0.5 208,-19.5 327,-19.5 327,-0.5 208,-0.5"/>
<text text-anchor="middle" x="267.5" y="-7.5" font-family="Helvetica,sans-Serif" font-size="10.00">GPUCommonDefAPI.h</text>
</a>
</g>
</g>
<!-- Node3&#45;&gt;Node5 -->
<g id="edge4" class="edge"><title>Node3&#45;&gt;Node5</title>
<path fill="none" stroke="midnightblue" d="M328.771,-56.324C317.663,-48.1066 300.758,-35.6017 287.517,-25.8069"/>
<polygon fill="midnightblue" stroke="midnightblue" points="289.563,-22.9671 279.442,-19.8339 285.4,-28.5948 289.563,-22.9671"/>
</g>
<!-- Node6&#45;&gt;Node3 -->
<g id="edge6" class="edge"><title>Node6&#45;&gt;Node3</title>
<path fill="none" stroke="midnightblue" d="M611.318,-115.424C561.107,-106.446 461.565,-88.6474 398.157,-77.3095"/>
<polygon fill="midnightblue" stroke="midnightblue" points="398.763,-73.8625 388.303,-75.5476 397.531,-80.7532 398.763,-73.8625"/>
</g>
<!-- Node7 -->
<g id="node7" class="node"><title>Node7</title>
<g id="a_node7"><a xlink:href="../../d2/d37/GPUDefConstantsAndSettings_8h.html" target="_top" xlink:title="GPUDefConstantsAndSettings.h">
<polygon fill="none" stroke="black" points="720,-56.5 720,-75.5 881,-75.5 881,-56.5 720,-56.5"/>
<text text-anchor="middle" x="800.5" y="-63.5" font-family="Helvetica,sans-Serif" font-size="10.00">GPUDefConstantsAndSettings.h</text>
</a>
</g>
</g>
<!-- Node6&#45;&gt;Node7 -->
<g id="edge7" class="edge"><title>Node6&#45;&gt;Node7</title>
<path fill="none" stroke="midnightblue" d="M667.536,-112.444C694.116,-103.359 736.309,-88.9388 766.023,-78.7831"/>
<polygon fill="midnightblue" stroke="midnightblue" points="767.251,-82.0625 775.582,-75.5164 764.987,-75.4386 767.251,-82.0625"/>
</g>
<!-- Node8 -->
<g id="node8" class="node"><title>Node8</title>
<g id="a_node8"><a xlink:href="../../dc/de9/GPUDefGPUParameters_8h.html" target="_top" xlink:title="GPUDefGPUParameters.h">
<polygon fill="none" stroke="black" points="899.5,-56.5 899.5,-75.5 1033.5,-75.5 1033.5,-56.5 899.5,-56.5"/>
<text text-anchor="middle" x="966.5" y="-63.5" font-family="Helvetica,sans-Serif" font-size="10.00">GPUDefGPUParameters.h</text>
</a>
</g>
</g>
<!-- Node6&#45;&gt;Node8 -->
<g id="edge8" class="edge"><title>Node6&#45;&gt;Node8</title>
<path fill="none" stroke="midnightblue" d="M673.566,-115.822C726.857,-106.941 836.606,-88.6491 905.599,-77.1502"/>
<polygon fill="midnightblue" stroke="midnightblue" points="906.183,-80.6013 915.471,-75.5048 905.032,-73.6965 906.183,-80.6013"/>
</g>
<!-- Node9 -->
<g id="node9" class="node"><title>Node9</title>
<g id="a_node9"><a xlink:href="../../d3/d4c/GPUDefOpenCL12Templates_8h.html" target="_top" xlink:title="GPUDefOpenCL12Templates.h">
<polygon fill="none" stroke="black" points="410,-56.5 410,-75.5 565,-75.5 565,-56.5 410,-56.5"/>
<text text-anchor="middle" x="487.5" y="-63.5" font-family="Helvetica,sans-Serif" font-size="10.00">GPUDefOpenCL12Templates.h</text>
</a>
</g>
</g>
<!-- Node6&#45;&gt;Node9 -->
<g id="edge9" class="edge"><title>Node6&#45;&gt;Node9</title>
<path fill="none" stroke="midnightblue" d="M617.94,-112.444C591.977,-103.399 550.832,-89.064 521.703,-78.9158"/>
<polygon fill="midnightblue" stroke="midnightblue" points="522.54,-75.5013 511.945,-75.5164 520.237,-82.1116 522.54,-75.5013"/>
</g>
<!-- Node10 -->
<g id="node10" class="node"><title>Node10</title>
<g id="a_node10"><a xlink:href="../../d2/d45/GPUCommonRtypes_8h.html" target="_top" xlink:title="GPUCommonRtypes.h">
<polygon fill="none" stroke="black" points="583.5,-56.5 583.5,-75.5 701.5,-75.5 701.5,-56.5 583.5,-56.5"/>
<text text-anchor="middle" x="642.5" y="-63.5" font-family="Helvetica,sans-Serif" font-size="10.00">GPUCommonRtypes.h</text>
</a>
</g>
</g>
<!-- Node6&#45;&gt;Node10 -->
<g id="edge10" class="edge"><title>Node6&#45;&gt;Node10</title>
<path fill="none" stroke="midnightblue" d="M642.5,-112.083C642.5,-105.006 642.5,-94.8611 642.5,-85.9865"/>
<polygon fill="midnightblue" stroke="midnightblue" points="646,-85.751 642.5,-75.7511 639,-85.7511 646,-85.751"/>
</g>
<!-- Node11 -->
<g id="node11" class="node"><title>Node11</title>
<polygon fill="none" stroke="#bfbfbf" points="614.5,-0.5 614.5,-19.5 670.5,-19.5 670.5,-0.5 614.5,-0.5"/>
<text text-anchor="middle" x="642.5" y="-7.5" font-family="Helvetica,sans-Serif" font-size="10.00">Rtypes.h</text>
</g>
<!-- Node10&#45;&gt;Node11 -->
<g id="edge11" class="edge"><title>Node10&#45;&gt;Node11</title>
<path fill="none" stroke="midnightblue" d="M642.5,-56.083C642.5,-49.0059 642.5,-38.8611 642.5,-29.9865"/>
<polygon fill="midnightblue" stroke="midnightblue" points="646,-29.751 642.5,-19.7511 639,-29.7511 646,-29.751"/>
</g>
<!-- Node12&#45;&gt;Node2 -->
<g id="edge30" class="edge"><title>Node12&#45;&gt;Node2</title>
<path fill="none" stroke="midnightblue" d="M372.804,-404.847C306.977,-396.295 194.162,-381.336 97.5,-367 96.0389,-366.783 94.5568,-366.561 93.0612,-366.335"/>
<polygon fill="midnightblue" stroke="midnightblue" points="93.4888,-362.859 83.0725,-364.796 92.4231,-369.778 93.4888,-362.859"/>
</g>
<!-- Node12&#45;&gt;Node3 -->
<g id="edge13" class="edge"><title>Node12&#45;&gt;Node3</title>
<path fill="none" stroke="midnightblue" d="M372.92,-403.474C282.006,-387.943 111.5,-351.486 111.5,-296.5 111.5,-296.5 111.5,-296.5 111.5,-177 111.5,-102.43 211.383,-78.3781 279.217,-70.642"/>
<polygon fill="midnightblue" stroke="midnightblue" points="279.813,-74.0988 289.393,-69.5749 279.082,-67.137 279.813,-74.0988"/>
</g>
<!-- Node12&#45;&gt;Node6 -->
<g id="edge48" class="edge"><title>Node12&#45;&gt;Node6</title>
<path fill="none" stroke="midnightblue" d="M484.143,-412.184C625.535,-411.16 987.5,-398.571 987.5,-296.5 987.5,-296.5 987.5,-296.5 987.5,-233 987.5,-202.902 991.29,-187.66 968.5,-168 926.666,-131.912 761.976,-124.668 683.938,-123.283"/>
<polygon fill="midnightblue" stroke="midnightblue" points="683.576,-119.777 673.524,-123.124 683.469,-126.776 683.576,-119.777"/>
</g>
<!-- Node13 -->
<g id="node13" class="node"><title>Node13</title>
<g id="a_node13"><a xlink:href="../../d6/da2/GPUCommonMath_8h.html" target="_top" xlink:title="GPUCommonMath.h">
<polygon fill="none" stroke="black" points="236.5,-168.5 236.5,-187.5 344.5,-187.5 344.5,-168.5 236.5,-168.5"/>
<text text-anchor="middle" x="290.5" y="-175.5" font-family="Helvetica,sans-Serif" font-size="10.00">GPUCommonMath.h</text>
</a>
</g>
</g>
<!-- Node12&#45;&gt;Node13 -->
<g id="edge14" class="edge"><title>Node12&#45;&gt;Node13</title>
<path fill="none" stroke="midnightblue" d="M372.814,-404.64C319.096,-394.181 241.003,-369.304 206.5,-311 180.831,-267.623 236.504,-217.779 269.087,-193.631"/>
<polygon fill="midnightblue" stroke="midnightblue" points="271.501,-196.207 277.579,-187.529 267.416,-190.523 271.501,-196.207"/>
</g>
<!-- Node16 -->
<g id="node16" class="node"><title>Node16</title>
<g id="a_node16"><a xlink:href="../../d8/dfd/GPUTPCGMMergedTrack_8h.html" target="_top" xlink:title="GPUTPCGMMergedTrack.h">
<polygon fill="none" stroke="black" points="798.5,-286 798.5,-305 938.5,-305 938.5,-286 798.5,-286"/>
<text text-anchor="middle" x="868.5" y="-293" font-family="Helvetica,sans-Serif" font-size="10.00">GPUTPCGMMergedTrack.h</text>
</a>
</g>
</g>
<!-- Node12&#45;&gt;Node16 -->
<g id="edge18" class="edge"><title>Node12&#45;&gt;Node16</title>
<path fill="none" stroke="midnightblue" d="M484.154,-408.744C570.175,-403.076 730.994,-389.774 783.5,-367 811.958,-354.656 838.397,-329.754 854.002,-313.099"/>
<polygon fill="midnightblue" stroke="midnightblue" points="856.997,-315.007 861.128,-305.251 851.814,-310.302 856.997,-315.007"/>
</g>
<!-- Node17 -->
<g id="node17" class="node"><title>Node17</title>
<g id="a_node17"><a xlink:href="../../d8/d33/GPUTPCGMTrackParam_8h.html" target="_top" xlink:title="GPUTPCGMTrackParam.h">
<polygon fill="none" stroke="black" points="704.5,-224.5 704.5,-243.5 840.5,-243.5 840.5,-224.5 704.5,-224.5"/>
<text text-anchor="middle" x="772.5" y="-231.5" font-family="Helvetica,sans-Serif" font-size="10.00">GPUTPCGMTrackParam.h</text>
</a>
</g>
</g>
<!-- Node12&#45;&gt;Node17 -->
<g id="edge29" class="edge"><title>Node12&#45;&gt;Node17</title>
<path fill="none" stroke="midnightblue" d="M484.208,-409.373C554.785,-403.069 675.835,-381.869 747.5,-311 762.827,-295.843 768.758,-271.134 771.053,-254.024"/>
<polygon fill="midnightblue" stroke="midnightblue" points="774.584,-253.91 772.132,-243.603 767.621,-253.189 774.584,-253.91"/>
</g>
<!-- Node22 -->
<g id="node22" class="node"><title>Node22</title>
<g id="a_node22"><a xlink:href="../../d0/dd8/GPUTPCGMPropagator_8h.html" target="_top" xlink:title="GPUTPCGMPropagator.h">
<polygon fill="none" stroke="black" points="317.5,-347.5 317.5,-366.5 447.5,-366.5 447.5,-347.5 317.5,-347.5"/>
<text text-anchor="middle" x="382.5" y="-354.5" font-family="Helvetica,sans-Serif" font-size="10.00">GPUTPCGMPropagator.h</text>
</a>
</g>
</g>
<!-- Node12&#45;&gt;Node22 -->
<g id="edge31" class="edge"><title>Node12&#45;&gt;Node22</title>
<path fill="none" stroke="midnightblue" d="M420.904,-403.083C414.273,-395.298 404.479,-383.801 396.442,-374.367"/>
<polygon fill="midnightblue" stroke="midnightblue" points="399.104,-372.094 389.955,-366.751 393.775,-376.633 399.104,-372.094"/>
</g>
<!-- Node26 -->
<g id="node26" class="node"><title>Node26</title>
<g id="a_node26"><a xlink:href="../../df/d13/GPUParam_8h.html" target="_top" xlink:title="GPUParam.h">
<polygon fill="none" stroke="black" points="431,-286 431,-305 506,-305 506,-286 431,-286"/>
<text text-anchor="middle" x="468.5" y="-293" font-family="Helvetica,sans-Serif" font-size="10.00">GPUParam.h</text>
</a>
</g>
</g>
<!-- Node12&#45;&gt;Node26 -->
<g id="edge39" class="edge"><title>Node12&#45;&gt;Node26</title>
<path fill="none" stroke="midnightblue" d="M435.401,-403.241C441.886,-394.548 451.343,-380.593 456.5,-367 462.894,-350.146 465.895,-329.733 467.295,-315.219"/>
<polygon fill="midnightblue" stroke="midnightblue" points="470.802,-315.271 468.109,-305.024 463.824,-314.714 470.802,-315.271"/>
</g>
<!-- Node13&#45;&gt;Node3 -->
<g id="edge15" class="edge"><title>Node13&#45;&gt;Node3</title>
<path fill="none" stroke="midnightblue" d="M297.821,-168.217C304.764,-159.506 315.064,-145.537 321.5,-132 328.599,-117.068 333.632,-98.9276 336.727,-85.6088"/>
<polygon fill="midnightblue" stroke="midnightblue" points="340.17,-86.2466 338.873,-75.7314 333.329,-84.7601 340.17,-86.2466"/>
</g>
<!-- Node14 -->
<g id="node14" class="node"><title>Node14</title>
<polygon fill="none" stroke="#bfbfbf" points="268.5,-112.5 268.5,-131.5 312.5,-131.5 312.5,-112.5 268.5,-112.5"/>
<text text-anchor="middle" x="290.5" y="-119.5" font-family="Helvetica,sans-Serif" font-size="10.00">cmath</text>
</g>
<!-- Node13&#45;&gt;Node14 -->
<g id="edge16" class="edge"><title>Node13&#45;&gt;Node14</title>
<path fill="none" stroke="midnightblue" d="M290.5,-168.083C290.5,-161.006 290.5,-150.861 290.5,-141.986"/>
<polygon fill="midnightblue" stroke="midnightblue" points="294,-141.751 290.5,-131.751 287,-141.751 294,-141.751"/>
</g>
<!-- Node15 -->
<g id="node15" class="node"><title>Node15</title>
<polygon fill="none" stroke="#bfbfbf" points="194.5,-112.5 194.5,-131.5 250.5,-131.5 250.5,-112.5 194.5,-112.5"/>
<text text-anchor="middle" x="222.5" y="-119.5" font-family="Helvetica,sans-Serif" font-size="10.00">algorithm</text>
</g>
<!-- Node13&#45;&gt;Node15 -->
<g id="edge17" class="edge"><title>Node13&#45;&gt;Node15</title>
<path fill="none" stroke="midnightblue" d="M279.575,-168.324C269.325,-160.185 253.779,-147.839 241.499,-138.087"/>
<polygon fill="midnightblue" stroke="midnightblue" points="243.632,-135.312 233.624,-131.834 239.279,-140.794 243.632,-135.312"/>
</g>
<!-- Node16&#45;&gt;Node17 -->
<g id="edge19" class="edge"><title>Node16&#45;&gt;Node17</title>
<path fill="none" stroke="midnightblue" d="M854.746,-285.975C839.134,-276.299 813.437,-260.372 794.917,-248.894"/>
<polygon fill="midnightblue" stroke="midnightblue" points="796.573,-245.802 786.229,-243.509 792.885,-251.752 796.573,-245.802"/>
</g>
<!-- Node19 -->
<g id="node19" class="node"><title>Node19</title>
<g id="a_node19"><a xlink:href="../../d3/dcc/GPUTPCGMMergedTrackHit_8h.html" target="_top" xlink:title="GPUTPCGMMergedTrackHit.h">
<polygon fill="none" stroke="black" points="703.5,-168.5 703.5,-187.5 855.5,-187.5 855.5,-168.5 703.5,-168.5"/>
<text text-anchor="middle" x="779.5" y="-175.5" font-family="Helvetica,sans-Serif" font-size="10.00">GPUTPCGMMergedTrackHit.h</text>
</a>
</g>
</g>
<!-- Node16&#45;&gt;Node19 -->
<g id="edge27" class="edge"><title>Node16&#45;&gt;Node19</title>
<path fill="none" stroke="midnightblue" d="M868.137,-285.838C867.141,-271.625 863.417,-243.033 849.5,-224 839.454,-210.26 823.829,-199.636 809.888,-192.17"/>
<polygon fill="midnightblue" stroke="midnightblue" points="811.102,-188.864 800.595,-187.506 807.962,-195.12 811.102,-188.864"/>
</g>
<!-- Node20 -->
<g id="node20" class="node"><title>Node20</title>
<g id="a_node20"><a xlink:href="../../d3/d1f/GPUdEdxInfo_8h.html" target="_top" xlink:title="GPUdEdxInfo.h">
<polygon fill="none" stroke="black" points="873.5,-168.5 873.5,-187.5 959.5,-187.5 959.5,-168.5 873.5,-168.5"/>
<text text-anchor="middle" x="916.5" y="-175.5" font-family="Helvetica,sans-Serif" font-size="10.00">GPUdEdxInfo.h</text>
</a>
</g>
</g>
<!-- Node16&#45;&gt;Node20 -->
<g id="edge28" class="edge"><title>Node16&#45;&gt;Node20</title>
<path fill="none" stroke="midnightblue" d="M872.108,-285.819C879.891,-267.09 898.403,-222.546 908.898,-197.292"/>
<polygon fill="midnightblue" stroke="midnightblue" points="912.245,-198.36 912.85,-187.782 905.781,-195.673 912.245,-198.36"/>
</g>
<!-- Node17&#45;&gt;Node13 -->
<g id="edge24" class="edge"><title>Node17&#45;&gt;Node13</title>
<path fill="none" stroke="midnightblue" d="M704.482,-225.029C701.447,-224.68 698.442,-224.335 695.5,-224 575.255,-210.293 434.865,-194.81 354.947,-186.046"/>
<polygon fill="midnightblue" stroke="midnightblue" points="354.878,-182.518 344.556,-184.907 354.115,-189.476 354.878,-182.518"/>
</g>
<!-- Node18 -->
<g id="node18" class="node"><title>Node18</title>
<g id="a_node18"><a xlink:href="../../da/dab/GPUTPCDef_8h.html" target="_top" xlink:title="GPUTPCDef.h">
<polygon fill="none" stroke="black" points="535,-168.5 535,-187.5 618,-187.5 618,-168.5 535,-168.5"/>
<text text-anchor="middle" x="576.5" y="-175.5" font-family="Helvetica,sans-Serif" font-size="10.00">GPUTPCDef.h</text>
</a>
</g>
</g>
<!-- Node17&#45;&gt;Node18 -->
<g id="edge20" class="edge"><title>Node17&#45;&gt;Node18</title>
<path fill="none" stroke="midnightblue" d="M741.443,-224.444C707.897,-215.201 654.303,-200.436 617.359,-190.257"/>
<polygon fill="midnightblue" stroke="midnightblue" points="617.982,-186.798 607.411,-187.516 616.123,-193.547 617.982,-186.798"/>
</g>
<!-- Node17&#45;&gt;Node19 -->
<g id="edge22" class="edge"><title>Node17&#45;&gt;Node19</title>
<path fill="none" stroke="midnightblue" d="M773.656,-224.083C774.584,-216.927 775.918,-206.635 777.077,-197.691"/>
<polygon fill="midnightblue" stroke="midnightblue" points="780.551,-198.118 778.366,-187.751 773.609,-197.218 780.551,-198.118"/>
</g>
<!-- Node17&#45;&gt;Node20 -->
<g id="edge25" class="edge"><title>Node17&#45;&gt;Node20</title>
<path fill="none" stroke="midnightblue" d="M795.317,-224.444C819.332,-215.438 857.329,-201.189 884.369,-191.049"/>
<polygon fill="midnightblue" stroke="midnightblue" points="885.655,-194.305 893.79,-187.516 883.197,-187.751 885.655,-194.305"/>
</g>
<!-- Node21 -->
<g id="node21" class="node"><title>Node21</title>
<polygon fill="none" stroke="#bfbfbf" points="636,-168.5 636,-187.5 685,-187.5 685,-168.5 636,-168.5"/>
<text text-anchor="middle" x="660.5" y="-175.5" font-family="Helvetica,sans-Serif" font-size="10.00">cstddef</text>
</g>
<!-- Node17&#45;&gt;Node21 -->
<g id="edge26" class="edge"><title>Node17&#45;&gt;Node21</title>
<path fill="none" stroke="midnightblue" d="M754.505,-224.324C736.462,-215.625 708.453,-202.12 687.697,-192.113"/>
<polygon fill="midnightblue" stroke="midnightblue" points="688.978,-188.845 678.45,-187.655 685.938,-195.15 688.978,-188.845"/>
</g>
<!-- Node18&#45;&gt;Node6 -->
<g id="edge21" class="edge"><title>Node18&#45;&gt;Node6</title>
<path fill="none" stroke="midnightblue" d="M587.104,-168.324C596.956,-160.263 611.851,-148.077 623.715,-138.369"/>
<polygon fill="midnightblue" stroke="midnightblue" points="626.18,-140.875 631.703,-131.834 621.747,-135.457 626.18,-140.875"/>
</g>
<!-- Node19&#45;&gt;Node3 -->
<g id="edge23" class="edge"><title>Node19&#45;&gt;Node3</title>
<path fill="none" stroke="midnightblue" d="M745.563,-168.473C696.079,-156.041 601.222,-132.219 520.5,-112 474.088,-100.375 420.937,-87.0904 384.492,-77.9861"/>
<polygon fill="midnightblue" stroke="midnightblue" points="385.225,-74.5617 374.675,-75.5339 383.528,-81.3531 385.225,-74.5617"/>
</g>
<!-- Node22&#45;&gt;Node3 -->
<g id="edge32" class="edge"><title>Node22&#45;&gt;Node3</title>
<path fill="none" stroke="midnightblue" d="M319.037,-347.435C274.895,-340.11 221.398,-328.033 206.5,-311 147.949,-244.058 132.095,-183.115 185.5,-112 197.085,-96.5738 241.05,-84.7235 279.211,-77.0652"/>
<polygon fill="midnightblue" stroke="midnightblue" points="280.124,-80.4533 289.275,-75.113 278.791,-73.5814 280.124,-80.4533"/>
</g>
<!-- Node22&#45;&gt;Node13 -->
<g id="edge38" class="edge"><title>Node22&#45;&gt;Node13</title>
<path fill="none" stroke="midnightblue" d="M383.595,-347.017C384.966,-331.668 385.548,-300.105 370.5,-280 348.104,-250.077 315.448,-274.954 294.5,-244 285.4,-230.553 285.251,-211.738 286.874,-197.809"/>
<polygon fill="midnightblue" stroke="midnightblue" points="290.34,-198.301 288.419,-187.882 283.423,-197.225 290.34,-198.301"/>
</g>
<!-- Node23 -->
<g id="node23" class="node"><title>Node23</title>
<g id="a_node23"><a xlink:href="../../d0/d79/GPUTPCGMOfflineStatisticalErrors_8h.html" target="_top" xlink:title="GPUTPCGMOfflineStatistical\lErrors.h">
<polygon fill="none" stroke="black" points="215.5,-280.5 215.5,-310.5 361.5,-310.5 361.5,-280.5 215.5,-280.5"/>
<text text-anchor="start" x="223.5" y="-298.5" font-family="Helvetica,sans-Serif" font-size="10.00">GPUTPCGMOfflineStatistical</text>
<text text-anchor="middle" x="288.5" y="-287.5" font-family="Helvetica,sans-Serif" font-size="10.00">Errors.h</text>
</a>
</g>
</g>
<!-- Node22&#45;&gt;Node23 -->
<g id="edge33" class="edge"><title>Node22&#45;&gt;Node23</title>
<path fill="none" stroke="midnightblue" d="M369.032,-347.475C356.063,-339.266 335.987,-326.558 319.124,-315.885"/>
<polygon fill="midnightblue" stroke="midnightblue" points="320.975,-312.914 310.654,-310.523 317.232,-318.829 320.975,-312.914"/>
</g>
<!-- Node24 -->
<g id="node24" class="node"><title>Node24</title>
<g id="a_node24"><a xlink:href="../../d6/d37/GPUTPCGMPhysicalTrackModel_8h.html" target="_top" xlink:title="GPUTPCGMPhysicalTrackModel.h">
<polygon fill="none" stroke="black" points="568,-286 568,-305 739,-305 739,-286 568,-286"/>
<text text-anchor="middle" x="653.5" y="-293" font-family="Helvetica,sans-Serif" font-size="10.00">GPUTPCGMPhysicalTrackModel.h</text>
</a>
</g>
</g>
<!-- Node22&#45;&gt;Node24 -->
<g id="edge34" class="edge"><title>Node22&#45;&gt;Node24</title>
<path fill="none" stroke="midnightblue" d="M421.328,-347.475C469.625,-336.871 552.113,-318.76 604.654,-307.224"/>
<polygon fill="midnightblue" stroke="midnightblue" points="605.728,-310.572 614.744,-305.009 604.226,-303.735 605.728,-310.572"/>
</g>
<!-- Node25 -->
<g id="node25" class="node"><title>Node25</title>
<g id="a_node25"><a xlink:href="../../d9/d9c/GPUTPCGMPolynomialField_8h.html" target="_top" xlink:title="GPUTPCGMPolynomialField.h">
<polygon fill="none" stroke="black" points="534.5,-224.5 534.5,-243.5 686.5,-243.5 686.5,-224.5 534.5,-224.5"/>
<text text-anchor="middle" x="610.5" y="-231.5" font-family="Helvetica,sans-Serif" font-size="10.00">GPUTPCGMPolynomialField.h</text>
</a>
</g>
</g>
<!-- Node22&#45;&gt;Node25 -->
<g id="edge36" class="edge"><title>Node22&#45;&gt;Node25</title>
<path fill="none" stroke="midnightblue" d="M418.044,-347.433C445.422,-340.008 483.675,-327.803 514.5,-311 530.873,-302.074 569.897,-269.684 592.832,-250.186"/>
<polygon fill="midnightblue" stroke="midnightblue" points="595.151,-252.808 600.482,-243.653 590.605,-247.485 595.151,-252.808"/>
</g>
<!-- Node24&#45;&gt;Node17 -->
<g id="edge35" class="edge"><title>Node24&#45;&gt;Node17</title>
<path fill="none" stroke="midnightblue" d="M670.55,-285.975C690.344,-276.078 723.217,-259.642 746.27,-248.115"/>
<polygon fill="midnightblue" stroke="midnightblue" points="748.103,-251.112 755.482,-243.509 744.972,-244.851 748.103,-251.112"/>
</g>
<!-- Node25&#45;&gt;Node18 -->
<g id="edge37" class="edge"><title>Node25&#45;&gt;Node18</title>
<path fill="none" stroke="midnightblue" d="M604.886,-224.083C600.133,-216.534 593.182,-205.495 587.348,-196.23"/>
<polygon fill="midnightblue" stroke="midnightblue" points="590.3,-194.349 582.01,-187.751 584.376,-198.078 590.3,-194.349"/>
</g>
<!-- Node26&#45;&gt;Node3 -->
<g id="edge40" class="edge"><title>Node26&#45;&gt;Node3</title>
<path fill="none" stroke="midnightblue" d="M470.055,-285.992C476.202,-251.878 497.966,-126.15 487.5,-112 476.655,-97.3388 435.502,-85.5075 399.488,-77.6625"/>
<polygon fill="midnightblue" stroke="midnightblue" points="400.002,-74.1942 389.496,-75.5565 398.559,-81.0437 400.002,-74.1942"/>
</g>
<!-- Node26&#45;&gt;Node6 -->
<g id="edge42" class="edge"><title>Node26&#45;&gt;Node6</title>
<path fill="none" stroke="midnightblue" d="M471.453,-285.766C480.285,-260.074 507.033,-185.458 525.5,-168 546.419,-148.224 576.957,-136.87 601.589,-130.515"/>
<polygon fill="midnightblue" stroke="midnightblue" points="602.485,-133.9 611.393,-128.164 600.852,-127.093 602.485,-133.9"/>
</g>
<!-- Node26&#45;&gt;Node13 -->
<g id="edge41" class="edge"><title>Node26&#45;&gt;Node13</title>
<path fill="none" stroke="midnightblue" d="M436.09,-285.959C392.272,-274.149 318.533,-253.244 309.5,-244 297.57,-231.791 293.061,-212.523 291.392,-198.131"/>
<polygon fill="midnightblue" stroke="midnightblue" points="294.858,-197.552 290.576,-187.861 287.88,-198.107 294.858,-197.552"/>
</g>
<!-- Node26&#45;&gt;Node25 -->
<g id="edge47" class="edge"><title>Node26&#45;&gt;Node25</title>
<path fill="none" stroke="midnightblue" d="M488.845,-285.975C512.887,-275.901 553.097,-259.053 580.663,-247.502"/>
<polygon fill="midnightblue" stroke="midnightblue" points="582.322,-250.602 590.193,-243.509 579.617,-244.146 582.322,-250.602"/>
</g>
<!-- Node27 -->
<g id="node27" class="node"><title>Node27</title>
<g id="a_node27"><a xlink:href="../../dd/dc6/GPUSettings_8h.html" target="_top" xlink:title="GPUSettings.h">
<polygon fill="none" stroke="black" points="319,-224.5 319,-243.5 402,-243.5 402,-224.5 319,-224.5"/>
<text text-anchor="middle" x="360.5" y="-231.5" font-family="Helvetica,sans-Serif" font-size="10.00">GPUSettings.h</text>
</a>
</g>
</g>
<!-- Node26&#45;&gt;Node27 -->
<g id="edge43" class="edge"><title>Node26&#45;&gt;Node27</title>
<path fill="none" stroke="midnightblue" d="M453.026,-285.975C435.222,-276.166 405.759,-259.935 384.868,-248.425"/>
<polygon fill="midnightblue" stroke="midnightblue" points="386.393,-245.269 375.945,-243.509 383.015,-251.4 386.393,-245.269"/>
</g>
<!-- Node28 -->
<g id="node28" class="node"><title>Node28</title>
<g id="a_node28"><a xlink:href="../../d6/d1b/GPUTPCGeometry_8h.html" target="_top" xlink:title="GPUTPCGeometry.h">
<polygon fill="none" stroke="black" points="368.5,-112.5 368.5,-131.5 478.5,-131.5 478.5,-112.5 368.5,-112.5"/>
<text text-anchor="middle" x="423.5" y="-119.5" font-family="Helvetica,sans-Serif" font-size="10.00">GPUTPCGeometry.h</text>
</a>
</g>
</g>
<!-- Node26&#45;&gt;Node28 -->
<g id="edge45" class="edge"><title>Node26&#45;&gt;Node28</title>
<path fill="none" stroke="midnightblue" d="M466.071,-285.936C463.237,-275.902 458.439,-258.769 454.5,-244 444.804,-207.642 434.01,-164.981 428.061,-141.265"/>
<polygon fill="midnightblue" stroke="midnightblue" points="431.446,-140.374 425.623,-131.524 424.655,-142.074 431.446,-140.374"/>
</g>
<!-- Node27&#45;&gt;Node13 -->
<g id="edge44" class="edge"><title>Node27&#45;&gt;Node13</title>
<path fill="none" stroke="midnightblue" d="M349.253,-224.324C338.703,-216.185 322.699,-203.839 310.058,-194.087"/>
<polygon fill="midnightblue" stroke="midnightblue" points="312.007,-191.171 301.951,-187.834 307.731,-196.713 312.007,-191.171"/>
</g>
<!-- Node28&#45;&gt;Node3 -->
<g id="edge46" class="edge"><title>Node28&#45;&gt;Node3</title>
<path fill="none" stroke="midnightblue" d="M410.165,-112.324C397.338,-103.979 377.715,-91.2122 362.56,-81.3524"/>
<polygon fill="midnightblue" stroke="midnightblue" points="364.093,-78.1742 353.802,-75.6545 360.276,-84.0417 364.093,-78.1742"/>
</g>
</g>
</svg>
