<?xml version="1.0" encoding="UTF-8" standalone="no"?>
<!DOCTYPE svg PUBLIC "-//W3C//DTD SVG 1.1//EN"
 "http://www.w3.org/Graphics/SVG/1.1/DTD/svg11.dtd">
<!-- Generated by graphviz version 2.38.0 (20140413.2041)
 -->
<!-- Title: /home/travis/build/AliceO2Group/AliceO2/GPU/GPUTracking/DataCompression/GPUTPCCompressionTrackModel.cxx Pages: 1 -->
<!--zoomable 576 -->
<svg id="main" version="1.1" xmlns="http://www.w3.org/2000/svg" xmlns:xlink="http://www.w3.org/1999/xlink" xml:space="preserve" onload="init(evt)">
<style type="text/css"><![CDATA[
.edge:hover path { stroke: red; }
.edge:hover polygon { stroke: red; fill: red; }
]]></style>
<script type="text/javascript"><![CDATA[
var edges = document.getElementsByTagName('g');
if (edges && edges.length) {
  for (var i=0;i<edges.length;i++) {
    if (edges[i].id.substr(0,4)=='edge') {
      edges[i].setAttribute('class','edge');
    }
  }
}
]]></script>
        <defs>
                <circle id="rim" cx="0" cy="0" r="7"/>
                <circle id="rim2" cx="0" cy="0" r="3.5"/>
                <g id="zoomPlus">
                        <use xlink:href="#rim" fill="#404040">
                                <set attributeName="fill" to="#808080" begin="zoomplus.mouseover" end="zoomplus.mouseout"/>
                        </use>
                        <path d="M-4,0h8M0,-4v8" fill="none" stroke="white" stroke-width="1.5" pointer-events="none"/>
                </g>
                <g id="zoomMin">
                        <use xlink:href="#rim" fill="#404040">
                                <set attributeName="fill" to="#808080" begin="zoomminus.mouseover" end="zoomminus.mouseout"/>
                        </use>
                        <path d="M-4,0h8" fill="none" stroke="white" stroke-width="1.5" pointer-events="none"/>
                </g>
                <g id="dirArrow">
                        <path fill="none" stroke="white" stroke-width="1.5" d="M0,-3.0v7 M-2.5,-0.5L0,-3.0L2.5,-0.5"/>
                </g>
               <g id="resetDef">
                       <use xlink:href="#rim2" fill="#404040">
                               <set attributeName="fill" to="#808080" begin="reset.mouseover" end="reset.mouseout"/>
                       </use>
               </g>
        </defs>

<script type="text/javascript">
var viewWidth = 1796;
var viewHeight = 576;
var sectionId = 'dynsection-0';
</script>
<script xlink:href="../../svgpan.js"/>
<svg id="graph" class="graph">
<g id="viewport">
<title>/home/travis/build/AliceO2Group/AliceO2/GPU/GPUTracking/DataCompression/GPUTPCCompressionTrackModel.cxx</title>
<!-- Node1 -->
<g id="node1" class="node"><title>Node1</title>
<polygon fill="#bfbfbf" stroke="black" points="1132.5,-515.5 1132.5,-567.5 1321.5,-567.5 1321.5,-515.5 1132.5,-515.5"/>
<text text-anchor="start" x="1140.5" y="-555.5" font-family="Helvetica,sans-Serif" font-size="10.00">/home/travis/build</text>
<text text-anchor="start" x="1140.5" y="-544.5" font-family="Helvetica,sans-Serif" font-size="10.00">/AliceO2Group/AliceO2</text>
<text text-anchor="start" x="1140.5" y="-533.5" font-family="Helvetica,sans-Serif" font-size="10.00">/GPU/GPUTracking/DataCompression</text>
<text text-anchor="middle" x="1227" y="-522.5" font-family="Helvetica,sans-Serif" font-size="10.00">/GPUTPCCompressionTrackModel.cxx</text>
</g>
<!-- Node2 -->
<g id="node2" class="node"><title>Node2</title>
<g id="a_node2"><a xlink:href="../../da/d21/GPUTPCCompressionTrackModel_8h.html" target="_top" xlink:title="GPUTPCCompressionTrackModel.h">
<polygon fill="none" stroke="black" points="89,-403.5 89,-422.5 265,-422.5 265,-403.5 89,-403.5"/>
<text text-anchor="middle" x="177" y="-410.5" font-family="Helvetica,sans-Serif" font-size="10.00">GPUTPCCompressionTrackModel.h</text>
</a>
</g>
</g>
<!-- Node1&#45;&gt;Node2 -->
<g id="edge1" class="edge"><title>Node1&#45;&gt;Node2</title>
<path fill="none" stroke="midnightblue" d="M1132.43,-529.107C928.148,-504.496 448.692,-446.732 257.641,-423.715"/>
<polygon fill="midnightblue" stroke="midnightblue" points="258.013,-420.235 247.666,-422.514 257.176,-427.185 258.013,-420.235"/>
</g>
<!-- Node24 -->
<g id="node24" class="node"><title>Node24</title>
<g id="a_node24"><a xlink:href="../../db/df8/GPUConstantMem_8h.html" target="_top" xlink:title="GPUConstantMem.h">
<polygon fill="none" stroke="black" points="1550,-459.5 1550,-478.5 1658,-478.5 1658,-459.5 1550,-459.5"/>
<text text-anchor="middle" x="1604" y="-466.5" font-family="Helvetica,sans-Serif" font-size="10.00">GPUConstantMem.h</text>
</a>
</g>
</g>
<!-- Node1&#45;&gt;Node24 -->
<g id="edge30" class="edge"><title>Node1&#45;&gt;Node24</title>
<path fill="none" stroke="midnightblue" d="M1321.65,-522.801C1393.19,-509.421 1488.96,-491.513 1548.54,-480.371"/>
<polygon fill="midnightblue" stroke="midnightblue" points="1549.32,-483.785 1558.51,-478.507 1548.04,-476.905 1549.32,-483.785"/>
</g>
<!-- Node3 -->
<g id="node3" class="node"><title>Node3</title>
<g id="a_node3"><a xlink:href="../../d2/d6d/GPUDef_8h.html" target="_top" xlink:title="GPUDef.h">
<polygon fill="none" stroke="black" points="501,-112.5 501,-131.5 563,-131.5 563,-112.5 501,-112.5"/>
<text text-anchor="middle" x="532" y="-119.5" font-family="Helvetica,sans-Serif" font-size="10.00">GPUDef.h</text>
</a>
</g>
</g>
<!-- Node2&#45;&gt;Node3 -->
<g id="edge2" class="edge"><title>Node2&#45;&gt;Node3</title>
<path fill="none" stroke="midnightblue" d="M133.247,-403.468C80.8324,-390.409 0,-359.979 0,-296.5 0,-296.5 0,-296.5 0,-233 0,-132.994 365.079,-123.191 490.377,-122.771"/>
<polygon fill="midnightblue" stroke="midnightblue" points="490.712,-126.271 500.707,-122.756 490.702,-119.271 490.712,-126.271"/>
</g>
<!-- Node12 -->
<g id="node12" class="node"><title>Node12</title>
<g id="a_node12"><a xlink:href="../../d0/dd8/GPUTPCGMPropagator_8h.html" target="_top" xlink:title="GPUTPCGMPropagator.h">
<polygon fill="none" stroke="black" points="308,-347.5 308,-366.5 438,-366.5 438,-347.5 308,-347.5"/>
<text text-anchor="middle" x="373" y="-354.5" font-family="Helvetica,sans-Serif" font-size="10.00">GPUTPCGMPropagator.h</text>
</a>
</g>
</g>
<!-- Node2&#45;&gt;Node12 -->
<g id="edge11" class="edge"><title>Node2&#45;&gt;Node12</title>
<path fill="none" stroke="midnightblue" d="M208.057,-403.444C241.603,-394.201 295.197,-379.436 332.141,-369.257"/>
<polygon fill="midnightblue" stroke="midnightblue" points="333.377,-372.547 342.089,-366.516 331.518,-365.798 333.377,-372.547"/>
</g>
<!-- Node15 -->
<g id="node15" class="node"><title>Node15</title>
<g id="a_node15"><a xlink:href="../../d8/d33/GPUTPCGMTrackParam_8h.html" target="_top" xlink:title="GPUTPCGMTrackParam.h">
<polygon fill="none" stroke="black" points="266,-224.5 266,-243.5 402,-243.5 402,-224.5 266,-224.5"/>
<text text-anchor="middle" x="334" y="-231.5" font-family="Helvetica,sans-Serif" font-size="10.00">GPUTPCGMTrackParam.h</text>
</a>
</g>
</g>
<!-- Node2&#45;&gt;Node15 -->
<g id="edge29" class="edge"><title>Node2&#45;&gt;Node15</title>
<path fill="none" stroke="midnightblue" d="M158.143,-403.374C115.1,-382.56 16.3638,-327.771 57,-280 82.0998,-250.494 182.899,-240.281 255.668,-236.778"/>
<polygon fill="midnightblue" stroke="midnightblue" points="255.906,-240.27 265.739,-236.326 255.593,-233.278 255.906,-240.27"/>
</g>
<!-- Node4 -->
<g id="node4" class="node"><title>Node4</title>
<g id="a_node4"><a xlink:href="../../df/d21/GPUCommonDef_8h.html" target="_top" xlink:title="GPUCommonDef.h">
<polygon fill="none" stroke="black" points="1360,-56.5 1360,-75.5 1462,-75.5 1462,-56.5 1360,-56.5"/>
<text text-anchor="middle" x="1411" y="-63.5" font-family="Helvetica,sans-Serif" font-size="10.00">GPUCommonDef.h</text>
</a>
</g>
</g>
<!-- Node3&#45;&gt;Node4 -->
<g id="edge3" class="edge"><title>Node3&#45;&gt;Node4</title>
<path fill="none" stroke="midnightblue" d="M563.352,-113.424C566.264,-112.878 569.18,-112.39 572,-112 860.98,-72.0279 1210.5,-67.0462 1349.6,-66.7796"/>
<polygon fill="midnightblue" stroke="midnightblue" points="1349.64,-70.2796 1359.64,-66.768 1349.64,-63.2796 1349.64,-70.2796"/>
</g>
<!-- Node7 -->
<g id="node7" class="node"><title>Node7</title>
<g id="a_node7"><a xlink:href="../../d2/d37/GPUDefConstantsAndSettings_8h.html" target="_top" xlink:title="GPUDefConstantsAndSettings.h">
<polygon fill="none" stroke="black" points="687.5,-56.5 687.5,-75.5 848.5,-75.5 848.5,-56.5 687.5,-56.5"/>
<text text-anchor="middle" x="768" y="-63.5" font-family="Helvetica,sans-Serif" font-size="10.00">GPUDefConstantsAndSettings.h</text>
</a>
</g>
</g>
<!-- Node3&#45;&gt;Node7 -->
<g id="edge6" class="edge"><title>Node3&#45;&gt;Node7</title>
<path fill="none" stroke="midnightblue" d="M563.339,-113.829C603.639,-104.608 673.996,-88.5093 720.791,-77.8021"/>
<polygon fill="midnightblue" stroke="midnightblue" points="721.722,-81.1795 730.69,-75.5371 720.161,-74.3559 721.722,-81.1795"/>
</g>
<!-- Node8 -->
<g id="node8" class="node"><title>Node8</title>
<g id="a_node8"><a xlink:href="../../dc/de9/GPUDefGPUParameters_8h.html" target="_top" xlink:title="GPUDefGPUParameters.h">
<polygon fill="none" stroke="black" points="225,-56.5 225,-75.5 359,-75.5 359,-56.5 225,-56.5"/>
<text text-anchor="middle" x="292" y="-63.5" font-family="Helvetica,sans-Serif" font-size="10.00">GPUDefGPUParameters.h</text>
</a>
</g>
</g>
<!-- Node3&#45;&gt;Node8 -->
<g id="edge7" class="edge"><title>Node3&#45;&gt;Node8</title>
<path fill="none" stroke="midnightblue" d="M500.624,-113.94C459.699,-104.732 387.703,-88.5332 339.924,-77.7829"/>
<polygon fill="midnightblue" stroke="midnightblue" points="340.64,-74.3566 330.116,-75.576 339.103,-81.1859 340.64,-74.3566"/>
</g>
<!-- Node9 -->
<g id="node9" class="node"><title>Node9</title>
<g id="a_node9"><a xlink:href="../../d3/d4c/GPUDefOpenCL12Templates_8h.html" target="_top" xlink:title="GPUDefOpenCL12Templates.h">
<polygon fill="none" stroke="black" points="377.5,-56.5 377.5,-75.5 532.5,-75.5 532.5,-56.5 377.5,-56.5"/>
<text text-anchor="middle" x="455" y="-63.5" font-family="Helvetica,sans-Serif" font-size="10.00">GPUDefOpenCL12Templates.h</text>
</a>
</g>
</g>
<!-- Node3&#45;&gt;Node9 -->
<g id="edge8" class="edge"><title>Node3&#45;&gt;Node9</title>
<path fill="none" stroke="midnightblue" d="M519.629,-112.324C507.842,-104.058 489.868,-91.4527 475.864,-81.6322"/>
<polygon fill="midnightblue" stroke="midnightblue" points="477.538,-78.5307 467.341,-75.6545 473.518,-84.2619 477.538,-78.5307"/>
</g>
<!-- Node10 -->
<g id="node10" class="node"><title>Node10</title>
<g id="a_node10"><a xlink:href="../../d2/d45/GPUCommonRtypes_8h.html" target="_top" xlink:title="GPUCommonRtypes.h">
<polygon fill="none" stroke="black" points="551,-56.5 551,-75.5 669,-75.5 669,-56.5 551,-56.5"/>
<text text-anchor="middle" x="610" y="-63.5" font-family="Helvetica,sans-Serif" font-size="10.00">GPUCommonRtypes.h</text>
</a>
</g>
</g>
<!-- Node3&#45;&gt;Node10 -->
<g id="edge9" class="edge"><title>Node3&#45;&gt;Node10</title>
<path fill="none" stroke="midnightblue" d="M544.532,-112.324C556.586,-103.979 575.027,-91.2122 589.269,-81.3524"/>
<polygon fill="midnightblue" stroke="midnightblue" points="591.269,-84.2243 597.499,-75.6545 587.285,-78.469 591.269,-84.2243"/>
</g>
<!-- Node5 -->
<g id="node5" class="node"><title>Node5</title>
<g id="a_node5"><a xlink:href="../../d5/d93/GPUCommonDefSettings_8h.html" target="_top" xlink:title="GPUCommonDefSettings.h">
<polygon fill="none" stroke="black" points="1415,-0.5 1415,-19.5 1553,-19.5 1553,-0.5 1415,-0.5"/>
<text text-anchor="middle" x="1484" y="-7.5" font-family="Helvetica,sans-Serif" font-size="10.00">GPUCommonDefSettings.h</text>
</a>
</g>
</g>
<!-- Node4&#45;&gt;Node5 -->
<g id="edge4" class="edge"><title>Node4&#45;&gt;Node5</title>
<path fill="none" stroke="midnightblue" d="M1422.73,-56.324C1433.84,-48.1066 1450.74,-35.6017 1463.98,-25.8069"/>
<polygon fill="midnightblue" stroke="midnightblue" points="1466.1,-28.5948 1472.06,-19.8339 1461.94,-22.9671 1466.1,-28.5948"/>
</g>
<!-- Node6 -->
<g id="node6" class="node"><title>Node6</title>
<g id="a_node6"><a xlink:href="../../da/d5a/GPUCommonDefAPI_8h.html" target="_top" xlink:title="GPUCommonDefAPI.h">
<polygon fill="none" stroke="black" points="1277.5,-0.5 1277.5,-19.5 1396.5,-19.5 1396.5,-0.5 1277.5,-0.5"/>
<text text-anchor="middle" x="1337" y="-7.5" font-family="Helvetica,sans-Serif" font-size="10.00">GPUCommonDefAPI.h</text>
</a>
</g>
</g>
<!-- Node4&#45;&gt;Node6 -->
<g id="edge5" class="edge"><title>Node4&#45;&gt;Node6</title>
<path fill="none" stroke="midnightblue" d="M1399.11,-56.324C1387.85,-48.1066 1370.71,-35.6017 1357.29,-25.8069"/>
<polygon fill="midnightblue" stroke="midnightblue" points="1359.25,-22.9014 1349.11,-19.8339 1355.12,-28.5559 1359.25,-22.9014"/>
</g>
<!-- Node11 -->
<g id="node11" class="node"><title>Node11</title>
<polygon fill="none" stroke="#bfbfbf" points="582,-0.5 582,-19.5 638,-19.5 638,-0.5 582,-0.5"/>
<text text-anchor="middle" x="610" y="-7.5" font-family="Helvetica,sans-Serif" font-size="10.00">Rtypes.h</text>
</g>
<!-- Node10&#45;&gt;Node11 -->
<g id="edge10" class="edge"><title>Node10&#45;&gt;Node11</title>
<path fill="none" stroke="midnightblue" d="M610,-56.083C610,-49.0059 610,-38.8611 610,-29.9865"/>
<polygon fill="midnightblue" stroke="midnightblue" points="613.5,-29.751 610,-19.7511 606.5,-29.7511 613.5,-29.751"/>
</g>
<!-- Node12&#45;&gt;Node4 -->
<g id="edge12" class="edge"><title>Node12&#45;&gt;Node4</title>
<path fill="none" stroke="midnightblue" d="M380.568,-347.226C404.838,-319.164 479.955,-232.908 494,-224 638.001,-132.665 1168.3,-85.1894 1349.69,-71.3578"/>
<polygon fill="midnightblue" stroke="midnightblue" points="1350.14,-74.8335 1359.85,-70.5903 1349.62,-67.8534 1350.14,-74.8335"/>
</g>
<!-- Node13 -->
<g id="node13" class="node"><title>Node13</title>
<g id="a_node13"><a xlink:href="../../d0/d79/GPUTPCGMOfflineStatisticalErrors_8h.html" target="_top" xlink:title="GPUTPCGMOfflineStatistical\lErrors.h">
<polygon fill="none" stroke="black" points="66,-280.5 66,-310.5 212,-310.5 212,-280.5 66,-280.5"/>
<text text-anchor="start" x="74" y="-298.5" font-family="Helvetica,sans-Serif" font-size="10.00">GPUTPCGMOfflineStatistical</text>
<text text-anchor="middle" x="139" y="-287.5" font-family="Helvetica,sans-Serif" font-size="10.00">Errors.h</text>
</a>
</g>
</g>
<!-- Node12&#45;&gt;Node13 -->
<g id="edge13" class="edge"><title>Node12&#45;&gt;Node13</title>
<path fill="none" stroke="midnightblue" d="M339.474,-347.475C304.227,-338.513 247.892,-324.188 203.904,-313.003"/>
<polygon fill="midnightblue" stroke="midnightblue" points="204.703,-309.595 194.149,-310.523 202.978,-316.379 204.703,-309.595"/>
</g>
<!-- Node14 -->
<g id="node14" class="node"><title>Node14</title>
<g id="a_node14"><a xlink:href="../../d6/d37/GPUTPCGMPhysicalTrackModel_8h.html" target="_top" xlink:title="GPUTPCGMPhysicalTrackModel.h">
<polygon fill="none" stroke="black" points="230.5,-286 230.5,-305 401.5,-305 401.5,-286 230.5,-286"/>
<text text-anchor="middle" x="316" y="-293" font-family="Helvetica,sans-Serif" font-size="10.00">GPUTPCGMPhysicalTrackModel.h</text>
</a>
</g>
</g>
<!-- Node12&#45;&gt;Node14 -->
<g id="edge14" class="edge"><title>Node12&#45;&gt;Node14</title>
<path fill="none" stroke="midnightblue" d="M364.833,-347.475C356.114,-338.373 342.096,-323.741 331.311,-312.483"/>
<polygon fill="midnightblue" stroke="midnightblue" points="333.597,-309.809 324.152,-305.009 328.542,-314.651 333.597,-309.809"/>
</g>
<!-- Node18 -->
<g id="node18" class="node"><title>Node18</title>
<g id="a_node18"><a xlink:href="../../d6/da2/GPUCommonMath_8h.html" target="_top" xlink:title="GPUCommonMath.h">
<polygon fill="none" stroke="black" points="1192,-168.5 1192,-187.5 1300,-187.5 1300,-168.5 1192,-168.5"/>
<text text-anchor="middle" x="1246" y="-175.5" font-family="Helvetica,sans-Serif" font-size="10.00">GPUCommonMath.h</text>
</a>
</g>
</g>
<!-- Node12&#45;&gt;Node18 -->
<g id="edge28" class="edge"><title>Node12&#45;&gt;Node18</title>
<path fill="none" stroke="midnightblue" d="M389.02,-347.423C403.952,-339.073 426.485,-325.544 444,-311 484.645,-277.249 477.24,-246.585 525,-224 583.512,-196.331 1016.47,-184.025 1181.95,-180.296"/>
<polygon fill="midnightblue" stroke="midnightblue" points="1182.06,-183.794 1191.98,-180.073 1181.91,-176.796 1182.06,-183.794"/>
</g>
<!-- Node23 -->
<g id="node23" class="node"><title>Node23</title>
<g id="a_node23"><a xlink:href="../../d9/d9c/GPUTPCGMPolynomialField_8h.html" target="_top" xlink:title="GPUTPCGMPolynomialField.h">
<polygon fill="none" stroke="black" points="848,-224.5 848,-243.5 1000,-243.5 1000,-224.5 848,-224.5"/>
<text text-anchor="middle" x="924" y="-231.5" font-family="Helvetica,sans-Serif" font-size="10.00">GPUTPCGMPolynomialField.h</text>
</a>
</g>
</g>
<!-- Node12&#45;&gt;Node23 -->
<g id="edge26" class="edge"><title>Node12&#45;&gt;Node23</title>
<path fill="none" stroke="midnightblue" d="M438.227,-353.646C513.335,-349.67 639.88,-339.071 745,-311 802.001,-295.779 864.59,-265.925 898.578,-248.508"/>
<polygon fill="midnightblue" stroke="midnightblue" points="900.507,-251.45 907.774,-243.739 897.285,-245.235 900.507,-251.45"/>
</g>
<!-- Node14&#45;&gt;Node15 -->
<g id="edge15" class="edge"><title>Node14&#45;&gt;Node15</title>
<path fill="none" stroke="midnightblue" d="M318.579,-285.975C321.145,-277.492 325.165,-264.204 328.457,-253.322"/>
<polygon fill="midnightblue" stroke="midnightblue" points="331.88,-254.094 331.426,-243.509 325.18,-252.067 331.88,-254.094"/>
</g>
<!-- Node16 -->
<g id="node16" class="node"><title>Node16</title>
<g id="a_node16"><a xlink:href="../../da/dab/GPUTPCDef_8h.html" target="_top" xlink:title="GPUTPCDef.h">
<polygon fill="none" stroke="black" points="683.5,-168.5 683.5,-187.5 766.5,-187.5 766.5,-168.5 683.5,-168.5"/>
<text text-anchor="middle" x="725" y="-175.5" font-family="Helvetica,sans-Serif" font-size="10.00">GPUTPCDef.h</text>
</a>
</g>
</g>
<!-- Node15&#45;&gt;Node16 -->
<g id="edge16" class="edge"><title>Node15&#45;&gt;Node16</title>
<path fill="none" stroke="midnightblue" d="M395.955,-224.444C472.613,-213.857 601.743,-196.023 673.319,-186.137"/>
<polygon fill="midnightblue" stroke="midnightblue" points="674.022,-189.574 683.449,-184.738 673.064,-182.64 674.022,-189.574"/>
</g>
<!-- Node17 -->
<g id="node17" class="node"><title>Node17</title>
<g id="a_node17"><a xlink:href="../../d3/dcc/GPUTPCGMMergedTrackHit_8h.html" target="_top" xlink:title="GPUTPCGMMergedTrackHit.h">
<polygon fill="none" stroke="black" points="581,-112.5 581,-131.5 733,-131.5 733,-112.5 581,-112.5"/>
<text text-anchor="middle" x="657" y="-119.5" font-family="Helvetica,sans-Serif" font-size="10.00">GPUTPCGMMergedTrackHit.h</text>
</a>
</g>
</g>
<!-- Node15&#45;&gt;Node17 -->
<g id="edge18" class="edge"><title>Node15&#45;&gt;Node17</title>
<path fill="none" stroke="midnightblue" d="M349.829,-224.332C375.186,-210.739 426.766,-184.284 473,-168 515.104,-153.171 564.288,-141.416 601.208,-133.644"/>
<polygon fill="midnightblue" stroke="midnightblue" points="602.197,-137.014 611.28,-131.559 600.778,-130.159 602.197,-137.014"/>
</g>
<!-- Node15&#45;&gt;Node18 -->
<g id="edge20" class="edge"><title>Node15&#45;&gt;Node18</title>
<path fill="none" stroke="midnightblue" d="M402.205,-227.669C419.125,-226.406 437.218,-225.106 454,-224 724.213,-206.192 1046.57,-189.192 1181.56,-182.265"/>
<polygon fill="midnightblue" stroke="midnightblue" points="1181.92,-185.752 1191.73,-181.744 1181.56,-178.761 1181.92,-185.752"/>
</g>
<!-- Node21 -->
<g id="node21" class="node"><title>Node21</title>
<g id="a_node21"><a xlink:href="../../d3/d1f/GPUdEdxInfo_8h.html" target="_top" xlink:title="GPUdEdxInfo.h">
<polygon fill="none" stroke="black" points="291,-168.5 291,-187.5 377,-187.5 377,-168.5 291,-168.5"/>
<text text-anchor="middle" x="334" y="-175.5" font-family="Helvetica,sans-Serif" font-size="10.00">GPUdEdxInfo.h</text>
</a>
</g>
</g>
<!-- Node15&#45;&gt;Node21 -->
<g id="edge24" class="edge"><title>Node15&#45;&gt;Node21</title>
<path fill="none" stroke="midnightblue" d="M334,-224.083C334,-217.006 334,-206.861 334,-197.986"/>
<polygon fill="midnightblue" stroke="midnightblue" points="337.5,-197.751 334,-187.751 330.5,-197.751 337.5,-197.751"/>
</g>
<!-- Node22 -->
<g id="node22" class="node"><title>Node22</title>
<polygon fill="none" stroke="#bfbfbf" points="1386.5,-112.5 1386.5,-131.5 1435.5,-131.5 1435.5,-112.5 1386.5,-112.5"/>
<text text-anchor="middle" x="1411" y="-119.5" font-family="Helvetica,sans-Serif" font-size="10.00">cstddef</text>
</g>
<!-- Node15&#45;&gt;Node22 -->
<g id="edge25" class="edge"><title>Node15&#45;&gt;Node22</title>
<path fill="none" stroke="midnightblue" d="M369.978,-224.462C431.752,-210.177 562.149,-181.656 674,-168 967.807,-132.129 1044.19,-158.373 1339,-132 1351.23,-130.906 1364.58,-129.341 1376.43,-127.822"/>
<polygon fill="midnightblue" stroke="midnightblue" points="1376.93,-131.286 1386.39,-126.511 1376.02,-124.346 1376.93,-131.286"/>
</g>
<!-- Node16&#45;&gt;Node3 -->
<g id="edge17" class="edge"><title>Node16&#45;&gt;Node3</title>
<path fill="none" stroke="midnightblue" d="M694.419,-168.444C661.385,-159.201 608.612,-144.436 572.234,-134.257"/>
<polygon fill="midnightblue" stroke="midnightblue" points="573.012,-130.84 562.438,-131.516 571.125,-137.582 573.012,-130.84"/>
</g>
<!-- Node17&#45;&gt;Node4 -->
<g id="edge19" class="edge"><title>Node17&#45;&gt;Node4</title>
<path fill="none" stroke="midnightblue" d="M733.093,-113.218C737.797,-112.79 742.462,-112.381 747,-112 968.574,-93.418 1232.24,-77.344 1349.51,-70.5079"/>
<polygon fill="midnightblue" stroke="midnightblue" points="1349.94,-73.9887 1359.72,-69.9143 1349.54,-67.0005 1349.94,-73.9887"/>
</g>
<!-- Node18&#45;&gt;Node4 -->
<g id="edge21" class="edge"><title>Node18&#45;&gt;Node4</title>
<path fill="none" stroke="midnightblue" d="M1246.06,-168.124C1246.64,-154.246 1249.82,-127.408 1265,-112 1287.23,-89.4397 1320.49,-78.1351 1349.66,-72.4943"/>
<polygon fill="midnightblue" stroke="midnightblue" points="1350.53,-75.8952 1359.78,-70.7261 1349.32,-68.9997 1350.53,-75.8952"/>
</g>
<!-- Node19 -->
<g id="node19" class="node"><title>Node19</title>
<polygon fill="none" stroke="#bfbfbf" points="1174,-112.5 1174,-131.5 1218,-131.5 1218,-112.5 1174,-112.5"/>
<text text-anchor="middle" x="1196" y="-119.5" font-family="Helvetica,sans-Serif" font-size="10.00">cmath</text>
</g>
<!-- Node18&#45;&gt;Node19 -->
<g id="edge22" class="edge"><title>Node18&#45;&gt;Node19</title>
<path fill="none" stroke="midnightblue" d="M1237.74,-168.083C1230.54,-160.298 1219.89,-148.801 1211.15,-139.367"/>
<polygon fill="midnightblue" stroke="midnightblue" points="1213.47,-136.711 1204.1,-131.751 1208.33,-141.467 1213.47,-136.711"/>
</g>
<!-- Node20 -->
<g id="node20" class="node"><title>Node20</title>
<polygon fill="none" stroke="#bfbfbf" points="1274,-112.5 1274,-131.5 1330,-131.5 1330,-112.5 1274,-112.5"/>
<text text-anchor="middle" x="1302" y="-119.5" font-family="Helvetica,sans-Serif" font-size="10.00">algorithm</text>
</g>
<!-- Node18&#45;&gt;Node20 -->
<g id="edge23" class="edge"><title>Node18&#45;&gt;Node20</title>
<path fill="none" stroke="midnightblue" d="M1255,-168.324C1263.19,-160.42 1275.51,-148.548 1285.47,-138.938"/>
<polygon fill="midnightblue" stroke="midnightblue" points="1288.07,-141.295 1292.84,-131.834 1283.21,-136.256 1288.07,-141.295"/>
</g>
<!-- Node23&#45;&gt;Node16 -->
<g id="edge27" class="edge"><title>Node23&#45;&gt;Node16</title>
<path fill="none" stroke="midnightblue" d="M892.468,-224.444C858.408,-215.201 803.994,-200.436 766.485,-190.257"/>
<polygon fill="midnightblue" stroke="midnightblue" points="766.952,-186.758 756.385,-187.516 765.119,-193.513 766.952,-186.758"/>
</g>
<!-- Node25 -->
<g id="node25" class="node"><title>Node25</title>
<g id="a_node25"><a xlink:href="../../d6/d25/GPUTPCTracker_8h.html" target="_top" xlink:title="GPUTPCTracker.h">
<polygon fill="none" stroke="black" points="879,-403.5 879,-422.5 979,-422.5 979,-403.5 879,-403.5"/>
<text text-anchor="middle" x="929" y="-410.5" font-family="Helvetica,sans-Serif" font-size="10.00">GPUTPCTracker.h</text>
</a>
</g>
</g>
<!-- Node24&#45;&gt;Node25 -->
<g id="edge31" class="edge"><title>Node24&#45;&gt;Node25</title>
<path fill="none" stroke="midnightblue" d="M1549.9,-463.672C1425.48,-453.718 1119.68,-429.255 989.386,-418.831"/>
<polygon fill="midnightblue" stroke="midnightblue" points="989.44,-415.324 979.193,-418.015 988.882,-422.302 989.44,-415.324"/>
</g>
<!-- Node31 -->
<g id="node31" class="node"><title>Node31</title>
<g id="a_node31"><a xlink:href="../../df/d13/GPUParam_8h.html" target="_top" xlink:title="GPUParam.h">
<polygon fill="none" stroke="black" points="1243.5,-286 1243.5,-305 1318.5,-305 1318.5,-286 1243.5,-286"/>
<text text-anchor="middle" x="1281" y="-293" font-family="Helvetica,sans-Serif" font-size="10.00">GPUParam.h</text>
</a>
</g>
</g>
<!-- Node24&#45;&gt;Node31 -->
<g id="edge67" class="edge"><title>Node24&#45;&gt;Node31</title>
<path fill="none" stroke="midnightblue" d="M1587.98,-459.495C1535.68,-431.723 1369.6,-343.545 1306.06,-309.806"/>
<polygon fill="midnightblue" stroke="midnightblue" points="1307.59,-306.654 1297.11,-305.056 1304.31,-312.837 1307.59,-306.654"/>
</g>
<!-- Node39 -->
<g id="node39" class="node"><title>Node39</title>
<g id="a_node39"><a xlink:href="../../d4/dc5/GPUDataTypes_8h.html" target="_top" xlink:title="GPUDataTypes.h">
<polygon fill="none" stroke="black" points="1597.5,-168.5 1597.5,-187.5 1692.5,-187.5 1692.5,-168.5 1597.5,-168.5"/>
<text text-anchor="middle" x="1645" y="-175.5" font-family="Helvetica,sans-Serif" font-size="10.00">GPUDataTypes.h</text>
</a>
</g>
</g>
<!-- Node24&#45;&gt;Node39 -->
<g id="edge68" class="edge"><title>Node24&#45;&gt;Node39</title>
<path fill="none" stroke="midnightblue" d="M1609.28,-459.231C1619.73,-441.043 1642,-397.601 1642,-358 1642,-358 1642,-358 1642,-294.5 1642,-260.352 1643.33,-220.545 1644.22,-197.705"/>
<polygon fill="midnightblue" stroke="midnightblue" points="1647.71,-197.825 1644.62,-187.691 1640.72,-197.542 1647.71,-197.825"/>
</g>
<!-- Node40 -->
<g id="node40" class="node"><title>Node40</title>
<g id="a_node40"><a xlink:href="../../da/d28/GPUO2FakeClasses_8h.html" target="_top" xlink:title="GPUO2FakeClasses.h">
<polygon fill="none" stroke="black" points="1670.5,-224.5 1670.5,-243.5 1787.5,-243.5 1787.5,-224.5 1670.5,-224.5"/>
<text text-anchor="middle" x="1729" y="-231.5" font-family="Helvetica,sans-Serif" font-size="10.00">GPUO2FakeClasses.h</text>
</a>
</g>
</g>
<!-- Node24&#45;&gt;Node40 -->
<g id="edge71" class="edge"><title>Node24&#45;&gt;Node40</title>
<path fill="none" stroke="midnightblue" d="M1617.14,-459.419C1628.74,-451.26 1645.41,-438.029 1656,-423 1694.95,-367.735 1716.67,-288.876 1725,-253.462"/>
<polygon fill="midnightblue" stroke="midnightblue" points="1728.44,-254.101 1727.24,-243.575 1721.62,-252.556 1728.44,-254.101"/>
</g>
<!-- Node25&#45;&gt;Node16 -->
<g id="edge32" class="edge"><title>Node25&#45;&gt;Node16</title>
<path fill="none" stroke="midnightblue" d="M907.223,-403.389C889.781,-395.723 865.432,-383.216 848,-367 792.116,-315.016 749.799,-232.657 732.96,-196.734"/>
<polygon fill="midnightblue" stroke="midnightblue" points="736.085,-195.152 728.73,-187.527 729.724,-198.075 736.085,-195.152"/>
</g>
<!-- Node26 -->
<g id="node26" class="node"><title>Node26</title>
<polygon fill="none" stroke="#bfbfbf" points="857,-347.5 857,-366.5 911,-366.5 911,-347.5 857,-347.5"/>
<text text-anchor="middle" x="884" y="-354.5" font-family="Helvetica,sans-Serif" font-size="10.00">iostream</text>
</g>
<!-- Node25&#45;&gt;Node26 -->
<g id="edge33" class="edge"><title>Node25&#45;&gt;Node26</title>
<path fill="none" stroke="midnightblue" d="M921.569,-403.083C915.147,-395.377 905.694,-384.033 897.878,-374.653"/>
<polygon fill="midnightblue" stroke="midnightblue" points="900.383,-372.193 891.293,-366.751 895.006,-376.674 900.383,-372.193"/>
</g>
<!-- Node27 -->
<g id="node27" class="node"><title>Node27</title>
<g id="a_node27"><a xlink:href="../../dd/d7b/GPUTPCHitId_8h.html" target="_top" xlink:title="GPUTPCHitId.h">
<polygon fill="none" stroke="black" points="929,-347.5 929,-366.5 1017,-366.5 1017,-347.5 929,-347.5"/>
<text text-anchor="middle" x="973" y="-354.5" font-family="Helvetica,sans-Serif" font-size="10.00">GPUTPCHitId.h</text>
</a>
</g>
</g>
<!-- Node25&#45;&gt;Node27 -->
<g id="edge34" class="edge"><title>Node25&#45;&gt;Node27</title>
<path fill="none" stroke="midnightblue" d="M936.266,-403.083C942.545,-395.377 951.788,-384.033 959.431,-374.653"/>
<polygon fill="midnightblue" stroke="midnightblue" points="962.266,-376.714 965.869,-366.751 956.839,-372.293 962.266,-376.714"/>
</g>
<!-- Node28 -->
<g id="node28" class="node"><title>Node28</title>
<g id="a_node28"><a xlink:href="../../df/d4a/GPUTPCSliceData_8h.html" target="_top" xlink:title="GPUTPCSliceData.h">
<polygon fill="none" stroke="black" points="1088,-347.5 1088,-366.5 1198,-366.5 1198,-347.5 1088,-347.5"/>
<text text-anchor="middle" x="1143" y="-354.5" font-family="Helvetica,sans-Serif" font-size="10.00">GPUTPCSliceData.h</text>
</a>
</g>
</g>
<!-- Node25&#45;&gt;Node28 -->
<g id="edge35" class="edge"><title>Node25&#45;&gt;Node28</title>
<path fill="none" stroke="midnightblue" d="M962.909,-403.444C999.849,-394.122 1059.05,-379.183 1099.42,-368.997"/>
<polygon fill="midnightblue" stroke="midnightblue" points="1100.41,-372.357 1109.25,-366.516 1098.7,-365.57 1100.41,-372.357"/>
</g>
<!-- Node35 -->
<g id="node35" class="node"><title>Node35</title>
<g id="a_node35"><a xlink:href="../../d6/d57/GPUProcessor_8h.html" target="_top" xlink:title="GPUProcessor.h">
<polygon fill="none" stroke="black" points="1331.5,-168.5 1331.5,-187.5 1422.5,-187.5 1422.5,-168.5 1331.5,-168.5"/>
<text text-anchor="middle" x="1377" y="-175.5" font-family="Helvetica,sans-Serif" font-size="10.00">GPUProcessor.h</text>
</a>
</g>
</g>
<!-- Node25&#45;&gt;Node35 -->
<g id="edge66" class="edge"><title>Node25&#45;&gt;Node35</title>
<path fill="none" stroke="midnightblue" d="M979.169,-405.84C1109.2,-388.666 1451.05,-335.421 1509,-244 1530.11,-210.704 1477.79,-193.93 1432.91,-185.858"/>
<polygon fill="midnightblue" stroke="midnightblue" points="1433.33,-182.38 1422.89,-184.173 1432.17,-189.283 1433.33,-182.38"/>
</g>
<!-- Node36 -->
<g id="node36" class="node"><title>Node36</title>
<g id="a_node36"><a xlink:href="../../de/d15/GPUTPCTrackParam_8h.html" target="_top" xlink:title="GPUTPCTrackParam.h">
<polygon fill="none" stroke="black" points="616,-286 616,-305 736,-305 736,-286 616,-286"/>
<text text-anchor="middle" x="676" y="-293" font-family="Helvetica,sans-Serif" font-size="10.00">GPUTPCTrackParam.h</text>
</a>
</g>
</g>
<!-- Node25&#45;&gt;Node36 -->
<g id="edge58" class="edge"><title>Node25&#45;&gt;Node36</title>
<path fill="none" stroke="midnightblue" d="M893.888,-403.45C864.785,-395.742 822.715,-383.147 788,-367 753.913,-351.145 717.645,-326.757 695.91,-311.221"/>
<polygon fill="midnightblue" stroke="midnightblue" points="697.685,-308.185 687.533,-305.155 693.58,-313.855 697.685,-308.185"/>
</g>
<!-- Node38 -->
<g id="node38" class="node"><title>Node38</title>
<g id="a_node38"><a xlink:href="../../db/d6e/GPUTPCTracklet_8h.html" target="_top" xlink:title="GPUTPCTracklet.h">
<polygon fill="none" stroke="black" points="496,-286 496,-305 598,-305 598,-286 496,-286"/>
<text text-anchor="middle" x="547" y="-293" font-family="Helvetica,sans-Serif" font-size="10.00">GPUTPCTracklet.h</text>
</a>
</g>
</g>
<!-- Node25&#45;&gt;Node38 -->
<g id="edge63" class="edge"><title>Node25&#45;&gt;Node38</title>
<path fill="none" stroke="midnightblue" d="M890.452,-403.432C853.816,-395.038 797.301,-381.434 749,-367 688.14,-348.813 618.452,-323.465 578.887,-308.639"/>
<polygon fill="midnightblue" stroke="midnightblue" points="580.093,-305.353 569.501,-305.107 577.628,-311.904 580.093,-305.353"/>
</g>
<!-- Node28&#45;&gt;Node16 -->
<g id="edge36" class="edge"><title>Node28&#45;&gt;Node16</title>
<path fill="none" stroke="midnightblue" d="M1115.13,-347.444C1060.86,-330.412 937.672,-289.923 839,-244 805.926,-228.607 769.626,-207.04 747.075,-193.045"/>
<polygon fill="midnightblue" stroke="midnightblue" points="748.635,-189.892 738.302,-187.55 744.919,-195.824 748.635,-189.892"/>
</g>
<!-- Node28&#45;&gt;Node18 -->
<g id="edge41" class="edge"><title>Node28&#45;&gt;Node18</title>
<path fill="none" stroke="midnightblue" d="M1147.97,-347.463C1163.9,-320.078 1213.96,-234.052 1235.73,-196.653"/>
<polygon fill="midnightblue" stroke="midnightblue" points="1238.83,-198.272 1240.84,-187.868 1232.78,-194.751 1238.83,-198.272"/>
</g>
<!-- Node29 -->
<g id="node29" class="node"><title>Node29</title>
<g id="a_node29"><a xlink:href="../../d8/dff/GPUTPCRow_8h.html" target="_top" xlink:title="GPUTPCRow.h">
<polygon fill="none" stroke="black" points="1054.5,-286 1054.5,-305 1141.5,-305 1141.5,-286 1054.5,-286"/>
<text text-anchor="middle" x="1098" y="-293" font-family="Helvetica,sans-Serif" font-size="10.00">GPUTPCRow.h</text>
</a>
</g>
</g>
<!-- Node28&#45;&gt;Node29 -->
<g id="edge37" class="edge"><title>Node28&#45;&gt;Node29</title>
<path fill="none" stroke="midnightblue" d="M1136.55,-347.475C1129.8,-338.55 1119.03,-324.307 1110.59,-313.143"/>
<polygon fill="midnightblue" stroke="midnightblue" points="1113.26,-310.874 1104.44,-305.009 1107.68,-315.096 1113.26,-310.874"/>
</g>
<!-- Node28&#45;&gt;Node31 -->
<g id="edge42" class="edge"><title>Node28&#45;&gt;Node31</title>
<path fill="none" stroke="midnightblue" d="M1162.77,-347.475C1186.14,-337.401 1225.21,-320.553 1252,-309.002"/>
<polygon fill="midnightblue" stroke="midnightblue" points="1253.47,-312.182 1261.26,-305.009 1250.7,-305.754 1253.47,-312.182"/>
</g>
<!-- Node34 -->
<g id="node34" class="node"><title>Node34</title>
<g id="a_node34"><a xlink:href="../../d5/da6/GPUMemoryResource_8h.html" target="_top" xlink:title="GPUMemoryResource.h">
<polygon fill="none" stroke="black" points="1376,-224.5 1376,-243.5 1500,-243.5 1500,-224.5 1376,-224.5"/>
<text text-anchor="middle" x="1438" y="-231.5" font-family="Helvetica,sans-Serif" font-size="10.00">GPUMemoryResource.h</text>
</a>
</g>
</g>
<!-- Node28&#45;&gt;Node34 -->
<g id="edge51" class="edge"><title>Node28&#45;&gt;Node34</title>
<path fill="none" stroke="midnightblue" d="M1198.24,-347.855C1235.7,-341.056 1285.71,-329.443 1327,-311 1362.8,-295.009 1399.38,-267.31 1420.32,-250.134"/>
<polygon fill="midnightblue" stroke="midnightblue" points="1422.61,-252.785 1428.04,-243.692 1418.12,-247.41 1422.61,-252.785"/>
</g>
<!-- Node29&#45;&gt;Node16 -->
<g id="edge38" class="edge"><title>Node29&#45;&gt;Node16</title>
<path fill="none" stroke="midnightblue" d="M1103.74,-285.928C1112.74,-271.329 1127.6,-241.52 1112,-224 1090.09,-199.392 877.325,-186.174 776.938,-181.264"/>
<polygon fill="midnightblue" stroke="midnightblue" points="776.872,-177.757 766.715,-180.773 776.536,-184.749 776.872,-177.757"/>
</g>
<!-- Node30 -->
<g id="node30" class="node"><title>Node30</title>
<g id="a_node30"><a xlink:href="../../d3/da7/GPUTPCGrid_8h.html" target="_top" xlink:title="GPUTPCGrid.h">
<polygon fill="none" stroke="black" points="1018.5,-224.5 1018.5,-243.5 1103.5,-243.5 1103.5,-224.5 1018.5,-224.5"/>
<text text-anchor="middle" x="1061" y="-231.5" font-family="Helvetica,sans-Serif" font-size="10.00">GPUTPCGrid.h</text>
</a>
</g>
</g>
<!-- Node29&#45;&gt;Node30 -->
<g id="edge39" class="edge"><title>Node29&#45;&gt;Node30</title>
<path fill="none" stroke="midnightblue" d="M1092.7,-285.975C1087.26,-277.227 1078.64,-263.369 1071.76,-252.309"/>
<polygon fill="midnightblue" stroke="midnightblue" points="1074.54,-250.153 1066.29,-243.509 1068.6,-253.849 1074.54,-250.153"/>
</g>
<!-- Node30&#45;&gt;Node16 -->
<g id="edge40" class="edge"><title>Node30&#45;&gt;Node16</title>
<path fill="none" stroke="midnightblue" d="M1018.44,-225.583C1015.25,-225.042 1012.07,-224.509 1009,-224 928.097,-210.59 834.079,-195.86 777.093,-187.027"/>
<polygon fill="midnightblue" stroke="midnightblue" points="777.312,-183.519 766.895,-185.447 776.241,-190.436 777.312,-183.519"/>
</g>
<!-- Node31&#45;&gt;Node3 -->
<g id="edge45" class="edge"><title>Node31&#45;&gt;Node3</title>
<path fill="none" stroke="midnightblue" d="M1266.12,-285.862C1239.65,-270.888 1182.24,-240.165 1130,-224 893.051,-150.676 820.618,-179.269 573.409,-132.175"/>
<polygon fill="midnightblue" stroke="midnightblue" points="573.889,-128.703 563.407,-130.247 572.563,-135.577 573.889,-128.703"/>
</g>
<!-- Node31&#45;&gt;Node4 -->
<g id="edge43" class="edge"><title>Node31&#45;&gt;Node4</title>
<path fill="none" stroke="midnightblue" d="M1318.94,-291.708C1377.5,-286.522 1485.59,-273.166 1509,-244 1552.34,-190.014 1470.86,-114.24 1431.06,-82.2268"/>
<polygon fill="midnightblue" stroke="midnightblue" points="1432.84,-79.1754 1422.82,-75.7426 1428.52,-84.6768 1432.84,-79.1754"/>
</g>
<!-- Node31&#45;&gt;Node18 -->
<g id="edge44" class="edge"><title>Node31&#45;&gt;Node18</title>
<path fill="none" stroke="midnightblue" d="M1278.22,-285.94C1274.99,-275.91 1269.5,-258.781 1265,-244 1260.24,-228.36 1255.04,-210.531 1251.29,-197.507"/>
<polygon fill="midnightblue" stroke="midnightblue" points="1254.64,-196.497 1248.52,-187.85 1247.91,-198.428 1254.64,-196.497"/>
</g>
<!-- Node31&#45;&gt;Node23 -->
<g id="edge50" class="edge"><title>Node31&#45;&gt;Node23</title>
<path fill="none" stroke="midnightblue" d="M1243.47,-288.245C1182,-278 1059.31,-257.551 985.145,-245.191"/>
<polygon fill="midnightblue" stroke="midnightblue" points="985.453,-241.694 975.014,-243.502 984.302,-248.599 985.453,-241.694"/>
</g>
<!-- Node32 -->
<g id="node32" class="node"><title>Node32</title>
<g id="a_node32"><a xlink:href="../../dd/dc6/GPUSettings_8h.html" target="_top" xlink:title="GPUSettings.h">
<polygon fill="none" stroke="black" points="1274.5,-224.5 1274.5,-243.5 1357.5,-243.5 1357.5,-224.5 1274.5,-224.5"/>
<text text-anchor="middle" x="1316" y="-231.5" font-family="Helvetica,sans-Serif" font-size="10.00">GPUSettings.h</text>
</a>
</g>
</g>
<!-- Node31&#45;&gt;Node32 -->
<g id="edge46" class="edge"><title>Node31&#45;&gt;Node32</title>
<path fill="none" stroke="midnightblue" d="M1286.01,-285.975C1291.16,-277.227 1299.31,-263.369 1305.82,-252.309"/>
<polygon fill="midnightblue" stroke="midnightblue" points="1308.94,-253.903 1310.99,-243.509 1302.91,-250.354 1308.94,-253.903"/>
</g>
<!-- Node33 -->
<g id="node33" class="node"><title>Node33</title>
<g id="a_node33"><a xlink:href="../../d6/d1b/GPUTPCGeometry_8h.html" target="_top" xlink:title="GPUTPCGeometry.h">
<polygon fill="none" stroke="black" points="1530,-112.5 1530,-131.5 1640,-131.5 1640,-112.5 1530,-112.5"/>
<text text-anchor="middle" x="1585" y="-119.5" font-family="Helvetica,sans-Serif" font-size="10.00">GPUTPCGeometry.h</text>
</a>
</g>
</g>
<!-- Node31&#45;&gt;Node33 -->
<g id="edge48" class="edge"><title>Node31&#45;&gt;Node33</title>
<path fill="none" stroke="midnightblue" d="M1318.73,-291.756C1382.76,-286.374 1508.97,-272.4 1542,-244 1572.47,-217.799 1581.35,-168.507 1583.94,-141.631"/>
<polygon fill="midnightblue" stroke="midnightblue" points="1587.43,-141.856 1584.7,-131.617 1580.45,-141.32 1587.43,-141.856"/>
</g>
<!-- Node32&#45;&gt;Node18 -->
<g id="edge47" class="edge"><title>Node32&#45;&gt;Node18</title>
<path fill="none" stroke="midnightblue" d="M1304.75,-224.324C1294.2,-216.185 1278.2,-203.839 1265.56,-194.087"/>
<polygon fill="midnightblue" stroke="midnightblue" points="1267.51,-191.171 1257.45,-187.834 1263.23,-196.713 1267.51,-191.171"/>
</g>
<!-- Node33&#45;&gt;Node4 -->
<g id="edge49" class="edge"><title>Node33&#45;&gt;Node4</title>
<path fill="none" stroke="midnightblue" d="M1557.43,-112.444C1527.9,-103.28 1480.88,-88.6876 1448.12,-78.5192"/>
<polygon fill="midnightblue" stroke="midnightblue" points="1449.03,-75.1378 1438.44,-75.5164 1446.96,-81.8232 1449.03,-75.1378"/>
</g>
<!-- Node34&#45;&gt;Node4 -->
<g id="edge52" class="edge"><title>Node34&#45;&gt;Node4</title>
<path fill="none" stroke="midnightblue" d="M1440.53,-224.208C1445.95,-203.857 1457.15,-152.178 1444,-112 1440.51,-101.34 1433.43,-91.1174 1426.71,-83.1175"/>
<polygon fill="midnightblue" stroke="midnightblue" points="1429.3,-80.7633 1420.02,-75.66 1424.1,-85.4395 1429.3,-80.7633"/>
</g>
<!-- Node34&#45;&gt;Node35 -->
<g id="edge53" class="edge"><title>Node34&#45;&gt;Node35</title>
<path fill="none" stroke="midnightblue" d="M1428.2,-224.324C1419.18,-216.341 1405.59,-204.313 1394.68,-194.653"/>
<polygon fill="midnightblue" stroke="midnightblue" points="1396.79,-191.842 1386.98,-187.834 1392.15,-197.083 1396.79,-191.842"/>
</g>
<!-- Node35&#45;&gt;Node3 -->
<g id="edge55" class="edge"><title>Node35&#45;&gt;Node3</title>
<path fill="none" stroke="midnightblue" d="M1331.34,-170.428C1323.88,-169.508 1316.23,-168.654 1309,-168 985.736,-138.763 898.737,-175.392 573.535,-131.966"/>
<polygon fill="midnightblue" stroke="midnightblue" points="573.728,-128.461 563.35,-130.591 572.791,-135.398 573.728,-128.461"/>
</g>
<!-- Node35&#45;&gt;Node4 -->
<g id="edge54" class="edge"><title>Node35&#45;&gt;Node4</title>
<path fill="none" stroke="midnightblue" d="M1375.29,-168.307C1373.17,-155.57 1370.54,-131.259 1377,-112 1380.6,-101.251 1387.9,-91.0204 1394.82,-83.0378"/>
<polygon fill="midnightblue" stroke="midnightblue" points="1397.48,-85.3168 1401.71,-75.6053 1392.35,-80.5561 1397.48,-85.3168"/>
</g>
<!-- Node35&#45;&gt;Node20 -->
<g id="edge57" class="edge"><title>Node35&#45;&gt;Node20</title>
<path fill="none" stroke="midnightblue" d="M1364.95,-168.324C1353.54,-160.107 1336.17,-147.602 1322.57,-137.807"/>
<polygon fill="midnightblue" stroke="midnightblue" points="1324.43,-134.837 1314.27,-131.834 1320.34,-140.517 1324.43,-134.837"/>
</g>
<!-- Node35&#45;&gt;Node22 -->
<g id="edge56" class="edge"><title>Node35&#45;&gt;Node22</title>
<path fill="none" stroke="midnightblue" d="M1382.61,-168.083C1387.37,-160.534 1394.32,-149.495 1400.15,-140.23"/>
<polygon fill="midnightblue" stroke="midnightblue" points="1403.12,-142.078 1405.49,-131.751 1397.2,-138.349 1403.12,-142.078"/>
</g>
<!-- Node36&#45;&gt;Node16 -->
<g id="edge61" class="edge"><title>Node36&#45;&gt;Node16</title>
<path fill="none" stroke="midnightblue" d="M679.683,-285.819C687.629,-267.09 706.526,-222.546 717.24,-197.292"/>
<polygon fill="midnightblue" stroke="midnightblue" points="720.591,-198.355 721.274,-187.782 714.147,-195.621 720.591,-198.355"/>
</g>
<!-- Node36&#45;&gt;Node18 -->
<g id="edge62" class="edge"><title>Node36&#45;&gt;Node18</title>
<path fill="none" stroke="midnightblue" d="M691.625,-285.852C720.016,-270.575 782.375,-239.013 839,-224 957.286,-192.639 1100.52,-183.107 1181.67,-180.227"/>
<polygon fill="midnightblue" stroke="midnightblue" points="1181.85,-183.723 1191.73,-179.893 1181.62,-176.727 1181.85,-183.723"/>
</g>
<!-- Node37 -->
<g id="node37" class="node"><title>Node37</title>
<g id="a_node37"><a xlink:href="../../df/d00/GPUTPCBaseTrackParam_8h.html" target="_top" xlink:title="GPUTPCBaseTrackParam.h">
<polygon fill="none" stroke="black" points="534.5,-224.5 534.5,-243.5 677.5,-243.5 677.5,-224.5 534.5,-224.5"/>
<text text-anchor="middle" x="606" y="-231.5" font-family="Helvetica,sans-Serif" font-size="10.00">GPUTPCBaseTrackParam.h</text>
</a>
</g>
</g>
<!-- Node36&#45;&gt;Node37 -->
<g id="edge59" class="edge"><title>Node36&#45;&gt;Node37</title>
<path fill="none" stroke="midnightblue" d="M665.971,-285.975C654.951,-276.608 637.04,-261.384 623.657,-250.008"/>
<polygon fill="midnightblue" stroke="midnightblue" points="625.897,-247.319 616.011,-243.509 621.363,-252.652 625.897,-247.319"/>
</g>
<!-- Node37&#45;&gt;Node16 -->
<g id="edge60" class="edge"><title>Node37&#45;&gt;Node16</title>
<path fill="none" stroke="midnightblue" d="M624.856,-224.444C644.266,-215.636 674.73,-201.812 696.965,-191.722"/>
<polygon fill="midnightblue" stroke="midnightblue" points="698.572,-194.836 706.232,-187.516 695.68,-188.462 698.572,-194.836"/>
</g>
<!-- Node38&#45;&gt;Node16 -->
<g id="edge65" class="edge"><title>Node38&#45;&gt;Node16</title>
<path fill="none" stroke="midnightblue" d="M539.623,-285.746C528.466,-271.401 510.102,-242.622 525,-224 543.238,-201.202 620.242,-189.143 673.199,-183.422"/>
<polygon fill="midnightblue" stroke="midnightblue" points="673.859,-186.872 683.446,-182.361 673.138,-179.91 673.859,-186.872"/>
</g>
<!-- Node38&#45;&gt;Node37 -->
<g id="edge64" class="edge"><title>Node38&#45;&gt;Node37</title>
<path fill="none" stroke="midnightblue" d="M555.453,-285.975C564.566,-276.785 579.27,-261.956 590.476,-250.656"/>
<polygon fill="midnightblue" stroke="midnightblue" points="593.007,-253.074 597.562,-243.509 588.036,-248.146 593.007,-253.074"/>
</g>
<!-- Node39&#45;&gt;Node4 -->
<g id="edge69" class="edge"><title>Node39&#45;&gt;Node4</title>
<path fill="none" stroke="midnightblue" d="M1648.92,-168.269C1654.4,-154.589 1662.27,-128.018 1649,-112 1626.98,-85.4304 1535.38,-74.4331 1472.47,-69.9615"/>
<polygon fill="midnightblue" stroke="midnightblue" points="1472.45,-66.4529 1462.24,-69.2738 1471.98,-73.4371 1472.45,-66.4529"/>
</g>
<!-- Node39&#45;&gt;Node22 -->
<g id="edge70" class="edge"><title>Node39&#45;&gt;Node22</title>
<path fill="none" stroke="midnightblue" d="M1607.92,-168.444C1563.3,-158.147 1488.97,-140.994 1445.52,-130.967"/>
<polygon fill="midnightblue" stroke="midnightblue" points="1446.23,-127.539 1435.7,-128.7 1444.66,-134.359 1446.23,-127.539"/>
</g>
<!-- Node40&#45;&gt;Node4 -->
<g id="edge72" class="edge"><title>Node40&#45;&gt;Node4</title>
<path fill="none" stroke="midnightblue" d="M1727.45,-224.383C1722.82,-201.508 1706.82,-139.156 1666,-112 1635,-91.3768 1537.36,-78.6022 1472.3,-72.1534"/>
<polygon fill="midnightblue" stroke="midnightblue" points="1472.44,-68.651 1462.15,-71.1725 1471.77,-75.6185 1472.44,-68.651"/>
</g>
<!-- Node40&#45;&gt;Node39 -->
<g id="edge73" class="edge"><title>Node40&#45;&gt;Node39</title>
<path fill="none" stroke="midnightblue" d="M1715.5,-224.324C1702.4,-215.9 1682.29,-202.971 1666.89,-193.074"/>
<polygon fill="midnightblue" stroke="midnightblue" points="1668.77,-190.118 1658.46,-187.655 1664.98,-196.006 1668.77,-190.118"/>
</g>
</g>
</svg>
        <g id="navigator" transform="translate(0 0)" fill="#404254">
                <rect fill="#f2f5e9" fill-opacity="0.5" stroke="#606060" stroke-width=".5" x="0" y="0" width="60" height="60"/>
                <use id="zoomplus" xlink:href="#zoomPlus" x="17" y="9" onmousedown="handleZoom(evt,'in')"/>
                <use id="zoomminus" xlink:href="#zoomMin" x="42" y="9" onmousedown="handleZoom(evt,'out')"/>
                <use id="reset" xlink:href="#resetDef" x="30" y="36" onmousedown="handleReset()"/>
                <g id="arrowUp" xlink:href="#dirArrow" transform="translate(30 24)" onmousedown="handlePan(0,-1)">
                  <use xlink:href="#rim" fill="#404040">
                        <set attributeName="fill" to="#808080" begin="arrowUp.mouseover" end="arrowUp.mouseout"/>
                  </use>
                  <path fill="none" stroke="white" stroke-width="1.5" d="M0,-3.0v7 M-2.5,-0.5L0,-3.0L2.5,-0.5"/>
                </g>
                <g id="arrowRight" xlink:href="#dirArrow" transform="rotate(90) translate(36 -43)" onmousedown="handlePan(1,0)">
                  <use xlink:href="#rim" fill="#404040">
                        <set attributeName="fill" to="#808080" begin="arrowRight.mouseover" end="arrowRight.mouseout"/>
                  </use>
                  <path fill="none" stroke="white" stroke-width="1.5" d="M0,-3.0v7 M-2.5,-0.5L0,-3.0L2.5,-0.5"/>
                </g>
                <g id="arrowDown" xlink:href="#dirArrow" transform="rotate(180) translate(-30 -48)" onmousedown="handlePan(0,1)">
                  <use xlink:href="#rim" fill="#404040">
                        <set attributeName="fill" to="#808080" begin="arrowDown.mouseover" end="arrowDown.mouseout"/>
                  </use>
                  <path fill="none" stroke="white" stroke-width="1.5" d="M0,-3.0v7 M-2.5,-0.5L0,-3.0L2.5,-0.5"/>
                </g>
                <g id="arrowLeft" xlink:href="#dirArrow" transform="rotate(270) translate(-36 17)" onmousedown="handlePan(-1,0)">
                  <use xlink:href="#rim" fill="#404040">
                        <set attributeName="fill" to="#808080" begin="arrowLeft.mouseover" end="arrowLeft.mouseout"/>
                  </use>
                  <path fill="none" stroke="white" stroke-width="1.5" d="M0,-3.0v7 M-2.5,-0.5L0,-3.0L2.5,-0.5"/>
                </g>
        </g>
        <svg viewBox="0 0 15 15" width="100%" height="30px" preserveAspectRatio="xMaxYMin meet">
         <g id="arrow_out" transform="scale(0.3 0.3)">
          <a xlink:href="GPUTPCCompressionTrackModel_8cxx__incl_org.svg" target="_base">
           <rect id="button" ry="5" rx="5" y="6" x="6" height="38" width="38"
                fill="#f2f5e9" fill-opacity="0.5" stroke="#606060" stroke-width="1.0"/>
           <path id="arrow"
             d="M 11.500037,31.436501 C 11.940474,20.09759 22.043105,11.32322 32.158766,21.979434 L 37.068811,17.246167 C 37.068811,17.246167 37.088388,32 37.088388,32 L 22.160133,31.978069 C 22.160133,31.978069 26.997745,27.140456 26.997745,27.140456 C 18.528582,18.264221 13.291696,25.230495 11.500037,31.436501 z"
             style="fill:#404040;"/>
          </a>
         </g>
        </svg>
</svg>
