<?xml version="1.0" encoding="UTF-8" standalone="no"?>
<!DOCTYPE svg PUBLIC "-//W3C//DTD SVG 1.1//EN"
 "http://www.w3.org/Graphics/SVG/1.1/DTD/svg11.dtd">
<!-- Generated by graphviz version 2.38.0 (20140413.2041)
 -->
<!-- Title: /home/travis/build/AliceO2Group/AliceO2/Detectors/ITSMFT/common/base/src/Digit.cxx Pages: 1 -->
<svg width="196pt" height="173pt"
 viewBox="0.00 0.00 196.00 173.00" xmlns="http://www.w3.org/2000/svg" xmlns:xlink="http://www.w3.org/1999/xlink">
<g id="graph0" class="graph" transform="scale(1 1) rotate(0) translate(4 169)">
<title>/home/travis/build/AliceO2Group/AliceO2/Detectors/ITSMFT/common/base/src/Digit.cxx</title>
<!-- Node1 -->
<g id="node1" class="node"><title>Node1</title>
<polygon fill="#bfbfbf" stroke="black" points="40,-112.5 40,-164.5 182,-164.5 182,-112.5 40,-112.5"/>
<text text-anchor="start" x="48" y="-152.5" font-family="Helvetica,sans-Serif" font-size="10.00">/home/travis/build</text>
<text text-anchor="start" x="48" y="-141.5" font-family="Helvetica,sans-Serif" font-size="10.00">/AliceO2Group/AliceO2</text>
<text text-anchor="start" x="48" y="-130.5" font-family="Helvetica,sans-Serif" font-size="10.00">/Detectors/ITSMFT/common</text>
<text text-anchor="middle" x="111" y="-119.5" font-family="Helvetica,sans-Serif" font-size="10.00">/base/src/Digit.cxx</text>
</g>
<!-- Node2 -->
<g id="node2" class="node"><title>Node2</title>
<g id="a_node2"><a xlink:href="../../d6/d24/Detectors_2ITSMFT_2common_2base_2include_2ITSMFTBase_2Digit_8h.html" target="_top" xlink:title="ITSMFTBase/Digit.h">
<polygon fill="none" stroke="black" points="8.5,-56.5 8.5,-75.5 115.5,-75.5 115.5,-56.5 8.5,-56.5"/>
<text text-anchor="middle" x="62" y="-63.5" font-family="Helvetica,sans-Serif" font-size="10.00">ITSMFTBase/Digit.h</text>
</a>
</g>
</g>
<!-- Node1&#45;&gt;Node2 -->
<g id="edge1" class="edge"><title>Node1&#45;&gt;Node2</title>
<path fill="none" stroke="midnightblue" d="M93.5865,-112.446C87.0413,-103.029 79.7579,-92.5496 73.8359,-84.0293"/>
<polygon fill="midnightblue" stroke="midnightblue" points="76.6249,-81.9094 68.0437,-75.6955 70.8769,-85.9045 76.6249,-81.9094"/>
</g>
<!-- Node5 -->
<g id="node5" class="node"><title>Node5</title>
<polygon fill="none" stroke="#bfbfbf" points="134,-56.5 134,-75.5 188,-75.5 188,-56.5 134,-56.5"/>
<text text-anchor="middle" x="161" y="-63.5" font-family="Helvetica,sans-Serif" font-size="10.00">iostream</text>
</g>
<!-- Node1&#45;&gt;Node5 -->
<g id="edge4" class="edge"><title>Node1&#45;&gt;Node5</title>
<path fill="none" stroke="midnightblue" d="M128.769,-112.446C135.448,-103.029 142.88,-92.5496 148.923,-84.0293"/>
<polygon fill="midnightblue" stroke="midnightblue" points="151.903,-85.8771 154.833,-75.6955 146.193,-81.8276 151.903,-85.8771"/>
</g>
<!-- Node3 -->
<g id="node3" class="node"><title>Node3</title>
<polygon fill="none" stroke="#bfbfbf" points="0,-0.5 0,-19.5 56,-19.5 56,-0.5 0,-0.5"/>
<text text-anchor="middle" x="28" y="-7.5" font-family="Helvetica,sans-Serif" font-size="10.00">Rtypes.h</text>
</g>
<!-- Node2&#45;&gt;Node3 -->
<g id="edge2" class="edge"><title>Node2&#45;&gt;Node3</title>
<path fill="none" stroke="midnightblue" d="M56.3856,-56.083C51.6326,-48.5341 44.6819,-37.4948 38.8484,-28.2298"/>
<polygon fill="midnightblue" stroke="midnightblue" points="41.7999,-26.3486 33.5099,-19.7511 35.8763,-30.0783 41.7999,-26.3486"/>
</g>
<!-- Node4 -->
<g id="node4" class="node"><title>Node4</title>
<polygon fill="none" stroke="#bfbfbf" points="74.5,-0.5 74.5,-19.5 119.5,-19.5 119.5,-0.5 74.5,-0.5"/>
<text text-anchor="middle" x="97" y="-7.5" font-family="Helvetica,sans-Serif" font-size="10.00">climits</text>
</g>
<!-- Node2&#45;&gt;Node4 -->
<g id="edge3" class="edge"><title>Node2&#45;&gt;Node4</title>
<path fill="none" stroke="midnightblue" d="M67.7795,-56.083C72.6724,-48.5341 79.8274,-37.4948 85.8326,-28.2298"/>
<polygon fill="midnightblue" stroke="midnightblue" points="88.826,-30.0463 91.328,-19.7511 82.952,-26.239 88.826,-30.0463"/>
</g>
</g>
</svg>
