<?xml version="1.0" encoding="UTF-8" standalone="no"?>
<!DOCTYPE svg PUBLIC "-//W3C//DTD SVG 1.1//EN"
 "http://www.w3.org/Graphics/SVG/1.1/DTD/svg11.dtd">
<!-- Generated by graphviz version 2.38.0 (20140413.2041)
 -->
<!-- Title: /home/travis/build/AliceO2Group/AliceO2/Detectors/TPC/base/src/CRU.cxx Pages: 1 -->
<svg width="1350pt" height="475pt"
 viewBox="0.00 0.00 1350.00 475.00" xmlns="http://www.w3.org/2000/svg" xmlns:xlink="http://www.w3.org/1999/xlink">
<g id="graph0" class="graph" transform="scale(1 1) rotate(0) translate(4 471)">
<title>/home/travis/build/AliceO2Group/AliceO2/Detectors/TPC/base/src/CRU.cxx</title>
<!-- Node1 -->
<g id="node1" class="node"><title>Node1</title>
<polygon fill="#bfbfbf" stroke="black" points="417.5,-414.5 417.5,-466.5 543.5,-466.5 543.5,-414.5 417.5,-414.5"/>
<text text-anchor="start" x="425.5" y="-454.5" font-family="Helvetica,sans-Serif" font-size="10.00">/home/travis/build</text>
<text text-anchor="start" x="425.5" y="-443.5" font-family="Helvetica,sans-Serif" font-size="10.00">/AliceO2Group/AliceO2</text>
<text text-anchor="start" x="425.5" y="-432.5" font-family="Helvetica,sans-Serif" font-size="10.00">/Detectors/TPC/base/src</text>
<text text-anchor="middle" x="480.5" y="-421.5" font-family="Helvetica,sans-Serif" font-size="10.00">/CRU.cxx</text>
</g>
<!-- Node2 -->
<g id="node2" class="node"><title>Node2</title>
<g id="a_node2"><a xlink:href="../../df/d26/CRU_8h.html" target="_top" xlink:title="TPCBase/CRU.h">
<polygon fill="none" stroke="black" points="434,-358.5 434,-377.5 527,-377.5 527,-358.5 434,-358.5"/>
<text text-anchor="middle" x="480.5" y="-365.5" font-family="Helvetica,sans-Serif" font-size="10.00">TPCBase/CRU.h</text>
</a>
</g>
</g>
<!-- Node1&#45;&gt;Node2 -->
<g id="edge1" class="edge"><title>Node1&#45;&gt;Node2</title>
<path fill="none" stroke="midnightblue" d="M480.5,-414.446C480.5,-405.73 480.5,-396.104 480.5,-387.964"/>
<polygon fill="midnightblue" stroke="midnightblue" points="484,-387.695 480.5,-377.695 477,-387.696 484,-387.695"/>
</g>
<!-- Node3 -->
<g id="node3" class="node"><title>Node3</title>
<g id="a_node3"><a xlink:href="../../d1/d73/Defs_8h.html" target="_top" xlink:title="Common definitions for 2D coordinates. ">
<polygon fill="none" stroke="black" points="361.5,-190.5 361.5,-209.5 487.5,-209.5 487.5,-190.5 361.5,-190.5"/>
<text text-anchor="middle" x="424.5" y="-197.5" font-family="Helvetica,sans-Serif" font-size="10.00">DataFormatsTPC/Defs.h</text>
</a>
</g>
</g>
<!-- Node2&#45;&gt;Node3 -->
<g id="edge2" class="edge"><title>Node2&#45;&gt;Node3</title>
<path fill="none" stroke="midnightblue" d="M462.998,-358.465C449.713,-350.917 432.424,-338.533 424.5,-322 408.595,-288.816 414.457,-244.391 419.744,-219.646"/>
<polygon fill="midnightblue" stroke="midnightblue" points="423.183,-220.307 422.052,-209.772 416.367,-218.713 423.183,-220.307"/>
</g>
<!-- Node17 -->
<g id="node17" class="node"><title>Node17</title>
<g id="a_node17"><a xlink:href="../../d3/dd6/Sector_8h.html" target="_top" xlink:title="TPCBase/Sector.h">
<polygon fill="none" stroke="black" points="497,-246.5 497,-265.5 596,-265.5 596,-246.5 497,-246.5"/>
<text text-anchor="middle" x="546.5" y="-253.5" font-family="Helvetica,sans-Serif" font-size="10.00">TPCBase/Sector.h</text>
</a>
</g>
</g>
<!-- Node2&#45;&gt;Node17 -->
<g id="edge17" class="edge"><title>Node2&#45;&gt;Node17</title>
<path fill="none" stroke="midnightblue" d="M496.198,-358.474C508.918,-350.7 526.203,-338.001 535.5,-322 543.676,-307.929 546.163,-289.437 546.758,-275.775"/>
<polygon fill="midnightblue" stroke="midnightblue" points="550.26,-275.686 546.897,-265.639 543.261,-275.59 550.26,-275.686"/>
</g>
<!-- Node19 -->
<g id="node19" class="node"><title>Node19</title>
<g id="a_node19"><a xlink:href="../../dc/d14/ROC_8h.html" target="_top" xlink:title="TPCBase/ROC.h">
<polygon fill="none" stroke="black" points="434,-302.5 434,-321.5 527,-321.5 527,-302.5 434,-302.5"/>
<text text-anchor="middle" x="480.5" y="-309.5" font-family="Helvetica,sans-Serif" font-size="10.00">TPCBase/ROC.h</text>
</a>
</g>
</g>
<!-- Node2&#45;&gt;Node19 -->
<g id="edge20" class="edge"><title>Node2&#45;&gt;Node19</title>
<path fill="none" stroke="midnightblue" d="M480.5,-358.083C480.5,-351.006 480.5,-340.861 480.5,-331.986"/>
<polygon fill="midnightblue" stroke="midnightblue" points="484,-331.751 480.5,-321.751 477,-331.751 484,-331.751"/>
</g>
<!-- Node4 -->
<g id="node4" class="node"><title>Node4</title>
<polygon fill="none" stroke="#bfbfbf" points="352.5,-134.5 352.5,-153.5 396.5,-153.5 396.5,-134.5 352.5,-134.5"/>
<text text-anchor="middle" x="374.5" y="-141.5" font-family="Helvetica,sans-Serif" font-size="10.00">cmath</text>
</g>
<!-- Node3&#45;&gt;Node4 -->
<g id="edge3" class="edge"><title>Node3&#45;&gt;Node4</title>
<path fill="none" stroke="midnightblue" d="M416.244,-190.083C409.035,-182.298 398.39,-170.801 389.654,-161.367"/>
<polygon fill="midnightblue" stroke="midnightblue" points="391.965,-158.711 382.603,-153.751 386.829,-163.467 391.965,-158.711"/>
</g>
<!-- Node5 -->
<g id="node5" class="node"><title>Node5</title>
<g id="a_node5"><a xlink:href="../../d2/dd0/Cartesian2D_8h.html" target="_top" xlink:title="MathUtils/Cartesian2D.h">
<polygon fill="none" stroke="black" points="104,-73 104,-92 229,-92 229,-73 104,-73"/>
<text text-anchor="middle" x="166.5" y="-80" font-family="Helvetica,sans-Serif" font-size="10.00">MathUtils/Cartesian2D.h</text>
</a>
</g>
</g>
<!-- Node3&#45;&gt;Node5 -->
<g id="edge4" class="edge"><title>Node3&#45;&gt;Node5</title>
<path fill="none" stroke="midnightblue" d="M424.613,-190.412C424.302,-176.441 421.54,-148.863 405.5,-134 403.763,-132.39 287.979,-108.418 218.225,-94.0896"/>
<polygon fill="midnightblue" stroke="midnightblue" points="218.786,-90.6318 208.287,-92.0494 217.379,-97.4889 218.786,-90.6318"/>
</g>
<!-- Node8 -->
<g id="node8" class="node"><title>Node8</title>
<g id="a_node8"><a xlink:href="../../dd/d76/Cartesian3D_8h.html" target="_top" xlink:title="MathUtils/Cartesian3D.h">
<polygon fill="none" stroke="black" points="711,-134.5 711,-153.5 836,-153.5 836,-134.5 711,-134.5"/>
<text text-anchor="middle" x="773.5" y="-141.5" font-family="Helvetica,sans-Serif" font-size="10.00">MathUtils/Cartesian3D.h</text>
</a>
</g>
</g>
<!-- Node3&#45;&gt;Node8 -->
<g id="edge7" class="edge"><title>Node3&#45;&gt;Node8</title>
<path fill="none" stroke="midnightblue" d="M479.8,-190.444C541.831,-180.846 642.356,-165.292 708.2,-155.104"/>
<polygon fill="midnightblue" stroke="midnightblue" points="709.111,-158.504 718.459,-153.516 708.041,-151.587 709.111,-158.504"/>
</g>
<!-- Node6 -->
<g id="node6" class="node"><title>Node6</title>
<polygon fill="none" stroke="#bfbfbf" points="0,-0.5 0,-30.5 151,-30.5 151,-0.5 0,-0.5"/>
<text text-anchor="start" x="8" y="-18.5" font-family="Helvetica,sans-Serif" font-size="10.00">Math/GenVector/Displacement</text>
<text text-anchor="middle" x="75.5" y="-7.5" font-family="Helvetica,sans-Serif" font-size="10.00">Vector2D.h</text>
</g>
<!-- Node5&#45;&gt;Node6 -->
<g id="edge5" class="edge"><title>Node5&#45;&gt;Node6</title>
<path fill="none" stroke="midnightblue" d="M154.227,-72.7338C141.338,-63.527 120.626,-48.7328 103.681,-36.6293"/>
<polygon fill="midnightblue" stroke="midnightblue" points="105.396,-33.5534 95.2246,-30.589 101.328,-39.2495 105.396,-33.5534"/>
</g>
<!-- Node7 -->
<g id="node7" class="node"><title>Node7</title>
<polygon fill="none" stroke="#bfbfbf" points="169.5,-6 169.5,-25 345.5,-25 345.5,-6 169.5,-6"/>
<text text-anchor="middle" x="257.5" y="-13" font-family="Helvetica,sans-Serif" font-size="10.00">Math/GenVector/PositionVector2D.h</text>
</g>
<!-- Node5&#45;&gt;Node7 -->
<g id="edge6" class="edge"><title>Node5&#45;&gt;Node7</title>
<path fill="none" stroke="midnightblue" d="M178.773,-72.7338C193.645,-62.1106 218.932,-44.0485 236.83,-31.2642"/>
<polygon fill="midnightblue" stroke="midnightblue" points="239.319,-33.7878 245.422,-25.1273 235.25,-28.0917 239.319,-33.7878"/>
</g>
<!-- Node8&#45;&gt;Node5 -->
<g id="edge16" class="edge"><title>Node8&#45;&gt;Node5</title>
<path fill="none" stroke="midnightblue" d="M710.924,-140.14C610.619,-135.018 407.811,-122.454 237.5,-98 229.795,-96.8937 221.666,-95.475 213.77,-93.9597"/>
<polygon fill="midnightblue" stroke="midnightblue" points="214.431,-90.5228 203.94,-92.0049 213.066,-97.3883 214.431,-90.5228"/>
</g>
<!-- Node9 -->
<g id="node9" class="node"><title>Node9</title>
<polygon fill="none" stroke="#bfbfbf" points="1191,-67.5 1191,-97.5 1342,-97.5 1342,-67.5 1191,-67.5"/>
<text text-anchor="start" x="1199" y="-85.5" font-family="Helvetica,sans-Serif" font-size="10.00">Math/GenVector/Displacement</text>
<text text-anchor="middle" x="1266.5" y="-74.5" font-family="Helvetica,sans-Serif" font-size="10.00">Vector3D.h</text>
</g>
<!-- Node8&#45;&gt;Node9 -->
<g id="edge8" class="edge"><title>Node8&#45;&gt;Node9</title>
<path fill="none" stroke="midnightblue" d="M836.011,-137.325C914.328,-129.946 1052.87,-116.008 1180.99,-98.164"/>
<polygon fill="midnightblue" stroke="midnightblue" points="1181.56,-101.618 1190.98,-96.7615 1180.59,-94.6858 1181.56,-101.618"/>
</g>
<!-- Node10 -->
<g id="node10" class="node"><title>Node10</title>
<polygon fill="none" stroke="#bfbfbf" points="246.5,-73 246.5,-92 422.5,-92 422.5,-73 246.5,-73"/>
<text text-anchor="middle" x="334.5" y="-80" font-family="Helvetica,sans-Serif" font-size="10.00">Math/GenVector/PositionVector3D.h</text>
</g>
<!-- Node8&#45;&gt;Node10 -->
<g id="edge9" class="edge"><title>Node8&#45;&gt;Node10</title>
<path fill="none" stroke="midnightblue" d="M710.861,-135.154C642.059,-126.448 528.328,-111.804 430.5,-98 420.548,-96.5958 410.025,-95.0591 399.735,-93.5278"/>
<polygon fill="midnightblue" stroke="midnightblue" points="399.962,-90.0228 389.554,-92.0034 398.925,-96.9456 399.962,-90.0228"/>
</g>
<!-- Node11 -->
<g id="node11" class="node"><title>Node11</title>
<polygon fill="none" stroke="#bfbfbf" points="440,-73 440,-92 589,-92 589,-73 440,-73"/>
<text text-anchor="middle" x="514.5" y="-80" font-family="Helvetica,sans-Serif" font-size="10.00">Math/GenVector/Rotation3D.h</text>
</g>
<!-- Node8&#45;&gt;Node11 -->
<g id="edge10" class="edge"><title>Node8&#45;&gt;Node11</title>
<path fill="none" stroke="midnightblue" d="M736.392,-134.475C690.329,-123.893 611.726,-105.836 561.497,-94.2966"/>
<polygon fill="midnightblue" stroke="midnightblue" points="562.069,-90.837 551.54,-92.0091 560.502,-97.6593 562.069,-90.837"/>
</g>
<!-- Node12 -->
<g id="node12" class="node"><title>Node12</title>
<polygon fill="none" stroke="#bfbfbf" points="607.5,-73 607.5,-92 763.5,-92 763.5,-73 607.5,-73"/>
<text text-anchor="middle" x="685.5" y="-80" font-family="Helvetica,sans-Serif" font-size="10.00">Math/GenVector/Transform3D.h</text>
</g>
<!-- Node8&#45;&gt;Node12 -->
<g id="edge11" class="edge"><title>Node8&#45;&gt;Node12</title>
<path fill="none" stroke="midnightblue" d="M760.892,-134.475C746.777,-124.931 723.669,-109.307 706.751,-97.8683"/>
<polygon fill="midnightblue" stroke="midnightblue" points="708.329,-94.7109 698.085,-92.0091 704.409,-100.51 708.329,-94.7109"/>
</g>
<!-- Node13 -->
<g id="node13" class="node"><title>Node13</title>
<polygon fill="none" stroke="#bfbfbf" points="781.5,-73 781.5,-92 941.5,-92 941.5,-73 781.5,-73"/>
<text text-anchor="middle" x="861.5" y="-80" font-family="Helvetica,sans-Serif" font-size="10.00">Math/GenVector/Translation3D.h</text>
</g>
<!-- Node8&#45;&gt;Node13 -->
<g id="edge12" class="edge"><title>Node8&#45;&gt;Node13</title>
<path fill="none" stroke="midnightblue" d="M786.108,-134.475C800.223,-124.931 823.331,-109.307 840.249,-97.8683"/>
<polygon fill="midnightblue" stroke="midnightblue" points="842.591,-100.51 848.915,-92.0091 838.671,-94.7109 842.591,-100.51"/>
</g>
<!-- Node14 -->
<g id="node14" class="node"><title>Node14</title>
<polygon fill="none" stroke="#bfbfbf" points="959.5,-73 959.5,-92 1015.5,-92 1015.5,-73 959.5,-73"/>
<text text-anchor="middle" x="987.5" y="-80" font-family="Helvetica,sans-Serif" font-size="10.00">Rtypes.h</text>
</g>
<!-- Node8&#45;&gt;Node14 -->
<g id="edge13" class="edge"><title>Node8&#45;&gt;Node14</title>
<path fill="none" stroke="midnightblue" d="M812.917,-134.462C849.052,-126.286 903.867,-113.001 950.5,-98 952.772,-97.2691 955.106,-96.471 957.443,-95.6371"/>
<polygon fill="midnightblue" stroke="midnightblue" points="958.783,-98.8728 966.921,-92.0889 956.328,-92.3172 958.783,-98.8728"/>
</g>
<!-- Node15 -->
<g id="node15" class="node"><title>Node15</title>
<polygon fill="none" stroke="#bfbfbf" points="1033.5,-73 1033.5,-92 1109.5,-92 1109.5,-73 1033.5,-73"/>
<text text-anchor="middle" x="1071.5" y="-80" font-family="Helvetica,sans-Serif" font-size="10.00">TGeoMatrix.h</text>
</g>
<!-- Node8&#45;&gt;Node15 -->
<g id="edge14" class="edge"><title>Node8&#45;&gt;Node15</title>
<path fill="none" stroke="midnightblue" d="M832.754,-134.464C883.886,-126.602 959.54,-113.781 1024.5,-98 1028.31,-97.074 1032.27,-96.0134 1036.2,-94.8963"/>
<polygon fill="midnightblue" stroke="midnightblue" points="1037.21,-98.2472 1045.8,-92.0478 1035.22,-91.5363 1037.21,-98.2472"/>
</g>
<!-- Node16 -->
<g id="node16" class="node"><title>Node16</title>
<polygon fill="none" stroke="#bfbfbf" points="1128,-73 1128,-92 1173,-92 1173,-73 1128,-73"/>
<text text-anchor="middle" x="1150.5" y="-80" font-family="Helvetica,sans-Serif" font-size="10.00">iosfwd</text>
</g>
<!-- Node8&#45;&gt;Node16 -->
<g id="edge15" class="edge"><title>Node8&#45;&gt;Node16</title>
<path fill="none" stroke="midnightblue" d="M836.001,-140.394C905.985,-136.208 1022.21,-125.435 1118.5,-98 1120.44,-97.4485 1122.4,-96.7982 1124.36,-96.0837"/>
<polygon fill="midnightblue" stroke="midnightblue" points="1126.01,-99.1917 1133.91,-92.1376 1123.33,-92.7223 1126.01,-99.1917"/>
</g>
<!-- Node17&#45;&gt;Node3 -->
<g id="edge19" class="edge"><title>Node17&#45;&gt;Node3</title>
<path fill="none" stroke="midnightblue" d="M527.169,-246.444C507.18,-237.596 475.757,-223.687 452.936,-213.586"/>
<polygon fill="midnightblue" stroke="midnightblue" points="454.302,-210.363 443.741,-209.516 451.468,-216.764 454.302,-210.363"/>
</g>
<!-- Node18 -->
<g id="node18" class="node"><title>Node18</title>
<g id="a_node18"><a xlink:href="../../d0/dda/DataFormats_2Detectors_2TPC_2include_2DataFormatsTPC_2Constants_8h.html" target="_top" xlink:title="DataFormatsTPC/Constants.h">
<polygon fill="none" stroke="black" points="505.5,-190.5 505.5,-209.5 655.5,-209.5 655.5,-190.5 505.5,-190.5"/>
<text text-anchor="middle" x="580.5" y="-197.5" font-family="Helvetica,sans-Serif" font-size="10.00">DataFormatsTPC/Constants.h</text>
</a>
</g>
</g>
<!-- Node17&#45;&gt;Node18 -->
<g id="edge18" class="edge"><title>Node17&#45;&gt;Node18</title>
<path fill="none" stroke="midnightblue" d="M552.114,-246.083C556.867,-238.534 563.818,-227.495 569.652,-218.23"/>
<polygon fill="midnightblue" stroke="midnightblue" points="572.624,-220.078 574.99,-209.751 566.7,-216.349 572.624,-220.078"/>
</g>
<!-- Node19&#45;&gt;Node3 -->
<g id="edge21" class="edge"><title>Node19&#45;&gt;Node3</title>
<path fill="none" stroke="midnightblue" d="M476.106,-302.368C466.946,-284.376 445.653,-242.55 433.474,-218.627"/>
<polygon fill="midnightblue" stroke="midnightblue" points="436.53,-216.915 428.874,-209.591 430.292,-220.091 436.53,-216.915"/>
</g>
<!-- Node19&#45;&gt;Node17 -->
<g id="edge22" class="edge"><title>Node19&#45;&gt;Node17</title>
<path fill="none" stroke="midnightblue" d="M491.104,-302.324C500.956,-294.263 515.851,-282.077 527.715,-272.369"/>
<polygon fill="midnightblue" stroke="midnightblue" points="530.18,-274.875 535.703,-265.834 525.747,-269.457 530.18,-274.875"/>
</g>
</g>
</svg>
