<?xml version="1.0" encoding="UTF-8" standalone="no"?>
<!DOCTYPE svg PUBLIC "-//W3C//DTD SVG 1.1//EN"
 "http://www.w3.org/Graphics/SVG/1.1/DTD/svg11.dtd">
<!-- Generated by graphviz version 2.38.0 (20140413.2041)
 -->
<!-- Title: o2::emcal::Geometry Pages: 1 -->
<svg width="902pt" height="1216pt"
 viewBox="0.00 0.00 901.50 1216.00" xmlns="http://www.w3.org/2000/svg" xmlns:xlink="http://www.w3.org/1999/xlink">
<g id="graph0" class="graph" transform="scale(1 1) rotate(0) translate(4 1212)">
<title>o2::emcal::Geometry</title>
<!-- Node1 -->
<g id="node1" class="node"><title>Node1</title>
<polygon fill="#bfbfbf" stroke="black" points="407.5,-0.5 407.5,-981.5 567.5,-981.5 567.5,-0.5 407.5,-0.5"/>
<text text-anchor="middle" x="487.5" y="-969.5" font-family="Helvetica,sans-Serif" font-size="10.00">o2::emcal::Geometry</text>
<polyline fill="none" stroke="black" points="407.5,-962.5 567.5,-962.5 "/>
<text text-anchor="start" x="415.5" y="-950.5" font-family="Helvetica,sans-Serif" font-size="10.00"># mNCells</text>
<text text-anchor="start" x="415.5" y="-939.5" font-family="Helvetica,sans-Serif" font-size="10.00"># mNPhi</text>
<text text-anchor="start" x="415.5" y="-928.5" font-family="Helvetica,sans-Serif" font-size="10.00"># mEnvelop</text>
<text text-anchor="start" x="415.5" y="-917.5" font-family="Helvetica,sans-Serif" font-size="10.00"># mArm1EtaMin</text>
<text text-anchor="start" x="415.5" y="-906.5" font-family="Helvetica,sans-Serif" font-size="10.00"># mArm1EtaMax</text>
<text text-anchor="start" x="415.5" y="-895.5" font-family="Helvetica,sans-Serif" font-size="10.00"># mArm1PhiMin</text>
<text text-anchor="start" x="415.5" y="-884.5" font-family="Helvetica,sans-Serif" font-size="10.00"># mArm1PhiMax</text>
<text text-anchor="start" x="415.5" y="-873.5" font-family="Helvetica,sans-Serif" font-size="10.00"># mEtaMaxOfTRD1</text>
<text text-anchor="start" x="415.5" y="-862.5" font-family="Helvetica,sans-Serif" font-size="10.00"># mDCALPhiMin</text>
<text text-anchor="start" x="415.5" y="-851.5" font-family="Helvetica,sans-Serif" font-size="10.00"># mDCALPhiMax</text>
<text text-anchor="start" x="415.5" y="-840.5" font-family="Helvetica,sans-Serif" font-size="10.00"># mDCALStandardPhiMax</text>
<text text-anchor="start" x="415.5" y="-829.5" font-family="Helvetica,sans-Serif" font-size="10.00"># mDCALInnerEdge</text>
<text text-anchor="start" x="415.5" y="-818.5" font-family="Helvetica,sans-Serif" font-size="10.00"># mEtaModuleSize</text>
<text text-anchor="start" x="415.5" y="-807.5" font-family="Helvetica,sans-Serif" font-size="10.00"># mEtaTileSize</text>
<text text-anchor="start" x="415.5" y="-796.5" font-family="Helvetica,sans-Serif" font-size="10.00"># mLongModuleSize</text>
<text text-anchor="start" x="415.5" y="-785.5" font-family="Helvetica,sans-Serif" font-size="10.00"># mShellThickness</text>
<text text-anchor="start" x="415.5" y="-774.5" font-family="Helvetica,sans-Serif" font-size="10.00"># mSampling</text>
<text text-anchor="start" x="415.5" y="-763.5" font-family="Helvetica,sans-Serif" font-size="10.00"># mECScintThick</text>
<text text-anchor="start" x="415.5" y="-752.5" font-family="Helvetica,sans-Serif" font-size="10.00"># mNECLayers</text>
<text text-anchor="start" x="415.5" y="-741.5" font-family="Helvetica,sans-Serif" font-size="10.00"># mNumberOfSuperModules</text>
<text text-anchor="start" x="415.5" y="-730.5" font-family="Helvetica,sans-Serif" font-size="10.00"># mFrontSteelStrip</text>
<text text-anchor="start" x="415.5" y="-719.5" font-family="Helvetica,sans-Serif" font-size="10.00"># mPassiveScintThick</text>
<text text-anchor="start" x="415.5" y="-708.5" font-family="Helvetica,sans-Serif" font-size="10.00"># mPhiSuperModule</text>
<text text-anchor="start" x="415.5" y="-697.5" font-family="Helvetica,sans-Serif" font-size="10.00"># mTrd1Angle</text>
<text text-anchor="start" x="415.5" y="-686.5" font-family="Helvetica,sans-Serif" font-size="10.00"># m2Trd1Dx2</text>
<text text-anchor="start" x="415.5" y="-675.5" font-family="Helvetica,sans-Serif" font-size="10.00"># mPhiGapForSM</text>
<text text-anchor="start" x="415.5" y="-664.5" font-family="Helvetica,sans-Serif" font-size="10.00"># mTrd1AlFrontThick</text>
<text text-anchor="start" x="415.5" y="-653.5" font-family="Helvetica,sans-Serif" font-size="10.00"># mTrd1BondPaperThick</text>
<polyline fill="none" stroke="black" points="407.5,-646.5 567.5,-646.5 "/>
<text text-anchor="start" x="415.5" y="-634.5" font-family="Helvetica,sans-Serif" font-size="10.00">+ Geometry()</text>
<text text-anchor="start" x="415.5" y="-623.5" font-family="Helvetica,sans-Serif" font-size="10.00">+ Geometry()</text>
<text text-anchor="start" x="415.5" y="-612.5" font-family="Helvetica,sans-Serif" font-size="10.00">+ Geometry()</text>
<text text-anchor="start" x="415.5" y="-601.5" font-family="Helvetica,sans-Serif" font-size="10.00">+ ~Geometry()</text>
<text text-anchor="start" x="415.5" y="-590.5" font-family="Helvetica,sans-Serif" font-size="10.00">+ operator=()</text>
<text text-anchor="start" x="415.5" y="-579.5" font-family="Helvetica,sans-Serif" font-size="10.00">+ DefineSamplingFraction()</text>
<text text-anchor="start" x="415.5" y="-568.5" font-family="Helvetica,sans-Serif" font-size="10.00">+ GetName()</text>
<text text-anchor="start" x="415.5" y="-557.5" font-family="Helvetica,sans-Serif" font-size="10.00">+ CreateListOfTrd1Modules()</text>
<text text-anchor="start" x="415.5" y="-546.5" font-family="Helvetica,sans-Serif" font-size="10.00">+ GetShishKebabTrd1Modules()</text>
<text text-anchor="start" x="415.5" y="-535.5" font-family="Helvetica,sans-Serif" font-size="10.00">+ GetShishKebabModule()</text>
<text text-anchor="start" x="415.5" y="-524.5" font-family="Helvetica,sans-Serif" font-size="10.00">+ Impact()</text>
<text text-anchor="start" x="415.5" y="-513.5" font-family="Helvetica,sans-Serif" font-size="10.00">+ ImpactOnEmcal()</text>
<text text-anchor="start" x="415.5" y="-502.5" font-family="Helvetica,sans-Serif" font-size="10.00">+ IsInEMCAL()</text>
<text text-anchor="start" x="415.5" y="-491.5" font-family="Helvetica,sans-Serif" font-size="10.00">+ IsInDCAL()</text>
<text text-anchor="start" x="415.5" y="-480.5" font-family="Helvetica,sans-Serif" font-size="10.00">+ IsInEMCALOrDCAL()</text>
<text text-anchor="start" x="415.5" y="-469.5" font-family="Helvetica,sans-Serif" font-size="10.00">+ GetNameOfEMCALEnvelope()</text>
<text text-anchor="start" x="415.5" y="-458.5" font-family="Helvetica,sans-Serif" font-size="10.00">+ GetArm1PhiMin()</text>
<text text-anchor="start" x="415.5" y="-447.5" font-family="Helvetica,sans-Serif" font-size="10.00">+ GetArm1PhiMax()</text>
<text text-anchor="start" x="415.5" y="-436.5" font-family="Helvetica,sans-Serif" font-size="10.00">+ GetArm1EtaMin()</text>
<text text-anchor="start" x="415.5" y="-425.5" font-family="Helvetica,sans-Serif" font-size="10.00">+ GetArm1EtaMax()</text>
<text text-anchor="start" x="415.5" y="-414.5" font-family="Helvetica,sans-Serif" font-size="10.00">+ GetIPDistance()</text>
<text text-anchor="start" x="415.5" y="-403.5" font-family="Helvetica,sans-Serif" font-size="10.00">+ GetEnvelop()</text>
<text text-anchor="start" x="415.5" y="-392.5" font-family="Helvetica,sans-Serif" font-size="10.00">+ GetShellThickness()</text>
<text text-anchor="start" x="415.5" y="-381.5" font-family="Helvetica,sans-Serif" font-size="10.00">+ GetZLength()</text>
<text text-anchor="start" x="415.5" y="-370.5" font-family="Helvetica,sans-Serif" font-size="10.00">+ GetDCALInnerEdge()</text>
<text text-anchor="start" x="415.5" y="-359.5" font-family="Helvetica,sans-Serif" font-size="10.00">+ GetDCALPhiMin()</text>
<text text-anchor="start" x="415.5" y="-348.5" font-family="Helvetica,sans-Serif" font-size="10.00">+ GetDCALPhiMax()</text>
<text text-anchor="start" x="415.5" y="-337.5" font-family="Helvetica,sans-Serif" font-size="10.00">+ GetEMCALPhiMax()</text>
<text text-anchor="start" x="415.5" y="-326.5" font-family="Helvetica,sans-Serif" font-size="10.00">+ GetDCALStandardPhiMax()</text>
<text text-anchor="start" x="415.5" y="-315.5" font-family="Helvetica,sans-Serif" font-size="10.00">+ GetNECLayers()</text>
<text text-anchor="start" x="415.5" y="-304.5" font-family="Helvetica,sans-Serif" font-size="10.00">+ GetDCALInnerExtandedEta()</text>
<text text-anchor="start" x="415.5" y="-293.5" font-family="Helvetica,sans-Serif" font-size="10.00">+ GetNZ()</text>
<text text-anchor="start" x="415.5" y="-282.5" font-family="Helvetica,sans-Serif" font-size="10.00">+ GetNEta()</text>
<text text-anchor="start" x="415.5" y="-271.5" font-family="Helvetica,sans-Serif" font-size="10.00">+ GetNPhi()</text>
<text text-anchor="start" x="415.5" y="-260.5" font-family="Helvetica,sans-Serif" font-size="10.00">+ GetECPbRadThick()</text>
<text text-anchor="start" x="415.5" y="-249.5" font-family="Helvetica,sans-Serif" font-size="10.00">+ GetECScintThick()</text>
<text text-anchor="start" x="415.5" y="-238.5" font-family="Helvetica,sans-Serif" font-size="10.00">+ GetSampling()</text>
<text text-anchor="start" x="415.5" y="-227.5" font-family="Helvetica,sans-Serif" font-size="10.00">+ GetNumberOfSuperModules()</text>
<text text-anchor="start" x="415.5" y="-216.5" font-family="Helvetica,sans-Serif" font-size="10.00">+ GetPhiGapForSuperModules()</text>
<text text-anchor="start" x="415.5" y="-205.5" font-family="Helvetica,sans-Serif" font-size="10.00">+ GetPhiModuleSize()</text>
<text text-anchor="start" x="415.5" y="-194.5" font-family="Helvetica,sans-Serif" font-size="10.00">+ GetEtaModuleSize()</text>
<text text-anchor="start" x="415.5" y="-183.5" font-family="Helvetica,sans-Serif" font-size="10.00">+ GetFrontSteelStrip()</text>
<text text-anchor="start" x="415.5" y="-172.5" font-family="Helvetica,sans-Serif" font-size="10.00">+ GetLateralSteelStrip()</text>
<text text-anchor="start" x="415.5" y="-161.5" font-family="Helvetica,sans-Serif" font-size="10.00">+ GetPassiveScintThick()</text>
<text text-anchor="start" x="415.5" y="-150.5" font-family="Helvetica,sans-Serif" font-size="10.00">+ GetPhiTileSize()</text>
<text text-anchor="start" x="415.5" y="-139.5" font-family="Helvetica,sans-Serif" font-size="10.00">+ GetEtaTileSize()</text>
<text text-anchor="start" x="415.5" y="-128.5" font-family="Helvetica,sans-Serif" font-size="10.00">+ GetPhiSuperModule()</text>
<text text-anchor="start" x="415.5" y="-117.5" font-family="Helvetica,sans-Serif" font-size="10.00">+ GetNPhiSuperModule()</text>
<text text-anchor="start" x="415.5" y="-106.5" font-family="Helvetica,sans-Serif" font-size="10.00">+ GetNPHIdiv()</text>
<text text-anchor="start" x="415.5" y="-95.5" font-family="Helvetica,sans-Serif" font-size="10.00">+ GetNETAdiv()</text>
<text text-anchor="start" x="415.5" y="-84.5" font-family="Helvetica,sans-Serif" font-size="10.00">and 63 more...</text>
<text text-anchor="start" x="415.5" y="-73.5" font-family="Helvetica,sans-Serif" font-size="10.00">+ GetInstance()</text>
<text text-anchor="start" x="415.5" y="-62.5" font-family="Helvetica,sans-Serif" font-size="10.00">+ GetInstance()</text>
<text text-anchor="start" x="415.5" y="-51.5" font-family="Helvetica,sans-Serif" font-size="10.00">+ GetInstanceFromRunNumber()</text>
<text text-anchor="start" x="415.5" y="-40.5" font-family="Helvetica,sans-Serif" font-size="10.00">+ GetDefaultGeometryName()</text>
<text text-anchor="start" x="415.5" y="-29.5" font-family="Helvetica,sans-Serif" font-size="10.00">+ IsInitialized()</text>
<text text-anchor="start" x="415.5" y="-18.5" font-family="Helvetica,sans-Serif" font-size="10.00"># Init()</text>
<text text-anchor="start" x="415.5" y="-7.5" font-family="Helvetica,sans-Serif" font-size="10.00"># DefineEMC()</text>
</g>
<!-- Node2 -->
<g id="node2" class="node"><title>Node2</title>
<polygon fill="none" stroke="#bfbfbf" points="0,-1139.5 0,-1207.5 129,-1207.5 129,-1139.5 0,-1139.5"/>
<text text-anchor="start" x="8" y="-1195.5" font-family="Helvetica,sans-Serif" font-size="10.00">vector&lt; o2::emcal::</text>
<text text-anchor="middle" x="64.5" y="-1184.5" font-family="Helvetica,sans-Serif" font-size="10.00">ShishKebabTrd1Module &gt;</text>
<polyline fill="none" stroke="#bfbfbf" points="0,-1177.5 129,-1177.5 "/>
<text text-anchor="middle" x="64.5" y="-1165.5" font-family="Helvetica,sans-Serif" font-size="10.00"> </text>
<polyline fill="none" stroke="#bfbfbf" points="0,-1158.5 129,-1158.5 "/>
<text text-anchor="middle" x="64.5" y="-1146.5" font-family="Helvetica,sans-Serif" font-size="10.00"> </text>
</g>
<!-- Node2&#45;&gt;Node1 -->
<g id="edge1" class="edge"><title>Node2&#45;&gt;Node1</title>
<path fill="none" stroke="#404040" d="M63.8042,-1139.36C64.1994,-1103.6 68.2146,-1045.64 87.5,-1000 159.42,-829.789 304.235,-668.434 398.464,-574.921"/>
<polygon fill="none" stroke="#404040" points="398.595,-574.792 400.057,-567.73 407.137,-566.364 405.676,-573.425 398.595,-574.792"/>
<text text-anchor="middle" x="150.5" y="-1058" font-family="Helvetica,sans-Serif" font-size="10.00"> #mShishKebabTrd1Modules</text>
</g>
<!-- Node3 -->
<g id="node3" class="node"><title>Node3</title>
<g id="a_node3"><a xlink:href="../../d9/d7d/classFloat__t.html" target="_top" xlink:title="{Float_t\n||}">
<polygon fill="none" stroke="black" points="190,-1145 190,-1202 237,-1202 237,-1145 190,-1145"/>
<text text-anchor="middle" x="213.5" y="-1190" font-family="Helvetica,sans-Serif" font-size="10.00">Float_t</text>
<polyline fill="none" stroke="black" points="190,-1183 237,-1183 "/>
<text text-anchor="middle" x="213.5" y="-1171" font-family="Helvetica,sans-Serif" font-size="10.00"> </text>
<polyline fill="none" stroke="black" points="190,-1164 237,-1164 "/>
<text text-anchor="middle" x="213.5" y="-1152" font-family="Helvetica,sans-Serif" font-size="10.00"> </text>
</a>
</g>
</g>
<!-- Node3&#45;&gt;Node1 -->
<g id="edge2" class="edge"><title>Node3&#45;&gt;Node1</title>
<path fill="none" stroke="#404040" d="M214.645,-1144.73C216.685,-1110.14 222.285,-1049.57 237.5,-1000 277.048,-871.141 345.96,-734.57 401.431,-635.523"/>
<polygon fill="none" stroke="#404040" points="401.553,-635.306 401.01,-628.115 407.438,-624.848 407.982,-632.039 401.553,-635.306"/>
<text text-anchor="middle" x="297" y="-1113" font-family="Helvetica,sans-Serif" font-size="10.00"> #mECPbRadThickness</text>
<text text-anchor="middle" x="297" y="-1102" font-family="Helvetica,sans-Serif" font-size="10.00">#mParSM</text>
<text text-anchor="middle" x="297" y="-1091" font-family="Helvetica,sans-Serif" font-size="10.00">#mDCALInnerExtandedEta</text>
<text text-anchor="middle" x="297" y="-1080" font-family="Helvetica,sans-Serif" font-size="10.00">#mPhiTileSize</text>
<text text-anchor="middle" x="297" y="-1069" font-family="Helvetica,sans-Serif" font-size="10.00">#mSteelFrontThick</text>
<text text-anchor="middle" x="297" y="-1058" font-family="Helvetica,sans-Serif" font-size="10.00">#mZLength</text>
<text text-anchor="middle" x="297" y="-1047" font-family="Helvetica,sans-Serif" font-size="10.00">#mIPDistance</text>
<text text-anchor="middle" x="297" y="-1036" font-family="Helvetica,sans-Serif" font-size="10.00">#mPhiModuleSize</text>
<text text-anchor="middle" x="297" y="-1025" font-family="Helvetica,sans-Serif" font-size="10.00">#mLateralSteelStrip</text>
<text text-anchor="middle" x="297" y="-1014" font-family="Helvetica,sans-Serif" font-size="10.00">#mEMCALPhiMax</text>
<text text-anchor="middle" x="297" y="-1003" font-family="Helvetica,sans-Serif" font-size="10.00">...</text>
</g>
<!-- Node4 -->
<g id="node4" class="node"><title>Node4</title>
<polygon fill="none" stroke="#bfbfbf" points="305,-1145 305,-1202 406,-1202 406,-1145 305,-1145"/>
<text text-anchor="middle" x="355.5" y="-1190" font-family="Helvetica,sans-Serif" font-size="10.00">vector&lt; Double_t &gt;</text>
<polyline fill="none" stroke="#bfbfbf" points="305,-1183 406,-1183 "/>
<text text-anchor="middle" x="355.5" y="-1171" font-family="Helvetica,sans-Serif" font-size="10.00"> </text>
<polyline fill="none" stroke="#bfbfbf" points="305,-1164 406,-1164 "/>
<text text-anchor="middle" x="355.5" y="-1152" font-family="Helvetica,sans-Serif" font-size="10.00"> </text>
</g>
<!-- Node4&#45;&gt;Node1 -->
<g id="edge3" class="edge"><title>Node4&#45;&gt;Node1</title>
<path fill="none" stroke="#404040" d="M357.606,-1144.89C360.427,-1110.72 366.074,-1050.83 374.5,-1000 383.156,-947.788 393.767,-892.873 404.985,-839.225"/>
<polygon fill="none" stroke="#404040" points="404.994,-839.181 402.315,-832.487 407.464,-827.438 410.143,-834.133 404.994,-839.181"/>
<text text-anchor="middle" x="429" y="-1096.5" font-family="Helvetica,sans-Serif" font-size="10.00"> #mPhiCentersOfSMSec</text>
<text text-anchor="middle" x="429" y="-1085.5" font-family="Helvetica,sans-Serif" font-size="10.00">#mPhiCentersOfSM</text>
<text text-anchor="middle" x="429" y="-1074.5" font-family="Helvetica,sans-Serif" font-size="10.00">#mPhiCentersOfCells</text>
<text text-anchor="middle" x="429" y="-1063.5" font-family="Helvetica,sans-Serif" font-size="10.00">#mCentersOfCellsEtaDir</text>
<text text-anchor="middle" x="429" y="-1052.5" font-family="Helvetica,sans-Serif" font-size="10.00">#mPhiBoundariesOfSM</text>
<text text-anchor="middle" x="429" y="-1041.5" font-family="Helvetica,sans-Serif" font-size="10.00">#mCentersOfCellsPhiDir</text>
<text text-anchor="middle" x="429" y="-1030.5" font-family="Helvetica,sans-Serif" font-size="10.00">#mCentersOfCellsXDir</text>
<text text-anchor="middle" x="429" y="-1019.5" font-family="Helvetica,sans-Serif" font-size="10.00">#mEtaCentersOfCells</text>
</g>
<!-- Node5 -->
<g id="node5" class="node"><title>Node5</title>
<polygon fill="none" stroke="#bfbfbf" points="473,-1145 473,-1202 502,-1202 502,-1145 473,-1145"/>
<text text-anchor="middle" x="487.5" y="-1190" font-family="Helvetica,sans-Serif" font-size="10.00">int</text>
<polyline fill="none" stroke="#bfbfbf" points="473,-1183 502,-1183 "/>
<text text-anchor="middle" x="487.5" y="-1171" font-family="Helvetica,sans-Serif" font-size="10.00"> </text>
<polyline fill="none" stroke="#bfbfbf" points="473,-1164 502,-1164 "/>
<text text-anchor="middle" x="487.5" y="-1152" font-family="Helvetica,sans-Serif" font-size="10.00"> </text>
</g>
<!-- Node5&#45;&gt;Node1 -->
<g id="edge4" class="edge"><title>Node5&#45;&gt;Node1</title>
<path fill="none" stroke="#404040" d="M487.5,-1144.98C487.5,-1113.91 487.5,-1059.1 487.5,-993.994"/>
<polygon fill="none" stroke="#404040" points="487.5,-993.721 483.5,-987.721 487.5,-981.721 491.5,-987.721 487.5,-993.721"/>
<text text-anchor="middle" x="518" y="-1058" font-family="Helvetica,sans-Serif" font-size="10.00"> #mGeoName</text>
</g>
<!-- Node6 -->
<g id="node6" class="node"><title>Node6</title>
<polygon fill="none" stroke="#bfbfbf" points="551,-1145 551,-1202 592,-1202 592,-1145 551,-1145"/>
<text text-anchor="middle" x="571.5" y="-1190" font-family="Helvetica,sans-Serif" font-size="10.00">const</text>
<polyline fill="none" stroke="#bfbfbf" points="551,-1183 592,-1183 "/>
<text text-anchor="middle" x="571.5" y="-1171" font-family="Helvetica,sans-Serif" font-size="10.00"> </text>
<polyline fill="none" stroke="#bfbfbf" points="551,-1164 592,-1164 "/>
<text text-anchor="middle" x="571.5" y="-1152" font-family="Helvetica,sans-Serif" font-size="10.00"> </text>
</g>
<!-- Node6&#45;&gt;Node1 -->
<g id="edge5" class="edge"><title>Node6&#45;&gt;Node1</title>
<path fill="none" stroke="#404040" d="M568.103,-1144.98C564.267,-1113.91 557.502,-1059.1 549.465,-993.994"/>
<polygon fill="none" stroke="#404040" points="549.421,-993.631 544.716,-988.166 547.951,-981.721 552.656,-987.186 549.421,-993.631"/>
<text text-anchor="middle" x="613" y="-1058" font-family="Helvetica,sans-Serif" font-size="10.00"> #SMODULEMATRIX</text>
</g>
<!-- Node7 -->
<g id="node7" class="node"><title>Node7</title>
<polygon fill="none" stroke="#bfbfbf" points="625,-1145 625,-1202 758,-1202 758,-1145 625,-1145"/>
<text text-anchor="middle" x="691.5" y="-1190" font-family="Helvetica,sans-Serif" font-size="10.00">vector&lt; EMCALSMType &gt;</text>
<polyline fill="none" stroke="#bfbfbf" points="625,-1183 758,-1183 "/>
<text text-anchor="middle" x="691.5" y="-1171" font-family="Helvetica,sans-Serif" font-size="10.00"> </text>
<polyline fill="none" stroke="#bfbfbf" points="625,-1164 758,-1164 "/>
<text text-anchor="middle" x="691.5" y="-1152" font-family="Helvetica,sans-Serif" font-size="10.00"> </text>
</g>
<!-- Node7&#45;&gt;Node1 -->
<g id="edge6" class="edge"><title>Node7&#45;&gt;Node1</title>
<path fill="none" stroke="#404040" d="M688.931,-1144.7C685.386,-1110.34 677.977,-1050.26 665.5,-1000 640.94,-901.061 604.991,-794.202 571.819,-704.137"/>
<polygon fill="none" stroke="#404040" points="571.742,-703.93 565.909,-699.69 567.579,-692.675 573.412,-696.915 571.742,-703.93"/>
<text text-anchor="middle" x="730.5" y="-1058" font-family="Helvetica,sans-Serif" font-size="10.00"> #mEMCSMSystem</text>
</g>
<!-- Node8 -->
<g id="node8" class="node"><title>Node8</title>
<polygon fill="none" stroke="#bfbfbf" points="784.5,-1145 784.5,-1202 820.5,-1202 820.5,-1145 784.5,-1145"/>
<text text-anchor="middle" x="802.5" y="-1190" font-family="Helvetica,sans-Serif" font-size="10.00">Int_t</text>
<polyline fill="none" stroke="#bfbfbf" points="784.5,-1183 820.5,-1183 "/>
<text text-anchor="middle" x="802.5" y="-1171" font-family="Helvetica,sans-Serif" font-size="10.00"> </text>
<polyline fill="none" stroke="#bfbfbf" points="784.5,-1164 820.5,-1164 "/>
<text text-anchor="middle" x="802.5" y="-1152" font-family="Helvetica,sans-Serif" font-size="10.00"> </text>
</g>
<!-- Node8&#45;&gt;Node1 -->
<g id="edge7" class="edge"><title>Node8&#45;&gt;Node1</title>
<path fill="none" stroke="#404040" d="M801.875,-1144.87C800.368,-1110.17 795.314,-1049.21 778.5,-1000 730.21,-858.659 641.471,-712.193 574.633,-613.06"/>
<polygon fill="none" stroke="#404040" points="574.559,-612.95 567.882,-610.227 567.827,-603.016 574.504,-605.739 574.559,-612.95"/>
<text text-anchor="middle" x="847" y="-1113" font-family="Helvetica,sans-Serif" font-size="10.00"> #mNETAdiv</text>
<text text-anchor="middle" x="847" y="-1102" font-family="Helvetica,sans-Serif" font-size="10.00">#mNZ</text>
<text text-anchor="middle" x="847" y="-1091" font-family="Helvetica,sans-Serif" font-size="10.00">#mILOSS</text>
<text text-anchor="middle" x="847" y="-1080" font-family="Helvetica,sans-Serif" font-size="10.00">#mNPHIdiv</text>
<text text-anchor="middle" x="847" y="-1069" font-family="Helvetica,sans-Serif" font-size="10.00">#mNCellsInSupMod</text>
<text text-anchor="middle" x="847" y="-1058" font-family="Helvetica,sans-Serif" font-size="10.00">#mNPhiSuperModule</text>
<text text-anchor="middle" x="847" y="-1047" font-family="Helvetica,sans-Serif" font-size="10.00">#mIHADR</text>
<text text-anchor="middle" x="847" y="-1036" font-family="Helvetica,sans-Serif" font-size="10.00">#mNCellsInModule</text>
<text text-anchor="middle" x="847" y="-1025" font-family="Helvetica,sans-Serif" font-size="10.00">#mnSupModInDCAL</text>
<text text-anchor="middle" x="847" y="-1014" font-family="Helvetica,sans-Serif" font-size="10.00">#mKey110DEG</text>
<text text-anchor="middle" x="847" y="-1003" font-family="Helvetica,sans-Serif" font-size="10.00">...</text>
</g>
</g>
</svg>
