<?xml version="1.0" encoding="UTF-8" standalone="no"?>
<!DOCTYPE svg PUBLIC "-//W3C//DTD SVG 1.1//EN"
 "http://www.w3.org/Graphics/SVG/1.1/DTD/svg11.dtd">
<!-- Generated by graphviz version 2.38.0 (20140413.2041)
 -->
<!-- Title: /home/travis/build/AliceO2Group/AliceO2/Detectors/MUON/MID/Simulation/include/MIDSimulation/ChamberHV.h Pages: 1 -->
<svg width="721pt" height="328pt"
 viewBox="0.00 0.00 721.00 328.00" xmlns="http://www.w3.org/2000/svg" xmlns:xlink="http://www.w3.org/1999/xlink">
<g id="graph0" class="graph" transform="scale(1 1) rotate(0) translate(4 324)">
<title>/home/travis/build/AliceO2Group/AliceO2/Detectors/MUON/MID/Simulation/include/MIDSimulation/ChamberHV.h</title>
<!-- Node1 -->
<g id="node1" class="node"><title>Node1</title>
<polygon fill="#bfbfbf" stroke="black" points="434,-267.5 434,-319.5 617,-319.5 617,-267.5 434,-267.5"/>
<text text-anchor="start" x="442" y="-307.5" font-family="Helvetica,sans-Serif" font-size="10.00">/home/travis/build</text>
<text text-anchor="start" x="442" y="-296.5" font-family="Helvetica,sans-Serif" font-size="10.00">/AliceO2Group/AliceO2</text>
<text text-anchor="start" x="442" y="-285.5" font-family="Helvetica,sans-Serif" font-size="10.00">/Detectors/MUON/MID/Simulation</text>
<text text-anchor="middle" x="525.5" y="-274.5" font-family="Helvetica,sans-Serif" font-size="10.00">/include/MIDSimulation/ChamberHV.h</text>
</g>
<!-- Node2 -->
<g id="node2" class="node"><title>Node2</title>
<g id="a_node2"><a xlink:href="../../d5/d62/ChamberResponse_8h.html" target="_top" xlink:title="MID RPC response. ">
<polygon fill="none" stroke="black" points="315,-178.5 315,-230.5 528,-230.5 528,-178.5 315,-178.5"/>
<text text-anchor="start" x="323" y="-218.5" font-family="Helvetica,sans-Serif" font-size="10.00">/home/travis/build</text>
<text text-anchor="start" x="323" y="-207.5" font-family="Helvetica,sans-Serif" font-size="10.00">/AliceO2Group/AliceO2</text>
<text text-anchor="start" x="323" y="-196.5" font-family="Helvetica,sans-Serif" font-size="10.00">/Detectors/MUON/MID/Simulation</text>
<text text-anchor="middle" x="421.5" y="-185.5" font-family="Helvetica,sans-Serif" font-size="10.00">/include/MIDSimulation/ChamberResponse.h</text>
</a>
</g>
</g>
<!-- Node1&#45;&gt;Node2 -->
<g id="edge1" class="edge"><title>Node1&#45;&gt;Node2</title>
<path fill="none" stroke="midnightblue" d="M487.425,-260.649C475.591,-250.749 462.718,-239.98 451.514,-230.607"/>
<polygon fill="midnightblue" stroke="midnightblue" points="485.503,-263.604 495.419,-267.336 489.994,-258.235 485.503,-263.604"/>
</g>
<!-- Node8 -->
<g id="node8" class="node"><title>Node8</title>
<g id="a_node8"><a xlink:href="../../d1/d9f/ChamberHV_8cxx.html" target="_top" xlink:title="Implementation of the HV for MID RPCs. ">
<polygon fill="none" stroke="black" points="546,-178.5 546,-230.5 713,-230.5 713,-178.5 546,-178.5"/>
<text text-anchor="start" x="554" y="-218.5" font-family="Helvetica,sans-Serif" font-size="10.00">/home/travis/build</text>
<text text-anchor="start" x="554" y="-207.5" font-family="Helvetica,sans-Serif" font-size="10.00">/AliceO2Group/AliceO2</text>
<text text-anchor="start" x="554" y="-196.5" font-family="Helvetica,sans-Serif" font-size="10.00">/Detectors/MUON/MID/Simulation</text>
<text text-anchor="middle" x="629.5" y="-185.5" font-family="Helvetica,sans-Serif" font-size="10.00">/src/ChamberHV.cxx</text>
</a>
</g>
</g>
<!-- Node1&#45;&gt;Node8 -->
<g id="edge8" class="edge"><title>Node1&#45;&gt;Node8</title>
<path fill="none" stroke="midnightblue" d="M563.575,-260.649C575.409,-250.749 588.282,-239.98 599.486,-230.607"/>
<polygon fill="midnightblue" stroke="midnightblue" points="561.006,-258.235 555.581,-267.336 565.497,-263.604 561.006,-258.235"/>
</g>
<!-- Node3 -->
<g id="node3" class="node"><title>Node3</title>
<g id="a_node3"><a xlink:href="../../da/de1/MUON_2MID_2Simulation_2include_2MIDSimulation_2Digitizer_8h.html" target="_top" xlink:title="Digitizer for MID. ">
<polygon fill="none" stroke="black" points="199,-89.5 199,-141.5 366,-141.5 366,-89.5 199,-89.5"/>
<text text-anchor="start" x="207" y="-129.5" font-family="Helvetica,sans-Serif" font-size="10.00">/home/travis/build</text>
<text text-anchor="start" x="207" y="-118.5" font-family="Helvetica,sans-Serif" font-size="10.00">/AliceO2Group/AliceO2</text>
<text text-anchor="start" x="207" y="-107.5" font-family="Helvetica,sans-Serif" font-size="10.00">/Detectors/MUON/MID/Simulation</text>
<text text-anchor="middle" x="282.5" y="-96.5" font-family="Helvetica,sans-Serif" font-size="10.00">/include/MIDSimulation/Digitizer.h</text>
</a>
</g>
</g>
<!-- Node2&#45;&gt;Node3 -->
<g id="edge2" class="edge"><title>Node2&#45;&gt;Node3</title>
<path fill="none" stroke="midnightblue" d="M372.43,-172.787C356.121,-162.579 338.165,-151.341 322.614,-141.607"/>
<polygon fill="midnightblue" stroke="midnightblue" points="370.962,-175.997 381.295,-178.336 374.676,-170.064 370.962,-175.997"/>
</g>
<!-- Node6 -->
<g id="node6" class="node"><title>Node6</title>
<g id="a_node6"><a xlink:href="../../d4/dd3/MIDDigitizerSpec_8cxx.html" target="_top" xlink:title="/home/travis/build\l/AliceO2Group/AliceO2\l/Steer/DigitizerWorkflow\l/src/MIDDigitizerSpec.cxx">
<polygon fill="none" stroke="black" points="370.5,-0.5 370.5,-52.5 502.5,-52.5 502.5,-0.5 370.5,-0.5"/>
<text text-anchor="start" x="378.5" y="-40.5" font-family="Helvetica,sans-Serif" font-size="10.00">/home/travis/build</text>
<text text-anchor="start" x="378.5" y="-29.5" font-family="Helvetica,sans-Serif" font-size="10.00">/AliceO2Group/AliceO2</text>
<text text-anchor="start" x="378.5" y="-18.5" font-family="Helvetica,sans-Serif" font-size="10.00">/Steer/DigitizerWorkflow</text>
<text text-anchor="middle" x="436.5" y="-7.5" font-family="Helvetica,sans-Serif" font-size="10.00">/src/MIDDigitizerSpec.cxx</text>
</a>
</g>
</g>
<!-- Node2&#45;&gt;Node6 -->
<g id="edge7" class="edge"><title>Node2&#45;&gt;Node6</title>
<path fill="none" stroke="midnightblue" d="M424.504,-168.249C427.42,-134.038 431.773,-82.9693 434.355,-52.6697"/>
<polygon fill="midnightblue" stroke="midnightblue" points="421.011,-168.022 423.649,-178.283 427.986,-168.617 421.011,-168.022"/>
</g>
<!-- Node7 -->
<g id="node7" class="node"><title>Node7</title>
<g id="a_node7"><a xlink:href="../../de/dc3/ChamberResponse_8cxx.html" target="_top" xlink:title="Implementation MID RPC response. ">
<polygon fill="none" stroke="black" points="449,-89.5 449,-141.5 616,-141.5 616,-89.5 449,-89.5"/>
<text text-anchor="start" x="457" y="-129.5" font-family="Helvetica,sans-Serif" font-size="10.00">/home/travis/build</text>
<text text-anchor="start" x="457" y="-118.5" font-family="Helvetica,sans-Serif" font-size="10.00">/AliceO2Group/AliceO2</text>
<text text-anchor="start" x="457" y="-107.5" font-family="Helvetica,sans-Serif" font-size="10.00">/Detectors/MUON/MID/Simulation</text>
<text text-anchor="middle" x="532.5" y="-96.5" font-family="Helvetica,sans-Serif" font-size="10.00">/src/ChamberResponse.cxx</text>
</a>
</g>
</g>
<!-- Node2&#45;&gt;Node7 -->
<g id="edge6" class="edge"><title>Node2&#45;&gt;Node7</title>
<path fill="none" stroke="midnightblue" d="M461.774,-171.934C474.504,-161.956 488.393,-151.07 500.466,-141.607"/>
<polygon fill="midnightblue" stroke="midnightblue" points="459.317,-169.412 453.606,-178.336 463.635,-174.922 459.317,-169.412"/>
</g>
<!-- Node4 -->
<g id="node4" class="node"><title>Node4</title>
<g id="a_node4"><a xlink:href="../../d6/df9/MUON_2MID_2Simulation_2src_2Digitizer_8cxx.html" target="_top" xlink:title="Implementation of the digitizer for MID. ">
<polygon fill="none" stroke="black" points="0,-0.5 0,-52.5 167,-52.5 167,-0.5 0,-0.5"/>
<text text-anchor="start" x="8" y="-40.5" font-family="Helvetica,sans-Serif" font-size="10.00">/home/travis/build</text>
<text text-anchor="start" x="8" y="-29.5" font-family="Helvetica,sans-Serif" font-size="10.00">/AliceO2Group/AliceO2</text>
<text text-anchor="start" x="8" y="-18.5" font-family="Helvetica,sans-Serif" font-size="10.00">/Detectors/MUON/MID/Simulation</text>
<text text-anchor="middle" x="83.5" y="-7.5" font-family="Helvetica,sans-Serif" font-size="10.00">/src/Digitizer.cxx</text>
</a>
</g>
</g>
<!-- Node3&#45;&gt;Node4 -->
<g id="edge3" class="edge"><title>Node3&#45;&gt;Node4</title>
<path fill="none" stroke="midnightblue" d="M216.019,-85.4355C191.625,-74.7708 164.245,-62.8004 140.732,-52.5211"/>
<polygon fill="midnightblue" stroke="midnightblue" points="214.643,-88.6538 225.208,-89.4527 217.447,-82.24 214.643,-88.6538"/>
</g>
<!-- Node5 -->
<g id="node5" class="node"><title>Node5</title>
<g id="a_node5"><a xlink:href="../../d6/d45/testSimulation_8cxx.html" target="_top" xlink:title="/home/travis/build\l/AliceO2Group/AliceO2\l/Detectors/MUON/MID/Simulation\l/test/testSimulation.cxx">
<polygon fill="none" stroke="black" points="185,-0.5 185,-52.5 352,-52.5 352,-0.5 185,-0.5"/>
<text text-anchor="start" x="193" y="-40.5" font-family="Helvetica,sans-Serif" font-size="10.00">/home/travis/build</text>
<text text-anchor="start" x="193" y="-29.5" font-family="Helvetica,sans-Serif" font-size="10.00">/AliceO2Group/AliceO2</text>
<text text-anchor="start" x="193" y="-18.5" font-family="Helvetica,sans-Serif" font-size="10.00">/Detectors/MUON/MID/Simulation</text>
<text text-anchor="middle" x="268.5" y="-7.5" font-family="Helvetica,sans-Serif" font-size="10.00">/test/testSimulation.cxx</text>
</a>
</g>
</g>
<!-- Node3&#45;&gt;Node5 -->
<g id="edge4" class="edge"><title>Node3&#45;&gt;Node5</title>
<path fill="none" stroke="midnightblue" d="M276.818,-79.1908C275.385,-70.2824 273.874,-60.8986 272.54,-52.6075"/>
<polygon fill="midnightblue" stroke="midnightblue" points="273.406,-80.0191 278.451,-89.336 280.317,-78.9069 273.406,-80.0191"/>
</g>
<!-- Node3&#45;&gt;Node6 -->
<g id="edge5" class="edge"><title>Node3&#45;&gt;Node6</title>
<path fill="none" stroke="midnightblue" d="M335.863,-84.3532C354.196,-73.9962 374.509,-62.5208 392.057,-52.6075"/>
<polygon fill="midnightblue" stroke="midnightblue" points="334.028,-81.3699 327.043,-89.336 337.471,-87.4646 334.028,-81.3699"/>
</g>
</g>
</svg>
