<?xml version="1.0" encoding="UTF-8" standalone="no"?>
<!DOCTYPE svg PUBLIC "-//W3C//DTD SVG 1.1//EN"
 "http://www.w3.org/Graphics/SVG/1.1/DTD/svg11.dtd">
<!-- Generated by graphviz version 2.38.0 (20140413.2041)
 -->
<!-- Title: /home/travis/build/AliceO2Group/AliceO2/GPU/GPUTracking/SliceTracker/GPUTPCNeighboursFinder.h Pages: 1 -->
<svg width="3147pt" height="606pt"
 viewBox="0.00 0.00 3146.50 606.00" xmlns="http://www.w3.org/2000/svg" xmlns:xlink="http://www.w3.org/1999/xlink">
<g id="graph0" class="graph" transform="scale(1 1) rotate(0) translate(4 602)">
<title>/home/travis/build/AliceO2Group/AliceO2/GPU/GPUTracking/SliceTracker/GPUTPCNeighboursFinder.h</title>
<!-- Node1 -->
<g id="node1" class="node"><title>Node1</title>
<polygon fill="#bfbfbf" stroke="black" points="1799.5,-545.5 1799.5,-597.5 1960.5,-597.5 1960.5,-545.5 1799.5,-545.5"/>
<text text-anchor="start" x="1807.5" y="-585.5" font-family="Helvetica,sans-Serif" font-size="10.00">/home/travis/build</text>
<text text-anchor="start" x="1807.5" y="-574.5" font-family="Helvetica,sans-Serif" font-size="10.00">/AliceO2Group/AliceO2</text>
<text text-anchor="start" x="1807.5" y="-563.5" font-family="Helvetica,sans-Serif" font-size="10.00">/GPU/GPUTracking/SliceTracker</text>
<text text-anchor="middle" x="1880" y="-552.5" font-family="Helvetica,sans-Serif" font-size="10.00">/GPUTPCNeighboursFinder.h</text>
</g>
<!-- Node2 -->
<g id="node2" class="node"><title>Node2</title>
<g id="a_node2"><a xlink:href="../../dd/dc0/GPUReconstructionCPU_8h.html" target="_top" xlink:title="/home/travis/build\l/AliceO2Group/AliceO2\l/GPU/GPUTracking/Base\l/GPUReconstructionCPU.h">
<polygon fill="none" stroke="black" points="1459.5,-456.5 1459.5,-508.5 1596.5,-508.5 1596.5,-456.5 1459.5,-456.5"/>
<text text-anchor="start" x="1467.5" y="-496.5" font-family="Helvetica,sans-Serif" font-size="10.00">/home/travis/build</text>
<text text-anchor="start" x="1467.5" y="-485.5" font-family="Helvetica,sans-Serif" font-size="10.00">/AliceO2Group/AliceO2</text>
<text text-anchor="start" x="1467.5" y="-474.5" font-family="Helvetica,sans-Serif" font-size="10.00">/GPU/GPUTracking/Base</text>
<text text-anchor="middle" x="1528" y="-463.5" font-family="Helvetica,sans-Serif" font-size="10.00">/GPUReconstructionCPU.h</text>
</a>
</g>
</g>
<!-- Node1&#45;&gt;Node2 -->
<g id="edge1" class="edge"><title>Node1&#45;&gt;Node2</title>
<path fill="none" stroke="midnightblue" d="M1789.37,-548.1C1729.23,-533.235 1651.53,-514.031 1596.52,-500.437"/>
<polygon fill="midnightblue" stroke="midnightblue" points="1788.7,-551.539 1799.24,-550.54 1790.38,-544.743 1788.7,-551.539"/>
</g>
<!-- Node35 -->
<g id="node35" class="node"><title>Node35</title>
<g id="a_node35"><a xlink:href="../../dd/d70/GPUTPCNeighboursFinder_8cxx.html" target="_top" xlink:title="/home/travis/build\l/AliceO2Group/AliceO2\l/GPU/GPUTracking/SliceTracker\l/GPUTPCNeighboursFinder.cxx">
<polygon fill="none" stroke="black" points="2152.5,-456.5 2152.5,-508.5 2313.5,-508.5 2313.5,-456.5 2152.5,-456.5"/>
<text text-anchor="start" x="2160.5" y="-496.5" font-family="Helvetica,sans-Serif" font-size="10.00">/home/travis/build</text>
<text text-anchor="start" x="2160.5" y="-485.5" font-family="Helvetica,sans-Serif" font-size="10.00">/AliceO2Group/AliceO2</text>
<text text-anchor="start" x="2160.5" y="-474.5" font-family="Helvetica,sans-Serif" font-size="10.00">/GPU/GPUTracking/SliceTracker</text>
<text text-anchor="middle" x="2233" y="-463.5" font-family="Helvetica,sans-Serif" font-size="10.00">/GPUTPCNeighboursFinder.cxx</text>
</a>
</g>
</g>
<!-- Node1&#45;&gt;Node35 -->
<g id="edge37" class="edge"><title>Node1&#45;&gt;Node35</title>
<path fill="none" stroke="midnightblue" d="M1970.49,-548.198C2026.69,-534.348 2098.28,-516.703 2152.5,-503.34"/>
<polygon fill="midnightblue" stroke="midnightblue" points="1969.41,-544.858 1960.54,-550.649 1971.09,-551.655 1969.41,-544.858"/>
</g>
<!-- Node3 -->
<g id="node3" class="node"><title>Node3</title>
<g id="a_node3"><a xlink:href="../../d0/d92/GPUReconstructionDeviceBase_8h.html" target="_top" xlink:title="/home/travis/build\l/AliceO2Group/AliceO2\l/GPU/GPUTracking/Base\l/GPUReconstructionDeviceBase.h">
<polygon fill="none" stroke="black" points="2394.5,-278.5 2394.5,-330.5 2563.5,-330.5 2563.5,-278.5 2394.5,-278.5"/>
<text text-anchor="start" x="2402.5" y="-318.5" font-family="Helvetica,sans-Serif" font-size="10.00">/home/travis/build</text>
<text text-anchor="start" x="2402.5" y="-307.5" font-family="Helvetica,sans-Serif" font-size="10.00">/AliceO2Group/AliceO2</text>
<text text-anchor="start" x="2402.5" y="-296.5" font-family="Helvetica,sans-Serif" font-size="10.00">/GPU/GPUTracking/Base</text>
<text text-anchor="middle" x="2479" y="-285.5" font-family="Helvetica,sans-Serif" font-size="10.00">/GPUReconstructionDeviceBase.h</text>
</a>
</g>
</g>
<!-- Node2&#45;&gt;Node3 -->
<g id="edge2" class="edge"><title>Node2&#45;&gt;Node3</title>
<path fill="none" stroke="midnightblue" d="M1606.8,-466.917C1783.83,-434.154 2211.79,-354.952 2394.28,-321.18"/>
<polygon fill="midnightblue" stroke="midnightblue" points="1605.97,-463.51 1596.78,-468.772 1607.25,-470.393 1605.97,-463.51"/>
</g>
<!-- Node15 -->
<g id="node15" class="node"><title>Node15</title>
<g id="a_node15"><a xlink:href="../../da/df6/GPUReconstructionCPU_8cxx.html" target="_top" xlink:title="/home/travis/build\l/AliceO2Group/AliceO2\l/GPU/GPUTracking/Base\l/GPUReconstructionCPU.cxx">
<polygon fill="none" stroke="black" points="724,-278.5 724,-330.5 872,-330.5 872,-278.5 724,-278.5"/>
<text text-anchor="start" x="732" y="-318.5" font-family="Helvetica,sans-Serif" font-size="10.00">/home/travis/build</text>
<text text-anchor="start" x="732" y="-307.5" font-family="Helvetica,sans-Serif" font-size="10.00">/AliceO2Group/AliceO2</text>
<text text-anchor="start" x="732" y="-296.5" font-family="Helvetica,sans-Serif" font-size="10.00">/GPU/GPUTracking/Base</text>
<text text-anchor="middle" x="798" y="-285.5" font-family="Helvetica,sans-Serif" font-size="10.00">/GPUReconstructionCPU.cxx</text>
</a>
</g>
</g>
<!-- Node2&#45;&gt;Node15 -->
<g id="edge14" class="edge"><title>Node2&#45;&gt;Node15</title>
<path fill="none" stroke="midnightblue" d="M1449.36,-470.011C1379.11,-459.148 1273.59,-441.354 1183,-420 1046.8,-387.895 1014.99,-371.326 881,-331 878.113,-330.131 875.171,-329.242 872.199,-328.342"/>
<polygon fill="midnightblue" stroke="midnightblue" points="1449.05,-473.504 1459.47,-471.563 1450.11,-466.585 1449.05,-473.504"/>
</g>
<!-- Node16 -->
<g id="node16" class="node"><title>Node16</title>
<g id="a_node16"><a xlink:href="../../d3/dbe/GPUChain_8h.html" target="_top" xlink:title="/home/travis/build\l/AliceO2Group/AliceO2\l/GPU/GPUTracking/Global\l/GPUChain.h">
<polygon fill="none" stroke="black" points="1192,-367.5 1192,-419.5 1326,-419.5 1326,-367.5 1192,-367.5"/>
<text text-anchor="start" x="1200" y="-407.5" font-family="Helvetica,sans-Serif" font-size="10.00">/home/travis/build</text>
<text text-anchor="start" x="1200" y="-396.5" font-family="Helvetica,sans-Serif" font-size="10.00">/AliceO2Group/AliceO2</text>
<text text-anchor="start" x="1200" y="-385.5" font-family="Helvetica,sans-Serif" font-size="10.00">/GPU/GPUTracking/Global</text>
<text text-anchor="middle" x="1259" y="-374.5" font-family="Helvetica,sans-Serif" font-size="10.00">/GPUChain.h</text>
</a>
</g>
</g>
<!-- Node2&#45;&gt;Node16 -->
<g id="edge15" class="edge"><title>Node2&#45;&gt;Node16</title>
<path fill="none" stroke="midnightblue" d="M1449.64,-456.157C1410.46,-443.487 1363.54,-428.312 1326.05,-416.187"/>
<polygon fill="midnightblue" stroke="midnightblue" points="1448.83,-459.574 1459.42,-459.321 1450.99,-452.914 1448.83,-459.574"/>
</g>
<!-- Node4 -->
<g id="node4" class="node"><title>Node4</title>
<g id="a_node4"><a xlink:href="../../db/d30/GPUReconstructionCUDA_8h.html" target="_top" xlink:title="/home/travis/build\l/AliceO2Group/AliceO2\l/GPU/GPUTracking/Base\l/cuda/GPUReconstructionCUDA.h">
<polygon fill="none" stroke="black" points="2394.5,-189.5 2394.5,-241.5 2563.5,-241.5 2563.5,-189.5 2394.5,-189.5"/>
<text text-anchor="start" x="2402.5" y="-229.5" font-family="Helvetica,sans-Serif" font-size="10.00">/home/travis/build</text>
<text text-anchor="start" x="2402.5" y="-218.5" font-family="Helvetica,sans-Serif" font-size="10.00">/AliceO2Group/AliceO2</text>
<text text-anchor="start" x="2402.5" y="-207.5" font-family="Helvetica,sans-Serif" font-size="10.00">/GPU/GPUTracking/Base</text>
<text text-anchor="middle" x="2479" y="-196.5" font-family="Helvetica,sans-Serif" font-size="10.00">/cuda/GPUReconstructionCUDA.h</text>
</a>
</g>
</g>
<!-- Node3&#45;&gt;Node4 -->
<g id="edge3" class="edge"><title>Node3&#45;&gt;Node4</title>
<path fill="none" stroke="midnightblue" d="M2479,-268.191C2479,-259.282 2479,-249.899 2479,-241.607"/>
<polygon fill="midnightblue" stroke="midnightblue" points="2475.5,-268.336 2479,-278.336 2482.5,-268.336 2475.5,-268.336"/>
</g>
<!-- Node5 -->
<g id="node5" class="node"><title>Node5</title>
<g id="a_node5"><a xlink:href="../../d2/d53/GPUProcessor_8cxx.html" target="_top" xlink:title="/home/travis/build\l/AliceO2Group/AliceO2\l/GPU/GPUTracking/Base\l/GPUProcessor.cxx">
<polygon fill="none" stroke="black" points="2581.5,-189.5 2581.5,-241.5 2710.5,-241.5 2710.5,-189.5 2581.5,-189.5"/>
<text text-anchor="start" x="2589.5" y="-229.5" font-family="Helvetica,sans-Serif" font-size="10.00">/home/travis/build</text>
<text text-anchor="start" x="2589.5" y="-218.5" font-family="Helvetica,sans-Serif" font-size="10.00">/AliceO2Group/AliceO2</text>
<text text-anchor="start" x="2589.5" y="-207.5" font-family="Helvetica,sans-Serif" font-size="10.00">/GPU/GPUTracking/Base</text>
<text text-anchor="middle" x="2646" y="-196.5" font-family="Helvetica,sans-Serif" font-size="10.00">/GPUProcessor.cxx</text>
</a>
</g>
</g>
<!-- Node3&#45;&gt;Node5 -->
<g id="edge4" class="edge"><title>Node3&#45;&gt;Node5</title>
<path fill="none" stroke="midnightblue" d="M2536.33,-273.635C2556.35,-263.205 2578.6,-251.611 2597.81,-241.607"/>
<polygon fill="midnightblue" stroke="midnightblue" points="2534.55,-270.612 2527.3,-278.336 2537.79,-276.82 2534.55,-270.612"/>
</g>
<!-- Node6 -->
<g id="node6" class="node"><title>Node6</title>
<g id="a_node6"><a xlink:href="../../d1/dbb/GPUReconstructionDeviceBase_8cxx.html" target="_top" xlink:title="/home/travis/build\l/AliceO2Group/AliceO2\l/GPU/GPUTracking/Base\l/GPUReconstructionDeviceBase.cxx">
<polygon fill="none" stroke="black" points="2728.5,-189.5 2728.5,-241.5 2907.5,-241.5 2907.5,-189.5 2728.5,-189.5"/>
<text text-anchor="start" x="2736.5" y="-229.5" font-family="Helvetica,sans-Serif" font-size="10.00">/home/travis/build</text>
<text text-anchor="start" x="2736.5" y="-218.5" font-family="Helvetica,sans-Serif" font-size="10.00">/AliceO2Group/AliceO2</text>
<text text-anchor="start" x="2736.5" y="-207.5" font-family="Helvetica,sans-Serif" font-size="10.00">/GPU/GPUTracking/Base</text>
<text text-anchor="middle" x="2818" y="-196.5" font-family="Helvetica,sans-Serif" font-size="10.00">/GPUReconstructionDeviceBase.cxx</text>
</a>
</g>
</g>
<!-- Node3&#45;&gt;Node6 -->
<g id="edge5" class="edge"><title>Node3&#45;&gt;Node6</title>
<path fill="none" stroke="midnightblue" d="M2573.44,-279.51C2617.92,-268.183 2671.7,-254.447 2720,-242 2722.72,-241.298 2725.49,-240.584 2728.28,-239.863"/>
<polygon fill="midnightblue" stroke="midnightblue" points="2572.34,-276.178 2563.51,-282.037 2574.07,-282.962 2572.34,-276.178"/>
</g>
<!-- Node7 -->
<g id="node7" class="node"><title>Node7</title>
<g id="a_node7"><a xlink:href="../../de/d3c/GPUReconstructionHIP_8h.html" target="_top" xlink:title="/home/travis/build\l/AliceO2Group/AliceO2\l/GPU/GPUTracking/Base\l/hip/GPUReconstructionHIP.h">
<polygon fill="none" stroke="black" points="2925.5,-189.5 2925.5,-241.5 3074.5,-241.5 3074.5,-189.5 2925.5,-189.5"/>
<text text-anchor="start" x="2933.5" y="-229.5" font-family="Helvetica,sans-Serif" font-size="10.00">/home/travis/build</text>
<text text-anchor="start" x="2933.5" y="-218.5" font-family="Helvetica,sans-Serif" font-size="10.00">/AliceO2Group/AliceO2</text>
<text text-anchor="start" x="2933.5" y="-207.5" font-family="Helvetica,sans-Serif" font-size="10.00">/GPU/GPUTracking/Base</text>
<text text-anchor="middle" x="3000" y="-196.5" font-family="Helvetica,sans-Serif" font-size="10.00">/hip/GPUReconstructionHIP.h</text>
</a>
</g>
</g>
<!-- Node3&#45;&gt;Node7 -->
<g id="edge6" class="edge"><title>Node3&#45;&gt;Node7</title>
<path fill="none" stroke="midnightblue" d="M2573.78,-294.578C2663.02,-285.147 2800.08,-267.998 2917,-242 2919.8,-241.378 2922.63,-240.709 2925.49,-240.001"/>
<polygon fill="midnightblue" stroke="midnightblue" points="2573.26,-291.114 2563.68,-295.635 2573.99,-298.076 2573.26,-291.114"/>
</g>
<!-- Node9 -->
<g id="node9" class="node"><title>Node9</title>
<g id="a_node9"><a xlink:href="../../d5/de0/GPUReconstructionOCL_8h.html" target="_top" xlink:title="/home/travis/build\l/AliceO2Group/AliceO2\l/GPU/GPUTracking/Base\l/opencl&#45;common/GPUReconstructionOCL.h">
<polygon fill="none" stroke="black" points="2168,-189.5 2168,-241.5 2376,-241.5 2376,-189.5 2168,-189.5"/>
<text text-anchor="start" x="2176" y="-229.5" font-family="Helvetica,sans-Serif" font-size="10.00">/home/travis/build</text>
<text text-anchor="start" x="2176" y="-218.5" font-family="Helvetica,sans-Serif" font-size="10.00">/AliceO2Group/AliceO2</text>
<text text-anchor="start" x="2176" y="-207.5" font-family="Helvetica,sans-Serif" font-size="10.00">/GPU/GPUTracking/Base</text>
<text text-anchor="middle" x="2272" y="-196.5" font-family="Helvetica,sans-Serif" font-size="10.00">/opencl&#45;common/GPUReconstructionOCL.h</text>
</a>
</g>
</g>
<!-- Node3&#45;&gt;Node9 -->
<g id="edge8" class="edge"><title>Node3&#45;&gt;Node9</title>
<path fill="none" stroke="midnightblue" d="M2410.18,-274.576C2384.72,-263.876 2356.1,-251.846 2331.53,-241.521"/>
<polygon fill="midnightblue" stroke="midnightblue" points="2408.83,-277.805 2419.4,-278.453 2411.54,-271.351 2408.83,-277.805"/>
</g>
<!-- Node8 -->
<g id="node8" class="node"><title>Node8</title>
<g id="a_node8"><a xlink:href="../../d3/d33/GPUReconstructionHIP_8hip_8cxx.html" target="_top" xlink:title="/home/travis/build\l/AliceO2Group/AliceO2\l/GPU/GPUTracking/Base\l/hip/GPUReconstructionHIP.hip.cxx">
<polygon fill="none" stroke="black" points="2963.5,-95 2963.5,-147 3138.5,-147 3138.5,-95 2963.5,-95"/>
<text text-anchor="start" x="2971.5" y="-135" font-family="Helvetica,sans-Serif" font-size="10.00">/home/travis/build</text>
<text text-anchor="start" x="2971.5" y="-124" font-family="Helvetica,sans-Serif" font-size="10.00">/AliceO2Group/AliceO2</text>
<text text-anchor="start" x="2971.5" y="-113" font-family="Helvetica,sans-Serif" font-size="10.00">/GPU/GPUTracking/Base</text>
<text text-anchor="middle" x="3051" y="-102" font-family="Helvetica,sans-Serif" font-size="10.00">/hip/GPUReconstructionHIP.hip.cxx</text>
</a>
</g>
</g>
<!-- Node7&#45;&gt;Node8 -->
<g id="edge7" class="edge"><title>Node7&#45;&gt;Node8</title>
<path fill="none" stroke="midnightblue" d="M3018.85,-180.312C3024.89,-169.36 3031.46,-157.439 3037.08,-147.245"/>
<polygon fill="midnightblue" stroke="midnightblue" points="3015.7,-178.777 3013.94,-189.224 3021.83,-182.157 3015.7,-178.777"/>
</g>
<!-- Node10 -->
<g id="node10" class="node"><title>Node10</title>
<g id="a_node10"><a xlink:href="../../d7/d71/GPUReconstructionOCL1_8h.html" target="_top" xlink:title="/home/travis/build\l/AliceO2Group/AliceO2\l/GPU/GPUTracking/Base\l/opencl/GPUReconstructionOCL1.h">
<polygon fill="none" stroke="black" points="2351.5,-95 2351.5,-147 2524.5,-147 2524.5,-95 2351.5,-95"/>
<text text-anchor="start" x="2359.5" y="-135" font-family="Helvetica,sans-Serif" font-size="10.00">/home/travis/build</text>
<text text-anchor="start" x="2359.5" y="-124" font-family="Helvetica,sans-Serif" font-size="10.00">/AliceO2Group/AliceO2</text>
<text text-anchor="start" x="2359.5" y="-113" font-family="Helvetica,sans-Serif" font-size="10.00">/GPU/GPUTracking/Base</text>
<text text-anchor="middle" x="2438" y="-102" font-family="Helvetica,sans-Serif" font-size="10.00">/opencl/GPUReconstructionOCL1.h</text>
</a>
</g>
</g>
<!-- Node9&#45;&gt;Node10 -->
<g id="edge9" class="edge"><title>Node9&#45;&gt;Node10</title>
<path fill="none" stroke="midnightblue" d="M2325.72,-184.568C2347.46,-172.452 2372.28,-158.623 2393.04,-147.052"/>
<polygon fill="midnightblue" stroke="midnightblue" points="2323.95,-181.543 2316.92,-189.468 2327.36,-187.658 2323.95,-181.543"/>
</g>
<!-- Node12 -->
<g id="node12" class="node"><title>Node12</title>
<g id="a_node12"><a xlink:href="../../da/db3/GPUReconstructionOCL_8cxx.html" target="_top" xlink:title="/home/travis/build\l/AliceO2Group/AliceO2\l/GPU/GPUTracking/Base\l/opencl&#45;common/GPUReconstruction\lOCL.cxx">
<polygon fill="none" stroke="black" points="2542.5,-89.5 2542.5,-152.5 2721.5,-152.5 2721.5,-89.5 2542.5,-89.5"/>
<text text-anchor="start" x="2550.5" y="-140.5" font-family="Helvetica,sans-Serif" font-size="10.00">/home/travis/build</text>
<text text-anchor="start" x="2550.5" y="-129.5" font-family="Helvetica,sans-Serif" font-size="10.00">/AliceO2Group/AliceO2</text>
<text text-anchor="start" x="2550.5" y="-118.5" font-family="Helvetica,sans-Serif" font-size="10.00">/GPU/GPUTracking/Base</text>
<text text-anchor="start" x="2550.5" y="-107.5" font-family="Helvetica,sans-Serif" font-size="10.00">/opencl&#45;common/GPUReconstruction</text>
<text text-anchor="middle" x="2632" y="-96.5" font-family="Helvetica,sans-Serif" font-size="10.00">OCL.cxx</text>
</a>
</g>
</g>
<!-- Node9&#45;&gt;Node12 -->
<g id="edge11" class="edge"><title>Node9&#45;&gt;Node12</title>
<path fill="none" stroke="midnightblue" d="M2386.11,-188.61C2443.18,-175.482 2505.95,-160.717 2534,-153 2536.75,-152.243 2539.54,-151.459 2542.36,-150.655"/>
<polygon fill="midnightblue" stroke="midnightblue" points="2385.24,-185.22 2376.27,-190.87 2386.8,-192.042 2385.24,-185.22"/>
</g>
<!-- Node13 -->
<g id="node13" class="node"><title>Node13</title>
<g id="a_node13"><a xlink:href="../../d3/dff/GPUReconstructionOCL2_8h.html" target="_top" xlink:title="/home/travis/build\l/AliceO2Group/AliceO2\l/GPU/GPUTracking/Base\l/opencl2/GPUReconstructionOCL2.h">
<polygon fill="none" stroke="black" points="2155,-95 2155,-147 2333,-147 2333,-95 2155,-95"/>
<text text-anchor="start" x="2163" y="-135" font-family="Helvetica,sans-Serif" font-size="10.00">/home/travis/build</text>
<text text-anchor="start" x="2163" y="-124" font-family="Helvetica,sans-Serif" font-size="10.00">/AliceO2Group/AliceO2</text>
<text text-anchor="start" x="2163" y="-113" font-family="Helvetica,sans-Serif" font-size="10.00">/GPU/GPUTracking/Base</text>
<text text-anchor="middle" x="2244" y="-102" font-family="Helvetica,sans-Serif" font-size="10.00">/opencl2/GPUReconstructionOCL2.h</text>
</a>
</g>
</g>
<!-- Node9&#45;&gt;Node13 -->
<g id="edge12" class="edge"><title>Node9&#45;&gt;Node13</title>
<path fill="none" stroke="midnightblue" d="M2261.35,-179.324C2258.12,-168.647 2254.63,-157.133 2251.64,-147.245"/>
<polygon fill="midnightblue" stroke="midnightblue" points="2258.1,-180.667 2264.35,-189.224 2264.8,-178.639 2258.1,-180.667"/>
</g>
<!-- Node11 -->
<g id="node11" class="node"><title>Node11</title>
<g id="a_node11"><a xlink:href="../../d7/d6f/GPUReconstructionOCL1_8cxx.html" target="_top" xlink:title="/home/travis/build\l/AliceO2Group/AliceO2\l/GPU/GPUTracking/Base\l/opencl/GPUReconstructionOCL1.cxx">
<polygon fill="none" stroke="black" points="2351.5,-0.5 2351.5,-52.5 2534.5,-52.5 2534.5,-0.5 2351.5,-0.5"/>
<text text-anchor="start" x="2359.5" y="-40.5" font-family="Helvetica,sans-Serif" font-size="10.00">/home/travis/build</text>
<text text-anchor="start" x="2359.5" y="-29.5" font-family="Helvetica,sans-Serif" font-size="10.00">/AliceO2Group/AliceO2</text>
<text text-anchor="start" x="2359.5" y="-18.5" font-family="Helvetica,sans-Serif" font-size="10.00">/GPU/GPUTracking/Base</text>
<text text-anchor="middle" x="2443" y="-7.5" font-family="Helvetica,sans-Serif" font-size="10.00">/opencl/GPUReconstructionOCL1.cxx</text>
</a>
</g>
</g>
<!-- Node10&#45;&gt;Node11 -->
<g id="edge10" class="edge"><title>Node10&#45;&gt;Node11</title>
<path fill="none" stroke="midnightblue" d="M2439.92,-84.4934C2440.49,-73.9095 2441.11,-62.5311 2441.64,-52.7455"/>
<polygon fill="midnightblue" stroke="midnightblue" points="2436.41,-84.5496 2439.37,-94.724 2443.4,-84.9275 2436.41,-84.5496"/>
</g>
<!-- Node14 -->
<g id="node14" class="node"><title>Node14</title>
<g id="a_node14"><a xlink:href="../../d3/d73/GPUReconstructionOCL2_8cxx.html" target="_top" xlink:title="/home/travis/build\l/AliceO2Group/AliceO2\l/GPU/GPUTracking/Base\l/opencl2/GPUReconstructionOCL2.cxx">
<polygon fill="none" stroke="black" points="2145,-0.5 2145,-52.5 2333,-52.5 2333,-0.5 2145,-0.5"/>
<text text-anchor="start" x="2153" y="-40.5" font-family="Helvetica,sans-Serif" font-size="10.00">/home/travis/build</text>
<text text-anchor="start" x="2153" y="-29.5" font-family="Helvetica,sans-Serif" font-size="10.00">/AliceO2Group/AliceO2</text>
<text text-anchor="start" x="2153" y="-18.5" font-family="Helvetica,sans-Serif" font-size="10.00">/GPU/GPUTracking/Base</text>
<text text-anchor="middle" x="2239" y="-7.5" font-family="Helvetica,sans-Serif" font-size="10.00">/opencl2/GPUReconstructionOCL2.cxx</text>
</a>
</g>
</g>
<!-- Node13&#45;&gt;Node14 -->
<g id="edge13" class="edge"><title>Node13&#45;&gt;Node14</title>
<path fill="none" stroke="midnightblue" d="M2242.08,-84.4934C2241.51,-73.9095 2240.89,-62.5311 2240.36,-52.7455"/>
<polygon fill="midnightblue" stroke="midnightblue" points="2238.6,-84.9275 2242.63,-94.724 2245.59,-84.5496 2238.6,-84.9275"/>
</g>
<!-- Node16&#45;&gt;Node3 -->
<g id="edge16" class="edge"><title>Node16&#45;&gt;Node3</title>
<path fill="none" stroke="midnightblue" d="M1336.37,-386.983C1553.61,-371.491 2168.03,-327.676 2394.13,-311.552"/>
<polygon fill="midnightblue" stroke="midnightblue" points="1336.06,-383.496 1326.33,-387.699 1336.55,-390.478 1336.06,-383.496"/>
</g>
<!-- Node16&#45;&gt;Node15 -->
<g id="edge18" class="edge"><title>Node16&#45;&gt;Node15</title>
<path fill="none" stroke="midnightblue" d="M1181.81,-383.089C1104.99,-372.987 984.008,-355.084 881,-331 878.064,-330.314 875.081,-329.579 872.075,-328.807"/>
<polygon fill="midnightblue" stroke="midnightblue" points="1181.52,-386.58 1191.88,-384.402 1182.42,-379.639 1181.52,-386.58"/>
</g>
<!-- Node17 -->
<g id="node17" class="node"><title>Node17</title>
<g id="a_node17"><a xlink:href="../../db/d5b/GPUReconstruction_8cxx.html" target="_top" xlink:title="/home/travis/build\l/AliceO2Group/AliceO2\l/GPU/GPUTracking/Base\l/GPUReconstruction.cxx">
<polygon fill="none" stroke="black" points="1194.5,-278.5 1194.5,-330.5 1323.5,-330.5 1323.5,-278.5 1194.5,-278.5"/>
<text text-anchor="start" x="1202.5" y="-318.5" font-family="Helvetica,sans-Serif" font-size="10.00">/home/travis/build</text>
<text text-anchor="start" x="1202.5" y="-307.5" font-family="Helvetica,sans-Serif" font-size="10.00">/AliceO2Group/AliceO2</text>
<text text-anchor="start" x="1202.5" y="-296.5" font-family="Helvetica,sans-Serif" font-size="10.00">/GPU/GPUTracking/Base</text>
<text text-anchor="middle" x="1259" y="-285.5" font-family="Helvetica,sans-Serif" font-size="10.00">/GPUReconstruction.cxx</text>
</a>
</g>
</g>
<!-- Node16&#45;&gt;Node17 -->
<g id="edge17" class="edge"><title>Node16&#45;&gt;Node17</title>
<path fill="none" stroke="midnightblue" d="M1259,-357.191C1259,-348.282 1259,-338.899 1259,-330.607"/>
<polygon fill="midnightblue" stroke="midnightblue" points="1255.5,-357.336 1259,-367.336 1262.5,-357.336 1255.5,-357.336"/>
</g>
<!-- Node18 -->
<g id="node18" class="node"><title>Node18</title>
<g id="a_node18"><a xlink:href="../../db/ded/GPUChainTracking_8h.html" target="_top" xlink:title="/home/travis/build\l/AliceO2Group/AliceO2\l/GPU/GPUTracking/Global\l/GPUChainTracking.h">
<polygon fill="none" stroke="black" points="1342,-278.5 1342,-330.5 1476,-330.5 1476,-278.5 1342,-278.5"/>
<text text-anchor="start" x="1350" y="-318.5" font-family="Helvetica,sans-Serif" font-size="10.00">/home/travis/build</text>
<text text-anchor="start" x="1350" y="-307.5" font-family="Helvetica,sans-Serif" font-size="10.00">/AliceO2Group/AliceO2</text>
<text text-anchor="start" x="1350" y="-296.5" font-family="Helvetica,sans-Serif" font-size="10.00">/GPU/GPUTracking/Global</text>
<text text-anchor="middle" x="1409" y="-285.5" font-family="Helvetica,sans-Serif" font-size="10.00">/GPUChainTracking.h</text>
</a>
</g>
</g>
<!-- Node16&#45;&gt;Node18 -->
<g id="edge19" class="edge"><title>Node16&#45;&gt;Node18</title>
<path fill="none" stroke="midnightblue" d="M1311.46,-362.07C1329.19,-351.788 1348.77,-340.431 1365.71,-330.607"/>
<polygon fill="midnightblue" stroke="midnightblue" points="1309.28,-359.291 1302.39,-367.336 1312.79,-365.346 1309.28,-359.291"/>
</g>
<!-- Node32 -->
<g id="node32" class="node"><title>Node32</title>
<g id="a_node32"><a xlink:href="../../d7/d86/GPUChain_8cxx.html" target="_top" xlink:title="/home/travis/build\l/AliceO2Group/AliceO2\l/GPU/GPUTracking/Global\l/GPUChain.cxx">
<polygon fill="none" stroke="black" points="890,-278.5 890,-330.5 1024,-330.5 1024,-278.5 890,-278.5"/>
<text text-anchor="start" x="898" y="-318.5" font-family="Helvetica,sans-Serif" font-size="10.00">/home/travis/build</text>
<text text-anchor="start" x="898" y="-307.5" font-family="Helvetica,sans-Serif" font-size="10.00">/AliceO2Group/AliceO2</text>
<text text-anchor="start" x="898" y="-296.5" font-family="Helvetica,sans-Serif" font-size="10.00">/GPU/GPUTracking/Global</text>
<text text-anchor="middle" x="957" y="-285.5" font-family="Helvetica,sans-Serif" font-size="10.00">/GPUChain.cxx</text>
</a>
</g>
</g>
<!-- Node16&#45;&gt;Node32 -->
<g id="edge34" class="edge"><title>Node16&#45;&gt;Node32</title>
<path fill="none" stroke="midnightblue" d="M1182.22,-372.789C1138.34,-361.229 1082.38,-345.988 1033,-331 1030.07,-330.111 1027.08,-329.186 1024.07,-328.238"/>
<polygon fill="midnightblue" stroke="midnightblue" points="1181.4,-376.193 1191.96,-375.347 1183.18,-369.422 1181.4,-376.193"/>
</g>
<!-- Node33 -->
<g id="node33" class="node"><title>Node33</title>
<g id="a_node33"><a xlink:href="../../d9/d46/GPUChainITS_8h.html" target="_top" xlink:title="/home/travis/build\l/AliceO2Group/AliceO2\l/GPU/GPUTracking/Global\l/GPUChainITS.h">
<polygon fill="none" stroke="black" points="1042,-278.5 1042,-330.5 1176,-330.5 1176,-278.5 1042,-278.5"/>
<text text-anchor="start" x="1050" y="-318.5" font-family="Helvetica,sans-Serif" font-size="10.00">/home/travis/build</text>
<text text-anchor="start" x="1050" y="-307.5" font-family="Helvetica,sans-Serif" font-size="10.00">/AliceO2Group/AliceO2</text>
<text text-anchor="start" x="1050" y="-296.5" font-family="Helvetica,sans-Serif" font-size="10.00">/GPU/GPUTracking/Global</text>
<text text-anchor="middle" x="1109" y="-285.5" font-family="Helvetica,sans-Serif" font-size="10.00">/GPUChainITS.h</text>
</a>
</g>
</g>
<!-- Node16&#45;&gt;Node33 -->
<g id="edge35" class="edge"><title>Node16&#45;&gt;Node33</title>
<path fill="none" stroke="midnightblue" d="M1206.54,-362.07C1188.81,-351.788 1169.23,-340.431 1152.29,-330.607"/>
<polygon fill="midnightblue" stroke="midnightblue" points="1205.21,-365.346 1215.61,-367.336 1208.72,-359.291 1205.21,-365.346"/>
</g>
<!-- Node19 -->
<g id="node19" class="node"><title>Node19</title>
<g id="a_node19"><a xlink:href="../../df/db2/GPUReconstructionTimeframe_8h.html" target="_top" xlink:title="/home/travis/build\l/AliceO2Group/AliceO2\l/GPU/GPUTracking/Base\l/GPUReconstructionTimeframe.h">
<polygon fill="none" stroke="black" points="1950,-189.5 1950,-241.5 2112,-241.5 2112,-189.5 1950,-189.5"/>
<text text-anchor="start" x="1958" y="-229.5" font-family="Helvetica,sans-Serif" font-size="10.00">/home/travis/build</text>
<text text-anchor="start" x="1958" y="-218.5" font-family="Helvetica,sans-Serif" font-size="10.00">/AliceO2Group/AliceO2</text>
<text text-anchor="start" x="1958" y="-207.5" font-family="Helvetica,sans-Serif" font-size="10.00">/GPU/GPUTracking/Base</text>
<text text-anchor="middle" x="2031" y="-196.5" font-family="Helvetica,sans-Serif" font-size="10.00">/GPUReconstructionTimeframe.h</text>
</a>
</g>
</g>
<!-- Node18&#45;&gt;Node19 -->
<g id="edge20" class="edge"><title>Node18&#45;&gt;Node19</title>
<path fill="none" stroke="midnightblue" d="M1486.25,-298.396C1590.14,-290.659 1780.28,-273.424 1940,-242 1943.22,-241.367 1946.49,-240.676 1949.79,-239.942"/>
<polygon fill="midnightblue" stroke="midnightblue" points="1485.88,-294.913 1476.17,-299.137 1486.39,-301.894 1485.88,-294.913"/>
</g>
<!-- Node21 -->
<g id="node21" class="node"><title>Node21</title>
<g id="a_node21"><a xlink:href="../../dc/df9/standalone_8cxx.html" target="_top" xlink:title="/home/travis/build\l/AliceO2Group/AliceO2\l/GPU/GPUTracking/Standalone\l/standalone.cxx">
<polygon fill="none" stroke="black" points="1981.5,-95 1981.5,-147 2136.5,-147 2136.5,-95 1981.5,-95"/>
<text text-anchor="start" x="1989.5" y="-135" font-family="Helvetica,sans-Serif" font-size="10.00">/home/travis/build</text>
<text text-anchor="start" x="1989.5" y="-124" font-family="Helvetica,sans-Serif" font-size="10.00">/AliceO2Group/AliceO2</text>
<text text-anchor="start" x="1989.5" y="-113" font-family="Helvetica,sans-Serif" font-size="10.00">/GPU/GPUTracking/Standalone</text>
<text text-anchor="middle" x="2059" y="-102" font-family="Helvetica,sans-Serif" font-size="10.00">/standalone.cxx</text>
</a>
</g>
</g>
<!-- Node18&#45;&gt;Node21 -->
<g id="edge32" class="edge"><title>Node18&#45;&gt;Node21</title>
<path fill="none" stroke="midnightblue" d="M1486.36,-302.586C1661.95,-299.711 2078.75,-288.054 2121,-242 2146.68,-214.006 2115.03,-173.388 2088.33,-147.333"/>
<polygon fill="midnightblue" stroke="midnightblue" points="1486.1,-299.09 1476.16,-302.748 1486.21,-306.089 1486.1,-299.09"/>
</g>
<!-- Node22 -->
<g id="node22" class="node"><title>Node22</title>
<g id="a_node22"><a xlink:href="../../df/d9c/AliHLTGPUDumpComponent_8cxx.html" target="_top" xlink:title="/home/travis/build\l/AliceO2Group/AliceO2\l/GPU/GPUTracking/Global\l/AliHLTGPUDumpComponent.cxx">
<polygon fill="none" stroke="black" points="152.5,-189.5 152.5,-241.5 319.5,-241.5 319.5,-189.5 152.5,-189.5"/>
<text text-anchor="start" x="160.5" y="-229.5" font-family="Helvetica,sans-Serif" font-size="10.00">/home/travis/build</text>
<text text-anchor="start" x="160.5" y="-218.5" font-family="Helvetica,sans-Serif" font-size="10.00">/AliceO2Group/AliceO2</text>
<text text-anchor="start" x="160.5" y="-207.5" font-family="Helvetica,sans-Serif" font-size="10.00">/GPU/GPUTracking/Global</text>
<text text-anchor="middle" x="236" y="-196.5" font-family="Helvetica,sans-Serif" font-size="10.00">/AliHLTGPUDumpComponent.cxx</text>
</a>
</g>
</g>
<!-- Node18&#45;&gt;Node22 -->
<g id="edge23" class="edge"><title>Node18&#45;&gt;Node22</title>
<path fill="none" stroke="midnightblue" d="M1331.54,-278.2C891.09,-200.75 766.602,-308.919 329,-242 325.938,-241.532 322.834,-240.998 319.708,-240.411"/>
<polygon fill="midnightblue" stroke="midnightblue" points="1331.22,-281.697 1341.68,-280.004 1332.44,-274.805 1331.22,-281.697"/>
</g>
<!-- Node23 -->
<g id="node23" class="node"><title>Node23</title>
<g id="a_node23"><a xlink:href="../../d2/d58/GPUChainTracking_8cxx.html" target="_top" xlink:title="/home/travis/build\l/AliceO2Group/AliceO2\l/GPU/GPUTracking/Global\l/GPUChainTracking.cxx">
<polygon fill="none" stroke="black" points="338,-189.5 338,-241.5 472,-241.5 472,-189.5 338,-189.5"/>
<text text-anchor="start" x="346" y="-229.5" font-family="Helvetica,sans-Serif" font-size="10.00">/home/travis/build</text>
<text text-anchor="start" x="346" y="-218.5" font-family="Helvetica,sans-Serif" font-size="10.00">/AliceO2Group/AliceO2</text>
<text text-anchor="start" x="346" y="-207.5" font-family="Helvetica,sans-Serif" font-size="10.00">/GPU/GPUTracking/Global</text>
<text text-anchor="middle" x="405" y="-196.5" font-family="Helvetica,sans-Serif" font-size="10.00">/GPUChainTracking.cxx</text>
</a>
</g>
</g>
<!-- Node18&#45;&gt;Node23 -->
<g id="edge24" class="edge"><title>Node18&#45;&gt;Node23</title>
<path fill="none" stroke="midnightblue" d="M1331.66,-278.218C957.736,-211.602 849.968,-310.285 481,-242 478.126,-241.468 475.212,-240.852 472.285,-240.169"/>
<polygon fill="midnightblue" stroke="midnightblue" points="1331.21,-281.693 1341.67,-280.03 1332.45,-274.805 1331.21,-281.693"/>
</g>
<!-- Node24 -->
<g id="node24" class="node"><title>Node24</title>
<g id="a_node24"><a xlink:href="../../dd/dc6/GPUChainTrackingDebugAndProfiling_8cxx.html" target="_top" xlink:title="/home/travis/build\l/AliceO2Group/AliceO2\l/GPU/GPUTracking/Global\l/GPUChainTrackingDebugAndProfiling.cxx">
<polygon fill="none" stroke="black" points="490,-189.5 490,-241.5 694,-241.5 694,-189.5 490,-189.5"/>
<text text-anchor="start" x="498" y="-229.5" font-family="Helvetica,sans-Serif" font-size="10.00">/home/travis/build</text>
<text text-anchor="start" x="498" y="-218.5" font-family="Helvetica,sans-Serif" font-size="10.00">/AliceO2Group/AliceO2</text>
<text text-anchor="start" x="498" y="-207.5" font-family="Helvetica,sans-Serif" font-size="10.00">/GPU/GPUTracking/Global</text>
<text text-anchor="middle" x="592" y="-196.5" font-family="Helvetica,sans-Serif" font-size="10.00">/GPUChainTrackingDebugAndProfiling.cxx</text>
</a>
</g>
</g>
<!-- Node18&#45;&gt;Node24 -->
<g id="edge25" class="edge"><title>Node18&#45;&gt;Node24</title>
<path fill="none" stroke="midnightblue" d="M1331.74,-278.216C1055.12,-226.832 976.966,-281.025 703,-242 700.064,-241.582 697.09,-241.125 694.095,-240.636"/>
<polygon fill="midnightblue" stroke="midnightblue" points="1331.18,-281.674 1341.66,-280.089 1332.48,-274.795 1331.18,-281.674"/>
</g>
<!-- Node25 -->
<g id="node25" class="node"><title>Node25</title>
<g id="a_node25"><a xlink:href="../../d0/d48/GPUO2Interface_8cxx.html" target="_top" xlink:title="/home/travis/build\l/AliceO2Group/AliceO2\l/GPU/GPUTracking/Interface\l/GPUO2Interface.cxx">
<polygon fill="none" stroke="black" points="712.5,-189.5 712.5,-241.5 857.5,-241.5 857.5,-189.5 712.5,-189.5"/>
<text text-anchor="start" x="720.5" y="-229.5" font-family="Helvetica,sans-Serif" font-size="10.00">/home/travis/build</text>
<text text-anchor="start" x="720.5" y="-218.5" font-family="Helvetica,sans-Serif" font-size="10.00">/AliceO2Group/AliceO2</text>
<text text-anchor="start" x="720.5" y="-207.5" font-family="Helvetica,sans-Serif" font-size="10.00">/GPU/GPUTracking/Interface</text>
<text text-anchor="middle" x="785" y="-196.5" font-family="Helvetica,sans-Serif" font-size="10.00">/GPUO2Interface.cxx</text>
</a>
</g>
</g>
<!-- Node18&#45;&gt;Node25 -->
<g id="edge26" class="edge"><title>Node18&#45;&gt;Node25</title>
<path fill="none" stroke="midnightblue" d="M1331.78,-278.213C1126.93,-238.469 1067.4,-280.412 867,-242 863.925,-241.411 860.803,-240.746 857.662,-240.023"/>
<polygon fill="midnightblue" stroke="midnightblue" points="1331.15,-281.657 1341.64,-280.168 1332.52,-274.791 1331.15,-281.657"/>
</g>
<!-- Node26 -->
<g id="node26" class="node"><title>Node26</title>
<g id="a_node26"><a xlink:href="../../df/d06/GPUTPCGlobalMergerComponent_8cxx.html" target="_top" xlink:title="/home/travis/build\l/AliceO2Group/AliceO2\l/GPU/GPUTracking/Merger\l/GPUTPCGlobalMergerComponent.cxx">
<polygon fill="none" stroke="black" points="876,-189.5 876,-241.5 1064,-241.5 1064,-189.5 876,-189.5"/>
<text text-anchor="start" x="884" y="-229.5" font-family="Helvetica,sans-Serif" font-size="10.00">/home/travis/build</text>
<text text-anchor="start" x="884" y="-218.5" font-family="Helvetica,sans-Serif" font-size="10.00">/AliceO2Group/AliceO2</text>
<text text-anchor="start" x="884" y="-207.5" font-family="Helvetica,sans-Serif" font-size="10.00">/GPU/GPUTracking/Merger</text>
<text text-anchor="middle" x="970" y="-196.5" font-family="Helvetica,sans-Serif" font-size="10.00">/GPUTPCGlobalMergerComponent.cxx</text>
</a>
</g>
</g>
<!-- Node18&#45;&gt;Node26 -->
<g id="edge27" class="edge"><title>Node18&#45;&gt;Node26</title>
<path fill="none" stroke="midnightblue" d="M1331.72,-278.137C1217.02,-252.274 1184,-263.393 1073,-242 1070.11,-241.442 1067.17,-240.854 1064.21,-240.243"/>
<polygon fill="midnightblue" stroke="midnightblue" points="1331.06,-281.577 1341.59,-280.407 1332.63,-274.755 1331.06,-281.577"/>
</g>
<!-- Node27 -->
<g id="node27" class="node"><title>Node27</title>
<g id="a_node27"><a xlink:href="../../d0/dd4/GPUTPCGMMerger_8cxx.html" target="_top" xlink:title="/home/travis/build\l/AliceO2Group/AliceO2\l/GPU/GPUTracking/Merger\l/GPUTPCGMMerger.cxx">
<polygon fill="none" stroke="black" points="1082.5,-189.5 1082.5,-241.5 1219.5,-241.5 1219.5,-189.5 1082.5,-189.5"/>
<text text-anchor="start" x="1090.5" y="-229.5" font-family="Helvetica,sans-Serif" font-size="10.00">/home/travis/build</text>
<text text-anchor="start" x="1090.5" y="-218.5" font-family="Helvetica,sans-Serif" font-size="10.00">/AliceO2Group/AliceO2</text>
<text text-anchor="start" x="1090.5" y="-207.5" font-family="Helvetica,sans-Serif" font-size="10.00">/GPU/GPUTracking/Merger</text>
<text text-anchor="middle" x="1151" y="-196.5" font-family="Helvetica,sans-Serif" font-size="10.00">/GPUTPCGMMerger.cxx</text>
</a>
</g>
</g>
<!-- Node18&#45;&gt;Node27 -->
<g id="edge28" class="edge"><title>Node18&#45;&gt;Node27</title>
<path fill="none" stroke="midnightblue" d="M1331.99,-277.533C1296.28,-265.49 1254.18,-251.293 1219.57,-239.623"/>
<polygon fill="midnightblue" stroke="midnightblue" points="1331.29,-280.99 1341.89,-280.869 1333.53,-274.357 1331.29,-280.99"/>
</g>
<!-- Node28 -->
<g id="node28" class="node"><title>Node28</title>
<g id="a_node28"><a xlink:href="../../da/d1f/GPUTPCTrackerComponent_8cxx.html" target="_top" xlink:title="/home/travis/build\l/AliceO2Group/AliceO2\l/GPU/GPUTracking/SliceTracker\l/GPUTPCTrackerComponent.cxx">
<polygon fill="none" stroke="black" points="1238,-189.5 1238,-241.5 1402,-241.5 1402,-189.5 1238,-189.5"/>
<text text-anchor="start" x="1246" y="-229.5" font-family="Helvetica,sans-Serif" font-size="10.00">/home/travis/build</text>
<text text-anchor="start" x="1246" y="-218.5" font-family="Helvetica,sans-Serif" font-size="10.00">/AliceO2Group/AliceO2</text>
<text text-anchor="start" x="1246" y="-207.5" font-family="Helvetica,sans-Serif" font-size="10.00">/GPU/GPUTracking/SliceTracker</text>
<text text-anchor="middle" x="1320" y="-196.5" font-family="Helvetica,sans-Serif" font-size="10.00">/GPUTPCTrackerComponent.cxx</text>
</a>
</g>
</g>
<!-- Node18&#45;&gt;Node28 -->
<g id="edge29" class="edge"><title>Node18&#45;&gt;Node28</title>
<path fill="none" stroke="midnightblue" d="M1375.83,-271.077C1365.87,-261.335 1355.09,-250.8 1345.68,-241.607"/>
<polygon fill="midnightblue" stroke="midnightblue" points="1373.66,-273.849 1383.26,-278.336 1378.55,-268.843 1373.66,-273.849"/>
</g>
<!-- Node29 -->
<g id="node29" class="node"><title>Node29</title>
<g id="a_node29"><a xlink:href="../../d7/d9f/genEvents_8cxx.html" target="_top" xlink:title="/home/travis/build\l/AliceO2Group/AliceO2\l/GPU/GPUTracking/Standalone\l/qa/genEvents.cxx">
<polygon fill="none" stroke="black" points="1420.5,-189.5 1420.5,-241.5 1575.5,-241.5 1575.5,-189.5 1420.5,-189.5"/>
<text text-anchor="start" x="1428.5" y="-229.5" font-family="Helvetica,sans-Serif" font-size="10.00">/home/travis/build</text>
<text text-anchor="start" x="1428.5" y="-218.5" font-family="Helvetica,sans-Serif" font-size="10.00">/AliceO2Group/AliceO2</text>
<text text-anchor="start" x="1428.5" y="-207.5" font-family="Helvetica,sans-Serif" font-size="10.00">/GPU/GPUTracking/Standalone</text>
<text text-anchor="middle" x="1498" y="-196.5" font-family="Helvetica,sans-Serif" font-size="10.00">/qa/genEvents.cxx</text>
</a>
</g>
</g>
<!-- Node18&#45;&gt;Node29 -->
<g id="edge30" class="edge"><title>Node18&#45;&gt;Node29</title>
<path fill="none" stroke="midnightblue" d="M1442.17,-271.077C1452.13,-261.335 1462.91,-250.8 1472.32,-241.607"/>
<polygon fill="midnightblue" stroke="midnightblue" points="1439.45,-268.843 1434.74,-278.336 1444.34,-273.849 1439.45,-268.843"/>
</g>
<!-- Node30 -->
<g id="node30" class="node"><title>Node30</title>
<g id="a_node30"><a xlink:href="../../de/ddc/GPUQA_8cxx.html" target="_top" xlink:title="/home/travis/build\l/AliceO2Group/AliceO2\l/GPU/GPUTracking/Standalone\l/qa/GPUQA.cxx">
<polygon fill="none" stroke="black" points="1593.5,-189.5 1593.5,-241.5 1748.5,-241.5 1748.5,-189.5 1593.5,-189.5"/>
<text text-anchor="start" x="1601.5" y="-229.5" font-family="Helvetica,sans-Serif" font-size="10.00">/home/travis/build</text>
<text text-anchor="start" x="1601.5" y="-218.5" font-family="Helvetica,sans-Serif" font-size="10.00">/AliceO2Group/AliceO2</text>
<text text-anchor="start" x="1601.5" y="-207.5" font-family="Helvetica,sans-Serif" font-size="10.00">/GPU/GPUTracking/Standalone</text>
<text text-anchor="middle" x="1671" y="-196.5" font-family="Helvetica,sans-Serif" font-size="10.00">/qa/GPUQA.cxx</text>
</a>
</g>
</g>
<!-- Node18&#45;&gt;Node30 -->
<g id="edge31" class="edge"><title>Node18&#45;&gt;Node30</title>
<path fill="none" stroke="midnightblue" d="M1485.7,-278.033C1520.21,-266.57 1560.85,-253.078 1595.25,-241.653"/>
<polygon fill="midnightblue" stroke="midnightblue" points="1484.52,-274.735 1476.13,-281.208 1486.72,-281.378 1484.52,-274.735"/>
</g>
<!-- Node31 -->
<g id="node31" class="node"><title>Node31</title>
<g id="a_node31"><a xlink:href="../../d9/d33/GPUTRDTracker_8cxx.html" target="_top" xlink:title="/home/travis/build\l/AliceO2Group/AliceO2\l/GPU/GPUTracking/TRDTracking\l/GPUTRDTracker.cxx">
<polygon fill="none" stroke="black" points="1766.5,-189.5 1766.5,-241.5 1931.5,-241.5 1931.5,-189.5 1766.5,-189.5"/>
<text text-anchor="start" x="1774.5" y="-229.5" font-family="Helvetica,sans-Serif" font-size="10.00">/home/travis/build</text>
<text text-anchor="start" x="1774.5" y="-218.5" font-family="Helvetica,sans-Serif" font-size="10.00">/AliceO2Group/AliceO2</text>
<text text-anchor="start" x="1774.5" y="-207.5" font-family="Helvetica,sans-Serif" font-size="10.00">/GPU/GPUTracking/TRDTracking</text>
<text text-anchor="middle" x="1849" y="-196.5" font-family="Helvetica,sans-Serif" font-size="10.00">/GPUTRDTracker.cxx</text>
</a>
</g>
</g>
<!-- Node18&#45;&gt;Node31 -->
<g id="edge33" class="edge"><title>Node18&#45;&gt;Node31</title>
<path fill="none" stroke="midnightblue" d="M1486.27,-292.014C1557.07,-280.976 1664.61,-262.919 1757,-242 1760.07,-241.305 1763.19,-240.572 1766.34,-239.811"/>
<polygon fill="midnightblue" stroke="midnightblue" points="1485.44,-288.6 1476.09,-293.591 1486.51,-295.518 1485.44,-288.6"/>
</g>
<!-- Node20 -->
<g id="node20" class="node"><title>Node20</title>
<g id="a_node20"><a xlink:href="../../d7/d36/GPUReconstructionTimeframe_8cxx.html" target="_top" xlink:title="/home/travis/build\l/AliceO2Group/AliceO2\l/GPU/GPUTracking/Base\l/GPUReconstructionTimeframe.cxx">
<polygon fill="none" stroke="black" points="1790.5,-95 1790.5,-147 1963.5,-147 1963.5,-95 1790.5,-95"/>
<text text-anchor="start" x="1798.5" y="-135" font-family="Helvetica,sans-Serif" font-size="10.00">/home/travis/build</text>
<text text-anchor="start" x="1798.5" y="-124" font-family="Helvetica,sans-Serif" font-size="10.00">/AliceO2Group/AliceO2</text>
<text text-anchor="start" x="1798.5" y="-113" font-family="Helvetica,sans-Serif" font-size="10.00">/GPU/GPUTracking/Base</text>
<text text-anchor="middle" x="1877" y="-102" font-family="Helvetica,sans-Serif" font-size="10.00">/GPUReconstructionTimeframe.cxx</text>
</a>
</g>
</g>
<!-- Node19&#45;&gt;Node20 -->
<g id="edge21" class="edge"><title>Node19&#45;&gt;Node20</title>
<path fill="none" stroke="midnightblue" d="M1980.63,-184.245C1960.59,-172.207 1937.8,-158.52 1918.71,-147.052"/>
<polygon fill="midnightblue" stroke="midnightblue" points="1978.95,-187.319 1989.33,-189.468 1982.56,-181.319 1978.95,-187.319"/>
</g>
<!-- Node19&#45;&gt;Node21 -->
<g id="edge22" class="edge"><title>Node19&#45;&gt;Node21</title>
<path fill="none" stroke="midnightblue" d="M2041.65,-179.324C2044.88,-168.647 2048.37,-157.133 2051.36,-147.245"/>
<polygon fill="midnightblue" stroke="midnightblue" points="2038.2,-178.639 2038.65,-189.224 2044.9,-180.667 2038.2,-178.639"/>
</g>
<!-- Node34 -->
<g id="node34" class="node"><title>Node34</title>
<g id="a_node34"><a xlink:href="../../d6/d2c/GPUChainITS_8cxx.html" target="_top" xlink:title="/home/travis/build\l/AliceO2Group/AliceO2\l/GPU/GPUTracking/Global\l/GPUChainITS.cxx">
<polygon fill="none" stroke="black" points="0,-189.5 0,-241.5 134,-241.5 134,-189.5 0,-189.5"/>
<text text-anchor="start" x="8" y="-229.5" font-family="Helvetica,sans-Serif" font-size="10.00">/home/travis/build</text>
<text text-anchor="start" x="8" y="-218.5" font-family="Helvetica,sans-Serif" font-size="10.00">/AliceO2Group/AliceO2</text>
<text text-anchor="start" x="8" y="-207.5" font-family="Helvetica,sans-Serif" font-size="10.00">/GPU/GPUTracking/Global</text>
<text text-anchor="middle" x="67" y="-196.5" font-family="Helvetica,sans-Serif" font-size="10.00">/GPUChainITS.cxx</text>
</a>
</g>
</g>
<!-- Node33&#45;&gt;Node34 -->
<g id="edge36" class="edge"><title>Node33&#45;&gt;Node34</title>
<path fill="none" stroke="midnightblue" d="M1031.86,-278.031C641.797,-208.088 529.103,-313.087 143,-242 140.126,-241.471 137.211,-240.857 134.283,-240.176"/>
<polygon fill="midnightblue" stroke="midnightblue" points="1031.25,-281.477 1041.72,-279.824 1032.5,-274.59 1031.25,-281.477"/>
</g>
<!-- Node36 -->
<g id="node36" class="node"><title>Node36</title>
<g id="a_node36"><a xlink:href="../../d0/d25/GPUReconstructionIncludesDevice_8h.html" target="_top" xlink:title="/home/travis/build\l/AliceO2Group/AliceO2\l/GPU/GPUTracking/Base\l/GPUReconstructionIncludesDevice.h">
<polygon fill="none" stroke="black" points="2410.5,-367.5 2410.5,-419.5 2593.5,-419.5 2593.5,-367.5 2410.5,-367.5"/>
<text text-anchor="start" x="2418.5" y="-407.5" font-family="Helvetica,sans-Serif" font-size="10.00">/home/travis/build</text>
<text text-anchor="start" x="2418.5" y="-396.5" font-family="Helvetica,sans-Serif" font-size="10.00">/AliceO2Group/AliceO2</text>
<text text-anchor="start" x="2418.5" y="-385.5" font-family="Helvetica,sans-Serif" font-size="10.00">/GPU/GPUTracking/Base</text>
<text text-anchor="middle" x="2502" y="-374.5" font-family="Helvetica,sans-Serif" font-size="10.00">/GPUReconstructionIncludesDevice.h</text>
</a>
</g>
</g>
<!-- Node35&#45;&gt;Node36 -->
<g id="edge38" class="edge"><title>Node35&#45;&gt;Node36</title>
<path fill="none" stroke="midnightblue" d="M2320.26,-453.278C2353.88,-442.405 2392.01,-430.072 2424.64,-419.521"/>
<polygon fill="midnightblue" stroke="midnightblue" points="2318.88,-450.045 2310.45,-456.453 2321.04,-456.706 2318.88,-450.045"/>
</g>
<!-- Node36&#45;&gt;Node8 -->
<g id="edge39" class="edge"><title>Node36&#45;&gt;Node8</title>
<path fill="none" stroke="midnightblue" d="M2603.82,-381.045C2754.58,-361.751 3025.68,-317.322 3084,-242 3105.43,-214.324 3086.52,-173.621 3069.75,-147.462"/>
<polygon fill="midnightblue" stroke="midnightblue" points="2603.11,-377.607 2593.62,-382.335 2603.99,-384.552 2603.11,-377.607"/>
</g>
</g>
</svg>
