<?xml version="1.0" encoding="UTF-8" standalone="no"?>
<!DOCTYPE svg PUBLIC "-//W3C//DTD SVG 1.1//EN"
 "http://www.w3.org/Graphics/SVG/1.1/DTD/svg11.dtd">
<!-- Generated by graphviz version 2.38.0 (20140413.2041)
 -->
<!-- Title: /home/travis/build/AliceO2Group/AliceO2/DataFormats/TimeFrame/include/TimeFrame/TimeFrame.h Pages: 1 -->
<svg width="1055pt" height="150pt"
 viewBox="0.00 0.00 1054.50 150.00" xmlns="http://www.w3.org/2000/svg" xmlns:xlink="http://www.w3.org/1999/xlink">
<g id="graph0" class="graph" transform="scale(1 1) rotate(0) translate(4 146)">
<title>/home/travis/build/AliceO2Group/AliceO2/DataFormats/TimeFrame/include/TimeFrame/TimeFrame.h</title>
<!-- Node1 -->
<g id="node1" class="node"><title>Node1</title>
<polygon fill="#bfbfbf" stroke="black" points="427.5,-89.5 427.5,-141.5 591.5,-141.5 591.5,-89.5 427.5,-89.5"/>
<text text-anchor="start" x="435.5" y="-129.5" font-family="Helvetica,sans-Serif" font-size="10.00">/home/travis/build</text>
<text text-anchor="start" x="435.5" y="-118.5" font-family="Helvetica,sans-Serif" font-size="10.00">/AliceO2Group/AliceO2</text>
<text text-anchor="start" x="435.5" y="-107.5" font-family="Helvetica,sans-Serif" font-size="10.00">/DataFormats/TimeFrame</text>
<text text-anchor="middle" x="509.5" y="-96.5" font-family="Helvetica,sans-Serif" font-size="10.00">/include/TimeFrame/TimeFrame.h</text>
</g>
<!-- Node2 -->
<g id="node2" class="node"><title>Node2</title>
<g id="a_node2"><a xlink:href="../../d5/dfd/TimeFrame_8cxx.html" target="_top" xlink:title="/home/travis/build\l/AliceO2Group/AliceO2\l/DataFormats/TimeFrame\l/src/TimeFrame.cxx">
<polygon fill="none" stroke="black" points="0,-0.5 0,-52.5 129,-52.5 129,-0.5 0,-0.5"/>
<text text-anchor="start" x="8" y="-40.5" font-family="Helvetica,sans-Serif" font-size="10.00">/home/travis/build</text>
<text text-anchor="start" x="8" y="-29.5" font-family="Helvetica,sans-Serif" font-size="10.00">/AliceO2Group/AliceO2</text>
<text text-anchor="start" x="8" y="-18.5" font-family="Helvetica,sans-Serif" font-size="10.00">/DataFormats/TimeFrame</text>
<text text-anchor="middle" x="64.5" y="-7.5" font-family="Helvetica,sans-Serif" font-size="10.00">/src/TimeFrame.cxx</text>
</a>
</g>
</g>
<!-- Node1&#45;&gt;Node2 -->
<g id="edge1" class="edge"><title>Node1&#45;&gt;Node2</title>
<path fill="none" stroke="midnightblue" d="M417.381,-103.762C341.54,-93.852 231.586,-77.0193 137.5,-53 134.768,-52.3027 131.994,-51.5481 129.202,-50.7505"/>
<polygon fill="midnightblue" stroke="midnightblue" points="417.02,-107.244 427.386,-105.055 417.917,-100.302 417.02,-107.244"/>
</g>
<!-- Node3 -->
<g id="node3" class="node"><title>Node3</title>
<g id="a_node3"><a xlink:href="../../df/d0a/TimeFrameTest_8cxx.html" target="_top" xlink:title="/home/travis/build\l/AliceO2Group/AliceO2\l/DataFormats/TimeFrame\l/test/TimeFrameTest.cxx">
<polygon fill="none" stroke="black" points="147,-0.5 147,-52.5 276,-52.5 276,-0.5 147,-0.5"/>
<text text-anchor="start" x="155" y="-40.5" font-family="Helvetica,sans-Serif" font-size="10.00">/home/travis/build</text>
<text text-anchor="start" x="155" y="-29.5" font-family="Helvetica,sans-Serif" font-size="10.00">/AliceO2Group/AliceO2</text>
<text text-anchor="start" x="155" y="-18.5" font-family="Helvetica,sans-Serif" font-size="10.00">/DataFormats/TimeFrame</text>
<text text-anchor="middle" x="211.5" y="-7.5" font-family="Helvetica,sans-Serif" font-size="10.00">/test/TimeFrameTest.cxx</text>
</a>
</g>
</g>
<!-- Node1&#45;&gt;Node3 -->
<g id="edge2" class="edge"><title>Node1&#45;&gt;Node3</title>
<path fill="none" stroke="midnightblue" d="M417.654,-90.9367C376.708,-80.0363 327.996,-66.5237 284.5,-53 281.808,-52.163 279.066,-51.2917 276.301,-50.3974"/>
<polygon fill="midnightblue" stroke="midnightblue" points="416.782,-94.3264 427.345,-93.5066 418.576,-87.5603 416.782,-94.3264"/>
</g>
<!-- Node4 -->
<g id="node4" class="node"><title>Node4</title>
<g id="a_node4"><a xlink:href="../../df/d5b/EPNReceiverDevice_8cxx.html" target="_top" xlink:title="/home/travis/build\l/AliceO2Group/AliceO2\l/Utilities/DataFlow/src\l/EPNReceiverDevice.cxx">
<polygon fill="none" stroke="black" points="294,-0.5 294,-52.5 423,-52.5 423,-0.5 294,-0.5"/>
<text text-anchor="start" x="302" y="-40.5" font-family="Helvetica,sans-Serif" font-size="10.00">/home/travis/build</text>
<text text-anchor="start" x="302" y="-29.5" font-family="Helvetica,sans-Serif" font-size="10.00">/AliceO2Group/AliceO2</text>
<text text-anchor="start" x="302" y="-18.5" font-family="Helvetica,sans-Serif" font-size="10.00">/Utilities/DataFlow/src</text>
<text text-anchor="middle" x="358.5" y="-7.5" font-family="Helvetica,sans-Serif" font-size="10.00">/EPNReceiverDevice.cxx</text>
</a>
</g>
</g>
<!-- Node1&#45;&gt;Node4 -->
<g id="edge3" class="edge"><title>Node1&#45;&gt;Node4</title>
<path fill="none" stroke="midnightblue" d="M456.686,-84.0705C438.838,-73.7877 419.127,-62.4307 402.077,-52.6075"/>
<polygon fill="midnightblue" stroke="midnightblue" points="455.413,-87.3763 465.825,-89.336 458.907,-81.311 455.413,-87.3763"/>
</g>
<!-- Node5 -->
<g id="node5" class="node"><title>Node5</title>
<g id="a_node5"><a xlink:href="../../d3/d38/FakeTimeframeBuilder_8cxx.html" target="_top" xlink:title="/home/travis/build\l/AliceO2Group/AliceO2\l/Utilities/DataFlow/src\l/FakeTimeframeBuilder.cxx">
<polygon fill="none" stroke="black" points="441,-0.5 441,-52.5 578,-52.5 578,-0.5 441,-0.5"/>
<text text-anchor="start" x="449" y="-40.5" font-family="Helvetica,sans-Serif" font-size="10.00">/home/travis/build</text>
<text text-anchor="start" x="449" y="-29.5" font-family="Helvetica,sans-Serif" font-size="10.00">/AliceO2Group/AliceO2</text>
<text text-anchor="start" x="449" y="-18.5" font-family="Helvetica,sans-Serif" font-size="10.00">/Utilities/DataFlow/src</text>
<text text-anchor="middle" x="509.5" y="-7.5" font-family="Helvetica,sans-Serif" font-size="10.00">/FakeTimeframeBuilder.cxx</text>
</a>
</g>
</g>
<!-- Node1&#45;&gt;Node5 -->
<g id="edge4" class="edge"><title>Node1&#45;&gt;Node5</title>
<path fill="none" stroke="midnightblue" d="M509.5,-79.1908C509.5,-70.2824 509.5,-60.8986 509.5,-52.6075"/>
<polygon fill="midnightblue" stroke="midnightblue" points="506,-79.336 509.5,-89.336 513,-79.336 506,-79.336"/>
</g>
<!-- Node6 -->
<g id="node6" class="node"><title>Node6</title>
<g id="a_node6"><a xlink:href="../../d1/db0/TimeframeParser_8cxx.html" target="_top" xlink:title="/home/travis/build\l/AliceO2Group/AliceO2\l/Utilities/DataFlow/src\l/TimeframeParser.cxx">
<polygon fill="none" stroke="black" points="596.5,-0.5 596.5,-52.5 714.5,-52.5 714.5,-0.5 596.5,-0.5"/>
<text text-anchor="start" x="604.5" y="-40.5" font-family="Helvetica,sans-Serif" font-size="10.00">/home/travis/build</text>
<text text-anchor="start" x="604.5" y="-29.5" font-family="Helvetica,sans-Serif" font-size="10.00">/AliceO2Group/AliceO2</text>
<text text-anchor="start" x="604.5" y="-18.5" font-family="Helvetica,sans-Serif" font-size="10.00">/Utilities/DataFlow/src</text>
<text text-anchor="middle" x="655.5" y="-7.5" font-family="Helvetica,sans-Serif" font-size="10.00">/TimeframeParser.cxx</text>
</a>
</g>
</g>
<!-- Node1&#45;&gt;Node6 -->
<g id="edge5" class="edge"><title>Node1&#45;&gt;Node6</title>
<path fill="none" stroke="midnightblue" d="M560.566,-84.0705C577.822,-73.7877 596.881,-62.4307 613.366,-52.6075"/>
<polygon fill="midnightblue" stroke="midnightblue" points="558.528,-81.2103 551.729,-89.336 562.111,-87.2236 558.528,-81.2103"/>
</g>
<!-- Node7 -->
<g id="node7" class="node"><title>Node7</title>
<g id="a_node7"><a xlink:href="../../db/dfa/TimeframeValidatorDevice_8cxx.html" target="_top" xlink:title="Validator device for a full time frame. ">
<polygon fill="none" stroke="black" points="732.5,-0.5 732.5,-52.5 886.5,-52.5 886.5,-0.5 732.5,-0.5"/>
<text text-anchor="start" x="740.5" y="-40.5" font-family="Helvetica,sans-Serif" font-size="10.00">/home/travis/build</text>
<text text-anchor="start" x="740.5" y="-29.5" font-family="Helvetica,sans-Serif" font-size="10.00">/AliceO2Group/AliceO2</text>
<text text-anchor="start" x="740.5" y="-18.5" font-family="Helvetica,sans-Serif" font-size="10.00">/Utilities/DataFlow/src</text>
<text text-anchor="middle" x="809.5" y="-7.5" font-family="Helvetica,sans-Serif" font-size="10.00">/TimeframeValidatorDevice.cxx</text>
</a>
</g>
</g>
<!-- Node1&#45;&gt;Node7 -->
<g id="edge6" class="edge"><title>Node1&#45;&gt;Node7</title>
<path fill="none" stroke="midnightblue" d="M601.578,-88.2218C639.377,-77.3866 683.56,-64.66 723.5,-53 726.34,-52.1708 729.233,-51.3242 732.154,-50.4674"/>
<polygon fill="midnightblue" stroke="midnightblue" points="600.254,-84.9602 591.605,-91.0792 602.182,-91.6894 600.254,-84.9602"/>
</g>
<!-- Node8 -->
<g id="node8" class="node"><title>Node8</title>
<g id="a_node8"><a xlink:href="../../d7/d2f/TimeframeWriterDevice_8cxx.html" target="_top" xlink:title="/home/travis/build\l/AliceO2Group/AliceO2\l/Utilities/DataFlow/src\l/TimeframeWriterDevice.cxx">
<polygon fill="none" stroke="black" points="904.5,-0.5 904.5,-52.5 1046.5,-52.5 1046.5,-0.5 904.5,-0.5"/>
<text text-anchor="start" x="912.5" y="-40.5" font-family="Helvetica,sans-Serif" font-size="10.00">/home/travis/build</text>
<text text-anchor="start" x="912.5" y="-29.5" font-family="Helvetica,sans-Serif" font-size="10.00">/AliceO2Group/AliceO2</text>
<text text-anchor="start" x="912.5" y="-18.5" font-family="Helvetica,sans-Serif" font-size="10.00">/Utilities/DataFlow/src</text>
<text text-anchor="middle" x="975.5" y="-7.5" font-family="Helvetica,sans-Serif" font-size="10.00">/TimeframeWriterDevice.cxx</text>
</a>
</g>
</g>
<!-- Node1&#45;&gt;Node8 -->
<g id="edge7" class="edge"><title>Node1&#45;&gt;Node8</title>
<path fill="none" stroke="midnightblue" d="M601.897,-103.754C680.576,-93.6586 796.301,-76.5707 895.5,-53 898.337,-52.326 901.218,-51.6017 904.12,-50.839"/>
<polygon fill="midnightblue" stroke="midnightblue" points="601.007,-100.339 591.528,-105.071 601.89,-107.283 601.007,-100.339"/>
</g>
</g>
</svg>
