<?xml version="1.0" encoding="UTF-8" standalone="no"?>
<!DOCTYPE svg PUBLIC "-//W3C//DTD SVG 1.1//EN"
 "http://www.w3.org/Graphics/SVG/1.1/DTD/svg11.dtd">
<!-- Generated by graphviz version 2.38.0 (20140413.2041)
 -->
<!-- Title: o2::framework::Produces&lt; T &gt; Pages: 1 -->
<!--zoomable 182 -->
<svg id="main" version="1.1" xmlns="http://www.w3.org/2000/svg" xmlns:xlink="http://www.w3.org/1999/xlink" xml:space="preserve" onload="init(evt)">
<style type="text/css"><![CDATA[
.edge:hover path { stroke: red; }
.edge:hover polygon { stroke: red; fill: red; }
]]></style>
<script type="text/javascript"><![CDATA[
var edges = document.getElementsByTagName('g');
if (edges && edges.length) {
  for (var i=0;i<edges.length;i++) {
    if (edges[i].id.substr(0,4)=='edge') {
      edges[i].setAttribute('class','edge');
    }
  }
}
]]></script>
        <defs>
                <circle id="rim" cx="0" cy="0" r="7"/>
                <circle id="rim2" cx="0" cy="0" r="3.5"/>
                <g id="zoomPlus">
                        <use xlink:href="#rim" fill="#404040">
                                <set attributeName="fill" to="#808080" begin="zoomplus.mouseover" end="zoomplus.mouseout"/>
                        </use>
                        <path d="M-4,0h8M0,-4v8" fill="none" stroke="white" stroke-width="1.5" pointer-events="none"/>
                </g>
                <g id="zoomMin">
                        <use xlink:href="#rim" fill="#404040">
                                <set attributeName="fill" to="#808080" begin="zoomminus.mouseover" end="zoomminus.mouseout"/>
                        </use>
                        <path d="M-4,0h8" fill="none" stroke="white" stroke-width="1.5" pointer-events="none"/>
                </g>
                <g id="dirArrow">
                        <path fill="none" stroke="white" stroke-width="1.5" d="M0,-3.0v7 M-2.5,-0.5L0,-3.0L2.5,-0.5"/>
                </g>
               <g id="resetDef">
                       <use xlink:href="#rim2" fill="#404040">
                               <set attributeName="fill" to="#808080" begin="reset.mouseover" end="reset.mouseout"/>
                       </use>
               </g>
        </defs>

<script type="text/javascript">
var viewWidth = 566;
var viewHeight = 182;
var sectionId = 'dynsection-0';
</script>
<script xlink:href="../../svgpan.js"/>
<svg id="graph" class="graph">
<g id="viewport">
<title>o2::framework::Produces&lt; T &gt;</title>
<!-- Node1 -->
<g id="node1" class="node"><title>Node1</title>
<polygon fill="#bfbfbf" stroke="black" points="204,-116.5 204,-173.5 354,-173.5 354,-116.5 204,-116.5"/>
<text text-anchor="middle" x="279" y="-161.5" font-family="Helvetica,sans-Serif" font-size="10.00">o2::framework::Produces&lt; T &gt;</text>
<polyline fill="none" stroke="black" points="204,-154.5 354,-154.5 "/>
<text text-anchor="middle" x="279" y="-142.5" font-family="Helvetica,sans-Serif" font-size="10.00"> </text>
<polyline fill="none" stroke="black" points="204,-135.5 354,-135.5 "/>
<text text-anchor="middle" x="279" y="-123.5" font-family="Helvetica,sans-Serif" font-size="10.00"> </text>
</g>
<!-- Node2 -->
<g id="node2" class="node"><title>Node2</title>
<g id="a_node2"><a xlink:href="../../d6/d86/structo2_1_1framework_1_1Produces.html" target="_top" xlink:title="{o2::framework::Produces\l\&lt; aod::FooBars \&gt;\n||}">
<polygon fill="none" stroke="black" points="0,-0.5 0,-68.5 126,-68.5 126,-0.5 0,-0.5"/>
<text text-anchor="start" x="8" y="-56.5" font-family="Helvetica,sans-Serif" font-size="10.00">o2::framework::Produces</text>
<text text-anchor="middle" x="63" y="-45.5" font-family="Helvetica,sans-Serif" font-size="10.00">&lt; aod::FooBars &gt;</text>
<polyline fill="none" stroke="black" points="0,-38.5 126,-38.5 "/>
<text text-anchor="middle" x="63" y="-26.5" font-family="Helvetica,sans-Serif" font-size="10.00"> </text>
<polyline fill="none" stroke="black" points="0,-19.5 126,-19.5 "/>
<text text-anchor="middle" x="63" y="-7.5" font-family="Helvetica,sans-Serif" font-size="10.00"> </text>
</a>
</g>
</g>
<!-- Node1&#45;&gt;Node2 -->
<g id="edge1" class="edge"><title>Node1&#45;&gt;Node2</title>
<path fill="none" stroke="orange" d="M194.464,-115.38C181.364,-110.093 168.156,-104.248 156,-98 139.564,-89.5515 122.519,-78.7664 107.581,-68.5425"/>
<polygon fill="orange" stroke="orange" points="193.381,-118.715 203.967,-119.129 195.95,-112.203 193.381,-118.715"/>
<text text-anchor="middle" x="196" y="-90" font-family="Helvetica,sans-Serif" font-size="10.00"> &lt; aod::FooBars &gt;</text>
</g>
<!-- Node3 -->
<g id="node3" class="node"><title>Node3</title>
<g id="a_node3"><a xlink:href="../../d6/d86/structo2_1_1framework_1_1Produces.html" target="_top" xlink:title="{o2::framework::Produces\l\&lt; aod::EtaPhiPt \&gt;\n||}">
<polygon fill="none" stroke="black" points="144,-0.5 144,-68.5 270,-68.5 270,-0.5 144,-0.5"/>
<text text-anchor="start" x="152" y="-56.5" font-family="Helvetica,sans-Serif" font-size="10.00">o2::framework::Produces</text>
<text text-anchor="middle" x="207" y="-45.5" font-family="Helvetica,sans-Serif" font-size="10.00">&lt; aod::EtaPhiPt &gt;</text>
<polyline fill="none" stroke="black" points="144,-38.5 270,-38.5 "/>
<text text-anchor="middle" x="207" y="-26.5" font-family="Helvetica,sans-Serif" font-size="10.00"> </text>
<polyline fill="none" stroke="black" points="144,-19.5 270,-19.5 "/>
<text text-anchor="middle" x="207" y="-7.5" font-family="Helvetica,sans-Serif" font-size="10.00"> </text>
</a>
</g>
</g>
<!-- Node1&#45;&gt;Node3 -->
<g id="edge2" class="edge"><title>Node1&#45;&gt;Node3</title>
<path fill="none" stroke="orange" d="M253.794,-108.048C251.48,-104.663 249.186,-101.275 247,-98 240.706,-88.5708 234.013,-78.2389 227.938,-68.7391"/>
<polygon fill="orange" stroke="orange" points="250.982,-110.136 259.536,-116.388 256.748,-106.167 250.982,-110.136"/>
<text text-anchor="middle" x="288" y="-90" font-family="Helvetica,sans-Serif" font-size="10.00"> &lt; aod::EtaPhiPt &gt;</text>
</g>
<!-- Node4 -->
<g id="node4" class="node"><title>Node4</title>
<g id="a_node4"><a xlink:href="../../d6/d86/structo2_1_1framework_1_1Produces.html" target="_top" xlink:title="{o2::framework::Produces\l\&lt; aod::EtaPhis \&gt;\n||}">
<polygon fill="none" stroke="black" points="288,-0.5 288,-68.5 414,-68.5 414,-0.5 288,-0.5"/>
<text text-anchor="start" x="296" y="-56.5" font-family="Helvetica,sans-Serif" font-size="10.00">o2::framework::Produces</text>
<text text-anchor="middle" x="351" y="-45.5" font-family="Helvetica,sans-Serif" font-size="10.00">&lt; aod::EtaPhis &gt;</text>
<polyline fill="none" stroke="black" points="288,-38.5 414,-38.5 "/>
<text text-anchor="middle" x="351" y="-26.5" font-family="Helvetica,sans-Serif" font-size="10.00"> </text>
<polyline fill="none" stroke="black" points="288,-19.5 414,-19.5 "/>
<text text-anchor="middle" x="351" y="-7.5" font-family="Helvetica,sans-Serif" font-size="10.00"> </text>
</a>
</g>
</g>
<!-- Node1&#45;&gt;Node4 -->
<g id="edge3" class="edge"><title>Node1&#45;&gt;Node4</title>
<path fill="none" stroke="orange" d="M320.618,-108.924C323.674,-105.417 326.523,-101.758 329,-98 334.824,-89.1637 339.303,-78.6065 342.652,-68.7067"/>
<polygon fill="orange" stroke="orange" points="317.953,-106.65 313.664,-116.337 323.058,-111.439 317.953,-106.65"/>
<text text-anchor="middle" x="374" y="-90" font-family="Helvetica,sans-Serif" font-size="10.00"> &lt; aod::EtaPhis &gt;</text>
</g>
<!-- Node5 -->
<g id="node5" class="node"><title>Node5</title>
<g id="a_node5"><a xlink:href="../../d6/d86/structo2_1_1framework_1_1Produces.html" target="_top" xlink:title="{o2::framework::Produces\l\&lt; aod::EtaPhi \&gt;\n||}">
<polygon fill="none" stroke="black" points="432,-0.5 432,-68.5 558,-68.5 558,-0.5 432,-0.5"/>
<text text-anchor="start" x="440" y="-56.5" font-family="Helvetica,sans-Serif" font-size="10.00">o2::framework::Produces</text>
<text text-anchor="middle" x="495" y="-45.5" font-family="Helvetica,sans-Serif" font-size="10.00">&lt; aod::EtaPhi &gt;</text>
<polyline fill="none" stroke="black" points="432,-38.5 558,-38.5 "/>
<text text-anchor="middle" x="495" y="-26.5" font-family="Helvetica,sans-Serif" font-size="10.00"> </text>
<polyline fill="none" stroke="black" points="432,-19.5 558,-19.5 "/>
<text text-anchor="middle" x="495" y="-7.5" font-family="Helvetica,sans-Serif" font-size="10.00"> </text>
</a>
</g>
</g>
<!-- Node1&#45;&gt;Node5 -->
<g id="edge4" class="edge"><title>Node1&#45;&gt;Node5</title>
<path fill="none" stroke="orange" d="M364.005,-120.924C382.008,-114.603 400.532,-106.967 417,-98 431.783,-89.9504 446.561,-79.0278 459.216,-68.565"/>
<polygon fill="orange" stroke="orange" points="362.415,-117.768 354.074,-124.301 364.669,-124.395 362.415,-117.768"/>
<text text-anchor="middle" x="469.5" y="-90" font-family="Helvetica,sans-Serif" font-size="10.00"> &lt; aod::EtaPhi &gt;</text>
</g>
</g>
</svg>
        <g id="navigator" transform="translate(0 0)" fill="#404254">
                <rect fill="#f2f5e9" fill-opacity="0.5" stroke="#606060" stroke-width=".5" x="0" y="0" width="60" height="60"/>
                <use id="zoomplus" xlink:href="#zoomPlus" x="17" y="9" onmousedown="handleZoom(evt,'in')"/>
                <use id="zoomminus" xlink:href="#zoomMin" x="42" y="9" onmousedown="handleZoom(evt,'out')"/>
                <use id="reset" xlink:href="#resetDef" x="30" y="36" onmousedown="handleReset()"/>
                <g id="arrowUp" xlink:href="#dirArrow" transform="translate(30 24)" onmousedown="handlePan(0,-1)">
                  <use xlink:href="#rim" fill="#404040">
                        <set attributeName="fill" to="#808080" begin="arrowUp.mouseover" end="arrowUp.mouseout"/>
                  </use>
                  <path fill="none" stroke="white" stroke-width="1.5" d="M0,-3.0v7 M-2.5,-0.5L0,-3.0L2.5,-0.5"/>
                </g>
                <g id="arrowRight" xlink:href="#dirArrow" transform="rotate(90) translate(36 -43)" onmousedown="handlePan(1,0)">
                  <use xlink:href="#rim" fill="#404040">
                        <set attributeName="fill" to="#808080" begin="arrowRight.mouseover" end="arrowRight.mouseout"/>
                  </use>
                  <path fill="none" stroke="white" stroke-width="1.5" d="M0,-3.0v7 M-2.5,-0.5L0,-3.0L2.5,-0.5"/>
                </g>
                <g id="arrowDown" xlink:href="#dirArrow" transform="rotate(180) translate(-30 -48)" onmousedown="handlePan(0,1)">
                  <use xlink:href="#rim" fill="#404040">
                        <set attributeName="fill" to="#808080" begin="arrowDown.mouseover" end="arrowDown.mouseout"/>
                  </use>
                  <path fill="none" stroke="white" stroke-width="1.5" d="M0,-3.0v7 M-2.5,-0.5L0,-3.0L2.5,-0.5"/>
                </g>
                <g id="arrowLeft" xlink:href="#dirArrow" transform="rotate(270) translate(-36 17)" onmousedown="handlePan(-1,0)">
                  <use xlink:href="#rim" fill="#404040">
                        <set attributeName="fill" to="#808080" begin="arrowLeft.mouseover" end="arrowLeft.mouseout"/>
                  </use>
                  <path fill="none" stroke="white" stroke-width="1.5" d="M0,-3.0v7 M-2.5,-0.5L0,-3.0L2.5,-0.5"/>
                </g>
        </g>
        <svg viewBox="0 0 15 15" width="100%" height="30px" preserveAspectRatio="xMaxYMin meet">
         <g id="arrow_out" transform="scale(0.3 0.3)">
          <a xlink:href="structo2_1_1framework_1_1Produces__inherit__graph_org.svg" target="_base">
           <rect id="button" ry="5" rx="5" y="6" x="6" height="38" width="38"
                fill="#f2f5e9" fill-opacity="0.5" stroke="#606060" stroke-width="1.0"/>
           <path id="arrow"
             d="M 11.500037,31.436501 C 11.940474,20.09759 22.043105,11.32322 32.158766,21.979434 L 37.068811,17.246167 C 37.068811,17.246167 37.088388,32 37.088388,32 L 22.160133,31.978069 C 22.160133,31.978069 26.997745,27.140456 26.997745,27.140456 C 18.528582,18.264221 13.291696,25.230495 11.500037,31.436501 z"
             style="fill:#404040;"/>
          </a>
         </g>
        </svg>
</svg>
