<?xml version="1.0" encoding="UTF-8" standalone="no"?>
<!DOCTYPE svg PUBLIC "-//W3C//DTD SVG 1.1//EN"
 "http://www.w3.org/Graphics/SVG/1.1/DTD/svg11.dtd">
<!-- Generated by graphviz version 2.38.0 (20140413.2041)
 -->
<!-- Title: o2::data_flow::TimeframeReaderDevice Pages: 1 -->
<svg width="171pt" height="375pt"
 viewBox="0.00 0.00 171.00 375.00" xmlns="http://www.w3.org/2000/svg" xmlns:xlink="http://www.w3.org/1999/xlink">
<g id="graph0" class="graph" transform="scale(1 1) rotate(0) translate(4 371)">
<title>o2::data_flow::TimeframeReaderDevice</title>
<!-- Node1 -->
<g id="node1" class="node"><title>Node1</title>
<polygon fill="#bfbfbf" stroke="black" points="0,-0.5 0,-156.5 163,-156.5 163,-0.5 0,-0.5"/>
<text text-anchor="start" x="8" y="-144.5" font-family="Helvetica,sans-Serif" font-size="10.00">o2::data_flow::Timeframe</text>
<text text-anchor="middle" x="81.5" y="-133.5" font-family="Helvetica,sans-Serif" font-size="10.00">ReaderDevice</text>
<polyline fill="none" stroke="black" points="0,-126.5 163,-126.5 "/>
<text text-anchor="start" x="8" y="-114.5" font-family="Helvetica,sans-Serif" font-size="10.00">+ OptionKeyOutputChannelName</text>
<text text-anchor="start" x="8" y="-103.5" font-family="Helvetica,sans-Serif" font-size="10.00">+ OptionKeyInputFileName</text>
<text text-anchor="start" x="8" y="-92.5" font-family="Helvetica,sans-Serif" font-size="10.00"># mOutChannelName</text>
<text text-anchor="start" x="8" y="-81.5" font-family="Helvetica,sans-Serif" font-size="10.00"># mInFileName</text>
<text text-anchor="start" x="8" y="-70.5" font-family="Helvetica,sans-Serif" font-size="10.00"># mFile</text>
<text text-anchor="start" x="8" y="-59.5" font-family="Helvetica,sans-Serif" font-size="10.00"># mSeen</text>
<polyline fill="none" stroke="black" points="0,-52.5 163,-52.5 "/>
<text text-anchor="start" x="8" y="-40.5" font-family="Helvetica,sans-Serif" font-size="10.00">+ TimeframeReaderDevice()</text>
<text text-anchor="start" x="8" y="-29.5" font-family="Helvetica,sans-Serif" font-size="10.00">+ ~TimeframeReaderDevice()</text>
<text text-anchor="start" x="8" y="-18.5" font-family="Helvetica,sans-Serif" font-size="10.00">+ InitTask()</text>
<text text-anchor="start" x="8" y="-7.5" font-family="Helvetica,sans-Serif" font-size="10.00"># ConditionalRun()</text>
</g>
<!-- Node2 -->
<g id="node2" class="node"><title>Node2</title>
<g id="a_node2"><a xlink:href="../../db/d18/classo2_1_1base_1_1O2Device.html" target="_top" xlink:title="{o2::base::O2Device\n|+ monitoring\l|+ ~O2Device()\l+ GetMonitoring()\l+ Init()\l}">
<polygon fill="none" stroke="black" points="29.5,-193.5 29.5,-272.5 133.5,-272.5 133.5,-193.5 29.5,-193.5"/>
<text text-anchor="middle" x="81.5" y="-260.5" font-family="Helvetica,sans-Serif" font-size="10.00">o2::base::O2Device</text>
<polyline fill="none" stroke="black" points="29.5,-253.5 133.5,-253.5 "/>
<text text-anchor="start" x="37.5" y="-241.5" font-family="Helvetica,sans-Serif" font-size="10.00">+ monitoring</text>
<polyline fill="none" stroke="black" points="29.5,-234.5 133.5,-234.5 "/>
<text text-anchor="start" x="37.5" y="-222.5" font-family="Helvetica,sans-Serif" font-size="10.00">+ ~O2Device()</text>
<text text-anchor="start" x="37.5" y="-211.5" font-family="Helvetica,sans-Serif" font-size="10.00">+ GetMonitoring()</text>
<text text-anchor="start" x="37.5" y="-200.5" font-family="Helvetica,sans-Serif" font-size="10.00">+ Init()</text>
</a>
</g>
</g>
<!-- Node2&#45;&gt;Node1 -->
<g id="edge1" class="edge"><title>Node2&#45;&gt;Node1</title>
<path fill="none" stroke="midnightblue" d="M81.5,-183.08C81.5,-174.607 81.5,-165.615 81.5,-156.608"/>
<polygon fill="none" stroke="midnightblue" points="78.0001,-183.123 81.5,-193.123 85.0001,-183.123 78.0001,-183.123"/>
</g>
<!-- Node3 -->
<g id="node3" class="node"><title>Node3</title>
<g id="a_node3"><a xlink:href="../../db/dfe/classFairMQDevice.html" target="_top" xlink:title="{FairMQDevice\n||}">
<polygon fill="none" stroke="black" points="41.5,-309.5 41.5,-366.5 121.5,-366.5 121.5,-309.5 41.5,-309.5"/>
<text text-anchor="middle" x="81.5" y="-354.5" font-family="Helvetica,sans-Serif" font-size="10.00">FairMQDevice</text>
<polyline fill="none" stroke="black" points="41.5,-347.5 121.5,-347.5 "/>
<text text-anchor="middle" x="81.5" y="-335.5" font-family="Helvetica,sans-Serif" font-size="10.00"> </text>
<polyline fill="none" stroke="black" points="41.5,-328.5 121.5,-328.5 "/>
<text text-anchor="middle" x="81.5" y="-316.5" font-family="Helvetica,sans-Serif" font-size="10.00"> </text>
</a>
</g>
</g>
<!-- Node3&#45;&gt;Node2 -->
<g id="edge2" class="edge"><title>Node3&#45;&gt;Node2</title>
<path fill="none" stroke="midnightblue" d="M81.5,-299.156C81.5,-290.473 81.5,-281.232 81.5,-272.52"/>
<polygon fill="none" stroke="midnightblue" points="78.0001,-299.398 81.5,-309.398 85.0001,-299.398 78.0001,-299.398"/>
</g>
</g>
</svg>
