<?xml version="1.0" encoding="UTF-8" standalone="no"?>
<!DOCTYPE svg PUBLIC "-//W3C//DTD SVG 1.1//EN"
 "http://www.w3.org/Graphics/SVG/1.1/DTD/svg11.dtd">
<!-- Generated by graphviz version 2.38.0 (20140413.2041)
 -->
<!-- Title: /home/travis/build/AliceO2Group/AliceO2/Detectors/MUON/MID/Simulation/include/MIDSimulation/ColumnDataMC.h Pages: 1 -->
<svg width="1242pt" height="239pt"
 viewBox="0.00 0.00 1242.00 239.00" xmlns="http://www.w3.org/2000/svg" xmlns:xlink="http://www.w3.org/1999/xlink">
<g id="graph0" class="graph" transform="scale(1 1) rotate(0) translate(4 235)">
<title>/home/travis/build/AliceO2Group/AliceO2/Detectors/MUON/MID/Simulation/include/MIDSimulation/ColumnDataMC.h</title>
<!-- Node1 -->
<g id="node1" class="node"><title>Node1</title>
<polygon fill="#bfbfbf" stroke="black" points="504,-178.5 504,-230.5 704,-230.5 704,-178.5 504,-178.5"/>
<text text-anchor="start" x="512" y="-218.5" font-family="Helvetica,sans-Serif" font-size="10.00">/home/travis/build</text>
<text text-anchor="start" x="512" y="-207.5" font-family="Helvetica,sans-Serif" font-size="10.00">/AliceO2Group/AliceO2</text>
<text text-anchor="start" x="512" y="-196.5" font-family="Helvetica,sans-Serif" font-size="10.00">/Detectors/MUON/MID/Simulation</text>
<text text-anchor="middle" x="604" y="-185.5" font-family="Helvetica,sans-Serif" font-size="10.00">/include/MIDSimulation/ColumnDataMC.h</text>
</g>
<!-- Node2 -->
<g id="node2" class="node"><title>Node2</title>
<g id="a_node2"><a xlink:href="../../da/de1/MUON_2MID_2Simulation_2include_2MIDSimulation_2Digitizer_8h.html" target="_top" xlink:title="Digitizer for MID. ">
<polygon fill="none" stroke="black" points="187.5,-89.5 187.5,-141.5 354.5,-141.5 354.5,-89.5 187.5,-89.5"/>
<text text-anchor="start" x="195.5" y="-129.5" font-family="Helvetica,sans-Serif" font-size="10.00">/home/travis/build</text>
<text text-anchor="start" x="195.5" y="-118.5" font-family="Helvetica,sans-Serif" font-size="10.00">/AliceO2Group/AliceO2</text>
<text text-anchor="start" x="195.5" y="-107.5" font-family="Helvetica,sans-Serif" font-size="10.00">/Detectors/MUON/MID/Simulation</text>
<text text-anchor="middle" x="271" y="-96.5" font-family="Helvetica,sans-Serif" font-size="10.00">/include/MIDSimulation/Digitizer.h</text>
</a>
</g>
</g>
<!-- Node1&#45;&gt;Node2 -->
<g id="edge1" class="edge"><title>Node1&#45;&gt;Node2</title>
<path fill="none" stroke="midnightblue" d="M498.341,-175.895C451.918,-163.767 398.18,-149.727 354.608,-138.344"/>
<polygon fill="midnightblue" stroke="midnightblue" points="497.569,-179.311 508.129,-178.453 499.339,-172.539 497.569,-179.311"/>
</g>
<!-- Node4 -->
<g id="node4" class="node"><title>Node4</title>
<g id="a_node4"><a xlink:href="../../d6/d45/testSimulation_8cxx.html" target="_top" xlink:title="/home/travis/build\l/AliceO2Group/AliceO2\l/Detectors/MUON/MID/Simulation\l/test/testSimulation.cxx">
<polygon fill="none" stroke="black" points="335.5,-0.5 335.5,-52.5 502.5,-52.5 502.5,-0.5 335.5,-0.5"/>
<text text-anchor="start" x="343.5" y="-40.5" font-family="Helvetica,sans-Serif" font-size="10.00">/home/travis/build</text>
<text text-anchor="start" x="343.5" y="-29.5" font-family="Helvetica,sans-Serif" font-size="10.00">/AliceO2Group/AliceO2</text>
<text text-anchor="start" x="343.5" y="-18.5" font-family="Helvetica,sans-Serif" font-size="10.00">/Detectors/MUON/MID/Simulation</text>
<text text-anchor="middle" x="419" y="-7.5" font-family="Helvetica,sans-Serif" font-size="10.00">/test/testSimulation.cxx</text>
</a>
</g>
</g>
<!-- Node1&#45;&gt;Node4 -->
<g id="edge11" class="edge"><title>Node1&#45;&gt;Node4</title>
<path fill="none" stroke="midnightblue" d="M544.845,-173.302C530.021,-164.309 514.729,-153.695 502,-142 473.072,-115.423 447.882,-77.3407 433.058,-52.5164"/>
<polygon fill="midnightblue" stroke="midnightblue" points="543.105,-176.339 553.496,-178.406 546.661,-170.31 543.105,-176.339"/>
</g>
<!-- Node5 -->
<g id="node5" class="node"><title>Node5</title>
<g id="a_node5"><a xlink:href="../../d4/dd3/MIDDigitizerSpec_8cxx.html" target="_top" xlink:title="/home/travis/build\l/AliceO2Group/AliceO2\l/Steer/DigitizerWorkflow\l/src/MIDDigitizerSpec.cxx">
<polygon fill="none" stroke="black" points="0,-0.5 0,-52.5 132,-52.5 132,-0.5 0,-0.5"/>
<text text-anchor="start" x="8" y="-40.5" font-family="Helvetica,sans-Serif" font-size="10.00">/home/travis/build</text>
<text text-anchor="start" x="8" y="-29.5" font-family="Helvetica,sans-Serif" font-size="10.00">/AliceO2Group/AliceO2</text>
<text text-anchor="start" x="8" y="-18.5" font-family="Helvetica,sans-Serif" font-size="10.00">/Steer/DigitizerWorkflow</text>
<text text-anchor="middle" x="66" y="-7.5" font-family="Helvetica,sans-Serif" font-size="10.00">/src/MIDDigitizerSpec.cxx</text>
</a>
</g>
</g>
<!-- Node1&#45;&gt;Node5 -->
<g id="edge13" class="edge"><title>Node1&#45;&gt;Node5</title>
<path fill="none" stroke="midnightblue" d="M493.328,-195.599C385.939,-186.5 231.571,-169.206 178,-142 137.091,-121.225 102.389,-79.6643 82.8876,-52.7427"/>
<polygon fill="midnightblue" stroke="midnightblue" points="493.313,-199.11 503.569,-196.454 493.895,-192.134 493.313,-199.11"/>
</g>
<!-- Node6 -->
<g id="node6" class="node"><title>Node6</title>
<g id="a_node6"><a xlink:href="../../dc/d92/DigitsMerger_8h.html" target="_top" xlink:title="Digits merger for MID. ">
<polygon fill="none" stroke="black" points="511.5,-89.5 511.5,-141.5 696.5,-141.5 696.5,-89.5 511.5,-89.5"/>
<text text-anchor="start" x="519.5" y="-129.5" font-family="Helvetica,sans-Serif" font-size="10.00">/home/travis/build</text>
<text text-anchor="start" x="519.5" y="-118.5" font-family="Helvetica,sans-Serif" font-size="10.00">/AliceO2Group/AliceO2</text>
<text text-anchor="start" x="519.5" y="-107.5" font-family="Helvetica,sans-Serif" font-size="10.00">/Detectors/MUON/MID/Simulation</text>
<text text-anchor="middle" x="604" y="-96.5" font-family="Helvetica,sans-Serif" font-size="10.00">/include/MIDSimulation/DigitsMerger.h</text>
</a>
</g>
</g>
<!-- Node1&#45;&gt;Node6 -->
<g id="edge5" class="edge"><title>Node1&#45;&gt;Node6</title>
<path fill="none" stroke="midnightblue" d="M604,-168.191C604,-159.282 604,-149.899 604,-141.607"/>
<polygon fill="midnightblue" stroke="midnightblue" points="600.5,-168.336 604,-178.336 607.5,-168.336 600.5,-168.336"/>
</g>
<!-- Node8 -->
<g id="node8" class="node"><title>Node8</title>
<g id="a_node8"><a xlink:href="../../d6/d1b/MUON_2MID_2Workflow_2src_2DigitReaderSpec_8cxx.html" target="_top" xlink:title="Data processor spec for MID digits reader device. ">
<polygon fill="none" stroke="black" points="706,-0.5 706,-52.5 868,-52.5 868,-0.5 706,-0.5"/>
<text text-anchor="start" x="714" y="-40.5" font-family="Helvetica,sans-Serif" font-size="10.00">/home/travis/build</text>
<text text-anchor="start" x="714" y="-29.5" font-family="Helvetica,sans-Serif" font-size="10.00">/AliceO2Group/AliceO2</text>
<text text-anchor="start" x="714" y="-18.5" font-family="Helvetica,sans-Serif" font-size="10.00">/Detectors/MUON/MID/Workflow</text>
<text text-anchor="middle" x="787" y="-7.5" font-family="Helvetica,sans-Serif" font-size="10.00">/src/DigitReaderSpec.cxx</text>
</a>
</g>
</g>
<!-- Node1&#45;&gt;Node8 -->
<g id="edge12" class="edge"><title>Node1&#45;&gt;Node8</title>
<path fill="none" stroke="midnightblue" d="M663.021,-173.022C677.571,-164.084 692.539,-153.565 705,-142 733.674,-115.388 758.537,-77.3141 773.152,-52.5014"/>
<polygon fill="midnightblue" stroke="midnightblue" points="660.837,-170.25 654.043,-178.379 664.424,-176.261 660.837,-170.25"/>
</g>
<!-- Node9 -->
<g id="node9" class="node"><title>Node9</title>
<g id="a_node9"><a xlink:href="../../db/de4/DigitsPacker_8h.html" target="_top" xlink:title="Digits sorter for MID. ">
<polygon fill="none" stroke="black" points="800.5,-89.5 800.5,-141.5 985.5,-141.5 985.5,-89.5 800.5,-89.5"/>
<text text-anchor="start" x="808.5" y="-129.5" font-family="Helvetica,sans-Serif" font-size="10.00">/home/travis/build</text>
<text text-anchor="start" x="808.5" y="-118.5" font-family="Helvetica,sans-Serif" font-size="10.00">/AliceO2Group/AliceO2</text>
<text text-anchor="start" x="808.5" y="-107.5" font-family="Helvetica,sans-Serif" font-size="10.00">/Detectors/MUON/MID/Simulation</text>
<text text-anchor="middle" x="893" y="-96.5" font-family="Helvetica,sans-Serif" font-size="10.00">/include/MIDSimulation/DigitsPacker.h</text>
</a>
</g>
</g>
<!-- Node1&#45;&gt;Node9 -->
<g id="edge9" class="edge"><title>Node1&#45;&gt;Node9</title>
<path fill="none" stroke="midnightblue" d="M696.819,-175.558C733.164,-164.617 774.534,-152.163 809.884,-141.521"/>
<polygon fill="midnightblue" stroke="midnightblue" points="695.77,-172.219 687.203,-178.453 697.788,-178.921 695.77,-172.219"/>
</g>
<!-- Node11 -->
<g id="node11" class="node"><title>Node11</title>
<g id="a_node11"><a xlink:href="../../d9/d65/MIDDigitWriterSpec_8h.html" target="_top" xlink:title="/home/travis/build\l/AliceO2Group/AliceO2\l/Steer/DigitizerWorkflow\l/src/MIDDigitWriterSpec.h">
<polygon fill="none" stroke="black" points="1070,-89.5 1070,-141.5 1202,-141.5 1202,-89.5 1070,-89.5"/>
<text text-anchor="start" x="1078" y="-129.5" font-family="Helvetica,sans-Serif" font-size="10.00">/home/travis/build</text>
<text text-anchor="start" x="1078" y="-118.5" font-family="Helvetica,sans-Serif" font-size="10.00">/AliceO2Group/AliceO2</text>
<text text-anchor="start" x="1078" y="-107.5" font-family="Helvetica,sans-Serif" font-size="10.00">/Steer/DigitizerWorkflow</text>
<text text-anchor="middle" x="1136" y="-96.5" font-family="Helvetica,sans-Serif" font-size="10.00">/src/MIDDigitWriterSpec.h</text>
</a>
</g>
</g>
<!-- Node1&#45;&gt;Node11 -->
<g id="edge14" class="edge"><title>Node1&#45;&gt;Node11</title>
<path fill="none" stroke="midnightblue" d="M714.634,-186.695C792.763,-174.671 899.881,-157.87 994,-142 1018.82,-137.815 1046.04,-132.985 1069.95,-128.663"/>
<polygon fill="midnightblue" stroke="midnightblue" points="713.642,-183.307 704.29,-188.285 714.706,-190.225 713.642,-183.307"/>
</g>
<!-- Node3 -->
<g id="node3" class="node"><title>Node3</title>
<g id="a_node3"><a xlink:href="../../d6/df9/MUON_2MID_2Simulation_2src_2Digitizer_8cxx.html" target="_top" xlink:title="Implementation of the digitizer for MID. ">
<polygon fill="none" stroke="black" points="150.5,-0.5 150.5,-52.5 317.5,-52.5 317.5,-0.5 150.5,-0.5"/>
<text text-anchor="start" x="158.5" y="-40.5" font-family="Helvetica,sans-Serif" font-size="10.00">/home/travis/build</text>
<text text-anchor="start" x="158.5" y="-29.5" font-family="Helvetica,sans-Serif" font-size="10.00">/AliceO2Group/AliceO2</text>
<text text-anchor="start" x="158.5" y="-18.5" font-family="Helvetica,sans-Serif" font-size="10.00">/Detectors/MUON/MID/Simulation</text>
<text text-anchor="middle" x="234" y="-7.5" font-family="Helvetica,sans-Serif" font-size="10.00">/src/Digitizer.cxx</text>
</a>
</g>
</g>
<!-- Node2&#45;&gt;Node3 -->
<g id="edge2" class="edge"><title>Node2&#45;&gt;Node3</title>
<path fill="none" stroke="midnightblue" d="M256.353,-80.0607C252.456,-70.8956 248.319,-61.169 244.678,-52.6075"/>
<polygon fill="midnightblue" stroke="midnightblue" points="253.164,-81.5034 260.298,-89.336 259.605,-78.7638 253.164,-81.5034"/>
</g>
<!-- Node2&#45;&gt;Node4 -->
<g id="edge3" class="edge"><title>Node2&#45;&gt;Node4</title>
<path fill="none" stroke="midnightblue" d="M322.765,-84.0705C340.258,-73.7877 359.578,-62.4307 376.288,-52.6075"/>
<polygon fill="midnightblue" stroke="midnightblue" points="320.655,-81.251 313.808,-89.336 324.202,-87.2856 320.655,-81.251"/>
</g>
<!-- Node2&#45;&gt;Node5 -->
<g id="edge4" class="edge"><title>Node2&#45;&gt;Node5</title>
<path fill="none" stroke="midnightblue" d="M202.515,-85.4355C177.385,-74.7708 149.179,-62.8004 124.958,-52.5211"/>
<polygon fill="midnightblue" stroke="midnightblue" points="201.408,-88.7679 211.981,-89.4527 204.143,-82.3241 201.408,-88.7679"/>
</g>
<!-- Node6&#45;&gt;Node4 -->
<g id="edge7" class="edge"><title>Node6&#45;&gt;Node4</title>
<path fill="none" stroke="midnightblue" d="M541.393,-85.0576C518.982,-74.5186 493.949,-62.7461 472.389,-52.6075"/>
<polygon fill="midnightblue" stroke="midnightblue" points="539.952,-88.2476 550.49,-89.336 542.931,-81.9131 539.952,-88.2476"/>
</g>
<!-- Node7 -->
<g id="node7" class="node"><title>Node7</title>
<g id="a_node7"><a xlink:href="../../db/d63/DigitsMerger_8cxx.html" target="_top" xlink:title="Implementation of the digits merger for MID. ">
<polygon fill="none" stroke="black" points="520.5,-0.5 520.5,-52.5 687.5,-52.5 687.5,-0.5 520.5,-0.5"/>
<text text-anchor="start" x="528.5" y="-40.5" font-family="Helvetica,sans-Serif" font-size="10.00">/home/travis/build</text>
<text text-anchor="start" x="528.5" y="-29.5" font-family="Helvetica,sans-Serif" font-size="10.00">/AliceO2Group/AliceO2</text>
<text text-anchor="start" x="528.5" y="-18.5" font-family="Helvetica,sans-Serif" font-size="10.00">/Detectors/MUON/MID/Simulation</text>
<text text-anchor="middle" x="604" y="-7.5" font-family="Helvetica,sans-Serif" font-size="10.00">/src/DigitsMerger.cxx</text>
</a>
</g>
</g>
<!-- Node6&#45;&gt;Node7 -->
<g id="edge6" class="edge"><title>Node6&#45;&gt;Node7</title>
<path fill="none" stroke="midnightblue" d="M604,-79.1908C604,-70.2824 604,-60.8986 604,-52.6075"/>
<polygon fill="midnightblue" stroke="midnightblue" points="600.5,-79.336 604,-89.336 607.5,-79.336 600.5,-79.336"/>
</g>
<!-- Node6&#45;&gt;Node8 -->
<g id="edge8" class="edge"><title>Node6&#45;&gt;Node8</title>
<path fill="none" stroke="midnightblue" d="M666.226,-84.917C688.319,-74.414 712.956,-62.701 734.188,-52.6075"/>
<polygon fill="midnightblue" stroke="midnightblue" points="664.46,-81.8814 656.931,-89.336 667.465,-88.2033 664.46,-81.8814"/>
</g>
<!-- Node10 -->
<g id="node10" class="node"><title>Node10</title>
<g id="a_node10"><a xlink:href="../../db/dc7/DigitsPacker_8cxx.html" target="_top" xlink:title="Implementation of the digits Sorter for MID. ">
<polygon fill="none" stroke="black" points="886.5,-0.5 886.5,-52.5 1053.5,-52.5 1053.5,-0.5 886.5,-0.5"/>
<text text-anchor="start" x="894.5" y="-40.5" font-family="Helvetica,sans-Serif" font-size="10.00">/home/travis/build</text>
<text text-anchor="start" x="894.5" y="-29.5" font-family="Helvetica,sans-Serif" font-size="10.00">/AliceO2Group/AliceO2</text>
<text text-anchor="start" x="894.5" y="-18.5" font-family="Helvetica,sans-Serif" font-size="10.00">/Detectors/MUON/MID/Simulation</text>
<text text-anchor="middle" x="970" y="-7.5" font-family="Helvetica,sans-Serif" font-size="10.00">/src/DigitsPacker.cxx</text>
</a>
</g>
</g>
<!-- Node9&#45;&gt;Node10 -->
<g id="edge10" class="edge"><title>Node9&#45;&gt;Node10</title>
<path fill="none" stroke="midnightblue" d="M921.95,-81.79C930.501,-72.1288 939.722,-61.7097 947.778,-52.6075"/>
<polygon fill="midnightblue" stroke="midnightblue" points="919.278,-79.528 915.272,-89.336 924.52,-84.1673 919.278,-79.528"/>
</g>
<!-- Node12 -->
<g id="node12" class="node"><title>Node12</title>
<g id="a_node12"><a xlink:href="../../d2/dd7/SimpleDigitizerWorkflow_8cxx.html" target="_top" xlink:title="/home/travis/build\l/AliceO2Group/AliceO2\l/Steer/DigitizerWorkflow\l/src/SimpleDigitizerWorkflow.cxx">
<polygon fill="none" stroke="black" points="1072,-0.5 1072,-52.5 1234,-52.5 1234,-0.5 1072,-0.5"/>
<text text-anchor="start" x="1080" y="-40.5" font-family="Helvetica,sans-Serif" font-size="10.00">/home/travis/build</text>
<text text-anchor="start" x="1080" y="-29.5" font-family="Helvetica,sans-Serif" font-size="10.00">/AliceO2Group/AliceO2</text>
<text text-anchor="start" x="1080" y="-18.5" font-family="Helvetica,sans-Serif" font-size="10.00">/Steer/DigitizerWorkflow</text>
<text text-anchor="middle" x="1153" y="-7.5" font-family="Helvetica,sans-Serif" font-size="10.00">/src/SimpleDigitizerWorkflow.cxx</text>
</a>
</g>
</g>
<!-- Node11&#45;&gt;Node12 -->
<g id="edge15" class="edge"><title>Node11&#45;&gt;Node12</title>
<path fill="none" stroke="midnightblue" d="M1142.84,-79.4811C1144.6,-70.4865 1146.46,-60.9887 1148.09,-52.6075"/>
<polygon fill="midnightblue" stroke="midnightblue" points="1139.4,-78.8504 1140.92,-89.336 1146.27,-80.1928 1139.4,-78.8504"/>
</g>
</g>
</svg>
