<?xml version="1.0" encoding="UTF-8" standalone="no"?>
<!DOCTYPE svg PUBLIC "-//W3C//DTD SVG 1.1//EN"
 "http://www.w3.org/Graphics/SVG/1.1/DTD/svg11.dtd">
<!-- Generated by graphviz version 2.38.0 (20140413.2041)
 -->
<!-- Title: /home/travis/build/AliceO2Group/AliceO2/Examples/Ex2/include/Ex2/A.h Pages: 1 -->
<svg width="607pt" height="139pt"
 viewBox="0.00 0.00 607.00 139.00" xmlns="http://www.w3.org/2000/svg" xmlns:xlink="http://www.w3.org/1999/xlink">
<g id="graph0" class="graph" transform="scale(1 1) rotate(0) translate(4 135)">
<title>/home/travis/build/AliceO2Group/AliceO2/Examples/Ex2/include/Ex2/A.h</title>
<!-- Node1 -->
<g id="node1" class="node"><title>Node1</title>
<polygon fill="#bfbfbf" stroke="black" points="231,-78.5 231,-130.5 349,-130.5 349,-78.5 231,-78.5"/>
<text text-anchor="start" x="239" y="-118.5" font-family="Helvetica,sans-Serif" font-size="10.00">/home/travis/build</text>
<text text-anchor="start" x="239" y="-107.5" font-family="Helvetica,sans-Serif" font-size="10.00">/AliceO2Group/AliceO2</text>
<text text-anchor="start" x="239" y="-96.5" font-family="Helvetica,sans-Serif" font-size="10.00">/Examples/Ex2/include</text>
<text text-anchor="middle" x="290" y="-85.5" font-family="Helvetica,sans-Serif" font-size="10.00">/Ex2/A.h</text>
</g>
<!-- Node2 -->
<g id="node2" class="node"><title>Node2</title>
<g id="a_node2"><a xlink:href="../../dd/d4e/Ex2_2src_2A_8cxx.html" target="_top" xlink:title="/home/travis/build\l/AliceO2Group/AliceO2\l/Examples/Ex2/src/A.cxx">
<polygon fill="none" stroke="black" points="0,-0.5 0,-41.5 128,-41.5 128,-0.5 0,-0.5"/>
<text text-anchor="start" x="8" y="-29.5" font-family="Helvetica,sans-Serif" font-size="10.00">/home/travis/build</text>
<text text-anchor="start" x="8" y="-18.5" font-family="Helvetica,sans-Serif" font-size="10.00">/AliceO2Group/AliceO2</text>
<text text-anchor="middle" x="64" y="-7.5" font-family="Helvetica,sans-Serif" font-size="10.00">/Examples/Ex2/src/A.cxx</text>
</a>
</g>
</g>
<!-- Node1&#45;&gt;Node2 -->
<g id="edge1" class="edge"><title>Node1&#45;&gt;Node2</title>
<path fill="none" stroke="midnightblue" d="M221.301,-78.7258C188.19,-66.7853 149.049,-52.6705 118.095,-41.5077"/>
<polygon fill="midnightblue" stroke="midnightblue" points="220.322,-82.0933 230.916,-82.1933 222.697,-75.5084 220.322,-82.0933"/>
</g>
<!-- Node3 -->
<g id="node3" class="node"><title>Node3</title>
<g id="a_node3"><a xlink:href="../../d1/d76/Ex3_2src_2run_8cxx.html" target="_top" xlink:title="/home/travis/build\l/AliceO2Group/AliceO2\l/Examples/Ex3/src/run.cxx">
<polygon fill="none" stroke="black" points="146.5,-0.5 146.5,-41.5 281.5,-41.5 281.5,-0.5 146.5,-0.5"/>
<text text-anchor="start" x="154.5" y="-29.5" font-family="Helvetica,sans-Serif" font-size="10.00">/home/travis/build</text>
<text text-anchor="start" x="154.5" y="-18.5" font-family="Helvetica,sans-Serif" font-size="10.00">/AliceO2Group/AliceO2</text>
<text text-anchor="middle" x="214" y="-7.5" font-family="Helvetica,sans-Serif" font-size="10.00">/Examples/Ex3/src/run.cxx</text>
</a>
</g>
</g>
<!-- Node1&#45;&gt;Node3 -->
<g id="edge2" class="edge"><title>Node1&#45;&gt;Node3</title>
<path fill="none" stroke="midnightblue" d="M259.484,-70.7754C250.274,-60.8991 240.454,-50.3679 232.304,-41.6282"/>
<polygon fill="midnightblue" stroke="midnightblue" points="256.99,-73.2331 266.37,-78.1596 262.109,-68.4591 256.99,-73.2331"/>
</g>
<!-- Node4 -->
<g id="node4" class="node"><title>Node4</title>
<g id="a_node4"><a xlink:href="../../d7/dfd/Ex4_2src_2run_8cxx.html" target="_top" xlink:title="/home/travis/build\l/AliceO2Group/AliceO2\l/Examples/Ex4/src/run.cxx">
<polygon fill="none" stroke="black" points="299.5,-0.5 299.5,-41.5 434.5,-41.5 434.5,-0.5 299.5,-0.5"/>
<text text-anchor="start" x="307.5" y="-29.5" font-family="Helvetica,sans-Serif" font-size="10.00">/home/travis/build</text>
<text text-anchor="start" x="307.5" y="-18.5" font-family="Helvetica,sans-Serif" font-size="10.00">/AliceO2Group/AliceO2</text>
<text text-anchor="middle" x="367" y="-7.5" font-family="Helvetica,sans-Serif" font-size="10.00">/Examples/Ex4/src/run.cxx</text>
</a>
</g>
</g>
<!-- Node1&#45;&gt;Node4 -->
<g id="edge3" class="edge"><title>Node1&#45;&gt;Node4</title>
<path fill="none" stroke="midnightblue" d="M320.918,-70.7754C330.249,-60.8991 340.198,-50.3679 348.456,-41.6282"/>
<polygon fill="midnightblue" stroke="midnightblue" points="318.265,-68.4871 313.941,-78.1596 323.353,-73.2944 318.265,-68.4871"/>
</g>
<!-- Node5 -->
<g id="node5" class="node"><title>Node5</title>
<g id="a_node5"><a xlink:href="../../d9/d58/test2_8cxx.html" target="_top" xlink:title="/home/travis/build\l/AliceO2Group/AliceO2\l/Examples/Ex4/test/test2.cxx">
<polygon fill="none" stroke="black" points="453,-0.5 453,-41.5 599,-41.5 599,-0.5 453,-0.5"/>
<text text-anchor="start" x="461" y="-29.5" font-family="Helvetica,sans-Serif" font-size="10.00">/home/travis/build</text>
<text text-anchor="start" x="461" y="-18.5" font-family="Helvetica,sans-Serif" font-size="10.00">/AliceO2Group/AliceO2</text>
<text text-anchor="middle" x="526" y="-7.5" font-family="Helvetica,sans-Serif" font-size="10.00">/Examples/Ex4/test/test2.cxx</text>
</a>
</g>
</g>
<!-- Node1&#45;&gt;Node5 -->
<g id="edge4" class="edge"><title>Node1&#45;&gt;Node5</title>
<path fill="none" stroke="midnightblue" d="M358.93,-79.6958C393.963,-67.5974 436.018,-53.0741 469.17,-41.6256"/>
<polygon fill="midnightblue" stroke="midnightblue" points="357.558,-76.4667 349.248,-83.0393 359.843,-83.0833 357.558,-76.4667"/>
</g>
</g>
</svg>
